G04 #@! TF.GenerationSoftware,KiCad,Pcbnew,6.0.0+dfsg1-2*
G04 #@! TF.CreationDate,2022-02-08T13:12:28-05:00*
G04 #@! TF.ProjectId,RUSP_Daughterboard,52555350-5f44-4617-9567-68746572626f,rev?*
G04 #@! TF.SameCoordinates,Original*
G04 #@! TF.FileFunction,AssemblyDrawing,Top*
%FSLAX46Y46*%
G04 Gerber Fmt 4.6, Leading zero omitted, Abs format (unit mm)*
G04 Created by KiCad (PCBNEW 6.0.0+dfsg1-2) date 2022-02-08 13:12:28*
%MOMM*%
%LPD*%
G01*
G04 APERTURE LIST*
%ADD10C,0.200000*%
%ADD11C,0.150000*%
%ADD12C,0.060000*%
%ADD13C,0.015000*%
%ADD14C,0.040000*%
%ADD15C,0.100000*%
%ADD16C,0.120000*%
%ADD17C,0.127000*%
G04 APERTURE END LIST*
D10*
X183000000Y-100000000D02*
G75*
G03*
X183000000Y-100000000I-33000000J0D01*
G01*
D11*
X135628571Y-78722380D02*
X135057142Y-78722380D01*
X135342857Y-78722380D02*
X135342857Y-77722380D01*
X135247619Y-77865238D01*
X135152380Y-77960476D01*
X135057142Y-78008095D01*
X136247619Y-77722380D02*
X136342857Y-77722380D01*
X136438095Y-77770000D01*
X136485714Y-77817619D01*
X136533333Y-77912857D01*
X136580952Y-78103333D01*
X136580952Y-78341428D01*
X136533333Y-78531904D01*
X136485714Y-78627142D01*
X136438095Y-78674761D01*
X136342857Y-78722380D01*
X136247619Y-78722380D01*
X136152380Y-78674761D01*
X136104761Y-78627142D01*
X136057142Y-78531904D01*
X136009523Y-78341428D01*
X136009523Y-78103333D01*
X136057142Y-77912857D01*
X136104761Y-77817619D01*
X136152380Y-77770000D01*
X136247619Y-77722380D01*
X137200000Y-77722380D02*
X137295238Y-77722380D01*
X137390476Y-77770000D01*
X137438095Y-77817619D01*
X137485714Y-77912857D01*
X137533333Y-78103333D01*
X137533333Y-78341428D01*
X137485714Y-78531904D01*
X137438095Y-78627142D01*
X137390476Y-78674761D01*
X137295238Y-78722380D01*
X137200000Y-78722380D01*
X137104761Y-78674761D01*
X137057142Y-78627142D01*
X137009523Y-78531904D01*
X136961904Y-78341428D01*
X136961904Y-78103333D01*
X137009523Y-77912857D01*
X137057142Y-77817619D01*
X137104761Y-77770000D01*
X137200000Y-77722380D01*
X137961904Y-78722380D02*
X137961904Y-77722380D01*
X138057142Y-78341428D02*
X138342857Y-78722380D01*
X138342857Y-78055714D02*
X137961904Y-78436666D01*
D12*
X136442857Y-79880952D02*
X136309523Y-79690476D01*
X136214285Y-79880952D02*
X136214285Y-79480952D01*
X136366666Y-79480952D01*
X136404761Y-79500000D01*
X136423809Y-79519047D01*
X136442857Y-79557142D01*
X136442857Y-79614285D01*
X136423809Y-79652380D01*
X136404761Y-79671428D01*
X136366666Y-79690476D01*
X136214285Y-79690476D01*
X136576190Y-79480952D02*
X136823809Y-79480952D01*
X136690476Y-79633333D01*
X136747619Y-79633333D01*
X136785714Y-79652380D01*
X136804761Y-79671428D01*
X136823809Y-79709523D01*
X136823809Y-79804761D01*
X136804761Y-79842857D01*
X136785714Y-79861904D01*
X136747619Y-79880952D01*
X136633333Y-79880952D01*
X136595238Y-79861904D01*
X136576190Y-79842857D01*
X136957142Y-79480952D02*
X137204761Y-79480952D01*
X137071428Y-79633333D01*
X137128571Y-79633333D01*
X137166666Y-79652380D01*
X137185714Y-79671428D01*
X137204761Y-79709523D01*
X137204761Y-79804761D01*
X137185714Y-79842857D01*
X137166666Y-79861904D01*
X137128571Y-79880952D01*
X137014285Y-79880952D01*
X136976190Y-79861904D01*
X136957142Y-79842857D01*
D11*
X135543571Y-70022380D02*
X134972142Y-70022380D01*
X135257857Y-70022380D02*
X135257857Y-69022380D01*
X135162619Y-69165238D01*
X135067380Y-69260476D01*
X134972142Y-69308095D01*
X136162619Y-69022380D02*
X136257857Y-69022380D01*
X136353095Y-69070000D01*
X136400714Y-69117619D01*
X136448333Y-69212857D01*
X136495952Y-69403333D01*
X136495952Y-69641428D01*
X136448333Y-69831904D01*
X136400714Y-69927142D01*
X136353095Y-69974761D01*
X136257857Y-70022380D01*
X136162619Y-70022380D01*
X136067380Y-69974761D01*
X136019761Y-69927142D01*
X135972142Y-69831904D01*
X135924523Y-69641428D01*
X135924523Y-69403333D01*
X135972142Y-69212857D01*
X136019761Y-69117619D01*
X136067380Y-69070000D01*
X136162619Y-69022380D01*
X137115000Y-69022380D02*
X137210238Y-69022380D01*
X137305476Y-69070000D01*
X137353095Y-69117619D01*
X137400714Y-69212857D01*
X137448333Y-69403333D01*
X137448333Y-69641428D01*
X137400714Y-69831904D01*
X137353095Y-69927142D01*
X137305476Y-69974761D01*
X137210238Y-70022380D01*
X137115000Y-70022380D01*
X137019761Y-69974761D01*
X136972142Y-69927142D01*
X136924523Y-69831904D01*
X136876904Y-69641428D01*
X136876904Y-69403333D01*
X136924523Y-69212857D01*
X136972142Y-69117619D01*
X137019761Y-69070000D01*
X137115000Y-69022380D01*
X137876904Y-70022380D02*
X137876904Y-69022380D01*
X137972142Y-69641428D02*
X138257857Y-70022380D01*
X138257857Y-69355714D02*
X137876904Y-69736666D01*
D12*
X136357857Y-71180952D02*
X136224523Y-70990476D01*
X136129285Y-71180952D02*
X136129285Y-70780952D01*
X136281666Y-70780952D01*
X136319761Y-70800000D01*
X136338809Y-70819047D01*
X136357857Y-70857142D01*
X136357857Y-70914285D01*
X136338809Y-70952380D01*
X136319761Y-70971428D01*
X136281666Y-70990476D01*
X136129285Y-70990476D01*
X136491190Y-70780952D02*
X136738809Y-70780952D01*
X136605476Y-70933333D01*
X136662619Y-70933333D01*
X136700714Y-70952380D01*
X136719761Y-70971428D01*
X136738809Y-71009523D01*
X136738809Y-71104761D01*
X136719761Y-71142857D01*
X136700714Y-71161904D01*
X136662619Y-71180952D01*
X136548333Y-71180952D01*
X136510238Y-71161904D01*
X136491190Y-71142857D01*
X136891190Y-70819047D02*
X136910238Y-70800000D01*
X136948333Y-70780952D01*
X137043571Y-70780952D01*
X137081666Y-70800000D01*
X137100714Y-70819047D01*
X137119761Y-70857142D01*
X137119761Y-70895238D01*
X137100714Y-70952380D01*
X136872142Y-71180952D01*
X137119761Y-71180952D01*
D11*
X144635012Y-121882424D02*
X143927905Y-121175317D01*
X144096264Y-121006959D01*
X144230951Y-120939615D01*
X144365638Y-120939615D01*
X144466653Y-120973287D01*
X144635012Y-121074302D01*
X144736027Y-121175317D01*
X144837043Y-121343676D01*
X144870714Y-121444691D01*
X144870714Y-121579378D01*
X144803371Y-121714065D01*
X144635012Y-121882424D01*
X145241104Y-121411020D02*
X145779852Y-120872272D01*
X145072745Y-120030478D02*
X145476806Y-119626417D01*
X145981882Y-120535554D02*
X145274775Y-119828447D01*
X145611493Y-119491730D02*
X146554302Y-119963134D01*
X146082898Y-119020325D01*
X146958363Y-119491730D02*
X147093050Y-119424386D01*
X147261409Y-119256027D01*
X147295081Y-119155012D01*
X147295081Y-119087669D01*
X147261409Y-118986653D01*
X147194065Y-118919310D01*
X147093050Y-118885638D01*
X147025707Y-118885638D01*
X146924691Y-118919310D01*
X146756333Y-119020325D01*
X146655317Y-119053997D01*
X146587974Y-119053997D01*
X146486959Y-119020325D01*
X146419615Y-118952982D01*
X146385943Y-118851966D01*
X146385943Y-118784623D01*
X146419615Y-118683608D01*
X146587974Y-118515249D01*
X146722661Y-118447905D01*
D12*
X146609187Y-121546717D02*
X146326345Y-121263874D01*
X146393688Y-121196531D01*
X146447563Y-121169593D01*
X146501438Y-121169593D01*
X146541844Y-121183062D01*
X146609187Y-121223468D01*
X146649593Y-121263874D01*
X146690000Y-121331218D01*
X146703468Y-121371624D01*
X146703468Y-121425499D01*
X146676531Y-121479374D01*
X146609187Y-121546717D01*
X146824687Y-120954094D02*
X147013248Y-121142656D01*
X146649593Y-120913688D02*
X146784280Y-121183062D01*
X146959374Y-121007969D01*
D11*
X142414860Y-121547890D02*
X142482203Y-121547890D01*
X142482203Y-121615233D01*
X142414860Y-121615233D01*
X142414860Y-121547890D01*
X142482203Y-121615233D01*
X143189310Y-120908126D02*
X142785249Y-121312187D01*
X142987279Y-121110157D02*
X142280173Y-120403050D01*
X142313844Y-120571409D01*
X142313844Y-120706096D01*
X142280173Y-120807111D01*
X143323997Y-119830630D02*
X143795401Y-120302035D01*
X143020951Y-120133676D02*
X143391340Y-120504065D01*
X143492356Y-120537737D01*
X143593371Y-120504065D01*
X143694386Y-120403050D01*
X143728058Y-120302035D01*
X143728058Y-120234691D01*
X143997432Y-119359226D02*
X143761730Y-119594928D01*
X144132119Y-119965317D02*
X143425012Y-119258211D01*
X143761730Y-118921493D01*
X144502508Y-118113371D02*
X144805554Y-119628600D01*
X145849378Y-118248058D02*
X145445317Y-118652119D01*
X145647348Y-118450088D02*
X144940241Y-117742982D01*
X144973913Y-117911340D01*
X144973913Y-118046027D01*
X144940241Y-118147043D01*
X145748363Y-116934860D02*
X145613676Y-117069547D01*
X145580004Y-117170562D01*
X145580004Y-117237905D01*
X145613676Y-117406264D01*
X145714691Y-117574623D01*
X145984065Y-117843997D01*
X146085081Y-117877669D01*
X146152424Y-117877669D01*
X146253439Y-117843997D01*
X146388126Y-117709310D01*
X146421798Y-117608295D01*
X146421798Y-117540951D01*
X146388126Y-117439936D01*
X146219768Y-117271577D01*
X146118752Y-117237905D01*
X146051409Y-117237905D01*
X145950394Y-117271577D01*
X145815707Y-117406264D01*
X145782035Y-117507279D01*
X145782035Y-117574623D01*
X145815707Y-117675638D01*
X146017737Y-116665486D02*
X146960546Y-117136890D01*
X146489142Y-116194081D01*
D12*
X145533874Y-120148155D02*
X145533874Y-120175093D01*
X145506937Y-120228967D01*
X145480000Y-120255905D01*
X145426125Y-120282842D01*
X145372250Y-120282842D01*
X145331844Y-120269374D01*
X145264500Y-120228967D01*
X145224094Y-120188561D01*
X145183688Y-120121218D01*
X145170219Y-120080812D01*
X145170219Y-120026937D01*
X145197157Y-119973062D01*
X145224094Y-119946125D01*
X145277969Y-119919187D01*
X145304906Y-119919187D01*
X145533874Y-119636345D02*
X145399187Y-119771032D01*
X145520406Y-119919187D01*
X145520406Y-119892250D01*
X145533874Y-119851844D01*
X145601218Y-119784500D01*
X145641624Y-119771032D01*
X145668561Y-119771032D01*
X145708967Y-119784500D01*
X145776311Y-119851844D01*
X145789780Y-119892250D01*
X145789780Y-119919187D01*
X145776311Y-119959593D01*
X145708967Y-120026937D01*
X145668561Y-120040406D01*
X145641624Y-120040406D01*
D11*
X144545486Y-123439142D02*
X145016890Y-123910546D01*
X144107753Y-123338126D02*
X144444470Y-124011561D01*
X144882203Y-123573829D01*
X144612829Y-122900394D02*
X145084234Y-122428989D01*
X145488295Y-123439142D01*
X145589310Y-122395317D02*
X146296417Y-123102424D01*
X145622982Y-122428989D02*
X145656653Y-122327974D01*
X145791340Y-122193287D01*
X145892356Y-122159615D01*
X145959699Y-122159615D01*
X146060714Y-122193287D01*
X146262745Y-122395317D01*
X146296417Y-122496333D01*
X146296417Y-122563676D01*
X146262745Y-122664691D01*
X146128058Y-122799378D01*
X146027043Y-122833050D01*
X146565791Y-121620867D02*
X146330088Y-121856569D01*
X146700478Y-122226959D02*
X145993371Y-121519852D01*
X146330088Y-121183134D01*
X147070867Y-120375012D02*
X147373913Y-121890241D01*
X147676959Y-119836264D02*
X147340241Y-120172982D01*
X147643287Y-120543371D01*
X147643287Y-120476027D01*
X147676959Y-120375012D01*
X147845317Y-120206653D01*
X147946333Y-120172982D01*
X148013676Y-120172982D01*
X148114691Y-120206653D01*
X148283050Y-120375012D01*
X148316722Y-120476027D01*
X148316722Y-120543371D01*
X148283050Y-120644386D01*
X148114691Y-120812745D01*
X148013676Y-120846417D01*
X147946333Y-120846417D01*
X148148363Y-119364860D02*
X148215707Y-119297516D01*
X148316722Y-119263844D01*
X148384065Y-119263844D01*
X148485081Y-119297516D01*
X148653439Y-119398531D01*
X148821798Y-119566890D01*
X148922813Y-119735249D01*
X148956485Y-119836264D01*
X148956485Y-119903608D01*
X148922813Y-120004623D01*
X148855470Y-120071966D01*
X148754455Y-120105638D01*
X148687111Y-120105638D01*
X148586096Y-120071966D01*
X148417737Y-119970951D01*
X148249378Y-119802592D01*
X148148363Y-119634234D01*
X148114691Y-119533218D01*
X148114691Y-119465875D01*
X148148363Y-119364860D01*
X148586096Y-118927127D02*
X149528905Y-119398531D01*
X149057500Y-118455722D01*
D12*
X147933874Y-122578155D02*
X147933874Y-122605093D01*
X147906937Y-122658967D01*
X147880000Y-122685905D01*
X147826125Y-122712842D01*
X147772250Y-122712842D01*
X147731844Y-122699374D01*
X147664500Y-122658967D01*
X147624094Y-122618561D01*
X147583688Y-122551218D01*
X147570219Y-122510812D01*
X147570219Y-122456937D01*
X147597157Y-122403062D01*
X147624094Y-122376125D01*
X147677969Y-122349187D01*
X147704906Y-122349187D01*
X148014687Y-122174094D02*
X148203248Y-122362656D01*
X147839593Y-122133688D02*
X147974280Y-122403062D01*
X148149374Y-122227969D01*
D11*
X136214285Y-117152380D02*
X136214285Y-116152380D01*
X136547619Y-116866666D01*
X136880952Y-116152380D01*
X136880952Y-117152380D01*
X137500000Y-117152380D02*
X137404761Y-117104761D01*
X137357142Y-117057142D01*
X137309523Y-116961904D01*
X137309523Y-116676190D01*
X137357142Y-116580952D01*
X137404761Y-116533333D01*
X137500000Y-116485714D01*
X137642857Y-116485714D01*
X137738095Y-116533333D01*
X137785714Y-116580952D01*
X137833333Y-116676190D01*
X137833333Y-116961904D01*
X137785714Y-117057142D01*
X137738095Y-117104761D01*
X137642857Y-117152380D01*
X137500000Y-117152380D01*
X138690476Y-116485714D02*
X138690476Y-117152380D01*
X138261904Y-116485714D02*
X138261904Y-117009523D01*
X138309523Y-117104761D01*
X138404761Y-117152380D01*
X138547619Y-117152380D01*
X138642857Y-117104761D01*
X138690476Y-117057142D01*
X139166666Y-116485714D02*
X139166666Y-117152380D01*
X139166666Y-116580952D02*
X139214285Y-116533333D01*
X139309523Y-116485714D01*
X139452380Y-116485714D01*
X139547619Y-116533333D01*
X139595238Y-116628571D01*
X139595238Y-117152380D01*
X139928571Y-116485714D02*
X140309523Y-116485714D01*
X140071428Y-116152380D02*
X140071428Y-117009523D01*
X140119047Y-117104761D01*
X140214285Y-117152380D01*
X140309523Y-117152380D01*
X140642857Y-117152380D02*
X140642857Y-116485714D01*
X140642857Y-116152380D02*
X140595238Y-116200000D01*
X140642857Y-116247619D01*
X140690476Y-116200000D01*
X140642857Y-116152380D01*
X140642857Y-116247619D01*
X141119047Y-116485714D02*
X141119047Y-117152380D01*
X141119047Y-116580952D02*
X141166666Y-116533333D01*
X141261904Y-116485714D01*
X141404761Y-116485714D01*
X141500000Y-116533333D01*
X141547619Y-116628571D01*
X141547619Y-117152380D01*
X142452380Y-116485714D02*
X142452380Y-117295238D01*
X142404761Y-117390476D01*
X142357142Y-117438095D01*
X142261904Y-117485714D01*
X142119047Y-117485714D01*
X142023809Y-117438095D01*
X142452380Y-117104761D02*
X142357142Y-117152380D01*
X142166666Y-117152380D01*
X142071428Y-117104761D01*
X142023809Y-117057142D01*
X141976190Y-116961904D01*
X141976190Y-116676190D01*
X142023809Y-116580952D01*
X142071428Y-116533333D01*
X142166666Y-116485714D01*
X142357142Y-116485714D01*
X142452380Y-116533333D01*
X142928571Y-117152380D02*
X142928571Y-116152380D01*
X142928571Y-116628571D02*
X143500000Y-116628571D01*
X143500000Y-117152380D02*
X143500000Y-116152380D01*
X144119047Y-117152380D02*
X144023809Y-117104761D01*
X143976190Y-117057142D01*
X143928571Y-116961904D01*
X143928571Y-116676190D01*
X143976190Y-116580952D01*
X144023809Y-116533333D01*
X144119047Y-116485714D01*
X144261904Y-116485714D01*
X144357142Y-116533333D01*
X144404761Y-116580952D01*
X144452380Y-116676190D01*
X144452380Y-116961904D01*
X144404761Y-117057142D01*
X144357142Y-117104761D01*
X144261904Y-117152380D01*
X144119047Y-117152380D01*
X145023809Y-117152380D02*
X144928571Y-117104761D01*
X144880952Y-117009523D01*
X144880952Y-116152380D01*
X145785714Y-117104761D02*
X145690476Y-117152380D01*
X145500000Y-117152380D01*
X145404761Y-117104761D01*
X145357142Y-117009523D01*
X145357142Y-116628571D01*
X145404761Y-116533333D01*
X145500000Y-116485714D01*
X145690476Y-116485714D01*
X145785714Y-116533333D01*
X145833333Y-116628571D01*
X145833333Y-116723809D01*
X145357142Y-116819047D01*
X169119047Y-72428571D02*
X168785714Y-72428571D01*
X168785714Y-72952380D02*
X168785714Y-71952380D01*
X169261904Y-71952380D01*
X169642857Y-72952380D02*
X169642857Y-72285714D01*
X169642857Y-71952380D02*
X169595238Y-72000000D01*
X169642857Y-72047619D01*
X169690476Y-72000000D01*
X169642857Y-71952380D01*
X169642857Y-72047619D01*
X170547619Y-72952380D02*
X170547619Y-71952380D01*
X170547619Y-72904761D02*
X170452380Y-72952380D01*
X170261904Y-72952380D01*
X170166666Y-72904761D01*
X170119047Y-72857142D01*
X170071428Y-72761904D01*
X170071428Y-72476190D01*
X170119047Y-72380952D01*
X170166666Y-72333333D01*
X170261904Y-72285714D01*
X170452380Y-72285714D01*
X170547619Y-72333333D01*
X171452380Y-72285714D02*
X171452380Y-72952380D01*
X171023809Y-72285714D02*
X171023809Y-72809523D01*
X171071428Y-72904761D01*
X171166666Y-72952380D01*
X171309523Y-72952380D01*
X171404761Y-72904761D01*
X171452380Y-72857142D01*
X172357142Y-72904761D02*
X172261904Y-72952380D01*
X172071428Y-72952380D01*
X171976190Y-72904761D01*
X171928571Y-72857142D01*
X171880952Y-72761904D01*
X171880952Y-72476190D01*
X171928571Y-72380952D01*
X171976190Y-72333333D01*
X172071428Y-72285714D01*
X172261904Y-72285714D01*
X172357142Y-72333333D01*
X172785714Y-72952380D02*
X172785714Y-72285714D01*
X172785714Y-71952380D02*
X172738095Y-72000000D01*
X172785714Y-72047619D01*
X172833333Y-72000000D01*
X172785714Y-71952380D01*
X172785714Y-72047619D01*
X173690476Y-72952380D02*
X173690476Y-72428571D01*
X173642857Y-72333333D01*
X173547619Y-72285714D01*
X173357142Y-72285714D01*
X173261904Y-72333333D01*
X173690476Y-72904761D02*
X173595238Y-72952380D01*
X173357142Y-72952380D01*
X173261904Y-72904761D01*
X173214285Y-72809523D01*
X173214285Y-72714285D01*
X173261904Y-72619047D01*
X173357142Y-72571428D01*
X173595238Y-72571428D01*
X173690476Y-72523809D01*
X174309523Y-72952380D02*
X174214285Y-72904761D01*
X174166666Y-72809523D01*
X174166666Y-71952380D01*
X124119047Y-88428571D02*
X123785714Y-88428571D01*
X123785714Y-88952380D02*
X123785714Y-87952380D01*
X124261904Y-87952380D01*
X124642857Y-88952380D02*
X124642857Y-88285714D01*
X124642857Y-87952380D02*
X124595238Y-88000000D01*
X124642857Y-88047619D01*
X124690476Y-88000000D01*
X124642857Y-87952380D01*
X124642857Y-88047619D01*
X125547619Y-88952380D02*
X125547619Y-87952380D01*
X125547619Y-88904761D02*
X125452380Y-88952380D01*
X125261904Y-88952380D01*
X125166666Y-88904761D01*
X125119047Y-88857142D01*
X125071428Y-88761904D01*
X125071428Y-88476190D01*
X125119047Y-88380952D01*
X125166666Y-88333333D01*
X125261904Y-88285714D01*
X125452380Y-88285714D01*
X125547619Y-88333333D01*
X126452380Y-88285714D02*
X126452380Y-88952380D01*
X126023809Y-88285714D02*
X126023809Y-88809523D01*
X126071428Y-88904761D01*
X126166666Y-88952380D01*
X126309523Y-88952380D01*
X126404761Y-88904761D01*
X126452380Y-88857142D01*
X127357142Y-88904761D02*
X127261904Y-88952380D01*
X127071428Y-88952380D01*
X126976190Y-88904761D01*
X126928571Y-88857142D01*
X126880952Y-88761904D01*
X126880952Y-88476190D01*
X126928571Y-88380952D01*
X126976190Y-88333333D01*
X127071428Y-88285714D01*
X127261904Y-88285714D01*
X127357142Y-88333333D01*
X127785714Y-88952380D02*
X127785714Y-88285714D01*
X127785714Y-87952380D02*
X127738095Y-88000000D01*
X127785714Y-88047619D01*
X127833333Y-88000000D01*
X127785714Y-87952380D01*
X127785714Y-88047619D01*
X128690476Y-88952380D02*
X128690476Y-88428571D01*
X128642857Y-88333333D01*
X128547619Y-88285714D01*
X128357142Y-88285714D01*
X128261904Y-88333333D01*
X128690476Y-88904761D02*
X128595238Y-88952380D01*
X128357142Y-88952380D01*
X128261904Y-88904761D01*
X128214285Y-88809523D01*
X128214285Y-88714285D01*
X128261904Y-88619047D01*
X128357142Y-88571428D01*
X128595238Y-88571428D01*
X128690476Y-88523809D01*
X129309523Y-88952380D02*
X129214285Y-88904761D01*
X129166666Y-88809523D01*
X129166666Y-87952380D01*
D13*
X118287414Y-108602474D02*
X116686949Y-108602474D01*
X117830139Y-108068986D01*
X116686949Y-107535497D01*
X118287414Y-107535497D01*
X118287414Y-106773371D02*
X117220438Y-106773371D01*
X116686949Y-106773371D02*
X116763162Y-106849584D01*
X116839375Y-106773371D01*
X116763162Y-106697159D01*
X116686949Y-106773371D01*
X116839375Y-106773371D01*
X118211202Y-105325331D02*
X118287414Y-105477757D01*
X118287414Y-105782607D01*
X118211202Y-105935032D01*
X118134989Y-106011245D01*
X117982564Y-106087458D01*
X117525288Y-106087458D01*
X117372863Y-106011245D01*
X117296650Y-105935032D01*
X117220438Y-105782607D01*
X117220438Y-105477757D01*
X117296650Y-105325331D01*
X118287414Y-104639418D02*
X117220438Y-104639418D01*
X117525288Y-104639418D02*
X117372863Y-104563205D01*
X117296650Y-104486993D01*
X117220438Y-104334567D01*
X117220438Y-104182142D01*
X118287414Y-103420016D02*
X118211202Y-103572441D01*
X118134989Y-103648654D01*
X117982564Y-103724866D01*
X117525288Y-103724866D01*
X117372863Y-103648654D01*
X117296650Y-103572441D01*
X117220438Y-103420016D01*
X117220438Y-103191378D01*
X117296650Y-103038953D01*
X117372863Y-102962740D01*
X117525288Y-102886528D01*
X117982564Y-102886528D01*
X118134989Y-102962740D01*
X118211202Y-103038953D01*
X118287414Y-103191378D01*
X118287414Y-103420016D01*
X118439840Y-102581677D02*
X118439840Y-101362275D01*
X118211202Y-101057425D02*
X118287414Y-100828787D01*
X118287414Y-100447724D01*
X118211202Y-100295299D01*
X118134989Y-100219086D01*
X117982564Y-100142873D01*
X117830139Y-100142873D01*
X117677713Y-100219086D01*
X117601501Y-100295299D01*
X117525288Y-100447724D01*
X117449076Y-100752574D01*
X117372863Y-100905000D01*
X117296650Y-100981212D01*
X117144225Y-101057425D01*
X116991800Y-101057425D01*
X116839375Y-100981212D01*
X116763162Y-100905000D01*
X116686949Y-100752574D01*
X116686949Y-100371511D01*
X116763162Y-100142873D01*
X118287414Y-99456960D02*
X116686949Y-99456960D01*
X116686949Y-99075897D01*
X116763162Y-98847259D01*
X116915587Y-98694834D01*
X117068012Y-98618621D01*
X117372863Y-98542408D01*
X117601501Y-98542408D01*
X117906351Y-98618621D01*
X118058777Y-98694834D01*
X118211202Y-98847259D01*
X118287414Y-99075897D01*
X118287414Y-99456960D01*
X118439840Y-98237558D02*
X118439840Y-97018156D01*
X118134989Y-95722541D02*
X118211202Y-95798754D01*
X118287414Y-96027392D01*
X118287414Y-96179817D01*
X118211202Y-96408455D01*
X118058777Y-96560880D01*
X117906351Y-96637093D01*
X117601501Y-96713305D01*
X117372863Y-96713305D01*
X117068012Y-96637093D01*
X116915587Y-96560880D01*
X116763162Y-96408455D01*
X116686949Y-96179817D01*
X116686949Y-96027392D01*
X116763162Y-95798754D01*
X116839375Y-95722541D01*
X118287414Y-94350714D02*
X117449076Y-94350714D01*
X117296650Y-94426927D01*
X117220438Y-94579352D01*
X117220438Y-94884203D01*
X117296650Y-95036628D01*
X118211202Y-94350714D02*
X118287414Y-94503140D01*
X118287414Y-94884203D01*
X118211202Y-95036628D01*
X118058777Y-95112840D01*
X117906351Y-95112840D01*
X117753926Y-95036628D01*
X117677713Y-94884203D01*
X117677713Y-94503140D01*
X117601501Y-94350714D01*
X118287414Y-93588588D02*
X117220438Y-93588588D01*
X117525288Y-93588588D02*
X117372863Y-93512375D01*
X117296650Y-93436163D01*
X117220438Y-93283738D01*
X117220438Y-93131312D01*
X118287414Y-91911910D02*
X116686949Y-91911910D01*
X118211202Y-91911910D02*
X118287414Y-92064336D01*
X118287414Y-92369186D01*
X118211202Y-92521611D01*
X118134989Y-92597824D01*
X117982564Y-92674037D01*
X117525288Y-92674037D01*
X117372863Y-92597824D01*
X117296650Y-92521611D01*
X117220438Y-92369186D01*
X117220438Y-92064336D01*
X117296650Y-91911910D01*
X118439840Y-91530847D02*
X118439840Y-90311445D01*
X118287414Y-89930382D02*
X116686949Y-89930382D01*
X116686949Y-89549319D01*
X116763162Y-89320681D01*
X116915587Y-89168256D01*
X117068012Y-89092044D01*
X117372863Y-89015831D01*
X117601501Y-89015831D01*
X117906351Y-89092044D01*
X118058777Y-89168256D01*
X118211202Y-89320681D01*
X118287414Y-89549319D01*
X118287414Y-89930382D01*
X118211202Y-87720216D02*
X118287414Y-87872642D01*
X118287414Y-88177492D01*
X118211202Y-88329917D01*
X118058777Y-88406130D01*
X117449076Y-88406130D01*
X117296650Y-88329917D01*
X117220438Y-88177492D01*
X117220438Y-87872642D01*
X117296650Y-87720216D01*
X117449076Y-87644004D01*
X117601501Y-87644004D01*
X117753926Y-88406130D01*
X117220438Y-87186728D02*
X117220438Y-86577027D01*
X116686949Y-86958090D02*
X118058777Y-86958090D01*
X118211202Y-86881878D01*
X118287414Y-86729452D01*
X118287414Y-86577027D01*
D11*
X171714285Y-99152380D02*
X171714285Y-98152380D01*
X172047619Y-98866666D01*
X172380952Y-98152380D01*
X172380952Y-99152380D01*
X173000000Y-99152380D02*
X172904761Y-99104761D01*
X172857142Y-99057142D01*
X172809523Y-98961904D01*
X172809523Y-98676190D01*
X172857142Y-98580952D01*
X172904761Y-98533333D01*
X173000000Y-98485714D01*
X173142857Y-98485714D01*
X173238095Y-98533333D01*
X173285714Y-98580952D01*
X173333333Y-98676190D01*
X173333333Y-98961904D01*
X173285714Y-99057142D01*
X173238095Y-99104761D01*
X173142857Y-99152380D01*
X173000000Y-99152380D01*
X174190476Y-98485714D02*
X174190476Y-99152380D01*
X173761904Y-98485714D02*
X173761904Y-99009523D01*
X173809523Y-99104761D01*
X173904761Y-99152380D01*
X174047619Y-99152380D01*
X174142857Y-99104761D01*
X174190476Y-99057142D01*
X174666666Y-98485714D02*
X174666666Y-99152380D01*
X174666666Y-98580952D02*
X174714285Y-98533333D01*
X174809523Y-98485714D01*
X174952380Y-98485714D01*
X175047619Y-98533333D01*
X175095238Y-98628571D01*
X175095238Y-99152380D01*
X175428571Y-98485714D02*
X175809523Y-98485714D01*
X175571428Y-98152380D02*
X175571428Y-99009523D01*
X175619047Y-99104761D01*
X175714285Y-99152380D01*
X175809523Y-99152380D01*
X176142857Y-99152380D02*
X176142857Y-98485714D01*
X176142857Y-98152380D02*
X176095238Y-98200000D01*
X176142857Y-98247619D01*
X176190476Y-98200000D01*
X176142857Y-98152380D01*
X176142857Y-98247619D01*
X176619047Y-98485714D02*
X176619047Y-99152380D01*
X176619047Y-98580952D02*
X176666666Y-98533333D01*
X176761904Y-98485714D01*
X176904761Y-98485714D01*
X177000000Y-98533333D01*
X177047619Y-98628571D01*
X177047619Y-99152380D01*
X177952380Y-98485714D02*
X177952380Y-99295238D01*
X177904761Y-99390476D01*
X177857142Y-99438095D01*
X177761904Y-99485714D01*
X177619047Y-99485714D01*
X177523809Y-99438095D01*
X177952380Y-99104761D02*
X177857142Y-99152380D01*
X177666666Y-99152380D01*
X177571428Y-99104761D01*
X177523809Y-99057142D01*
X177476190Y-98961904D01*
X177476190Y-98676190D01*
X177523809Y-98580952D01*
X177571428Y-98533333D01*
X177666666Y-98485714D01*
X177857142Y-98485714D01*
X177952380Y-98533333D01*
X178428571Y-99152380D02*
X178428571Y-98152380D01*
X178428571Y-98628571D02*
X179000000Y-98628571D01*
X179000000Y-99152380D02*
X179000000Y-98152380D01*
X179619047Y-99152380D02*
X179523809Y-99104761D01*
X179476190Y-99057142D01*
X179428571Y-98961904D01*
X179428571Y-98676190D01*
X179476190Y-98580952D01*
X179523809Y-98533333D01*
X179619047Y-98485714D01*
X179761904Y-98485714D01*
X179857142Y-98533333D01*
X179904761Y-98580952D01*
X179952380Y-98676190D01*
X179952380Y-98961904D01*
X179904761Y-99057142D01*
X179857142Y-99104761D01*
X179761904Y-99152380D01*
X179619047Y-99152380D01*
X180523809Y-99152380D02*
X180428571Y-99104761D01*
X180380952Y-99009523D01*
X180380952Y-98152380D01*
X181285714Y-99104761D02*
X181190476Y-99152380D01*
X181000000Y-99152380D01*
X180904761Y-99104761D01*
X180857142Y-99009523D01*
X180857142Y-98628571D01*
X180904761Y-98533333D01*
X181000000Y-98485714D01*
X181190476Y-98485714D01*
X181285714Y-98533333D01*
X181333333Y-98628571D01*
X181333333Y-98723809D01*
X180857142Y-98819047D01*
X149214285Y-127952380D02*
X149214285Y-126952380D01*
X149547619Y-127666666D01*
X149880952Y-126952380D01*
X149880952Y-127952380D01*
X150500000Y-127952380D02*
X150404761Y-127904761D01*
X150357142Y-127857142D01*
X150309523Y-127761904D01*
X150309523Y-127476190D01*
X150357142Y-127380952D01*
X150404761Y-127333333D01*
X150500000Y-127285714D01*
X150642857Y-127285714D01*
X150738095Y-127333333D01*
X150785714Y-127380952D01*
X150833333Y-127476190D01*
X150833333Y-127761904D01*
X150785714Y-127857142D01*
X150738095Y-127904761D01*
X150642857Y-127952380D01*
X150500000Y-127952380D01*
X151690476Y-127285714D02*
X151690476Y-127952380D01*
X151261904Y-127285714D02*
X151261904Y-127809523D01*
X151309523Y-127904761D01*
X151404761Y-127952380D01*
X151547619Y-127952380D01*
X151642857Y-127904761D01*
X151690476Y-127857142D01*
X152166666Y-127285714D02*
X152166666Y-127952380D01*
X152166666Y-127380952D02*
X152214285Y-127333333D01*
X152309523Y-127285714D01*
X152452380Y-127285714D01*
X152547619Y-127333333D01*
X152595238Y-127428571D01*
X152595238Y-127952380D01*
X152928571Y-127285714D02*
X153309523Y-127285714D01*
X153071428Y-126952380D02*
X153071428Y-127809523D01*
X153119047Y-127904761D01*
X153214285Y-127952380D01*
X153309523Y-127952380D01*
X153642857Y-127952380D02*
X153642857Y-127285714D01*
X153642857Y-126952380D02*
X153595238Y-127000000D01*
X153642857Y-127047619D01*
X153690476Y-127000000D01*
X153642857Y-126952380D01*
X153642857Y-127047619D01*
X154119047Y-127285714D02*
X154119047Y-127952380D01*
X154119047Y-127380952D02*
X154166666Y-127333333D01*
X154261904Y-127285714D01*
X154404761Y-127285714D01*
X154500000Y-127333333D01*
X154547619Y-127428571D01*
X154547619Y-127952380D01*
X155452380Y-127285714D02*
X155452380Y-128095238D01*
X155404761Y-128190476D01*
X155357142Y-128238095D01*
X155261904Y-128285714D01*
X155119047Y-128285714D01*
X155023809Y-128238095D01*
X155452380Y-127904761D02*
X155357142Y-127952380D01*
X155166666Y-127952380D01*
X155071428Y-127904761D01*
X155023809Y-127857142D01*
X154976190Y-127761904D01*
X154976190Y-127476190D01*
X155023809Y-127380952D01*
X155071428Y-127333333D01*
X155166666Y-127285714D01*
X155357142Y-127285714D01*
X155452380Y-127333333D01*
X155928571Y-127952380D02*
X155928571Y-126952380D01*
X155928571Y-127428571D02*
X156500000Y-127428571D01*
X156500000Y-127952380D02*
X156500000Y-126952380D01*
X157119047Y-127952380D02*
X157023809Y-127904761D01*
X156976190Y-127857142D01*
X156928571Y-127761904D01*
X156928571Y-127476190D01*
X156976190Y-127380952D01*
X157023809Y-127333333D01*
X157119047Y-127285714D01*
X157261904Y-127285714D01*
X157357142Y-127333333D01*
X157404761Y-127380952D01*
X157452380Y-127476190D01*
X157452380Y-127761904D01*
X157404761Y-127857142D01*
X157357142Y-127904761D01*
X157261904Y-127952380D01*
X157119047Y-127952380D01*
X158023809Y-127952380D02*
X157928571Y-127904761D01*
X157880952Y-127809523D01*
X157880952Y-126952380D01*
X158785714Y-127904761D02*
X158690476Y-127952380D01*
X158500000Y-127952380D01*
X158404761Y-127904761D01*
X158357142Y-127809523D01*
X158357142Y-127428571D01*
X158404761Y-127333333D01*
X158500000Y-127285714D01*
X158690476Y-127285714D01*
X158785714Y-127333333D01*
X158833333Y-127428571D01*
X158833333Y-127523809D01*
X158357142Y-127619047D01*
X149214285Y-137652380D02*
X149214285Y-136652380D01*
X149547619Y-137366666D01*
X149880952Y-136652380D01*
X149880952Y-137652380D01*
X150500000Y-137652380D02*
X150404761Y-137604761D01*
X150357142Y-137557142D01*
X150309523Y-137461904D01*
X150309523Y-137176190D01*
X150357142Y-137080952D01*
X150404761Y-137033333D01*
X150500000Y-136985714D01*
X150642857Y-136985714D01*
X150738095Y-137033333D01*
X150785714Y-137080952D01*
X150833333Y-137176190D01*
X150833333Y-137461904D01*
X150785714Y-137557142D01*
X150738095Y-137604761D01*
X150642857Y-137652380D01*
X150500000Y-137652380D01*
X151690476Y-136985714D02*
X151690476Y-137652380D01*
X151261904Y-136985714D02*
X151261904Y-137509523D01*
X151309523Y-137604761D01*
X151404761Y-137652380D01*
X151547619Y-137652380D01*
X151642857Y-137604761D01*
X151690476Y-137557142D01*
X152166666Y-136985714D02*
X152166666Y-137652380D01*
X152166666Y-137080952D02*
X152214285Y-137033333D01*
X152309523Y-136985714D01*
X152452380Y-136985714D01*
X152547619Y-137033333D01*
X152595238Y-137128571D01*
X152595238Y-137652380D01*
X152928571Y-136985714D02*
X153309523Y-136985714D01*
X153071428Y-136652380D02*
X153071428Y-137509523D01*
X153119047Y-137604761D01*
X153214285Y-137652380D01*
X153309523Y-137652380D01*
X153642857Y-137652380D02*
X153642857Y-136985714D01*
X153642857Y-136652380D02*
X153595238Y-136700000D01*
X153642857Y-136747619D01*
X153690476Y-136700000D01*
X153642857Y-136652380D01*
X153642857Y-136747619D01*
X154119047Y-136985714D02*
X154119047Y-137652380D01*
X154119047Y-137080952D02*
X154166666Y-137033333D01*
X154261904Y-136985714D01*
X154404761Y-136985714D01*
X154500000Y-137033333D01*
X154547619Y-137128571D01*
X154547619Y-137652380D01*
X155452380Y-136985714D02*
X155452380Y-137795238D01*
X155404761Y-137890476D01*
X155357142Y-137938095D01*
X155261904Y-137985714D01*
X155119047Y-137985714D01*
X155023809Y-137938095D01*
X155452380Y-137604761D02*
X155357142Y-137652380D01*
X155166666Y-137652380D01*
X155071428Y-137604761D01*
X155023809Y-137557142D01*
X154976190Y-137461904D01*
X154976190Y-137176190D01*
X155023809Y-137080952D01*
X155071428Y-137033333D01*
X155166666Y-136985714D01*
X155357142Y-136985714D01*
X155452380Y-137033333D01*
X155928571Y-137652380D02*
X155928571Y-136652380D01*
X155928571Y-137128571D02*
X156500000Y-137128571D01*
X156500000Y-137652380D02*
X156500000Y-136652380D01*
X157119047Y-137652380D02*
X157023809Y-137604761D01*
X156976190Y-137557142D01*
X156928571Y-137461904D01*
X156928571Y-137176190D01*
X156976190Y-137080952D01*
X157023809Y-137033333D01*
X157119047Y-136985714D01*
X157261904Y-136985714D01*
X157357142Y-137033333D01*
X157404761Y-137080952D01*
X157452380Y-137176190D01*
X157452380Y-137461904D01*
X157404761Y-137557142D01*
X157357142Y-137604761D01*
X157261904Y-137652380D01*
X157119047Y-137652380D01*
X158023809Y-137652380D02*
X157928571Y-137604761D01*
X157880952Y-137509523D01*
X157880952Y-136652380D01*
X158785714Y-137604761D02*
X158690476Y-137652380D01*
X158500000Y-137652380D01*
X158404761Y-137604761D01*
X158357142Y-137509523D01*
X158357142Y-137128571D01*
X158404761Y-137033333D01*
X158500000Y-136985714D01*
X158690476Y-136985714D01*
X158785714Y-137033333D01*
X158833333Y-137128571D01*
X158833333Y-137223809D01*
X158357142Y-137319047D01*
X169119047Y-138928571D02*
X168785714Y-138928571D01*
X168785714Y-139452380D02*
X168785714Y-138452380D01*
X169261904Y-138452380D01*
X169642857Y-139452380D02*
X169642857Y-138785714D01*
X169642857Y-138452380D02*
X169595238Y-138500000D01*
X169642857Y-138547619D01*
X169690476Y-138500000D01*
X169642857Y-138452380D01*
X169642857Y-138547619D01*
X170547619Y-139452380D02*
X170547619Y-138452380D01*
X170547619Y-139404761D02*
X170452380Y-139452380D01*
X170261904Y-139452380D01*
X170166666Y-139404761D01*
X170119047Y-139357142D01*
X170071428Y-139261904D01*
X170071428Y-138976190D01*
X170119047Y-138880952D01*
X170166666Y-138833333D01*
X170261904Y-138785714D01*
X170452380Y-138785714D01*
X170547619Y-138833333D01*
X171452380Y-138785714D02*
X171452380Y-139452380D01*
X171023809Y-138785714D02*
X171023809Y-139309523D01*
X171071428Y-139404761D01*
X171166666Y-139452380D01*
X171309523Y-139452380D01*
X171404761Y-139404761D01*
X171452380Y-139357142D01*
X172357142Y-139404761D02*
X172261904Y-139452380D01*
X172071428Y-139452380D01*
X171976190Y-139404761D01*
X171928571Y-139357142D01*
X171880952Y-139261904D01*
X171880952Y-138976190D01*
X171928571Y-138880952D01*
X171976190Y-138833333D01*
X172071428Y-138785714D01*
X172261904Y-138785714D01*
X172357142Y-138833333D01*
X172785714Y-139452380D02*
X172785714Y-138785714D01*
X172785714Y-138452380D02*
X172738095Y-138500000D01*
X172785714Y-138547619D01*
X172833333Y-138500000D01*
X172785714Y-138452380D01*
X172785714Y-138547619D01*
X173690476Y-139452380D02*
X173690476Y-138928571D01*
X173642857Y-138833333D01*
X173547619Y-138785714D01*
X173357142Y-138785714D01*
X173261904Y-138833333D01*
X173690476Y-139404761D02*
X173595238Y-139452380D01*
X173357142Y-139452380D01*
X173261904Y-139404761D01*
X173214285Y-139309523D01*
X173214285Y-139214285D01*
X173261904Y-139119047D01*
X173357142Y-139071428D01*
X173595238Y-139071428D01*
X173690476Y-139023809D01*
X174309523Y-139452380D02*
X174214285Y-139404761D01*
X174166666Y-139309523D01*
X174166666Y-138452380D01*
X178142380Y-76978571D02*
X178142380Y-76359523D01*
X178523333Y-76692857D01*
X178523333Y-76550000D01*
X178570952Y-76454761D01*
X178618571Y-76407142D01*
X178713809Y-76359523D01*
X178951904Y-76359523D01*
X179047142Y-76407142D01*
X179094761Y-76454761D01*
X179142380Y-76550000D01*
X179142380Y-76835714D01*
X179094761Y-76930952D01*
X179047142Y-76978571D01*
X179047142Y-75930952D02*
X179094761Y-75883333D01*
X179142380Y-75930952D01*
X179094761Y-75978571D01*
X179047142Y-75930952D01*
X179142380Y-75930952D01*
X178142380Y-75026190D02*
X178142380Y-75216666D01*
X178190000Y-75311904D01*
X178237619Y-75359523D01*
X178380476Y-75454761D01*
X178570952Y-75502380D01*
X178951904Y-75502380D01*
X179047142Y-75454761D01*
X179094761Y-75407142D01*
X179142380Y-75311904D01*
X179142380Y-75121428D01*
X179094761Y-75026190D01*
X179047142Y-74978571D01*
X178951904Y-74930952D01*
X178713809Y-74930952D01*
X178618571Y-74978571D01*
X178570952Y-75026190D01*
X178523333Y-75121428D01*
X178523333Y-75311904D01*
X178570952Y-75407142D01*
X178618571Y-75454761D01*
X178713809Y-75502380D01*
X178475714Y-74502380D02*
X179475714Y-74502380D01*
X178523333Y-74502380D02*
X178475714Y-74407142D01*
X178475714Y-74216666D01*
X178523333Y-74121428D01*
X178570952Y-74073809D01*
X178666190Y-74026190D01*
X178951904Y-74026190D01*
X179047142Y-74073809D01*
X179094761Y-74121428D01*
X179142380Y-74216666D01*
X179142380Y-74407142D01*
X179094761Y-74502380D01*
X178618571Y-73264285D02*
X178618571Y-73597619D01*
X179142380Y-73597619D02*
X178142380Y-73597619D01*
X178142380Y-73121428D01*
D14*
X177619285Y-75091666D02*
X177631190Y-75103571D01*
X177643095Y-75139285D01*
X177643095Y-75163095D01*
X177631190Y-75198809D01*
X177607380Y-75222619D01*
X177583571Y-75234523D01*
X177535952Y-75246428D01*
X177500238Y-75246428D01*
X177452619Y-75234523D01*
X177428809Y-75222619D01*
X177405000Y-75198809D01*
X177393095Y-75163095D01*
X177393095Y-75139285D01*
X177405000Y-75103571D01*
X177416904Y-75091666D01*
X177393095Y-75008333D02*
X177393095Y-74841666D01*
X177643095Y-74948809D01*
D11*
X173379047Y-75122380D02*
X173569523Y-75122380D01*
X173664761Y-75074761D01*
X173712380Y-75027142D01*
X173807619Y-74884285D01*
X173855238Y-74693809D01*
X173855238Y-74312857D01*
X173807619Y-74217619D01*
X173760000Y-74170000D01*
X173664761Y-74122380D01*
X173474285Y-74122380D01*
X173379047Y-74170000D01*
X173331428Y-74217619D01*
X173283809Y-74312857D01*
X173283809Y-74550952D01*
X173331428Y-74646190D01*
X173379047Y-74693809D01*
X173474285Y-74741428D01*
X173664761Y-74741428D01*
X173760000Y-74693809D01*
X173807619Y-74646190D01*
X173855238Y-74550952D01*
X174283809Y-75027142D02*
X174331428Y-75074761D01*
X174283809Y-75122380D01*
X174236190Y-75074761D01*
X174283809Y-75027142D01*
X174283809Y-75122380D01*
X175236190Y-74122380D02*
X174760000Y-74122380D01*
X174712380Y-74598571D01*
X174760000Y-74550952D01*
X174855238Y-74503333D01*
X175093333Y-74503333D01*
X175188571Y-74550952D01*
X175236190Y-74598571D01*
X175283809Y-74693809D01*
X175283809Y-74931904D01*
X175236190Y-75027142D01*
X175188571Y-75074761D01*
X175093333Y-75122380D01*
X174855238Y-75122380D01*
X174760000Y-75074761D01*
X174712380Y-75027142D01*
X175712380Y-74455714D02*
X175712380Y-75122380D01*
X175712380Y-74550952D02*
X175760000Y-74503333D01*
X175855238Y-74455714D01*
X175998095Y-74455714D01*
X176093333Y-74503333D01*
X176140952Y-74598571D01*
X176140952Y-75122380D01*
X176617142Y-75122380D02*
X176617142Y-74122380D01*
X176617142Y-74598571D02*
X177188571Y-74598571D01*
X177188571Y-75122380D02*
X177188571Y-74122380D01*
X179037142Y-78432142D02*
X179084761Y-78384523D01*
X179132380Y-78432142D01*
X179084761Y-78479761D01*
X179037142Y-78432142D01*
X179132380Y-78432142D01*
X179132380Y-77908333D02*
X179132380Y-77717857D01*
X179084761Y-77622619D01*
X179037142Y-77575000D01*
X178894285Y-77479761D01*
X178703809Y-77432142D01*
X178322857Y-77432142D01*
X178227619Y-77479761D01*
X178180000Y-77527380D01*
X178132380Y-77622619D01*
X178132380Y-77813095D01*
X178180000Y-77908333D01*
X178227619Y-77955952D01*
X178322857Y-78003571D01*
X178560952Y-78003571D01*
X178656190Y-77955952D01*
X178703809Y-77908333D01*
X178751428Y-77813095D01*
X178751428Y-77622619D01*
X178703809Y-77527380D01*
X178656190Y-77479761D01*
X178560952Y-77432142D01*
X178465714Y-77003571D02*
X179465714Y-77003571D01*
X178513333Y-77003571D02*
X178465714Y-76908333D01*
X178465714Y-76717857D01*
X178513333Y-76622619D01*
X178560952Y-76575000D01*
X178656190Y-76527380D01*
X178941904Y-76527380D01*
X179037142Y-76575000D01*
X179084761Y-76622619D01*
X179132380Y-76717857D01*
X179132380Y-76908333D01*
X179084761Y-77003571D01*
X178608571Y-75765476D02*
X178608571Y-76098809D01*
X179132380Y-76098809D02*
X178132380Y-76098809D01*
X178132380Y-75622619D01*
D14*
X177609285Y-77116666D02*
X177621190Y-77128571D01*
X177633095Y-77164285D01*
X177633095Y-77188095D01*
X177621190Y-77223809D01*
X177597380Y-77247619D01*
X177573571Y-77259523D01*
X177525952Y-77271428D01*
X177490238Y-77271428D01*
X177442619Y-77259523D01*
X177418809Y-77247619D01*
X177395000Y-77223809D01*
X177383095Y-77188095D01*
X177383095Y-77164285D01*
X177395000Y-77128571D01*
X177406904Y-77116666D01*
X177383095Y-76902380D02*
X177383095Y-76950000D01*
X177395000Y-76973809D01*
X177406904Y-76985714D01*
X177442619Y-77009523D01*
X177490238Y-77021428D01*
X177585476Y-77021428D01*
X177609285Y-77009523D01*
X177621190Y-76997619D01*
X177633095Y-76973809D01*
X177633095Y-76926190D01*
X177621190Y-76902380D01*
X177609285Y-76890476D01*
X177585476Y-76878571D01*
X177525952Y-76878571D01*
X177502142Y-76890476D01*
X177490238Y-76902380D01*
X177478333Y-76926190D01*
X177478333Y-76973809D01*
X177490238Y-76997619D01*
X177502142Y-77009523D01*
X177525952Y-77021428D01*
D11*
X178462380Y-81683809D02*
X178462380Y-81017142D01*
X179462380Y-81445714D01*
X179367142Y-80636190D02*
X179414761Y-80588571D01*
X179462380Y-80636190D01*
X179414761Y-80683809D01*
X179367142Y-80636190D01*
X179462380Y-80636190D01*
X178462380Y-79683809D02*
X178462380Y-80160000D01*
X178938571Y-80207619D01*
X178890952Y-80160000D01*
X178843333Y-80064761D01*
X178843333Y-79826666D01*
X178890952Y-79731428D01*
X178938571Y-79683809D01*
X179033809Y-79636190D01*
X179271904Y-79636190D01*
X179367142Y-79683809D01*
X179414761Y-79731428D01*
X179462380Y-79826666D01*
X179462380Y-80064761D01*
X179414761Y-80160000D01*
X179367142Y-80207619D01*
X178795714Y-79207619D02*
X179462380Y-79207619D01*
X178890952Y-79207619D02*
X178843333Y-79160000D01*
X178795714Y-79064761D01*
X178795714Y-78921904D01*
X178843333Y-78826666D01*
X178938571Y-78779047D01*
X179462380Y-78779047D01*
X179462380Y-78302857D02*
X178462380Y-78302857D01*
X178938571Y-78302857D02*
X178938571Y-77731428D01*
X179462380Y-77731428D02*
X178462380Y-77731428D01*
X174083333Y-76822380D02*
X173511904Y-76822380D01*
X173797619Y-76822380D02*
X173797619Y-75822380D01*
X173702380Y-75965238D01*
X173607142Y-76060476D01*
X173511904Y-76108095D01*
X174988095Y-75822380D02*
X174511904Y-75822380D01*
X174464285Y-76298571D01*
X174511904Y-76250952D01*
X174607142Y-76203333D01*
X174845238Y-76203333D01*
X174940476Y-76250952D01*
X174988095Y-76298571D01*
X175035714Y-76393809D01*
X175035714Y-76631904D01*
X174988095Y-76727142D01*
X174940476Y-76774761D01*
X174845238Y-76822380D01*
X174607142Y-76822380D01*
X174511904Y-76774761D01*
X174464285Y-76727142D01*
X175464285Y-76155714D02*
X175464285Y-76822380D01*
X175464285Y-76250952D02*
X175511904Y-76203333D01*
X175607142Y-76155714D01*
X175750000Y-76155714D01*
X175845238Y-76203333D01*
X175892857Y-76298571D01*
X175892857Y-76822380D01*
X176369047Y-76822380D02*
X176369047Y-75822380D01*
X176369047Y-76298571D02*
X176940476Y-76298571D01*
X176940476Y-76822380D02*
X176940476Y-75822380D01*
X171709523Y-68555142D02*
X171661904Y-68602761D01*
X171519047Y-68650380D01*
X171423809Y-68650380D01*
X171280952Y-68602761D01*
X171185714Y-68507523D01*
X171138095Y-68412285D01*
X171090476Y-68221809D01*
X171090476Y-68078952D01*
X171138095Y-67888476D01*
X171185714Y-67793238D01*
X171280952Y-67698000D01*
X171423809Y-67650380D01*
X171519047Y-67650380D01*
X171661904Y-67698000D01*
X171709523Y-67745619D01*
X172280952Y-68650380D02*
X172185714Y-68602761D01*
X172138095Y-68555142D01*
X172090476Y-68459904D01*
X172090476Y-68174190D01*
X172138095Y-68078952D01*
X172185714Y-68031333D01*
X172280952Y-67983714D01*
X172423809Y-67983714D01*
X172519047Y-68031333D01*
X172566666Y-68078952D01*
X172614285Y-68174190D01*
X172614285Y-68459904D01*
X172566666Y-68555142D01*
X172519047Y-68602761D01*
X172423809Y-68650380D01*
X172280952Y-68650380D01*
X173042857Y-67983714D02*
X173042857Y-68650380D01*
X173042857Y-68078952D02*
X173090476Y-68031333D01*
X173185714Y-67983714D01*
X173328571Y-67983714D01*
X173423809Y-68031333D01*
X173471428Y-68126571D01*
X173471428Y-68650380D01*
X173947619Y-67983714D02*
X173947619Y-68650380D01*
X173947619Y-68078952D02*
X173995238Y-68031333D01*
X174090476Y-67983714D01*
X174233333Y-67983714D01*
X174328571Y-68031333D01*
X174376190Y-68126571D01*
X174376190Y-68650380D01*
X174614285Y-68745619D02*
X175376190Y-68745619D01*
X176185714Y-68555142D02*
X176138095Y-68602761D01*
X175995238Y-68650380D01*
X175900000Y-68650380D01*
X175757142Y-68602761D01*
X175661904Y-68507523D01*
X175614285Y-68412285D01*
X175566666Y-68221809D01*
X175566666Y-68078952D01*
X175614285Y-67888476D01*
X175661904Y-67793238D01*
X175757142Y-67698000D01*
X175900000Y-67650380D01*
X175995238Y-67650380D01*
X176138095Y-67698000D01*
X176185714Y-67745619D01*
X176757142Y-68650380D02*
X176661904Y-68602761D01*
X176614285Y-68555142D01*
X176566666Y-68459904D01*
X176566666Y-68174190D01*
X176614285Y-68078952D01*
X176661904Y-68031333D01*
X176757142Y-67983714D01*
X176900000Y-67983714D01*
X176995238Y-68031333D01*
X177042857Y-68078952D01*
X177090476Y-68174190D01*
X177090476Y-68459904D01*
X177042857Y-68555142D01*
X176995238Y-68602761D01*
X176900000Y-68650380D01*
X176757142Y-68650380D01*
X177947619Y-68650380D02*
X177947619Y-68126571D01*
X177900000Y-68031333D01*
X177804761Y-67983714D01*
X177614285Y-67983714D01*
X177519047Y-68031333D01*
X177947619Y-68602761D02*
X177852380Y-68650380D01*
X177614285Y-68650380D01*
X177519047Y-68602761D01*
X177471428Y-68507523D01*
X177471428Y-68412285D01*
X177519047Y-68317047D01*
X177614285Y-68269428D01*
X177852380Y-68269428D01*
X177947619Y-68221809D01*
X178328571Y-68650380D02*
X178852380Y-67983714D01*
X178328571Y-67983714D02*
X178852380Y-68650380D01*
X179233333Y-68650380D02*
X179233333Y-67983714D01*
X179233333Y-67650380D02*
X179185714Y-67698000D01*
X179233333Y-67745619D01*
X179280952Y-67698000D01*
X179233333Y-67650380D01*
X179233333Y-67745619D01*
X180138095Y-68650380D02*
X180138095Y-68126571D01*
X180090476Y-68031333D01*
X179995238Y-67983714D01*
X179804761Y-67983714D01*
X179709523Y-68031333D01*
X180138095Y-68602761D02*
X180042857Y-68650380D01*
X179804761Y-68650380D01*
X179709523Y-68602761D01*
X179661904Y-68507523D01*
X179661904Y-68412285D01*
X179709523Y-68317047D01*
X179804761Y-68269428D01*
X180042857Y-68269428D01*
X180138095Y-68221809D01*
X180757142Y-68650380D02*
X180661904Y-68602761D01*
X180614285Y-68507523D01*
X180614285Y-67650380D01*
D13*
X162267428Y-91413333D02*
X162648380Y-91413333D01*
X162191238Y-91641904D02*
X162457904Y-90841904D01*
X162724571Y-91641904D01*
X162991238Y-91108571D02*
X162991238Y-91641904D01*
X162991238Y-91184761D02*
X163029333Y-91146666D01*
X163105523Y-91108571D01*
X163219809Y-91108571D01*
X163296000Y-91146666D01*
X163334095Y-91222857D01*
X163334095Y-91641904D01*
X163600761Y-91108571D02*
X163905523Y-91108571D01*
X163715047Y-90841904D02*
X163715047Y-91527619D01*
X163753142Y-91603809D01*
X163829333Y-91641904D01*
X163905523Y-91641904D01*
X164476952Y-91603809D02*
X164400761Y-91641904D01*
X164248380Y-91641904D01*
X164172190Y-91603809D01*
X164134095Y-91527619D01*
X164134095Y-91222857D01*
X164172190Y-91146666D01*
X164248380Y-91108571D01*
X164400761Y-91108571D01*
X164476952Y-91146666D01*
X164515047Y-91222857D01*
X164515047Y-91299047D01*
X164134095Y-91375238D01*
X164857904Y-91108571D02*
X164857904Y-91641904D01*
X164857904Y-91184761D02*
X164896000Y-91146666D01*
X164972190Y-91108571D01*
X165086476Y-91108571D01*
X165162666Y-91146666D01*
X165200761Y-91222857D01*
X165200761Y-91641904D01*
X165581714Y-91108571D02*
X165581714Y-91641904D01*
X165581714Y-91184761D02*
X165619809Y-91146666D01*
X165696000Y-91108571D01*
X165810285Y-91108571D01*
X165886476Y-91146666D01*
X165924571Y-91222857D01*
X165924571Y-91641904D01*
X166648380Y-91641904D02*
X166648380Y-91222857D01*
X166610285Y-91146666D01*
X166534095Y-91108571D01*
X166381714Y-91108571D01*
X166305523Y-91146666D01*
X166648380Y-91603809D02*
X166572190Y-91641904D01*
X166381714Y-91641904D01*
X166305523Y-91603809D01*
X166267428Y-91527619D01*
X166267428Y-91451428D01*
X166305523Y-91375238D01*
X166381714Y-91337142D01*
X166572190Y-91337142D01*
X166648380Y-91299047D01*
X166838857Y-91718095D02*
X167448380Y-91718095D01*
X168096000Y-91565714D02*
X168057904Y-91603809D01*
X167943619Y-91641904D01*
X167867428Y-91641904D01*
X167753142Y-91603809D01*
X167676952Y-91527619D01*
X167638857Y-91451428D01*
X167600761Y-91299047D01*
X167600761Y-91184761D01*
X167638857Y-91032380D01*
X167676952Y-90956190D01*
X167753142Y-90880000D01*
X167867428Y-90841904D01*
X167943619Y-90841904D01*
X168057904Y-90880000D01*
X168096000Y-90918095D01*
X168438857Y-91641904D02*
X168438857Y-90841904D01*
X168781714Y-91641904D02*
X168781714Y-91222857D01*
X168743619Y-91146666D01*
X168667428Y-91108571D01*
X168553142Y-91108571D01*
X168476952Y-91146666D01*
X168438857Y-91184761D01*
X169162666Y-91641904D02*
X169162666Y-91108571D01*
X169162666Y-90841904D02*
X169124571Y-90880000D01*
X169162666Y-90918095D01*
X169200761Y-90880000D01*
X169162666Y-90841904D01*
X169162666Y-90918095D01*
X169543619Y-91108571D02*
X169543619Y-91908571D01*
X169543619Y-91146666D02*
X169619809Y-91108571D01*
X169772190Y-91108571D01*
X169848380Y-91146666D01*
X169886476Y-91184761D01*
X169924571Y-91260952D01*
X169924571Y-91489523D01*
X169886476Y-91565714D01*
X169848380Y-91603809D01*
X169772190Y-91641904D01*
X169619809Y-91641904D01*
X169543619Y-91603809D01*
D15*
X137500000Y-79287500D02*
X137500000Y-80112500D01*
X137500000Y-80112500D02*
X135900000Y-80112500D01*
X135900000Y-80112500D02*
X135900000Y-79287500D01*
X135900000Y-79287500D02*
X137500000Y-79287500D01*
X137415000Y-70587500D02*
X137415000Y-71412500D01*
X137415000Y-71412500D02*
X135815000Y-71412500D01*
X135815000Y-71412500D02*
X135815000Y-70587500D01*
X135815000Y-70587500D02*
X137415000Y-70587500D01*
X146407157Y-122058528D02*
X147326396Y-121139289D01*
X147326396Y-121139289D02*
X147326396Y-120715025D01*
X147326396Y-120715025D02*
X146972843Y-120361472D01*
X146972843Y-120361472D02*
X145841472Y-121492843D01*
X145841472Y-121492843D02*
X146407157Y-122058528D01*
X145762843Y-119151472D02*
X146328528Y-119717157D01*
X146328528Y-119717157D02*
X145197157Y-120848528D01*
X145197157Y-120848528D02*
X144631472Y-120282843D01*
X144631472Y-120282843D02*
X145762843Y-119151472D01*
X148162843Y-121581472D02*
X148728528Y-122147157D01*
X148728528Y-122147157D02*
X147597157Y-123278528D01*
X147597157Y-123278528D02*
X147031472Y-122712843D01*
X147031472Y-122712843D02*
X148162843Y-121581472D01*
X172250000Y-70500000D02*
G75*
G03*
X172250000Y-70500000I-750000J0D01*
G01*
X127250000Y-86500000D02*
G75*
G03*
X127250000Y-86500000I-750000J0D01*
G01*
X118875000Y-69750000D02*
X118875000Y-83750000D01*
X118875000Y-69750000D02*
X134325000Y-69750000D01*
X134325000Y-69750000D02*
X134325000Y-83750000D01*
X126100000Y-76750000D02*
X127100000Y-76750000D01*
X126600000Y-76250000D02*
X126600000Y-77250000D01*
X118875000Y-83750000D02*
X134325000Y-83750000D01*
D16*
X155552417Y-128000000D02*
G75*
G03*
X155552417Y-128000000I-1552417J0D01*
G01*
D15*
X172250000Y-137000000D02*
G75*
G03*
X172250000Y-137000000I-750000J0D01*
G01*
D11*
X138350000Y-115750000D02*
X121050000Y-115750000D01*
X121050000Y-86250000D02*
X138350000Y-86250000D01*
X138350000Y-86250000D02*
X138350000Y-115750000D01*
X121050000Y-115750000D02*
X121050000Y-86250000D01*
D15*
X177780000Y-74550000D02*
X177780000Y-75550000D01*
X177780000Y-75550000D02*
X177280000Y-75550000D01*
X177280000Y-74550000D02*
X177780000Y-74550000D01*
X177280000Y-75550000D02*
X177280000Y-74550000D01*
X176060000Y-75700000D02*
X176060000Y-76500000D01*
X174460000Y-75700000D02*
X176060000Y-75700000D01*
X174460000Y-76500000D02*
X174460000Y-75700000D01*
X176060000Y-76500000D02*
X174460000Y-76500000D01*
X177770000Y-77575000D02*
X177270000Y-77575000D01*
X177770000Y-76575000D02*
X177770000Y-77575000D01*
X177270000Y-77575000D02*
X177270000Y-76575000D01*
X177270000Y-76575000D02*
X177770000Y-76575000D01*
X177980000Y-80460000D02*
X177180000Y-80460000D01*
X177180000Y-78860000D02*
X177980000Y-78860000D01*
X177180000Y-80460000D02*
X177180000Y-78860000D01*
X177980000Y-78860000D02*
X177980000Y-80460000D01*
X174450000Y-77400000D02*
X176050000Y-77400000D01*
X176050000Y-77400000D02*
X176050000Y-78200000D01*
X176050000Y-78200000D02*
X174450000Y-78200000D01*
X174450000Y-78200000D02*
X174450000Y-77400000D01*
X174600000Y-70200000D02*
X177200000Y-70200000D01*
X177200000Y-70200000D02*
X177200000Y-72800000D01*
X175600000Y-72800000D02*
X175900000Y-72500000D01*
X174600000Y-72500000D02*
X174900000Y-72800000D01*
X175900000Y-72500000D02*
X176200000Y-72800000D01*
X174900000Y-72800000D02*
X177200000Y-72800000D01*
X174600000Y-70200000D02*
X174600000Y-72500000D01*
X176025000Y-71500000D02*
G75*
G03*
X176025000Y-71500000I-125000J0D01*
G01*
X175950000Y-71500000D02*
G75*
G03*
X175950000Y-71500000I-50000J0D01*
G01*
X176800000Y-71500000D02*
G75*
G03*
X176800000Y-71500000I-900000J0D01*
G01*
X176100000Y-71500000D02*
G75*
G03*
X176100000Y-71500000I-200000J0D01*
G01*
D17*
X162700000Y-86600000D02*
X162700000Y-89800000D01*
X172700000Y-86600000D02*
X162700000Y-86600000D01*
X172700000Y-89800000D02*
X172700000Y-86600000D01*
X162700000Y-89800000D02*
X172700000Y-89800000D01*
D10*
X173700000Y-88200000D02*
G75*
G03*
X173700000Y-88200000I-100000J0D01*
G01*
M02*
