G04 #@! TF.GenerationSoftware,KiCad,Pcbnew,6.0.0+dfsg1-2*
G04 #@! TF.CreationDate,2022-02-08T13:12:29-05:00*
G04 #@! TF.ProjectId,RUSP_Daughterboard,52555350-5f44-4617-9567-68746572626f,rev?*
G04 #@! TF.SameCoordinates,Original*
G04 #@! TF.FileFunction,AssemblyDrawing,Bot*
%FSLAX46Y46*%
G04 Gerber Fmt 4.6, Leading zero omitted, Abs format (unit mm)*
G04 Created by KiCad (PCBNEW 6.0.0+dfsg1-2) date 2022-02-08 13:12:29*
%MOMM*%
%LPD*%
G01*
G04 APERTURE LIST*
%ADD10C,0.150000*%
%ADD11C,0.060000*%
%ADD12C,0.100000*%
G04 APERTURE END LIST*
D10*
X172995238Y-114732380D02*
X173566666Y-114732380D01*
X173280952Y-114732380D02*
X173280952Y-113732380D01*
X173376190Y-113875238D01*
X173471428Y-113970476D01*
X173566666Y-114018095D01*
X172376190Y-113732380D02*
X172280952Y-113732380D01*
X172185714Y-113780000D01*
X172138095Y-113827619D01*
X172090476Y-113922857D01*
X172042857Y-114113333D01*
X172042857Y-114351428D01*
X172090476Y-114541904D01*
X172138095Y-114637142D01*
X172185714Y-114684761D01*
X172280952Y-114732380D01*
X172376190Y-114732380D01*
X172471428Y-114684761D01*
X172519047Y-114637142D01*
X172566666Y-114541904D01*
X172614285Y-114351428D01*
X172614285Y-114113333D01*
X172566666Y-113922857D01*
X172519047Y-113827619D01*
X172471428Y-113780000D01*
X172376190Y-113732380D01*
X171614285Y-114732380D02*
X171614285Y-113732380D01*
X171519047Y-114351428D02*
X171233333Y-114732380D01*
X171233333Y-114065714D02*
X171614285Y-114446666D01*
D11*
X172657142Y-113030952D02*
X172790476Y-112840476D01*
X172885714Y-113030952D02*
X172885714Y-112630952D01*
X172733333Y-112630952D01*
X172695238Y-112650000D01*
X172676190Y-112669047D01*
X172657142Y-112707142D01*
X172657142Y-112764285D01*
X172676190Y-112802380D01*
X172695238Y-112821428D01*
X172733333Y-112840476D01*
X172885714Y-112840476D01*
X172523809Y-112630952D02*
X172276190Y-112630952D01*
X172409523Y-112783333D01*
X172352380Y-112783333D01*
X172314285Y-112802380D01*
X172295238Y-112821428D01*
X172276190Y-112859523D01*
X172276190Y-112954761D01*
X172295238Y-112992857D01*
X172314285Y-113011904D01*
X172352380Y-113030952D01*
X172466666Y-113030952D01*
X172504761Y-113011904D01*
X172523809Y-112992857D01*
X171933333Y-112764285D02*
X171933333Y-113030952D01*
X172028571Y-112611904D02*
X172123809Y-112897619D01*
X171876190Y-112897619D01*
D10*
X168172380Y-119778571D02*
X168172380Y-119207142D01*
X168172380Y-119492857D02*
X167172380Y-119492857D01*
X167315238Y-119397619D01*
X167410476Y-119302380D01*
X167458095Y-119207142D01*
X167172380Y-120397619D02*
X167172380Y-120492857D01*
X167220000Y-120588095D01*
X167267619Y-120635714D01*
X167362857Y-120683333D01*
X167553333Y-120730952D01*
X167791428Y-120730952D01*
X167981904Y-120683333D01*
X168077142Y-120635714D01*
X168124761Y-120588095D01*
X168172380Y-120492857D01*
X168172380Y-120397619D01*
X168124761Y-120302380D01*
X168077142Y-120254761D01*
X167981904Y-120207142D01*
X167791428Y-120159523D01*
X167553333Y-120159523D01*
X167362857Y-120207142D01*
X167267619Y-120254761D01*
X167220000Y-120302380D01*
X167172380Y-120397619D01*
X167172380Y-121350000D02*
X167172380Y-121445238D01*
X167220000Y-121540476D01*
X167267619Y-121588095D01*
X167362857Y-121635714D01*
X167553333Y-121683333D01*
X167791428Y-121683333D01*
X167981904Y-121635714D01*
X168077142Y-121588095D01*
X168124761Y-121540476D01*
X168172380Y-121445238D01*
X168172380Y-121350000D01*
X168124761Y-121254761D01*
X168077142Y-121207142D01*
X167981904Y-121159523D01*
X167791428Y-121111904D01*
X167553333Y-121111904D01*
X167362857Y-121159523D01*
X167267619Y-121207142D01*
X167220000Y-121254761D01*
X167172380Y-121350000D01*
X168172380Y-122111904D02*
X167172380Y-122111904D01*
X167791428Y-122207142D02*
X168172380Y-122492857D01*
X167505714Y-122492857D02*
X167886666Y-122111904D01*
D11*
X169330952Y-120592857D02*
X169140476Y-120459523D01*
X169330952Y-120364285D02*
X168930952Y-120364285D01*
X168930952Y-120516666D01*
X168950000Y-120554761D01*
X168969047Y-120573809D01*
X169007142Y-120592857D01*
X169064285Y-120592857D01*
X169102380Y-120573809D01*
X169121428Y-120554761D01*
X169140476Y-120516666D01*
X169140476Y-120364285D01*
X168930952Y-120726190D02*
X168930952Y-120973809D01*
X169083333Y-120840476D01*
X169083333Y-120897619D01*
X169102380Y-120935714D01*
X169121428Y-120954761D01*
X169159523Y-120973809D01*
X169254761Y-120973809D01*
X169292857Y-120954761D01*
X169311904Y-120935714D01*
X169330952Y-120897619D01*
X169330952Y-120783333D01*
X169311904Y-120745238D01*
X169292857Y-120726190D01*
X169330952Y-121354761D02*
X169330952Y-121126190D01*
X169330952Y-121240476D02*
X168930952Y-121240476D01*
X168988095Y-121202380D01*
X169026190Y-121164285D01*
X169045238Y-121126190D01*
D10*
X127028571Y-110357380D02*
X127028571Y-109357380D01*
X126790476Y-109357380D01*
X126647619Y-109405000D01*
X126552380Y-109500238D01*
X126504761Y-109595476D01*
X126457142Y-109785952D01*
X126457142Y-109928809D01*
X126504761Y-110119285D01*
X126552380Y-110214523D01*
X126647619Y-110309761D01*
X126790476Y-110357380D01*
X127028571Y-110357380D01*
X126266666Y-110452619D02*
X125504761Y-110452619D01*
X125409523Y-109357380D02*
X124838095Y-109357380D01*
X125123809Y-110357380D02*
X125123809Y-109357380D01*
X124647619Y-109357380D02*
X124314285Y-110357380D01*
X123980952Y-109357380D01*
X123695238Y-110309761D02*
X123552380Y-110357380D01*
X123314285Y-110357380D01*
X123219047Y-110309761D01*
X123171428Y-110262142D01*
X123123809Y-110166904D01*
X123123809Y-110071666D01*
X123171428Y-109976428D01*
X123219047Y-109928809D01*
X123314285Y-109881190D01*
X123504761Y-109833571D01*
X123600000Y-109785952D01*
X123647619Y-109738333D01*
X123695238Y-109643095D01*
X123695238Y-109547857D01*
X123647619Y-109452619D01*
X123600000Y-109405000D01*
X123504761Y-109357380D01*
X123266666Y-109357380D01*
X123123809Y-109405000D01*
D11*
X125395238Y-108655952D02*
X125395238Y-108255952D01*
X125300000Y-108255952D01*
X125242857Y-108275000D01*
X125204761Y-108313095D01*
X125185714Y-108351190D01*
X125166666Y-108427380D01*
X125166666Y-108484523D01*
X125185714Y-108560714D01*
X125204761Y-108598809D01*
X125242857Y-108636904D01*
X125300000Y-108655952D01*
X125395238Y-108655952D01*
X125033333Y-108255952D02*
X124785714Y-108255952D01*
X124919047Y-108408333D01*
X124861904Y-108408333D01*
X124823809Y-108427380D01*
X124804761Y-108446428D01*
X124785714Y-108484523D01*
X124785714Y-108579761D01*
X124804761Y-108617857D01*
X124823809Y-108636904D01*
X124861904Y-108655952D01*
X124976190Y-108655952D01*
X125014285Y-108636904D01*
X125033333Y-108617857D01*
D10*
X126943571Y-114607380D02*
X126943571Y-113607380D01*
X126705476Y-113607380D01*
X126562619Y-113655000D01*
X126467380Y-113750238D01*
X126419761Y-113845476D01*
X126372142Y-114035952D01*
X126372142Y-114178809D01*
X126419761Y-114369285D01*
X126467380Y-114464523D01*
X126562619Y-114559761D01*
X126705476Y-114607380D01*
X126943571Y-114607380D01*
X126181666Y-114702619D02*
X125419761Y-114702619D01*
X125324523Y-113607380D02*
X124753095Y-113607380D01*
X125038809Y-114607380D02*
X125038809Y-113607380D01*
X124562619Y-113607380D02*
X124229285Y-114607380D01*
X123895952Y-113607380D01*
X123610238Y-114559761D02*
X123467380Y-114607380D01*
X123229285Y-114607380D01*
X123134047Y-114559761D01*
X123086428Y-114512142D01*
X123038809Y-114416904D01*
X123038809Y-114321666D01*
X123086428Y-114226428D01*
X123134047Y-114178809D01*
X123229285Y-114131190D01*
X123419761Y-114083571D01*
X123515000Y-114035952D01*
X123562619Y-113988333D01*
X123610238Y-113893095D01*
X123610238Y-113797857D01*
X123562619Y-113702619D01*
X123515000Y-113655000D01*
X123419761Y-113607380D01*
X123181666Y-113607380D01*
X123038809Y-113655000D01*
D11*
X125310238Y-112905952D02*
X125310238Y-112505952D01*
X125215000Y-112505952D01*
X125157857Y-112525000D01*
X125119761Y-112563095D01*
X125100714Y-112601190D01*
X125081666Y-112677380D01*
X125081666Y-112734523D01*
X125100714Y-112810714D01*
X125119761Y-112848809D01*
X125157857Y-112886904D01*
X125215000Y-112905952D01*
X125310238Y-112905952D01*
X124929285Y-112544047D02*
X124910238Y-112525000D01*
X124872142Y-112505952D01*
X124776904Y-112505952D01*
X124738809Y-112525000D01*
X124719761Y-112544047D01*
X124700714Y-112582142D01*
X124700714Y-112620238D01*
X124719761Y-112677380D01*
X124948333Y-112905952D01*
X124700714Y-112905952D01*
D10*
X126828571Y-96182380D02*
X126828571Y-95182380D01*
X126590476Y-95182380D01*
X126447619Y-95230000D01*
X126352380Y-95325238D01*
X126304761Y-95420476D01*
X126257142Y-95610952D01*
X126257142Y-95753809D01*
X126304761Y-95944285D01*
X126352380Y-96039523D01*
X126447619Y-96134761D01*
X126590476Y-96182380D01*
X126828571Y-96182380D01*
X126066666Y-96277619D02*
X125304761Y-96277619D01*
X125209523Y-95182380D02*
X124638095Y-95182380D01*
X124923809Y-96182380D02*
X124923809Y-95182380D01*
X124447619Y-95182380D02*
X124114285Y-96182380D01*
X123780952Y-95182380D01*
X123495238Y-96134761D02*
X123352380Y-96182380D01*
X123114285Y-96182380D01*
X123019047Y-96134761D01*
X122971428Y-96087142D01*
X122923809Y-95991904D01*
X122923809Y-95896666D01*
X122971428Y-95801428D01*
X123019047Y-95753809D01*
X123114285Y-95706190D01*
X123304761Y-95658571D01*
X123400000Y-95610952D01*
X123447619Y-95563333D01*
X123495238Y-95468095D01*
X123495238Y-95372857D01*
X123447619Y-95277619D01*
X123400000Y-95230000D01*
X123304761Y-95182380D01*
X123066666Y-95182380D01*
X122923809Y-95230000D01*
D11*
X125195238Y-94480952D02*
X125195238Y-94080952D01*
X125100000Y-94080952D01*
X125042857Y-94100000D01*
X125004761Y-94138095D01*
X124985714Y-94176190D01*
X124966666Y-94252380D01*
X124966666Y-94309523D01*
X124985714Y-94385714D01*
X125004761Y-94423809D01*
X125042857Y-94461904D01*
X125100000Y-94480952D01*
X125195238Y-94480952D01*
X124585714Y-94480952D02*
X124814285Y-94480952D01*
X124700000Y-94480952D02*
X124700000Y-94080952D01*
X124738095Y-94138095D01*
X124776190Y-94176190D01*
X124814285Y-94195238D01*
D10*
X175961904Y-123477142D02*
X175914285Y-123524761D01*
X175961904Y-123572380D01*
X176009523Y-123524761D01*
X175961904Y-123477142D01*
X175961904Y-123572380D01*
X174961904Y-123572380D02*
X175533333Y-123572380D01*
X175247619Y-123572380D02*
X175247619Y-122572380D01*
X175342857Y-122715238D01*
X175438095Y-122810476D01*
X175533333Y-122858095D01*
X174104761Y-122905714D02*
X174104761Y-123572380D01*
X174533333Y-122905714D02*
X174533333Y-123429523D01*
X174485714Y-123524761D01*
X174390476Y-123572380D01*
X174247619Y-123572380D01*
X174152380Y-123524761D01*
X174104761Y-123477142D01*
X173295238Y-123048571D02*
X173628571Y-123048571D01*
X173628571Y-123572380D02*
X173628571Y-122572380D01*
X173152380Y-122572380D01*
X172057142Y-122524761D02*
X172914285Y-123810476D01*
X171200000Y-123572380D02*
X171771428Y-123572380D01*
X171485714Y-123572380D02*
X171485714Y-122572380D01*
X171580952Y-122715238D01*
X171676190Y-122810476D01*
X171771428Y-122858095D01*
X170342857Y-122572380D02*
X170533333Y-122572380D01*
X170628571Y-122620000D01*
X170676190Y-122667619D01*
X170771428Y-122810476D01*
X170819047Y-123000952D01*
X170819047Y-123381904D01*
X170771428Y-123477142D01*
X170723809Y-123524761D01*
X170628571Y-123572380D01*
X170438095Y-123572380D01*
X170342857Y-123524761D01*
X170295238Y-123477142D01*
X170247619Y-123381904D01*
X170247619Y-123143809D01*
X170295238Y-123048571D01*
X170342857Y-123000952D01*
X170438095Y-122953333D01*
X170628571Y-122953333D01*
X170723809Y-123000952D01*
X170771428Y-123048571D01*
X170819047Y-123143809D01*
X169961904Y-122572380D02*
X169628571Y-123572380D01*
X169295238Y-122572380D01*
D11*
X172957142Y-124692857D02*
X172976190Y-124711904D01*
X173033333Y-124730952D01*
X173071428Y-124730952D01*
X173128571Y-124711904D01*
X173166666Y-124673809D01*
X173185714Y-124635714D01*
X173204761Y-124559523D01*
X173204761Y-124502380D01*
X173185714Y-124426190D01*
X173166666Y-124388095D01*
X173128571Y-124350000D01*
X173071428Y-124330952D01*
X173033333Y-124330952D01*
X172976190Y-124350000D01*
X172957142Y-124369047D01*
X172614285Y-124464285D02*
X172614285Y-124730952D01*
X172709523Y-124311904D02*
X172804761Y-124597619D01*
X172557142Y-124597619D01*
X172214285Y-124330952D02*
X172404761Y-124330952D01*
X172423809Y-124521428D01*
X172404761Y-124502380D01*
X172366666Y-124483333D01*
X172271428Y-124483333D01*
X172233333Y-124502380D01*
X172214285Y-124521428D01*
X172195238Y-124559523D01*
X172195238Y-124654761D01*
X172214285Y-124692857D01*
X172233333Y-124711904D01*
X172271428Y-124730952D01*
X172366666Y-124730952D01*
X172404761Y-124711904D01*
X172423809Y-124692857D01*
D10*
X180411904Y-126287142D02*
X180364285Y-126334761D01*
X180411904Y-126382380D01*
X180459523Y-126334761D01*
X180411904Y-126287142D01*
X180411904Y-126382380D01*
X179411904Y-126382380D02*
X179983333Y-126382380D01*
X179697619Y-126382380D02*
X179697619Y-125382380D01*
X179792857Y-125525238D01*
X179888095Y-125620476D01*
X179983333Y-125668095D01*
X178554761Y-125715714D02*
X178554761Y-126382380D01*
X178983333Y-125715714D02*
X178983333Y-126239523D01*
X178935714Y-126334761D01*
X178840476Y-126382380D01*
X178697619Y-126382380D01*
X178602380Y-126334761D01*
X178554761Y-126287142D01*
X177745238Y-125858571D02*
X178078571Y-125858571D01*
X178078571Y-126382380D02*
X178078571Y-125382380D01*
X177602380Y-125382380D01*
X176507142Y-125334761D02*
X177364285Y-126620476D01*
X175650000Y-126382380D02*
X176221428Y-126382380D01*
X175935714Y-126382380D02*
X175935714Y-125382380D01*
X176030952Y-125525238D01*
X176126190Y-125620476D01*
X176221428Y-125668095D01*
X174792857Y-125382380D02*
X174983333Y-125382380D01*
X175078571Y-125430000D01*
X175126190Y-125477619D01*
X175221428Y-125620476D01*
X175269047Y-125810952D01*
X175269047Y-126191904D01*
X175221428Y-126287142D01*
X175173809Y-126334761D01*
X175078571Y-126382380D01*
X174888095Y-126382380D01*
X174792857Y-126334761D01*
X174745238Y-126287142D01*
X174697619Y-126191904D01*
X174697619Y-125953809D01*
X174745238Y-125858571D01*
X174792857Y-125810952D01*
X174888095Y-125763333D01*
X175078571Y-125763333D01*
X175173809Y-125810952D01*
X175221428Y-125858571D01*
X175269047Y-125953809D01*
X174411904Y-125382380D02*
X174078571Y-126382380D01*
X173745238Y-125382380D01*
D11*
X177407142Y-124642857D02*
X177426190Y-124661904D01*
X177483333Y-124680952D01*
X177521428Y-124680952D01*
X177578571Y-124661904D01*
X177616666Y-124623809D01*
X177635714Y-124585714D01*
X177654761Y-124509523D01*
X177654761Y-124452380D01*
X177635714Y-124376190D01*
X177616666Y-124338095D01*
X177578571Y-124300000D01*
X177521428Y-124280952D01*
X177483333Y-124280952D01*
X177426190Y-124300000D01*
X177407142Y-124319047D01*
X177064285Y-124414285D02*
X177064285Y-124680952D01*
X177159523Y-124261904D02*
X177254761Y-124547619D01*
X177007142Y-124547619D01*
X176683333Y-124414285D02*
X176683333Y-124680952D01*
X176778571Y-124261904D02*
X176873809Y-124547619D01*
X176626190Y-124547619D01*
D10*
X128161428Y-108065714D02*
X128161428Y-108732380D01*
X128399523Y-107684761D02*
X128637619Y-108399047D01*
X128018571Y-108399047D01*
X127732857Y-107732380D02*
X127066190Y-107732380D01*
X127494761Y-108732380D01*
X126685238Y-108065714D02*
X126685238Y-109065714D01*
X126685238Y-108113333D02*
X126590000Y-108065714D01*
X126399523Y-108065714D01*
X126304285Y-108113333D01*
X126256666Y-108160952D01*
X126209047Y-108256190D01*
X126209047Y-108541904D01*
X126256666Y-108637142D01*
X126304285Y-108684761D01*
X126399523Y-108732380D01*
X126590000Y-108732380D01*
X126685238Y-108684761D01*
X125447142Y-108208571D02*
X125780476Y-108208571D01*
X125780476Y-108732380D02*
X125780476Y-107732380D01*
X125304285Y-107732380D01*
X124209047Y-107684761D02*
X125066190Y-108970476D01*
X123399523Y-107732380D02*
X123875714Y-107732380D01*
X123923333Y-108208571D01*
X123875714Y-108160952D01*
X123780476Y-108113333D01*
X123542380Y-108113333D01*
X123447142Y-108160952D01*
X123399523Y-108208571D01*
X123351904Y-108303809D01*
X123351904Y-108541904D01*
X123399523Y-108637142D01*
X123447142Y-108684761D01*
X123542380Y-108732380D01*
X123780476Y-108732380D01*
X123875714Y-108684761D01*
X123923333Y-108637142D01*
X122732857Y-107732380D02*
X122637619Y-107732380D01*
X122542380Y-107780000D01*
X122494761Y-107827619D01*
X122447142Y-107922857D01*
X122399523Y-108113333D01*
X122399523Y-108351428D01*
X122447142Y-108541904D01*
X122494761Y-108637142D01*
X122542380Y-108684761D01*
X122637619Y-108732380D01*
X122732857Y-108732380D01*
X122828095Y-108684761D01*
X122875714Y-108637142D01*
X122923333Y-108541904D01*
X122970952Y-108351428D01*
X122970952Y-108113333D01*
X122923333Y-107922857D01*
X122875714Y-107827619D01*
X122828095Y-107780000D01*
X122732857Y-107732380D01*
X122113809Y-107732380D02*
X121780476Y-108732380D01*
X121447142Y-107732380D01*
D11*
X125156666Y-106992857D02*
X125175714Y-107011904D01*
X125232857Y-107030952D01*
X125270952Y-107030952D01*
X125328095Y-107011904D01*
X125366190Y-106973809D01*
X125385238Y-106935714D01*
X125404285Y-106859523D01*
X125404285Y-106802380D01*
X125385238Y-106726190D01*
X125366190Y-106688095D01*
X125328095Y-106650000D01*
X125270952Y-106630952D01*
X125232857Y-106630952D01*
X125175714Y-106650000D01*
X125156666Y-106669047D01*
X125023333Y-106630952D02*
X124775714Y-106630952D01*
X124909047Y-106783333D01*
X124851904Y-106783333D01*
X124813809Y-106802380D01*
X124794761Y-106821428D01*
X124775714Y-106859523D01*
X124775714Y-106954761D01*
X124794761Y-106992857D01*
X124813809Y-107011904D01*
X124851904Y-107030952D01*
X124966190Y-107030952D01*
X125004285Y-107011904D01*
X125023333Y-106992857D01*
D10*
X128096428Y-115565714D02*
X128096428Y-116232380D01*
X128334523Y-115184761D02*
X128572619Y-115899047D01*
X127953571Y-115899047D01*
X127667857Y-115232380D02*
X127001190Y-115232380D01*
X127429761Y-116232380D01*
X126620238Y-115565714D02*
X126620238Y-116565714D01*
X126620238Y-115613333D02*
X126525000Y-115565714D01*
X126334523Y-115565714D01*
X126239285Y-115613333D01*
X126191666Y-115660952D01*
X126144047Y-115756190D01*
X126144047Y-116041904D01*
X126191666Y-116137142D01*
X126239285Y-116184761D01*
X126334523Y-116232380D01*
X126525000Y-116232380D01*
X126620238Y-116184761D01*
X125382142Y-115708571D02*
X125715476Y-115708571D01*
X125715476Y-116232380D02*
X125715476Y-115232380D01*
X125239285Y-115232380D01*
X124144047Y-115184761D02*
X125001190Y-116470476D01*
X123334523Y-115232380D02*
X123810714Y-115232380D01*
X123858333Y-115708571D01*
X123810714Y-115660952D01*
X123715476Y-115613333D01*
X123477380Y-115613333D01*
X123382142Y-115660952D01*
X123334523Y-115708571D01*
X123286904Y-115803809D01*
X123286904Y-116041904D01*
X123334523Y-116137142D01*
X123382142Y-116184761D01*
X123477380Y-116232380D01*
X123715476Y-116232380D01*
X123810714Y-116184761D01*
X123858333Y-116137142D01*
X122667857Y-115232380D02*
X122572619Y-115232380D01*
X122477380Y-115280000D01*
X122429761Y-115327619D01*
X122382142Y-115422857D01*
X122334523Y-115613333D01*
X122334523Y-115851428D01*
X122382142Y-116041904D01*
X122429761Y-116137142D01*
X122477380Y-116184761D01*
X122572619Y-116232380D01*
X122667857Y-116232380D01*
X122763095Y-116184761D01*
X122810714Y-116137142D01*
X122858333Y-116041904D01*
X122905952Y-115851428D01*
X122905952Y-115613333D01*
X122858333Y-115422857D01*
X122810714Y-115327619D01*
X122763095Y-115280000D01*
X122667857Y-115232380D01*
X122048809Y-115232380D02*
X121715476Y-116232380D01*
X121382142Y-115232380D01*
D11*
X125091666Y-114492857D02*
X125110714Y-114511904D01*
X125167857Y-114530952D01*
X125205952Y-114530952D01*
X125263095Y-114511904D01*
X125301190Y-114473809D01*
X125320238Y-114435714D01*
X125339285Y-114359523D01*
X125339285Y-114302380D01*
X125320238Y-114226190D01*
X125301190Y-114188095D01*
X125263095Y-114150000D01*
X125205952Y-114130952D01*
X125167857Y-114130952D01*
X125110714Y-114150000D01*
X125091666Y-114169047D01*
X124939285Y-114169047D02*
X124920238Y-114150000D01*
X124882142Y-114130952D01*
X124786904Y-114130952D01*
X124748809Y-114150000D01*
X124729761Y-114169047D01*
X124710714Y-114207142D01*
X124710714Y-114245238D01*
X124729761Y-114302380D01*
X124958333Y-114530952D01*
X124710714Y-114530952D01*
D10*
X127871428Y-97415714D02*
X127871428Y-98082380D01*
X128109523Y-97034761D02*
X128347619Y-97749047D01*
X127728571Y-97749047D01*
X127442857Y-97082380D02*
X126776190Y-97082380D01*
X127204761Y-98082380D01*
X126395238Y-97415714D02*
X126395238Y-98415714D01*
X126395238Y-97463333D02*
X126300000Y-97415714D01*
X126109523Y-97415714D01*
X126014285Y-97463333D01*
X125966666Y-97510952D01*
X125919047Y-97606190D01*
X125919047Y-97891904D01*
X125966666Y-97987142D01*
X126014285Y-98034761D01*
X126109523Y-98082380D01*
X126300000Y-98082380D01*
X126395238Y-98034761D01*
X125157142Y-97558571D02*
X125490476Y-97558571D01*
X125490476Y-98082380D02*
X125490476Y-97082380D01*
X125014285Y-97082380D01*
X123919047Y-97034761D02*
X124776190Y-98320476D01*
X123109523Y-97082380D02*
X123585714Y-97082380D01*
X123633333Y-97558571D01*
X123585714Y-97510952D01*
X123490476Y-97463333D01*
X123252380Y-97463333D01*
X123157142Y-97510952D01*
X123109523Y-97558571D01*
X123061904Y-97653809D01*
X123061904Y-97891904D01*
X123109523Y-97987142D01*
X123157142Y-98034761D01*
X123252380Y-98082380D01*
X123490476Y-98082380D01*
X123585714Y-98034761D01*
X123633333Y-97987142D01*
X122442857Y-97082380D02*
X122347619Y-97082380D01*
X122252380Y-97130000D01*
X122204761Y-97177619D01*
X122157142Y-97272857D01*
X122109523Y-97463333D01*
X122109523Y-97701428D01*
X122157142Y-97891904D01*
X122204761Y-97987142D01*
X122252380Y-98034761D01*
X122347619Y-98082380D01*
X122442857Y-98082380D01*
X122538095Y-98034761D01*
X122585714Y-97987142D01*
X122633333Y-97891904D01*
X122680952Y-97701428D01*
X122680952Y-97463333D01*
X122633333Y-97272857D01*
X122585714Y-97177619D01*
X122538095Y-97130000D01*
X122442857Y-97082380D01*
X121823809Y-97082380D02*
X121490476Y-98082380D01*
X121157142Y-97082380D01*
D11*
X124866666Y-96342857D02*
X124885714Y-96361904D01*
X124942857Y-96380952D01*
X124980952Y-96380952D01*
X125038095Y-96361904D01*
X125076190Y-96323809D01*
X125095238Y-96285714D01*
X125114285Y-96209523D01*
X125114285Y-96152380D01*
X125095238Y-96076190D01*
X125076190Y-96038095D01*
X125038095Y-96000000D01*
X124980952Y-95980952D01*
X124942857Y-95980952D01*
X124885714Y-96000000D01*
X124866666Y-96019047D01*
X124485714Y-96380952D02*
X124714285Y-96380952D01*
X124600000Y-96380952D02*
X124600000Y-95980952D01*
X124638095Y-96038095D01*
X124676190Y-96076190D01*
X124714285Y-96095238D01*
D10*
X173880952Y-68428571D02*
X174214285Y-68428571D01*
X174214285Y-68952380D02*
X174214285Y-67952380D01*
X173738095Y-67952380D01*
X173357142Y-68952380D02*
X173357142Y-68285714D01*
X173357142Y-67952380D02*
X173404761Y-68000000D01*
X173357142Y-68047619D01*
X173309523Y-68000000D01*
X173357142Y-67952380D01*
X173357142Y-68047619D01*
X172452380Y-68952380D02*
X172452380Y-67952380D01*
X172452380Y-68904761D02*
X172547619Y-68952380D01*
X172738095Y-68952380D01*
X172833333Y-68904761D01*
X172880952Y-68857142D01*
X172928571Y-68761904D01*
X172928571Y-68476190D01*
X172880952Y-68380952D01*
X172833333Y-68333333D01*
X172738095Y-68285714D01*
X172547619Y-68285714D01*
X172452380Y-68333333D01*
X171547619Y-68285714D02*
X171547619Y-68952380D01*
X171976190Y-68285714D02*
X171976190Y-68809523D01*
X171928571Y-68904761D01*
X171833333Y-68952380D01*
X171690476Y-68952380D01*
X171595238Y-68904761D01*
X171547619Y-68857142D01*
X170642857Y-68904761D02*
X170738095Y-68952380D01*
X170928571Y-68952380D01*
X171023809Y-68904761D01*
X171071428Y-68857142D01*
X171119047Y-68761904D01*
X171119047Y-68476190D01*
X171071428Y-68380952D01*
X171023809Y-68333333D01*
X170928571Y-68285714D01*
X170738095Y-68285714D01*
X170642857Y-68333333D01*
X170214285Y-68952380D02*
X170214285Y-68285714D01*
X170214285Y-67952380D02*
X170261904Y-68000000D01*
X170214285Y-68047619D01*
X170166666Y-68000000D01*
X170214285Y-67952380D01*
X170214285Y-68047619D01*
X169309523Y-68952380D02*
X169309523Y-68428571D01*
X169357142Y-68333333D01*
X169452380Y-68285714D01*
X169642857Y-68285714D01*
X169738095Y-68333333D01*
X169309523Y-68904761D02*
X169404761Y-68952380D01*
X169642857Y-68952380D01*
X169738095Y-68904761D01*
X169785714Y-68809523D01*
X169785714Y-68714285D01*
X169738095Y-68619047D01*
X169642857Y-68571428D01*
X169404761Y-68571428D01*
X169309523Y-68523809D01*
X168690476Y-68952380D02*
X168785714Y-68904761D01*
X168833333Y-68809523D01*
X168833333Y-67952380D01*
X128880952Y-84428571D02*
X129214285Y-84428571D01*
X129214285Y-84952380D02*
X129214285Y-83952380D01*
X128738095Y-83952380D01*
X128357142Y-84952380D02*
X128357142Y-84285714D01*
X128357142Y-83952380D02*
X128404761Y-84000000D01*
X128357142Y-84047619D01*
X128309523Y-84000000D01*
X128357142Y-83952380D01*
X128357142Y-84047619D01*
X127452380Y-84952380D02*
X127452380Y-83952380D01*
X127452380Y-84904761D02*
X127547619Y-84952380D01*
X127738095Y-84952380D01*
X127833333Y-84904761D01*
X127880952Y-84857142D01*
X127928571Y-84761904D01*
X127928571Y-84476190D01*
X127880952Y-84380952D01*
X127833333Y-84333333D01*
X127738095Y-84285714D01*
X127547619Y-84285714D01*
X127452380Y-84333333D01*
X126547619Y-84285714D02*
X126547619Y-84952380D01*
X126976190Y-84285714D02*
X126976190Y-84809523D01*
X126928571Y-84904761D01*
X126833333Y-84952380D01*
X126690476Y-84952380D01*
X126595238Y-84904761D01*
X126547619Y-84857142D01*
X125642857Y-84904761D02*
X125738095Y-84952380D01*
X125928571Y-84952380D01*
X126023809Y-84904761D01*
X126071428Y-84857142D01*
X126119047Y-84761904D01*
X126119047Y-84476190D01*
X126071428Y-84380952D01*
X126023809Y-84333333D01*
X125928571Y-84285714D01*
X125738095Y-84285714D01*
X125642857Y-84333333D01*
X125214285Y-84952380D02*
X125214285Y-84285714D01*
X125214285Y-83952380D02*
X125261904Y-84000000D01*
X125214285Y-84047619D01*
X125166666Y-84000000D01*
X125214285Y-83952380D01*
X125214285Y-84047619D01*
X124309523Y-84952380D02*
X124309523Y-84428571D01*
X124357142Y-84333333D01*
X124452380Y-84285714D01*
X124642857Y-84285714D01*
X124738095Y-84333333D01*
X124309523Y-84904761D02*
X124404761Y-84952380D01*
X124642857Y-84952380D01*
X124738095Y-84904761D01*
X124785714Y-84809523D01*
X124785714Y-84714285D01*
X124738095Y-84619047D01*
X124642857Y-84571428D01*
X124404761Y-84571428D01*
X124309523Y-84523809D01*
X123690476Y-84952380D02*
X123785714Y-84904761D01*
X123833333Y-84809523D01*
X123833333Y-83952380D01*
X127552380Y-97657142D02*
X127552380Y-97085714D01*
X127552380Y-97371428D02*
X126552380Y-97371428D01*
X126695238Y-97276190D01*
X126790476Y-97180952D01*
X126838095Y-97085714D01*
X127552380Y-98085714D02*
X126552380Y-98085714D01*
X127552380Y-98657142D01*
X126552380Y-98657142D01*
X126885714Y-99561904D02*
X127552380Y-99561904D01*
X126504761Y-99323809D02*
X127219047Y-99085714D01*
X127219047Y-99704761D01*
X127552380Y-100609523D02*
X127552380Y-100038095D01*
X127552380Y-100323809D02*
X126552380Y-100323809D01*
X126695238Y-100228571D01*
X126790476Y-100133333D01*
X126838095Y-100038095D01*
X126885714Y-101466666D02*
X127552380Y-101466666D01*
X126504761Y-101228571D02*
X127219047Y-100990476D01*
X127219047Y-101609523D01*
X126980952Y-102133333D02*
X126933333Y-102038095D01*
X126885714Y-101990476D01*
X126790476Y-101942857D01*
X126742857Y-101942857D01*
X126647619Y-101990476D01*
X126600000Y-102038095D01*
X126552380Y-102133333D01*
X126552380Y-102323809D01*
X126600000Y-102419047D01*
X126647619Y-102466666D01*
X126742857Y-102514285D01*
X126790476Y-102514285D01*
X126885714Y-102466666D01*
X126933333Y-102419047D01*
X126980952Y-102323809D01*
X126980952Y-102133333D01*
X127028571Y-102038095D01*
X127076190Y-101990476D01*
X127171428Y-101942857D01*
X127361904Y-101942857D01*
X127457142Y-101990476D01*
X127504761Y-102038095D01*
X127552380Y-102133333D01*
X127552380Y-102323809D01*
X127504761Y-102419047D01*
X127457142Y-102466666D01*
X127361904Y-102514285D01*
X127171428Y-102514285D01*
X127076190Y-102466666D01*
X127028571Y-102419047D01*
X126980952Y-102323809D01*
X140052380Y-106657142D02*
X140052380Y-106085714D01*
X140052380Y-106371428D02*
X139052380Y-106371428D01*
X139195238Y-106276190D01*
X139290476Y-106180952D01*
X139338095Y-106085714D01*
X140052380Y-107085714D02*
X139052380Y-107085714D01*
X140052380Y-107657142D01*
X139052380Y-107657142D01*
X139385714Y-108561904D02*
X140052380Y-108561904D01*
X139004761Y-108323809D02*
X139719047Y-108085714D01*
X139719047Y-108704761D01*
X140052380Y-109609523D02*
X140052380Y-109038095D01*
X140052380Y-109323809D02*
X139052380Y-109323809D01*
X139195238Y-109228571D01*
X139290476Y-109133333D01*
X139338095Y-109038095D01*
X139385714Y-110466666D02*
X140052380Y-110466666D01*
X139004761Y-110228571D02*
X139719047Y-109990476D01*
X139719047Y-110609523D01*
X139480952Y-111133333D02*
X139433333Y-111038095D01*
X139385714Y-110990476D01*
X139290476Y-110942857D01*
X139242857Y-110942857D01*
X139147619Y-110990476D01*
X139100000Y-111038095D01*
X139052380Y-111133333D01*
X139052380Y-111323809D01*
X139100000Y-111419047D01*
X139147619Y-111466666D01*
X139242857Y-111514285D01*
X139290476Y-111514285D01*
X139385714Y-111466666D01*
X139433333Y-111419047D01*
X139480952Y-111323809D01*
X139480952Y-111133333D01*
X139528571Y-111038095D01*
X139576190Y-110990476D01*
X139671428Y-110942857D01*
X139861904Y-110942857D01*
X139957142Y-110990476D01*
X140004761Y-111038095D01*
X140052380Y-111133333D01*
X140052380Y-111323809D01*
X140004761Y-111419047D01*
X139957142Y-111466666D01*
X139861904Y-111514285D01*
X139671428Y-111514285D01*
X139576190Y-111466666D01*
X139528571Y-111419047D01*
X139480952Y-111323809D01*
X173880952Y-134928571D02*
X174214285Y-134928571D01*
X174214285Y-135452380D02*
X174214285Y-134452380D01*
X173738095Y-134452380D01*
X173357142Y-135452380D02*
X173357142Y-134785714D01*
X173357142Y-134452380D02*
X173404761Y-134500000D01*
X173357142Y-134547619D01*
X173309523Y-134500000D01*
X173357142Y-134452380D01*
X173357142Y-134547619D01*
X172452380Y-135452380D02*
X172452380Y-134452380D01*
X172452380Y-135404761D02*
X172547619Y-135452380D01*
X172738095Y-135452380D01*
X172833333Y-135404761D01*
X172880952Y-135357142D01*
X172928571Y-135261904D01*
X172928571Y-134976190D01*
X172880952Y-134880952D01*
X172833333Y-134833333D01*
X172738095Y-134785714D01*
X172547619Y-134785714D01*
X172452380Y-134833333D01*
X171547619Y-134785714D02*
X171547619Y-135452380D01*
X171976190Y-134785714D02*
X171976190Y-135309523D01*
X171928571Y-135404761D01*
X171833333Y-135452380D01*
X171690476Y-135452380D01*
X171595238Y-135404761D01*
X171547619Y-135357142D01*
X170642857Y-135404761D02*
X170738095Y-135452380D01*
X170928571Y-135452380D01*
X171023809Y-135404761D01*
X171071428Y-135357142D01*
X171119047Y-135261904D01*
X171119047Y-134976190D01*
X171071428Y-134880952D01*
X171023809Y-134833333D01*
X170928571Y-134785714D01*
X170738095Y-134785714D01*
X170642857Y-134833333D01*
X170214285Y-135452380D02*
X170214285Y-134785714D01*
X170214285Y-134452380D02*
X170261904Y-134500000D01*
X170214285Y-134547619D01*
X170166666Y-134500000D01*
X170214285Y-134452380D01*
X170214285Y-134547619D01*
X169309523Y-135452380D02*
X169309523Y-134928571D01*
X169357142Y-134833333D01*
X169452380Y-134785714D01*
X169642857Y-134785714D01*
X169738095Y-134833333D01*
X169309523Y-135404761D02*
X169404761Y-135452380D01*
X169642857Y-135452380D01*
X169738095Y-135404761D01*
X169785714Y-135309523D01*
X169785714Y-135214285D01*
X169738095Y-135119047D01*
X169642857Y-135071428D01*
X169404761Y-135071428D01*
X169309523Y-135023809D01*
X168690476Y-135452380D02*
X168785714Y-135404761D01*
X168833333Y-135309523D01*
X168833333Y-134452380D01*
X178516666Y-112677380D02*
X177945238Y-112677380D01*
X178230952Y-113677380D02*
X178230952Y-112677380D01*
X177707142Y-112677380D02*
X177040476Y-113677380D01*
X177040476Y-112677380D02*
X177707142Y-113677380D01*
X176326190Y-113153571D02*
X176183333Y-113201190D01*
X176135714Y-113248809D01*
X176088095Y-113344047D01*
X176088095Y-113486904D01*
X176135714Y-113582142D01*
X176183333Y-113629761D01*
X176278571Y-113677380D01*
X176659523Y-113677380D01*
X176659523Y-112677380D01*
X176326190Y-112677380D01*
X176230952Y-112725000D01*
X176183333Y-112772619D01*
X176135714Y-112867857D01*
X176135714Y-112963095D01*
X176183333Y-113058333D01*
X176230952Y-113105952D01*
X176326190Y-113153571D01*
X176659523Y-113153571D01*
X175469047Y-112677380D02*
X175373809Y-112677380D01*
X175278571Y-112725000D01*
X175230952Y-112772619D01*
X175183333Y-112867857D01*
X175135714Y-113058333D01*
X175135714Y-113296428D01*
X175183333Y-113486904D01*
X175230952Y-113582142D01*
X175278571Y-113629761D01*
X175373809Y-113677380D01*
X175469047Y-113677380D01*
X175564285Y-113629761D01*
X175611904Y-113582142D01*
X175659523Y-113486904D01*
X175707142Y-113296428D01*
X175707142Y-113058333D01*
X175659523Y-112867857D01*
X175611904Y-112772619D01*
X175564285Y-112725000D01*
X175469047Y-112677380D01*
X174183333Y-113677380D02*
X174754761Y-113677380D01*
X174469047Y-113677380D02*
X174469047Y-112677380D01*
X174564285Y-112820238D01*
X174659523Y-112915476D01*
X174754761Y-112963095D01*
X173564285Y-112677380D02*
X173469047Y-112677380D01*
X173373809Y-112725000D01*
X173326190Y-112772619D01*
X173278571Y-112867857D01*
X173230952Y-113058333D01*
X173230952Y-113296428D01*
X173278571Y-113486904D01*
X173326190Y-113582142D01*
X173373809Y-113629761D01*
X173469047Y-113677380D01*
X173564285Y-113677380D01*
X173659523Y-113629761D01*
X173707142Y-113582142D01*
X173754761Y-113486904D01*
X173802380Y-113296428D01*
X173802380Y-113058333D01*
X173754761Y-112867857D01*
X173707142Y-112772619D01*
X173659523Y-112725000D01*
X173564285Y-112677380D01*
X172373809Y-113010714D02*
X172373809Y-113677380D01*
X172611904Y-112629761D02*
X172849999Y-113344047D01*
X172230952Y-113344047D01*
X171850000Y-113677380D02*
X171850000Y-112677380D01*
X171611904Y-112677380D01*
X171469047Y-112725000D01*
X171373809Y-112820238D01*
X171326190Y-112915476D01*
X171278571Y-113105952D01*
X171278571Y-113248809D01*
X171326190Y-113439285D01*
X171373809Y-113534523D01*
X171469047Y-113629761D01*
X171611904Y-113677380D01*
X171850000Y-113677380D01*
D12*
X173200000Y-113262500D02*
X173200000Y-112437500D01*
X173200000Y-112437500D02*
X171600000Y-112437500D01*
X171600000Y-112437500D02*
X171600000Y-113262500D01*
X171600000Y-113262500D02*
X173200000Y-113262500D01*
X168737500Y-121650000D02*
X169562500Y-121650000D01*
X169562500Y-121650000D02*
X169562500Y-120050000D01*
X169562500Y-120050000D02*
X168737500Y-120050000D01*
X168737500Y-120050000D02*
X168737500Y-121650000D01*
X124300000Y-108075000D02*
X125600000Y-108075000D01*
X125600000Y-108075000D02*
X125900000Y-108375000D01*
X125900000Y-108375000D02*
X125900000Y-108875000D01*
X125900000Y-108875000D02*
X124300000Y-108875000D01*
X124300000Y-108875000D02*
X124300000Y-108075000D01*
X124215000Y-112325000D02*
X125515000Y-112325000D01*
X125515000Y-112325000D02*
X125815000Y-112625000D01*
X125815000Y-112625000D02*
X125815000Y-113125000D01*
X125815000Y-113125000D02*
X124215000Y-113125000D01*
X124215000Y-113125000D02*
X124215000Y-112325000D01*
X124100000Y-93900000D02*
X125400000Y-93900000D01*
X125400000Y-93900000D02*
X125700000Y-94200000D01*
X125700000Y-94200000D02*
X125700000Y-94700000D01*
X125700000Y-94700000D02*
X124100000Y-94700000D01*
X124100000Y-94700000D02*
X124100000Y-93900000D01*
X171900000Y-124150000D02*
X171900000Y-124950000D01*
X171900000Y-124950000D02*
X173500000Y-124950000D01*
X173500000Y-124950000D02*
X173500000Y-124150000D01*
X173500000Y-124150000D02*
X171900000Y-124150000D01*
X177950000Y-124900000D02*
X177950000Y-124100000D01*
X177950000Y-124100000D02*
X176350000Y-124100000D01*
X176350000Y-124100000D02*
X176350000Y-124900000D01*
X176350000Y-124900000D02*
X177950000Y-124900000D01*
X125890000Y-107250000D02*
X125890000Y-106450000D01*
X125890000Y-106450000D02*
X124290000Y-106450000D01*
X124290000Y-106450000D02*
X124290000Y-107250000D01*
X124290000Y-107250000D02*
X125890000Y-107250000D01*
X125825000Y-114750000D02*
X125825000Y-113950000D01*
X125825000Y-113950000D02*
X124225000Y-113950000D01*
X124225000Y-113950000D02*
X124225000Y-114750000D01*
X124225000Y-114750000D02*
X125825000Y-114750000D01*
X125600000Y-96600000D02*
X125600000Y-95800000D01*
X125600000Y-95800000D02*
X124000000Y-95800000D01*
X124000000Y-95800000D02*
X124000000Y-96600000D01*
X124000000Y-96600000D02*
X125600000Y-96600000D01*
D10*
X166950000Y-133700000D02*
X159450000Y-133700000D01*
X159450000Y-136700000D02*
X166950000Y-136700000D01*
X166950000Y-136700000D02*
X166950000Y-133700000D01*
X159450000Y-133700000D02*
X159450000Y-136700000D01*
D12*
X172250000Y-70500000D02*
G75*
G03*
X172250000Y-70500000I-750000J0D01*
G01*
X127250000Y-86500000D02*
G75*
G03*
X127250000Y-86500000I-750000J0D01*
G01*
D10*
X166950000Y-129000000D02*
X166950000Y-126000000D01*
X159450000Y-129000000D02*
X166950000Y-129000000D01*
X159450000Y-126000000D02*
X159450000Y-129000000D01*
X166950000Y-126000000D02*
X159450000Y-126000000D01*
D12*
X124600000Y-100050000D02*
X125400000Y-100050000D01*
X124100000Y-101200000D02*
X125900000Y-101200000D01*
X125000000Y-99050000D02*
X125000000Y-99450000D01*
X125000000Y-99450000D02*
X124600000Y-100050000D01*
X125900000Y-98400000D02*
X124100000Y-98400000D01*
X125400000Y-100050000D02*
X125000000Y-99450000D01*
X125000000Y-100050000D02*
X125000000Y-100550000D01*
X125000000Y-99450000D02*
X125550000Y-99450000D01*
X125900000Y-101200000D02*
X125900000Y-98400000D01*
X124100000Y-98400000D02*
X124100000Y-101200000D01*
X125000000Y-99450000D02*
X124450000Y-99450000D01*
X140800000Y-110200000D02*
X142600000Y-110200000D01*
X141300000Y-108550000D02*
X141700000Y-109150000D01*
X140800000Y-107400000D02*
X140800000Y-110200000D01*
X141700000Y-109150000D02*
X142100000Y-108550000D01*
X142100000Y-108550000D02*
X141300000Y-108550000D01*
X141700000Y-109550000D02*
X141700000Y-109150000D01*
X142600000Y-110200000D02*
X142600000Y-107400000D01*
X142600000Y-107400000D02*
X140800000Y-107400000D01*
X141700000Y-109150000D02*
X141150000Y-109150000D01*
X141700000Y-109150000D02*
X142250000Y-109150000D01*
X141700000Y-108550000D02*
X141700000Y-108050000D01*
X172250000Y-137000000D02*
G75*
G03*
X172250000Y-137000000I-750000J0D01*
G01*
D10*
X176800000Y-114250000D02*
X172900000Y-114250000D01*
X173900000Y-122950000D02*
X176800000Y-122950000D01*
X172900000Y-121950000D02*
X173900000Y-122950000D01*
X176800000Y-122950000D02*
X176800000Y-114250000D01*
X172900000Y-114250000D02*
X172900000Y-121950000D01*
M02*
