G04 #@! TF.GenerationSoftware,KiCad,Pcbnew,6.0.0+dfsg1-2*
G04 #@! TF.CreationDate,2022-02-08T13:12:28-05:00*
G04 #@! TF.ProjectId,RUSP_Daughterboard,52555350-5f44-4617-9567-68746572626f,rev?*
G04 #@! TF.SameCoordinates,Original*
G04 #@! TF.FileFunction,Paste,Top*
G04 #@! TF.FilePolarity,Positive*
%FSLAX46Y46*%
G04 Gerber Fmt 4.6, Leading zero omitted, Abs format (unit mm)*
G04 Created by KiCad (PCBNEW 6.0.0+dfsg1-2) date 2022-02-08 13:12:28*
%MOMM*%
%LPD*%
G01*
G04 APERTURE LIST*
G04 Aperture macros list*
%AMRoundRect*
0 Rectangle with rounded corners*
0 $1 Rounding radius*
0 $2 $3 $4 $5 $6 $7 $8 $9 X,Y pos of 4 corners*
0 Add a 4 corners polygon primitive as box body*
4,1,4,$2,$3,$4,$5,$6,$7,$8,$9,$2,$3,0*
0 Add four circle primitives for the rounded corners*
1,1,$1+$1,$2,$3*
1,1,$1+$1,$4,$5*
1,1,$1+$1,$6,$7*
1,1,$1+$1,$8,$9*
0 Add four rect primitives between the rounded corners*
20,1,$1+$1,$2,$3,$4,$5,0*
20,1,$1+$1,$4,$5,$6,$7,0*
20,1,$1+$1,$6,$7,$8,$9,0*
20,1,$1+$1,$8,$9,$2,$3,0*%
G04 Aperture macros list end*
%ADD10RoundRect,0.200000X0.200000X0.275000X-0.200000X0.275000X-0.200000X-0.275000X0.200000X-0.275000X0*%
%ADD11RoundRect,0.218750X-0.026517X0.335876X-0.335876X0.026517X0.026517X-0.335876X0.335876X-0.026517X0*%
%ADD12RoundRect,0.225000X-0.017678X0.335876X-0.335876X0.017678X0.017678X-0.335876X0.335876X-0.017678X0*%
%ADD13R,2.000000X0.800000*%
%ADD14R,1.400000X1.800000*%
%ADD15R,1.900000X1.400000*%
%ADD16RoundRect,0.140000X0.170000X-0.140000X0.170000X0.140000X-0.170000X0.140000X-0.170000X-0.140000X0*%
%ADD17RoundRect,0.218750X0.218750X0.256250X-0.218750X0.256250X-0.218750X-0.256250X0.218750X-0.256250X0*%
%ADD18RoundRect,0.218750X0.256250X-0.218750X0.256250X0.218750X-0.256250X0.218750X-0.256250X-0.218750X0*%
%ADD19R,1.000000X1.000000*%
%ADD20R,1.050000X2.200000*%
%ADD21R,1.700000X3.200000*%
G04 APERTURE END LIST*
D10*
X137525000Y-79700000D03*
X135875000Y-79700000D03*
X137440000Y-71000000D03*
X135790000Y-71000000D03*
D11*
X147246847Y-120653153D03*
X146133153Y-121766847D03*
D12*
X146028008Y-119451992D03*
X144931992Y-120548008D03*
X148428008Y-121881992D03*
X147331992Y-122978008D03*
D13*
X123375000Y-78690000D03*
X123775000Y-77590000D03*
X123375000Y-76490000D03*
X123175000Y-75390000D03*
X123375000Y-74290000D03*
X123175000Y-73190000D03*
X123375000Y-72090000D03*
X123375000Y-70990000D03*
D14*
X133925000Y-71800000D03*
X133925000Y-77500000D03*
D15*
X120775000Y-70200000D03*
X119775000Y-83350000D03*
D14*
X128480000Y-89613500D03*
X131020000Y-89613500D03*
X133560000Y-89613500D03*
X128480000Y-114886500D03*
X131083500Y-114886500D03*
X133560000Y-114886500D03*
D16*
X177530000Y-75530000D03*
X177530000Y-74570000D03*
D17*
X176047500Y-76100000D03*
X174472500Y-76100000D03*
D16*
X177520000Y-77555000D03*
X177520000Y-76595000D03*
D18*
X177580000Y-80447500D03*
X177580000Y-78872500D03*
D17*
X176037500Y-77800000D03*
X174462500Y-77800000D03*
D19*
X175900000Y-73000000D03*
X175900000Y-70000000D03*
D20*
X177375000Y-71500000D03*
X174425000Y-71500000D03*
D21*
X171950000Y-88200000D03*
X163450000Y-88200000D03*
M02*
