G04 #@! TF.GenerationSoftware,KiCad,Pcbnew,5.1.6+dfsg1-1~bpo10+1*
G04 #@! TF.CreationDate,2021-03-28T20:23:35-04:00*
G04 #@! TF.ProjectId,RUSP_Daughterboard,52555350-5f44-4617-9567-68746572626f,rev?*
G04 #@! TF.SameCoordinates,Original*
G04 #@! TF.FileFunction,Soldermask,Top*
G04 #@! TF.FilePolarity,Negative*
%FSLAX46Y46*%
G04 Gerber Fmt 4.6, Leading zero omitted, Abs format (unit mm)*
G04 Created by KiCad (PCBNEW 5.1.6+dfsg1-1~bpo10+1) date 2021-03-28 20:23:35*
%MOMM*%
%LPD*%
G01*
G04 APERTURE LIST*
%ADD10C,0.100000*%
G04 APERTURE END LIST*
D10*
G36*
X175218766Y-135278821D02*
G01*
X175355257Y-135335358D01*
X175478097Y-135417437D01*
X175582563Y-135521903D01*
X175664642Y-135644743D01*
X175721179Y-135781234D01*
X175750000Y-135926130D01*
X175750000Y-136073870D01*
X175721179Y-136218766D01*
X175664642Y-136355257D01*
X175582563Y-136478097D01*
X175478097Y-136582563D01*
X175355257Y-136664642D01*
X175218766Y-136721179D01*
X175073870Y-136750000D01*
X174926130Y-136750000D01*
X174781234Y-136721179D01*
X174644743Y-136664642D01*
X174521903Y-136582563D01*
X174417437Y-136478097D01*
X174335358Y-136355257D01*
X174278821Y-136218766D01*
X174250000Y-136073870D01*
X174250000Y-135926130D01*
X174278821Y-135781234D01*
X174335358Y-135644743D01*
X174417437Y-135521903D01*
X174521903Y-135417437D01*
X174644743Y-135335358D01*
X174781234Y-135278821D01*
X174926130Y-135250000D01*
X175073870Y-135250000D01*
X175218766Y-135278821D01*
G37*
G36*
X165853153Y-134631145D02*
G01*
X165909180Y-134642289D01*
X166014733Y-134686011D01*
X166109728Y-134749485D01*
X166190515Y-134830272D01*
X166253990Y-134925269D01*
X166297711Y-135030821D01*
X166320000Y-135142874D01*
X166320000Y-135257126D01*
X166315684Y-135278822D01*
X166297711Y-135369180D01*
X166253989Y-135474733D01*
X166190515Y-135569728D01*
X166109728Y-135650515D01*
X166014733Y-135713989D01*
X165909180Y-135757711D01*
X165853153Y-135768855D01*
X165797126Y-135780000D01*
X165682874Y-135780000D01*
X165626847Y-135768855D01*
X165570820Y-135757711D01*
X165465267Y-135713989D01*
X165370272Y-135650515D01*
X165289485Y-135569728D01*
X165226011Y-135474733D01*
X165182289Y-135369180D01*
X165164316Y-135278822D01*
X165160000Y-135257126D01*
X165160000Y-135142874D01*
X165182289Y-135030821D01*
X165226010Y-134925269D01*
X165289485Y-134830272D01*
X165370272Y-134749485D01*
X165465267Y-134686011D01*
X165570820Y-134642289D01*
X165626847Y-134631145D01*
X165682874Y-134620000D01*
X165797126Y-134620000D01*
X165853153Y-134631145D01*
G37*
G36*
X160773153Y-134631145D02*
G01*
X160829180Y-134642289D01*
X160934733Y-134686011D01*
X161029728Y-134749485D01*
X161110515Y-134830272D01*
X161173990Y-134925269D01*
X161217711Y-135030821D01*
X161240000Y-135142874D01*
X161240000Y-135257126D01*
X161235684Y-135278822D01*
X161217711Y-135369180D01*
X161173989Y-135474733D01*
X161110515Y-135569728D01*
X161029728Y-135650515D01*
X160934733Y-135713989D01*
X160829180Y-135757711D01*
X160773153Y-135768855D01*
X160717126Y-135780000D01*
X160602874Y-135780000D01*
X160546847Y-135768855D01*
X160490820Y-135757711D01*
X160385267Y-135713989D01*
X160290272Y-135650515D01*
X160209485Y-135569728D01*
X160146011Y-135474733D01*
X160102289Y-135369180D01*
X160084316Y-135278822D01*
X160080000Y-135257126D01*
X160080000Y-135142874D01*
X160102289Y-135030821D01*
X160146010Y-134925269D01*
X160209485Y-134830272D01*
X160290272Y-134749485D01*
X160385267Y-134686011D01*
X160490820Y-134642289D01*
X160546847Y-134631145D01*
X160602874Y-134620000D01*
X160717126Y-134620000D01*
X160773153Y-134631145D01*
G37*
G36*
X154253617Y-132724979D02*
G01*
X154379196Y-132749958D01*
X154615781Y-132847955D01*
X154828702Y-132990224D01*
X155009776Y-133171298D01*
X155152045Y-133384219D01*
X155250042Y-133620804D01*
X155300000Y-133871961D01*
X155300000Y-134128039D01*
X155250042Y-134379196D01*
X155152045Y-134615781D01*
X155009776Y-134828702D01*
X154828702Y-135009776D01*
X154615781Y-135152045D01*
X154379196Y-135250042D01*
X154253617Y-135275021D01*
X154128040Y-135300000D01*
X153871960Y-135300000D01*
X153746383Y-135275021D01*
X153620804Y-135250042D01*
X153384219Y-135152045D01*
X153171298Y-135009776D01*
X152990224Y-134828702D01*
X152847955Y-134615781D01*
X152749958Y-134379196D01*
X152700000Y-134128039D01*
X152700000Y-133871961D01*
X152749958Y-133620804D01*
X152847955Y-133384219D01*
X152990224Y-133171298D01*
X153171298Y-132990224D01*
X153384219Y-132847955D01*
X153620804Y-132749958D01*
X153746383Y-132724979D01*
X153871960Y-132700000D01*
X154128040Y-132700000D01*
X154253617Y-132724979D01*
G37*
G36*
X154238985Y-126798538D02*
G01*
X154357319Y-126822076D01*
X154449661Y-126860325D01*
X154580254Y-126914418D01*
X154780891Y-127048480D01*
X154951520Y-127219109D01*
X155085582Y-127419746D01*
X155177924Y-127642682D01*
X155225000Y-127879347D01*
X155225000Y-128120653D01*
X155177924Y-128357318D01*
X155085582Y-128580254D01*
X154951520Y-128780891D01*
X154780891Y-128951520D01*
X154580254Y-129085582D01*
X154449661Y-129139675D01*
X154357319Y-129177924D01*
X154120653Y-129225000D01*
X153879347Y-129225000D01*
X153642681Y-129177924D01*
X153550339Y-129139675D01*
X153419746Y-129085582D01*
X153219109Y-128951520D01*
X153048480Y-128780891D01*
X152914418Y-128580254D01*
X152822076Y-128357318D01*
X152775000Y-128120653D01*
X152775000Y-127879347D01*
X152822076Y-127642682D01*
X152914418Y-127419746D01*
X153048480Y-127219109D01*
X153219109Y-127048480D01*
X153419746Y-126914418D01*
X153550339Y-126860325D01*
X153642681Y-126822076D01*
X153761015Y-126798538D01*
X153879347Y-126775000D01*
X154120653Y-126775000D01*
X154238985Y-126798538D01*
G37*
G36*
X160773153Y-126931145D02*
G01*
X160829180Y-126942289D01*
X160934733Y-126986011D01*
X161029728Y-127049485D01*
X161110515Y-127130272D01*
X161173989Y-127225267D01*
X161217711Y-127330820D01*
X161240000Y-127442875D01*
X161240000Y-127557125D01*
X161217711Y-127669180D01*
X161173989Y-127774733D01*
X161110515Y-127869728D01*
X161029728Y-127950515D01*
X160934733Y-128013989D01*
X160829180Y-128057711D01*
X160773152Y-128068856D01*
X160717126Y-128080000D01*
X160602874Y-128080000D01*
X160546848Y-128068856D01*
X160490820Y-128057711D01*
X160385267Y-128013989D01*
X160290272Y-127950515D01*
X160209485Y-127869728D01*
X160146011Y-127774733D01*
X160102289Y-127669180D01*
X160080000Y-127557125D01*
X160080000Y-127442875D01*
X160102289Y-127330820D01*
X160146011Y-127225267D01*
X160209485Y-127130272D01*
X160290272Y-127049485D01*
X160385267Y-126986011D01*
X160490820Y-126942289D01*
X160546847Y-126931145D01*
X160602874Y-126920000D01*
X160717126Y-126920000D01*
X160773153Y-126931145D01*
G37*
G36*
X165853153Y-126931145D02*
G01*
X165909180Y-126942289D01*
X166014733Y-126986011D01*
X166109728Y-127049485D01*
X166190515Y-127130272D01*
X166253989Y-127225267D01*
X166297711Y-127330820D01*
X166320000Y-127442875D01*
X166320000Y-127557125D01*
X166297711Y-127669180D01*
X166253989Y-127774733D01*
X166190515Y-127869728D01*
X166109728Y-127950515D01*
X166014733Y-128013989D01*
X165909180Y-128057711D01*
X165853152Y-128068856D01*
X165797126Y-128080000D01*
X165682874Y-128080000D01*
X165626848Y-128068856D01*
X165570820Y-128057711D01*
X165465267Y-128013989D01*
X165370272Y-127950515D01*
X165289485Y-127869728D01*
X165226011Y-127774733D01*
X165182289Y-127669180D01*
X165160000Y-127557125D01*
X165160000Y-127442875D01*
X165182289Y-127330820D01*
X165226011Y-127225267D01*
X165289485Y-127130272D01*
X165370272Y-127049485D01*
X165465267Y-126986011D01*
X165570820Y-126942289D01*
X165626847Y-126931145D01*
X165682874Y-126920000D01*
X165797126Y-126920000D01*
X165853153Y-126931145D01*
G37*
G36*
X148141243Y-120020117D02*
G01*
X148175836Y-120030611D01*
X148207709Y-120047647D01*
X148240425Y-120074497D01*
X148280267Y-120114339D01*
X148280278Y-120114348D01*
X148665652Y-120499722D01*
X148665661Y-120499733D01*
X148705503Y-120539575D01*
X148732353Y-120572291D01*
X148749389Y-120604164D01*
X148759883Y-120638757D01*
X148763426Y-120674731D01*
X148761766Y-120691584D01*
X148761766Y-120716088D01*
X148766546Y-120740121D01*
X148775923Y-120762760D01*
X148789537Y-120783135D01*
X148806863Y-120800462D01*
X148827238Y-120814076D01*
X148849876Y-120823453D01*
X148873910Y-120828234D01*
X148898416Y-120828234D01*
X148915269Y-120826574D01*
X148951243Y-120830117D01*
X148985836Y-120840611D01*
X149017709Y-120857647D01*
X149050425Y-120884497D01*
X149090267Y-120924339D01*
X149090278Y-120924348D01*
X149475652Y-121309722D01*
X149475661Y-121309733D01*
X149515503Y-121349575D01*
X149542353Y-121382291D01*
X149559389Y-121414164D01*
X149569883Y-121448757D01*
X149573426Y-121484730D01*
X149570967Y-121509692D01*
X149570967Y-121534196D01*
X149575747Y-121558229D01*
X149585124Y-121580868D01*
X149598737Y-121601243D01*
X149616064Y-121618570D01*
X149636438Y-121632184D01*
X149659077Y-121641562D01*
X149683110Y-121646343D01*
X149702925Y-121646343D01*
X149741243Y-121650117D01*
X149775836Y-121660611D01*
X149807709Y-121677647D01*
X149840425Y-121704497D01*
X149880267Y-121744339D01*
X149880278Y-121744348D01*
X150265652Y-122129722D01*
X150265661Y-122129733D01*
X150305503Y-122169575D01*
X150332353Y-122202291D01*
X150349389Y-122234164D01*
X150359883Y-122268757D01*
X150363426Y-122304731D01*
X150359883Y-122340705D01*
X150349389Y-122375298D01*
X150332353Y-122407171D01*
X150305503Y-122439887D01*
X150265661Y-122479729D01*
X150265652Y-122479740D01*
X149915634Y-122829758D01*
X149915623Y-122829767D01*
X149875781Y-122869609D01*
X149843065Y-122896459D01*
X149811192Y-122913495D01*
X149768250Y-122926521D01*
X149761239Y-122927916D01*
X149738601Y-122937295D01*
X149718227Y-122950910D01*
X149700901Y-122968238D01*
X149687289Y-122988613D01*
X149677913Y-123011252D01*
X149676520Y-123018253D01*
X149663495Y-123061192D01*
X149646459Y-123093065D01*
X149619609Y-123125781D01*
X149579767Y-123165623D01*
X149579758Y-123165634D01*
X149229740Y-123515652D01*
X149229729Y-123515661D01*
X149189887Y-123555503D01*
X149157171Y-123582353D01*
X149125298Y-123599389D01*
X149090705Y-123609883D01*
X149054731Y-123613426D01*
X149018757Y-123609883D01*
X148984164Y-123599389D01*
X148952291Y-123582353D01*
X148919575Y-123555503D01*
X148879733Y-123515661D01*
X148879722Y-123515652D01*
X148494348Y-123130278D01*
X148494339Y-123130267D01*
X148454497Y-123090425D01*
X148427647Y-123057709D01*
X148410611Y-123025836D01*
X148400117Y-122991243D01*
X148396574Y-122955269D01*
X148399033Y-122930308D01*
X148399033Y-122905804D01*
X148394253Y-122881771D01*
X148384876Y-122859132D01*
X148371263Y-122838757D01*
X148353936Y-122821430D01*
X148333562Y-122807816D01*
X148310923Y-122798438D01*
X148286890Y-122793657D01*
X148267075Y-122793657D01*
X148228757Y-122789883D01*
X148194164Y-122779389D01*
X148162291Y-122762353D01*
X148129575Y-122735503D01*
X148089733Y-122695661D01*
X148089722Y-122695652D01*
X147704348Y-122310278D01*
X147704339Y-122310267D01*
X147664497Y-122270425D01*
X147637647Y-122237709D01*
X147620611Y-122205836D01*
X147610117Y-122171243D01*
X147606574Y-122135269D01*
X147608234Y-122118416D01*
X147608234Y-122093912D01*
X147603454Y-122069879D01*
X147594077Y-122047240D01*
X147580463Y-122026865D01*
X147563137Y-122009538D01*
X147542762Y-121995924D01*
X147520124Y-121986547D01*
X147496090Y-121981766D01*
X147471584Y-121981766D01*
X147454731Y-121983426D01*
X147418757Y-121979883D01*
X147384164Y-121969389D01*
X147352291Y-121952353D01*
X147319575Y-121925503D01*
X147279733Y-121885661D01*
X147279722Y-121885652D01*
X146894348Y-121500278D01*
X146894339Y-121500267D01*
X146854497Y-121460425D01*
X146827647Y-121427709D01*
X146810611Y-121395836D01*
X146800117Y-121361243D01*
X146796574Y-121325269D01*
X146800117Y-121289295D01*
X146810611Y-121254702D01*
X146827647Y-121222829D01*
X146854497Y-121190113D01*
X146894339Y-121150271D01*
X146894348Y-121150260D01*
X147244366Y-120800242D01*
X147244377Y-120800233D01*
X147284219Y-120760391D01*
X147316935Y-120733541D01*
X147348808Y-120716505D01*
X147391750Y-120703479D01*
X147398761Y-120702084D01*
X147421399Y-120692705D01*
X147441773Y-120679090D01*
X147459099Y-120661762D01*
X147472711Y-120641387D01*
X147482087Y-120618748D01*
X147483480Y-120611747D01*
X147496505Y-120568808D01*
X147513541Y-120536935D01*
X147540391Y-120504219D01*
X147580233Y-120464377D01*
X147580242Y-120464366D01*
X147930260Y-120114348D01*
X147930271Y-120114339D01*
X147970113Y-120074497D01*
X148002829Y-120047647D01*
X148034702Y-120030611D01*
X148069295Y-120020117D01*
X148105269Y-120016574D01*
X148141243Y-120020117D01*
G37*
G36*
X175670974Y-119024148D02*
G01*
X175705567Y-119034642D01*
X175737440Y-119051678D01*
X175765386Y-119074614D01*
X175788322Y-119102560D01*
X175805358Y-119134433D01*
X175815852Y-119169026D01*
X175820000Y-119211141D01*
X175820000Y-119818859D01*
X175815852Y-119860974D01*
X175805358Y-119895567D01*
X175784213Y-119935127D01*
X175780244Y-119941066D01*
X175770865Y-119963703D01*
X175766082Y-119987736D01*
X175766080Y-120012240D01*
X175770858Y-120036274D01*
X175780233Y-120058914D01*
X175784206Y-120064861D01*
X175805358Y-120104433D01*
X175815852Y-120139026D01*
X175820000Y-120181141D01*
X175820000Y-120788859D01*
X175815852Y-120830974D01*
X175805358Y-120865567D01*
X175788322Y-120897440D01*
X175765386Y-120925386D01*
X175737440Y-120948322D01*
X175705567Y-120965358D01*
X175670974Y-120975852D01*
X175628859Y-120980000D01*
X174971141Y-120980000D01*
X174929026Y-120975852D01*
X174894433Y-120965358D01*
X174862560Y-120948322D01*
X174834614Y-120925386D01*
X174811678Y-120897440D01*
X174794642Y-120865567D01*
X174784148Y-120830974D01*
X174780000Y-120788859D01*
X174780000Y-120181141D01*
X174784148Y-120139026D01*
X174794642Y-120104433D01*
X174815787Y-120064873D01*
X174819756Y-120058934D01*
X174829135Y-120036297D01*
X174833918Y-120012264D01*
X174833920Y-119987760D01*
X174829142Y-119963726D01*
X174819767Y-119941086D01*
X174815794Y-119935139D01*
X174794642Y-119895567D01*
X174784148Y-119860974D01*
X174780000Y-119818859D01*
X174780000Y-119211141D01*
X174784148Y-119169026D01*
X174794642Y-119134433D01*
X174811678Y-119102560D01*
X174834614Y-119074614D01*
X174862560Y-119051678D01*
X174894433Y-119034642D01*
X174929026Y-119024148D01*
X174971141Y-119020000D01*
X175628859Y-119020000D01*
X175670974Y-119024148D01*
G37*
G36*
X177070974Y-119024148D02*
G01*
X177105567Y-119034642D01*
X177137440Y-119051678D01*
X177165386Y-119074614D01*
X177188322Y-119102560D01*
X177205358Y-119134433D01*
X177215852Y-119169026D01*
X177220000Y-119211141D01*
X177220000Y-119818859D01*
X177215852Y-119860974D01*
X177205358Y-119895567D01*
X177184213Y-119935127D01*
X177180244Y-119941066D01*
X177170865Y-119963703D01*
X177166082Y-119987736D01*
X177166080Y-120012240D01*
X177170858Y-120036274D01*
X177180233Y-120058914D01*
X177184206Y-120064861D01*
X177205358Y-120104433D01*
X177215852Y-120139026D01*
X177220000Y-120181141D01*
X177220000Y-120788859D01*
X177215852Y-120830974D01*
X177205358Y-120865567D01*
X177188322Y-120897440D01*
X177165386Y-120925386D01*
X177137440Y-120948322D01*
X177105567Y-120965358D01*
X177070974Y-120975852D01*
X177028859Y-120980000D01*
X176371141Y-120980000D01*
X176329026Y-120975852D01*
X176294433Y-120965358D01*
X176262560Y-120948322D01*
X176234614Y-120925386D01*
X176211678Y-120897440D01*
X176194642Y-120865567D01*
X176184148Y-120830974D01*
X176180000Y-120788859D01*
X176180000Y-120181141D01*
X176184148Y-120139026D01*
X176194642Y-120104433D01*
X176215787Y-120064873D01*
X176219756Y-120058934D01*
X176229135Y-120036297D01*
X176233918Y-120012264D01*
X176233920Y-119987760D01*
X176229142Y-119963726D01*
X176219767Y-119941086D01*
X176215794Y-119935139D01*
X176194642Y-119895567D01*
X176184148Y-119860974D01*
X176180000Y-119818859D01*
X176180000Y-119211141D01*
X176184148Y-119169026D01*
X176194642Y-119134433D01*
X176211678Y-119102560D01*
X176234614Y-119074614D01*
X176262560Y-119051678D01*
X176294433Y-119034642D01*
X176329026Y-119024148D01*
X176371141Y-119020000D01*
X177028859Y-119020000D01*
X177070974Y-119024148D01*
G37*
G36*
X177350000Y-117710000D02*
G01*
X175450000Y-117710000D01*
X175450000Y-116710000D01*
X177350000Y-116710000D01*
X177350000Y-117710000D01*
G37*
G36*
X171950000Y-117710000D02*
G01*
X170050000Y-117710000D01*
X170050000Y-116710000D01*
X171950000Y-116710000D01*
X171950000Y-117710000D01*
G37*
G36*
X171950000Y-116440000D02*
G01*
X170050000Y-116440000D01*
X170050000Y-115440000D01*
X171950000Y-115440000D01*
X171950000Y-116440000D01*
G37*
G36*
X177350000Y-116440000D02*
G01*
X175450000Y-116440000D01*
X175450000Y-115440000D01*
X177350000Y-115440000D01*
X177350000Y-116440000D01*
G37*
G36*
X134460000Y-115986500D02*
G01*
X132660000Y-115986500D01*
X132660000Y-113786500D01*
X134460000Y-113786500D01*
X134460000Y-115986500D01*
G37*
G36*
X131983500Y-115986500D02*
G01*
X130183500Y-115986500D01*
X130183500Y-113786500D01*
X131983500Y-113786500D01*
X131983500Y-115986500D01*
G37*
G36*
X129380000Y-115986500D02*
G01*
X127580000Y-115986500D01*
X127580000Y-113786500D01*
X129380000Y-113786500D01*
X129380000Y-115986500D01*
G37*
G36*
X171950000Y-115170000D02*
G01*
X170050000Y-115170000D01*
X170050000Y-114170000D01*
X171950000Y-114170000D01*
X171950000Y-115170000D01*
G37*
G36*
X177350000Y-115170000D02*
G01*
X175450000Y-115170000D01*
X175450000Y-114170000D01*
X177350000Y-114170000D01*
X177350000Y-115170000D01*
G37*
G36*
X141253617Y-112224979D02*
G01*
X141379196Y-112249958D01*
X141615781Y-112347955D01*
X141828702Y-112490224D01*
X142009776Y-112671298D01*
X142152045Y-112884219D01*
X142250042Y-113120804D01*
X142300000Y-113371961D01*
X142300000Y-113628039D01*
X142250042Y-113879196D01*
X142152045Y-114115781D01*
X142009776Y-114328702D01*
X141828702Y-114509776D01*
X141615781Y-114652045D01*
X141379196Y-114750042D01*
X141128040Y-114800000D01*
X140871960Y-114800000D01*
X140620804Y-114750042D01*
X140384219Y-114652045D01*
X140171298Y-114509776D01*
X139990224Y-114328702D01*
X139847955Y-114115781D01*
X139749958Y-113879196D01*
X139700000Y-113628039D01*
X139700000Y-113371961D01*
X139749958Y-113120804D01*
X139847955Y-112884219D01*
X139990224Y-112671298D01*
X140171298Y-112490224D01*
X140384219Y-112347955D01*
X140620804Y-112249958D01*
X140746383Y-112224979D01*
X140871960Y-112200000D01*
X141128040Y-112200000D01*
X141253617Y-112224979D01*
G37*
G36*
X171950000Y-113900000D02*
G01*
X170050000Y-113900000D01*
X170050000Y-112900000D01*
X171950000Y-112900000D01*
X171950000Y-113900000D01*
G37*
G36*
X177350000Y-113900000D02*
G01*
X175450000Y-113900000D01*
X175450000Y-112900000D01*
X177350000Y-112900000D01*
X177350000Y-113900000D01*
G37*
G36*
X171950000Y-112630000D02*
G01*
X170050000Y-112630000D01*
X170050000Y-111630000D01*
X171950000Y-111630000D01*
X171950000Y-112630000D01*
G37*
G36*
X177350000Y-112630000D02*
G01*
X175450000Y-112630000D01*
X175450000Y-111630000D01*
X177350000Y-111630000D01*
X177350000Y-112630000D01*
G37*
G36*
X177350000Y-111360000D02*
G01*
X175450000Y-111360000D01*
X175450000Y-110360000D01*
X177350000Y-110360000D01*
X177350000Y-111360000D01*
G37*
G36*
X171950000Y-111360000D02*
G01*
X170050000Y-111360000D01*
X170050000Y-110360000D01*
X171950000Y-110360000D01*
X171950000Y-111360000D01*
G37*
G36*
X123903351Y-109610743D02*
G01*
X124048941Y-109671048D01*
X124179970Y-109758599D01*
X124291401Y-109870030D01*
X124378952Y-110001059D01*
X124439257Y-110146649D01*
X124470000Y-110301206D01*
X124470000Y-110458794D01*
X124439257Y-110613351D01*
X124378952Y-110758941D01*
X124291401Y-110889970D01*
X124179970Y-111001401D01*
X124048941Y-111088952D01*
X123903351Y-111149257D01*
X123748794Y-111180000D01*
X123591206Y-111180000D01*
X123436649Y-111149257D01*
X123291059Y-111088952D01*
X123160030Y-111001401D01*
X123048599Y-110889970D01*
X122961048Y-110758941D01*
X122900743Y-110613351D01*
X122870000Y-110458794D01*
X122870000Y-110301206D01*
X122900743Y-110146649D01*
X122961048Y-110001059D01*
X123048599Y-109870030D01*
X123160030Y-109758599D01*
X123291059Y-109671048D01*
X123436649Y-109610743D01*
X123591206Y-109580000D01*
X123748794Y-109580000D01*
X123903351Y-109610743D01*
G37*
G36*
X177350000Y-110090000D02*
G01*
X175450000Y-110090000D01*
X175450000Y-109090000D01*
X177350000Y-109090000D01*
X177350000Y-110090000D01*
G37*
G36*
X171950000Y-110090000D02*
G01*
X170050000Y-110090000D01*
X170050000Y-109090000D01*
X171950000Y-109090000D01*
X171950000Y-110090000D01*
G37*
G36*
X175570974Y-105224148D02*
G01*
X175605567Y-105234642D01*
X175637440Y-105251678D01*
X175665386Y-105274614D01*
X175688321Y-105302559D01*
X175689760Y-105305251D01*
X175703373Y-105325626D01*
X175720700Y-105342953D01*
X175741074Y-105356567D01*
X175763713Y-105365945D01*
X175787746Y-105370726D01*
X175812250Y-105370726D01*
X175836283Y-105365946D01*
X175858922Y-105356569D01*
X175879297Y-105342956D01*
X175896624Y-105325629D01*
X175910240Y-105305251D01*
X175911679Y-105302559D01*
X175934614Y-105274614D01*
X175962560Y-105251678D01*
X175994433Y-105234642D01*
X176029026Y-105224148D01*
X176071141Y-105220000D01*
X176728859Y-105220000D01*
X176770974Y-105224148D01*
X176805567Y-105234642D01*
X176837440Y-105251678D01*
X176865386Y-105274614D01*
X176888322Y-105302560D01*
X176905358Y-105334433D01*
X176915852Y-105369026D01*
X176920000Y-105411141D01*
X176920000Y-106018859D01*
X176915852Y-106060974D01*
X176905358Y-106095567D01*
X176884213Y-106135127D01*
X176880244Y-106141066D01*
X176870865Y-106163703D01*
X176866082Y-106187736D01*
X176866080Y-106212240D01*
X176870858Y-106236274D01*
X176880233Y-106258914D01*
X176884206Y-106264861D01*
X176905358Y-106304433D01*
X176915852Y-106339026D01*
X176920000Y-106381141D01*
X176920000Y-106988859D01*
X176915852Y-107030974D01*
X176905358Y-107065567D01*
X176888322Y-107097440D01*
X176865386Y-107125386D01*
X176837440Y-107148322D01*
X176805567Y-107165358D01*
X176770974Y-107175852D01*
X176728859Y-107180000D01*
X176071141Y-107180000D01*
X176029026Y-107175852D01*
X175994433Y-107165358D01*
X175962560Y-107148322D01*
X175934614Y-107125386D01*
X175911679Y-107097441D01*
X175910240Y-107094749D01*
X175896627Y-107074374D01*
X175879300Y-107057047D01*
X175858926Y-107043433D01*
X175836287Y-107034055D01*
X175812254Y-107029274D01*
X175787750Y-107029274D01*
X175763717Y-107034054D01*
X175741078Y-107043431D01*
X175720703Y-107057044D01*
X175703376Y-107074371D01*
X175689760Y-107094749D01*
X175688321Y-107097441D01*
X175665386Y-107125386D01*
X175637440Y-107148322D01*
X175605567Y-107165358D01*
X175570974Y-107175852D01*
X175528859Y-107180000D01*
X174871141Y-107180000D01*
X174829026Y-107175852D01*
X174794433Y-107165358D01*
X174762560Y-107148322D01*
X174734614Y-107125386D01*
X174711678Y-107097440D01*
X174694642Y-107065567D01*
X174684148Y-107030974D01*
X174680000Y-106988859D01*
X174680000Y-106381141D01*
X174684148Y-106339026D01*
X174694642Y-106304433D01*
X174715787Y-106264873D01*
X174719756Y-106258934D01*
X174729135Y-106236297D01*
X174733918Y-106212264D01*
X174733918Y-106212240D01*
X175666080Y-106212240D01*
X175670858Y-106236274D01*
X175680233Y-106258914D01*
X175684206Y-106264861D01*
X175689760Y-106275251D01*
X175703373Y-106295626D01*
X175720700Y-106312953D01*
X175741074Y-106326567D01*
X175763713Y-106335945D01*
X175787746Y-106340726D01*
X175812250Y-106340726D01*
X175836283Y-106335946D01*
X175858922Y-106326569D01*
X175879297Y-106312956D01*
X175896624Y-106295629D01*
X175910240Y-106275251D01*
X175915787Y-106264873D01*
X175919756Y-106258934D01*
X175929135Y-106236297D01*
X175933918Y-106212264D01*
X175933920Y-106187760D01*
X175929142Y-106163726D01*
X175919767Y-106141086D01*
X175915794Y-106135139D01*
X175910240Y-106124749D01*
X175896627Y-106104374D01*
X175879300Y-106087047D01*
X175858926Y-106073433D01*
X175836287Y-106064055D01*
X175812254Y-106059274D01*
X175787750Y-106059274D01*
X175763717Y-106064054D01*
X175741078Y-106073431D01*
X175720703Y-106087044D01*
X175703376Y-106104371D01*
X175689760Y-106124749D01*
X175684213Y-106135127D01*
X175680244Y-106141066D01*
X175670865Y-106163703D01*
X175666082Y-106187736D01*
X175666080Y-106212240D01*
X174733918Y-106212240D01*
X174733920Y-106187760D01*
X174729142Y-106163726D01*
X174719767Y-106141086D01*
X174715794Y-106135139D01*
X174694642Y-106095567D01*
X174684148Y-106060974D01*
X174680000Y-106018859D01*
X174680000Y-105411141D01*
X174684148Y-105369026D01*
X174694642Y-105334433D01*
X174711678Y-105302560D01*
X174734614Y-105274614D01*
X174762560Y-105251678D01*
X174794433Y-105234642D01*
X174829026Y-105224148D01*
X174871141Y-105220000D01*
X175528859Y-105220000D01*
X175570974Y-105224148D01*
G37*
G36*
X123320857Y-99442272D02*
G01*
X123521043Y-99525192D01*
X123521045Y-99525193D01*
X123611738Y-99585792D01*
X123701208Y-99645574D01*
X123854426Y-99798792D01*
X123974808Y-99978957D01*
X124057728Y-100179143D01*
X124100000Y-100391658D01*
X124100000Y-100608342D01*
X124057728Y-100820857D01*
X123974808Y-101021043D01*
X123974807Y-101021045D01*
X123854425Y-101201209D01*
X123701209Y-101354425D01*
X123521045Y-101474807D01*
X123521044Y-101474808D01*
X123521043Y-101474808D01*
X123320857Y-101557728D01*
X123108342Y-101600000D01*
X122891658Y-101600000D01*
X122679143Y-101557728D01*
X122478957Y-101474808D01*
X122478956Y-101474808D01*
X122478955Y-101474807D01*
X122298791Y-101354425D01*
X122145575Y-101201209D01*
X122025193Y-101021045D01*
X122025192Y-101021043D01*
X121942272Y-100820857D01*
X121900000Y-100608342D01*
X121900000Y-100391658D01*
X121942272Y-100179143D01*
X122025192Y-99978957D01*
X122145574Y-99798792D01*
X122298792Y-99645574D01*
X122388262Y-99585792D01*
X122478955Y-99525193D01*
X122478957Y-99525192D01*
X122679143Y-99442272D01*
X122891658Y-99400000D01*
X123108342Y-99400000D01*
X123320857Y-99442272D01*
G37*
G36*
X125905470Y-98619160D02*
G01*
X125963687Y-98630740D01*
X126031832Y-98658967D01*
X126128204Y-98698885D01*
X126276266Y-98797817D01*
X126402183Y-98923734D01*
X126501115Y-99071796D01*
X126569260Y-99236314D01*
X126604000Y-99410962D01*
X126604000Y-99589038D01*
X126569260Y-99763686D01*
X126501115Y-99928204D01*
X126402183Y-100076266D01*
X126276266Y-100202183D01*
X126128204Y-100301115D01*
X126031832Y-100341033D01*
X125963687Y-100369260D01*
X125905470Y-100380840D01*
X125789038Y-100404000D01*
X125610962Y-100404000D01*
X125494530Y-100380840D01*
X125436313Y-100369260D01*
X125368168Y-100341033D01*
X125271796Y-100301115D01*
X125123734Y-100202183D01*
X124997817Y-100076266D01*
X124898885Y-99928204D01*
X124830740Y-99763686D01*
X124796000Y-99589038D01*
X124796000Y-99410962D01*
X124830740Y-99236314D01*
X124898885Y-99071796D01*
X124997817Y-98923734D01*
X125123734Y-98797817D01*
X125271796Y-98698885D01*
X125368168Y-98658967D01*
X125436313Y-98630740D01*
X125494530Y-98619160D01*
X125610962Y-98596000D01*
X125789038Y-98596000D01*
X125905470Y-98619160D01*
G37*
G36*
X176879196Y-94249958D02*
G01*
X177115781Y-94347955D01*
X177328702Y-94490224D01*
X177509776Y-94671298D01*
X177652045Y-94884219D01*
X177750042Y-95120804D01*
X177800000Y-95371961D01*
X177800000Y-95628039D01*
X177750042Y-95879196D01*
X177652045Y-96115781D01*
X177509776Y-96328702D01*
X177328702Y-96509776D01*
X177115781Y-96652045D01*
X176879196Y-96750042D01*
X176753617Y-96775021D01*
X176628040Y-96800000D01*
X176371960Y-96800000D01*
X176246383Y-96775021D01*
X176120804Y-96750042D01*
X175884219Y-96652045D01*
X175671298Y-96509776D01*
X175490224Y-96328702D01*
X175347955Y-96115781D01*
X175249958Y-95879196D01*
X175200000Y-95628039D01*
X175200000Y-95371961D01*
X175249958Y-95120804D01*
X175347955Y-94884219D01*
X175490224Y-94671298D01*
X175671298Y-94490224D01*
X175884219Y-94347955D01*
X176120804Y-94249958D01*
X176371960Y-94200000D01*
X176628040Y-94200000D01*
X176879196Y-94249958D01*
G37*
G36*
X135773687Y-93530027D02*
G01*
X135951274Y-93565350D01*
X136142362Y-93644502D01*
X136314336Y-93759411D01*
X136460589Y-93905664D01*
X136575498Y-94077638D01*
X136654650Y-94268726D01*
X136695000Y-94471584D01*
X136695000Y-94678416D01*
X136654650Y-94881274D01*
X136575498Y-95072362D01*
X136460589Y-95244336D01*
X136314336Y-95390589D01*
X136142362Y-95505498D01*
X135951274Y-95584650D01*
X135773687Y-95619973D01*
X135748417Y-95625000D01*
X135541583Y-95625000D01*
X135516313Y-95619973D01*
X135338726Y-95584650D01*
X135147638Y-95505498D01*
X134975664Y-95390589D01*
X134829411Y-95244336D01*
X134714502Y-95072362D01*
X134635350Y-94881274D01*
X134595000Y-94678416D01*
X134595000Y-94471584D01*
X134635350Y-94268726D01*
X134714502Y-94077638D01*
X134829411Y-93905664D01*
X134975664Y-93759411D01*
X135147638Y-93644502D01*
X135338726Y-93565350D01*
X135516313Y-93530027D01*
X135541583Y-93525000D01*
X135748417Y-93525000D01*
X135773687Y-93530027D01*
G37*
G36*
X125905470Y-93619160D02*
G01*
X125963687Y-93630740D01*
X125996911Y-93644502D01*
X126128204Y-93698885D01*
X126276266Y-93797817D01*
X126402183Y-93923734D01*
X126501115Y-94071796D01*
X126541033Y-94168168D01*
X126554219Y-94200000D01*
X126569260Y-94236314D01*
X126604000Y-94410962D01*
X126604000Y-94589038D01*
X126569260Y-94763686D01*
X126501115Y-94928204D01*
X126402183Y-95076266D01*
X126276266Y-95202183D01*
X126128204Y-95301115D01*
X126031832Y-95341033D01*
X125963687Y-95369260D01*
X125905470Y-95380840D01*
X125789038Y-95404000D01*
X125610962Y-95404000D01*
X125494530Y-95380840D01*
X125436313Y-95369260D01*
X125368168Y-95341033D01*
X125271796Y-95301115D01*
X125123734Y-95202183D01*
X124997817Y-95076266D01*
X124898885Y-94928204D01*
X124830740Y-94763686D01*
X124796000Y-94589038D01*
X124796000Y-94410962D01*
X124830740Y-94236314D01*
X124845782Y-94200000D01*
X124858967Y-94168168D01*
X124898885Y-94071796D01*
X124997817Y-93923734D01*
X125123734Y-93797817D01*
X125271796Y-93698885D01*
X125403089Y-93644502D01*
X125436313Y-93630740D01*
X125494530Y-93619160D01*
X125610962Y-93596000D01*
X125789038Y-93596000D01*
X125905470Y-93619160D01*
G37*
G36*
X123320857Y-92442272D02*
G01*
X123521043Y-92525192D01*
X123521045Y-92525193D01*
X123611738Y-92585792D01*
X123701208Y-92645574D01*
X123854426Y-92798792D01*
X123974808Y-92978957D01*
X124057728Y-93179143D01*
X124100000Y-93391658D01*
X124100000Y-93608342D01*
X124057728Y-93820857D01*
X123974808Y-94021043D01*
X123974807Y-94021045D01*
X123854425Y-94201209D01*
X123701209Y-94354425D01*
X123521045Y-94474807D01*
X123521044Y-94474808D01*
X123521043Y-94474808D01*
X123320857Y-94557728D01*
X123108342Y-94600000D01*
X122891658Y-94600000D01*
X122679143Y-94557728D01*
X122478957Y-94474808D01*
X122478956Y-94474808D01*
X122478955Y-94474807D01*
X122298791Y-94354425D01*
X122145575Y-94201209D01*
X122025193Y-94021045D01*
X122025192Y-94021043D01*
X121942272Y-93820857D01*
X121900000Y-93608342D01*
X121900000Y-93391658D01*
X121942272Y-93179143D01*
X122025192Y-92978957D01*
X122145574Y-92798792D01*
X122298792Y-92645574D01*
X122388262Y-92585792D01*
X122478955Y-92525193D01*
X122478957Y-92525192D01*
X122679143Y-92442272D01*
X122891658Y-92400000D01*
X123108342Y-92400000D01*
X123320857Y-92442272D01*
G37*
G36*
X134460000Y-90713500D02*
G01*
X132660000Y-90713500D01*
X132660000Y-88513500D01*
X134460000Y-88513500D01*
X134460000Y-90713500D01*
G37*
G36*
X131920000Y-90713500D02*
G01*
X130120000Y-90713500D01*
X130120000Y-88513500D01*
X131920000Y-88513500D01*
X131920000Y-90713500D01*
G37*
G36*
X129380000Y-90713500D02*
G01*
X127580000Y-90713500D01*
X127580000Y-88513500D01*
X129380000Y-88513500D01*
X129380000Y-90713500D01*
G37*
G36*
X177800000Y-90200000D02*
G01*
X175700000Y-90200000D01*
X175700000Y-86600000D01*
X177800000Y-86600000D01*
X177800000Y-90200000D01*
G37*
G36*
X169300000Y-90200000D02*
G01*
X167200000Y-90200000D01*
X167200000Y-86600000D01*
X169300000Y-86600000D01*
X169300000Y-90200000D01*
G37*
G36*
X126718766Y-85778821D02*
G01*
X126855257Y-85835358D01*
X126978097Y-85917437D01*
X127082563Y-86021903D01*
X127164642Y-86144743D01*
X127221179Y-86281234D01*
X127250000Y-86426130D01*
X127250000Y-86573870D01*
X127221179Y-86718766D01*
X127164642Y-86855257D01*
X127082563Y-86978097D01*
X126978097Y-87082563D01*
X126855257Y-87164642D01*
X126718766Y-87221179D01*
X126573870Y-87250000D01*
X126426130Y-87250000D01*
X126281234Y-87221179D01*
X126144743Y-87164642D01*
X126021903Y-87082563D01*
X125917437Y-86978097D01*
X125835358Y-86855257D01*
X125778821Y-86718766D01*
X125750000Y-86573870D01*
X125750000Y-86426130D01*
X125778821Y-86281234D01*
X125835358Y-86144743D01*
X125917437Y-86021903D01*
X126021903Y-85917437D01*
X126144743Y-85835358D01*
X126281234Y-85778821D01*
X126426130Y-85750000D01*
X126573870Y-85750000D01*
X126718766Y-85778821D01*
G37*
G36*
X120425000Y-84250000D02*
G01*
X118125000Y-84250000D01*
X118125000Y-82450000D01*
X120425000Y-82450000D01*
X120425000Y-84250000D01*
G37*
G36*
X178570974Y-75824148D02*
G01*
X178605567Y-75834642D01*
X178637440Y-75851678D01*
X178665386Y-75874614D01*
X178688322Y-75902560D01*
X178705358Y-75934433D01*
X178715852Y-75969026D01*
X178720000Y-76011141D01*
X178720000Y-76618859D01*
X178715852Y-76660974D01*
X178705358Y-76695567D01*
X178684213Y-76735127D01*
X178680244Y-76741066D01*
X178670865Y-76763703D01*
X178666082Y-76787736D01*
X178666080Y-76812240D01*
X178670858Y-76836274D01*
X178680233Y-76858914D01*
X178684206Y-76864861D01*
X178705358Y-76904433D01*
X178715852Y-76939026D01*
X178720000Y-76981141D01*
X178720000Y-77588859D01*
X178715852Y-77630974D01*
X178705358Y-77665567D01*
X178688320Y-77697444D01*
X178669233Y-77720701D01*
X178655619Y-77741076D01*
X178646241Y-77763715D01*
X178641461Y-77787748D01*
X178641461Y-77812252D01*
X178646241Y-77836285D01*
X178655619Y-77858924D01*
X178669233Y-77879299D01*
X178688320Y-77902556D01*
X178705358Y-77934433D01*
X178715852Y-77969026D01*
X178720000Y-78011141D01*
X178720000Y-78618859D01*
X178715852Y-78660974D01*
X178705358Y-78695567D01*
X178684213Y-78735127D01*
X178680244Y-78741066D01*
X178670865Y-78763703D01*
X178666082Y-78787736D01*
X178666080Y-78812240D01*
X178670858Y-78836274D01*
X178680233Y-78858914D01*
X178684206Y-78864861D01*
X178705358Y-78904433D01*
X178715852Y-78939026D01*
X178720000Y-78981141D01*
X178720000Y-79588859D01*
X178715852Y-79630974D01*
X178705358Y-79665567D01*
X178688322Y-79697440D01*
X178665386Y-79725386D01*
X178631283Y-79753375D01*
X178613957Y-79770703D01*
X178600343Y-79791077D01*
X178590966Y-79813716D01*
X178586186Y-79837749D01*
X178586186Y-79862253D01*
X178590967Y-79886287D01*
X178600344Y-79908925D01*
X178613958Y-79929300D01*
X178631283Y-79946625D01*
X178665386Y-79974614D01*
X178688322Y-80002560D01*
X178705358Y-80034433D01*
X178715852Y-80069026D01*
X178720000Y-80111141D01*
X178720000Y-80718859D01*
X178715852Y-80760974D01*
X178705358Y-80795567D01*
X178684213Y-80835127D01*
X178680244Y-80841066D01*
X178670865Y-80863703D01*
X178666082Y-80887736D01*
X178666080Y-80912240D01*
X178670858Y-80936274D01*
X178680233Y-80958914D01*
X178684206Y-80964861D01*
X178705358Y-81004433D01*
X178715852Y-81039026D01*
X178720000Y-81081141D01*
X178720000Y-81688859D01*
X178715852Y-81730974D01*
X178705358Y-81765567D01*
X178688322Y-81797440D01*
X178665386Y-81825386D01*
X178637440Y-81848322D01*
X178605567Y-81865358D01*
X178570974Y-81875852D01*
X178528859Y-81880000D01*
X177871141Y-81880000D01*
X177829026Y-81875852D01*
X177794433Y-81865358D01*
X177762560Y-81848322D01*
X177734614Y-81825386D01*
X177708226Y-81793234D01*
X177700639Y-81781878D01*
X177683313Y-81764550D01*
X177662940Y-81750935D01*
X177640301Y-81741557D01*
X177616268Y-81736775D01*
X177591764Y-81736773D01*
X177567731Y-81741552D01*
X177545091Y-81750928D01*
X177524716Y-81764541D01*
X177507388Y-81781867D01*
X177493769Y-81802247D01*
X177488319Y-81812444D01*
X177465386Y-81840386D01*
X177437440Y-81863322D01*
X177405567Y-81880358D01*
X177370974Y-81890852D01*
X177328859Y-81895000D01*
X176671141Y-81895000D01*
X176629026Y-81890852D01*
X176594433Y-81880358D01*
X176562560Y-81863322D01*
X176534614Y-81840386D01*
X176511678Y-81812440D01*
X176494642Y-81780567D01*
X176484148Y-81745974D01*
X176480000Y-81703859D01*
X176480000Y-81096141D01*
X176484148Y-81054026D01*
X176494642Y-81019433D01*
X176515787Y-80979873D01*
X176519756Y-80973934D01*
X176529135Y-80951297D01*
X176533918Y-80927264D01*
X176533918Y-80927240D01*
X177466080Y-80927240D01*
X177470858Y-80951274D01*
X177480233Y-80973914D01*
X177484201Y-80979853D01*
X177485748Y-80982747D01*
X177499361Y-81003122D01*
X177516687Y-81020450D01*
X177537060Y-81034065D01*
X177559699Y-81043443D01*
X177583732Y-81048225D01*
X177608236Y-81048227D01*
X177632269Y-81043448D01*
X177654909Y-81034072D01*
X177675284Y-81020459D01*
X177692612Y-81003133D01*
X177706231Y-80982753D01*
X177715792Y-80964866D01*
X177719756Y-80958934D01*
X177729135Y-80936297D01*
X177733918Y-80912264D01*
X177733920Y-80887760D01*
X177729142Y-80863726D01*
X177719767Y-80841086D01*
X177715799Y-80835147D01*
X177714252Y-80832253D01*
X177700639Y-80811878D01*
X177683313Y-80794550D01*
X177662940Y-80780935D01*
X177640301Y-80771557D01*
X177616268Y-80766775D01*
X177591764Y-80766773D01*
X177567731Y-80771552D01*
X177545091Y-80780928D01*
X177524716Y-80794541D01*
X177507388Y-80811867D01*
X177493769Y-80832247D01*
X177484208Y-80850134D01*
X177480244Y-80856066D01*
X177470865Y-80878703D01*
X177466082Y-80902736D01*
X177466080Y-80927240D01*
X176533918Y-80927240D01*
X176533920Y-80902760D01*
X176529142Y-80878726D01*
X176519767Y-80856086D01*
X176515794Y-80850139D01*
X176494642Y-80810567D01*
X176484148Y-80775974D01*
X176480000Y-80733859D01*
X176480000Y-80126141D01*
X176484148Y-80084026D01*
X176494642Y-80049433D01*
X176511678Y-80017560D01*
X176534614Y-79989614D01*
X176562560Y-79966678D01*
X176594433Y-79949642D01*
X176629026Y-79939148D01*
X176671141Y-79935000D01*
X177328859Y-79935000D01*
X177370974Y-79939148D01*
X177405567Y-79949642D01*
X177437440Y-79966678D01*
X177465386Y-79989614D01*
X177491774Y-80021766D01*
X177499361Y-80033122D01*
X177516687Y-80050450D01*
X177537060Y-80064065D01*
X177559699Y-80073443D01*
X177583732Y-80078225D01*
X177608236Y-80078227D01*
X177632269Y-80073448D01*
X177654909Y-80064072D01*
X177675284Y-80050459D01*
X177692612Y-80033133D01*
X177706231Y-80012753D01*
X177711681Y-80002556D01*
X177734614Y-79974614D01*
X177768717Y-79946625D01*
X177786043Y-79929297D01*
X177799657Y-79908923D01*
X177809034Y-79886284D01*
X177813814Y-79862251D01*
X177813814Y-79837747D01*
X177809033Y-79813713D01*
X177799656Y-79791075D01*
X177786042Y-79770700D01*
X177768717Y-79753375D01*
X177734614Y-79725386D01*
X177711678Y-79697440D01*
X177694642Y-79665567D01*
X177684148Y-79630974D01*
X177680000Y-79588859D01*
X177680000Y-78981141D01*
X177684148Y-78939026D01*
X177694642Y-78904433D01*
X177715787Y-78864873D01*
X177719756Y-78858934D01*
X177729135Y-78836297D01*
X177733918Y-78812264D01*
X177733920Y-78787760D01*
X177729142Y-78763726D01*
X177719767Y-78741086D01*
X177715794Y-78735139D01*
X177694642Y-78695567D01*
X177683349Y-78658339D01*
X177673972Y-78635700D01*
X177660358Y-78615325D01*
X177643031Y-78597998D01*
X177622657Y-78584384D01*
X177600018Y-78575007D01*
X177575985Y-78570226D01*
X177551481Y-78570226D01*
X177527448Y-78575006D01*
X177504809Y-78584383D01*
X177465565Y-78605359D01*
X177430974Y-78615852D01*
X177388859Y-78620000D01*
X176781141Y-78620000D01*
X176739026Y-78615852D01*
X176704433Y-78605358D01*
X176664873Y-78584213D01*
X176658934Y-78580244D01*
X176636297Y-78570865D01*
X176612264Y-78566082D01*
X176587760Y-78566080D01*
X176563726Y-78570858D01*
X176541086Y-78580233D01*
X176535139Y-78584206D01*
X176495567Y-78605358D01*
X176460974Y-78615852D01*
X176418859Y-78620000D01*
X175811141Y-78620000D01*
X175769026Y-78615852D01*
X175734433Y-78605358D01*
X175702560Y-78588322D01*
X175674614Y-78565386D01*
X175651678Y-78537440D01*
X175634642Y-78505567D01*
X175624148Y-78470974D01*
X175620000Y-78428859D01*
X175620000Y-77771141D01*
X175624148Y-77729026D01*
X175634642Y-77694433D01*
X175651678Y-77662560D01*
X175674614Y-77634614D01*
X175702560Y-77611678D01*
X175734433Y-77594642D01*
X175769026Y-77584148D01*
X175811141Y-77580000D01*
X176418859Y-77580000D01*
X176460974Y-77584148D01*
X176495567Y-77594642D01*
X176535127Y-77615787D01*
X176541066Y-77619756D01*
X176563703Y-77629135D01*
X176587736Y-77633918D01*
X176612240Y-77633920D01*
X176636274Y-77629142D01*
X176658914Y-77619767D01*
X176664861Y-77615794D01*
X176704433Y-77594642D01*
X176739026Y-77584148D01*
X176781141Y-77580000D01*
X177388859Y-77580000D01*
X177430974Y-77584148D01*
X177465564Y-77594641D01*
X177496076Y-77610950D01*
X177518715Y-77620327D01*
X177542748Y-77625108D01*
X177567252Y-77625108D01*
X177591286Y-77620328D01*
X177613925Y-77610951D01*
X177634299Y-77597337D01*
X177651626Y-77580010D01*
X177665240Y-77559636D01*
X177674617Y-77536997D01*
X177679398Y-77512964D01*
X177680000Y-77500711D01*
X177680000Y-76981141D01*
X177684148Y-76939026D01*
X177694642Y-76904433D01*
X177715787Y-76864873D01*
X177719756Y-76858934D01*
X177729135Y-76836297D01*
X177733918Y-76812264D01*
X177733920Y-76787760D01*
X177729142Y-76763726D01*
X177719767Y-76741086D01*
X177715794Y-76735139D01*
X177694642Y-76695567D01*
X177684148Y-76660974D01*
X177680000Y-76618859D01*
X177680000Y-76011141D01*
X177684148Y-75969026D01*
X177694642Y-75934433D01*
X177711678Y-75902560D01*
X177734614Y-75874614D01*
X177762560Y-75851678D01*
X177794433Y-75834642D01*
X177829026Y-75824148D01*
X177871141Y-75820000D01*
X178528859Y-75820000D01*
X178570974Y-75824148D01*
G37*
G36*
X136560974Y-77984148D02*
G01*
X136595567Y-77994642D01*
X136635127Y-78015787D01*
X136641066Y-78019756D01*
X136663703Y-78029135D01*
X136687736Y-78033918D01*
X136712240Y-78033920D01*
X136736274Y-78029142D01*
X136758914Y-78019767D01*
X136764861Y-78015794D01*
X136804433Y-77994642D01*
X136839026Y-77984148D01*
X136881141Y-77980000D01*
X137488859Y-77980000D01*
X137530974Y-77984148D01*
X137565567Y-77994642D01*
X137597440Y-78011678D01*
X137625386Y-78034614D01*
X137648322Y-78062560D01*
X137665358Y-78094433D01*
X137675852Y-78129026D01*
X137680000Y-78171141D01*
X137680000Y-78828859D01*
X137675852Y-78870974D01*
X137665358Y-78905567D01*
X137648322Y-78937440D01*
X137625386Y-78965386D01*
X137597441Y-78988321D01*
X137594749Y-78989760D01*
X137574374Y-79003373D01*
X137557047Y-79020700D01*
X137543433Y-79041074D01*
X137534055Y-79063713D01*
X137529274Y-79087746D01*
X137529274Y-79112250D01*
X137534054Y-79136283D01*
X137543431Y-79158922D01*
X137557044Y-79179297D01*
X137574371Y-79196624D01*
X137594749Y-79210240D01*
X137597441Y-79211679D01*
X137625386Y-79234614D01*
X137648322Y-79262560D01*
X137665358Y-79294433D01*
X137675852Y-79329026D01*
X137680000Y-79371141D01*
X137680000Y-80028859D01*
X137675852Y-80070974D01*
X137665358Y-80105567D01*
X137648322Y-80137440D01*
X137625386Y-80165386D01*
X137597440Y-80188322D01*
X137565567Y-80205358D01*
X137530974Y-80215852D01*
X137488859Y-80220000D01*
X136881141Y-80220000D01*
X136839026Y-80215852D01*
X136804433Y-80205358D01*
X136764873Y-80184213D01*
X136758934Y-80180244D01*
X136736297Y-80170865D01*
X136712264Y-80166082D01*
X136687760Y-80166080D01*
X136663726Y-80170858D01*
X136641086Y-80180233D01*
X136635139Y-80184206D01*
X136595567Y-80205358D01*
X136560974Y-80215852D01*
X136518859Y-80220000D01*
X135911141Y-80220000D01*
X135869026Y-80215852D01*
X135834433Y-80205358D01*
X135802560Y-80188322D01*
X135774614Y-80165386D01*
X135751678Y-80137440D01*
X135734642Y-80105567D01*
X135724148Y-80070974D01*
X135720000Y-80028859D01*
X135720000Y-79371141D01*
X135724148Y-79329026D01*
X135734642Y-79294433D01*
X135751678Y-79262560D01*
X135774614Y-79234614D01*
X135802559Y-79211679D01*
X135805251Y-79210240D01*
X135825626Y-79196627D01*
X135842953Y-79179300D01*
X135856567Y-79158926D01*
X135865945Y-79136287D01*
X135870726Y-79112254D01*
X135870726Y-79087750D01*
X135870726Y-79087746D01*
X136559274Y-79087746D01*
X136559274Y-79112250D01*
X136564054Y-79136283D01*
X136573431Y-79158922D01*
X136587044Y-79179297D01*
X136604371Y-79196624D01*
X136624749Y-79210240D01*
X136635127Y-79215787D01*
X136641066Y-79219756D01*
X136663703Y-79229135D01*
X136687736Y-79233918D01*
X136712240Y-79233920D01*
X136736274Y-79229142D01*
X136758914Y-79219767D01*
X136764861Y-79215794D01*
X136775251Y-79210240D01*
X136795626Y-79196627D01*
X136812953Y-79179300D01*
X136826567Y-79158926D01*
X136835945Y-79136287D01*
X136840726Y-79112254D01*
X136840726Y-79087750D01*
X136835946Y-79063717D01*
X136826569Y-79041078D01*
X136812956Y-79020703D01*
X136795629Y-79003376D01*
X136775251Y-78989760D01*
X136764873Y-78984213D01*
X136758934Y-78980244D01*
X136736297Y-78970865D01*
X136712264Y-78966082D01*
X136687760Y-78966080D01*
X136663726Y-78970858D01*
X136641086Y-78980233D01*
X136635139Y-78984206D01*
X136624749Y-78989760D01*
X136604374Y-79003373D01*
X136587047Y-79020700D01*
X136573433Y-79041074D01*
X136564055Y-79063713D01*
X136559274Y-79087746D01*
X135870726Y-79087746D01*
X135865946Y-79063717D01*
X135856569Y-79041078D01*
X135842956Y-79020703D01*
X135825629Y-79003376D01*
X135805251Y-78989760D01*
X135802559Y-78988321D01*
X135774614Y-78965386D01*
X135751678Y-78937440D01*
X135734642Y-78905567D01*
X135724148Y-78870974D01*
X135720000Y-78828859D01*
X135720000Y-78171141D01*
X135724148Y-78129026D01*
X135734642Y-78094433D01*
X135751678Y-78062560D01*
X135774614Y-78034614D01*
X135802560Y-78011678D01*
X135834433Y-77994642D01*
X135869026Y-77984148D01*
X135911141Y-77980000D01*
X136518859Y-77980000D01*
X136560974Y-77984148D01*
G37*
G36*
X124075000Y-72690000D02*
G01*
X123999999Y-72690000D01*
X123975613Y-72692402D01*
X123952164Y-72699515D01*
X123930553Y-72711066D01*
X123911611Y-72726611D01*
X123896066Y-72745553D01*
X123884515Y-72767164D01*
X123877402Y-72790613D01*
X123875000Y-72814999D01*
X123875000Y-73565001D01*
X123877402Y-73589387D01*
X123884515Y-73612836D01*
X123896066Y-73634447D01*
X123911611Y-73653389D01*
X123930553Y-73668934D01*
X123952164Y-73680485D01*
X123975613Y-73687598D01*
X123999999Y-73690000D01*
X124075000Y-73690000D01*
X124075000Y-74890000D01*
X123999999Y-74890000D01*
X123975613Y-74892402D01*
X123952164Y-74899515D01*
X123930553Y-74911066D01*
X123911611Y-74926611D01*
X123896066Y-74945553D01*
X123884515Y-74967164D01*
X123877402Y-74990613D01*
X123875000Y-75014999D01*
X123875000Y-75765001D01*
X123877402Y-75789387D01*
X123884515Y-75812836D01*
X123896066Y-75834447D01*
X123911611Y-75853389D01*
X123930553Y-75868934D01*
X123952164Y-75880485D01*
X123975613Y-75887598D01*
X123999999Y-75890000D01*
X124075000Y-75890000D01*
X124075000Y-76865001D01*
X124077402Y-76889387D01*
X124084515Y-76912836D01*
X124096066Y-76934447D01*
X124111611Y-76953389D01*
X124130553Y-76968934D01*
X124152164Y-76980485D01*
X124175613Y-76987598D01*
X124199999Y-76990000D01*
X124475000Y-76990000D01*
X124475000Y-78190000D01*
X124199999Y-78190000D01*
X124175613Y-78192402D01*
X124152164Y-78199515D01*
X124130553Y-78211066D01*
X124111611Y-78226611D01*
X124096066Y-78245553D01*
X124084515Y-78267164D01*
X124077402Y-78290613D01*
X124075000Y-78314999D01*
X124075000Y-79290000D01*
X121675000Y-79290000D01*
X121675000Y-78090000D01*
X121950001Y-78090000D01*
X121974387Y-78087598D01*
X121997836Y-78080485D01*
X122019447Y-78068934D01*
X122038389Y-78053389D01*
X122053934Y-78034447D01*
X122065485Y-78012836D01*
X122072598Y-77989387D01*
X122075000Y-77965001D01*
X122075000Y-77214999D01*
X122072598Y-77190613D01*
X122065485Y-77167164D01*
X122053934Y-77145553D01*
X122038389Y-77126611D01*
X122019447Y-77111066D01*
X121997836Y-77099515D01*
X121974387Y-77092402D01*
X121950001Y-77090000D01*
X121675000Y-77090000D01*
X121675000Y-76114999D01*
X121672598Y-76090613D01*
X121665485Y-76067164D01*
X121653934Y-76045553D01*
X121638389Y-76026611D01*
X121619447Y-76011066D01*
X121597836Y-75999515D01*
X121574387Y-75992402D01*
X121550001Y-75990000D01*
X121475000Y-75990000D01*
X121475000Y-74790000D01*
X121550001Y-74790000D01*
X121574387Y-74787598D01*
X121597836Y-74780485D01*
X121619447Y-74768934D01*
X121638389Y-74753389D01*
X121653934Y-74734447D01*
X121665485Y-74712836D01*
X121672598Y-74689387D01*
X121675000Y-74665001D01*
X121675000Y-73914999D01*
X121672598Y-73890613D01*
X121665485Y-73867164D01*
X121653934Y-73845553D01*
X121638389Y-73826611D01*
X121619447Y-73811066D01*
X121597836Y-73799515D01*
X121574387Y-73792402D01*
X121550001Y-73790000D01*
X121475000Y-73790000D01*
X121475000Y-72590000D01*
X121550001Y-72590000D01*
X121574387Y-72587598D01*
X121597836Y-72580485D01*
X121619447Y-72568934D01*
X121638389Y-72553389D01*
X121653934Y-72534447D01*
X121665485Y-72512836D01*
X121672598Y-72489387D01*
X121675000Y-72465001D01*
X121675000Y-70390000D01*
X124075000Y-70390000D01*
X124075000Y-72690000D01*
G37*
G36*
X134325000Y-78600000D02*
G01*
X132525000Y-78600000D01*
X132525000Y-76400000D01*
X134325000Y-76400000D01*
X134325000Y-78600000D01*
G37*
G36*
X175218766Y-73778821D02*
G01*
X175355257Y-73835358D01*
X175478097Y-73917437D01*
X175582563Y-74021903D01*
X175664642Y-74144743D01*
X175721179Y-74281234D01*
X175750000Y-74426130D01*
X175750000Y-74573870D01*
X175721179Y-74718766D01*
X175664642Y-74855257D01*
X175582563Y-74978097D01*
X175478097Y-75082563D01*
X175355257Y-75164642D01*
X175218766Y-75221179D01*
X175073870Y-75250000D01*
X174926130Y-75250000D01*
X174781234Y-75221179D01*
X174644743Y-75164642D01*
X174521903Y-75082563D01*
X174417437Y-74978097D01*
X174335358Y-74855257D01*
X174278821Y-74718766D01*
X174250000Y-74573870D01*
X174250000Y-74426130D01*
X174278821Y-74281234D01*
X174335358Y-74144743D01*
X174417437Y-74021903D01*
X174521903Y-73917437D01*
X174644743Y-73835358D01*
X174781234Y-73778821D01*
X174926130Y-73750000D01*
X175073870Y-73750000D01*
X175218766Y-73778821D01*
G37*
G36*
X170300000Y-70225001D02*
G01*
X170302402Y-70249387D01*
X170309515Y-70272836D01*
X170321066Y-70294447D01*
X170336611Y-70313389D01*
X170355553Y-70328934D01*
X170377164Y-70340485D01*
X170400613Y-70347598D01*
X170424999Y-70350000D01*
X171800000Y-70350000D01*
X171800000Y-72950000D01*
X170424999Y-72950000D01*
X170400613Y-72952402D01*
X170377164Y-72959515D01*
X170355553Y-72971066D01*
X170336611Y-72986611D01*
X170321066Y-73005553D01*
X170309515Y-73027164D01*
X170302402Y-73050613D01*
X170300000Y-73074999D01*
X170300000Y-73850000D01*
X168900000Y-73850000D01*
X168900000Y-73074999D01*
X168897598Y-73050613D01*
X168890485Y-73027164D01*
X168878934Y-73005553D01*
X168863389Y-72986611D01*
X168844447Y-72971066D01*
X168822836Y-72959515D01*
X168799387Y-72952402D01*
X168775001Y-72950000D01*
X167400000Y-72950000D01*
X167400000Y-70974999D01*
X168850000Y-70974999D01*
X168850000Y-72325001D01*
X168852402Y-72349387D01*
X168859515Y-72372836D01*
X168871066Y-72394447D01*
X168886611Y-72413389D01*
X168905553Y-72428934D01*
X168927164Y-72440485D01*
X168950613Y-72447598D01*
X168974999Y-72450000D01*
X170225001Y-72450000D01*
X170249387Y-72447598D01*
X170272836Y-72440485D01*
X170294447Y-72428934D01*
X170313389Y-72413389D01*
X170328934Y-72394447D01*
X170340485Y-72372836D01*
X170347598Y-72349387D01*
X170350000Y-72325001D01*
X170350000Y-70974999D01*
X170347598Y-70950613D01*
X170340485Y-70927164D01*
X170328934Y-70905553D01*
X170313389Y-70886611D01*
X170294447Y-70871066D01*
X170272836Y-70859515D01*
X170249387Y-70852402D01*
X170225001Y-70850000D01*
X168974999Y-70850000D01*
X168950613Y-70852402D01*
X168927164Y-70859515D01*
X168905553Y-70871066D01*
X168886611Y-70886611D01*
X168871066Y-70905553D01*
X168859515Y-70927164D01*
X168852402Y-70950613D01*
X168850000Y-70974999D01*
X167400000Y-70974999D01*
X167400000Y-70350000D01*
X168775001Y-70350000D01*
X168799387Y-70347598D01*
X168822836Y-70340485D01*
X168844447Y-70328934D01*
X168863389Y-70313389D01*
X168878934Y-70294447D01*
X168890485Y-70272836D01*
X168897598Y-70249387D01*
X168900000Y-70225001D01*
X168900000Y-69450000D01*
X170300000Y-69450000D01*
X170300000Y-70225001D01*
G37*
G36*
X134325000Y-72900000D02*
G01*
X132525000Y-72900000D01*
X132525000Y-70700000D01*
X134325000Y-70700000D01*
X134325000Y-72900000D01*
G37*
G36*
X136475974Y-70484148D02*
G01*
X136510567Y-70494642D01*
X136550127Y-70515787D01*
X136556066Y-70519756D01*
X136578703Y-70529135D01*
X136602736Y-70533918D01*
X136627240Y-70533920D01*
X136651274Y-70529142D01*
X136673914Y-70519767D01*
X136679861Y-70515794D01*
X136719433Y-70494642D01*
X136754026Y-70484148D01*
X136796141Y-70480000D01*
X137403859Y-70480000D01*
X137445974Y-70484148D01*
X137480567Y-70494642D01*
X137512440Y-70511678D01*
X137540386Y-70534614D01*
X137563322Y-70562560D01*
X137580358Y-70594433D01*
X137590852Y-70629026D01*
X137595000Y-70671141D01*
X137595000Y-71328859D01*
X137590852Y-71370974D01*
X137580358Y-71405567D01*
X137563322Y-71437440D01*
X137540386Y-71465386D01*
X137512440Y-71488322D01*
X137480567Y-71505358D01*
X137445974Y-71515852D01*
X137403859Y-71520000D01*
X136796141Y-71520000D01*
X136754026Y-71515852D01*
X136719433Y-71505358D01*
X136679873Y-71484213D01*
X136673934Y-71480244D01*
X136651297Y-71470865D01*
X136627264Y-71466082D01*
X136602760Y-71466080D01*
X136578726Y-71470858D01*
X136556086Y-71480233D01*
X136550139Y-71484206D01*
X136510567Y-71505358D01*
X136475974Y-71515852D01*
X136433859Y-71520000D01*
X135826141Y-71520000D01*
X135784026Y-71515852D01*
X135749433Y-71505358D01*
X135717560Y-71488322D01*
X135689614Y-71465386D01*
X135666678Y-71437440D01*
X135649642Y-71405567D01*
X135639148Y-71370974D01*
X135635000Y-71328859D01*
X135635000Y-70671141D01*
X135639148Y-70629026D01*
X135649642Y-70594433D01*
X135666678Y-70562560D01*
X135689614Y-70534614D01*
X135717560Y-70511678D01*
X135749433Y-70494642D01*
X135784026Y-70484148D01*
X135826141Y-70480000D01*
X136433859Y-70480000D01*
X136475974Y-70484148D01*
G37*
G36*
X121425000Y-71100000D02*
G01*
X119125000Y-71100000D01*
X119125000Y-69300000D01*
X121425000Y-69300000D01*
X121425000Y-71100000D01*
G37*
M02*
