G04 #@! TF.GenerationSoftware,KiCad,Pcbnew,5.1.6+dfsg1-1~bpo10+1*
G04 #@! TF.CreationDate,2021-03-28T20:23:35-04:00*
G04 #@! TF.ProjectId,RUSP_Daughterboard,52555350-5f44-4617-9567-68746572626f,rev?*
G04 #@! TF.SameCoordinates,Original*
G04 #@! TF.FileFunction,Paste,Bot*
G04 #@! TF.FilePolarity,Positive*
%FSLAX46Y46*%
G04 Gerber Fmt 4.6, Leading zero omitted, Abs format (unit mm)*
G04 Created by KiCad (PCBNEW 5.1.6+dfsg1-1~bpo10+1) date 2021-03-28 20:23:35*
%MOMM*%
%LPD*%
G01*
G04 APERTURE LIST*
%ADD10R,1.350000X0.450000*%
%ADD11R,1.550000X1.500000*%
%ADD12R,0.900000X1.200000*%
%ADD13R,0.740000X1.675000*%
%ADD14R,3.000000X1.110000*%
G04 APERTURE END LIST*
D10*
X125675000Y-98300000D03*
X125675000Y-97650000D03*
X125675000Y-97000000D03*
X125675000Y-96350000D03*
X125675000Y-95700000D03*
D11*
X123000000Y-98000000D03*
X123000000Y-96000000D03*
X123000000Y-100050000D03*
X123000000Y-93950000D03*
G36*
G01*
X129490000Y-94172500D02*
X129490000Y-93827500D01*
G75*
G02*
X129637500Y-93680000I147500J0D01*
G01*
X129932500Y-93680000D01*
G75*
G02*
X130080000Y-93827500I0J-147500D01*
G01*
X130080000Y-94172500D01*
G75*
G02*
X129932500Y-94320000I-147500J0D01*
G01*
X129637500Y-94320000D01*
G75*
G02*
X129490000Y-94172500I0J147500D01*
G01*
G37*
G36*
G01*
X128520000Y-94172500D02*
X128520000Y-93827500D01*
G75*
G02*
X128667500Y-93680000I147500J0D01*
G01*
X128962500Y-93680000D01*
G75*
G02*
X129110000Y-93827500I0J-147500D01*
G01*
X129110000Y-94172500D01*
G75*
G02*
X128962500Y-94320000I-147500J0D01*
G01*
X128667500Y-94320000D01*
G75*
G02*
X128520000Y-94172500I0J147500D01*
G01*
G37*
G36*
G01*
X124835000Y-114177500D02*
X124835000Y-114522500D01*
G75*
G02*
X124687500Y-114670000I-147500J0D01*
G01*
X124392500Y-114670000D01*
G75*
G02*
X124245000Y-114522500I0J147500D01*
G01*
X124245000Y-114177500D01*
G75*
G02*
X124392500Y-114030000I147500J0D01*
G01*
X124687500Y-114030000D01*
G75*
G02*
X124835000Y-114177500I0J-147500D01*
G01*
G37*
G36*
G01*
X125805000Y-114177500D02*
X125805000Y-114522500D01*
G75*
G02*
X125657500Y-114670000I-147500J0D01*
G01*
X125362500Y-114670000D01*
G75*
G02*
X125215000Y-114522500I0J147500D01*
G01*
X125215000Y-114177500D01*
G75*
G02*
X125362500Y-114030000I147500J0D01*
G01*
X125657500Y-114030000D01*
G75*
G02*
X125805000Y-114177500I0J-147500D01*
G01*
G37*
G36*
G01*
X125970000Y-107077500D02*
X125970000Y-107422500D01*
G75*
G02*
X125822500Y-107570000I-147500J0D01*
G01*
X125527500Y-107570000D01*
G75*
G02*
X125380000Y-107422500I0J147500D01*
G01*
X125380000Y-107077500D01*
G75*
G02*
X125527500Y-106930000I147500J0D01*
G01*
X125822500Y-106930000D01*
G75*
G02*
X125970000Y-107077500I0J-147500D01*
G01*
G37*
G36*
G01*
X125000000Y-107077500D02*
X125000000Y-107422500D01*
G75*
G02*
X124852500Y-107570000I-147500J0D01*
G01*
X124557500Y-107570000D01*
G75*
G02*
X124410000Y-107422500I0J147500D01*
G01*
X124410000Y-107077500D01*
G75*
G02*
X124557500Y-106930000I147500J0D01*
G01*
X124852500Y-106930000D01*
G75*
G02*
X125000000Y-107077500I0J-147500D01*
G01*
G37*
G36*
G01*
X129490000Y-92572500D02*
X129490000Y-92227500D01*
G75*
G02*
X129637500Y-92080000I147500J0D01*
G01*
X129932500Y-92080000D01*
G75*
G02*
X130080000Y-92227500I0J-147500D01*
G01*
X130080000Y-92572500D01*
G75*
G02*
X129932500Y-92720000I-147500J0D01*
G01*
X129637500Y-92720000D01*
G75*
G02*
X129490000Y-92572500I0J147500D01*
G01*
G37*
G36*
G01*
X128520000Y-92572500D02*
X128520000Y-92227500D01*
G75*
G02*
X128667500Y-92080000I147500J0D01*
G01*
X128962500Y-92080000D01*
G75*
G02*
X129110000Y-92227500I0J-147500D01*
G01*
X129110000Y-92572500D01*
G75*
G02*
X128962500Y-92720000I-147500J0D01*
G01*
X128667500Y-92720000D01*
G75*
G02*
X128520000Y-92572500I0J147500D01*
G01*
G37*
G36*
G01*
X125795000Y-112852500D02*
X125795000Y-113197500D01*
G75*
G02*
X125647500Y-113345000I-147500J0D01*
G01*
X125352500Y-113345000D01*
G75*
G02*
X125205000Y-113197500I0J147500D01*
G01*
X125205000Y-112852500D01*
G75*
G02*
X125352500Y-112705000I147500J0D01*
G01*
X125647500Y-112705000D01*
G75*
G02*
X125795000Y-112852500I0J-147500D01*
G01*
G37*
G36*
G01*
X124825000Y-112852500D02*
X124825000Y-113197500D01*
G75*
G02*
X124677500Y-113345000I-147500J0D01*
G01*
X124382500Y-113345000D01*
G75*
G02*
X124235000Y-113197500I0J147500D01*
G01*
X124235000Y-112852500D01*
G75*
G02*
X124382500Y-112705000I147500J0D01*
G01*
X124677500Y-112705000D01*
G75*
G02*
X124825000Y-112852500I0J-147500D01*
G01*
G37*
G36*
G01*
X124910000Y-108302500D02*
X124910000Y-108647500D01*
G75*
G02*
X124762500Y-108795000I-147500J0D01*
G01*
X124467500Y-108795000D01*
G75*
G02*
X124320000Y-108647500I0J147500D01*
G01*
X124320000Y-108302500D01*
G75*
G02*
X124467500Y-108155000I147500J0D01*
G01*
X124762500Y-108155000D01*
G75*
G02*
X124910000Y-108302500I0J-147500D01*
G01*
G37*
G36*
G01*
X125880000Y-108302500D02*
X125880000Y-108647500D01*
G75*
G02*
X125732500Y-108795000I-147500J0D01*
G01*
X125437500Y-108795000D01*
G75*
G02*
X125290000Y-108647500I0J147500D01*
G01*
X125290000Y-108302500D01*
G75*
G02*
X125437500Y-108155000I147500J0D01*
G01*
X125732500Y-108155000D01*
G75*
G02*
X125880000Y-108302500I0J-147500D01*
G01*
G37*
D12*
X125850000Y-104400000D03*
X122550000Y-104400000D03*
D13*
X166375000Y-125660000D03*
X166375000Y-129340000D03*
X165105000Y-125660000D03*
X165105000Y-129340000D03*
X163835000Y-125660000D03*
X163835000Y-129340000D03*
X162565000Y-125660000D03*
X162565000Y-129340000D03*
X161295000Y-125660000D03*
X161295000Y-129340000D03*
X160025000Y-129340000D03*
X160025000Y-125660000D03*
X160025000Y-133360000D03*
X160025000Y-137040000D03*
X161295000Y-137040000D03*
X161295000Y-133360000D03*
X162565000Y-137040000D03*
X162565000Y-133360000D03*
X163835000Y-137040000D03*
X163835000Y-133360000D03*
X165105000Y-137040000D03*
X165105000Y-133360000D03*
X166375000Y-137040000D03*
X166375000Y-133360000D03*
G36*
G01*
X157650001Y-135500000D02*
X156749999Y-135500000D01*
G75*
G02*
X156500000Y-135250001I0J249999D01*
G01*
X156500000Y-134599999D01*
G75*
G02*
X156749999Y-134350000I249999J0D01*
G01*
X157650001Y-134350000D01*
G75*
G02*
X157900000Y-134599999I0J-249999D01*
G01*
X157900000Y-135250001D01*
G75*
G02*
X157650001Y-135500000I-249999J0D01*
G01*
G37*
G36*
G01*
X157650001Y-133450000D02*
X156749999Y-133450000D01*
G75*
G02*
X156500000Y-133200001I0J249999D01*
G01*
X156500000Y-132549999D01*
G75*
G02*
X156749999Y-132300000I249999J0D01*
G01*
X157650001Y-132300000D01*
G75*
G02*
X157900000Y-132549999I0J-249999D01*
G01*
X157900000Y-133200001D01*
G75*
G02*
X157650001Y-133450000I-249999J0D01*
G01*
G37*
D12*
X140100000Y-91475000D03*
X136800000Y-91475000D03*
X133175000Y-112950000D03*
X129875000Y-112950000D03*
D14*
X129630000Y-109530000D03*
X129502000Y-104450000D03*
X129502000Y-101910000D03*
X129502000Y-99370000D03*
X129502000Y-96830000D03*
X137630000Y-96830000D03*
X137630000Y-99370000D03*
X137630000Y-101910000D03*
X137630000Y-104450000D03*
X137630000Y-109530000D03*
M02*
