G04 #@! TF.GenerationSoftware,KiCad,Pcbnew,5.1.6+dfsg1-1~bpo10+1*
G04 #@! TF.CreationDate,2021-03-28T20:23:35-04:00*
G04 #@! TF.ProjectId,RUSP_Daughterboard,52555350-5f44-4617-9567-68746572626f,rev?*
G04 #@! TF.SameCoordinates,Original*
G04 #@! TF.FileFunction,Paste,Top*
G04 #@! TF.FilePolarity,Positive*
%FSLAX46Y46*%
G04 Gerber Fmt 4.6, Leading zero omitted, Abs format (unit mm)*
G04 Created by KiCad (PCBNEW 5.1.6+dfsg1-1~bpo10+1) date 2021-03-28 20:23:35*
%MOMM*%
%LPD*%
G01*
G04 APERTURE LIST*
%ADD10R,1.000000X1.000000*%
%ADD11R,1.050000X2.200000*%
%ADD12R,1.700000X3.200000*%
%ADD13R,1.400000X1.800000*%
%ADD14R,2.000000X0.800000*%
%ADD15R,1.900000X1.400000*%
%ADD16R,1.500000X0.600000*%
G04 APERTURE END LIST*
G36*
G01*
X175472500Y-119810000D02*
X175127500Y-119810000D01*
G75*
G02*
X174980000Y-119662500I0J147500D01*
G01*
X174980000Y-119367500D01*
G75*
G02*
X175127500Y-119220000I147500J0D01*
G01*
X175472500Y-119220000D01*
G75*
G02*
X175620000Y-119367500I0J-147500D01*
G01*
X175620000Y-119662500D01*
G75*
G02*
X175472500Y-119810000I-147500J0D01*
G01*
G37*
G36*
G01*
X175472500Y-120780000D02*
X175127500Y-120780000D01*
G75*
G02*
X174980000Y-120632500I0J147500D01*
G01*
X174980000Y-120337500D01*
G75*
G02*
X175127500Y-120190000I147500J0D01*
G01*
X175472500Y-120190000D01*
G75*
G02*
X175620000Y-120337500I0J-147500D01*
G01*
X175620000Y-120632500D01*
G75*
G02*
X175472500Y-120780000I-147500J0D01*
G01*
G37*
G36*
G01*
X176827500Y-81105000D02*
X177172500Y-81105000D01*
G75*
G02*
X177320000Y-81252500I0J-147500D01*
G01*
X177320000Y-81547500D01*
G75*
G02*
X177172500Y-81695000I-147500J0D01*
G01*
X176827500Y-81695000D01*
G75*
G02*
X176680000Y-81547500I0J147500D01*
G01*
X176680000Y-81252500D01*
G75*
G02*
X176827500Y-81105000I147500J0D01*
G01*
G37*
G36*
G01*
X176827500Y-80135000D02*
X177172500Y-80135000D01*
G75*
G02*
X177320000Y-80282500I0J-147500D01*
G01*
X177320000Y-80577500D01*
G75*
G02*
X177172500Y-80725000I-147500J0D01*
G01*
X176827500Y-80725000D01*
G75*
G02*
X176680000Y-80577500I0J147500D01*
G01*
X176680000Y-80282500D01*
G75*
G02*
X176827500Y-80135000I147500J0D01*
G01*
G37*
D10*
X169600000Y-73150000D03*
X169600000Y-70150000D03*
D11*
X171075000Y-71650000D03*
X168125000Y-71650000D03*
G36*
G01*
X178372500Y-76610000D02*
X178027500Y-76610000D01*
G75*
G02*
X177880000Y-76462500I0J147500D01*
G01*
X177880000Y-76167500D01*
G75*
G02*
X178027500Y-76020000I147500J0D01*
G01*
X178372500Y-76020000D01*
G75*
G02*
X178520000Y-76167500I0J-147500D01*
G01*
X178520000Y-76462500D01*
G75*
G02*
X178372500Y-76610000I-147500J0D01*
G01*
G37*
G36*
G01*
X178372500Y-77580000D02*
X178027500Y-77580000D01*
G75*
G02*
X177880000Y-77432500I0J147500D01*
G01*
X177880000Y-77137500D01*
G75*
G02*
X178027500Y-76990000I147500J0D01*
G01*
X178372500Y-76990000D01*
G75*
G02*
X178520000Y-77137500I0J-147500D01*
G01*
X178520000Y-77432500D01*
G75*
G02*
X178372500Y-77580000I-147500J0D01*
G01*
G37*
G36*
G01*
X178372500Y-78610000D02*
X178027500Y-78610000D01*
G75*
G02*
X177880000Y-78462500I0J147500D01*
G01*
X177880000Y-78167500D01*
G75*
G02*
X178027500Y-78020000I147500J0D01*
G01*
X178372500Y-78020000D01*
G75*
G02*
X178520000Y-78167500I0J-147500D01*
G01*
X178520000Y-78462500D01*
G75*
G02*
X178372500Y-78610000I-147500J0D01*
G01*
G37*
G36*
G01*
X178372500Y-79580000D02*
X178027500Y-79580000D01*
G75*
G02*
X177880000Y-79432500I0J147500D01*
G01*
X177880000Y-79137500D01*
G75*
G02*
X178027500Y-78990000I147500J0D01*
G01*
X178372500Y-78990000D01*
G75*
G02*
X178520000Y-79137500I0J-147500D01*
G01*
X178520000Y-79432500D01*
G75*
G02*
X178372500Y-79580000I-147500J0D01*
G01*
G37*
D12*
X168250000Y-88400000D03*
X176750000Y-88400000D03*
G36*
G01*
X149123674Y-122642375D02*
X149367625Y-122886327D01*
G75*
G02*
X149367625Y-123094923I-104298J-104298D01*
G01*
X149159029Y-123303519D01*
G75*
G02*
X148950433Y-123303519I-104298J104298D01*
G01*
X148706481Y-123059567D01*
G75*
G02*
X148706481Y-122850971I104298J104298D01*
G01*
X148915077Y-122642375D01*
G75*
G02*
X149123673Y-122642375I104298J-104298D01*
G01*
G37*
G36*
G01*
X149809568Y-121956481D02*
X150053519Y-122200433D01*
G75*
G02*
X150053519Y-122409029I-104298J-104298D01*
G01*
X149844923Y-122617625D01*
G75*
G02*
X149636327Y-122617625I-104298J104298D01*
G01*
X149392375Y-122373673D01*
G75*
G02*
X149392375Y-122165077I104298J104298D01*
G01*
X149600971Y-121956481D01*
G75*
G02*
X149809567Y-121956481I104298J-104298D01*
G01*
G37*
G36*
G01*
X148209568Y-120326481D02*
X148453519Y-120570433D01*
G75*
G02*
X148453519Y-120779029I-104298J-104298D01*
G01*
X148244923Y-120987625D01*
G75*
G02*
X148036327Y-120987625I-104298J104298D01*
G01*
X147792375Y-120743673D01*
G75*
G02*
X147792375Y-120535077I104298J104298D01*
G01*
X148000971Y-120326481D01*
G75*
G02*
X148209567Y-120326481I104298J-104298D01*
G01*
G37*
G36*
G01*
X147523674Y-121012375D02*
X147767625Y-121256327D01*
G75*
G02*
X147767625Y-121464923I-104298J-104298D01*
G01*
X147559029Y-121673519D01*
G75*
G02*
X147350433Y-121673519I-104298J104298D01*
G01*
X147106481Y-121429567D01*
G75*
G02*
X147106481Y-121220971I104298J104298D01*
G01*
X147315077Y-121012375D01*
G75*
G02*
X147523673Y-121012375I104298J-104298D01*
G01*
G37*
G36*
G01*
X176572500Y-106010000D02*
X176227500Y-106010000D01*
G75*
G02*
X176080000Y-105862500I0J147500D01*
G01*
X176080000Y-105567500D01*
G75*
G02*
X176227500Y-105420000I147500J0D01*
G01*
X176572500Y-105420000D01*
G75*
G02*
X176720000Y-105567500I0J-147500D01*
G01*
X176720000Y-105862500D01*
G75*
G02*
X176572500Y-106010000I-147500J0D01*
G01*
G37*
G36*
G01*
X176572500Y-106980000D02*
X176227500Y-106980000D01*
G75*
G02*
X176080000Y-106832500I0J147500D01*
G01*
X176080000Y-106537500D01*
G75*
G02*
X176227500Y-106390000I147500J0D01*
G01*
X176572500Y-106390000D01*
G75*
G02*
X176720000Y-106537500I0J-147500D01*
G01*
X176720000Y-106832500D01*
G75*
G02*
X176572500Y-106980000I-147500J0D01*
G01*
G37*
G36*
G01*
X175372500Y-106980000D02*
X175027500Y-106980000D01*
G75*
G02*
X174880000Y-106832500I0J147500D01*
G01*
X174880000Y-106537500D01*
G75*
G02*
X175027500Y-106390000I147500J0D01*
G01*
X175372500Y-106390000D01*
G75*
G02*
X175520000Y-106537500I0J-147500D01*
G01*
X175520000Y-106832500D01*
G75*
G02*
X175372500Y-106980000I-147500J0D01*
G01*
G37*
G36*
G01*
X175372500Y-106010000D02*
X175027500Y-106010000D01*
G75*
G02*
X174880000Y-105862500I0J147500D01*
G01*
X174880000Y-105567500D01*
G75*
G02*
X175027500Y-105420000I147500J0D01*
G01*
X175372500Y-105420000D01*
G75*
G02*
X175520000Y-105567500I0J-147500D01*
G01*
X175520000Y-105862500D01*
G75*
G02*
X175372500Y-106010000I-147500J0D01*
G01*
G37*
G36*
G01*
X149019568Y-121136481D02*
X149263519Y-121380433D01*
G75*
G02*
X149263519Y-121589029I-104298J-104298D01*
G01*
X149054923Y-121797625D01*
G75*
G02*
X148846327Y-121797625I-104298J104298D01*
G01*
X148602375Y-121553673D01*
G75*
G02*
X148602375Y-121345077I104298J104298D01*
G01*
X148810971Y-121136481D01*
G75*
G02*
X149019567Y-121136481I104298J-104298D01*
G01*
G37*
G36*
G01*
X148333674Y-121822375D02*
X148577625Y-122066327D01*
G75*
G02*
X148577625Y-122274923I-104298J-104298D01*
G01*
X148369029Y-122483519D01*
G75*
G02*
X148160433Y-122483519I-104298J104298D01*
G01*
X147916481Y-122239567D01*
G75*
G02*
X147916481Y-122030971I104298J104298D01*
G01*
X148125077Y-121822375D01*
G75*
G02*
X148333673Y-121822375I104298J-104298D01*
G01*
G37*
D13*
X133560000Y-114886500D03*
X131083500Y-114886500D03*
X128480000Y-114886500D03*
X133560000Y-89613500D03*
X131020000Y-89613500D03*
X128480000Y-89613500D03*
D14*
X122875000Y-78690000D03*
X123275000Y-77590000D03*
X122875000Y-76490000D03*
X122675000Y-75390000D03*
X122875000Y-74290000D03*
X122675000Y-73190000D03*
X122875000Y-72090000D03*
X122875000Y-70990000D03*
D13*
X133425000Y-71800000D03*
X133425000Y-77500000D03*
D15*
X120275000Y-70200000D03*
X119275000Y-83350000D03*
G36*
G01*
X137480000Y-78327500D02*
X137480000Y-78672500D01*
G75*
G02*
X137332500Y-78820000I-147500J0D01*
G01*
X137037500Y-78820000D01*
G75*
G02*
X136890000Y-78672500I0J147500D01*
G01*
X136890000Y-78327500D01*
G75*
G02*
X137037500Y-78180000I147500J0D01*
G01*
X137332500Y-78180000D01*
G75*
G02*
X137480000Y-78327500I0J-147500D01*
G01*
G37*
G36*
G01*
X136510000Y-78327500D02*
X136510000Y-78672500D01*
G75*
G02*
X136362500Y-78820000I-147500J0D01*
G01*
X136067500Y-78820000D01*
G75*
G02*
X135920000Y-78672500I0J147500D01*
G01*
X135920000Y-78327500D01*
G75*
G02*
X136067500Y-78180000I147500J0D01*
G01*
X136362500Y-78180000D01*
G75*
G02*
X136510000Y-78327500I0J-147500D01*
G01*
G37*
G36*
G01*
X136425000Y-70827500D02*
X136425000Y-71172500D01*
G75*
G02*
X136277500Y-71320000I-147500J0D01*
G01*
X135982500Y-71320000D01*
G75*
G02*
X135835000Y-71172500I0J147500D01*
G01*
X135835000Y-70827500D01*
G75*
G02*
X135982500Y-70680000I147500J0D01*
G01*
X136277500Y-70680000D01*
G75*
G02*
X136425000Y-70827500I0J-147500D01*
G01*
G37*
G36*
G01*
X137395000Y-70827500D02*
X137395000Y-71172500D01*
G75*
G02*
X137247500Y-71320000I-147500J0D01*
G01*
X136952500Y-71320000D01*
G75*
G02*
X136805000Y-71172500I0J147500D01*
G01*
X136805000Y-70827500D01*
G75*
G02*
X136952500Y-70680000I147500J0D01*
G01*
X137247500Y-70680000D01*
G75*
G02*
X137395000Y-70827500I0J-147500D01*
G01*
G37*
G36*
G01*
X137480000Y-79527500D02*
X137480000Y-79872500D01*
G75*
G02*
X137332500Y-80020000I-147500J0D01*
G01*
X137037500Y-80020000D01*
G75*
G02*
X136890000Y-79872500I0J147500D01*
G01*
X136890000Y-79527500D01*
G75*
G02*
X137037500Y-79380000I147500J0D01*
G01*
X137332500Y-79380000D01*
G75*
G02*
X137480000Y-79527500I0J-147500D01*
G01*
G37*
G36*
G01*
X136510000Y-79527500D02*
X136510000Y-79872500D01*
G75*
G02*
X136362500Y-80020000I-147500J0D01*
G01*
X136067500Y-80020000D01*
G75*
G02*
X135920000Y-79872500I0J147500D01*
G01*
X135920000Y-79527500D01*
G75*
G02*
X136067500Y-79380000I147500J0D01*
G01*
X136362500Y-79380000D01*
G75*
G02*
X136510000Y-79527500I0J-147500D01*
G01*
G37*
G36*
G01*
X176527500Y-119220000D02*
X176872500Y-119220000D01*
G75*
G02*
X177020000Y-119367500I0J-147500D01*
G01*
X177020000Y-119662500D01*
G75*
G02*
X176872500Y-119810000I-147500J0D01*
G01*
X176527500Y-119810000D01*
G75*
G02*
X176380000Y-119662500I0J147500D01*
G01*
X176380000Y-119367500D01*
G75*
G02*
X176527500Y-119220000I147500J0D01*
G01*
G37*
G36*
G01*
X176527500Y-120190000D02*
X176872500Y-120190000D01*
G75*
G02*
X177020000Y-120337500I0J-147500D01*
G01*
X177020000Y-120632500D01*
G75*
G02*
X176872500Y-120780000I-147500J0D01*
G01*
X176527500Y-120780000D01*
G75*
G02*
X176380000Y-120632500I0J147500D01*
G01*
X176380000Y-120337500D01*
G75*
G02*
X176527500Y-120190000I147500J0D01*
G01*
G37*
D16*
X171000000Y-109590000D03*
X171000000Y-110860000D03*
X171000000Y-112130000D03*
X171000000Y-113400000D03*
X171000000Y-114670000D03*
X171000000Y-115940000D03*
X171000000Y-117210000D03*
X176400000Y-117210000D03*
X176400000Y-115940000D03*
X176400000Y-114670000D03*
X176400000Y-113400000D03*
X176400000Y-112130000D03*
X176400000Y-110860000D03*
X176400000Y-109590000D03*
G36*
G01*
X176410000Y-77927500D02*
X176410000Y-78272500D01*
G75*
G02*
X176262500Y-78420000I-147500J0D01*
G01*
X175967500Y-78420000D01*
G75*
G02*
X175820000Y-78272500I0J147500D01*
G01*
X175820000Y-77927500D01*
G75*
G02*
X175967500Y-77780000I147500J0D01*
G01*
X176262500Y-77780000D01*
G75*
G02*
X176410000Y-77927500I0J-147500D01*
G01*
G37*
G36*
G01*
X177380000Y-77927500D02*
X177380000Y-78272500D01*
G75*
G02*
X177232500Y-78420000I-147500J0D01*
G01*
X176937500Y-78420000D01*
G75*
G02*
X176790000Y-78272500I0J147500D01*
G01*
X176790000Y-77927500D01*
G75*
G02*
X176937500Y-77780000I147500J0D01*
G01*
X177232500Y-77780000D01*
G75*
G02*
X177380000Y-77927500I0J-147500D01*
G01*
G37*
G36*
G01*
X178372500Y-81680000D02*
X178027500Y-81680000D01*
G75*
G02*
X177880000Y-81532500I0J147500D01*
G01*
X177880000Y-81237500D01*
G75*
G02*
X178027500Y-81090000I147500J0D01*
G01*
X178372500Y-81090000D01*
G75*
G02*
X178520000Y-81237500I0J-147500D01*
G01*
X178520000Y-81532500D01*
G75*
G02*
X178372500Y-81680000I-147500J0D01*
G01*
G37*
G36*
G01*
X178372500Y-80710000D02*
X178027500Y-80710000D01*
G75*
G02*
X177880000Y-80562500I0J147500D01*
G01*
X177880000Y-80267500D01*
G75*
G02*
X178027500Y-80120000I147500J0D01*
G01*
X178372500Y-80120000D01*
G75*
G02*
X178520000Y-80267500I0J-147500D01*
G01*
X178520000Y-80562500D01*
G75*
G02*
X178372500Y-80710000I-147500J0D01*
G01*
G37*
M02*
