G04 #@! TF.GenerationSoftware,KiCad,Pcbnew,5.1.6+dfsg1-1~bpo10+1*
G04 #@! TF.CreationDate,2021-03-28T20:23:35-04:00*
G04 #@! TF.ProjectId,RUSP_Daughterboard,52555350-5f44-4617-9567-68746572626f,rev?*
G04 #@! TF.SameCoordinates,Original*
G04 #@! TF.FileFunction,Other,Fab,Bot*
%FSLAX46Y46*%
G04 Gerber Fmt 4.6, Leading zero omitted, Abs format (unit mm)*
G04 Created by KiCad (PCBNEW 5.1.6+dfsg1-1~bpo10+1) date 2021-03-28 20:23:35*
%MOMM*%
%LPD*%
G01*
G04 APERTURE LIST*
%ADD10C,0.100000*%
%ADD11C,0.150000*%
%ADD12C,0.040000*%
%ADD13C,0.050000*%
%ADD14C,0.080000*%
G04 APERTURE END LIST*
D10*
X129800000Y-93750000D02*
X128800000Y-93750000D01*
X129800000Y-94250000D02*
X129800000Y-93750000D01*
X128800000Y-94250000D02*
X129800000Y-94250000D01*
X128800000Y-93750000D02*
X128800000Y-94250000D01*
X124525000Y-114600000D02*
X125525000Y-114600000D01*
X124525000Y-114100000D02*
X124525000Y-114600000D01*
X125525000Y-114100000D02*
X124525000Y-114100000D01*
X125525000Y-114600000D02*
X125525000Y-114100000D01*
X125690000Y-107500000D02*
X125690000Y-107000000D01*
X125690000Y-107000000D02*
X124690000Y-107000000D01*
X124690000Y-107000000D02*
X124690000Y-107500000D01*
X124690000Y-107500000D02*
X125690000Y-107500000D01*
X129800000Y-92150000D02*
X128800000Y-92150000D01*
X129800000Y-92650000D02*
X129800000Y-92150000D01*
X128800000Y-92650000D02*
X129800000Y-92650000D01*
X128800000Y-92150000D02*
X128800000Y-92650000D01*
X125515000Y-113275000D02*
X125515000Y-112775000D01*
X125515000Y-112775000D02*
X124515000Y-112775000D01*
X124515000Y-112775000D02*
X124515000Y-113275000D01*
X124515000Y-113275000D02*
X125515000Y-113275000D01*
X124600000Y-108725000D02*
X125600000Y-108725000D01*
X124600000Y-108225000D02*
X124600000Y-108725000D01*
X125600000Y-108225000D02*
X124600000Y-108225000D01*
X125600000Y-108725000D02*
X125600000Y-108225000D01*
X123950000Y-104400000D02*
X123450000Y-104400000D01*
X123950000Y-104800000D02*
X124550000Y-104400000D01*
X123950000Y-104000000D02*
X123950000Y-104800000D01*
X124550000Y-104400000D02*
X123950000Y-104000000D01*
X124550000Y-104400000D02*
X124550000Y-104950000D01*
X124550000Y-104400000D02*
X124550000Y-103850000D01*
X124950000Y-104400000D02*
X124550000Y-104400000D01*
X125600000Y-105300000D02*
X125600000Y-103500000D01*
X122800000Y-105300000D02*
X125600000Y-105300000D01*
X122800000Y-103500000D02*
X122800000Y-105300000D01*
X125600000Y-103500000D02*
X122800000Y-103500000D01*
X127250000Y-86500000D02*
G75*
G03*
X127250000Y-86500000I-750000J0D01*
G01*
X175750000Y-74500000D02*
G75*
G03*
X175750000Y-74500000I-750000J0D01*
G01*
X175750000Y-136000000D02*
G75*
G03*
X175750000Y-136000000I-750000J0D01*
G01*
D11*
X159450000Y-126000000D02*
X159450000Y-129000000D01*
X166950000Y-126000000D02*
X159450000Y-126000000D01*
X166950000Y-129000000D02*
X166950000Y-126000000D01*
X159450000Y-129000000D02*
X166950000Y-129000000D01*
X159450000Y-136700000D02*
X166950000Y-136700000D01*
X166950000Y-136700000D02*
X166950000Y-133700000D01*
X166950000Y-133700000D02*
X159450000Y-133700000D01*
X159450000Y-133700000D02*
X159450000Y-136700000D01*
D10*
X156600000Y-134900000D02*
X157800000Y-134900000D01*
X157800000Y-134900000D02*
X157800000Y-132900000D01*
X157800000Y-132900000D02*
X156600000Y-132900000D01*
X156600000Y-132900000D02*
X156600000Y-134900000D01*
X137050000Y-92375000D02*
X139850000Y-92375000D01*
X139850000Y-92375000D02*
X139850000Y-90575000D01*
X139850000Y-90575000D02*
X137050000Y-90575000D01*
X137050000Y-90575000D02*
X137050000Y-92375000D01*
X137700000Y-91475000D02*
X138100000Y-91475000D01*
X138100000Y-91475000D02*
X138100000Y-92025000D01*
X138100000Y-91475000D02*
X138100000Y-90925000D01*
X138100000Y-91475000D02*
X138700000Y-91875000D01*
X138700000Y-91875000D02*
X138700000Y-91075000D01*
X138700000Y-91075000D02*
X138100000Y-91475000D01*
X138700000Y-91475000D02*
X139200000Y-91475000D01*
X131275000Y-112950000D02*
X130775000Y-112950000D01*
X131275000Y-113350000D02*
X131875000Y-112950000D01*
X131275000Y-112550000D02*
X131275000Y-113350000D01*
X131875000Y-112950000D02*
X131275000Y-112550000D01*
X131875000Y-112950000D02*
X131875000Y-113500000D01*
X131875000Y-112950000D02*
X131875000Y-112400000D01*
X132275000Y-112950000D02*
X131875000Y-112950000D01*
X132925000Y-113850000D02*
X132925000Y-112050000D01*
X130125000Y-113850000D02*
X132925000Y-113850000D01*
X130125000Y-112050000D02*
X130125000Y-113850000D01*
X132925000Y-112050000D02*
X130125000Y-112050000D01*
D11*
X132371428Y-92615714D02*
X132371428Y-93282380D01*
X132609523Y-92234761D02*
X132847619Y-92949047D01*
X132228571Y-92949047D01*
X131942857Y-92282380D02*
X131276190Y-92282380D01*
X131704761Y-93282380D01*
X130895238Y-92615714D02*
X130895238Y-93615714D01*
X130895238Y-92663333D02*
X130800000Y-92615714D01*
X130609523Y-92615714D01*
X130514285Y-92663333D01*
X130466666Y-92710952D01*
X130419047Y-92806190D01*
X130419047Y-93091904D01*
X130466666Y-93187142D01*
X130514285Y-93234761D01*
X130609523Y-93282380D01*
X130800000Y-93282380D01*
X130895238Y-93234761D01*
X129657142Y-92758571D02*
X129990476Y-92758571D01*
X129990476Y-93282380D02*
X129990476Y-92282380D01*
X129514285Y-92282380D01*
X128419047Y-92234761D02*
X129276190Y-93520476D01*
X127609523Y-92282380D02*
X128085714Y-92282380D01*
X128133333Y-92758571D01*
X128085714Y-92710952D01*
X127990476Y-92663333D01*
X127752380Y-92663333D01*
X127657142Y-92710952D01*
X127609523Y-92758571D01*
X127561904Y-92853809D01*
X127561904Y-93091904D01*
X127609523Y-93187142D01*
X127657142Y-93234761D01*
X127752380Y-93282380D01*
X127990476Y-93282380D01*
X128085714Y-93234761D01*
X128133333Y-93187142D01*
X126942857Y-92282380D02*
X126847619Y-92282380D01*
X126752380Y-92330000D01*
X126704761Y-92377619D01*
X126657142Y-92472857D01*
X126609523Y-92663333D01*
X126609523Y-92901428D01*
X126657142Y-93091904D01*
X126704761Y-93187142D01*
X126752380Y-93234761D01*
X126847619Y-93282380D01*
X126942857Y-93282380D01*
X127038095Y-93234761D01*
X127085714Y-93187142D01*
X127133333Y-93091904D01*
X127180952Y-92901428D01*
X127180952Y-92663333D01*
X127133333Y-92472857D01*
X127085714Y-92377619D01*
X127038095Y-92330000D01*
X126942857Y-92282380D01*
X126323809Y-92282380D02*
X125990476Y-93282380D01*
X125657142Y-92282380D01*
D12*
X129341666Y-94089285D02*
X129353571Y-94101190D01*
X129389285Y-94113095D01*
X129413095Y-94113095D01*
X129448809Y-94101190D01*
X129472619Y-94077380D01*
X129484523Y-94053571D01*
X129496428Y-94005952D01*
X129496428Y-93970238D01*
X129484523Y-93922619D01*
X129472619Y-93898809D01*
X129448809Y-93875000D01*
X129413095Y-93863095D01*
X129389285Y-93863095D01*
X129353571Y-93875000D01*
X129341666Y-93886904D01*
X129103571Y-94113095D02*
X129246428Y-94113095D01*
X129175000Y-94113095D02*
X129175000Y-93863095D01*
X129198809Y-93898809D01*
X129222619Y-93922619D01*
X129246428Y-93934523D01*
D11*
X128096428Y-115305714D02*
X128096428Y-115972380D01*
X128334523Y-114924761D02*
X128572619Y-115639047D01*
X127953571Y-115639047D01*
X127667857Y-114972380D02*
X127001190Y-114972380D01*
X127429761Y-115972380D01*
X126620238Y-115305714D02*
X126620238Y-116305714D01*
X126620238Y-115353333D02*
X126525000Y-115305714D01*
X126334523Y-115305714D01*
X126239285Y-115353333D01*
X126191666Y-115400952D01*
X126144047Y-115496190D01*
X126144047Y-115781904D01*
X126191666Y-115877142D01*
X126239285Y-115924761D01*
X126334523Y-115972380D01*
X126525000Y-115972380D01*
X126620238Y-115924761D01*
X125382142Y-115448571D02*
X125715476Y-115448571D01*
X125715476Y-115972380D02*
X125715476Y-114972380D01*
X125239285Y-114972380D01*
X124144047Y-114924761D02*
X125001190Y-116210476D01*
X123334523Y-114972380D02*
X123810714Y-114972380D01*
X123858333Y-115448571D01*
X123810714Y-115400952D01*
X123715476Y-115353333D01*
X123477380Y-115353333D01*
X123382142Y-115400952D01*
X123334523Y-115448571D01*
X123286904Y-115543809D01*
X123286904Y-115781904D01*
X123334523Y-115877142D01*
X123382142Y-115924761D01*
X123477380Y-115972380D01*
X123715476Y-115972380D01*
X123810714Y-115924761D01*
X123858333Y-115877142D01*
X122667857Y-114972380D02*
X122572619Y-114972380D01*
X122477380Y-115020000D01*
X122429761Y-115067619D01*
X122382142Y-115162857D01*
X122334523Y-115353333D01*
X122334523Y-115591428D01*
X122382142Y-115781904D01*
X122429761Y-115877142D01*
X122477380Y-115924761D01*
X122572619Y-115972380D01*
X122667857Y-115972380D01*
X122763095Y-115924761D01*
X122810714Y-115877142D01*
X122858333Y-115781904D01*
X122905952Y-115591428D01*
X122905952Y-115353333D01*
X122858333Y-115162857D01*
X122810714Y-115067619D01*
X122763095Y-115020000D01*
X122667857Y-114972380D01*
X122048809Y-114972380D02*
X121715476Y-115972380D01*
X121382142Y-114972380D01*
D12*
X125066666Y-114439285D02*
X125078571Y-114451190D01*
X125114285Y-114463095D01*
X125138095Y-114463095D01*
X125173809Y-114451190D01*
X125197619Y-114427380D01*
X125209523Y-114403571D01*
X125221428Y-114355952D01*
X125221428Y-114320238D01*
X125209523Y-114272619D01*
X125197619Y-114248809D01*
X125173809Y-114225000D01*
X125138095Y-114213095D01*
X125114285Y-114213095D01*
X125078571Y-114225000D01*
X125066666Y-114236904D01*
X124971428Y-114236904D02*
X124959523Y-114225000D01*
X124935714Y-114213095D01*
X124876190Y-114213095D01*
X124852380Y-114225000D01*
X124840476Y-114236904D01*
X124828571Y-114260714D01*
X124828571Y-114284523D01*
X124840476Y-114320238D01*
X124983333Y-114463095D01*
X124828571Y-114463095D01*
D11*
X128261428Y-108205714D02*
X128261428Y-108872380D01*
X128499523Y-107824761D02*
X128737619Y-108539047D01*
X128118571Y-108539047D01*
X127832857Y-107872380D02*
X127166190Y-107872380D01*
X127594761Y-108872380D01*
X126785238Y-108205714D02*
X126785238Y-109205714D01*
X126785238Y-108253333D02*
X126690000Y-108205714D01*
X126499523Y-108205714D01*
X126404285Y-108253333D01*
X126356666Y-108300952D01*
X126309047Y-108396190D01*
X126309047Y-108681904D01*
X126356666Y-108777142D01*
X126404285Y-108824761D01*
X126499523Y-108872380D01*
X126690000Y-108872380D01*
X126785238Y-108824761D01*
X125547142Y-108348571D02*
X125880476Y-108348571D01*
X125880476Y-108872380D02*
X125880476Y-107872380D01*
X125404285Y-107872380D01*
X124309047Y-107824761D02*
X125166190Y-109110476D01*
X123499523Y-107872380D02*
X123975714Y-107872380D01*
X124023333Y-108348571D01*
X123975714Y-108300952D01*
X123880476Y-108253333D01*
X123642380Y-108253333D01*
X123547142Y-108300952D01*
X123499523Y-108348571D01*
X123451904Y-108443809D01*
X123451904Y-108681904D01*
X123499523Y-108777142D01*
X123547142Y-108824761D01*
X123642380Y-108872380D01*
X123880476Y-108872380D01*
X123975714Y-108824761D01*
X124023333Y-108777142D01*
X122832857Y-107872380D02*
X122737619Y-107872380D01*
X122642380Y-107920000D01*
X122594761Y-107967619D01*
X122547142Y-108062857D01*
X122499523Y-108253333D01*
X122499523Y-108491428D01*
X122547142Y-108681904D01*
X122594761Y-108777142D01*
X122642380Y-108824761D01*
X122737619Y-108872380D01*
X122832857Y-108872380D01*
X122928095Y-108824761D01*
X122975714Y-108777142D01*
X123023333Y-108681904D01*
X123070952Y-108491428D01*
X123070952Y-108253333D01*
X123023333Y-108062857D01*
X122975714Y-107967619D01*
X122928095Y-107920000D01*
X122832857Y-107872380D01*
X122213809Y-107872380D02*
X121880476Y-108872380D01*
X121547142Y-107872380D01*
D12*
X125231666Y-107339285D02*
X125243571Y-107351190D01*
X125279285Y-107363095D01*
X125303095Y-107363095D01*
X125338809Y-107351190D01*
X125362619Y-107327380D01*
X125374523Y-107303571D01*
X125386428Y-107255952D01*
X125386428Y-107220238D01*
X125374523Y-107172619D01*
X125362619Y-107148809D01*
X125338809Y-107125000D01*
X125303095Y-107113095D01*
X125279285Y-107113095D01*
X125243571Y-107125000D01*
X125231666Y-107136904D01*
X125148333Y-107113095D02*
X124993571Y-107113095D01*
X125076904Y-107208333D01*
X125041190Y-107208333D01*
X125017380Y-107220238D01*
X125005476Y-107232142D01*
X124993571Y-107255952D01*
X124993571Y-107315476D01*
X125005476Y-107339285D01*
X125017380Y-107351190D01*
X125041190Y-107363095D01*
X125112619Y-107363095D01*
X125136428Y-107351190D01*
X125148333Y-107339285D01*
D11*
X131228571Y-91682380D02*
X131228571Y-90682380D01*
X130990476Y-90682380D01*
X130847619Y-90730000D01*
X130752380Y-90825238D01*
X130704761Y-90920476D01*
X130657142Y-91110952D01*
X130657142Y-91253809D01*
X130704761Y-91444285D01*
X130752380Y-91539523D01*
X130847619Y-91634761D01*
X130990476Y-91682380D01*
X131228571Y-91682380D01*
X130466666Y-91777619D02*
X129704761Y-91777619D01*
X129609523Y-90682380D02*
X129038095Y-90682380D01*
X129323809Y-91682380D02*
X129323809Y-90682380D01*
X128847619Y-90682380D02*
X128514285Y-91682380D01*
X128180952Y-90682380D01*
X127895238Y-91634761D02*
X127752380Y-91682380D01*
X127514285Y-91682380D01*
X127419047Y-91634761D01*
X127371428Y-91587142D01*
X127323809Y-91491904D01*
X127323809Y-91396666D01*
X127371428Y-91301428D01*
X127419047Y-91253809D01*
X127514285Y-91206190D01*
X127704761Y-91158571D01*
X127800000Y-91110952D01*
X127847619Y-91063333D01*
X127895238Y-90968095D01*
X127895238Y-90872857D01*
X127847619Y-90777619D01*
X127800000Y-90730000D01*
X127704761Y-90682380D01*
X127466666Y-90682380D01*
X127323809Y-90730000D01*
D12*
X129484523Y-92513095D02*
X129484523Y-92263095D01*
X129425000Y-92263095D01*
X129389285Y-92275000D01*
X129365476Y-92298809D01*
X129353571Y-92322619D01*
X129341666Y-92370238D01*
X129341666Y-92405952D01*
X129353571Y-92453571D01*
X129365476Y-92477380D01*
X129389285Y-92501190D01*
X129425000Y-92513095D01*
X129484523Y-92513095D01*
X129103571Y-92513095D02*
X129246428Y-92513095D01*
X129175000Y-92513095D02*
X129175000Y-92263095D01*
X129198809Y-92298809D01*
X129222619Y-92322619D01*
X129246428Y-92334523D01*
D11*
X126943571Y-114647380D02*
X126943571Y-113647380D01*
X126705476Y-113647380D01*
X126562619Y-113695000D01*
X126467380Y-113790238D01*
X126419761Y-113885476D01*
X126372142Y-114075952D01*
X126372142Y-114218809D01*
X126419761Y-114409285D01*
X126467380Y-114504523D01*
X126562619Y-114599761D01*
X126705476Y-114647380D01*
X126943571Y-114647380D01*
X126181666Y-114742619D02*
X125419761Y-114742619D01*
X125324523Y-113647380D02*
X124753095Y-113647380D01*
X125038809Y-114647380D02*
X125038809Y-113647380D01*
X124562619Y-113647380D02*
X124229285Y-114647380D01*
X123895952Y-113647380D01*
X123610238Y-114599761D02*
X123467380Y-114647380D01*
X123229285Y-114647380D01*
X123134047Y-114599761D01*
X123086428Y-114552142D01*
X123038809Y-114456904D01*
X123038809Y-114361666D01*
X123086428Y-114266428D01*
X123134047Y-114218809D01*
X123229285Y-114171190D01*
X123419761Y-114123571D01*
X123515000Y-114075952D01*
X123562619Y-114028333D01*
X123610238Y-113933095D01*
X123610238Y-113837857D01*
X123562619Y-113742619D01*
X123515000Y-113695000D01*
X123419761Y-113647380D01*
X123181666Y-113647380D01*
X123038809Y-113695000D01*
D12*
X125199523Y-113138095D02*
X125199523Y-112888095D01*
X125140000Y-112888095D01*
X125104285Y-112900000D01*
X125080476Y-112923809D01*
X125068571Y-112947619D01*
X125056666Y-112995238D01*
X125056666Y-113030952D01*
X125068571Y-113078571D01*
X125080476Y-113102380D01*
X125104285Y-113126190D01*
X125140000Y-113138095D01*
X125199523Y-113138095D01*
X124961428Y-112911904D02*
X124949523Y-112900000D01*
X124925714Y-112888095D01*
X124866190Y-112888095D01*
X124842380Y-112900000D01*
X124830476Y-112911904D01*
X124818571Y-112935714D01*
X124818571Y-112959523D01*
X124830476Y-112995238D01*
X124973333Y-113138095D01*
X124818571Y-113138095D01*
D11*
X127028571Y-110097380D02*
X127028571Y-109097380D01*
X126790476Y-109097380D01*
X126647619Y-109145000D01*
X126552380Y-109240238D01*
X126504761Y-109335476D01*
X126457142Y-109525952D01*
X126457142Y-109668809D01*
X126504761Y-109859285D01*
X126552380Y-109954523D01*
X126647619Y-110049761D01*
X126790476Y-110097380D01*
X127028571Y-110097380D01*
X126266666Y-110192619D02*
X125504761Y-110192619D01*
X125409523Y-109097380D02*
X124838095Y-109097380D01*
X125123809Y-110097380D02*
X125123809Y-109097380D01*
X124647619Y-109097380D02*
X124314285Y-110097380D01*
X123980952Y-109097380D01*
X123695238Y-110049761D02*
X123552380Y-110097380D01*
X123314285Y-110097380D01*
X123219047Y-110049761D01*
X123171428Y-110002142D01*
X123123809Y-109906904D01*
X123123809Y-109811666D01*
X123171428Y-109716428D01*
X123219047Y-109668809D01*
X123314285Y-109621190D01*
X123504761Y-109573571D01*
X123600000Y-109525952D01*
X123647619Y-109478333D01*
X123695238Y-109383095D01*
X123695238Y-109287857D01*
X123647619Y-109192619D01*
X123600000Y-109145000D01*
X123504761Y-109097380D01*
X123266666Y-109097380D01*
X123123809Y-109145000D01*
D12*
X125284523Y-108588095D02*
X125284523Y-108338095D01*
X125225000Y-108338095D01*
X125189285Y-108350000D01*
X125165476Y-108373809D01*
X125153571Y-108397619D01*
X125141666Y-108445238D01*
X125141666Y-108480952D01*
X125153571Y-108528571D01*
X125165476Y-108552380D01*
X125189285Y-108576190D01*
X125225000Y-108588095D01*
X125284523Y-108588095D01*
X125058333Y-108338095D02*
X124903571Y-108338095D01*
X124986904Y-108433333D01*
X124951190Y-108433333D01*
X124927380Y-108445238D01*
X124915476Y-108457142D01*
X124903571Y-108480952D01*
X124903571Y-108540476D01*
X124915476Y-108564285D01*
X124927380Y-108576190D01*
X124951190Y-108588095D01*
X125022619Y-108588095D01*
X125046428Y-108576190D01*
X125058333Y-108564285D01*
D11*
X124938095Y-102852380D02*
X124938095Y-101852380D01*
X124700000Y-101852380D01*
X124557142Y-101900000D01*
X124461904Y-101995238D01*
X124414285Y-102090476D01*
X124366666Y-102280952D01*
X124366666Y-102423809D01*
X124414285Y-102614285D01*
X124461904Y-102709523D01*
X124557142Y-102804761D01*
X124700000Y-102852380D01*
X124938095Y-102852380D01*
X123461904Y-101852380D02*
X123938095Y-101852380D01*
X123985714Y-102328571D01*
X123938095Y-102280952D01*
X123842857Y-102233333D01*
X123604761Y-102233333D01*
X123509523Y-102280952D01*
X123461904Y-102328571D01*
X123414285Y-102423809D01*
X123414285Y-102661904D01*
X123461904Y-102757142D01*
X123509523Y-102804761D01*
X123604761Y-102852380D01*
X123842857Y-102852380D01*
X123938095Y-102804761D01*
X123985714Y-102757142D01*
X128880952Y-84428571D02*
X129214285Y-84428571D01*
X129214285Y-84952380D02*
X129214285Y-83952380D01*
X128738095Y-83952380D01*
X128357142Y-84952380D02*
X128357142Y-84285714D01*
X128357142Y-83952380D02*
X128404761Y-84000000D01*
X128357142Y-84047619D01*
X128309523Y-84000000D01*
X128357142Y-83952380D01*
X128357142Y-84047619D01*
X127452380Y-84952380D02*
X127452380Y-83952380D01*
X127452380Y-84904761D02*
X127547619Y-84952380D01*
X127738095Y-84952380D01*
X127833333Y-84904761D01*
X127880952Y-84857142D01*
X127928571Y-84761904D01*
X127928571Y-84476190D01*
X127880952Y-84380952D01*
X127833333Y-84333333D01*
X127738095Y-84285714D01*
X127547619Y-84285714D01*
X127452380Y-84333333D01*
X126547619Y-84285714D02*
X126547619Y-84952380D01*
X126976190Y-84285714D02*
X126976190Y-84809523D01*
X126928571Y-84904761D01*
X126833333Y-84952380D01*
X126690476Y-84952380D01*
X126595238Y-84904761D01*
X126547619Y-84857142D01*
X125642857Y-84904761D02*
X125738095Y-84952380D01*
X125928571Y-84952380D01*
X126023809Y-84904761D01*
X126071428Y-84857142D01*
X126119047Y-84761904D01*
X126119047Y-84476190D01*
X126071428Y-84380952D01*
X126023809Y-84333333D01*
X125928571Y-84285714D01*
X125738095Y-84285714D01*
X125642857Y-84333333D01*
X125214285Y-84952380D02*
X125214285Y-84285714D01*
X125214285Y-83952380D02*
X125261904Y-84000000D01*
X125214285Y-84047619D01*
X125166666Y-84000000D01*
X125214285Y-83952380D01*
X125214285Y-84047619D01*
X124309523Y-84952380D02*
X124309523Y-84428571D01*
X124357142Y-84333333D01*
X124452380Y-84285714D01*
X124642857Y-84285714D01*
X124738095Y-84333333D01*
X124309523Y-84904761D02*
X124404761Y-84952380D01*
X124642857Y-84952380D01*
X124738095Y-84904761D01*
X124785714Y-84809523D01*
X124785714Y-84714285D01*
X124738095Y-84619047D01*
X124642857Y-84571428D01*
X124404761Y-84571428D01*
X124309523Y-84523809D01*
X123690476Y-84952380D02*
X123785714Y-84904761D01*
X123833333Y-84809523D01*
X123833333Y-83952380D01*
D13*
X126821428Y-86478571D02*
X126921428Y-86478571D01*
X126921428Y-86635714D02*
X126921428Y-86335714D01*
X126778571Y-86335714D01*
X126664285Y-86635714D02*
X126664285Y-86335714D01*
X126521428Y-86635714D02*
X126521428Y-86335714D01*
X126450000Y-86335714D01*
X126407142Y-86350000D01*
X126378571Y-86378571D01*
X126364285Y-86407142D01*
X126350000Y-86464285D01*
X126350000Y-86507142D01*
X126364285Y-86564285D01*
X126378571Y-86592857D01*
X126407142Y-86621428D01*
X126450000Y-86635714D01*
X126521428Y-86635714D01*
X126092857Y-86435714D02*
X126092857Y-86635714D01*
X126164285Y-86321428D02*
X126235714Y-86535714D01*
X126050000Y-86535714D01*
D11*
X177380952Y-72428571D02*
X177714285Y-72428571D01*
X177714285Y-72952380D02*
X177714285Y-71952380D01*
X177238095Y-71952380D01*
X176857142Y-72952380D02*
X176857142Y-72285714D01*
X176857142Y-71952380D02*
X176904761Y-72000000D01*
X176857142Y-72047619D01*
X176809523Y-72000000D01*
X176857142Y-71952380D01*
X176857142Y-72047619D01*
X175952380Y-72952380D02*
X175952380Y-71952380D01*
X175952380Y-72904761D02*
X176047619Y-72952380D01*
X176238095Y-72952380D01*
X176333333Y-72904761D01*
X176380952Y-72857142D01*
X176428571Y-72761904D01*
X176428571Y-72476190D01*
X176380952Y-72380952D01*
X176333333Y-72333333D01*
X176238095Y-72285714D01*
X176047619Y-72285714D01*
X175952380Y-72333333D01*
X175047619Y-72285714D02*
X175047619Y-72952380D01*
X175476190Y-72285714D02*
X175476190Y-72809523D01*
X175428571Y-72904761D01*
X175333333Y-72952380D01*
X175190476Y-72952380D01*
X175095238Y-72904761D01*
X175047619Y-72857142D01*
X174142857Y-72904761D02*
X174238095Y-72952380D01*
X174428571Y-72952380D01*
X174523809Y-72904761D01*
X174571428Y-72857142D01*
X174619047Y-72761904D01*
X174619047Y-72476190D01*
X174571428Y-72380952D01*
X174523809Y-72333333D01*
X174428571Y-72285714D01*
X174238095Y-72285714D01*
X174142857Y-72333333D01*
X173714285Y-72952380D02*
X173714285Y-72285714D01*
X173714285Y-71952380D02*
X173761904Y-72000000D01*
X173714285Y-72047619D01*
X173666666Y-72000000D01*
X173714285Y-71952380D01*
X173714285Y-72047619D01*
X172809523Y-72952380D02*
X172809523Y-72428571D01*
X172857142Y-72333333D01*
X172952380Y-72285714D01*
X173142857Y-72285714D01*
X173238095Y-72333333D01*
X172809523Y-72904761D02*
X172904761Y-72952380D01*
X173142857Y-72952380D01*
X173238095Y-72904761D01*
X173285714Y-72809523D01*
X173285714Y-72714285D01*
X173238095Y-72619047D01*
X173142857Y-72571428D01*
X172904761Y-72571428D01*
X172809523Y-72523809D01*
X172190476Y-72952380D02*
X172285714Y-72904761D01*
X172333333Y-72809523D01*
X172333333Y-71952380D01*
D13*
X175321428Y-74478571D02*
X175421428Y-74478571D01*
X175421428Y-74635714D02*
X175421428Y-74335714D01*
X175278571Y-74335714D01*
X175164285Y-74635714D02*
X175164285Y-74335714D01*
X175021428Y-74635714D02*
X175021428Y-74335714D01*
X174950000Y-74335714D01*
X174907142Y-74350000D01*
X174878571Y-74378571D01*
X174864285Y-74407142D01*
X174850000Y-74464285D01*
X174850000Y-74507142D01*
X174864285Y-74564285D01*
X174878571Y-74592857D01*
X174907142Y-74621428D01*
X174950000Y-74635714D01*
X175021428Y-74635714D01*
X174578571Y-74335714D02*
X174721428Y-74335714D01*
X174735714Y-74478571D01*
X174721428Y-74464285D01*
X174692857Y-74450000D01*
X174621428Y-74450000D01*
X174592857Y-74464285D01*
X174578571Y-74478571D01*
X174564285Y-74507142D01*
X174564285Y-74578571D01*
X174578571Y-74607142D01*
X174592857Y-74621428D01*
X174621428Y-74635714D01*
X174692857Y-74635714D01*
X174721428Y-74621428D01*
X174735714Y-74607142D01*
D11*
X177380952Y-133928571D02*
X177714285Y-133928571D01*
X177714285Y-134452380D02*
X177714285Y-133452380D01*
X177238095Y-133452380D01*
X176857142Y-134452380D02*
X176857142Y-133785714D01*
X176857142Y-133452380D02*
X176904761Y-133500000D01*
X176857142Y-133547619D01*
X176809523Y-133500000D01*
X176857142Y-133452380D01*
X176857142Y-133547619D01*
X175952380Y-134452380D02*
X175952380Y-133452380D01*
X175952380Y-134404761D02*
X176047619Y-134452380D01*
X176238095Y-134452380D01*
X176333333Y-134404761D01*
X176380952Y-134357142D01*
X176428571Y-134261904D01*
X176428571Y-133976190D01*
X176380952Y-133880952D01*
X176333333Y-133833333D01*
X176238095Y-133785714D01*
X176047619Y-133785714D01*
X175952380Y-133833333D01*
X175047619Y-133785714D02*
X175047619Y-134452380D01*
X175476190Y-133785714D02*
X175476190Y-134309523D01*
X175428571Y-134404761D01*
X175333333Y-134452380D01*
X175190476Y-134452380D01*
X175095238Y-134404761D01*
X175047619Y-134357142D01*
X174142857Y-134404761D02*
X174238095Y-134452380D01*
X174428571Y-134452380D01*
X174523809Y-134404761D01*
X174571428Y-134357142D01*
X174619047Y-134261904D01*
X174619047Y-133976190D01*
X174571428Y-133880952D01*
X174523809Y-133833333D01*
X174428571Y-133785714D01*
X174238095Y-133785714D01*
X174142857Y-133833333D01*
X173714285Y-134452380D02*
X173714285Y-133785714D01*
X173714285Y-133452380D02*
X173761904Y-133500000D01*
X173714285Y-133547619D01*
X173666666Y-133500000D01*
X173714285Y-133452380D01*
X173714285Y-133547619D01*
X172809523Y-134452380D02*
X172809523Y-133928571D01*
X172857142Y-133833333D01*
X172952380Y-133785714D01*
X173142857Y-133785714D01*
X173238095Y-133833333D01*
X172809523Y-134404761D02*
X172904761Y-134452380D01*
X173142857Y-134452380D01*
X173238095Y-134404761D01*
X173285714Y-134309523D01*
X173285714Y-134214285D01*
X173238095Y-134119047D01*
X173142857Y-134071428D01*
X172904761Y-134071428D01*
X172809523Y-134023809D01*
X172190476Y-134452380D02*
X172285714Y-134404761D01*
X172333333Y-134309523D01*
X172333333Y-133452380D01*
D13*
X175321428Y-135978571D02*
X175421428Y-135978571D01*
X175421428Y-136135714D02*
X175421428Y-135835714D01*
X175278571Y-135835714D01*
X175164285Y-136135714D02*
X175164285Y-135835714D01*
X175021428Y-136135714D02*
X175021428Y-135835714D01*
X174950000Y-135835714D01*
X174907142Y-135850000D01*
X174878571Y-135878571D01*
X174864285Y-135907142D01*
X174850000Y-135964285D01*
X174850000Y-136007142D01*
X174864285Y-136064285D01*
X174878571Y-136092857D01*
X174907142Y-136121428D01*
X174950000Y-136135714D01*
X175021428Y-136135714D01*
X174592857Y-135835714D02*
X174650000Y-135835714D01*
X174678571Y-135850000D01*
X174692857Y-135864285D01*
X174721428Y-135907142D01*
X174735714Y-135964285D01*
X174735714Y-136078571D01*
X174721428Y-136107142D01*
X174707142Y-136121428D01*
X174678571Y-136135714D01*
X174621428Y-136135714D01*
X174592857Y-136121428D01*
X174578571Y-136107142D01*
X174564285Y-136078571D01*
X174564285Y-136007142D01*
X174578571Y-135978571D01*
X174592857Y-135964285D01*
X174621428Y-135950000D01*
X174678571Y-135950000D01*
X174707142Y-135964285D01*
X174721428Y-135978571D01*
X174735714Y-136007142D01*
D11*
X155478571Y-129828571D02*
X155478571Y-129495238D01*
X156002380Y-129495238D02*
X155002380Y-129495238D01*
X155002380Y-129971428D01*
X155954761Y-130733333D02*
X156002380Y-130638095D01*
X156002380Y-130447619D01*
X155954761Y-130352380D01*
X155859523Y-130304761D01*
X155478571Y-130304761D01*
X155383333Y-130352380D01*
X155335714Y-130447619D01*
X155335714Y-130638095D01*
X155383333Y-130733333D01*
X155478571Y-130780952D01*
X155573809Y-130780952D01*
X155669047Y-130304761D01*
X156002380Y-131209523D02*
X155335714Y-131209523D01*
X155526190Y-131209523D02*
X155430952Y-131257142D01*
X155383333Y-131304761D01*
X155335714Y-131400000D01*
X155335714Y-131495238D01*
X156002380Y-131828571D02*
X155335714Y-131828571D01*
X155526190Y-131828571D02*
X155430952Y-131876190D01*
X155383333Y-131923809D01*
X155335714Y-132019047D01*
X155335714Y-132114285D01*
X156002380Y-132447619D02*
X155335714Y-132447619D01*
X155002380Y-132447619D02*
X155050000Y-132400000D01*
X155097619Y-132447619D01*
X155050000Y-132495238D01*
X155002380Y-132447619D01*
X155097619Y-132447619D01*
X155335714Y-132780952D02*
X155335714Y-133161904D01*
X155002380Y-132923809D02*
X155859523Y-132923809D01*
X155954761Y-132971428D01*
X156002380Y-133066666D01*
X156002380Y-133161904D01*
X155954761Y-133876190D02*
X156002380Y-133780952D01*
X156002380Y-133590476D01*
X155954761Y-133495238D01*
X155859523Y-133447619D01*
X155478571Y-133447619D01*
X155383333Y-133495238D01*
X155335714Y-133590476D01*
X155335714Y-133780952D01*
X155383333Y-133876190D01*
X155478571Y-133923809D01*
X155573809Y-133923809D01*
X155669047Y-133447619D01*
X156097619Y-134114285D02*
X156097619Y-134876190D01*
X155478571Y-135447619D02*
X155526190Y-135590476D01*
X155573809Y-135638095D01*
X155669047Y-135685714D01*
X155811904Y-135685714D01*
X155907142Y-135638095D01*
X155954761Y-135590476D01*
X156002380Y-135495238D01*
X156002380Y-135114285D01*
X155002380Y-135114285D01*
X155002380Y-135447619D01*
X155050000Y-135542857D01*
X155097619Y-135590476D01*
X155192857Y-135638095D01*
X155288095Y-135638095D01*
X155383333Y-135590476D01*
X155430952Y-135542857D01*
X155478571Y-135447619D01*
X155478571Y-135114285D01*
X155954761Y-136495238D02*
X156002380Y-136400000D01*
X156002380Y-136209523D01*
X155954761Y-136114285D01*
X155859523Y-136066666D01*
X155478571Y-136066666D01*
X155383333Y-136114285D01*
X155335714Y-136209523D01*
X155335714Y-136400000D01*
X155383333Y-136495238D01*
X155478571Y-136542857D01*
X155573809Y-136542857D01*
X155669047Y-136066666D01*
X156002380Y-137400000D02*
X155478571Y-137400000D01*
X155383333Y-137352380D01*
X155335714Y-137257142D01*
X155335714Y-137066666D01*
X155383333Y-136971428D01*
X155954761Y-137400000D02*
X156002380Y-137304761D01*
X156002380Y-137066666D01*
X155954761Y-136971428D01*
X155859523Y-136923809D01*
X155764285Y-136923809D01*
X155669047Y-136971428D01*
X155621428Y-137066666D01*
X155621428Y-137304761D01*
X155573809Y-137400000D01*
X156002380Y-138304761D02*
X155002380Y-138304761D01*
X155954761Y-138304761D02*
X156002380Y-138209523D01*
X156002380Y-138019047D01*
X155954761Y-137923809D01*
X155907142Y-137876190D01*
X155811904Y-137828571D01*
X155526190Y-137828571D01*
X155430952Y-137876190D01*
X155383333Y-137923809D01*
X155335714Y-138019047D01*
X155335714Y-138209523D01*
X155383333Y-138304761D01*
D14*
X157426190Y-133816666D02*
X157426190Y-133578571D01*
X156926190Y-133578571D01*
X157426190Y-134245238D02*
X157426190Y-133959523D01*
X157426190Y-134102380D02*
X156926190Y-134102380D01*
X156997619Y-134054761D01*
X157045238Y-134007142D01*
X157069047Y-133959523D01*
D11*
X140592857Y-89827380D02*
X141164285Y-89827380D01*
X140878571Y-89827380D02*
X140878571Y-88827380D01*
X140973809Y-88970238D01*
X141069047Y-89065476D01*
X141164285Y-89113095D01*
X140164285Y-89827380D02*
X140164285Y-88827380D01*
X139592857Y-89827380D01*
X139592857Y-88827380D01*
X138688095Y-89160714D02*
X138688095Y-89827380D01*
X138926190Y-88779761D02*
X139164285Y-89494047D01*
X138545238Y-89494047D01*
X137640476Y-89827380D02*
X138211904Y-89827380D01*
X137926190Y-89827380D02*
X137926190Y-88827380D01*
X138021428Y-88970238D01*
X138116666Y-89065476D01*
X138211904Y-89113095D01*
X136783333Y-89160714D02*
X136783333Y-89827380D01*
X137021428Y-88779761D02*
X137259523Y-89494047D01*
X136640476Y-89494047D01*
X136116666Y-89255952D02*
X136211904Y-89208333D01*
X136259523Y-89160714D01*
X136307142Y-89065476D01*
X136307142Y-89017857D01*
X136259523Y-88922619D01*
X136211904Y-88875000D01*
X136116666Y-88827380D01*
X135926190Y-88827380D01*
X135830952Y-88875000D01*
X135783333Y-88922619D01*
X135735714Y-89017857D01*
X135735714Y-89065476D01*
X135783333Y-89160714D01*
X135830952Y-89208333D01*
X135926190Y-89255952D01*
X136116666Y-89255952D01*
X136211904Y-89303571D01*
X136259523Y-89351190D01*
X136307142Y-89446428D01*
X136307142Y-89636904D01*
X136259523Y-89732142D01*
X136211904Y-89779761D01*
X136116666Y-89827380D01*
X135926190Y-89827380D01*
X135830952Y-89779761D01*
X135783333Y-89732142D01*
X135735714Y-89636904D01*
X135735714Y-89446428D01*
X135783333Y-89351190D01*
X135830952Y-89303571D01*
X135926190Y-89255952D01*
X139188095Y-93927380D02*
X139188095Y-92927380D01*
X138950000Y-92927380D01*
X138807142Y-92975000D01*
X138711904Y-93070238D01*
X138664285Y-93165476D01*
X138616666Y-93355952D01*
X138616666Y-93498809D01*
X138664285Y-93689285D01*
X138711904Y-93784523D01*
X138807142Y-93879761D01*
X138950000Y-93927380D01*
X139188095Y-93927380D01*
X137759523Y-92927380D02*
X137950000Y-92927380D01*
X138045238Y-92975000D01*
X138092857Y-93022619D01*
X138188095Y-93165476D01*
X138235714Y-93355952D01*
X138235714Y-93736904D01*
X138188095Y-93832142D01*
X138140476Y-93879761D01*
X138045238Y-93927380D01*
X137854761Y-93927380D01*
X137759523Y-93879761D01*
X137711904Y-93832142D01*
X137664285Y-93736904D01*
X137664285Y-93498809D01*
X137711904Y-93403571D01*
X137759523Y-93355952D01*
X137854761Y-93308333D01*
X138045238Y-93308333D01*
X138140476Y-93355952D01*
X138188095Y-93403571D01*
X138235714Y-93498809D01*
X133667857Y-115502380D02*
X134239285Y-115502380D01*
X133953571Y-115502380D02*
X133953571Y-114502380D01*
X134048809Y-114645238D01*
X134144047Y-114740476D01*
X134239285Y-114788095D01*
X133239285Y-115502380D02*
X133239285Y-114502380D01*
X132667857Y-115502380D01*
X132667857Y-114502380D01*
X131763095Y-114835714D02*
X131763095Y-115502380D01*
X132001190Y-114454761D02*
X132239285Y-115169047D01*
X131620238Y-115169047D01*
X130715476Y-115502380D02*
X131286904Y-115502380D01*
X131001190Y-115502380D02*
X131001190Y-114502380D01*
X131096428Y-114645238D01*
X131191666Y-114740476D01*
X131286904Y-114788095D01*
X129858333Y-114835714D02*
X129858333Y-115502380D01*
X130096428Y-114454761D02*
X130334523Y-115169047D01*
X129715476Y-115169047D01*
X129191666Y-114930952D02*
X129286904Y-114883333D01*
X129334523Y-114835714D01*
X129382142Y-114740476D01*
X129382142Y-114692857D01*
X129334523Y-114597619D01*
X129286904Y-114550000D01*
X129191666Y-114502380D01*
X129001190Y-114502380D01*
X128905952Y-114550000D01*
X128858333Y-114597619D01*
X128810714Y-114692857D01*
X128810714Y-114740476D01*
X128858333Y-114835714D01*
X128905952Y-114883333D01*
X129001190Y-114930952D01*
X129191666Y-114930952D01*
X129286904Y-114978571D01*
X129334523Y-115026190D01*
X129382142Y-115121428D01*
X129382142Y-115311904D01*
X129334523Y-115407142D01*
X129286904Y-115454761D01*
X129191666Y-115502380D01*
X129001190Y-115502380D01*
X128905952Y-115454761D01*
X128858333Y-115407142D01*
X128810714Y-115311904D01*
X128810714Y-115121428D01*
X128858333Y-115026190D01*
X128905952Y-114978571D01*
X129001190Y-114930952D01*
X132263095Y-111402380D02*
X132263095Y-110402380D01*
X132025000Y-110402380D01*
X131882142Y-110450000D01*
X131786904Y-110545238D01*
X131739285Y-110640476D01*
X131691666Y-110830952D01*
X131691666Y-110973809D01*
X131739285Y-111164285D01*
X131786904Y-111259523D01*
X131882142Y-111354761D01*
X132025000Y-111402380D01*
X132263095Y-111402380D01*
X131358333Y-110402380D02*
X130691666Y-110402380D01*
X131120238Y-111402380D01*
M02*
