M48
; DRILL file {KiCad 5.1.6+dfsg1-1~bpo10+1} date Sun Mar 28 20:23:37 2021
; FORMAT={-:-/ absolute / inch / decimal}
; #@! TF.CreationDate,2021-03-28T20:23:37-04:00
; #@! TF.GenerationSoftware,Kicad,Pcbnew,5.1.6+dfsg1-1~bpo10+1
; #@! TF.FileFunction,Plated,1,4,PTH
FMAT,2
INCH
T1C0.0157
T2C0.0354
T3C0.0472
%
G90
G05
T1
X4.7008Y-3.2362
X4.7362Y-2.8071
X4.7756Y-2.9685
X4.8622Y-4.1142
X4.8976Y-2.9252
X4.8976Y-3.0118
X4.8976Y-3.0945
X4.9016Y-2.8819
X4.9016Y-4.4094
X4.9055Y-2.7953
X4.9055Y-2.8386
X4.9134Y-3.0512
X4.9961Y-3.8189
X5.0Y-3.8858
X5.0Y-4.1693
X5.0591Y-4.4646
X5.064Y-3.86
X5.0743Y-3.4572
X5.0787Y-4.4213
X5.1811Y-4.0394
X5.1954Y-4.1309
X5.1959Y-3.5963
X5.198Y-4.436
X5.3071Y-2.8268
X5.3107Y-4.4833
X5.311Y-3.1417
X5.315Y-3.4803
X5.3228Y-3.0984
X5.3307Y-2.7953
X5.3465Y-2.9882
X5.4134Y-3.6654
X5.4291Y-2.7953
X5.4331Y-3.0906
X5.4331Y-3.1378
X5.7087Y-4.5669
X5.7795Y-4.748
X5.8099Y-4.7216
X5.8891Y-4.8629
X5.9252Y-4.8465
X6.1969Y-5.3583
X6.2283Y-5.0197
X6.2677Y-5.2677
X6.2896Y-5.1685
X6.3071Y-4.8661
X6.3465Y-4.8858
X6.3543Y-5.1417
X6.3622Y-5.3583
X6.3858Y-5.3071
X6.4023Y-5.1609
X6.4055Y-5.3465
X6.4139Y-4.8785
X6.4252Y-5.1929
X6.4528Y-5.0236
X6.4528Y-5.3947
X6.4606Y-4.8858
X6.4724Y-5.314
X6.4972Y-5.2268
X6.5039Y-4.8898
X6.504Y-5.188
X6.5827Y-5.3701
X6.5945Y-4.9724
X6.6215Y-4.5847
X6.6575Y-5.2244
X6.6607Y-4.5205
X6.6749Y-4.4634
X6.7825Y-4.4117
X6.7835Y-4.315
X6.7835Y-4.3701
X6.8937Y-4.315
X6.8937Y-4.3661
X6.8937Y-4.4646
X6.8976Y-4.2323
X6.8976Y-4.4134
X6.8976Y-4.5157
X6.9016Y-4.1339
X6.9055Y-4.7795
X6.9449Y-4.1299
X6.9449Y-4.2283
X6.9567Y-4.7795
T2
X4.9488Y-3.7205
X4.9488Y-3.9173
T3
X4.8425Y-3.6811
X4.8425Y-3.9567
T0
M30
