G04 #@! TF.GenerationSoftware,KiCad,Pcbnew,5.1.6+dfsg1-1~bpo10+1*
G04 #@! TF.CreationDate,2021-03-28T20:23:35-04:00*
G04 #@! TF.ProjectId,RUSP_Daughterboard,52555350-5f44-4617-9567-68746572626f,rev?*
G04 #@! TF.SameCoordinates,Original*
G04 #@! TF.FileFunction,Copper,L4,Bot*
G04 #@! TF.FilePolarity,Positive*
%FSLAX46Y46*%
G04 Gerber Fmt 4.6, Leading zero omitted, Abs format (unit mm)*
G04 Created by KiCad (PCBNEW 5.1.6+dfsg1-1~bpo10+1) date 2021-03-28 20:23:35*
%MOMM*%
%LPD*%
G01*
G04 APERTURE LIST*
G04 #@! TA.AperFunction,SMDPad,CuDef*
%ADD10R,1.350000X0.450000*%
G04 #@! TD*
G04 #@! TA.AperFunction,ComponentPad*
%ADD11C,1.408000*%
G04 #@! TD*
G04 #@! TA.AperFunction,ComponentPad*
%ADD12C,1.800000*%
G04 #@! TD*
G04 #@! TA.AperFunction,SMDPad,CuDef*
%ADD13R,1.550000X1.500000*%
G04 #@! TD*
G04 #@! TA.AperFunction,SMDPad,CuDef*
%ADD14R,0.900000X1.200000*%
G04 #@! TD*
G04 #@! TA.AperFunction,SMDPad,CuDef*
%ADD15C,0.750000*%
G04 #@! TD*
G04 #@! TA.AperFunction,SMDPad,CuDef*
%ADD16R,0.740000X1.675000*%
G04 #@! TD*
G04 #@! TA.AperFunction,SMDPad,CuDef*
%ADD17R,3.000000X1.110000*%
G04 #@! TD*
G04 #@! TA.AperFunction,ViaPad*
%ADD18C,0.800000*%
G04 #@! TD*
G04 #@! TA.AperFunction,Conductor*
%ADD19C,0.250000*%
G04 #@! TD*
G04 #@! TA.AperFunction,Conductor*
%ADD20C,0.500000*%
G04 #@! TD*
G04 #@! TA.AperFunction,Conductor*
%ADD21C,0.750000*%
G04 #@! TD*
G04 #@! TA.AperFunction,Conductor*
%ADD22C,0.254000*%
G04 #@! TD*
G04 APERTURE END LIST*
D10*
X125675000Y-98300000D03*
X125675000Y-97650000D03*
X125675000Y-97000000D03*
X125675000Y-96350000D03*
X125675000Y-95700000D03*
D11*
X125700000Y-99500000D03*
X125700000Y-94500000D03*
D12*
X123000000Y-100500000D03*
X123000000Y-93500000D03*
D13*
X123000000Y-98000000D03*
X123000000Y-96000000D03*
X123000000Y-100050000D03*
X123000000Y-93950000D03*
G04 #@! TA.AperFunction,SMDPad,CuDef*
G36*
G01*
X129490000Y-94172500D02*
X129490000Y-93827500D01*
G75*
G02*
X129637500Y-93680000I147500J0D01*
G01*
X129932500Y-93680000D01*
G75*
G02*
X130080000Y-93827500I0J-147500D01*
G01*
X130080000Y-94172500D01*
G75*
G02*
X129932500Y-94320000I-147500J0D01*
G01*
X129637500Y-94320000D01*
G75*
G02*
X129490000Y-94172500I0J147500D01*
G01*
G37*
G04 #@! TD.AperFunction*
G04 #@! TA.AperFunction,SMDPad,CuDef*
G36*
G01*
X128520000Y-94172500D02*
X128520000Y-93827500D01*
G75*
G02*
X128667500Y-93680000I147500J0D01*
G01*
X128962500Y-93680000D01*
G75*
G02*
X129110000Y-93827500I0J-147500D01*
G01*
X129110000Y-94172500D01*
G75*
G02*
X128962500Y-94320000I-147500J0D01*
G01*
X128667500Y-94320000D01*
G75*
G02*
X128520000Y-94172500I0J147500D01*
G01*
G37*
G04 #@! TD.AperFunction*
G04 #@! TA.AperFunction,SMDPad,CuDef*
G36*
G01*
X124835000Y-114177500D02*
X124835000Y-114522500D01*
G75*
G02*
X124687500Y-114670000I-147500J0D01*
G01*
X124392500Y-114670000D01*
G75*
G02*
X124245000Y-114522500I0J147500D01*
G01*
X124245000Y-114177500D01*
G75*
G02*
X124392500Y-114030000I147500J0D01*
G01*
X124687500Y-114030000D01*
G75*
G02*
X124835000Y-114177500I0J-147500D01*
G01*
G37*
G04 #@! TD.AperFunction*
G04 #@! TA.AperFunction,SMDPad,CuDef*
G36*
G01*
X125805000Y-114177500D02*
X125805000Y-114522500D01*
G75*
G02*
X125657500Y-114670000I-147500J0D01*
G01*
X125362500Y-114670000D01*
G75*
G02*
X125215000Y-114522500I0J147500D01*
G01*
X125215000Y-114177500D01*
G75*
G02*
X125362500Y-114030000I147500J0D01*
G01*
X125657500Y-114030000D01*
G75*
G02*
X125805000Y-114177500I0J-147500D01*
G01*
G37*
G04 #@! TD.AperFunction*
G04 #@! TA.AperFunction,SMDPad,CuDef*
G36*
G01*
X125970000Y-107077500D02*
X125970000Y-107422500D01*
G75*
G02*
X125822500Y-107570000I-147500J0D01*
G01*
X125527500Y-107570000D01*
G75*
G02*
X125380000Y-107422500I0J147500D01*
G01*
X125380000Y-107077500D01*
G75*
G02*
X125527500Y-106930000I147500J0D01*
G01*
X125822500Y-106930000D01*
G75*
G02*
X125970000Y-107077500I0J-147500D01*
G01*
G37*
G04 #@! TD.AperFunction*
G04 #@! TA.AperFunction,SMDPad,CuDef*
G36*
G01*
X125000000Y-107077500D02*
X125000000Y-107422500D01*
G75*
G02*
X124852500Y-107570000I-147500J0D01*
G01*
X124557500Y-107570000D01*
G75*
G02*
X124410000Y-107422500I0J147500D01*
G01*
X124410000Y-107077500D01*
G75*
G02*
X124557500Y-106930000I147500J0D01*
G01*
X124852500Y-106930000D01*
G75*
G02*
X125000000Y-107077500I0J-147500D01*
G01*
G37*
G04 #@! TD.AperFunction*
G04 #@! TA.AperFunction,SMDPad,CuDef*
G36*
G01*
X129490000Y-92572500D02*
X129490000Y-92227500D01*
G75*
G02*
X129637500Y-92080000I147500J0D01*
G01*
X129932500Y-92080000D01*
G75*
G02*
X130080000Y-92227500I0J-147500D01*
G01*
X130080000Y-92572500D01*
G75*
G02*
X129932500Y-92720000I-147500J0D01*
G01*
X129637500Y-92720000D01*
G75*
G02*
X129490000Y-92572500I0J147500D01*
G01*
G37*
G04 #@! TD.AperFunction*
G04 #@! TA.AperFunction,SMDPad,CuDef*
G36*
G01*
X128520000Y-92572500D02*
X128520000Y-92227500D01*
G75*
G02*
X128667500Y-92080000I147500J0D01*
G01*
X128962500Y-92080000D01*
G75*
G02*
X129110000Y-92227500I0J-147500D01*
G01*
X129110000Y-92572500D01*
G75*
G02*
X128962500Y-92720000I-147500J0D01*
G01*
X128667500Y-92720000D01*
G75*
G02*
X128520000Y-92572500I0J147500D01*
G01*
G37*
G04 #@! TD.AperFunction*
G04 #@! TA.AperFunction,SMDPad,CuDef*
G36*
G01*
X125795000Y-112852500D02*
X125795000Y-113197500D01*
G75*
G02*
X125647500Y-113345000I-147500J0D01*
G01*
X125352500Y-113345000D01*
G75*
G02*
X125205000Y-113197500I0J147500D01*
G01*
X125205000Y-112852500D01*
G75*
G02*
X125352500Y-112705000I147500J0D01*
G01*
X125647500Y-112705000D01*
G75*
G02*
X125795000Y-112852500I0J-147500D01*
G01*
G37*
G04 #@! TD.AperFunction*
G04 #@! TA.AperFunction,SMDPad,CuDef*
G36*
G01*
X124825000Y-112852500D02*
X124825000Y-113197500D01*
G75*
G02*
X124677500Y-113345000I-147500J0D01*
G01*
X124382500Y-113345000D01*
G75*
G02*
X124235000Y-113197500I0J147500D01*
G01*
X124235000Y-112852500D01*
G75*
G02*
X124382500Y-112705000I147500J0D01*
G01*
X124677500Y-112705000D01*
G75*
G02*
X124825000Y-112852500I0J-147500D01*
G01*
G37*
G04 #@! TD.AperFunction*
G04 #@! TA.AperFunction,SMDPad,CuDef*
G36*
G01*
X124910000Y-108302500D02*
X124910000Y-108647500D01*
G75*
G02*
X124762500Y-108795000I-147500J0D01*
G01*
X124467500Y-108795000D01*
G75*
G02*
X124320000Y-108647500I0J147500D01*
G01*
X124320000Y-108302500D01*
G75*
G02*
X124467500Y-108155000I147500J0D01*
G01*
X124762500Y-108155000D01*
G75*
G02*
X124910000Y-108302500I0J-147500D01*
G01*
G37*
G04 #@! TD.AperFunction*
G04 #@! TA.AperFunction,SMDPad,CuDef*
G36*
G01*
X125880000Y-108302500D02*
X125880000Y-108647500D01*
G75*
G02*
X125732500Y-108795000I-147500J0D01*
G01*
X125437500Y-108795000D01*
G75*
G02*
X125290000Y-108647500I0J147500D01*
G01*
X125290000Y-108302500D01*
G75*
G02*
X125437500Y-108155000I147500J0D01*
G01*
X125732500Y-108155000D01*
G75*
G02*
X125880000Y-108302500I0J-147500D01*
G01*
G37*
G04 #@! TD.AperFunction*
D14*
X125850000Y-104400000D03*
X122550000Y-104400000D03*
D15*
X126500000Y-86500000D03*
X175000000Y-74500000D03*
X175000000Y-136000000D03*
D16*
X166375000Y-125660000D03*
X166375000Y-129340000D03*
X165105000Y-125660000D03*
X165105000Y-129340000D03*
X163835000Y-125660000D03*
X163835000Y-129340000D03*
X162565000Y-125660000D03*
X162565000Y-129340000D03*
X161295000Y-125660000D03*
X161295000Y-129340000D03*
X160025000Y-129340000D03*
X160025000Y-125660000D03*
X160025000Y-133360000D03*
X160025000Y-137040000D03*
X161295000Y-137040000D03*
X161295000Y-133360000D03*
X162565000Y-137040000D03*
X162565000Y-133360000D03*
X163835000Y-137040000D03*
X163835000Y-133360000D03*
X165105000Y-137040000D03*
X165105000Y-133360000D03*
X166375000Y-137040000D03*
X166375000Y-133360000D03*
G04 #@! TA.AperFunction,SMDPad,CuDef*
G36*
G01*
X157650001Y-135500000D02*
X156749999Y-135500000D01*
G75*
G02*
X156500000Y-135250001I0J249999D01*
G01*
X156500000Y-134599999D01*
G75*
G02*
X156749999Y-134350000I249999J0D01*
G01*
X157650001Y-134350000D01*
G75*
G02*
X157900000Y-134599999I0J-249999D01*
G01*
X157900000Y-135250001D01*
G75*
G02*
X157650001Y-135500000I-249999J0D01*
G01*
G37*
G04 #@! TD.AperFunction*
G04 #@! TA.AperFunction,SMDPad,CuDef*
G36*
G01*
X157650001Y-133450000D02*
X156749999Y-133450000D01*
G75*
G02*
X156500000Y-133200001I0J249999D01*
G01*
X156500000Y-132549999D01*
G75*
G02*
X156749999Y-132300000I249999J0D01*
G01*
X157650001Y-132300000D01*
G75*
G02*
X157900000Y-132549999I0J-249999D01*
G01*
X157900000Y-133200001D01*
G75*
G02*
X157650001Y-133450000I-249999J0D01*
G01*
G37*
G04 #@! TD.AperFunction*
D14*
X140100000Y-91475000D03*
X136800000Y-91475000D03*
X133175000Y-112950000D03*
X129875000Y-112950000D03*
D17*
X129630000Y-109530000D03*
X129502000Y-104450000D03*
X129502000Y-101910000D03*
X129502000Y-99370000D03*
X129502000Y-96830000D03*
X137630000Y-96830000D03*
X137630000Y-99370000D03*
X137630000Y-101910000D03*
X137630000Y-104450000D03*
X137630000Y-109530000D03*
D18*
X119400000Y-82200000D03*
X120300000Y-71300000D03*
X121300000Y-75400000D03*
X175300000Y-105000000D03*
X176400000Y-104900000D03*
X176700000Y-121400000D03*
X135000000Y-88400000D03*
X124500000Y-112000000D03*
X129000000Y-112300000D03*
X146800000Y-120600000D03*
X149582053Y-123517947D03*
X168185640Y-116452629D03*
X165200000Y-124200000D03*
X127000000Y-98700000D03*
X123500000Y-104500000D03*
X175200000Y-114700000D03*
X162618761Y-131086265D03*
X175200000Y-112100000D03*
X161200000Y-124100000D03*
X134800000Y-71800000D03*
X175100000Y-109600000D03*
X176400000Y-107400000D03*
X131600000Y-102600000D03*
X160200000Y-123600000D03*
X161400000Y-130600000D03*
X124500000Y-73200000D03*
X137900000Y-71000000D03*
X138000000Y-78500000D03*
X172300000Y-109600000D03*
X175200000Y-107500000D03*
X138000000Y-79700000D03*
X159200000Y-133800000D03*
X169100000Y-132700000D03*
X124400000Y-74300000D03*
X169541292Y-113370609D03*
X124600000Y-72100000D03*
X169181336Y-114820523D03*
X163900000Y-127600000D03*
X135800000Y-75900000D03*
X124400000Y-76500000D03*
X172274990Y-112057161D03*
X124800000Y-77500000D03*
X172300000Y-111000000D03*
X135200000Y-78700000D03*
X175100000Y-110900000D03*
X164100000Y-124100000D03*
X164400000Y-134974990D03*
X131974994Y-91346359D03*
X128887660Y-87812340D03*
X128500000Y-113400000D03*
X163200000Y-131900000D03*
X163900000Y-137025010D03*
X132029325Y-112674990D03*
X147571375Y-119928625D03*
X150500000Y-123100000D03*
X162200000Y-134800000D03*
X134891226Y-113875129D03*
X162700000Y-135800000D03*
X175400000Y-121400000D03*
X127000000Y-105900000D03*
X158200000Y-127500000D03*
X128625010Y-98044751D03*
X165029557Y-132760166D03*
X126900000Y-97000000D03*
X167200000Y-136400000D03*
X157400000Y-136100000D03*
X161600000Y-136100000D03*
X124400000Y-78600000D03*
X134900000Y-79800000D03*
X124600000Y-71000000D03*
X135400000Y-71000000D03*
X137500000Y-93100000D03*
X165201292Y-131775010D03*
X145000000Y-116000000D03*
X159755211Y-131280531D03*
X131962261Y-104924990D03*
X167500000Y-126300000D03*
X175100000Y-113400000D03*
X162912653Y-123912653D03*
D19*
X123000000Y-96000000D02*
X123000000Y-95800000D01*
X123000000Y-95800000D02*
X125700000Y-95800000D01*
X125700000Y-95800000D02*
X125800000Y-95700000D01*
X125800000Y-95700000D02*
X125700000Y-95600000D01*
X125700000Y-95600000D02*
X125700000Y-94500000D01*
X123000000Y-96000000D02*
X123000000Y-93600000D01*
X123000000Y-93600000D02*
X122900000Y-93500000D01*
X123000000Y-100500000D02*
X123000000Y-98000000D01*
X123000000Y-100050000D02*
X123000000Y-100600000D01*
X124530000Y-113025000D02*
X124530000Y-112030000D01*
X124530000Y-112030000D02*
X124500000Y-112000000D01*
X129875000Y-112950000D02*
X129650000Y-112950000D01*
X129650000Y-112950000D02*
X129000000Y-112300000D01*
X165105000Y-125660000D02*
X165105000Y-124295000D01*
X165105000Y-124295000D02*
X165200000Y-124200000D01*
D20*
X126900000Y-98700000D02*
X126525001Y-98325001D01*
X126525001Y-98325001D02*
X125600000Y-98325001D01*
D19*
X126900000Y-98700000D02*
X127000000Y-98700000D01*
D21*
X123400000Y-104400000D02*
X123500000Y-104500000D01*
X122550000Y-104400000D02*
X123400000Y-104400000D01*
D19*
X162565000Y-129340000D02*
X162565000Y-131032504D01*
X162565000Y-131032504D02*
X162618761Y-131086265D01*
X161295000Y-124195000D02*
X161200000Y-124100000D01*
X161295000Y-125660000D02*
X161295000Y-124195000D01*
X129502000Y-101910000D02*
X130910000Y-101910000D01*
X130910000Y-101910000D02*
X131600000Y-102600000D01*
X160025000Y-123775000D02*
X160200000Y-123600000D01*
X160025000Y-125660000D02*
X160025000Y-123775000D01*
X161295000Y-129340000D02*
X161295000Y-130495000D01*
X161295000Y-130495000D02*
X161400000Y-130600000D01*
X160025000Y-133360000D02*
X159640000Y-133360000D01*
X159640000Y-133360000D02*
X159200000Y-133800000D01*
X163835000Y-127665000D02*
X163900000Y-127600000D01*
X163835000Y-129340000D02*
X163835000Y-127665000D01*
X163835000Y-124365000D02*
X164100000Y-124100000D01*
X163835000Y-125660000D02*
X163835000Y-124365000D01*
X165105000Y-135679990D02*
X164400000Y-134974990D01*
X165105000Y-137040000D02*
X165105000Y-135679990D01*
X130199995Y-93121358D02*
X131974994Y-91346359D01*
X128887660Y-88378025D02*
X128887660Y-87812340D01*
X128800000Y-94100000D02*
X128887660Y-94012340D01*
X128815000Y-94000000D02*
X128815000Y-93680000D01*
X128815000Y-93680000D02*
X129373642Y-93121358D01*
X129373642Y-93121358D02*
X130199995Y-93121358D01*
X128887660Y-94012340D02*
X128887660Y-88378025D01*
X128500000Y-113400000D02*
X128100000Y-113000000D01*
X128100000Y-113000000D02*
X125600000Y-113000000D01*
X125600000Y-113000000D02*
X125600000Y-114400000D01*
X163835000Y-133360000D02*
X163835000Y-132272500D01*
X163462500Y-131900000D02*
X163200000Y-131900000D01*
X163835000Y-132272500D02*
X163462500Y-131900000D01*
X127300000Y-111300000D02*
X130654335Y-111300000D01*
X125700000Y-109700000D02*
X127300000Y-111300000D01*
X130654335Y-111300000D02*
X132029325Y-112674990D01*
X125700000Y-107300000D02*
X125700000Y-109700000D01*
X162565000Y-133360000D02*
X162565000Y-134435000D01*
X162565000Y-134435000D02*
X162200000Y-134800000D01*
X162565000Y-137040000D02*
X162565000Y-135935000D01*
X162565000Y-135935000D02*
X162700000Y-135800000D01*
D21*
X125850000Y-104400000D02*
X125850000Y-104750000D01*
X125850000Y-104750000D02*
X127000000Y-105900000D01*
X157200000Y-132875000D02*
X157200000Y-128500000D01*
X157200000Y-128500000D02*
X158200000Y-127500000D01*
D19*
X128305260Y-97725001D02*
X128625010Y-98044751D01*
X125675000Y-97650000D02*
X125750001Y-97725001D01*
X125750001Y-97725001D02*
X128305260Y-97725001D01*
X165105000Y-133360000D02*
X165105000Y-132835609D01*
X165105000Y-132835609D02*
X165029557Y-132760166D01*
X125675000Y-97000000D02*
X126900000Y-97000000D01*
X166560000Y-137040000D02*
X167200000Y-136400000D01*
X166375000Y-137040000D02*
X166560000Y-137040000D01*
D21*
X157200000Y-135900000D02*
X157400000Y-136100000D01*
X157200000Y-134925000D02*
X157200000Y-135900000D01*
X161295000Y-137040000D02*
X161600000Y-136735000D01*
X161600000Y-136735000D02*
X161600000Y-136100000D01*
X129502000Y-96830000D02*
X130370000Y-96830000D01*
X130370000Y-96830000D02*
X135700000Y-91500000D01*
X135700000Y-91500000D02*
X136800000Y-91500000D01*
X136800000Y-91475000D02*
X136800000Y-92400000D01*
X136800000Y-92400000D02*
X137500000Y-93100000D01*
X165105000Y-129340000D02*
X165105000Y-131678718D01*
X165105000Y-131678718D02*
X165201292Y-131775010D01*
X129630000Y-109530000D02*
X129730000Y-109530000D01*
X129630000Y-109530000D02*
X131330000Y-109530000D01*
X131330000Y-109530000D02*
X133200000Y-111400000D01*
X133200000Y-111400000D02*
X133200000Y-112900000D01*
X140862365Y-116000000D02*
X145000000Y-116000000D01*
X133175000Y-112950000D02*
X133224872Y-112900128D01*
X137762493Y-112900128D02*
X140862365Y-116000000D01*
X133224872Y-112900128D02*
X137762493Y-112900128D01*
X161300000Y-133200000D02*
X161300000Y-132259635D01*
X161300000Y-132259635D02*
X160320896Y-131280531D01*
X160320896Y-131280531D02*
X159755211Y-131280531D01*
X166375000Y-129340000D02*
X166375000Y-129025000D01*
X166375000Y-129025000D02*
X167300000Y-128100000D01*
X167300000Y-128100000D02*
X167300000Y-126300000D01*
X167300000Y-126300000D02*
X166500000Y-125500000D01*
X131487271Y-104450000D02*
X131962261Y-104924990D01*
X129502000Y-104450000D02*
X131487271Y-104450000D01*
X166999999Y-132735001D02*
X166999999Y-127299999D01*
X166999999Y-128715001D02*
X166999999Y-127299999D01*
X166375000Y-133360000D02*
X166999999Y-132735001D01*
X166999999Y-127299999D02*
X166999999Y-126800001D01*
X166999999Y-126800001D02*
X167500000Y-126300000D01*
X166375000Y-129340000D02*
X166999999Y-128715001D01*
D19*
X162565000Y-124260306D02*
X162912653Y-123912653D01*
X162565000Y-125660000D02*
X162565000Y-124260306D01*
D22*
G36*
X178290000Y-76294092D02*
G01*
X178290001Y-137290000D01*
X167730971Y-137290000D01*
X167859774Y-137203937D01*
X168003937Y-137059774D01*
X168117205Y-136890256D01*
X168195226Y-136701898D01*
X168235000Y-136501939D01*
X168235000Y-136298061D01*
X168195226Y-136098102D01*
X168117205Y-135909744D01*
X168111045Y-135900524D01*
X173990000Y-135900524D01*
X173990000Y-136099476D01*
X174028814Y-136294606D01*
X174104950Y-136478414D01*
X174215482Y-136643837D01*
X174356163Y-136784518D01*
X174521586Y-136895050D01*
X174705394Y-136971186D01*
X174900524Y-137010000D01*
X175099476Y-137010000D01*
X175294606Y-136971186D01*
X175478414Y-136895050D01*
X175643837Y-136784518D01*
X175784518Y-136643837D01*
X175895050Y-136478414D01*
X175971186Y-136294606D01*
X176010000Y-136099476D01*
X176010000Y-135900524D01*
X175971186Y-135705394D01*
X175895050Y-135521586D01*
X175784518Y-135356163D01*
X175643837Y-135215482D01*
X175478414Y-135104950D01*
X175294606Y-135028814D01*
X175099476Y-134990000D01*
X174900524Y-134990000D01*
X174705394Y-135028814D01*
X174521586Y-135104950D01*
X174356163Y-135215482D01*
X174215482Y-135356163D01*
X174104950Y-135521586D01*
X174028814Y-135705394D01*
X173990000Y-135900524D01*
X168111045Y-135900524D01*
X168003937Y-135740226D01*
X167859774Y-135596063D01*
X167690256Y-135482795D01*
X167501898Y-135404774D01*
X167301939Y-135365000D01*
X167098061Y-135365000D01*
X166898102Y-135404774D01*
X166719432Y-135478782D01*
X166755000Y-135299969D01*
X166755000Y-135100031D01*
X166715994Y-134903935D01*
X166687677Y-134835572D01*
X166745000Y-134835572D01*
X166869482Y-134823312D01*
X166989180Y-134787002D01*
X167099494Y-134728037D01*
X167196185Y-134648685D01*
X167275537Y-134551994D01*
X167334502Y-134441680D01*
X167370812Y-134321982D01*
X167383072Y-134197500D01*
X167383072Y-133780283D01*
X167679088Y-133484266D01*
X167717632Y-133452634D01*
X167843846Y-133298841D01*
X167937631Y-133123381D01*
X167995384Y-132932995D01*
X168009999Y-132784609D01*
X168009999Y-132784607D01*
X168014885Y-132735002D01*
X168009999Y-132685397D01*
X168009999Y-132598061D01*
X168065000Y-132598061D01*
X168065000Y-132801939D01*
X168104774Y-133001898D01*
X168182795Y-133190256D01*
X168296063Y-133359774D01*
X168440226Y-133503937D01*
X168609744Y-133617205D01*
X168798102Y-133695226D01*
X168998061Y-133735000D01*
X169201939Y-133735000D01*
X169401898Y-133695226D01*
X169590256Y-133617205D01*
X169759774Y-133503937D01*
X169903937Y-133359774D01*
X170017205Y-133190256D01*
X170095226Y-133001898D01*
X170135000Y-132801939D01*
X170135000Y-132598061D01*
X170095226Y-132398102D01*
X170017205Y-132209744D01*
X169903937Y-132040226D01*
X169759774Y-131896063D01*
X169590256Y-131782795D01*
X169401898Y-131704774D01*
X169201939Y-131665000D01*
X168998061Y-131665000D01*
X168798102Y-131704774D01*
X168609744Y-131782795D01*
X168440226Y-131896063D01*
X168296063Y-132040226D01*
X168182795Y-132209744D01*
X168104774Y-132398102D01*
X168065000Y-132598061D01*
X168009999Y-132598061D01*
X168009999Y-128823898D01*
X168017633Y-128817633D01*
X168143847Y-128663840D01*
X168237632Y-128488380D01*
X168241389Y-128475994D01*
X168295385Y-128297995D01*
X168314886Y-128100000D01*
X168310000Y-128050392D01*
X168310000Y-126950700D01*
X168417205Y-126790256D01*
X168495226Y-126601898D01*
X168535000Y-126401939D01*
X168535000Y-126198061D01*
X168495226Y-125998102D01*
X168417205Y-125809744D01*
X168303937Y-125640226D01*
X168159774Y-125496063D01*
X167990256Y-125382795D01*
X167801898Y-125304774D01*
X167716054Y-125287699D01*
X167383072Y-124954717D01*
X167383072Y-124822500D01*
X167370812Y-124698018D01*
X167334502Y-124578320D01*
X167275537Y-124468006D01*
X167196185Y-124371315D01*
X167099494Y-124291963D01*
X166989180Y-124232998D01*
X166869482Y-124196688D01*
X166745000Y-124184428D01*
X166005000Y-124184428D01*
X165880518Y-124196688D01*
X165760820Y-124232998D01*
X165740000Y-124244127D01*
X165719180Y-124232998D01*
X165599482Y-124196688D01*
X165475000Y-124184428D01*
X165390750Y-124187500D01*
X165232002Y-124346248D01*
X165232002Y-124187500D01*
X165135000Y-124187500D01*
X165135000Y-123998061D01*
X165095226Y-123798102D01*
X165017205Y-123609744D01*
X164903937Y-123440226D01*
X164759774Y-123296063D01*
X164590256Y-123182795D01*
X164401898Y-123104774D01*
X164201939Y-123065000D01*
X163998061Y-123065000D01*
X163798102Y-123104774D01*
X163635739Y-123172028D01*
X163572427Y-123108716D01*
X163402909Y-122995448D01*
X163214551Y-122917427D01*
X163014592Y-122877653D01*
X162810714Y-122877653D01*
X162610755Y-122917427D01*
X162422397Y-122995448D01*
X162252879Y-123108716D01*
X162108716Y-123252879D01*
X161995448Y-123422397D01*
X161992712Y-123429001D01*
X161859774Y-123296063D01*
X161690256Y-123182795D01*
X161501898Y-123104774D01*
X161301939Y-123065000D01*
X161098061Y-123065000D01*
X161088570Y-123066888D01*
X161003937Y-122940226D01*
X160859774Y-122796063D01*
X160690256Y-122682795D01*
X160501898Y-122604774D01*
X160301939Y-122565000D01*
X160098061Y-122565000D01*
X159898102Y-122604774D01*
X159709744Y-122682795D01*
X159540226Y-122796063D01*
X159396063Y-122940226D01*
X159282795Y-123109744D01*
X159204774Y-123298102D01*
X159165000Y-123498061D01*
X159165000Y-123701939D01*
X159204774Y-123901898D01*
X159265001Y-124047297D01*
X159265001Y-124321101D01*
X159203815Y-124371315D01*
X159124463Y-124468006D01*
X159065498Y-124578320D01*
X159029188Y-124698018D01*
X159016928Y-124822500D01*
X159016928Y-126497500D01*
X159029188Y-126621982D01*
X159065498Y-126741680D01*
X159124463Y-126851994D01*
X159203815Y-126948685D01*
X159300506Y-127028037D01*
X159410820Y-127087002D01*
X159530518Y-127123312D01*
X159655000Y-127135572D01*
X159712323Y-127135572D01*
X159684006Y-127203935D01*
X159645000Y-127400031D01*
X159645000Y-127599969D01*
X159684006Y-127796065D01*
X159713202Y-127866550D01*
X159655000Y-127864428D01*
X159530518Y-127876688D01*
X159410820Y-127912998D01*
X159300506Y-127971963D01*
X159203815Y-128051315D01*
X159124463Y-128148006D01*
X159065498Y-128258320D01*
X159029188Y-128378018D01*
X159016928Y-128502500D01*
X159020000Y-129054250D01*
X159178750Y-129213000D01*
X159898000Y-129213000D01*
X159898000Y-129193000D01*
X160152000Y-129193000D01*
X160152000Y-129213000D01*
X160172000Y-129213000D01*
X160172000Y-129467000D01*
X160152000Y-129467000D01*
X160152000Y-129487000D01*
X159898000Y-129487000D01*
X159898000Y-129467000D01*
X159178750Y-129467000D01*
X159020000Y-129625750D01*
X159016928Y-130177500D01*
X159029188Y-130301982D01*
X159065498Y-130421680D01*
X159095055Y-130476976D01*
X158951274Y-130620757D01*
X158838006Y-130790275D01*
X158759985Y-130978633D01*
X158720211Y-131178592D01*
X158720211Y-131382470D01*
X158759985Y-131582429D01*
X158838006Y-131770787D01*
X158951274Y-131940305D01*
X159095437Y-132084468D01*
X159158461Y-132126579D01*
X159124463Y-132168006D01*
X159065498Y-132278320D01*
X159029188Y-132398018D01*
X159016928Y-132522500D01*
X159016928Y-132781138D01*
X158898102Y-132804774D01*
X158709744Y-132882795D01*
X158540226Y-132996063D01*
X158538072Y-132998217D01*
X158538072Y-132549999D01*
X158521008Y-132376745D01*
X158470472Y-132210149D01*
X158388405Y-132056613D01*
X158277962Y-131922038D01*
X158210000Y-131866263D01*
X158210000Y-128918355D01*
X158753226Y-128375130D01*
X158859774Y-128303937D01*
X159003937Y-128159774D01*
X159117205Y-127990256D01*
X159195226Y-127801898D01*
X159235000Y-127601939D01*
X159235000Y-127398061D01*
X159195226Y-127198102D01*
X159117205Y-127009744D01*
X159003937Y-126840226D01*
X158859774Y-126696063D01*
X158690256Y-126582795D01*
X158501898Y-126504774D01*
X158301939Y-126465000D01*
X158098061Y-126465000D01*
X157898102Y-126504774D01*
X157709744Y-126582795D01*
X157540226Y-126696063D01*
X157396063Y-126840226D01*
X157324870Y-126946774D01*
X156520901Y-127750744D01*
X156482368Y-127782367D01*
X156450745Y-127820900D01*
X156450744Y-127820901D01*
X156356154Y-127936160D01*
X156262368Y-128111621D01*
X156204615Y-128302006D01*
X156185114Y-128500000D01*
X156190001Y-128549618D01*
X156190000Y-131866263D01*
X156122038Y-131922038D01*
X156011595Y-132056613D01*
X155929528Y-132210149D01*
X155878992Y-132376745D01*
X155861928Y-132549999D01*
X155861928Y-133200001D01*
X155878992Y-133373255D01*
X155929528Y-133539851D01*
X156011595Y-133693387D01*
X156122038Y-133827962D01*
X156209816Y-133900000D01*
X156122038Y-133972038D01*
X156011595Y-134106613D01*
X155929528Y-134260149D01*
X155878992Y-134426745D01*
X155861928Y-134599999D01*
X155861928Y-135250001D01*
X155878992Y-135423255D01*
X155929528Y-135589851D01*
X156011595Y-135743387D01*
X156122038Y-135877962D01*
X156188299Y-135932341D01*
X156204615Y-136097994D01*
X156262368Y-136288379D01*
X156356154Y-136463840D01*
X156409628Y-136528998D01*
X156482368Y-136617633D01*
X156520901Y-136649256D01*
X156524868Y-136653223D01*
X156596063Y-136759774D01*
X156740226Y-136903937D01*
X156909744Y-137017205D01*
X157098102Y-137095226D01*
X157298061Y-137135000D01*
X157501939Y-137135000D01*
X157701898Y-137095226D01*
X157890256Y-137017205D01*
X158059774Y-136903937D01*
X158203937Y-136759774D01*
X158317205Y-136590256D01*
X158395226Y-136401898D01*
X158435000Y-136201939D01*
X158435000Y-135998061D01*
X158395226Y-135798102D01*
X158377876Y-135756216D01*
X158388405Y-135743387D01*
X158470472Y-135589851D01*
X158521008Y-135423255D01*
X158538072Y-135250001D01*
X158538072Y-134601783D01*
X158540226Y-134603937D01*
X158709744Y-134717205D01*
X158898102Y-134795226D01*
X159098061Y-134835000D01*
X159301939Y-134835000D01*
X159463264Y-134802911D01*
X159530518Y-134823312D01*
X159655000Y-134835572D01*
X159712323Y-134835572D01*
X159684006Y-134903935D01*
X159645000Y-135100031D01*
X159645000Y-135299969D01*
X159684006Y-135496065D01*
X159713202Y-135566550D01*
X159655000Y-135564428D01*
X159530518Y-135576688D01*
X159410820Y-135612998D01*
X159300506Y-135671963D01*
X159203815Y-135751315D01*
X159124463Y-135848006D01*
X159065498Y-135958320D01*
X159029188Y-136078018D01*
X159016928Y-136202500D01*
X159020000Y-136754250D01*
X159178750Y-136913000D01*
X159898000Y-136913000D01*
X159898000Y-136893000D01*
X160152000Y-136893000D01*
X160152000Y-136913000D01*
X160172000Y-136913000D01*
X160172000Y-137167000D01*
X160152000Y-137167000D01*
X160152000Y-137187000D01*
X159898000Y-137187000D01*
X159898000Y-137167000D01*
X159178750Y-137167000D01*
X159055750Y-137290000D01*
X150710000Y-137290000D01*
X150710000Y-134965123D01*
X150709513Y-134960182D01*
X150702523Y-134459576D01*
X150702449Y-134458337D01*
X150702484Y-134457097D01*
X150700685Y-134417490D01*
X150657478Y-133829117D01*
X152265000Y-133829117D01*
X152265000Y-134170883D01*
X152331675Y-134506081D01*
X152462463Y-134821831D01*
X152652337Y-135105998D01*
X152894002Y-135347663D01*
X153178169Y-135537537D01*
X153493919Y-135668325D01*
X153829117Y-135735000D01*
X154170883Y-135735000D01*
X154506081Y-135668325D01*
X154821831Y-135537537D01*
X155105998Y-135347663D01*
X155347663Y-135105998D01*
X155537537Y-134821831D01*
X155668325Y-134506081D01*
X155735000Y-134170883D01*
X155735000Y-133829117D01*
X155668325Y-133493919D01*
X155537537Y-133178169D01*
X155347663Y-132894002D01*
X155105998Y-132652337D01*
X154821831Y-132462463D01*
X154506081Y-132331675D01*
X154170883Y-132265000D01*
X153829117Y-132265000D01*
X153493919Y-132331675D01*
X153178169Y-132462463D01*
X152894002Y-132652337D01*
X152652337Y-132894002D01*
X152462463Y-133178169D01*
X152331675Y-133493919D01*
X152265000Y-133829117D01*
X150657478Y-133829117D01*
X150574438Y-132698326D01*
X150572971Y-132686020D01*
X150572192Y-132673645D01*
X150566811Y-132634363D01*
X150285270Y-130933716D01*
X150282694Y-130921596D01*
X150280797Y-130909342D01*
X150271878Y-130870709D01*
X149837363Y-129202578D01*
X149833695Y-129190727D01*
X149830698Y-129178708D01*
X149818331Y-129141095D01*
X149818315Y-129141043D01*
X149818307Y-129141024D01*
X149348652Y-127836504D01*
X152340000Y-127836504D01*
X152340000Y-128163496D01*
X152403793Y-128484204D01*
X152528927Y-128786305D01*
X152710594Y-129058188D01*
X152941812Y-129289406D01*
X153213695Y-129471073D01*
X153515796Y-129596207D01*
X153836504Y-129660000D01*
X154163496Y-129660000D01*
X154484204Y-129596207D01*
X154786305Y-129471073D01*
X155058188Y-129289406D01*
X155289406Y-129058188D01*
X155471073Y-128786305D01*
X155596207Y-128484204D01*
X155660000Y-128163496D01*
X155660000Y-127836504D01*
X155596207Y-127515796D01*
X155471073Y-127213695D01*
X155289406Y-126941812D01*
X155058188Y-126710594D01*
X154786305Y-126528927D01*
X154484204Y-126403793D01*
X154163496Y-126340000D01*
X153836504Y-126340000D01*
X153515796Y-126403793D01*
X153213695Y-126528927D01*
X152941812Y-126710594D01*
X152710594Y-126941812D01*
X152528927Y-127213695D01*
X152403793Y-127515796D01*
X152340000Y-127836504D01*
X149348652Y-127836504D01*
X149234400Y-127519159D01*
X149229679Y-127507706D01*
X149225600Y-127495991D01*
X149209874Y-127459653D01*
X149209854Y-127459604D01*
X149209845Y-127459586D01*
X148481347Y-125897316D01*
X148475599Y-125886320D01*
X148470482Y-125875041D01*
X148451503Y-125840230D01*
X147584400Y-124350400D01*
X147577687Y-124339983D01*
X147571562Y-124329201D01*
X147549506Y-124296254D01*
X146626929Y-122998061D01*
X149465000Y-122998061D01*
X149465000Y-123201939D01*
X149504774Y-123401898D01*
X149582795Y-123590256D01*
X149696063Y-123759774D01*
X149840226Y-123903937D01*
X150009744Y-124017205D01*
X150198102Y-124095226D01*
X150398061Y-124135000D01*
X150601939Y-124135000D01*
X150801898Y-124095226D01*
X150990256Y-124017205D01*
X151159774Y-123903937D01*
X151303937Y-123759774D01*
X151417205Y-123590256D01*
X151495226Y-123401898D01*
X151535000Y-123201939D01*
X151535000Y-122998061D01*
X151495226Y-122798102D01*
X151417205Y-122609744D01*
X151303937Y-122440226D01*
X151159774Y-122296063D01*
X150990256Y-122182795D01*
X150801898Y-122104774D01*
X150601939Y-122065000D01*
X150398061Y-122065000D01*
X150198102Y-122104774D01*
X150009744Y-122182795D01*
X149840226Y-122296063D01*
X149696063Y-122440226D01*
X149582795Y-122609744D01*
X149504774Y-122798102D01*
X149465000Y-122998061D01*
X146626929Y-122998061D01*
X146550945Y-122891142D01*
X146543306Y-122881364D01*
X146536238Y-122871195D01*
X146511287Y-122840382D01*
X145389487Y-121531555D01*
X145380997Y-121522514D01*
X145373033Y-121513023D01*
X145345391Y-121484599D01*
X145153570Y-121298061D01*
X174365000Y-121298061D01*
X174365000Y-121501939D01*
X174404774Y-121701898D01*
X174482795Y-121890256D01*
X174596063Y-122059774D01*
X174740226Y-122203937D01*
X174909744Y-122317205D01*
X175098102Y-122395226D01*
X175298061Y-122435000D01*
X175501939Y-122435000D01*
X175701898Y-122395226D01*
X175890256Y-122317205D01*
X176059774Y-122203937D01*
X176203937Y-122059774D01*
X176317205Y-121890256D01*
X176395226Y-121701898D01*
X176435000Y-121501939D01*
X176435000Y-121298061D01*
X176395226Y-121098102D01*
X176317205Y-120909744D01*
X176203937Y-120740226D01*
X176059774Y-120596063D01*
X175890256Y-120482795D01*
X175701898Y-120404774D01*
X175501939Y-120365000D01*
X175298061Y-120365000D01*
X175098102Y-120404774D01*
X174909744Y-120482795D01*
X174740226Y-120596063D01*
X174596063Y-120740226D01*
X174482795Y-120909744D01*
X174404774Y-121098102D01*
X174365000Y-121298061D01*
X145153570Y-121298061D01*
X144109585Y-120282830D01*
X144100321Y-120274605D01*
X144091519Y-120265864D01*
X144061444Y-120240087D01*
X144061416Y-120240062D01*
X144061405Y-120240054D01*
X143550938Y-119826686D01*
X146536375Y-119826686D01*
X146536375Y-120030564D01*
X146576149Y-120230523D01*
X146654170Y-120418881D01*
X146767438Y-120588399D01*
X146911601Y-120732562D01*
X147081119Y-120845830D01*
X147269477Y-120923851D01*
X147469436Y-120963625D01*
X147673314Y-120963625D01*
X147873273Y-120923851D01*
X148061631Y-120845830D01*
X148231149Y-120732562D01*
X148375312Y-120588399D01*
X148488580Y-120418881D01*
X148566601Y-120230523D01*
X148606375Y-120030564D01*
X148606375Y-119826686D01*
X148566601Y-119626727D01*
X148488580Y-119438369D01*
X148375312Y-119268851D01*
X148231149Y-119124688D01*
X148061631Y-119011420D01*
X147873273Y-118933399D01*
X147673314Y-118893625D01*
X147469436Y-118893625D01*
X147269477Y-118933399D01*
X147081119Y-119011420D01*
X146911601Y-119124688D01*
X146767438Y-119268851D01*
X146654170Y-119438369D01*
X146576149Y-119626727D01*
X146536375Y-119826686D01*
X143550938Y-119826686D01*
X142721776Y-119155244D01*
X142711799Y-119147889D01*
X142702248Y-119139987D01*
X142669929Y-119117019D01*
X141237483Y-118158080D01*
X141226875Y-118151656D01*
X141216651Y-118144655D01*
X141182384Y-118124711D01*
X139668923Y-117299545D01*
X139657787Y-117294113D01*
X139646961Y-117288063D01*
X139611027Y-117271307D01*
X138029007Y-116586706D01*
X138017417Y-116582303D01*
X138006094Y-116577262D01*
X137968790Y-116563832D01*
X136331235Y-116025431D01*
X136319302Y-116022099D01*
X136307561Y-116018102D01*
X136269207Y-116008112D01*
X136269193Y-116008108D01*
X136269188Y-116008107D01*
X134589579Y-115620339D01*
X134577377Y-115618100D01*
X134565338Y-115615187D01*
X134526222Y-115608711D01*
X132818377Y-115374765D01*
X132806027Y-115373641D01*
X132793769Y-115371831D01*
X132754227Y-115368927D01*
X131050932Y-115291581D01*
X131034877Y-115290000D01*
X125820571Y-115290000D01*
X125958125Y-115248274D01*
X126093940Y-115175679D01*
X126212983Y-115077983D01*
X126310679Y-114958940D01*
X126383274Y-114823125D01*
X126427977Y-114675757D01*
X126443072Y-114522500D01*
X126443072Y-114177500D01*
X126427977Y-114024243D01*
X126383274Y-113876875D01*
X126360000Y-113833333D01*
X126360000Y-113760000D01*
X127528841Y-113760000D01*
X127582795Y-113890256D01*
X127696063Y-114059774D01*
X127840226Y-114203937D01*
X128009744Y-114317205D01*
X128198102Y-114395226D01*
X128398061Y-114435000D01*
X128601939Y-114435000D01*
X128801898Y-114395226D01*
X128990256Y-114317205D01*
X129159774Y-114203937D01*
X129214110Y-114149601D01*
X129300518Y-114175812D01*
X129425000Y-114188072D01*
X129589250Y-114185000D01*
X129748000Y-114026250D01*
X129748000Y-113077000D01*
X130002000Y-113077000D01*
X130002000Y-114026250D01*
X130160750Y-114185000D01*
X130325000Y-114188072D01*
X130449482Y-114175812D01*
X130569180Y-114139502D01*
X130679494Y-114080537D01*
X130776185Y-114001185D01*
X130855537Y-113904494D01*
X130914502Y-113794180D01*
X130950812Y-113674482D01*
X130963072Y-113550000D01*
X130960000Y-113235750D01*
X130801250Y-113077000D01*
X130002000Y-113077000D01*
X129748000Y-113077000D01*
X129728000Y-113077000D01*
X129728000Y-112823000D01*
X129748000Y-112823000D01*
X129748000Y-112803000D01*
X130002000Y-112803000D01*
X130002000Y-112823000D01*
X130801250Y-112823000D01*
X130951892Y-112672358D01*
X130994325Y-112714792D01*
X130994325Y-112776929D01*
X131034099Y-112976888D01*
X131112120Y-113165246D01*
X131225388Y-113334764D01*
X131369551Y-113478927D01*
X131539069Y-113592195D01*
X131727427Y-113670216D01*
X131927386Y-113709990D01*
X132109959Y-113709990D01*
X132135498Y-113794180D01*
X132194463Y-113904494D01*
X132273815Y-114001185D01*
X132370506Y-114080537D01*
X132480820Y-114139502D01*
X132600518Y-114175812D01*
X132725000Y-114188072D01*
X133625000Y-114188072D01*
X133749482Y-114175812D01*
X133869180Y-114139502D01*
X133886676Y-114130150D01*
X133896000Y-114177027D01*
X133974021Y-114365385D01*
X134087289Y-114534903D01*
X134231452Y-114679066D01*
X134400970Y-114792334D01*
X134589328Y-114870355D01*
X134789287Y-114910129D01*
X134993165Y-114910129D01*
X135193124Y-114870355D01*
X135381482Y-114792334D01*
X135551000Y-114679066D01*
X135695163Y-114534903D01*
X135808431Y-114365385D01*
X135886452Y-114177027D01*
X135926226Y-113977068D01*
X135926226Y-113910128D01*
X137344138Y-113910128D01*
X140113104Y-116679094D01*
X140144732Y-116717633D01*
X140298525Y-116843847D01*
X140364616Y-116879173D01*
X140473985Y-116937632D01*
X140664370Y-116995385D01*
X140862364Y-117014886D01*
X140911972Y-117010000D01*
X144772377Y-117010000D01*
X144898061Y-117035000D01*
X145101939Y-117035000D01*
X145301898Y-116995226D01*
X145490256Y-116917205D01*
X145659774Y-116803937D01*
X145803937Y-116659774D01*
X145917205Y-116490256D01*
X145995226Y-116301898D01*
X146035000Y-116101939D01*
X146035000Y-115898061D01*
X145995226Y-115698102D01*
X145917205Y-115509744D01*
X145803937Y-115340226D01*
X145659774Y-115196063D01*
X145490256Y-115082795D01*
X145311881Y-115008909D01*
X151712350Y-115008909D01*
X151712350Y-115593091D01*
X151826318Y-116166048D01*
X152049875Y-116705762D01*
X152374429Y-117191492D01*
X152787508Y-117604571D01*
X153273238Y-117929125D01*
X153812952Y-118152682D01*
X154385909Y-118266650D01*
X154970091Y-118266650D01*
X155543048Y-118152682D01*
X156082762Y-117929125D01*
X156568492Y-117604571D01*
X156981571Y-117191492D01*
X157306125Y-116705762D01*
X157529682Y-116166048D01*
X157643650Y-115593091D01*
X157643650Y-115008909D01*
X157585901Y-114718584D01*
X168146336Y-114718584D01*
X168146336Y-114922462D01*
X168186110Y-115122421D01*
X168264131Y-115310779D01*
X168377399Y-115480297D01*
X168521562Y-115624460D01*
X168691080Y-115737728D01*
X168879438Y-115815749D01*
X169079397Y-115855523D01*
X169283275Y-115855523D01*
X169483234Y-115815749D01*
X169671592Y-115737728D01*
X169841110Y-115624460D01*
X169985273Y-115480297D01*
X170098541Y-115310779D01*
X170176562Y-115122421D01*
X170216336Y-114922462D01*
X170216336Y-114718584D01*
X170176562Y-114518625D01*
X170098541Y-114330267D01*
X170058252Y-114269971D01*
X170201066Y-114174546D01*
X170345229Y-114030383D01*
X170458497Y-113860865D01*
X170536518Y-113672507D01*
X170576292Y-113472548D01*
X170576292Y-113268670D01*
X170536518Y-113068711D01*
X170458497Y-112880353D01*
X170345229Y-112710835D01*
X170201066Y-112566672D01*
X170031548Y-112453404D01*
X169843190Y-112375383D01*
X169643231Y-112335609D01*
X169439353Y-112335609D01*
X169239394Y-112375383D01*
X169051036Y-112453404D01*
X168881518Y-112566672D01*
X168737355Y-112710835D01*
X168624087Y-112880353D01*
X168546066Y-113068711D01*
X168506292Y-113268670D01*
X168506292Y-113472548D01*
X168546066Y-113672507D01*
X168624087Y-113860865D01*
X168664376Y-113921161D01*
X168521562Y-114016586D01*
X168377399Y-114160749D01*
X168264131Y-114330267D01*
X168186110Y-114518625D01*
X168146336Y-114718584D01*
X157585901Y-114718584D01*
X157529682Y-114435952D01*
X157306125Y-113896238D01*
X156981571Y-113410508D01*
X156568492Y-112997429D01*
X156082762Y-112672875D01*
X155543048Y-112449318D01*
X154970091Y-112335350D01*
X154385909Y-112335350D01*
X153812952Y-112449318D01*
X153273238Y-112672875D01*
X152787508Y-112997429D01*
X152374429Y-113410508D01*
X152049875Y-113896238D01*
X151826318Y-114435952D01*
X151712350Y-115008909D01*
X145311881Y-115008909D01*
X145301898Y-115004774D01*
X145101939Y-114965000D01*
X144898061Y-114965000D01*
X144772377Y-114990000D01*
X141892975Y-114990000D01*
X142105998Y-114847663D01*
X142347663Y-114605998D01*
X142537537Y-114321831D01*
X142668325Y-114006081D01*
X142735000Y-113670883D01*
X142735000Y-113329117D01*
X142668325Y-112993919D01*
X142537537Y-112678169D01*
X142347663Y-112394002D01*
X142105998Y-112152337D01*
X141821831Y-111962463D01*
X141506081Y-111831675D01*
X141170883Y-111765000D01*
X140829117Y-111765000D01*
X140493919Y-111831675D01*
X140178169Y-111962463D01*
X139894002Y-112152337D01*
X139652337Y-112394002D01*
X139462463Y-112678169D01*
X139331675Y-112993919D01*
X139323871Y-113033151D01*
X138511754Y-112221034D01*
X138480126Y-112182495D01*
X138326333Y-112056281D01*
X138150873Y-111962496D01*
X137960487Y-111904743D01*
X137812101Y-111890128D01*
X137762493Y-111885242D01*
X137712885Y-111890128D01*
X134210000Y-111890128D01*
X134210000Y-111449604D01*
X134214886Y-111399999D01*
X134208906Y-111339287D01*
X134195385Y-111202006D01*
X134137632Y-111011620D01*
X134043847Y-110836160D01*
X133917633Y-110682367D01*
X133879094Y-110650739D01*
X133313355Y-110085000D01*
X135491928Y-110085000D01*
X135504188Y-110209482D01*
X135540498Y-110329180D01*
X135599463Y-110439494D01*
X135678815Y-110536185D01*
X135775506Y-110615537D01*
X135885820Y-110674502D01*
X136005518Y-110710812D01*
X136130000Y-110723072D01*
X137344250Y-110720000D01*
X137503000Y-110561250D01*
X137503000Y-109657000D01*
X137757000Y-109657000D01*
X137757000Y-110561250D01*
X137915750Y-110720000D01*
X139130000Y-110723072D01*
X139254482Y-110710812D01*
X139374180Y-110674502D01*
X139484494Y-110615537D01*
X139581185Y-110536185D01*
X139660537Y-110439494D01*
X139719502Y-110329180D01*
X139755812Y-110209482D01*
X139768072Y-110085000D01*
X139765000Y-109815750D01*
X139606250Y-109657000D01*
X137757000Y-109657000D01*
X137503000Y-109657000D01*
X135653750Y-109657000D01*
X135495000Y-109815750D01*
X135491928Y-110085000D01*
X133313355Y-110085000D01*
X132203355Y-108975000D01*
X135491928Y-108975000D01*
X135495000Y-109244250D01*
X135653750Y-109403000D01*
X137503000Y-109403000D01*
X137503000Y-108498750D01*
X137757000Y-108498750D01*
X137757000Y-109403000D01*
X139606250Y-109403000D01*
X139765000Y-109244250D01*
X139768072Y-108975000D01*
X139755812Y-108850518D01*
X139719502Y-108730820D01*
X139660537Y-108620506D01*
X139581185Y-108523815D01*
X139484494Y-108444463D01*
X139374180Y-108385498D01*
X139254482Y-108349188D01*
X139130000Y-108336928D01*
X137915750Y-108340000D01*
X137757000Y-108498750D01*
X137503000Y-108498750D01*
X137344250Y-108340000D01*
X136130000Y-108336928D01*
X136005518Y-108349188D01*
X135885820Y-108385498D01*
X135775506Y-108444463D01*
X135678815Y-108523815D01*
X135599463Y-108620506D01*
X135540498Y-108730820D01*
X135504188Y-108850518D01*
X135491928Y-108975000D01*
X132203355Y-108975000D01*
X132079261Y-108850906D01*
X132047633Y-108812367D01*
X131893840Y-108686153D01*
X131718380Y-108592368D01*
X131610617Y-108559679D01*
X131581185Y-108523815D01*
X131484494Y-108444463D01*
X131374180Y-108385498D01*
X131254482Y-108349188D01*
X131130000Y-108336928D01*
X128130000Y-108336928D01*
X128005518Y-108349188D01*
X127885820Y-108385498D01*
X127775506Y-108444463D01*
X127678815Y-108523815D01*
X127599463Y-108620506D01*
X127540498Y-108730820D01*
X127504188Y-108850518D01*
X127491928Y-108975000D01*
X127491928Y-110085000D01*
X127504188Y-110209482D01*
X127540498Y-110329180D01*
X127599463Y-110439494D01*
X127678815Y-110536185D01*
X127683464Y-110540000D01*
X127614802Y-110540000D01*
X126460000Y-109385199D01*
X126460000Y-108942435D01*
X126502977Y-108800757D01*
X126518072Y-108647500D01*
X126518072Y-108302500D01*
X126502977Y-108149243D01*
X126460000Y-108007565D01*
X126460000Y-107878045D01*
X126475679Y-107858940D01*
X126548274Y-107723125D01*
X126592977Y-107575757D01*
X126608072Y-107422500D01*
X126608072Y-107077500D01*
X126592977Y-106924243D01*
X126567803Y-106841254D01*
X126698102Y-106895226D01*
X126898061Y-106935000D01*
X127101939Y-106935000D01*
X127301898Y-106895226D01*
X127490256Y-106817205D01*
X127659774Y-106703937D01*
X127803937Y-106559774D01*
X127917205Y-106390256D01*
X127995226Y-106201898D01*
X128035000Y-106001939D01*
X128035000Y-105798061D01*
X128004171Y-105643072D01*
X131002000Y-105643072D01*
X131126482Y-105630812D01*
X131186244Y-105612684D01*
X131302487Y-105728927D01*
X131472005Y-105842195D01*
X131660363Y-105920216D01*
X131860322Y-105959990D01*
X132064200Y-105959990D01*
X132264159Y-105920216D01*
X132452517Y-105842195D01*
X132622035Y-105728927D01*
X132766198Y-105584764D01*
X132879466Y-105415246D01*
X132957487Y-105226888D01*
X132997261Y-105026929D01*
X132997261Y-104823051D01*
X132957487Y-104623092D01*
X132879466Y-104434734D01*
X132766198Y-104265216D01*
X132622035Y-104121053D01*
X132515482Y-104049857D01*
X132360625Y-103895000D01*
X135491928Y-103895000D01*
X135491928Y-105005000D01*
X135504188Y-105129482D01*
X135540498Y-105249180D01*
X135599463Y-105359494D01*
X135678815Y-105456185D01*
X135775506Y-105535537D01*
X135885820Y-105594502D01*
X136005518Y-105630812D01*
X136130000Y-105643072D01*
X139130000Y-105643072D01*
X139254482Y-105630812D01*
X139374180Y-105594502D01*
X139484494Y-105535537D01*
X139581185Y-105456185D01*
X139660537Y-105359494D01*
X139719502Y-105249180D01*
X139755812Y-105129482D01*
X139768072Y-105005000D01*
X139768072Y-103895000D01*
X139755812Y-103770518D01*
X139719502Y-103650820D01*
X139660537Y-103540506D01*
X139581185Y-103443815D01*
X139484494Y-103364463D01*
X139374180Y-103305498D01*
X139254482Y-103269188D01*
X139130000Y-103256928D01*
X136130000Y-103256928D01*
X136005518Y-103269188D01*
X135885820Y-103305498D01*
X135775506Y-103364463D01*
X135678815Y-103443815D01*
X135599463Y-103540506D01*
X135540498Y-103650820D01*
X135504188Y-103770518D01*
X135491928Y-103895000D01*
X132360625Y-103895000D01*
X132236532Y-103770907D01*
X132204904Y-103732367D01*
X132051111Y-103606153D01*
X131974447Y-103565175D01*
X132090256Y-103517205D01*
X132259774Y-103403937D01*
X132403937Y-103259774D01*
X132517205Y-103090256D01*
X132595226Y-102901898D01*
X132635000Y-102701939D01*
X132635000Y-102498061D01*
X132595226Y-102298102D01*
X132517205Y-102109744D01*
X132403937Y-101940226D01*
X132259774Y-101796063D01*
X132090256Y-101682795D01*
X131901898Y-101604774D01*
X131701939Y-101565000D01*
X131640072Y-101565000D01*
X131640072Y-101355000D01*
X135491928Y-101355000D01*
X135491928Y-102465000D01*
X135504188Y-102589482D01*
X135540498Y-102709180D01*
X135599463Y-102819494D01*
X135678815Y-102916185D01*
X135775506Y-102995537D01*
X135885820Y-103054502D01*
X136005518Y-103090812D01*
X136130000Y-103103072D01*
X139130000Y-103103072D01*
X139254482Y-103090812D01*
X139374180Y-103054502D01*
X139484494Y-102995537D01*
X139581185Y-102916185D01*
X139660537Y-102819494D01*
X139719502Y-102709180D01*
X139755812Y-102589482D01*
X139768072Y-102465000D01*
X139768072Y-101355000D01*
X139755812Y-101230518D01*
X139719502Y-101110820D01*
X139660537Y-101000506D01*
X139581185Y-100903815D01*
X139484494Y-100824463D01*
X139374180Y-100765498D01*
X139254482Y-100729188D01*
X139130000Y-100716928D01*
X136130000Y-100716928D01*
X136005518Y-100729188D01*
X135885820Y-100765498D01*
X135775506Y-100824463D01*
X135678815Y-100903815D01*
X135599463Y-101000506D01*
X135540498Y-101110820D01*
X135504188Y-101230518D01*
X135491928Y-101355000D01*
X131640072Y-101355000D01*
X131627812Y-101230518D01*
X131591502Y-101110820D01*
X131532537Y-101000506D01*
X131453185Y-100903815D01*
X131356494Y-100824463D01*
X131246180Y-100765498D01*
X131126482Y-100729188D01*
X131002000Y-100716928D01*
X128002000Y-100716928D01*
X127877518Y-100729188D01*
X127757820Y-100765498D01*
X127647506Y-100824463D01*
X127550815Y-100903815D01*
X127471463Y-101000506D01*
X127412498Y-101110820D01*
X127376188Y-101230518D01*
X127363928Y-101355000D01*
X127363928Y-102465000D01*
X127376188Y-102589482D01*
X127412498Y-102709180D01*
X127471463Y-102819494D01*
X127550815Y-102916185D01*
X127647506Y-102995537D01*
X127757820Y-103054502D01*
X127877518Y-103090812D01*
X128002000Y-103103072D01*
X130691358Y-103103072D01*
X130794161Y-103256928D01*
X128002000Y-103256928D01*
X127877518Y-103269188D01*
X127757820Y-103305498D01*
X127647506Y-103364463D01*
X127550815Y-103443815D01*
X127471463Y-103540506D01*
X127412498Y-103650820D01*
X127376188Y-103770518D01*
X127363928Y-103895000D01*
X127363928Y-104835572D01*
X126938072Y-104409717D01*
X126938072Y-103800000D01*
X126925812Y-103675518D01*
X126889502Y-103555820D01*
X126830537Y-103445506D01*
X126751185Y-103348815D01*
X126654494Y-103269463D01*
X126544180Y-103210498D01*
X126424482Y-103174188D01*
X126300000Y-103161928D01*
X125400000Y-103161928D01*
X125275518Y-103174188D01*
X125155820Y-103210498D01*
X125045506Y-103269463D01*
X124948815Y-103348815D01*
X124869463Y-103445506D01*
X124810498Y-103555820D01*
X124774188Y-103675518D01*
X124761928Y-103800000D01*
X124761928Y-105000000D01*
X124774188Y-105124482D01*
X124810498Y-105244180D01*
X124869463Y-105354494D01*
X124948815Y-105451185D01*
X125045506Y-105530537D01*
X125155820Y-105589502D01*
X125275518Y-105625812D01*
X125299854Y-105628209D01*
X125979934Y-106308290D01*
X125975757Y-106307023D01*
X125822500Y-106291928D01*
X125527500Y-106291928D01*
X125374243Y-106307023D01*
X125251316Y-106344312D01*
X125244180Y-106340498D01*
X125124482Y-106304188D01*
X125000000Y-106291928D01*
X124990750Y-106295000D01*
X124832000Y-106453750D01*
X124832000Y-106720237D01*
X124801726Y-106776875D01*
X124757023Y-106924243D01*
X124741928Y-107077500D01*
X124741928Y-107397000D01*
X124578000Y-107397000D01*
X124578000Y-107377000D01*
X123933750Y-107377000D01*
X123775000Y-107535750D01*
X123771928Y-107570000D01*
X123784188Y-107694482D01*
X123809094Y-107776586D01*
X123789463Y-107800506D01*
X123730498Y-107910820D01*
X123694188Y-108030518D01*
X123681928Y-108155000D01*
X123685000Y-108189250D01*
X123843750Y-108348000D01*
X124488000Y-108348000D01*
X124488000Y-108136250D01*
X124577998Y-108046252D01*
X124577998Y-108205000D01*
X124661531Y-108205000D01*
X124651928Y-108302500D01*
X124651928Y-108647500D01*
X124667023Y-108800757D01*
X124711726Y-108948125D01*
X124742000Y-109004763D01*
X124742000Y-109271250D01*
X124900750Y-109430000D01*
X124910000Y-109433072D01*
X124940001Y-109430117D01*
X124940001Y-109662668D01*
X124936324Y-109700000D01*
X124940001Y-109737333D01*
X124947725Y-109815750D01*
X124950998Y-109848985D01*
X124994454Y-109992246D01*
X125065026Y-110124276D01*
X125123941Y-110196063D01*
X125160000Y-110240001D01*
X125188998Y-110263799D01*
X126736200Y-111811002D01*
X126759999Y-111840001D01*
X126875724Y-111934974D01*
X127007753Y-112005546D01*
X127151014Y-112049003D01*
X127262667Y-112060000D01*
X127262675Y-112060000D01*
X127300000Y-112063676D01*
X127337325Y-112060000D01*
X128859990Y-112060000D01*
X128835498Y-112105820D01*
X128799188Y-112225518D01*
X128786928Y-112350000D01*
X128787435Y-112401897D01*
X128601939Y-112365000D01*
X128524227Y-112365000D01*
X128392247Y-112294454D01*
X128248986Y-112250997D01*
X128137333Y-112240000D01*
X128137322Y-112240000D01*
X128100000Y-112236324D01*
X128062678Y-112240000D01*
X126133508Y-112240000D01*
X126083940Y-112199321D01*
X125948125Y-112126726D01*
X125800757Y-112082023D01*
X125647500Y-112066928D01*
X125352500Y-112066928D01*
X125199243Y-112082023D01*
X125076316Y-112119312D01*
X125069180Y-112115498D01*
X124949482Y-112079188D01*
X124825000Y-112066928D01*
X124815750Y-112070000D01*
X124657000Y-112228750D01*
X124657000Y-112495237D01*
X124626726Y-112551875D01*
X124582023Y-112699243D01*
X124566928Y-112852500D01*
X124566928Y-113197500D01*
X124582023Y-113350757D01*
X124626726Y-113498125D01*
X124657000Y-113554763D01*
X124657000Y-113821250D01*
X124663164Y-113827414D01*
X124636726Y-113876875D01*
X124592023Y-114024243D01*
X124576928Y-114177500D01*
X124576928Y-114497000D01*
X124413000Y-114497000D01*
X124413000Y-114477000D01*
X123768750Y-114477000D01*
X123610000Y-114635750D01*
X123606928Y-114670000D01*
X123619188Y-114794482D01*
X123655498Y-114914180D01*
X123714463Y-115024494D01*
X123793815Y-115121185D01*
X123890506Y-115200537D01*
X124000820Y-115259502D01*
X124101358Y-115290000D01*
X122210000Y-115290000D01*
X122210000Y-113345000D01*
X123596928Y-113345000D01*
X123609188Y-113469482D01*
X123645498Y-113589180D01*
X123703052Y-113696854D01*
X123655498Y-113785820D01*
X123619188Y-113905518D01*
X123606928Y-114030000D01*
X123610000Y-114064250D01*
X123768750Y-114223000D01*
X124413000Y-114223000D01*
X124413000Y-113553750D01*
X124403000Y-113543750D01*
X124403000Y-113152000D01*
X123758750Y-113152000D01*
X123600000Y-113310750D01*
X123596928Y-113345000D01*
X122210000Y-113345000D01*
X122210000Y-112705000D01*
X123596928Y-112705000D01*
X123600000Y-112739250D01*
X123758750Y-112898000D01*
X124403000Y-112898000D01*
X124403000Y-112228750D01*
X124244250Y-112070000D01*
X124235000Y-112066928D01*
X124110518Y-112079188D01*
X123990820Y-112115498D01*
X123880506Y-112174463D01*
X123783815Y-112253815D01*
X123704463Y-112350506D01*
X123645498Y-112460820D01*
X123609188Y-112580518D01*
X123596928Y-112705000D01*
X122210000Y-112705000D01*
X122210000Y-110258363D01*
X122435000Y-110258363D01*
X122435000Y-110501637D01*
X122482460Y-110740236D01*
X122575557Y-110964992D01*
X122710713Y-111167267D01*
X122882733Y-111339287D01*
X123085008Y-111474443D01*
X123309764Y-111567540D01*
X123548363Y-111615000D01*
X123791637Y-111615000D01*
X124030236Y-111567540D01*
X124254992Y-111474443D01*
X124457267Y-111339287D01*
X124629287Y-111167267D01*
X124764443Y-110964992D01*
X124857540Y-110740236D01*
X124905000Y-110501637D01*
X124905000Y-110258363D01*
X124857540Y-110019764D01*
X124764443Y-109795008D01*
X124629287Y-109592733D01*
X124457267Y-109420713D01*
X124386094Y-109373156D01*
X124488000Y-109271250D01*
X124488000Y-108602000D01*
X123843750Y-108602000D01*
X123685000Y-108760750D01*
X123681928Y-108795000D01*
X123694188Y-108919482D01*
X123730498Y-109039180D01*
X123787061Y-109145000D01*
X123548363Y-109145000D01*
X123309764Y-109192460D01*
X123085008Y-109285557D01*
X122882733Y-109420713D01*
X122710713Y-109592733D01*
X122575557Y-109795008D01*
X122482460Y-110019764D01*
X122435000Y-110258363D01*
X122210000Y-110258363D01*
X122210000Y-106930000D01*
X123771928Y-106930000D01*
X123775000Y-106964250D01*
X123933750Y-107123000D01*
X124578000Y-107123000D01*
X124578000Y-106453750D01*
X124419250Y-106295000D01*
X124410000Y-106291928D01*
X124285518Y-106304188D01*
X124165820Y-106340498D01*
X124055506Y-106399463D01*
X123958815Y-106478815D01*
X123879463Y-106575506D01*
X123820498Y-106685820D01*
X123784188Y-106805518D01*
X123771928Y-106930000D01*
X122210000Y-106930000D01*
X122210000Y-105638072D01*
X123000000Y-105638072D01*
X123124482Y-105625812D01*
X123244180Y-105589502D01*
X123354494Y-105530537D01*
X123358616Y-105527154D01*
X123398061Y-105535000D01*
X123601939Y-105535000D01*
X123801898Y-105495226D01*
X123990256Y-105417205D01*
X124159774Y-105303937D01*
X124303937Y-105159774D01*
X124417205Y-104990256D01*
X124495226Y-104801898D01*
X124535000Y-104601939D01*
X124535000Y-104398061D01*
X124495226Y-104198102D01*
X124417205Y-104009744D01*
X124303937Y-103840226D01*
X124159774Y-103696063D01*
X124022801Y-103604541D01*
X123963840Y-103556153D01*
X123788380Y-103462368D01*
X123597994Y-103404615D01*
X123488096Y-103393791D01*
X123451185Y-103348815D01*
X123354494Y-103269463D01*
X123244180Y-103210498D01*
X123124482Y-103174188D01*
X123000000Y-103161928D01*
X122210000Y-103161928D01*
X122210000Y-101823444D01*
X122471775Y-101949158D01*
X122764642Y-102024365D01*
X123066553Y-102040991D01*
X123365907Y-101998397D01*
X123651199Y-101898222D01*
X123800792Y-101818261D01*
X123884475Y-101564080D01*
X123758363Y-101437968D01*
X123775000Y-101438072D01*
X123899482Y-101425812D01*
X124019180Y-101389502D01*
X124051716Y-101372111D01*
X124064080Y-101384475D01*
X124318261Y-101300792D01*
X124449158Y-101028225D01*
X124524365Y-100735358D01*
X124540991Y-100433447D01*
X124539666Y-100424128D01*
X124955477Y-100424128D01*
X125015423Y-100658305D01*
X125254551Y-100769602D01*
X125510797Y-100832109D01*
X125774314Y-100843425D01*
X126034976Y-100803114D01*
X126282764Y-100712724D01*
X126384577Y-100658305D01*
X126444523Y-100424128D01*
X125700000Y-99679605D01*
X124955477Y-100424128D01*
X124539666Y-100424128D01*
X124498397Y-100134093D01*
X124398222Y-99848801D01*
X124372873Y-99801377D01*
X124389170Y-99785080D01*
X124396886Y-99834976D01*
X124487276Y-100082764D01*
X124541695Y-100184577D01*
X124775872Y-100244523D01*
X125520395Y-99500000D01*
X125506253Y-99485858D01*
X125685858Y-99306253D01*
X125700000Y-99320395D01*
X125714143Y-99306253D01*
X125893748Y-99485858D01*
X125879605Y-99500000D01*
X126624128Y-100244523D01*
X126858305Y-100184577D01*
X126969602Y-99945449D01*
X127020938Y-99735000D01*
X127101939Y-99735000D01*
X127301898Y-99695226D01*
X127363928Y-99669532D01*
X127363928Y-99925000D01*
X127376188Y-100049482D01*
X127412498Y-100169180D01*
X127471463Y-100279494D01*
X127550815Y-100376185D01*
X127647506Y-100455537D01*
X127757820Y-100514502D01*
X127877518Y-100550812D01*
X128002000Y-100563072D01*
X131002000Y-100563072D01*
X131126482Y-100550812D01*
X131246180Y-100514502D01*
X131356494Y-100455537D01*
X131453185Y-100376185D01*
X131532537Y-100279494D01*
X131591502Y-100169180D01*
X131627812Y-100049482D01*
X131640072Y-99925000D01*
X131640072Y-98815000D01*
X135491928Y-98815000D01*
X135491928Y-99925000D01*
X135504188Y-100049482D01*
X135540498Y-100169180D01*
X135599463Y-100279494D01*
X135678815Y-100376185D01*
X135775506Y-100455537D01*
X135885820Y-100514502D01*
X136005518Y-100550812D01*
X136130000Y-100563072D01*
X139130000Y-100563072D01*
X139254482Y-100550812D01*
X139296911Y-100537941D01*
X140306181Y-100537941D01*
X140307078Y-100552797D01*
X140306624Y-100567676D01*
X140311851Y-100631879D01*
X140462483Y-101815285D01*
X140465337Y-101829893D01*
X140466855Y-101844700D01*
X140480526Y-101907648D01*
X140786348Y-103060737D01*
X140791106Y-103074832D01*
X140794571Y-103089316D01*
X140816448Y-103149902D01*
X141272087Y-104252414D01*
X141278670Y-104265760D01*
X141284018Y-104279654D01*
X141313716Y-104336815D01*
X141911166Y-105369381D01*
X141919458Y-105381743D01*
X141926595Y-105394803D01*
X141963591Y-105447534D01*
X142692357Y-106392015D01*
X142702213Y-106403174D01*
X142711013Y-106415173D01*
X142754658Y-106462548D01*
X143601934Y-107302346D01*
X143613176Y-107312100D01*
X143623489Y-107322834D01*
X143673017Y-107364020D01*
X144623921Y-108084385D01*
X144636361Y-108092571D01*
X144647996Y-108101841D01*
X144702502Y-108136094D01*
X144702536Y-108136116D01*
X144702548Y-108136122D01*
X145740358Y-108724388D01*
X145753764Y-108730853D01*
X145766531Y-108738508D01*
X145825106Y-108765259D01*
X145825124Y-108765268D01*
X145825129Y-108765270D01*
X146931633Y-109211114D01*
X146945774Y-109215748D01*
X146959442Y-109221648D01*
X147021060Y-109240423D01*
X148176814Y-109536011D01*
X148191445Y-109538735D01*
X148205774Y-109542775D01*
X148269334Y-109553235D01*
X149454029Y-109693370D01*
X149468886Y-109694135D01*
X149483629Y-109696245D01*
X149548012Y-109698207D01*
X149548014Y-109698207D01*
X150740835Y-109680427D01*
X150755672Y-109679219D01*
X150770554Y-109679361D01*
X150834634Y-109672791D01*
X152014625Y-109497409D01*
X152029170Y-109494250D01*
X152043942Y-109492422D01*
X152106590Y-109477435D01*
X153253021Y-109147533D01*
X153267014Y-109142480D01*
X153281422Y-109138713D01*
X153341510Y-109115581D01*
X153341536Y-109115572D01*
X153341543Y-109115568D01*
X154434266Y-108636943D01*
X154447473Y-108630081D01*
X154461250Y-108624444D01*
X154517776Y-108593556D01*
X155537603Y-107974613D01*
X155549786Y-107966065D01*
X155562697Y-107958655D01*
X155614641Y-107920562D01*
X156543652Y-107172177D01*
X156554596Y-107162094D01*
X156566416Y-107153040D01*
X156612841Y-107108435D01*
X156612866Y-107108412D01*
X156612873Y-107108404D01*
X157408333Y-106271511D01*
X157413608Y-106267347D01*
X157420704Y-106260424D01*
X157663157Y-106020595D01*
X157889511Y-105870841D01*
X158140644Y-105767903D01*
X158406991Y-105715704D01*
X158678404Y-105716232D01*
X158944540Y-105769468D01*
X159195273Y-105873384D01*
X159431504Y-106031000D01*
X159582580Y-106171383D01*
X159595844Y-106181487D01*
X159696570Y-106285046D01*
X159714855Y-106301449D01*
X159732005Y-106319042D01*
X159737571Y-106323972D01*
X160606763Y-107085722D01*
X160642238Y-107112778D01*
X160677376Y-107140162D01*
X160683559Y-107144291D01*
X161648090Y-107781030D01*
X161686905Y-107803018D01*
X161725439Y-107825383D01*
X161732125Y-107828634D01*
X162774148Y-108328580D01*
X162815566Y-108345088D01*
X162856800Y-108362026D01*
X162863866Y-108364340D01*
X163964100Y-108718242D01*
X164007437Y-108728992D01*
X164050525Y-108740160D01*
X164057840Y-108741494D01*
X164530580Y-108825114D01*
X164133508Y-109090429D01*
X163720429Y-109503508D01*
X163395875Y-109989238D01*
X163172318Y-110528952D01*
X163058350Y-111101909D01*
X163058350Y-111686091D01*
X163172318Y-112259048D01*
X163395875Y-112798762D01*
X163720429Y-113284492D01*
X164133508Y-113697571D01*
X164619238Y-114022125D01*
X165158952Y-114245682D01*
X165731909Y-114359650D01*
X166316091Y-114359650D01*
X166889048Y-114245682D01*
X167428762Y-114022125D01*
X167914492Y-113697571D01*
X168327571Y-113284492D01*
X168652125Y-112798762D01*
X168875682Y-112259048D01*
X168936116Y-111955222D01*
X171239990Y-111955222D01*
X171239990Y-112159100D01*
X171279764Y-112359059D01*
X171357785Y-112547417D01*
X171471053Y-112716935D01*
X171615216Y-112861098D01*
X171784734Y-112974366D01*
X171973092Y-113052387D01*
X172173051Y-113092161D01*
X172376929Y-113092161D01*
X172576888Y-113052387D01*
X172765246Y-112974366D01*
X172934764Y-112861098D01*
X173078927Y-112716935D01*
X173192195Y-112547417D01*
X173270216Y-112359059D01*
X173309990Y-112159100D01*
X173309990Y-111955222D01*
X173270216Y-111755263D01*
X173192195Y-111566905D01*
X173179092Y-111547296D01*
X173217205Y-111490256D01*
X173295226Y-111301898D01*
X173335000Y-111101939D01*
X173335000Y-110898061D01*
X173295226Y-110698102D01*
X173217205Y-110509744D01*
X173103937Y-110340226D01*
X173063711Y-110300000D01*
X173103937Y-110259774D01*
X173217205Y-110090256D01*
X173295226Y-109901898D01*
X173335000Y-109701939D01*
X173335000Y-109498061D01*
X174065000Y-109498061D01*
X174065000Y-109701939D01*
X174104774Y-109901898D01*
X174182795Y-110090256D01*
X174289532Y-110250000D01*
X174182795Y-110409744D01*
X174104774Y-110598102D01*
X174065000Y-110798061D01*
X174065000Y-111001939D01*
X174104774Y-111201898D01*
X174182795Y-111390256D01*
X174296063Y-111559774D01*
X174308125Y-111571836D01*
X174282795Y-111609744D01*
X174204774Y-111798102D01*
X174165000Y-111998061D01*
X174165000Y-112201939D01*
X174204774Y-112401898D01*
X174282795Y-112590256D01*
X174348179Y-112688110D01*
X174296063Y-112740226D01*
X174182795Y-112909744D01*
X174104774Y-113098102D01*
X174065000Y-113298061D01*
X174065000Y-113501939D01*
X174104774Y-113701898D01*
X174182795Y-113890256D01*
X174296063Y-114059774D01*
X174348179Y-114111890D01*
X174282795Y-114209744D01*
X174204774Y-114398102D01*
X174165000Y-114598061D01*
X174165000Y-114801939D01*
X174204774Y-115001898D01*
X174282795Y-115190256D01*
X174396063Y-115359774D01*
X174540226Y-115503937D01*
X174709744Y-115617205D01*
X174898102Y-115695226D01*
X175098061Y-115735000D01*
X175301939Y-115735000D01*
X175501898Y-115695226D01*
X175690256Y-115617205D01*
X175859774Y-115503937D01*
X176003937Y-115359774D01*
X176117205Y-115190256D01*
X176195226Y-115001898D01*
X176235000Y-114801939D01*
X176235000Y-114598061D01*
X176195226Y-114398102D01*
X176117205Y-114209744D01*
X176003937Y-114040226D01*
X175951821Y-113988110D01*
X176017205Y-113890256D01*
X176095226Y-113701898D01*
X176135000Y-113501939D01*
X176135000Y-113298061D01*
X176095226Y-113098102D01*
X176017205Y-112909744D01*
X175951821Y-112811890D01*
X176003937Y-112759774D01*
X176117205Y-112590256D01*
X176195226Y-112401898D01*
X176235000Y-112201939D01*
X176235000Y-111998061D01*
X176195226Y-111798102D01*
X176117205Y-111609744D01*
X176003937Y-111440226D01*
X175991875Y-111428164D01*
X176017205Y-111390256D01*
X176095226Y-111201898D01*
X176135000Y-111001939D01*
X176135000Y-110798061D01*
X176095226Y-110598102D01*
X176017205Y-110409744D01*
X175910468Y-110250000D01*
X176017205Y-110090256D01*
X176095226Y-109901898D01*
X176135000Y-109701939D01*
X176135000Y-109498061D01*
X176095226Y-109298102D01*
X176017205Y-109109744D01*
X175903937Y-108940226D01*
X175759774Y-108796063D01*
X175590256Y-108682795D01*
X175401898Y-108604774D01*
X175201939Y-108565000D01*
X174998061Y-108565000D01*
X174798102Y-108604774D01*
X174609744Y-108682795D01*
X174440226Y-108796063D01*
X174296063Y-108940226D01*
X174182795Y-109109744D01*
X174104774Y-109298102D01*
X174065000Y-109498061D01*
X173335000Y-109498061D01*
X173295226Y-109298102D01*
X173217205Y-109109744D01*
X173103937Y-108940226D01*
X172959774Y-108796063D01*
X172790256Y-108682795D01*
X172601898Y-108604774D01*
X172401939Y-108565000D01*
X172198061Y-108565000D01*
X171998102Y-108604774D01*
X171809744Y-108682795D01*
X171640226Y-108796063D01*
X171496063Y-108940226D01*
X171382795Y-109109744D01*
X171304774Y-109298102D01*
X171265000Y-109498061D01*
X171265000Y-109701939D01*
X171304774Y-109901898D01*
X171382795Y-110090256D01*
X171496063Y-110259774D01*
X171536289Y-110300000D01*
X171496063Y-110340226D01*
X171382795Y-110509744D01*
X171304774Y-110698102D01*
X171265000Y-110898061D01*
X171265000Y-111101939D01*
X171304774Y-111301898D01*
X171382795Y-111490256D01*
X171395898Y-111509865D01*
X171357785Y-111566905D01*
X171279764Y-111755263D01*
X171239990Y-111955222D01*
X168936116Y-111955222D01*
X168989650Y-111686091D01*
X168989650Y-111101909D01*
X168875682Y-110528952D01*
X168652125Y-109989238D01*
X168327571Y-109503508D01*
X167914492Y-109090429D01*
X167615640Y-108890743D01*
X167693661Y-108883135D01*
X167737687Y-108875792D01*
X167781684Y-108868927D01*
X167788927Y-108867246D01*
X168913357Y-108600011D01*
X168955969Y-108586764D01*
X168998638Y-108573988D01*
X169005571Y-108571344D01*
X169005585Y-108571340D01*
X169005597Y-108571334D01*
X170083344Y-108153974D01*
X170123770Y-108135063D01*
X170164303Y-108116618D01*
X170170827Y-108113051D01*
X171181971Y-107553279D01*
X171219422Y-107529079D01*
X171257113Y-107505281D01*
X171263092Y-107500862D01*
X171400663Y-107398061D01*
X174165000Y-107398061D01*
X174165000Y-107601939D01*
X174204774Y-107801898D01*
X174282795Y-107990256D01*
X174396063Y-108159774D01*
X174540226Y-108303937D01*
X174709744Y-108417205D01*
X174898102Y-108495226D01*
X175098061Y-108535000D01*
X175301939Y-108535000D01*
X175501898Y-108495226D01*
X175690256Y-108417205D01*
X175859774Y-108303937D01*
X175871836Y-108291875D01*
X175909744Y-108317205D01*
X176098102Y-108395226D01*
X176298061Y-108435000D01*
X176501939Y-108435000D01*
X176701898Y-108395226D01*
X176890256Y-108317205D01*
X177059774Y-108203937D01*
X177203937Y-108059774D01*
X177317205Y-107890256D01*
X177395226Y-107701898D01*
X177435000Y-107501939D01*
X177435000Y-107298061D01*
X177395226Y-107098102D01*
X177317205Y-106909744D01*
X177203937Y-106740226D01*
X177059774Y-106596063D01*
X176890256Y-106482795D01*
X176701898Y-106404774D01*
X176501939Y-106365000D01*
X176298061Y-106365000D01*
X176098102Y-106404774D01*
X175909744Y-106482795D01*
X175740226Y-106596063D01*
X175728164Y-106608125D01*
X175690256Y-106582795D01*
X175501898Y-106504774D01*
X175301939Y-106465000D01*
X175098061Y-106465000D01*
X174898102Y-106504774D01*
X174709744Y-106582795D01*
X174540226Y-106696063D01*
X174396063Y-106840226D01*
X174282795Y-107009744D01*
X174204774Y-107198102D01*
X174165000Y-107398061D01*
X171400663Y-107398061D01*
X172188911Y-106809040D01*
X172222773Y-106779946D01*
X172256842Y-106751289D01*
X172262159Y-106746106D01*
X172262167Y-106746099D01*
X172262174Y-106746091D01*
X173085530Y-105935030D01*
X173115152Y-105901584D01*
X173144995Y-105868593D01*
X173149566Y-105862729D01*
X173855235Y-104947422D01*
X173880019Y-104910303D01*
X173905133Y-104873530D01*
X173908866Y-104867099D01*
X174483786Y-103864489D01*
X174503284Y-103824389D01*
X174523195Y-103784509D01*
X174526020Y-103777631D01*
X174959550Y-102706273D01*
X174973443Y-102663843D01*
X174987739Y-102621684D01*
X174989605Y-102614487D01*
X175273724Y-101494204D01*
X175281719Y-101450342D01*
X175290173Y-101406572D01*
X175291044Y-101399188D01*
X175420495Y-100250710D01*
X175422462Y-100206206D01*
X175424899Y-100161656D01*
X175424760Y-100154222D01*
X175397146Y-98998802D01*
X175393051Y-98954399D01*
X175389423Y-98909976D01*
X175388277Y-98902630D01*
X175204111Y-97761647D01*
X175194017Y-97718165D01*
X175184404Y-97674690D01*
X175182275Y-97667582D01*
X175182272Y-97667567D01*
X175182267Y-97667554D01*
X174844959Y-96562135D01*
X174829067Y-96520449D01*
X174813633Y-96478657D01*
X174810554Y-96471889D01*
X174326340Y-95422465D01*
X174304929Y-95383307D01*
X174283974Y-95344010D01*
X174280005Y-95337723D01*
X174274508Y-95329117D01*
X174765000Y-95329117D01*
X174765000Y-95670883D01*
X174831675Y-96006081D01*
X174962463Y-96321831D01*
X175152337Y-96605998D01*
X175394002Y-96847663D01*
X175678169Y-97037537D01*
X175993919Y-97168325D01*
X176329117Y-97235000D01*
X176670883Y-97235000D01*
X177006081Y-97168325D01*
X177321831Y-97037537D01*
X177605998Y-96847663D01*
X177847663Y-96605998D01*
X178037537Y-96321831D01*
X178168325Y-96006081D01*
X178235000Y-95670883D01*
X178235000Y-95329117D01*
X178168325Y-94993919D01*
X178037537Y-94678169D01*
X177847663Y-94394002D01*
X177605998Y-94152337D01*
X177321831Y-93962463D01*
X177006081Y-93831675D01*
X176670883Y-93765000D01*
X176329117Y-93765000D01*
X175993919Y-93831675D01*
X175678169Y-93962463D01*
X175394002Y-94152337D01*
X175152337Y-94394002D01*
X174962463Y-94678169D01*
X174831675Y-94993919D01*
X174765000Y-95329117D01*
X174274508Y-95329117D01*
X173657846Y-94363722D01*
X173631328Y-94327844D01*
X173605225Y-94291743D01*
X173600439Y-94286053D01*
X172851850Y-93405501D01*
X172820720Y-93373566D01*
X172789947Y-93341329D01*
X172784433Y-93336342D01*
X171923266Y-92565532D01*
X171888104Y-92538128D01*
X171853227Y-92510355D01*
X171847087Y-92506162D01*
X170889276Y-91859357D01*
X170850708Y-91836972D01*
X170812396Y-91814196D01*
X170805744Y-91810875D01*
X169769013Y-91300045D01*
X169727750Y-91283096D01*
X169686716Y-91265736D01*
X169679675Y-91263348D01*
X168583209Y-90897944D01*
X168540045Y-90886756D01*
X168497016Y-90875121D01*
X168489716Y-90873711D01*
X167353804Y-90660497D01*
X167309484Y-90655266D01*
X167265312Y-90649583D01*
X167257888Y-90649176D01*
X166103549Y-90592094D01*
X166058924Y-90592927D01*
X166014394Y-90593291D01*
X166006983Y-90593896D01*
X164855577Y-90694005D01*
X164811481Y-90700886D01*
X164767411Y-90707291D01*
X164760153Y-90708895D01*
X164760147Y-90708897D01*
X163632984Y-90964341D01*
X163590291Y-90977124D01*
X163547435Y-90989469D01*
X163540460Y-90992045D01*
X162458390Y-91398102D01*
X162417774Y-91416585D01*
X162377044Y-91434608D01*
X162370483Y-91438106D01*
X161353533Y-91987259D01*
X161315807Y-92011079D01*
X161277892Y-92034468D01*
X161271867Y-92038824D01*
X160338854Y-92720913D01*
X160304705Y-92749637D01*
X160270321Y-92777950D01*
X160264952Y-92783076D01*
X160264943Y-92783083D01*
X160264936Y-92783091D01*
X159439178Y-93579654D01*
X159194350Y-93804852D01*
X158962632Y-93946341D01*
X158707855Y-94040123D01*
X158439710Y-94082635D01*
X158168414Y-94072253D01*
X157904298Y-94009374D01*
X157657432Y-93896395D01*
X157436113Y-93736825D01*
X157212365Y-93498756D01*
X157209465Y-93496219D01*
X157203178Y-93489162D01*
X156685928Y-92959039D01*
X156681507Y-92955071D01*
X156677566Y-92950610D01*
X156629806Y-92907386D01*
X155709903Y-92147834D01*
X155697823Y-92139139D01*
X155686580Y-92129384D01*
X155633523Y-92092856D01*
X154621245Y-91461640D01*
X154608121Y-91454619D01*
X154595687Y-91446437D01*
X154538265Y-91417247D01*
X153451398Y-90925456D01*
X153437466Y-90920234D01*
X153424054Y-90913766D01*
X153363276Y-90892427D01*
X152220912Y-90548701D01*
X152206406Y-90545367D01*
X152192262Y-90540731D01*
X152129196Y-90527618D01*
X150951409Y-90337996D01*
X150936587Y-90336609D01*
X150921955Y-90333885D01*
X150857709Y-90329227D01*
X149665189Y-90297041D01*
X149650310Y-90297627D01*
X149635451Y-90296862D01*
X149571153Y-90300743D01*
X148384852Y-90426558D01*
X148370195Y-90429104D01*
X148355352Y-90430312D01*
X148292140Y-90442661D01*
X148292131Y-90442663D01*
X148292128Y-90442664D01*
X147132892Y-90724268D01*
X147118692Y-90728733D01*
X147104146Y-90731892D01*
X147043115Y-90752495D01*
X145931302Y-91184944D01*
X145917814Y-91191249D01*
X145903818Y-91196303D01*
X145846047Y-91224797D01*
X144801196Y-91800492D01*
X144788667Y-91808521D01*
X144775456Y-91815385D01*
X144721962Y-91851269D01*
X143762428Y-92560094D01*
X143751070Y-92569710D01*
X143738883Y-92578261D01*
X143690605Y-92620905D01*
X142833246Y-93450408D01*
X142823255Y-93461447D01*
X142812311Y-93471530D01*
X142770096Y-93520185D01*
X142029977Y-94455792D01*
X142021536Y-94468052D01*
X142012019Y-94479497D01*
X141976625Y-94533285D01*
X141976610Y-94533307D01*
X141976607Y-94533314D01*
X141366732Y-95558582D01*
X141359985Y-95571854D01*
X141352068Y-95584453D01*
X141324087Y-95642474D01*
X140855165Y-96739402D01*
X140850234Y-96753447D01*
X140844051Y-96766985D01*
X140823989Y-96828197D01*
X140504262Y-97977508D01*
X140501233Y-97992077D01*
X140496893Y-98006319D01*
X140485104Y-98069646D01*
X140320190Y-99251147D01*
X140319114Y-99265994D01*
X140316697Y-99280678D01*
X140313386Y-99345009D01*
X140306181Y-100537941D01*
X139296911Y-100537941D01*
X139374180Y-100514502D01*
X139484494Y-100455537D01*
X139581185Y-100376185D01*
X139660537Y-100279494D01*
X139719502Y-100169180D01*
X139755812Y-100049482D01*
X139768072Y-99925000D01*
X139768072Y-98815000D01*
X139755812Y-98690518D01*
X139719502Y-98570820D01*
X139660537Y-98460506D01*
X139581185Y-98363815D01*
X139484494Y-98284463D01*
X139374180Y-98225498D01*
X139254482Y-98189188D01*
X139130000Y-98176928D01*
X136130000Y-98176928D01*
X136005518Y-98189188D01*
X135885820Y-98225498D01*
X135775506Y-98284463D01*
X135678815Y-98363815D01*
X135599463Y-98460506D01*
X135540498Y-98570820D01*
X135504188Y-98690518D01*
X135491928Y-98815000D01*
X131640072Y-98815000D01*
X131627812Y-98690518D01*
X131591502Y-98570820D01*
X131532537Y-98460506D01*
X131453185Y-98363815D01*
X131356494Y-98284463D01*
X131246180Y-98225498D01*
X131126482Y-98189188D01*
X131002000Y-98176928D01*
X129653995Y-98176928D01*
X129660010Y-98146690D01*
X129660010Y-98023072D01*
X131002000Y-98023072D01*
X131126482Y-98010812D01*
X131246180Y-97974502D01*
X131356494Y-97915537D01*
X131453185Y-97836185D01*
X131532537Y-97739494D01*
X131591502Y-97629180D01*
X131627812Y-97509482D01*
X131640072Y-97385000D01*
X135491928Y-97385000D01*
X135504188Y-97509482D01*
X135540498Y-97629180D01*
X135599463Y-97739494D01*
X135678815Y-97836185D01*
X135775506Y-97915537D01*
X135885820Y-97974502D01*
X136005518Y-98010812D01*
X136130000Y-98023072D01*
X137344250Y-98020000D01*
X137503000Y-97861250D01*
X137503000Y-96957000D01*
X137757000Y-96957000D01*
X137757000Y-97861250D01*
X137915750Y-98020000D01*
X139130000Y-98023072D01*
X139254482Y-98010812D01*
X139374180Y-97974502D01*
X139484494Y-97915537D01*
X139581185Y-97836185D01*
X139660537Y-97739494D01*
X139719502Y-97629180D01*
X139755812Y-97509482D01*
X139768072Y-97385000D01*
X139765000Y-97115750D01*
X139606250Y-96957000D01*
X137757000Y-96957000D01*
X137503000Y-96957000D01*
X135653750Y-96957000D01*
X135495000Y-97115750D01*
X135491928Y-97385000D01*
X131640072Y-97385000D01*
X131640072Y-96988283D01*
X134160000Y-94468355D01*
X134160000Y-94721260D01*
X134217068Y-95008158D01*
X134329010Y-95278411D01*
X134491525Y-95521632D01*
X134698368Y-95728475D01*
X134941589Y-95890990D01*
X135211842Y-96002932D01*
X135498740Y-96060000D01*
X135531646Y-96060000D01*
X135504188Y-96150518D01*
X135491928Y-96275000D01*
X135495000Y-96544250D01*
X135653750Y-96703000D01*
X137503000Y-96703000D01*
X137503000Y-95798750D01*
X137757000Y-95798750D01*
X137757000Y-96703000D01*
X139606250Y-96703000D01*
X139765000Y-96544250D01*
X139768072Y-96275000D01*
X139755812Y-96150518D01*
X139719502Y-96030820D01*
X139660537Y-95920506D01*
X139581185Y-95823815D01*
X139484494Y-95744463D01*
X139374180Y-95685498D01*
X139254482Y-95649188D01*
X139130000Y-95636928D01*
X137915750Y-95640000D01*
X137757000Y-95798750D01*
X137503000Y-95798750D01*
X137344250Y-95640000D01*
X136681783Y-95638324D01*
X136798475Y-95521632D01*
X136960990Y-95278411D01*
X137072932Y-95008158D01*
X137130000Y-94721260D01*
X137130000Y-94428740D01*
X137072932Y-94141842D01*
X137023700Y-94022986D01*
X137198102Y-94095226D01*
X137398061Y-94135000D01*
X137601939Y-94135000D01*
X137801898Y-94095226D01*
X137990256Y-94017205D01*
X138159774Y-93903937D01*
X138303937Y-93759774D01*
X138417205Y-93590256D01*
X138495226Y-93401898D01*
X138535000Y-93201939D01*
X138535000Y-92998061D01*
X138495226Y-92798102D01*
X138417205Y-92609744D01*
X138303937Y-92440226D01*
X138159774Y-92296063D01*
X138053226Y-92224870D01*
X137903356Y-92075000D01*
X139011928Y-92075000D01*
X139024188Y-92199482D01*
X139060498Y-92319180D01*
X139119463Y-92429494D01*
X139198815Y-92526185D01*
X139295506Y-92605537D01*
X139405820Y-92664502D01*
X139525518Y-92700812D01*
X139650000Y-92713072D01*
X139814250Y-92710000D01*
X139973000Y-92551250D01*
X139973000Y-91602000D01*
X140227000Y-91602000D01*
X140227000Y-92551250D01*
X140385750Y-92710000D01*
X140550000Y-92713072D01*
X140674482Y-92700812D01*
X140794180Y-92664502D01*
X140904494Y-92605537D01*
X141001185Y-92526185D01*
X141080537Y-92429494D01*
X141139502Y-92319180D01*
X141175812Y-92199482D01*
X141188072Y-92075000D01*
X141185000Y-91760750D01*
X141026250Y-91602000D01*
X140227000Y-91602000D01*
X139973000Y-91602000D01*
X139173750Y-91602000D01*
X139015000Y-91760750D01*
X139011928Y-92075000D01*
X137903356Y-92075000D01*
X137888072Y-92059716D01*
X137888072Y-90875000D01*
X139011928Y-90875000D01*
X139015000Y-91189250D01*
X139173750Y-91348000D01*
X139973000Y-91348000D01*
X139973000Y-90398750D01*
X140227000Y-90398750D01*
X140227000Y-91348000D01*
X141026250Y-91348000D01*
X141185000Y-91189250D01*
X141188072Y-90875000D01*
X141175812Y-90750518D01*
X141139502Y-90630820D01*
X141080537Y-90520506D01*
X141001185Y-90423815D01*
X140904494Y-90344463D01*
X140794180Y-90285498D01*
X140674482Y-90249188D01*
X140550000Y-90236928D01*
X140385750Y-90240000D01*
X140227000Y-90398750D01*
X139973000Y-90398750D01*
X139814250Y-90240000D01*
X139650000Y-90236928D01*
X139525518Y-90249188D01*
X139405820Y-90285498D01*
X139295506Y-90344463D01*
X139198815Y-90423815D01*
X139119463Y-90520506D01*
X139060498Y-90630820D01*
X139024188Y-90750518D01*
X139011928Y-90875000D01*
X137888072Y-90875000D01*
X137875812Y-90750518D01*
X137839502Y-90630820D01*
X137780537Y-90520506D01*
X137701185Y-90423815D01*
X137604494Y-90344463D01*
X137494180Y-90285498D01*
X137374482Y-90249188D01*
X137250000Y-90236928D01*
X136350000Y-90236928D01*
X136225518Y-90249188D01*
X136105820Y-90285498D01*
X135995506Y-90344463D01*
X135898815Y-90423815D01*
X135844499Y-90490000D01*
X135749604Y-90490000D01*
X135699999Y-90485114D01*
X135650394Y-90490000D01*
X135650392Y-90490000D01*
X135502006Y-90504615D01*
X135311620Y-90562368D01*
X135136160Y-90656153D01*
X134982367Y-90782367D01*
X134950739Y-90820906D01*
X130134717Y-95636928D01*
X128002000Y-95636928D01*
X127877518Y-95649188D01*
X127757820Y-95685498D01*
X127647506Y-95744463D01*
X127550815Y-95823815D01*
X127471463Y-95920506D01*
X127412498Y-96030820D01*
X127395640Y-96086393D01*
X127390256Y-96082795D01*
X127201898Y-96004774D01*
X127001939Y-95965000D01*
X126984096Y-95965000D01*
X126985000Y-95956750D01*
X126952753Y-95924503D01*
X126939502Y-95880820D01*
X126880537Y-95770506D01*
X126801185Y-95673815D01*
X126713678Y-95602000D01*
X126826250Y-95602000D01*
X126985000Y-95443250D01*
X126973741Y-95340526D01*
X126935521Y-95221424D01*
X126884186Y-95128971D01*
X126969602Y-94945449D01*
X127032109Y-94689203D01*
X127043425Y-94425686D01*
X127003114Y-94165024D01*
X126912724Y-93917236D01*
X126858305Y-93815423D01*
X126624128Y-93755477D01*
X125879605Y-94500000D01*
X125893748Y-94514143D01*
X125714143Y-94693748D01*
X125700000Y-94679605D01*
X125685858Y-94693748D01*
X125506253Y-94514143D01*
X125520395Y-94500000D01*
X124775872Y-93755477D01*
X124541695Y-93815423D01*
X124457167Y-93997036D01*
X124524365Y-93735358D01*
X124533147Y-93575872D01*
X124955477Y-93575872D01*
X125700000Y-94320395D01*
X126444523Y-93575872D01*
X126384577Y-93341695D01*
X126145449Y-93230398D01*
X125889203Y-93167891D01*
X125625686Y-93156575D01*
X125365024Y-93196886D01*
X125117236Y-93287276D01*
X125015423Y-93341695D01*
X124955477Y-93575872D01*
X124533147Y-93575872D01*
X124540991Y-93433447D01*
X124498397Y-93134093D01*
X124398222Y-92848801D01*
X124318261Y-92699208D01*
X124064080Y-92615525D01*
X124051716Y-92627889D01*
X124019180Y-92610498D01*
X123899482Y-92574188D01*
X123775000Y-92561928D01*
X123758363Y-92562032D01*
X123884475Y-92435920D01*
X123800792Y-92181739D01*
X123528225Y-92050842D01*
X123235358Y-91975635D01*
X122933447Y-91959009D01*
X122634093Y-92001603D01*
X122348801Y-92101778D01*
X122210000Y-92175970D01*
X122210000Y-87710401D01*
X127852660Y-87710401D01*
X127852660Y-87914279D01*
X127892434Y-88114238D01*
X127970455Y-88302596D01*
X128083723Y-88472114D01*
X128127661Y-88516052D01*
X128127660Y-91659179D01*
X128112017Y-91672017D01*
X128014321Y-91791060D01*
X127941726Y-91926875D01*
X127897023Y-92074243D01*
X127881928Y-92227500D01*
X127881928Y-92572500D01*
X127897023Y-92725757D01*
X127941726Y-92873125D01*
X128014321Y-93008940D01*
X128112017Y-93127983D01*
X128127660Y-93140821D01*
X128127660Y-93259179D01*
X128112017Y-93272017D01*
X128014321Y-93391060D01*
X127941726Y-93526875D01*
X127897023Y-93674243D01*
X127881928Y-93827500D01*
X127881928Y-94172500D01*
X127897023Y-94325757D01*
X127941726Y-94473125D01*
X128014321Y-94608940D01*
X128112017Y-94727983D01*
X128231060Y-94825679D01*
X128366875Y-94898274D01*
X128514243Y-94942977D01*
X128667500Y-94958072D01*
X128962500Y-94958072D01*
X129115757Y-94942977D01*
X129238684Y-94905688D01*
X129245820Y-94909502D01*
X129365518Y-94945812D01*
X129490000Y-94958072D01*
X129499250Y-94955000D01*
X129658000Y-94796250D01*
X129658000Y-94529763D01*
X129688274Y-94473125D01*
X129732977Y-94325757D01*
X129748072Y-94172500D01*
X129748072Y-94127000D01*
X129912000Y-94127000D01*
X129912000Y-94796250D01*
X130070750Y-94955000D01*
X130080000Y-94958072D01*
X130204482Y-94945812D01*
X130324180Y-94909502D01*
X130434494Y-94850537D01*
X130531185Y-94771185D01*
X130610537Y-94674494D01*
X130669502Y-94564180D01*
X130705812Y-94444482D01*
X130718072Y-94320000D01*
X130715000Y-94285750D01*
X130556250Y-94127000D01*
X129912000Y-94127000D01*
X129748072Y-94127000D01*
X129748072Y-93881358D01*
X130162673Y-93881358D01*
X130199995Y-93885034D01*
X130237317Y-93881358D01*
X130237328Y-93881358D01*
X130322187Y-93873000D01*
X130556250Y-93873000D01*
X130715000Y-93714250D01*
X130718072Y-93680000D01*
X130718013Y-93679400D01*
X130739996Y-93661359D01*
X130763799Y-93632355D01*
X132014796Y-92381359D01*
X132076933Y-92381359D01*
X132276892Y-92341585D01*
X132465250Y-92263564D01*
X132634768Y-92150296D01*
X132778931Y-92006133D01*
X132892199Y-91836615D01*
X132970220Y-91648257D01*
X133009994Y-91448298D01*
X133009994Y-91244420D01*
X132970220Y-91044461D01*
X132892199Y-90856103D01*
X132778931Y-90686585D01*
X132634768Y-90542422D01*
X132465250Y-90429154D01*
X132276892Y-90351133D01*
X132076933Y-90311359D01*
X131873055Y-90311359D01*
X131673096Y-90351133D01*
X131484738Y-90429154D01*
X131315220Y-90542422D01*
X131171057Y-90686585D01*
X131057789Y-90856103D01*
X130979768Y-91044461D01*
X130939994Y-91244420D01*
X130939994Y-91306557D01*
X130570198Y-91676353D01*
X130531185Y-91628815D01*
X130434494Y-91549463D01*
X130324180Y-91490498D01*
X130204482Y-91454188D01*
X130080000Y-91441928D01*
X130070750Y-91445000D01*
X129912000Y-91603750D01*
X129912000Y-92273000D01*
X129932000Y-92273000D01*
X129932000Y-92314552D01*
X129885194Y-92361358D01*
X129748072Y-92361358D01*
X129748072Y-92227500D01*
X129732977Y-92074243D01*
X129688274Y-91926875D01*
X129658000Y-91870237D01*
X129658000Y-91603750D01*
X129647660Y-91593410D01*
X129647660Y-88516051D01*
X129691597Y-88472114D01*
X129804865Y-88302596D01*
X129882886Y-88114238D01*
X129922660Y-87914279D01*
X129922660Y-87710401D01*
X129882886Y-87510442D01*
X129804865Y-87322084D01*
X129691597Y-87152566D01*
X129547434Y-87008403D01*
X129377916Y-86895135D01*
X129189558Y-86817114D01*
X128989599Y-86777340D01*
X128785721Y-86777340D01*
X128585762Y-86817114D01*
X128397404Y-86895135D01*
X128227886Y-87008403D01*
X128083723Y-87152566D01*
X127970455Y-87322084D01*
X127892434Y-87510442D01*
X127852660Y-87710401D01*
X122210000Y-87710401D01*
X122210000Y-86400524D01*
X125490000Y-86400524D01*
X125490000Y-86599476D01*
X125528814Y-86794606D01*
X125604950Y-86978414D01*
X125715482Y-87143837D01*
X125856163Y-87284518D01*
X126021586Y-87395050D01*
X126205394Y-87471186D01*
X126400524Y-87510000D01*
X126599476Y-87510000D01*
X126794606Y-87471186D01*
X126978414Y-87395050D01*
X127143837Y-87284518D01*
X127284518Y-87143837D01*
X127395050Y-86978414D01*
X127471186Y-86794606D01*
X127510000Y-86599476D01*
X127510000Y-86400524D01*
X127471186Y-86205394D01*
X127395050Y-86021586D01*
X127284518Y-85856163D01*
X127143837Y-85715482D01*
X126978414Y-85604950D01*
X126794606Y-85528814D01*
X126599476Y-85490000D01*
X126400524Y-85490000D01*
X126205394Y-85528814D01*
X126021586Y-85604950D01*
X125856163Y-85715482D01*
X125715482Y-85856163D01*
X125604950Y-86021586D01*
X125528814Y-86205394D01*
X125490000Y-86400524D01*
X122210000Y-86400524D01*
X122210000Y-84034876D01*
X122213435Y-84000000D01*
X122199727Y-83860816D01*
X122159128Y-83726980D01*
X122093200Y-83603637D01*
X122004475Y-83495525D01*
X121896363Y-83406800D01*
X121773020Y-83340872D01*
X121639184Y-83300273D01*
X121534877Y-83290000D01*
X121500000Y-83286565D01*
X121465123Y-83290000D01*
X118410000Y-83290000D01*
X118410000Y-79698061D01*
X133865000Y-79698061D01*
X133865000Y-79901939D01*
X133904774Y-80101898D01*
X133982795Y-80290256D01*
X134096063Y-80459774D01*
X134240226Y-80603937D01*
X134409744Y-80717205D01*
X134598102Y-80795226D01*
X134798061Y-80835000D01*
X135001939Y-80835000D01*
X135201898Y-80795226D01*
X135390256Y-80717205D01*
X135559774Y-80603937D01*
X135703937Y-80459774D01*
X135817205Y-80290256D01*
X135895226Y-80101898D01*
X135935000Y-79901939D01*
X135935000Y-79698061D01*
X135895226Y-79498102D01*
X135886551Y-79477160D01*
X136003937Y-79359774D01*
X136117205Y-79190256D01*
X136195226Y-79001898D01*
X136235000Y-78801939D01*
X136235000Y-78598061D01*
X136195226Y-78398102D01*
X136195210Y-78398061D01*
X136965000Y-78398061D01*
X136965000Y-78601939D01*
X137004774Y-78801898D01*
X137082795Y-78990256D01*
X137156123Y-79100000D01*
X137082795Y-79209744D01*
X137004774Y-79398102D01*
X136965000Y-79598061D01*
X136965000Y-79801939D01*
X137004774Y-80001898D01*
X137082795Y-80190256D01*
X137196063Y-80359774D01*
X137340226Y-80503937D01*
X137509744Y-80617205D01*
X137698102Y-80695226D01*
X137898061Y-80735000D01*
X138101939Y-80735000D01*
X138301898Y-80695226D01*
X138490256Y-80617205D01*
X138659774Y-80503937D01*
X138803937Y-80359774D01*
X138917205Y-80190256D01*
X138995226Y-80001898D01*
X139035000Y-79801939D01*
X139035000Y-79598061D01*
X138995226Y-79398102D01*
X138917205Y-79209744D01*
X138843877Y-79100000D01*
X138917205Y-78990256D01*
X138995226Y-78801898D01*
X139035000Y-78601939D01*
X139035000Y-78398061D01*
X138995226Y-78198102D01*
X138917205Y-78009744D01*
X138803937Y-77840226D01*
X138659774Y-77696063D01*
X138490256Y-77582795D01*
X138301898Y-77504774D01*
X138101939Y-77465000D01*
X137898061Y-77465000D01*
X137698102Y-77504774D01*
X137509744Y-77582795D01*
X137340226Y-77696063D01*
X137196063Y-77840226D01*
X137082795Y-78009744D01*
X137004774Y-78198102D01*
X136965000Y-78398061D01*
X136195210Y-78398061D01*
X136117205Y-78209744D01*
X136003937Y-78040226D01*
X135859774Y-77896063D01*
X135690256Y-77782795D01*
X135501898Y-77704774D01*
X135301939Y-77665000D01*
X135098061Y-77665000D01*
X134898102Y-77704774D01*
X134709744Y-77782795D01*
X134540226Y-77896063D01*
X134396063Y-78040226D01*
X134282795Y-78209744D01*
X134204774Y-78398102D01*
X134165000Y-78598061D01*
X134165000Y-78801939D01*
X134204774Y-79001898D01*
X134213449Y-79022840D01*
X134096063Y-79140226D01*
X133982795Y-79309744D01*
X133904774Y-79498102D01*
X133865000Y-79698061D01*
X118410000Y-79698061D01*
X118410000Y-76398061D01*
X123365000Y-76398061D01*
X123365000Y-76601939D01*
X123404774Y-76801898D01*
X123482795Y-76990256D01*
X123596063Y-77159774D01*
X123740226Y-77303937D01*
X123778619Y-77329591D01*
X123765000Y-77398061D01*
X123765000Y-77601939D01*
X123796177Y-77758678D01*
X123740226Y-77796063D01*
X123596063Y-77940226D01*
X123482795Y-78109744D01*
X123404774Y-78298102D01*
X123365000Y-78498061D01*
X123365000Y-78701939D01*
X123404774Y-78901898D01*
X123482795Y-79090256D01*
X123596063Y-79259774D01*
X123740226Y-79403937D01*
X123909744Y-79517205D01*
X124098102Y-79595226D01*
X124298061Y-79635000D01*
X124501939Y-79635000D01*
X124701898Y-79595226D01*
X124890256Y-79517205D01*
X125059774Y-79403937D01*
X125203937Y-79259774D01*
X125317205Y-79090256D01*
X125395226Y-78901898D01*
X125435000Y-78701939D01*
X125435000Y-78498061D01*
X125403823Y-78341322D01*
X125459774Y-78303937D01*
X125603937Y-78159774D01*
X125717205Y-77990256D01*
X125795226Y-77801898D01*
X125835000Y-77601939D01*
X125835000Y-77398061D01*
X125795226Y-77198102D01*
X125717205Y-77009744D01*
X125603937Y-76840226D01*
X125459774Y-76696063D01*
X125421381Y-76670409D01*
X125435000Y-76601939D01*
X125435000Y-76398061D01*
X125395226Y-76198102D01*
X125317205Y-76009744D01*
X125203937Y-75840226D01*
X125161772Y-75798061D01*
X134765000Y-75798061D01*
X134765000Y-76001939D01*
X134804774Y-76201898D01*
X134882795Y-76390256D01*
X134996063Y-76559774D01*
X135140226Y-76703937D01*
X135309744Y-76817205D01*
X135498102Y-76895226D01*
X135698061Y-76935000D01*
X135901939Y-76935000D01*
X136101898Y-76895226D01*
X136290256Y-76817205D01*
X136459774Y-76703937D01*
X136603937Y-76559774D01*
X136717205Y-76390256D01*
X136795226Y-76201898D01*
X136835000Y-76001939D01*
X136835000Y-75798061D01*
X136795226Y-75598102D01*
X136717205Y-75409744D01*
X136603937Y-75240226D01*
X136459774Y-75096063D01*
X136290256Y-74982795D01*
X136101898Y-74904774D01*
X135901939Y-74865000D01*
X135698061Y-74865000D01*
X135498102Y-74904774D01*
X135309744Y-74982795D01*
X135140226Y-75096063D01*
X134996063Y-75240226D01*
X134882795Y-75409744D01*
X134804774Y-75598102D01*
X134765000Y-75798061D01*
X125161772Y-75798061D01*
X125059774Y-75696063D01*
X124890256Y-75582795D01*
X124701898Y-75504774D01*
X124501939Y-75465000D01*
X124298061Y-75465000D01*
X124098102Y-75504774D01*
X123909744Y-75582795D01*
X123740226Y-75696063D01*
X123596063Y-75840226D01*
X123482795Y-76009744D01*
X123404774Y-76198102D01*
X123365000Y-76398061D01*
X118410000Y-76398061D01*
X118410000Y-74198061D01*
X123365000Y-74198061D01*
X123365000Y-74401939D01*
X123404774Y-74601898D01*
X123482795Y-74790256D01*
X123596063Y-74959774D01*
X123740226Y-75103937D01*
X123909744Y-75217205D01*
X124098102Y-75295226D01*
X124298061Y-75335000D01*
X124501939Y-75335000D01*
X124701898Y-75295226D01*
X124890256Y-75217205D01*
X125059774Y-75103937D01*
X125203937Y-74959774D01*
X125317205Y-74790256D01*
X125395226Y-74601898D01*
X125435000Y-74401939D01*
X125435000Y-74400524D01*
X173990000Y-74400524D01*
X173990000Y-74599476D01*
X174028814Y-74794606D01*
X174104950Y-74978414D01*
X174215482Y-75143837D01*
X174356163Y-75284518D01*
X174521586Y-75395050D01*
X174705394Y-75471186D01*
X174900524Y-75510000D01*
X175099476Y-75510000D01*
X175294606Y-75471186D01*
X175478414Y-75395050D01*
X175643837Y-75284518D01*
X175784518Y-75143837D01*
X175895050Y-74978414D01*
X175971186Y-74794606D01*
X176010000Y-74599476D01*
X176010000Y-74400524D01*
X175971186Y-74205394D01*
X175895050Y-74021586D01*
X175784518Y-73856163D01*
X175643837Y-73715482D01*
X175478414Y-73604950D01*
X175294606Y-73528814D01*
X175099476Y-73490000D01*
X174900524Y-73490000D01*
X174705394Y-73528814D01*
X174521586Y-73604950D01*
X174356163Y-73715482D01*
X174215482Y-73856163D01*
X174104950Y-74021586D01*
X174028814Y-74205394D01*
X173990000Y-74400524D01*
X125435000Y-74400524D01*
X125435000Y-74198061D01*
X125395226Y-73998102D01*
X125324920Y-73828370D01*
X125417205Y-73690256D01*
X125495226Y-73501898D01*
X125535000Y-73301939D01*
X125535000Y-73098061D01*
X125495226Y-72898102D01*
X125424920Y-72728370D01*
X125517205Y-72590256D01*
X125595226Y-72401898D01*
X125635000Y-72201939D01*
X125635000Y-71998061D01*
X125595226Y-71798102D01*
X125553788Y-71698061D01*
X133765000Y-71698061D01*
X133765000Y-71901939D01*
X133804774Y-72101898D01*
X133882795Y-72290256D01*
X133996063Y-72459774D01*
X134140226Y-72603937D01*
X134309744Y-72717205D01*
X134498102Y-72795226D01*
X134698061Y-72835000D01*
X134901939Y-72835000D01*
X135101898Y-72795226D01*
X135290256Y-72717205D01*
X135459774Y-72603937D01*
X135603937Y-72459774D01*
X135717205Y-72290256D01*
X135795226Y-72101898D01*
X135826729Y-71943519D01*
X135890256Y-71917205D01*
X136059774Y-71803937D01*
X136203937Y-71659774D01*
X136317205Y-71490256D01*
X136395226Y-71301898D01*
X136435000Y-71101939D01*
X136435000Y-70898061D01*
X136865000Y-70898061D01*
X136865000Y-71101939D01*
X136904774Y-71301898D01*
X136982795Y-71490256D01*
X137096063Y-71659774D01*
X137240226Y-71803937D01*
X137409744Y-71917205D01*
X137598102Y-71995226D01*
X137798061Y-72035000D01*
X138001939Y-72035000D01*
X138201898Y-71995226D01*
X138390256Y-71917205D01*
X138559774Y-71803937D01*
X138703937Y-71659774D01*
X138817205Y-71490256D01*
X138895226Y-71301898D01*
X138935000Y-71101939D01*
X138935000Y-70898061D01*
X138895226Y-70698102D01*
X138817205Y-70509744D01*
X138703937Y-70340226D01*
X138559774Y-70196063D01*
X138390256Y-70082795D01*
X138201898Y-70004774D01*
X138001939Y-69965000D01*
X137798061Y-69965000D01*
X137598102Y-70004774D01*
X137409744Y-70082795D01*
X137240226Y-70196063D01*
X137096063Y-70340226D01*
X136982795Y-70509744D01*
X136904774Y-70698102D01*
X136865000Y-70898061D01*
X136435000Y-70898061D01*
X136395226Y-70698102D01*
X136317205Y-70509744D01*
X136203937Y-70340226D01*
X136059774Y-70196063D01*
X135890256Y-70082795D01*
X135701898Y-70004774D01*
X135501939Y-69965000D01*
X135298061Y-69965000D01*
X135098102Y-70004774D01*
X134909744Y-70082795D01*
X134740226Y-70196063D01*
X134596063Y-70340226D01*
X134482795Y-70509744D01*
X134404774Y-70698102D01*
X134373271Y-70856481D01*
X134309744Y-70882795D01*
X134140226Y-70996063D01*
X133996063Y-71140226D01*
X133882795Y-71309744D01*
X133804774Y-71498102D01*
X133765000Y-71698061D01*
X125553788Y-71698061D01*
X125517205Y-71609744D01*
X125477285Y-71550000D01*
X125517205Y-71490256D01*
X125595226Y-71301898D01*
X125635000Y-71101939D01*
X125635000Y-70898061D01*
X125595226Y-70698102D01*
X125517205Y-70509744D01*
X125403937Y-70340226D01*
X125259774Y-70196063D01*
X125090256Y-70082795D01*
X124901898Y-70004774D01*
X124701939Y-69965000D01*
X124498061Y-69965000D01*
X124298102Y-70004774D01*
X124109744Y-70082795D01*
X123940226Y-70196063D01*
X123796063Y-70340226D01*
X123682795Y-70509744D01*
X123604774Y-70698102D01*
X123565000Y-70898061D01*
X123565000Y-71101939D01*
X123604774Y-71301898D01*
X123682795Y-71490256D01*
X123722715Y-71550000D01*
X123682795Y-71609744D01*
X123604774Y-71798102D01*
X123565000Y-71998061D01*
X123565000Y-72201939D01*
X123604774Y-72401898D01*
X123675080Y-72571630D01*
X123582795Y-72709744D01*
X123504774Y-72898102D01*
X123465000Y-73098061D01*
X123465000Y-73301939D01*
X123504774Y-73501898D01*
X123575080Y-73671630D01*
X123482795Y-73809744D01*
X123404774Y-73998102D01*
X123365000Y-74198061D01*
X118410000Y-74198061D01*
X118410000Y-69710000D01*
X171705909Y-69710000D01*
X178290000Y-76294092D01*
G37*
X178290000Y-76294092D02*
X178290001Y-137290000D01*
X167730971Y-137290000D01*
X167859774Y-137203937D01*
X168003937Y-137059774D01*
X168117205Y-136890256D01*
X168195226Y-136701898D01*
X168235000Y-136501939D01*
X168235000Y-136298061D01*
X168195226Y-136098102D01*
X168117205Y-135909744D01*
X168111045Y-135900524D01*
X173990000Y-135900524D01*
X173990000Y-136099476D01*
X174028814Y-136294606D01*
X174104950Y-136478414D01*
X174215482Y-136643837D01*
X174356163Y-136784518D01*
X174521586Y-136895050D01*
X174705394Y-136971186D01*
X174900524Y-137010000D01*
X175099476Y-137010000D01*
X175294606Y-136971186D01*
X175478414Y-136895050D01*
X175643837Y-136784518D01*
X175784518Y-136643837D01*
X175895050Y-136478414D01*
X175971186Y-136294606D01*
X176010000Y-136099476D01*
X176010000Y-135900524D01*
X175971186Y-135705394D01*
X175895050Y-135521586D01*
X175784518Y-135356163D01*
X175643837Y-135215482D01*
X175478414Y-135104950D01*
X175294606Y-135028814D01*
X175099476Y-134990000D01*
X174900524Y-134990000D01*
X174705394Y-135028814D01*
X174521586Y-135104950D01*
X174356163Y-135215482D01*
X174215482Y-135356163D01*
X174104950Y-135521586D01*
X174028814Y-135705394D01*
X173990000Y-135900524D01*
X168111045Y-135900524D01*
X168003937Y-135740226D01*
X167859774Y-135596063D01*
X167690256Y-135482795D01*
X167501898Y-135404774D01*
X167301939Y-135365000D01*
X167098061Y-135365000D01*
X166898102Y-135404774D01*
X166719432Y-135478782D01*
X166755000Y-135299969D01*
X166755000Y-135100031D01*
X166715994Y-134903935D01*
X166687677Y-134835572D01*
X166745000Y-134835572D01*
X166869482Y-134823312D01*
X166989180Y-134787002D01*
X167099494Y-134728037D01*
X167196185Y-134648685D01*
X167275537Y-134551994D01*
X167334502Y-134441680D01*
X167370812Y-134321982D01*
X167383072Y-134197500D01*
X167383072Y-133780283D01*
X167679088Y-133484266D01*
X167717632Y-133452634D01*
X167843846Y-133298841D01*
X167937631Y-133123381D01*
X167995384Y-132932995D01*
X168009999Y-132784609D01*
X168009999Y-132784607D01*
X168014885Y-132735002D01*
X168009999Y-132685397D01*
X168009999Y-132598061D01*
X168065000Y-132598061D01*
X168065000Y-132801939D01*
X168104774Y-133001898D01*
X168182795Y-133190256D01*
X168296063Y-133359774D01*
X168440226Y-133503937D01*
X168609744Y-133617205D01*
X168798102Y-133695226D01*
X168998061Y-133735000D01*
X169201939Y-133735000D01*
X169401898Y-133695226D01*
X169590256Y-133617205D01*
X169759774Y-133503937D01*
X169903937Y-133359774D01*
X170017205Y-133190256D01*
X170095226Y-133001898D01*
X170135000Y-132801939D01*
X170135000Y-132598061D01*
X170095226Y-132398102D01*
X170017205Y-132209744D01*
X169903937Y-132040226D01*
X169759774Y-131896063D01*
X169590256Y-131782795D01*
X169401898Y-131704774D01*
X169201939Y-131665000D01*
X168998061Y-131665000D01*
X168798102Y-131704774D01*
X168609744Y-131782795D01*
X168440226Y-131896063D01*
X168296063Y-132040226D01*
X168182795Y-132209744D01*
X168104774Y-132398102D01*
X168065000Y-132598061D01*
X168009999Y-132598061D01*
X168009999Y-128823898D01*
X168017633Y-128817633D01*
X168143847Y-128663840D01*
X168237632Y-128488380D01*
X168241389Y-128475994D01*
X168295385Y-128297995D01*
X168314886Y-128100000D01*
X168310000Y-128050392D01*
X168310000Y-126950700D01*
X168417205Y-126790256D01*
X168495226Y-126601898D01*
X168535000Y-126401939D01*
X168535000Y-126198061D01*
X168495226Y-125998102D01*
X168417205Y-125809744D01*
X168303937Y-125640226D01*
X168159774Y-125496063D01*
X167990256Y-125382795D01*
X167801898Y-125304774D01*
X167716054Y-125287699D01*
X167383072Y-124954717D01*
X167383072Y-124822500D01*
X167370812Y-124698018D01*
X167334502Y-124578320D01*
X167275537Y-124468006D01*
X167196185Y-124371315D01*
X167099494Y-124291963D01*
X166989180Y-124232998D01*
X166869482Y-124196688D01*
X166745000Y-124184428D01*
X166005000Y-124184428D01*
X165880518Y-124196688D01*
X165760820Y-124232998D01*
X165740000Y-124244127D01*
X165719180Y-124232998D01*
X165599482Y-124196688D01*
X165475000Y-124184428D01*
X165390750Y-124187500D01*
X165232002Y-124346248D01*
X165232002Y-124187500D01*
X165135000Y-124187500D01*
X165135000Y-123998061D01*
X165095226Y-123798102D01*
X165017205Y-123609744D01*
X164903937Y-123440226D01*
X164759774Y-123296063D01*
X164590256Y-123182795D01*
X164401898Y-123104774D01*
X164201939Y-123065000D01*
X163998061Y-123065000D01*
X163798102Y-123104774D01*
X163635739Y-123172028D01*
X163572427Y-123108716D01*
X163402909Y-122995448D01*
X163214551Y-122917427D01*
X163014592Y-122877653D01*
X162810714Y-122877653D01*
X162610755Y-122917427D01*
X162422397Y-122995448D01*
X162252879Y-123108716D01*
X162108716Y-123252879D01*
X161995448Y-123422397D01*
X161992712Y-123429001D01*
X161859774Y-123296063D01*
X161690256Y-123182795D01*
X161501898Y-123104774D01*
X161301939Y-123065000D01*
X161098061Y-123065000D01*
X161088570Y-123066888D01*
X161003937Y-122940226D01*
X160859774Y-122796063D01*
X160690256Y-122682795D01*
X160501898Y-122604774D01*
X160301939Y-122565000D01*
X160098061Y-122565000D01*
X159898102Y-122604774D01*
X159709744Y-122682795D01*
X159540226Y-122796063D01*
X159396063Y-122940226D01*
X159282795Y-123109744D01*
X159204774Y-123298102D01*
X159165000Y-123498061D01*
X159165000Y-123701939D01*
X159204774Y-123901898D01*
X159265001Y-124047297D01*
X159265001Y-124321101D01*
X159203815Y-124371315D01*
X159124463Y-124468006D01*
X159065498Y-124578320D01*
X159029188Y-124698018D01*
X159016928Y-124822500D01*
X159016928Y-126497500D01*
X159029188Y-126621982D01*
X159065498Y-126741680D01*
X159124463Y-126851994D01*
X159203815Y-126948685D01*
X159300506Y-127028037D01*
X159410820Y-127087002D01*
X159530518Y-127123312D01*
X159655000Y-127135572D01*
X159712323Y-127135572D01*
X159684006Y-127203935D01*
X159645000Y-127400031D01*
X159645000Y-127599969D01*
X159684006Y-127796065D01*
X159713202Y-127866550D01*
X159655000Y-127864428D01*
X159530518Y-127876688D01*
X159410820Y-127912998D01*
X159300506Y-127971963D01*
X159203815Y-128051315D01*
X159124463Y-128148006D01*
X159065498Y-128258320D01*
X159029188Y-128378018D01*
X159016928Y-128502500D01*
X159020000Y-129054250D01*
X159178750Y-129213000D01*
X159898000Y-129213000D01*
X159898000Y-129193000D01*
X160152000Y-129193000D01*
X160152000Y-129213000D01*
X160172000Y-129213000D01*
X160172000Y-129467000D01*
X160152000Y-129467000D01*
X160152000Y-129487000D01*
X159898000Y-129487000D01*
X159898000Y-129467000D01*
X159178750Y-129467000D01*
X159020000Y-129625750D01*
X159016928Y-130177500D01*
X159029188Y-130301982D01*
X159065498Y-130421680D01*
X159095055Y-130476976D01*
X158951274Y-130620757D01*
X158838006Y-130790275D01*
X158759985Y-130978633D01*
X158720211Y-131178592D01*
X158720211Y-131382470D01*
X158759985Y-131582429D01*
X158838006Y-131770787D01*
X158951274Y-131940305D01*
X159095437Y-132084468D01*
X159158461Y-132126579D01*
X159124463Y-132168006D01*
X159065498Y-132278320D01*
X159029188Y-132398018D01*
X159016928Y-132522500D01*
X159016928Y-132781138D01*
X158898102Y-132804774D01*
X158709744Y-132882795D01*
X158540226Y-132996063D01*
X158538072Y-132998217D01*
X158538072Y-132549999D01*
X158521008Y-132376745D01*
X158470472Y-132210149D01*
X158388405Y-132056613D01*
X158277962Y-131922038D01*
X158210000Y-131866263D01*
X158210000Y-128918355D01*
X158753226Y-128375130D01*
X158859774Y-128303937D01*
X159003937Y-128159774D01*
X159117205Y-127990256D01*
X159195226Y-127801898D01*
X159235000Y-127601939D01*
X159235000Y-127398061D01*
X159195226Y-127198102D01*
X159117205Y-127009744D01*
X159003937Y-126840226D01*
X158859774Y-126696063D01*
X158690256Y-126582795D01*
X158501898Y-126504774D01*
X158301939Y-126465000D01*
X158098061Y-126465000D01*
X157898102Y-126504774D01*
X157709744Y-126582795D01*
X157540226Y-126696063D01*
X157396063Y-126840226D01*
X157324870Y-126946774D01*
X156520901Y-127750744D01*
X156482368Y-127782367D01*
X156450745Y-127820900D01*
X156450744Y-127820901D01*
X156356154Y-127936160D01*
X156262368Y-128111621D01*
X156204615Y-128302006D01*
X156185114Y-128500000D01*
X156190001Y-128549618D01*
X156190000Y-131866263D01*
X156122038Y-131922038D01*
X156011595Y-132056613D01*
X155929528Y-132210149D01*
X155878992Y-132376745D01*
X155861928Y-132549999D01*
X155861928Y-133200001D01*
X155878992Y-133373255D01*
X155929528Y-133539851D01*
X156011595Y-133693387D01*
X156122038Y-133827962D01*
X156209816Y-133900000D01*
X156122038Y-133972038D01*
X156011595Y-134106613D01*
X155929528Y-134260149D01*
X155878992Y-134426745D01*
X155861928Y-134599999D01*
X155861928Y-135250001D01*
X155878992Y-135423255D01*
X155929528Y-135589851D01*
X156011595Y-135743387D01*
X156122038Y-135877962D01*
X156188299Y-135932341D01*
X156204615Y-136097994D01*
X156262368Y-136288379D01*
X156356154Y-136463840D01*
X156409628Y-136528998D01*
X156482368Y-136617633D01*
X156520901Y-136649256D01*
X156524868Y-136653223D01*
X156596063Y-136759774D01*
X156740226Y-136903937D01*
X156909744Y-137017205D01*
X157098102Y-137095226D01*
X157298061Y-137135000D01*
X157501939Y-137135000D01*
X157701898Y-137095226D01*
X157890256Y-137017205D01*
X158059774Y-136903937D01*
X158203937Y-136759774D01*
X158317205Y-136590256D01*
X158395226Y-136401898D01*
X158435000Y-136201939D01*
X158435000Y-135998061D01*
X158395226Y-135798102D01*
X158377876Y-135756216D01*
X158388405Y-135743387D01*
X158470472Y-135589851D01*
X158521008Y-135423255D01*
X158538072Y-135250001D01*
X158538072Y-134601783D01*
X158540226Y-134603937D01*
X158709744Y-134717205D01*
X158898102Y-134795226D01*
X159098061Y-134835000D01*
X159301939Y-134835000D01*
X159463264Y-134802911D01*
X159530518Y-134823312D01*
X159655000Y-134835572D01*
X159712323Y-134835572D01*
X159684006Y-134903935D01*
X159645000Y-135100031D01*
X159645000Y-135299969D01*
X159684006Y-135496065D01*
X159713202Y-135566550D01*
X159655000Y-135564428D01*
X159530518Y-135576688D01*
X159410820Y-135612998D01*
X159300506Y-135671963D01*
X159203815Y-135751315D01*
X159124463Y-135848006D01*
X159065498Y-135958320D01*
X159029188Y-136078018D01*
X159016928Y-136202500D01*
X159020000Y-136754250D01*
X159178750Y-136913000D01*
X159898000Y-136913000D01*
X159898000Y-136893000D01*
X160152000Y-136893000D01*
X160152000Y-136913000D01*
X160172000Y-136913000D01*
X160172000Y-137167000D01*
X160152000Y-137167000D01*
X160152000Y-137187000D01*
X159898000Y-137187000D01*
X159898000Y-137167000D01*
X159178750Y-137167000D01*
X159055750Y-137290000D01*
X150710000Y-137290000D01*
X150710000Y-134965123D01*
X150709513Y-134960182D01*
X150702523Y-134459576D01*
X150702449Y-134458337D01*
X150702484Y-134457097D01*
X150700685Y-134417490D01*
X150657478Y-133829117D01*
X152265000Y-133829117D01*
X152265000Y-134170883D01*
X152331675Y-134506081D01*
X152462463Y-134821831D01*
X152652337Y-135105998D01*
X152894002Y-135347663D01*
X153178169Y-135537537D01*
X153493919Y-135668325D01*
X153829117Y-135735000D01*
X154170883Y-135735000D01*
X154506081Y-135668325D01*
X154821831Y-135537537D01*
X155105998Y-135347663D01*
X155347663Y-135105998D01*
X155537537Y-134821831D01*
X155668325Y-134506081D01*
X155735000Y-134170883D01*
X155735000Y-133829117D01*
X155668325Y-133493919D01*
X155537537Y-133178169D01*
X155347663Y-132894002D01*
X155105998Y-132652337D01*
X154821831Y-132462463D01*
X154506081Y-132331675D01*
X154170883Y-132265000D01*
X153829117Y-132265000D01*
X153493919Y-132331675D01*
X153178169Y-132462463D01*
X152894002Y-132652337D01*
X152652337Y-132894002D01*
X152462463Y-133178169D01*
X152331675Y-133493919D01*
X152265000Y-133829117D01*
X150657478Y-133829117D01*
X150574438Y-132698326D01*
X150572971Y-132686020D01*
X150572192Y-132673645D01*
X150566811Y-132634363D01*
X150285270Y-130933716D01*
X150282694Y-130921596D01*
X150280797Y-130909342D01*
X150271878Y-130870709D01*
X149837363Y-129202578D01*
X149833695Y-129190727D01*
X149830698Y-129178708D01*
X149818331Y-129141095D01*
X149818315Y-129141043D01*
X149818307Y-129141024D01*
X149348652Y-127836504D01*
X152340000Y-127836504D01*
X152340000Y-128163496D01*
X152403793Y-128484204D01*
X152528927Y-128786305D01*
X152710594Y-129058188D01*
X152941812Y-129289406D01*
X153213695Y-129471073D01*
X153515796Y-129596207D01*
X153836504Y-129660000D01*
X154163496Y-129660000D01*
X154484204Y-129596207D01*
X154786305Y-129471073D01*
X155058188Y-129289406D01*
X155289406Y-129058188D01*
X155471073Y-128786305D01*
X155596207Y-128484204D01*
X155660000Y-128163496D01*
X155660000Y-127836504D01*
X155596207Y-127515796D01*
X155471073Y-127213695D01*
X155289406Y-126941812D01*
X155058188Y-126710594D01*
X154786305Y-126528927D01*
X154484204Y-126403793D01*
X154163496Y-126340000D01*
X153836504Y-126340000D01*
X153515796Y-126403793D01*
X153213695Y-126528927D01*
X152941812Y-126710594D01*
X152710594Y-126941812D01*
X152528927Y-127213695D01*
X152403793Y-127515796D01*
X152340000Y-127836504D01*
X149348652Y-127836504D01*
X149234400Y-127519159D01*
X149229679Y-127507706D01*
X149225600Y-127495991D01*
X149209874Y-127459653D01*
X149209854Y-127459604D01*
X149209845Y-127459586D01*
X148481347Y-125897316D01*
X148475599Y-125886320D01*
X148470482Y-125875041D01*
X148451503Y-125840230D01*
X147584400Y-124350400D01*
X147577687Y-124339983D01*
X147571562Y-124329201D01*
X147549506Y-124296254D01*
X146626929Y-122998061D01*
X149465000Y-122998061D01*
X149465000Y-123201939D01*
X149504774Y-123401898D01*
X149582795Y-123590256D01*
X149696063Y-123759774D01*
X149840226Y-123903937D01*
X150009744Y-124017205D01*
X150198102Y-124095226D01*
X150398061Y-124135000D01*
X150601939Y-124135000D01*
X150801898Y-124095226D01*
X150990256Y-124017205D01*
X151159774Y-123903937D01*
X151303937Y-123759774D01*
X151417205Y-123590256D01*
X151495226Y-123401898D01*
X151535000Y-123201939D01*
X151535000Y-122998061D01*
X151495226Y-122798102D01*
X151417205Y-122609744D01*
X151303937Y-122440226D01*
X151159774Y-122296063D01*
X150990256Y-122182795D01*
X150801898Y-122104774D01*
X150601939Y-122065000D01*
X150398061Y-122065000D01*
X150198102Y-122104774D01*
X150009744Y-122182795D01*
X149840226Y-122296063D01*
X149696063Y-122440226D01*
X149582795Y-122609744D01*
X149504774Y-122798102D01*
X149465000Y-122998061D01*
X146626929Y-122998061D01*
X146550945Y-122891142D01*
X146543306Y-122881364D01*
X146536238Y-122871195D01*
X146511287Y-122840382D01*
X145389487Y-121531555D01*
X145380997Y-121522514D01*
X145373033Y-121513023D01*
X145345391Y-121484599D01*
X145153570Y-121298061D01*
X174365000Y-121298061D01*
X174365000Y-121501939D01*
X174404774Y-121701898D01*
X174482795Y-121890256D01*
X174596063Y-122059774D01*
X174740226Y-122203937D01*
X174909744Y-122317205D01*
X175098102Y-122395226D01*
X175298061Y-122435000D01*
X175501939Y-122435000D01*
X175701898Y-122395226D01*
X175890256Y-122317205D01*
X176059774Y-122203937D01*
X176203937Y-122059774D01*
X176317205Y-121890256D01*
X176395226Y-121701898D01*
X176435000Y-121501939D01*
X176435000Y-121298061D01*
X176395226Y-121098102D01*
X176317205Y-120909744D01*
X176203937Y-120740226D01*
X176059774Y-120596063D01*
X175890256Y-120482795D01*
X175701898Y-120404774D01*
X175501939Y-120365000D01*
X175298061Y-120365000D01*
X175098102Y-120404774D01*
X174909744Y-120482795D01*
X174740226Y-120596063D01*
X174596063Y-120740226D01*
X174482795Y-120909744D01*
X174404774Y-121098102D01*
X174365000Y-121298061D01*
X145153570Y-121298061D01*
X144109585Y-120282830D01*
X144100321Y-120274605D01*
X144091519Y-120265864D01*
X144061444Y-120240087D01*
X144061416Y-120240062D01*
X144061405Y-120240054D01*
X143550938Y-119826686D01*
X146536375Y-119826686D01*
X146536375Y-120030564D01*
X146576149Y-120230523D01*
X146654170Y-120418881D01*
X146767438Y-120588399D01*
X146911601Y-120732562D01*
X147081119Y-120845830D01*
X147269477Y-120923851D01*
X147469436Y-120963625D01*
X147673314Y-120963625D01*
X147873273Y-120923851D01*
X148061631Y-120845830D01*
X148231149Y-120732562D01*
X148375312Y-120588399D01*
X148488580Y-120418881D01*
X148566601Y-120230523D01*
X148606375Y-120030564D01*
X148606375Y-119826686D01*
X148566601Y-119626727D01*
X148488580Y-119438369D01*
X148375312Y-119268851D01*
X148231149Y-119124688D01*
X148061631Y-119011420D01*
X147873273Y-118933399D01*
X147673314Y-118893625D01*
X147469436Y-118893625D01*
X147269477Y-118933399D01*
X147081119Y-119011420D01*
X146911601Y-119124688D01*
X146767438Y-119268851D01*
X146654170Y-119438369D01*
X146576149Y-119626727D01*
X146536375Y-119826686D01*
X143550938Y-119826686D01*
X142721776Y-119155244D01*
X142711799Y-119147889D01*
X142702248Y-119139987D01*
X142669929Y-119117019D01*
X141237483Y-118158080D01*
X141226875Y-118151656D01*
X141216651Y-118144655D01*
X141182384Y-118124711D01*
X139668923Y-117299545D01*
X139657787Y-117294113D01*
X139646961Y-117288063D01*
X139611027Y-117271307D01*
X138029007Y-116586706D01*
X138017417Y-116582303D01*
X138006094Y-116577262D01*
X137968790Y-116563832D01*
X136331235Y-116025431D01*
X136319302Y-116022099D01*
X136307561Y-116018102D01*
X136269207Y-116008112D01*
X136269193Y-116008108D01*
X136269188Y-116008107D01*
X134589579Y-115620339D01*
X134577377Y-115618100D01*
X134565338Y-115615187D01*
X134526222Y-115608711D01*
X132818377Y-115374765D01*
X132806027Y-115373641D01*
X132793769Y-115371831D01*
X132754227Y-115368927D01*
X131050932Y-115291581D01*
X131034877Y-115290000D01*
X125820571Y-115290000D01*
X125958125Y-115248274D01*
X126093940Y-115175679D01*
X126212983Y-115077983D01*
X126310679Y-114958940D01*
X126383274Y-114823125D01*
X126427977Y-114675757D01*
X126443072Y-114522500D01*
X126443072Y-114177500D01*
X126427977Y-114024243D01*
X126383274Y-113876875D01*
X126360000Y-113833333D01*
X126360000Y-113760000D01*
X127528841Y-113760000D01*
X127582795Y-113890256D01*
X127696063Y-114059774D01*
X127840226Y-114203937D01*
X128009744Y-114317205D01*
X128198102Y-114395226D01*
X128398061Y-114435000D01*
X128601939Y-114435000D01*
X128801898Y-114395226D01*
X128990256Y-114317205D01*
X129159774Y-114203937D01*
X129214110Y-114149601D01*
X129300518Y-114175812D01*
X129425000Y-114188072D01*
X129589250Y-114185000D01*
X129748000Y-114026250D01*
X129748000Y-113077000D01*
X130002000Y-113077000D01*
X130002000Y-114026250D01*
X130160750Y-114185000D01*
X130325000Y-114188072D01*
X130449482Y-114175812D01*
X130569180Y-114139502D01*
X130679494Y-114080537D01*
X130776185Y-114001185D01*
X130855537Y-113904494D01*
X130914502Y-113794180D01*
X130950812Y-113674482D01*
X130963072Y-113550000D01*
X130960000Y-113235750D01*
X130801250Y-113077000D01*
X130002000Y-113077000D01*
X129748000Y-113077000D01*
X129728000Y-113077000D01*
X129728000Y-112823000D01*
X129748000Y-112823000D01*
X129748000Y-112803000D01*
X130002000Y-112803000D01*
X130002000Y-112823000D01*
X130801250Y-112823000D01*
X130951892Y-112672358D01*
X130994325Y-112714792D01*
X130994325Y-112776929D01*
X131034099Y-112976888D01*
X131112120Y-113165246D01*
X131225388Y-113334764D01*
X131369551Y-113478927D01*
X131539069Y-113592195D01*
X131727427Y-113670216D01*
X131927386Y-113709990D01*
X132109959Y-113709990D01*
X132135498Y-113794180D01*
X132194463Y-113904494D01*
X132273815Y-114001185D01*
X132370506Y-114080537D01*
X132480820Y-114139502D01*
X132600518Y-114175812D01*
X132725000Y-114188072D01*
X133625000Y-114188072D01*
X133749482Y-114175812D01*
X133869180Y-114139502D01*
X133886676Y-114130150D01*
X133896000Y-114177027D01*
X133974021Y-114365385D01*
X134087289Y-114534903D01*
X134231452Y-114679066D01*
X134400970Y-114792334D01*
X134589328Y-114870355D01*
X134789287Y-114910129D01*
X134993165Y-114910129D01*
X135193124Y-114870355D01*
X135381482Y-114792334D01*
X135551000Y-114679066D01*
X135695163Y-114534903D01*
X135808431Y-114365385D01*
X135886452Y-114177027D01*
X135926226Y-113977068D01*
X135926226Y-113910128D01*
X137344138Y-113910128D01*
X140113104Y-116679094D01*
X140144732Y-116717633D01*
X140298525Y-116843847D01*
X140364616Y-116879173D01*
X140473985Y-116937632D01*
X140664370Y-116995385D01*
X140862364Y-117014886D01*
X140911972Y-117010000D01*
X144772377Y-117010000D01*
X144898061Y-117035000D01*
X145101939Y-117035000D01*
X145301898Y-116995226D01*
X145490256Y-116917205D01*
X145659774Y-116803937D01*
X145803937Y-116659774D01*
X145917205Y-116490256D01*
X145995226Y-116301898D01*
X146035000Y-116101939D01*
X146035000Y-115898061D01*
X145995226Y-115698102D01*
X145917205Y-115509744D01*
X145803937Y-115340226D01*
X145659774Y-115196063D01*
X145490256Y-115082795D01*
X145311881Y-115008909D01*
X151712350Y-115008909D01*
X151712350Y-115593091D01*
X151826318Y-116166048D01*
X152049875Y-116705762D01*
X152374429Y-117191492D01*
X152787508Y-117604571D01*
X153273238Y-117929125D01*
X153812952Y-118152682D01*
X154385909Y-118266650D01*
X154970091Y-118266650D01*
X155543048Y-118152682D01*
X156082762Y-117929125D01*
X156568492Y-117604571D01*
X156981571Y-117191492D01*
X157306125Y-116705762D01*
X157529682Y-116166048D01*
X157643650Y-115593091D01*
X157643650Y-115008909D01*
X157585901Y-114718584D01*
X168146336Y-114718584D01*
X168146336Y-114922462D01*
X168186110Y-115122421D01*
X168264131Y-115310779D01*
X168377399Y-115480297D01*
X168521562Y-115624460D01*
X168691080Y-115737728D01*
X168879438Y-115815749D01*
X169079397Y-115855523D01*
X169283275Y-115855523D01*
X169483234Y-115815749D01*
X169671592Y-115737728D01*
X169841110Y-115624460D01*
X169985273Y-115480297D01*
X170098541Y-115310779D01*
X170176562Y-115122421D01*
X170216336Y-114922462D01*
X170216336Y-114718584D01*
X170176562Y-114518625D01*
X170098541Y-114330267D01*
X170058252Y-114269971D01*
X170201066Y-114174546D01*
X170345229Y-114030383D01*
X170458497Y-113860865D01*
X170536518Y-113672507D01*
X170576292Y-113472548D01*
X170576292Y-113268670D01*
X170536518Y-113068711D01*
X170458497Y-112880353D01*
X170345229Y-112710835D01*
X170201066Y-112566672D01*
X170031548Y-112453404D01*
X169843190Y-112375383D01*
X169643231Y-112335609D01*
X169439353Y-112335609D01*
X169239394Y-112375383D01*
X169051036Y-112453404D01*
X168881518Y-112566672D01*
X168737355Y-112710835D01*
X168624087Y-112880353D01*
X168546066Y-113068711D01*
X168506292Y-113268670D01*
X168506292Y-113472548D01*
X168546066Y-113672507D01*
X168624087Y-113860865D01*
X168664376Y-113921161D01*
X168521562Y-114016586D01*
X168377399Y-114160749D01*
X168264131Y-114330267D01*
X168186110Y-114518625D01*
X168146336Y-114718584D01*
X157585901Y-114718584D01*
X157529682Y-114435952D01*
X157306125Y-113896238D01*
X156981571Y-113410508D01*
X156568492Y-112997429D01*
X156082762Y-112672875D01*
X155543048Y-112449318D01*
X154970091Y-112335350D01*
X154385909Y-112335350D01*
X153812952Y-112449318D01*
X153273238Y-112672875D01*
X152787508Y-112997429D01*
X152374429Y-113410508D01*
X152049875Y-113896238D01*
X151826318Y-114435952D01*
X151712350Y-115008909D01*
X145311881Y-115008909D01*
X145301898Y-115004774D01*
X145101939Y-114965000D01*
X144898061Y-114965000D01*
X144772377Y-114990000D01*
X141892975Y-114990000D01*
X142105998Y-114847663D01*
X142347663Y-114605998D01*
X142537537Y-114321831D01*
X142668325Y-114006081D01*
X142735000Y-113670883D01*
X142735000Y-113329117D01*
X142668325Y-112993919D01*
X142537537Y-112678169D01*
X142347663Y-112394002D01*
X142105998Y-112152337D01*
X141821831Y-111962463D01*
X141506081Y-111831675D01*
X141170883Y-111765000D01*
X140829117Y-111765000D01*
X140493919Y-111831675D01*
X140178169Y-111962463D01*
X139894002Y-112152337D01*
X139652337Y-112394002D01*
X139462463Y-112678169D01*
X139331675Y-112993919D01*
X139323871Y-113033151D01*
X138511754Y-112221034D01*
X138480126Y-112182495D01*
X138326333Y-112056281D01*
X138150873Y-111962496D01*
X137960487Y-111904743D01*
X137812101Y-111890128D01*
X137762493Y-111885242D01*
X137712885Y-111890128D01*
X134210000Y-111890128D01*
X134210000Y-111449604D01*
X134214886Y-111399999D01*
X134208906Y-111339287D01*
X134195385Y-111202006D01*
X134137632Y-111011620D01*
X134043847Y-110836160D01*
X133917633Y-110682367D01*
X133879094Y-110650739D01*
X133313355Y-110085000D01*
X135491928Y-110085000D01*
X135504188Y-110209482D01*
X135540498Y-110329180D01*
X135599463Y-110439494D01*
X135678815Y-110536185D01*
X135775506Y-110615537D01*
X135885820Y-110674502D01*
X136005518Y-110710812D01*
X136130000Y-110723072D01*
X137344250Y-110720000D01*
X137503000Y-110561250D01*
X137503000Y-109657000D01*
X137757000Y-109657000D01*
X137757000Y-110561250D01*
X137915750Y-110720000D01*
X139130000Y-110723072D01*
X139254482Y-110710812D01*
X139374180Y-110674502D01*
X139484494Y-110615537D01*
X139581185Y-110536185D01*
X139660537Y-110439494D01*
X139719502Y-110329180D01*
X139755812Y-110209482D01*
X139768072Y-110085000D01*
X139765000Y-109815750D01*
X139606250Y-109657000D01*
X137757000Y-109657000D01*
X137503000Y-109657000D01*
X135653750Y-109657000D01*
X135495000Y-109815750D01*
X135491928Y-110085000D01*
X133313355Y-110085000D01*
X132203355Y-108975000D01*
X135491928Y-108975000D01*
X135495000Y-109244250D01*
X135653750Y-109403000D01*
X137503000Y-109403000D01*
X137503000Y-108498750D01*
X137757000Y-108498750D01*
X137757000Y-109403000D01*
X139606250Y-109403000D01*
X139765000Y-109244250D01*
X139768072Y-108975000D01*
X139755812Y-108850518D01*
X139719502Y-108730820D01*
X139660537Y-108620506D01*
X139581185Y-108523815D01*
X139484494Y-108444463D01*
X139374180Y-108385498D01*
X139254482Y-108349188D01*
X139130000Y-108336928D01*
X137915750Y-108340000D01*
X137757000Y-108498750D01*
X137503000Y-108498750D01*
X137344250Y-108340000D01*
X136130000Y-108336928D01*
X136005518Y-108349188D01*
X135885820Y-108385498D01*
X135775506Y-108444463D01*
X135678815Y-108523815D01*
X135599463Y-108620506D01*
X135540498Y-108730820D01*
X135504188Y-108850518D01*
X135491928Y-108975000D01*
X132203355Y-108975000D01*
X132079261Y-108850906D01*
X132047633Y-108812367D01*
X131893840Y-108686153D01*
X131718380Y-108592368D01*
X131610617Y-108559679D01*
X131581185Y-108523815D01*
X131484494Y-108444463D01*
X131374180Y-108385498D01*
X131254482Y-108349188D01*
X131130000Y-108336928D01*
X128130000Y-108336928D01*
X128005518Y-108349188D01*
X127885820Y-108385498D01*
X127775506Y-108444463D01*
X127678815Y-108523815D01*
X127599463Y-108620506D01*
X127540498Y-108730820D01*
X127504188Y-108850518D01*
X127491928Y-108975000D01*
X127491928Y-110085000D01*
X127504188Y-110209482D01*
X127540498Y-110329180D01*
X127599463Y-110439494D01*
X127678815Y-110536185D01*
X127683464Y-110540000D01*
X127614802Y-110540000D01*
X126460000Y-109385199D01*
X126460000Y-108942435D01*
X126502977Y-108800757D01*
X126518072Y-108647500D01*
X126518072Y-108302500D01*
X126502977Y-108149243D01*
X126460000Y-108007565D01*
X126460000Y-107878045D01*
X126475679Y-107858940D01*
X126548274Y-107723125D01*
X126592977Y-107575757D01*
X126608072Y-107422500D01*
X126608072Y-107077500D01*
X126592977Y-106924243D01*
X126567803Y-106841254D01*
X126698102Y-106895226D01*
X126898061Y-106935000D01*
X127101939Y-106935000D01*
X127301898Y-106895226D01*
X127490256Y-106817205D01*
X127659774Y-106703937D01*
X127803937Y-106559774D01*
X127917205Y-106390256D01*
X127995226Y-106201898D01*
X128035000Y-106001939D01*
X128035000Y-105798061D01*
X128004171Y-105643072D01*
X131002000Y-105643072D01*
X131126482Y-105630812D01*
X131186244Y-105612684D01*
X131302487Y-105728927D01*
X131472005Y-105842195D01*
X131660363Y-105920216D01*
X131860322Y-105959990D01*
X132064200Y-105959990D01*
X132264159Y-105920216D01*
X132452517Y-105842195D01*
X132622035Y-105728927D01*
X132766198Y-105584764D01*
X132879466Y-105415246D01*
X132957487Y-105226888D01*
X132997261Y-105026929D01*
X132997261Y-104823051D01*
X132957487Y-104623092D01*
X132879466Y-104434734D01*
X132766198Y-104265216D01*
X132622035Y-104121053D01*
X132515482Y-104049857D01*
X132360625Y-103895000D01*
X135491928Y-103895000D01*
X135491928Y-105005000D01*
X135504188Y-105129482D01*
X135540498Y-105249180D01*
X135599463Y-105359494D01*
X135678815Y-105456185D01*
X135775506Y-105535537D01*
X135885820Y-105594502D01*
X136005518Y-105630812D01*
X136130000Y-105643072D01*
X139130000Y-105643072D01*
X139254482Y-105630812D01*
X139374180Y-105594502D01*
X139484494Y-105535537D01*
X139581185Y-105456185D01*
X139660537Y-105359494D01*
X139719502Y-105249180D01*
X139755812Y-105129482D01*
X139768072Y-105005000D01*
X139768072Y-103895000D01*
X139755812Y-103770518D01*
X139719502Y-103650820D01*
X139660537Y-103540506D01*
X139581185Y-103443815D01*
X139484494Y-103364463D01*
X139374180Y-103305498D01*
X139254482Y-103269188D01*
X139130000Y-103256928D01*
X136130000Y-103256928D01*
X136005518Y-103269188D01*
X135885820Y-103305498D01*
X135775506Y-103364463D01*
X135678815Y-103443815D01*
X135599463Y-103540506D01*
X135540498Y-103650820D01*
X135504188Y-103770518D01*
X135491928Y-103895000D01*
X132360625Y-103895000D01*
X132236532Y-103770907D01*
X132204904Y-103732367D01*
X132051111Y-103606153D01*
X131974447Y-103565175D01*
X132090256Y-103517205D01*
X132259774Y-103403937D01*
X132403937Y-103259774D01*
X132517205Y-103090256D01*
X132595226Y-102901898D01*
X132635000Y-102701939D01*
X132635000Y-102498061D01*
X132595226Y-102298102D01*
X132517205Y-102109744D01*
X132403937Y-101940226D01*
X132259774Y-101796063D01*
X132090256Y-101682795D01*
X131901898Y-101604774D01*
X131701939Y-101565000D01*
X131640072Y-101565000D01*
X131640072Y-101355000D01*
X135491928Y-101355000D01*
X135491928Y-102465000D01*
X135504188Y-102589482D01*
X135540498Y-102709180D01*
X135599463Y-102819494D01*
X135678815Y-102916185D01*
X135775506Y-102995537D01*
X135885820Y-103054502D01*
X136005518Y-103090812D01*
X136130000Y-103103072D01*
X139130000Y-103103072D01*
X139254482Y-103090812D01*
X139374180Y-103054502D01*
X139484494Y-102995537D01*
X139581185Y-102916185D01*
X139660537Y-102819494D01*
X139719502Y-102709180D01*
X139755812Y-102589482D01*
X139768072Y-102465000D01*
X139768072Y-101355000D01*
X139755812Y-101230518D01*
X139719502Y-101110820D01*
X139660537Y-101000506D01*
X139581185Y-100903815D01*
X139484494Y-100824463D01*
X139374180Y-100765498D01*
X139254482Y-100729188D01*
X139130000Y-100716928D01*
X136130000Y-100716928D01*
X136005518Y-100729188D01*
X135885820Y-100765498D01*
X135775506Y-100824463D01*
X135678815Y-100903815D01*
X135599463Y-101000506D01*
X135540498Y-101110820D01*
X135504188Y-101230518D01*
X135491928Y-101355000D01*
X131640072Y-101355000D01*
X131627812Y-101230518D01*
X131591502Y-101110820D01*
X131532537Y-101000506D01*
X131453185Y-100903815D01*
X131356494Y-100824463D01*
X131246180Y-100765498D01*
X131126482Y-100729188D01*
X131002000Y-100716928D01*
X128002000Y-100716928D01*
X127877518Y-100729188D01*
X127757820Y-100765498D01*
X127647506Y-100824463D01*
X127550815Y-100903815D01*
X127471463Y-101000506D01*
X127412498Y-101110820D01*
X127376188Y-101230518D01*
X127363928Y-101355000D01*
X127363928Y-102465000D01*
X127376188Y-102589482D01*
X127412498Y-102709180D01*
X127471463Y-102819494D01*
X127550815Y-102916185D01*
X127647506Y-102995537D01*
X127757820Y-103054502D01*
X127877518Y-103090812D01*
X128002000Y-103103072D01*
X130691358Y-103103072D01*
X130794161Y-103256928D01*
X128002000Y-103256928D01*
X127877518Y-103269188D01*
X127757820Y-103305498D01*
X127647506Y-103364463D01*
X127550815Y-103443815D01*
X127471463Y-103540506D01*
X127412498Y-103650820D01*
X127376188Y-103770518D01*
X127363928Y-103895000D01*
X127363928Y-104835572D01*
X126938072Y-104409717D01*
X126938072Y-103800000D01*
X126925812Y-103675518D01*
X126889502Y-103555820D01*
X126830537Y-103445506D01*
X126751185Y-103348815D01*
X126654494Y-103269463D01*
X126544180Y-103210498D01*
X126424482Y-103174188D01*
X126300000Y-103161928D01*
X125400000Y-103161928D01*
X125275518Y-103174188D01*
X125155820Y-103210498D01*
X125045506Y-103269463D01*
X124948815Y-103348815D01*
X124869463Y-103445506D01*
X124810498Y-103555820D01*
X124774188Y-103675518D01*
X124761928Y-103800000D01*
X124761928Y-105000000D01*
X124774188Y-105124482D01*
X124810498Y-105244180D01*
X124869463Y-105354494D01*
X124948815Y-105451185D01*
X125045506Y-105530537D01*
X125155820Y-105589502D01*
X125275518Y-105625812D01*
X125299854Y-105628209D01*
X125979934Y-106308290D01*
X125975757Y-106307023D01*
X125822500Y-106291928D01*
X125527500Y-106291928D01*
X125374243Y-106307023D01*
X125251316Y-106344312D01*
X125244180Y-106340498D01*
X125124482Y-106304188D01*
X125000000Y-106291928D01*
X124990750Y-106295000D01*
X124832000Y-106453750D01*
X124832000Y-106720237D01*
X124801726Y-106776875D01*
X124757023Y-106924243D01*
X124741928Y-107077500D01*
X124741928Y-107397000D01*
X124578000Y-107397000D01*
X124578000Y-107377000D01*
X123933750Y-107377000D01*
X123775000Y-107535750D01*
X123771928Y-107570000D01*
X123784188Y-107694482D01*
X123809094Y-107776586D01*
X123789463Y-107800506D01*
X123730498Y-107910820D01*
X123694188Y-108030518D01*
X123681928Y-108155000D01*
X123685000Y-108189250D01*
X123843750Y-108348000D01*
X124488000Y-108348000D01*
X124488000Y-108136250D01*
X124577998Y-108046252D01*
X124577998Y-108205000D01*
X124661531Y-108205000D01*
X124651928Y-108302500D01*
X124651928Y-108647500D01*
X124667023Y-108800757D01*
X124711726Y-108948125D01*
X124742000Y-109004763D01*
X124742000Y-109271250D01*
X124900750Y-109430000D01*
X124910000Y-109433072D01*
X124940001Y-109430117D01*
X124940001Y-109662668D01*
X124936324Y-109700000D01*
X124940001Y-109737333D01*
X124947725Y-109815750D01*
X124950998Y-109848985D01*
X124994454Y-109992246D01*
X125065026Y-110124276D01*
X125123941Y-110196063D01*
X125160000Y-110240001D01*
X125188998Y-110263799D01*
X126736200Y-111811002D01*
X126759999Y-111840001D01*
X126875724Y-111934974D01*
X127007753Y-112005546D01*
X127151014Y-112049003D01*
X127262667Y-112060000D01*
X127262675Y-112060000D01*
X127300000Y-112063676D01*
X127337325Y-112060000D01*
X128859990Y-112060000D01*
X128835498Y-112105820D01*
X128799188Y-112225518D01*
X128786928Y-112350000D01*
X128787435Y-112401897D01*
X128601939Y-112365000D01*
X128524227Y-112365000D01*
X128392247Y-112294454D01*
X128248986Y-112250997D01*
X128137333Y-112240000D01*
X128137322Y-112240000D01*
X128100000Y-112236324D01*
X128062678Y-112240000D01*
X126133508Y-112240000D01*
X126083940Y-112199321D01*
X125948125Y-112126726D01*
X125800757Y-112082023D01*
X125647500Y-112066928D01*
X125352500Y-112066928D01*
X125199243Y-112082023D01*
X125076316Y-112119312D01*
X125069180Y-112115498D01*
X124949482Y-112079188D01*
X124825000Y-112066928D01*
X124815750Y-112070000D01*
X124657000Y-112228750D01*
X124657000Y-112495237D01*
X124626726Y-112551875D01*
X124582023Y-112699243D01*
X124566928Y-112852500D01*
X124566928Y-113197500D01*
X124582023Y-113350757D01*
X124626726Y-113498125D01*
X124657000Y-113554763D01*
X124657000Y-113821250D01*
X124663164Y-113827414D01*
X124636726Y-113876875D01*
X124592023Y-114024243D01*
X124576928Y-114177500D01*
X124576928Y-114497000D01*
X124413000Y-114497000D01*
X124413000Y-114477000D01*
X123768750Y-114477000D01*
X123610000Y-114635750D01*
X123606928Y-114670000D01*
X123619188Y-114794482D01*
X123655498Y-114914180D01*
X123714463Y-115024494D01*
X123793815Y-115121185D01*
X123890506Y-115200537D01*
X124000820Y-115259502D01*
X124101358Y-115290000D01*
X122210000Y-115290000D01*
X122210000Y-113345000D01*
X123596928Y-113345000D01*
X123609188Y-113469482D01*
X123645498Y-113589180D01*
X123703052Y-113696854D01*
X123655498Y-113785820D01*
X123619188Y-113905518D01*
X123606928Y-114030000D01*
X123610000Y-114064250D01*
X123768750Y-114223000D01*
X124413000Y-114223000D01*
X124413000Y-113553750D01*
X124403000Y-113543750D01*
X124403000Y-113152000D01*
X123758750Y-113152000D01*
X123600000Y-113310750D01*
X123596928Y-113345000D01*
X122210000Y-113345000D01*
X122210000Y-112705000D01*
X123596928Y-112705000D01*
X123600000Y-112739250D01*
X123758750Y-112898000D01*
X124403000Y-112898000D01*
X124403000Y-112228750D01*
X124244250Y-112070000D01*
X124235000Y-112066928D01*
X124110518Y-112079188D01*
X123990820Y-112115498D01*
X123880506Y-112174463D01*
X123783815Y-112253815D01*
X123704463Y-112350506D01*
X123645498Y-112460820D01*
X123609188Y-112580518D01*
X123596928Y-112705000D01*
X122210000Y-112705000D01*
X122210000Y-110258363D01*
X122435000Y-110258363D01*
X122435000Y-110501637D01*
X122482460Y-110740236D01*
X122575557Y-110964992D01*
X122710713Y-111167267D01*
X122882733Y-111339287D01*
X123085008Y-111474443D01*
X123309764Y-111567540D01*
X123548363Y-111615000D01*
X123791637Y-111615000D01*
X124030236Y-111567540D01*
X124254992Y-111474443D01*
X124457267Y-111339287D01*
X124629287Y-111167267D01*
X124764443Y-110964992D01*
X124857540Y-110740236D01*
X124905000Y-110501637D01*
X124905000Y-110258363D01*
X124857540Y-110019764D01*
X124764443Y-109795008D01*
X124629287Y-109592733D01*
X124457267Y-109420713D01*
X124386094Y-109373156D01*
X124488000Y-109271250D01*
X124488000Y-108602000D01*
X123843750Y-108602000D01*
X123685000Y-108760750D01*
X123681928Y-108795000D01*
X123694188Y-108919482D01*
X123730498Y-109039180D01*
X123787061Y-109145000D01*
X123548363Y-109145000D01*
X123309764Y-109192460D01*
X123085008Y-109285557D01*
X122882733Y-109420713D01*
X122710713Y-109592733D01*
X122575557Y-109795008D01*
X122482460Y-110019764D01*
X122435000Y-110258363D01*
X122210000Y-110258363D01*
X122210000Y-106930000D01*
X123771928Y-106930000D01*
X123775000Y-106964250D01*
X123933750Y-107123000D01*
X124578000Y-107123000D01*
X124578000Y-106453750D01*
X124419250Y-106295000D01*
X124410000Y-106291928D01*
X124285518Y-106304188D01*
X124165820Y-106340498D01*
X124055506Y-106399463D01*
X123958815Y-106478815D01*
X123879463Y-106575506D01*
X123820498Y-106685820D01*
X123784188Y-106805518D01*
X123771928Y-106930000D01*
X122210000Y-106930000D01*
X122210000Y-105638072D01*
X123000000Y-105638072D01*
X123124482Y-105625812D01*
X123244180Y-105589502D01*
X123354494Y-105530537D01*
X123358616Y-105527154D01*
X123398061Y-105535000D01*
X123601939Y-105535000D01*
X123801898Y-105495226D01*
X123990256Y-105417205D01*
X124159774Y-105303937D01*
X124303937Y-105159774D01*
X124417205Y-104990256D01*
X124495226Y-104801898D01*
X124535000Y-104601939D01*
X124535000Y-104398061D01*
X124495226Y-104198102D01*
X124417205Y-104009744D01*
X124303937Y-103840226D01*
X124159774Y-103696063D01*
X124022801Y-103604541D01*
X123963840Y-103556153D01*
X123788380Y-103462368D01*
X123597994Y-103404615D01*
X123488096Y-103393791D01*
X123451185Y-103348815D01*
X123354494Y-103269463D01*
X123244180Y-103210498D01*
X123124482Y-103174188D01*
X123000000Y-103161928D01*
X122210000Y-103161928D01*
X122210000Y-101823444D01*
X122471775Y-101949158D01*
X122764642Y-102024365D01*
X123066553Y-102040991D01*
X123365907Y-101998397D01*
X123651199Y-101898222D01*
X123800792Y-101818261D01*
X123884475Y-101564080D01*
X123758363Y-101437968D01*
X123775000Y-101438072D01*
X123899482Y-101425812D01*
X124019180Y-101389502D01*
X124051716Y-101372111D01*
X124064080Y-101384475D01*
X124318261Y-101300792D01*
X124449158Y-101028225D01*
X124524365Y-100735358D01*
X124540991Y-100433447D01*
X124539666Y-100424128D01*
X124955477Y-100424128D01*
X125015423Y-100658305D01*
X125254551Y-100769602D01*
X125510797Y-100832109D01*
X125774314Y-100843425D01*
X126034976Y-100803114D01*
X126282764Y-100712724D01*
X126384577Y-100658305D01*
X126444523Y-100424128D01*
X125700000Y-99679605D01*
X124955477Y-100424128D01*
X124539666Y-100424128D01*
X124498397Y-100134093D01*
X124398222Y-99848801D01*
X124372873Y-99801377D01*
X124389170Y-99785080D01*
X124396886Y-99834976D01*
X124487276Y-100082764D01*
X124541695Y-100184577D01*
X124775872Y-100244523D01*
X125520395Y-99500000D01*
X125506253Y-99485858D01*
X125685858Y-99306253D01*
X125700000Y-99320395D01*
X125714143Y-99306253D01*
X125893748Y-99485858D01*
X125879605Y-99500000D01*
X126624128Y-100244523D01*
X126858305Y-100184577D01*
X126969602Y-99945449D01*
X127020938Y-99735000D01*
X127101939Y-99735000D01*
X127301898Y-99695226D01*
X127363928Y-99669532D01*
X127363928Y-99925000D01*
X127376188Y-100049482D01*
X127412498Y-100169180D01*
X127471463Y-100279494D01*
X127550815Y-100376185D01*
X127647506Y-100455537D01*
X127757820Y-100514502D01*
X127877518Y-100550812D01*
X128002000Y-100563072D01*
X131002000Y-100563072D01*
X131126482Y-100550812D01*
X131246180Y-100514502D01*
X131356494Y-100455537D01*
X131453185Y-100376185D01*
X131532537Y-100279494D01*
X131591502Y-100169180D01*
X131627812Y-100049482D01*
X131640072Y-99925000D01*
X131640072Y-98815000D01*
X135491928Y-98815000D01*
X135491928Y-99925000D01*
X135504188Y-100049482D01*
X135540498Y-100169180D01*
X135599463Y-100279494D01*
X135678815Y-100376185D01*
X135775506Y-100455537D01*
X135885820Y-100514502D01*
X136005518Y-100550812D01*
X136130000Y-100563072D01*
X139130000Y-100563072D01*
X139254482Y-100550812D01*
X139296911Y-100537941D01*
X140306181Y-100537941D01*
X140307078Y-100552797D01*
X140306624Y-100567676D01*
X140311851Y-100631879D01*
X140462483Y-101815285D01*
X140465337Y-101829893D01*
X140466855Y-101844700D01*
X140480526Y-101907648D01*
X140786348Y-103060737D01*
X140791106Y-103074832D01*
X140794571Y-103089316D01*
X140816448Y-103149902D01*
X141272087Y-104252414D01*
X141278670Y-104265760D01*
X141284018Y-104279654D01*
X141313716Y-104336815D01*
X141911166Y-105369381D01*
X141919458Y-105381743D01*
X141926595Y-105394803D01*
X141963591Y-105447534D01*
X142692357Y-106392015D01*
X142702213Y-106403174D01*
X142711013Y-106415173D01*
X142754658Y-106462548D01*
X143601934Y-107302346D01*
X143613176Y-107312100D01*
X143623489Y-107322834D01*
X143673017Y-107364020D01*
X144623921Y-108084385D01*
X144636361Y-108092571D01*
X144647996Y-108101841D01*
X144702502Y-108136094D01*
X144702536Y-108136116D01*
X144702548Y-108136122D01*
X145740358Y-108724388D01*
X145753764Y-108730853D01*
X145766531Y-108738508D01*
X145825106Y-108765259D01*
X145825124Y-108765268D01*
X145825129Y-108765270D01*
X146931633Y-109211114D01*
X146945774Y-109215748D01*
X146959442Y-109221648D01*
X147021060Y-109240423D01*
X148176814Y-109536011D01*
X148191445Y-109538735D01*
X148205774Y-109542775D01*
X148269334Y-109553235D01*
X149454029Y-109693370D01*
X149468886Y-109694135D01*
X149483629Y-109696245D01*
X149548012Y-109698207D01*
X149548014Y-109698207D01*
X150740835Y-109680427D01*
X150755672Y-109679219D01*
X150770554Y-109679361D01*
X150834634Y-109672791D01*
X152014625Y-109497409D01*
X152029170Y-109494250D01*
X152043942Y-109492422D01*
X152106590Y-109477435D01*
X153253021Y-109147533D01*
X153267014Y-109142480D01*
X153281422Y-109138713D01*
X153341510Y-109115581D01*
X153341536Y-109115572D01*
X153341543Y-109115568D01*
X154434266Y-108636943D01*
X154447473Y-108630081D01*
X154461250Y-108624444D01*
X154517776Y-108593556D01*
X155537603Y-107974613D01*
X155549786Y-107966065D01*
X155562697Y-107958655D01*
X155614641Y-107920562D01*
X156543652Y-107172177D01*
X156554596Y-107162094D01*
X156566416Y-107153040D01*
X156612841Y-107108435D01*
X156612866Y-107108412D01*
X156612873Y-107108404D01*
X157408333Y-106271511D01*
X157413608Y-106267347D01*
X157420704Y-106260424D01*
X157663157Y-106020595D01*
X157889511Y-105870841D01*
X158140644Y-105767903D01*
X158406991Y-105715704D01*
X158678404Y-105716232D01*
X158944540Y-105769468D01*
X159195273Y-105873384D01*
X159431504Y-106031000D01*
X159582580Y-106171383D01*
X159595844Y-106181487D01*
X159696570Y-106285046D01*
X159714855Y-106301449D01*
X159732005Y-106319042D01*
X159737571Y-106323972D01*
X160606763Y-107085722D01*
X160642238Y-107112778D01*
X160677376Y-107140162D01*
X160683559Y-107144291D01*
X161648090Y-107781030D01*
X161686905Y-107803018D01*
X161725439Y-107825383D01*
X161732125Y-107828634D01*
X162774148Y-108328580D01*
X162815566Y-108345088D01*
X162856800Y-108362026D01*
X162863866Y-108364340D01*
X163964100Y-108718242D01*
X164007437Y-108728992D01*
X164050525Y-108740160D01*
X164057840Y-108741494D01*
X164530580Y-108825114D01*
X164133508Y-109090429D01*
X163720429Y-109503508D01*
X163395875Y-109989238D01*
X163172318Y-110528952D01*
X163058350Y-111101909D01*
X163058350Y-111686091D01*
X163172318Y-112259048D01*
X163395875Y-112798762D01*
X163720429Y-113284492D01*
X164133508Y-113697571D01*
X164619238Y-114022125D01*
X165158952Y-114245682D01*
X165731909Y-114359650D01*
X166316091Y-114359650D01*
X166889048Y-114245682D01*
X167428762Y-114022125D01*
X167914492Y-113697571D01*
X168327571Y-113284492D01*
X168652125Y-112798762D01*
X168875682Y-112259048D01*
X168936116Y-111955222D01*
X171239990Y-111955222D01*
X171239990Y-112159100D01*
X171279764Y-112359059D01*
X171357785Y-112547417D01*
X171471053Y-112716935D01*
X171615216Y-112861098D01*
X171784734Y-112974366D01*
X171973092Y-113052387D01*
X172173051Y-113092161D01*
X172376929Y-113092161D01*
X172576888Y-113052387D01*
X172765246Y-112974366D01*
X172934764Y-112861098D01*
X173078927Y-112716935D01*
X173192195Y-112547417D01*
X173270216Y-112359059D01*
X173309990Y-112159100D01*
X173309990Y-111955222D01*
X173270216Y-111755263D01*
X173192195Y-111566905D01*
X173179092Y-111547296D01*
X173217205Y-111490256D01*
X173295226Y-111301898D01*
X173335000Y-111101939D01*
X173335000Y-110898061D01*
X173295226Y-110698102D01*
X173217205Y-110509744D01*
X173103937Y-110340226D01*
X173063711Y-110300000D01*
X173103937Y-110259774D01*
X173217205Y-110090256D01*
X173295226Y-109901898D01*
X173335000Y-109701939D01*
X173335000Y-109498061D01*
X174065000Y-109498061D01*
X174065000Y-109701939D01*
X174104774Y-109901898D01*
X174182795Y-110090256D01*
X174289532Y-110250000D01*
X174182795Y-110409744D01*
X174104774Y-110598102D01*
X174065000Y-110798061D01*
X174065000Y-111001939D01*
X174104774Y-111201898D01*
X174182795Y-111390256D01*
X174296063Y-111559774D01*
X174308125Y-111571836D01*
X174282795Y-111609744D01*
X174204774Y-111798102D01*
X174165000Y-111998061D01*
X174165000Y-112201939D01*
X174204774Y-112401898D01*
X174282795Y-112590256D01*
X174348179Y-112688110D01*
X174296063Y-112740226D01*
X174182795Y-112909744D01*
X174104774Y-113098102D01*
X174065000Y-113298061D01*
X174065000Y-113501939D01*
X174104774Y-113701898D01*
X174182795Y-113890256D01*
X174296063Y-114059774D01*
X174348179Y-114111890D01*
X174282795Y-114209744D01*
X174204774Y-114398102D01*
X174165000Y-114598061D01*
X174165000Y-114801939D01*
X174204774Y-115001898D01*
X174282795Y-115190256D01*
X174396063Y-115359774D01*
X174540226Y-115503937D01*
X174709744Y-115617205D01*
X174898102Y-115695226D01*
X175098061Y-115735000D01*
X175301939Y-115735000D01*
X175501898Y-115695226D01*
X175690256Y-115617205D01*
X175859774Y-115503937D01*
X176003937Y-115359774D01*
X176117205Y-115190256D01*
X176195226Y-115001898D01*
X176235000Y-114801939D01*
X176235000Y-114598061D01*
X176195226Y-114398102D01*
X176117205Y-114209744D01*
X176003937Y-114040226D01*
X175951821Y-113988110D01*
X176017205Y-113890256D01*
X176095226Y-113701898D01*
X176135000Y-113501939D01*
X176135000Y-113298061D01*
X176095226Y-113098102D01*
X176017205Y-112909744D01*
X175951821Y-112811890D01*
X176003937Y-112759774D01*
X176117205Y-112590256D01*
X176195226Y-112401898D01*
X176235000Y-112201939D01*
X176235000Y-111998061D01*
X176195226Y-111798102D01*
X176117205Y-111609744D01*
X176003937Y-111440226D01*
X175991875Y-111428164D01*
X176017205Y-111390256D01*
X176095226Y-111201898D01*
X176135000Y-111001939D01*
X176135000Y-110798061D01*
X176095226Y-110598102D01*
X176017205Y-110409744D01*
X175910468Y-110250000D01*
X176017205Y-110090256D01*
X176095226Y-109901898D01*
X176135000Y-109701939D01*
X176135000Y-109498061D01*
X176095226Y-109298102D01*
X176017205Y-109109744D01*
X175903937Y-108940226D01*
X175759774Y-108796063D01*
X175590256Y-108682795D01*
X175401898Y-108604774D01*
X175201939Y-108565000D01*
X174998061Y-108565000D01*
X174798102Y-108604774D01*
X174609744Y-108682795D01*
X174440226Y-108796063D01*
X174296063Y-108940226D01*
X174182795Y-109109744D01*
X174104774Y-109298102D01*
X174065000Y-109498061D01*
X173335000Y-109498061D01*
X173295226Y-109298102D01*
X173217205Y-109109744D01*
X173103937Y-108940226D01*
X172959774Y-108796063D01*
X172790256Y-108682795D01*
X172601898Y-108604774D01*
X172401939Y-108565000D01*
X172198061Y-108565000D01*
X171998102Y-108604774D01*
X171809744Y-108682795D01*
X171640226Y-108796063D01*
X171496063Y-108940226D01*
X171382795Y-109109744D01*
X171304774Y-109298102D01*
X171265000Y-109498061D01*
X171265000Y-109701939D01*
X171304774Y-109901898D01*
X171382795Y-110090256D01*
X171496063Y-110259774D01*
X171536289Y-110300000D01*
X171496063Y-110340226D01*
X171382795Y-110509744D01*
X171304774Y-110698102D01*
X171265000Y-110898061D01*
X171265000Y-111101939D01*
X171304774Y-111301898D01*
X171382795Y-111490256D01*
X171395898Y-111509865D01*
X171357785Y-111566905D01*
X171279764Y-111755263D01*
X171239990Y-111955222D01*
X168936116Y-111955222D01*
X168989650Y-111686091D01*
X168989650Y-111101909D01*
X168875682Y-110528952D01*
X168652125Y-109989238D01*
X168327571Y-109503508D01*
X167914492Y-109090429D01*
X167615640Y-108890743D01*
X167693661Y-108883135D01*
X167737687Y-108875792D01*
X167781684Y-108868927D01*
X167788927Y-108867246D01*
X168913357Y-108600011D01*
X168955969Y-108586764D01*
X168998638Y-108573988D01*
X169005571Y-108571344D01*
X169005585Y-108571340D01*
X169005597Y-108571334D01*
X170083344Y-108153974D01*
X170123770Y-108135063D01*
X170164303Y-108116618D01*
X170170827Y-108113051D01*
X171181971Y-107553279D01*
X171219422Y-107529079D01*
X171257113Y-107505281D01*
X171263092Y-107500862D01*
X171400663Y-107398061D01*
X174165000Y-107398061D01*
X174165000Y-107601939D01*
X174204774Y-107801898D01*
X174282795Y-107990256D01*
X174396063Y-108159774D01*
X174540226Y-108303937D01*
X174709744Y-108417205D01*
X174898102Y-108495226D01*
X175098061Y-108535000D01*
X175301939Y-108535000D01*
X175501898Y-108495226D01*
X175690256Y-108417205D01*
X175859774Y-108303937D01*
X175871836Y-108291875D01*
X175909744Y-108317205D01*
X176098102Y-108395226D01*
X176298061Y-108435000D01*
X176501939Y-108435000D01*
X176701898Y-108395226D01*
X176890256Y-108317205D01*
X177059774Y-108203937D01*
X177203937Y-108059774D01*
X177317205Y-107890256D01*
X177395226Y-107701898D01*
X177435000Y-107501939D01*
X177435000Y-107298061D01*
X177395226Y-107098102D01*
X177317205Y-106909744D01*
X177203937Y-106740226D01*
X177059774Y-106596063D01*
X176890256Y-106482795D01*
X176701898Y-106404774D01*
X176501939Y-106365000D01*
X176298061Y-106365000D01*
X176098102Y-106404774D01*
X175909744Y-106482795D01*
X175740226Y-106596063D01*
X175728164Y-106608125D01*
X175690256Y-106582795D01*
X175501898Y-106504774D01*
X175301939Y-106465000D01*
X175098061Y-106465000D01*
X174898102Y-106504774D01*
X174709744Y-106582795D01*
X174540226Y-106696063D01*
X174396063Y-106840226D01*
X174282795Y-107009744D01*
X174204774Y-107198102D01*
X174165000Y-107398061D01*
X171400663Y-107398061D01*
X172188911Y-106809040D01*
X172222773Y-106779946D01*
X172256842Y-106751289D01*
X172262159Y-106746106D01*
X172262167Y-106746099D01*
X172262174Y-106746091D01*
X173085530Y-105935030D01*
X173115152Y-105901584D01*
X173144995Y-105868593D01*
X173149566Y-105862729D01*
X173855235Y-104947422D01*
X173880019Y-104910303D01*
X173905133Y-104873530D01*
X173908866Y-104867099D01*
X174483786Y-103864489D01*
X174503284Y-103824389D01*
X174523195Y-103784509D01*
X174526020Y-103777631D01*
X174959550Y-102706273D01*
X174973443Y-102663843D01*
X174987739Y-102621684D01*
X174989605Y-102614487D01*
X175273724Y-101494204D01*
X175281719Y-101450342D01*
X175290173Y-101406572D01*
X175291044Y-101399188D01*
X175420495Y-100250710D01*
X175422462Y-100206206D01*
X175424899Y-100161656D01*
X175424760Y-100154222D01*
X175397146Y-98998802D01*
X175393051Y-98954399D01*
X175389423Y-98909976D01*
X175388277Y-98902630D01*
X175204111Y-97761647D01*
X175194017Y-97718165D01*
X175184404Y-97674690D01*
X175182275Y-97667582D01*
X175182272Y-97667567D01*
X175182267Y-97667554D01*
X174844959Y-96562135D01*
X174829067Y-96520449D01*
X174813633Y-96478657D01*
X174810554Y-96471889D01*
X174326340Y-95422465D01*
X174304929Y-95383307D01*
X174283974Y-95344010D01*
X174280005Y-95337723D01*
X174274508Y-95329117D01*
X174765000Y-95329117D01*
X174765000Y-95670883D01*
X174831675Y-96006081D01*
X174962463Y-96321831D01*
X175152337Y-96605998D01*
X175394002Y-96847663D01*
X175678169Y-97037537D01*
X175993919Y-97168325D01*
X176329117Y-97235000D01*
X176670883Y-97235000D01*
X177006081Y-97168325D01*
X177321831Y-97037537D01*
X177605998Y-96847663D01*
X177847663Y-96605998D01*
X178037537Y-96321831D01*
X178168325Y-96006081D01*
X178235000Y-95670883D01*
X178235000Y-95329117D01*
X178168325Y-94993919D01*
X178037537Y-94678169D01*
X177847663Y-94394002D01*
X177605998Y-94152337D01*
X177321831Y-93962463D01*
X177006081Y-93831675D01*
X176670883Y-93765000D01*
X176329117Y-93765000D01*
X175993919Y-93831675D01*
X175678169Y-93962463D01*
X175394002Y-94152337D01*
X175152337Y-94394002D01*
X174962463Y-94678169D01*
X174831675Y-94993919D01*
X174765000Y-95329117D01*
X174274508Y-95329117D01*
X173657846Y-94363722D01*
X173631328Y-94327844D01*
X173605225Y-94291743D01*
X173600439Y-94286053D01*
X172851850Y-93405501D01*
X172820720Y-93373566D01*
X172789947Y-93341329D01*
X172784433Y-93336342D01*
X171923266Y-92565532D01*
X171888104Y-92538128D01*
X171853227Y-92510355D01*
X171847087Y-92506162D01*
X170889276Y-91859357D01*
X170850708Y-91836972D01*
X170812396Y-91814196D01*
X170805744Y-91810875D01*
X169769013Y-91300045D01*
X169727750Y-91283096D01*
X169686716Y-91265736D01*
X169679675Y-91263348D01*
X168583209Y-90897944D01*
X168540045Y-90886756D01*
X168497016Y-90875121D01*
X168489716Y-90873711D01*
X167353804Y-90660497D01*
X167309484Y-90655266D01*
X167265312Y-90649583D01*
X167257888Y-90649176D01*
X166103549Y-90592094D01*
X166058924Y-90592927D01*
X166014394Y-90593291D01*
X166006983Y-90593896D01*
X164855577Y-90694005D01*
X164811481Y-90700886D01*
X164767411Y-90707291D01*
X164760153Y-90708895D01*
X164760147Y-90708897D01*
X163632984Y-90964341D01*
X163590291Y-90977124D01*
X163547435Y-90989469D01*
X163540460Y-90992045D01*
X162458390Y-91398102D01*
X162417774Y-91416585D01*
X162377044Y-91434608D01*
X162370483Y-91438106D01*
X161353533Y-91987259D01*
X161315807Y-92011079D01*
X161277892Y-92034468D01*
X161271867Y-92038824D01*
X160338854Y-92720913D01*
X160304705Y-92749637D01*
X160270321Y-92777950D01*
X160264952Y-92783076D01*
X160264943Y-92783083D01*
X160264936Y-92783091D01*
X159439178Y-93579654D01*
X159194350Y-93804852D01*
X158962632Y-93946341D01*
X158707855Y-94040123D01*
X158439710Y-94082635D01*
X158168414Y-94072253D01*
X157904298Y-94009374D01*
X157657432Y-93896395D01*
X157436113Y-93736825D01*
X157212365Y-93498756D01*
X157209465Y-93496219D01*
X157203178Y-93489162D01*
X156685928Y-92959039D01*
X156681507Y-92955071D01*
X156677566Y-92950610D01*
X156629806Y-92907386D01*
X155709903Y-92147834D01*
X155697823Y-92139139D01*
X155686580Y-92129384D01*
X155633523Y-92092856D01*
X154621245Y-91461640D01*
X154608121Y-91454619D01*
X154595687Y-91446437D01*
X154538265Y-91417247D01*
X153451398Y-90925456D01*
X153437466Y-90920234D01*
X153424054Y-90913766D01*
X153363276Y-90892427D01*
X152220912Y-90548701D01*
X152206406Y-90545367D01*
X152192262Y-90540731D01*
X152129196Y-90527618D01*
X150951409Y-90337996D01*
X150936587Y-90336609D01*
X150921955Y-90333885D01*
X150857709Y-90329227D01*
X149665189Y-90297041D01*
X149650310Y-90297627D01*
X149635451Y-90296862D01*
X149571153Y-90300743D01*
X148384852Y-90426558D01*
X148370195Y-90429104D01*
X148355352Y-90430312D01*
X148292140Y-90442661D01*
X148292131Y-90442663D01*
X148292128Y-90442664D01*
X147132892Y-90724268D01*
X147118692Y-90728733D01*
X147104146Y-90731892D01*
X147043115Y-90752495D01*
X145931302Y-91184944D01*
X145917814Y-91191249D01*
X145903818Y-91196303D01*
X145846047Y-91224797D01*
X144801196Y-91800492D01*
X144788667Y-91808521D01*
X144775456Y-91815385D01*
X144721962Y-91851269D01*
X143762428Y-92560094D01*
X143751070Y-92569710D01*
X143738883Y-92578261D01*
X143690605Y-92620905D01*
X142833246Y-93450408D01*
X142823255Y-93461447D01*
X142812311Y-93471530D01*
X142770096Y-93520185D01*
X142029977Y-94455792D01*
X142021536Y-94468052D01*
X142012019Y-94479497D01*
X141976625Y-94533285D01*
X141976610Y-94533307D01*
X141976607Y-94533314D01*
X141366732Y-95558582D01*
X141359985Y-95571854D01*
X141352068Y-95584453D01*
X141324087Y-95642474D01*
X140855165Y-96739402D01*
X140850234Y-96753447D01*
X140844051Y-96766985D01*
X140823989Y-96828197D01*
X140504262Y-97977508D01*
X140501233Y-97992077D01*
X140496893Y-98006319D01*
X140485104Y-98069646D01*
X140320190Y-99251147D01*
X140319114Y-99265994D01*
X140316697Y-99280678D01*
X140313386Y-99345009D01*
X140306181Y-100537941D01*
X139296911Y-100537941D01*
X139374180Y-100514502D01*
X139484494Y-100455537D01*
X139581185Y-100376185D01*
X139660537Y-100279494D01*
X139719502Y-100169180D01*
X139755812Y-100049482D01*
X139768072Y-99925000D01*
X139768072Y-98815000D01*
X139755812Y-98690518D01*
X139719502Y-98570820D01*
X139660537Y-98460506D01*
X139581185Y-98363815D01*
X139484494Y-98284463D01*
X139374180Y-98225498D01*
X139254482Y-98189188D01*
X139130000Y-98176928D01*
X136130000Y-98176928D01*
X136005518Y-98189188D01*
X135885820Y-98225498D01*
X135775506Y-98284463D01*
X135678815Y-98363815D01*
X135599463Y-98460506D01*
X135540498Y-98570820D01*
X135504188Y-98690518D01*
X135491928Y-98815000D01*
X131640072Y-98815000D01*
X131627812Y-98690518D01*
X131591502Y-98570820D01*
X131532537Y-98460506D01*
X131453185Y-98363815D01*
X131356494Y-98284463D01*
X131246180Y-98225498D01*
X131126482Y-98189188D01*
X131002000Y-98176928D01*
X129653995Y-98176928D01*
X129660010Y-98146690D01*
X129660010Y-98023072D01*
X131002000Y-98023072D01*
X131126482Y-98010812D01*
X131246180Y-97974502D01*
X131356494Y-97915537D01*
X131453185Y-97836185D01*
X131532537Y-97739494D01*
X131591502Y-97629180D01*
X131627812Y-97509482D01*
X131640072Y-97385000D01*
X135491928Y-97385000D01*
X135504188Y-97509482D01*
X135540498Y-97629180D01*
X135599463Y-97739494D01*
X135678815Y-97836185D01*
X135775506Y-97915537D01*
X135885820Y-97974502D01*
X136005518Y-98010812D01*
X136130000Y-98023072D01*
X137344250Y-98020000D01*
X137503000Y-97861250D01*
X137503000Y-96957000D01*
X137757000Y-96957000D01*
X137757000Y-97861250D01*
X137915750Y-98020000D01*
X139130000Y-98023072D01*
X139254482Y-98010812D01*
X139374180Y-97974502D01*
X139484494Y-97915537D01*
X139581185Y-97836185D01*
X139660537Y-97739494D01*
X139719502Y-97629180D01*
X139755812Y-97509482D01*
X139768072Y-97385000D01*
X139765000Y-97115750D01*
X139606250Y-96957000D01*
X137757000Y-96957000D01*
X137503000Y-96957000D01*
X135653750Y-96957000D01*
X135495000Y-97115750D01*
X135491928Y-97385000D01*
X131640072Y-97385000D01*
X131640072Y-96988283D01*
X134160000Y-94468355D01*
X134160000Y-94721260D01*
X134217068Y-95008158D01*
X134329010Y-95278411D01*
X134491525Y-95521632D01*
X134698368Y-95728475D01*
X134941589Y-95890990D01*
X135211842Y-96002932D01*
X135498740Y-96060000D01*
X135531646Y-96060000D01*
X135504188Y-96150518D01*
X135491928Y-96275000D01*
X135495000Y-96544250D01*
X135653750Y-96703000D01*
X137503000Y-96703000D01*
X137503000Y-95798750D01*
X137757000Y-95798750D01*
X137757000Y-96703000D01*
X139606250Y-96703000D01*
X139765000Y-96544250D01*
X139768072Y-96275000D01*
X139755812Y-96150518D01*
X139719502Y-96030820D01*
X139660537Y-95920506D01*
X139581185Y-95823815D01*
X139484494Y-95744463D01*
X139374180Y-95685498D01*
X139254482Y-95649188D01*
X139130000Y-95636928D01*
X137915750Y-95640000D01*
X137757000Y-95798750D01*
X137503000Y-95798750D01*
X137344250Y-95640000D01*
X136681783Y-95638324D01*
X136798475Y-95521632D01*
X136960990Y-95278411D01*
X137072932Y-95008158D01*
X137130000Y-94721260D01*
X137130000Y-94428740D01*
X137072932Y-94141842D01*
X137023700Y-94022986D01*
X137198102Y-94095226D01*
X137398061Y-94135000D01*
X137601939Y-94135000D01*
X137801898Y-94095226D01*
X137990256Y-94017205D01*
X138159774Y-93903937D01*
X138303937Y-93759774D01*
X138417205Y-93590256D01*
X138495226Y-93401898D01*
X138535000Y-93201939D01*
X138535000Y-92998061D01*
X138495226Y-92798102D01*
X138417205Y-92609744D01*
X138303937Y-92440226D01*
X138159774Y-92296063D01*
X138053226Y-92224870D01*
X137903356Y-92075000D01*
X139011928Y-92075000D01*
X139024188Y-92199482D01*
X139060498Y-92319180D01*
X139119463Y-92429494D01*
X139198815Y-92526185D01*
X139295506Y-92605537D01*
X139405820Y-92664502D01*
X139525518Y-92700812D01*
X139650000Y-92713072D01*
X139814250Y-92710000D01*
X139973000Y-92551250D01*
X139973000Y-91602000D01*
X140227000Y-91602000D01*
X140227000Y-92551250D01*
X140385750Y-92710000D01*
X140550000Y-92713072D01*
X140674482Y-92700812D01*
X140794180Y-92664502D01*
X140904494Y-92605537D01*
X141001185Y-92526185D01*
X141080537Y-92429494D01*
X141139502Y-92319180D01*
X141175812Y-92199482D01*
X141188072Y-92075000D01*
X141185000Y-91760750D01*
X141026250Y-91602000D01*
X140227000Y-91602000D01*
X139973000Y-91602000D01*
X139173750Y-91602000D01*
X139015000Y-91760750D01*
X139011928Y-92075000D01*
X137903356Y-92075000D01*
X137888072Y-92059716D01*
X137888072Y-90875000D01*
X139011928Y-90875000D01*
X139015000Y-91189250D01*
X139173750Y-91348000D01*
X139973000Y-91348000D01*
X139973000Y-90398750D01*
X140227000Y-90398750D01*
X140227000Y-91348000D01*
X141026250Y-91348000D01*
X141185000Y-91189250D01*
X141188072Y-90875000D01*
X141175812Y-90750518D01*
X141139502Y-90630820D01*
X141080537Y-90520506D01*
X141001185Y-90423815D01*
X140904494Y-90344463D01*
X140794180Y-90285498D01*
X140674482Y-90249188D01*
X140550000Y-90236928D01*
X140385750Y-90240000D01*
X140227000Y-90398750D01*
X139973000Y-90398750D01*
X139814250Y-90240000D01*
X139650000Y-90236928D01*
X139525518Y-90249188D01*
X139405820Y-90285498D01*
X139295506Y-90344463D01*
X139198815Y-90423815D01*
X139119463Y-90520506D01*
X139060498Y-90630820D01*
X139024188Y-90750518D01*
X139011928Y-90875000D01*
X137888072Y-90875000D01*
X137875812Y-90750518D01*
X137839502Y-90630820D01*
X137780537Y-90520506D01*
X137701185Y-90423815D01*
X137604494Y-90344463D01*
X137494180Y-90285498D01*
X137374482Y-90249188D01*
X137250000Y-90236928D01*
X136350000Y-90236928D01*
X136225518Y-90249188D01*
X136105820Y-90285498D01*
X135995506Y-90344463D01*
X135898815Y-90423815D01*
X135844499Y-90490000D01*
X135749604Y-90490000D01*
X135699999Y-90485114D01*
X135650394Y-90490000D01*
X135650392Y-90490000D01*
X135502006Y-90504615D01*
X135311620Y-90562368D01*
X135136160Y-90656153D01*
X134982367Y-90782367D01*
X134950739Y-90820906D01*
X130134717Y-95636928D01*
X128002000Y-95636928D01*
X127877518Y-95649188D01*
X127757820Y-95685498D01*
X127647506Y-95744463D01*
X127550815Y-95823815D01*
X127471463Y-95920506D01*
X127412498Y-96030820D01*
X127395640Y-96086393D01*
X127390256Y-96082795D01*
X127201898Y-96004774D01*
X127001939Y-95965000D01*
X126984096Y-95965000D01*
X126985000Y-95956750D01*
X126952753Y-95924503D01*
X126939502Y-95880820D01*
X126880537Y-95770506D01*
X126801185Y-95673815D01*
X126713678Y-95602000D01*
X126826250Y-95602000D01*
X126985000Y-95443250D01*
X126973741Y-95340526D01*
X126935521Y-95221424D01*
X126884186Y-95128971D01*
X126969602Y-94945449D01*
X127032109Y-94689203D01*
X127043425Y-94425686D01*
X127003114Y-94165024D01*
X126912724Y-93917236D01*
X126858305Y-93815423D01*
X126624128Y-93755477D01*
X125879605Y-94500000D01*
X125893748Y-94514143D01*
X125714143Y-94693748D01*
X125700000Y-94679605D01*
X125685858Y-94693748D01*
X125506253Y-94514143D01*
X125520395Y-94500000D01*
X124775872Y-93755477D01*
X124541695Y-93815423D01*
X124457167Y-93997036D01*
X124524365Y-93735358D01*
X124533147Y-93575872D01*
X124955477Y-93575872D01*
X125700000Y-94320395D01*
X126444523Y-93575872D01*
X126384577Y-93341695D01*
X126145449Y-93230398D01*
X125889203Y-93167891D01*
X125625686Y-93156575D01*
X125365024Y-93196886D01*
X125117236Y-93287276D01*
X125015423Y-93341695D01*
X124955477Y-93575872D01*
X124533147Y-93575872D01*
X124540991Y-93433447D01*
X124498397Y-93134093D01*
X124398222Y-92848801D01*
X124318261Y-92699208D01*
X124064080Y-92615525D01*
X124051716Y-92627889D01*
X124019180Y-92610498D01*
X123899482Y-92574188D01*
X123775000Y-92561928D01*
X123758363Y-92562032D01*
X123884475Y-92435920D01*
X123800792Y-92181739D01*
X123528225Y-92050842D01*
X123235358Y-91975635D01*
X122933447Y-91959009D01*
X122634093Y-92001603D01*
X122348801Y-92101778D01*
X122210000Y-92175970D01*
X122210000Y-87710401D01*
X127852660Y-87710401D01*
X127852660Y-87914279D01*
X127892434Y-88114238D01*
X127970455Y-88302596D01*
X128083723Y-88472114D01*
X128127661Y-88516052D01*
X128127660Y-91659179D01*
X128112017Y-91672017D01*
X128014321Y-91791060D01*
X127941726Y-91926875D01*
X127897023Y-92074243D01*
X127881928Y-92227500D01*
X127881928Y-92572500D01*
X127897023Y-92725757D01*
X127941726Y-92873125D01*
X128014321Y-93008940D01*
X128112017Y-93127983D01*
X128127660Y-93140821D01*
X128127660Y-93259179D01*
X128112017Y-93272017D01*
X128014321Y-93391060D01*
X127941726Y-93526875D01*
X127897023Y-93674243D01*
X127881928Y-93827500D01*
X127881928Y-94172500D01*
X127897023Y-94325757D01*
X127941726Y-94473125D01*
X128014321Y-94608940D01*
X128112017Y-94727983D01*
X128231060Y-94825679D01*
X128366875Y-94898274D01*
X128514243Y-94942977D01*
X128667500Y-94958072D01*
X128962500Y-94958072D01*
X129115757Y-94942977D01*
X129238684Y-94905688D01*
X129245820Y-94909502D01*
X129365518Y-94945812D01*
X129490000Y-94958072D01*
X129499250Y-94955000D01*
X129658000Y-94796250D01*
X129658000Y-94529763D01*
X129688274Y-94473125D01*
X129732977Y-94325757D01*
X129748072Y-94172500D01*
X129748072Y-94127000D01*
X129912000Y-94127000D01*
X129912000Y-94796250D01*
X130070750Y-94955000D01*
X130080000Y-94958072D01*
X130204482Y-94945812D01*
X130324180Y-94909502D01*
X130434494Y-94850537D01*
X130531185Y-94771185D01*
X130610537Y-94674494D01*
X130669502Y-94564180D01*
X130705812Y-94444482D01*
X130718072Y-94320000D01*
X130715000Y-94285750D01*
X130556250Y-94127000D01*
X129912000Y-94127000D01*
X129748072Y-94127000D01*
X129748072Y-93881358D01*
X130162673Y-93881358D01*
X130199995Y-93885034D01*
X130237317Y-93881358D01*
X130237328Y-93881358D01*
X130322187Y-93873000D01*
X130556250Y-93873000D01*
X130715000Y-93714250D01*
X130718072Y-93680000D01*
X130718013Y-93679400D01*
X130739996Y-93661359D01*
X130763799Y-93632355D01*
X132014796Y-92381359D01*
X132076933Y-92381359D01*
X132276892Y-92341585D01*
X132465250Y-92263564D01*
X132634768Y-92150296D01*
X132778931Y-92006133D01*
X132892199Y-91836615D01*
X132970220Y-91648257D01*
X133009994Y-91448298D01*
X133009994Y-91244420D01*
X132970220Y-91044461D01*
X132892199Y-90856103D01*
X132778931Y-90686585D01*
X132634768Y-90542422D01*
X132465250Y-90429154D01*
X132276892Y-90351133D01*
X132076933Y-90311359D01*
X131873055Y-90311359D01*
X131673096Y-90351133D01*
X131484738Y-90429154D01*
X131315220Y-90542422D01*
X131171057Y-90686585D01*
X131057789Y-90856103D01*
X130979768Y-91044461D01*
X130939994Y-91244420D01*
X130939994Y-91306557D01*
X130570198Y-91676353D01*
X130531185Y-91628815D01*
X130434494Y-91549463D01*
X130324180Y-91490498D01*
X130204482Y-91454188D01*
X130080000Y-91441928D01*
X130070750Y-91445000D01*
X129912000Y-91603750D01*
X129912000Y-92273000D01*
X129932000Y-92273000D01*
X129932000Y-92314552D01*
X129885194Y-92361358D01*
X129748072Y-92361358D01*
X129748072Y-92227500D01*
X129732977Y-92074243D01*
X129688274Y-91926875D01*
X129658000Y-91870237D01*
X129658000Y-91603750D01*
X129647660Y-91593410D01*
X129647660Y-88516051D01*
X129691597Y-88472114D01*
X129804865Y-88302596D01*
X129882886Y-88114238D01*
X129922660Y-87914279D01*
X129922660Y-87710401D01*
X129882886Y-87510442D01*
X129804865Y-87322084D01*
X129691597Y-87152566D01*
X129547434Y-87008403D01*
X129377916Y-86895135D01*
X129189558Y-86817114D01*
X128989599Y-86777340D01*
X128785721Y-86777340D01*
X128585762Y-86817114D01*
X128397404Y-86895135D01*
X128227886Y-87008403D01*
X128083723Y-87152566D01*
X127970455Y-87322084D01*
X127892434Y-87510442D01*
X127852660Y-87710401D01*
X122210000Y-87710401D01*
X122210000Y-86400524D01*
X125490000Y-86400524D01*
X125490000Y-86599476D01*
X125528814Y-86794606D01*
X125604950Y-86978414D01*
X125715482Y-87143837D01*
X125856163Y-87284518D01*
X126021586Y-87395050D01*
X126205394Y-87471186D01*
X126400524Y-87510000D01*
X126599476Y-87510000D01*
X126794606Y-87471186D01*
X126978414Y-87395050D01*
X127143837Y-87284518D01*
X127284518Y-87143837D01*
X127395050Y-86978414D01*
X127471186Y-86794606D01*
X127510000Y-86599476D01*
X127510000Y-86400524D01*
X127471186Y-86205394D01*
X127395050Y-86021586D01*
X127284518Y-85856163D01*
X127143837Y-85715482D01*
X126978414Y-85604950D01*
X126794606Y-85528814D01*
X126599476Y-85490000D01*
X126400524Y-85490000D01*
X126205394Y-85528814D01*
X126021586Y-85604950D01*
X125856163Y-85715482D01*
X125715482Y-85856163D01*
X125604950Y-86021586D01*
X125528814Y-86205394D01*
X125490000Y-86400524D01*
X122210000Y-86400524D01*
X122210000Y-84034876D01*
X122213435Y-84000000D01*
X122199727Y-83860816D01*
X122159128Y-83726980D01*
X122093200Y-83603637D01*
X122004475Y-83495525D01*
X121896363Y-83406800D01*
X121773020Y-83340872D01*
X121639184Y-83300273D01*
X121534877Y-83290000D01*
X121500000Y-83286565D01*
X121465123Y-83290000D01*
X118410000Y-83290000D01*
X118410000Y-79698061D01*
X133865000Y-79698061D01*
X133865000Y-79901939D01*
X133904774Y-80101898D01*
X133982795Y-80290256D01*
X134096063Y-80459774D01*
X134240226Y-80603937D01*
X134409744Y-80717205D01*
X134598102Y-80795226D01*
X134798061Y-80835000D01*
X135001939Y-80835000D01*
X135201898Y-80795226D01*
X135390256Y-80717205D01*
X135559774Y-80603937D01*
X135703937Y-80459774D01*
X135817205Y-80290256D01*
X135895226Y-80101898D01*
X135935000Y-79901939D01*
X135935000Y-79698061D01*
X135895226Y-79498102D01*
X135886551Y-79477160D01*
X136003937Y-79359774D01*
X136117205Y-79190256D01*
X136195226Y-79001898D01*
X136235000Y-78801939D01*
X136235000Y-78598061D01*
X136195226Y-78398102D01*
X136195210Y-78398061D01*
X136965000Y-78398061D01*
X136965000Y-78601939D01*
X137004774Y-78801898D01*
X137082795Y-78990256D01*
X137156123Y-79100000D01*
X137082795Y-79209744D01*
X137004774Y-79398102D01*
X136965000Y-79598061D01*
X136965000Y-79801939D01*
X137004774Y-80001898D01*
X137082795Y-80190256D01*
X137196063Y-80359774D01*
X137340226Y-80503937D01*
X137509744Y-80617205D01*
X137698102Y-80695226D01*
X137898061Y-80735000D01*
X138101939Y-80735000D01*
X138301898Y-80695226D01*
X138490256Y-80617205D01*
X138659774Y-80503937D01*
X138803937Y-80359774D01*
X138917205Y-80190256D01*
X138995226Y-80001898D01*
X139035000Y-79801939D01*
X139035000Y-79598061D01*
X138995226Y-79398102D01*
X138917205Y-79209744D01*
X138843877Y-79100000D01*
X138917205Y-78990256D01*
X138995226Y-78801898D01*
X139035000Y-78601939D01*
X139035000Y-78398061D01*
X138995226Y-78198102D01*
X138917205Y-78009744D01*
X138803937Y-77840226D01*
X138659774Y-77696063D01*
X138490256Y-77582795D01*
X138301898Y-77504774D01*
X138101939Y-77465000D01*
X137898061Y-77465000D01*
X137698102Y-77504774D01*
X137509744Y-77582795D01*
X137340226Y-77696063D01*
X137196063Y-77840226D01*
X137082795Y-78009744D01*
X137004774Y-78198102D01*
X136965000Y-78398061D01*
X136195210Y-78398061D01*
X136117205Y-78209744D01*
X136003937Y-78040226D01*
X135859774Y-77896063D01*
X135690256Y-77782795D01*
X135501898Y-77704774D01*
X135301939Y-77665000D01*
X135098061Y-77665000D01*
X134898102Y-77704774D01*
X134709744Y-77782795D01*
X134540226Y-77896063D01*
X134396063Y-78040226D01*
X134282795Y-78209744D01*
X134204774Y-78398102D01*
X134165000Y-78598061D01*
X134165000Y-78801939D01*
X134204774Y-79001898D01*
X134213449Y-79022840D01*
X134096063Y-79140226D01*
X133982795Y-79309744D01*
X133904774Y-79498102D01*
X133865000Y-79698061D01*
X118410000Y-79698061D01*
X118410000Y-76398061D01*
X123365000Y-76398061D01*
X123365000Y-76601939D01*
X123404774Y-76801898D01*
X123482795Y-76990256D01*
X123596063Y-77159774D01*
X123740226Y-77303937D01*
X123778619Y-77329591D01*
X123765000Y-77398061D01*
X123765000Y-77601939D01*
X123796177Y-77758678D01*
X123740226Y-77796063D01*
X123596063Y-77940226D01*
X123482795Y-78109744D01*
X123404774Y-78298102D01*
X123365000Y-78498061D01*
X123365000Y-78701939D01*
X123404774Y-78901898D01*
X123482795Y-79090256D01*
X123596063Y-79259774D01*
X123740226Y-79403937D01*
X123909744Y-79517205D01*
X124098102Y-79595226D01*
X124298061Y-79635000D01*
X124501939Y-79635000D01*
X124701898Y-79595226D01*
X124890256Y-79517205D01*
X125059774Y-79403937D01*
X125203937Y-79259774D01*
X125317205Y-79090256D01*
X125395226Y-78901898D01*
X125435000Y-78701939D01*
X125435000Y-78498061D01*
X125403823Y-78341322D01*
X125459774Y-78303937D01*
X125603937Y-78159774D01*
X125717205Y-77990256D01*
X125795226Y-77801898D01*
X125835000Y-77601939D01*
X125835000Y-77398061D01*
X125795226Y-77198102D01*
X125717205Y-77009744D01*
X125603937Y-76840226D01*
X125459774Y-76696063D01*
X125421381Y-76670409D01*
X125435000Y-76601939D01*
X125435000Y-76398061D01*
X125395226Y-76198102D01*
X125317205Y-76009744D01*
X125203937Y-75840226D01*
X125161772Y-75798061D01*
X134765000Y-75798061D01*
X134765000Y-76001939D01*
X134804774Y-76201898D01*
X134882795Y-76390256D01*
X134996063Y-76559774D01*
X135140226Y-76703937D01*
X135309744Y-76817205D01*
X135498102Y-76895226D01*
X135698061Y-76935000D01*
X135901939Y-76935000D01*
X136101898Y-76895226D01*
X136290256Y-76817205D01*
X136459774Y-76703937D01*
X136603937Y-76559774D01*
X136717205Y-76390256D01*
X136795226Y-76201898D01*
X136835000Y-76001939D01*
X136835000Y-75798061D01*
X136795226Y-75598102D01*
X136717205Y-75409744D01*
X136603937Y-75240226D01*
X136459774Y-75096063D01*
X136290256Y-74982795D01*
X136101898Y-74904774D01*
X135901939Y-74865000D01*
X135698061Y-74865000D01*
X135498102Y-74904774D01*
X135309744Y-74982795D01*
X135140226Y-75096063D01*
X134996063Y-75240226D01*
X134882795Y-75409744D01*
X134804774Y-75598102D01*
X134765000Y-75798061D01*
X125161772Y-75798061D01*
X125059774Y-75696063D01*
X124890256Y-75582795D01*
X124701898Y-75504774D01*
X124501939Y-75465000D01*
X124298061Y-75465000D01*
X124098102Y-75504774D01*
X123909744Y-75582795D01*
X123740226Y-75696063D01*
X123596063Y-75840226D01*
X123482795Y-76009744D01*
X123404774Y-76198102D01*
X123365000Y-76398061D01*
X118410000Y-76398061D01*
X118410000Y-74198061D01*
X123365000Y-74198061D01*
X123365000Y-74401939D01*
X123404774Y-74601898D01*
X123482795Y-74790256D01*
X123596063Y-74959774D01*
X123740226Y-75103937D01*
X123909744Y-75217205D01*
X124098102Y-75295226D01*
X124298061Y-75335000D01*
X124501939Y-75335000D01*
X124701898Y-75295226D01*
X124890256Y-75217205D01*
X125059774Y-75103937D01*
X125203937Y-74959774D01*
X125317205Y-74790256D01*
X125395226Y-74601898D01*
X125435000Y-74401939D01*
X125435000Y-74400524D01*
X173990000Y-74400524D01*
X173990000Y-74599476D01*
X174028814Y-74794606D01*
X174104950Y-74978414D01*
X174215482Y-75143837D01*
X174356163Y-75284518D01*
X174521586Y-75395050D01*
X174705394Y-75471186D01*
X174900524Y-75510000D01*
X175099476Y-75510000D01*
X175294606Y-75471186D01*
X175478414Y-75395050D01*
X175643837Y-75284518D01*
X175784518Y-75143837D01*
X175895050Y-74978414D01*
X175971186Y-74794606D01*
X176010000Y-74599476D01*
X176010000Y-74400524D01*
X175971186Y-74205394D01*
X175895050Y-74021586D01*
X175784518Y-73856163D01*
X175643837Y-73715482D01*
X175478414Y-73604950D01*
X175294606Y-73528814D01*
X175099476Y-73490000D01*
X174900524Y-73490000D01*
X174705394Y-73528814D01*
X174521586Y-73604950D01*
X174356163Y-73715482D01*
X174215482Y-73856163D01*
X174104950Y-74021586D01*
X174028814Y-74205394D01*
X173990000Y-74400524D01*
X125435000Y-74400524D01*
X125435000Y-74198061D01*
X125395226Y-73998102D01*
X125324920Y-73828370D01*
X125417205Y-73690256D01*
X125495226Y-73501898D01*
X125535000Y-73301939D01*
X125535000Y-73098061D01*
X125495226Y-72898102D01*
X125424920Y-72728370D01*
X125517205Y-72590256D01*
X125595226Y-72401898D01*
X125635000Y-72201939D01*
X125635000Y-71998061D01*
X125595226Y-71798102D01*
X125553788Y-71698061D01*
X133765000Y-71698061D01*
X133765000Y-71901939D01*
X133804774Y-72101898D01*
X133882795Y-72290256D01*
X133996063Y-72459774D01*
X134140226Y-72603937D01*
X134309744Y-72717205D01*
X134498102Y-72795226D01*
X134698061Y-72835000D01*
X134901939Y-72835000D01*
X135101898Y-72795226D01*
X135290256Y-72717205D01*
X135459774Y-72603937D01*
X135603937Y-72459774D01*
X135717205Y-72290256D01*
X135795226Y-72101898D01*
X135826729Y-71943519D01*
X135890256Y-71917205D01*
X136059774Y-71803937D01*
X136203937Y-71659774D01*
X136317205Y-71490256D01*
X136395226Y-71301898D01*
X136435000Y-71101939D01*
X136435000Y-70898061D01*
X136865000Y-70898061D01*
X136865000Y-71101939D01*
X136904774Y-71301898D01*
X136982795Y-71490256D01*
X137096063Y-71659774D01*
X137240226Y-71803937D01*
X137409744Y-71917205D01*
X137598102Y-71995226D01*
X137798061Y-72035000D01*
X138001939Y-72035000D01*
X138201898Y-71995226D01*
X138390256Y-71917205D01*
X138559774Y-71803937D01*
X138703937Y-71659774D01*
X138817205Y-71490256D01*
X138895226Y-71301898D01*
X138935000Y-71101939D01*
X138935000Y-70898061D01*
X138895226Y-70698102D01*
X138817205Y-70509744D01*
X138703937Y-70340226D01*
X138559774Y-70196063D01*
X138390256Y-70082795D01*
X138201898Y-70004774D01*
X138001939Y-69965000D01*
X137798061Y-69965000D01*
X137598102Y-70004774D01*
X137409744Y-70082795D01*
X137240226Y-70196063D01*
X137096063Y-70340226D01*
X136982795Y-70509744D01*
X136904774Y-70698102D01*
X136865000Y-70898061D01*
X136435000Y-70898061D01*
X136395226Y-70698102D01*
X136317205Y-70509744D01*
X136203937Y-70340226D01*
X136059774Y-70196063D01*
X135890256Y-70082795D01*
X135701898Y-70004774D01*
X135501939Y-69965000D01*
X135298061Y-69965000D01*
X135098102Y-70004774D01*
X134909744Y-70082795D01*
X134740226Y-70196063D01*
X134596063Y-70340226D01*
X134482795Y-70509744D01*
X134404774Y-70698102D01*
X134373271Y-70856481D01*
X134309744Y-70882795D01*
X134140226Y-70996063D01*
X133996063Y-71140226D01*
X133882795Y-71309744D01*
X133804774Y-71498102D01*
X133765000Y-71698061D01*
X125553788Y-71698061D01*
X125517205Y-71609744D01*
X125477285Y-71550000D01*
X125517205Y-71490256D01*
X125595226Y-71301898D01*
X125635000Y-71101939D01*
X125635000Y-70898061D01*
X125595226Y-70698102D01*
X125517205Y-70509744D01*
X125403937Y-70340226D01*
X125259774Y-70196063D01*
X125090256Y-70082795D01*
X124901898Y-70004774D01*
X124701939Y-69965000D01*
X124498061Y-69965000D01*
X124298102Y-70004774D01*
X124109744Y-70082795D01*
X123940226Y-70196063D01*
X123796063Y-70340226D01*
X123682795Y-70509744D01*
X123604774Y-70698102D01*
X123565000Y-70898061D01*
X123565000Y-71101939D01*
X123604774Y-71301898D01*
X123682795Y-71490256D01*
X123722715Y-71550000D01*
X123682795Y-71609744D01*
X123604774Y-71798102D01*
X123565000Y-71998061D01*
X123565000Y-72201939D01*
X123604774Y-72401898D01*
X123675080Y-72571630D01*
X123582795Y-72709744D01*
X123504774Y-72898102D01*
X123465000Y-73098061D01*
X123465000Y-73301939D01*
X123504774Y-73501898D01*
X123575080Y-73671630D01*
X123482795Y-73809744D01*
X123404774Y-73998102D01*
X123365000Y-74198061D01*
X118410000Y-74198061D01*
X118410000Y-69710000D01*
X171705909Y-69710000D01*
X178290000Y-76294092D01*
G36*
X165232000Y-125533000D02*
G01*
X165252000Y-125533000D01*
X165252000Y-125787000D01*
X165232000Y-125787000D01*
X165232000Y-125807000D01*
X164978000Y-125807000D01*
X164978000Y-125787000D01*
X164958000Y-125787000D01*
X164958000Y-125533000D01*
X164978000Y-125533000D01*
X164978000Y-125513000D01*
X165232000Y-125513000D01*
X165232000Y-125533000D01*
G37*
X165232000Y-125533000D02*
X165252000Y-125533000D01*
X165252000Y-125787000D01*
X165232000Y-125787000D01*
X165232000Y-125807000D01*
X164978000Y-125807000D01*
X164978000Y-125787000D01*
X164958000Y-125787000D01*
X164958000Y-125533000D01*
X164978000Y-125533000D01*
X164978000Y-125513000D01*
X165232000Y-125513000D01*
X165232000Y-125533000D01*
G36*
X123127000Y-95873000D02*
G01*
X123147000Y-95873000D01*
X123147000Y-96127000D01*
X123127000Y-96127000D01*
X123127000Y-97873000D01*
X123147000Y-97873000D01*
X123147000Y-98127000D01*
X123127000Y-98127000D01*
X123127000Y-98147000D01*
X122873000Y-98147000D01*
X122873000Y-98127000D01*
X122853000Y-98127000D01*
X122853000Y-97873000D01*
X122873000Y-97873000D01*
X122873000Y-96127000D01*
X122853000Y-96127000D01*
X122853000Y-95873000D01*
X122873000Y-95873000D01*
X122873000Y-95853000D01*
X123127000Y-95853000D01*
X123127000Y-95873000D01*
G37*
X123127000Y-95873000D02*
X123147000Y-95873000D01*
X123147000Y-96127000D01*
X123127000Y-96127000D01*
X123127000Y-97873000D01*
X123147000Y-97873000D01*
X123147000Y-98127000D01*
X123127000Y-98127000D01*
X123127000Y-98147000D01*
X122873000Y-98147000D01*
X122873000Y-98127000D01*
X122853000Y-98127000D01*
X122853000Y-97873000D01*
X122873000Y-97873000D01*
X122873000Y-96127000D01*
X122853000Y-96127000D01*
X122853000Y-95873000D01*
X122873000Y-95873000D01*
X122873000Y-95853000D01*
X123127000Y-95853000D01*
X123127000Y-95873000D01*
M02*
