G04 #@! TF.GenerationSoftware,KiCad,Pcbnew,5.1.6+dfsg1-1~bpo10+1*
G04 #@! TF.CreationDate,2021-03-28T20:23:35-04:00*
G04 #@! TF.ProjectId,RUSP_Daughterboard,52555350-5f44-4617-9567-68746572626f,rev?*
G04 #@! TF.SameCoordinates,Original*
G04 #@! TF.FileFunction,Copper,L1,Top*
G04 #@! TF.FilePolarity,Positive*
%FSLAX46Y46*%
G04 Gerber Fmt 4.6, Leading zero omitted, Abs format (unit mm)*
G04 Created by KiCad (PCBNEW 5.1.6+dfsg1-1~bpo10+1) date 2021-03-28 20:23:35*
%MOMM*%
%LPD*%
G01*
G04 APERTURE LIST*
G04 #@! TA.AperFunction,SMDPad,CuDef*
%ADD10R,1.000000X1.000000*%
G04 #@! TD*
G04 #@! TA.AperFunction,SMDPad,CuDef*
%ADD11R,1.050000X2.200000*%
G04 #@! TD*
G04 #@! TA.AperFunction,SMDPad,CuDef*
%ADD12R,1.700000X3.200000*%
G04 #@! TD*
G04 #@! TA.AperFunction,ComponentPad*
%ADD13C,1.408000*%
G04 #@! TD*
G04 #@! TA.AperFunction,ComponentPad*
%ADD14C,1.800000*%
G04 #@! TD*
G04 #@! TA.AperFunction,SMDPad,CuDef*
%ADD15C,0.750000*%
G04 #@! TD*
G04 #@! TA.AperFunction,SMDPad,CuDef*
%ADD16R,1.400000X1.800000*%
G04 #@! TD*
G04 #@! TA.AperFunction,SMDPad,CuDef*
%ADD17R,2.000000X0.800000*%
G04 #@! TD*
G04 #@! TA.AperFunction,SMDPad,CuDef*
%ADD18R,1.900000X1.400000*%
G04 #@! TD*
G04 #@! TA.AperFunction,SMDPad,CuDef*
%ADD19R,1.500000X0.600000*%
G04 #@! TD*
G04 #@! TA.AperFunction,ViaPad*
%ADD20C,0.800000*%
G04 #@! TD*
G04 #@! TA.AperFunction,Conductor*
%ADD21C,0.250000*%
G04 #@! TD*
G04 #@! TA.AperFunction,Conductor*
%ADD22C,0.254000*%
G04 #@! TD*
G04 APERTURE END LIST*
G04 #@! TA.AperFunction,SMDPad,CuDef*
G36*
G01*
X175472500Y-119810000D02*
X175127500Y-119810000D01*
G75*
G02*
X174980000Y-119662500I0J147500D01*
G01*
X174980000Y-119367500D01*
G75*
G02*
X175127500Y-119220000I147500J0D01*
G01*
X175472500Y-119220000D01*
G75*
G02*
X175620000Y-119367500I0J-147500D01*
G01*
X175620000Y-119662500D01*
G75*
G02*
X175472500Y-119810000I-147500J0D01*
G01*
G37*
G04 #@! TD.AperFunction*
G04 #@! TA.AperFunction,SMDPad,CuDef*
G36*
G01*
X175472500Y-120780000D02*
X175127500Y-120780000D01*
G75*
G02*
X174980000Y-120632500I0J147500D01*
G01*
X174980000Y-120337500D01*
G75*
G02*
X175127500Y-120190000I147500J0D01*
G01*
X175472500Y-120190000D01*
G75*
G02*
X175620000Y-120337500I0J-147500D01*
G01*
X175620000Y-120632500D01*
G75*
G02*
X175472500Y-120780000I-147500J0D01*
G01*
G37*
G04 #@! TD.AperFunction*
G04 #@! TA.AperFunction,SMDPad,CuDef*
G36*
G01*
X176827500Y-81105000D02*
X177172500Y-81105000D01*
G75*
G02*
X177320000Y-81252500I0J-147500D01*
G01*
X177320000Y-81547500D01*
G75*
G02*
X177172500Y-81695000I-147500J0D01*
G01*
X176827500Y-81695000D01*
G75*
G02*
X176680000Y-81547500I0J147500D01*
G01*
X176680000Y-81252500D01*
G75*
G02*
X176827500Y-81105000I147500J0D01*
G01*
G37*
G04 #@! TD.AperFunction*
G04 #@! TA.AperFunction,SMDPad,CuDef*
G36*
G01*
X176827500Y-80135000D02*
X177172500Y-80135000D01*
G75*
G02*
X177320000Y-80282500I0J-147500D01*
G01*
X177320000Y-80577500D01*
G75*
G02*
X177172500Y-80725000I-147500J0D01*
G01*
X176827500Y-80725000D01*
G75*
G02*
X176680000Y-80577500I0J147500D01*
G01*
X176680000Y-80282500D01*
G75*
G02*
X176827500Y-80135000I147500J0D01*
G01*
G37*
G04 #@! TD.AperFunction*
D10*
X169600000Y-73150000D03*
X169600000Y-70150000D03*
D11*
X171075000Y-71650000D03*
X168125000Y-71650000D03*
G04 #@! TA.AperFunction,SMDPad,CuDef*
G36*
G01*
X178372500Y-76610000D02*
X178027500Y-76610000D01*
G75*
G02*
X177880000Y-76462500I0J147500D01*
G01*
X177880000Y-76167500D01*
G75*
G02*
X178027500Y-76020000I147500J0D01*
G01*
X178372500Y-76020000D01*
G75*
G02*
X178520000Y-76167500I0J-147500D01*
G01*
X178520000Y-76462500D01*
G75*
G02*
X178372500Y-76610000I-147500J0D01*
G01*
G37*
G04 #@! TD.AperFunction*
G04 #@! TA.AperFunction,SMDPad,CuDef*
G36*
G01*
X178372500Y-77580000D02*
X178027500Y-77580000D01*
G75*
G02*
X177880000Y-77432500I0J147500D01*
G01*
X177880000Y-77137500D01*
G75*
G02*
X178027500Y-76990000I147500J0D01*
G01*
X178372500Y-76990000D01*
G75*
G02*
X178520000Y-77137500I0J-147500D01*
G01*
X178520000Y-77432500D01*
G75*
G02*
X178372500Y-77580000I-147500J0D01*
G01*
G37*
G04 #@! TD.AperFunction*
G04 #@! TA.AperFunction,SMDPad,CuDef*
G36*
G01*
X178372500Y-78610000D02*
X178027500Y-78610000D01*
G75*
G02*
X177880000Y-78462500I0J147500D01*
G01*
X177880000Y-78167500D01*
G75*
G02*
X178027500Y-78020000I147500J0D01*
G01*
X178372500Y-78020000D01*
G75*
G02*
X178520000Y-78167500I0J-147500D01*
G01*
X178520000Y-78462500D01*
G75*
G02*
X178372500Y-78610000I-147500J0D01*
G01*
G37*
G04 #@! TD.AperFunction*
G04 #@! TA.AperFunction,SMDPad,CuDef*
G36*
G01*
X178372500Y-79580000D02*
X178027500Y-79580000D01*
G75*
G02*
X177880000Y-79432500I0J147500D01*
G01*
X177880000Y-79137500D01*
G75*
G02*
X178027500Y-78990000I147500J0D01*
G01*
X178372500Y-78990000D01*
G75*
G02*
X178520000Y-79137500I0J-147500D01*
G01*
X178520000Y-79432500D01*
G75*
G02*
X178372500Y-79580000I-147500J0D01*
G01*
G37*
G04 #@! TD.AperFunction*
D12*
X168250000Y-88400000D03*
X176750000Y-88400000D03*
D13*
X125700000Y-99500000D03*
X125700000Y-94500000D03*
D14*
X123000000Y-100500000D03*
X123000000Y-93500000D03*
G04 #@! TA.AperFunction,SMDPad,CuDef*
G36*
G01*
X149123674Y-122642375D02*
X149367625Y-122886327D01*
G75*
G02*
X149367625Y-123094923I-104298J-104298D01*
G01*
X149159029Y-123303519D01*
G75*
G02*
X148950433Y-123303519I-104298J104298D01*
G01*
X148706481Y-123059567D01*
G75*
G02*
X148706481Y-122850971I104298J104298D01*
G01*
X148915077Y-122642375D01*
G75*
G02*
X149123673Y-122642375I104298J-104298D01*
G01*
G37*
G04 #@! TD.AperFunction*
G04 #@! TA.AperFunction,SMDPad,CuDef*
G36*
G01*
X149809568Y-121956481D02*
X150053519Y-122200433D01*
G75*
G02*
X150053519Y-122409029I-104298J-104298D01*
G01*
X149844923Y-122617625D01*
G75*
G02*
X149636327Y-122617625I-104298J104298D01*
G01*
X149392375Y-122373673D01*
G75*
G02*
X149392375Y-122165077I104298J104298D01*
G01*
X149600971Y-121956481D01*
G75*
G02*
X149809567Y-121956481I104298J-104298D01*
G01*
G37*
G04 #@! TD.AperFunction*
G04 #@! TA.AperFunction,SMDPad,CuDef*
G36*
G01*
X148209568Y-120326481D02*
X148453519Y-120570433D01*
G75*
G02*
X148453519Y-120779029I-104298J-104298D01*
G01*
X148244923Y-120987625D01*
G75*
G02*
X148036327Y-120987625I-104298J104298D01*
G01*
X147792375Y-120743673D01*
G75*
G02*
X147792375Y-120535077I104298J104298D01*
G01*
X148000971Y-120326481D01*
G75*
G02*
X148209567Y-120326481I104298J-104298D01*
G01*
G37*
G04 #@! TD.AperFunction*
G04 #@! TA.AperFunction,SMDPad,CuDef*
G36*
G01*
X147523674Y-121012375D02*
X147767625Y-121256327D01*
G75*
G02*
X147767625Y-121464923I-104298J-104298D01*
G01*
X147559029Y-121673519D01*
G75*
G02*
X147350433Y-121673519I-104298J104298D01*
G01*
X147106481Y-121429567D01*
G75*
G02*
X147106481Y-121220971I104298J104298D01*
G01*
X147315077Y-121012375D01*
G75*
G02*
X147523673Y-121012375I104298J-104298D01*
G01*
G37*
G04 #@! TD.AperFunction*
G04 #@! TA.AperFunction,SMDPad,CuDef*
G36*
G01*
X176572500Y-106010000D02*
X176227500Y-106010000D01*
G75*
G02*
X176080000Y-105862500I0J147500D01*
G01*
X176080000Y-105567500D01*
G75*
G02*
X176227500Y-105420000I147500J0D01*
G01*
X176572500Y-105420000D01*
G75*
G02*
X176720000Y-105567500I0J-147500D01*
G01*
X176720000Y-105862500D01*
G75*
G02*
X176572500Y-106010000I-147500J0D01*
G01*
G37*
G04 #@! TD.AperFunction*
G04 #@! TA.AperFunction,SMDPad,CuDef*
G36*
G01*
X176572500Y-106980000D02*
X176227500Y-106980000D01*
G75*
G02*
X176080000Y-106832500I0J147500D01*
G01*
X176080000Y-106537500D01*
G75*
G02*
X176227500Y-106390000I147500J0D01*
G01*
X176572500Y-106390000D01*
G75*
G02*
X176720000Y-106537500I0J-147500D01*
G01*
X176720000Y-106832500D01*
G75*
G02*
X176572500Y-106980000I-147500J0D01*
G01*
G37*
G04 #@! TD.AperFunction*
G04 #@! TA.AperFunction,SMDPad,CuDef*
G36*
G01*
X175372500Y-106980000D02*
X175027500Y-106980000D01*
G75*
G02*
X174880000Y-106832500I0J147500D01*
G01*
X174880000Y-106537500D01*
G75*
G02*
X175027500Y-106390000I147500J0D01*
G01*
X175372500Y-106390000D01*
G75*
G02*
X175520000Y-106537500I0J-147500D01*
G01*
X175520000Y-106832500D01*
G75*
G02*
X175372500Y-106980000I-147500J0D01*
G01*
G37*
G04 #@! TD.AperFunction*
G04 #@! TA.AperFunction,SMDPad,CuDef*
G36*
G01*
X175372500Y-106010000D02*
X175027500Y-106010000D01*
G75*
G02*
X174880000Y-105862500I0J147500D01*
G01*
X174880000Y-105567500D01*
G75*
G02*
X175027500Y-105420000I147500J0D01*
G01*
X175372500Y-105420000D01*
G75*
G02*
X175520000Y-105567500I0J-147500D01*
G01*
X175520000Y-105862500D01*
G75*
G02*
X175372500Y-106010000I-147500J0D01*
G01*
G37*
G04 #@! TD.AperFunction*
G04 #@! TA.AperFunction,SMDPad,CuDef*
G36*
G01*
X149019568Y-121136481D02*
X149263519Y-121380433D01*
G75*
G02*
X149263519Y-121589029I-104298J-104298D01*
G01*
X149054923Y-121797625D01*
G75*
G02*
X148846327Y-121797625I-104298J104298D01*
G01*
X148602375Y-121553673D01*
G75*
G02*
X148602375Y-121345077I104298J104298D01*
G01*
X148810971Y-121136481D01*
G75*
G02*
X149019567Y-121136481I104298J-104298D01*
G01*
G37*
G04 #@! TD.AperFunction*
G04 #@! TA.AperFunction,SMDPad,CuDef*
G36*
G01*
X148333674Y-121822375D02*
X148577625Y-122066327D01*
G75*
G02*
X148577625Y-122274923I-104298J-104298D01*
G01*
X148369029Y-122483519D01*
G75*
G02*
X148160433Y-122483519I-104298J104298D01*
G01*
X147916481Y-122239567D01*
G75*
G02*
X147916481Y-122030971I104298J104298D01*
G01*
X148125077Y-121822375D01*
G75*
G02*
X148333673Y-121822375I104298J-104298D01*
G01*
G37*
G04 #@! TD.AperFunction*
D15*
X126500000Y-86500000D03*
X175000000Y-74500000D03*
X175000000Y-136000000D03*
D16*
X133560000Y-114886500D03*
X131083500Y-114886500D03*
X128480000Y-114886500D03*
X133560000Y-89613500D03*
X131020000Y-89613500D03*
X128480000Y-89613500D03*
D17*
X122875000Y-78690000D03*
X123275000Y-77590000D03*
X122875000Y-76490000D03*
X122675000Y-75390000D03*
X122875000Y-74290000D03*
X122675000Y-73190000D03*
X122875000Y-72090000D03*
X122875000Y-70990000D03*
D16*
X133425000Y-71800000D03*
X133425000Y-77500000D03*
D18*
X120275000Y-70200000D03*
X119275000Y-83350000D03*
G04 #@! TA.AperFunction,SMDPad,CuDef*
G36*
G01*
X137480000Y-78327500D02*
X137480000Y-78672500D01*
G75*
G02*
X137332500Y-78820000I-147500J0D01*
G01*
X137037500Y-78820000D01*
G75*
G02*
X136890000Y-78672500I0J147500D01*
G01*
X136890000Y-78327500D01*
G75*
G02*
X137037500Y-78180000I147500J0D01*
G01*
X137332500Y-78180000D01*
G75*
G02*
X137480000Y-78327500I0J-147500D01*
G01*
G37*
G04 #@! TD.AperFunction*
G04 #@! TA.AperFunction,SMDPad,CuDef*
G36*
G01*
X136510000Y-78327500D02*
X136510000Y-78672500D01*
G75*
G02*
X136362500Y-78820000I-147500J0D01*
G01*
X136067500Y-78820000D01*
G75*
G02*
X135920000Y-78672500I0J147500D01*
G01*
X135920000Y-78327500D01*
G75*
G02*
X136067500Y-78180000I147500J0D01*
G01*
X136362500Y-78180000D01*
G75*
G02*
X136510000Y-78327500I0J-147500D01*
G01*
G37*
G04 #@! TD.AperFunction*
G04 #@! TA.AperFunction,SMDPad,CuDef*
G36*
G01*
X136425000Y-70827500D02*
X136425000Y-71172500D01*
G75*
G02*
X136277500Y-71320000I-147500J0D01*
G01*
X135982500Y-71320000D01*
G75*
G02*
X135835000Y-71172500I0J147500D01*
G01*
X135835000Y-70827500D01*
G75*
G02*
X135982500Y-70680000I147500J0D01*
G01*
X136277500Y-70680000D01*
G75*
G02*
X136425000Y-70827500I0J-147500D01*
G01*
G37*
G04 #@! TD.AperFunction*
G04 #@! TA.AperFunction,SMDPad,CuDef*
G36*
G01*
X137395000Y-70827500D02*
X137395000Y-71172500D01*
G75*
G02*
X137247500Y-71320000I-147500J0D01*
G01*
X136952500Y-71320000D01*
G75*
G02*
X136805000Y-71172500I0J147500D01*
G01*
X136805000Y-70827500D01*
G75*
G02*
X136952500Y-70680000I147500J0D01*
G01*
X137247500Y-70680000D01*
G75*
G02*
X137395000Y-70827500I0J-147500D01*
G01*
G37*
G04 #@! TD.AperFunction*
G04 #@! TA.AperFunction,SMDPad,CuDef*
G36*
G01*
X137480000Y-79527500D02*
X137480000Y-79872500D01*
G75*
G02*
X137332500Y-80020000I-147500J0D01*
G01*
X137037500Y-80020000D01*
G75*
G02*
X136890000Y-79872500I0J147500D01*
G01*
X136890000Y-79527500D01*
G75*
G02*
X137037500Y-79380000I147500J0D01*
G01*
X137332500Y-79380000D01*
G75*
G02*
X137480000Y-79527500I0J-147500D01*
G01*
G37*
G04 #@! TD.AperFunction*
G04 #@! TA.AperFunction,SMDPad,CuDef*
G36*
G01*
X136510000Y-79527500D02*
X136510000Y-79872500D01*
G75*
G02*
X136362500Y-80020000I-147500J0D01*
G01*
X136067500Y-80020000D01*
G75*
G02*
X135920000Y-79872500I0J147500D01*
G01*
X135920000Y-79527500D01*
G75*
G02*
X136067500Y-79380000I147500J0D01*
G01*
X136362500Y-79380000D01*
G75*
G02*
X136510000Y-79527500I0J-147500D01*
G01*
G37*
G04 #@! TD.AperFunction*
G04 #@! TA.AperFunction,SMDPad,CuDef*
G36*
G01*
X176527500Y-119220000D02*
X176872500Y-119220000D01*
G75*
G02*
X177020000Y-119367500I0J-147500D01*
G01*
X177020000Y-119662500D01*
G75*
G02*
X176872500Y-119810000I-147500J0D01*
G01*
X176527500Y-119810000D01*
G75*
G02*
X176380000Y-119662500I0J147500D01*
G01*
X176380000Y-119367500D01*
G75*
G02*
X176527500Y-119220000I147500J0D01*
G01*
G37*
G04 #@! TD.AperFunction*
G04 #@! TA.AperFunction,SMDPad,CuDef*
G36*
G01*
X176527500Y-120190000D02*
X176872500Y-120190000D01*
G75*
G02*
X177020000Y-120337500I0J-147500D01*
G01*
X177020000Y-120632500D01*
G75*
G02*
X176872500Y-120780000I-147500J0D01*
G01*
X176527500Y-120780000D01*
G75*
G02*
X176380000Y-120632500I0J147500D01*
G01*
X176380000Y-120337500D01*
G75*
G02*
X176527500Y-120190000I147500J0D01*
G01*
G37*
G04 #@! TD.AperFunction*
D19*
X171000000Y-109590000D03*
X171000000Y-110860000D03*
X171000000Y-112130000D03*
X171000000Y-113400000D03*
X171000000Y-114670000D03*
X171000000Y-115940000D03*
X171000000Y-117210000D03*
X176400000Y-117210000D03*
X176400000Y-115940000D03*
X176400000Y-114670000D03*
X176400000Y-113400000D03*
X176400000Y-112130000D03*
X176400000Y-110860000D03*
X176400000Y-109590000D03*
G04 #@! TA.AperFunction,SMDPad,CuDef*
G36*
G01*
X176410000Y-77927500D02*
X176410000Y-78272500D01*
G75*
G02*
X176262500Y-78420000I-147500J0D01*
G01*
X175967500Y-78420000D01*
G75*
G02*
X175820000Y-78272500I0J147500D01*
G01*
X175820000Y-77927500D01*
G75*
G02*
X175967500Y-77780000I147500J0D01*
G01*
X176262500Y-77780000D01*
G75*
G02*
X176410000Y-77927500I0J-147500D01*
G01*
G37*
G04 #@! TD.AperFunction*
G04 #@! TA.AperFunction,SMDPad,CuDef*
G36*
G01*
X177380000Y-77927500D02*
X177380000Y-78272500D01*
G75*
G02*
X177232500Y-78420000I-147500J0D01*
G01*
X176937500Y-78420000D01*
G75*
G02*
X176790000Y-78272500I0J147500D01*
G01*
X176790000Y-77927500D01*
G75*
G02*
X176937500Y-77780000I147500J0D01*
G01*
X177232500Y-77780000D01*
G75*
G02*
X177380000Y-77927500I0J-147500D01*
G01*
G37*
G04 #@! TD.AperFunction*
G04 #@! TA.AperFunction,SMDPad,CuDef*
G36*
G01*
X178372500Y-81680000D02*
X178027500Y-81680000D01*
G75*
G02*
X177880000Y-81532500I0J147500D01*
G01*
X177880000Y-81237500D01*
G75*
G02*
X178027500Y-81090000I147500J0D01*
G01*
X178372500Y-81090000D01*
G75*
G02*
X178520000Y-81237500I0J-147500D01*
G01*
X178520000Y-81532500D01*
G75*
G02*
X178372500Y-81680000I-147500J0D01*
G01*
G37*
G04 #@! TD.AperFunction*
G04 #@! TA.AperFunction,SMDPad,CuDef*
G36*
G01*
X178372500Y-80710000D02*
X178027500Y-80710000D01*
G75*
G02*
X177880000Y-80562500I0J147500D01*
G01*
X177880000Y-80267500D01*
G75*
G02*
X178027500Y-80120000I147500J0D01*
G01*
X178372500Y-80120000D01*
G75*
G02*
X178520000Y-80267500I0J-147500D01*
G01*
X178520000Y-80562500D01*
G75*
G02*
X178372500Y-80710000I-147500J0D01*
G01*
G37*
G04 #@! TD.AperFunction*
D20*
X119400000Y-82200000D03*
X120300000Y-71300000D03*
X121300000Y-75400000D03*
X175300000Y-105000000D03*
X176400000Y-104900000D03*
X176700000Y-121400000D03*
X135000000Y-88400000D03*
X124500000Y-112000000D03*
X129000000Y-112300000D03*
X146800000Y-120600000D03*
X149582053Y-123517947D03*
X168185640Y-116452629D03*
X165200000Y-124200000D03*
X127000000Y-98700000D03*
X123500000Y-104500000D03*
X175200000Y-114700000D03*
X162618761Y-131086265D03*
X175200000Y-112100000D03*
X161200000Y-124100000D03*
X134800000Y-71800000D03*
X175100000Y-109600000D03*
X176400000Y-107400000D03*
X131600000Y-102600000D03*
X160200000Y-123600000D03*
X161400000Y-130600000D03*
X124500000Y-73200000D03*
X137900000Y-71000000D03*
X138000000Y-78500000D03*
X172300000Y-109600000D03*
X175200000Y-107500000D03*
X138000000Y-79700000D03*
X159200000Y-133800000D03*
X169100000Y-132700000D03*
X124400000Y-74300000D03*
X169541292Y-113370609D03*
X124600000Y-72100000D03*
X169181336Y-114820523D03*
X163900000Y-127600000D03*
X135800000Y-75900000D03*
X124400000Y-76500000D03*
X172274990Y-112057161D03*
X124800000Y-77500000D03*
X172300000Y-111000000D03*
X135200000Y-78700000D03*
X175100000Y-110900000D03*
X164100000Y-124100000D03*
X164400000Y-134974990D03*
X131974994Y-91346359D03*
X128887660Y-87812340D03*
X128500000Y-113400000D03*
X163200000Y-131900000D03*
X163900000Y-137025010D03*
X132029325Y-112674990D03*
X147571375Y-119928625D03*
X150500000Y-123100000D03*
X162200000Y-134800000D03*
X134891226Y-113875129D03*
X162700000Y-135800000D03*
X175400000Y-121400000D03*
X127000000Y-105900000D03*
X158200000Y-127500000D03*
X128625010Y-98044751D03*
X165029557Y-132760166D03*
X126900000Y-97000000D03*
X167200000Y-136400000D03*
X157400000Y-136100000D03*
X161600000Y-136100000D03*
X124400000Y-78600000D03*
X134900000Y-79800000D03*
X124600000Y-71000000D03*
X135400000Y-71000000D03*
X137500000Y-93100000D03*
X165201292Y-131775010D03*
X145000000Y-116000000D03*
X159755211Y-131280531D03*
X131962261Y-104924990D03*
X167500000Y-126300000D03*
X175100000Y-113400000D03*
X162912653Y-123912653D03*
D21*
X119275000Y-83350000D02*
X119275000Y-82325000D01*
X119275000Y-82325000D02*
X119400000Y-82200000D01*
X120275000Y-70200000D02*
X120275000Y-71275000D01*
X120275000Y-71275000D02*
X120300000Y-71300000D01*
X122675000Y-75390000D02*
X121310000Y-75390000D01*
X121310000Y-75390000D02*
X121300000Y-75400000D01*
X175200000Y-105715000D02*
X175200000Y-105100000D01*
X175200000Y-105100000D02*
X175300000Y-105000000D01*
X176400000Y-105715000D02*
X176400000Y-104900000D01*
X176700000Y-120485000D02*
X176700000Y-121400000D01*
X147437053Y-121342947D02*
X148200000Y-122105894D01*
X148200000Y-122105894D02*
X148205894Y-122105894D01*
X148205894Y-122105894D02*
X149000000Y-122900000D01*
X133560000Y-89613500D02*
X133786500Y-89613500D01*
X133786500Y-89613500D02*
X135000000Y-88400000D01*
X147437053Y-121342947D02*
X146800000Y-120705894D01*
X146800000Y-120705894D02*
X146800000Y-120600000D01*
X149037053Y-122972947D02*
X149582053Y-123517947D01*
X168943011Y-117210000D02*
X168185640Y-116452629D01*
X171000000Y-117210000D02*
X168943011Y-117210000D01*
X176400000Y-114670000D02*
X175230000Y-114670000D01*
X175230000Y-114670000D02*
X175200000Y-114700000D01*
X176400000Y-112130000D02*
X175230000Y-112130000D01*
X175230000Y-112130000D02*
X175200000Y-112100000D01*
X133425000Y-71800000D02*
X134800000Y-71800000D01*
X176400000Y-109590000D02*
X175110000Y-109590000D01*
X175110000Y-109590000D02*
X175100000Y-109600000D01*
X176400000Y-106685000D02*
X176400000Y-107400000D01*
X159954999Y-123845001D02*
X160200000Y-123600000D01*
X159954999Y-129154999D02*
X159954999Y-123845001D01*
X161400000Y-130600000D02*
X159954999Y-129154999D01*
X122675000Y-73190000D02*
X124490000Y-73190000D01*
X124490000Y-73190000D02*
X124500000Y-73200000D01*
X137100000Y-71000000D02*
X137900000Y-71000000D01*
X137185000Y-78500000D02*
X138000000Y-78500000D01*
X171000000Y-109590000D02*
X172290000Y-109590000D01*
X172290000Y-109590000D02*
X172300000Y-109600000D01*
X175200000Y-106685000D02*
X175200000Y-107500000D01*
X137185000Y-79700000D02*
X138000000Y-79700000D01*
X122875000Y-74290000D02*
X124390000Y-74290000D01*
X124390000Y-74290000D02*
X124400000Y-74300000D01*
X169570683Y-113400000D02*
X169541292Y-113370609D01*
X171000000Y-113400000D02*
X169570683Y-113400000D01*
X122875000Y-72090000D02*
X124590000Y-72090000D01*
X124590000Y-72090000D02*
X124600000Y-72100000D01*
X169331859Y-114670000D02*
X169181336Y-114820523D01*
X171000000Y-114670000D02*
X169331859Y-114670000D01*
X133425000Y-77500000D02*
X134200000Y-77500000D01*
X134200000Y-77500000D02*
X135800000Y-75900000D01*
X122875000Y-76490000D02*
X124390000Y-76490000D01*
X124390000Y-76490000D02*
X124400000Y-76500000D01*
X172202151Y-112130000D02*
X172274990Y-112057161D01*
X171000000Y-112130000D02*
X172202151Y-112130000D01*
X123275000Y-77590000D02*
X124710000Y-77590000D01*
X124710000Y-77590000D02*
X124800000Y-77500000D01*
X171000000Y-110860000D02*
X172160000Y-110860000D01*
X172160000Y-110860000D02*
X172300000Y-111000000D01*
X135400000Y-78500000D02*
X135200000Y-78700000D01*
X136215000Y-78500000D02*
X135400000Y-78500000D01*
X176400000Y-110860000D02*
X175140000Y-110860000D01*
X175140000Y-110860000D02*
X175100000Y-110900000D01*
X128480000Y-88220000D02*
X128887660Y-87812340D01*
X128480000Y-89613500D02*
X128480000Y-88220000D01*
X128480000Y-114886500D02*
X128480000Y-113420000D01*
X128480000Y-113420000D02*
X128500000Y-113400000D01*
X131083500Y-114886500D02*
X131083500Y-113620815D01*
X131083500Y-113620815D02*
X132029325Y-112674990D01*
X147571375Y-119928625D02*
X148200000Y-120557250D01*
X148200000Y-120557250D02*
X148200000Y-120700000D01*
X148200000Y-120700000D02*
X149700000Y-122200000D01*
X149722947Y-122287053D02*
X149722947Y-122322947D01*
X149722947Y-122322947D02*
X150500000Y-123100000D01*
X133560000Y-114886500D02*
X133879855Y-114886500D01*
X133879855Y-114886500D02*
X134891226Y-113875129D01*
X175400000Y-121400000D02*
X175400000Y-120600000D01*
X122875000Y-78690000D02*
X124310000Y-78690000D01*
X124310000Y-78690000D02*
X124400000Y-78600000D01*
X135000000Y-79700000D02*
X134900000Y-79800000D01*
X136215000Y-79700000D02*
X135000000Y-79700000D01*
X122875000Y-70990000D02*
X124590000Y-70990000D01*
X124590000Y-70990000D02*
X124600000Y-71000000D01*
X136130000Y-71000000D02*
X135400000Y-71000000D01*
X178200000Y-86200000D02*
X178200000Y-81400000D01*
X178200000Y-86200000D02*
X178197091Y-86318459D01*
X178197091Y-86318459D02*
X178188374Y-86436634D01*
X178188374Y-86436634D02*
X178173869Y-86554238D01*
X178173869Y-86554238D02*
X178153611Y-86670989D01*
X178153611Y-86670989D02*
X178127648Y-86786605D01*
X178127648Y-86786605D02*
X178096044Y-86900808D01*
X178096044Y-86900808D02*
X178058874Y-87013323D01*
X178058874Y-87013323D02*
X178016228Y-87123879D01*
X178016228Y-87123879D02*
X177968209Y-87232208D01*
X177968209Y-87232208D02*
X177914932Y-87338051D01*
X177914932Y-87338051D02*
X177856525Y-87441153D01*
X177856525Y-87441153D02*
X177793131Y-87541264D01*
X177793131Y-87541264D02*
X177724900Y-87638144D01*
X177724900Y-87638144D02*
X177651998Y-87731559D01*
X177651998Y-87731559D02*
X177574600Y-87821285D01*
X177574600Y-87821285D02*
X177492893Y-87907106D01*
X177492893Y-87907106D02*
X176900000Y-88500000D01*
X169250000Y-87850000D02*
X169724999Y-87375001D01*
X168400000Y-88500000D02*
X168700000Y-88500000D01*
X169250000Y-87850000D02*
X168700000Y-88400000D01*
X177042883Y-81442883D02*
X177000000Y-81400000D01*
X177124590Y-81528702D02*
X177042883Y-81442883D01*
X177700000Y-82900000D02*
X177700000Y-83078611D01*
X177700000Y-82900000D02*
X177697673Y-82805232D01*
X177697673Y-82805232D02*
X177690699Y-82710692D01*
X177690699Y-82710692D02*
X177679095Y-82616608D01*
X177679095Y-82616608D02*
X177662889Y-82523208D01*
X177662889Y-82523208D02*
X177642119Y-82430714D01*
X177642119Y-82430714D02*
X177616835Y-82339352D01*
X177616835Y-82339352D02*
X177587099Y-82249340D01*
X177587099Y-82249340D02*
X177552983Y-82160895D01*
X177552983Y-82160895D02*
X177514567Y-82074232D01*
X177514567Y-82074232D02*
X177471946Y-81989557D01*
X177471946Y-81989557D02*
X177425221Y-81907076D01*
X177425221Y-81907076D02*
X177374505Y-81826987D01*
X177374505Y-81826987D02*
X177319920Y-81749483D01*
X177319920Y-81749483D02*
X177261598Y-81674750D01*
X177261598Y-81674750D02*
X177199680Y-81602969D01*
X177199680Y-81602969D02*
X177134314Y-81534314D01*
X177134314Y-81534314D02*
X177000000Y-81400000D01*
X176700000Y-86400000D02*
X176798017Y-86395184D01*
X176798017Y-86395184D02*
X176895090Y-86380785D01*
X176895090Y-86380785D02*
X176990284Y-86356940D01*
X176990284Y-86356940D02*
X177082683Y-86323879D01*
X177082683Y-86323879D02*
X177171396Y-86281921D01*
X177171396Y-86281921D02*
X177255570Y-86231469D01*
X177255570Y-86231469D02*
X177334393Y-86173010D01*
X177334393Y-86173010D02*
X177407106Y-86107106D01*
X177407106Y-86107106D02*
X177473010Y-86034393D01*
X177473010Y-86034393D02*
X177531469Y-85955570D01*
X177531469Y-85955570D02*
X177581921Y-85871396D01*
X177581921Y-85871396D02*
X177623879Y-85782683D01*
X177623879Y-85782683D02*
X177656940Y-85690284D01*
X177656940Y-85690284D02*
X177680785Y-85595090D01*
X177680785Y-85595090D02*
X177695184Y-85498017D01*
X177695184Y-85498017D02*
X177700000Y-85400000D01*
X177700000Y-85400000D02*
X177700000Y-83078611D01*
X169992893Y-87107106D02*
X169250000Y-87850000D01*
X169992893Y-87107106D02*
X170078712Y-87025398D01*
X170078712Y-87025398D02*
X170168438Y-86948000D01*
X170168438Y-86948000D02*
X170261854Y-86875098D01*
X170261854Y-86875098D02*
X170358734Y-86806867D01*
X170358734Y-86806867D02*
X170458845Y-86743472D01*
X170458845Y-86743472D02*
X170561947Y-86685066D01*
X170561947Y-86685066D02*
X170667790Y-86631789D01*
X170667790Y-86631789D02*
X170776120Y-86583770D01*
X170776120Y-86583770D02*
X170886675Y-86541124D01*
X170886675Y-86541124D02*
X170999190Y-86503954D01*
X170999190Y-86503954D02*
X171113393Y-86472350D01*
X171113393Y-86472350D02*
X171229010Y-86446387D01*
X171229010Y-86446387D02*
X171345761Y-86426129D01*
X171345761Y-86426129D02*
X171463365Y-86411624D01*
X171463365Y-86411624D02*
X171581540Y-86402907D01*
X171581540Y-86402907D02*
X171700000Y-86400000D01*
X171700000Y-86400000D02*
X176700000Y-86400000D01*
X178200000Y-78315000D02*
X177315000Y-78315000D01*
X178200000Y-78315000D02*
X178200000Y-77300000D01*
X176400000Y-113400000D02*
X175100000Y-113400000D01*
X176700000Y-119515000D02*
X176700000Y-117500000D01*
X176700000Y-117500000D02*
X176400000Y-117200000D01*
X175300000Y-119515000D02*
X176785000Y-119515000D01*
X176785000Y-119515000D02*
X176800000Y-119500000D01*
X177185000Y-80415000D02*
X177100000Y-80500000D01*
X178200000Y-79285000D02*
X178200000Y-80400000D01*
X178200000Y-80415000D02*
X177015000Y-80415000D01*
X177015000Y-80415000D02*
X177000000Y-80400000D01*
X178200000Y-76315000D02*
X178200000Y-76100000D01*
X170200000Y-70100000D02*
X171100000Y-71000000D01*
X171100000Y-71000000D02*
X171100000Y-71700000D01*
X169100000Y-70100000D02*
X170200000Y-70100000D01*
X168125000Y-71650000D02*
X168125000Y-71075000D01*
X168125000Y-71075000D02*
X169100000Y-70100000D01*
X174407106Y-72307106D02*
X178200000Y-76100000D01*
X174407106Y-72307106D02*
X174321285Y-72225398D01*
X174321285Y-72225398D02*
X174231560Y-72148000D01*
X174231560Y-72148000D02*
X174138144Y-72075098D01*
X174138144Y-72075098D02*
X174041264Y-72006867D01*
X174041264Y-72006867D02*
X173941153Y-71943472D01*
X173941153Y-71943472D02*
X173838051Y-71885066D01*
X173838051Y-71885066D02*
X173732208Y-71831789D01*
X173732208Y-71831789D02*
X173623879Y-71783770D01*
X173623879Y-71783770D02*
X173513323Y-71741124D01*
X173513323Y-71741124D02*
X173400808Y-71703954D01*
X173400808Y-71703954D02*
X173286605Y-71672350D01*
X173286605Y-71672350D02*
X173170989Y-71646387D01*
X173170989Y-71646387D02*
X173054238Y-71626129D01*
X173054238Y-71626129D02*
X172936634Y-71611624D01*
X172936634Y-71611624D02*
X172818459Y-71602907D01*
X172818459Y-71602907D02*
X172700000Y-71600000D01*
X172700000Y-71600000D02*
X171100000Y-71600000D01*
D22*
G36*
X118686928Y-70900000D02*
G01*
X118699188Y-71024482D01*
X118735498Y-71144180D01*
X118794463Y-71254494D01*
X118873815Y-71351185D01*
X118970506Y-71430537D01*
X119080820Y-71489502D01*
X119200518Y-71525812D01*
X119291420Y-71534765D01*
X119304774Y-71601898D01*
X119382795Y-71790256D01*
X119496063Y-71959774D01*
X119640226Y-72103937D01*
X119809744Y-72217205D01*
X119998102Y-72295226D01*
X120198061Y-72335000D01*
X120401939Y-72335000D01*
X120601898Y-72295226D01*
X120790256Y-72217205D01*
X120959774Y-72103937D01*
X121103937Y-71959774D01*
X121217205Y-71790256D01*
X121236928Y-71742641D01*
X121236928Y-72328053D01*
X121223815Y-72338815D01*
X121144463Y-72435506D01*
X121085498Y-72545820D01*
X121049188Y-72665518D01*
X121036928Y-72790000D01*
X121036928Y-73590000D01*
X121049188Y-73714482D01*
X121085498Y-73834180D01*
X121144463Y-73944494D01*
X121223815Y-74041185D01*
X121236928Y-74051947D01*
X121236928Y-74365000D01*
X121198061Y-74365000D01*
X120998102Y-74404774D01*
X120809744Y-74482795D01*
X120640226Y-74596063D01*
X120496063Y-74740226D01*
X120382795Y-74909744D01*
X120304774Y-75098102D01*
X120265000Y-75298061D01*
X120265000Y-75501939D01*
X120304774Y-75701898D01*
X120382795Y-75890256D01*
X120496063Y-76059774D01*
X120640226Y-76203937D01*
X120809744Y-76317205D01*
X120998102Y-76395226D01*
X121198061Y-76435000D01*
X121236928Y-76435000D01*
X121236928Y-76890000D01*
X121249188Y-77014482D01*
X121285498Y-77134180D01*
X121344463Y-77244494D01*
X121423815Y-77341185D01*
X121520506Y-77420537D01*
X121630820Y-77479502D01*
X121636928Y-77481355D01*
X121636928Y-77698645D01*
X121630820Y-77700498D01*
X121520506Y-77759463D01*
X121423815Y-77838815D01*
X121344463Y-77935506D01*
X121285498Y-78045820D01*
X121249188Y-78165518D01*
X121236928Y-78290000D01*
X121236928Y-79090000D01*
X121249188Y-79214482D01*
X121285498Y-79334180D01*
X121344463Y-79444494D01*
X121423815Y-79541185D01*
X121520506Y-79620537D01*
X121630820Y-79679502D01*
X121750518Y-79715812D01*
X121875000Y-79728072D01*
X123875000Y-79728072D01*
X123999482Y-79715812D01*
X124119180Y-79679502D01*
X124228370Y-79621138D01*
X124298061Y-79635000D01*
X124501939Y-79635000D01*
X124701898Y-79595226D01*
X124890256Y-79517205D01*
X125059774Y-79403937D01*
X125203937Y-79259774D01*
X125317205Y-79090256D01*
X125395226Y-78901898D01*
X125435000Y-78701939D01*
X125435000Y-78498061D01*
X125403823Y-78341322D01*
X125459774Y-78303937D01*
X125603937Y-78159774D01*
X125717205Y-77990256D01*
X125795226Y-77801898D01*
X125835000Y-77601939D01*
X125835000Y-77398061D01*
X125795226Y-77198102D01*
X125717205Y-77009744D01*
X125603937Y-76840226D01*
X125459774Y-76696063D01*
X125421381Y-76670409D01*
X125435000Y-76601939D01*
X125435000Y-76600000D01*
X132086928Y-76600000D01*
X132086928Y-78400000D01*
X132099188Y-78524482D01*
X132135498Y-78644180D01*
X132194463Y-78754494D01*
X132273815Y-78851185D01*
X132370506Y-78930537D01*
X132480820Y-78989502D01*
X132600518Y-79025812D01*
X132725000Y-79038072D01*
X134125000Y-79038072D01*
X134206216Y-79030073D01*
X134096063Y-79140226D01*
X133982795Y-79309744D01*
X133904774Y-79498102D01*
X133865000Y-79698061D01*
X133865000Y-79901939D01*
X133904774Y-80101898D01*
X133982795Y-80290256D01*
X134096063Y-80459774D01*
X134240226Y-80603937D01*
X134409744Y-80717205D01*
X134598102Y-80795226D01*
X134798061Y-80835000D01*
X135001939Y-80835000D01*
X135201898Y-80795226D01*
X135390256Y-80717205D01*
X135559774Y-80603937D01*
X135635603Y-80528108D01*
X135766875Y-80598274D01*
X135914243Y-80642977D01*
X136067500Y-80658072D01*
X136362500Y-80658072D01*
X136515757Y-80642977D01*
X136663125Y-80598274D01*
X136700000Y-80578564D01*
X136736875Y-80598274D01*
X136884243Y-80642977D01*
X137037500Y-80658072D01*
X137332500Y-80658072D01*
X137485757Y-80642977D01*
X137535520Y-80627882D01*
X137698102Y-80695226D01*
X137898061Y-80735000D01*
X138101939Y-80735000D01*
X138301898Y-80695226D01*
X138490256Y-80617205D01*
X138659774Y-80503937D01*
X138803937Y-80359774D01*
X138917205Y-80190256D01*
X138995226Y-80001898D01*
X139035000Y-79801939D01*
X139035000Y-79598061D01*
X138995226Y-79398102D01*
X138917205Y-79209744D01*
X138843877Y-79100000D01*
X138917205Y-78990256D01*
X138995226Y-78801898D01*
X139035000Y-78601939D01*
X139035000Y-78420000D01*
X175181928Y-78420000D01*
X175194188Y-78544482D01*
X175230498Y-78664180D01*
X175289463Y-78774494D01*
X175368815Y-78871185D01*
X175465506Y-78950537D01*
X175575820Y-79009502D01*
X175695518Y-79045812D01*
X175820000Y-79058072D01*
X175829250Y-79055000D01*
X175988000Y-78896250D01*
X175988000Y-78227000D01*
X175343750Y-78227000D01*
X175185000Y-78385750D01*
X175181928Y-78420000D01*
X139035000Y-78420000D01*
X139035000Y-78398061D01*
X138995226Y-78198102D01*
X138917205Y-78009744D01*
X138803937Y-77840226D01*
X138743711Y-77780000D01*
X175181928Y-77780000D01*
X175185000Y-77814250D01*
X175343750Y-77973000D01*
X175988000Y-77973000D01*
X175988000Y-77303750D01*
X175829250Y-77145000D01*
X175820000Y-77141928D01*
X175695518Y-77154188D01*
X175575820Y-77190498D01*
X175465506Y-77249463D01*
X175368815Y-77328815D01*
X175289463Y-77425506D01*
X175230498Y-77535820D01*
X175194188Y-77655518D01*
X175181928Y-77780000D01*
X138743711Y-77780000D01*
X138659774Y-77696063D01*
X138490256Y-77582795D01*
X138301898Y-77504774D01*
X138101939Y-77465000D01*
X137898061Y-77465000D01*
X137698102Y-77504774D01*
X137535520Y-77572118D01*
X137485757Y-77557023D01*
X137332500Y-77541928D01*
X137037500Y-77541928D01*
X136884243Y-77557023D01*
X136736875Y-77601726D01*
X136700000Y-77621436D01*
X136663125Y-77601726D01*
X136515757Y-77557023D01*
X136362500Y-77541928D01*
X136067500Y-77541928D01*
X135914243Y-77557023D01*
X135766875Y-77601726D01*
X135631060Y-77674321D01*
X135563075Y-77730115D01*
X135501898Y-77704774D01*
X135301939Y-77665000D01*
X135109801Y-77665000D01*
X135839802Y-76935000D01*
X135901939Y-76935000D01*
X136101898Y-76895226D01*
X136290256Y-76817205D01*
X136459774Y-76703937D01*
X136603937Y-76559774D01*
X136717205Y-76390256D01*
X136795226Y-76201898D01*
X136835000Y-76001939D01*
X136835000Y-75798061D01*
X136795226Y-75598102D01*
X136717205Y-75409744D01*
X136603937Y-75240226D01*
X136459774Y-75096063D01*
X136290256Y-74982795D01*
X136101898Y-74904774D01*
X135901939Y-74865000D01*
X135698061Y-74865000D01*
X135498102Y-74904774D01*
X135309744Y-74982795D01*
X135140226Y-75096063D01*
X134996063Y-75240226D01*
X134882795Y-75409744D01*
X134804774Y-75598102D01*
X134765000Y-75798061D01*
X134765000Y-75860198D01*
X134521369Y-76103829D01*
X134479494Y-76069463D01*
X134369180Y-76010498D01*
X134249482Y-75974188D01*
X134125000Y-75961928D01*
X132725000Y-75961928D01*
X132600518Y-75974188D01*
X132480820Y-76010498D01*
X132370506Y-76069463D01*
X132273815Y-76148815D01*
X132194463Y-76245506D01*
X132135498Y-76355820D01*
X132099188Y-76475518D01*
X132086928Y-76600000D01*
X125435000Y-76600000D01*
X125435000Y-76398061D01*
X125395226Y-76198102D01*
X125317205Y-76009744D01*
X125203937Y-75840226D01*
X125059774Y-75696063D01*
X124890256Y-75582795D01*
X124701898Y-75504774D01*
X124501939Y-75465000D01*
X124313072Y-75465000D01*
X124313072Y-75335000D01*
X124501939Y-75335000D01*
X124701898Y-75295226D01*
X124890256Y-75217205D01*
X125059774Y-75103937D01*
X125203937Y-74959774D01*
X125317205Y-74790256D01*
X125395226Y-74601898D01*
X125435000Y-74401939D01*
X125435000Y-74198061D01*
X125395226Y-73998102D01*
X125324920Y-73828370D01*
X125417205Y-73690256D01*
X125495226Y-73501898D01*
X125535000Y-73301939D01*
X125535000Y-73098061D01*
X125495226Y-72898102D01*
X125424920Y-72728370D01*
X125517205Y-72590256D01*
X125595226Y-72401898D01*
X125635000Y-72201939D01*
X125635000Y-71998061D01*
X125595226Y-71798102D01*
X125517205Y-71609744D01*
X125477285Y-71550000D01*
X125517205Y-71490256D01*
X125595226Y-71301898D01*
X125635000Y-71101939D01*
X125635000Y-70900000D01*
X132086928Y-70900000D01*
X132086928Y-72700000D01*
X132099188Y-72824482D01*
X132135498Y-72944180D01*
X132194463Y-73054494D01*
X132273815Y-73151185D01*
X132370506Y-73230537D01*
X132480820Y-73289502D01*
X132600518Y-73325812D01*
X132725000Y-73338072D01*
X134125000Y-73338072D01*
X134249482Y-73325812D01*
X134369180Y-73289502D01*
X134479494Y-73230537D01*
X134576185Y-73151185D01*
X134655537Y-73054494D01*
X134714502Y-72944180D01*
X134747621Y-72835000D01*
X134901939Y-72835000D01*
X135101898Y-72795226D01*
X135290256Y-72717205D01*
X135459774Y-72603937D01*
X135603937Y-72459774D01*
X135717205Y-72290256D01*
X135795226Y-72101898D01*
X135826729Y-71943519D01*
X135828547Y-71942766D01*
X135829243Y-71942977D01*
X135982500Y-71958072D01*
X136277500Y-71958072D01*
X136430757Y-71942977D01*
X136578125Y-71898274D01*
X136615000Y-71878564D01*
X136651875Y-71898274D01*
X136799243Y-71942977D01*
X136952500Y-71958072D01*
X137247500Y-71958072D01*
X137400757Y-71942977D01*
X137441861Y-71930508D01*
X137598102Y-71995226D01*
X137798061Y-72035000D01*
X138001939Y-72035000D01*
X138201898Y-71995226D01*
X138390256Y-71917205D01*
X138559774Y-71803937D01*
X138703937Y-71659774D01*
X138817205Y-71490256D01*
X138895226Y-71301898D01*
X138935000Y-71101939D01*
X138935000Y-70898061D01*
X138895226Y-70698102D01*
X138817205Y-70509744D01*
X138703937Y-70340226D01*
X138559774Y-70196063D01*
X138390256Y-70082795D01*
X138201898Y-70004774D01*
X138001939Y-69965000D01*
X137798061Y-69965000D01*
X137598102Y-70004774D01*
X137441861Y-70069492D01*
X137400757Y-70057023D01*
X137247500Y-70041928D01*
X136952500Y-70041928D01*
X136799243Y-70057023D01*
X136651875Y-70101726D01*
X136615000Y-70121436D01*
X136578125Y-70101726D01*
X136430757Y-70057023D01*
X136277500Y-70041928D01*
X135982500Y-70041928D01*
X135829243Y-70057023D01*
X135828547Y-70057234D01*
X135701898Y-70004774D01*
X135501939Y-69965000D01*
X135298061Y-69965000D01*
X135098102Y-70004774D01*
X134909744Y-70082795D01*
X134740226Y-70196063D01*
X134596063Y-70340226D01*
X134542163Y-70420894D01*
X134479494Y-70369463D01*
X134369180Y-70310498D01*
X134249482Y-70274188D01*
X134125000Y-70261928D01*
X132725000Y-70261928D01*
X132600518Y-70274188D01*
X132480820Y-70310498D01*
X132370506Y-70369463D01*
X132273815Y-70448815D01*
X132194463Y-70545506D01*
X132135498Y-70655820D01*
X132099188Y-70775518D01*
X132086928Y-70900000D01*
X125635000Y-70900000D01*
X125635000Y-70898061D01*
X125595226Y-70698102D01*
X125517205Y-70509744D01*
X125403937Y-70340226D01*
X125259774Y-70196063D01*
X125090256Y-70082795D01*
X124901898Y-70004774D01*
X124701939Y-69965000D01*
X124498061Y-69965000D01*
X124298102Y-70004774D01*
X124201804Y-70044662D01*
X124119180Y-70000498D01*
X123999482Y-69964188D01*
X123875000Y-69951928D01*
X121875000Y-69951928D01*
X121863072Y-69953103D01*
X121863072Y-69710000D01*
X168415198Y-69710000D01*
X168213270Y-69911928D01*
X167600000Y-69911928D01*
X167475518Y-69924188D01*
X167355820Y-69960498D01*
X167245506Y-70019463D01*
X167148815Y-70098815D01*
X167069463Y-70195506D01*
X167010498Y-70305820D01*
X166974188Y-70425518D01*
X166961928Y-70550000D01*
X166961928Y-72750000D01*
X166974188Y-72874482D01*
X167010498Y-72994180D01*
X167069463Y-73104494D01*
X167148815Y-73201185D01*
X167245506Y-73280537D01*
X167355820Y-73339502D01*
X167475518Y-73375812D01*
X167600000Y-73388072D01*
X168512678Y-73388072D01*
X168465000Y-73435750D01*
X168461928Y-73650000D01*
X168474188Y-73774482D01*
X168510498Y-73894180D01*
X168569463Y-74004494D01*
X168648815Y-74101185D01*
X168745506Y-74180537D01*
X168855820Y-74239502D01*
X168975518Y-74275812D01*
X169100000Y-74288072D01*
X169314250Y-74285000D01*
X169473000Y-74126250D01*
X169473000Y-73277000D01*
X169453000Y-73277000D01*
X169453000Y-73023000D01*
X169473000Y-73023000D01*
X169473000Y-72173750D01*
X169314250Y-72015000D01*
X169288072Y-72014625D01*
X169288072Y-71288072D01*
X169911928Y-71288072D01*
X169911928Y-72014625D01*
X169885750Y-72015000D01*
X169727000Y-72173750D01*
X169727000Y-73023000D01*
X169747000Y-73023000D01*
X169747000Y-73277000D01*
X169727000Y-73277000D01*
X169727000Y-74126250D01*
X169885750Y-74285000D01*
X170100000Y-74288072D01*
X170224482Y-74275812D01*
X170344180Y-74239502D01*
X170454494Y-74180537D01*
X170551185Y-74101185D01*
X170630537Y-74004494D01*
X170689502Y-73894180D01*
X170725812Y-73774482D01*
X170738072Y-73650000D01*
X170735000Y-73435750D01*
X170687322Y-73388072D01*
X171600000Y-73388072D01*
X171724482Y-73375812D01*
X171844180Y-73339502D01*
X171954494Y-73280537D01*
X172051185Y-73201185D01*
X172130537Y-73104494D01*
X172189502Y-72994180D01*
X172225812Y-72874482D01*
X172238072Y-72750000D01*
X172238072Y-72360000D01*
X172690690Y-72360000D01*
X172781163Y-72362220D01*
X172862127Y-72368193D01*
X172942696Y-72378130D01*
X173022681Y-72392009D01*
X173101870Y-72409792D01*
X173180129Y-72431448D01*
X173257225Y-72456918D01*
X173332944Y-72486126D01*
X173407178Y-72519032D01*
X173479685Y-72555529D01*
X173550312Y-72595538D01*
X173618903Y-72638973D01*
X173685276Y-72685718D01*
X173749282Y-72735669D01*
X173810746Y-72788689D01*
X173876295Y-72851096D01*
X174598351Y-73573153D01*
X174521586Y-73604950D01*
X174356163Y-73715482D01*
X174215482Y-73856163D01*
X174104950Y-74021586D01*
X174028814Y-74205394D01*
X173990000Y-74400524D01*
X173990000Y-74599476D01*
X174028814Y-74794606D01*
X174104950Y-74978414D01*
X174215482Y-75143837D01*
X174356163Y-75284518D01*
X174521586Y-75395050D01*
X174705394Y-75471186D01*
X174900524Y-75510000D01*
X175099476Y-75510000D01*
X175294606Y-75471186D01*
X175478414Y-75395050D01*
X175643837Y-75284518D01*
X175784518Y-75143837D01*
X175895050Y-74978414D01*
X175926847Y-74901649D01*
X177241928Y-76216730D01*
X177241928Y-76462500D01*
X177257023Y-76615757D01*
X177301726Y-76763125D01*
X177321436Y-76800000D01*
X177301726Y-76836875D01*
X177257023Y-76984243D01*
X177241928Y-77137500D01*
X177241928Y-77142857D01*
X177232500Y-77141928D01*
X176937500Y-77141928D01*
X176784243Y-77157023D01*
X176661316Y-77194312D01*
X176654180Y-77190498D01*
X176534482Y-77154188D01*
X176410000Y-77141928D01*
X176400750Y-77145000D01*
X176242000Y-77303750D01*
X176242000Y-77570237D01*
X176211726Y-77626875D01*
X176167023Y-77774243D01*
X176151928Y-77927500D01*
X176151928Y-78272500D01*
X176167023Y-78425757D01*
X176211726Y-78573125D01*
X176242000Y-78629763D01*
X176242000Y-78896250D01*
X176400750Y-79055000D01*
X176410000Y-79058072D01*
X176534482Y-79045812D01*
X176654180Y-79009502D01*
X176661316Y-79005688D01*
X176784243Y-79042977D01*
X176937500Y-79058072D01*
X177146462Y-79058072D01*
X177166014Y-79064003D01*
X177248368Y-79072114D01*
X177241928Y-79137500D01*
X177241928Y-79432500D01*
X177249016Y-79504464D01*
X177172500Y-79496928D01*
X176827500Y-79496928D01*
X176674243Y-79512023D01*
X176526875Y-79556726D01*
X176391060Y-79629321D01*
X176272017Y-79727017D01*
X176174321Y-79846060D01*
X176101726Y-79981875D01*
X176057023Y-80129243D01*
X176041928Y-80282500D01*
X176041928Y-80577500D01*
X176057023Y-80730757D01*
X176094312Y-80853684D01*
X176090498Y-80860820D01*
X176054188Y-80980518D01*
X176041928Y-81105000D01*
X176045000Y-81114250D01*
X176203750Y-81273000D01*
X176470237Y-81273000D01*
X176526875Y-81303274D01*
X176674243Y-81347977D01*
X176827500Y-81363072D01*
X177147000Y-81363072D01*
X177147000Y-81527000D01*
X177127000Y-81527000D01*
X177127000Y-81547000D01*
X176873000Y-81547000D01*
X176873000Y-81527000D01*
X176203750Y-81527000D01*
X176045000Y-81685750D01*
X176041928Y-81695000D01*
X176054188Y-81819482D01*
X176090498Y-81939180D01*
X176108575Y-81973000D01*
X147000000Y-81973000D01*
X146975224Y-81975440D01*
X146951399Y-81982667D01*
X146929443Y-81994403D01*
X146910197Y-82010197D01*
X146894403Y-82029443D01*
X146882667Y-82051399D01*
X146875440Y-82075224D01*
X146873000Y-82100000D01*
X146873000Y-90818663D01*
X145931302Y-91184944D01*
X145917814Y-91191249D01*
X145903818Y-91196303D01*
X145846047Y-91224797D01*
X144801196Y-91800492D01*
X144788667Y-91808521D01*
X144775456Y-91815385D01*
X144721962Y-91851269D01*
X143762428Y-92560094D01*
X143751070Y-92569710D01*
X143738883Y-92578261D01*
X143690605Y-92620905D01*
X142833246Y-93450408D01*
X142823255Y-93461447D01*
X142812311Y-93471530D01*
X142770096Y-93520185D01*
X142029977Y-94455792D01*
X142021536Y-94468052D01*
X142012019Y-94479497D01*
X141976625Y-94533285D01*
X141976610Y-94533307D01*
X141976607Y-94533314D01*
X141366732Y-95558582D01*
X141359985Y-95571854D01*
X141352068Y-95584453D01*
X141324087Y-95642474D01*
X140855165Y-96739402D01*
X140850234Y-96753447D01*
X140844051Y-96766985D01*
X140823989Y-96828197D01*
X140504262Y-97977508D01*
X140501233Y-97992077D01*
X140496893Y-98006319D01*
X140485104Y-98069646D01*
X140320190Y-99251147D01*
X140319114Y-99265994D01*
X140316697Y-99280678D01*
X140313386Y-99345009D01*
X140306181Y-100537941D01*
X140307078Y-100552797D01*
X140306624Y-100567676D01*
X140311851Y-100631879D01*
X140462483Y-101815285D01*
X140465337Y-101829893D01*
X140466855Y-101844700D01*
X140480526Y-101907648D01*
X140786348Y-103060737D01*
X140791106Y-103074832D01*
X140794571Y-103089316D01*
X140816448Y-103149902D01*
X141272087Y-104252414D01*
X141278670Y-104265760D01*
X141284018Y-104279654D01*
X141313716Y-104336815D01*
X141911166Y-105369381D01*
X141919458Y-105381743D01*
X141926595Y-105394803D01*
X141963591Y-105447534D01*
X142692357Y-106392015D01*
X142702213Y-106403174D01*
X142711013Y-106415173D01*
X142754658Y-106462548D01*
X143601934Y-107302346D01*
X143613176Y-107312100D01*
X143623489Y-107322834D01*
X143673017Y-107364020D01*
X144623921Y-108084385D01*
X144636361Y-108092571D01*
X144647996Y-108101841D01*
X144702502Y-108136094D01*
X144702536Y-108136116D01*
X144702548Y-108136122D01*
X145740358Y-108724388D01*
X145753764Y-108730853D01*
X145766531Y-108738508D01*
X145825106Y-108765259D01*
X145825124Y-108765268D01*
X145825129Y-108765270D01*
X146931633Y-109211114D01*
X146945774Y-109215748D01*
X146959442Y-109221648D01*
X147021060Y-109240423D01*
X148176814Y-109536011D01*
X148191445Y-109538735D01*
X148205774Y-109542775D01*
X148269334Y-109553235D01*
X149454029Y-109693370D01*
X149468886Y-109694135D01*
X149483629Y-109696245D01*
X149548012Y-109698207D01*
X149548014Y-109698207D01*
X150740835Y-109680427D01*
X150755672Y-109679219D01*
X150770554Y-109679361D01*
X150834634Y-109672791D01*
X152014625Y-109497409D01*
X152029170Y-109494250D01*
X152043942Y-109492422D01*
X152106590Y-109477435D01*
X153253021Y-109147533D01*
X153267014Y-109142480D01*
X153281422Y-109138713D01*
X153341510Y-109115581D01*
X153341536Y-109115572D01*
X153341543Y-109115568D01*
X154434266Y-108636943D01*
X154447473Y-108630081D01*
X154461250Y-108624444D01*
X154517776Y-108593556D01*
X155537603Y-107974613D01*
X155549786Y-107966065D01*
X155562697Y-107958655D01*
X155614641Y-107920562D01*
X156543652Y-107172177D01*
X156554596Y-107162094D01*
X156566416Y-107153040D01*
X156612841Y-107108435D01*
X156612866Y-107108412D01*
X156612873Y-107108404D01*
X157408333Y-106271511D01*
X157413608Y-106267347D01*
X157420704Y-106260424D01*
X157663157Y-106020595D01*
X157889511Y-105870841D01*
X158140644Y-105767903D01*
X158406991Y-105715704D01*
X158678404Y-105716232D01*
X158944540Y-105769468D01*
X159195273Y-105873384D01*
X159431504Y-106031000D01*
X159582580Y-106171383D01*
X159595844Y-106181487D01*
X159696570Y-106285046D01*
X159714855Y-106301449D01*
X159732005Y-106319042D01*
X159737571Y-106323972D01*
X160606763Y-107085722D01*
X160642238Y-107112778D01*
X160677376Y-107140162D01*
X160683559Y-107144291D01*
X161648090Y-107781030D01*
X161686905Y-107803018D01*
X161725439Y-107825383D01*
X161732125Y-107828634D01*
X162774148Y-108328580D01*
X162815566Y-108345088D01*
X162856800Y-108362026D01*
X162863866Y-108364340D01*
X163964100Y-108718242D01*
X164007437Y-108728992D01*
X164050525Y-108740160D01*
X164057840Y-108741494D01*
X164530580Y-108825114D01*
X164133508Y-109090429D01*
X163720429Y-109503508D01*
X163395875Y-109989238D01*
X163172318Y-110528952D01*
X163058350Y-111101909D01*
X163058350Y-111686091D01*
X163172318Y-112259048D01*
X163395875Y-112798762D01*
X163720429Y-113284492D01*
X164133508Y-113697571D01*
X164619238Y-114022125D01*
X165158952Y-114245682D01*
X165731909Y-114359650D01*
X166316091Y-114359650D01*
X166889048Y-114245682D01*
X167428762Y-114022125D01*
X167914492Y-113697571D01*
X168327571Y-113284492D01*
X168652125Y-112798762D01*
X168875682Y-112259048D01*
X168989650Y-111686091D01*
X168989650Y-111101909D01*
X168875682Y-110528952D01*
X168652125Y-109989238D01*
X168327571Y-109503508D01*
X167914492Y-109090429D01*
X167615640Y-108890743D01*
X167693661Y-108883135D01*
X167737687Y-108875792D01*
X167781684Y-108868927D01*
X167788927Y-108867246D01*
X168913357Y-108600011D01*
X168955969Y-108586764D01*
X168998638Y-108573988D01*
X169005571Y-108571344D01*
X169005585Y-108571340D01*
X169005597Y-108571334D01*
X170083344Y-108153974D01*
X170123770Y-108135063D01*
X170164303Y-108116618D01*
X170170827Y-108113051D01*
X171181971Y-107553279D01*
X171219422Y-107529079D01*
X171257113Y-107505281D01*
X171263092Y-107500862D01*
X171400663Y-107398061D01*
X174165000Y-107398061D01*
X174165000Y-107601939D01*
X174204774Y-107801898D01*
X174282795Y-107990256D01*
X174396063Y-108159774D01*
X174540226Y-108303937D01*
X174709744Y-108417205D01*
X174898102Y-108495226D01*
X175098061Y-108535000D01*
X175301939Y-108535000D01*
X175501898Y-108495226D01*
X175690256Y-108417205D01*
X175859774Y-108303937D01*
X175871836Y-108291875D01*
X175909744Y-108317205D01*
X176098102Y-108395226D01*
X176298061Y-108435000D01*
X176501939Y-108435000D01*
X176701898Y-108395226D01*
X176890256Y-108317205D01*
X177059774Y-108203937D01*
X177203937Y-108059774D01*
X177317205Y-107890256D01*
X177395226Y-107701898D01*
X177435000Y-107501939D01*
X177435000Y-107298061D01*
X177395226Y-107098102D01*
X177344075Y-106974613D01*
X177358072Y-106832500D01*
X177358072Y-106537500D01*
X177342977Y-106384243D01*
X177298274Y-106236875D01*
X177278564Y-106200000D01*
X177298274Y-106163125D01*
X177342977Y-106015757D01*
X177358072Y-105862500D01*
X177358072Y-105567500D01*
X177342977Y-105414243D01*
X177327882Y-105364480D01*
X177395226Y-105201898D01*
X177435000Y-105001939D01*
X177435000Y-104798061D01*
X177395226Y-104598102D01*
X177317205Y-104409744D01*
X177203937Y-104240226D01*
X177059774Y-104096063D01*
X176890256Y-103982795D01*
X176701898Y-103904774D01*
X176501939Y-103865000D01*
X176298061Y-103865000D01*
X176098102Y-103904774D01*
X175909744Y-103982795D01*
X175771630Y-104075080D01*
X175601898Y-104004774D01*
X175401939Y-103965000D01*
X175198061Y-103965000D01*
X174998102Y-104004774D01*
X174809744Y-104082795D01*
X174640226Y-104196063D01*
X174496063Y-104340226D01*
X174382795Y-104509744D01*
X174304774Y-104698102D01*
X174265000Y-104898061D01*
X174265000Y-105101939D01*
X174299359Y-105274677D01*
X174257023Y-105414243D01*
X174241928Y-105567500D01*
X174241928Y-105862500D01*
X174257023Y-106015757D01*
X174301726Y-106163125D01*
X174321436Y-106200000D01*
X174301726Y-106236875D01*
X174257023Y-106384243D01*
X174241928Y-106537500D01*
X174241928Y-106832500D01*
X174257023Y-106985757D01*
X174272118Y-107035520D01*
X174204774Y-107198102D01*
X174165000Y-107398061D01*
X171400663Y-107398061D01*
X172188911Y-106809040D01*
X172222773Y-106779946D01*
X172256842Y-106751289D01*
X172262159Y-106746106D01*
X172262167Y-106746099D01*
X172262174Y-106746091D01*
X173085530Y-105935030D01*
X173115152Y-105901584D01*
X173144995Y-105868593D01*
X173149566Y-105862729D01*
X173855235Y-104947422D01*
X173880019Y-104910303D01*
X173905133Y-104873530D01*
X173908866Y-104867099D01*
X174483786Y-103864489D01*
X174503284Y-103824389D01*
X174523195Y-103784509D01*
X174526020Y-103777631D01*
X174959550Y-102706273D01*
X174973443Y-102663843D01*
X174987739Y-102621684D01*
X174989605Y-102614487D01*
X175273724Y-101494204D01*
X175281719Y-101450342D01*
X175290173Y-101406572D01*
X175291044Y-101399188D01*
X175378081Y-100627000D01*
X178290000Y-100627000D01*
X178290001Y-137290000D01*
X167730971Y-137290000D01*
X167859774Y-137203937D01*
X168003937Y-137059774D01*
X168117205Y-136890256D01*
X168195226Y-136701898D01*
X168235000Y-136501939D01*
X168235000Y-136298061D01*
X168195226Y-136098102D01*
X168117205Y-135909744D01*
X168111045Y-135900524D01*
X173990000Y-135900524D01*
X173990000Y-136099476D01*
X174028814Y-136294606D01*
X174104950Y-136478414D01*
X174215482Y-136643837D01*
X174356163Y-136784518D01*
X174521586Y-136895050D01*
X174705394Y-136971186D01*
X174900524Y-137010000D01*
X175099476Y-137010000D01*
X175294606Y-136971186D01*
X175478414Y-136895050D01*
X175643837Y-136784518D01*
X175784518Y-136643837D01*
X175895050Y-136478414D01*
X175971186Y-136294606D01*
X176010000Y-136099476D01*
X176010000Y-135900524D01*
X175971186Y-135705394D01*
X175895050Y-135521586D01*
X175784518Y-135356163D01*
X175643837Y-135215482D01*
X175478414Y-135104950D01*
X175294606Y-135028814D01*
X175099476Y-134990000D01*
X174900524Y-134990000D01*
X174705394Y-135028814D01*
X174521586Y-135104950D01*
X174356163Y-135215482D01*
X174215482Y-135356163D01*
X174104950Y-135521586D01*
X174028814Y-135705394D01*
X173990000Y-135900524D01*
X168111045Y-135900524D01*
X168003937Y-135740226D01*
X167859774Y-135596063D01*
X167690256Y-135482795D01*
X167501898Y-135404774D01*
X167301939Y-135365000D01*
X167098061Y-135365000D01*
X166898102Y-135404774D01*
X166719432Y-135478782D01*
X166755000Y-135299969D01*
X166755000Y-135100031D01*
X166715994Y-134903935D01*
X166639481Y-134719217D01*
X166528402Y-134552975D01*
X166387025Y-134411598D01*
X166220783Y-134300519D01*
X166036065Y-134224006D01*
X165839969Y-134185000D01*
X165640031Y-134185000D01*
X165443935Y-134224006D01*
X165259217Y-134300519D01*
X165214210Y-134330591D01*
X165203937Y-134315216D01*
X165059774Y-134171053D01*
X164890256Y-134057785D01*
X164701898Y-133979764D01*
X164501939Y-133939990D01*
X164298061Y-133939990D01*
X164098102Y-133979764D01*
X163909744Y-134057785D01*
X163740226Y-134171053D01*
X163596063Y-134315216D01*
X163482795Y-134484734D01*
X163404774Y-134673092D01*
X163365000Y-134873051D01*
X163365000Y-135001289D01*
X163359774Y-134996063D01*
X163233112Y-134911430D01*
X163235000Y-134901939D01*
X163235000Y-134698061D01*
X163195226Y-134498102D01*
X163117205Y-134309744D01*
X163003937Y-134140226D01*
X162859774Y-133996063D01*
X162690256Y-133882795D01*
X162501898Y-133804774D01*
X162301939Y-133765000D01*
X162098061Y-133765000D01*
X161898102Y-133804774D01*
X161709744Y-133882795D01*
X161540226Y-133996063D01*
X161396063Y-134140226D01*
X161282795Y-134309744D01*
X161255003Y-134376838D01*
X161140783Y-134300519D01*
X160956065Y-134224006D01*
X160759969Y-134185000D01*
X160560031Y-134185000D01*
X160363935Y-134224006D01*
X160179217Y-134300519D01*
X160054801Y-134383651D01*
X160117205Y-134290256D01*
X160195226Y-134101898D01*
X160235000Y-133901939D01*
X160235000Y-133698061D01*
X160195226Y-133498102D01*
X160117205Y-133309744D01*
X160003937Y-133140226D01*
X159859774Y-132996063D01*
X159690256Y-132882795D01*
X159501898Y-132804774D01*
X159301939Y-132765000D01*
X159098061Y-132765000D01*
X158898102Y-132804774D01*
X158709744Y-132882795D01*
X158540226Y-132996063D01*
X158396063Y-133140226D01*
X158282795Y-133309744D01*
X158204774Y-133498102D01*
X158165000Y-133698061D01*
X158165000Y-133901939D01*
X158204774Y-134101898D01*
X158282795Y-134290256D01*
X158396063Y-134459774D01*
X158540226Y-134603937D01*
X158709744Y-134717205D01*
X158898102Y-134795226D01*
X159098061Y-134835000D01*
X159301939Y-134835000D01*
X159501898Y-134795226D01*
X159690256Y-134717205D01*
X159819619Y-134630768D01*
X159760519Y-134719217D01*
X159684006Y-134903935D01*
X159645000Y-135100031D01*
X159645000Y-135299969D01*
X159684006Y-135496065D01*
X159760519Y-135680783D01*
X159871598Y-135847025D01*
X160012975Y-135988402D01*
X160179217Y-136099481D01*
X160363935Y-136175994D01*
X160560031Y-136215000D01*
X160567598Y-136215000D01*
X160604774Y-136401898D01*
X160682795Y-136590256D01*
X160796063Y-136759774D01*
X160940226Y-136903937D01*
X161109744Y-137017205D01*
X161298102Y-137095226D01*
X161498061Y-137135000D01*
X161701939Y-137135000D01*
X161901898Y-137095226D01*
X162090256Y-137017205D01*
X162259774Y-136903937D01*
X162377160Y-136786551D01*
X162398102Y-136795226D01*
X162598061Y-136835000D01*
X162801939Y-136835000D01*
X162885838Y-136818312D01*
X162865000Y-136923071D01*
X162865000Y-137126949D01*
X162897433Y-137290000D01*
X150710000Y-137290000D01*
X150710000Y-135998061D01*
X156365000Y-135998061D01*
X156365000Y-136201939D01*
X156404774Y-136401898D01*
X156482795Y-136590256D01*
X156596063Y-136759774D01*
X156740226Y-136903937D01*
X156909744Y-137017205D01*
X157098102Y-137095226D01*
X157298061Y-137135000D01*
X157501939Y-137135000D01*
X157701898Y-137095226D01*
X157890256Y-137017205D01*
X158059774Y-136903937D01*
X158203937Y-136759774D01*
X158317205Y-136590256D01*
X158395226Y-136401898D01*
X158435000Y-136201939D01*
X158435000Y-135998061D01*
X158395226Y-135798102D01*
X158317205Y-135609744D01*
X158203937Y-135440226D01*
X158059774Y-135296063D01*
X157890256Y-135182795D01*
X157701898Y-135104774D01*
X157501939Y-135065000D01*
X157298061Y-135065000D01*
X157098102Y-135104774D01*
X156909744Y-135182795D01*
X156740226Y-135296063D01*
X156596063Y-135440226D01*
X156482795Y-135609744D01*
X156404774Y-135798102D01*
X156365000Y-135998061D01*
X150710000Y-135998061D01*
X150710000Y-134965123D01*
X150709513Y-134960182D01*
X150702523Y-134459576D01*
X150702449Y-134458337D01*
X150702484Y-134457097D01*
X150700685Y-134417490D01*
X150657478Y-133829117D01*
X152265000Y-133829117D01*
X152265000Y-134170883D01*
X152331675Y-134506081D01*
X152462463Y-134821831D01*
X152652337Y-135105998D01*
X152894002Y-135347663D01*
X153178169Y-135537537D01*
X153493919Y-135668325D01*
X153829117Y-135735000D01*
X154170883Y-135735000D01*
X154506081Y-135668325D01*
X154821831Y-135537537D01*
X155105998Y-135347663D01*
X155347663Y-135105998D01*
X155537537Y-134821831D01*
X155668325Y-134506081D01*
X155735000Y-134170883D01*
X155735000Y-133829117D01*
X155668325Y-133493919D01*
X155537537Y-133178169D01*
X155347663Y-132894002D01*
X155105998Y-132652337D01*
X154821831Y-132462463D01*
X154506081Y-132331675D01*
X154170883Y-132265000D01*
X153829117Y-132265000D01*
X153493919Y-132331675D01*
X153178169Y-132462463D01*
X152894002Y-132652337D01*
X152652337Y-132894002D01*
X152462463Y-133178169D01*
X152331675Y-133493919D01*
X152265000Y-133829117D01*
X150657478Y-133829117D01*
X150574438Y-132698326D01*
X150572971Y-132686020D01*
X150572192Y-132673645D01*
X150566811Y-132634363D01*
X150285270Y-130933716D01*
X150282694Y-130921596D01*
X150280797Y-130909342D01*
X150271878Y-130870709D01*
X149837363Y-129202578D01*
X149833695Y-129190727D01*
X149830698Y-129178708D01*
X149818331Y-129141095D01*
X149818315Y-129141043D01*
X149818307Y-129141024D01*
X149348652Y-127836504D01*
X152340000Y-127836504D01*
X152340000Y-128163496D01*
X152403793Y-128484204D01*
X152528927Y-128786305D01*
X152710594Y-129058188D01*
X152941812Y-129289406D01*
X153213695Y-129471073D01*
X153515796Y-129596207D01*
X153836504Y-129660000D01*
X154163496Y-129660000D01*
X154484204Y-129596207D01*
X154786305Y-129471073D01*
X155058188Y-129289406D01*
X155289406Y-129058188D01*
X155471073Y-128786305D01*
X155596207Y-128484204D01*
X155660000Y-128163496D01*
X155660000Y-127836504D01*
X155596207Y-127515796D01*
X155547440Y-127398061D01*
X157165000Y-127398061D01*
X157165000Y-127601939D01*
X157204774Y-127801898D01*
X157282795Y-127990256D01*
X157396063Y-128159774D01*
X157540226Y-128303937D01*
X157709744Y-128417205D01*
X157898102Y-128495226D01*
X158098061Y-128535000D01*
X158301939Y-128535000D01*
X158501898Y-128495226D01*
X158690256Y-128417205D01*
X158859774Y-128303937D01*
X159003937Y-128159774D01*
X159117205Y-127990256D01*
X159194999Y-127802445D01*
X159194999Y-129117676D01*
X159191323Y-129154999D01*
X159194999Y-129192321D01*
X159194999Y-129192331D01*
X159205996Y-129303984D01*
X159233283Y-129393938D01*
X159249453Y-129447245D01*
X159320025Y-129579275D01*
X159333921Y-129596207D01*
X159414998Y-129695000D01*
X159444002Y-129718803D01*
X159998931Y-130273733D01*
X159857150Y-130245531D01*
X159653272Y-130245531D01*
X159453313Y-130285305D01*
X159264955Y-130363326D01*
X159095437Y-130476594D01*
X158951274Y-130620757D01*
X158838006Y-130790275D01*
X158759985Y-130978633D01*
X158720211Y-131178592D01*
X158720211Y-131382470D01*
X158759985Y-131582429D01*
X158838006Y-131770787D01*
X158951274Y-131940305D01*
X159095437Y-132084468D01*
X159264955Y-132197736D01*
X159453313Y-132275757D01*
X159653272Y-132315531D01*
X159857150Y-132315531D01*
X160057109Y-132275757D01*
X160245467Y-132197736D01*
X160414985Y-132084468D01*
X160559148Y-131940305D01*
X160672416Y-131770787D01*
X160750437Y-131582429D01*
X160780578Y-131430899D01*
X160909744Y-131517205D01*
X161098102Y-131595226D01*
X161298061Y-131635000D01*
X161501939Y-131635000D01*
X161701898Y-131595226D01*
X161711419Y-131591282D01*
X161814824Y-131746039D01*
X161958987Y-131890202D01*
X162128505Y-132003470D01*
X162168609Y-132020082D01*
X162204774Y-132201898D01*
X162282795Y-132390256D01*
X162396063Y-132559774D01*
X162540226Y-132703937D01*
X162709744Y-132817205D01*
X162898102Y-132895226D01*
X163098061Y-132935000D01*
X163301939Y-132935000D01*
X163501898Y-132895226D01*
X163690256Y-132817205D01*
X163859774Y-132703937D01*
X164003937Y-132559774D01*
X164018465Y-132538031D01*
X163994557Y-132658227D01*
X163994557Y-132862105D01*
X164034331Y-133062064D01*
X164112352Y-133250422D01*
X164225620Y-133419940D01*
X164369783Y-133564103D01*
X164539301Y-133677371D01*
X164727659Y-133755392D01*
X164927618Y-133795166D01*
X165131496Y-133795166D01*
X165331455Y-133755392D01*
X165519813Y-133677371D01*
X165689331Y-133564103D01*
X165833494Y-133419940D01*
X165946762Y-133250422D01*
X166024783Y-133062064D01*
X166064557Y-132862105D01*
X166064557Y-132658227D01*
X166052590Y-132598061D01*
X168065000Y-132598061D01*
X168065000Y-132801939D01*
X168104774Y-133001898D01*
X168182795Y-133190256D01*
X168296063Y-133359774D01*
X168440226Y-133503937D01*
X168609744Y-133617205D01*
X168798102Y-133695226D01*
X168998061Y-133735000D01*
X169201939Y-133735000D01*
X169401898Y-133695226D01*
X169590256Y-133617205D01*
X169759774Y-133503937D01*
X169903937Y-133359774D01*
X170017205Y-133190256D01*
X170095226Y-133001898D01*
X170135000Y-132801939D01*
X170135000Y-132598061D01*
X170095226Y-132398102D01*
X170017205Y-132209744D01*
X169903937Y-132040226D01*
X169759774Y-131896063D01*
X169590256Y-131782795D01*
X169401898Y-131704774D01*
X169201939Y-131665000D01*
X168998061Y-131665000D01*
X168798102Y-131704774D01*
X168609744Y-131782795D01*
X168440226Y-131896063D01*
X168296063Y-132040226D01*
X168182795Y-132209744D01*
X168104774Y-132398102D01*
X168065000Y-132598061D01*
X166052590Y-132598061D01*
X166024783Y-132458268D01*
X166011295Y-132425705D01*
X166118497Y-132265266D01*
X166196518Y-132076908D01*
X166236292Y-131876949D01*
X166236292Y-131673071D01*
X166196518Y-131473112D01*
X166118497Y-131284754D01*
X166005229Y-131115236D01*
X165861066Y-130971073D01*
X165691548Y-130857805D01*
X165503190Y-130779784D01*
X165303231Y-130740010D01*
X165099353Y-130740010D01*
X164899394Y-130779784D01*
X164711036Y-130857805D01*
X164541518Y-130971073D01*
X164397355Y-131115236D01*
X164284087Y-131284754D01*
X164206066Y-131473112D01*
X164185753Y-131575233D01*
X164117205Y-131409744D01*
X164003937Y-131240226D01*
X163859774Y-131096063D01*
X163690256Y-130982795D01*
X163650152Y-130966183D01*
X163613987Y-130784367D01*
X163535966Y-130596009D01*
X163422698Y-130426491D01*
X163278535Y-130282328D01*
X163109017Y-130169060D01*
X162920659Y-130091039D01*
X162720700Y-130051265D01*
X162516822Y-130051265D01*
X162316863Y-130091039D01*
X162307342Y-130094983D01*
X162203937Y-129940226D01*
X162059774Y-129796063D01*
X161890256Y-129682795D01*
X161701898Y-129604774D01*
X161501939Y-129565000D01*
X161439802Y-129565000D01*
X160714999Y-128840198D01*
X160714999Y-128515000D01*
X160759969Y-128515000D01*
X160956065Y-128475994D01*
X161140783Y-128399481D01*
X161307025Y-128288402D01*
X161448402Y-128147025D01*
X161559481Y-127980783D01*
X161635994Y-127796065D01*
X161675000Y-127599969D01*
X161675000Y-127498061D01*
X162865000Y-127498061D01*
X162865000Y-127701939D01*
X162904774Y-127901898D01*
X162982795Y-128090256D01*
X163096063Y-128259774D01*
X163240226Y-128403937D01*
X163409744Y-128517205D01*
X163598102Y-128595226D01*
X163798061Y-128635000D01*
X164001939Y-128635000D01*
X164201898Y-128595226D01*
X164390256Y-128517205D01*
X164559774Y-128403937D01*
X164703937Y-128259774D01*
X164817205Y-128090256D01*
X164854119Y-128001137D01*
X164951598Y-128147025D01*
X165092975Y-128288402D01*
X165259217Y-128399481D01*
X165443935Y-128475994D01*
X165640031Y-128515000D01*
X165839969Y-128515000D01*
X166036065Y-128475994D01*
X166220783Y-128399481D01*
X166387025Y-128288402D01*
X166528402Y-128147025D01*
X166639481Y-127980783D01*
X166715994Y-127796065D01*
X166755000Y-127599969D01*
X166755000Y-127400031D01*
X166715994Y-127203935D01*
X166639481Y-127019217D01*
X166528402Y-126852975D01*
X166387025Y-126711598D01*
X166220783Y-126600519D01*
X166036065Y-126524006D01*
X165839969Y-126485000D01*
X165640031Y-126485000D01*
X165443935Y-126524006D01*
X165259217Y-126600519D01*
X165092975Y-126711598D01*
X164951598Y-126852975D01*
X164840519Y-127019217D01*
X164808449Y-127096640D01*
X164703937Y-126940226D01*
X164559774Y-126796063D01*
X164390256Y-126682795D01*
X164201898Y-126604774D01*
X164001939Y-126565000D01*
X163798061Y-126565000D01*
X163598102Y-126604774D01*
X163409744Y-126682795D01*
X163240226Y-126796063D01*
X163096063Y-126940226D01*
X162982795Y-127109744D01*
X162904774Y-127298102D01*
X162865000Y-127498061D01*
X161675000Y-127498061D01*
X161675000Y-127400031D01*
X161635994Y-127203935D01*
X161559481Y-127019217D01*
X161448402Y-126852975D01*
X161307025Y-126711598D01*
X161140783Y-126600519D01*
X160956065Y-126524006D01*
X160759969Y-126485000D01*
X160714999Y-126485000D01*
X160714999Y-126198061D01*
X166465000Y-126198061D01*
X166465000Y-126401939D01*
X166504774Y-126601898D01*
X166582795Y-126790256D01*
X166696063Y-126959774D01*
X166840226Y-127103937D01*
X167009744Y-127217205D01*
X167198102Y-127295226D01*
X167398061Y-127335000D01*
X167601939Y-127335000D01*
X167801898Y-127295226D01*
X167990256Y-127217205D01*
X168159774Y-127103937D01*
X168303937Y-126959774D01*
X168417205Y-126790256D01*
X168495226Y-126601898D01*
X168535000Y-126401939D01*
X168535000Y-126198061D01*
X168495226Y-125998102D01*
X168417205Y-125809744D01*
X168303937Y-125640226D01*
X168159774Y-125496063D01*
X167990256Y-125382795D01*
X167801898Y-125304774D01*
X167601939Y-125265000D01*
X167398061Y-125265000D01*
X167198102Y-125304774D01*
X167009744Y-125382795D01*
X166840226Y-125496063D01*
X166696063Y-125640226D01*
X166582795Y-125809744D01*
X166504774Y-125998102D01*
X166465000Y-126198061D01*
X160714999Y-126198061D01*
X160714999Y-125019382D01*
X160898102Y-125095226D01*
X161098061Y-125135000D01*
X161301939Y-125135000D01*
X161501898Y-125095226D01*
X161690256Y-125017205D01*
X161859774Y-124903937D01*
X162003937Y-124759774D01*
X162117205Y-124590256D01*
X162119941Y-124583652D01*
X162252879Y-124716590D01*
X162422397Y-124829858D01*
X162610755Y-124907879D01*
X162810714Y-124947653D01*
X163014592Y-124947653D01*
X163214551Y-124907879D01*
X163376914Y-124840625D01*
X163440226Y-124903937D01*
X163609744Y-125017205D01*
X163798102Y-125095226D01*
X163998061Y-125135000D01*
X164201939Y-125135000D01*
X164401898Y-125095226D01*
X164571630Y-125024920D01*
X164709744Y-125117205D01*
X164898102Y-125195226D01*
X165098061Y-125235000D01*
X165301939Y-125235000D01*
X165501898Y-125195226D01*
X165690256Y-125117205D01*
X165859774Y-125003937D01*
X166003937Y-124859774D01*
X166117205Y-124690256D01*
X166195226Y-124501898D01*
X166235000Y-124301939D01*
X166235000Y-124098061D01*
X166195226Y-123898102D01*
X166117205Y-123709744D01*
X166003937Y-123540226D01*
X165859774Y-123396063D01*
X165690256Y-123282795D01*
X165501898Y-123204774D01*
X165301939Y-123165000D01*
X165098061Y-123165000D01*
X164898102Y-123204774D01*
X164728370Y-123275080D01*
X164590256Y-123182795D01*
X164401898Y-123104774D01*
X164201939Y-123065000D01*
X163998061Y-123065000D01*
X163798102Y-123104774D01*
X163635739Y-123172028D01*
X163572427Y-123108716D01*
X163402909Y-122995448D01*
X163214551Y-122917427D01*
X163014592Y-122877653D01*
X162810714Y-122877653D01*
X162610755Y-122917427D01*
X162422397Y-122995448D01*
X162252879Y-123108716D01*
X162108716Y-123252879D01*
X161995448Y-123422397D01*
X161992712Y-123429001D01*
X161859774Y-123296063D01*
X161690256Y-123182795D01*
X161501898Y-123104774D01*
X161301939Y-123065000D01*
X161098061Y-123065000D01*
X161088570Y-123066888D01*
X161003937Y-122940226D01*
X160859774Y-122796063D01*
X160690256Y-122682795D01*
X160501898Y-122604774D01*
X160301939Y-122565000D01*
X160098061Y-122565000D01*
X159898102Y-122604774D01*
X159709744Y-122682795D01*
X159540226Y-122796063D01*
X159396063Y-122940226D01*
X159282795Y-123109744D01*
X159204774Y-123298102D01*
X159165000Y-123498061D01*
X159165000Y-123701939D01*
X159192030Y-123837827D01*
X159191323Y-123845001D01*
X159195000Y-123882333D01*
X159194999Y-127197555D01*
X159117205Y-127009744D01*
X159003937Y-126840226D01*
X158859774Y-126696063D01*
X158690256Y-126582795D01*
X158501898Y-126504774D01*
X158301939Y-126465000D01*
X158098061Y-126465000D01*
X157898102Y-126504774D01*
X157709744Y-126582795D01*
X157540226Y-126696063D01*
X157396063Y-126840226D01*
X157282795Y-127009744D01*
X157204774Y-127198102D01*
X157165000Y-127398061D01*
X155547440Y-127398061D01*
X155471073Y-127213695D01*
X155289406Y-126941812D01*
X155058188Y-126710594D01*
X154786305Y-126528927D01*
X154484204Y-126403793D01*
X154163496Y-126340000D01*
X153836504Y-126340000D01*
X153515796Y-126403793D01*
X153213695Y-126528927D01*
X152941812Y-126710594D01*
X152710594Y-126941812D01*
X152528927Y-127213695D01*
X152403793Y-127515796D01*
X152340000Y-127836504D01*
X149348652Y-127836504D01*
X149234400Y-127519159D01*
X149229679Y-127507706D01*
X149225600Y-127495991D01*
X149209874Y-127459653D01*
X149209854Y-127459604D01*
X149209845Y-127459586D01*
X148481347Y-125897316D01*
X148475599Y-125886320D01*
X148470482Y-125875041D01*
X148451503Y-125840230D01*
X147584400Y-124350400D01*
X147577687Y-124339983D01*
X147571562Y-124329201D01*
X147549506Y-124296254D01*
X146550945Y-122891142D01*
X146543306Y-122881364D01*
X146536238Y-122871195D01*
X146511287Y-122840382D01*
X145389487Y-121531555D01*
X145380997Y-121522514D01*
X145373033Y-121513023D01*
X145345391Y-121484599D01*
X144330912Y-120498061D01*
X145765000Y-120498061D01*
X145765000Y-120701939D01*
X145804774Y-120901898D01*
X145882795Y-121090256D01*
X145996063Y-121259774D01*
X146140226Y-121403937D01*
X146309744Y-121517205D01*
X146472483Y-121584614D01*
X146485005Y-121625894D01*
X146557600Y-121761709D01*
X146655296Y-121880752D01*
X146899248Y-122124704D01*
X147018291Y-122222400D01*
X147154106Y-122294995D01*
X147262212Y-122327788D01*
X147295005Y-122435894D01*
X147367600Y-122571709D01*
X147465296Y-122690752D01*
X147709248Y-122934704D01*
X147828291Y-123032400D01*
X147964106Y-123104995D01*
X148046844Y-123130093D01*
X148085005Y-123255894D01*
X148157600Y-123391709D01*
X148255296Y-123510752D01*
X148499248Y-123754704D01*
X148591052Y-123830046D01*
X148664848Y-124008203D01*
X148778116Y-124177721D01*
X148922279Y-124321884D01*
X149091797Y-124435152D01*
X149280155Y-124513173D01*
X149480114Y-124552947D01*
X149683992Y-124552947D01*
X149883951Y-124513173D01*
X150072309Y-124435152D01*
X150241827Y-124321884D01*
X150385990Y-124177721D01*
X150414535Y-124135000D01*
X150601939Y-124135000D01*
X150801898Y-124095226D01*
X150990256Y-124017205D01*
X151159774Y-123903937D01*
X151303937Y-123759774D01*
X151417205Y-123590256D01*
X151495226Y-123401898D01*
X151535000Y-123201939D01*
X151535000Y-122998061D01*
X151495226Y-122798102D01*
X151417205Y-122609744D01*
X151303937Y-122440226D01*
X151159774Y-122296063D01*
X150990256Y-122182795D01*
X150801898Y-122104774D01*
X150699344Y-122084375D01*
X150674995Y-122004106D01*
X150602400Y-121868291D01*
X150504704Y-121749248D01*
X150260752Y-121505296D01*
X150141709Y-121407600D01*
X150005894Y-121335005D01*
X149923156Y-121309907D01*
X149884995Y-121184106D01*
X149812400Y-121048291D01*
X149714704Y-120929248D01*
X149470752Y-120685296D01*
X149351709Y-120587600D01*
X149215894Y-120515005D01*
X149107788Y-120482212D01*
X149074995Y-120374106D01*
X149002400Y-120238291D01*
X148904704Y-120119248D01*
X148660752Y-119875296D01*
X148606375Y-119830670D01*
X148606375Y-119826686D01*
X148566601Y-119626727D01*
X148488580Y-119438369D01*
X148375312Y-119268851D01*
X148231149Y-119124688D01*
X148061631Y-119011420D01*
X147873273Y-118933399D01*
X147673314Y-118893625D01*
X147469436Y-118893625D01*
X147269477Y-118933399D01*
X147081119Y-119011420D01*
X146911601Y-119124688D01*
X146767438Y-119268851D01*
X146654170Y-119438369D01*
X146593067Y-119585885D01*
X146498102Y-119604774D01*
X146309744Y-119682795D01*
X146140226Y-119796063D01*
X145996063Y-119940226D01*
X145882795Y-120109744D01*
X145804774Y-120298102D01*
X145765000Y-120498061D01*
X144330912Y-120498061D01*
X144109585Y-120282830D01*
X144100321Y-120274605D01*
X144091519Y-120265864D01*
X144061444Y-120240087D01*
X144061416Y-120240062D01*
X144061405Y-120240054D01*
X142721776Y-119155244D01*
X142711799Y-119147889D01*
X142702248Y-119139987D01*
X142669929Y-119117019D01*
X141237483Y-118158080D01*
X141226875Y-118151656D01*
X141216651Y-118144655D01*
X141182384Y-118124711D01*
X139668923Y-117299545D01*
X139657787Y-117294113D01*
X139646961Y-117288063D01*
X139611027Y-117271307D01*
X138029007Y-116586706D01*
X138017417Y-116582303D01*
X138006094Y-116577262D01*
X137968790Y-116563832D01*
X136331235Y-116025431D01*
X136319302Y-116022099D01*
X136307561Y-116018102D01*
X136269207Y-116008112D01*
X136269193Y-116008108D01*
X136269188Y-116008107D01*
X135792527Y-115898061D01*
X143965000Y-115898061D01*
X143965000Y-116101939D01*
X144004774Y-116301898D01*
X144082795Y-116490256D01*
X144196063Y-116659774D01*
X144340226Y-116803937D01*
X144509744Y-116917205D01*
X144698102Y-116995226D01*
X144898061Y-117035000D01*
X145101939Y-117035000D01*
X145301898Y-116995226D01*
X145490256Y-116917205D01*
X145659774Y-116803937D01*
X145803937Y-116659774D01*
X145917205Y-116490256D01*
X145995226Y-116301898D01*
X146035000Y-116101939D01*
X146035000Y-115898061D01*
X145995226Y-115698102D01*
X145917205Y-115509744D01*
X145803937Y-115340226D01*
X145659774Y-115196063D01*
X145490256Y-115082795D01*
X145311881Y-115008909D01*
X151712350Y-115008909D01*
X151712350Y-115593091D01*
X151826318Y-116166048D01*
X152049875Y-116705762D01*
X152374429Y-117191492D01*
X152787508Y-117604571D01*
X153273238Y-117929125D01*
X153812952Y-118152682D01*
X154385909Y-118266650D01*
X154970091Y-118266650D01*
X155543048Y-118152682D01*
X156082762Y-117929125D01*
X156568492Y-117604571D01*
X156981571Y-117191492D01*
X157306125Y-116705762D01*
X157453200Y-116350690D01*
X167150640Y-116350690D01*
X167150640Y-116554568D01*
X167190414Y-116754527D01*
X167268435Y-116942885D01*
X167381703Y-117112403D01*
X167525866Y-117256566D01*
X167695384Y-117369834D01*
X167883742Y-117447855D01*
X168083701Y-117487629D01*
X168145838Y-117487629D01*
X168379212Y-117721002D01*
X168403010Y-117750001D01*
X168518735Y-117844974D01*
X168650764Y-117915546D01*
X168794025Y-117959003D01*
X168905678Y-117970000D01*
X168905687Y-117970000D01*
X168943010Y-117973676D01*
X168980333Y-117970000D01*
X169809556Y-117970000D01*
X169895506Y-118040537D01*
X170005820Y-118099502D01*
X170125518Y-118135812D01*
X170250000Y-118148072D01*
X171750000Y-118148072D01*
X171874482Y-118135812D01*
X171994180Y-118099502D01*
X172104494Y-118040537D01*
X172201185Y-117961185D01*
X172280537Y-117864494D01*
X172339502Y-117754180D01*
X172375812Y-117634482D01*
X172388072Y-117510000D01*
X172388072Y-116910000D01*
X172375812Y-116785518D01*
X172339502Y-116665820D01*
X172290957Y-116575000D01*
X172339502Y-116484180D01*
X172375812Y-116364482D01*
X172388072Y-116240000D01*
X172388072Y-115640000D01*
X172375812Y-115515518D01*
X172339502Y-115395820D01*
X172290957Y-115305000D01*
X172339502Y-115214180D01*
X172375812Y-115094482D01*
X172388072Y-114970000D01*
X172388072Y-114370000D01*
X172375812Y-114245518D01*
X172339502Y-114125820D01*
X172290957Y-114035000D01*
X172339502Y-113944180D01*
X172375812Y-113824482D01*
X172388072Y-113700000D01*
X172388072Y-113100000D01*
X172387101Y-113090138D01*
X172576888Y-113052387D01*
X172765246Y-112974366D01*
X172934764Y-112861098D01*
X173078927Y-112716935D01*
X173192195Y-112547417D01*
X173270216Y-112359059D01*
X173309990Y-112159100D01*
X173309990Y-111955222D01*
X173270216Y-111755263D01*
X173192195Y-111566905D01*
X173179092Y-111547296D01*
X173217205Y-111490256D01*
X173295226Y-111301898D01*
X173335000Y-111101939D01*
X173335000Y-110898061D01*
X173295226Y-110698102D01*
X173217205Y-110509744D01*
X173103937Y-110340226D01*
X173063711Y-110300000D01*
X173103937Y-110259774D01*
X173217205Y-110090256D01*
X173295226Y-109901898D01*
X173335000Y-109701939D01*
X173335000Y-109498061D01*
X174065000Y-109498061D01*
X174065000Y-109701939D01*
X174104774Y-109901898D01*
X174182795Y-110090256D01*
X174289532Y-110250000D01*
X174182795Y-110409744D01*
X174104774Y-110598102D01*
X174065000Y-110798061D01*
X174065000Y-111001939D01*
X174104774Y-111201898D01*
X174182795Y-111390256D01*
X174296063Y-111559774D01*
X174308125Y-111571836D01*
X174282795Y-111609744D01*
X174204774Y-111798102D01*
X174165000Y-111998061D01*
X174165000Y-112201939D01*
X174204774Y-112401898D01*
X174282795Y-112590256D01*
X174348179Y-112688110D01*
X174296063Y-112740226D01*
X174182795Y-112909744D01*
X174104774Y-113098102D01*
X174065000Y-113298061D01*
X174065000Y-113501939D01*
X174104774Y-113701898D01*
X174182795Y-113890256D01*
X174296063Y-114059774D01*
X174348179Y-114111890D01*
X174282795Y-114209744D01*
X174204774Y-114398102D01*
X174165000Y-114598061D01*
X174165000Y-114801939D01*
X174204774Y-115001898D01*
X174282795Y-115190256D01*
X174396063Y-115359774D01*
X174540226Y-115503937D01*
X174709744Y-115617205D01*
X174898102Y-115695226D01*
X175011928Y-115717867D01*
X175011928Y-116240000D01*
X175024188Y-116364482D01*
X175060498Y-116484180D01*
X175109043Y-116575000D01*
X175060498Y-116665820D01*
X175024188Y-116785518D01*
X175011928Y-116910000D01*
X175011928Y-117510000D01*
X175024188Y-117634482D01*
X175060498Y-117754180D01*
X175119463Y-117864494D01*
X175198815Y-117961185D01*
X175295506Y-118040537D01*
X175405820Y-118099502D01*
X175525518Y-118135812D01*
X175650000Y-118148072D01*
X175940001Y-118148072D01*
X175940000Y-118739812D01*
X175908940Y-118714321D01*
X175773125Y-118641726D01*
X175625757Y-118597023D01*
X175472500Y-118581928D01*
X175127500Y-118581928D01*
X174974243Y-118597023D01*
X174826875Y-118641726D01*
X174691060Y-118714321D01*
X174572017Y-118812017D01*
X174474321Y-118931060D01*
X174401726Y-119066875D01*
X174357023Y-119214243D01*
X174341928Y-119367500D01*
X174341928Y-119662500D01*
X174357023Y-119815757D01*
X174401726Y-119963125D01*
X174421436Y-120000000D01*
X174401726Y-120036875D01*
X174357023Y-120184243D01*
X174341928Y-120337500D01*
X174341928Y-120632500D01*
X174357023Y-120785757D01*
X174401726Y-120933125D01*
X174441944Y-121008367D01*
X174404774Y-121098102D01*
X174365000Y-121298061D01*
X174365000Y-121501939D01*
X174404774Y-121701898D01*
X174482795Y-121890256D01*
X174596063Y-122059774D01*
X174740226Y-122203937D01*
X174909744Y-122317205D01*
X175098102Y-122395226D01*
X175298061Y-122435000D01*
X175501939Y-122435000D01*
X175701898Y-122395226D01*
X175890256Y-122317205D01*
X176050000Y-122210468D01*
X176209744Y-122317205D01*
X176398102Y-122395226D01*
X176598061Y-122435000D01*
X176801939Y-122435000D01*
X177001898Y-122395226D01*
X177190256Y-122317205D01*
X177359774Y-122203937D01*
X177503937Y-122059774D01*
X177617205Y-121890256D01*
X177695226Y-121701898D01*
X177735000Y-121501939D01*
X177735000Y-121298061D01*
X177695226Y-121098102D01*
X177617205Y-120909744D01*
X177609063Y-120897558D01*
X177642977Y-120785757D01*
X177658072Y-120632500D01*
X177658072Y-120337500D01*
X177642977Y-120184243D01*
X177598274Y-120036875D01*
X177578564Y-120000000D01*
X177598274Y-119963125D01*
X177642977Y-119815757D01*
X177658072Y-119662500D01*
X177658072Y-119367500D01*
X177642977Y-119214243D01*
X177598274Y-119066875D01*
X177525679Y-118931060D01*
X177460000Y-118851030D01*
X177460000Y-118064320D01*
X177504494Y-118040537D01*
X177601185Y-117961185D01*
X177680537Y-117864494D01*
X177739502Y-117754180D01*
X177775812Y-117634482D01*
X177788072Y-117510000D01*
X177788072Y-116910000D01*
X177775812Y-116785518D01*
X177739502Y-116665820D01*
X177690957Y-116575000D01*
X177739502Y-116484180D01*
X177775812Y-116364482D01*
X177788072Y-116240000D01*
X177788072Y-115640000D01*
X177775812Y-115515518D01*
X177739502Y-115395820D01*
X177690957Y-115305000D01*
X177739502Y-115214180D01*
X177775812Y-115094482D01*
X177788072Y-114970000D01*
X177788072Y-114370000D01*
X177775812Y-114245518D01*
X177739502Y-114125820D01*
X177690957Y-114035000D01*
X177739502Y-113944180D01*
X177775812Y-113824482D01*
X177788072Y-113700000D01*
X177788072Y-113100000D01*
X177775812Y-112975518D01*
X177739502Y-112855820D01*
X177690957Y-112765000D01*
X177739502Y-112674180D01*
X177775812Y-112554482D01*
X177788072Y-112430000D01*
X177788072Y-111830000D01*
X177775812Y-111705518D01*
X177739502Y-111585820D01*
X177690957Y-111495000D01*
X177739502Y-111404180D01*
X177775812Y-111284482D01*
X177788072Y-111160000D01*
X177788072Y-110560000D01*
X177775812Y-110435518D01*
X177739502Y-110315820D01*
X177690957Y-110225000D01*
X177739502Y-110134180D01*
X177775812Y-110014482D01*
X177788072Y-109890000D01*
X177788072Y-109290000D01*
X177775812Y-109165518D01*
X177739502Y-109045820D01*
X177680537Y-108935506D01*
X177601185Y-108838815D01*
X177504494Y-108759463D01*
X177394180Y-108700498D01*
X177274482Y-108664188D01*
X177150000Y-108651928D01*
X175650000Y-108651928D01*
X175541528Y-108662611D01*
X175401898Y-108604774D01*
X175201939Y-108565000D01*
X174998061Y-108565000D01*
X174798102Y-108604774D01*
X174609744Y-108682795D01*
X174440226Y-108796063D01*
X174296063Y-108940226D01*
X174182795Y-109109744D01*
X174104774Y-109298102D01*
X174065000Y-109498061D01*
X173335000Y-109498061D01*
X173295226Y-109298102D01*
X173217205Y-109109744D01*
X173103937Y-108940226D01*
X172959774Y-108796063D01*
X172790256Y-108682795D01*
X172601898Y-108604774D01*
X172401939Y-108565000D01*
X172198061Y-108565000D01*
X171998102Y-108604774D01*
X171858472Y-108662611D01*
X171750000Y-108651928D01*
X170250000Y-108651928D01*
X170125518Y-108664188D01*
X170005820Y-108700498D01*
X169895506Y-108759463D01*
X169798815Y-108838815D01*
X169719463Y-108935506D01*
X169660498Y-109045820D01*
X169624188Y-109165518D01*
X169611928Y-109290000D01*
X169611928Y-109890000D01*
X169624188Y-110014482D01*
X169660498Y-110134180D01*
X169709043Y-110225000D01*
X169660498Y-110315820D01*
X169624188Y-110435518D01*
X169611928Y-110560000D01*
X169611928Y-111160000D01*
X169624188Y-111284482D01*
X169660498Y-111404180D01*
X169709043Y-111495000D01*
X169660498Y-111585820D01*
X169624188Y-111705518D01*
X169611928Y-111830000D01*
X169611928Y-112335609D01*
X169439353Y-112335609D01*
X169239394Y-112375383D01*
X169051036Y-112453404D01*
X168881518Y-112566672D01*
X168737355Y-112710835D01*
X168624087Y-112880353D01*
X168546066Y-113068711D01*
X168506292Y-113268670D01*
X168506292Y-113472548D01*
X168546066Y-113672507D01*
X168624087Y-113860865D01*
X168664376Y-113921161D01*
X168521562Y-114016586D01*
X168377399Y-114160749D01*
X168264131Y-114330267D01*
X168186110Y-114518625D01*
X168146336Y-114718584D01*
X168146336Y-114922462D01*
X168186110Y-115122421D01*
X168264131Y-115310779D01*
X168342875Y-115428628D01*
X168287579Y-115417629D01*
X168083701Y-115417629D01*
X167883742Y-115457403D01*
X167695384Y-115535424D01*
X167525866Y-115648692D01*
X167381703Y-115792855D01*
X167268435Y-115962373D01*
X167190414Y-116150731D01*
X167150640Y-116350690D01*
X157453200Y-116350690D01*
X157529682Y-116166048D01*
X157643650Y-115593091D01*
X157643650Y-115008909D01*
X157529682Y-114435952D01*
X157306125Y-113896238D01*
X156981571Y-113410508D01*
X156568492Y-112997429D01*
X156082762Y-112672875D01*
X155543048Y-112449318D01*
X154970091Y-112335350D01*
X154385909Y-112335350D01*
X153812952Y-112449318D01*
X153273238Y-112672875D01*
X152787508Y-112997429D01*
X152374429Y-113410508D01*
X152049875Y-113896238D01*
X151826318Y-114435952D01*
X151712350Y-115008909D01*
X145311881Y-115008909D01*
X145301898Y-115004774D01*
X145101939Y-114965000D01*
X144898061Y-114965000D01*
X144698102Y-115004774D01*
X144509744Y-115082795D01*
X144340226Y-115196063D01*
X144196063Y-115340226D01*
X144082795Y-115509744D01*
X144004774Y-115698102D01*
X143965000Y-115898061D01*
X135792527Y-115898061D01*
X134898072Y-115691560D01*
X134898072Y-114943084D01*
X134931028Y-114910129D01*
X134993165Y-114910129D01*
X135193124Y-114870355D01*
X135381482Y-114792334D01*
X135551000Y-114679066D01*
X135695163Y-114534903D01*
X135808431Y-114365385D01*
X135886452Y-114177027D01*
X135926226Y-113977068D01*
X135926226Y-113773190D01*
X135886452Y-113573231D01*
X135808431Y-113384873D01*
X135771177Y-113329117D01*
X139265000Y-113329117D01*
X139265000Y-113670883D01*
X139331675Y-114006081D01*
X139462463Y-114321831D01*
X139652337Y-114605998D01*
X139894002Y-114847663D01*
X140178169Y-115037537D01*
X140493919Y-115168325D01*
X140829117Y-115235000D01*
X141170883Y-115235000D01*
X141506081Y-115168325D01*
X141821831Y-115037537D01*
X142105998Y-114847663D01*
X142347663Y-114605998D01*
X142537537Y-114321831D01*
X142668325Y-114006081D01*
X142735000Y-113670883D01*
X142735000Y-113329117D01*
X142668325Y-112993919D01*
X142537537Y-112678169D01*
X142347663Y-112394002D01*
X142105998Y-112152337D01*
X141821831Y-111962463D01*
X141506081Y-111831675D01*
X141170883Y-111765000D01*
X140829117Y-111765000D01*
X140493919Y-111831675D01*
X140178169Y-111962463D01*
X139894002Y-112152337D01*
X139652337Y-112394002D01*
X139462463Y-112678169D01*
X139331675Y-112993919D01*
X139265000Y-113329117D01*
X135771177Y-113329117D01*
X135695163Y-113215355D01*
X135551000Y-113071192D01*
X135381482Y-112957924D01*
X135193124Y-112879903D01*
X134993165Y-112840129D01*
X134789287Y-112840129D01*
X134589328Y-112879903D01*
X134400970Y-112957924D01*
X134231452Y-113071192D01*
X134087289Y-113215355D01*
X133998373Y-113348428D01*
X132860000Y-113348428D01*
X132815184Y-113352842D01*
X132833262Y-113334764D01*
X132946530Y-113165246D01*
X133024551Y-112976888D01*
X133064325Y-112776929D01*
X133064325Y-112573051D01*
X133024551Y-112373092D01*
X132946530Y-112184734D01*
X132833262Y-112015216D01*
X132689099Y-111871053D01*
X132519581Y-111757785D01*
X132331223Y-111679764D01*
X132131264Y-111639990D01*
X131927386Y-111639990D01*
X131727427Y-111679764D01*
X131539069Y-111757785D01*
X131369551Y-111871053D01*
X131225388Y-112015216D01*
X131112120Y-112184734D01*
X131034099Y-112373092D01*
X130994325Y-112573051D01*
X130994325Y-112635189D01*
X130572498Y-113057016D01*
X130543500Y-113080814D01*
X130519702Y-113109812D01*
X130519701Y-113109813D01*
X130448526Y-113196539D01*
X130377954Y-113328569D01*
X130371574Y-113349603D01*
X130259018Y-113360688D01*
X130139320Y-113396998D01*
X130029006Y-113455963D01*
X129932315Y-113535315D01*
X129852963Y-113632006D01*
X129793998Y-113742320D01*
X129781750Y-113782696D01*
X129769502Y-113742320D01*
X129710537Y-113632006D01*
X129631185Y-113535315D01*
X129535000Y-113456378D01*
X129535000Y-113298061D01*
X129515555Y-113200301D01*
X129659774Y-113103937D01*
X129803937Y-112959774D01*
X129917205Y-112790256D01*
X129995226Y-112601898D01*
X130035000Y-112401939D01*
X130035000Y-112198061D01*
X129995226Y-111998102D01*
X129917205Y-111809744D01*
X129803937Y-111640226D01*
X129659774Y-111496063D01*
X129490256Y-111382795D01*
X129301898Y-111304774D01*
X129101939Y-111265000D01*
X128898061Y-111265000D01*
X128698102Y-111304774D01*
X128509744Y-111382795D01*
X128340226Y-111496063D01*
X128196063Y-111640226D01*
X128082795Y-111809744D01*
X128004774Y-111998102D01*
X127965000Y-112198061D01*
X127965000Y-112401939D01*
X127984445Y-112499699D01*
X127840226Y-112596063D01*
X127696063Y-112740226D01*
X127582795Y-112909744D01*
X127504774Y-113098102D01*
X127465000Y-113298061D01*
X127465000Y-113434853D01*
X127425506Y-113455963D01*
X127328815Y-113535315D01*
X127249463Y-113632006D01*
X127190498Y-113742320D01*
X127154188Y-113862018D01*
X127141928Y-113986500D01*
X127141928Y-115290000D01*
X122210000Y-115290000D01*
X122210000Y-110258363D01*
X122435000Y-110258363D01*
X122435000Y-110501637D01*
X122482460Y-110740236D01*
X122575557Y-110964992D01*
X122710713Y-111167267D01*
X122882733Y-111339287D01*
X123085008Y-111474443D01*
X123309764Y-111567540D01*
X123539894Y-111613315D01*
X123504774Y-111698102D01*
X123465000Y-111898061D01*
X123465000Y-112101939D01*
X123504774Y-112301898D01*
X123582795Y-112490256D01*
X123696063Y-112659774D01*
X123840226Y-112803937D01*
X124009744Y-112917205D01*
X124198102Y-112995226D01*
X124398061Y-113035000D01*
X124601939Y-113035000D01*
X124801898Y-112995226D01*
X124990256Y-112917205D01*
X125159774Y-112803937D01*
X125303937Y-112659774D01*
X125417205Y-112490256D01*
X125495226Y-112301898D01*
X125535000Y-112101939D01*
X125535000Y-111898061D01*
X125495226Y-111698102D01*
X125417205Y-111509744D01*
X125303937Y-111340226D01*
X125159774Y-111196063D01*
X124990256Y-111082795D01*
X124801898Y-111004774D01*
X124745374Y-110993531D01*
X124764443Y-110964992D01*
X124857540Y-110740236D01*
X124905000Y-110501637D01*
X124905000Y-110258363D01*
X124857540Y-110019764D01*
X124764443Y-109795008D01*
X124629287Y-109592733D01*
X124457267Y-109420713D01*
X124254992Y-109285557D01*
X124030236Y-109192460D01*
X123791637Y-109145000D01*
X123548363Y-109145000D01*
X123309764Y-109192460D01*
X123085008Y-109285557D01*
X122882733Y-109420713D01*
X122710713Y-109592733D01*
X122575557Y-109795008D01*
X122482460Y-110019764D01*
X122435000Y-110258363D01*
X122210000Y-110258363D01*
X122210000Y-105798061D01*
X125965000Y-105798061D01*
X125965000Y-106001939D01*
X126004774Y-106201898D01*
X126082795Y-106390256D01*
X126196063Y-106559774D01*
X126340226Y-106703937D01*
X126509744Y-106817205D01*
X126698102Y-106895226D01*
X126898061Y-106935000D01*
X127101939Y-106935000D01*
X127301898Y-106895226D01*
X127490256Y-106817205D01*
X127659774Y-106703937D01*
X127803937Y-106559774D01*
X127917205Y-106390256D01*
X127995226Y-106201898D01*
X128035000Y-106001939D01*
X128035000Y-105798061D01*
X127995226Y-105598102D01*
X127917205Y-105409744D01*
X127803937Y-105240226D01*
X127659774Y-105096063D01*
X127490256Y-104982795D01*
X127301898Y-104904774D01*
X127101939Y-104865000D01*
X126898061Y-104865000D01*
X126698102Y-104904774D01*
X126509744Y-104982795D01*
X126340226Y-105096063D01*
X126196063Y-105240226D01*
X126082795Y-105409744D01*
X126004774Y-105598102D01*
X125965000Y-105798061D01*
X122210000Y-105798061D01*
X122210000Y-104398061D01*
X122465000Y-104398061D01*
X122465000Y-104601939D01*
X122504774Y-104801898D01*
X122582795Y-104990256D01*
X122696063Y-105159774D01*
X122840226Y-105303937D01*
X123009744Y-105417205D01*
X123198102Y-105495226D01*
X123398061Y-105535000D01*
X123601939Y-105535000D01*
X123801898Y-105495226D01*
X123990256Y-105417205D01*
X124159774Y-105303937D01*
X124303937Y-105159774D01*
X124417205Y-104990256D01*
X124486464Y-104823051D01*
X130927261Y-104823051D01*
X130927261Y-105026929D01*
X130967035Y-105226888D01*
X131045056Y-105415246D01*
X131158324Y-105584764D01*
X131302487Y-105728927D01*
X131472005Y-105842195D01*
X131660363Y-105920216D01*
X131860322Y-105959990D01*
X132064200Y-105959990D01*
X132264159Y-105920216D01*
X132452517Y-105842195D01*
X132622035Y-105728927D01*
X132766198Y-105584764D01*
X132879466Y-105415246D01*
X132957487Y-105226888D01*
X132997261Y-105026929D01*
X132997261Y-104823051D01*
X132957487Y-104623092D01*
X132879466Y-104434734D01*
X132766198Y-104265216D01*
X132622035Y-104121053D01*
X132452517Y-104007785D01*
X132264159Y-103929764D01*
X132064200Y-103889990D01*
X131860322Y-103889990D01*
X131660363Y-103929764D01*
X131472005Y-104007785D01*
X131302487Y-104121053D01*
X131158324Y-104265216D01*
X131045056Y-104434734D01*
X130967035Y-104623092D01*
X130927261Y-104823051D01*
X124486464Y-104823051D01*
X124495226Y-104801898D01*
X124535000Y-104601939D01*
X124535000Y-104398061D01*
X124495226Y-104198102D01*
X124417205Y-104009744D01*
X124303937Y-103840226D01*
X124159774Y-103696063D01*
X123990256Y-103582795D01*
X123801898Y-103504774D01*
X123601939Y-103465000D01*
X123398061Y-103465000D01*
X123198102Y-103504774D01*
X123009744Y-103582795D01*
X122840226Y-103696063D01*
X122696063Y-103840226D01*
X122582795Y-104009744D01*
X122504774Y-104198102D01*
X122465000Y-104398061D01*
X122210000Y-104398061D01*
X122210000Y-102498061D01*
X130565000Y-102498061D01*
X130565000Y-102701939D01*
X130604774Y-102901898D01*
X130682795Y-103090256D01*
X130796063Y-103259774D01*
X130940226Y-103403937D01*
X131109744Y-103517205D01*
X131298102Y-103595226D01*
X131498061Y-103635000D01*
X131701939Y-103635000D01*
X131901898Y-103595226D01*
X132090256Y-103517205D01*
X132259774Y-103403937D01*
X132403937Y-103259774D01*
X132517205Y-103090256D01*
X132595226Y-102901898D01*
X132635000Y-102701939D01*
X132635000Y-102498061D01*
X132595226Y-102298102D01*
X132517205Y-102109744D01*
X132403937Y-101940226D01*
X132259774Y-101796063D01*
X132090256Y-101682795D01*
X131901898Y-101604774D01*
X131701939Y-101565000D01*
X131498061Y-101565000D01*
X131298102Y-101604774D01*
X131109744Y-101682795D01*
X130940226Y-101796063D01*
X130796063Y-101940226D01*
X130682795Y-102109744D01*
X130604774Y-102298102D01*
X130565000Y-102498061D01*
X122210000Y-102498061D01*
X122210000Y-101818267D01*
X122272905Y-101860299D01*
X122552257Y-101976011D01*
X122848816Y-102035000D01*
X123151184Y-102035000D01*
X123447743Y-101976011D01*
X123727095Y-101860299D01*
X123978505Y-101692312D01*
X124192312Y-101478505D01*
X124360299Y-101227095D01*
X124476011Y-100947743D01*
X124535000Y-100651184D01*
X124535000Y-100348816D01*
X124476011Y-100052257D01*
X124360299Y-99772905D01*
X124192312Y-99521495D01*
X124038937Y-99368120D01*
X124361000Y-99368120D01*
X124361000Y-99631880D01*
X124412457Y-99890572D01*
X124513393Y-100134254D01*
X124659931Y-100353563D01*
X124846437Y-100540069D01*
X125065746Y-100686607D01*
X125309428Y-100787543D01*
X125568120Y-100839000D01*
X125831880Y-100839000D01*
X126090572Y-100787543D01*
X126334254Y-100686607D01*
X126553563Y-100540069D01*
X126740069Y-100353563D01*
X126886607Y-100134254D01*
X126987543Y-99890572D01*
X127018488Y-99735000D01*
X127101939Y-99735000D01*
X127301898Y-99695226D01*
X127490256Y-99617205D01*
X127659774Y-99503937D01*
X127803937Y-99359774D01*
X127917205Y-99190256D01*
X127995226Y-99001898D01*
X128018608Y-98884350D01*
X128134754Y-98961956D01*
X128323112Y-99039977D01*
X128523071Y-99079751D01*
X128726949Y-99079751D01*
X128926908Y-99039977D01*
X129115266Y-98961956D01*
X129284784Y-98848688D01*
X129428947Y-98704525D01*
X129542215Y-98535007D01*
X129620236Y-98346649D01*
X129660010Y-98146690D01*
X129660010Y-97942812D01*
X129620236Y-97742853D01*
X129542215Y-97554495D01*
X129428947Y-97384977D01*
X129284784Y-97240814D01*
X129115266Y-97127546D01*
X128926908Y-97049525D01*
X128726949Y-97009751D01*
X128523071Y-97009751D01*
X128323112Y-97049525D01*
X128134754Y-97127546D01*
X127965236Y-97240814D01*
X127888914Y-97317136D01*
X127895226Y-97301898D01*
X127935000Y-97101939D01*
X127935000Y-96898061D01*
X127895226Y-96698102D01*
X127817205Y-96509744D01*
X127703937Y-96340226D01*
X127559774Y-96196063D01*
X127390256Y-96082795D01*
X127201898Y-96004774D01*
X127001939Y-95965000D01*
X126798061Y-95965000D01*
X126598102Y-96004774D01*
X126409744Y-96082795D01*
X126240226Y-96196063D01*
X126096063Y-96340226D01*
X125982795Y-96509744D01*
X125904774Y-96698102D01*
X125865000Y-96898061D01*
X125865000Y-97101939D01*
X125904774Y-97301898D01*
X125982795Y-97490256D01*
X126096063Y-97659774D01*
X126240226Y-97803937D01*
X126359164Y-97883409D01*
X126340226Y-97896063D01*
X126196063Y-98040226D01*
X126082795Y-98209744D01*
X126082349Y-98210821D01*
X125831880Y-98161000D01*
X125568120Y-98161000D01*
X125309428Y-98212457D01*
X125065746Y-98313393D01*
X124846437Y-98459931D01*
X124659931Y-98646437D01*
X124513393Y-98865746D01*
X124412457Y-99109428D01*
X124361000Y-99368120D01*
X124038937Y-99368120D01*
X123978505Y-99307688D01*
X123727095Y-99139701D01*
X123447743Y-99023989D01*
X123151184Y-98965000D01*
X122848816Y-98965000D01*
X122552257Y-99023989D01*
X122272905Y-99139701D01*
X122210000Y-99181733D01*
X122210000Y-94818267D01*
X122272905Y-94860299D01*
X122552257Y-94976011D01*
X122848816Y-95035000D01*
X123151184Y-95035000D01*
X123447743Y-94976011D01*
X123727095Y-94860299D01*
X123978505Y-94692312D01*
X124192312Y-94478505D01*
X124266068Y-94368120D01*
X124361000Y-94368120D01*
X124361000Y-94631880D01*
X124412457Y-94890572D01*
X124513393Y-95134254D01*
X124659931Y-95353563D01*
X124846437Y-95540069D01*
X125065746Y-95686607D01*
X125309428Y-95787543D01*
X125568120Y-95839000D01*
X125831880Y-95839000D01*
X126090572Y-95787543D01*
X126334254Y-95686607D01*
X126553563Y-95540069D01*
X126740069Y-95353563D01*
X126886607Y-95134254D01*
X126987543Y-94890572D01*
X127039000Y-94631880D01*
X127039000Y-94428740D01*
X134160000Y-94428740D01*
X134160000Y-94721260D01*
X134217068Y-95008158D01*
X134329010Y-95278411D01*
X134491525Y-95521632D01*
X134698368Y-95728475D01*
X134941589Y-95890990D01*
X135211842Y-96002932D01*
X135498740Y-96060000D01*
X135791260Y-96060000D01*
X136078158Y-96002932D01*
X136348411Y-95890990D01*
X136591632Y-95728475D01*
X136798475Y-95521632D01*
X136960990Y-95278411D01*
X137072932Y-95008158D01*
X137130000Y-94721260D01*
X137130000Y-94428740D01*
X137072932Y-94141842D01*
X137023700Y-94022986D01*
X137198102Y-94095226D01*
X137398061Y-94135000D01*
X137601939Y-94135000D01*
X137801898Y-94095226D01*
X137990256Y-94017205D01*
X138159774Y-93903937D01*
X138303937Y-93759774D01*
X138417205Y-93590256D01*
X138495226Y-93401898D01*
X138535000Y-93201939D01*
X138535000Y-92998061D01*
X138495226Y-92798102D01*
X138417205Y-92609744D01*
X138303937Y-92440226D01*
X138159774Y-92296063D01*
X137990256Y-92182795D01*
X137801898Y-92104774D01*
X137601939Y-92065000D01*
X137398061Y-92065000D01*
X137198102Y-92104774D01*
X137009744Y-92182795D01*
X136840226Y-92296063D01*
X136696063Y-92440226D01*
X136582795Y-92609744D01*
X136504774Y-92798102D01*
X136465000Y-92998061D01*
X136465000Y-93201939D01*
X136495963Y-93357601D01*
X136348411Y-93259010D01*
X136078158Y-93147068D01*
X135791260Y-93090000D01*
X135498740Y-93090000D01*
X135211842Y-93147068D01*
X134941589Y-93259010D01*
X134698368Y-93421525D01*
X134491525Y-93628368D01*
X134329010Y-93871589D01*
X134217068Y-94141842D01*
X134160000Y-94428740D01*
X127039000Y-94428740D01*
X127039000Y-94368120D01*
X126987543Y-94109428D01*
X126886607Y-93865746D01*
X126740069Y-93646437D01*
X126553563Y-93459931D01*
X126334254Y-93313393D01*
X126090572Y-93212457D01*
X125831880Y-93161000D01*
X125568120Y-93161000D01*
X125309428Y-93212457D01*
X125065746Y-93313393D01*
X124846437Y-93459931D01*
X124659931Y-93646437D01*
X124513393Y-93865746D01*
X124412457Y-94109428D01*
X124361000Y-94368120D01*
X124266068Y-94368120D01*
X124360299Y-94227095D01*
X124476011Y-93947743D01*
X124535000Y-93651184D01*
X124535000Y-93348816D01*
X124476011Y-93052257D01*
X124360299Y-92772905D01*
X124192312Y-92521495D01*
X123978505Y-92307688D01*
X123727095Y-92139701D01*
X123447743Y-92023989D01*
X123151184Y-91965000D01*
X122848816Y-91965000D01*
X122552257Y-92023989D01*
X122272905Y-92139701D01*
X122210000Y-92181733D01*
X122210000Y-88713500D01*
X127141928Y-88713500D01*
X127141928Y-90513500D01*
X127154188Y-90637982D01*
X127190498Y-90757680D01*
X127249463Y-90867994D01*
X127328815Y-90964685D01*
X127425506Y-91044037D01*
X127535820Y-91103002D01*
X127655518Y-91139312D01*
X127780000Y-91151572D01*
X129180000Y-91151572D01*
X129304482Y-91139312D01*
X129424180Y-91103002D01*
X129534494Y-91044037D01*
X129631185Y-90964685D01*
X129710537Y-90867994D01*
X129750000Y-90794165D01*
X129789463Y-90867994D01*
X129868815Y-90964685D01*
X129965506Y-91044037D01*
X130075820Y-91103002D01*
X130195518Y-91139312D01*
X130320000Y-91151572D01*
X130958462Y-91151572D01*
X130939994Y-91244420D01*
X130939994Y-91448298D01*
X130979768Y-91648257D01*
X131057789Y-91836615D01*
X131171057Y-92006133D01*
X131315220Y-92150296D01*
X131484738Y-92263564D01*
X131673096Y-92341585D01*
X131873055Y-92381359D01*
X132076933Y-92381359D01*
X132276892Y-92341585D01*
X132465250Y-92263564D01*
X132634768Y-92150296D01*
X132778931Y-92006133D01*
X132892199Y-91836615D01*
X132970220Y-91648257D01*
X133009994Y-91448298D01*
X133009994Y-91244420D01*
X132991526Y-91151572D01*
X134260000Y-91151572D01*
X134384482Y-91139312D01*
X134504180Y-91103002D01*
X134614494Y-91044037D01*
X134711185Y-90964685D01*
X134790537Y-90867994D01*
X134849502Y-90757680D01*
X134885812Y-90637982D01*
X134898072Y-90513500D01*
X134898072Y-89576729D01*
X135039802Y-89435000D01*
X135101939Y-89435000D01*
X135301898Y-89395226D01*
X135490256Y-89317205D01*
X135659774Y-89203937D01*
X135803937Y-89059774D01*
X135917205Y-88890256D01*
X135995226Y-88701898D01*
X136035000Y-88501939D01*
X136035000Y-88298061D01*
X135995226Y-88098102D01*
X135917205Y-87909744D01*
X135803937Y-87740226D01*
X135659774Y-87596063D01*
X135490256Y-87482795D01*
X135301898Y-87404774D01*
X135101939Y-87365000D01*
X134898061Y-87365000D01*
X134698102Y-87404774D01*
X134509744Y-87482795D01*
X134340226Y-87596063D01*
X134196063Y-87740226D01*
X134082795Y-87909744D01*
X134014166Y-88075428D01*
X132860000Y-88075428D01*
X132735518Y-88087688D01*
X132615820Y-88123998D01*
X132505506Y-88182963D01*
X132408815Y-88262315D01*
X132329463Y-88359006D01*
X132290000Y-88432835D01*
X132250537Y-88359006D01*
X132171185Y-88262315D01*
X132074494Y-88182963D01*
X131964180Y-88123998D01*
X131844482Y-88087688D01*
X131720000Y-88075428D01*
X130320000Y-88075428D01*
X130195518Y-88087688D01*
X130075820Y-88123998D01*
X129965506Y-88182963D01*
X129868815Y-88262315D01*
X129789463Y-88359006D01*
X129750000Y-88432835D01*
X129735708Y-88406097D01*
X129804865Y-88302596D01*
X129882886Y-88114238D01*
X129922660Y-87914279D01*
X129922660Y-87710401D01*
X129882886Y-87510442D01*
X129804865Y-87322084D01*
X129691597Y-87152566D01*
X129547434Y-87008403D01*
X129377916Y-86895135D01*
X129189558Y-86817114D01*
X128989599Y-86777340D01*
X128785721Y-86777340D01*
X128585762Y-86817114D01*
X128397404Y-86895135D01*
X128227886Y-87008403D01*
X128083723Y-87152566D01*
X127970455Y-87322084D01*
X127892434Y-87510442D01*
X127852660Y-87710401D01*
X127852660Y-87786422D01*
X127845026Y-87795724D01*
X127774454Y-87927754D01*
X127744966Y-88024968D01*
X127730998Y-88071014D01*
X127730079Y-88080345D01*
X127655518Y-88087688D01*
X127535820Y-88123998D01*
X127425506Y-88182963D01*
X127328815Y-88262315D01*
X127249463Y-88359006D01*
X127190498Y-88469320D01*
X127154188Y-88589018D01*
X127141928Y-88713500D01*
X122210000Y-88713500D01*
X122210000Y-86400524D01*
X125490000Y-86400524D01*
X125490000Y-86599476D01*
X125528814Y-86794606D01*
X125604950Y-86978414D01*
X125715482Y-87143837D01*
X125856163Y-87284518D01*
X126021586Y-87395050D01*
X126205394Y-87471186D01*
X126400524Y-87510000D01*
X126599476Y-87510000D01*
X126794606Y-87471186D01*
X126978414Y-87395050D01*
X127143837Y-87284518D01*
X127284518Y-87143837D01*
X127395050Y-86978414D01*
X127471186Y-86794606D01*
X127510000Y-86599476D01*
X127510000Y-86400524D01*
X127471186Y-86205394D01*
X127395050Y-86021586D01*
X127284518Y-85856163D01*
X127143837Y-85715482D01*
X126978414Y-85604950D01*
X126794606Y-85528814D01*
X126599476Y-85490000D01*
X126400524Y-85490000D01*
X126205394Y-85528814D01*
X126021586Y-85604950D01*
X125856163Y-85715482D01*
X125715482Y-85856163D01*
X125604950Y-86021586D01*
X125528814Y-86205394D01*
X125490000Y-86400524D01*
X122210000Y-86400524D01*
X122210000Y-84034876D01*
X122213435Y-84000000D01*
X122199727Y-83860816D01*
X122159128Y-83726980D01*
X122093200Y-83603637D01*
X122004475Y-83495525D01*
X121896363Y-83406800D01*
X121773020Y-83340872D01*
X121639184Y-83300273D01*
X121534877Y-83290000D01*
X121500000Y-83286565D01*
X121465123Y-83290000D01*
X120863072Y-83290000D01*
X120863072Y-82650000D01*
X120850812Y-82525518D01*
X120814502Y-82405820D01*
X120755537Y-82295506D01*
X120676185Y-82198815D01*
X120579494Y-82119463D01*
X120469180Y-82060498D01*
X120424854Y-82047052D01*
X120395226Y-81898102D01*
X120317205Y-81709744D01*
X120203937Y-81540226D01*
X120059774Y-81396063D01*
X119890256Y-81282795D01*
X119701898Y-81204774D01*
X119501939Y-81165000D01*
X119298061Y-81165000D01*
X119098102Y-81204774D01*
X118909744Y-81282795D01*
X118740226Y-81396063D01*
X118596063Y-81540226D01*
X118482795Y-81709744D01*
X118410000Y-81885485D01*
X118410000Y-69710000D01*
X118686928Y-69710000D01*
X118686928Y-70900000D01*
G37*
X118686928Y-70900000D02*
X118699188Y-71024482D01*
X118735498Y-71144180D01*
X118794463Y-71254494D01*
X118873815Y-71351185D01*
X118970506Y-71430537D01*
X119080820Y-71489502D01*
X119200518Y-71525812D01*
X119291420Y-71534765D01*
X119304774Y-71601898D01*
X119382795Y-71790256D01*
X119496063Y-71959774D01*
X119640226Y-72103937D01*
X119809744Y-72217205D01*
X119998102Y-72295226D01*
X120198061Y-72335000D01*
X120401939Y-72335000D01*
X120601898Y-72295226D01*
X120790256Y-72217205D01*
X120959774Y-72103937D01*
X121103937Y-71959774D01*
X121217205Y-71790256D01*
X121236928Y-71742641D01*
X121236928Y-72328053D01*
X121223815Y-72338815D01*
X121144463Y-72435506D01*
X121085498Y-72545820D01*
X121049188Y-72665518D01*
X121036928Y-72790000D01*
X121036928Y-73590000D01*
X121049188Y-73714482D01*
X121085498Y-73834180D01*
X121144463Y-73944494D01*
X121223815Y-74041185D01*
X121236928Y-74051947D01*
X121236928Y-74365000D01*
X121198061Y-74365000D01*
X120998102Y-74404774D01*
X120809744Y-74482795D01*
X120640226Y-74596063D01*
X120496063Y-74740226D01*
X120382795Y-74909744D01*
X120304774Y-75098102D01*
X120265000Y-75298061D01*
X120265000Y-75501939D01*
X120304774Y-75701898D01*
X120382795Y-75890256D01*
X120496063Y-76059774D01*
X120640226Y-76203937D01*
X120809744Y-76317205D01*
X120998102Y-76395226D01*
X121198061Y-76435000D01*
X121236928Y-76435000D01*
X121236928Y-76890000D01*
X121249188Y-77014482D01*
X121285498Y-77134180D01*
X121344463Y-77244494D01*
X121423815Y-77341185D01*
X121520506Y-77420537D01*
X121630820Y-77479502D01*
X121636928Y-77481355D01*
X121636928Y-77698645D01*
X121630820Y-77700498D01*
X121520506Y-77759463D01*
X121423815Y-77838815D01*
X121344463Y-77935506D01*
X121285498Y-78045820D01*
X121249188Y-78165518D01*
X121236928Y-78290000D01*
X121236928Y-79090000D01*
X121249188Y-79214482D01*
X121285498Y-79334180D01*
X121344463Y-79444494D01*
X121423815Y-79541185D01*
X121520506Y-79620537D01*
X121630820Y-79679502D01*
X121750518Y-79715812D01*
X121875000Y-79728072D01*
X123875000Y-79728072D01*
X123999482Y-79715812D01*
X124119180Y-79679502D01*
X124228370Y-79621138D01*
X124298061Y-79635000D01*
X124501939Y-79635000D01*
X124701898Y-79595226D01*
X124890256Y-79517205D01*
X125059774Y-79403937D01*
X125203937Y-79259774D01*
X125317205Y-79090256D01*
X125395226Y-78901898D01*
X125435000Y-78701939D01*
X125435000Y-78498061D01*
X125403823Y-78341322D01*
X125459774Y-78303937D01*
X125603937Y-78159774D01*
X125717205Y-77990256D01*
X125795226Y-77801898D01*
X125835000Y-77601939D01*
X125835000Y-77398061D01*
X125795226Y-77198102D01*
X125717205Y-77009744D01*
X125603937Y-76840226D01*
X125459774Y-76696063D01*
X125421381Y-76670409D01*
X125435000Y-76601939D01*
X125435000Y-76600000D01*
X132086928Y-76600000D01*
X132086928Y-78400000D01*
X132099188Y-78524482D01*
X132135498Y-78644180D01*
X132194463Y-78754494D01*
X132273815Y-78851185D01*
X132370506Y-78930537D01*
X132480820Y-78989502D01*
X132600518Y-79025812D01*
X132725000Y-79038072D01*
X134125000Y-79038072D01*
X134206216Y-79030073D01*
X134096063Y-79140226D01*
X133982795Y-79309744D01*
X133904774Y-79498102D01*
X133865000Y-79698061D01*
X133865000Y-79901939D01*
X133904774Y-80101898D01*
X133982795Y-80290256D01*
X134096063Y-80459774D01*
X134240226Y-80603937D01*
X134409744Y-80717205D01*
X134598102Y-80795226D01*
X134798061Y-80835000D01*
X135001939Y-80835000D01*
X135201898Y-80795226D01*
X135390256Y-80717205D01*
X135559774Y-80603937D01*
X135635603Y-80528108D01*
X135766875Y-80598274D01*
X135914243Y-80642977D01*
X136067500Y-80658072D01*
X136362500Y-80658072D01*
X136515757Y-80642977D01*
X136663125Y-80598274D01*
X136700000Y-80578564D01*
X136736875Y-80598274D01*
X136884243Y-80642977D01*
X137037500Y-80658072D01*
X137332500Y-80658072D01*
X137485757Y-80642977D01*
X137535520Y-80627882D01*
X137698102Y-80695226D01*
X137898061Y-80735000D01*
X138101939Y-80735000D01*
X138301898Y-80695226D01*
X138490256Y-80617205D01*
X138659774Y-80503937D01*
X138803937Y-80359774D01*
X138917205Y-80190256D01*
X138995226Y-80001898D01*
X139035000Y-79801939D01*
X139035000Y-79598061D01*
X138995226Y-79398102D01*
X138917205Y-79209744D01*
X138843877Y-79100000D01*
X138917205Y-78990256D01*
X138995226Y-78801898D01*
X139035000Y-78601939D01*
X139035000Y-78420000D01*
X175181928Y-78420000D01*
X175194188Y-78544482D01*
X175230498Y-78664180D01*
X175289463Y-78774494D01*
X175368815Y-78871185D01*
X175465506Y-78950537D01*
X175575820Y-79009502D01*
X175695518Y-79045812D01*
X175820000Y-79058072D01*
X175829250Y-79055000D01*
X175988000Y-78896250D01*
X175988000Y-78227000D01*
X175343750Y-78227000D01*
X175185000Y-78385750D01*
X175181928Y-78420000D01*
X139035000Y-78420000D01*
X139035000Y-78398061D01*
X138995226Y-78198102D01*
X138917205Y-78009744D01*
X138803937Y-77840226D01*
X138743711Y-77780000D01*
X175181928Y-77780000D01*
X175185000Y-77814250D01*
X175343750Y-77973000D01*
X175988000Y-77973000D01*
X175988000Y-77303750D01*
X175829250Y-77145000D01*
X175820000Y-77141928D01*
X175695518Y-77154188D01*
X175575820Y-77190498D01*
X175465506Y-77249463D01*
X175368815Y-77328815D01*
X175289463Y-77425506D01*
X175230498Y-77535820D01*
X175194188Y-77655518D01*
X175181928Y-77780000D01*
X138743711Y-77780000D01*
X138659774Y-77696063D01*
X138490256Y-77582795D01*
X138301898Y-77504774D01*
X138101939Y-77465000D01*
X137898061Y-77465000D01*
X137698102Y-77504774D01*
X137535520Y-77572118D01*
X137485757Y-77557023D01*
X137332500Y-77541928D01*
X137037500Y-77541928D01*
X136884243Y-77557023D01*
X136736875Y-77601726D01*
X136700000Y-77621436D01*
X136663125Y-77601726D01*
X136515757Y-77557023D01*
X136362500Y-77541928D01*
X136067500Y-77541928D01*
X135914243Y-77557023D01*
X135766875Y-77601726D01*
X135631060Y-77674321D01*
X135563075Y-77730115D01*
X135501898Y-77704774D01*
X135301939Y-77665000D01*
X135109801Y-77665000D01*
X135839802Y-76935000D01*
X135901939Y-76935000D01*
X136101898Y-76895226D01*
X136290256Y-76817205D01*
X136459774Y-76703937D01*
X136603937Y-76559774D01*
X136717205Y-76390256D01*
X136795226Y-76201898D01*
X136835000Y-76001939D01*
X136835000Y-75798061D01*
X136795226Y-75598102D01*
X136717205Y-75409744D01*
X136603937Y-75240226D01*
X136459774Y-75096063D01*
X136290256Y-74982795D01*
X136101898Y-74904774D01*
X135901939Y-74865000D01*
X135698061Y-74865000D01*
X135498102Y-74904774D01*
X135309744Y-74982795D01*
X135140226Y-75096063D01*
X134996063Y-75240226D01*
X134882795Y-75409744D01*
X134804774Y-75598102D01*
X134765000Y-75798061D01*
X134765000Y-75860198D01*
X134521369Y-76103829D01*
X134479494Y-76069463D01*
X134369180Y-76010498D01*
X134249482Y-75974188D01*
X134125000Y-75961928D01*
X132725000Y-75961928D01*
X132600518Y-75974188D01*
X132480820Y-76010498D01*
X132370506Y-76069463D01*
X132273815Y-76148815D01*
X132194463Y-76245506D01*
X132135498Y-76355820D01*
X132099188Y-76475518D01*
X132086928Y-76600000D01*
X125435000Y-76600000D01*
X125435000Y-76398061D01*
X125395226Y-76198102D01*
X125317205Y-76009744D01*
X125203937Y-75840226D01*
X125059774Y-75696063D01*
X124890256Y-75582795D01*
X124701898Y-75504774D01*
X124501939Y-75465000D01*
X124313072Y-75465000D01*
X124313072Y-75335000D01*
X124501939Y-75335000D01*
X124701898Y-75295226D01*
X124890256Y-75217205D01*
X125059774Y-75103937D01*
X125203937Y-74959774D01*
X125317205Y-74790256D01*
X125395226Y-74601898D01*
X125435000Y-74401939D01*
X125435000Y-74198061D01*
X125395226Y-73998102D01*
X125324920Y-73828370D01*
X125417205Y-73690256D01*
X125495226Y-73501898D01*
X125535000Y-73301939D01*
X125535000Y-73098061D01*
X125495226Y-72898102D01*
X125424920Y-72728370D01*
X125517205Y-72590256D01*
X125595226Y-72401898D01*
X125635000Y-72201939D01*
X125635000Y-71998061D01*
X125595226Y-71798102D01*
X125517205Y-71609744D01*
X125477285Y-71550000D01*
X125517205Y-71490256D01*
X125595226Y-71301898D01*
X125635000Y-71101939D01*
X125635000Y-70900000D01*
X132086928Y-70900000D01*
X132086928Y-72700000D01*
X132099188Y-72824482D01*
X132135498Y-72944180D01*
X132194463Y-73054494D01*
X132273815Y-73151185D01*
X132370506Y-73230537D01*
X132480820Y-73289502D01*
X132600518Y-73325812D01*
X132725000Y-73338072D01*
X134125000Y-73338072D01*
X134249482Y-73325812D01*
X134369180Y-73289502D01*
X134479494Y-73230537D01*
X134576185Y-73151185D01*
X134655537Y-73054494D01*
X134714502Y-72944180D01*
X134747621Y-72835000D01*
X134901939Y-72835000D01*
X135101898Y-72795226D01*
X135290256Y-72717205D01*
X135459774Y-72603937D01*
X135603937Y-72459774D01*
X135717205Y-72290256D01*
X135795226Y-72101898D01*
X135826729Y-71943519D01*
X135828547Y-71942766D01*
X135829243Y-71942977D01*
X135982500Y-71958072D01*
X136277500Y-71958072D01*
X136430757Y-71942977D01*
X136578125Y-71898274D01*
X136615000Y-71878564D01*
X136651875Y-71898274D01*
X136799243Y-71942977D01*
X136952500Y-71958072D01*
X137247500Y-71958072D01*
X137400757Y-71942977D01*
X137441861Y-71930508D01*
X137598102Y-71995226D01*
X137798061Y-72035000D01*
X138001939Y-72035000D01*
X138201898Y-71995226D01*
X138390256Y-71917205D01*
X138559774Y-71803937D01*
X138703937Y-71659774D01*
X138817205Y-71490256D01*
X138895226Y-71301898D01*
X138935000Y-71101939D01*
X138935000Y-70898061D01*
X138895226Y-70698102D01*
X138817205Y-70509744D01*
X138703937Y-70340226D01*
X138559774Y-70196063D01*
X138390256Y-70082795D01*
X138201898Y-70004774D01*
X138001939Y-69965000D01*
X137798061Y-69965000D01*
X137598102Y-70004774D01*
X137441861Y-70069492D01*
X137400757Y-70057023D01*
X137247500Y-70041928D01*
X136952500Y-70041928D01*
X136799243Y-70057023D01*
X136651875Y-70101726D01*
X136615000Y-70121436D01*
X136578125Y-70101726D01*
X136430757Y-70057023D01*
X136277500Y-70041928D01*
X135982500Y-70041928D01*
X135829243Y-70057023D01*
X135828547Y-70057234D01*
X135701898Y-70004774D01*
X135501939Y-69965000D01*
X135298061Y-69965000D01*
X135098102Y-70004774D01*
X134909744Y-70082795D01*
X134740226Y-70196063D01*
X134596063Y-70340226D01*
X134542163Y-70420894D01*
X134479494Y-70369463D01*
X134369180Y-70310498D01*
X134249482Y-70274188D01*
X134125000Y-70261928D01*
X132725000Y-70261928D01*
X132600518Y-70274188D01*
X132480820Y-70310498D01*
X132370506Y-70369463D01*
X132273815Y-70448815D01*
X132194463Y-70545506D01*
X132135498Y-70655820D01*
X132099188Y-70775518D01*
X132086928Y-70900000D01*
X125635000Y-70900000D01*
X125635000Y-70898061D01*
X125595226Y-70698102D01*
X125517205Y-70509744D01*
X125403937Y-70340226D01*
X125259774Y-70196063D01*
X125090256Y-70082795D01*
X124901898Y-70004774D01*
X124701939Y-69965000D01*
X124498061Y-69965000D01*
X124298102Y-70004774D01*
X124201804Y-70044662D01*
X124119180Y-70000498D01*
X123999482Y-69964188D01*
X123875000Y-69951928D01*
X121875000Y-69951928D01*
X121863072Y-69953103D01*
X121863072Y-69710000D01*
X168415198Y-69710000D01*
X168213270Y-69911928D01*
X167600000Y-69911928D01*
X167475518Y-69924188D01*
X167355820Y-69960498D01*
X167245506Y-70019463D01*
X167148815Y-70098815D01*
X167069463Y-70195506D01*
X167010498Y-70305820D01*
X166974188Y-70425518D01*
X166961928Y-70550000D01*
X166961928Y-72750000D01*
X166974188Y-72874482D01*
X167010498Y-72994180D01*
X167069463Y-73104494D01*
X167148815Y-73201185D01*
X167245506Y-73280537D01*
X167355820Y-73339502D01*
X167475518Y-73375812D01*
X167600000Y-73388072D01*
X168512678Y-73388072D01*
X168465000Y-73435750D01*
X168461928Y-73650000D01*
X168474188Y-73774482D01*
X168510498Y-73894180D01*
X168569463Y-74004494D01*
X168648815Y-74101185D01*
X168745506Y-74180537D01*
X168855820Y-74239502D01*
X168975518Y-74275812D01*
X169100000Y-74288072D01*
X169314250Y-74285000D01*
X169473000Y-74126250D01*
X169473000Y-73277000D01*
X169453000Y-73277000D01*
X169453000Y-73023000D01*
X169473000Y-73023000D01*
X169473000Y-72173750D01*
X169314250Y-72015000D01*
X169288072Y-72014625D01*
X169288072Y-71288072D01*
X169911928Y-71288072D01*
X169911928Y-72014625D01*
X169885750Y-72015000D01*
X169727000Y-72173750D01*
X169727000Y-73023000D01*
X169747000Y-73023000D01*
X169747000Y-73277000D01*
X169727000Y-73277000D01*
X169727000Y-74126250D01*
X169885750Y-74285000D01*
X170100000Y-74288072D01*
X170224482Y-74275812D01*
X170344180Y-74239502D01*
X170454494Y-74180537D01*
X170551185Y-74101185D01*
X170630537Y-74004494D01*
X170689502Y-73894180D01*
X170725812Y-73774482D01*
X170738072Y-73650000D01*
X170735000Y-73435750D01*
X170687322Y-73388072D01*
X171600000Y-73388072D01*
X171724482Y-73375812D01*
X171844180Y-73339502D01*
X171954494Y-73280537D01*
X172051185Y-73201185D01*
X172130537Y-73104494D01*
X172189502Y-72994180D01*
X172225812Y-72874482D01*
X172238072Y-72750000D01*
X172238072Y-72360000D01*
X172690690Y-72360000D01*
X172781163Y-72362220D01*
X172862127Y-72368193D01*
X172942696Y-72378130D01*
X173022681Y-72392009D01*
X173101870Y-72409792D01*
X173180129Y-72431448D01*
X173257225Y-72456918D01*
X173332944Y-72486126D01*
X173407178Y-72519032D01*
X173479685Y-72555529D01*
X173550312Y-72595538D01*
X173618903Y-72638973D01*
X173685276Y-72685718D01*
X173749282Y-72735669D01*
X173810746Y-72788689D01*
X173876295Y-72851096D01*
X174598351Y-73573153D01*
X174521586Y-73604950D01*
X174356163Y-73715482D01*
X174215482Y-73856163D01*
X174104950Y-74021586D01*
X174028814Y-74205394D01*
X173990000Y-74400524D01*
X173990000Y-74599476D01*
X174028814Y-74794606D01*
X174104950Y-74978414D01*
X174215482Y-75143837D01*
X174356163Y-75284518D01*
X174521586Y-75395050D01*
X174705394Y-75471186D01*
X174900524Y-75510000D01*
X175099476Y-75510000D01*
X175294606Y-75471186D01*
X175478414Y-75395050D01*
X175643837Y-75284518D01*
X175784518Y-75143837D01*
X175895050Y-74978414D01*
X175926847Y-74901649D01*
X177241928Y-76216730D01*
X177241928Y-76462500D01*
X177257023Y-76615757D01*
X177301726Y-76763125D01*
X177321436Y-76800000D01*
X177301726Y-76836875D01*
X177257023Y-76984243D01*
X177241928Y-77137500D01*
X177241928Y-77142857D01*
X177232500Y-77141928D01*
X176937500Y-77141928D01*
X176784243Y-77157023D01*
X176661316Y-77194312D01*
X176654180Y-77190498D01*
X176534482Y-77154188D01*
X176410000Y-77141928D01*
X176400750Y-77145000D01*
X176242000Y-77303750D01*
X176242000Y-77570237D01*
X176211726Y-77626875D01*
X176167023Y-77774243D01*
X176151928Y-77927500D01*
X176151928Y-78272500D01*
X176167023Y-78425757D01*
X176211726Y-78573125D01*
X176242000Y-78629763D01*
X176242000Y-78896250D01*
X176400750Y-79055000D01*
X176410000Y-79058072D01*
X176534482Y-79045812D01*
X176654180Y-79009502D01*
X176661316Y-79005688D01*
X176784243Y-79042977D01*
X176937500Y-79058072D01*
X177146462Y-79058072D01*
X177166014Y-79064003D01*
X177248368Y-79072114D01*
X177241928Y-79137500D01*
X177241928Y-79432500D01*
X177249016Y-79504464D01*
X177172500Y-79496928D01*
X176827500Y-79496928D01*
X176674243Y-79512023D01*
X176526875Y-79556726D01*
X176391060Y-79629321D01*
X176272017Y-79727017D01*
X176174321Y-79846060D01*
X176101726Y-79981875D01*
X176057023Y-80129243D01*
X176041928Y-80282500D01*
X176041928Y-80577500D01*
X176057023Y-80730757D01*
X176094312Y-80853684D01*
X176090498Y-80860820D01*
X176054188Y-80980518D01*
X176041928Y-81105000D01*
X176045000Y-81114250D01*
X176203750Y-81273000D01*
X176470237Y-81273000D01*
X176526875Y-81303274D01*
X176674243Y-81347977D01*
X176827500Y-81363072D01*
X177147000Y-81363072D01*
X177147000Y-81527000D01*
X177127000Y-81527000D01*
X177127000Y-81547000D01*
X176873000Y-81547000D01*
X176873000Y-81527000D01*
X176203750Y-81527000D01*
X176045000Y-81685750D01*
X176041928Y-81695000D01*
X176054188Y-81819482D01*
X176090498Y-81939180D01*
X176108575Y-81973000D01*
X147000000Y-81973000D01*
X146975224Y-81975440D01*
X146951399Y-81982667D01*
X146929443Y-81994403D01*
X146910197Y-82010197D01*
X146894403Y-82029443D01*
X146882667Y-82051399D01*
X146875440Y-82075224D01*
X146873000Y-82100000D01*
X146873000Y-90818663D01*
X145931302Y-91184944D01*
X145917814Y-91191249D01*
X145903818Y-91196303D01*
X145846047Y-91224797D01*
X144801196Y-91800492D01*
X144788667Y-91808521D01*
X144775456Y-91815385D01*
X144721962Y-91851269D01*
X143762428Y-92560094D01*
X143751070Y-92569710D01*
X143738883Y-92578261D01*
X143690605Y-92620905D01*
X142833246Y-93450408D01*
X142823255Y-93461447D01*
X142812311Y-93471530D01*
X142770096Y-93520185D01*
X142029977Y-94455792D01*
X142021536Y-94468052D01*
X142012019Y-94479497D01*
X141976625Y-94533285D01*
X141976610Y-94533307D01*
X141976607Y-94533314D01*
X141366732Y-95558582D01*
X141359985Y-95571854D01*
X141352068Y-95584453D01*
X141324087Y-95642474D01*
X140855165Y-96739402D01*
X140850234Y-96753447D01*
X140844051Y-96766985D01*
X140823989Y-96828197D01*
X140504262Y-97977508D01*
X140501233Y-97992077D01*
X140496893Y-98006319D01*
X140485104Y-98069646D01*
X140320190Y-99251147D01*
X140319114Y-99265994D01*
X140316697Y-99280678D01*
X140313386Y-99345009D01*
X140306181Y-100537941D01*
X140307078Y-100552797D01*
X140306624Y-100567676D01*
X140311851Y-100631879D01*
X140462483Y-101815285D01*
X140465337Y-101829893D01*
X140466855Y-101844700D01*
X140480526Y-101907648D01*
X140786348Y-103060737D01*
X140791106Y-103074832D01*
X140794571Y-103089316D01*
X140816448Y-103149902D01*
X141272087Y-104252414D01*
X141278670Y-104265760D01*
X141284018Y-104279654D01*
X141313716Y-104336815D01*
X141911166Y-105369381D01*
X141919458Y-105381743D01*
X141926595Y-105394803D01*
X141963591Y-105447534D01*
X142692357Y-106392015D01*
X142702213Y-106403174D01*
X142711013Y-106415173D01*
X142754658Y-106462548D01*
X143601934Y-107302346D01*
X143613176Y-107312100D01*
X143623489Y-107322834D01*
X143673017Y-107364020D01*
X144623921Y-108084385D01*
X144636361Y-108092571D01*
X144647996Y-108101841D01*
X144702502Y-108136094D01*
X144702536Y-108136116D01*
X144702548Y-108136122D01*
X145740358Y-108724388D01*
X145753764Y-108730853D01*
X145766531Y-108738508D01*
X145825106Y-108765259D01*
X145825124Y-108765268D01*
X145825129Y-108765270D01*
X146931633Y-109211114D01*
X146945774Y-109215748D01*
X146959442Y-109221648D01*
X147021060Y-109240423D01*
X148176814Y-109536011D01*
X148191445Y-109538735D01*
X148205774Y-109542775D01*
X148269334Y-109553235D01*
X149454029Y-109693370D01*
X149468886Y-109694135D01*
X149483629Y-109696245D01*
X149548012Y-109698207D01*
X149548014Y-109698207D01*
X150740835Y-109680427D01*
X150755672Y-109679219D01*
X150770554Y-109679361D01*
X150834634Y-109672791D01*
X152014625Y-109497409D01*
X152029170Y-109494250D01*
X152043942Y-109492422D01*
X152106590Y-109477435D01*
X153253021Y-109147533D01*
X153267014Y-109142480D01*
X153281422Y-109138713D01*
X153341510Y-109115581D01*
X153341536Y-109115572D01*
X153341543Y-109115568D01*
X154434266Y-108636943D01*
X154447473Y-108630081D01*
X154461250Y-108624444D01*
X154517776Y-108593556D01*
X155537603Y-107974613D01*
X155549786Y-107966065D01*
X155562697Y-107958655D01*
X155614641Y-107920562D01*
X156543652Y-107172177D01*
X156554596Y-107162094D01*
X156566416Y-107153040D01*
X156612841Y-107108435D01*
X156612866Y-107108412D01*
X156612873Y-107108404D01*
X157408333Y-106271511D01*
X157413608Y-106267347D01*
X157420704Y-106260424D01*
X157663157Y-106020595D01*
X157889511Y-105870841D01*
X158140644Y-105767903D01*
X158406991Y-105715704D01*
X158678404Y-105716232D01*
X158944540Y-105769468D01*
X159195273Y-105873384D01*
X159431504Y-106031000D01*
X159582580Y-106171383D01*
X159595844Y-106181487D01*
X159696570Y-106285046D01*
X159714855Y-106301449D01*
X159732005Y-106319042D01*
X159737571Y-106323972D01*
X160606763Y-107085722D01*
X160642238Y-107112778D01*
X160677376Y-107140162D01*
X160683559Y-107144291D01*
X161648090Y-107781030D01*
X161686905Y-107803018D01*
X161725439Y-107825383D01*
X161732125Y-107828634D01*
X162774148Y-108328580D01*
X162815566Y-108345088D01*
X162856800Y-108362026D01*
X162863866Y-108364340D01*
X163964100Y-108718242D01*
X164007437Y-108728992D01*
X164050525Y-108740160D01*
X164057840Y-108741494D01*
X164530580Y-108825114D01*
X164133508Y-109090429D01*
X163720429Y-109503508D01*
X163395875Y-109989238D01*
X163172318Y-110528952D01*
X163058350Y-111101909D01*
X163058350Y-111686091D01*
X163172318Y-112259048D01*
X163395875Y-112798762D01*
X163720429Y-113284492D01*
X164133508Y-113697571D01*
X164619238Y-114022125D01*
X165158952Y-114245682D01*
X165731909Y-114359650D01*
X166316091Y-114359650D01*
X166889048Y-114245682D01*
X167428762Y-114022125D01*
X167914492Y-113697571D01*
X168327571Y-113284492D01*
X168652125Y-112798762D01*
X168875682Y-112259048D01*
X168989650Y-111686091D01*
X168989650Y-111101909D01*
X168875682Y-110528952D01*
X168652125Y-109989238D01*
X168327571Y-109503508D01*
X167914492Y-109090429D01*
X167615640Y-108890743D01*
X167693661Y-108883135D01*
X167737687Y-108875792D01*
X167781684Y-108868927D01*
X167788927Y-108867246D01*
X168913357Y-108600011D01*
X168955969Y-108586764D01*
X168998638Y-108573988D01*
X169005571Y-108571344D01*
X169005585Y-108571340D01*
X169005597Y-108571334D01*
X170083344Y-108153974D01*
X170123770Y-108135063D01*
X170164303Y-108116618D01*
X170170827Y-108113051D01*
X171181971Y-107553279D01*
X171219422Y-107529079D01*
X171257113Y-107505281D01*
X171263092Y-107500862D01*
X171400663Y-107398061D01*
X174165000Y-107398061D01*
X174165000Y-107601939D01*
X174204774Y-107801898D01*
X174282795Y-107990256D01*
X174396063Y-108159774D01*
X174540226Y-108303937D01*
X174709744Y-108417205D01*
X174898102Y-108495226D01*
X175098061Y-108535000D01*
X175301939Y-108535000D01*
X175501898Y-108495226D01*
X175690256Y-108417205D01*
X175859774Y-108303937D01*
X175871836Y-108291875D01*
X175909744Y-108317205D01*
X176098102Y-108395226D01*
X176298061Y-108435000D01*
X176501939Y-108435000D01*
X176701898Y-108395226D01*
X176890256Y-108317205D01*
X177059774Y-108203937D01*
X177203937Y-108059774D01*
X177317205Y-107890256D01*
X177395226Y-107701898D01*
X177435000Y-107501939D01*
X177435000Y-107298061D01*
X177395226Y-107098102D01*
X177344075Y-106974613D01*
X177358072Y-106832500D01*
X177358072Y-106537500D01*
X177342977Y-106384243D01*
X177298274Y-106236875D01*
X177278564Y-106200000D01*
X177298274Y-106163125D01*
X177342977Y-106015757D01*
X177358072Y-105862500D01*
X177358072Y-105567500D01*
X177342977Y-105414243D01*
X177327882Y-105364480D01*
X177395226Y-105201898D01*
X177435000Y-105001939D01*
X177435000Y-104798061D01*
X177395226Y-104598102D01*
X177317205Y-104409744D01*
X177203937Y-104240226D01*
X177059774Y-104096063D01*
X176890256Y-103982795D01*
X176701898Y-103904774D01*
X176501939Y-103865000D01*
X176298061Y-103865000D01*
X176098102Y-103904774D01*
X175909744Y-103982795D01*
X175771630Y-104075080D01*
X175601898Y-104004774D01*
X175401939Y-103965000D01*
X175198061Y-103965000D01*
X174998102Y-104004774D01*
X174809744Y-104082795D01*
X174640226Y-104196063D01*
X174496063Y-104340226D01*
X174382795Y-104509744D01*
X174304774Y-104698102D01*
X174265000Y-104898061D01*
X174265000Y-105101939D01*
X174299359Y-105274677D01*
X174257023Y-105414243D01*
X174241928Y-105567500D01*
X174241928Y-105862500D01*
X174257023Y-106015757D01*
X174301726Y-106163125D01*
X174321436Y-106200000D01*
X174301726Y-106236875D01*
X174257023Y-106384243D01*
X174241928Y-106537500D01*
X174241928Y-106832500D01*
X174257023Y-106985757D01*
X174272118Y-107035520D01*
X174204774Y-107198102D01*
X174165000Y-107398061D01*
X171400663Y-107398061D01*
X172188911Y-106809040D01*
X172222773Y-106779946D01*
X172256842Y-106751289D01*
X172262159Y-106746106D01*
X172262167Y-106746099D01*
X172262174Y-106746091D01*
X173085530Y-105935030D01*
X173115152Y-105901584D01*
X173144995Y-105868593D01*
X173149566Y-105862729D01*
X173855235Y-104947422D01*
X173880019Y-104910303D01*
X173905133Y-104873530D01*
X173908866Y-104867099D01*
X174483786Y-103864489D01*
X174503284Y-103824389D01*
X174523195Y-103784509D01*
X174526020Y-103777631D01*
X174959550Y-102706273D01*
X174973443Y-102663843D01*
X174987739Y-102621684D01*
X174989605Y-102614487D01*
X175273724Y-101494204D01*
X175281719Y-101450342D01*
X175290173Y-101406572D01*
X175291044Y-101399188D01*
X175378081Y-100627000D01*
X178290000Y-100627000D01*
X178290001Y-137290000D01*
X167730971Y-137290000D01*
X167859774Y-137203937D01*
X168003937Y-137059774D01*
X168117205Y-136890256D01*
X168195226Y-136701898D01*
X168235000Y-136501939D01*
X168235000Y-136298061D01*
X168195226Y-136098102D01*
X168117205Y-135909744D01*
X168111045Y-135900524D01*
X173990000Y-135900524D01*
X173990000Y-136099476D01*
X174028814Y-136294606D01*
X174104950Y-136478414D01*
X174215482Y-136643837D01*
X174356163Y-136784518D01*
X174521586Y-136895050D01*
X174705394Y-136971186D01*
X174900524Y-137010000D01*
X175099476Y-137010000D01*
X175294606Y-136971186D01*
X175478414Y-136895050D01*
X175643837Y-136784518D01*
X175784518Y-136643837D01*
X175895050Y-136478414D01*
X175971186Y-136294606D01*
X176010000Y-136099476D01*
X176010000Y-135900524D01*
X175971186Y-135705394D01*
X175895050Y-135521586D01*
X175784518Y-135356163D01*
X175643837Y-135215482D01*
X175478414Y-135104950D01*
X175294606Y-135028814D01*
X175099476Y-134990000D01*
X174900524Y-134990000D01*
X174705394Y-135028814D01*
X174521586Y-135104950D01*
X174356163Y-135215482D01*
X174215482Y-135356163D01*
X174104950Y-135521586D01*
X174028814Y-135705394D01*
X173990000Y-135900524D01*
X168111045Y-135900524D01*
X168003937Y-135740226D01*
X167859774Y-135596063D01*
X167690256Y-135482795D01*
X167501898Y-135404774D01*
X167301939Y-135365000D01*
X167098061Y-135365000D01*
X166898102Y-135404774D01*
X166719432Y-135478782D01*
X166755000Y-135299969D01*
X166755000Y-135100031D01*
X166715994Y-134903935D01*
X166639481Y-134719217D01*
X166528402Y-134552975D01*
X166387025Y-134411598D01*
X166220783Y-134300519D01*
X166036065Y-134224006D01*
X165839969Y-134185000D01*
X165640031Y-134185000D01*
X165443935Y-134224006D01*
X165259217Y-134300519D01*
X165214210Y-134330591D01*
X165203937Y-134315216D01*
X165059774Y-134171053D01*
X164890256Y-134057785D01*
X164701898Y-133979764D01*
X164501939Y-133939990D01*
X164298061Y-133939990D01*
X164098102Y-133979764D01*
X163909744Y-134057785D01*
X163740226Y-134171053D01*
X163596063Y-134315216D01*
X163482795Y-134484734D01*
X163404774Y-134673092D01*
X163365000Y-134873051D01*
X163365000Y-135001289D01*
X163359774Y-134996063D01*
X163233112Y-134911430D01*
X163235000Y-134901939D01*
X163235000Y-134698061D01*
X163195226Y-134498102D01*
X163117205Y-134309744D01*
X163003937Y-134140226D01*
X162859774Y-133996063D01*
X162690256Y-133882795D01*
X162501898Y-133804774D01*
X162301939Y-133765000D01*
X162098061Y-133765000D01*
X161898102Y-133804774D01*
X161709744Y-133882795D01*
X161540226Y-133996063D01*
X161396063Y-134140226D01*
X161282795Y-134309744D01*
X161255003Y-134376838D01*
X161140783Y-134300519D01*
X160956065Y-134224006D01*
X160759969Y-134185000D01*
X160560031Y-134185000D01*
X160363935Y-134224006D01*
X160179217Y-134300519D01*
X160054801Y-134383651D01*
X160117205Y-134290256D01*
X160195226Y-134101898D01*
X160235000Y-133901939D01*
X160235000Y-133698061D01*
X160195226Y-133498102D01*
X160117205Y-133309744D01*
X160003937Y-133140226D01*
X159859774Y-132996063D01*
X159690256Y-132882795D01*
X159501898Y-132804774D01*
X159301939Y-132765000D01*
X159098061Y-132765000D01*
X158898102Y-132804774D01*
X158709744Y-132882795D01*
X158540226Y-132996063D01*
X158396063Y-133140226D01*
X158282795Y-133309744D01*
X158204774Y-133498102D01*
X158165000Y-133698061D01*
X158165000Y-133901939D01*
X158204774Y-134101898D01*
X158282795Y-134290256D01*
X158396063Y-134459774D01*
X158540226Y-134603937D01*
X158709744Y-134717205D01*
X158898102Y-134795226D01*
X159098061Y-134835000D01*
X159301939Y-134835000D01*
X159501898Y-134795226D01*
X159690256Y-134717205D01*
X159819619Y-134630768D01*
X159760519Y-134719217D01*
X159684006Y-134903935D01*
X159645000Y-135100031D01*
X159645000Y-135299969D01*
X159684006Y-135496065D01*
X159760519Y-135680783D01*
X159871598Y-135847025D01*
X160012975Y-135988402D01*
X160179217Y-136099481D01*
X160363935Y-136175994D01*
X160560031Y-136215000D01*
X160567598Y-136215000D01*
X160604774Y-136401898D01*
X160682795Y-136590256D01*
X160796063Y-136759774D01*
X160940226Y-136903937D01*
X161109744Y-137017205D01*
X161298102Y-137095226D01*
X161498061Y-137135000D01*
X161701939Y-137135000D01*
X161901898Y-137095226D01*
X162090256Y-137017205D01*
X162259774Y-136903937D01*
X162377160Y-136786551D01*
X162398102Y-136795226D01*
X162598061Y-136835000D01*
X162801939Y-136835000D01*
X162885838Y-136818312D01*
X162865000Y-136923071D01*
X162865000Y-137126949D01*
X162897433Y-137290000D01*
X150710000Y-137290000D01*
X150710000Y-135998061D01*
X156365000Y-135998061D01*
X156365000Y-136201939D01*
X156404774Y-136401898D01*
X156482795Y-136590256D01*
X156596063Y-136759774D01*
X156740226Y-136903937D01*
X156909744Y-137017205D01*
X157098102Y-137095226D01*
X157298061Y-137135000D01*
X157501939Y-137135000D01*
X157701898Y-137095226D01*
X157890256Y-137017205D01*
X158059774Y-136903937D01*
X158203937Y-136759774D01*
X158317205Y-136590256D01*
X158395226Y-136401898D01*
X158435000Y-136201939D01*
X158435000Y-135998061D01*
X158395226Y-135798102D01*
X158317205Y-135609744D01*
X158203937Y-135440226D01*
X158059774Y-135296063D01*
X157890256Y-135182795D01*
X157701898Y-135104774D01*
X157501939Y-135065000D01*
X157298061Y-135065000D01*
X157098102Y-135104774D01*
X156909744Y-135182795D01*
X156740226Y-135296063D01*
X156596063Y-135440226D01*
X156482795Y-135609744D01*
X156404774Y-135798102D01*
X156365000Y-135998061D01*
X150710000Y-135998061D01*
X150710000Y-134965123D01*
X150709513Y-134960182D01*
X150702523Y-134459576D01*
X150702449Y-134458337D01*
X150702484Y-134457097D01*
X150700685Y-134417490D01*
X150657478Y-133829117D01*
X152265000Y-133829117D01*
X152265000Y-134170883D01*
X152331675Y-134506081D01*
X152462463Y-134821831D01*
X152652337Y-135105998D01*
X152894002Y-135347663D01*
X153178169Y-135537537D01*
X153493919Y-135668325D01*
X153829117Y-135735000D01*
X154170883Y-135735000D01*
X154506081Y-135668325D01*
X154821831Y-135537537D01*
X155105998Y-135347663D01*
X155347663Y-135105998D01*
X155537537Y-134821831D01*
X155668325Y-134506081D01*
X155735000Y-134170883D01*
X155735000Y-133829117D01*
X155668325Y-133493919D01*
X155537537Y-133178169D01*
X155347663Y-132894002D01*
X155105998Y-132652337D01*
X154821831Y-132462463D01*
X154506081Y-132331675D01*
X154170883Y-132265000D01*
X153829117Y-132265000D01*
X153493919Y-132331675D01*
X153178169Y-132462463D01*
X152894002Y-132652337D01*
X152652337Y-132894002D01*
X152462463Y-133178169D01*
X152331675Y-133493919D01*
X152265000Y-133829117D01*
X150657478Y-133829117D01*
X150574438Y-132698326D01*
X150572971Y-132686020D01*
X150572192Y-132673645D01*
X150566811Y-132634363D01*
X150285270Y-130933716D01*
X150282694Y-130921596D01*
X150280797Y-130909342D01*
X150271878Y-130870709D01*
X149837363Y-129202578D01*
X149833695Y-129190727D01*
X149830698Y-129178708D01*
X149818331Y-129141095D01*
X149818315Y-129141043D01*
X149818307Y-129141024D01*
X149348652Y-127836504D01*
X152340000Y-127836504D01*
X152340000Y-128163496D01*
X152403793Y-128484204D01*
X152528927Y-128786305D01*
X152710594Y-129058188D01*
X152941812Y-129289406D01*
X153213695Y-129471073D01*
X153515796Y-129596207D01*
X153836504Y-129660000D01*
X154163496Y-129660000D01*
X154484204Y-129596207D01*
X154786305Y-129471073D01*
X155058188Y-129289406D01*
X155289406Y-129058188D01*
X155471073Y-128786305D01*
X155596207Y-128484204D01*
X155660000Y-128163496D01*
X155660000Y-127836504D01*
X155596207Y-127515796D01*
X155547440Y-127398061D01*
X157165000Y-127398061D01*
X157165000Y-127601939D01*
X157204774Y-127801898D01*
X157282795Y-127990256D01*
X157396063Y-128159774D01*
X157540226Y-128303937D01*
X157709744Y-128417205D01*
X157898102Y-128495226D01*
X158098061Y-128535000D01*
X158301939Y-128535000D01*
X158501898Y-128495226D01*
X158690256Y-128417205D01*
X158859774Y-128303937D01*
X159003937Y-128159774D01*
X159117205Y-127990256D01*
X159194999Y-127802445D01*
X159194999Y-129117676D01*
X159191323Y-129154999D01*
X159194999Y-129192321D01*
X159194999Y-129192331D01*
X159205996Y-129303984D01*
X159233283Y-129393938D01*
X159249453Y-129447245D01*
X159320025Y-129579275D01*
X159333921Y-129596207D01*
X159414998Y-129695000D01*
X159444002Y-129718803D01*
X159998931Y-130273733D01*
X159857150Y-130245531D01*
X159653272Y-130245531D01*
X159453313Y-130285305D01*
X159264955Y-130363326D01*
X159095437Y-130476594D01*
X158951274Y-130620757D01*
X158838006Y-130790275D01*
X158759985Y-130978633D01*
X158720211Y-131178592D01*
X158720211Y-131382470D01*
X158759985Y-131582429D01*
X158838006Y-131770787D01*
X158951274Y-131940305D01*
X159095437Y-132084468D01*
X159264955Y-132197736D01*
X159453313Y-132275757D01*
X159653272Y-132315531D01*
X159857150Y-132315531D01*
X160057109Y-132275757D01*
X160245467Y-132197736D01*
X160414985Y-132084468D01*
X160559148Y-131940305D01*
X160672416Y-131770787D01*
X160750437Y-131582429D01*
X160780578Y-131430899D01*
X160909744Y-131517205D01*
X161098102Y-131595226D01*
X161298061Y-131635000D01*
X161501939Y-131635000D01*
X161701898Y-131595226D01*
X161711419Y-131591282D01*
X161814824Y-131746039D01*
X161958987Y-131890202D01*
X162128505Y-132003470D01*
X162168609Y-132020082D01*
X162204774Y-132201898D01*
X162282795Y-132390256D01*
X162396063Y-132559774D01*
X162540226Y-132703937D01*
X162709744Y-132817205D01*
X162898102Y-132895226D01*
X163098061Y-132935000D01*
X163301939Y-132935000D01*
X163501898Y-132895226D01*
X163690256Y-132817205D01*
X163859774Y-132703937D01*
X164003937Y-132559774D01*
X164018465Y-132538031D01*
X163994557Y-132658227D01*
X163994557Y-132862105D01*
X164034331Y-133062064D01*
X164112352Y-133250422D01*
X164225620Y-133419940D01*
X164369783Y-133564103D01*
X164539301Y-133677371D01*
X164727659Y-133755392D01*
X164927618Y-133795166D01*
X165131496Y-133795166D01*
X165331455Y-133755392D01*
X165519813Y-133677371D01*
X165689331Y-133564103D01*
X165833494Y-133419940D01*
X165946762Y-133250422D01*
X166024783Y-133062064D01*
X166064557Y-132862105D01*
X166064557Y-132658227D01*
X166052590Y-132598061D01*
X168065000Y-132598061D01*
X168065000Y-132801939D01*
X168104774Y-133001898D01*
X168182795Y-133190256D01*
X168296063Y-133359774D01*
X168440226Y-133503937D01*
X168609744Y-133617205D01*
X168798102Y-133695226D01*
X168998061Y-133735000D01*
X169201939Y-133735000D01*
X169401898Y-133695226D01*
X169590256Y-133617205D01*
X169759774Y-133503937D01*
X169903937Y-133359774D01*
X170017205Y-133190256D01*
X170095226Y-133001898D01*
X170135000Y-132801939D01*
X170135000Y-132598061D01*
X170095226Y-132398102D01*
X170017205Y-132209744D01*
X169903937Y-132040226D01*
X169759774Y-131896063D01*
X169590256Y-131782795D01*
X169401898Y-131704774D01*
X169201939Y-131665000D01*
X168998061Y-131665000D01*
X168798102Y-131704774D01*
X168609744Y-131782795D01*
X168440226Y-131896063D01*
X168296063Y-132040226D01*
X168182795Y-132209744D01*
X168104774Y-132398102D01*
X168065000Y-132598061D01*
X166052590Y-132598061D01*
X166024783Y-132458268D01*
X166011295Y-132425705D01*
X166118497Y-132265266D01*
X166196518Y-132076908D01*
X166236292Y-131876949D01*
X166236292Y-131673071D01*
X166196518Y-131473112D01*
X166118497Y-131284754D01*
X166005229Y-131115236D01*
X165861066Y-130971073D01*
X165691548Y-130857805D01*
X165503190Y-130779784D01*
X165303231Y-130740010D01*
X165099353Y-130740010D01*
X164899394Y-130779784D01*
X164711036Y-130857805D01*
X164541518Y-130971073D01*
X164397355Y-131115236D01*
X164284087Y-131284754D01*
X164206066Y-131473112D01*
X164185753Y-131575233D01*
X164117205Y-131409744D01*
X164003937Y-131240226D01*
X163859774Y-131096063D01*
X163690256Y-130982795D01*
X163650152Y-130966183D01*
X163613987Y-130784367D01*
X163535966Y-130596009D01*
X163422698Y-130426491D01*
X163278535Y-130282328D01*
X163109017Y-130169060D01*
X162920659Y-130091039D01*
X162720700Y-130051265D01*
X162516822Y-130051265D01*
X162316863Y-130091039D01*
X162307342Y-130094983D01*
X162203937Y-129940226D01*
X162059774Y-129796063D01*
X161890256Y-129682795D01*
X161701898Y-129604774D01*
X161501939Y-129565000D01*
X161439802Y-129565000D01*
X160714999Y-128840198D01*
X160714999Y-128515000D01*
X160759969Y-128515000D01*
X160956065Y-128475994D01*
X161140783Y-128399481D01*
X161307025Y-128288402D01*
X161448402Y-128147025D01*
X161559481Y-127980783D01*
X161635994Y-127796065D01*
X161675000Y-127599969D01*
X161675000Y-127498061D01*
X162865000Y-127498061D01*
X162865000Y-127701939D01*
X162904774Y-127901898D01*
X162982795Y-128090256D01*
X163096063Y-128259774D01*
X163240226Y-128403937D01*
X163409744Y-128517205D01*
X163598102Y-128595226D01*
X163798061Y-128635000D01*
X164001939Y-128635000D01*
X164201898Y-128595226D01*
X164390256Y-128517205D01*
X164559774Y-128403937D01*
X164703937Y-128259774D01*
X164817205Y-128090256D01*
X164854119Y-128001137D01*
X164951598Y-128147025D01*
X165092975Y-128288402D01*
X165259217Y-128399481D01*
X165443935Y-128475994D01*
X165640031Y-128515000D01*
X165839969Y-128515000D01*
X166036065Y-128475994D01*
X166220783Y-128399481D01*
X166387025Y-128288402D01*
X166528402Y-128147025D01*
X166639481Y-127980783D01*
X166715994Y-127796065D01*
X166755000Y-127599969D01*
X166755000Y-127400031D01*
X166715994Y-127203935D01*
X166639481Y-127019217D01*
X166528402Y-126852975D01*
X166387025Y-126711598D01*
X166220783Y-126600519D01*
X166036065Y-126524006D01*
X165839969Y-126485000D01*
X165640031Y-126485000D01*
X165443935Y-126524006D01*
X165259217Y-126600519D01*
X165092975Y-126711598D01*
X164951598Y-126852975D01*
X164840519Y-127019217D01*
X164808449Y-127096640D01*
X164703937Y-126940226D01*
X164559774Y-126796063D01*
X164390256Y-126682795D01*
X164201898Y-126604774D01*
X164001939Y-126565000D01*
X163798061Y-126565000D01*
X163598102Y-126604774D01*
X163409744Y-126682795D01*
X163240226Y-126796063D01*
X163096063Y-126940226D01*
X162982795Y-127109744D01*
X162904774Y-127298102D01*
X162865000Y-127498061D01*
X161675000Y-127498061D01*
X161675000Y-127400031D01*
X161635994Y-127203935D01*
X161559481Y-127019217D01*
X161448402Y-126852975D01*
X161307025Y-126711598D01*
X161140783Y-126600519D01*
X160956065Y-126524006D01*
X160759969Y-126485000D01*
X160714999Y-126485000D01*
X160714999Y-126198061D01*
X166465000Y-126198061D01*
X166465000Y-126401939D01*
X166504774Y-126601898D01*
X166582795Y-126790256D01*
X166696063Y-126959774D01*
X166840226Y-127103937D01*
X167009744Y-127217205D01*
X167198102Y-127295226D01*
X167398061Y-127335000D01*
X167601939Y-127335000D01*
X167801898Y-127295226D01*
X167990256Y-127217205D01*
X168159774Y-127103937D01*
X168303937Y-126959774D01*
X168417205Y-126790256D01*
X168495226Y-126601898D01*
X168535000Y-126401939D01*
X168535000Y-126198061D01*
X168495226Y-125998102D01*
X168417205Y-125809744D01*
X168303937Y-125640226D01*
X168159774Y-125496063D01*
X167990256Y-125382795D01*
X167801898Y-125304774D01*
X167601939Y-125265000D01*
X167398061Y-125265000D01*
X167198102Y-125304774D01*
X167009744Y-125382795D01*
X166840226Y-125496063D01*
X166696063Y-125640226D01*
X166582795Y-125809744D01*
X166504774Y-125998102D01*
X166465000Y-126198061D01*
X160714999Y-126198061D01*
X160714999Y-125019382D01*
X160898102Y-125095226D01*
X161098061Y-125135000D01*
X161301939Y-125135000D01*
X161501898Y-125095226D01*
X161690256Y-125017205D01*
X161859774Y-124903937D01*
X162003937Y-124759774D01*
X162117205Y-124590256D01*
X162119941Y-124583652D01*
X162252879Y-124716590D01*
X162422397Y-124829858D01*
X162610755Y-124907879D01*
X162810714Y-124947653D01*
X163014592Y-124947653D01*
X163214551Y-124907879D01*
X163376914Y-124840625D01*
X163440226Y-124903937D01*
X163609744Y-125017205D01*
X163798102Y-125095226D01*
X163998061Y-125135000D01*
X164201939Y-125135000D01*
X164401898Y-125095226D01*
X164571630Y-125024920D01*
X164709744Y-125117205D01*
X164898102Y-125195226D01*
X165098061Y-125235000D01*
X165301939Y-125235000D01*
X165501898Y-125195226D01*
X165690256Y-125117205D01*
X165859774Y-125003937D01*
X166003937Y-124859774D01*
X166117205Y-124690256D01*
X166195226Y-124501898D01*
X166235000Y-124301939D01*
X166235000Y-124098061D01*
X166195226Y-123898102D01*
X166117205Y-123709744D01*
X166003937Y-123540226D01*
X165859774Y-123396063D01*
X165690256Y-123282795D01*
X165501898Y-123204774D01*
X165301939Y-123165000D01*
X165098061Y-123165000D01*
X164898102Y-123204774D01*
X164728370Y-123275080D01*
X164590256Y-123182795D01*
X164401898Y-123104774D01*
X164201939Y-123065000D01*
X163998061Y-123065000D01*
X163798102Y-123104774D01*
X163635739Y-123172028D01*
X163572427Y-123108716D01*
X163402909Y-122995448D01*
X163214551Y-122917427D01*
X163014592Y-122877653D01*
X162810714Y-122877653D01*
X162610755Y-122917427D01*
X162422397Y-122995448D01*
X162252879Y-123108716D01*
X162108716Y-123252879D01*
X161995448Y-123422397D01*
X161992712Y-123429001D01*
X161859774Y-123296063D01*
X161690256Y-123182795D01*
X161501898Y-123104774D01*
X161301939Y-123065000D01*
X161098061Y-123065000D01*
X161088570Y-123066888D01*
X161003937Y-122940226D01*
X160859774Y-122796063D01*
X160690256Y-122682795D01*
X160501898Y-122604774D01*
X160301939Y-122565000D01*
X160098061Y-122565000D01*
X159898102Y-122604774D01*
X159709744Y-122682795D01*
X159540226Y-122796063D01*
X159396063Y-122940226D01*
X159282795Y-123109744D01*
X159204774Y-123298102D01*
X159165000Y-123498061D01*
X159165000Y-123701939D01*
X159192030Y-123837827D01*
X159191323Y-123845001D01*
X159195000Y-123882333D01*
X159194999Y-127197555D01*
X159117205Y-127009744D01*
X159003937Y-126840226D01*
X158859774Y-126696063D01*
X158690256Y-126582795D01*
X158501898Y-126504774D01*
X158301939Y-126465000D01*
X158098061Y-126465000D01*
X157898102Y-126504774D01*
X157709744Y-126582795D01*
X157540226Y-126696063D01*
X157396063Y-126840226D01*
X157282795Y-127009744D01*
X157204774Y-127198102D01*
X157165000Y-127398061D01*
X155547440Y-127398061D01*
X155471073Y-127213695D01*
X155289406Y-126941812D01*
X155058188Y-126710594D01*
X154786305Y-126528927D01*
X154484204Y-126403793D01*
X154163496Y-126340000D01*
X153836504Y-126340000D01*
X153515796Y-126403793D01*
X153213695Y-126528927D01*
X152941812Y-126710594D01*
X152710594Y-126941812D01*
X152528927Y-127213695D01*
X152403793Y-127515796D01*
X152340000Y-127836504D01*
X149348652Y-127836504D01*
X149234400Y-127519159D01*
X149229679Y-127507706D01*
X149225600Y-127495991D01*
X149209874Y-127459653D01*
X149209854Y-127459604D01*
X149209845Y-127459586D01*
X148481347Y-125897316D01*
X148475599Y-125886320D01*
X148470482Y-125875041D01*
X148451503Y-125840230D01*
X147584400Y-124350400D01*
X147577687Y-124339983D01*
X147571562Y-124329201D01*
X147549506Y-124296254D01*
X146550945Y-122891142D01*
X146543306Y-122881364D01*
X146536238Y-122871195D01*
X146511287Y-122840382D01*
X145389487Y-121531555D01*
X145380997Y-121522514D01*
X145373033Y-121513023D01*
X145345391Y-121484599D01*
X144330912Y-120498061D01*
X145765000Y-120498061D01*
X145765000Y-120701939D01*
X145804774Y-120901898D01*
X145882795Y-121090256D01*
X145996063Y-121259774D01*
X146140226Y-121403937D01*
X146309744Y-121517205D01*
X146472483Y-121584614D01*
X146485005Y-121625894D01*
X146557600Y-121761709D01*
X146655296Y-121880752D01*
X146899248Y-122124704D01*
X147018291Y-122222400D01*
X147154106Y-122294995D01*
X147262212Y-122327788D01*
X147295005Y-122435894D01*
X147367600Y-122571709D01*
X147465296Y-122690752D01*
X147709248Y-122934704D01*
X147828291Y-123032400D01*
X147964106Y-123104995D01*
X148046844Y-123130093D01*
X148085005Y-123255894D01*
X148157600Y-123391709D01*
X148255296Y-123510752D01*
X148499248Y-123754704D01*
X148591052Y-123830046D01*
X148664848Y-124008203D01*
X148778116Y-124177721D01*
X148922279Y-124321884D01*
X149091797Y-124435152D01*
X149280155Y-124513173D01*
X149480114Y-124552947D01*
X149683992Y-124552947D01*
X149883951Y-124513173D01*
X150072309Y-124435152D01*
X150241827Y-124321884D01*
X150385990Y-124177721D01*
X150414535Y-124135000D01*
X150601939Y-124135000D01*
X150801898Y-124095226D01*
X150990256Y-124017205D01*
X151159774Y-123903937D01*
X151303937Y-123759774D01*
X151417205Y-123590256D01*
X151495226Y-123401898D01*
X151535000Y-123201939D01*
X151535000Y-122998061D01*
X151495226Y-122798102D01*
X151417205Y-122609744D01*
X151303937Y-122440226D01*
X151159774Y-122296063D01*
X150990256Y-122182795D01*
X150801898Y-122104774D01*
X150699344Y-122084375D01*
X150674995Y-122004106D01*
X150602400Y-121868291D01*
X150504704Y-121749248D01*
X150260752Y-121505296D01*
X150141709Y-121407600D01*
X150005894Y-121335005D01*
X149923156Y-121309907D01*
X149884995Y-121184106D01*
X149812400Y-121048291D01*
X149714704Y-120929248D01*
X149470752Y-120685296D01*
X149351709Y-120587600D01*
X149215894Y-120515005D01*
X149107788Y-120482212D01*
X149074995Y-120374106D01*
X149002400Y-120238291D01*
X148904704Y-120119248D01*
X148660752Y-119875296D01*
X148606375Y-119830670D01*
X148606375Y-119826686D01*
X148566601Y-119626727D01*
X148488580Y-119438369D01*
X148375312Y-119268851D01*
X148231149Y-119124688D01*
X148061631Y-119011420D01*
X147873273Y-118933399D01*
X147673314Y-118893625D01*
X147469436Y-118893625D01*
X147269477Y-118933399D01*
X147081119Y-119011420D01*
X146911601Y-119124688D01*
X146767438Y-119268851D01*
X146654170Y-119438369D01*
X146593067Y-119585885D01*
X146498102Y-119604774D01*
X146309744Y-119682795D01*
X146140226Y-119796063D01*
X145996063Y-119940226D01*
X145882795Y-120109744D01*
X145804774Y-120298102D01*
X145765000Y-120498061D01*
X144330912Y-120498061D01*
X144109585Y-120282830D01*
X144100321Y-120274605D01*
X144091519Y-120265864D01*
X144061444Y-120240087D01*
X144061416Y-120240062D01*
X144061405Y-120240054D01*
X142721776Y-119155244D01*
X142711799Y-119147889D01*
X142702248Y-119139987D01*
X142669929Y-119117019D01*
X141237483Y-118158080D01*
X141226875Y-118151656D01*
X141216651Y-118144655D01*
X141182384Y-118124711D01*
X139668923Y-117299545D01*
X139657787Y-117294113D01*
X139646961Y-117288063D01*
X139611027Y-117271307D01*
X138029007Y-116586706D01*
X138017417Y-116582303D01*
X138006094Y-116577262D01*
X137968790Y-116563832D01*
X136331235Y-116025431D01*
X136319302Y-116022099D01*
X136307561Y-116018102D01*
X136269207Y-116008112D01*
X136269193Y-116008108D01*
X136269188Y-116008107D01*
X135792527Y-115898061D01*
X143965000Y-115898061D01*
X143965000Y-116101939D01*
X144004774Y-116301898D01*
X144082795Y-116490256D01*
X144196063Y-116659774D01*
X144340226Y-116803937D01*
X144509744Y-116917205D01*
X144698102Y-116995226D01*
X144898061Y-117035000D01*
X145101939Y-117035000D01*
X145301898Y-116995226D01*
X145490256Y-116917205D01*
X145659774Y-116803937D01*
X145803937Y-116659774D01*
X145917205Y-116490256D01*
X145995226Y-116301898D01*
X146035000Y-116101939D01*
X146035000Y-115898061D01*
X145995226Y-115698102D01*
X145917205Y-115509744D01*
X145803937Y-115340226D01*
X145659774Y-115196063D01*
X145490256Y-115082795D01*
X145311881Y-115008909D01*
X151712350Y-115008909D01*
X151712350Y-115593091D01*
X151826318Y-116166048D01*
X152049875Y-116705762D01*
X152374429Y-117191492D01*
X152787508Y-117604571D01*
X153273238Y-117929125D01*
X153812952Y-118152682D01*
X154385909Y-118266650D01*
X154970091Y-118266650D01*
X155543048Y-118152682D01*
X156082762Y-117929125D01*
X156568492Y-117604571D01*
X156981571Y-117191492D01*
X157306125Y-116705762D01*
X157453200Y-116350690D01*
X167150640Y-116350690D01*
X167150640Y-116554568D01*
X167190414Y-116754527D01*
X167268435Y-116942885D01*
X167381703Y-117112403D01*
X167525866Y-117256566D01*
X167695384Y-117369834D01*
X167883742Y-117447855D01*
X168083701Y-117487629D01*
X168145838Y-117487629D01*
X168379212Y-117721002D01*
X168403010Y-117750001D01*
X168518735Y-117844974D01*
X168650764Y-117915546D01*
X168794025Y-117959003D01*
X168905678Y-117970000D01*
X168905687Y-117970000D01*
X168943010Y-117973676D01*
X168980333Y-117970000D01*
X169809556Y-117970000D01*
X169895506Y-118040537D01*
X170005820Y-118099502D01*
X170125518Y-118135812D01*
X170250000Y-118148072D01*
X171750000Y-118148072D01*
X171874482Y-118135812D01*
X171994180Y-118099502D01*
X172104494Y-118040537D01*
X172201185Y-117961185D01*
X172280537Y-117864494D01*
X172339502Y-117754180D01*
X172375812Y-117634482D01*
X172388072Y-117510000D01*
X172388072Y-116910000D01*
X172375812Y-116785518D01*
X172339502Y-116665820D01*
X172290957Y-116575000D01*
X172339502Y-116484180D01*
X172375812Y-116364482D01*
X172388072Y-116240000D01*
X172388072Y-115640000D01*
X172375812Y-115515518D01*
X172339502Y-115395820D01*
X172290957Y-115305000D01*
X172339502Y-115214180D01*
X172375812Y-115094482D01*
X172388072Y-114970000D01*
X172388072Y-114370000D01*
X172375812Y-114245518D01*
X172339502Y-114125820D01*
X172290957Y-114035000D01*
X172339502Y-113944180D01*
X172375812Y-113824482D01*
X172388072Y-113700000D01*
X172388072Y-113100000D01*
X172387101Y-113090138D01*
X172576888Y-113052387D01*
X172765246Y-112974366D01*
X172934764Y-112861098D01*
X173078927Y-112716935D01*
X173192195Y-112547417D01*
X173270216Y-112359059D01*
X173309990Y-112159100D01*
X173309990Y-111955222D01*
X173270216Y-111755263D01*
X173192195Y-111566905D01*
X173179092Y-111547296D01*
X173217205Y-111490256D01*
X173295226Y-111301898D01*
X173335000Y-111101939D01*
X173335000Y-110898061D01*
X173295226Y-110698102D01*
X173217205Y-110509744D01*
X173103937Y-110340226D01*
X173063711Y-110300000D01*
X173103937Y-110259774D01*
X173217205Y-110090256D01*
X173295226Y-109901898D01*
X173335000Y-109701939D01*
X173335000Y-109498061D01*
X174065000Y-109498061D01*
X174065000Y-109701939D01*
X174104774Y-109901898D01*
X174182795Y-110090256D01*
X174289532Y-110250000D01*
X174182795Y-110409744D01*
X174104774Y-110598102D01*
X174065000Y-110798061D01*
X174065000Y-111001939D01*
X174104774Y-111201898D01*
X174182795Y-111390256D01*
X174296063Y-111559774D01*
X174308125Y-111571836D01*
X174282795Y-111609744D01*
X174204774Y-111798102D01*
X174165000Y-111998061D01*
X174165000Y-112201939D01*
X174204774Y-112401898D01*
X174282795Y-112590256D01*
X174348179Y-112688110D01*
X174296063Y-112740226D01*
X174182795Y-112909744D01*
X174104774Y-113098102D01*
X174065000Y-113298061D01*
X174065000Y-113501939D01*
X174104774Y-113701898D01*
X174182795Y-113890256D01*
X174296063Y-114059774D01*
X174348179Y-114111890D01*
X174282795Y-114209744D01*
X174204774Y-114398102D01*
X174165000Y-114598061D01*
X174165000Y-114801939D01*
X174204774Y-115001898D01*
X174282795Y-115190256D01*
X174396063Y-115359774D01*
X174540226Y-115503937D01*
X174709744Y-115617205D01*
X174898102Y-115695226D01*
X175011928Y-115717867D01*
X175011928Y-116240000D01*
X175024188Y-116364482D01*
X175060498Y-116484180D01*
X175109043Y-116575000D01*
X175060498Y-116665820D01*
X175024188Y-116785518D01*
X175011928Y-116910000D01*
X175011928Y-117510000D01*
X175024188Y-117634482D01*
X175060498Y-117754180D01*
X175119463Y-117864494D01*
X175198815Y-117961185D01*
X175295506Y-118040537D01*
X175405820Y-118099502D01*
X175525518Y-118135812D01*
X175650000Y-118148072D01*
X175940001Y-118148072D01*
X175940000Y-118739812D01*
X175908940Y-118714321D01*
X175773125Y-118641726D01*
X175625757Y-118597023D01*
X175472500Y-118581928D01*
X175127500Y-118581928D01*
X174974243Y-118597023D01*
X174826875Y-118641726D01*
X174691060Y-118714321D01*
X174572017Y-118812017D01*
X174474321Y-118931060D01*
X174401726Y-119066875D01*
X174357023Y-119214243D01*
X174341928Y-119367500D01*
X174341928Y-119662500D01*
X174357023Y-119815757D01*
X174401726Y-119963125D01*
X174421436Y-120000000D01*
X174401726Y-120036875D01*
X174357023Y-120184243D01*
X174341928Y-120337500D01*
X174341928Y-120632500D01*
X174357023Y-120785757D01*
X174401726Y-120933125D01*
X174441944Y-121008367D01*
X174404774Y-121098102D01*
X174365000Y-121298061D01*
X174365000Y-121501939D01*
X174404774Y-121701898D01*
X174482795Y-121890256D01*
X174596063Y-122059774D01*
X174740226Y-122203937D01*
X174909744Y-122317205D01*
X175098102Y-122395226D01*
X175298061Y-122435000D01*
X175501939Y-122435000D01*
X175701898Y-122395226D01*
X175890256Y-122317205D01*
X176050000Y-122210468D01*
X176209744Y-122317205D01*
X176398102Y-122395226D01*
X176598061Y-122435000D01*
X176801939Y-122435000D01*
X177001898Y-122395226D01*
X177190256Y-122317205D01*
X177359774Y-122203937D01*
X177503937Y-122059774D01*
X177617205Y-121890256D01*
X177695226Y-121701898D01*
X177735000Y-121501939D01*
X177735000Y-121298061D01*
X177695226Y-121098102D01*
X177617205Y-120909744D01*
X177609063Y-120897558D01*
X177642977Y-120785757D01*
X177658072Y-120632500D01*
X177658072Y-120337500D01*
X177642977Y-120184243D01*
X177598274Y-120036875D01*
X177578564Y-120000000D01*
X177598274Y-119963125D01*
X177642977Y-119815757D01*
X177658072Y-119662500D01*
X177658072Y-119367500D01*
X177642977Y-119214243D01*
X177598274Y-119066875D01*
X177525679Y-118931060D01*
X177460000Y-118851030D01*
X177460000Y-118064320D01*
X177504494Y-118040537D01*
X177601185Y-117961185D01*
X177680537Y-117864494D01*
X177739502Y-117754180D01*
X177775812Y-117634482D01*
X177788072Y-117510000D01*
X177788072Y-116910000D01*
X177775812Y-116785518D01*
X177739502Y-116665820D01*
X177690957Y-116575000D01*
X177739502Y-116484180D01*
X177775812Y-116364482D01*
X177788072Y-116240000D01*
X177788072Y-115640000D01*
X177775812Y-115515518D01*
X177739502Y-115395820D01*
X177690957Y-115305000D01*
X177739502Y-115214180D01*
X177775812Y-115094482D01*
X177788072Y-114970000D01*
X177788072Y-114370000D01*
X177775812Y-114245518D01*
X177739502Y-114125820D01*
X177690957Y-114035000D01*
X177739502Y-113944180D01*
X177775812Y-113824482D01*
X177788072Y-113700000D01*
X177788072Y-113100000D01*
X177775812Y-112975518D01*
X177739502Y-112855820D01*
X177690957Y-112765000D01*
X177739502Y-112674180D01*
X177775812Y-112554482D01*
X177788072Y-112430000D01*
X177788072Y-111830000D01*
X177775812Y-111705518D01*
X177739502Y-111585820D01*
X177690957Y-111495000D01*
X177739502Y-111404180D01*
X177775812Y-111284482D01*
X177788072Y-111160000D01*
X177788072Y-110560000D01*
X177775812Y-110435518D01*
X177739502Y-110315820D01*
X177690957Y-110225000D01*
X177739502Y-110134180D01*
X177775812Y-110014482D01*
X177788072Y-109890000D01*
X177788072Y-109290000D01*
X177775812Y-109165518D01*
X177739502Y-109045820D01*
X177680537Y-108935506D01*
X177601185Y-108838815D01*
X177504494Y-108759463D01*
X177394180Y-108700498D01*
X177274482Y-108664188D01*
X177150000Y-108651928D01*
X175650000Y-108651928D01*
X175541528Y-108662611D01*
X175401898Y-108604774D01*
X175201939Y-108565000D01*
X174998061Y-108565000D01*
X174798102Y-108604774D01*
X174609744Y-108682795D01*
X174440226Y-108796063D01*
X174296063Y-108940226D01*
X174182795Y-109109744D01*
X174104774Y-109298102D01*
X174065000Y-109498061D01*
X173335000Y-109498061D01*
X173295226Y-109298102D01*
X173217205Y-109109744D01*
X173103937Y-108940226D01*
X172959774Y-108796063D01*
X172790256Y-108682795D01*
X172601898Y-108604774D01*
X172401939Y-108565000D01*
X172198061Y-108565000D01*
X171998102Y-108604774D01*
X171858472Y-108662611D01*
X171750000Y-108651928D01*
X170250000Y-108651928D01*
X170125518Y-108664188D01*
X170005820Y-108700498D01*
X169895506Y-108759463D01*
X169798815Y-108838815D01*
X169719463Y-108935506D01*
X169660498Y-109045820D01*
X169624188Y-109165518D01*
X169611928Y-109290000D01*
X169611928Y-109890000D01*
X169624188Y-110014482D01*
X169660498Y-110134180D01*
X169709043Y-110225000D01*
X169660498Y-110315820D01*
X169624188Y-110435518D01*
X169611928Y-110560000D01*
X169611928Y-111160000D01*
X169624188Y-111284482D01*
X169660498Y-111404180D01*
X169709043Y-111495000D01*
X169660498Y-111585820D01*
X169624188Y-111705518D01*
X169611928Y-111830000D01*
X169611928Y-112335609D01*
X169439353Y-112335609D01*
X169239394Y-112375383D01*
X169051036Y-112453404D01*
X168881518Y-112566672D01*
X168737355Y-112710835D01*
X168624087Y-112880353D01*
X168546066Y-113068711D01*
X168506292Y-113268670D01*
X168506292Y-113472548D01*
X168546066Y-113672507D01*
X168624087Y-113860865D01*
X168664376Y-113921161D01*
X168521562Y-114016586D01*
X168377399Y-114160749D01*
X168264131Y-114330267D01*
X168186110Y-114518625D01*
X168146336Y-114718584D01*
X168146336Y-114922462D01*
X168186110Y-115122421D01*
X168264131Y-115310779D01*
X168342875Y-115428628D01*
X168287579Y-115417629D01*
X168083701Y-115417629D01*
X167883742Y-115457403D01*
X167695384Y-115535424D01*
X167525866Y-115648692D01*
X167381703Y-115792855D01*
X167268435Y-115962373D01*
X167190414Y-116150731D01*
X167150640Y-116350690D01*
X157453200Y-116350690D01*
X157529682Y-116166048D01*
X157643650Y-115593091D01*
X157643650Y-115008909D01*
X157529682Y-114435952D01*
X157306125Y-113896238D01*
X156981571Y-113410508D01*
X156568492Y-112997429D01*
X156082762Y-112672875D01*
X155543048Y-112449318D01*
X154970091Y-112335350D01*
X154385909Y-112335350D01*
X153812952Y-112449318D01*
X153273238Y-112672875D01*
X152787508Y-112997429D01*
X152374429Y-113410508D01*
X152049875Y-113896238D01*
X151826318Y-114435952D01*
X151712350Y-115008909D01*
X145311881Y-115008909D01*
X145301898Y-115004774D01*
X145101939Y-114965000D01*
X144898061Y-114965000D01*
X144698102Y-115004774D01*
X144509744Y-115082795D01*
X144340226Y-115196063D01*
X144196063Y-115340226D01*
X144082795Y-115509744D01*
X144004774Y-115698102D01*
X143965000Y-115898061D01*
X135792527Y-115898061D01*
X134898072Y-115691560D01*
X134898072Y-114943084D01*
X134931028Y-114910129D01*
X134993165Y-114910129D01*
X135193124Y-114870355D01*
X135381482Y-114792334D01*
X135551000Y-114679066D01*
X135695163Y-114534903D01*
X135808431Y-114365385D01*
X135886452Y-114177027D01*
X135926226Y-113977068D01*
X135926226Y-113773190D01*
X135886452Y-113573231D01*
X135808431Y-113384873D01*
X135771177Y-113329117D01*
X139265000Y-113329117D01*
X139265000Y-113670883D01*
X139331675Y-114006081D01*
X139462463Y-114321831D01*
X139652337Y-114605998D01*
X139894002Y-114847663D01*
X140178169Y-115037537D01*
X140493919Y-115168325D01*
X140829117Y-115235000D01*
X141170883Y-115235000D01*
X141506081Y-115168325D01*
X141821831Y-115037537D01*
X142105998Y-114847663D01*
X142347663Y-114605998D01*
X142537537Y-114321831D01*
X142668325Y-114006081D01*
X142735000Y-113670883D01*
X142735000Y-113329117D01*
X142668325Y-112993919D01*
X142537537Y-112678169D01*
X142347663Y-112394002D01*
X142105998Y-112152337D01*
X141821831Y-111962463D01*
X141506081Y-111831675D01*
X141170883Y-111765000D01*
X140829117Y-111765000D01*
X140493919Y-111831675D01*
X140178169Y-111962463D01*
X139894002Y-112152337D01*
X139652337Y-112394002D01*
X139462463Y-112678169D01*
X139331675Y-112993919D01*
X139265000Y-113329117D01*
X135771177Y-113329117D01*
X135695163Y-113215355D01*
X135551000Y-113071192D01*
X135381482Y-112957924D01*
X135193124Y-112879903D01*
X134993165Y-112840129D01*
X134789287Y-112840129D01*
X134589328Y-112879903D01*
X134400970Y-112957924D01*
X134231452Y-113071192D01*
X134087289Y-113215355D01*
X133998373Y-113348428D01*
X132860000Y-113348428D01*
X132815184Y-113352842D01*
X132833262Y-113334764D01*
X132946530Y-113165246D01*
X133024551Y-112976888D01*
X133064325Y-112776929D01*
X133064325Y-112573051D01*
X133024551Y-112373092D01*
X132946530Y-112184734D01*
X132833262Y-112015216D01*
X132689099Y-111871053D01*
X132519581Y-111757785D01*
X132331223Y-111679764D01*
X132131264Y-111639990D01*
X131927386Y-111639990D01*
X131727427Y-111679764D01*
X131539069Y-111757785D01*
X131369551Y-111871053D01*
X131225388Y-112015216D01*
X131112120Y-112184734D01*
X131034099Y-112373092D01*
X130994325Y-112573051D01*
X130994325Y-112635189D01*
X130572498Y-113057016D01*
X130543500Y-113080814D01*
X130519702Y-113109812D01*
X130519701Y-113109813D01*
X130448526Y-113196539D01*
X130377954Y-113328569D01*
X130371574Y-113349603D01*
X130259018Y-113360688D01*
X130139320Y-113396998D01*
X130029006Y-113455963D01*
X129932315Y-113535315D01*
X129852963Y-113632006D01*
X129793998Y-113742320D01*
X129781750Y-113782696D01*
X129769502Y-113742320D01*
X129710537Y-113632006D01*
X129631185Y-113535315D01*
X129535000Y-113456378D01*
X129535000Y-113298061D01*
X129515555Y-113200301D01*
X129659774Y-113103937D01*
X129803937Y-112959774D01*
X129917205Y-112790256D01*
X129995226Y-112601898D01*
X130035000Y-112401939D01*
X130035000Y-112198061D01*
X129995226Y-111998102D01*
X129917205Y-111809744D01*
X129803937Y-111640226D01*
X129659774Y-111496063D01*
X129490256Y-111382795D01*
X129301898Y-111304774D01*
X129101939Y-111265000D01*
X128898061Y-111265000D01*
X128698102Y-111304774D01*
X128509744Y-111382795D01*
X128340226Y-111496063D01*
X128196063Y-111640226D01*
X128082795Y-111809744D01*
X128004774Y-111998102D01*
X127965000Y-112198061D01*
X127965000Y-112401939D01*
X127984445Y-112499699D01*
X127840226Y-112596063D01*
X127696063Y-112740226D01*
X127582795Y-112909744D01*
X127504774Y-113098102D01*
X127465000Y-113298061D01*
X127465000Y-113434853D01*
X127425506Y-113455963D01*
X127328815Y-113535315D01*
X127249463Y-113632006D01*
X127190498Y-113742320D01*
X127154188Y-113862018D01*
X127141928Y-113986500D01*
X127141928Y-115290000D01*
X122210000Y-115290000D01*
X122210000Y-110258363D01*
X122435000Y-110258363D01*
X122435000Y-110501637D01*
X122482460Y-110740236D01*
X122575557Y-110964992D01*
X122710713Y-111167267D01*
X122882733Y-111339287D01*
X123085008Y-111474443D01*
X123309764Y-111567540D01*
X123539894Y-111613315D01*
X123504774Y-111698102D01*
X123465000Y-111898061D01*
X123465000Y-112101939D01*
X123504774Y-112301898D01*
X123582795Y-112490256D01*
X123696063Y-112659774D01*
X123840226Y-112803937D01*
X124009744Y-112917205D01*
X124198102Y-112995226D01*
X124398061Y-113035000D01*
X124601939Y-113035000D01*
X124801898Y-112995226D01*
X124990256Y-112917205D01*
X125159774Y-112803937D01*
X125303937Y-112659774D01*
X125417205Y-112490256D01*
X125495226Y-112301898D01*
X125535000Y-112101939D01*
X125535000Y-111898061D01*
X125495226Y-111698102D01*
X125417205Y-111509744D01*
X125303937Y-111340226D01*
X125159774Y-111196063D01*
X124990256Y-111082795D01*
X124801898Y-111004774D01*
X124745374Y-110993531D01*
X124764443Y-110964992D01*
X124857540Y-110740236D01*
X124905000Y-110501637D01*
X124905000Y-110258363D01*
X124857540Y-110019764D01*
X124764443Y-109795008D01*
X124629287Y-109592733D01*
X124457267Y-109420713D01*
X124254992Y-109285557D01*
X124030236Y-109192460D01*
X123791637Y-109145000D01*
X123548363Y-109145000D01*
X123309764Y-109192460D01*
X123085008Y-109285557D01*
X122882733Y-109420713D01*
X122710713Y-109592733D01*
X122575557Y-109795008D01*
X122482460Y-110019764D01*
X122435000Y-110258363D01*
X122210000Y-110258363D01*
X122210000Y-105798061D01*
X125965000Y-105798061D01*
X125965000Y-106001939D01*
X126004774Y-106201898D01*
X126082795Y-106390256D01*
X126196063Y-106559774D01*
X126340226Y-106703937D01*
X126509744Y-106817205D01*
X126698102Y-106895226D01*
X126898061Y-106935000D01*
X127101939Y-106935000D01*
X127301898Y-106895226D01*
X127490256Y-106817205D01*
X127659774Y-106703937D01*
X127803937Y-106559774D01*
X127917205Y-106390256D01*
X127995226Y-106201898D01*
X128035000Y-106001939D01*
X128035000Y-105798061D01*
X127995226Y-105598102D01*
X127917205Y-105409744D01*
X127803937Y-105240226D01*
X127659774Y-105096063D01*
X127490256Y-104982795D01*
X127301898Y-104904774D01*
X127101939Y-104865000D01*
X126898061Y-104865000D01*
X126698102Y-104904774D01*
X126509744Y-104982795D01*
X126340226Y-105096063D01*
X126196063Y-105240226D01*
X126082795Y-105409744D01*
X126004774Y-105598102D01*
X125965000Y-105798061D01*
X122210000Y-105798061D01*
X122210000Y-104398061D01*
X122465000Y-104398061D01*
X122465000Y-104601939D01*
X122504774Y-104801898D01*
X122582795Y-104990256D01*
X122696063Y-105159774D01*
X122840226Y-105303937D01*
X123009744Y-105417205D01*
X123198102Y-105495226D01*
X123398061Y-105535000D01*
X123601939Y-105535000D01*
X123801898Y-105495226D01*
X123990256Y-105417205D01*
X124159774Y-105303937D01*
X124303937Y-105159774D01*
X124417205Y-104990256D01*
X124486464Y-104823051D01*
X130927261Y-104823051D01*
X130927261Y-105026929D01*
X130967035Y-105226888D01*
X131045056Y-105415246D01*
X131158324Y-105584764D01*
X131302487Y-105728927D01*
X131472005Y-105842195D01*
X131660363Y-105920216D01*
X131860322Y-105959990D01*
X132064200Y-105959990D01*
X132264159Y-105920216D01*
X132452517Y-105842195D01*
X132622035Y-105728927D01*
X132766198Y-105584764D01*
X132879466Y-105415246D01*
X132957487Y-105226888D01*
X132997261Y-105026929D01*
X132997261Y-104823051D01*
X132957487Y-104623092D01*
X132879466Y-104434734D01*
X132766198Y-104265216D01*
X132622035Y-104121053D01*
X132452517Y-104007785D01*
X132264159Y-103929764D01*
X132064200Y-103889990D01*
X131860322Y-103889990D01*
X131660363Y-103929764D01*
X131472005Y-104007785D01*
X131302487Y-104121053D01*
X131158324Y-104265216D01*
X131045056Y-104434734D01*
X130967035Y-104623092D01*
X130927261Y-104823051D01*
X124486464Y-104823051D01*
X124495226Y-104801898D01*
X124535000Y-104601939D01*
X124535000Y-104398061D01*
X124495226Y-104198102D01*
X124417205Y-104009744D01*
X124303937Y-103840226D01*
X124159774Y-103696063D01*
X123990256Y-103582795D01*
X123801898Y-103504774D01*
X123601939Y-103465000D01*
X123398061Y-103465000D01*
X123198102Y-103504774D01*
X123009744Y-103582795D01*
X122840226Y-103696063D01*
X122696063Y-103840226D01*
X122582795Y-104009744D01*
X122504774Y-104198102D01*
X122465000Y-104398061D01*
X122210000Y-104398061D01*
X122210000Y-102498061D01*
X130565000Y-102498061D01*
X130565000Y-102701939D01*
X130604774Y-102901898D01*
X130682795Y-103090256D01*
X130796063Y-103259774D01*
X130940226Y-103403937D01*
X131109744Y-103517205D01*
X131298102Y-103595226D01*
X131498061Y-103635000D01*
X131701939Y-103635000D01*
X131901898Y-103595226D01*
X132090256Y-103517205D01*
X132259774Y-103403937D01*
X132403937Y-103259774D01*
X132517205Y-103090256D01*
X132595226Y-102901898D01*
X132635000Y-102701939D01*
X132635000Y-102498061D01*
X132595226Y-102298102D01*
X132517205Y-102109744D01*
X132403937Y-101940226D01*
X132259774Y-101796063D01*
X132090256Y-101682795D01*
X131901898Y-101604774D01*
X131701939Y-101565000D01*
X131498061Y-101565000D01*
X131298102Y-101604774D01*
X131109744Y-101682795D01*
X130940226Y-101796063D01*
X130796063Y-101940226D01*
X130682795Y-102109744D01*
X130604774Y-102298102D01*
X130565000Y-102498061D01*
X122210000Y-102498061D01*
X122210000Y-101818267D01*
X122272905Y-101860299D01*
X122552257Y-101976011D01*
X122848816Y-102035000D01*
X123151184Y-102035000D01*
X123447743Y-101976011D01*
X123727095Y-101860299D01*
X123978505Y-101692312D01*
X124192312Y-101478505D01*
X124360299Y-101227095D01*
X124476011Y-100947743D01*
X124535000Y-100651184D01*
X124535000Y-100348816D01*
X124476011Y-100052257D01*
X124360299Y-99772905D01*
X124192312Y-99521495D01*
X124038937Y-99368120D01*
X124361000Y-99368120D01*
X124361000Y-99631880D01*
X124412457Y-99890572D01*
X124513393Y-100134254D01*
X124659931Y-100353563D01*
X124846437Y-100540069D01*
X125065746Y-100686607D01*
X125309428Y-100787543D01*
X125568120Y-100839000D01*
X125831880Y-100839000D01*
X126090572Y-100787543D01*
X126334254Y-100686607D01*
X126553563Y-100540069D01*
X126740069Y-100353563D01*
X126886607Y-100134254D01*
X126987543Y-99890572D01*
X127018488Y-99735000D01*
X127101939Y-99735000D01*
X127301898Y-99695226D01*
X127490256Y-99617205D01*
X127659774Y-99503937D01*
X127803937Y-99359774D01*
X127917205Y-99190256D01*
X127995226Y-99001898D01*
X128018608Y-98884350D01*
X128134754Y-98961956D01*
X128323112Y-99039977D01*
X128523071Y-99079751D01*
X128726949Y-99079751D01*
X128926908Y-99039977D01*
X129115266Y-98961956D01*
X129284784Y-98848688D01*
X129428947Y-98704525D01*
X129542215Y-98535007D01*
X129620236Y-98346649D01*
X129660010Y-98146690D01*
X129660010Y-97942812D01*
X129620236Y-97742853D01*
X129542215Y-97554495D01*
X129428947Y-97384977D01*
X129284784Y-97240814D01*
X129115266Y-97127546D01*
X128926908Y-97049525D01*
X128726949Y-97009751D01*
X128523071Y-97009751D01*
X128323112Y-97049525D01*
X128134754Y-97127546D01*
X127965236Y-97240814D01*
X127888914Y-97317136D01*
X127895226Y-97301898D01*
X127935000Y-97101939D01*
X127935000Y-96898061D01*
X127895226Y-96698102D01*
X127817205Y-96509744D01*
X127703937Y-96340226D01*
X127559774Y-96196063D01*
X127390256Y-96082795D01*
X127201898Y-96004774D01*
X127001939Y-95965000D01*
X126798061Y-95965000D01*
X126598102Y-96004774D01*
X126409744Y-96082795D01*
X126240226Y-96196063D01*
X126096063Y-96340226D01*
X125982795Y-96509744D01*
X125904774Y-96698102D01*
X125865000Y-96898061D01*
X125865000Y-97101939D01*
X125904774Y-97301898D01*
X125982795Y-97490256D01*
X126096063Y-97659774D01*
X126240226Y-97803937D01*
X126359164Y-97883409D01*
X126340226Y-97896063D01*
X126196063Y-98040226D01*
X126082795Y-98209744D01*
X126082349Y-98210821D01*
X125831880Y-98161000D01*
X125568120Y-98161000D01*
X125309428Y-98212457D01*
X125065746Y-98313393D01*
X124846437Y-98459931D01*
X124659931Y-98646437D01*
X124513393Y-98865746D01*
X124412457Y-99109428D01*
X124361000Y-99368120D01*
X124038937Y-99368120D01*
X123978505Y-99307688D01*
X123727095Y-99139701D01*
X123447743Y-99023989D01*
X123151184Y-98965000D01*
X122848816Y-98965000D01*
X122552257Y-99023989D01*
X122272905Y-99139701D01*
X122210000Y-99181733D01*
X122210000Y-94818267D01*
X122272905Y-94860299D01*
X122552257Y-94976011D01*
X122848816Y-95035000D01*
X123151184Y-95035000D01*
X123447743Y-94976011D01*
X123727095Y-94860299D01*
X123978505Y-94692312D01*
X124192312Y-94478505D01*
X124266068Y-94368120D01*
X124361000Y-94368120D01*
X124361000Y-94631880D01*
X124412457Y-94890572D01*
X124513393Y-95134254D01*
X124659931Y-95353563D01*
X124846437Y-95540069D01*
X125065746Y-95686607D01*
X125309428Y-95787543D01*
X125568120Y-95839000D01*
X125831880Y-95839000D01*
X126090572Y-95787543D01*
X126334254Y-95686607D01*
X126553563Y-95540069D01*
X126740069Y-95353563D01*
X126886607Y-95134254D01*
X126987543Y-94890572D01*
X127039000Y-94631880D01*
X127039000Y-94428740D01*
X134160000Y-94428740D01*
X134160000Y-94721260D01*
X134217068Y-95008158D01*
X134329010Y-95278411D01*
X134491525Y-95521632D01*
X134698368Y-95728475D01*
X134941589Y-95890990D01*
X135211842Y-96002932D01*
X135498740Y-96060000D01*
X135791260Y-96060000D01*
X136078158Y-96002932D01*
X136348411Y-95890990D01*
X136591632Y-95728475D01*
X136798475Y-95521632D01*
X136960990Y-95278411D01*
X137072932Y-95008158D01*
X137130000Y-94721260D01*
X137130000Y-94428740D01*
X137072932Y-94141842D01*
X137023700Y-94022986D01*
X137198102Y-94095226D01*
X137398061Y-94135000D01*
X137601939Y-94135000D01*
X137801898Y-94095226D01*
X137990256Y-94017205D01*
X138159774Y-93903937D01*
X138303937Y-93759774D01*
X138417205Y-93590256D01*
X138495226Y-93401898D01*
X138535000Y-93201939D01*
X138535000Y-92998061D01*
X138495226Y-92798102D01*
X138417205Y-92609744D01*
X138303937Y-92440226D01*
X138159774Y-92296063D01*
X137990256Y-92182795D01*
X137801898Y-92104774D01*
X137601939Y-92065000D01*
X137398061Y-92065000D01*
X137198102Y-92104774D01*
X137009744Y-92182795D01*
X136840226Y-92296063D01*
X136696063Y-92440226D01*
X136582795Y-92609744D01*
X136504774Y-92798102D01*
X136465000Y-92998061D01*
X136465000Y-93201939D01*
X136495963Y-93357601D01*
X136348411Y-93259010D01*
X136078158Y-93147068D01*
X135791260Y-93090000D01*
X135498740Y-93090000D01*
X135211842Y-93147068D01*
X134941589Y-93259010D01*
X134698368Y-93421525D01*
X134491525Y-93628368D01*
X134329010Y-93871589D01*
X134217068Y-94141842D01*
X134160000Y-94428740D01*
X127039000Y-94428740D01*
X127039000Y-94368120D01*
X126987543Y-94109428D01*
X126886607Y-93865746D01*
X126740069Y-93646437D01*
X126553563Y-93459931D01*
X126334254Y-93313393D01*
X126090572Y-93212457D01*
X125831880Y-93161000D01*
X125568120Y-93161000D01*
X125309428Y-93212457D01*
X125065746Y-93313393D01*
X124846437Y-93459931D01*
X124659931Y-93646437D01*
X124513393Y-93865746D01*
X124412457Y-94109428D01*
X124361000Y-94368120D01*
X124266068Y-94368120D01*
X124360299Y-94227095D01*
X124476011Y-93947743D01*
X124535000Y-93651184D01*
X124535000Y-93348816D01*
X124476011Y-93052257D01*
X124360299Y-92772905D01*
X124192312Y-92521495D01*
X123978505Y-92307688D01*
X123727095Y-92139701D01*
X123447743Y-92023989D01*
X123151184Y-91965000D01*
X122848816Y-91965000D01*
X122552257Y-92023989D01*
X122272905Y-92139701D01*
X122210000Y-92181733D01*
X122210000Y-88713500D01*
X127141928Y-88713500D01*
X127141928Y-90513500D01*
X127154188Y-90637982D01*
X127190498Y-90757680D01*
X127249463Y-90867994D01*
X127328815Y-90964685D01*
X127425506Y-91044037D01*
X127535820Y-91103002D01*
X127655518Y-91139312D01*
X127780000Y-91151572D01*
X129180000Y-91151572D01*
X129304482Y-91139312D01*
X129424180Y-91103002D01*
X129534494Y-91044037D01*
X129631185Y-90964685D01*
X129710537Y-90867994D01*
X129750000Y-90794165D01*
X129789463Y-90867994D01*
X129868815Y-90964685D01*
X129965506Y-91044037D01*
X130075820Y-91103002D01*
X130195518Y-91139312D01*
X130320000Y-91151572D01*
X130958462Y-91151572D01*
X130939994Y-91244420D01*
X130939994Y-91448298D01*
X130979768Y-91648257D01*
X131057789Y-91836615D01*
X131171057Y-92006133D01*
X131315220Y-92150296D01*
X131484738Y-92263564D01*
X131673096Y-92341585D01*
X131873055Y-92381359D01*
X132076933Y-92381359D01*
X132276892Y-92341585D01*
X132465250Y-92263564D01*
X132634768Y-92150296D01*
X132778931Y-92006133D01*
X132892199Y-91836615D01*
X132970220Y-91648257D01*
X133009994Y-91448298D01*
X133009994Y-91244420D01*
X132991526Y-91151572D01*
X134260000Y-91151572D01*
X134384482Y-91139312D01*
X134504180Y-91103002D01*
X134614494Y-91044037D01*
X134711185Y-90964685D01*
X134790537Y-90867994D01*
X134849502Y-90757680D01*
X134885812Y-90637982D01*
X134898072Y-90513500D01*
X134898072Y-89576729D01*
X135039802Y-89435000D01*
X135101939Y-89435000D01*
X135301898Y-89395226D01*
X135490256Y-89317205D01*
X135659774Y-89203937D01*
X135803937Y-89059774D01*
X135917205Y-88890256D01*
X135995226Y-88701898D01*
X136035000Y-88501939D01*
X136035000Y-88298061D01*
X135995226Y-88098102D01*
X135917205Y-87909744D01*
X135803937Y-87740226D01*
X135659774Y-87596063D01*
X135490256Y-87482795D01*
X135301898Y-87404774D01*
X135101939Y-87365000D01*
X134898061Y-87365000D01*
X134698102Y-87404774D01*
X134509744Y-87482795D01*
X134340226Y-87596063D01*
X134196063Y-87740226D01*
X134082795Y-87909744D01*
X134014166Y-88075428D01*
X132860000Y-88075428D01*
X132735518Y-88087688D01*
X132615820Y-88123998D01*
X132505506Y-88182963D01*
X132408815Y-88262315D01*
X132329463Y-88359006D01*
X132290000Y-88432835D01*
X132250537Y-88359006D01*
X132171185Y-88262315D01*
X132074494Y-88182963D01*
X131964180Y-88123998D01*
X131844482Y-88087688D01*
X131720000Y-88075428D01*
X130320000Y-88075428D01*
X130195518Y-88087688D01*
X130075820Y-88123998D01*
X129965506Y-88182963D01*
X129868815Y-88262315D01*
X129789463Y-88359006D01*
X129750000Y-88432835D01*
X129735708Y-88406097D01*
X129804865Y-88302596D01*
X129882886Y-88114238D01*
X129922660Y-87914279D01*
X129922660Y-87710401D01*
X129882886Y-87510442D01*
X129804865Y-87322084D01*
X129691597Y-87152566D01*
X129547434Y-87008403D01*
X129377916Y-86895135D01*
X129189558Y-86817114D01*
X128989599Y-86777340D01*
X128785721Y-86777340D01*
X128585762Y-86817114D01*
X128397404Y-86895135D01*
X128227886Y-87008403D01*
X128083723Y-87152566D01*
X127970455Y-87322084D01*
X127892434Y-87510442D01*
X127852660Y-87710401D01*
X127852660Y-87786422D01*
X127845026Y-87795724D01*
X127774454Y-87927754D01*
X127744966Y-88024968D01*
X127730998Y-88071014D01*
X127730079Y-88080345D01*
X127655518Y-88087688D01*
X127535820Y-88123998D01*
X127425506Y-88182963D01*
X127328815Y-88262315D01*
X127249463Y-88359006D01*
X127190498Y-88469320D01*
X127154188Y-88589018D01*
X127141928Y-88713500D01*
X122210000Y-88713500D01*
X122210000Y-86400524D01*
X125490000Y-86400524D01*
X125490000Y-86599476D01*
X125528814Y-86794606D01*
X125604950Y-86978414D01*
X125715482Y-87143837D01*
X125856163Y-87284518D01*
X126021586Y-87395050D01*
X126205394Y-87471186D01*
X126400524Y-87510000D01*
X126599476Y-87510000D01*
X126794606Y-87471186D01*
X126978414Y-87395050D01*
X127143837Y-87284518D01*
X127284518Y-87143837D01*
X127395050Y-86978414D01*
X127471186Y-86794606D01*
X127510000Y-86599476D01*
X127510000Y-86400524D01*
X127471186Y-86205394D01*
X127395050Y-86021586D01*
X127284518Y-85856163D01*
X127143837Y-85715482D01*
X126978414Y-85604950D01*
X126794606Y-85528814D01*
X126599476Y-85490000D01*
X126400524Y-85490000D01*
X126205394Y-85528814D01*
X126021586Y-85604950D01*
X125856163Y-85715482D01*
X125715482Y-85856163D01*
X125604950Y-86021586D01*
X125528814Y-86205394D01*
X125490000Y-86400524D01*
X122210000Y-86400524D01*
X122210000Y-84034876D01*
X122213435Y-84000000D01*
X122199727Y-83860816D01*
X122159128Y-83726980D01*
X122093200Y-83603637D01*
X122004475Y-83495525D01*
X121896363Y-83406800D01*
X121773020Y-83340872D01*
X121639184Y-83300273D01*
X121534877Y-83290000D01*
X121500000Y-83286565D01*
X121465123Y-83290000D01*
X120863072Y-83290000D01*
X120863072Y-82650000D01*
X120850812Y-82525518D01*
X120814502Y-82405820D01*
X120755537Y-82295506D01*
X120676185Y-82198815D01*
X120579494Y-82119463D01*
X120469180Y-82060498D01*
X120424854Y-82047052D01*
X120395226Y-81898102D01*
X120317205Y-81709744D01*
X120203937Y-81540226D01*
X120059774Y-81396063D01*
X119890256Y-81282795D01*
X119701898Y-81204774D01*
X119501939Y-81165000D01*
X119298061Y-81165000D01*
X119098102Y-81204774D01*
X118909744Y-81282795D01*
X118740226Y-81396063D01*
X118596063Y-81540226D01*
X118482795Y-81709744D01*
X118410000Y-81885485D01*
X118410000Y-69710000D01*
X118686928Y-69710000D01*
X118686928Y-70900000D01*
M02*
