G04 #@! TF.GenerationSoftware,KiCad,Pcbnew,5.1.6+dfsg1-1~bpo10+1*
G04 #@! TF.CreationDate,2021-03-28T20:23:35-04:00*
G04 #@! TF.ProjectId,RUSP_Daughterboard,52555350-5f44-4617-9567-68746572626f,rev?*
G04 #@! TF.SameCoordinates,Original*
G04 #@! TF.FileFunction,Legend,Bot*
G04 #@! TF.FilePolarity,Positive*
%FSLAX46Y46*%
G04 Gerber Fmt 4.6, Leading zero omitted, Abs format (unit mm)*
G04 Created by KiCad (PCBNEW 5.1.6+dfsg1-1~bpo10+1) date 2021-03-28 20:23:35*
%MOMM*%
%LPD*%
G01*
G04 APERTURE LIST*
%ADD10C,0.120000*%
%ADD11C,0.150000*%
%ADD12C,0.127000*%
%ADD13C,0.010000*%
G04 APERTURE END LIST*
D10*
X178361904Y-117980952D02*
X177980952Y-117714285D01*
X178361904Y-117523809D02*
X177561904Y-117523809D01*
X177561904Y-117828571D01*
X177600000Y-117904761D01*
X177638095Y-117942857D01*
X177714285Y-117980952D01*
X177828571Y-117980952D01*
X177904761Y-117942857D01*
X177942857Y-117904761D01*
X177980952Y-117828571D01*
X177980952Y-117523809D01*
X177561904Y-118476190D02*
X177561904Y-118628571D01*
X177600000Y-118704761D01*
X177676190Y-118780952D01*
X177828571Y-118819047D01*
X178095238Y-118819047D01*
X178247619Y-118780952D01*
X178323809Y-118704761D01*
X178361904Y-118628571D01*
X178361904Y-118476190D01*
X178323809Y-118400000D01*
X178247619Y-118323809D01*
X178095238Y-118285714D01*
X177828571Y-118285714D01*
X177676190Y-118323809D01*
X177600000Y-118400000D01*
X177561904Y-118476190D01*
X177561904Y-119047619D02*
X177561904Y-119504761D01*
X178361904Y-119276190D02*
X177561904Y-119276190D01*
X178133333Y-119733333D02*
X178133333Y-120114285D01*
X178361904Y-119657142D02*
X177561904Y-119923809D01*
X178361904Y-120190476D01*
X178361904Y-120914285D02*
X177980952Y-120647619D01*
X178361904Y-120457142D02*
X177561904Y-120457142D01*
X177561904Y-120761904D01*
X177600000Y-120838095D01*
X177638095Y-120876190D01*
X177714285Y-120914285D01*
X177828571Y-120914285D01*
X177904761Y-120876190D01*
X177942857Y-120838095D01*
X177980952Y-120761904D01*
X177980952Y-120457142D01*
X177980952Y-121409523D02*
X178361904Y-121409523D01*
X177561904Y-121142857D02*
X177980952Y-121409523D01*
X177561904Y-121676190D01*
X177561904Y-123771428D02*
X178209523Y-123771428D01*
X178285714Y-123809523D01*
X178323809Y-123847619D01*
X178361904Y-123923809D01*
X178361904Y-124076190D01*
X178323809Y-124152380D01*
X178285714Y-124190476D01*
X178209523Y-124228571D01*
X177561904Y-124228571D01*
X178361904Y-124609523D02*
X177561904Y-124609523D01*
X178361904Y-125066666D01*
X177561904Y-125066666D01*
X178323809Y-125409523D02*
X178361904Y-125523809D01*
X178361904Y-125714285D01*
X178323809Y-125790476D01*
X178285714Y-125828571D01*
X178209523Y-125866666D01*
X178133333Y-125866666D01*
X178057142Y-125828571D01*
X178019047Y-125790476D01*
X177980952Y-125714285D01*
X177942857Y-125561904D01*
X177904761Y-125485714D01*
X177866666Y-125447619D01*
X177790476Y-125409523D01*
X177714285Y-125409523D01*
X177638095Y-125447619D01*
X177600000Y-125485714D01*
X177561904Y-125561904D01*
X177561904Y-125752380D01*
X177600000Y-125866666D01*
X178361904Y-126209523D02*
X177561904Y-126209523D01*
X178133333Y-126476190D01*
X177561904Y-126742857D01*
X178361904Y-126742857D01*
X178133333Y-127085714D02*
X178133333Y-127466666D01*
X178361904Y-127009523D02*
X177561904Y-127276190D01*
X178361904Y-127542857D01*
X178361904Y-128266666D02*
X177980952Y-128000000D01*
X178361904Y-127809523D02*
X177561904Y-127809523D01*
X177561904Y-128114285D01*
X177600000Y-128190476D01*
X177638095Y-128228571D01*
X177714285Y-128266666D01*
X177828571Y-128266666D01*
X177904761Y-128228571D01*
X177942857Y-128190476D01*
X177980952Y-128114285D01*
X177980952Y-127809523D01*
X177561904Y-128495238D02*
X177561904Y-128952380D01*
X178361904Y-128723809D02*
X177561904Y-128723809D01*
X178361904Y-129219047D02*
X177561904Y-129219047D01*
X177561904Y-129523809D01*
X177600000Y-129600000D01*
X177638095Y-129638095D01*
X177714285Y-129676190D01*
X177828571Y-129676190D01*
X177904761Y-129638095D01*
X177942857Y-129600000D01*
X177980952Y-129523809D01*
X177980952Y-129219047D01*
X178361904Y-130019047D02*
X177561904Y-130019047D01*
X177942857Y-130019047D02*
X177942857Y-130476190D01*
X178361904Y-130476190D02*
X177561904Y-130476190D01*
X177561904Y-131009523D02*
X177561904Y-131161904D01*
X177600000Y-131238095D01*
X177676190Y-131314285D01*
X177828571Y-131352380D01*
X178095238Y-131352380D01*
X178247619Y-131314285D01*
X178323809Y-131238095D01*
X178361904Y-131161904D01*
X178361904Y-131009523D01*
X178323809Y-130933333D01*
X178247619Y-130857142D01*
X178095238Y-130819047D01*
X177828571Y-130819047D01*
X177676190Y-130857142D01*
X177600000Y-130933333D01*
X177561904Y-131009523D01*
X178361904Y-131695238D02*
X177561904Y-131695238D01*
X178361904Y-132152380D01*
X177561904Y-132152380D01*
X177942857Y-132533333D02*
X177942857Y-132800000D01*
X178361904Y-132914285D02*
X178361904Y-132533333D01*
X177561904Y-132533333D01*
X177561904Y-132914285D01*
D11*
X144597619Y-70295238D02*
X144692857Y-70247619D01*
X144883333Y-70247619D01*
X144978571Y-70295238D01*
X145026190Y-70390476D01*
X145026190Y-70438095D01*
X144978571Y-70533333D01*
X144883333Y-70580952D01*
X144740476Y-70580952D01*
X144645238Y-70628571D01*
X144597619Y-70723809D01*
X144597619Y-70771428D01*
X144645238Y-70866666D01*
X144740476Y-70914285D01*
X144883333Y-70914285D01*
X144978571Y-70866666D01*
X145454761Y-70247619D02*
X145454761Y-71247619D01*
X145550000Y-70628571D02*
X145835714Y-70247619D01*
X145835714Y-70914285D02*
X145454761Y-70533333D01*
X146169047Y-70914285D02*
X146407142Y-70247619D01*
X146645238Y-70914285D02*
X146407142Y-70247619D01*
X146311904Y-70009523D01*
X146264285Y-69961904D01*
X146169047Y-69914285D01*
X146978571Y-70295238D02*
X147073809Y-70247619D01*
X147264285Y-70247619D01*
X147359523Y-70295238D01*
X147407142Y-70390476D01*
X147407142Y-70438095D01*
X147359523Y-70533333D01*
X147264285Y-70580952D01*
X147121428Y-70580952D01*
X147026190Y-70628571D01*
X146978571Y-70723809D01*
X146978571Y-70771428D01*
X147026190Y-70866666D01*
X147121428Y-70914285D01*
X147264285Y-70914285D01*
X147359523Y-70866666D01*
X148216666Y-70295238D02*
X148121428Y-70247619D01*
X147930952Y-70247619D01*
X147835714Y-70295238D01*
X147788095Y-70390476D01*
X147788095Y-70771428D01*
X147835714Y-70866666D01*
X147930952Y-70914285D01*
X148121428Y-70914285D01*
X148216666Y-70866666D01*
X148264285Y-70771428D01*
X148264285Y-70676190D01*
X147788095Y-70580952D01*
X149121428Y-70247619D02*
X149121428Y-71247619D01*
X149121428Y-70295238D02*
X149026190Y-70247619D01*
X148835714Y-70247619D01*
X148740476Y-70295238D01*
X148692857Y-70342857D01*
X148645238Y-70438095D01*
X148645238Y-70723809D01*
X148692857Y-70819047D01*
X148740476Y-70866666D01*
X148835714Y-70914285D01*
X149026190Y-70914285D01*
X149121428Y-70866666D01*
X150026190Y-70914285D02*
X150026190Y-70104761D01*
X149978571Y-70009523D01*
X149930952Y-69961904D01*
X149835714Y-69914285D01*
X149692857Y-69914285D01*
X149597619Y-69961904D01*
X150026190Y-70295238D02*
X149930952Y-70247619D01*
X149740476Y-70247619D01*
X149645238Y-70295238D01*
X149597619Y-70342857D01*
X149550000Y-70438095D01*
X149550000Y-70723809D01*
X149597619Y-70819047D01*
X149645238Y-70866666D01*
X149740476Y-70914285D01*
X149930952Y-70914285D01*
X150026190Y-70866666D01*
X150883333Y-70295238D02*
X150788095Y-70247619D01*
X150597619Y-70247619D01*
X150502380Y-70295238D01*
X150454761Y-70390476D01*
X150454761Y-70771428D01*
X150502380Y-70866666D01*
X150597619Y-70914285D01*
X150788095Y-70914285D01*
X150883333Y-70866666D01*
X150930952Y-70771428D01*
X150930952Y-70676190D01*
X150454761Y-70580952D01*
X151359523Y-70342857D02*
X151407142Y-70295238D01*
X151359523Y-70247619D01*
X151311904Y-70295238D01*
X151359523Y-70342857D01*
X151359523Y-70247619D01*
X152264285Y-70295238D02*
X152169047Y-70247619D01*
X151978571Y-70247619D01*
X151883333Y-70295238D01*
X151835714Y-70342857D01*
X151788095Y-70438095D01*
X151788095Y-70723809D01*
X151835714Y-70819047D01*
X151883333Y-70866666D01*
X151978571Y-70914285D01*
X152169047Y-70914285D01*
X152264285Y-70866666D01*
X152835714Y-70247619D02*
X152740476Y-70295238D01*
X152692857Y-70342857D01*
X152645238Y-70438095D01*
X152645238Y-70723809D01*
X152692857Y-70819047D01*
X152740476Y-70866666D01*
X152835714Y-70914285D01*
X152978571Y-70914285D01*
X153073809Y-70866666D01*
X153121428Y-70819047D01*
X153169047Y-70723809D01*
X153169047Y-70438095D01*
X153121428Y-70342857D01*
X153073809Y-70295238D01*
X152978571Y-70247619D01*
X152835714Y-70247619D01*
X153597619Y-70247619D02*
X153597619Y-70914285D01*
X153597619Y-70819047D02*
X153645238Y-70866666D01*
X153740476Y-70914285D01*
X153883333Y-70914285D01*
X153978571Y-70866666D01*
X154026190Y-70771428D01*
X154026190Y-70247619D01*
X154026190Y-70771428D02*
X154073809Y-70866666D01*
X154169047Y-70914285D01*
X154311904Y-70914285D01*
X154407142Y-70866666D01*
X154454761Y-70771428D01*
X154454761Y-70247619D01*
D12*
X121750000Y-100500000D02*
X120900000Y-100500000D01*
X120900000Y-100500000D02*
X120850000Y-100500000D01*
X121750000Y-93500000D02*
X120850000Y-93500000D01*
X121550000Y-102250000D02*
X121550000Y-92500000D01*
X120900000Y-100100000D02*
X121200000Y-100100000D01*
X121200000Y-100100000D02*
X121200000Y-99800000D01*
X121750000Y-93500000D02*
X120900000Y-93500000D01*
X120900000Y-93500000D02*
X120850000Y-93500000D01*
X120900000Y-93900000D02*
X121200000Y-93900000D01*
X121200000Y-93900000D02*
X121200000Y-94200000D01*
X120800000Y-99400000D02*
X120800000Y-94700000D01*
X120900000Y-100500000D02*
G75*
G03*
X120400000Y-101000000I0J-500000D01*
G01*
X120100000Y-100900000D02*
G75*
G02*
X120900000Y-100100000I800000J0D01*
G01*
X121200000Y-99800000D02*
G75*
G02*
X120800000Y-99400000I0J400000D01*
G01*
X120900000Y-93500000D02*
G75*
G02*
X120400000Y-93000000I0J500000D01*
G01*
X120100000Y-93100000D02*
G75*
G03*
X120900000Y-93900000I800000J0D01*
G01*
X121200000Y-94200000D02*
G75*
G03*
X120800000Y-94600000I0J-400000D01*
G01*
D10*
X126450000Y-103400000D02*
X126450000Y-105400000D01*
X126450000Y-105400000D02*
X122550000Y-105400000D01*
X126450000Y-103400000D02*
X122550000Y-103400000D01*
D11*
X159311803Y-129750000D02*
G75*
G03*
X159311803Y-129750000I-111803J0D01*
G01*
X159311803Y-137450000D02*
G75*
G03*
X159311803Y-137450000I-111803J0D01*
G01*
D10*
X157910000Y-134161252D02*
X157910000Y-133638748D01*
X156490000Y-134161252D02*
X156490000Y-133638748D01*
X136200000Y-92475000D02*
X140100000Y-92475000D01*
X136200000Y-90475000D02*
X140100000Y-90475000D01*
X136200000Y-92475000D02*
X136200000Y-90475000D01*
X133775000Y-111950000D02*
X133775000Y-113950000D01*
X133775000Y-113950000D02*
X129875000Y-113950000D01*
X133775000Y-111950000D02*
X129875000Y-111950000D01*
D13*
G36*
X173832881Y-124282027D02*
G01*
X173854879Y-124327971D01*
X173860729Y-124331396D01*
X173904681Y-124329853D01*
X173992061Y-124312009D01*
X174114388Y-124280389D01*
X174263181Y-124237516D01*
X174429958Y-124185915D01*
X174606239Y-124128111D01*
X174783542Y-124066626D01*
X174926431Y-124014220D01*
X175122567Y-123941465D01*
X175297001Y-123880168D01*
X175461495Y-123826994D01*
X175627813Y-123778607D01*
X175807717Y-123731670D01*
X176012969Y-123682847D01*
X176255334Y-123628804D01*
X176382568Y-123601262D01*
X176690254Y-123532751D01*
X176950019Y-123469406D01*
X177168674Y-123409087D01*
X177353029Y-123349657D01*
X177509895Y-123288976D01*
X177646084Y-123224905D01*
X177731413Y-123177688D01*
X177897587Y-123062788D01*
X178070456Y-122914019D01*
X178233178Y-122747462D01*
X178368914Y-122579196D01*
X178389892Y-122548913D01*
X178457685Y-122432472D01*
X178514947Y-122304642D01*
X178559501Y-122175054D01*
X178589169Y-122053340D01*
X178601777Y-121949131D01*
X178595147Y-121872058D01*
X178567103Y-121831752D01*
X178552772Y-121828161D01*
X178456794Y-121828130D01*
X178372422Y-121837863D01*
X178319717Y-121854825D01*
X178315442Y-121858157D01*
X178299782Y-121894580D01*
X178279723Y-121970402D01*
X178259185Y-122070433D01*
X178255894Y-122088944D01*
X178209372Y-122277709D01*
X178135694Y-122443141D01*
X178026875Y-122599047D01*
X177874929Y-122759234D01*
X177860328Y-122772968D01*
X177683535Y-122919920D01*
X177488776Y-123044922D01*
X177269571Y-123150393D01*
X177019438Y-123238750D01*
X176731898Y-123312413D01*
X176400470Y-123373799D01*
X176157718Y-123408356D01*
X175985882Y-123429592D01*
X175845527Y-123442713D01*
X175726233Y-123445569D01*
X175617583Y-123436013D01*
X175509160Y-123411898D01*
X175390545Y-123371075D01*
X175251322Y-123311399D01*
X175081073Y-123230720D01*
X174924863Y-123154204D01*
X174423815Y-122907625D01*
X174341181Y-122956040D01*
X174269175Y-123008756D01*
X174222798Y-123062991D01*
X174211588Y-123106381D01*
X174217461Y-123116446D01*
X174251844Y-123130254D01*
X174325071Y-123149427D01*
X174421578Y-123169912D01*
X174425725Y-123170706D01*
X174529241Y-123197308D01*
X174663678Y-123241566D01*
X174810328Y-123296923D01*
X174928832Y-123347009D01*
X175102023Y-123425930D01*
X175228316Y-123487629D01*
X175312029Y-123535529D01*
X175357478Y-123573052D01*
X175368977Y-123603621D01*
X175350845Y-123630658D01*
X175315306Y-123653446D01*
X175265404Y-123673550D01*
X175171987Y-123705298D01*
X175044814Y-123745806D01*
X174893642Y-123792193D01*
X174728231Y-123841576D01*
X174558338Y-123891074D01*
X174393721Y-123937802D01*
X174244139Y-123978880D01*
X174119349Y-124011425D01*
X174038750Y-124030510D01*
X173824783Y-124076795D01*
X173824783Y-124197198D01*
X173832881Y-124282027D01*
G37*
X173832881Y-124282027D02*
X173854879Y-124327971D01*
X173860729Y-124331396D01*
X173904681Y-124329853D01*
X173992061Y-124312009D01*
X174114388Y-124280389D01*
X174263181Y-124237516D01*
X174429958Y-124185915D01*
X174606239Y-124128111D01*
X174783542Y-124066626D01*
X174926431Y-124014220D01*
X175122567Y-123941465D01*
X175297001Y-123880168D01*
X175461495Y-123826994D01*
X175627813Y-123778607D01*
X175807717Y-123731670D01*
X176012969Y-123682847D01*
X176255334Y-123628804D01*
X176382568Y-123601262D01*
X176690254Y-123532751D01*
X176950019Y-123469406D01*
X177168674Y-123409087D01*
X177353029Y-123349657D01*
X177509895Y-123288976D01*
X177646084Y-123224905D01*
X177731413Y-123177688D01*
X177897587Y-123062788D01*
X178070456Y-122914019D01*
X178233178Y-122747462D01*
X178368914Y-122579196D01*
X178389892Y-122548913D01*
X178457685Y-122432472D01*
X178514947Y-122304642D01*
X178559501Y-122175054D01*
X178589169Y-122053340D01*
X178601777Y-121949131D01*
X178595147Y-121872058D01*
X178567103Y-121831752D01*
X178552772Y-121828161D01*
X178456794Y-121828130D01*
X178372422Y-121837863D01*
X178319717Y-121854825D01*
X178315442Y-121858157D01*
X178299782Y-121894580D01*
X178279723Y-121970402D01*
X178259185Y-122070433D01*
X178255894Y-122088944D01*
X178209372Y-122277709D01*
X178135694Y-122443141D01*
X178026875Y-122599047D01*
X177874929Y-122759234D01*
X177860328Y-122772968D01*
X177683535Y-122919920D01*
X177488776Y-123044922D01*
X177269571Y-123150393D01*
X177019438Y-123238750D01*
X176731898Y-123312413D01*
X176400470Y-123373799D01*
X176157718Y-123408356D01*
X175985882Y-123429592D01*
X175845527Y-123442713D01*
X175726233Y-123445569D01*
X175617583Y-123436013D01*
X175509160Y-123411898D01*
X175390545Y-123371075D01*
X175251322Y-123311399D01*
X175081073Y-123230720D01*
X174924863Y-123154204D01*
X174423815Y-122907625D01*
X174341181Y-122956040D01*
X174269175Y-123008756D01*
X174222798Y-123062991D01*
X174211588Y-123106381D01*
X174217461Y-123116446D01*
X174251844Y-123130254D01*
X174325071Y-123149427D01*
X174421578Y-123169912D01*
X174425725Y-123170706D01*
X174529241Y-123197308D01*
X174663678Y-123241566D01*
X174810328Y-123296923D01*
X174928832Y-123347009D01*
X175102023Y-123425930D01*
X175228316Y-123487629D01*
X175312029Y-123535529D01*
X175357478Y-123573052D01*
X175368977Y-123603621D01*
X175350845Y-123630658D01*
X175315306Y-123653446D01*
X175265404Y-123673550D01*
X175171987Y-123705298D01*
X175044814Y-123745806D01*
X174893642Y-123792193D01*
X174728231Y-123841576D01*
X174558338Y-123891074D01*
X174393721Y-123937802D01*
X174244139Y-123978880D01*
X174119349Y-124011425D01*
X174038750Y-124030510D01*
X173824783Y-124076795D01*
X173824783Y-124197198D01*
X173832881Y-124282027D01*
G36*
X174219981Y-125141121D02*
G01*
X174271465Y-125327215D01*
X174277649Y-125344293D01*
X174356744Y-125558260D01*
X174475656Y-125558260D01*
X174552177Y-125552786D01*
X174602577Y-125539044D01*
X174610457Y-125532550D01*
X174605895Y-125496195D01*
X174575859Y-125434445D01*
X174556914Y-125404524D01*
X174485533Y-125265603D01*
X174440592Y-125107283D01*
X174424181Y-124946306D01*
X174438389Y-124799415D01*
X174470110Y-124709114D01*
X174547948Y-124613760D01*
X174655278Y-124555616D01*
X174777711Y-124538382D01*
X174900853Y-124565757D01*
X174943091Y-124587551D01*
X174987802Y-124617231D01*
X175036560Y-124655551D01*
X175094818Y-124707855D01*
X175168031Y-124779488D01*
X175261650Y-124875794D01*
X175381131Y-125002117D01*
X175531926Y-125163801D01*
X175540023Y-125172518D01*
X175698430Y-125337837D01*
X175832484Y-125463988D01*
X175950522Y-125556304D01*
X176060880Y-125620121D01*
X176171893Y-125660771D01*
X176291897Y-125683589D01*
X176347451Y-125689176D01*
X176537377Y-125680794D01*
X176702502Y-125625831D01*
X176837785Y-125527874D01*
X176938187Y-125390512D01*
X176996633Y-125226956D01*
X177016333Y-125103271D01*
X177030698Y-124947525D01*
X177038969Y-124779005D01*
X177040381Y-124616997D01*
X177034175Y-124480789D01*
X177028135Y-124429394D01*
X176975221Y-124260916D01*
X176876490Y-124116244D01*
X176738258Y-124000992D01*
X176566842Y-123920773D01*
X176417303Y-123886560D01*
X176338234Y-123878527D01*
X176292112Y-123888773D01*
X176257421Y-123926481D01*
X176233886Y-123964847D01*
X176178613Y-124063011D01*
X176156669Y-124124254D01*
X176171738Y-124158239D01*
X176227505Y-124174628D01*
X176316819Y-124182403D01*
X176479108Y-124210506D01*
X176604435Y-124273626D01*
X176694936Y-124374641D01*
X176752748Y-124516433D01*
X176780008Y-124701884D01*
X176782855Y-124810666D01*
X176769936Y-125017023D01*
X176734493Y-125188893D01*
X176678336Y-125320200D01*
X176606514Y-125402528D01*
X176511197Y-125443648D01*
X176389457Y-125456120D01*
X176262178Y-125439773D01*
X176170883Y-125406082D01*
X176123639Y-125372677D01*
X176044654Y-125306748D01*
X175941222Y-125214824D01*
X175820640Y-125103435D01*
X175690200Y-124979112D01*
X175647328Y-124937428D01*
X175444658Y-124744056D01*
X175272021Y-124590788D01*
X175124521Y-124474965D01*
X174997259Y-124393927D01*
X174885339Y-124345013D01*
X174783863Y-124325565D01*
X174687933Y-124332922D01*
X174592654Y-124364424D01*
X174592471Y-124364505D01*
X174449810Y-124451697D01*
X174323074Y-124573106D01*
X174245940Y-124684614D01*
X174206633Y-124807635D01*
X174198176Y-124963866D01*
X174219981Y-125141121D01*
G37*
X174219981Y-125141121D02*
X174271465Y-125327215D01*
X174277649Y-125344293D01*
X174356744Y-125558260D01*
X174475656Y-125558260D01*
X174552177Y-125552786D01*
X174602577Y-125539044D01*
X174610457Y-125532550D01*
X174605895Y-125496195D01*
X174575859Y-125434445D01*
X174556914Y-125404524D01*
X174485533Y-125265603D01*
X174440592Y-125107283D01*
X174424181Y-124946306D01*
X174438389Y-124799415D01*
X174470110Y-124709114D01*
X174547948Y-124613760D01*
X174655278Y-124555616D01*
X174777711Y-124538382D01*
X174900853Y-124565757D01*
X174943091Y-124587551D01*
X174987802Y-124617231D01*
X175036560Y-124655551D01*
X175094818Y-124707855D01*
X175168031Y-124779488D01*
X175261650Y-124875794D01*
X175381131Y-125002117D01*
X175531926Y-125163801D01*
X175540023Y-125172518D01*
X175698430Y-125337837D01*
X175832484Y-125463988D01*
X175950522Y-125556304D01*
X176060880Y-125620121D01*
X176171893Y-125660771D01*
X176291897Y-125683589D01*
X176347451Y-125689176D01*
X176537377Y-125680794D01*
X176702502Y-125625831D01*
X176837785Y-125527874D01*
X176938187Y-125390512D01*
X176996633Y-125226956D01*
X177016333Y-125103271D01*
X177030698Y-124947525D01*
X177038969Y-124779005D01*
X177040381Y-124616997D01*
X177034175Y-124480789D01*
X177028135Y-124429394D01*
X176975221Y-124260916D01*
X176876490Y-124116244D01*
X176738258Y-124000992D01*
X176566842Y-123920773D01*
X176417303Y-123886560D01*
X176338234Y-123878527D01*
X176292112Y-123888773D01*
X176257421Y-123926481D01*
X176233886Y-123964847D01*
X176178613Y-124063011D01*
X176156669Y-124124254D01*
X176171738Y-124158239D01*
X176227505Y-124174628D01*
X176316819Y-124182403D01*
X176479108Y-124210506D01*
X176604435Y-124273626D01*
X176694936Y-124374641D01*
X176752748Y-124516433D01*
X176780008Y-124701884D01*
X176782855Y-124810666D01*
X176769936Y-125017023D01*
X176734493Y-125188893D01*
X176678336Y-125320200D01*
X176606514Y-125402528D01*
X176511197Y-125443648D01*
X176389457Y-125456120D01*
X176262178Y-125439773D01*
X176170883Y-125406082D01*
X176123639Y-125372677D01*
X176044654Y-125306748D01*
X175941222Y-125214824D01*
X175820640Y-125103435D01*
X175690200Y-124979112D01*
X175647328Y-124937428D01*
X175444658Y-124744056D01*
X175272021Y-124590788D01*
X175124521Y-124474965D01*
X174997259Y-124393927D01*
X174885339Y-124345013D01*
X174783863Y-124325565D01*
X174687933Y-124332922D01*
X174592654Y-124364424D01*
X174592471Y-124364505D01*
X174449810Y-124451697D01*
X174323074Y-124573106D01*
X174245940Y-124684614D01*
X174206633Y-124807635D01*
X174198176Y-124963866D01*
X174219981Y-125141121D01*
G36*
X173609196Y-130561661D02*
G01*
X173623581Y-130643812D01*
X173634819Y-130696827D01*
X173697096Y-130859886D01*
X173807728Y-130998873D01*
X173964816Y-131112596D01*
X174166462Y-131199863D01*
X174410766Y-131259480D01*
X174563842Y-131280176D01*
X174682673Y-131291075D01*
X174779445Y-131297704D01*
X174842082Y-131299371D01*
X174859253Y-131297123D01*
X174867812Y-131265678D01*
X174878935Y-131194473D01*
X174890254Y-131098744D01*
X174890532Y-131096038D01*
X174909915Y-130906848D01*
X174829795Y-130921660D01*
X174758216Y-130934924D01*
X174658235Y-130953491D01*
X174584022Y-130967290D01*
X174391358Y-130983948D01*
X174223813Y-130960887D01*
X174086023Y-130902228D01*
X173982627Y-130812095D01*
X173918263Y-130694610D01*
X173897569Y-130553897D01*
X173925183Y-130394077D01*
X173928326Y-130384425D01*
X173984834Y-130267646D01*
X174072949Y-130168840D01*
X174197300Y-130085579D01*
X174362511Y-130015431D01*
X174573210Y-129955968D01*
X174834024Y-129904758D01*
X174845150Y-129902915D01*
X175039670Y-129881186D01*
X175269895Y-129871904D01*
X175517836Y-129874623D01*
X175765507Y-129888900D01*
X175994921Y-129914291D01*
X176114225Y-129934265D01*
X176350883Y-129996317D01*
X176537362Y-130080724D01*
X176674219Y-130188051D01*
X176762011Y-130318863D01*
X176801295Y-130473726D01*
X176796699Y-130626639D01*
X176752624Y-130802405D01*
X176672285Y-130941552D01*
X176553505Y-131045560D01*
X176394110Y-131115904D01*
X176191924Y-131154064D01*
X176007761Y-131162449D01*
X175844025Y-131158946D01*
X175731838Y-131147225D01*
X175667806Y-131124559D01*
X175648533Y-131088219D01*
X175670625Y-131035478D01*
X175730687Y-130963607D01*
X175743587Y-130950157D01*
X175814809Y-130861945D01*
X175835441Y-130795571D01*
X175805244Y-130750531D01*
X175723979Y-130726324D01*
X175634533Y-130721509D01*
X175539023Y-130724668D01*
X175475503Y-130739780D01*
X175436915Y-130776338D01*
X175416202Y-130843834D01*
X175406305Y-130951759D01*
X175402868Y-131033067D01*
X175398875Y-131155041D01*
X175401617Y-131245744D01*
X175418008Y-131309520D01*
X175454961Y-131350710D01*
X175519386Y-131373657D01*
X175618198Y-131382702D01*
X175758308Y-131382187D01*
X175946628Y-131376456D01*
X175949378Y-131376368D01*
X176144580Y-131368494D01*
X176295975Y-131358171D01*
X176414962Y-131344114D01*
X176512936Y-131325034D01*
X176586552Y-131304435D01*
X176763037Y-131225889D01*
X176898453Y-131116912D01*
X176988351Y-130981148D01*
X176992112Y-130972438D01*
X177018586Y-130875295D01*
X177036192Y-130742550D01*
X177044218Y-130593217D01*
X177041952Y-130446306D01*
X177028682Y-130320828D01*
X177018278Y-130274090D01*
X176947985Y-130102569D01*
X176841508Y-129964448D01*
X176694029Y-129855339D01*
X176500734Y-129770850D01*
X176447609Y-129753934D01*
X176223570Y-129702353D01*
X175960108Y-129667448D01*
X175670402Y-129649097D01*
X175367631Y-129647179D01*
X175064972Y-129661574D01*
X174775604Y-129692159D01*
X174512706Y-129738815D01*
X174378360Y-129772954D01*
X174138473Y-129856092D01*
X173948750Y-129953211D01*
X173805229Y-130067371D01*
X173703948Y-130201633D01*
X173646884Y-130337931D01*
X173620062Y-130432099D01*
X173607761Y-130498883D01*
X173609196Y-130561661D01*
G37*
X173609196Y-130561661D02*
X173623581Y-130643812D01*
X173634819Y-130696827D01*
X173697096Y-130859886D01*
X173807728Y-130998873D01*
X173964816Y-131112596D01*
X174166462Y-131199863D01*
X174410766Y-131259480D01*
X174563842Y-131280176D01*
X174682673Y-131291075D01*
X174779445Y-131297704D01*
X174842082Y-131299371D01*
X174859253Y-131297123D01*
X174867812Y-131265678D01*
X174878935Y-131194473D01*
X174890254Y-131098744D01*
X174890532Y-131096038D01*
X174909915Y-130906848D01*
X174829795Y-130921660D01*
X174758216Y-130934924D01*
X174658235Y-130953491D01*
X174584022Y-130967290D01*
X174391358Y-130983948D01*
X174223813Y-130960887D01*
X174086023Y-130902228D01*
X173982627Y-130812095D01*
X173918263Y-130694610D01*
X173897569Y-130553897D01*
X173925183Y-130394077D01*
X173928326Y-130384425D01*
X173984834Y-130267646D01*
X174072949Y-130168840D01*
X174197300Y-130085579D01*
X174362511Y-130015431D01*
X174573210Y-129955968D01*
X174834024Y-129904758D01*
X174845150Y-129902915D01*
X175039670Y-129881186D01*
X175269895Y-129871904D01*
X175517836Y-129874623D01*
X175765507Y-129888900D01*
X175994921Y-129914291D01*
X176114225Y-129934265D01*
X176350883Y-129996317D01*
X176537362Y-130080724D01*
X176674219Y-130188051D01*
X176762011Y-130318863D01*
X176801295Y-130473726D01*
X176796699Y-130626639D01*
X176752624Y-130802405D01*
X176672285Y-130941552D01*
X176553505Y-131045560D01*
X176394110Y-131115904D01*
X176191924Y-131154064D01*
X176007761Y-131162449D01*
X175844025Y-131158946D01*
X175731838Y-131147225D01*
X175667806Y-131124559D01*
X175648533Y-131088219D01*
X175670625Y-131035478D01*
X175730687Y-130963607D01*
X175743587Y-130950157D01*
X175814809Y-130861945D01*
X175835441Y-130795571D01*
X175805244Y-130750531D01*
X175723979Y-130726324D01*
X175634533Y-130721509D01*
X175539023Y-130724668D01*
X175475503Y-130739780D01*
X175436915Y-130776338D01*
X175416202Y-130843834D01*
X175406305Y-130951759D01*
X175402868Y-131033067D01*
X175398875Y-131155041D01*
X175401617Y-131245744D01*
X175418008Y-131309520D01*
X175454961Y-131350710D01*
X175519386Y-131373657D01*
X175618198Y-131382702D01*
X175758308Y-131382187D01*
X175946628Y-131376456D01*
X175949378Y-131376368D01*
X176144580Y-131368494D01*
X176295975Y-131358171D01*
X176414962Y-131344114D01*
X176512936Y-131325034D01*
X176586552Y-131304435D01*
X176763037Y-131225889D01*
X176898453Y-131116912D01*
X176988351Y-130981148D01*
X176992112Y-130972438D01*
X177018586Y-130875295D01*
X177036192Y-130742550D01*
X177044218Y-130593217D01*
X177041952Y-130446306D01*
X177028682Y-130320828D01*
X177018278Y-130274090D01*
X176947985Y-130102569D01*
X176841508Y-129964448D01*
X176694029Y-129855339D01*
X176500734Y-129770850D01*
X176447609Y-129753934D01*
X176223570Y-129702353D01*
X175960108Y-129667448D01*
X175670402Y-129649097D01*
X175367631Y-129647179D01*
X175064972Y-129661574D01*
X174775604Y-129692159D01*
X174512706Y-129738815D01*
X174378360Y-129772954D01*
X174138473Y-129856092D01*
X173948750Y-129953211D01*
X173805229Y-130067371D01*
X173703948Y-130201633D01*
X173646884Y-130337931D01*
X173620062Y-130432099D01*
X173607761Y-130498883D01*
X173609196Y-130561661D01*
G36*
X173750365Y-127760139D02*
G01*
X173815623Y-127765015D01*
X173897379Y-127768731D01*
X173976276Y-127770363D01*
X174024946Y-127769516D01*
X174054056Y-127757763D01*
X174069158Y-127718071D01*
X174074509Y-127637828D01*
X174074729Y-127622010D01*
X174080220Y-127537079D01*
X174094049Y-127414674D01*
X174114094Y-127271540D01*
X174136848Y-127132240D01*
X174163605Y-126983576D01*
X174189446Y-126876028D01*
X174223231Y-126802705D01*
X174273822Y-126756712D01*
X174350080Y-126731155D01*
X174460865Y-126719141D01*
X174615039Y-126713775D01*
X174676639Y-126712296D01*
X174827829Y-126709709D01*
X174940181Y-126714843D01*
X175018173Y-126734447D01*
X175066281Y-126775271D01*
X175088982Y-126844065D01*
X175090752Y-126947579D01*
X175076069Y-127092564D01*
X175050746Y-127276357D01*
X175046488Y-127369827D01*
X175071121Y-127421078D01*
X175131219Y-127435373D01*
X175228974Y-127419069D01*
X175329457Y-127394239D01*
X175329457Y-127082650D01*
X175331024Y-126939245D01*
X175336465Y-126841899D01*
X175346884Y-126781521D01*
X175363390Y-126749022D01*
X175370870Y-126742511D01*
X175413075Y-126733263D01*
X175500056Y-126727925D01*
X175621531Y-126726208D01*
X175767217Y-126727823D01*
X175926832Y-126732480D01*
X176090096Y-126739889D01*
X176246725Y-126749762D01*
X176386438Y-126761808D01*
X176486868Y-126773925D01*
X176591909Y-126790075D01*
X176665727Y-126808844D01*
X176713329Y-126839182D01*
X176739726Y-126890039D01*
X176749927Y-126970365D01*
X176748940Y-127089111D01*
X176742851Y-127231294D01*
X176734066Y-127380473D01*
X176722110Y-127521868D01*
X176708527Y-127639885D01*
X176694863Y-127718928D01*
X176694332Y-127721077D01*
X176673246Y-127826833D01*
X176680104Y-127890606D01*
X176722023Y-127921552D01*
X176806125Y-127928829D01*
X176854503Y-127927094D01*
X177013587Y-127918804D01*
X177020962Y-127239723D01*
X177028338Y-126560643D01*
X176717107Y-126542867D01*
X176586487Y-126536653D01*
X176419125Y-126530629D01*
X176222040Y-126524889D01*
X176002251Y-126519526D01*
X175766777Y-126514634D01*
X175522638Y-126510309D01*
X175276851Y-126506643D01*
X175036438Y-126503730D01*
X174808416Y-126501666D01*
X174599804Y-126500542D01*
X174417623Y-126500455D01*
X174268890Y-126501497D01*
X174160626Y-126503763D01*
X174099849Y-126507346D01*
X174096692Y-126507775D01*
X173968274Y-126527131D01*
X173939250Y-126684598D01*
X173923325Y-126766132D01*
X173898349Y-126888206D01*
X173867115Y-127037426D01*
X173832413Y-127200400D01*
X173811999Y-127295020D01*
X173779940Y-127445125D01*
X173753125Y-127575062D01*
X173733334Y-127675842D01*
X173722346Y-127738477D01*
X173720962Y-127755025D01*
X173750365Y-127760139D01*
G37*
X173750365Y-127760139D02*
X173815623Y-127765015D01*
X173897379Y-127768731D01*
X173976276Y-127770363D01*
X174024946Y-127769516D01*
X174054056Y-127757763D01*
X174069158Y-127718071D01*
X174074509Y-127637828D01*
X174074729Y-127622010D01*
X174080220Y-127537079D01*
X174094049Y-127414674D01*
X174114094Y-127271540D01*
X174136848Y-127132240D01*
X174163605Y-126983576D01*
X174189446Y-126876028D01*
X174223231Y-126802705D01*
X174273822Y-126756712D01*
X174350080Y-126731155D01*
X174460865Y-126719141D01*
X174615039Y-126713775D01*
X174676639Y-126712296D01*
X174827829Y-126709709D01*
X174940181Y-126714843D01*
X175018173Y-126734447D01*
X175066281Y-126775271D01*
X175088982Y-126844065D01*
X175090752Y-126947579D01*
X175076069Y-127092564D01*
X175050746Y-127276357D01*
X175046488Y-127369827D01*
X175071121Y-127421078D01*
X175131219Y-127435373D01*
X175228974Y-127419069D01*
X175329457Y-127394239D01*
X175329457Y-127082650D01*
X175331024Y-126939245D01*
X175336465Y-126841899D01*
X175346884Y-126781521D01*
X175363390Y-126749022D01*
X175370870Y-126742511D01*
X175413075Y-126733263D01*
X175500056Y-126727925D01*
X175621531Y-126726208D01*
X175767217Y-126727823D01*
X175926832Y-126732480D01*
X176090096Y-126739889D01*
X176246725Y-126749762D01*
X176386438Y-126761808D01*
X176486868Y-126773925D01*
X176591909Y-126790075D01*
X176665727Y-126808844D01*
X176713329Y-126839182D01*
X176739726Y-126890039D01*
X176749927Y-126970365D01*
X176748940Y-127089111D01*
X176742851Y-127231294D01*
X176734066Y-127380473D01*
X176722110Y-127521868D01*
X176708527Y-127639885D01*
X176694863Y-127718928D01*
X176694332Y-127721077D01*
X176673246Y-127826833D01*
X176680104Y-127890606D01*
X176722023Y-127921552D01*
X176806125Y-127928829D01*
X176854503Y-127927094D01*
X177013587Y-127918804D01*
X177020962Y-127239723D01*
X177028338Y-126560643D01*
X176717107Y-126542867D01*
X176586487Y-126536653D01*
X176419125Y-126530629D01*
X176222040Y-126524889D01*
X176002251Y-126519526D01*
X175766777Y-126514634D01*
X175522638Y-126510309D01*
X175276851Y-126506643D01*
X175036438Y-126503730D01*
X174808416Y-126501666D01*
X174599804Y-126500542D01*
X174417623Y-126500455D01*
X174268890Y-126501497D01*
X174160626Y-126503763D01*
X174099849Y-126507346D01*
X174096692Y-126507775D01*
X173968274Y-126527131D01*
X173939250Y-126684598D01*
X173923325Y-126766132D01*
X173898349Y-126888206D01*
X173867115Y-127037426D01*
X173832413Y-127200400D01*
X173811999Y-127295020D01*
X173779940Y-127445125D01*
X173753125Y-127575062D01*
X173733334Y-127675842D01*
X173722346Y-127738477D01*
X173720962Y-127755025D01*
X173750365Y-127760139D01*
G36*
X173706128Y-121488086D02*
G01*
X173911856Y-121447649D01*
X174117336Y-121414412D01*
X174313824Y-121389158D01*
X174492573Y-121372669D01*
X174644839Y-121365730D01*
X174761876Y-121369123D01*
X174834938Y-121383632D01*
X174840938Y-121386475D01*
X174883551Y-121419197D01*
X174901661Y-121462601D01*
X174892947Y-121521396D01*
X174855090Y-121600290D01*
X174785772Y-121703990D01*
X174682672Y-121837204D01*
X174543473Y-122004641D01*
X174526711Y-122024347D01*
X174420732Y-122145197D01*
X174303153Y-122273698D01*
X174192530Y-122389772D01*
X174144803Y-122437680D01*
X174065091Y-122518280D01*
X174003123Y-122585394D01*
X173967761Y-122629199D01*
X173962826Y-122639363D01*
X173986075Y-122661659D01*
X174046629Y-122696769D01*
X174119958Y-122731877D01*
X174277089Y-122801368D01*
X174326436Y-122737260D01*
X174356482Y-122693413D01*
X174409427Y-122611271D01*
X174479619Y-122499802D01*
X174561405Y-122367974D01*
X174637785Y-122243379D01*
X174725282Y-122102071D01*
X174806803Y-121974503D01*
X174876602Y-121869355D01*
X174928931Y-121795307D01*
X174955984Y-121762748D01*
X174992675Y-121736973D01*
X175032604Y-121730385D01*
X175083813Y-121746592D01*
X175154345Y-121789202D01*
X175252241Y-121861824D01*
X175350341Y-121939670D01*
X175639357Y-122204159D01*
X175882264Y-122496852D01*
X176083202Y-122823067D01*
X176159272Y-122978340D01*
X176214936Y-123091437D01*
X176266639Y-123163201D01*
X176326449Y-123198313D01*
X176406432Y-123201451D01*
X176518657Y-123177294D01*
X176606359Y-123151683D01*
X176668274Y-123125202D01*
X176692591Y-123083182D01*
X176696087Y-123029532D01*
X176690306Y-122976420D01*
X176667441Y-122926752D01*
X176619210Y-122868379D01*
X176537331Y-122789155D01*
X176523533Y-122776462D01*
X176437069Y-122696313D01*
X176324606Y-122590800D01*
X176199893Y-122472882D01*
X176076682Y-122355521D01*
X176061087Y-122340593D01*
X175931099Y-122217671D01*
X175789639Y-122086506D01*
X175653521Y-121962545D01*
X175539559Y-121861238D01*
X175536522Y-121858592D01*
X175409728Y-121746828D01*
X175319627Y-121663151D01*
X175260205Y-121600647D01*
X175225447Y-121552403D01*
X175209341Y-121511504D01*
X175205831Y-121478392D01*
X175212867Y-121437608D01*
X175238915Y-121407021D01*
X175290035Y-121385635D01*
X175372287Y-121372452D01*
X175491731Y-121366476D01*
X175654424Y-121366710D01*
X175854022Y-121371760D01*
X176149265Y-121386125D01*
X176407562Y-121408930D01*
X176620455Y-121439407D01*
X176640870Y-121443220D01*
X176763388Y-121466190D01*
X176867250Y-121484639D01*
X176939539Y-121496333D01*
X176965272Y-121499328D01*
X176987717Y-121475402D01*
X176998542Y-121401147D01*
X176999783Y-121347068D01*
X176993479Y-121245611D01*
X176975307Y-121191103D01*
X176965272Y-121183714D01*
X176930240Y-121180741D01*
X176846238Y-121177124D01*
X176719506Y-121172988D01*
X176556286Y-121168455D01*
X176362819Y-121163648D01*
X176145346Y-121158692D01*
X175910108Y-121153708D01*
X175663347Y-121148821D01*
X175411304Y-121144154D01*
X175160219Y-121139830D01*
X174916336Y-121135973D01*
X174685893Y-121132705D01*
X174475134Y-121130151D01*
X174290299Y-121128433D01*
X174137629Y-121127674D01*
X174128478Y-121127661D01*
X173645326Y-121127065D01*
X173637106Y-121315907D01*
X173628886Y-121504748D01*
X173706128Y-121488086D01*
G37*
X173706128Y-121488086D02*
X173911856Y-121447649D01*
X174117336Y-121414412D01*
X174313824Y-121389158D01*
X174492573Y-121372669D01*
X174644839Y-121365730D01*
X174761876Y-121369123D01*
X174834938Y-121383632D01*
X174840938Y-121386475D01*
X174883551Y-121419197D01*
X174901661Y-121462601D01*
X174892947Y-121521396D01*
X174855090Y-121600290D01*
X174785772Y-121703990D01*
X174682672Y-121837204D01*
X174543473Y-122004641D01*
X174526711Y-122024347D01*
X174420732Y-122145197D01*
X174303153Y-122273698D01*
X174192530Y-122389772D01*
X174144803Y-122437680D01*
X174065091Y-122518280D01*
X174003123Y-122585394D01*
X173967761Y-122629199D01*
X173962826Y-122639363D01*
X173986075Y-122661659D01*
X174046629Y-122696769D01*
X174119958Y-122731877D01*
X174277089Y-122801368D01*
X174326436Y-122737260D01*
X174356482Y-122693413D01*
X174409427Y-122611271D01*
X174479619Y-122499802D01*
X174561405Y-122367974D01*
X174637785Y-122243379D01*
X174725282Y-122102071D01*
X174806803Y-121974503D01*
X174876602Y-121869355D01*
X174928931Y-121795307D01*
X174955984Y-121762748D01*
X174992675Y-121736973D01*
X175032604Y-121730385D01*
X175083813Y-121746592D01*
X175154345Y-121789202D01*
X175252241Y-121861824D01*
X175350341Y-121939670D01*
X175639357Y-122204159D01*
X175882264Y-122496852D01*
X176083202Y-122823067D01*
X176159272Y-122978340D01*
X176214936Y-123091437D01*
X176266639Y-123163201D01*
X176326449Y-123198313D01*
X176406432Y-123201451D01*
X176518657Y-123177294D01*
X176606359Y-123151683D01*
X176668274Y-123125202D01*
X176692591Y-123083182D01*
X176696087Y-123029532D01*
X176690306Y-122976420D01*
X176667441Y-122926752D01*
X176619210Y-122868379D01*
X176537331Y-122789155D01*
X176523533Y-122776462D01*
X176437069Y-122696313D01*
X176324606Y-122590800D01*
X176199893Y-122472882D01*
X176076682Y-122355521D01*
X176061087Y-122340593D01*
X175931099Y-122217671D01*
X175789639Y-122086506D01*
X175653521Y-121962545D01*
X175539559Y-121861238D01*
X175536522Y-121858592D01*
X175409728Y-121746828D01*
X175319627Y-121663151D01*
X175260205Y-121600647D01*
X175225447Y-121552403D01*
X175209341Y-121511504D01*
X175205831Y-121478392D01*
X175212867Y-121437608D01*
X175238915Y-121407021D01*
X175290035Y-121385635D01*
X175372287Y-121372452D01*
X175491731Y-121366476D01*
X175654424Y-121366710D01*
X175854022Y-121371760D01*
X176149265Y-121386125D01*
X176407562Y-121408930D01*
X176620455Y-121439407D01*
X176640870Y-121443220D01*
X176763388Y-121466190D01*
X176867250Y-121484639D01*
X176939539Y-121496333D01*
X176965272Y-121499328D01*
X176987717Y-121475402D01*
X176998542Y-121401147D01*
X176999783Y-121347068D01*
X176993479Y-121245611D01*
X176975307Y-121191103D01*
X176965272Y-121183714D01*
X176930240Y-121180741D01*
X176846238Y-121177124D01*
X176719506Y-121172988D01*
X176556286Y-121168455D01*
X176362819Y-121163648D01*
X176145346Y-121158692D01*
X175910108Y-121153708D01*
X175663347Y-121148821D01*
X175411304Y-121144154D01*
X175160219Y-121139830D01*
X174916336Y-121135973D01*
X174685893Y-121132705D01*
X174475134Y-121130151D01*
X174290299Y-121128433D01*
X174137629Y-121127674D01*
X174128478Y-121127661D01*
X173645326Y-121127065D01*
X173637106Y-121315907D01*
X173628886Y-121504748D01*
X173706128Y-121488086D01*
G36*
X173691476Y-128339837D02*
G01*
X173699021Y-128486590D01*
X173711135Y-128594728D01*
X173730850Y-128680832D01*
X173761195Y-128761481D01*
X173773474Y-128788478D01*
X173892854Y-128978764D01*
X174058780Y-129140546D01*
X174270263Y-129273418D01*
X174526313Y-129376973D01*
X174825943Y-129450804D01*
X175168163Y-129494506D01*
X175522718Y-129507752D01*
X175867335Y-129495573D01*
X176163515Y-129458682D01*
X176412451Y-129396570D01*
X176615338Y-129308729D01*
X176773369Y-129194650D01*
X176887737Y-129053824D01*
X176956522Y-128896524D01*
X176975415Y-128807639D01*
X176989250Y-128693005D01*
X176997886Y-128564714D01*
X177001183Y-128434853D01*
X176999002Y-128315515D01*
X176991203Y-128218789D01*
X176977645Y-128156764D01*
X176965272Y-128140642D01*
X176933408Y-128138215D01*
X176852363Y-128134444D01*
X176728148Y-128129517D01*
X176566778Y-128123618D01*
X176374268Y-128116932D01*
X176156630Y-128109646D01*
X175919878Y-128101944D01*
X175670026Y-128094012D01*
X175413089Y-128086036D01*
X175155079Y-128078200D01*
X174902011Y-128070691D01*
X174659898Y-128063693D01*
X174614971Y-128062436D01*
X174614971Y-128292208D01*
X174855302Y-128292235D01*
X174978417Y-128292327D01*
X175357588Y-128294034D01*
X175695313Y-128298460D01*
X175989610Y-128305510D01*
X176238501Y-128315091D01*
X176440005Y-128327109D01*
X176592142Y-128341471D01*
X176692933Y-128358083D01*
X176738977Y-128375573D01*
X176768291Y-128423204D01*
X176786703Y-128493740D01*
X176795733Y-128563637D01*
X176802066Y-128608925D01*
X176802082Y-128609021D01*
X176793124Y-128646467D01*
X176765413Y-128717498D01*
X176727030Y-128802282D01*
X176629006Y-128967127D01*
X176506405Y-129094302D01*
X176345987Y-129196667D01*
X176295761Y-129221124D01*
X176227774Y-129250939D01*
X176165553Y-129272260D01*
X176097290Y-129286839D01*
X176011176Y-129296429D01*
X175895403Y-129302782D01*
X175738164Y-129307651D01*
X175707549Y-129308430D01*
X175370001Y-129304230D01*
X175058722Y-129275126D01*
X174777242Y-129222625D01*
X174529094Y-129148233D01*
X174317807Y-129053455D01*
X174146914Y-128939798D01*
X174019944Y-128808767D01*
X173940429Y-128661869D01*
X173914187Y-128543526D01*
X173912879Y-128450493D01*
X173924715Y-128372558D01*
X173933063Y-128350764D01*
X173942303Y-128335392D01*
X173955511Y-128322943D01*
X173978116Y-128313116D01*
X174015544Y-128305607D01*
X174073222Y-128300112D01*
X174156576Y-128296328D01*
X174271035Y-128293952D01*
X174422024Y-128292680D01*
X174614971Y-128292208D01*
X174614971Y-128062436D01*
X174434754Y-128057393D01*
X174232592Y-128051975D01*
X174059428Y-128047625D01*
X173921274Y-128044529D01*
X173824144Y-128042872D01*
X173787218Y-128042648D01*
X173680631Y-128043043D01*
X173691476Y-128339837D01*
G37*
X173691476Y-128339837D02*
X173699021Y-128486590D01*
X173711135Y-128594728D01*
X173730850Y-128680832D01*
X173761195Y-128761481D01*
X173773474Y-128788478D01*
X173892854Y-128978764D01*
X174058780Y-129140546D01*
X174270263Y-129273418D01*
X174526313Y-129376973D01*
X174825943Y-129450804D01*
X175168163Y-129494506D01*
X175522718Y-129507752D01*
X175867335Y-129495573D01*
X176163515Y-129458682D01*
X176412451Y-129396570D01*
X176615338Y-129308729D01*
X176773369Y-129194650D01*
X176887737Y-129053824D01*
X176956522Y-128896524D01*
X176975415Y-128807639D01*
X176989250Y-128693005D01*
X176997886Y-128564714D01*
X177001183Y-128434853D01*
X176999002Y-128315515D01*
X176991203Y-128218789D01*
X176977645Y-128156764D01*
X176965272Y-128140642D01*
X176933408Y-128138215D01*
X176852363Y-128134444D01*
X176728148Y-128129517D01*
X176566778Y-128123618D01*
X176374268Y-128116932D01*
X176156630Y-128109646D01*
X175919878Y-128101944D01*
X175670026Y-128094012D01*
X175413089Y-128086036D01*
X175155079Y-128078200D01*
X174902011Y-128070691D01*
X174659898Y-128063693D01*
X174614971Y-128062436D01*
X174614971Y-128292208D01*
X174855302Y-128292235D01*
X174978417Y-128292327D01*
X175357588Y-128294034D01*
X175695313Y-128298460D01*
X175989610Y-128305510D01*
X176238501Y-128315091D01*
X176440005Y-128327109D01*
X176592142Y-128341471D01*
X176692933Y-128358083D01*
X176738977Y-128375573D01*
X176768291Y-128423204D01*
X176786703Y-128493740D01*
X176795733Y-128563637D01*
X176802066Y-128608925D01*
X176802082Y-128609021D01*
X176793124Y-128646467D01*
X176765413Y-128717498D01*
X176727030Y-128802282D01*
X176629006Y-128967127D01*
X176506405Y-129094302D01*
X176345987Y-129196667D01*
X176295761Y-129221124D01*
X176227774Y-129250939D01*
X176165553Y-129272260D01*
X176097290Y-129286839D01*
X176011176Y-129296429D01*
X175895403Y-129302782D01*
X175738164Y-129307651D01*
X175707549Y-129308430D01*
X175370001Y-129304230D01*
X175058722Y-129275126D01*
X174777242Y-129222625D01*
X174529094Y-129148233D01*
X174317807Y-129053455D01*
X174146914Y-128939798D01*
X174019944Y-128808767D01*
X173940429Y-128661869D01*
X173914187Y-128543526D01*
X173912879Y-128450493D01*
X173924715Y-128372558D01*
X173933063Y-128350764D01*
X173942303Y-128335392D01*
X173955511Y-128322943D01*
X173978116Y-128313116D01*
X174015544Y-128305607D01*
X174073222Y-128300112D01*
X174156576Y-128296328D01*
X174271035Y-128293952D01*
X174422024Y-128292680D01*
X174614971Y-128292208D01*
X174614971Y-128062436D01*
X174434754Y-128057393D01*
X174232592Y-128051975D01*
X174059428Y-128047625D01*
X173921274Y-128044529D01*
X173824144Y-128042872D01*
X173787218Y-128042648D01*
X173680631Y-128043043D01*
X173691476Y-128339837D01*
G36*
X173620538Y-132412350D02*
G01*
X173623797Y-132495885D01*
X173639479Y-132814306D01*
X173740098Y-132823902D01*
X173847414Y-132828422D01*
X173910217Y-132812070D01*
X173933353Y-132767516D01*
X173921667Y-132687425D01*
X173891306Y-132595047D01*
X173869880Y-132509263D01*
X173854203Y-132394347D01*
X173844622Y-132264335D01*
X173841485Y-132133263D01*
X173845136Y-132015168D01*
X173855923Y-131924086D01*
X173873526Y-131874830D01*
X173922064Y-131848297D01*
X174016661Y-131823836D01*
X174148165Y-131802624D01*
X174307426Y-131785837D01*
X174485292Y-131774651D01*
X174672612Y-131770242D01*
X174687452Y-131770217D01*
X174822889Y-131770299D01*
X174923305Y-131775227D01*
X174992917Y-131792028D01*
X175035943Y-131827726D01*
X175056599Y-131889346D01*
X175059103Y-131983914D01*
X175047672Y-132118455D01*
X175026523Y-132299994D01*
X175023058Y-132329293D01*
X175004354Y-132488043D01*
X175129014Y-132488043D01*
X175213348Y-132480231D01*
X175273069Y-132460330D01*
X175284138Y-132451336D01*
X175298066Y-132406489D01*
X175307953Y-132316094D01*
X175312961Y-132189728D01*
X175313378Y-132117179D01*
X175314474Y-131994200D01*
X175318391Y-131892472D01*
X175324473Y-131824175D01*
X175330365Y-131801875D01*
X175365916Y-131794065D01*
X175446402Y-131789488D01*
X175561648Y-131787917D01*
X175701481Y-131789124D01*
X175855726Y-131792883D01*
X176014210Y-131798965D01*
X176166757Y-131807144D01*
X176303195Y-131817193D01*
X176385726Y-131825455D01*
X176533480Y-131846324D01*
X176630989Y-131869162D01*
X176683219Y-131895216D01*
X176689185Y-131901579D01*
X176707807Y-131956091D01*
X176718810Y-132053499D01*
X176722151Y-132182004D01*
X176717790Y-132329807D01*
X176705684Y-132485109D01*
X176691635Y-132598478D01*
X176676155Y-132712050D01*
X176664147Y-132814931D01*
X176658089Y-132885789D01*
X176657977Y-132888369D01*
X176654674Y-132971195D01*
X176985978Y-132971195D01*
X176993367Y-132303614D01*
X176994464Y-132115722D01*
X176993563Y-131947414D01*
X176990857Y-131806305D01*
X176986535Y-131700011D01*
X176980791Y-131636146D01*
X176976185Y-131620848D01*
X176940272Y-131614918D01*
X176855544Y-131608794D01*
X176728402Y-131602599D01*
X176565247Y-131596454D01*
X176372480Y-131590484D01*
X176156503Y-131584810D01*
X175923717Y-131579555D01*
X175680523Y-131574843D01*
X175433322Y-131570794D01*
X175188515Y-131567533D01*
X174952504Y-131565182D01*
X174731690Y-131563864D01*
X174532473Y-131563701D01*
X174361256Y-131564815D01*
X174224440Y-131567331D01*
X174208313Y-131567804D01*
X173639344Y-131585493D01*
X173623729Y-131881478D01*
X173618496Y-132042826D01*
X173617433Y-132229645D01*
X173620538Y-132412350D01*
G37*
X173620538Y-132412350D02*
X173623797Y-132495885D01*
X173639479Y-132814306D01*
X173740098Y-132823902D01*
X173847414Y-132828422D01*
X173910217Y-132812070D01*
X173933353Y-132767516D01*
X173921667Y-132687425D01*
X173891306Y-132595047D01*
X173869880Y-132509263D01*
X173854203Y-132394347D01*
X173844622Y-132264335D01*
X173841485Y-132133263D01*
X173845136Y-132015168D01*
X173855923Y-131924086D01*
X173873526Y-131874830D01*
X173922064Y-131848297D01*
X174016661Y-131823836D01*
X174148165Y-131802624D01*
X174307426Y-131785837D01*
X174485292Y-131774651D01*
X174672612Y-131770242D01*
X174687452Y-131770217D01*
X174822889Y-131770299D01*
X174923305Y-131775227D01*
X174992917Y-131792028D01*
X175035943Y-131827726D01*
X175056599Y-131889346D01*
X175059103Y-131983914D01*
X175047672Y-132118455D01*
X175026523Y-132299994D01*
X175023058Y-132329293D01*
X175004354Y-132488043D01*
X175129014Y-132488043D01*
X175213348Y-132480231D01*
X175273069Y-132460330D01*
X175284138Y-132451336D01*
X175298066Y-132406489D01*
X175307953Y-132316094D01*
X175312961Y-132189728D01*
X175313378Y-132117179D01*
X175314474Y-131994200D01*
X175318391Y-131892472D01*
X175324473Y-131824175D01*
X175330365Y-131801875D01*
X175365916Y-131794065D01*
X175446402Y-131789488D01*
X175561648Y-131787917D01*
X175701481Y-131789124D01*
X175855726Y-131792883D01*
X176014210Y-131798965D01*
X176166757Y-131807144D01*
X176303195Y-131817193D01*
X176385726Y-131825455D01*
X176533480Y-131846324D01*
X176630989Y-131869162D01*
X176683219Y-131895216D01*
X176689185Y-131901579D01*
X176707807Y-131956091D01*
X176718810Y-132053499D01*
X176722151Y-132182004D01*
X176717790Y-132329807D01*
X176705684Y-132485109D01*
X176691635Y-132598478D01*
X176676155Y-132712050D01*
X176664147Y-132814931D01*
X176658089Y-132885789D01*
X176657977Y-132888369D01*
X176654674Y-132971195D01*
X176985978Y-132971195D01*
X176993367Y-132303614D01*
X176994464Y-132115722D01*
X176993563Y-131947414D01*
X176990857Y-131806305D01*
X176986535Y-131700011D01*
X176980791Y-131636146D01*
X176976185Y-131620848D01*
X176940272Y-131614918D01*
X176855544Y-131608794D01*
X176728402Y-131602599D01*
X176565247Y-131596454D01*
X176372480Y-131590484D01*
X176156503Y-131584810D01*
X175923717Y-131579555D01*
X175680523Y-131574843D01*
X175433322Y-131570794D01*
X175188515Y-131567533D01*
X174952504Y-131565182D01*
X174731690Y-131563864D01*
X174532473Y-131563701D01*
X174361256Y-131564815D01*
X174224440Y-131567331D01*
X174208313Y-131567804D01*
X173639344Y-131585493D01*
X173623729Y-131881478D01*
X173618496Y-132042826D01*
X173617433Y-132229645D01*
X173620538Y-132412350D01*
G36*
X173584675Y-120073295D02*
G01*
X173606966Y-120179766D01*
X173638949Y-120304563D01*
X173676392Y-120433138D01*
X173715067Y-120550948D01*
X173750744Y-120643445D01*
X173778599Y-120695365D01*
X173820900Y-120718438D01*
X173900280Y-120721210D01*
X173944946Y-120716929D01*
X174025916Y-120705236D01*
X174081030Y-120693348D01*
X174093598Y-120687996D01*
X174086788Y-120660261D01*
X174054301Y-120606181D01*
X174038122Y-120583606D01*
X173960447Y-120450832D01*
X173901639Y-120293504D01*
X173864209Y-120126355D01*
X173850669Y-119964116D01*
X173863530Y-119821519D01*
X173893253Y-119733892D01*
X173978813Y-119623175D01*
X174094126Y-119550777D01*
X174226096Y-119521580D01*
X174361630Y-119540467D01*
X174386672Y-119549882D01*
X174489304Y-119610453D01*
X174618436Y-119716906D01*
X174772346Y-119867662D01*
X174949308Y-120061146D01*
X174963984Y-120077934D01*
X175169605Y-120308657D01*
X175349205Y-120497533D01*
X175508022Y-120648235D01*
X175651298Y-120764432D01*
X175784270Y-120849795D01*
X175912177Y-120907995D01*
X176040260Y-120942703D01*
X176173757Y-120957589D01*
X176221247Y-120958787D01*
X176413808Y-120944177D01*
X176573736Y-120895754D01*
X176703049Y-120810736D01*
X176803761Y-120686337D01*
X176877890Y-120519774D01*
X176927451Y-120308263D01*
X176954460Y-120049021D01*
X176959158Y-119939891D01*
X176961548Y-119795171D01*
X176960379Y-119661944D01*
X176955993Y-119554462D01*
X176948735Y-119486975D01*
X176948180Y-119484347D01*
X176878945Y-119295297D01*
X176763998Y-119132315D01*
X176608323Y-118999590D01*
X176416907Y-118901308D01*
X176194733Y-118841658D01*
X176180452Y-118839386D01*
X176065142Y-118821735D01*
X175980288Y-118970043D01*
X175935436Y-119053176D01*
X175904681Y-119119244D01*
X175895435Y-119149502D01*
X175921327Y-119168941D01*
X175992998Y-119179544D01*
X176040381Y-119180921D01*
X176225418Y-119205855D01*
X176384770Y-119276936D01*
X176512713Y-119389677D01*
X176603522Y-119539592D01*
X176638839Y-119650000D01*
X176663439Y-119828503D01*
X176663703Y-120023721D01*
X176641603Y-120218315D01*
X176599112Y-120394941D01*
X176538205Y-120536258D01*
X176537947Y-120536696D01*
X176454152Y-120627679D01*
X176338385Y-120679732D01*
X176199156Y-120691478D01*
X176044976Y-120661537D01*
X175963348Y-120629779D01*
X175905867Y-120592032D01*
X175814840Y-120517037D01*
X175694059Y-120408226D01*
X175547316Y-120269032D01*
X175378401Y-120102886D01*
X175350995Y-120075459D01*
X175143307Y-119869851D01*
X174967047Y-119702152D01*
X174817159Y-119568823D01*
X174688588Y-119466326D01*
X174576277Y-119391122D01*
X174475170Y-119339673D01*
X174380213Y-119308440D01*
X174286348Y-119293885D01*
X174231124Y-119291693D01*
X174080806Y-119307999D01*
X173948050Y-119362824D01*
X173818219Y-119462773D01*
X173788854Y-119491215D01*
X173670789Y-119646542D01*
X173598345Y-119826108D01*
X173576305Y-119999696D01*
X173584675Y-120073295D01*
G37*
X173584675Y-120073295D02*
X173606966Y-120179766D01*
X173638949Y-120304563D01*
X173676392Y-120433138D01*
X173715067Y-120550948D01*
X173750744Y-120643445D01*
X173778599Y-120695365D01*
X173820900Y-120718438D01*
X173900280Y-120721210D01*
X173944946Y-120716929D01*
X174025916Y-120705236D01*
X174081030Y-120693348D01*
X174093598Y-120687996D01*
X174086788Y-120660261D01*
X174054301Y-120606181D01*
X174038122Y-120583606D01*
X173960447Y-120450832D01*
X173901639Y-120293504D01*
X173864209Y-120126355D01*
X173850669Y-119964116D01*
X173863530Y-119821519D01*
X173893253Y-119733892D01*
X173978813Y-119623175D01*
X174094126Y-119550777D01*
X174226096Y-119521580D01*
X174361630Y-119540467D01*
X174386672Y-119549882D01*
X174489304Y-119610453D01*
X174618436Y-119716906D01*
X174772346Y-119867662D01*
X174949308Y-120061146D01*
X174963984Y-120077934D01*
X175169605Y-120308657D01*
X175349205Y-120497533D01*
X175508022Y-120648235D01*
X175651298Y-120764432D01*
X175784270Y-120849795D01*
X175912177Y-120907995D01*
X176040260Y-120942703D01*
X176173757Y-120957589D01*
X176221247Y-120958787D01*
X176413808Y-120944177D01*
X176573736Y-120895754D01*
X176703049Y-120810736D01*
X176803761Y-120686337D01*
X176877890Y-120519774D01*
X176927451Y-120308263D01*
X176954460Y-120049021D01*
X176959158Y-119939891D01*
X176961548Y-119795171D01*
X176960379Y-119661944D01*
X176955993Y-119554462D01*
X176948735Y-119486975D01*
X176948180Y-119484347D01*
X176878945Y-119295297D01*
X176763998Y-119132315D01*
X176608323Y-118999590D01*
X176416907Y-118901308D01*
X176194733Y-118841658D01*
X176180452Y-118839386D01*
X176065142Y-118821735D01*
X175980288Y-118970043D01*
X175935436Y-119053176D01*
X175904681Y-119119244D01*
X175895435Y-119149502D01*
X175921327Y-119168941D01*
X175992998Y-119179544D01*
X176040381Y-119180921D01*
X176225418Y-119205855D01*
X176384770Y-119276936D01*
X176512713Y-119389677D01*
X176603522Y-119539592D01*
X176638839Y-119650000D01*
X176663439Y-119828503D01*
X176663703Y-120023721D01*
X176641603Y-120218315D01*
X176599112Y-120394941D01*
X176538205Y-120536258D01*
X176537947Y-120536696D01*
X176454152Y-120627679D01*
X176338385Y-120679732D01*
X176199156Y-120691478D01*
X176044976Y-120661537D01*
X175963348Y-120629779D01*
X175905867Y-120592032D01*
X175814840Y-120517037D01*
X175694059Y-120408226D01*
X175547316Y-120269032D01*
X175378401Y-120102886D01*
X175350995Y-120075459D01*
X175143307Y-119869851D01*
X174967047Y-119702152D01*
X174817159Y-119568823D01*
X174688588Y-119466326D01*
X174576277Y-119391122D01*
X174475170Y-119339673D01*
X174380213Y-119308440D01*
X174286348Y-119293885D01*
X174231124Y-119291693D01*
X174080806Y-119307999D01*
X173948050Y-119362824D01*
X173818219Y-119462773D01*
X173788854Y-119491215D01*
X173670789Y-119646542D01*
X173598345Y-119826108D01*
X173576305Y-119999696D01*
X173584675Y-120073295D01*
G36*
X173394995Y-124735052D02*
G01*
X173503484Y-124755165D01*
X173567338Y-124784885D01*
X173597110Y-124831990D01*
X173603490Y-124888750D01*
X173612938Y-124941108D01*
X173633341Y-124947211D01*
X173654365Y-124911753D01*
X173664284Y-124861141D01*
X173672018Y-124810534D01*
X173692040Y-124781873D01*
X173738242Y-124766343D01*
X173824516Y-124755128D01*
X173832752Y-124754241D01*
X173928123Y-124740941D01*
X173990236Y-124726475D01*
X174013424Y-124713503D01*
X173992020Y-124704682D01*
X173943270Y-124702391D01*
X173811915Y-124694487D01*
X173726468Y-124668748D01*
X173679641Y-124622138D01*
X173667931Y-124587643D01*
X173647661Y-124522360D01*
X173624888Y-124493404D01*
X173607758Y-124506543D01*
X173603490Y-124542012D01*
X173595245Y-124606350D01*
X173564217Y-124647519D01*
X173499400Y-124673463D01*
X173396848Y-124691199D01*
X173231196Y-124713220D01*
X173394995Y-124735052D01*
G37*
X173394995Y-124735052D02*
X173503484Y-124755165D01*
X173567338Y-124784885D01*
X173597110Y-124831990D01*
X173603490Y-124888750D01*
X173612938Y-124941108D01*
X173633341Y-124947211D01*
X173654365Y-124911753D01*
X173664284Y-124861141D01*
X173672018Y-124810534D01*
X173692040Y-124781873D01*
X173738242Y-124766343D01*
X173824516Y-124755128D01*
X173832752Y-124754241D01*
X173928123Y-124740941D01*
X173990236Y-124726475D01*
X174013424Y-124713503D01*
X173992020Y-124704682D01*
X173943270Y-124702391D01*
X173811915Y-124694487D01*
X173726468Y-124668748D01*
X173679641Y-124622138D01*
X173667931Y-124587643D01*
X173647661Y-124522360D01*
X173624888Y-124493404D01*
X173607758Y-124506543D01*
X173603490Y-124542012D01*
X173595245Y-124606350D01*
X173564217Y-124647519D01*
X173499400Y-124673463D01*
X173396848Y-124691199D01*
X173231196Y-124713220D01*
X173394995Y-124735052D01*
D10*
X125700000Y-101671428D02*
X125700000Y-102100000D01*
X125728571Y-102185714D01*
X125785714Y-102242857D01*
X125871428Y-102271428D01*
X125928571Y-102271428D01*
X125157142Y-101871428D02*
X125157142Y-102271428D01*
X125300000Y-101642857D02*
X125442857Y-102071428D01*
X125071428Y-102071428D01*
X131400000Y-94214285D02*
X131428571Y-94242857D01*
X131514285Y-94271428D01*
X131571428Y-94271428D01*
X131657142Y-94242857D01*
X131714285Y-94185714D01*
X131742857Y-94128571D01*
X131771428Y-94014285D01*
X131771428Y-93928571D01*
X131742857Y-93814285D01*
X131714285Y-93757142D01*
X131657142Y-93700000D01*
X131571428Y-93671428D01*
X131514285Y-93671428D01*
X131428571Y-93700000D01*
X131400000Y-93728571D01*
X130828571Y-94271428D02*
X131171428Y-94271428D01*
X131000000Y-94271428D02*
X131000000Y-93671428D01*
X131057142Y-93757142D01*
X131114285Y-93814285D01*
X131171428Y-93842857D01*
X123450000Y-114539285D02*
X123478571Y-114567857D01*
X123564285Y-114596428D01*
X123621428Y-114596428D01*
X123707142Y-114567857D01*
X123764285Y-114510714D01*
X123792857Y-114453571D01*
X123821428Y-114339285D01*
X123821428Y-114253571D01*
X123792857Y-114139285D01*
X123764285Y-114082142D01*
X123707142Y-114025000D01*
X123621428Y-113996428D01*
X123564285Y-113996428D01*
X123478571Y-114025000D01*
X123450000Y-114053571D01*
X123221428Y-114053571D02*
X123192857Y-114025000D01*
X123135714Y-113996428D01*
X122992857Y-113996428D01*
X122935714Y-114025000D01*
X122907142Y-114053571D01*
X122878571Y-114110714D01*
X122878571Y-114167857D01*
X122907142Y-114253571D01*
X123250000Y-114596428D01*
X122878571Y-114596428D01*
X123625000Y-107439285D02*
X123653571Y-107467857D01*
X123739285Y-107496428D01*
X123796428Y-107496428D01*
X123882142Y-107467857D01*
X123939285Y-107410714D01*
X123967857Y-107353571D01*
X123996428Y-107239285D01*
X123996428Y-107153571D01*
X123967857Y-107039285D01*
X123939285Y-106982142D01*
X123882142Y-106925000D01*
X123796428Y-106896428D01*
X123739285Y-106896428D01*
X123653571Y-106925000D01*
X123625000Y-106953571D01*
X123425000Y-106896428D02*
X123053571Y-106896428D01*
X123253571Y-107125000D01*
X123167857Y-107125000D01*
X123110714Y-107153571D01*
X123082142Y-107182142D01*
X123053571Y-107239285D01*
X123053571Y-107382142D01*
X123082142Y-107439285D01*
X123110714Y-107467857D01*
X123167857Y-107496428D01*
X123339285Y-107496428D01*
X123396428Y-107467857D01*
X123425000Y-107439285D01*
X131742857Y-92671428D02*
X131742857Y-92071428D01*
X131600000Y-92071428D01*
X131514285Y-92100000D01*
X131457142Y-92157142D01*
X131428571Y-92214285D01*
X131400000Y-92328571D01*
X131400000Y-92414285D01*
X131428571Y-92528571D01*
X131457142Y-92585714D01*
X131514285Y-92642857D01*
X131600000Y-92671428D01*
X131742857Y-92671428D01*
X130828571Y-92671428D02*
X131171428Y-92671428D01*
X131000000Y-92671428D02*
X131000000Y-92071428D01*
X131057142Y-92157142D01*
X131114285Y-92214285D01*
X131171428Y-92242857D01*
X123832857Y-113296428D02*
X123832857Y-112696428D01*
X123690000Y-112696428D01*
X123604285Y-112725000D01*
X123547142Y-112782142D01*
X123518571Y-112839285D01*
X123490000Y-112953571D01*
X123490000Y-113039285D01*
X123518571Y-113153571D01*
X123547142Y-113210714D01*
X123604285Y-113267857D01*
X123690000Y-113296428D01*
X123832857Y-113296428D01*
X123261428Y-112753571D02*
X123232857Y-112725000D01*
X123175714Y-112696428D01*
X123032857Y-112696428D01*
X122975714Y-112725000D01*
X122947142Y-112753571D01*
X122918571Y-112810714D01*
X122918571Y-112867857D01*
X122947142Y-112953571D01*
X123290000Y-113296428D01*
X122918571Y-113296428D01*
X123917857Y-108671428D02*
X123917857Y-108071428D01*
X123775000Y-108071428D01*
X123689285Y-108100000D01*
X123632142Y-108157142D01*
X123603571Y-108214285D01*
X123575000Y-108328571D01*
X123575000Y-108414285D01*
X123603571Y-108528571D01*
X123632142Y-108585714D01*
X123689285Y-108642857D01*
X123775000Y-108671428D01*
X123917857Y-108671428D01*
X123375000Y-108071428D02*
X123003571Y-108071428D01*
X123203571Y-108300000D01*
X123117857Y-108300000D01*
X123060714Y-108328571D01*
X123032142Y-108357142D01*
X123003571Y-108414285D01*
X123003571Y-108557142D01*
X123032142Y-108614285D01*
X123060714Y-108642857D01*
X123117857Y-108671428D01*
X123289285Y-108671428D01*
X123346428Y-108642857D01*
X123375000Y-108614285D01*
X124642857Y-103081428D02*
X124642857Y-102481428D01*
X124500000Y-102481428D01*
X124414285Y-102510000D01*
X124357142Y-102567142D01*
X124328571Y-102624285D01*
X124300000Y-102738571D01*
X124300000Y-102824285D01*
X124328571Y-102938571D01*
X124357142Y-102995714D01*
X124414285Y-103052857D01*
X124500000Y-103081428D01*
X124642857Y-103081428D01*
X123757142Y-102481428D02*
X124042857Y-102481428D01*
X124071428Y-102767142D01*
X124042857Y-102738571D01*
X123985714Y-102710000D01*
X123842857Y-102710000D01*
X123785714Y-102738571D01*
X123757142Y-102767142D01*
X123728571Y-102824285D01*
X123728571Y-102967142D01*
X123757142Y-103024285D01*
X123785714Y-103052857D01*
X123842857Y-103081428D01*
X123985714Y-103081428D01*
X124042857Y-103052857D01*
X124071428Y-103024285D01*
X127142857Y-88095142D02*
X127342857Y-88095142D01*
X127342857Y-88409428D02*
X127342857Y-87809428D01*
X127057142Y-87809428D01*
X126828571Y-88409428D02*
X126828571Y-87809428D01*
X126542857Y-88409428D02*
X126542857Y-87809428D01*
X126400000Y-87809428D01*
X126314285Y-87838000D01*
X126257142Y-87895142D01*
X126228571Y-87952285D01*
X126200000Y-88066571D01*
X126200000Y-88152285D01*
X126228571Y-88266571D01*
X126257142Y-88323714D01*
X126314285Y-88380857D01*
X126400000Y-88409428D01*
X126542857Y-88409428D01*
X125685714Y-88009428D02*
X125685714Y-88409428D01*
X125828571Y-87780857D02*
X125971428Y-88209428D01*
X125600000Y-88209428D01*
X175568857Y-75957142D02*
X175768857Y-75957142D01*
X175768857Y-76271428D02*
X175768857Y-75671428D01*
X175483142Y-75671428D01*
X175254571Y-76271428D02*
X175254571Y-75671428D01*
X174968857Y-76271428D02*
X174968857Y-75671428D01*
X174826000Y-75671428D01*
X174740285Y-75700000D01*
X174683142Y-75757142D01*
X174654571Y-75814285D01*
X174626000Y-75928571D01*
X174626000Y-76014285D01*
X174654571Y-76128571D01*
X174683142Y-76185714D01*
X174740285Y-76242857D01*
X174826000Y-76271428D01*
X174968857Y-76271428D01*
X174083142Y-75671428D02*
X174368857Y-75671428D01*
X174397428Y-75957142D01*
X174368857Y-75928571D01*
X174311714Y-75900000D01*
X174168857Y-75900000D01*
X174111714Y-75928571D01*
X174083142Y-75957142D01*
X174054571Y-76014285D01*
X174054571Y-76157142D01*
X174083142Y-76214285D01*
X174111714Y-76242857D01*
X174168857Y-76271428D01*
X174311714Y-76271428D01*
X174368857Y-76242857D01*
X174397428Y-76214285D01*
X175642857Y-134457142D02*
X175842857Y-134457142D01*
X175842857Y-134771428D02*
X175842857Y-134171428D01*
X175557142Y-134171428D01*
X175328571Y-134771428D02*
X175328571Y-134171428D01*
X175042857Y-134771428D02*
X175042857Y-134171428D01*
X174900000Y-134171428D01*
X174814285Y-134200000D01*
X174757142Y-134257142D01*
X174728571Y-134314285D01*
X174700000Y-134428571D01*
X174700000Y-134514285D01*
X174728571Y-134628571D01*
X174757142Y-134685714D01*
X174814285Y-134742857D01*
X174900000Y-134771428D01*
X175042857Y-134771428D01*
X174185714Y-134171428D02*
X174300000Y-134171428D01*
X174357142Y-134200000D01*
X174385714Y-134228571D01*
X174442857Y-134314285D01*
X174471428Y-134428571D01*
X174471428Y-134657142D01*
X174442857Y-134714285D01*
X174414285Y-134742857D01*
X174357142Y-134771428D01*
X174242857Y-134771428D01*
X174185714Y-134742857D01*
X174157142Y-134714285D01*
X174128571Y-134657142D01*
X174128571Y-134514285D01*
X174157142Y-134457142D01*
X174185714Y-134428571D01*
X174242857Y-134400000D01*
X174357142Y-134400000D01*
X174414285Y-134428571D01*
X174442857Y-134457142D01*
X174471428Y-134514285D01*
X168100000Y-127371428D02*
X168100000Y-127800000D01*
X168128571Y-127885714D01*
X168185714Y-127942857D01*
X168271428Y-127971428D01*
X168328571Y-127971428D01*
X167871428Y-127371428D02*
X167500000Y-127371428D01*
X167700000Y-127600000D01*
X167614285Y-127600000D01*
X167557142Y-127628571D01*
X167528571Y-127657142D01*
X167500000Y-127714285D01*
X167500000Y-127857142D01*
X167528571Y-127914285D01*
X167557142Y-127942857D01*
X167614285Y-127971428D01*
X167785714Y-127971428D01*
X167842857Y-127942857D01*
X167871428Y-127914285D01*
X168100000Y-135071428D02*
X168100000Y-135500000D01*
X168128571Y-135585714D01*
X168185714Y-135642857D01*
X168271428Y-135671428D01*
X168328571Y-135671428D01*
X167557142Y-135071428D02*
X167671428Y-135071428D01*
X167728571Y-135100000D01*
X167757142Y-135128571D01*
X167814285Y-135214285D01*
X167842857Y-135328571D01*
X167842857Y-135557142D01*
X167814285Y-135614285D01*
X167785714Y-135642857D01*
X167728571Y-135671428D01*
X167614285Y-135671428D01*
X167557142Y-135642857D01*
X167528571Y-135614285D01*
X167500000Y-135557142D01*
X167500000Y-135414285D01*
X167528571Y-135357142D01*
X167557142Y-135328571D01*
X167614285Y-135300000D01*
X167728571Y-135300000D01*
X167785714Y-135328571D01*
X167814285Y-135357142D01*
X167842857Y-135414285D01*
X155936428Y-133865000D02*
X155936428Y-133579285D01*
X155336428Y-133579285D01*
X155936428Y-134379285D02*
X155936428Y-134036428D01*
X155936428Y-134207857D02*
X155336428Y-134207857D01*
X155422142Y-134150714D01*
X155479285Y-134093571D01*
X155507857Y-134036428D01*
X138892857Y-93746428D02*
X138892857Y-93146428D01*
X138750000Y-93146428D01*
X138664285Y-93175000D01*
X138607142Y-93232142D01*
X138578571Y-93289285D01*
X138550000Y-93403571D01*
X138550000Y-93489285D01*
X138578571Y-93603571D01*
X138607142Y-93660714D01*
X138664285Y-93717857D01*
X138750000Y-93746428D01*
X138892857Y-93746428D01*
X138035714Y-93146428D02*
X138150000Y-93146428D01*
X138207142Y-93175000D01*
X138235714Y-93203571D01*
X138292857Y-93289285D01*
X138321428Y-93403571D01*
X138321428Y-93632142D01*
X138292857Y-93689285D01*
X138264285Y-93717857D01*
X138207142Y-93746428D01*
X138092857Y-93746428D01*
X138035714Y-93717857D01*
X138007142Y-93689285D01*
X137978571Y-93632142D01*
X137978571Y-93489285D01*
X138007142Y-93432142D01*
X138035714Y-93403571D01*
X138092857Y-93375000D01*
X138207142Y-93375000D01*
X138264285Y-93403571D01*
X138292857Y-93432142D01*
X138321428Y-93489285D01*
X131967857Y-111523428D02*
X131967857Y-110923428D01*
X131825000Y-110923428D01*
X131739285Y-110952000D01*
X131682142Y-111009142D01*
X131653571Y-111066285D01*
X131625000Y-111180571D01*
X131625000Y-111266285D01*
X131653571Y-111380571D01*
X131682142Y-111437714D01*
X131739285Y-111494857D01*
X131825000Y-111523428D01*
X131967857Y-111523428D01*
X131425000Y-110923428D02*
X131025000Y-110923428D01*
X131282142Y-111523428D01*
X134345428Y-92831142D02*
X133745428Y-92831142D01*
X134345428Y-93174000D02*
X134002571Y-92916857D01*
X133745428Y-93174000D02*
X134088285Y-92831142D01*
X134345428Y-93745428D02*
X134345428Y-93402571D01*
X134345428Y-93574000D02*
X133745428Y-93574000D01*
X133831142Y-93516857D01*
X133888285Y-93459714D01*
X133916857Y-93402571D01*
M02*
