G04 #@! TF.GenerationSoftware,KiCad,Pcbnew,6.0.2+dfsg-1*
G04 #@! TF.CreationDate,2022-08-12T21:34:54-04:00*
G04 #@! TF.ProjectId,RUSP_Faceplate,52555350-5f46-4616-9365-706c6174652e,rev?*
G04 #@! TF.SameCoordinates,Original*
G04 #@! TF.FileFunction,Legend,Bot*
G04 #@! TF.FilePolarity,Positive*
%FSLAX46Y46*%
G04 Gerber Fmt 4.6, Leading zero omitted, Abs format (unit mm)*
G04 Created by KiCad (PCBNEW 6.0.2+dfsg-1) date 2022-08-12 21:34:54*
%MOMM*%
%LPD*%
G01*
G04 APERTURE LIST*
%ADD10C,0.200000*%
%ADD11C,0.150000*%
G04 APERTURE END LIST*
D10*
X122144380Y-86827619D02*
X122858666Y-86827619D01*
X123001523Y-86780000D01*
X123096761Y-86684761D01*
X123144380Y-86541904D01*
X123144380Y-86446666D01*
X123049142Y-87303809D02*
X123096761Y-87351428D01*
X123144380Y-87303809D01*
X123096761Y-87256190D01*
X123049142Y-87303809D01*
X123144380Y-87303809D01*
X123144380Y-88541904D02*
X122144380Y-88541904D01*
X122620571Y-88541904D02*
X122620571Y-89113333D01*
X123144380Y-89113333D02*
X122144380Y-89113333D01*
X122858666Y-89541904D02*
X122858666Y-90018095D01*
X123144380Y-89446666D02*
X122144380Y-89780000D01*
X123144380Y-90113333D01*
X122144380Y-90446666D02*
X122953904Y-90446666D01*
X123049142Y-90494285D01*
X123096761Y-90541904D01*
X123144380Y-90637142D01*
X123144380Y-90827619D01*
X123096761Y-90922857D01*
X123049142Y-90970476D01*
X122953904Y-91018095D01*
X122144380Y-91018095D01*
X123144380Y-91494285D02*
X122144380Y-91494285D01*
X122144380Y-91875238D01*
X122192000Y-91970476D01*
X122239619Y-92018095D01*
X122334857Y-92065714D01*
X122477714Y-92065714D01*
X122572952Y-92018095D01*
X122620571Y-91970476D01*
X122668190Y-91875238D01*
X122668190Y-91494285D01*
X122144380Y-92351428D02*
X122144380Y-92922857D01*
X123144380Y-92637142D02*
X122144380Y-92637142D01*
X122763428Y-94018095D02*
X122763428Y-94780000D01*
X123144380Y-96589523D02*
X122668190Y-96256190D01*
X123144380Y-96018095D02*
X122144380Y-96018095D01*
X122144380Y-96399047D01*
X122192000Y-96494285D01*
X122239619Y-96541904D01*
X122334857Y-96589523D01*
X122477714Y-96589523D01*
X122572952Y-96541904D01*
X122620571Y-96494285D01*
X122668190Y-96399047D01*
X122668190Y-96018095D01*
X123096761Y-97399047D02*
X123144380Y-97303809D01*
X123144380Y-97113333D01*
X123096761Y-97018095D01*
X123001523Y-96970476D01*
X122620571Y-96970476D01*
X122525333Y-97018095D01*
X122477714Y-97113333D01*
X122477714Y-97303809D01*
X122525333Y-97399047D01*
X122620571Y-97446666D01*
X122715809Y-97446666D01*
X122811047Y-96970476D01*
X122477714Y-97780000D02*
X123144380Y-98018095D01*
X122477714Y-98256190D01*
X122858666Y-98589523D02*
X122858666Y-99065714D01*
X123144380Y-98494285D02*
X122144380Y-98827619D01*
X123144380Y-99160952D01*
X166244380Y-87132380D02*
X165768190Y-86799047D01*
X166244380Y-86560952D02*
X165244380Y-86560952D01*
X165244380Y-86941904D01*
X165292000Y-87037142D01*
X165339619Y-87084761D01*
X165434857Y-87132380D01*
X165577714Y-87132380D01*
X165672952Y-87084761D01*
X165720571Y-87037142D01*
X165768190Y-86941904D01*
X165768190Y-86560952D01*
X165244380Y-87560952D02*
X166053904Y-87560952D01*
X166149142Y-87608571D01*
X166196761Y-87656190D01*
X166244380Y-87751428D01*
X166244380Y-87941904D01*
X166196761Y-88037142D01*
X166149142Y-88084761D01*
X166053904Y-88132380D01*
X165244380Y-88132380D01*
X166196761Y-88560952D02*
X166244380Y-88703809D01*
X166244380Y-88941904D01*
X166196761Y-89037142D01*
X166149142Y-89084761D01*
X166053904Y-89132380D01*
X165958666Y-89132380D01*
X165863428Y-89084761D01*
X165815809Y-89037142D01*
X165768190Y-88941904D01*
X165720571Y-88751428D01*
X165672952Y-88656190D01*
X165625333Y-88608571D01*
X165530095Y-88560952D01*
X165434857Y-88560952D01*
X165339619Y-88608571D01*
X165292000Y-88656190D01*
X165244380Y-88751428D01*
X165244380Y-88989523D01*
X165292000Y-89132380D01*
X166244380Y-89560952D02*
X165244380Y-89560952D01*
X165244380Y-89941904D01*
X165292000Y-90037142D01*
X165339619Y-90084761D01*
X165434857Y-90132380D01*
X165577714Y-90132380D01*
X165672952Y-90084761D01*
X165720571Y-90037142D01*
X165768190Y-89941904D01*
X165768190Y-89560952D01*
X165720571Y-91656190D02*
X165720571Y-91322857D01*
X166244380Y-91322857D02*
X165244380Y-91322857D01*
X165244380Y-91799047D01*
X165958666Y-92132380D02*
X165958666Y-92608571D01*
X166244380Y-92037142D02*
X165244380Y-92370476D01*
X166244380Y-92703809D01*
X166149142Y-93608571D02*
X166196761Y-93560952D01*
X166244380Y-93418095D01*
X166244380Y-93322857D01*
X166196761Y-93180000D01*
X166101523Y-93084761D01*
X166006285Y-93037142D01*
X165815809Y-92989523D01*
X165672952Y-92989523D01*
X165482476Y-93037142D01*
X165387238Y-93084761D01*
X165292000Y-93180000D01*
X165244380Y-93322857D01*
X165244380Y-93418095D01*
X165292000Y-93560952D01*
X165339619Y-93608571D01*
X165720571Y-94037142D02*
X165720571Y-94370476D01*
X166244380Y-94513333D02*
X166244380Y-94037142D01*
X165244380Y-94037142D01*
X165244380Y-94513333D01*
X166244380Y-94941904D02*
X165244380Y-94941904D01*
X165244380Y-95322857D01*
X165292000Y-95418095D01*
X165339619Y-95465714D01*
X165434857Y-95513333D01*
X165577714Y-95513333D01*
X165672952Y-95465714D01*
X165720571Y-95418095D01*
X165768190Y-95322857D01*
X165768190Y-94941904D01*
X166244380Y-96418095D02*
X166244380Y-95941904D01*
X165244380Y-95941904D01*
X165958666Y-96703809D02*
X165958666Y-97180000D01*
X166244380Y-96608571D02*
X165244380Y-96941904D01*
X166244380Y-97275238D01*
X165244380Y-97465714D02*
X165244380Y-98037142D01*
X166244380Y-97751428D02*
X165244380Y-97751428D01*
X165720571Y-98370476D02*
X165720571Y-98703809D01*
X166244380Y-98846666D02*
X166244380Y-98370476D01*
X165244380Y-98370476D01*
X165244380Y-98846666D01*
D11*
X147845333Y-99668571D02*
X148178666Y-99668571D01*
X148178666Y-100192380D02*
X148178666Y-99192380D01*
X147702476Y-99192380D01*
X147369142Y-99906666D02*
X146892952Y-99906666D01*
X147464380Y-100192380D02*
X147131047Y-99192380D01*
X146797714Y-100192380D01*
X146131047Y-99668571D02*
X145988190Y-99716190D01*
X145940571Y-99763809D01*
X145892952Y-99859047D01*
X145892952Y-100001904D01*
X145940571Y-100097142D01*
X145988190Y-100144761D01*
X146083428Y-100192380D01*
X146464380Y-100192380D01*
X146464380Y-99192380D01*
X146131047Y-99192380D01*
X146035809Y-99240000D01*
X145988190Y-99287619D01*
X145940571Y-99382857D01*
X145940571Y-99478095D01*
X145988190Y-99573333D01*
X146035809Y-99620952D01*
X146131047Y-99668571D01*
X146464380Y-99668571D01*
X145464380Y-99811428D02*
X144702476Y-99811428D01*
X143892952Y-99668571D02*
X143750095Y-99716190D01*
X143702476Y-99763809D01*
X143654857Y-99859047D01*
X143654857Y-100001904D01*
X143702476Y-100097142D01*
X143750095Y-100144761D01*
X143845333Y-100192380D01*
X144226285Y-100192380D01*
X144226285Y-99192380D01*
X143892952Y-99192380D01*
X143797714Y-99240000D01*
X143750095Y-99287619D01*
X143702476Y-99382857D01*
X143702476Y-99478095D01*
X143750095Y-99573333D01*
X143797714Y-99620952D01*
X143892952Y-99668571D01*
X144226285Y-99668571D01*
X143273904Y-99906666D02*
X142797714Y-99906666D01*
X143369142Y-100192380D02*
X143035809Y-99192380D01*
X142702476Y-100192380D01*
X141797714Y-100097142D02*
X141845333Y-100144761D01*
X141988190Y-100192380D01*
X142083428Y-100192380D01*
X142226285Y-100144761D01*
X142321523Y-100049523D01*
X142369142Y-99954285D01*
X142416761Y-99763809D01*
X142416761Y-99620952D01*
X142369142Y-99430476D01*
X142321523Y-99335238D01*
X142226285Y-99240000D01*
X142083428Y-99192380D01*
X141988190Y-99192380D01*
X141845333Y-99240000D01*
X141797714Y-99287619D01*
X141369142Y-100192380D02*
X141369142Y-99192380D01*
X140797714Y-100192380D02*
X141226285Y-99620952D01*
X140797714Y-99192380D02*
X141369142Y-99763809D01*
G04 #@! TO.C,H2*
X119053904Y-86132380D02*
X119053904Y-85132380D01*
X119053904Y-85608571D02*
X118482476Y-85608571D01*
X118482476Y-86132380D02*
X118482476Y-85132380D01*
X118053904Y-85227619D02*
X118006285Y-85180000D01*
X117911047Y-85132380D01*
X117672952Y-85132380D01*
X117577714Y-85180000D01*
X117530095Y-85227619D01*
X117482476Y-85322857D01*
X117482476Y-85418095D01*
X117530095Y-85560952D01*
X118101523Y-86132380D01*
X117482476Y-86132380D01*
G04 #@! TO.C,H1*
X131553904Y-76632380D02*
X131553904Y-75632380D01*
X131553904Y-76108571D02*
X130982476Y-76108571D01*
X130982476Y-76632380D02*
X130982476Y-75632380D01*
X129982476Y-76632380D02*
X130553904Y-76632380D01*
X130268190Y-76632380D02*
X130268190Y-75632380D01*
X130363428Y-75775238D01*
X130458666Y-75870476D01*
X130553904Y-75918095D01*
G04 #@! TO.C,FID3*
X142863428Y-68608571D02*
X143196761Y-68608571D01*
X143196761Y-69132380D02*
X143196761Y-68132380D01*
X142720571Y-68132380D01*
X142339619Y-69132380D02*
X142339619Y-68132380D01*
X141863428Y-69132380D02*
X141863428Y-68132380D01*
X141625333Y-68132380D01*
X141482476Y-68180000D01*
X141387238Y-68275238D01*
X141339619Y-68370476D01*
X141292000Y-68560952D01*
X141292000Y-68703809D01*
X141339619Y-68894285D01*
X141387238Y-68989523D01*
X141482476Y-69084761D01*
X141625333Y-69132380D01*
X141863428Y-69132380D01*
X140958666Y-68132380D02*
X140339619Y-68132380D01*
X140672952Y-68513333D01*
X140530095Y-68513333D01*
X140434857Y-68560952D01*
X140387238Y-68608571D01*
X140339619Y-68703809D01*
X140339619Y-68941904D01*
X140387238Y-69037142D01*
X140434857Y-69084761D01*
X140530095Y-69132380D01*
X140815809Y-69132380D01*
X140911047Y-69084761D01*
X140958666Y-69037142D01*
G04 #@! TO.C,H3*
X154685904Y-103830380D02*
X154685904Y-102830380D01*
X154685904Y-103306571D02*
X154114476Y-103306571D01*
X154114476Y-103830380D02*
X154114476Y-102830380D01*
X153733523Y-102830380D02*
X153114476Y-102830380D01*
X153447809Y-103211333D01*
X153304952Y-103211333D01*
X153209714Y-103258952D01*
X153162095Y-103306571D01*
X153114476Y-103401809D01*
X153114476Y-103639904D01*
X153162095Y-103735142D01*
X153209714Y-103782761D01*
X153304952Y-103830380D01*
X153590666Y-103830380D01*
X153685904Y-103782761D01*
X153733523Y-103735142D01*
G04 #@! TO.C,H5*
X157553904Y-76632380D02*
X157553904Y-75632380D01*
X157553904Y-76108571D02*
X156982476Y-76108571D01*
X156982476Y-76632380D02*
X156982476Y-75632380D01*
X156030095Y-75632380D02*
X156506285Y-75632380D01*
X156553904Y-76108571D01*
X156506285Y-76060952D01*
X156411047Y-76013333D01*
X156172952Y-76013333D01*
X156077714Y-76060952D01*
X156030095Y-76108571D01*
X155982476Y-76203809D01*
X155982476Y-76441904D01*
X156030095Y-76537142D01*
X156077714Y-76584761D01*
X156172952Y-76632380D01*
X156411047Y-76632380D01*
X156506285Y-76584761D01*
X156553904Y-76537142D01*
G04 #@! TO.C,FID1*
X124363428Y-103108571D02*
X124696761Y-103108571D01*
X124696761Y-103632380D02*
X124696761Y-102632380D01*
X124220571Y-102632380D01*
X123839619Y-103632380D02*
X123839619Y-102632380D01*
X123363428Y-103632380D02*
X123363428Y-102632380D01*
X123125333Y-102632380D01*
X122982476Y-102680000D01*
X122887238Y-102775238D01*
X122839619Y-102870476D01*
X122792000Y-103060952D01*
X122792000Y-103203809D01*
X122839619Y-103394285D01*
X122887238Y-103489523D01*
X122982476Y-103584761D01*
X123125333Y-103632380D01*
X123363428Y-103632380D01*
X121839619Y-103632380D02*
X122411047Y-103632380D01*
X122125333Y-103632380D02*
X122125333Y-102632380D01*
X122220571Y-102775238D01*
X122315809Y-102870476D01*
X122411047Y-102918095D01*
G04 #@! TO.C,FID2*
X165863428Y-103108571D02*
X166196761Y-103108571D01*
X166196761Y-103632380D02*
X166196761Y-102632380D01*
X165720571Y-102632380D01*
X165339619Y-103632380D02*
X165339619Y-102632380D01*
X164863428Y-103632380D02*
X164863428Y-102632380D01*
X164625333Y-102632380D01*
X164482476Y-102680000D01*
X164387238Y-102775238D01*
X164339619Y-102870476D01*
X164292000Y-103060952D01*
X164292000Y-103203809D01*
X164339619Y-103394285D01*
X164387238Y-103489523D01*
X164482476Y-103584761D01*
X164625333Y-103632380D01*
X164863428Y-103632380D01*
X163911047Y-102727619D02*
X163863428Y-102680000D01*
X163768190Y-102632380D01*
X163530095Y-102632380D01*
X163434857Y-102680000D01*
X163387238Y-102727619D01*
X163339619Y-102822857D01*
X163339619Y-102918095D01*
X163387238Y-103060952D01*
X163958666Y-103632380D01*
X163339619Y-103632380D01*
G04 #@! TD*
M02*
