G04 #@! TF.GenerationSoftware,KiCad,Pcbnew,6.0.2+dfsg-1*
G04 #@! TF.CreationDate,2022-08-12T21:34:55-04:00*
G04 #@! TF.ProjectId,RUSP_Faceplate,52555350-5f46-4616-9365-706c6174652e,rev?*
G04 #@! TF.SameCoordinates,Original*
G04 #@! TF.FileFunction,Profile,NP*
%FSLAX46Y46*%
G04 Gerber Fmt 4.6, Leading zero omitted, Abs format (unit mm)*
G04 Created by KiCad (PCBNEW 6.0.2+dfsg-1) date 2022-08-12 21:34:55*
%MOMM*%
%LPD*%
G01*
G04 APERTURE LIST*
G04 #@! TA.AperFunction,Profile*
%ADD10C,0.050000*%
G04 #@! TD*
G04 APERTURE END LIST*
D10*
X131848275Y-84469652D02*
X130580000Y-84470000D01*
X131824822Y-86469828D02*
G75*
G03*
X145691999Y-72720001I12967179J789828D01*
G01*
X130580000Y-84470000D02*
G75*
G03*
X130586094Y-86469688I-2017000J-1006000D01*
G01*
X131018000Y-97074000D02*
G75*
G03*
X131018000Y-97074000I-2250000J0D01*
G01*
X143892000Y-71180000D02*
X145692000Y-71180000D01*
X131824821Y-86469828D02*
X130586094Y-86469688D01*
X143892000Y-72711000D02*
G75*
G03*
X131848275Y-84469652I899999J-12968999D01*
G01*
X143892000Y-72711000D02*
X143892000Y-71180000D01*
X145692000Y-71180000D02*
X145691999Y-72720001D01*
X159341999Y-69180001D02*
G75*
G03*
X154052000Y-67180995I-5290000J-6000002D01*
G01*
X121292000Y-90180000D02*
G75*
G03*
X118292000Y-87180000I-3000001J-1D01*
G01*
X116792000Y-87180000D02*
X118292000Y-87180000D01*
X166792000Y-85680000D02*
G75*
G03*
X159342714Y-69179190I-22000005J-2D01*
G01*
X166792000Y-106180000D02*
X121292000Y-106180000D01*
X129292000Y-67180000D02*
G75*
G03*
X126292000Y-70180000I1J-3000001D01*
G01*
X121292000Y-90180000D02*
X121292000Y-106180000D01*
X113792000Y-79680000D02*
X113792000Y-84180000D01*
X126292000Y-73680000D02*
X126292000Y-70180000D01*
X116792000Y-76680000D02*
X123292000Y-76680000D01*
X116792000Y-76680000D02*
G75*
G03*
X113792000Y-79680000I1J-3000001D01*
G01*
X129292000Y-67180000D02*
X154052000Y-67180995D01*
X113792000Y-84180000D02*
G75*
G03*
X116792000Y-87180000I3000001J1D01*
G01*
X166792000Y-85680000D02*
X166792000Y-106180000D01*
X123292000Y-76680000D02*
G75*
G03*
X126292000Y-73680000I-1J3000001D01*
G01*
M02*
