G04 #@! TF.GenerationSoftware,KiCad,Pcbnew,5.1.6+dfsg1-1~bpo10+1*
G04 #@! TF.CreationDate,2021-03-28T20:23:35-04:00*
G04 #@! TF.ProjectId,RUSP_Daughterboard,52555350-5f44-4617-9567-68746572626f,rev?*
G04 #@! TF.SameCoordinates,Original*
G04 #@! TF.FileFunction,Copper,L2,Inr*
G04 #@! TF.FilePolarity,Positive*
%FSLAX46Y46*%
G04 Gerber Fmt 4.6, Leading zero omitted, Abs format (unit mm)*
G04 Created by KiCad (PCBNEW 5.1.6+dfsg1-1~bpo10+1) date 2021-03-28 20:23:35*
%MOMM*%
%LPD*%
G01*
G04 APERTURE LIST*
G04 #@! TA.AperFunction,ViaPad*
%ADD10C,1.408000*%
G04 #@! TD*
G04 #@! TA.AperFunction,ViaPad*
%ADD11C,1.800000*%
G04 #@! TD*
G04 #@! TA.AperFunction,ViaPad*
%ADD12C,0.800000*%
G04 #@! TD*
G04 #@! TA.AperFunction,Conductor*
%ADD13C,0.750000*%
G04 #@! TD*
G04 #@! TA.AperFunction,Conductor*
%ADD14C,0.250000*%
G04 #@! TD*
G04 #@! TA.AperFunction,Conductor*
%ADD15C,0.254000*%
G04 #@! TD*
G04 APERTURE END LIST*
D10*
X125700000Y-99500000D03*
X125700000Y-94500000D03*
D11*
X123000000Y-100500000D03*
X123000000Y-93500000D03*
D12*
X119400000Y-82200000D03*
X120300000Y-71300000D03*
X121300000Y-75400000D03*
X175300000Y-105000000D03*
X176400000Y-104900000D03*
X176700000Y-121400000D03*
X135000000Y-88400000D03*
X124500000Y-112000000D03*
X129000000Y-112300000D03*
X146800000Y-120600000D03*
X149582053Y-123517947D03*
X168185640Y-116452629D03*
X165200000Y-124200000D03*
X127000000Y-98700000D03*
X123500000Y-104500000D03*
X175200000Y-114700000D03*
X162618761Y-131086265D03*
X175200000Y-112100000D03*
X161200000Y-124100000D03*
X134800000Y-71800000D03*
X175100000Y-109600000D03*
X176400000Y-107400000D03*
X131600000Y-102600000D03*
X160200000Y-123600000D03*
X161400000Y-130600000D03*
X124500000Y-73200000D03*
X137900000Y-71000000D03*
X138000000Y-78500000D03*
X172300000Y-109600000D03*
X175200000Y-107500000D03*
X138000000Y-79700000D03*
X159200000Y-133800000D03*
X169100000Y-132700000D03*
X124400000Y-74300000D03*
X169541292Y-113370609D03*
X124600000Y-72100000D03*
X169181336Y-114820523D03*
X163900000Y-127600000D03*
X135800000Y-75900000D03*
X124400000Y-76500000D03*
X172274990Y-112057161D03*
X124800000Y-77500000D03*
X172300000Y-111000000D03*
X135200000Y-78700000D03*
X175100000Y-110900000D03*
X164100000Y-124100000D03*
X164400000Y-134974990D03*
X131974994Y-91346359D03*
X128887660Y-87812340D03*
X128500000Y-113400000D03*
X163200000Y-131900000D03*
X163900000Y-137025010D03*
X132029325Y-112674990D03*
X147571375Y-119928625D03*
X150500000Y-123100000D03*
X162200000Y-134800000D03*
X134891226Y-113875129D03*
X162700000Y-135800000D03*
X175400000Y-121400000D03*
X127000000Y-105900000D03*
X158200000Y-127500000D03*
X128625010Y-98044751D03*
X165029557Y-132760166D03*
X126900000Y-97000000D03*
X167200000Y-136400000D03*
X157400000Y-136100000D03*
X161600000Y-136100000D03*
X124400000Y-78600000D03*
X134900000Y-79800000D03*
X124600000Y-71000000D03*
X135400000Y-71000000D03*
X137500000Y-93100000D03*
X165201292Y-131775010D03*
X145000000Y-116000000D03*
X159755211Y-131280531D03*
X131962261Y-104924990D03*
X167500000Y-126300000D03*
X175100000Y-113400000D03*
X162912653Y-123912653D03*
D13*
X127000000Y-101000000D02*
X123500000Y-104500000D01*
X127000000Y-98700000D02*
X127000000Y-101000000D01*
D14*
X140469862Y-94996860D02*
X137274999Y-91801997D01*
X140469862Y-104899967D02*
X140469862Y-94996860D01*
X137274999Y-91801997D02*
X137274999Y-77374999D01*
X163900000Y-127600000D02*
X163104979Y-126804979D01*
X137274999Y-77374999D02*
X135800000Y-75900000D01*
X162374874Y-126804979D02*
X140469862Y-104899967D01*
X163104979Y-126804979D02*
X162374874Y-126804979D01*
X124800000Y-77500000D02*
X134000000Y-77500000D01*
X134000000Y-77500000D02*
X135200000Y-78700000D01*
X175100000Y-110900000D02*
X164100000Y-121900000D01*
X164100000Y-121900000D02*
X164100000Y-124100000D01*
X131974994Y-99858396D02*
X131974994Y-91346359D01*
X160321599Y-128205001D02*
X131974994Y-99858396D01*
X161905001Y-128205001D02*
X160321599Y-128205001D01*
X164000001Y-134574991D02*
X164000001Y-130300001D01*
X164000001Y-130300001D02*
X161905001Y-128205001D01*
X164400000Y-134974990D02*
X164000001Y-134574991D01*
X157500000Y-128700000D02*
X157600000Y-128800000D01*
X151174999Y-122374999D02*
X157500000Y-128700000D01*
X147501997Y-122374999D02*
X151174999Y-122374999D01*
X140502010Y-115375012D02*
X147501997Y-122374999D01*
X140129599Y-115375012D02*
X140502010Y-115375012D01*
X139454588Y-114700000D02*
X140129599Y-115375012D01*
X134977000Y-114700000D02*
X139454588Y-114700000D01*
X134877000Y-114600000D02*
X134977000Y-114700000D01*
X133600000Y-114600000D02*
X134877000Y-114600000D01*
X132400000Y-113400000D02*
X133600000Y-114600000D01*
X128500000Y-113400000D02*
X132400000Y-113400000D01*
X161400000Y-131900000D02*
X163200000Y-131900000D01*
X158439851Y-128939851D02*
X161400000Y-131900000D01*
X157500000Y-128700000D02*
X157739851Y-128939851D01*
X157739851Y-128939851D02*
X158439851Y-128939851D01*
X147571375Y-119928625D02*
X142567751Y-114925001D01*
X139266127Y-113875129D02*
X134891226Y-113875129D01*
X142567751Y-114925001D02*
X140315999Y-114925001D01*
X140315999Y-114925001D02*
X139266127Y-113875129D01*
X159030210Y-131064525D02*
X159030210Y-131630210D01*
X151065685Y-123100000D02*
X159030210Y-131064525D01*
X159030210Y-131630210D02*
X162200000Y-134800000D01*
X150500000Y-123100000D02*
X151065685Y-123100000D01*
D13*
X136600000Y-105900000D02*
X158200000Y-127500000D01*
X127000000Y-105900000D02*
X136600000Y-105900000D01*
X157799999Y-136499999D02*
X161200001Y-136499999D01*
X157400000Y-136100000D02*
X157799999Y-136499999D01*
X161200001Y-136499999D02*
X161600000Y-136100000D01*
D14*
X125600000Y-79800000D02*
X134900000Y-79800000D01*
X124400000Y-78600000D02*
X125600000Y-79800000D01*
X124600000Y-71000000D02*
X135400000Y-71000000D01*
D13*
X162084920Y-127504990D02*
X162194955Y-127504990D01*
X137500000Y-102920070D02*
X162084920Y-127504990D01*
X137500000Y-93100000D02*
X137500000Y-102920070D01*
X162194955Y-127504990D02*
X165201292Y-130511327D01*
X165201292Y-130511327D02*
X165201292Y-131775010D01*
D15*
G36*
X178290000Y-76294092D02*
G01*
X178290001Y-137290000D01*
X167730971Y-137290000D01*
X167859774Y-137203937D01*
X168003937Y-137059774D01*
X168117205Y-136890256D01*
X168195226Y-136701898D01*
X168235000Y-136501939D01*
X168235000Y-136298061D01*
X168195226Y-136098102D01*
X168117205Y-135909744D01*
X168003937Y-135740226D01*
X167859774Y-135596063D01*
X167690256Y-135482795D01*
X167501898Y-135404774D01*
X167301939Y-135365000D01*
X167098061Y-135365000D01*
X166898102Y-135404774D01*
X166719432Y-135478782D01*
X166755000Y-135299969D01*
X166755000Y-135100031D01*
X166715994Y-134903935D01*
X166639481Y-134719217D01*
X166528402Y-134552975D01*
X166387025Y-134411598D01*
X166220783Y-134300519D01*
X166036065Y-134224006D01*
X165839969Y-134185000D01*
X165640031Y-134185000D01*
X165443935Y-134224006D01*
X165259217Y-134300519D01*
X165214210Y-134330591D01*
X165203937Y-134315216D01*
X165059774Y-134171053D01*
X164890256Y-134057785D01*
X164760001Y-134003831D01*
X164760001Y-133761825D01*
X164927618Y-133795166D01*
X165131496Y-133795166D01*
X165331455Y-133755392D01*
X165519813Y-133677371D01*
X165689331Y-133564103D01*
X165833494Y-133419940D01*
X165946762Y-133250422D01*
X166024783Y-133062064D01*
X166064557Y-132862105D01*
X166064557Y-132658227D01*
X166024783Y-132458268D01*
X166011295Y-132425705D01*
X166118497Y-132265266D01*
X166196518Y-132076908D01*
X166236292Y-131876949D01*
X166236292Y-131673071D01*
X166211292Y-131547387D01*
X166211292Y-130560935D01*
X166216178Y-130511327D01*
X166196677Y-130313332D01*
X166138924Y-130122947D01*
X166112413Y-130073349D01*
X166045139Y-129947487D01*
X165918925Y-129793694D01*
X165880392Y-129762071D01*
X164537285Y-128418964D01*
X164559774Y-128403937D01*
X164703937Y-128259774D01*
X164817205Y-128090256D01*
X164854119Y-128001137D01*
X164951598Y-128147025D01*
X165092975Y-128288402D01*
X165259217Y-128399481D01*
X165443935Y-128475994D01*
X165640031Y-128515000D01*
X165839969Y-128515000D01*
X166036065Y-128475994D01*
X166220783Y-128399481D01*
X166387025Y-128288402D01*
X166528402Y-128147025D01*
X166639481Y-127980783D01*
X166715994Y-127796065D01*
X166755000Y-127599969D01*
X166755000Y-127400031D01*
X166715994Y-127203935D01*
X166639481Y-127019217D01*
X166528402Y-126852975D01*
X166387025Y-126711598D01*
X166220783Y-126600519D01*
X166036065Y-126524006D01*
X165839969Y-126485000D01*
X165640031Y-126485000D01*
X165443935Y-126524006D01*
X165259217Y-126600519D01*
X165092975Y-126711598D01*
X164951598Y-126852975D01*
X164840519Y-127019217D01*
X164808449Y-127096640D01*
X164703937Y-126940226D01*
X164559774Y-126796063D01*
X164390256Y-126682795D01*
X164201898Y-126604774D01*
X164001939Y-126565000D01*
X163939802Y-126565000D01*
X163668782Y-126293981D01*
X163644980Y-126264978D01*
X163563442Y-126198061D01*
X166465000Y-126198061D01*
X166465000Y-126401939D01*
X166504774Y-126601898D01*
X166582795Y-126790256D01*
X166696063Y-126959774D01*
X166840226Y-127103937D01*
X167009744Y-127217205D01*
X167198102Y-127295226D01*
X167398061Y-127335000D01*
X167601939Y-127335000D01*
X167801898Y-127295226D01*
X167990256Y-127217205D01*
X168159774Y-127103937D01*
X168303937Y-126959774D01*
X168417205Y-126790256D01*
X168495226Y-126601898D01*
X168535000Y-126401939D01*
X168535000Y-126198061D01*
X168495226Y-125998102D01*
X168417205Y-125809744D01*
X168303937Y-125640226D01*
X168159774Y-125496063D01*
X167990256Y-125382795D01*
X167801898Y-125304774D01*
X167601939Y-125265000D01*
X167398061Y-125265000D01*
X167198102Y-125304774D01*
X167009744Y-125382795D01*
X166840226Y-125496063D01*
X166696063Y-125640226D01*
X166582795Y-125809744D01*
X166504774Y-125998102D01*
X166465000Y-126198061D01*
X163563442Y-126198061D01*
X163529255Y-126170005D01*
X163397226Y-126099433D01*
X163253965Y-126055976D01*
X163142312Y-126044979D01*
X163142301Y-126044979D01*
X163104979Y-126041303D01*
X163067657Y-126044979D01*
X162689676Y-126044979D01*
X161670207Y-125025510D01*
X161690256Y-125017205D01*
X161859774Y-124903937D01*
X162003937Y-124759774D01*
X162117205Y-124590256D01*
X162119941Y-124583652D01*
X162252879Y-124716590D01*
X162422397Y-124829858D01*
X162610755Y-124907879D01*
X162810714Y-124947653D01*
X163014592Y-124947653D01*
X163214551Y-124907879D01*
X163376914Y-124840625D01*
X163440226Y-124903937D01*
X163609744Y-125017205D01*
X163798102Y-125095226D01*
X163998061Y-125135000D01*
X164201939Y-125135000D01*
X164401898Y-125095226D01*
X164571630Y-125024920D01*
X164709744Y-125117205D01*
X164898102Y-125195226D01*
X165098061Y-125235000D01*
X165301939Y-125235000D01*
X165501898Y-125195226D01*
X165690256Y-125117205D01*
X165859774Y-125003937D01*
X166003937Y-124859774D01*
X166117205Y-124690256D01*
X166195226Y-124501898D01*
X166235000Y-124301939D01*
X166235000Y-124098061D01*
X166195226Y-123898102D01*
X166117205Y-123709744D01*
X166003937Y-123540226D01*
X165859774Y-123396063D01*
X165690256Y-123282795D01*
X165501898Y-123204774D01*
X165301939Y-123165000D01*
X165098061Y-123165000D01*
X164898102Y-123204774D01*
X164860000Y-123220556D01*
X164860000Y-122214801D01*
X165776740Y-121298061D01*
X174365000Y-121298061D01*
X174365000Y-121501939D01*
X174404774Y-121701898D01*
X174482795Y-121890256D01*
X174596063Y-122059774D01*
X174740226Y-122203937D01*
X174909744Y-122317205D01*
X175098102Y-122395226D01*
X175298061Y-122435000D01*
X175501939Y-122435000D01*
X175701898Y-122395226D01*
X175890256Y-122317205D01*
X176050000Y-122210468D01*
X176209744Y-122317205D01*
X176398102Y-122395226D01*
X176598061Y-122435000D01*
X176801939Y-122435000D01*
X177001898Y-122395226D01*
X177190256Y-122317205D01*
X177359774Y-122203937D01*
X177503937Y-122059774D01*
X177617205Y-121890256D01*
X177695226Y-121701898D01*
X177735000Y-121501939D01*
X177735000Y-121298061D01*
X177695226Y-121098102D01*
X177617205Y-120909744D01*
X177503937Y-120740226D01*
X177359774Y-120596063D01*
X177190256Y-120482795D01*
X177001898Y-120404774D01*
X176801939Y-120365000D01*
X176598061Y-120365000D01*
X176398102Y-120404774D01*
X176209744Y-120482795D01*
X176050000Y-120589532D01*
X175890256Y-120482795D01*
X175701898Y-120404774D01*
X175501939Y-120365000D01*
X175298061Y-120365000D01*
X175098102Y-120404774D01*
X174909744Y-120482795D01*
X174740226Y-120596063D01*
X174596063Y-120740226D01*
X174482795Y-120909744D01*
X174404774Y-121098102D01*
X174365000Y-121298061D01*
X165776740Y-121298061D01*
X174218511Y-112856290D01*
X174182795Y-112909744D01*
X174104774Y-113098102D01*
X174065000Y-113298061D01*
X174065000Y-113501939D01*
X174104774Y-113701898D01*
X174182795Y-113890256D01*
X174296063Y-114059774D01*
X174348179Y-114111890D01*
X174282795Y-114209744D01*
X174204774Y-114398102D01*
X174165000Y-114598061D01*
X174165000Y-114801939D01*
X174204774Y-115001898D01*
X174282795Y-115190256D01*
X174396063Y-115359774D01*
X174540226Y-115503937D01*
X174709744Y-115617205D01*
X174898102Y-115695226D01*
X175098061Y-115735000D01*
X175301939Y-115735000D01*
X175501898Y-115695226D01*
X175690256Y-115617205D01*
X175859774Y-115503937D01*
X176003937Y-115359774D01*
X176117205Y-115190256D01*
X176195226Y-115001898D01*
X176235000Y-114801939D01*
X176235000Y-114598061D01*
X176195226Y-114398102D01*
X176117205Y-114209744D01*
X176003937Y-114040226D01*
X175951821Y-113988110D01*
X176017205Y-113890256D01*
X176095226Y-113701898D01*
X176135000Y-113501939D01*
X176135000Y-113298061D01*
X176095226Y-113098102D01*
X176017205Y-112909744D01*
X175951821Y-112811890D01*
X176003937Y-112759774D01*
X176117205Y-112590256D01*
X176195226Y-112401898D01*
X176235000Y-112201939D01*
X176235000Y-111998061D01*
X176195226Y-111798102D01*
X176117205Y-111609744D01*
X176003937Y-111440226D01*
X175991875Y-111428164D01*
X176017205Y-111390256D01*
X176095226Y-111201898D01*
X176135000Y-111001939D01*
X176135000Y-110798061D01*
X176095226Y-110598102D01*
X176017205Y-110409744D01*
X175910468Y-110250000D01*
X176017205Y-110090256D01*
X176095226Y-109901898D01*
X176135000Y-109701939D01*
X176135000Y-109498061D01*
X176095226Y-109298102D01*
X176017205Y-109109744D01*
X175903937Y-108940226D01*
X175759774Y-108796063D01*
X175590256Y-108682795D01*
X175401898Y-108604774D01*
X175201939Y-108565000D01*
X174998061Y-108565000D01*
X174798102Y-108604774D01*
X174609744Y-108682795D01*
X174440226Y-108796063D01*
X174296063Y-108940226D01*
X174182795Y-109109744D01*
X174104774Y-109298102D01*
X174065000Y-109498061D01*
X174065000Y-109701939D01*
X174104774Y-109901898D01*
X174182795Y-110090256D01*
X174289532Y-110250000D01*
X174182795Y-110409744D01*
X174104774Y-110598102D01*
X174065000Y-110798061D01*
X174065000Y-110860198D01*
X173240844Y-111684354D01*
X173192195Y-111566905D01*
X173179092Y-111547296D01*
X173217205Y-111490256D01*
X173295226Y-111301898D01*
X173335000Y-111101939D01*
X173335000Y-110898061D01*
X173295226Y-110698102D01*
X173217205Y-110509744D01*
X173103937Y-110340226D01*
X172959774Y-110196063D01*
X172790256Y-110082795D01*
X172601898Y-110004774D01*
X172401939Y-109965000D01*
X172198061Y-109965000D01*
X171998102Y-110004774D01*
X171809744Y-110082795D01*
X171640226Y-110196063D01*
X171496063Y-110340226D01*
X171382795Y-110509744D01*
X171304774Y-110698102D01*
X171265000Y-110898061D01*
X171265000Y-111101939D01*
X171304774Y-111301898D01*
X171382795Y-111490256D01*
X171395898Y-111509865D01*
X171357785Y-111566905D01*
X171279764Y-111755263D01*
X171239990Y-111955222D01*
X171239990Y-112159100D01*
X171279764Y-112359059D01*
X171357785Y-112547417D01*
X171471053Y-112716935D01*
X171615216Y-112861098D01*
X171784734Y-112974366D01*
X171902183Y-113023015D01*
X170214723Y-114710475D01*
X170176562Y-114518625D01*
X170098541Y-114330267D01*
X170058252Y-114269971D01*
X170201066Y-114174546D01*
X170345229Y-114030383D01*
X170458497Y-113860865D01*
X170536518Y-113672507D01*
X170576292Y-113472548D01*
X170576292Y-113268670D01*
X170536518Y-113068711D01*
X170458497Y-112880353D01*
X170345229Y-112710835D01*
X170201066Y-112566672D01*
X170031548Y-112453404D01*
X169843190Y-112375383D01*
X169643231Y-112335609D01*
X169439353Y-112335609D01*
X169239394Y-112375383D01*
X169051036Y-112453404D01*
X168881518Y-112566672D01*
X168737355Y-112710835D01*
X168624087Y-112880353D01*
X168546066Y-113068711D01*
X168506292Y-113268670D01*
X168506292Y-113472548D01*
X168546066Y-113672507D01*
X168624087Y-113860865D01*
X168664376Y-113921161D01*
X168521562Y-114016586D01*
X168377399Y-114160749D01*
X168264131Y-114330267D01*
X168186110Y-114518625D01*
X168146336Y-114718584D01*
X168146336Y-114922462D01*
X168186110Y-115122421D01*
X168264131Y-115310779D01*
X168342875Y-115428628D01*
X168287579Y-115417629D01*
X168083701Y-115417629D01*
X167883742Y-115457403D01*
X167695384Y-115535424D01*
X167525866Y-115648692D01*
X167381703Y-115792855D01*
X167268435Y-115962373D01*
X167190414Y-116150731D01*
X167150640Y-116350690D01*
X167150640Y-116554568D01*
X167190414Y-116754527D01*
X167268435Y-116942885D01*
X167381703Y-117112403D01*
X167525866Y-117256566D01*
X167611448Y-117313750D01*
X163589003Y-121336196D01*
X163559999Y-121359999D01*
X163514694Y-121415204D01*
X163465026Y-121475724D01*
X163418713Y-121562369D01*
X163394454Y-121607754D01*
X163350997Y-121751015D01*
X163340000Y-121862668D01*
X163340000Y-121862678D01*
X163336324Y-121900000D01*
X163340000Y-121937323D01*
X163340000Y-122969390D01*
X163214551Y-122917427D01*
X163014592Y-122877653D01*
X162810714Y-122877653D01*
X162610755Y-122917427D01*
X162422397Y-122995448D01*
X162252879Y-123108716D01*
X162108716Y-123252879D01*
X161995448Y-123422397D01*
X161992712Y-123429001D01*
X161859774Y-123296063D01*
X161690256Y-123182795D01*
X161501898Y-123104774D01*
X161301939Y-123065000D01*
X161098061Y-123065000D01*
X161088570Y-123066888D01*
X161003937Y-122940226D01*
X160859774Y-122796063D01*
X160690256Y-122682795D01*
X160501898Y-122604774D01*
X160301939Y-122565000D01*
X160098061Y-122565000D01*
X159898102Y-122604774D01*
X159709744Y-122682795D01*
X159540226Y-122796063D01*
X159490493Y-122845796D01*
X154911347Y-118266650D01*
X154970091Y-118266650D01*
X155543048Y-118152682D01*
X156082762Y-117929125D01*
X156568492Y-117604571D01*
X156981571Y-117191492D01*
X157306125Y-116705762D01*
X157529682Y-116166048D01*
X157643650Y-115593091D01*
X157643650Y-115008909D01*
X157529682Y-114435952D01*
X157306125Y-113896238D01*
X156981571Y-113410508D01*
X156568492Y-112997429D01*
X156082762Y-112672875D01*
X155543048Y-112449318D01*
X154970091Y-112335350D01*
X154385909Y-112335350D01*
X153812952Y-112449318D01*
X153273238Y-112672875D01*
X152787508Y-112997429D01*
X152374429Y-113410508D01*
X152049875Y-113896238D01*
X151826318Y-114435952D01*
X151712350Y-115008909D01*
X151712350Y-115067654D01*
X144883241Y-108238545D01*
X145740358Y-108724388D01*
X145753764Y-108730853D01*
X145766531Y-108738508D01*
X145825106Y-108765259D01*
X145825124Y-108765268D01*
X145825129Y-108765270D01*
X146931633Y-109211114D01*
X146945774Y-109215748D01*
X146959442Y-109221648D01*
X147021060Y-109240423D01*
X148176814Y-109536011D01*
X148191445Y-109538735D01*
X148205774Y-109542775D01*
X148269334Y-109553235D01*
X149454029Y-109693370D01*
X149468886Y-109694135D01*
X149483629Y-109696245D01*
X149548012Y-109698207D01*
X149548014Y-109698207D01*
X150740835Y-109680427D01*
X150755672Y-109679219D01*
X150770554Y-109679361D01*
X150834634Y-109672791D01*
X152014625Y-109497409D01*
X152029170Y-109494250D01*
X152043942Y-109492422D01*
X152106590Y-109477435D01*
X153253021Y-109147533D01*
X153267014Y-109142480D01*
X153281422Y-109138713D01*
X153341510Y-109115581D01*
X153341536Y-109115572D01*
X153341543Y-109115568D01*
X154434266Y-108636943D01*
X154447473Y-108630081D01*
X154461250Y-108624444D01*
X154517776Y-108593556D01*
X155537603Y-107974613D01*
X155549786Y-107966065D01*
X155562697Y-107958655D01*
X155614641Y-107920562D01*
X156543652Y-107172177D01*
X156554596Y-107162094D01*
X156566416Y-107153040D01*
X156612841Y-107108435D01*
X156612866Y-107108412D01*
X156612873Y-107108404D01*
X157408333Y-106271511D01*
X157413608Y-106267347D01*
X157420704Y-106260424D01*
X157663157Y-106020595D01*
X157889511Y-105870841D01*
X158140644Y-105767903D01*
X158406991Y-105715704D01*
X158678404Y-105716232D01*
X158944540Y-105769468D01*
X159195273Y-105873384D01*
X159431504Y-106031000D01*
X159582580Y-106171383D01*
X159595844Y-106181487D01*
X159696570Y-106285046D01*
X159714855Y-106301449D01*
X159732005Y-106319042D01*
X159737571Y-106323972D01*
X160606763Y-107085722D01*
X160642238Y-107112778D01*
X160677376Y-107140162D01*
X160683559Y-107144291D01*
X161648090Y-107781030D01*
X161686905Y-107803018D01*
X161725439Y-107825383D01*
X161732125Y-107828634D01*
X162774148Y-108328580D01*
X162815566Y-108345088D01*
X162856800Y-108362026D01*
X162863866Y-108364340D01*
X163964100Y-108718242D01*
X164007437Y-108728992D01*
X164050525Y-108740160D01*
X164057840Y-108741494D01*
X164530580Y-108825114D01*
X164133508Y-109090429D01*
X163720429Y-109503508D01*
X163395875Y-109989238D01*
X163172318Y-110528952D01*
X163058350Y-111101909D01*
X163058350Y-111686091D01*
X163172318Y-112259048D01*
X163395875Y-112798762D01*
X163720429Y-113284492D01*
X164133508Y-113697571D01*
X164619238Y-114022125D01*
X165158952Y-114245682D01*
X165731909Y-114359650D01*
X166316091Y-114359650D01*
X166889048Y-114245682D01*
X167428762Y-114022125D01*
X167914492Y-113697571D01*
X168327571Y-113284492D01*
X168652125Y-112798762D01*
X168875682Y-112259048D01*
X168989650Y-111686091D01*
X168989650Y-111101909D01*
X168875682Y-110528952D01*
X168652125Y-109989238D01*
X168327571Y-109503508D01*
X167914492Y-109090429D01*
X167615640Y-108890743D01*
X167693661Y-108883135D01*
X167737687Y-108875792D01*
X167781684Y-108868927D01*
X167788927Y-108867246D01*
X168913357Y-108600011D01*
X168955969Y-108586764D01*
X168998638Y-108573988D01*
X169005571Y-108571344D01*
X169005585Y-108571340D01*
X169005597Y-108571334D01*
X170083344Y-108153974D01*
X170123770Y-108135063D01*
X170164303Y-108116618D01*
X170170827Y-108113051D01*
X171181971Y-107553279D01*
X171219422Y-107529079D01*
X171257113Y-107505281D01*
X171263092Y-107500862D01*
X171534486Y-107298061D01*
X175365000Y-107298061D01*
X175365000Y-107501939D01*
X175404774Y-107701898D01*
X175482795Y-107890256D01*
X175596063Y-108059774D01*
X175740226Y-108203937D01*
X175909744Y-108317205D01*
X176098102Y-108395226D01*
X176298061Y-108435000D01*
X176501939Y-108435000D01*
X176701898Y-108395226D01*
X176890256Y-108317205D01*
X177059774Y-108203937D01*
X177203937Y-108059774D01*
X177317205Y-107890256D01*
X177395226Y-107701898D01*
X177435000Y-107501939D01*
X177435000Y-107298061D01*
X177395226Y-107098102D01*
X177317205Y-106909744D01*
X177203937Y-106740226D01*
X177059774Y-106596063D01*
X176890256Y-106482795D01*
X176701898Y-106404774D01*
X176501939Y-106365000D01*
X176298061Y-106365000D01*
X176098102Y-106404774D01*
X175909744Y-106482795D01*
X175740226Y-106596063D01*
X175596063Y-106740226D01*
X175482795Y-106909744D01*
X175404774Y-107098102D01*
X175365000Y-107298061D01*
X171534486Y-107298061D01*
X172188911Y-106809040D01*
X172222773Y-106779946D01*
X172256842Y-106751289D01*
X172262159Y-106746106D01*
X172262167Y-106746099D01*
X172262174Y-106746091D01*
X173085530Y-105935030D01*
X173115152Y-105901584D01*
X173144995Y-105868593D01*
X173149566Y-105862729D01*
X173855235Y-104947422D01*
X173880019Y-104910303D01*
X173888379Y-104898061D01*
X174265000Y-104898061D01*
X174265000Y-105101939D01*
X174304774Y-105301898D01*
X174382795Y-105490256D01*
X174496063Y-105659774D01*
X174640226Y-105803937D01*
X174809744Y-105917205D01*
X174998102Y-105995226D01*
X175198061Y-106035000D01*
X175401939Y-106035000D01*
X175601898Y-105995226D01*
X175790256Y-105917205D01*
X175928370Y-105824920D01*
X176098102Y-105895226D01*
X176298061Y-105935000D01*
X176501939Y-105935000D01*
X176701898Y-105895226D01*
X176890256Y-105817205D01*
X177059774Y-105703937D01*
X177203937Y-105559774D01*
X177317205Y-105390256D01*
X177395226Y-105201898D01*
X177435000Y-105001939D01*
X177435000Y-104798061D01*
X177395226Y-104598102D01*
X177317205Y-104409744D01*
X177203937Y-104240226D01*
X177059774Y-104096063D01*
X176890256Y-103982795D01*
X176701898Y-103904774D01*
X176501939Y-103865000D01*
X176298061Y-103865000D01*
X176098102Y-103904774D01*
X175909744Y-103982795D01*
X175771630Y-104075080D01*
X175601898Y-104004774D01*
X175401939Y-103965000D01*
X175198061Y-103965000D01*
X174998102Y-104004774D01*
X174809744Y-104082795D01*
X174640226Y-104196063D01*
X174496063Y-104340226D01*
X174382795Y-104509744D01*
X174304774Y-104698102D01*
X174265000Y-104898061D01*
X173888379Y-104898061D01*
X173905133Y-104873530D01*
X173908866Y-104867099D01*
X174483786Y-103864489D01*
X174503284Y-103824389D01*
X174523195Y-103784509D01*
X174526020Y-103777631D01*
X174959550Y-102706273D01*
X174973443Y-102663843D01*
X174987739Y-102621684D01*
X174989605Y-102614487D01*
X175273724Y-101494204D01*
X175281719Y-101450342D01*
X175290173Y-101406572D01*
X175291044Y-101399188D01*
X175420495Y-100250710D01*
X175422462Y-100206206D01*
X175424899Y-100161656D01*
X175424760Y-100154222D01*
X175397146Y-98998802D01*
X175393051Y-98954399D01*
X175389423Y-98909976D01*
X175388277Y-98902630D01*
X175204111Y-97761647D01*
X175194017Y-97718165D01*
X175184404Y-97674690D01*
X175182275Y-97667582D01*
X175182272Y-97667567D01*
X175182267Y-97667554D01*
X174844959Y-96562135D01*
X174829067Y-96520449D01*
X174813633Y-96478657D01*
X174810554Y-96471889D01*
X174326340Y-95422465D01*
X174304929Y-95383307D01*
X174283974Y-95344010D01*
X174280005Y-95337723D01*
X174274508Y-95329117D01*
X174765000Y-95329117D01*
X174765000Y-95670883D01*
X174831675Y-96006081D01*
X174962463Y-96321831D01*
X175152337Y-96605998D01*
X175394002Y-96847663D01*
X175678169Y-97037537D01*
X175993919Y-97168325D01*
X176329117Y-97235000D01*
X176670883Y-97235000D01*
X177006081Y-97168325D01*
X177321831Y-97037537D01*
X177605998Y-96847663D01*
X177847663Y-96605998D01*
X178037537Y-96321831D01*
X178168325Y-96006081D01*
X178235000Y-95670883D01*
X178235000Y-95329117D01*
X178168325Y-94993919D01*
X178037537Y-94678169D01*
X177847663Y-94394002D01*
X177605998Y-94152337D01*
X177321831Y-93962463D01*
X177006081Y-93831675D01*
X176670883Y-93765000D01*
X176329117Y-93765000D01*
X175993919Y-93831675D01*
X175678169Y-93962463D01*
X175394002Y-94152337D01*
X175152337Y-94394002D01*
X174962463Y-94678169D01*
X174831675Y-94993919D01*
X174765000Y-95329117D01*
X174274508Y-95329117D01*
X173657846Y-94363722D01*
X173631328Y-94327844D01*
X173605225Y-94291743D01*
X173600439Y-94286053D01*
X172851850Y-93405501D01*
X172820720Y-93373566D01*
X172789947Y-93341329D01*
X172784433Y-93336342D01*
X171923266Y-92565532D01*
X171888104Y-92538128D01*
X171853227Y-92510355D01*
X171847087Y-92506162D01*
X170889276Y-91859357D01*
X170850708Y-91836972D01*
X170812396Y-91814196D01*
X170805744Y-91810875D01*
X169769013Y-91300045D01*
X169727750Y-91283096D01*
X169686716Y-91265736D01*
X169679675Y-91263348D01*
X168583209Y-90897944D01*
X168540045Y-90886756D01*
X168497016Y-90875121D01*
X168489716Y-90873711D01*
X167353804Y-90660497D01*
X167309484Y-90655266D01*
X167265312Y-90649583D01*
X167257888Y-90649176D01*
X166103549Y-90592094D01*
X166058924Y-90592927D01*
X166014394Y-90593291D01*
X166006983Y-90593896D01*
X164855577Y-90694005D01*
X164811481Y-90700886D01*
X164767411Y-90707291D01*
X164760153Y-90708895D01*
X164760147Y-90708897D01*
X163632984Y-90964341D01*
X163590291Y-90977124D01*
X163547435Y-90989469D01*
X163540460Y-90992045D01*
X162458390Y-91398102D01*
X162417774Y-91416585D01*
X162377044Y-91434608D01*
X162370483Y-91438106D01*
X161353533Y-91987259D01*
X161315807Y-92011079D01*
X161277892Y-92034468D01*
X161271867Y-92038824D01*
X160338854Y-92720913D01*
X160304705Y-92749637D01*
X160270321Y-92777950D01*
X160264952Y-92783076D01*
X160264943Y-92783083D01*
X160264936Y-92783091D01*
X159439178Y-93579654D01*
X159194350Y-93804852D01*
X158962632Y-93946341D01*
X158707855Y-94040123D01*
X158439710Y-94082635D01*
X158168414Y-94072253D01*
X157904298Y-94009374D01*
X157657432Y-93896395D01*
X157436113Y-93736825D01*
X157212365Y-93498756D01*
X157209465Y-93496219D01*
X157203178Y-93489162D01*
X156685928Y-92959039D01*
X156681507Y-92955071D01*
X156677566Y-92950610D01*
X156629806Y-92907386D01*
X155709903Y-92147834D01*
X155697823Y-92139139D01*
X155686580Y-92129384D01*
X155633523Y-92092856D01*
X154621245Y-91461640D01*
X154608121Y-91454619D01*
X154595687Y-91446437D01*
X154538265Y-91417247D01*
X153451398Y-90925456D01*
X153437466Y-90920234D01*
X153424054Y-90913766D01*
X153363276Y-90892427D01*
X152220912Y-90548701D01*
X152206406Y-90545367D01*
X152192262Y-90540731D01*
X152129196Y-90527618D01*
X150951409Y-90337996D01*
X150936587Y-90336609D01*
X150921955Y-90333885D01*
X150857709Y-90329227D01*
X149665189Y-90297041D01*
X149650310Y-90297627D01*
X149635451Y-90296862D01*
X149571153Y-90300743D01*
X148384852Y-90426558D01*
X148370195Y-90429104D01*
X148355352Y-90430312D01*
X148292140Y-90442661D01*
X148292131Y-90442663D01*
X148292128Y-90442664D01*
X147132892Y-90724268D01*
X147118692Y-90728733D01*
X147104146Y-90731892D01*
X147043115Y-90752495D01*
X145931302Y-91184944D01*
X145917814Y-91191249D01*
X145903818Y-91196303D01*
X145846047Y-91224797D01*
X144801196Y-91800492D01*
X144788667Y-91808521D01*
X144775456Y-91815385D01*
X144721962Y-91851269D01*
X143762428Y-92560094D01*
X143751070Y-92569710D01*
X143738883Y-92578261D01*
X143690605Y-92620905D01*
X142833246Y-93450408D01*
X142823255Y-93461447D01*
X142812311Y-93471530D01*
X142770096Y-93520185D01*
X142029977Y-94455792D01*
X142021536Y-94468052D01*
X142012019Y-94479497D01*
X141976625Y-94533285D01*
X141976610Y-94533307D01*
X141976607Y-94533314D01*
X141366732Y-95558582D01*
X141359985Y-95571854D01*
X141352068Y-95584453D01*
X141324087Y-95642474D01*
X141229862Y-95862890D01*
X141229862Y-95034193D01*
X141233539Y-94996860D01*
X141218865Y-94847874D01*
X141175408Y-94704613D01*
X141104836Y-94572584D01*
X141067110Y-94526615D01*
X141009863Y-94456859D01*
X140980865Y-94433061D01*
X138034999Y-91487196D01*
X138034999Y-77412332D01*
X138038676Y-77374999D01*
X138024002Y-77226013D01*
X137980545Y-77082752D01*
X137909973Y-76950723D01*
X137838798Y-76863996D01*
X137815000Y-76834998D01*
X137786002Y-76811200D01*
X136835000Y-75860199D01*
X136835000Y-75798061D01*
X136795226Y-75598102D01*
X136717205Y-75409744D01*
X136603937Y-75240226D01*
X136459774Y-75096063D01*
X136290256Y-74982795D01*
X136101898Y-74904774D01*
X135901939Y-74865000D01*
X135698061Y-74865000D01*
X135498102Y-74904774D01*
X135309744Y-74982795D01*
X135140226Y-75096063D01*
X134996063Y-75240226D01*
X134882795Y-75409744D01*
X134804774Y-75598102D01*
X134765000Y-75798061D01*
X134765000Y-76001939D01*
X134804774Y-76201898D01*
X134882795Y-76390256D01*
X134996063Y-76559774D01*
X135140226Y-76703937D01*
X135309744Y-76817205D01*
X135498102Y-76895226D01*
X135698061Y-76935000D01*
X135760199Y-76935000D01*
X136515000Y-77689802D01*
X136514999Y-91764675D01*
X136511323Y-91801997D01*
X136514999Y-91839319D01*
X136514999Y-91839329D01*
X136525996Y-91950982D01*
X136563892Y-92075911D01*
X136569453Y-92094243D01*
X136640025Y-92226273D01*
X136663106Y-92254397D01*
X136734998Y-92341998D01*
X136764002Y-92365801D01*
X136767245Y-92369044D01*
X136696063Y-92440226D01*
X136582795Y-92609744D01*
X136504774Y-92798102D01*
X136465000Y-92998061D01*
X136465000Y-93201939D01*
X136490000Y-93327624D01*
X136490000Y-93353617D01*
X136348411Y-93259010D01*
X136078158Y-93147068D01*
X135791260Y-93090000D01*
X135498740Y-93090000D01*
X135211842Y-93147068D01*
X134941589Y-93259010D01*
X134698368Y-93421525D01*
X134491525Y-93628368D01*
X134329010Y-93871589D01*
X134217068Y-94141842D01*
X134160000Y-94428740D01*
X134160000Y-94721260D01*
X134217068Y-95008158D01*
X134329010Y-95278411D01*
X134491525Y-95521632D01*
X134698368Y-95728475D01*
X134941589Y-95890990D01*
X135211842Y-96002932D01*
X135498740Y-96060000D01*
X135791260Y-96060000D01*
X136078158Y-96002932D01*
X136348411Y-95890990D01*
X136490000Y-95796383D01*
X136490001Y-102870452D01*
X136485114Y-102920070D01*
X136504615Y-103118064D01*
X136562368Y-103308449D01*
X136634158Y-103442759D01*
X132734994Y-99543595D01*
X132734994Y-92050070D01*
X132778931Y-92006133D01*
X132892199Y-91836615D01*
X132970220Y-91648257D01*
X133009994Y-91448298D01*
X133009994Y-91244420D01*
X132970220Y-91044461D01*
X132892199Y-90856103D01*
X132778931Y-90686585D01*
X132634768Y-90542422D01*
X132465250Y-90429154D01*
X132276892Y-90351133D01*
X132076933Y-90311359D01*
X131873055Y-90311359D01*
X131673096Y-90351133D01*
X131484738Y-90429154D01*
X131315220Y-90542422D01*
X131171057Y-90686585D01*
X131057789Y-90856103D01*
X130979768Y-91044461D01*
X130939994Y-91244420D01*
X130939994Y-91448298D01*
X130979768Y-91648257D01*
X131057789Y-91836615D01*
X131171057Y-92006133D01*
X131214995Y-92050071D01*
X131214994Y-99821074D01*
X131211318Y-99858396D01*
X131214994Y-99895718D01*
X131214994Y-99895728D01*
X131225991Y-100007381D01*
X131261804Y-100125443D01*
X131269448Y-100150642D01*
X131340020Y-100282672D01*
X131379865Y-100331222D01*
X131434993Y-100398397D01*
X131463997Y-100422200D01*
X135931797Y-104890000D01*
X132997261Y-104890000D01*
X132997261Y-104823051D01*
X132957487Y-104623092D01*
X132879466Y-104434734D01*
X132766198Y-104265216D01*
X132622035Y-104121053D01*
X132452517Y-104007785D01*
X132264159Y-103929764D01*
X132064200Y-103889990D01*
X131860322Y-103889990D01*
X131660363Y-103929764D01*
X131472005Y-104007785D01*
X131302487Y-104121053D01*
X131158324Y-104265216D01*
X131045056Y-104434734D01*
X130967035Y-104623092D01*
X130927261Y-104823051D01*
X130927261Y-104890000D01*
X127227623Y-104890000D01*
X127101939Y-104865000D01*
X126898061Y-104865000D01*
X126698102Y-104904774D01*
X126509744Y-104982795D01*
X126340226Y-105096063D01*
X126196063Y-105240226D01*
X126082795Y-105409744D01*
X126004774Y-105598102D01*
X125965000Y-105798061D01*
X125965000Y-106001939D01*
X126004774Y-106201898D01*
X126082795Y-106390256D01*
X126196063Y-106559774D01*
X126340226Y-106703937D01*
X126509744Y-106817205D01*
X126698102Y-106895226D01*
X126898061Y-106935000D01*
X127101939Y-106935000D01*
X127227623Y-106910000D01*
X136181645Y-106910000D01*
X141036645Y-111765000D01*
X140829117Y-111765000D01*
X140493919Y-111831675D01*
X140178169Y-111962463D01*
X139894002Y-112152337D01*
X139652337Y-112394002D01*
X139462463Y-112678169D01*
X139331675Y-112993919D01*
X139307486Y-113115526D01*
X139303460Y-113115129D01*
X139303449Y-113115129D01*
X139266127Y-113111453D01*
X139228805Y-113115129D01*
X135594937Y-113115129D01*
X135551000Y-113071192D01*
X135381482Y-112957924D01*
X135193124Y-112879903D01*
X134993165Y-112840129D01*
X134789287Y-112840129D01*
X134589328Y-112879903D01*
X134400970Y-112957924D01*
X134231452Y-113071192D01*
X134087289Y-113215355D01*
X133974021Y-113384873D01*
X133896000Y-113573231D01*
X133856226Y-113773190D01*
X133856226Y-113781424D01*
X133029053Y-112954252D01*
X133064325Y-112776929D01*
X133064325Y-112573051D01*
X133024551Y-112373092D01*
X132946530Y-112184734D01*
X132833262Y-112015216D01*
X132689099Y-111871053D01*
X132519581Y-111757785D01*
X132331223Y-111679764D01*
X132131264Y-111639990D01*
X131927386Y-111639990D01*
X131727427Y-111679764D01*
X131539069Y-111757785D01*
X131369551Y-111871053D01*
X131225388Y-112015216D01*
X131112120Y-112184734D01*
X131034099Y-112373092D01*
X130994325Y-112573051D01*
X130994325Y-112640000D01*
X129979444Y-112640000D01*
X129995226Y-112601898D01*
X130035000Y-112401939D01*
X130035000Y-112198061D01*
X129995226Y-111998102D01*
X129917205Y-111809744D01*
X129803937Y-111640226D01*
X129659774Y-111496063D01*
X129490256Y-111382795D01*
X129301898Y-111304774D01*
X129101939Y-111265000D01*
X128898061Y-111265000D01*
X128698102Y-111304774D01*
X128509744Y-111382795D01*
X128340226Y-111496063D01*
X128196063Y-111640226D01*
X128082795Y-111809744D01*
X128004774Y-111998102D01*
X127965000Y-112198061D01*
X127965000Y-112401939D01*
X127984445Y-112499699D01*
X127840226Y-112596063D01*
X127696063Y-112740226D01*
X127582795Y-112909744D01*
X127504774Y-113098102D01*
X127465000Y-113298061D01*
X127465000Y-113501939D01*
X127504774Y-113701898D01*
X127582795Y-113890256D01*
X127696063Y-114059774D01*
X127840226Y-114203937D01*
X128009744Y-114317205D01*
X128198102Y-114395226D01*
X128398061Y-114435000D01*
X128601939Y-114435000D01*
X128801898Y-114395226D01*
X128990256Y-114317205D01*
X129159774Y-114203937D01*
X129203711Y-114160000D01*
X132085199Y-114160000D01*
X133036200Y-115111002D01*
X133059999Y-115140001D01*
X133175724Y-115234974D01*
X133307753Y-115305546D01*
X133451014Y-115349003D01*
X133562667Y-115360000D01*
X133562676Y-115360000D01*
X133599999Y-115363676D01*
X133637322Y-115360000D01*
X134599544Y-115360000D01*
X134684753Y-115405546D01*
X134828014Y-115449003D01*
X134939667Y-115460000D01*
X134939677Y-115460000D01*
X134976999Y-115463676D01*
X135014322Y-115460000D01*
X139139786Y-115460000D01*
X139565799Y-115886014D01*
X139589598Y-115915013D01*
X139705323Y-116009986D01*
X139837352Y-116080558D01*
X139980613Y-116124015D01*
X140092266Y-116135012D01*
X140092275Y-116135012D01*
X140129598Y-116138688D01*
X140166921Y-116135012D01*
X140187209Y-116135012D01*
X146938197Y-122886001D01*
X146961996Y-122915000D01*
X146990994Y-122938798D01*
X147077721Y-123009973D01*
X147209750Y-123080545D01*
X147353011Y-123124002D01*
X147501997Y-123138676D01*
X147539330Y-123134999D01*
X148620399Y-123134999D01*
X148586827Y-123216049D01*
X148547053Y-123416008D01*
X148547053Y-123619886D01*
X148586827Y-123819845D01*
X148664848Y-124008203D01*
X148778116Y-124177721D01*
X148922279Y-124321884D01*
X149091797Y-124435152D01*
X149280155Y-124513173D01*
X149480114Y-124552947D01*
X149683992Y-124552947D01*
X149883951Y-124513173D01*
X150072309Y-124435152D01*
X150241827Y-124321884D01*
X150385990Y-124177721D01*
X150414535Y-124135000D01*
X150601939Y-124135000D01*
X150801898Y-124095226D01*
X150932155Y-124041271D01*
X153359441Y-126468557D01*
X153213695Y-126528927D01*
X152941812Y-126710594D01*
X152710594Y-126941812D01*
X152528927Y-127213695D01*
X152403793Y-127515796D01*
X152340000Y-127836504D01*
X152340000Y-128163496D01*
X152403793Y-128484204D01*
X152528927Y-128786305D01*
X152710594Y-129058188D01*
X152941812Y-129289406D01*
X153213695Y-129471073D01*
X153515796Y-129596207D01*
X153836504Y-129660000D01*
X154163496Y-129660000D01*
X154484204Y-129596207D01*
X154786305Y-129471073D01*
X155058188Y-129289406D01*
X155289406Y-129058188D01*
X155471073Y-128786305D01*
X155531443Y-128640559D01*
X158270210Y-131379327D01*
X158270210Y-131592888D01*
X158266534Y-131630210D01*
X158270210Y-131667532D01*
X158270210Y-131667543D01*
X158281207Y-131779196D01*
X158324664Y-131922457D01*
X158342716Y-131956229D01*
X158395236Y-132054486D01*
X158432911Y-132100392D01*
X158490210Y-132170211D01*
X158519208Y-132194009D01*
X160518466Y-134193268D01*
X160363935Y-134224006D01*
X160179217Y-134300519D01*
X160012975Y-134411598D01*
X159871598Y-134552975D01*
X159760519Y-134719217D01*
X159684006Y-134903935D01*
X159645000Y-135100031D01*
X159645000Y-135299969D01*
X159682799Y-135489999D01*
X158237194Y-135489999D01*
X158203937Y-135440226D01*
X158059774Y-135296063D01*
X157890256Y-135182795D01*
X157701898Y-135104774D01*
X157501939Y-135065000D01*
X157298061Y-135065000D01*
X157098102Y-135104774D01*
X156909744Y-135182795D01*
X156740226Y-135296063D01*
X156596063Y-135440226D01*
X156482795Y-135609744D01*
X156404774Y-135798102D01*
X156365000Y-135998061D01*
X156365000Y-136201939D01*
X156404774Y-136401898D01*
X156482795Y-136590256D01*
X156596063Y-136759774D01*
X156740226Y-136903937D01*
X156846778Y-136975133D01*
X157050734Y-137179088D01*
X157082366Y-137217632D01*
X157170547Y-137290000D01*
X150710000Y-137290000D01*
X150710000Y-134965123D01*
X150709513Y-134960182D01*
X150702523Y-134459576D01*
X150702449Y-134458337D01*
X150702484Y-134457097D01*
X150700685Y-134417490D01*
X150657478Y-133829117D01*
X152265000Y-133829117D01*
X152265000Y-134170883D01*
X152331675Y-134506081D01*
X152462463Y-134821831D01*
X152652337Y-135105998D01*
X152894002Y-135347663D01*
X153178169Y-135537537D01*
X153493919Y-135668325D01*
X153829117Y-135735000D01*
X154170883Y-135735000D01*
X154506081Y-135668325D01*
X154821831Y-135537537D01*
X155105998Y-135347663D01*
X155347663Y-135105998D01*
X155537537Y-134821831D01*
X155668325Y-134506081D01*
X155735000Y-134170883D01*
X155735000Y-133829117D01*
X155668325Y-133493919D01*
X155537537Y-133178169D01*
X155347663Y-132894002D01*
X155105998Y-132652337D01*
X154821831Y-132462463D01*
X154506081Y-132331675D01*
X154170883Y-132265000D01*
X153829117Y-132265000D01*
X153493919Y-132331675D01*
X153178169Y-132462463D01*
X152894002Y-132652337D01*
X152652337Y-132894002D01*
X152462463Y-133178169D01*
X152331675Y-133493919D01*
X152265000Y-133829117D01*
X150657478Y-133829117D01*
X150574438Y-132698326D01*
X150572971Y-132686020D01*
X150572192Y-132673645D01*
X150566811Y-132634363D01*
X150285270Y-130933716D01*
X150282694Y-130921596D01*
X150280797Y-130909342D01*
X150271878Y-130870709D01*
X149837363Y-129202578D01*
X149833695Y-129190727D01*
X149830698Y-129178708D01*
X149818331Y-129141095D01*
X149818315Y-129141043D01*
X149818307Y-129141024D01*
X149234400Y-127519159D01*
X149229679Y-127507706D01*
X149225600Y-127495991D01*
X149209874Y-127459653D01*
X149209854Y-127459604D01*
X149209845Y-127459586D01*
X148481347Y-125897316D01*
X148475599Y-125886320D01*
X148470482Y-125875041D01*
X148451503Y-125840230D01*
X147584400Y-124350400D01*
X147577687Y-124339983D01*
X147571562Y-124329201D01*
X147549506Y-124296254D01*
X146550945Y-122891142D01*
X146543306Y-122881364D01*
X146536238Y-122871195D01*
X146511287Y-122840382D01*
X145389487Y-121531555D01*
X145380997Y-121522514D01*
X145373033Y-121513023D01*
X145345391Y-121484599D01*
X144109585Y-120282830D01*
X144100321Y-120274605D01*
X144091519Y-120265864D01*
X144061444Y-120240087D01*
X144061416Y-120240062D01*
X144061405Y-120240054D01*
X142721776Y-119155244D01*
X142711799Y-119147889D01*
X142702248Y-119139987D01*
X142669929Y-119117019D01*
X141237483Y-118158080D01*
X141226875Y-118151656D01*
X141216651Y-118144655D01*
X141182384Y-118124711D01*
X139668923Y-117299545D01*
X139657787Y-117294113D01*
X139646961Y-117288063D01*
X139611027Y-117271307D01*
X138029007Y-116586706D01*
X138017417Y-116582303D01*
X138006094Y-116577262D01*
X137968790Y-116563832D01*
X136331235Y-116025431D01*
X136319302Y-116022099D01*
X136307561Y-116018102D01*
X136269207Y-116008112D01*
X136269193Y-116008108D01*
X136269188Y-116008107D01*
X134589579Y-115620339D01*
X134577377Y-115618100D01*
X134565338Y-115615187D01*
X134526222Y-115608711D01*
X132818377Y-115374765D01*
X132806027Y-115373641D01*
X132793769Y-115371831D01*
X132754227Y-115368927D01*
X131050932Y-115291581D01*
X131034877Y-115290000D01*
X122210000Y-115290000D01*
X122210000Y-110258363D01*
X122435000Y-110258363D01*
X122435000Y-110501637D01*
X122482460Y-110740236D01*
X122575557Y-110964992D01*
X122710713Y-111167267D01*
X122882733Y-111339287D01*
X123085008Y-111474443D01*
X123309764Y-111567540D01*
X123539894Y-111613315D01*
X123504774Y-111698102D01*
X123465000Y-111898061D01*
X123465000Y-112101939D01*
X123504774Y-112301898D01*
X123582795Y-112490256D01*
X123696063Y-112659774D01*
X123840226Y-112803937D01*
X124009744Y-112917205D01*
X124198102Y-112995226D01*
X124398061Y-113035000D01*
X124601939Y-113035000D01*
X124801898Y-112995226D01*
X124990256Y-112917205D01*
X125159774Y-112803937D01*
X125303937Y-112659774D01*
X125417205Y-112490256D01*
X125495226Y-112301898D01*
X125535000Y-112101939D01*
X125535000Y-111898061D01*
X125495226Y-111698102D01*
X125417205Y-111509744D01*
X125303937Y-111340226D01*
X125159774Y-111196063D01*
X124990256Y-111082795D01*
X124801898Y-111004774D01*
X124745374Y-110993531D01*
X124764443Y-110964992D01*
X124857540Y-110740236D01*
X124905000Y-110501637D01*
X124905000Y-110258363D01*
X124857540Y-110019764D01*
X124764443Y-109795008D01*
X124629287Y-109592733D01*
X124457267Y-109420713D01*
X124254992Y-109285557D01*
X124030236Y-109192460D01*
X123791637Y-109145000D01*
X123548363Y-109145000D01*
X123309764Y-109192460D01*
X123085008Y-109285557D01*
X122882733Y-109420713D01*
X122710713Y-109592733D01*
X122575557Y-109795008D01*
X122482460Y-110019764D01*
X122435000Y-110258363D01*
X122210000Y-110258363D01*
X122210000Y-104398061D01*
X122465000Y-104398061D01*
X122465000Y-104601939D01*
X122504774Y-104801898D01*
X122582795Y-104990256D01*
X122696063Y-105159774D01*
X122840226Y-105303937D01*
X123009744Y-105417205D01*
X123198102Y-105495226D01*
X123398061Y-105535000D01*
X123601939Y-105535000D01*
X123801898Y-105495226D01*
X123990256Y-105417205D01*
X124159774Y-105303937D01*
X124303937Y-105159774D01*
X124375132Y-105053223D01*
X126930294Y-102498061D01*
X130565000Y-102498061D01*
X130565000Y-102701939D01*
X130604774Y-102901898D01*
X130682795Y-103090256D01*
X130796063Y-103259774D01*
X130940226Y-103403937D01*
X131109744Y-103517205D01*
X131298102Y-103595226D01*
X131498061Y-103635000D01*
X131701939Y-103635000D01*
X131901898Y-103595226D01*
X132090256Y-103517205D01*
X132259774Y-103403937D01*
X132403937Y-103259774D01*
X132517205Y-103090256D01*
X132595226Y-102901898D01*
X132635000Y-102701939D01*
X132635000Y-102498061D01*
X132595226Y-102298102D01*
X132517205Y-102109744D01*
X132403937Y-101940226D01*
X132259774Y-101796063D01*
X132090256Y-101682795D01*
X131901898Y-101604774D01*
X131701939Y-101565000D01*
X131498061Y-101565000D01*
X131298102Y-101604774D01*
X131109744Y-101682795D01*
X130940226Y-101796063D01*
X130796063Y-101940226D01*
X130682795Y-102109744D01*
X130604774Y-102298102D01*
X130565000Y-102498061D01*
X126930294Y-102498061D01*
X127679100Y-101749256D01*
X127717633Y-101717633D01*
X127843847Y-101563840D01*
X127937632Y-101388380D01*
X127995385Y-101197994D01*
X128010000Y-101049608D01*
X128010000Y-101049599D01*
X128014885Y-101000001D01*
X128010000Y-100950403D01*
X128010000Y-98927623D01*
X128018608Y-98884350D01*
X128134754Y-98961956D01*
X128323112Y-99039977D01*
X128523071Y-99079751D01*
X128726949Y-99079751D01*
X128926908Y-99039977D01*
X129115266Y-98961956D01*
X129284784Y-98848688D01*
X129428947Y-98704525D01*
X129542215Y-98535007D01*
X129620236Y-98346649D01*
X129660010Y-98146690D01*
X129660010Y-97942812D01*
X129620236Y-97742853D01*
X129542215Y-97554495D01*
X129428947Y-97384977D01*
X129284784Y-97240814D01*
X129115266Y-97127546D01*
X128926908Y-97049525D01*
X128726949Y-97009751D01*
X128523071Y-97009751D01*
X128323112Y-97049525D01*
X128134754Y-97127546D01*
X127965236Y-97240814D01*
X127888914Y-97317136D01*
X127895226Y-97301898D01*
X127935000Y-97101939D01*
X127935000Y-96898061D01*
X127895226Y-96698102D01*
X127817205Y-96509744D01*
X127703937Y-96340226D01*
X127559774Y-96196063D01*
X127390256Y-96082795D01*
X127201898Y-96004774D01*
X127001939Y-95965000D01*
X126798061Y-95965000D01*
X126598102Y-96004774D01*
X126409744Y-96082795D01*
X126240226Y-96196063D01*
X126096063Y-96340226D01*
X125982795Y-96509744D01*
X125904774Y-96698102D01*
X125865000Y-96898061D01*
X125865000Y-97101939D01*
X125904774Y-97301898D01*
X125982795Y-97490256D01*
X126096063Y-97659774D01*
X126240226Y-97803937D01*
X126359164Y-97883409D01*
X126340226Y-97896063D01*
X126196063Y-98040226D01*
X126082795Y-98209744D01*
X126082349Y-98210821D01*
X125831880Y-98161000D01*
X125568120Y-98161000D01*
X125309428Y-98212457D01*
X125065746Y-98313393D01*
X124846437Y-98459931D01*
X124659931Y-98646437D01*
X124513393Y-98865746D01*
X124412457Y-99109428D01*
X124361000Y-99368120D01*
X124361000Y-99631880D01*
X124412457Y-99890572D01*
X124513393Y-100134254D01*
X124659931Y-100353563D01*
X124846437Y-100540069D01*
X125065746Y-100686607D01*
X125309428Y-100787543D01*
X125568120Y-100839000D01*
X125732644Y-100839000D01*
X122946777Y-103624868D01*
X122840226Y-103696063D01*
X122696063Y-103840226D01*
X122582795Y-104009744D01*
X122504774Y-104198102D01*
X122465000Y-104398061D01*
X122210000Y-104398061D01*
X122210000Y-101818267D01*
X122272905Y-101860299D01*
X122552257Y-101976011D01*
X122848816Y-102035000D01*
X123151184Y-102035000D01*
X123447743Y-101976011D01*
X123727095Y-101860299D01*
X123978505Y-101692312D01*
X124192312Y-101478505D01*
X124360299Y-101227095D01*
X124476011Y-100947743D01*
X124535000Y-100651184D01*
X124535000Y-100348816D01*
X124476011Y-100052257D01*
X124360299Y-99772905D01*
X124192312Y-99521495D01*
X123978505Y-99307688D01*
X123727095Y-99139701D01*
X123447743Y-99023989D01*
X123151184Y-98965000D01*
X122848816Y-98965000D01*
X122552257Y-99023989D01*
X122272905Y-99139701D01*
X122210000Y-99181733D01*
X122210000Y-94818267D01*
X122272905Y-94860299D01*
X122552257Y-94976011D01*
X122848816Y-95035000D01*
X123151184Y-95035000D01*
X123447743Y-94976011D01*
X123727095Y-94860299D01*
X123978505Y-94692312D01*
X124192312Y-94478505D01*
X124266068Y-94368120D01*
X124361000Y-94368120D01*
X124361000Y-94631880D01*
X124412457Y-94890572D01*
X124513393Y-95134254D01*
X124659931Y-95353563D01*
X124846437Y-95540069D01*
X125065746Y-95686607D01*
X125309428Y-95787543D01*
X125568120Y-95839000D01*
X125831880Y-95839000D01*
X126090572Y-95787543D01*
X126334254Y-95686607D01*
X126553563Y-95540069D01*
X126740069Y-95353563D01*
X126886607Y-95134254D01*
X126987543Y-94890572D01*
X127039000Y-94631880D01*
X127039000Y-94368120D01*
X126987543Y-94109428D01*
X126886607Y-93865746D01*
X126740069Y-93646437D01*
X126553563Y-93459931D01*
X126334254Y-93313393D01*
X126090572Y-93212457D01*
X125831880Y-93161000D01*
X125568120Y-93161000D01*
X125309428Y-93212457D01*
X125065746Y-93313393D01*
X124846437Y-93459931D01*
X124659931Y-93646437D01*
X124513393Y-93865746D01*
X124412457Y-94109428D01*
X124361000Y-94368120D01*
X124266068Y-94368120D01*
X124360299Y-94227095D01*
X124476011Y-93947743D01*
X124535000Y-93651184D01*
X124535000Y-93348816D01*
X124476011Y-93052257D01*
X124360299Y-92772905D01*
X124192312Y-92521495D01*
X123978505Y-92307688D01*
X123727095Y-92139701D01*
X123447743Y-92023989D01*
X123151184Y-91965000D01*
X122848816Y-91965000D01*
X122552257Y-92023989D01*
X122272905Y-92139701D01*
X122210000Y-92181733D01*
X122210000Y-87710401D01*
X127852660Y-87710401D01*
X127852660Y-87914279D01*
X127892434Y-88114238D01*
X127970455Y-88302596D01*
X128083723Y-88472114D01*
X128227886Y-88616277D01*
X128397404Y-88729545D01*
X128585762Y-88807566D01*
X128785721Y-88847340D01*
X128989599Y-88847340D01*
X129189558Y-88807566D01*
X129377916Y-88729545D01*
X129547434Y-88616277D01*
X129691597Y-88472114D01*
X129804865Y-88302596D01*
X129806743Y-88298061D01*
X133965000Y-88298061D01*
X133965000Y-88501939D01*
X134004774Y-88701898D01*
X134082795Y-88890256D01*
X134196063Y-89059774D01*
X134340226Y-89203937D01*
X134509744Y-89317205D01*
X134698102Y-89395226D01*
X134898061Y-89435000D01*
X135101939Y-89435000D01*
X135301898Y-89395226D01*
X135490256Y-89317205D01*
X135659774Y-89203937D01*
X135803937Y-89059774D01*
X135917205Y-88890256D01*
X135995226Y-88701898D01*
X136035000Y-88501939D01*
X136035000Y-88298061D01*
X135995226Y-88098102D01*
X135917205Y-87909744D01*
X135803937Y-87740226D01*
X135659774Y-87596063D01*
X135490256Y-87482795D01*
X135301898Y-87404774D01*
X135101939Y-87365000D01*
X134898061Y-87365000D01*
X134698102Y-87404774D01*
X134509744Y-87482795D01*
X134340226Y-87596063D01*
X134196063Y-87740226D01*
X134082795Y-87909744D01*
X134004774Y-88098102D01*
X133965000Y-88298061D01*
X129806743Y-88298061D01*
X129882886Y-88114238D01*
X129922660Y-87914279D01*
X129922660Y-87710401D01*
X129882886Y-87510442D01*
X129804865Y-87322084D01*
X129691597Y-87152566D01*
X129547434Y-87008403D01*
X129377916Y-86895135D01*
X129189558Y-86817114D01*
X128989599Y-86777340D01*
X128785721Y-86777340D01*
X128585762Y-86817114D01*
X128397404Y-86895135D01*
X128227886Y-87008403D01*
X128083723Y-87152566D01*
X127970455Y-87322084D01*
X127892434Y-87510442D01*
X127852660Y-87710401D01*
X122210000Y-87710401D01*
X122210000Y-84034876D01*
X122213435Y-84000000D01*
X122199727Y-83860816D01*
X122159128Y-83726980D01*
X122093200Y-83603637D01*
X122004475Y-83495525D01*
X121896363Y-83406800D01*
X121773020Y-83340872D01*
X121639184Y-83300273D01*
X121534877Y-83290000D01*
X121500000Y-83286565D01*
X121465123Y-83290000D01*
X118410000Y-83290000D01*
X118410000Y-82514515D01*
X118482795Y-82690256D01*
X118596063Y-82859774D01*
X118740226Y-83003937D01*
X118909744Y-83117205D01*
X119098102Y-83195226D01*
X119298061Y-83235000D01*
X119501939Y-83235000D01*
X119701898Y-83195226D01*
X119890256Y-83117205D01*
X120059774Y-83003937D01*
X120203937Y-82859774D01*
X120317205Y-82690256D01*
X120395226Y-82501898D01*
X120435000Y-82301939D01*
X120435000Y-82098061D01*
X120395226Y-81898102D01*
X120317205Y-81709744D01*
X120203937Y-81540226D01*
X120059774Y-81396063D01*
X119890256Y-81282795D01*
X119701898Y-81204774D01*
X119501939Y-81165000D01*
X119298061Y-81165000D01*
X119098102Y-81204774D01*
X118909744Y-81282795D01*
X118740226Y-81396063D01*
X118596063Y-81540226D01*
X118482795Y-81709744D01*
X118410000Y-81885485D01*
X118410000Y-75298061D01*
X120265000Y-75298061D01*
X120265000Y-75501939D01*
X120304774Y-75701898D01*
X120382795Y-75890256D01*
X120496063Y-76059774D01*
X120640226Y-76203937D01*
X120809744Y-76317205D01*
X120998102Y-76395226D01*
X121198061Y-76435000D01*
X121401939Y-76435000D01*
X121587645Y-76398061D01*
X123365000Y-76398061D01*
X123365000Y-76601939D01*
X123404774Y-76801898D01*
X123482795Y-76990256D01*
X123596063Y-77159774D01*
X123740226Y-77303937D01*
X123778619Y-77329591D01*
X123765000Y-77398061D01*
X123765000Y-77601939D01*
X123796177Y-77758678D01*
X123740226Y-77796063D01*
X123596063Y-77940226D01*
X123482795Y-78109744D01*
X123404774Y-78298102D01*
X123365000Y-78498061D01*
X123365000Y-78701939D01*
X123404774Y-78901898D01*
X123482795Y-79090256D01*
X123596063Y-79259774D01*
X123740226Y-79403937D01*
X123909744Y-79517205D01*
X124098102Y-79595226D01*
X124298061Y-79635000D01*
X124360199Y-79635000D01*
X125036201Y-80311003D01*
X125059999Y-80340001D01*
X125175724Y-80434974D01*
X125307753Y-80505546D01*
X125451014Y-80549003D01*
X125562667Y-80560000D01*
X125562676Y-80560000D01*
X125599999Y-80563676D01*
X125637322Y-80560000D01*
X134196289Y-80560000D01*
X134240226Y-80603937D01*
X134409744Y-80717205D01*
X134598102Y-80795226D01*
X134798061Y-80835000D01*
X135001939Y-80835000D01*
X135201898Y-80795226D01*
X135390256Y-80717205D01*
X135559774Y-80603937D01*
X135703937Y-80459774D01*
X135817205Y-80290256D01*
X135895226Y-80101898D01*
X135935000Y-79901939D01*
X135935000Y-79698061D01*
X135895226Y-79498102D01*
X135886551Y-79477160D01*
X136003937Y-79359774D01*
X136117205Y-79190256D01*
X136195226Y-79001898D01*
X136235000Y-78801939D01*
X136235000Y-78598061D01*
X136195226Y-78398102D01*
X136117205Y-78209744D01*
X136003937Y-78040226D01*
X135859774Y-77896063D01*
X135690256Y-77782795D01*
X135501898Y-77704774D01*
X135301939Y-77665000D01*
X135239802Y-77665000D01*
X134563804Y-76989003D01*
X134540001Y-76959999D01*
X134424276Y-76865026D01*
X134292247Y-76794454D01*
X134148986Y-76750997D01*
X134037333Y-76740000D01*
X134037322Y-76740000D01*
X134000000Y-76736324D01*
X133962678Y-76740000D01*
X125503711Y-76740000D01*
X125459774Y-76696063D01*
X125421381Y-76670409D01*
X125435000Y-76601939D01*
X125435000Y-76398061D01*
X125395226Y-76198102D01*
X125317205Y-76009744D01*
X125203937Y-75840226D01*
X125059774Y-75696063D01*
X124890256Y-75582795D01*
X124701898Y-75504774D01*
X124501939Y-75465000D01*
X124298061Y-75465000D01*
X124098102Y-75504774D01*
X123909744Y-75582795D01*
X123740226Y-75696063D01*
X123596063Y-75840226D01*
X123482795Y-76009744D01*
X123404774Y-76198102D01*
X123365000Y-76398061D01*
X121587645Y-76398061D01*
X121601898Y-76395226D01*
X121790256Y-76317205D01*
X121959774Y-76203937D01*
X122103937Y-76059774D01*
X122217205Y-75890256D01*
X122295226Y-75701898D01*
X122335000Y-75501939D01*
X122335000Y-75298061D01*
X122295226Y-75098102D01*
X122217205Y-74909744D01*
X122103937Y-74740226D01*
X121959774Y-74596063D01*
X121790256Y-74482795D01*
X121601898Y-74404774D01*
X121401939Y-74365000D01*
X121198061Y-74365000D01*
X120998102Y-74404774D01*
X120809744Y-74482795D01*
X120640226Y-74596063D01*
X120496063Y-74740226D01*
X120382795Y-74909744D01*
X120304774Y-75098102D01*
X120265000Y-75298061D01*
X118410000Y-75298061D01*
X118410000Y-74198061D01*
X123365000Y-74198061D01*
X123365000Y-74401939D01*
X123404774Y-74601898D01*
X123482795Y-74790256D01*
X123596063Y-74959774D01*
X123740226Y-75103937D01*
X123909744Y-75217205D01*
X124098102Y-75295226D01*
X124298061Y-75335000D01*
X124501939Y-75335000D01*
X124701898Y-75295226D01*
X124890256Y-75217205D01*
X125059774Y-75103937D01*
X125203937Y-74959774D01*
X125317205Y-74790256D01*
X125395226Y-74601898D01*
X125435000Y-74401939D01*
X125435000Y-74198061D01*
X125395226Y-73998102D01*
X125317205Y-73809744D01*
X125203937Y-73640226D01*
X125059774Y-73496063D01*
X124890256Y-73382795D01*
X124701898Y-73304774D01*
X124501939Y-73265000D01*
X124298061Y-73265000D01*
X124098102Y-73304774D01*
X123909744Y-73382795D01*
X123740226Y-73496063D01*
X123596063Y-73640226D01*
X123482795Y-73809744D01*
X123404774Y-73998102D01*
X123365000Y-74198061D01*
X118410000Y-74198061D01*
X118410000Y-71198061D01*
X119265000Y-71198061D01*
X119265000Y-71401939D01*
X119304774Y-71601898D01*
X119382795Y-71790256D01*
X119496063Y-71959774D01*
X119640226Y-72103937D01*
X119809744Y-72217205D01*
X119998102Y-72295226D01*
X120198061Y-72335000D01*
X120401939Y-72335000D01*
X120601898Y-72295226D01*
X120790256Y-72217205D01*
X120959774Y-72103937D01*
X121103937Y-71959774D01*
X121217205Y-71790256D01*
X121295226Y-71601898D01*
X121335000Y-71401939D01*
X121335000Y-71198061D01*
X121295226Y-70998102D01*
X121253788Y-70898061D01*
X123565000Y-70898061D01*
X123565000Y-71101939D01*
X123604774Y-71301898D01*
X123682795Y-71490256D01*
X123722715Y-71550000D01*
X123682795Y-71609744D01*
X123604774Y-71798102D01*
X123565000Y-71998061D01*
X123565000Y-72201939D01*
X123604774Y-72401898D01*
X123682795Y-72590256D01*
X123796063Y-72759774D01*
X123940226Y-72903937D01*
X124109744Y-73017205D01*
X124298102Y-73095226D01*
X124498061Y-73135000D01*
X124701939Y-73135000D01*
X124901898Y-73095226D01*
X125090256Y-73017205D01*
X125259774Y-72903937D01*
X125403937Y-72759774D01*
X125517205Y-72590256D01*
X125595226Y-72401898D01*
X125635000Y-72201939D01*
X125635000Y-71998061D01*
X125595226Y-71798102D01*
X125579444Y-71760000D01*
X133765000Y-71760000D01*
X133765000Y-71901939D01*
X133804774Y-72101898D01*
X133882795Y-72290256D01*
X133996063Y-72459774D01*
X134140226Y-72603937D01*
X134309744Y-72717205D01*
X134498102Y-72795226D01*
X134698061Y-72835000D01*
X134901939Y-72835000D01*
X135101898Y-72795226D01*
X135290256Y-72717205D01*
X135459774Y-72603937D01*
X135603937Y-72459774D01*
X135717205Y-72290256D01*
X135795226Y-72101898D01*
X135826729Y-71943519D01*
X135890256Y-71917205D01*
X136059774Y-71803937D01*
X136203937Y-71659774D01*
X136317205Y-71490256D01*
X136395226Y-71301898D01*
X136435000Y-71101939D01*
X136435000Y-70898061D01*
X136395226Y-70698102D01*
X136317205Y-70509744D01*
X136203937Y-70340226D01*
X136059774Y-70196063D01*
X135890256Y-70082795D01*
X135701898Y-70004774D01*
X135501939Y-69965000D01*
X135298061Y-69965000D01*
X135098102Y-70004774D01*
X134909744Y-70082795D01*
X134740226Y-70196063D01*
X134696289Y-70240000D01*
X125303711Y-70240000D01*
X125259774Y-70196063D01*
X125090256Y-70082795D01*
X124901898Y-70004774D01*
X124701939Y-69965000D01*
X124498061Y-69965000D01*
X124298102Y-70004774D01*
X124109744Y-70082795D01*
X123940226Y-70196063D01*
X123796063Y-70340226D01*
X123682795Y-70509744D01*
X123604774Y-70698102D01*
X123565000Y-70898061D01*
X121253788Y-70898061D01*
X121217205Y-70809744D01*
X121103937Y-70640226D01*
X120959774Y-70496063D01*
X120790256Y-70382795D01*
X120601898Y-70304774D01*
X120401939Y-70265000D01*
X120198061Y-70265000D01*
X119998102Y-70304774D01*
X119809744Y-70382795D01*
X119640226Y-70496063D01*
X119496063Y-70640226D01*
X119382795Y-70809744D01*
X119304774Y-70998102D01*
X119265000Y-71198061D01*
X118410000Y-71198061D01*
X118410000Y-69710000D01*
X171705909Y-69710000D01*
X178290000Y-76294092D01*
G37*
X178290000Y-76294092D02*
X178290001Y-137290000D01*
X167730971Y-137290000D01*
X167859774Y-137203937D01*
X168003937Y-137059774D01*
X168117205Y-136890256D01*
X168195226Y-136701898D01*
X168235000Y-136501939D01*
X168235000Y-136298061D01*
X168195226Y-136098102D01*
X168117205Y-135909744D01*
X168003937Y-135740226D01*
X167859774Y-135596063D01*
X167690256Y-135482795D01*
X167501898Y-135404774D01*
X167301939Y-135365000D01*
X167098061Y-135365000D01*
X166898102Y-135404774D01*
X166719432Y-135478782D01*
X166755000Y-135299969D01*
X166755000Y-135100031D01*
X166715994Y-134903935D01*
X166639481Y-134719217D01*
X166528402Y-134552975D01*
X166387025Y-134411598D01*
X166220783Y-134300519D01*
X166036065Y-134224006D01*
X165839969Y-134185000D01*
X165640031Y-134185000D01*
X165443935Y-134224006D01*
X165259217Y-134300519D01*
X165214210Y-134330591D01*
X165203937Y-134315216D01*
X165059774Y-134171053D01*
X164890256Y-134057785D01*
X164760001Y-134003831D01*
X164760001Y-133761825D01*
X164927618Y-133795166D01*
X165131496Y-133795166D01*
X165331455Y-133755392D01*
X165519813Y-133677371D01*
X165689331Y-133564103D01*
X165833494Y-133419940D01*
X165946762Y-133250422D01*
X166024783Y-133062064D01*
X166064557Y-132862105D01*
X166064557Y-132658227D01*
X166024783Y-132458268D01*
X166011295Y-132425705D01*
X166118497Y-132265266D01*
X166196518Y-132076908D01*
X166236292Y-131876949D01*
X166236292Y-131673071D01*
X166211292Y-131547387D01*
X166211292Y-130560935D01*
X166216178Y-130511327D01*
X166196677Y-130313332D01*
X166138924Y-130122947D01*
X166112413Y-130073349D01*
X166045139Y-129947487D01*
X165918925Y-129793694D01*
X165880392Y-129762071D01*
X164537285Y-128418964D01*
X164559774Y-128403937D01*
X164703937Y-128259774D01*
X164817205Y-128090256D01*
X164854119Y-128001137D01*
X164951598Y-128147025D01*
X165092975Y-128288402D01*
X165259217Y-128399481D01*
X165443935Y-128475994D01*
X165640031Y-128515000D01*
X165839969Y-128515000D01*
X166036065Y-128475994D01*
X166220783Y-128399481D01*
X166387025Y-128288402D01*
X166528402Y-128147025D01*
X166639481Y-127980783D01*
X166715994Y-127796065D01*
X166755000Y-127599969D01*
X166755000Y-127400031D01*
X166715994Y-127203935D01*
X166639481Y-127019217D01*
X166528402Y-126852975D01*
X166387025Y-126711598D01*
X166220783Y-126600519D01*
X166036065Y-126524006D01*
X165839969Y-126485000D01*
X165640031Y-126485000D01*
X165443935Y-126524006D01*
X165259217Y-126600519D01*
X165092975Y-126711598D01*
X164951598Y-126852975D01*
X164840519Y-127019217D01*
X164808449Y-127096640D01*
X164703937Y-126940226D01*
X164559774Y-126796063D01*
X164390256Y-126682795D01*
X164201898Y-126604774D01*
X164001939Y-126565000D01*
X163939802Y-126565000D01*
X163668782Y-126293981D01*
X163644980Y-126264978D01*
X163563442Y-126198061D01*
X166465000Y-126198061D01*
X166465000Y-126401939D01*
X166504774Y-126601898D01*
X166582795Y-126790256D01*
X166696063Y-126959774D01*
X166840226Y-127103937D01*
X167009744Y-127217205D01*
X167198102Y-127295226D01*
X167398061Y-127335000D01*
X167601939Y-127335000D01*
X167801898Y-127295226D01*
X167990256Y-127217205D01*
X168159774Y-127103937D01*
X168303937Y-126959774D01*
X168417205Y-126790256D01*
X168495226Y-126601898D01*
X168535000Y-126401939D01*
X168535000Y-126198061D01*
X168495226Y-125998102D01*
X168417205Y-125809744D01*
X168303937Y-125640226D01*
X168159774Y-125496063D01*
X167990256Y-125382795D01*
X167801898Y-125304774D01*
X167601939Y-125265000D01*
X167398061Y-125265000D01*
X167198102Y-125304774D01*
X167009744Y-125382795D01*
X166840226Y-125496063D01*
X166696063Y-125640226D01*
X166582795Y-125809744D01*
X166504774Y-125998102D01*
X166465000Y-126198061D01*
X163563442Y-126198061D01*
X163529255Y-126170005D01*
X163397226Y-126099433D01*
X163253965Y-126055976D01*
X163142312Y-126044979D01*
X163142301Y-126044979D01*
X163104979Y-126041303D01*
X163067657Y-126044979D01*
X162689676Y-126044979D01*
X161670207Y-125025510D01*
X161690256Y-125017205D01*
X161859774Y-124903937D01*
X162003937Y-124759774D01*
X162117205Y-124590256D01*
X162119941Y-124583652D01*
X162252879Y-124716590D01*
X162422397Y-124829858D01*
X162610755Y-124907879D01*
X162810714Y-124947653D01*
X163014592Y-124947653D01*
X163214551Y-124907879D01*
X163376914Y-124840625D01*
X163440226Y-124903937D01*
X163609744Y-125017205D01*
X163798102Y-125095226D01*
X163998061Y-125135000D01*
X164201939Y-125135000D01*
X164401898Y-125095226D01*
X164571630Y-125024920D01*
X164709744Y-125117205D01*
X164898102Y-125195226D01*
X165098061Y-125235000D01*
X165301939Y-125235000D01*
X165501898Y-125195226D01*
X165690256Y-125117205D01*
X165859774Y-125003937D01*
X166003937Y-124859774D01*
X166117205Y-124690256D01*
X166195226Y-124501898D01*
X166235000Y-124301939D01*
X166235000Y-124098061D01*
X166195226Y-123898102D01*
X166117205Y-123709744D01*
X166003937Y-123540226D01*
X165859774Y-123396063D01*
X165690256Y-123282795D01*
X165501898Y-123204774D01*
X165301939Y-123165000D01*
X165098061Y-123165000D01*
X164898102Y-123204774D01*
X164860000Y-123220556D01*
X164860000Y-122214801D01*
X165776740Y-121298061D01*
X174365000Y-121298061D01*
X174365000Y-121501939D01*
X174404774Y-121701898D01*
X174482795Y-121890256D01*
X174596063Y-122059774D01*
X174740226Y-122203937D01*
X174909744Y-122317205D01*
X175098102Y-122395226D01*
X175298061Y-122435000D01*
X175501939Y-122435000D01*
X175701898Y-122395226D01*
X175890256Y-122317205D01*
X176050000Y-122210468D01*
X176209744Y-122317205D01*
X176398102Y-122395226D01*
X176598061Y-122435000D01*
X176801939Y-122435000D01*
X177001898Y-122395226D01*
X177190256Y-122317205D01*
X177359774Y-122203937D01*
X177503937Y-122059774D01*
X177617205Y-121890256D01*
X177695226Y-121701898D01*
X177735000Y-121501939D01*
X177735000Y-121298061D01*
X177695226Y-121098102D01*
X177617205Y-120909744D01*
X177503937Y-120740226D01*
X177359774Y-120596063D01*
X177190256Y-120482795D01*
X177001898Y-120404774D01*
X176801939Y-120365000D01*
X176598061Y-120365000D01*
X176398102Y-120404774D01*
X176209744Y-120482795D01*
X176050000Y-120589532D01*
X175890256Y-120482795D01*
X175701898Y-120404774D01*
X175501939Y-120365000D01*
X175298061Y-120365000D01*
X175098102Y-120404774D01*
X174909744Y-120482795D01*
X174740226Y-120596063D01*
X174596063Y-120740226D01*
X174482795Y-120909744D01*
X174404774Y-121098102D01*
X174365000Y-121298061D01*
X165776740Y-121298061D01*
X174218511Y-112856290D01*
X174182795Y-112909744D01*
X174104774Y-113098102D01*
X174065000Y-113298061D01*
X174065000Y-113501939D01*
X174104774Y-113701898D01*
X174182795Y-113890256D01*
X174296063Y-114059774D01*
X174348179Y-114111890D01*
X174282795Y-114209744D01*
X174204774Y-114398102D01*
X174165000Y-114598061D01*
X174165000Y-114801939D01*
X174204774Y-115001898D01*
X174282795Y-115190256D01*
X174396063Y-115359774D01*
X174540226Y-115503937D01*
X174709744Y-115617205D01*
X174898102Y-115695226D01*
X175098061Y-115735000D01*
X175301939Y-115735000D01*
X175501898Y-115695226D01*
X175690256Y-115617205D01*
X175859774Y-115503937D01*
X176003937Y-115359774D01*
X176117205Y-115190256D01*
X176195226Y-115001898D01*
X176235000Y-114801939D01*
X176235000Y-114598061D01*
X176195226Y-114398102D01*
X176117205Y-114209744D01*
X176003937Y-114040226D01*
X175951821Y-113988110D01*
X176017205Y-113890256D01*
X176095226Y-113701898D01*
X176135000Y-113501939D01*
X176135000Y-113298061D01*
X176095226Y-113098102D01*
X176017205Y-112909744D01*
X175951821Y-112811890D01*
X176003937Y-112759774D01*
X176117205Y-112590256D01*
X176195226Y-112401898D01*
X176235000Y-112201939D01*
X176235000Y-111998061D01*
X176195226Y-111798102D01*
X176117205Y-111609744D01*
X176003937Y-111440226D01*
X175991875Y-111428164D01*
X176017205Y-111390256D01*
X176095226Y-111201898D01*
X176135000Y-111001939D01*
X176135000Y-110798061D01*
X176095226Y-110598102D01*
X176017205Y-110409744D01*
X175910468Y-110250000D01*
X176017205Y-110090256D01*
X176095226Y-109901898D01*
X176135000Y-109701939D01*
X176135000Y-109498061D01*
X176095226Y-109298102D01*
X176017205Y-109109744D01*
X175903937Y-108940226D01*
X175759774Y-108796063D01*
X175590256Y-108682795D01*
X175401898Y-108604774D01*
X175201939Y-108565000D01*
X174998061Y-108565000D01*
X174798102Y-108604774D01*
X174609744Y-108682795D01*
X174440226Y-108796063D01*
X174296063Y-108940226D01*
X174182795Y-109109744D01*
X174104774Y-109298102D01*
X174065000Y-109498061D01*
X174065000Y-109701939D01*
X174104774Y-109901898D01*
X174182795Y-110090256D01*
X174289532Y-110250000D01*
X174182795Y-110409744D01*
X174104774Y-110598102D01*
X174065000Y-110798061D01*
X174065000Y-110860198D01*
X173240844Y-111684354D01*
X173192195Y-111566905D01*
X173179092Y-111547296D01*
X173217205Y-111490256D01*
X173295226Y-111301898D01*
X173335000Y-111101939D01*
X173335000Y-110898061D01*
X173295226Y-110698102D01*
X173217205Y-110509744D01*
X173103937Y-110340226D01*
X172959774Y-110196063D01*
X172790256Y-110082795D01*
X172601898Y-110004774D01*
X172401939Y-109965000D01*
X172198061Y-109965000D01*
X171998102Y-110004774D01*
X171809744Y-110082795D01*
X171640226Y-110196063D01*
X171496063Y-110340226D01*
X171382795Y-110509744D01*
X171304774Y-110698102D01*
X171265000Y-110898061D01*
X171265000Y-111101939D01*
X171304774Y-111301898D01*
X171382795Y-111490256D01*
X171395898Y-111509865D01*
X171357785Y-111566905D01*
X171279764Y-111755263D01*
X171239990Y-111955222D01*
X171239990Y-112159100D01*
X171279764Y-112359059D01*
X171357785Y-112547417D01*
X171471053Y-112716935D01*
X171615216Y-112861098D01*
X171784734Y-112974366D01*
X171902183Y-113023015D01*
X170214723Y-114710475D01*
X170176562Y-114518625D01*
X170098541Y-114330267D01*
X170058252Y-114269971D01*
X170201066Y-114174546D01*
X170345229Y-114030383D01*
X170458497Y-113860865D01*
X170536518Y-113672507D01*
X170576292Y-113472548D01*
X170576292Y-113268670D01*
X170536518Y-113068711D01*
X170458497Y-112880353D01*
X170345229Y-112710835D01*
X170201066Y-112566672D01*
X170031548Y-112453404D01*
X169843190Y-112375383D01*
X169643231Y-112335609D01*
X169439353Y-112335609D01*
X169239394Y-112375383D01*
X169051036Y-112453404D01*
X168881518Y-112566672D01*
X168737355Y-112710835D01*
X168624087Y-112880353D01*
X168546066Y-113068711D01*
X168506292Y-113268670D01*
X168506292Y-113472548D01*
X168546066Y-113672507D01*
X168624087Y-113860865D01*
X168664376Y-113921161D01*
X168521562Y-114016586D01*
X168377399Y-114160749D01*
X168264131Y-114330267D01*
X168186110Y-114518625D01*
X168146336Y-114718584D01*
X168146336Y-114922462D01*
X168186110Y-115122421D01*
X168264131Y-115310779D01*
X168342875Y-115428628D01*
X168287579Y-115417629D01*
X168083701Y-115417629D01*
X167883742Y-115457403D01*
X167695384Y-115535424D01*
X167525866Y-115648692D01*
X167381703Y-115792855D01*
X167268435Y-115962373D01*
X167190414Y-116150731D01*
X167150640Y-116350690D01*
X167150640Y-116554568D01*
X167190414Y-116754527D01*
X167268435Y-116942885D01*
X167381703Y-117112403D01*
X167525866Y-117256566D01*
X167611448Y-117313750D01*
X163589003Y-121336196D01*
X163559999Y-121359999D01*
X163514694Y-121415204D01*
X163465026Y-121475724D01*
X163418713Y-121562369D01*
X163394454Y-121607754D01*
X163350997Y-121751015D01*
X163340000Y-121862668D01*
X163340000Y-121862678D01*
X163336324Y-121900000D01*
X163340000Y-121937323D01*
X163340000Y-122969390D01*
X163214551Y-122917427D01*
X163014592Y-122877653D01*
X162810714Y-122877653D01*
X162610755Y-122917427D01*
X162422397Y-122995448D01*
X162252879Y-123108716D01*
X162108716Y-123252879D01*
X161995448Y-123422397D01*
X161992712Y-123429001D01*
X161859774Y-123296063D01*
X161690256Y-123182795D01*
X161501898Y-123104774D01*
X161301939Y-123065000D01*
X161098061Y-123065000D01*
X161088570Y-123066888D01*
X161003937Y-122940226D01*
X160859774Y-122796063D01*
X160690256Y-122682795D01*
X160501898Y-122604774D01*
X160301939Y-122565000D01*
X160098061Y-122565000D01*
X159898102Y-122604774D01*
X159709744Y-122682795D01*
X159540226Y-122796063D01*
X159490493Y-122845796D01*
X154911347Y-118266650D01*
X154970091Y-118266650D01*
X155543048Y-118152682D01*
X156082762Y-117929125D01*
X156568492Y-117604571D01*
X156981571Y-117191492D01*
X157306125Y-116705762D01*
X157529682Y-116166048D01*
X157643650Y-115593091D01*
X157643650Y-115008909D01*
X157529682Y-114435952D01*
X157306125Y-113896238D01*
X156981571Y-113410508D01*
X156568492Y-112997429D01*
X156082762Y-112672875D01*
X155543048Y-112449318D01*
X154970091Y-112335350D01*
X154385909Y-112335350D01*
X153812952Y-112449318D01*
X153273238Y-112672875D01*
X152787508Y-112997429D01*
X152374429Y-113410508D01*
X152049875Y-113896238D01*
X151826318Y-114435952D01*
X151712350Y-115008909D01*
X151712350Y-115067654D01*
X144883241Y-108238545D01*
X145740358Y-108724388D01*
X145753764Y-108730853D01*
X145766531Y-108738508D01*
X145825106Y-108765259D01*
X145825124Y-108765268D01*
X145825129Y-108765270D01*
X146931633Y-109211114D01*
X146945774Y-109215748D01*
X146959442Y-109221648D01*
X147021060Y-109240423D01*
X148176814Y-109536011D01*
X148191445Y-109538735D01*
X148205774Y-109542775D01*
X148269334Y-109553235D01*
X149454029Y-109693370D01*
X149468886Y-109694135D01*
X149483629Y-109696245D01*
X149548012Y-109698207D01*
X149548014Y-109698207D01*
X150740835Y-109680427D01*
X150755672Y-109679219D01*
X150770554Y-109679361D01*
X150834634Y-109672791D01*
X152014625Y-109497409D01*
X152029170Y-109494250D01*
X152043942Y-109492422D01*
X152106590Y-109477435D01*
X153253021Y-109147533D01*
X153267014Y-109142480D01*
X153281422Y-109138713D01*
X153341510Y-109115581D01*
X153341536Y-109115572D01*
X153341543Y-109115568D01*
X154434266Y-108636943D01*
X154447473Y-108630081D01*
X154461250Y-108624444D01*
X154517776Y-108593556D01*
X155537603Y-107974613D01*
X155549786Y-107966065D01*
X155562697Y-107958655D01*
X155614641Y-107920562D01*
X156543652Y-107172177D01*
X156554596Y-107162094D01*
X156566416Y-107153040D01*
X156612841Y-107108435D01*
X156612866Y-107108412D01*
X156612873Y-107108404D01*
X157408333Y-106271511D01*
X157413608Y-106267347D01*
X157420704Y-106260424D01*
X157663157Y-106020595D01*
X157889511Y-105870841D01*
X158140644Y-105767903D01*
X158406991Y-105715704D01*
X158678404Y-105716232D01*
X158944540Y-105769468D01*
X159195273Y-105873384D01*
X159431504Y-106031000D01*
X159582580Y-106171383D01*
X159595844Y-106181487D01*
X159696570Y-106285046D01*
X159714855Y-106301449D01*
X159732005Y-106319042D01*
X159737571Y-106323972D01*
X160606763Y-107085722D01*
X160642238Y-107112778D01*
X160677376Y-107140162D01*
X160683559Y-107144291D01*
X161648090Y-107781030D01*
X161686905Y-107803018D01*
X161725439Y-107825383D01*
X161732125Y-107828634D01*
X162774148Y-108328580D01*
X162815566Y-108345088D01*
X162856800Y-108362026D01*
X162863866Y-108364340D01*
X163964100Y-108718242D01*
X164007437Y-108728992D01*
X164050525Y-108740160D01*
X164057840Y-108741494D01*
X164530580Y-108825114D01*
X164133508Y-109090429D01*
X163720429Y-109503508D01*
X163395875Y-109989238D01*
X163172318Y-110528952D01*
X163058350Y-111101909D01*
X163058350Y-111686091D01*
X163172318Y-112259048D01*
X163395875Y-112798762D01*
X163720429Y-113284492D01*
X164133508Y-113697571D01*
X164619238Y-114022125D01*
X165158952Y-114245682D01*
X165731909Y-114359650D01*
X166316091Y-114359650D01*
X166889048Y-114245682D01*
X167428762Y-114022125D01*
X167914492Y-113697571D01*
X168327571Y-113284492D01*
X168652125Y-112798762D01*
X168875682Y-112259048D01*
X168989650Y-111686091D01*
X168989650Y-111101909D01*
X168875682Y-110528952D01*
X168652125Y-109989238D01*
X168327571Y-109503508D01*
X167914492Y-109090429D01*
X167615640Y-108890743D01*
X167693661Y-108883135D01*
X167737687Y-108875792D01*
X167781684Y-108868927D01*
X167788927Y-108867246D01*
X168913357Y-108600011D01*
X168955969Y-108586764D01*
X168998638Y-108573988D01*
X169005571Y-108571344D01*
X169005585Y-108571340D01*
X169005597Y-108571334D01*
X170083344Y-108153974D01*
X170123770Y-108135063D01*
X170164303Y-108116618D01*
X170170827Y-108113051D01*
X171181971Y-107553279D01*
X171219422Y-107529079D01*
X171257113Y-107505281D01*
X171263092Y-107500862D01*
X171534486Y-107298061D01*
X175365000Y-107298061D01*
X175365000Y-107501939D01*
X175404774Y-107701898D01*
X175482795Y-107890256D01*
X175596063Y-108059774D01*
X175740226Y-108203937D01*
X175909744Y-108317205D01*
X176098102Y-108395226D01*
X176298061Y-108435000D01*
X176501939Y-108435000D01*
X176701898Y-108395226D01*
X176890256Y-108317205D01*
X177059774Y-108203937D01*
X177203937Y-108059774D01*
X177317205Y-107890256D01*
X177395226Y-107701898D01*
X177435000Y-107501939D01*
X177435000Y-107298061D01*
X177395226Y-107098102D01*
X177317205Y-106909744D01*
X177203937Y-106740226D01*
X177059774Y-106596063D01*
X176890256Y-106482795D01*
X176701898Y-106404774D01*
X176501939Y-106365000D01*
X176298061Y-106365000D01*
X176098102Y-106404774D01*
X175909744Y-106482795D01*
X175740226Y-106596063D01*
X175596063Y-106740226D01*
X175482795Y-106909744D01*
X175404774Y-107098102D01*
X175365000Y-107298061D01*
X171534486Y-107298061D01*
X172188911Y-106809040D01*
X172222773Y-106779946D01*
X172256842Y-106751289D01*
X172262159Y-106746106D01*
X172262167Y-106746099D01*
X172262174Y-106746091D01*
X173085530Y-105935030D01*
X173115152Y-105901584D01*
X173144995Y-105868593D01*
X173149566Y-105862729D01*
X173855235Y-104947422D01*
X173880019Y-104910303D01*
X173888379Y-104898061D01*
X174265000Y-104898061D01*
X174265000Y-105101939D01*
X174304774Y-105301898D01*
X174382795Y-105490256D01*
X174496063Y-105659774D01*
X174640226Y-105803937D01*
X174809744Y-105917205D01*
X174998102Y-105995226D01*
X175198061Y-106035000D01*
X175401939Y-106035000D01*
X175601898Y-105995226D01*
X175790256Y-105917205D01*
X175928370Y-105824920D01*
X176098102Y-105895226D01*
X176298061Y-105935000D01*
X176501939Y-105935000D01*
X176701898Y-105895226D01*
X176890256Y-105817205D01*
X177059774Y-105703937D01*
X177203937Y-105559774D01*
X177317205Y-105390256D01*
X177395226Y-105201898D01*
X177435000Y-105001939D01*
X177435000Y-104798061D01*
X177395226Y-104598102D01*
X177317205Y-104409744D01*
X177203937Y-104240226D01*
X177059774Y-104096063D01*
X176890256Y-103982795D01*
X176701898Y-103904774D01*
X176501939Y-103865000D01*
X176298061Y-103865000D01*
X176098102Y-103904774D01*
X175909744Y-103982795D01*
X175771630Y-104075080D01*
X175601898Y-104004774D01*
X175401939Y-103965000D01*
X175198061Y-103965000D01*
X174998102Y-104004774D01*
X174809744Y-104082795D01*
X174640226Y-104196063D01*
X174496063Y-104340226D01*
X174382795Y-104509744D01*
X174304774Y-104698102D01*
X174265000Y-104898061D01*
X173888379Y-104898061D01*
X173905133Y-104873530D01*
X173908866Y-104867099D01*
X174483786Y-103864489D01*
X174503284Y-103824389D01*
X174523195Y-103784509D01*
X174526020Y-103777631D01*
X174959550Y-102706273D01*
X174973443Y-102663843D01*
X174987739Y-102621684D01*
X174989605Y-102614487D01*
X175273724Y-101494204D01*
X175281719Y-101450342D01*
X175290173Y-101406572D01*
X175291044Y-101399188D01*
X175420495Y-100250710D01*
X175422462Y-100206206D01*
X175424899Y-100161656D01*
X175424760Y-100154222D01*
X175397146Y-98998802D01*
X175393051Y-98954399D01*
X175389423Y-98909976D01*
X175388277Y-98902630D01*
X175204111Y-97761647D01*
X175194017Y-97718165D01*
X175184404Y-97674690D01*
X175182275Y-97667582D01*
X175182272Y-97667567D01*
X175182267Y-97667554D01*
X174844959Y-96562135D01*
X174829067Y-96520449D01*
X174813633Y-96478657D01*
X174810554Y-96471889D01*
X174326340Y-95422465D01*
X174304929Y-95383307D01*
X174283974Y-95344010D01*
X174280005Y-95337723D01*
X174274508Y-95329117D01*
X174765000Y-95329117D01*
X174765000Y-95670883D01*
X174831675Y-96006081D01*
X174962463Y-96321831D01*
X175152337Y-96605998D01*
X175394002Y-96847663D01*
X175678169Y-97037537D01*
X175993919Y-97168325D01*
X176329117Y-97235000D01*
X176670883Y-97235000D01*
X177006081Y-97168325D01*
X177321831Y-97037537D01*
X177605998Y-96847663D01*
X177847663Y-96605998D01*
X178037537Y-96321831D01*
X178168325Y-96006081D01*
X178235000Y-95670883D01*
X178235000Y-95329117D01*
X178168325Y-94993919D01*
X178037537Y-94678169D01*
X177847663Y-94394002D01*
X177605998Y-94152337D01*
X177321831Y-93962463D01*
X177006081Y-93831675D01*
X176670883Y-93765000D01*
X176329117Y-93765000D01*
X175993919Y-93831675D01*
X175678169Y-93962463D01*
X175394002Y-94152337D01*
X175152337Y-94394002D01*
X174962463Y-94678169D01*
X174831675Y-94993919D01*
X174765000Y-95329117D01*
X174274508Y-95329117D01*
X173657846Y-94363722D01*
X173631328Y-94327844D01*
X173605225Y-94291743D01*
X173600439Y-94286053D01*
X172851850Y-93405501D01*
X172820720Y-93373566D01*
X172789947Y-93341329D01*
X172784433Y-93336342D01*
X171923266Y-92565532D01*
X171888104Y-92538128D01*
X171853227Y-92510355D01*
X171847087Y-92506162D01*
X170889276Y-91859357D01*
X170850708Y-91836972D01*
X170812396Y-91814196D01*
X170805744Y-91810875D01*
X169769013Y-91300045D01*
X169727750Y-91283096D01*
X169686716Y-91265736D01*
X169679675Y-91263348D01*
X168583209Y-90897944D01*
X168540045Y-90886756D01*
X168497016Y-90875121D01*
X168489716Y-90873711D01*
X167353804Y-90660497D01*
X167309484Y-90655266D01*
X167265312Y-90649583D01*
X167257888Y-90649176D01*
X166103549Y-90592094D01*
X166058924Y-90592927D01*
X166014394Y-90593291D01*
X166006983Y-90593896D01*
X164855577Y-90694005D01*
X164811481Y-90700886D01*
X164767411Y-90707291D01*
X164760153Y-90708895D01*
X164760147Y-90708897D01*
X163632984Y-90964341D01*
X163590291Y-90977124D01*
X163547435Y-90989469D01*
X163540460Y-90992045D01*
X162458390Y-91398102D01*
X162417774Y-91416585D01*
X162377044Y-91434608D01*
X162370483Y-91438106D01*
X161353533Y-91987259D01*
X161315807Y-92011079D01*
X161277892Y-92034468D01*
X161271867Y-92038824D01*
X160338854Y-92720913D01*
X160304705Y-92749637D01*
X160270321Y-92777950D01*
X160264952Y-92783076D01*
X160264943Y-92783083D01*
X160264936Y-92783091D01*
X159439178Y-93579654D01*
X159194350Y-93804852D01*
X158962632Y-93946341D01*
X158707855Y-94040123D01*
X158439710Y-94082635D01*
X158168414Y-94072253D01*
X157904298Y-94009374D01*
X157657432Y-93896395D01*
X157436113Y-93736825D01*
X157212365Y-93498756D01*
X157209465Y-93496219D01*
X157203178Y-93489162D01*
X156685928Y-92959039D01*
X156681507Y-92955071D01*
X156677566Y-92950610D01*
X156629806Y-92907386D01*
X155709903Y-92147834D01*
X155697823Y-92139139D01*
X155686580Y-92129384D01*
X155633523Y-92092856D01*
X154621245Y-91461640D01*
X154608121Y-91454619D01*
X154595687Y-91446437D01*
X154538265Y-91417247D01*
X153451398Y-90925456D01*
X153437466Y-90920234D01*
X153424054Y-90913766D01*
X153363276Y-90892427D01*
X152220912Y-90548701D01*
X152206406Y-90545367D01*
X152192262Y-90540731D01*
X152129196Y-90527618D01*
X150951409Y-90337996D01*
X150936587Y-90336609D01*
X150921955Y-90333885D01*
X150857709Y-90329227D01*
X149665189Y-90297041D01*
X149650310Y-90297627D01*
X149635451Y-90296862D01*
X149571153Y-90300743D01*
X148384852Y-90426558D01*
X148370195Y-90429104D01*
X148355352Y-90430312D01*
X148292140Y-90442661D01*
X148292131Y-90442663D01*
X148292128Y-90442664D01*
X147132892Y-90724268D01*
X147118692Y-90728733D01*
X147104146Y-90731892D01*
X147043115Y-90752495D01*
X145931302Y-91184944D01*
X145917814Y-91191249D01*
X145903818Y-91196303D01*
X145846047Y-91224797D01*
X144801196Y-91800492D01*
X144788667Y-91808521D01*
X144775456Y-91815385D01*
X144721962Y-91851269D01*
X143762428Y-92560094D01*
X143751070Y-92569710D01*
X143738883Y-92578261D01*
X143690605Y-92620905D01*
X142833246Y-93450408D01*
X142823255Y-93461447D01*
X142812311Y-93471530D01*
X142770096Y-93520185D01*
X142029977Y-94455792D01*
X142021536Y-94468052D01*
X142012019Y-94479497D01*
X141976625Y-94533285D01*
X141976610Y-94533307D01*
X141976607Y-94533314D01*
X141366732Y-95558582D01*
X141359985Y-95571854D01*
X141352068Y-95584453D01*
X141324087Y-95642474D01*
X141229862Y-95862890D01*
X141229862Y-95034193D01*
X141233539Y-94996860D01*
X141218865Y-94847874D01*
X141175408Y-94704613D01*
X141104836Y-94572584D01*
X141067110Y-94526615D01*
X141009863Y-94456859D01*
X140980865Y-94433061D01*
X138034999Y-91487196D01*
X138034999Y-77412332D01*
X138038676Y-77374999D01*
X138024002Y-77226013D01*
X137980545Y-77082752D01*
X137909973Y-76950723D01*
X137838798Y-76863996D01*
X137815000Y-76834998D01*
X137786002Y-76811200D01*
X136835000Y-75860199D01*
X136835000Y-75798061D01*
X136795226Y-75598102D01*
X136717205Y-75409744D01*
X136603937Y-75240226D01*
X136459774Y-75096063D01*
X136290256Y-74982795D01*
X136101898Y-74904774D01*
X135901939Y-74865000D01*
X135698061Y-74865000D01*
X135498102Y-74904774D01*
X135309744Y-74982795D01*
X135140226Y-75096063D01*
X134996063Y-75240226D01*
X134882795Y-75409744D01*
X134804774Y-75598102D01*
X134765000Y-75798061D01*
X134765000Y-76001939D01*
X134804774Y-76201898D01*
X134882795Y-76390256D01*
X134996063Y-76559774D01*
X135140226Y-76703937D01*
X135309744Y-76817205D01*
X135498102Y-76895226D01*
X135698061Y-76935000D01*
X135760199Y-76935000D01*
X136515000Y-77689802D01*
X136514999Y-91764675D01*
X136511323Y-91801997D01*
X136514999Y-91839319D01*
X136514999Y-91839329D01*
X136525996Y-91950982D01*
X136563892Y-92075911D01*
X136569453Y-92094243D01*
X136640025Y-92226273D01*
X136663106Y-92254397D01*
X136734998Y-92341998D01*
X136764002Y-92365801D01*
X136767245Y-92369044D01*
X136696063Y-92440226D01*
X136582795Y-92609744D01*
X136504774Y-92798102D01*
X136465000Y-92998061D01*
X136465000Y-93201939D01*
X136490000Y-93327624D01*
X136490000Y-93353617D01*
X136348411Y-93259010D01*
X136078158Y-93147068D01*
X135791260Y-93090000D01*
X135498740Y-93090000D01*
X135211842Y-93147068D01*
X134941589Y-93259010D01*
X134698368Y-93421525D01*
X134491525Y-93628368D01*
X134329010Y-93871589D01*
X134217068Y-94141842D01*
X134160000Y-94428740D01*
X134160000Y-94721260D01*
X134217068Y-95008158D01*
X134329010Y-95278411D01*
X134491525Y-95521632D01*
X134698368Y-95728475D01*
X134941589Y-95890990D01*
X135211842Y-96002932D01*
X135498740Y-96060000D01*
X135791260Y-96060000D01*
X136078158Y-96002932D01*
X136348411Y-95890990D01*
X136490000Y-95796383D01*
X136490001Y-102870452D01*
X136485114Y-102920070D01*
X136504615Y-103118064D01*
X136562368Y-103308449D01*
X136634158Y-103442759D01*
X132734994Y-99543595D01*
X132734994Y-92050070D01*
X132778931Y-92006133D01*
X132892199Y-91836615D01*
X132970220Y-91648257D01*
X133009994Y-91448298D01*
X133009994Y-91244420D01*
X132970220Y-91044461D01*
X132892199Y-90856103D01*
X132778931Y-90686585D01*
X132634768Y-90542422D01*
X132465250Y-90429154D01*
X132276892Y-90351133D01*
X132076933Y-90311359D01*
X131873055Y-90311359D01*
X131673096Y-90351133D01*
X131484738Y-90429154D01*
X131315220Y-90542422D01*
X131171057Y-90686585D01*
X131057789Y-90856103D01*
X130979768Y-91044461D01*
X130939994Y-91244420D01*
X130939994Y-91448298D01*
X130979768Y-91648257D01*
X131057789Y-91836615D01*
X131171057Y-92006133D01*
X131214995Y-92050071D01*
X131214994Y-99821074D01*
X131211318Y-99858396D01*
X131214994Y-99895718D01*
X131214994Y-99895728D01*
X131225991Y-100007381D01*
X131261804Y-100125443D01*
X131269448Y-100150642D01*
X131340020Y-100282672D01*
X131379865Y-100331222D01*
X131434993Y-100398397D01*
X131463997Y-100422200D01*
X135931797Y-104890000D01*
X132997261Y-104890000D01*
X132997261Y-104823051D01*
X132957487Y-104623092D01*
X132879466Y-104434734D01*
X132766198Y-104265216D01*
X132622035Y-104121053D01*
X132452517Y-104007785D01*
X132264159Y-103929764D01*
X132064200Y-103889990D01*
X131860322Y-103889990D01*
X131660363Y-103929764D01*
X131472005Y-104007785D01*
X131302487Y-104121053D01*
X131158324Y-104265216D01*
X131045056Y-104434734D01*
X130967035Y-104623092D01*
X130927261Y-104823051D01*
X130927261Y-104890000D01*
X127227623Y-104890000D01*
X127101939Y-104865000D01*
X126898061Y-104865000D01*
X126698102Y-104904774D01*
X126509744Y-104982795D01*
X126340226Y-105096063D01*
X126196063Y-105240226D01*
X126082795Y-105409744D01*
X126004774Y-105598102D01*
X125965000Y-105798061D01*
X125965000Y-106001939D01*
X126004774Y-106201898D01*
X126082795Y-106390256D01*
X126196063Y-106559774D01*
X126340226Y-106703937D01*
X126509744Y-106817205D01*
X126698102Y-106895226D01*
X126898061Y-106935000D01*
X127101939Y-106935000D01*
X127227623Y-106910000D01*
X136181645Y-106910000D01*
X141036645Y-111765000D01*
X140829117Y-111765000D01*
X140493919Y-111831675D01*
X140178169Y-111962463D01*
X139894002Y-112152337D01*
X139652337Y-112394002D01*
X139462463Y-112678169D01*
X139331675Y-112993919D01*
X139307486Y-113115526D01*
X139303460Y-113115129D01*
X139303449Y-113115129D01*
X139266127Y-113111453D01*
X139228805Y-113115129D01*
X135594937Y-113115129D01*
X135551000Y-113071192D01*
X135381482Y-112957924D01*
X135193124Y-112879903D01*
X134993165Y-112840129D01*
X134789287Y-112840129D01*
X134589328Y-112879903D01*
X134400970Y-112957924D01*
X134231452Y-113071192D01*
X134087289Y-113215355D01*
X133974021Y-113384873D01*
X133896000Y-113573231D01*
X133856226Y-113773190D01*
X133856226Y-113781424D01*
X133029053Y-112954252D01*
X133064325Y-112776929D01*
X133064325Y-112573051D01*
X133024551Y-112373092D01*
X132946530Y-112184734D01*
X132833262Y-112015216D01*
X132689099Y-111871053D01*
X132519581Y-111757785D01*
X132331223Y-111679764D01*
X132131264Y-111639990D01*
X131927386Y-111639990D01*
X131727427Y-111679764D01*
X131539069Y-111757785D01*
X131369551Y-111871053D01*
X131225388Y-112015216D01*
X131112120Y-112184734D01*
X131034099Y-112373092D01*
X130994325Y-112573051D01*
X130994325Y-112640000D01*
X129979444Y-112640000D01*
X129995226Y-112601898D01*
X130035000Y-112401939D01*
X130035000Y-112198061D01*
X129995226Y-111998102D01*
X129917205Y-111809744D01*
X129803937Y-111640226D01*
X129659774Y-111496063D01*
X129490256Y-111382795D01*
X129301898Y-111304774D01*
X129101939Y-111265000D01*
X128898061Y-111265000D01*
X128698102Y-111304774D01*
X128509744Y-111382795D01*
X128340226Y-111496063D01*
X128196063Y-111640226D01*
X128082795Y-111809744D01*
X128004774Y-111998102D01*
X127965000Y-112198061D01*
X127965000Y-112401939D01*
X127984445Y-112499699D01*
X127840226Y-112596063D01*
X127696063Y-112740226D01*
X127582795Y-112909744D01*
X127504774Y-113098102D01*
X127465000Y-113298061D01*
X127465000Y-113501939D01*
X127504774Y-113701898D01*
X127582795Y-113890256D01*
X127696063Y-114059774D01*
X127840226Y-114203937D01*
X128009744Y-114317205D01*
X128198102Y-114395226D01*
X128398061Y-114435000D01*
X128601939Y-114435000D01*
X128801898Y-114395226D01*
X128990256Y-114317205D01*
X129159774Y-114203937D01*
X129203711Y-114160000D01*
X132085199Y-114160000D01*
X133036200Y-115111002D01*
X133059999Y-115140001D01*
X133175724Y-115234974D01*
X133307753Y-115305546D01*
X133451014Y-115349003D01*
X133562667Y-115360000D01*
X133562676Y-115360000D01*
X133599999Y-115363676D01*
X133637322Y-115360000D01*
X134599544Y-115360000D01*
X134684753Y-115405546D01*
X134828014Y-115449003D01*
X134939667Y-115460000D01*
X134939677Y-115460000D01*
X134976999Y-115463676D01*
X135014322Y-115460000D01*
X139139786Y-115460000D01*
X139565799Y-115886014D01*
X139589598Y-115915013D01*
X139705323Y-116009986D01*
X139837352Y-116080558D01*
X139980613Y-116124015D01*
X140092266Y-116135012D01*
X140092275Y-116135012D01*
X140129598Y-116138688D01*
X140166921Y-116135012D01*
X140187209Y-116135012D01*
X146938197Y-122886001D01*
X146961996Y-122915000D01*
X146990994Y-122938798D01*
X147077721Y-123009973D01*
X147209750Y-123080545D01*
X147353011Y-123124002D01*
X147501997Y-123138676D01*
X147539330Y-123134999D01*
X148620399Y-123134999D01*
X148586827Y-123216049D01*
X148547053Y-123416008D01*
X148547053Y-123619886D01*
X148586827Y-123819845D01*
X148664848Y-124008203D01*
X148778116Y-124177721D01*
X148922279Y-124321884D01*
X149091797Y-124435152D01*
X149280155Y-124513173D01*
X149480114Y-124552947D01*
X149683992Y-124552947D01*
X149883951Y-124513173D01*
X150072309Y-124435152D01*
X150241827Y-124321884D01*
X150385990Y-124177721D01*
X150414535Y-124135000D01*
X150601939Y-124135000D01*
X150801898Y-124095226D01*
X150932155Y-124041271D01*
X153359441Y-126468557D01*
X153213695Y-126528927D01*
X152941812Y-126710594D01*
X152710594Y-126941812D01*
X152528927Y-127213695D01*
X152403793Y-127515796D01*
X152340000Y-127836504D01*
X152340000Y-128163496D01*
X152403793Y-128484204D01*
X152528927Y-128786305D01*
X152710594Y-129058188D01*
X152941812Y-129289406D01*
X153213695Y-129471073D01*
X153515796Y-129596207D01*
X153836504Y-129660000D01*
X154163496Y-129660000D01*
X154484204Y-129596207D01*
X154786305Y-129471073D01*
X155058188Y-129289406D01*
X155289406Y-129058188D01*
X155471073Y-128786305D01*
X155531443Y-128640559D01*
X158270210Y-131379327D01*
X158270210Y-131592888D01*
X158266534Y-131630210D01*
X158270210Y-131667532D01*
X158270210Y-131667543D01*
X158281207Y-131779196D01*
X158324664Y-131922457D01*
X158342716Y-131956229D01*
X158395236Y-132054486D01*
X158432911Y-132100392D01*
X158490210Y-132170211D01*
X158519208Y-132194009D01*
X160518466Y-134193268D01*
X160363935Y-134224006D01*
X160179217Y-134300519D01*
X160012975Y-134411598D01*
X159871598Y-134552975D01*
X159760519Y-134719217D01*
X159684006Y-134903935D01*
X159645000Y-135100031D01*
X159645000Y-135299969D01*
X159682799Y-135489999D01*
X158237194Y-135489999D01*
X158203937Y-135440226D01*
X158059774Y-135296063D01*
X157890256Y-135182795D01*
X157701898Y-135104774D01*
X157501939Y-135065000D01*
X157298061Y-135065000D01*
X157098102Y-135104774D01*
X156909744Y-135182795D01*
X156740226Y-135296063D01*
X156596063Y-135440226D01*
X156482795Y-135609744D01*
X156404774Y-135798102D01*
X156365000Y-135998061D01*
X156365000Y-136201939D01*
X156404774Y-136401898D01*
X156482795Y-136590256D01*
X156596063Y-136759774D01*
X156740226Y-136903937D01*
X156846778Y-136975133D01*
X157050734Y-137179088D01*
X157082366Y-137217632D01*
X157170547Y-137290000D01*
X150710000Y-137290000D01*
X150710000Y-134965123D01*
X150709513Y-134960182D01*
X150702523Y-134459576D01*
X150702449Y-134458337D01*
X150702484Y-134457097D01*
X150700685Y-134417490D01*
X150657478Y-133829117D01*
X152265000Y-133829117D01*
X152265000Y-134170883D01*
X152331675Y-134506081D01*
X152462463Y-134821831D01*
X152652337Y-135105998D01*
X152894002Y-135347663D01*
X153178169Y-135537537D01*
X153493919Y-135668325D01*
X153829117Y-135735000D01*
X154170883Y-135735000D01*
X154506081Y-135668325D01*
X154821831Y-135537537D01*
X155105998Y-135347663D01*
X155347663Y-135105998D01*
X155537537Y-134821831D01*
X155668325Y-134506081D01*
X155735000Y-134170883D01*
X155735000Y-133829117D01*
X155668325Y-133493919D01*
X155537537Y-133178169D01*
X155347663Y-132894002D01*
X155105998Y-132652337D01*
X154821831Y-132462463D01*
X154506081Y-132331675D01*
X154170883Y-132265000D01*
X153829117Y-132265000D01*
X153493919Y-132331675D01*
X153178169Y-132462463D01*
X152894002Y-132652337D01*
X152652337Y-132894002D01*
X152462463Y-133178169D01*
X152331675Y-133493919D01*
X152265000Y-133829117D01*
X150657478Y-133829117D01*
X150574438Y-132698326D01*
X150572971Y-132686020D01*
X150572192Y-132673645D01*
X150566811Y-132634363D01*
X150285270Y-130933716D01*
X150282694Y-130921596D01*
X150280797Y-130909342D01*
X150271878Y-130870709D01*
X149837363Y-129202578D01*
X149833695Y-129190727D01*
X149830698Y-129178708D01*
X149818331Y-129141095D01*
X149818315Y-129141043D01*
X149818307Y-129141024D01*
X149234400Y-127519159D01*
X149229679Y-127507706D01*
X149225600Y-127495991D01*
X149209874Y-127459653D01*
X149209854Y-127459604D01*
X149209845Y-127459586D01*
X148481347Y-125897316D01*
X148475599Y-125886320D01*
X148470482Y-125875041D01*
X148451503Y-125840230D01*
X147584400Y-124350400D01*
X147577687Y-124339983D01*
X147571562Y-124329201D01*
X147549506Y-124296254D01*
X146550945Y-122891142D01*
X146543306Y-122881364D01*
X146536238Y-122871195D01*
X146511287Y-122840382D01*
X145389487Y-121531555D01*
X145380997Y-121522514D01*
X145373033Y-121513023D01*
X145345391Y-121484599D01*
X144109585Y-120282830D01*
X144100321Y-120274605D01*
X144091519Y-120265864D01*
X144061444Y-120240087D01*
X144061416Y-120240062D01*
X144061405Y-120240054D01*
X142721776Y-119155244D01*
X142711799Y-119147889D01*
X142702248Y-119139987D01*
X142669929Y-119117019D01*
X141237483Y-118158080D01*
X141226875Y-118151656D01*
X141216651Y-118144655D01*
X141182384Y-118124711D01*
X139668923Y-117299545D01*
X139657787Y-117294113D01*
X139646961Y-117288063D01*
X139611027Y-117271307D01*
X138029007Y-116586706D01*
X138017417Y-116582303D01*
X138006094Y-116577262D01*
X137968790Y-116563832D01*
X136331235Y-116025431D01*
X136319302Y-116022099D01*
X136307561Y-116018102D01*
X136269207Y-116008112D01*
X136269193Y-116008108D01*
X136269188Y-116008107D01*
X134589579Y-115620339D01*
X134577377Y-115618100D01*
X134565338Y-115615187D01*
X134526222Y-115608711D01*
X132818377Y-115374765D01*
X132806027Y-115373641D01*
X132793769Y-115371831D01*
X132754227Y-115368927D01*
X131050932Y-115291581D01*
X131034877Y-115290000D01*
X122210000Y-115290000D01*
X122210000Y-110258363D01*
X122435000Y-110258363D01*
X122435000Y-110501637D01*
X122482460Y-110740236D01*
X122575557Y-110964992D01*
X122710713Y-111167267D01*
X122882733Y-111339287D01*
X123085008Y-111474443D01*
X123309764Y-111567540D01*
X123539894Y-111613315D01*
X123504774Y-111698102D01*
X123465000Y-111898061D01*
X123465000Y-112101939D01*
X123504774Y-112301898D01*
X123582795Y-112490256D01*
X123696063Y-112659774D01*
X123840226Y-112803937D01*
X124009744Y-112917205D01*
X124198102Y-112995226D01*
X124398061Y-113035000D01*
X124601939Y-113035000D01*
X124801898Y-112995226D01*
X124990256Y-112917205D01*
X125159774Y-112803937D01*
X125303937Y-112659774D01*
X125417205Y-112490256D01*
X125495226Y-112301898D01*
X125535000Y-112101939D01*
X125535000Y-111898061D01*
X125495226Y-111698102D01*
X125417205Y-111509744D01*
X125303937Y-111340226D01*
X125159774Y-111196063D01*
X124990256Y-111082795D01*
X124801898Y-111004774D01*
X124745374Y-110993531D01*
X124764443Y-110964992D01*
X124857540Y-110740236D01*
X124905000Y-110501637D01*
X124905000Y-110258363D01*
X124857540Y-110019764D01*
X124764443Y-109795008D01*
X124629287Y-109592733D01*
X124457267Y-109420713D01*
X124254992Y-109285557D01*
X124030236Y-109192460D01*
X123791637Y-109145000D01*
X123548363Y-109145000D01*
X123309764Y-109192460D01*
X123085008Y-109285557D01*
X122882733Y-109420713D01*
X122710713Y-109592733D01*
X122575557Y-109795008D01*
X122482460Y-110019764D01*
X122435000Y-110258363D01*
X122210000Y-110258363D01*
X122210000Y-104398061D01*
X122465000Y-104398061D01*
X122465000Y-104601939D01*
X122504774Y-104801898D01*
X122582795Y-104990256D01*
X122696063Y-105159774D01*
X122840226Y-105303937D01*
X123009744Y-105417205D01*
X123198102Y-105495226D01*
X123398061Y-105535000D01*
X123601939Y-105535000D01*
X123801898Y-105495226D01*
X123990256Y-105417205D01*
X124159774Y-105303937D01*
X124303937Y-105159774D01*
X124375132Y-105053223D01*
X126930294Y-102498061D01*
X130565000Y-102498061D01*
X130565000Y-102701939D01*
X130604774Y-102901898D01*
X130682795Y-103090256D01*
X130796063Y-103259774D01*
X130940226Y-103403937D01*
X131109744Y-103517205D01*
X131298102Y-103595226D01*
X131498061Y-103635000D01*
X131701939Y-103635000D01*
X131901898Y-103595226D01*
X132090256Y-103517205D01*
X132259774Y-103403937D01*
X132403937Y-103259774D01*
X132517205Y-103090256D01*
X132595226Y-102901898D01*
X132635000Y-102701939D01*
X132635000Y-102498061D01*
X132595226Y-102298102D01*
X132517205Y-102109744D01*
X132403937Y-101940226D01*
X132259774Y-101796063D01*
X132090256Y-101682795D01*
X131901898Y-101604774D01*
X131701939Y-101565000D01*
X131498061Y-101565000D01*
X131298102Y-101604774D01*
X131109744Y-101682795D01*
X130940226Y-101796063D01*
X130796063Y-101940226D01*
X130682795Y-102109744D01*
X130604774Y-102298102D01*
X130565000Y-102498061D01*
X126930294Y-102498061D01*
X127679100Y-101749256D01*
X127717633Y-101717633D01*
X127843847Y-101563840D01*
X127937632Y-101388380D01*
X127995385Y-101197994D01*
X128010000Y-101049608D01*
X128010000Y-101049599D01*
X128014885Y-101000001D01*
X128010000Y-100950403D01*
X128010000Y-98927623D01*
X128018608Y-98884350D01*
X128134754Y-98961956D01*
X128323112Y-99039977D01*
X128523071Y-99079751D01*
X128726949Y-99079751D01*
X128926908Y-99039977D01*
X129115266Y-98961956D01*
X129284784Y-98848688D01*
X129428947Y-98704525D01*
X129542215Y-98535007D01*
X129620236Y-98346649D01*
X129660010Y-98146690D01*
X129660010Y-97942812D01*
X129620236Y-97742853D01*
X129542215Y-97554495D01*
X129428947Y-97384977D01*
X129284784Y-97240814D01*
X129115266Y-97127546D01*
X128926908Y-97049525D01*
X128726949Y-97009751D01*
X128523071Y-97009751D01*
X128323112Y-97049525D01*
X128134754Y-97127546D01*
X127965236Y-97240814D01*
X127888914Y-97317136D01*
X127895226Y-97301898D01*
X127935000Y-97101939D01*
X127935000Y-96898061D01*
X127895226Y-96698102D01*
X127817205Y-96509744D01*
X127703937Y-96340226D01*
X127559774Y-96196063D01*
X127390256Y-96082795D01*
X127201898Y-96004774D01*
X127001939Y-95965000D01*
X126798061Y-95965000D01*
X126598102Y-96004774D01*
X126409744Y-96082795D01*
X126240226Y-96196063D01*
X126096063Y-96340226D01*
X125982795Y-96509744D01*
X125904774Y-96698102D01*
X125865000Y-96898061D01*
X125865000Y-97101939D01*
X125904774Y-97301898D01*
X125982795Y-97490256D01*
X126096063Y-97659774D01*
X126240226Y-97803937D01*
X126359164Y-97883409D01*
X126340226Y-97896063D01*
X126196063Y-98040226D01*
X126082795Y-98209744D01*
X126082349Y-98210821D01*
X125831880Y-98161000D01*
X125568120Y-98161000D01*
X125309428Y-98212457D01*
X125065746Y-98313393D01*
X124846437Y-98459931D01*
X124659931Y-98646437D01*
X124513393Y-98865746D01*
X124412457Y-99109428D01*
X124361000Y-99368120D01*
X124361000Y-99631880D01*
X124412457Y-99890572D01*
X124513393Y-100134254D01*
X124659931Y-100353563D01*
X124846437Y-100540069D01*
X125065746Y-100686607D01*
X125309428Y-100787543D01*
X125568120Y-100839000D01*
X125732644Y-100839000D01*
X122946777Y-103624868D01*
X122840226Y-103696063D01*
X122696063Y-103840226D01*
X122582795Y-104009744D01*
X122504774Y-104198102D01*
X122465000Y-104398061D01*
X122210000Y-104398061D01*
X122210000Y-101818267D01*
X122272905Y-101860299D01*
X122552257Y-101976011D01*
X122848816Y-102035000D01*
X123151184Y-102035000D01*
X123447743Y-101976011D01*
X123727095Y-101860299D01*
X123978505Y-101692312D01*
X124192312Y-101478505D01*
X124360299Y-101227095D01*
X124476011Y-100947743D01*
X124535000Y-100651184D01*
X124535000Y-100348816D01*
X124476011Y-100052257D01*
X124360299Y-99772905D01*
X124192312Y-99521495D01*
X123978505Y-99307688D01*
X123727095Y-99139701D01*
X123447743Y-99023989D01*
X123151184Y-98965000D01*
X122848816Y-98965000D01*
X122552257Y-99023989D01*
X122272905Y-99139701D01*
X122210000Y-99181733D01*
X122210000Y-94818267D01*
X122272905Y-94860299D01*
X122552257Y-94976011D01*
X122848816Y-95035000D01*
X123151184Y-95035000D01*
X123447743Y-94976011D01*
X123727095Y-94860299D01*
X123978505Y-94692312D01*
X124192312Y-94478505D01*
X124266068Y-94368120D01*
X124361000Y-94368120D01*
X124361000Y-94631880D01*
X124412457Y-94890572D01*
X124513393Y-95134254D01*
X124659931Y-95353563D01*
X124846437Y-95540069D01*
X125065746Y-95686607D01*
X125309428Y-95787543D01*
X125568120Y-95839000D01*
X125831880Y-95839000D01*
X126090572Y-95787543D01*
X126334254Y-95686607D01*
X126553563Y-95540069D01*
X126740069Y-95353563D01*
X126886607Y-95134254D01*
X126987543Y-94890572D01*
X127039000Y-94631880D01*
X127039000Y-94368120D01*
X126987543Y-94109428D01*
X126886607Y-93865746D01*
X126740069Y-93646437D01*
X126553563Y-93459931D01*
X126334254Y-93313393D01*
X126090572Y-93212457D01*
X125831880Y-93161000D01*
X125568120Y-93161000D01*
X125309428Y-93212457D01*
X125065746Y-93313393D01*
X124846437Y-93459931D01*
X124659931Y-93646437D01*
X124513393Y-93865746D01*
X124412457Y-94109428D01*
X124361000Y-94368120D01*
X124266068Y-94368120D01*
X124360299Y-94227095D01*
X124476011Y-93947743D01*
X124535000Y-93651184D01*
X124535000Y-93348816D01*
X124476011Y-93052257D01*
X124360299Y-92772905D01*
X124192312Y-92521495D01*
X123978505Y-92307688D01*
X123727095Y-92139701D01*
X123447743Y-92023989D01*
X123151184Y-91965000D01*
X122848816Y-91965000D01*
X122552257Y-92023989D01*
X122272905Y-92139701D01*
X122210000Y-92181733D01*
X122210000Y-87710401D01*
X127852660Y-87710401D01*
X127852660Y-87914279D01*
X127892434Y-88114238D01*
X127970455Y-88302596D01*
X128083723Y-88472114D01*
X128227886Y-88616277D01*
X128397404Y-88729545D01*
X128585762Y-88807566D01*
X128785721Y-88847340D01*
X128989599Y-88847340D01*
X129189558Y-88807566D01*
X129377916Y-88729545D01*
X129547434Y-88616277D01*
X129691597Y-88472114D01*
X129804865Y-88302596D01*
X129806743Y-88298061D01*
X133965000Y-88298061D01*
X133965000Y-88501939D01*
X134004774Y-88701898D01*
X134082795Y-88890256D01*
X134196063Y-89059774D01*
X134340226Y-89203937D01*
X134509744Y-89317205D01*
X134698102Y-89395226D01*
X134898061Y-89435000D01*
X135101939Y-89435000D01*
X135301898Y-89395226D01*
X135490256Y-89317205D01*
X135659774Y-89203937D01*
X135803937Y-89059774D01*
X135917205Y-88890256D01*
X135995226Y-88701898D01*
X136035000Y-88501939D01*
X136035000Y-88298061D01*
X135995226Y-88098102D01*
X135917205Y-87909744D01*
X135803937Y-87740226D01*
X135659774Y-87596063D01*
X135490256Y-87482795D01*
X135301898Y-87404774D01*
X135101939Y-87365000D01*
X134898061Y-87365000D01*
X134698102Y-87404774D01*
X134509744Y-87482795D01*
X134340226Y-87596063D01*
X134196063Y-87740226D01*
X134082795Y-87909744D01*
X134004774Y-88098102D01*
X133965000Y-88298061D01*
X129806743Y-88298061D01*
X129882886Y-88114238D01*
X129922660Y-87914279D01*
X129922660Y-87710401D01*
X129882886Y-87510442D01*
X129804865Y-87322084D01*
X129691597Y-87152566D01*
X129547434Y-87008403D01*
X129377916Y-86895135D01*
X129189558Y-86817114D01*
X128989599Y-86777340D01*
X128785721Y-86777340D01*
X128585762Y-86817114D01*
X128397404Y-86895135D01*
X128227886Y-87008403D01*
X128083723Y-87152566D01*
X127970455Y-87322084D01*
X127892434Y-87510442D01*
X127852660Y-87710401D01*
X122210000Y-87710401D01*
X122210000Y-84034876D01*
X122213435Y-84000000D01*
X122199727Y-83860816D01*
X122159128Y-83726980D01*
X122093200Y-83603637D01*
X122004475Y-83495525D01*
X121896363Y-83406800D01*
X121773020Y-83340872D01*
X121639184Y-83300273D01*
X121534877Y-83290000D01*
X121500000Y-83286565D01*
X121465123Y-83290000D01*
X118410000Y-83290000D01*
X118410000Y-82514515D01*
X118482795Y-82690256D01*
X118596063Y-82859774D01*
X118740226Y-83003937D01*
X118909744Y-83117205D01*
X119098102Y-83195226D01*
X119298061Y-83235000D01*
X119501939Y-83235000D01*
X119701898Y-83195226D01*
X119890256Y-83117205D01*
X120059774Y-83003937D01*
X120203937Y-82859774D01*
X120317205Y-82690256D01*
X120395226Y-82501898D01*
X120435000Y-82301939D01*
X120435000Y-82098061D01*
X120395226Y-81898102D01*
X120317205Y-81709744D01*
X120203937Y-81540226D01*
X120059774Y-81396063D01*
X119890256Y-81282795D01*
X119701898Y-81204774D01*
X119501939Y-81165000D01*
X119298061Y-81165000D01*
X119098102Y-81204774D01*
X118909744Y-81282795D01*
X118740226Y-81396063D01*
X118596063Y-81540226D01*
X118482795Y-81709744D01*
X118410000Y-81885485D01*
X118410000Y-75298061D01*
X120265000Y-75298061D01*
X120265000Y-75501939D01*
X120304774Y-75701898D01*
X120382795Y-75890256D01*
X120496063Y-76059774D01*
X120640226Y-76203937D01*
X120809744Y-76317205D01*
X120998102Y-76395226D01*
X121198061Y-76435000D01*
X121401939Y-76435000D01*
X121587645Y-76398061D01*
X123365000Y-76398061D01*
X123365000Y-76601939D01*
X123404774Y-76801898D01*
X123482795Y-76990256D01*
X123596063Y-77159774D01*
X123740226Y-77303937D01*
X123778619Y-77329591D01*
X123765000Y-77398061D01*
X123765000Y-77601939D01*
X123796177Y-77758678D01*
X123740226Y-77796063D01*
X123596063Y-77940226D01*
X123482795Y-78109744D01*
X123404774Y-78298102D01*
X123365000Y-78498061D01*
X123365000Y-78701939D01*
X123404774Y-78901898D01*
X123482795Y-79090256D01*
X123596063Y-79259774D01*
X123740226Y-79403937D01*
X123909744Y-79517205D01*
X124098102Y-79595226D01*
X124298061Y-79635000D01*
X124360199Y-79635000D01*
X125036201Y-80311003D01*
X125059999Y-80340001D01*
X125175724Y-80434974D01*
X125307753Y-80505546D01*
X125451014Y-80549003D01*
X125562667Y-80560000D01*
X125562676Y-80560000D01*
X125599999Y-80563676D01*
X125637322Y-80560000D01*
X134196289Y-80560000D01*
X134240226Y-80603937D01*
X134409744Y-80717205D01*
X134598102Y-80795226D01*
X134798061Y-80835000D01*
X135001939Y-80835000D01*
X135201898Y-80795226D01*
X135390256Y-80717205D01*
X135559774Y-80603937D01*
X135703937Y-80459774D01*
X135817205Y-80290256D01*
X135895226Y-80101898D01*
X135935000Y-79901939D01*
X135935000Y-79698061D01*
X135895226Y-79498102D01*
X135886551Y-79477160D01*
X136003937Y-79359774D01*
X136117205Y-79190256D01*
X136195226Y-79001898D01*
X136235000Y-78801939D01*
X136235000Y-78598061D01*
X136195226Y-78398102D01*
X136117205Y-78209744D01*
X136003937Y-78040226D01*
X135859774Y-77896063D01*
X135690256Y-77782795D01*
X135501898Y-77704774D01*
X135301939Y-77665000D01*
X135239802Y-77665000D01*
X134563804Y-76989003D01*
X134540001Y-76959999D01*
X134424276Y-76865026D01*
X134292247Y-76794454D01*
X134148986Y-76750997D01*
X134037333Y-76740000D01*
X134037322Y-76740000D01*
X134000000Y-76736324D01*
X133962678Y-76740000D01*
X125503711Y-76740000D01*
X125459774Y-76696063D01*
X125421381Y-76670409D01*
X125435000Y-76601939D01*
X125435000Y-76398061D01*
X125395226Y-76198102D01*
X125317205Y-76009744D01*
X125203937Y-75840226D01*
X125059774Y-75696063D01*
X124890256Y-75582795D01*
X124701898Y-75504774D01*
X124501939Y-75465000D01*
X124298061Y-75465000D01*
X124098102Y-75504774D01*
X123909744Y-75582795D01*
X123740226Y-75696063D01*
X123596063Y-75840226D01*
X123482795Y-76009744D01*
X123404774Y-76198102D01*
X123365000Y-76398061D01*
X121587645Y-76398061D01*
X121601898Y-76395226D01*
X121790256Y-76317205D01*
X121959774Y-76203937D01*
X122103937Y-76059774D01*
X122217205Y-75890256D01*
X122295226Y-75701898D01*
X122335000Y-75501939D01*
X122335000Y-75298061D01*
X122295226Y-75098102D01*
X122217205Y-74909744D01*
X122103937Y-74740226D01*
X121959774Y-74596063D01*
X121790256Y-74482795D01*
X121601898Y-74404774D01*
X121401939Y-74365000D01*
X121198061Y-74365000D01*
X120998102Y-74404774D01*
X120809744Y-74482795D01*
X120640226Y-74596063D01*
X120496063Y-74740226D01*
X120382795Y-74909744D01*
X120304774Y-75098102D01*
X120265000Y-75298061D01*
X118410000Y-75298061D01*
X118410000Y-74198061D01*
X123365000Y-74198061D01*
X123365000Y-74401939D01*
X123404774Y-74601898D01*
X123482795Y-74790256D01*
X123596063Y-74959774D01*
X123740226Y-75103937D01*
X123909744Y-75217205D01*
X124098102Y-75295226D01*
X124298061Y-75335000D01*
X124501939Y-75335000D01*
X124701898Y-75295226D01*
X124890256Y-75217205D01*
X125059774Y-75103937D01*
X125203937Y-74959774D01*
X125317205Y-74790256D01*
X125395226Y-74601898D01*
X125435000Y-74401939D01*
X125435000Y-74198061D01*
X125395226Y-73998102D01*
X125317205Y-73809744D01*
X125203937Y-73640226D01*
X125059774Y-73496063D01*
X124890256Y-73382795D01*
X124701898Y-73304774D01*
X124501939Y-73265000D01*
X124298061Y-73265000D01*
X124098102Y-73304774D01*
X123909744Y-73382795D01*
X123740226Y-73496063D01*
X123596063Y-73640226D01*
X123482795Y-73809744D01*
X123404774Y-73998102D01*
X123365000Y-74198061D01*
X118410000Y-74198061D01*
X118410000Y-71198061D01*
X119265000Y-71198061D01*
X119265000Y-71401939D01*
X119304774Y-71601898D01*
X119382795Y-71790256D01*
X119496063Y-71959774D01*
X119640226Y-72103937D01*
X119809744Y-72217205D01*
X119998102Y-72295226D01*
X120198061Y-72335000D01*
X120401939Y-72335000D01*
X120601898Y-72295226D01*
X120790256Y-72217205D01*
X120959774Y-72103937D01*
X121103937Y-71959774D01*
X121217205Y-71790256D01*
X121295226Y-71601898D01*
X121335000Y-71401939D01*
X121335000Y-71198061D01*
X121295226Y-70998102D01*
X121253788Y-70898061D01*
X123565000Y-70898061D01*
X123565000Y-71101939D01*
X123604774Y-71301898D01*
X123682795Y-71490256D01*
X123722715Y-71550000D01*
X123682795Y-71609744D01*
X123604774Y-71798102D01*
X123565000Y-71998061D01*
X123565000Y-72201939D01*
X123604774Y-72401898D01*
X123682795Y-72590256D01*
X123796063Y-72759774D01*
X123940226Y-72903937D01*
X124109744Y-73017205D01*
X124298102Y-73095226D01*
X124498061Y-73135000D01*
X124701939Y-73135000D01*
X124901898Y-73095226D01*
X125090256Y-73017205D01*
X125259774Y-72903937D01*
X125403937Y-72759774D01*
X125517205Y-72590256D01*
X125595226Y-72401898D01*
X125635000Y-72201939D01*
X125635000Y-71998061D01*
X125595226Y-71798102D01*
X125579444Y-71760000D01*
X133765000Y-71760000D01*
X133765000Y-71901939D01*
X133804774Y-72101898D01*
X133882795Y-72290256D01*
X133996063Y-72459774D01*
X134140226Y-72603937D01*
X134309744Y-72717205D01*
X134498102Y-72795226D01*
X134698061Y-72835000D01*
X134901939Y-72835000D01*
X135101898Y-72795226D01*
X135290256Y-72717205D01*
X135459774Y-72603937D01*
X135603937Y-72459774D01*
X135717205Y-72290256D01*
X135795226Y-72101898D01*
X135826729Y-71943519D01*
X135890256Y-71917205D01*
X136059774Y-71803937D01*
X136203937Y-71659774D01*
X136317205Y-71490256D01*
X136395226Y-71301898D01*
X136435000Y-71101939D01*
X136435000Y-70898061D01*
X136395226Y-70698102D01*
X136317205Y-70509744D01*
X136203937Y-70340226D01*
X136059774Y-70196063D01*
X135890256Y-70082795D01*
X135701898Y-70004774D01*
X135501939Y-69965000D01*
X135298061Y-69965000D01*
X135098102Y-70004774D01*
X134909744Y-70082795D01*
X134740226Y-70196063D01*
X134696289Y-70240000D01*
X125303711Y-70240000D01*
X125259774Y-70196063D01*
X125090256Y-70082795D01*
X124901898Y-70004774D01*
X124701939Y-69965000D01*
X124498061Y-69965000D01*
X124298102Y-70004774D01*
X124109744Y-70082795D01*
X123940226Y-70196063D01*
X123796063Y-70340226D01*
X123682795Y-70509744D01*
X123604774Y-70698102D01*
X123565000Y-70898061D01*
X121253788Y-70898061D01*
X121217205Y-70809744D01*
X121103937Y-70640226D01*
X120959774Y-70496063D01*
X120790256Y-70382795D01*
X120601898Y-70304774D01*
X120401939Y-70265000D01*
X120198061Y-70265000D01*
X119998102Y-70304774D01*
X119809744Y-70382795D01*
X119640226Y-70496063D01*
X119496063Y-70640226D01*
X119382795Y-70809744D01*
X119304774Y-70998102D01*
X119265000Y-71198061D01*
X118410000Y-71198061D01*
X118410000Y-69710000D01*
X171705909Y-69710000D01*
X178290000Y-76294092D01*
M02*
