G04 #@! TF.GenerationSoftware,KiCad,Pcbnew,5.1.6+dfsg1-1~bpo10+1*
G04 #@! TF.CreationDate,2021-03-28T20:23:35-04:00*
G04 #@! TF.ProjectId,RUSP_Daughterboard,52555350-5f44-4617-9567-68746572626f,rev?*
G04 #@! TF.SameCoordinates,Original*
G04 #@! TF.FileFunction,Copper,L3,Inr*
G04 #@! TF.FilePolarity,Positive*
%FSLAX46Y46*%
G04 Gerber Fmt 4.6, Leading zero omitted, Abs format (unit mm)*
G04 Created by KiCad (PCBNEW 5.1.6+dfsg1-1~bpo10+1) date 2021-03-28 20:23:35*
%MOMM*%
%LPD*%
G01*
G04 APERTURE LIST*
G04 #@! TA.AperFunction,ViaPad*
%ADD10C,1.408000*%
G04 #@! TD*
G04 #@! TA.AperFunction,ViaPad*
%ADD11C,1.800000*%
G04 #@! TD*
G04 #@! TA.AperFunction,ViaPad*
%ADD12C,0.800000*%
G04 #@! TD*
G04 #@! TA.AperFunction,Conductor*
%ADD13C,0.250000*%
G04 #@! TD*
G04 #@! TA.AperFunction,Conductor*
%ADD14C,0.500000*%
G04 #@! TD*
G04 #@! TA.AperFunction,Conductor*
%ADD15C,0.750000*%
G04 #@! TD*
G04 #@! TA.AperFunction,Conductor*
%ADD16C,0.254000*%
G04 #@! TD*
G04 APERTURE END LIST*
D10*
X125700000Y-99500000D03*
X125700000Y-94500000D03*
D11*
X123000000Y-100500000D03*
X123000000Y-93500000D03*
D12*
X119400000Y-82200000D03*
X120300000Y-71300000D03*
X121300000Y-75400000D03*
X175300000Y-105000000D03*
X176400000Y-104900000D03*
X176700000Y-121400000D03*
X135000000Y-88400000D03*
X124500000Y-112000000D03*
X129000000Y-112300000D03*
X146800000Y-120600000D03*
X149582053Y-123517947D03*
X168185640Y-116452629D03*
X165200000Y-124200000D03*
X127000000Y-98700000D03*
X123500000Y-104500000D03*
X175200000Y-114700000D03*
X162618761Y-131086265D03*
X175200000Y-112100000D03*
X161200000Y-124100000D03*
X134800000Y-71800000D03*
X175100000Y-109600000D03*
X176400000Y-107400000D03*
X131600000Y-102600000D03*
X160200000Y-123600000D03*
X161400000Y-130600000D03*
X124500000Y-73200000D03*
X137900000Y-71000000D03*
X138000000Y-78500000D03*
X172300000Y-109600000D03*
X175200000Y-107500000D03*
X138000000Y-79700000D03*
X159200000Y-133800000D03*
X169100000Y-132700000D03*
X124400000Y-74300000D03*
X169541292Y-113370609D03*
X124600000Y-72100000D03*
X169181336Y-114820523D03*
X163900000Y-127600000D03*
X135800000Y-75900000D03*
X124400000Y-76500000D03*
X172274990Y-112057161D03*
X124800000Y-77500000D03*
X172300000Y-111000000D03*
X135200000Y-78700000D03*
X175100000Y-110900000D03*
X164100000Y-124100000D03*
X164400000Y-134974990D03*
X131974994Y-91346359D03*
X128887660Y-87812340D03*
X128500000Y-113400000D03*
X163200000Y-131900000D03*
X163900000Y-137025010D03*
X132029325Y-112674990D03*
X147571375Y-119928625D03*
X150500000Y-123100000D03*
X162200000Y-134800000D03*
X134891226Y-113875129D03*
X162700000Y-135800000D03*
X175400000Y-121400000D03*
X127000000Y-105900000D03*
X158200000Y-127500000D03*
X128625010Y-98044751D03*
X165029557Y-132760166D03*
X126900000Y-97000000D03*
X167200000Y-136400000D03*
X157400000Y-136100000D03*
X161600000Y-136100000D03*
X124400000Y-78600000D03*
X134900000Y-79800000D03*
X124600000Y-71000000D03*
X135400000Y-71000000D03*
X137500000Y-93100000D03*
X165201292Y-131775010D03*
X145000000Y-116000000D03*
X159755211Y-131280531D03*
X131962261Y-104924990D03*
X167500000Y-126300000D03*
X175100000Y-113400000D03*
X162912653Y-123912653D03*
D13*
X163786737Y-131086265D02*
X169300000Y-125573002D01*
X162618761Y-131086265D02*
X163786737Y-131086265D01*
X169300000Y-120600000D02*
X175200000Y-114700000D01*
X169300000Y-125573002D02*
X169300000Y-120600000D01*
X175200000Y-112100000D02*
X173550011Y-113749989D01*
X173550011Y-113749989D02*
X171913600Y-113749989D01*
X161563589Y-124100000D02*
X161200000Y-124100000D01*
X171913600Y-113749989D02*
X161563589Y-124100000D01*
X172163611Y-113299978D02*
X171727200Y-113299978D01*
X171727200Y-113299978D02*
X169299550Y-115727628D01*
X169299550Y-115727628D02*
X167837639Y-115727628D01*
X167837639Y-115727628D02*
X167460639Y-116104628D01*
X167460639Y-116104628D02*
X167460639Y-116541039D01*
X167460639Y-116541039D02*
X160401678Y-123600000D01*
X175100000Y-109600000D02*
X173225001Y-111474999D01*
X160401678Y-123600000D02*
X160200000Y-123600000D01*
X173225001Y-112238588D02*
X172163611Y-113299978D01*
X173225001Y-111474999D02*
X173225001Y-112238588D01*
D14*
X168125021Y-133674979D02*
X169100000Y-132700000D01*
X159200000Y-133800000D02*
X159325021Y-133674979D01*
X159325021Y-133674979D02*
X168125021Y-133674979D01*
D13*
X168921835Y-113370609D02*
X169541292Y-113370609D01*
X167278439Y-114377595D02*
X167914849Y-114377595D01*
X167914849Y-114377595D02*
X168921835Y-113370609D01*
X133600023Y-83500023D02*
X133600023Y-98616437D01*
X133600023Y-98616437D02*
X154383542Y-119399956D01*
X162256078Y-119399956D02*
X167278439Y-114377595D01*
X124400000Y-74300000D02*
X133600023Y-83500023D01*
X154383542Y-119399956D02*
X162256078Y-119399956D01*
X167651239Y-115277617D02*
X168724242Y-115277617D01*
X167010628Y-116354639D02*
X167010628Y-115918228D01*
X154010743Y-120299978D02*
X163065289Y-120299978D01*
X123500000Y-72634315D02*
X123500000Y-89789235D01*
X163065289Y-120299978D02*
X167010628Y-116354639D01*
X168724242Y-115277617D02*
X169181336Y-114820523D01*
X167010628Y-115918228D02*
X167651239Y-115277617D01*
X123500000Y-89789235D02*
X154010743Y-120299978D01*
X124034315Y-72100000D02*
X123500000Y-72634315D01*
X124600000Y-72100000D02*
X124034315Y-72100000D01*
X167464839Y-114827606D02*
X168101249Y-114827606D01*
X168833334Y-114095521D02*
X169529338Y-114095521D01*
X169529338Y-114095521D02*
X169567413Y-114133596D01*
X154197143Y-119849967D02*
X162878889Y-119849967D01*
X133150012Y-98802836D02*
X154197143Y-119849967D01*
X170198555Y-114133596D02*
X172274990Y-112057161D01*
X169567413Y-114133596D02*
X170198555Y-114133596D01*
X166560617Y-115731828D02*
X167464839Y-114827606D01*
X168101249Y-114827606D02*
X168833334Y-114095521D01*
X124965685Y-76500000D02*
X133150012Y-84684327D01*
X124400000Y-76500000D02*
X124965685Y-76500000D01*
X162878889Y-119849967D02*
X166560617Y-116168239D01*
X166560617Y-116168239D02*
X166560617Y-115731828D01*
X133150012Y-84684327D02*
X133150012Y-98802836D01*
X154577771Y-118949945D02*
X134174999Y-98547173D01*
X134174999Y-98547173D02*
X134174999Y-79159316D01*
X134634315Y-78700000D02*
X135200000Y-78700000D01*
X172300000Y-111000000D02*
X170256035Y-111000000D01*
X170256035Y-111000000D02*
X167328451Y-113927584D01*
X162069678Y-118949945D02*
X154577771Y-118949945D01*
X134174999Y-79159316D02*
X134634315Y-78700000D01*
X167092039Y-113927584D02*
X162069678Y-118949945D01*
X167328451Y-113927584D02*
X167092039Y-113927584D01*
X151749981Y-129020803D02*
X151749980Y-127986390D01*
X160154187Y-137425009D02*
X151749981Y-129020803D01*
X163900000Y-137025010D02*
X163500001Y-137425009D01*
X136438580Y-112674990D02*
X132029325Y-112674990D01*
X151749980Y-127986390D02*
X136438580Y-112674990D01*
X163500001Y-137425009D02*
X160154187Y-137425009D01*
X175300000Y-129199978D02*
X175300000Y-121500000D01*
X170249989Y-134249989D02*
X175300000Y-129199978D01*
X175300000Y-121500000D02*
X175400000Y-121400000D01*
X164051999Y-134249989D02*
X170249989Y-134249989D01*
X162700000Y-135800000D02*
X162700000Y-135601988D01*
X162700000Y-135601988D02*
X164051999Y-134249989D01*
X156762164Y-132760166D02*
X165029557Y-132760166D01*
X128625010Y-98044751D02*
X128625010Y-103588598D01*
X152649999Y-127613587D02*
X152649999Y-128648001D01*
X128625010Y-103588598D02*
X152649999Y-127613587D01*
X152649999Y-128648001D02*
X156762164Y-132760166D01*
X166800001Y-136000001D02*
X167200000Y-136400000D01*
X162875020Y-136924980D02*
X163799999Y-136000001D01*
X127900000Y-98000000D02*
X127900000Y-103500000D01*
X152199989Y-127799989D02*
X152199990Y-128834402D01*
X163799999Y-136000001D02*
X166800001Y-136000001D01*
X160290568Y-136924980D02*
X162875020Y-136924980D01*
X127900000Y-103500000D02*
X152199989Y-127799989D01*
X126900000Y-97000000D02*
X127900000Y-98000000D01*
X152199990Y-128834402D02*
X160290568Y-136924980D01*
D15*
X145565685Y-116000000D02*
X157224995Y-127659310D01*
X145000000Y-116000000D02*
X145565685Y-116000000D01*
X157224995Y-128750315D02*
X159755211Y-131280531D01*
X157224995Y-127659310D02*
X157224995Y-128750315D01*
X136724990Y-104924990D02*
X158100000Y-126300000D01*
X158100000Y-126300000D02*
X167500000Y-126300000D01*
X131962261Y-104924990D02*
X136724990Y-104924990D01*
D13*
X162912653Y-123387347D02*
X162912653Y-123912653D01*
X174300000Y-114200000D02*
X172100000Y-114200000D01*
X175100000Y-113400000D02*
X174300000Y-114200000D01*
X172100000Y-114200000D02*
X162912653Y-123387347D01*
D16*
G36*
X178290000Y-76294092D02*
G01*
X178290001Y-137290000D01*
X167730971Y-137290000D01*
X167859774Y-137203937D01*
X168003937Y-137059774D01*
X168117205Y-136890256D01*
X168195226Y-136701898D01*
X168235000Y-136501939D01*
X168235000Y-136298061D01*
X168195226Y-136098102D01*
X168117205Y-135909744D01*
X168003937Y-135740226D01*
X167859774Y-135596063D01*
X167690256Y-135482795D01*
X167501898Y-135404774D01*
X167301939Y-135365000D01*
X167224226Y-135365000D01*
X167092248Y-135294455D01*
X166948987Y-135250998D01*
X166837334Y-135240001D01*
X166837323Y-135240001D01*
X166800001Y-135236325D01*
X166762679Y-135240001D01*
X166755000Y-135240001D01*
X166755000Y-135100031D01*
X166737089Y-135009989D01*
X170212667Y-135009989D01*
X170249989Y-135013665D01*
X170287311Y-135009989D01*
X170287322Y-135009989D01*
X170398975Y-134998992D01*
X170542236Y-134955535D01*
X170674265Y-134884963D01*
X170789990Y-134789990D01*
X170813793Y-134760986D01*
X175811004Y-129763776D01*
X175840001Y-129739979D01*
X175882703Y-129687947D01*
X175934974Y-129624255D01*
X176005546Y-129492225D01*
X176019847Y-129445079D01*
X176049003Y-129348964D01*
X176060000Y-129237311D01*
X176060000Y-129237302D01*
X176063676Y-129199979D01*
X176060000Y-129162656D01*
X176060000Y-122217150D01*
X176209744Y-122317205D01*
X176398102Y-122395226D01*
X176598061Y-122435000D01*
X176801939Y-122435000D01*
X177001898Y-122395226D01*
X177190256Y-122317205D01*
X177359774Y-122203937D01*
X177503937Y-122059774D01*
X177617205Y-121890256D01*
X177695226Y-121701898D01*
X177735000Y-121501939D01*
X177735000Y-121298061D01*
X177695226Y-121098102D01*
X177617205Y-120909744D01*
X177503937Y-120740226D01*
X177359774Y-120596063D01*
X177190256Y-120482795D01*
X177001898Y-120404774D01*
X176801939Y-120365000D01*
X176598061Y-120365000D01*
X176398102Y-120404774D01*
X176209744Y-120482795D01*
X176050000Y-120589532D01*
X175890256Y-120482795D01*
X175701898Y-120404774D01*
X175501939Y-120365000D01*
X175298061Y-120365000D01*
X175098102Y-120404774D01*
X174909744Y-120482795D01*
X174740226Y-120596063D01*
X174596063Y-120740226D01*
X174482795Y-120909744D01*
X174404774Y-121098102D01*
X174365000Y-121298061D01*
X174365000Y-121501939D01*
X174404774Y-121701898D01*
X174482795Y-121890256D01*
X174540001Y-121975871D01*
X174540000Y-128885176D01*
X169935188Y-133489989D01*
X169773722Y-133489989D01*
X169903937Y-133359774D01*
X170017205Y-133190256D01*
X170095226Y-133001898D01*
X170135000Y-132801939D01*
X170135000Y-132598061D01*
X170095226Y-132398102D01*
X170017205Y-132209744D01*
X169903937Y-132040226D01*
X169759774Y-131896063D01*
X169590256Y-131782795D01*
X169401898Y-131704774D01*
X169201939Y-131665000D01*
X168998061Y-131665000D01*
X168798102Y-131704774D01*
X168609744Y-131782795D01*
X168440226Y-131896063D01*
X168296063Y-132040226D01*
X168182795Y-132209744D01*
X168104774Y-132398102D01*
X168093465Y-132454956D01*
X167758443Y-132789979D01*
X166064557Y-132789979D01*
X166064557Y-132658227D01*
X166024783Y-132458268D01*
X166011295Y-132425705D01*
X166118497Y-132265266D01*
X166196518Y-132076908D01*
X166236292Y-131876949D01*
X166236292Y-131673071D01*
X166196518Y-131473112D01*
X166118497Y-131284754D01*
X166005229Y-131115236D01*
X165861066Y-130971073D01*
X165691548Y-130857805D01*
X165503190Y-130779784D01*
X165303231Y-130740010D01*
X165207793Y-130740010D01*
X169811004Y-126136800D01*
X169840001Y-126113003D01*
X169934974Y-125997278D01*
X170005546Y-125865249D01*
X170049003Y-125721988D01*
X170060000Y-125610335D01*
X170060000Y-125610326D01*
X170063676Y-125573003D01*
X170060000Y-125535680D01*
X170060000Y-120914801D01*
X175239802Y-115735000D01*
X175301939Y-115735000D01*
X175501898Y-115695226D01*
X175690256Y-115617205D01*
X175859774Y-115503937D01*
X176003937Y-115359774D01*
X176117205Y-115190256D01*
X176195226Y-115001898D01*
X176235000Y-114801939D01*
X176235000Y-114598061D01*
X176195226Y-114398102D01*
X176117205Y-114209744D01*
X176003937Y-114040226D01*
X175951821Y-113988110D01*
X176017205Y-113890256D01*
X176095226Y-113701898D01*
X176135000Y-113501939D01*
X176135000Y-113298061D01*
X176095226Y-113098102D01*
X176017205Y-112909744D01*
X175951821Y-112811890D01*
X176003937Y-112759774D01*
X176117205Y-112590256D01*
X176195226Y-112401898D01*
X176235000Y-112201939D01*
X176235000Y-111998061D01*
X176195226Y-111798102D01*
X176117205Y-111609744D01*
X176003937Y-111440226D01*
X175991875Y-111428164D01*
X176017205Y-111390256D01*
X176095226Y-111201898D01*
X176135000Y-111001939D01*
X176135000Y-110798061D01*
X176095226Y-110598102D01*
X176017205Y-110409744D01*
X175903937Y-110240226D01*
X175759774Y-110096063D01*
X175590256Y-109982795D01*
X175401898Y-109904774D01*
X175201939Y-109865000D01*
X174998061Y-109865000D01*
X174798102Y-109904774D01*
X174609744Y-109982795D01*
X174440226Y-110096063D01*
X174296063Y-110240226D01*
X174182795Y-110409744D01*
X174104774Y-110598102D01*
X174065000Y-110798061D01*
X174065000Y-111001939D01*
X174104774Y-111201898D01*
X174182795Y-111390256D01*
X174296063Y-111559774D01*
X174308125Y-111571836D01*
X174282795Y-111609744D01*
X174204774Y-111798102D01*
X174165000Y-111998061D01*
X174165000Y-112060198D01*
X173235210Y-112989989D01*
X172727529Y-112989989D01*
X172765246Y-112974366D01*
X172934764Y-112861098D01*
X173078927Y-112716935D01*
X173192195Y-112547417D01*
X173270216Y-112359059D01*
X173309990Y-112159100D01*
X173309990Y-111955222D01*
X173270216Y-111755263D01*
X173192195Y-111566905D01*
X173179092Y-111547296D01*
X173217205Y-111490256D01*
X173295226Y-111301898D01*
X173335000Y-111101939D01*
X173335000Y-110898061D01*
X173295226Y-110698102D01*
X173217205Y-110509744D01*
X173103937Y-110340226D01*
X173063711Y-110300000D01*
X173103937Y-110259774D01*
X173217205Y-110090256D01*
X173295226Y-109901898D01*
X173335000Y-109701939D01*
X173335000Y-109498061D01*
X173295226Y-109298102D01*
X173217205Y-109109744D01*
X173103937Y-108940226D01*
X172959774Y-108796063D01*
X172790256Y-108682795D01*
X172601898Y-108604774D01*
X172401939Y-108565000D01*
X172198061Y-108565000D01*
X171998102Y-108604774D01*
X171809744Y-108682795D01*
X171640226Y-108796063D01*
X171496063Y-108940226D01*
X171382795Y-109109744D01*
X171304774Y-109298102D01*
X171265000Y-109498061D01*
X171265000Y-109701939D01*
X171304774Y-109901898D01*
X171382795Y-110090256D01*
X171482850Y-110240000D01*
X170293357Y-110240000D01*
X170256035Y-110236324D01*
X170218712Y-110240000D01*
X170218702Y-110240000D01*
X170107049Y-110250997D01*
X169963788Y-110294454D01*
X169831758Y-110365026D01*
X169777270Y-110409744D01*
X169716034Y-110459999D01*
X169692236Y-110488997D01*
X168989650Y-111191583D01*
X168989650Y-111101909D01*
X168875682Y-110528952D01*
X168652125Y-109989238D01*
X168327571Y-109503508D01*
X167914492Y-109090429D01*
X167615640Y-108890743D01*
X167693661Y-108883135D01*
X167737687Y-108875792D01*
X167781684Y-108868927D01*
X167788927Y-108867246D01*
X168913357Y-108600011D01*
X168955969Y-108586764D01*
X168998638Y-108573988D01*
X169005571Y-108571344D01*
X169005585Y-108571340D01*
X169005597Y-108571334D01*
X170083344Y-108153974D01*
X170123770Y-108135063D01*
X170164303Y-108116618D01*
X170170827Y-108113051D01*
X171181971Y-107553279D01*
X171219422Y-107529079D01*
X171257113Y-107505281D01*
X171263092Y-107500862D01*
X171400663Y-107398061D01*
X174165000Y-107398061D01*
X174165000Y-107601939D01*
X174204774Y-107801898D01*
X174282795Y-107990256D01*
X174396063Y-108159774D01*
X174540226Y-108303937D01*
X174709744Y-108417205D01*
X174898102Y-108495226D01*
X175098061Y-108535000D01*
X175301939Y-108535000D01*
X175501898Y-108495226D01*
X175690256Y-108417205D01*
X175859774Y-108303937D01*
X176003937Y-108159774D01*
X176117205Y-107990256D01*
X176195226Y-107801898D01*
X176235000Y-107601939D01*
X176235000Y-107398061D01*
X176195226Y-107198102D01*
X176117205Y-107009744D01*
X176003937Y-106840226D01*
X175859774Y-106696063D01*
X175690256Y-106582795D01*
X175501898Y-106504774D01*
X175301939Y-106465000D01*
X175098061Y-106465000D01*
X174898102Y-106504774D01*
X174709744Y-106582795D01*
X174540226Y-106696063D01*
X174396063Y-106840226D01*
X174282795Y-107009744D01*
X174204774Y-107198102D01*
X174165000Y-107398061D01*
X171400663Y-107398061D01*
X172188911Y-106809040D01*
X172222773Y-106779946D01*
X172256842Y-106751289D01*
X172262159Y-106746106D01*
X172262167Y-106746099D01*
X172262174Y-106746091D01*
X173085530Y-105935030D01*
X173115152Y-105901584D01*
X173144995Y-105868593D01*
X173149566Y-105862729D01*
X173855235Y-104947422D01*
X173880019Y-104910303D01*
X173888379Y-104898061D01*
X174265000Y-104898061D01*
X174265000Y-105101939D01*
X174304774Y-105301898D01*
X174382795Y-105490256D01*
X174496063Y-105659774D01*
X174640226Y-105803937D01*
X174809744Y-105917205D01*
X174998102Y-105995226D01*
X175198061Y-106035000D01*
X175401939Y-106035000D01*
X175601898Y-105995226D01*
X175790256Y-105917205D01*
X175928370Y-105824920D01*
X176098102Y-105895226D01*
X176298061Y-105935000D01*
X176501939Y-105935000D01*
X176701898Y-105895226D01*
X176890256Y-105817205D01*
X177059774Y-105703937D01*
X177203937Y-105559774D01*
X177317205Y-105390256D01*
X177395226Y-105201898D01*
X177435000Y-105001939D01*
X177435000Y-104798061D01*
X177395226Y-104598102D01*
X177317205Y-104409744D01*
X177203937Y-104240226D01*
X177059774Y-104096063D01*
X176890256Y-103982795D01*
X176701898Y-103904774D01*
X176501939Y-103865000D01*
X176298061Y-103865000D01*
X176098102Y-103904774D01*
X175909744Y-103982795D01*
X175771630Y-104075080D01*
X175601898Y-104004774D01*
X175401939Y-103965000D01*
X175198061Y-103965000D01*
X174998102Y-104004774D01*
X174809744Y-104082795D01*
X174640226Y-104196063D01*
X174496063Y-104340226D01*
X174382795Y-104509744D01*
X174304774Y-104698102D01*
X174265000Y-104898061D01*
X173888379Y-104898061D01*
X173905133Y-104873530D01*
X173908866Y-104867099D01*
X174483786Y-103864489D01*
X174503284Y-103824389D01*
X174523195Y-103784509D01*
X174526020Y-103777631D01*
X174959550Y-102706273D01*
X174973443Y-102663843D01*
X174987739Y-102621684D01*
X174989605Y-102614487D01*
X175273724Y-101494204D01*
X175281719Y-101450342D01*
X175290173Y-101406572D01*
X175291044Y-101399188D01*
X175420495Y-100250710D01*
X175422462Y-100206206D01*
X175424899Y-100161656D01*
X175424760Y-100154222D01*
X175397146Y-98998802D01*
X175393051Y-98954399D01*
X175389423Y-98909976D01*
X175388277Y-98902630D01*
X175204111Y-97761647D01*
X175194017Y-97718165D01*
X175184404Y-97674690D01*
X175182275Y-97667582D01*
X175182272Y-97667567D01*
X175182267Y-97667554D01*
X174844959Y-96562135D01*
X174829067Y-96520449D01*
X174813633Y-96478657D01*
X174810554Y-96471889D01*
X174326340Y-95422465D01*
X174304929Y-95383307D01*
X174283974Y-95344010D01*
X174280005Y-95337723D01*
X174274508Y-95329117D01*
X174765000Y-95329117D01*
X174765000Y-95670883D01*
X174831675Y-96006081D01*
X174962463Y-96321831D01*
X175152337Y-96605998D01*
X175394002Y-96847663D01*
X175678169Y-97037537D01*
X175993919Y-97168325D01*
X176329117Y-97235000D01*
X176670883Y-97235000D01*
X177006081Y-97168325D01*
X177321831Y-97037537D01*
X177605998Y-96847663D01*
X177847663Y-96605998D01*
X178037537Y-96321831D01*
X178168325Y-96006081D01*
X178235000Y-95670883D01*
X178235000Y-95329117D01*
X178168325Y-94993919D01*
X178037537Y-94678169D01*
X177847663Y-94394002D01*
X177605998Y-94152337D01*
X177321831Y-93962463D01*
X177006081Y-93831675D01*
X176670883Y-93765000D01*
X176329117Y-93765000D01*
X175993919Y-93831675D01*
X175678169Y-93962463D01*
X175394002Y-94152337D01*
X175152337Y-94394002D01*
X174962463Y-94678169D01*
X174831675Y-94993919D01*
X174765000Y-95329117D01*
X174274508Y-95329117D01*
X173657846Y-94363722D01*
X173631328Y-94327844D01*
X173605225Y-94291743D01*
X173600439Y-94286053D01*
X172851850Y-93405501D01*
X172820720Y-93373566D01*
X172789947Y-93341329D01*
X172784433Y-93336342D01*
X171923266Y-92565532D01*
X171888104Y-92538128D01*
X171853227Y-92510355D01*
X171847087Y-92506162D01*
X170889276Y-91859357D01*
X170850708Y-91836972D01*
X170812396Y-91814196D01*
X170805744Y-91810875D01*
X169769013Y-91300045D01*
X169727750Y-91283096D01*
X169686716Y-91265736D01*
X169679675Y-91263348D01*
X168583209Y-90897944D01*
X168540045Y-90886756D01*
X168497016Y-90875121D01*
X168489716Y-90873711D01*
X167353804Y-90660497D01*
X167309484Y-90655266D01*
X167265312Y-90649583D01*
X167257888Y-90649176D01*
X166103549Y-90592094D01*
X166058924Y-90592927D01*
X166014394Y-90593291D01*
X166006983Y-90593896D01*
X164855577Y-90694005D01*
X164811481Y-90700886D01*
X164767411Y-90707291D01*
X164760153Y-90708895D01*
X164760147Y-90708897D01*
X163632984Y-90964341D01*
X163590291Y-90977124D01*
X163547435Y-90989469D01*
X163540460Y-90992045D01*
X162458390Y-91398102D01*
X162417774Y-91416585D01*
X162377044Y-91434608D01*
X162370483Y-91438106D01*
X161353533Y-91987259D01*
X161315807Y-92011079D01*
X161277892Y-92034468D01*
X161271867Y-92038824D01*
X160338854Y-92720913D01*
X160304705Y-92749637D01*
X160270321Y-92777950D01*
X160264952Y-92783076D01*
X160264943Y-92783083D01*
X160264936Y-92783091D01*
X159439178Y-93579654D01*
X159194350Y-93804852D01*
X158962632Y-93946341D01*
X158707855Y-94040123D01*
X158439710Y-94082635D01*
X158168414Y-94072253D01*
X157904298Y-94009374D01*
X157657432Y-93896395D01*
X157436113Y-93736825D01*
X157212365Y-93498756D01*
X157209465Y-93496219D01*
X157203178Y-93489162D01*
X156685928Y-92959039D01*
X156681507Y-92955071D01*
X156677566Y-92950610D01*
X156629806Y-92907386D01*
X155709903Y-92147834D01*
X155697823Y-92139139D01*
X155686580Y-92129384D01*
X155633523Y-92092856D01*
X154621245Y-91461640D01*
X154608121Y-91454619D01*
X154595687Y-91446437D01*
X154538265Y-91417247D01*
X153451398Y-90925456D01*
X153437466Y-90920234D01*
X153424054Y-90913766D01*
X153363276Y-90892427D01*
X152220912Y-90548701D01*
X152206406Y-90545367D01*
X152192262Y-90540731D01*
X152129196Y-90527618D01*
X150951409Y-90337996D01*
X150936587Y-90336609D01*
X150921955Y-90333885D01*
X150857709Y-90329227D01*
X149665189Y-90297041D01*
X149650310Y-90297627D01*
X149635451Y-90296862D01*
X149571153Y-90300743D01*
X148384852Y-90426558D01*
X148370195Y-90429104D01*
X148355352Y-90430312D01*
X148292140Y-90442661D01*
X148292131Y-90442663D01*
X148292128Y-90442664D01*
X147132892Y-90724268D01*
X147118692Y-90728733D01*
X147104146Y-90731892D01*
X147043115Y-90752495D01*
X145931302Y-91184944D01*
X145917814Y-91191249D01*
X145903818Y-91196303D01*
X145846047Y-91224797D01*
X144801196Y-91800492D01*
X144788667Y-91808521D01*
X144775456Y-91815385D01*
X144721962Y-91851269D01*
X143762428Y-92560094D01*
X143751070Y-92569710D01*
X143738883Y-92578261D01*
X143690605Y-92620905D01*
X142833246Y-93450408D01*
X142823255Y-93461447D01*
X142812311Y-93471530D01*
X142770096Y-93520185D01*
X142029977Y-94455792D01*
X142021536Y-94468052D01*
X142012019Y-94479497D01*
X141976625Y-94533285D01*
X141976610Y-94533307D01*
X141976607Y-94533314D01*
X141366732Y-95558582D01*
X141359985Y-95571854D01*
X141352068Y-95584453D01*
X141324087Y-95642474D01*
X140855165Y-96739402D01*
X140850234Y-96753447D01*
X140844051Y-96766985D01*
X140823989Y-96828197D01*
X140504262Y-97977508D01*
X140501233Y-97992077D01*
X140496893Y-98006319D01*
X140485104Y-98069646D01*
X140320190Y-99251147D01*
X140319114Y-99265994D01*
X140316697Y-99280678D01*
X140313386Y-99345009D01*
X140306181Y-100537941D01*
X140307078Y-100552797D01*
X140306624Y-100567676D01*
X140311851Y-100631879D01*
X140462483Y-101815285D01*
X140465337Y-101829893D01*
X140466855Y-101844700D01*
X140480526Y-101907648D01*
X140786348Y-103060737D01*
X140791106Y-103074832D01*
X140794571Y-103089316D01*
X140816448Y-103149902D01*
X141272087Y-104252414D01*
X141278670Y-104265760D01*
X141284018Y-104279654D01*
X141313716Y-104336815D01*
X141690316Y-104987689D01*
X134934999Y-98232372D01*
X134934999Y-95886587D01*
X134941589Y-95890990D01*
X135211842Y-96002932D01*
X135498740Y-96060000D01*
X135791260Y-96060000D01*
X136078158Y-96002932D01*
X136348411Y-95890990D01*
X136591632Y-95728475D01*
X136798475Y-95521632D01*
X136960990Y-95278411D01*
X137072932Y-95008158D01*
X137130000Y-94721260D01*
X137130000Y-94428740D01*
X137072932Y-94141842D01*
X137023700Y-94022986D01*
X137198102Y-94095226D01*
X137398061Y-94135000D01*
X137601939Y-94135000D01*
X137801898Y-94095226D01*
X137990256Y-94017205D01*
X138159774Y-93903937D01*
X138303937Y-93759774D01*
X138417205Y-93590256D01*
X138495226Y-93401898D01*
X138535000Y-93201939D01*
X138535000Y-92998061D01*
X138495226Y-92798102D01*
X138417205Y-92609744D01*
X138303937Y-92440226D01*
X138159774Y-92296063D01*
X137990256Y-92182795D01*
X137801898Y-92104774D01*
X137601939Y-92065000D01*
X137398061Y-92065000D01*
X137198102Y-92104774D01*
X137009744Y-92182795D01*
X136840226Y-92296063D01*
X136696063Y-92440226D01*
X136582795Y-92609744D01*
X136504774Y-92798102D01*
X136465000Y-92998061D01*
X136465000Y-93201939D01*
X136495963Y-93357601D01*
X136348411Y-93259010D01*
X136078158Y-93147068D01*
X135791260Y-93090000D01*
X135498740Y-93090000D01*
X135211842Y-93147068D01*
X134941589Y-93259010D01*
X134934999Y-93263413D01*
X134934999Y-89435000D01*
X135101939Y-89435000D01*
X135301898Y-89395226D01*
X135490256Y-89317205D01*
X135659774Y-89203937D01*
X135803937Y-89059774D01*
X135917205Y-88890256D01*
X135995226Y-88701898D01*
X136035000Y-88501939D01*
X136035000Y-88298061D01*
X135995226Y-88098102D01*
X135917205Y-87909744D01*
X135803937Y-87740226D01*
X135659774Y-87596063D01*
X135490256Y-87482795D01*
X135301898Y-87404774D01*
X135101939Y-87365000D01*
X134934999Y-87365000D01*
X134934999Y-80835000D01*
X135001939Y-80835000D01*
X135201898Y-80795226D01*
X135390256Y-80717205D01*
X135559774Y-80603937D01*
X135703937Y-80459774D01*
X135817205Y-80290256D01*
X135895226Y-80101898D01*
X135935000Y-79901939D01*
X135935000Y-79698061D01*
X135895226Y-79498102D01*
X135886551Y-79477160D01*
X136003937Y-79359774D01*
X136117205Y-79190256D01*
X136195226Y-79001898D01*
X136235000Y-78801939D01*
X136235000Y-78598061D01*
X136195226Y-78398102D01*
X136195210Y-78398061D01*
X136965000Y-78398061D01*
X136965000Y-78601939D01*
X137004774Y-78801898D01*
X137082795Y-78990256D01*
X137156123Y-79100000D01*
X137082795Y-79209744D01*
X137004774Y-79398102D01*
X136965000Y-79598061D01*
X136965000Y-79801939D01*
X137004774Y-80001898D01*
X137082795Y-80190256D01*
X137196063Y-80359774D01*
X137340226Y-80503937D01*
X137509744Y-80617205D01*
X137698102Y-80695226D01*
X137898061Y-80735000D01*
X138101939Y-80735000D01*
X138301898Y-80695226D01*
X138490256Y-80617205D01*
X138659774Y-80503937D01*
X138803937Y-80359774D01*
X138917205Y-80190256D01*
X138995226Y-80001898D01*
X139035000Y-79801939D01*
X139035000Y-79598061D01*
X138995226Y-79398102D01*
X138917205Y-79209744D01*
X138843877Y-79100000D01*
X138917205Y-78990256D01*
X138995226Y-78801898D01*
X139035000Y-78601939D01*
X139035000Y-78398061D01*
X138995226Y-78198102D01*
X138917205Y-78009744D01*
X138803937Y-77840226D01*
X138659774Y-77696063D01*
X138490256Y-77582795D01*
X138301898Y-77504774D01*
X138101939Y-77465000D01*
X137898061Y-77465000D01*
X137698102Y-77504774D01*
X137509744Y-77582795D01*
X137340226Y-77696063D01*
X137196063Y-77840226D01*
X137082795Y-78009744D01*
X137004774Y-78198102D01*
X136965000Y-78398061D01*
X136195210Y-78398061D01*
X136117205Y-78209744D01*
X136003937Y-78040226D01*
X135859774Y-77896063D01*
X135690256Y-77782795D01*
X135501898Y-77704774D01*
X135301939Y-77665000D01*
X135098061Y-77665000D01*
X134898102Y-77704774D01*
X134709744Y-77782795D01*
X134540226Y-77896063D01*
X134485276Y-77951013D01*
X134342068Y-77994454D01*
X134210038Y-78065026D01*
X134167461Y-78099969D01*
X134094314Y-78159999D01*
X134070511Y-78189003D01*
X133663997Y-78595517D01*
X133634999Y-78619315D01*
X133611201Y-78648313D01*
X133611200Y-78648314D01*
X133540025Y-78735040D01*
X133469453Y-78867070D01*
X133439179Y-78966874D01*
X133425997Y-79010330D01*
X133418125Y-79090256D01*
X133411323Y-79159316D01*
X133415000Y-79196649D01*
X133415000Y-82240198D01*
X126972863Y-75798061D01*
X134765000Y-75798061D01*
X134765000Y-76001939D01*
X134804774Y-76201898D01*
X134882795Y-76390256D01*
X134996063Y-76559774D01*
X135140226Y-76703937D01*
X135309744Y-76817205D01*
X135498102Y-76895226D01*
X135698061Y-76935000D01*
X135901939Y-76935000D01*
X136101898Y-76895226D01*
X136290256Y-76817205D01*
X136459774Y-76703937D01*
X136603937Y-76559774D01*
X136717205Y-76390256D01*
X136795226Y-76201898D01*
X136835000Y-76001939D01*
X136835000Y-75798061D01*
X136795226Y-75598102D01*
X136717205Y-75409744D01*
X136603937Y-75240226D01*
X136459774Y-75096063D01*
X136290256Y-74982795D01*
X136101898Y-74904774D01*
X135901939Y-74865000D01*
X135698061Y-74865000D01*
X135498102Y-74904774D01*
X135309744Y-74982795D01*
X135140226Y-75096063D01*
X134996063Y-75240226D01*
X134882795Y-75409744D01*
X134804774Y-75598102D01*
X134765000Y-75798061D01*
X126972863Y-75798061D01*
X125435000Y-74260199D01*
X125435000Y-74198061D01*
X125395226Y-73998102D01*
X125324920Y-73828370D01*
X125417205Y-73690256D01*
X125495226Y-73501898D01*
X125535000Y-73301939D01*
X125535000Y-73098061D01*
X125495226Y-72898102D01*
X125424920Y-72728370D01*
X125517205Y-72590256D01*
X125595226Y-72401898D01*
X125635000Y-72201939D01*
X125635000Y-71998061D01*
X125595226Y-71798102D01*
X125517205Y-71609744D01*
X125477285Y-71550000D01*
X125517205Y-71490256D01*
X125595226Y-71301898D01*
X125635000Y-71101939D01*
X125635000Y-70898061D01*
X134365000Y-70898061D01*
X134365000Y-71101939D01*
X134404774Y-71301898D01*
X134482795Y-71490256D01*
X134596063Y-71659774D01*
X134740226Y-71803937D01*
X134909744Y-71917205D01*
X135098102Y-71995226D01*
X135298061Y-72035000D01*
X135501939Y-72035000D01*
X135701898Y-71995226D01*
X135890256Y-71917205D01*
X136059774Y-71803937D01*
X136203937Y-71659774D01*
X136317205Y-71490256D01*
X136395226Y-71301898D01*
X136435000Y-71101939D01*
X136435000Y-70898061D01*
X136865000Y-70898061D01*
X136865000Y-71101939D01*
X136904774Y-71301898D01*
X136982795Y-71490256D01*
X137096063Y-71659774D01*
X137240226Y-71803937D01*
X137409744Y-71917205D01*
X137598102Y-71995226D01*
X137798061Y-72035000D01*
X138001939Y-72035000D01*
X138201898Y-71995226D01*
X138390256Y-71917205D01*
X138559774Y-71803937D01*
X138703937Y-71659774D01*
X138817205Y-71490256D01*
X138895226Y-71301898D01*
X138935000Y-71101939D01*
X138935000Y-70898061D01*
X138895226Y-70698102D01*
X138817205Y-70509744D01*
X138703937Y-70340226D01*
X138559774Y-70196063D01*
X138390256Y-70082795D01*
X138201898Y-70004774D01*
X138001939Y-69965000D01*
X137798061Y-69965000D01*
X137598102Y-70004774D01*
X137409744Y-70082795D01*
X137240226Y-70196063D01*
X137096063Y-70340226D01*
X136982795Y-70509744D01*
X136904774Y-70698102D01*
X136865000Y-70898061D01*
X136435000Y-70898061D01*
X136395226Y-70698102D01*
X136317205Y-70509744D01*
X136203937Y-70340226D01*
X136059774Y-70196063D01*
X135890256Y-70082795D01*
X135701898Y-70004774D01*
X135501939Y-69965000D01*
X135298061Y-69965000D01*
X135098102Y-70004774D01*
X134909744Y-70082795D01*
X134740226Y-70196063D01*
X134596063Y-70340226D01*
X134482795Y-70509744D01*
X134404774Y-70698102D01*
X134365000Y-70898061D01*
X125635000Y-70898061D01*
X125595226Y-70698102D01*
X125517205Y-70509744D01*
X125403937Y-70340226D01*
X125259774Y-70196063D01*
X125090256Y-70082795D01*
X124901898Y-70004774D01*
X124701939Y-69965000D01*
X124498061Y-69965000D01*
X124298102Y-70004774D01*
X124109744Y-70082795D01*
X123940226Y-70196063D01*
X123796063Y-70340226D01*
X123682795Y-70509744D01*
X123604774Y-70698102D01*
X123565000Y-70898061D01*
X123565000Y-71101939D01*
X123604774Y-71301898D01*
X123661050Y-71437760D01*
X123610039Y-71465026D01*
X123494314Y-71559999D01*
X123470515Y-71588998D01*
X122989002Y-72070512D01*
X122959999Y-72094314D01*
X122904871Y-72161489D01*
X122865026Y-72210039D01*
X122794455Y-72342068D01*
X122794454Y-72342069D01*
X122750997Y-72485330D01*
X122740000Y-72596983D01*
X122740000Y-72596993D01*
X122736324Y-72634315D01*
X122740000Y-72671637D01*
X122740001Y-89751902D01*
X122736324Y-89789235D01*
X122750998Y-89938220D01*
X122794454Y-90081481D01*
X122865026Y-90213511D01*
X122933431Y-90296862D01*
X122960000Y-90329236D01*
X122988998Y-90353034D01*
X125796964Y-93161000D01*
X125568120Y-93161000D01*
X125309428Y-93212457D01*
X125065746Y-93313393D01*
X124846437Y-93459931D01*
X124659931Y-93646437D01*
X124513393Y-93865746D01*
X124412457Y-94109428D01*
X124361000Y-94368120D01*
X124361000Y-94631880D01*
X124412457Y-94890572D01*
X124513393Y-95134254D01*
X124659931Y-95353563D01*
X124846437Y-95540069D01*
X125065746Y-95686607D01*
X125309428Y-95787543D01*
X125568120Y-95839000D01*
X125831880Y-95839000D01*
X126090572Y-95787543D01*
X126334254Y-95686607D01*
X126553563Y-95540069D01*
X126740069Y-95353563D01*
X126886607Y-95134254D01*
X126987543Y-94890572D01*
X127039000Y-94631880D01*
X127039000Y-94403036D01*
X136550954Y-103914990D01*
X132189884Y-103914990D01*
X132064200Y-103889990D01*
X131860322Y-103889990D01*
X131660363Y-103929764D01*
X131472005Y-104007785D01*
X131302487Y-104121053D01*
X131158324Y-104265216D01*
X131045056Y-104434734D01*
X130967035Y-104623092D01*
X130928423Y-104817210D01*
X129385010Y-103273797D01*
X129385010Y-98748462D01*
X129428947Y-98704525D01*
X129542215Y-98535007D01*
X129620236Y-98346649D01*
X129660010Y-98146690D01*
X129660010Y-97942812D01*
X129620236Y-97742853D01*
X129542215Y-97554495D01*
X129428947Y-97384977D01*
X129284784Y-97240814D01*
X129115266Y-97127546D01*
X128926908Y-97049525D01*
X128726949Y-97009751D01*
X128523071Y-97009751D01*
X128323112Y-97049525D01*
X128134754Y-97127546D01*
X128115328Y-97140526D01*
X127935000Y-96960199D01*
X127935000Y-96898061D01*
X127895226Y-96698102D01*
X127817205Y-96509744D01*
X127703937Y-96340226D01*
X127559774Y-96196063D01*
X127390256Y-96082795D01*
X127201898Y-96004774D01*
X127001939Y-95965000D01*
X126798061Y-95965000D01*
X126598102Y-96004774D01*
X126409744Y-96082795D01*
X126240226Y-96196063D01*
X126096063Y-96340226D01*
X125982795Y-96509744D01*
X125904774Y-96698102D01*
X125865000Y-96898061D01*
X125865000Y-97101939D01*
X125904774Y-97301898D01*
X125982795Y-97490256D01*
X126096063Y-97659774D01*
X126240226Y-97803937D01*
X126359164Y-97883409D01*
X126340226Y-97896063D01*
X126196063Y-98040226D01*
X126082795Y-98209744D01*
X126082349Y-98210821D01*
X125831880Y-98161000D01*
X125568120Y-98161000D01*
X125309428Y-98212457D01*
X125065746Y-98313393D01*
X124846437Y-98459931D01*
X124659931Y-98646437D01*
X124513393Y-98865746D01*
X124412457Y-99109428D01*
X124361000Y-99368120D01*
X124361000Y-99631880D01*
X124412457Y-99890572D01*
X124513393Y-100134254D01*
X124659931Y-100353563D01*
X124846437Y-100540069D01*
X125065746Y-100686607D01*
X125309428Y-100787543D01*
X125568120Y-100839000D01*
X125831880Y-100839000D01*
X126090572Y-100787543D01*
X126334254Y-100686607D01*
X126553563Y-100540069D01*
X126740069Y-100353563D01*
X126886607Y-100134254D01*
X126987543Y-99890572D01*
X127018488Y-99735000D01*
X127101939Y-99735000D01*
X127140000Y-99727429D01*
X127140001Y-103462668D01*
X127136324Y-103500000D01*
X127140001Y-103537333D01*
X127144579Y-103583808D01*
X127150998Y-103648985D01*
X127194454Y-103792246D01*
X127265026Y-103924276D01*
X127333561Y-104007785D01*
X127360000Y-104040001D01*
X127388998Y-104063799D01*
X135240189Y-111914990D01*
X132733036Y-111914990D01*
X132689099Y-111871053D01*
X132519581Y-111757785D01*
X132331223Y-111679764D01*
X132131264Y-111639990D01*
X131927386Y-111639990D01*
X131727427Y-111679764D01*
X131539069Y-111757785D01*
X131369551Y-111871053D01*
X131225388Y-112015216D01*
X131112120Y-112184734D01*
X131034099Y-112373092D01*
X130994325Y-112573051D01*
X130994325Y-112776929D01*
X131034099Y-112976888D01*
X131112120Y-113165246D01*
X131225388Y-113334764D01*
X131369551Y-113478927D01*
X131539069Y-113592195D01*
X131727427Y-113670216D01*
X131927386Y-113709990D01*
X132131264Y-113709990D01*
X132331223Y-113670216D01*
X132519581Y-113592195D01*
X132689099Y-113478927D01*
X132733036Y-113434990D01*
X133953262Y-113434990D01*
X133896000Y-113573231D01*
X133856226Y-113773190D01*
X133856226Y-113977068D01*
X133896000Y-114177027D01*
X133974021Y-114365385D01*
X134087289Y-114534903D01*
X134231452Y-114679066D01*
X134400970Y-114792334D01*
X134589328Y-114870355D01*
X134789287Y-114910129D01*
X134993165Y-114910129D01*
X135193124Y-114870355D01*
X135381482Y-114792334D01*
X135551000Y-114679066D01*
X135695163Y-114534903D01*
X135808431Y-114365385D01*
X135886452Y-114177027D01*
X135926226Y-113977068D01*
X135926226Y-113773190D01*
X135886452Y-113573231D01*
X135829190Y-113434990D01*
X136123779Y-113434990D01*
X140371261Y-117682472D01*
X139668923Y-117299545D01*
X139657787Y-117294113D01*
X139646961Y-117288063D01*
X139611027Y-117271307D01*
X138029007Y-116586706D01*
X138017417Y-116582303D01*
X138006094Y-116577262D01*
X137968790Y-116563832D01*
X136331235Y-116025431D01*
X136319302Y-116022099D01*
X136307561Y-116018102D01*
X136269207Y-116008112D01*
X136269193Y-116008108D01*
X136269188Y-116008107D01*
X134589579Y-115620339D01*
X134577377Y-115618100D01*
X134565338Y-115615187D01*
X134526222Y-115608711D01*
X132818377Y-115374765D01*
X132806027Y-115373641D01*
X132793769Y-115371831D01*
X132754227Y-115368927D01*
X131050932Y-115291581D01*
X131034877Y-115290000D01*
X122210000Y-115290000D01*
X122210000Y-113298061D01*
X127465000Y-113298061D01*
X127465000Y-113501939D01*
X127504774Y-113701898D01*
X127582795Y-113890256D01*
X127696063Y-114059774D01*
X127840226Y-114203937D01*
X128009744Y-114317205D01*
X128198102Y-114395226D01*
X128398061Y-114435000D01*
X128601939Y-114435000D01*
X128801898Y-114395226D01*
X128990256Y-114317205D01*
X129159774Y-114203937D01*
X129303937Y-114059774D01*
X129417205Y-113890256D01*
X129495226Y-113701898D01*
X129535000Y-113501939D01*
X129535000Y-113298061D01*
X129515555Y-113200301D01*
X129659774Y-113103937D01*
X129803937Y-112959774D01*
X129917205Y-112790256D01*
X129995226Y-112601898D01*
X130035000Y-112401939D01*
X130035000Y-112198061D01*
X129995226Y-111998102D01*
X129917205Y-111809744D01*
X129803937Y-111640226D01*
X129659774Y-111496063D01*
X129490256Y-111382795D01*
X129301898Y-111304774D01*
X129101939Y-111265000D01*
X128898061Y-111265000D01*
X128698102Y-111304774D01*
X128509744Y-111382795D01*
X128340226Y-111496063D01*
X128196063Y-111640226D01*
X128082795Y-111809744D01*
X128004774Y-111998102D01*
X127965000Y-112198061D01*
X127965000Y-112401939D01*
X127984445Y-112499699D01*
X127840226Y-112596063D01*
X127696063Y-112740226D01*
X127582795Y-112909744D01*
X127504774Y-113098102D01*
X127465000Y-113298061D01*
X122210000Y-113298061D01*
X122210000Y-110258363D01*
X122435000Y-110258363D01*
X122435000Y-110501637D01*
X122482460Y-110740236D01*
X122575557Y-110964992D01*
X122710713Y-111167267D01*
X122882733Y-111339287D01*
X123085008Y-111474443D01*
X123309764Y-111567540D01*
X123539894Y-111613315D01*
X123504774Y-111698102D01*
X123465000Y-111898061D01*
X123465000Y-112101939D01*
X123504774Y-112301898D01*
X123582795Y-112490256D01*
X123696063Y-112659774D01*
X123840226Y-112803937D01*
X124009744Y-112917205D01*
X124198102Y-112995226D01*
X124398061Y-113035000D01*
X124601939Y-113035000D01*
X124801898Y-112995226D01*
X124990256Y-112917205D01*
X125159774Y-112803937D01*
X125303937Y-112659774D01*
X125417205Y-112490256D01*
X125495226Y-112301898D01*
X125535000Y-112101939D01*
X125535000Y-111898061D01*
X125495226Y-111698102D01*
X125417205Y-111509744D01*
X125303937Y-111340226D01*
X125159774Y-111196063D01*
X124990256Y-111082795D01*
X124801898Y-111004774D01*
X124745374Y-110993531D01*
X124764443Y-110964992D01*
X124857540Y-110740236D01*
X124905000Y-110501637D01*
X124905000Y-110258363D01*
X124857540Y-110019764D01*
X124764443Y-109795008D01*
X124629287Y-109592733D01*
X124457267Y-109420713D01*
X124254992Y-109285557D01*
X124030236Y-109192460D01*
X123791637Y-109145000D01*
X123548363Y-109145000D01*
X123309764Y-109192460D01*
X123085008Y-109285557D01*
X122882733Y-109420713D01*
X122710713Y-109592733D01*
X122575557Y-109795008D01*
X122482460Y-110019764D01*
X122435000Y-110258363D01*
X122210000Y-110258363D01*
X122210000Y-105798061D01*
X125965000Y-105798061D01*
X125965000Y-106001939D01*
X126004774Y-106201898D01*
X126082795Y-106390256D01*
X126196063Y-106559774D01*
X126340226Y-106703937D01*
X126509744Y-106817205D01*
X126698102Y-106895226D01*
X126898061Y-106935000D01*
X127101939Y-106935000D01*
X127301898Y-106895226D01*
X127490256Y-106817205D01*
X127659774Y-106703937D01*
X127803937Y-106559774D01*
X127917205Y-106390256D01*
X127995226Y-106201898D01*
X128035000Y-106001939D01*
X128035000Y-105798061D01*
X127995226Y-105598102D01*
X127917205Y-105409744D01*
X127803937Y-105240226D01*
X127659774Y-105096063D01*
X127490256Y-104982795D01*
X127301898Y-104904774D01*
X127101939Y-104865000D01*
X126898061Y-104865000D01*
X126698102Y-104904774D01*
X126509744Y-104982795D01*
X126340226Y-105096063D01*
X126196063Y-105240226D01*
X126082795Y-105409744D01*
X126004774Y-105598102D01*
X125965000Y-105798061D01*
X122210000Y-105798061D01*
X122210000Y-104398061D01*
X122465000Y-104398061D01*
X122465000Y-104601939D01*
X122504774Y-104801898D01*
X122582795Y-104990256D01*
X122696063Y-105159774D01*
X122840226Y-105303937D01*
X123009744Y-105417205D01*
X123198102Y-105495226D01*
X123398061Y-105535000D01*
X123601939Y-105535000D01*
X123801898Y-105495226D01*
X123990256Y-105417205D01*
X124159774Y-105303937D01*
X124303937Y-105159774D01*
X124417205Y-104990256D01*
X124495226Y-104801898D01*
X124535000Y-104601939D01*
X124535000Y-104398061D01*
X124495226Y-104198102D01*
X124417205Y-104009744D01*
X124303937Y-103840226D01*
X124159774Y-103696063D01*
X123990256Y-103582795D01*
X123801898Y-103504774D01*
X123601939Y-103465000D01*
X123398061Y-103465000D01*
X123198102Y-103504774D01*
X123009744Y-103582795D01*
X122840226Y-103696063D01*
X122696063Y-103840226D01*
X122582795Y-104009744D01*
X122504774Y-104198102D01*
X122465000Y-104398061D01*
X122210000Y-104398061D01*
X122210000Y-101818267D01*
X122272905Y-101860299D01*
X122552257Y-101976011D01*
X122848816Y-102035000D01*
X123151184Y-102035000D01*
X123447743Y-101976011D01*
X123727095Y-101860299D01*
X123978505Y-101692312D01*
X124192312Y-101478505D01*
X124360299Y-101227095D01*
X124476011Y-100947743D01*
X124535000Y-100651184D01*
X124535000Y-100348816D01*
X124476011Y-100052257D01*
X124360299Y-99772905D01*
X124192312Y-99521495D01*
X123978505Y-99307688D01*
X123727095Y-99139701D01*
X123447743Y-99023989D01*
X123151184Y-98965000D01*
X122848816Y-98965000D01*
X122552257Y-99023989D01*
X122272905Y-99139701D01*
X122210000Y-99181733D01*
X122210000Y-94818267D01*
X122272905Y-94860299D01*
X122552257Y-94976011D01*
X122848816Y-95035000D01*
X123151184Y-95035000D01*
X123447743Y-94976011D01*
X123727095Y-94860299D01*
X123978505Y-94692312D01*
X124192312Y-94478505D01*
X124360299Y-94227095D01*
X124476011Y-93947743D01*
X124535000Y-93651184D01*
X124535000Y-93348816D01*
X124476011Y-93052257D01*
X124360299Y-92772905D01*
X124192312Y-92521495D01*
X123978505Y-92307688D01*
X123727095Y-92139701D01*
X123447743Y-92023989D01*
X123151184Y-91965000D01*
X122848816Y-91965000D01*
X122552257Y-92023989D01*
X122272905Y-92139701D01*
X122210000Y-92181733D01*
X122210000Y-84034876D01*
X122213435Y-84000000D01*
X122199727Y-83860816D01*
X122159128Y-83726980D01*
X122093200Y-83603637D01*
X122004475Y-83495525D01*
X121896363Y-83406800D01*
X121773020Y-83340872D01*
X121639184Y-83300273D01*
X121534877Y-83290000D01*
X121500000Y-83286565D01*
X121465123Y-83290000D01*
X118410000Y-83290000D01*
X118410000Y-82514515D01*
X118482795Y-82690256D01*
X118596063Y-82859774D01*
X118740226Y-83003937D01*
X118909744Y-83117205D01*
X119098102Y-83195226D01*
X119298061Y-83235000D01*
X119501939Y-83235000D01*
X119701898Y-83195226D01*
X119890256Y-83117205D01*
X120059774Y-83003937D01*
X120203937Y-82859774D01*
X120317205Y-82690256D01*
X120395226Y-82501898D01*
X120435000Y-82301939D01*
X120435000Y-82098061D01*
X120395226Y-81898102D01*
X120317205Y-81709744D01*
X120203937Y-81540226D01*
X120059774Y-81396063D01*
X119890256Y-81282795D01*
X119701898Y-81204774D01*
X119501939Y-81165000D01*
X119298061Y-81165000D01*
X119098102Y-81204774D01*
X118909744Y-81282795D01*
X118740226Y-81396063D01*
X118596063Y-81540226D01*
X118482795Y-81709744D01*
X118410000Y-81885485D01*
X118410000Y-75298061D01*
X120265000Y-75298061D01*
X120265000Y-75501939D01*
X120304774Y-75701898D01*
X120382795Y-75890256D01*
X120496063Y-76059774D01*
X120640226Y-76203937D01*
X120809744Y-76317205D01*
X120998102Y-76395226D01*
X121198061Y-76435000D01*
X121401939Y-76435000D01*
X121601898Y-76395226D01*
X121790256Y-76317205D01*
X121959774Y-76203937D01*
X122103937Y-76059774D01*
X122217205Y-75890256D01*
X122295226Y-75701898D01*
X122335000Y-75501939D01*
X122335000Y-75298061D01*
X122295226Y-75098102D01*
X122217205Y-74909744D01*
X122103937Y-74740226D01*
X121959774Y-74596063D01*
X121790256Y-74482795D01*
X121601898Y-74404774D01*
X121401939Y-74365000D01*
X121198061Y-74365000D01*
X120998102Y-74404774D01*
X120809744Y-74482795D01*
X120640226Y-74596063D01*
X120496063Y-74740226D01*
X120382795Y-74909744D01*
X120304774Y-75098102D01*
X120265000Y-75298061D01*
X118410000Y-75298061D01*
X118410000Y-71198061D01*
X119265000Y-71198061D01*
X119265000Y-71401939D01*
X119304774Y-71601898D01*
X119382795Y-71790256D01*
X119496063Y-71959774D01*
X119640226Y-72103937D01*
X119809744Y-72217205D01*
X119998102Y-72295226D01*
X120198061Y-72335000D01*
X120401939Y-72335000D01*
X120601898Y-72295226D01*
X120790256Y-72217205D01*
X120959774Y-72103937D01*
X121103937Y-71959774D01*
X121217205Y-71790256D01*
X121295226Y-71601898D01*
X121335000Y-71401939D01*
X121335000Y-71198061D01*
X121295226Y-70998102D01*
X121217205Y-70809744D01*
X121103937Y-70640226D01*
X120959774Y-70496063D01*
X120790256Y-70382795D01*
X120601898Y-70304774D01*
X120401939Y-70265000D01*
X120198061Y-70265000D01*
X119998102Y-70304774D01*
X119809744Y-70382795D01*
X119640226Y-70496063D01*
X119496063Y-70640226D01*
X119382795Y-70809744D01*
X119304774Y-70998102D01*
X119265000Y-71198061D01*
X118410000Y-71198061D01*
X118410000Y-69710000D01*
X171705909Y-69710000D01*
X178290000Y-76294092D01*
G37*
X178290000Y-76294092D02*
X178290001Y-137290000D01*
X167730971Y-137290000D01*
X167859774Y-137203937D01*
X168003937Y-137059774D01*
X168117205Y-136890256D01*
X168195226Y-136701898D01*
X168235000Y-136501939D01*
X168235000Y-136298061D01*
X168195226Y-136098102D01*
X168117205Y-135909744D01*
X168003937Y-135740226D01*
X167859774Y-135596063D01*
X167690256Y-135482795D01*
X167501898Y-135404774D01*
X167301939Y-135365000D01*
X167224226Y-135365000D01*
X167092248Y-135294455D01*
X166948987Y-135250998D01*
X166837334Y-135240001D01*
X166837323Y-135240001D01*
X166800001Y-135236325D01*
X166762679Y-135240001D01*
X166755000Y-135240001D01*
X166755000Y-135100031D01*
X166737089Y-135009989D01*
X170212667Y-135009989D01*
X170249989Y-135013665D01*
X170287311Y-135009989D01*
X170287322Y-135009989D01*
X170398975Y-134998992D01*
X170542236Y-134955535D01*
X170674265Y-134884963D01*
X170789990Y-134789990D01*
X170813793Y-134760986D01*
X175811004Y-129763776D01*
X175840001Y-129739979D01*
X175882703Y-129687947D01*
X175934974Y-129624255D01*
X176005546Y-129492225D01*
X176019847Y-129445079D01*
X176049003Y-129348964D01*
X176060000Y-129237311D01*
X176060000Y-129237302D01*
X176063676Y-129199979D01*
X176060000Y-129162656D01*
X176060000Y-122217150D01*
X176209744Y-122317205D01*
X176398102Y-122395226D01*
X176598061Y-122435000D01*
X176801939Y-122435000D01*
X177001898Y-122395226D01*
X177190256Y-122317205D01*
X177359774Y-122203937D01*
X177503937Y-122059774D01*
X177617205Y-121890256D01*
X177695226Y-121701898D01*
X177735000Y-121501939D01*
X177735000Y-121298061D01*
X177695226Y-121098102D01*
X177617205Y-120909744D01*
X177503937Y-120740226D01*
X177359774Y-120596063D01*
X177190256Y-120482795D01*
X177001898Y-120404774D01*
X176801939Y-120365000D01*
X176598061Y-120365000D01*
X176398102Y-120404774D01*
X176209744Y-120482795D01*
X176050000Y-120589532D01*
X175890256Y-120482795D01*
X175701898Y-120404774D01*
X175501939Y-120365000D01*
X175298061Y-120365000D01*
X175098102Y-120404774D01*
X174909744Y-120482795D01*
X174740226Y-120596063D01*
X174596063Y-120740226D01*
X174482795Y-120909744D01*
X174404774Y-121098102D01*
X174365000Y-121298061D01*
X174365000Y-121501939D01*
X174404774Y-121701898D01*
X174482795Y-121890256D01*
X174540001Y-121975871D01*
X174540000Y-128885176D01*
X169935188Y-133489989D01*
X169773722Y-133489989D01*
X169903937Y-133359774D01*
X170017205Y-133190256D01*
X170095226Y-133001898D01*
X170135000Y-132801939D01*
X170135000Y-132598061D01*
X170095226Y-132398102D01*
X170017205Y-132209744D01*
X169903937Y-132040226D01*
X169759774Y-131896063D01*
X169590256Y-131782795D01*
X169401898Y-131704774D01*
X169201939Y-131665000D01*
X168998061Y-131665000D01*
X168798102Y-131704774D01*
X168609744Y-131782795D01*
X168440226Y-131896063D01*
X168296063Y-132040226D01*
X168182795Y-132209744D01*
X168104774Y-132398102D01*
X168093465Y-132454956D01*
X167758443Y-132789979D01*
X166064557Y-132789979D01*
X166064557Y-132658227D01*
X166024783Y-132458268D01*
X166011295Y-132425705D01*
X166118497Y-132265266D01*
X166196518Y-132076908D01*
X166236292Y-131876949D01*
X166236292Y-131673071D01*
X166196518Y-131473112D01*
X166118497Y-131284754D01*
X166005229Y-131115236D01*
X165861066Y-130971073D01*
X165691548Y-130857805D01*
X165503190Y-130779784D01*
X165303231Y-130740010D01*
X165207793Y-130740010D01*
X169811004Y-126136800D01*
X169840001Y-126113003D01*
X169934974Y-125997278D01*
X170005546Y-125865249D01*
X170049003Y-125721988D01*
X170060000Y-125610335D01*
X170060000Y-125610326D01*
X170063676Y-125573003D01*
X170060000Y-125535680D01*
X170060000Y-120914801D01*
X175239802Y-115735000D01*
X175301939Y-115735000D01*
X175501898Y-115695226D01*
X175690256Y-115617205D01*
X175859774Y-115503937D01*
X176003937Y-115359774D01*
X176117205Y-115190256D01*
X176195226Y-115001898D01*
X176235000Y-114801939D01*
X176235000Y-114598061D01*
X176195226Y-114398102D01*
X176117205Y-114209744D01*
X176003937Y-114040226D01*
X175951821Y-113988110D01*
X176017205Y-113890256D01*
X176095226Y-113701898D01*
X176135000Y-113501939D01*
X176135000Y-113298061D01*
X176095226Y-113098102D01*
X176017205Y-112909744D01*
X175951821Y-112811890D01*
X176003937Y-112759774D01*
X176117205Y-112590256D01*
X176195226Y-112401898D01*
X176235000Y-112201939D01*
X176235000Y-111998061D01*
X176195226Y-111798102D01*
X176117205Y-111609744D01*
X176003937Y-111440226D01*
X175991875Y-111428164D01*
X176017205Y-111390256D01*
X176095226Y-111201898D01*
X176135000Y-111001939D01*
X176135000Y-110798061D01*
X176095226Y-110598102D01*
X176017205Y-110409744D01*
X175903937Y-110240226D01*
X175759774Y-110096063D01*
X175590256Y-109982795D01*
X175401898Y-109904774D01*
X175201939Y-109865000D01*
X174998061Y-109865000D01*
X174798102Y-109904774D01*
X174609744Y-109982795D01*
X174440226Y-110096063D01*
X174296063Y-110240226D01*
X174182795Y-110409744D01*
X174104774Y-110598102D01*
X174065000Y-110798061D01*
X174065000Y-111001939D01*
X174104774Y-111201898D01*
X174182795Y-111390256D01*
X174296063Y-111559774D01*
X174308125Y-111571836D01*
X174282795Y-111609744D01*
X174204774Y-111798102D01*
X174165000Y-111998061D01*
X174165000Y-112060198D01*
X173235210Y-112989989D01*
X172727529Y-112989989D01*
X172765246Y-112974366D01*
X172934764Y-112861098D01*
X173078927Y-112716935D01*
X173192195Y-112547417D01*
X173270216Y-112359059D01*
X173309990Y-112159100D01*
X173309990Y-111955222D01*
X173270216Y-111755263D01*
X173192195Y-111566905D01*
X173179092Y-111547296D01*
X173217205Y-111490256D01*
X173295226Y-111301898D01*
X173335000Y-111101939D01*
X173335000Y-110898061D01*
X173295226Y-110698102D01*
X173217205Y-110509744D01*
X173103937Y-110340226D01*
X173063711Y-110300000D01*
X173103937Y-110259774D01*
X173217205Y-110090256D01*
X173295226Y-109901898D01*
X173335000Y-109701939D01*
X173335000Y-109498061D01*
X173295226Y-109298102D01*
X173217205Y-109109744D01*
X173103937Y-108940226D01*
X172959774Y-108796063D01*
X172790256Y-108682795D01*
X172601898Y-108604774D01*
X172401939Y-108565000D01*
X172198061Y-108565000D01*
X171998102Y-108604774D01*
X171809744Y-108682795D01*
X171640226Y-108796063D01*
X171496063Y-108940226D01*
X171382795Y-109109744D01*
X171304774Y-109298102D01*
X171265000Y-109498061D01*
X171265000Y-109701939D01*
X171304774Y-109901898D01*
X171382795Y-110090256D01*
X171482850Y-110240000D01*
X170293357Y-110240000D01*
X170256035Y-110236324D01*
X170218712Y-110240000D01*
X170218702Y-110240000D01*
X170107049Y-110250997D01*
X169963788Y-110294454D01*
X169831758Y-110365026D01*
X169777270Y-110409744D01*
X169716034Y-110459999D01*
X169692236Y-110488997D01*
X168989650Y-111191583D01*
X168989650Y-111101909D01*
X168875682Y-110528952D01*
X168652125Y-109989238D01*
X168327571Y-109503508D01*
X167914492Y-109090429D01*
X167615640Y-108890743D01*
X167693661Y-108883135D01*
X167737687Y-108875792D01*
X167781684Y-108868927D01*
X167788927Y-108867246D01*
X168913357Y-108600011D01*
X168955969Y-108586764D01*
X168998638Y-108573988D01*
X169005571Y-108571344D01*
X169005585Y-108571340D01*
X169005597Y-108571334D01*
X170083344Y-108153974D01*
X170123770Y-108135063D01*
X170164303Y-108116618D01*
X170170827Y-108113051D01*
X171181971Y-107553279D01*
X171219422Y-107529079D01*
X171257113Y-107505281D01*
X171263092Y-107500862D01*
X171400663Y-107398061D01*
X174165000Y-107398061D01*
X174165000Y-107601939D01*
X174204774Y-107801898D01*
X174282795Y-107990256D01*
X174396063Y-108159774D01*
X174540226Y-108303937D01*
X174709744Y-108417205D01*
X174898102Y-108495226D01*
X175098061Y-108535000D01*
X175301939Y-108535000D01*
X175501898Y-108495226D01*
X175690256Y-108417205D01*
X175859774Y-108303937D01*
X176003937Y-108159774D01*
X176117205Y-107990256D01*
X176195226Y-107801898D01*
X176235000Y-107601939D01*
X176235000Y-107398061D01*
X176195226Y-107198102D01*
X176117205Y-107009744D01*
X176003937Y-106840226D01*
X175859774Y-106696063D01*
X175690256Y-106582795D01*
X175501898Y-106504774D01*
X175301939Y-106465000D01*
X175098061Y-106465000D01*
X174898102Y-106504774D01*
X174709744Y-106582795D01*
X174540226Y-106696063D01*
X174396063Y-106840226D01*
X174282795Y-107009744D01*
X174204774Y-107198102D01*
X174165000Y-107398061D01*
X171400663Y-107398061D01*
X172188911Y-106809040D01*
X172222773Y-106779946D01*
X172256842Y-106751289D01*
X172262159Y-106746106D01*
X172262167Y-106746099D01*
X172262174Y-106746091D01*
X173085530Y-105935030D01*
X173115152Y-105901584D01*
X173144995Y-105868593D01*
X173149566Y-105862729D01*
X173855235Y-104947422D01*
X173880019Y-104910303D01*
X173888379Y-104898061D01*
X174265000Y-104898061D01*
X174265000Y-105101939D01*
X174304774Y-105301898D01*
X174382795Y-105490256D01*
X174496063Y-105659774D01*
X174640226Y-105803937D01*
X174809744Y-105917205D01*
X174998102Y-105995226D01*
X175198061Y-106035000D01*
X175401939Y-106035000D01*
X175601898Y-105995226D01*
X175790256Y-105917205D01*
X175928370Y-105824920D01*
X176098102Y-105895226D01*
X176298061Y-105935000D01*
X176501939Y-105935000D01*
X176701898Y-105895226D01*
X176890256Y-105817205D01*
X177059774Y-105703937D01*
X177203937Y-105559774D01*
X177317205Y-105390256D01*
X177395226Y-105201898D01*
X177435000Y-105001939D01*
X177435000Y-104798061D01*
X177395226Y-104598102D01*
X177317205Y-104409744D01*
X177203937Y-104240226D01*
X177059774Y-104096063D01*
X176890256Y-103982795D01*
X176701898Y-103904774D01*
X176501939Y-103865000D01*
X176298061Y-103865000D01*
X176098102Y-103904774D01*
X175909744Y-103982795D01*
X175771630Y-104075080D01*
X175601898Y-104004774D01*
X175401939Y-103965000D01*
X175198061Y-103965000D01*
X174998102Y-104004774D01*
X174809744Y-104082795D01*
X174640226Y-104196063D01*
X174496063Y-104340226D01*
X174382795Y-104509744D01*
X174304774Y-104698102D01*
X174265000Y-104898061D01*
X173888379Y-104898061D01*
X173905133Y-104873530D01*
X173908866Y-104867099D01*
X174483786Y-103864489D01*
X174503284Y-103824389D01*
X174523195Y-103784509D01*
X174526020Y-103777631D01*
X174959550Y-102706273D01*
X174973443Y-102663843D01*
X174987739Y-102621684D01*
X174989605Y-102614487D01*
X175273724Y-101494204D01*
X175281719Y-101450342D01*
X175290173Y-101406572D01*
X175291044Y-101399188D01*
X175420495Y-100250710D01*
X175422462Y-100206206D01*
X175424899Y-100161656D01*
X175424760Y-100154222D01*
X175397146Y-98998802D01*
X175393051Y-98954399D01*
X175389423Y-98909976D01*
X175388277Y-98902630D01*
X175204111Y-97761647D01*
X175194017Y-97718165D01*
X175184404Y-97674690D01*
X175182275Y-97667582D01*
X175182272Y-97667567D01*
X175182267Y-97667554D01*
X174844959Y-96562135D01*
X174829067Y-96520449D01*
X174813633Y-96478657D01*
X174810554Y-96471889D01*
X174326340Y-95422465D01*
X174304929Y-95383307D01*
X174283974Y-95344010D01*
X174280005Y-95337723D01*
X174274508Y-95329117D01*
X174765000Y-95329117D01*
X174765000Y-95670883D01*
X174831675Y-96006081D01*
X174962463Y-96321831D01*
X175152337Y-96605998D01*
X175394002Y-96847663D01*
X175678169Y-97037537D01*
X175993919Y-97168325D01*
X176329117Y-97235000D01*
X176670883Y-97235000D01*
X177006081Y-97168325D01*
X177321831Y-97037537D01*
X177605998Y-96847663D01*
X177847663Y-96605998D01*
X178037537Y-96321831D01*
X178168325Y-96006081D01*
X178235000Y-95670883D01*
X178235000Y-95329117D01*
X178168325Y-94993919D01*
X178037537Y-94678169D01*
X177847663Y-94394002D01*
X177605998Y-94152337D01*
X177321831Y-93962463D01*
X177006081Y-93831675D01*
X176670883Y-93765000D01*
X176329117Y-93765000D01*
X175993919Y-93831675D01*
X175678169Y-93962463D01*
X175394002Y-94152337D01*
X175152337Y-94394002D01*
X174962463Y-94678169D01*
X174831675Y-94993919D01*
X174765000Y-95329117D01*
X174274508Y-95329117D01*
X173657846Y-94363722D01*
X173631328Y-94327844D01*
X173605225Y-94291743D01*
X173600439Y-94286053D01*
X172851850Y-93405501D01*
X172820720Y-93373566D01*
X172789947Y-93341329D01*
X172784433Y-93336342D01*
X171923266Y-92565532D01*
X171888104Y-92538128D01*
X171853227Y-92510355D01*
X171847087Y-92506162D01*
X170889276Y-91859357D01*
X170850708Y-91836972D01*
X170812396Y-91814196D01*
X170805744Y-91810875D01*
X169769013Y-91300045D01*
X169727750Y-91283096D01*
X169686716Y-91265736D01*
X169679675Y-91263348D01*
X168583209Y-90897944D01*
X168540045Y-90886756D01*
X168497016Y-90875121D01*
X168489716Y-90873711D01*
X167353804Y-90660497D01*
X167309484Y-90655266D01*
X167265312Y-90649583D01*
X167257888Y-90649176D01*
X166103549Y-90592094D01*
X166058924Y-90592927D01*
X166014394Y-90593291D01*
X166006983Y-90593896D01*
X164855577Y-90694005D01*
X164811481Y-90700886D01*
X164767411Y-90707291D01*
X164760153Y-90708895D01*
X164760147Y-90708897D01*
X163632984Y-90964341D01*
X163590291Y-90977124D01*
X163547435Y-90989469D01*
X163540460Y-90992045D01*
X162458390Y-91398102D01*
X162417774Y-91416585D01*
X162377044Y-91434608D01*
X162370483Y-91438106D01*
X161353533Y-91987259D01*
X161315807Y-92011079D01*
X161277892Y-92034468D01*
X161271867Y-92038824D01*
X160338854Y-92720913D01*
X160304705Y-92749637D01*
X160270321Y-92777950D01*
X160264952Y-92783076D01*
X160264943Y-92783083D01*
X160264936Y-92783091D01*
X159439178Y-93579654D01*
X159194350Y-93804852D01*
X158962632Y-93946341D01*
X158707855Y-94040123D01*
X158439710Y-94082635D01*
X158168414Y-94072253D01*
X157904298Y-94009374D01*
X157657432Y-93896395D01*
X157436113Y-93736825D01*
X157212365Y-93498756D01*
X157209465Y-93496219D01*
X157203178Y-93489162D01*
X156685928Y-92959039D01*
X156681507Y-92955071D01*
X156677566Y-92950610D01*
X156629806Y-92907386D01*
X155709903Y-92147834D01*
X155697823Y-92139139D01*
X155686580Y-92129384D01*
X155633523Y-92092856D01*
X154621245Y-91461640D01*
X154608121Y-91454619D01*
X154595687Y-91446437D01*
X154538265Y-91417247D01*
X153451398Y-90925456D01*
X153437466Y-90920234D01*
X153424054Y-90913766D01*
X153363276Y-90892427D01*
X152220912Y-90548701D01*
X152206406Y-90545367D01*
X152192262Y-90540731D01*
X152129196Y-90527618D01*
X150951409Y-90337996D01*
X150936587Y-90336609D01*
X150921955Y-90333885D01*
X150857709Y-90329227D01*
X149665189Y-90297041D01*
X149650310Y-90297627D01*
X149635451Y-90296862D01*
X149571153Y-90300743D01*
X148384852Y-90426558D01*
X148370195Y-90429104D01*
X148355352Y-90430312D01*
X148292140Y-90442661D01*
X148292131Y-90442663D01*
X148292128Y-90442664D01*
X147132892Y-90724268D01*
X147118692Y-90728733D01*
X147104146Y-90731892D01*
X147043115Y-90752495D01*
X145931302Y-91184944D01*
X145917814Y-91191249D01*
X145903818Y-91196303D01*
X145846047Y-91224797D01*
X144801196Y-91800492D01*
X144788667Y-91808521D01*
X144775456Y-91815385D01*
X144721962Y-91851269D01*
X143762428Y-92560094D01*
X143751070Y-92569710D01*
X143738883Y-92578261D01*
X143690605Y-92620905D01*
X142833246Y-93450408D01*
X142823255Y-93461447D01*
X142812311Y-93471530D01*
X142770096Y-93520185D01*
X142029977Y-94455792D01*
X142021536Y-94468052D01*
X142012019Y-94479497D01*
X141976625Y-94533285D01*
X141976610Y-94533307D01*
X141976607Y-94533314D01*
X141366732Y-95558582D01*
X141359985Y-95571854D01*
X141352068Y-95584453D01*
X141324087Y-95642474D01*
X140855165Y-96739402D01*
X140850234Y-96753447D01*
X140844051Y-96766985D01*
X140823989Y-96828197D01*
X140504262Y-97977508D01*
X140501233Y-97992077D01*
X140496893Y-98006319D01*
X140485104Y-98069646D01*
X140320190Y-99251147D01*
X140319114Y-99265994D01*
X140316697Y-99280678D01*
X140313386Y-99345009D01*
X140306181Y-100537941D01*
X140307078Y-100552797D01*
X140306624Y-100567676D01*
X140311851Y-100631879D01*
X140462483Y-101815285D01*
X140465337Y-101829893D01*
X140466855Y-101844700D01*
X140480526Y-101907648D01*
X140786348Y-103060737D01*
X140791106Y-103074832D01*
X140794571Y-103089316D01*
X140816448Y-103149902D01*
X141272087Y-104252414D01*
X141278670Y-104265760D01*
X141284018Y-104279654D01*
X141313716Y-104336815D01*
X141690316Y-104987689D01*
X134934999Y-98232372D01*
X134934999Y-95886587D01*
X134941589Y-95890990D01*
X135211842Y-96002932D01*
X135498740Y-96060000D01*
X135791260Y-96060000D01*
X136078158Y-96002932D01*
X136348411Y-95890990D01*
X136591632Y-95728475D01*
X136798475Y-95521632D01*
X136960990Y-95278411D01*
X137072932Y-95008158D01*
X137130000Y-94721260D01*
X137130000Y-94428740D01*
X137072932Y-94141842D01*
X137023700Y-94022986D01*
X137198102Y-94095226D01*
X137398061Y-94135000D01*
X137601939Y-94135000D01*
X137801898Y-94095226D01*
X137990256Y-94017205D01*
X138159774Y-93903937D01*
X138303937Y-93759774D01*
X138417205Y-93590256D01*
X138495226Y-93401898D01*
X138535000Y-93201939D01*
X138535000Y-92998061D01*
X138495226Y-92798102D01*
X138417205Y-92609744D01*
X138303937Y-92440226D01*
X138159774Y-92296063D01*
X137990256Y-92182795D01*
X137801898Y-92104774D01*
X137601939Y-92065000D01*
X137398061Y-92065000D01*
X137198102Y-92104774D01*
X137009744Y-92182795D01*
X136840226Y-92296063D01*
X136696063Y-92440226D01*
X136582795Y-92609744D01*
X136504774Y-92798102D01*
X136465000Y-92998061D01*
X136465000Y-93201939D01*
X136495963Y-93357601D01*
X136348411Y-93259010D01*
X136078158Y-93147068D01*
X135791260Y-93090000D01*
X135498740Y-93090000D01*
X135211842Y-93147068D01*
X134941589Y-93259010D01*
X134934999Y-93263413D01*
X134934999Y-89435000D01*
X135101939Y-89435000D01*
X135301898Y-89395226D01*
X135490256Y-89317205D01*
X135659774Y-89203937D01*
X135803937Y-89059774D01*
X135917205Y-88890256D01*
X135995226Y-88701898D01*
X136035000Y-88501939D01*
X136035000Y-88298061D01*
X135995226Y-88098102D01*
X135917205Y-87909744D01*
X135803937Y-87740226D01*
X135659774Y-87596063D01*
X135490256Y-87482795D01*
X135301898Y-87404774D01*
X135101939Y-87365000D01*
X134934999Y-87365000D01*
X134934999Y-80835000D01*
X135001939Y-80835000D01*
X135201898Y-80795226D01*
X135390256Y-80717205D01*
X135559774Y-80603937D01*
X135703937Y-80459774D01*
X135817205Y-80290256D01*
X135895226Y-80101898D01*
X135935000Y-79901939D01*
X135935000Y-79698061D01*
X135895226Y-79498102D01*
X135886551Y-79477160D01*
X136003937Y-79359774D01*
X136117205Y-79190256D01*
X136195226Y-79001898D01*
X136235000Y-78801939D01*
X136235000Y-78598061D01*
X136195226Y-78398102D01*
X136195210Y-78398061D01*
X136965000Y-78398061D01*
X136965000Y-78601939D01*
X137004774Y-78801898D01*
X137082795Y-78990256D01*
X137156123Y-79100000D01*
X137082795Y-79209744D01*
X137004774Y-79398102D01*
X136965000Y-79598061D01*
X136965000Y-79801939D01*
X137004774Y-80001898D01*
X137082795Y-80190256D01*
X137196063Y-80359774D01*
X137340226Y-80503937D01*
X137509744Y-80617205D01*
X137698102Y-80695226D01*
X137898061Y-80735000D01*
X138101939Y-80735000D01*
X138301898Y-80695226D01*
X138490256Y-80617205D01*
X138659774Y-80503937D01*
X138803937Y-80359774D01*
X138917205Y-80190256D01*
X138995226Y-80001898D01*
X139035000Y-79801939D01*
X139035000Y-79598061D01*
X138995226Y-79398102D01*
X138917205Y-79209744D01*
X138843877Y-79100000D01*
X138917205Y-78990256D01*
X138995226Y-78801898D01*
X139035000Y-78601939D01*
X139035000Y-78398061D01*
X138995226Y-78198102D01*
X138917205Y-78009744D01*
X138803937Y-77840226D01*
X138659774Y-77696063D01*
X138490256Y-77582795D01*
X138301898Y-77504774D01*
X138101939Y-77465000D01*
X137898061Y-77465000D01*
X137698102Y-77504774D01*
X137509744Y-77582795D01*
X137340226Y-77696063D01*
X137196063Y-77840226D01*
X137082795Y-78009744D01*
X137004774Y-78198102D01*
X136965000Y-78398061D01*
X136195210Y-78398061D01*
X136117205Y-78209744D01*
X136003937Y-78040226D01*
X135859774Y-77896063D01*
X135690256Y-77782795D01*
X135501898Y-77704774D01*
X135301939Y-77665000D01*
X135098061Y-77665000D01*
X134898102Y-77704774D01*
X134709744Y-77782795D01*
X134540226Y-77896063D01*
X134485276Y-77951013D01*
X134342068Y-77994454D01*
X134210038Y-78065026D01*
X134167461Y-78099969D01*
X134094314Y-78159999D01*
X134070511Y-78189003D01*
X133663997Y-78595517D01*
X133634999Y-78619315D01*
X133611201Y-78648313D01*
X133611200Y-78648314D01*
X133540025Y-78735040D01*
X133469453Y-78867070D01*
X133439179Y-78966874D01*
X133425997Y-79010330D01*
X133418125Y-79090256D01*
X133411323Y-79159316D01*
X133415000Y-79196649D01*
X133415000Y-82240198D01*
X126972863Y-75798061D01*
X134765000Y-75798061D01*
X134765000Y-76001939D01*
X134804774Y-76201898D01*
X134882795Y-76390256D01*
X134996063Y-76559774D01*
X135140226Y-76703937D01*
X135309744Y-76817205D01*
X135498102Y-76895226D01*
X135698061Y-76935000D01*
X135901939Y-76935000D01*
X136101898Y-76895226D01*
X136290256Y-76817205D01*
X136459774Y-76703937D01*
X136603937Y-76559774D01*
X136717205Y-76390256D01*
X136795226Y-76201898D01*
X136835000Y-76001939D01*
X136835000Y-75798061D01*
X136795226Y-75598102D01*
X136717205Y-75409744D01*
X136603937Y-75240226D01*
X136459774Y-75096063D01*
X136290256Y-74982795D01*
X136101898Y-74904774D01*
X135901939Y-74865000D01*
X135698061Y-74865000D01*
X135498102Y-74904774D01*
X135309744Y-74982795D01*
X135140226Y-75096063D01*
X134996063Y-75240226D01*
X134882795Y-75409744D01*
X134804774Y-75598102D01*
X134765000Y-75798061D01*
X126972863Y-75798061D01*
X125435000Y-74260199D01*
X125435000Y-74198061D01*
X125395226Y-73998102D01*
X125324920Y-73828370D01*
X125417205Y-73690256D01*
X125495226Y-73501898D01*
X125535000Y-73301939D01*
X125535000Y-73098061D01*
X125495226Y-72898102D01*
X125424920Y-72728370D01*
X125517205Y-72590256D01*
X125595226Y-72401898D01*
X125635000Y-72201939D01*
X125635000Y-71998061D01*
X125595226Y-71798102D01*
X125517205Y-71609744D01*
X125477285Y-71550000D01*
X125517205Y-71490256D01*
X125595226Y-71301898D01*
X125635000Y-71101939D01*
X125635000Y-70898061D01*
X134365000Y-70898061D01*
X134365000Y-71101939D01*
X134404774Y-71301898D01*
X134482795Y-71490256D01*
X134596063Y-71659774D01*
X134740226Y-71803937D01*
X134909744Y-71917205D01*
X135098102Y-71995226D01*
X135298061Y-72035000D01*
X135501939Y-72035000D01*
X135701898Y-71995226D01*
X135890256Y-71917205D01*
X136059774Y-71803937D01*
X136203937Y-71659774D01*
X136317205Y-71490256D01*
X136395226Y-71301898D01*
X136435000Y-71101939D01*
X136435000Y-70898061D01*
X136865000Y-70898061D01*
X136865000Y-71101939D01*
X136904774Y-71301898D01*
X136982795Y-71490256D01*
X137096063Y-71659774D01*
X137240226Y-71803937D01*
X137409744Y-71917205D01*
X137598102Y-71995226D01*
X137798061Y-72035000D01*
X138001939Y-72035000D01*
X138201898Y-71995226D01*
X138390256Y-71917205D01*
X138559774Y-71803937D01*
X138703937Y-71659774D01*
X138817205Y-71490256D01*
X138895226Y-71301898D01*
X138935000Y-71101939D01*
X138935000Y-70898061D01*
X138895226Y-70698102D01*
X138817205Y-70509744D01*
X138703937Y-70340226D01*
X138559774Y-70196063D01*
X138390256Y-70082795D01*
X138201898Y-70004774D01*
X138001939Y-69965000D01*
X137798061Y-69965000D01*
X137598102Y-70004774D01*
X137409744Y-70082795D01*
X137240226Y-70196063D01*
X137096063Y-70340226D01*
X136982795Y-70509744D01*
X136904774Y-70698102D01*
X136865000Y-70898061D01*
X136435000Y-70898061D01*
X136395226Y-70698102D01*
X136317205Y-70509744D01*
X136203937Y-70340226D01*
X136059774Y-70196063D01*
X135890256Y-70082795D01*
X135701898Y-70004774D01*
X135501939Y-69965000D01*
X135298061Y-69965000D01*
X135098102Y-70004774D01*
X134909744Y-70082795D01*
X134740226Y-70196063D01*
X134596063Y-70340226D01*
X134482795Y-70509744D01*
X134404774Y-70698102D01*
X134365000Y-70898061D01*
X125635000Y-70898061D01*
X125595226Y-70698102D01*
X125517205Y-70509744D01*
X125403937Y-70340226D01*
X125259774Y-70196063D01*
X125090256Y-70082795D01*
X124901898Y-70004774D01*
X124701939Y-69965000D01*
X124498061Y-69965000D01*
X124298102Y-70004774D01*
X124109744Y-70082795D01*
X123940226Y-70196063D01*
X123796063Y-70340226D01*
X123682795Y-70509744D01*
X123604774Y-70698102D01*
X123565000Y-70898061D01*
X123565000Y-71101939D01*
X123604774Y-71301898D01*
X123661050Y-71437760D01*
X123610039Y-71465026D01*
X123494314Y-71559999D01*
X123470515Y-71588998D01*
X122989002Y-72070512D01*
X122959999Y-72094314D01*
X122904871Y-72161489D01*
X122865026Y-72210039D01*
X122794455Y-72342068D01*
X122794454Y-72342069D01*
X122750997Y-72485330D01*
X122740000Y-72596983D01*
X122740000Y-72596993D01*
X122736324Y-72634315D01*
X122740000Y-72671637D01*
X122740001Y-89751902D01*
X122736324Y-89789235D01*
X122750998Y-89938220D01*
X122794454Y-90081481D01*
X122865026Y-90213511D01*
X122933431Y-90296862D01*
X122960000Y-90329236D01*
X122988998Y-90353034D01*
X125796964Y-93161000D01*
X125568120Y-93161000D01*
X125309428Y-93212457D01*
X125065746Y-93313393D01*
X124846437Y-93459931D01*
X124659931Y-93646437D01*
X124513393Y-93865746D01*
X124412457Y-94109428D01*
X124361000Y-94368120D01*
X124361000Y-94631880D01*
X124412457Y-94890572D01*
X124513393Y-95134254D01*
X124659931Y-95353563D01*
X124846437Y-95540069D01*
X125065746Y-95686607D01*
X125309428Y-95787543D01*
X125568120Y-95839000D01*
X125831880Y-95839000D01*
X126090572Y-95787543D01*
X126334254Y-95686607D01*
X126553563Y-95540069D01*
X126740069Y-95353563D01*
X126886607Y-95134254D01*
X126987543Y-94890572D01*
X127039000Y-94631880D01*
X127039000Y-94403036D01*
X136550954Y-103914990D01*
X132189884Y-103914990D01*
X132064200Y-103889990D01*
X131860322Y-103889990D01*
X131660363Y-103929764D01*
X131472005Y-104007785D01*
X131302487Y-104121053D01*
X131158324Y-104265216D01*
X131045056Y-104434734D01*
X130967035Y-104623092D01*
X130928423Y-104817210D01*
X129385010Y-103273797D01*
X129385010Y-98748462D01*
X129428947Y-98704525D01*
X129542215Y-98535007D01*
X129620236Y-98346649D01*
X129660010Y-98146690D01*
X129660010Y-97942812D01*
X129620236Y-97742853D01*
X129542215Y-97554495D01*
X129428947Y-97384977D01*
X129284784Y-97240814D01*
X129115266Y-97127546D01*
X128926908Y-97049525D01*
X128726949Y-97009751D01*
X128523071Y-97009751D01*
X128323112Y-97049525D01*
X128134754Y-97127546D01*
X128115328Y-97140526D01*
X127935000Y-96960199D01*
X127935000Y-96898061D01*
X127895226Y-96698102D01*
X127817205Y-96509744D01*
X127703937Y-96340226D01*
X127559774Y-96196063D01*
X127390256Y-96082795D01*
X127201898Y-96004774D01*
X127001939Y-95965000D01*
X126798061Y-95965000D01*
X126598102Y-96004774D01*
X126409744Y-96082795D01*
X126240226Y-96196063D01*
X126096063Y-96340226D01*
X125982795Y-96509744D01*
X125904774Y-96698102D01*
X125865000Y-96898061D01*
X125865000Y-97101939D01*
X125904774Y-97301898D01*
X125982795Y-97490256D01*
X126096063Y-97659774D01*
X126240226Y-97803937D01*
X126359164Y-97883409D01*
X126340226Y-97896063D01*
X126196063Y-98040226D01*
X126082795Y-98209744D01*
X126082349Y-98210821D01*
X125831880Y-98161000D01*
X125568120Y-98161000D01*
X125309428Y-98212457D01*
X125065746Y-98313393D01*
X124846437Y-98459931D01*
X124659931Y-98646437D01*
X124513393Y-98865746D01*
X124412457Y-99109428D01*
X124361000Y-99368120D01*
X124361000Y-99631880D01*
X124412457Y-99890572D01*
X124513393Y-100134254D01*
X124659931Y-100353563D01*
X124846437Y-100540069D01*
X125065746Y-100686607D01*
X125309428Y-100787543D01*
X125568120Y-100839000D01*
X125831880Y-100839000D01*
X126090572Y-100787543D01*
X126334254Y-100686607D01*
X126553563Y-100540069D01*
X126740069Y-100353563D01*
X126886607Y-100134254D01*
X126987543Y-99890572D01*
X127018488Y-99735000D01*
X127101939Y-99735000D01*
X127140000Y-99727429D01*
X127140001Y-103462668D01*
X127136324Y-103500000D01*
X127140001Y-103537333D01*
X127144579Y-103583808D01*
X127150998Y-103648985D01*
X127194454Y-103792246D01*
X127265026Y-103924276D01*
X127333561Y-104007785D01*
X127360000Y-104040001D01*
X127388998Y-104063799D01*
X135240189Y-111914990D01*
X132733036Y-111914990D01*
X132689099Y-111871053D01*
X132519581Y-111757785D01*
X132331223Y-111679764D01*
X132131264Y-111639990D01*
X131927386Y-111639990D01*
X131727427Y-111679764D01*
X131539069Y-111757785D01*
X131369551Y-111871053D01*
X131225388Y-112015216D01*
X131112120Y-112184734D01*
X131034099Y-112373092D01*
X130994325Y-112573051D01*
X130994325Y-112776929D01*
X131034099Y-112976888D01*
X131112120Y-113165246D01*
X131225388Y-113334764D01*
X131369551Y-113478927D01*
X131539069Y-113592195D01*
X131727427Y-113670216D01*
X131927386Y-113709990D01*
X132131264Y-113709990D01*
X132331223Y-113670216D01*
X132519581Y-113592195D01*
X132689099Y-113478927D01*
X132733036Y-113434990D01*
X133953262Y-113434990D01*
X133896000Y-113573231D01*
X133856226Y-113773190D01*
X133856226Y-113977068D01*
X133896000Y-114177027D01*
X133974021Y-114365385D01*
X134087289Y-114534903D01*
X134231452Y-114679066D01*
X134400970Y-114792334D01*
X134589328Y-114870355D01*
X134789287Y-114910129D01*
X134993165Y-114910129D01*
X135193124Y-114870355D01*
X135381482Y-114792334D01*
X135551000Y-114679066D01*
X135695163Y-114534903D01*
X135808431Y-114365385D01*
X135886452Y-114177027D01*
X135926226Y-113977068D01*
X135926226Y-113773190D01*
X135886452Y-113573231D01*
X135829190Y-113434990D01*
X136123779Y-113434990D01*
X140371261Y-117682472D01*
X139668923Y-117299545D01*
X139657787Y-117294113D01*
X139646961Y-117288063D01*
X139611027Y-117271307D01*
X138029007Y-116586706D01*
X138017417Y-116582303D01*
X138006094Y-116577262D01*
X137968790Y-116563832D01*
X136331235Y-116025431D01*
X136319302Y-116022099D01*
X136307561Y-116018102D01*
X136269207Y-116008112D01*
X136269193Y-116008108D01*
X136269188Y-116008107D01*
X134589579Y-115620339D01*
X134577377Y-115618100D01*
X134565338Y-115615187D01*
X134526222Y-115608711D01*
X132818377Y-115374765D01*
X132806027Y-115373641D01*
X132793769Y-115371831D01*
X132754227Y-115368927D01*
X131050932Y-115291581D01*
X131034877Y-115290000D01*
X122210000Y-115290000D01*
X122210000Y-113298061D01*
X127465000Y-113298061D01*
X127465000Y-113501939D01*
X127504774Y-113701898D01*
X127582795Y-113890256D01*
X127696063Y-114059774D01*
X127840226Y-114203937D01*
X128009744Y-114317205D01*
X128198102Y-114395226D01*
X128398061Y-114435000D01*
X128601939Y-114435000D01*
X128801898Y-114395226D01*
X128990256Y-114317205D01*
X129159774Y-114203937D01*
X129303937Y-114059774D01*
X129417205Y-113890256D01*
X129495226Y-113701898D01*
X129535000Y-113501939D01*
X129535000Y-113298061D01*
X129515555Y-113200301D01*
X129659774Y-113103937D01*
X129803937Y-112959774D01*
X129917205Y-112790256D01*
X129995226Y-112601898D01*
X130035000Y-112401939D01*
X130035000Y-112198061D01*
X129995226Y-111998102D01*
X129917205Y-111809744D01*
X129803937Y-111640226D01*
X129659774Y-111496063D01*
X129490256Y-111382795D01*
X129301898Y-111304774D01*
X129101939Y-111265000D01*
X128898061Y-111265000D01*
X128698102Y-111304774D01*
X128509744Y-111382795D01*
X128340226Y-111496063D01*
X128196063Y-111640226D01*
X128082795Y-111809744D01*
X128004774Y-111998102D01*
X127965000Y-112198061D01*
X127965000Y-112401939D01*
X127984445Y-112499699D01*
X127840226Y-112596063D01*
X127696063Y-112740226D01*
X127582795Y-112909744D01*
X127504774Y-113098102D01*
X127465000Y-113298061D01*
X122210000Y-113298061D01*
X122210000Y-110258363D01*
X122435000Y-110258363D01*
X122435000Y-110501637D01*
X122482460Y-110740236D01*
X122575557Y-110964992D01*
X122710713Y-111167267D01*
X122882733Y-111339287D01*
X123085008Y-111474443D01*
X123309764Y-111567540D01*
X123539894Y-111613315D01*
X123504774Y-111698102D01*
X123465000Y-111898061D01*
X123465000Y-112101939D01*
X123504774Y-112301898D01*
X123582795Y-112490256D01*
X123696063Y-112659774D01*
X123840226Y-112803937D01*
X124009744Y-112917205D01*
X124198102Y-112995226D01*
X124398061Y-113035000D01*
X124601939Y-113035000D01*
X124801898Y-112995226D01*
X124990256Y-112917205D01*
X125159774Y-112803937D01*
X125303937Y-112659774D01*
X125417205Y-112490256D01*
X125495226Y-112301898D01*
X125535000Y-112101939D01*
X125535000Y-111898061D01*
X125495226Y-111698102D01*
X125417205Y-111509744D01*
X125303937Y-111340226D01*
X125159774Y-111196063D01*
X124990256Y-111082795D01*
X124801898Y-111004774D01*
X124745374Y-110993531D01*
X124764443Y-110964992D01*
X124857540Y-110740236D01*
X124905000Y-110501637D01*
X124905000Y-110258363D01*
X124857540Y-110019764D01*
X124764443Y-109795008D01*
X124629287Y-109592733D01*
X124457267Y-109420713D01*
X124254992Y-109285557D01*
X124030236Y-109192460D01*
X123791637Y-109145000D01*
X123548363Y-109145000D01*
X123309764Y-109192460D01*
X123085008Y-109285557D01*
X122882733Y-109420713D01*
X122710713Y-109592733D01*
X122575557Y-109795008D01*
X122482460Y-110019764D01*
X122435000Y-110258363D01*
X122210000Y-110258363D01*
X122210000Y-105798061D01*
X125965000Y-105798061D01*
X125965000Y-106001939D01*
X126004774Y-106201898D01*
X126082795Y-106390256D01*
X126196063Y-106559774D01*
X126340226Y-106703937D01*
X126509744Y-106817205D01*
X126698102Y-106895226D01*
X126898061Y-106935000D01*
X127101939Y-106935000D01*
X127301898Y-106895226D01*
X127490256Y-106817205D01*
X127659774Y-106703937D01*
X127803937Y-106559774D01*
X127917205Y-106390256D01*
X127995226Y-106201898D01*
X128035000Y-106001939D01*
X128035000Y-105798061D01*
X127995226Y-105598102D01*
X127917205Y-105409744D01*
X127803937Y-105240226D01*
X127659774Y-105096063D01*
X127490256Y-104982795D01*
X127301898Y-104904774D01*
X127101939Y-104865000D01*
X126898061Y-104865000D01*
X126698102Y-104904774D01*
X126509744Y-104982795D01*
X126340226Y-105096063D01*
X126196063Y-105240226D01*
X126082795Y-105409744D01*
X126004774Y-105598102D01*
X125965000Y-105798061D01*
X122210000Y-105798061D01*
X122210000Y-104398061D01*
X122465000Y-104398061D01*
X122465000Y-104601939D01*
X122504774Y-104801898D01*
X122582795Y-104990256D01*
X122696063Y-105159774D01*
X122840226Y-105303937D01*
X123009744Y-105417205D01*
X123198102Y-105495226D01*
X123398061Y-105535000D01*
X123601939Y-105535000D01*
X123801898Y-105495226D01*
X123990256Y-105417205D01*
X124159774Y-105303937D01*
X124303937Y-105159774D01*
X124417205Y-104990256D01*
X124495226Y-104801898D01*
X124535000Y-104601939D01*
X124535000Y-104398061D01*
X124495226Y-104198102D01*
X124417205Y-104009744D01*
X124303937Y-103840226D01*
X124159774Y-103696063D01*
X123990256Y-103582795D01*
X123801898Y-103504774D01*
X123601939Y-103465000D01*
X123398061Y-103465000D01*
X123198102Y-103504774D01*
X123009744Y-103582795D01*
X122840226Y-103696063D01*
X122696063Y-103840226D01*
X122582795Y-104009744D01*
X122504774Y-104198102D01*
X122465000Y-104398061D01*
X122210000Y-104398061D01*
X122210000Y-101818267D01*
X122272905Y-101860299D01*
X122552257Y-101976011D01*
X122848816Y-102035000D01*
X123151184Y-102035000D01*
X123447743Y-101976011D01*
X123727095Y-101860299D01*
X123978505Y-101692312D01*
X124192312Y-101478505D01*
X124360299Y-101227095D01*
X124476011Y-100947743D01*
X124535000Y-100651184D01*
X124535000Y-100348816D01*
X124476011Y-100052257D01*
X124360299Y-99772905D01*
X124192312Y-99521495D01*
X123978505Y-99307688D01*
X123727095Y-99139701D01*
X123447743Y-99023989D01*
X123151184Y-98965000D01*
X122848816Y-98965000D01*
X122552257Y-99023989D01*
X122272905Y-99139701D01*
X122210000Y-99181733D01*
X122210000Y-94818267D01*
X122272905Y-94860299D01*
X122552257Y-94976011D01*
X122848816Y-95035000D01*
X123151184Y-95035000D01*
X123447743Y-94976011D01*
X123727095Y-94860299D01*
X123978505Y-94692312D01*
X124192312Y-94478505D01*
X124360299Y-94227095D01*
X124476011Y-93947743D01*
X124535000Y-93651184D01*
X124535000Y-93348816D01*
X124476011Y-93052257D01*
X124360299Y-92772905D01*
X124192312Y-92521495D01*
X123978505Y-92307688D01*
X123727095Y-92139701D01*
X123447743Y-92023989D01*
X123151184Y-91965000D01*
X122848816Y-91965000D01*
X122552257Y-92023989D01*
X122272905Y-92139701D01*
X122210000Y-92181733D01*
X122210000Y-84034876D01*
X122213435Y-84000000D01*
X122199727Y-83860816D01*
X122159128Y-83726980D01*
X122093200Y-83603637D01*
X122004475Y-83495525D01*
X121896363Y-83406800D01*
X121773020Y-83340872D01*
X121639184Y-83300273D01*
X121534877Y-83290000D01*
X121500000Y-83286565D01*
X121465123Y-83290000D01*
X118410000Y-83290000D01*
X118410000Y-82514515D01*
X118482795Y-82690256D01*
X118596063Y-82859774D01*
X118740226Y-83003937D01*
X118909744Y-83117205D01*
X119098102Y-83195226D01*
X119298061Y-83235000D01*
X119501939Y-83235000D01*
X119701898Y-83195226D01*
X119890256Y-83117205D01*
X120059774Y-83003937D01*
X120203937Y-82859774D01*
X120317205Y-82690256D01*
X120395226Y-82501898D01*
X120435000Y-82301939D01*
X120435000Y-82098061D01*
X120395226Y-81898102D01*
X120317205Y-81709744D01*
X120203937Y-81540226D01*
X120059774Y-81396063D01*
X119890256Y-81282795D01*
X119701898Y-81204774D01*
X119501939Y-81165000D01*
X119298061Y-81165000D01*
X119098102Y-81204774D01*
X118909744Y-81282795D01*
X118740226Y-81396063D01*
X118596063Y-81540226D01*
X118482795Y-81709744D01*
X118410000Y-81885485D01*
X118410000Y-75298061D01*
X120265000Y-75298061D01*
X120265000Y-75501939D01*
X120304774Y-75701898D01*
X120382795Y-75890256D01*
X120496063Y-76059774D01*
X120640226Y-76203937D01*
X120809744Y-76317205D01*
X120998102Y-76395226D01*
X121198061Y-76435000D01*
X121401939Y-76435000D01*
X121601898Y-76395226D01*
X121790256Y-76317205D01*
X121959774Y-76203937D01*
X122103937Y-76059774D01*
X122217205Y-75890256D01*
X122295226Y-75701898D01*
X122335000Y-75501939D01*
X122335000Y-75298061D01*
X122295226Y-75098102D01*
X122217205Y-74909744D01*
X122103937Y-74740226D01*
X121959774Y-74596063D01*
X121790256Y-74482795D01*
X121601898Y-74404774D01*
X121401939Y-74365000D01*
X121198061Y-74365000D01*
X120998102Y-74404774D01*
X120809744Y-74482795D01*
X120640226Y-74596063D01*
X120496063Y-74740226D01*
X120382795Y-74909744D01*
X120304774Y-75098102D01*
X120265000Y-75298061D01*
X118410000Y-75298061D01*
X118410000Y-71198061D01*
X119265000Y-71198061D01*
X119265000Y-71401939D01*
X119304774Y-71601898D01*
X119382795Y-71790256D01*
X119496063Y-71959774D01*
X119640226Y-72103937D01*
X119809744Y-72217205D01*
X119998102Y-72295226D01*
X120198061Y-72335000D01*
X120401939Y-72335000D01*
X120601898Y-72295226D01*
X120790256Y-72217205D01*
X120959774Y-72103937D01*
X121103937Y-71959774D01*
X121217205Y-71790256D01*
X121295226Y-71601898D01*
X121335000Y-71401939D01*
X121335000Y-71198061D01*
X121295226Y-70998102D01*
X121217205Y-70809744D01*
X121103937Y-70640226D01*
X120959774Y-70496063D01*
X120790256Y-70382795D01*
X120601898Y-70304774D01*
X120401939Y-70265000D01*
X120198061Y-70265000D01*
X119998102Y-70304774D01*
X119809744Y-70382795D01*
X119640226Y-70496063D01*
X119496063Y-70640226D01*
X119382795Y-70809744D01*
X119304774Y-70998102D01*
X119265000Y-71198061D01*
X118410000Y-71198061D01*
X118410000Y-69710000D01*
X171705909Y-69710000D01*
X178290000Y-76294092D01*
G36*
X159645000Y-127400031D02*
G01*
X159645000Y-127599969D01*
X159684006Y-127796065D01*
X159760519Y-127980783D01*
X159871598Y-128147025D01*
X160012975Y-128288402D01*
X160179217Y-128399481D01*
X160363935Y-128475994D01*
X160560031Y-128515000D01*
X160759969Y-128515000D01*
X160956065Y-128475994D01*
X161140783Y-128399481D01*
X161307025Y-128288402D01*
X161448402Y-128147025D01*
X161559481Y-127980783D01*
X161635994Y-127796065D01*
X161675000Y-127599969D01*
X161675000Y-127400031D01*
X161657092Y-127310000D01*
X162902407Y-127310000D01*
X162865000Y-127498061D01*
X162865000Y-127701939D01*
X162904774Y-127901898D01*
X162982795Y-128090256D01*
X163096063Y-128259774D01*
X163240226Y-128403937D01*
X163409744Y-128517205D01*
X163598102Y-128595226D01*
X163798061Y-128635000D01*
X164001939Y-128635000D01*
X164201898Y-128595226D01*
X164390256Y-128517205D01*
X164559774Y-128403937D01*
X164703937Y-128259774D01*
X164817205Y-128090256D01*
X164854119Y-128001137D01*
X164951598Y-128147025D01*
X165092975Y-128288402D01*
X165259217Y-128399481D01*
X165357860Y-128440340D01*
X163471936Y-130326265D01*
X163322472Y-130326265D01*
X163278535Y-130282328D01*
X163109017Y-130169060D01*
X162920659Y-130091039D01*
X162720700Y-130051265D01*
X162516822Y-130051265D01*
X162316863Y-130091039D01*
X162128505Y-130169060D01*
X161958987Y-130282328D01*
X161814824Y-130426491D01*
X161701556Y-130596009D01*
X161623535Y-130784367D01*
X161583761Y-130984326D01*
X161583761Y-131188204D01*
X161623535Y-131388163D01*
X161701556Y-131576521D01*
X161814824Y-131746039D01*
X161958987Y-131890202D01*
X162123560Y-132000166D01*
X160499287Y-132000166D01*
X160559148Y-131940305D01*
X160672416Y-131770787D01*
X160750437Y-131582429D01*
X160790211Y-131382470D01*
X160790211Y-131178592D01*
X160750437Y-130978633D01*
X160672416Y-130790275D01*
X160559148Y-130620757D01*
X160414985Y-130476594D01*
X160308437Y-130405401D01*
X158415456Y-128512420D01*
X158501898Y-128495226D01*
X158690256Y-128417205D01*
X158859774Y-128303937D01*
X159003937Y-128159774D01*
X159117205Y-127990256D01*
X159195226Y-127801898D01*
X159235000Y-127601939D01*
X159235000Y-127398061D01*
X159217484Y-127310000D01*
X159662908Y-127310000D01*
X159645000Y-127400031D01*
G37*
X159645000Y-127400031D02*
X159645000Y-127599969D01*
X159684006Y-127796065D01*
X159760519Y-127980783D01*
X159871598Y-128147025D01*
X160012975Y-128288402D01*
X160179217Y-128399481D01*
X160363935Y-128475994D01*
X160560031Y-128515000D01*
X160759969Y-128515000D01*
X160956065Y-128475994D01*
X161140783Y-128399481D01*
X161307025Y-128288402D01*
X161448402Y-128147025D01*
X161559481Y-127980783D01*
X161635994Y-127796065D01*
X161675000Y-127599969D01*
X161675000Y-127400031D01*
X161657092Y-127310000D01*
X162902407Y-127310000D01*
X162865000Y-127498061D01*
X162865000Y-127701939D01*
X162904774Y-127901898D01*
X162982795Y-128090256D01*
X163096063Y-128259774D01*
X163240226Y-128403937D01*
X163409744Y-128517205D01*
X163598102Y-128595226D01*
X163798061Y-128635000D01*
X164001939Y-128635000D01*
X164201898Y-128595226D01*
X164390256Y-128517205D01*
X164559774Y-128403937D01*
X164703937Y-128259774D01*
X164817205Y-128090256D01*
X164854119Y-128001137D01*
X164951598Y-128147025D01*
X165092975Y-128288402D01*
X165259217Y-128399481D01*
X165357860Y-128440340D01*
X163471936Y-130326265D01*
X163322472Y-130326265D01*
X163278535Y-130282328D01*
X163109017Y-130169060D01*
X162920659Y-130091039D01*
X162720700Y-130051265D01*
X162516822Y-130051265D01*
X162316863Y-130091039D01*
X162128505Y-130169060D01*
X161958987Y-130282328D01*
X161814824Y-130426491D01*
X161701556Y-130596009D01*
X161623535Y-130784367D01*
X161583761Y-130984326D01*
X161583761Y-131188204D01*
X161623535Y-131388163D01*
X161701556Y-131576521D01*
X161814824Y-131746039D01*
X161958987Y-131890202D01*
X162123560Y-132000166D01*
X160499287Y-132000166D01*
X160559148Y-131940305D01*
X160672416Y-131770787D01*
X160750437Y-131582429D01*
X160790211Y-131382470D01*
X160790211Y-131178592D01*
X160750437Y-130978633D01*
X160672416Y-130790275D01*
X160559148Y-130620757D01*
X160414985Y-130476594D01*
X160308437Y-130405401D01*
X158415456Y-128512420D01*
X158501898Y-128495226D01*
X158690256Y-128417205D01*
X158859774Y-128303937D01*
X159003937Y-128159774D01*
X159117205Y-127990256D01*
X159195226Y-127801898D01*
X159235000Y-127601939D01*
X159235000Y-127398061D01*
X159217484Y-127310000D01*
X159662908Y-127310000D01*
X159645000Y-127400031D01*
G36*
X168788998Y-120036201D02*
G01*
X168760000Y-120059999D01*
X168736202Y-120088997D01*
X168736201Y-120088998D01*
X168665026Y-120175724D01*
X168594454Y-120307754D01*
X168564180Y-120407558D01*
X168550998Y-120451014D01*
X168546983Y-120491777D01*
X168536324Y-120600000D01*
X168540001Y-120637332D01*
X168540000Y-125258200D01*
X168230956Y-125567245D01*
X168159774Y-125496063D01*
X167990256Y-125382795D01*
X167801898Y-125304774D01*
X167601939Y-125265000D01*
X167398061Y-125265000D01*
X167272377Y-125290000D01*
X158518355Y-125290000D01*
X154288333Y-121059978D01*
X163027967Y-121059978D01*
X163065289Y-121063654D01*
X163102611Y-121059978D01*
X163102622Y-121059978D01*
X163214275Y-121048981D01*
X163357536Y-121005524D01*
X163489565Y-120934952D01*
X163605290Y-120839979D01*
X163629093Y-120810975D01*
X167360059Y-117080010D01*
X167381703Y-117112403D01*
X167429044Y-117159744D01*
X161486981Y-123101807D01*
X161301939Y-123065000D01*
X161098061Y-123065000D01*
X160898102Y-123104774D01*
X160709744Y-123182795D01*
X160540226Y-123296063D01*
X160396063Y-123440226D01*
X160282795Y-123609744D01*
X160204774Y-123798102D01*
X160165000Y-123998061D01*
X160165000Y-124201939D01*
X160204774Y-124401898D01*
X160282795Y-124590256D01*
X160396063Y-124759774D01*
X160540226Y-124903937D01*
X160709744Y-125017205D01*
X160898102Y-125095226D01*
X161098061Y-125135000D01*
X161301939Y-125135000D01*
X161501898Y-125095226D01*
X161690256Y-125017205D01*
X161859774Y-124903937D01*
X162003937Y-124759774D01*
X162060141Y-124675659D01*
X162103590Y-124640001D01*
X162127393Y-124610997D01*
X162137340Y-124601051D01*
X162252879Y-124716590D01*
X162422397Y-124829858D01*
X162610755Y-124907879D01*
X162810714Y-124947653D01*
X163014592Y-124947653D01*
X163214551Y-124907879D01*
X163376914Y-124840625D01*
X163440226Y-124903937D01*
X163609744Y-125017205D01*
X163798102Y-125095226D01*
X163998061Y-125135000D01*
X164201939Y-125135000D01*
X164401898Y-125095226D01*
X164571630Y-125024920D01*
X164709744Y-125117205D01*
X164898102Y-125195226D01*
X165098061Y-125235000D01*
X165301939Y-125235000D01*
X165501898Y-125195226D01*
X165690256Y-125117205D01*
X165859774Y-125003937D01*
X166003937Y-124859774D01*
X166117205Y-124690256D01*
X166195226Y-124501898D01*
X166235000Y-124301939D01*
X166235000Y-124098061D01*
X166195226Y-123898102D01*
X166117205Y-123709744D01*
X166003937Y-123540226D01*
X165859774Y-123396063D01*
X165690256Y-123282795D01*
X165501898Y-123204774D01*
X165301939Y-123165000D01*
X165098061Y-123165000D01*
X164898102Y-123204774D01*
X164728370Y-123275080D01*
X164590256Y-123182795D01*
X164401898Y-123104774D01*
X164291906Y-123082895D01*
X172414802Y-114960000D01*
X173865198Y-114960000D01*
X168788998Y-120036201D01*
G37*
X168788998Y-120036201D02*
X168760000Y-120059999D01*
X168736202Y-120088997D01*
X168736201Y-120088998D01*
X168665026Y-120175724D01*
X168594454Y-120307754D01*
X168564180Y-120407558D01*
X168550998Y-120451014D01*
X168546983Y-120491777D01*
X168536324Y-120600000D01*
X168540001Y-120637332D01*
X168540000Y-125258200D01*
X168230956Y-125567245D01*
X168159774Y-125496063D01*
X167990256Y-125382795D01*
X167801898Y-125304774D01*
X167601939Y-125265000D01*
X167398061Y-125265000D01*
X167272377Y-125290000D01*
X158518355Y-125290000D01*
X154288333Y-121059978D01*
X163027967Y-121059978D01*
X163065289Y-121063654D01*
X163102611Y-121059978D01*
X163102622Y-121059978D01*
X163214275Y-121048981D01*
X163357536Y-121005524D01*
X163489565Y-120934952D01*
X163605290Y-120839979D01*
X163629093Y-120810975D01*
X167360059Y-117080010D01*
X167381703Y-117112403D01*
X167429044Y-117159744D01*
X161486981Y-123101807D01*
X161301939Y-123065000D01*
X161098061Y-123065000D01*
X160898102Y-123104774D01*
X160709744Y-123182795D01*
X160540226Y-123296063D01*
X160396063Y-123440226D01*
X160282795Y-123609744D01*
X160204774Y-123798102D01*
X160165000Y-123998061D01*
X160165000Y-124201939D01*
X160204774Y-124401898D01*
X160282795Y-124590256D01*
X160396063Y-124759774D01*
X160540226Y-124903937D01*
X160709744Y-125017205D01*
X160898102Y-125095226D01*
X161098061Y-125135000D01*
X161301939Y-125135000D01*
X161501898Y-125095226D01*
X161690256Y-125017205D01*
X161859774Y-124903937D01*
X162003937Y-124759774D01*
X162060141Y-124675659D01*
X162103590Y-124640001D01*
X162127393Y-124610997D01*
X162137340Y-124601051D01*
X162252879Y-124716590D01*
X162422397Y-124829858D01*
X162610755Y-124907879D01*
X162810714Y-124947653D01*
X163014592Y-124947653D01*
X163214551Y-124907879D01*
X163376914Y-124840625D01*
X163440226Y-124903937D01*
X163609744Y-125017205D01*
X163798102Y-125095226D01*
X163998061Y-125135000D01*
X164201939Y-125135000D01*
X164401898Y-125095226D01*
X164571630Y-125024920D01*
X164709744Y-125117205D01*
X164898102Y-125195226D01*
X165098061Y-125235000D01*
X165301939Y-125235000D01*
X165501898Y-125195226D01*
X165690256Y-125117205D01*
X165859774Y-125003937D01*
X166003937Y-124859774D01*
X166117205Y-124690256D01*
X166195226Y-124501898D01*
X166235000Y-124301939D01*
X166235000Y-124098061D01*
X166195226Y-123898102D01*
X166117205Y-123709744D01*
X166003937Y-123540226D01*
X165859774Y-123396063D01*
X165690256Y-123282795D01*
X165501898Y-123204774D01*
X165301939Y-123165000D01*
X165098061Y-123165000D01*
X164898102Y-123204774D01*
X164728370Y-123275080D01*
X164590256Y-123182795D01*
X164401898Y-123104774D01*
X164291906Y-123082895D01*
X172414802Y-114960000D01*
X173865198Y-114960000D01*
X168788998Y-120036201D01*
M02*
