G04 #@! TF.GenerationSoftware,KiCad,Pcbnew,5.1.6+dfsg1-1~bpo10+1*
G04 #@! TF.CreationDate,2021-03-28T20:23:35-04:00*
G04 #@! TF.ProjectId,RUSP_Daughterboard,52555350-5f44-4617-9567-68746572626f,rev?*
G04 #@! TF.SameCoordinates,Original*
G04 #@! TF.FileFunction,Other,Fab,Top*
%FSLAX46Y46*%
G04 Gerber Fmt 4.6, Leading zero omitted, Abs format (unit mm)*
G04 Created by KiCad (PCBNEW 5.1.6+dfsg1-1~bpo10+1) date 2021-03-28 20:23:35*
%MOMM*%
%LPD*%
G01*
G04 APERTURE LIST*
%ADD10C,0.200000*%
%ADD11C,0.100000*%
%ADD12C,0.127000*%
%ADD13C,0.150000*%
%ADD14C,0.120000*%
%ADD15C,0.040000*%
%ADD16C,0.015000*%
%ADD17C,0.050000*%
%ADD18C,0.135000*%
G04 APERTURE END LIST*
D10*
X183000000Y-100000000D02*
G75*
G03*
X183000000Y-100000000I-33000000J0D01*
G01*
D11*
X175550000Y-120500000D02*
X175050000Y-120500000D01*
X175050000Y-120500000D02*
X175050000Y-119500000D01*
X175050000Y-119500000D02*
X175550000Y-119500000D01*
X175550000Y-119500000D02*
X175550000Y-120500000D01*
X176750000Y-80415000D02*
X177250000Y-80415000D01*
X177250000Y-80415000D02*
X177250000Y-81415000D01*
X177250000Y-81415000D02*
X176750000Y-81415000D01*
X176750000Y-81415000D02*
X176750000Y-80415000D01*
X169600000Y-72650000D02*
X169900000Y-72950000D01*
X169300000Y-72950000D02*
X169600000Y-72650000D01*
X169650000Y-71650000D02*
G75*
G03*
X169650000Y-71650000I-50000J0D01*
G01*
X169725000Y-71650000D02*
G75*
G03*
X169725000Y-71650000I-125000J0D01*
G01*
X170500000Y-71650000D02*
G75*
G03*
X170500000Y-71650000I-900000J0D01*
G01*
X168300000Y-70350000D02*
X170900000Y-70350000D01*
X168300000Y-70350000D02*
X168300000Y-72650000D01*
X168300000Y-72650000D02*
X168600000Y-72950000D01*
X170900000Y-70350000D02*
X170900000Y-72950000D01*
X168600000Y-72950000D02*
X170900000Y-72950000D01*
X169800000Y-71650000D02*
G75*
G03*
X169800000Y-71650000I-200000J0D01*
G01*
X178450000Y-77300000D02*
X177950000Y-77300000D01*
X177950000Y-77300000D02*
X177950000Y-76300000D01*
X177950000Y-76300000D02*
X178450000Y-76300000D01*
X178450000Y-76300000D02*
X178450000Y-77300000D01*
X178450000Y-79300000D02*
X177950000Y-79300000D01*
X177950000Y-79300000D02*
X177950000Y-78300000D01*
X177950000Y-78300000D02*
X178450000Y-78300000D01*
X178450000Y-78300000D02*
X178450000Y-79300000D01*
D10*
X178500000Y-88400000D02*
G75*
G03*
X178500000Y-88400000I-100000J0D01*
G01*
D12*
X167500000Y-90000000D02*
X177500000Y-90000000D01*
X167500000Y-86800000D02*
X167500000Y-90000000D01*
X177500000Y-86800000D02*
X167500000Y-86800000D01*
X177500000Y-90000000D02*
X177500000Y-86800000D01*
D11*
X148849670Y-122806777D02*
X149556777Y-122099670D01*
X149203223Y-123160330D02*
X148849670Y-122806777D01*
X149910330Y-122453223D02*
X149203223Y-123160330D01*
X149556777Y-122099670D02*
X149910330Y-122453223D01*
X147956777Y-120469670D02*
X148310330Y-120823223D01*
X148310330Y-120823223D02*
X147603223Y-121530330D01*
X147603223Y-121530330D02*
X147249670Y-121176777D01*
X147249670Y-121176777D02*
X147956777Y-120469670D01*
X176650000Y-105700000D02*
X176650000Y-106700000D01*
X176150000Y-105700000D02*
X176650000Y-105700000D01*
X176150000Y-106700000D02*
X176150000Y-105700000D01*
X176650000Y-106700000D02*
X176150000Y-106700000D01*
X175450000Y-106700000D02*
X174950000Y-106700000D01*
X174950000Y-106700000D02*
X174950000Y-105700000D01*
X174950000Y-105700000D02*
X175450000Y-105700000D01*
X175450000Y-105700000D02*
X175450000Y-106700000D01*
X148766777Y-121279670D02*
X149120330Y-121633223D01*
X149120330Y-121633223D02*
X148413223Y-122340330D01*
X148413223Y-122340330D02*
X148059670Y-121986777D01*
X148059670Y-121986777D02*
X148766777Y-121279670D01*
X127250000Y-86500000D02*
G75*
G03*
X127250000Y-86500000I-750000J0D01*
G01*
X175750000Y-74500000D02*
G75*
G03*
X175750000Y-74500000I-750000J0D01*
G01*
X175750000Y-136000000D02*
G75*
G03*
X175750000Y-136000000I-750000J0D01*
G01*
D13*
X138350000Y-115750000D02*
X121050000Y-115750000D01*
X121050000Y-115750000D02*
X121050000Y-86250000D01*
X121050000Y-86250000D02*
X138350000Y-86250000D01*
X138350000Y-86250000D02*
X138350000Y-115750000D01*
D11*
X118375000Y-69750000D02*
X118375000Y-83750000D01*
X118375000Y-69750000D02*
X133825000Y-69750000D01*
X118375000Y-83750000D02*
X133825000Y-83750000D01*
X133825000Y-69750000D02*
X133825000Y-83750000D01*
X125600000Y-76750000D02*
X126600000Y-76750000D01*
X126100000Y-76250000D02*
X126100000Y-77250000D01*
X137200000Y-78250000D02*
X137200000Y-78750000D01*
X137200000Y-78750000D02*
X136200000Y-78750000D01*
X136200000Y-78750000D02*
X136200000Y-78250000D01*
X136200000Y-78250000D02*
X137200000Y-78250000D01*
X136115000Y-70750000D02*
X137115000Y-70750000D01*
X136115000Y-71250000D02*
X136115000Y-70750000D01*
X137115000Y-71250000D02*
X136115000Y-71250000D01*
X137115000Y-70750000D02*
X137115000Y-71250000D01*
X137200000Y-79450000D02*
X137200000Y-79950000D01*
X137200000Y-79950000D02*
X136200000Y-79950000D01*
X136200000Y-79950000D02*
X136200000Y-79450000D01*
X136200000Y-79450000D02*
X137200000Y-79450000D01*
X176450000Y-119500000D02*
X176950000Y-119500000D01*
X176950000Y-119500000D02*
X176950000Y-120500000D01*
X176950000Y-120500000D02*
X176450000Y-120500000D01*
X176450000Y-120500000D02*
X176450000Y-119500000D01*
D13*
X172750000Y-109050000D02*
X175650000Y-109050000D01*
X175650000Y-109050000D02*
X175650000Y-117750000D01*
X175650000Y-117750000D02*
X171750000Y-117750000D01*
X171750000Y-117750000D02*
X171750000Y-110050000D01*
X171750000Y-110050000D02*
X172750000Y-109050000D01*
D14*
X155552417Y-128000000D02*
G75*
G03*
X155552417Y-128000000I-1552417J0D01*
G01*
D11*
X176100000Y-77850000D02*
X177100000Y-77850000D01*
X176100000Y-78350000D02*
X176100000Y-77850000D01*
X177100000Y-78350000D02*
X176100000Y-78350000D01*
X177100000Y-77850000D02*
X177100000Y-78350000D01*
X178450000Y-81400000D02*
X177950000Y-81400000D01*
X177950000Y-81400000D02*
X177950000Y-80400000D01*
X177950000Y-80400000D02*
X178450000Y-80400000D01*
X178450000Y-80400000D02*
X178450000Y-81400000D01*
D13*
X176017619Y-120690476D02*
X175970000Y-120642857D01*
X175922380Y-120547619D01*
X175922380Y-120309523D01*
X175970000Y-120214285D01*
X176017619Y-120166666D01*
X176112857Y-120119047D01*
X176208095Y-120119047D01*
X176350952Y-120166666D01*
X176922380Y-120738095D01*
X176922380Y-120119047D01*
X176922380Y-119690476D02*
X175922380Y-119690476D01*
X176541428Y-119595238D02*
X176922380Y-119309523D01*
X176255714Y-119309523D02*
X176636666Y-119690476D01*
D15*
X175413095Y-120041666D02*
X175294047Y-120125000D01*
X175413095Y-120184523D02*
X175163095Y-120184523D01*
X175163095Y-120089285D01*
X175175000Y-120065476D01*
X175186904Y-120053571D01*
X175210714Y-120041666D01*
X175246428Y-120041666D01*
X175270238Y-120053571D01*
X175282142Y-120065476D01*
X175294047Y-120089285D01*
X175294047Y-120184523D01*
X175413095Y-119803571D02*
X175413095Y-119946428D01*
X175413095Y-119875000D02*
X175163095Y-119875000D01*
X175198809Y-119898809D01*
X175222619Y-119922619D01*
X175234523Y-119946428D01*
D13*
X175282380Y-82938809D02*
X175282380Y-82272142D01*
X176282380Y-82700714D01*
X176187142Y-81891190D02*
X176234761Y-81843571D01*
X176282380Y-81891190D01*
X176234761Y-81938809D01*
X176187142Y-81891190D01*
X176282380Y-81891190D01*
X175282380Y-80938809D02*
X175282380Y-81415000D01*
X175758571Y-81462619D01*
X175710952Y-81415000D01*
X175663333Y-81319761D01*
X175663333Y-81081666D01*
X175710952Y-80986428D01*
X175758571Y-80938809D01*
X175853809Y-80891190D01*
X176091904Y-80891190D01*
X176187142Y-80938809D01*
X176234761Y-80986428D01*
X176282380Y-81081666D01*
X176282380Y-81319761D01*
X176234761Y-81415000D01*
X176187142Y-81462619D01*
X175615714Y-80462619D02*
X176282380Y-80462619D01*
X175710952Y-80462619D02*
X175663333Y-80415000D01*
X175615714Y-80319761D01*
X175615714Y-80176904D01*
X175663333Y-80081666D01*
X175758571Y-80034047D01*
X176282380Y-80034047D01*
X176282380Y-79557857D02*
X175282380Y-79557857D01*
X175758571Y-79557857D02*
X175758571Y-78986428D01*
X176282380Y-78986428D02*
X175282380Y-78986428D01*
D15*
X177113095Y-80956666D02*
X177113095Y-81075714D01*
X176863095Y-81075714D01*
X176886904Y-80885238D02*
X176875000Y-80873333D01*
X176863095Y-80849523D01*
X176863095Y-80790000D01*
X176875000Y-80766190D01*
X176886904Y-80754285D01*
X176910714Y-80742380D01*
X176934523Y-80742380D01*
X176970238Y-80754285D01*
X177113095Y-80897142D01*
X177113095Y-80742380D01*
D13*
X165409523Y-68705142D02*
X165361904Y-68752761D01*
X165219047Y-68800380D01*
X165123809Y-68800380D01*
X164980952Y-68752761D01*
X164885714Y-68657523D01*
X164838095Y-68562285D01*
X164790476Y-68371809D01*
X164790476Y-68228952D01*
X164838095Y-68038476D01*
X164885714Y-67943238D01*
X164980952Y-67848000D01*
X165123809Y-67800380D01*
X165219047Y-67800380D01*
X165361904Y-67848000D01*
X165409523Y-67895619D01*
X165980952Y-68800380D02*
X165885714Y-68752761D01*
X165838095Y-68705142D01*
X165790476Y-68609904D01*
X165790476Y-68324190D01*
X165838095Y-68228952D01*
X165885714Y-68181333D01*
X165980952Y-68133714D01*
X166123809Y-68133714D01*
X166219047Y-68181333D01*
X166266666Y-68228952D01*
X166314285Y-68324190D01*
X166314285Y-68609904D01*
X166266666Y-68705142D01*
X166219047Y-68752761D01*
X166123809Y-68800380D01*
X165980952Y-68800380D01*
X166742857Y-68133714D02*
X166742857Y-68800380D01*
X166742857Y-68228952D02*
X166790476Y-68181333D01*
X166885714Y-68133714D01*
X167028571Y-68133714D01*
X167123809Y-68181333D01*
X167171428Y-68276571D01*
X167171428Y-68800380D01*
X167647619Y-68133714D02*
X167647619Y-68800380D01*
X167647619Y-68228952D02*
X167695238Y-68181333D01*
X167790476Y-68133714D01*
X167933333Y-68133714D01*
X168028571Y-68181333D01*
X168076190Y-68276571D01*
X168076190Y-68800380D01*
X168314285Y-68895619D02*
X169076190Y-68895619D01*
X169885714Y-68705142D02*
X169838095Y-68752761D01*
X169695238Y-68800380D01*
X169600000Y-68800380D01*
X169457142Y-68752761D01*
X169361904Y-68657523D01*
X169314285Y-68562285D01*
X169266666Y-68371809D01*
X169266666Y-68228952D01*
X169314285Y-68038476D01*
X169361904Y-67943238D01*
X169457142Y-67848000D01*
X169600000Y-67800380D01*
X169695238Y-67800380D01*
X169838095Y-67848000D01*
X169885714Y-67895619D01*
X170457142Y-68800380D02*
X170361904Y-68752761D01*
X170314285Y-68705142D01*
X170266666Y-68609904D01*
X170266666Y-68324190D01*
X170314285Y-68228952D01*
X170361904Y-68181333D01*
X170457142Y-68133714D01*
X170600000Y-68133714D01*
X170695238Y-68181333D01*
X170742857Y-68228952D01*
X170790476Y-68324190D01*
X170790476Y-68609904D01*
X170742857Y-68705142D01*
X170695238Y-68752761D01*
X170600000Y-68800380D01*
X170457142Y-68800380D01*
X171647619Y-68800380D02*
X171647619Y-68276571D01*
X171600000Y-68181333D01*
X171504761Y-68133714D01*
X171314285Y-68133714D01*
X171219047Y-68181333D01*
X171647619Y-68752761D02*
X171552380Y-68800380D01*
X171314285Y-68800380D01*
X171219047Y-68752761D01*
X171171428Y-68657523D01*
X171171428Y-68562285D01*
X171219047Y-68467047D01*
X171314285Y-68419428D01*
X171552380Y-68419428D01*
X171647619Y-68371809D01*
X172028571Y-68800380D02*
X172552380Y-68133714D01*
X172028571Y-68133714D02*
X172552380Y-68800380D01*
X172933333Y-68800380D02*
X172933333Y-68133714D01*
X172933333Y-67800380D02*
X172885714Y-67848000D01*
X172933333Y-67895619D01*
X172980952Y-67848000D01*
X172933333Y-67800380D01*
X172933333Y-67895619D01*
X173838095Y-68800380D02*
X173838095Y-68276571D01*
X173790476Y-68181333D01*
X173695238Y-68133714D01*
X173504761Y-68133714D01*
X173409523Y-68181333D01*
X173838095Y-68752761D02*
X173742857Y-68800380D01*
X173504761Y-68800380D01*
X173409523Y-68752761D01*
X173361904Y-68657523D01*
X173361904Y-68562285D01*
X173409523Y-68467047D01*
X173504761Y-68419428D01*
X173742857Y-68419428D01*
X173838095Y-68371809D01*
X174457142Y-68800380D02*
X174361904Y-68752761D01*
X174314285Y-68657523D01*
X174314285Y-67800380D01*
X169266666Y-74602380D02*
X169266666Y-75316666D01*
X169219047Y-75459523D01*
X169123809Y-75554761D01*
X168980952Y-75602380D01*
X168885714Y-75602380D01*
X170266666Y-75602380D02*
X169695238Y-75602380D01*
X169980952Y-75602380D02*
X169980952Y-74602380D01*
X169885714Y-74745238D01*
X169790476Y-74840476D01*
X169695238Y-74888095D01*
X179727142Y-78157142D02*
X179774761Y-78109523D01*
X179822380Y-78157142D01*
X179774761Y-78204761D01*
X179727142Y-78157142D01*
X179822380Y-78157142D01*
X178822380Y-77204761D02*
X178822380Y-77680952D01*
X179298571Y-77728571D01*
X179250952Y-77680952D01*
X179203333Y-77585714D01*
X179203333Y-77347619D01*
X179250952Y-77252380D01*
X179298571Y-77204761D01*
X179393809Y-77157142D01*
X179631904Y-77157142D01*
X179727142Y-77204761D01*
X179774761Y-77252380D01*
X179822380Y-77347619D01*
X179822380Y-77585714D01*
X179774761Y-77680952D01*
X179727142Y-77728571D01*
X179155714Y-76728571D02*
X180155714Y-76728571D01*
X179203333Y-76728571D02*
X179155714Y-76633333D01*
X179155714Y-76442857D01*
X179203333Y-76347619D01*
X179250952Y-76300000D01*
X179346190Y-76252380D01*
X179631904Y-76252380D01*
X179727142Y-76300000D01*
X179774761Y-76347619D01*
X179822380Y-76442857D01*
X179822380Y-76633333D01*
X179774761Y-76728571D01*
X179298571Y-75490476D02*
X179298571Y-75823809D01*
X179822380Y-75823809D02*
X178822380Y-75823809D01*
X178822380Y-75347619D01*
D15*
X178289285Y-76841666D02*
X178301190Y-76853571D01*
X178313095Y-76889285D01*
X178313095Y-76913095D01*
X178301190Y-76948809D01*
X178277380Y-76972619D01*
X178253571Y-76984523D01*
X178205952Y-76996428D01*
X178170238Y-76996428D01*
X178122619Y-76984523D01*
X178098809Y-76972619D01*
X178075000Y-76948809D01*
X178063095Y-76913095D01*
X178063095Y-76889285D01*
X178075000Y-76853571D01*
X178086904Y-76841666D01*
X178063095Y-76758333D02*
X178063095Y-76591666D01*
X178313095Y-76698809D01*
D13*
X178917619Y-80680952D02*
X178870000Y-80633333D01*
X178822380Y-80538095D01*
X178822380Y-80300000D01*
X178870000Y-80204761D01*
X178917619Y-80157142D01*
X179012857Y-80109523D01*
X179108095Y-80109523D01*
X179250952Y-80157142D01*
X179822380Y-80728571D01*
X179822380Y-80109523D01*
X179727142Y-79680952D02*
X179774761Y-79633333D01*
X179822380Y-79680952D01*
X179774761Y-79728571D01*
X179727142Y-79680952D01*
X179822380Y-79680952D01*
X178822380Y-79300000D02*
X178822380Y-78633333D01*
X179822380Y-79061904D01*
X179155714Y-78252380D02*
X180155714Y-78252380D01*
X179203333Y-78252380D02*
X179155714Y-78157142D01*
X179155714Y-77966666D01*
X179203333Y-77871428D01*
X179250952Y-77823809D01*
X179346190Y-77776190D01*
X179631904Y-77776190D01*
X179727142Y-77823809D01*
X179774761Y-77871428D01*
X179822380Y-77966666D01*
X179822380Y-78157142D01*
X179774761Y-78252380D01*
X179298571Y-77014285D02*
X179298571Y-77347619D01*
X179822380Y-77347619D02*
X178822380Y-77347619D01*
X178822380Y-76871428D01*
D15*
X178289285Y-78841666D02*
X178301190Y-78853571D01*
X178313095Y-78889285D01*
X178313095Y-78913095D01*
X178301190Y-78948809D01*
X178277380Y-78972619D01*
X178253571Y-78984523D01*
X178205952Y-78996428D01*
X178170238Y-78996428D01*
X178122619Y-78984523D01*
X178098809Y-78972619D01*
X178075000Y-78948809D01*
X178063095Y-78913095D01*
X178063095Y-78889285D01*
X178075000Y-78853571D01*
X178086904Y-78841666D01*
X178063095Y-78627380D02*
X178063095Y-78675000D01*
X178075000Y-78698809D01*
X178086904Y-78710714D01*
X178122619Y-78734523D01*
X178170238Y-78746428D01*
X178265476Y-78746428D01*
X178289285Y-78734523D01*
X178301190Y-78722619D01*
X178313095Y-78698809D01*
X178313095Y-78651190D01*
X178301190Y-78627380D01*
X178289285Y-78615476D01*
X178265476Y-78603571D01*
X178205952Y-78603571D01*
X178182142Y-78615476D01*
X178170238Y-78627380D01*
X178158333Y-78651190D01*
X178158333Y-78698809D01*
X178170238Y-78722619D01*
X178182142Y-78734523D01*
X178205952Y-78746428D01*
D16*
X167067428Y-91613333D02*
X167448380Y-91613333D01*
X166991238Y-91841904D02*
X167257904Y-91041904D01*
X167524571Y-91841904D01*
X167791238Y-91308571D02*
X167791238Y-91841904D01*
X167791238Y-91384761D02*
X167829333Y-91346666D01*
X167905523Y-91308571D01*
X168019809Y-91308571D01*
X168096000Y-91346666D01*
X168134095Y-91422857D01*
X168134095Y-91841904D01*
X168400761Y-91308571D02*
X168705523Y-91308571D01*
X168515047Y-91041904D02*
X168515047Y-91727619D01*
X168553142Y-91803809D01*
X168629333Y-91841904D01*
X168705523Y-91841904D01*
X169276952Y-91803809D02*
X169200761Y-91841904D01*
X169048380Y-91841904D01*
X168972190Y-91803809D01*
X168934095Y-91727619D01*
X168934095Y-91422857D01*
X168972190Y-91346666D01*
X169048380Y-91308571D01*
X169200761Y-91308571D01*
X169276952Y-91346666D01*
X169315047Y-91422857D01*
X169315047Y-91499047D01*
X168934095Y-91575238D01*
X169657904Y-91308571D02*
X169657904Y-91841904D01*
X169657904Y-91384761D02*
X169696000Y-91346666D01*
X169772190Y-91308571D01*
X169886476Y-91308571D01*
X169962666Y-91346666D01*
X170000761Y-91422857D01*
X170000761Y-91841904D01*
X170381714Y-91308571D02*
X170381714Y-91841904D01*
X170381714Y-91384761D02*
X170419809Y-91346666D01*
X170496000Y-91308571D01*
X170610285Y-91308571D01*
X170686476Y-91346666D01*
X170724571Y-91422857D01*
X170724571Y-91841904D01*
X171448380Y-91841904D02*
X171448380Y-91422857D01*
X171410285Y-91346666D01*
X171334095Y-91308571D01*
X171181714Y-91308571D01*
X171105523Y-91346666D01*
X171448380Y-91803809D02*
X171372190Y-91841904D01*
X171181714Y-91841904D01*
X171105523Y-91803809D01*
X171067428Y-91727619D01*
X171067428Y-91651428D01*
X171105523Y-91575238D01*
X171181714Y-91537142D01*
X171372190Y-91537142D01*
X171448380Y-91499047D01*
X171638857Y-91918095D02*
X172248380Y-91918095D01*
X172896000Y-91765714D02*
X172857904Y-91803809D01*
X172743619Y-91841904D01*
X172667428Y-91841904D01*
X172553142Y-91803809D01*
X172476952Y-91727619D01*
X172438857Y-91651428D01*
X172400761Y-91499047D01*
X172400761Y-91384761D01*
X172438857Y-91232380D01*
X172476952Y-91156190D01*
X172553142Y-91080000D01*
X172667428Y-91041904D01*
X172743619Y-91041904D01*
X172857904Y-91080000D01*
X172896000Y-91118095D01*
X173238857Y-91841904D02*
X173238857Y-91041904D01*
X173581714Y-91841904D02*
X173581714Y-91422857D01*
X173543619Y-91346666D01*
X173467428Y-91308571D01*
X173353142Y-91308571D01*
X173276952Y-91346666D01*
X173238857Y-91384761D01*
X173962666Y-91841904D02*
X173962666Y-91308571D01*
X173962666Y-91041904D02*
X173924571Y-91080000D01*
X173962666Y-91118095D01*
X174000761Y-91080000D01*
X173962666Y-91041904D01*
X173962666Y-91118095D01*
X174343619Y-91308571D02*
X174343619Y-92108571D01*
X174343619Y-91346666D02*
X174419809Y-91308571D01*
X174572190Y-91308571D01*
X174648380Y-91346666D01*
X174686476Y-91384761D01*
X174724571Y-91460952D01*
X174724571Y-91689523D01*
X174686476Y-91765714D01*
X174648380Y-91803809D01*
X174572190Y-91841904D01*
X174419809Y-91841904D01*
X174343619Y-91803809D01*
D13*
X146229334Y-123822990D02*
X146700738Y-124294394D01*
X145791601Y-123721974D02*
X146128318Y-124395409D01*
X146566051Y-123957677D01*
X146296677Y-123284242D02*
X146768082Y-122812837D01*
X147172143Y-123822990D01*
X147273158Y-122779165D02*
X147980265Y-123486272D01*
X147306830Y-122812837D02*
X147340501Y-122711822D01*
X147475188Y-122577135D01*
X147576204Y-122543463D01*
X147643547Y-122543463D01*
X147744562Y-122577135D01*
X147946593Y-122779165D01*
X147980265Y-122880181D01*
X147980265Y-122947524D01*
X147946593Y-123048539D01*
X147811906Y-123183226D01*
X147710891Y-123216898D01*
X148249639Y-122004715D02*
X148013936Y-122240417D01*
X148384326Y-122610807D02*
X147677219Y-121903700D01*
X148013936Y-121566982D01*
X148754715Y-120758860D02*
X149057761Y-122274089D01*
X149360807Y-120220112D02*
X149024089Y-120556830D01*
X149327135Y-120927219D01*
X149327135Y-120859875D01*
X149360807Y-120758860D01*
X149529165Y-120590501D01*
X149630181Y-120556830D01*
X149697524Y-120556830D01*
X149798539Y-120590501D01*
X149966898Y-120758860D01*
X150000570Y-120859875D01*
X150000570Y-120927219D01*
X149966898Y-121028234D01*
X149798539Y-121196593D01*
X149697524Y-121230265D01*
X149630181Y-121230265D01*
X149832211Y-119748708D02*
X149899555Y-119681364D01*
X150000570Y-119647692D01*
X150067913Y-119647692D01*
X150168929Y-119681364D01*
X150337287Y-119782379D01*
X150505646Y-119950738D01*
X150606661Y-120119097D01*
X150640333Y-120220112D01*
X150640333Y-120287456D01*
X150606661Y-120388471D01*
X150539318Y-120455814D01*
X150438303Y-120489486D01*
X150370959Y-120489486D01*
X150269944Y-120455814D01*
X150101585Y-120354799D01*
X149933226Y-120186440D01*
X149832211Y-120018082D01*
X149798539Y-119917066D01*
X149798539Y-119849723D01*
X149832211Y-119748708D01*
X150269944Y-119310975D02*
X151212753Y-119782379D01*
X150741348Y-118839570D01*
D15*
X149413671Y-122722597D02*
X149413671Y-122739433D01*
X149396835Y-122773104D01*
X149380000Y-122789940D01*
X149346328Y-122806776D01*
X149312656Y-122806776D01*
X149287402Y-122798358D01*
X149245312Y-122773104D01*
X149220059Y-122747851D01*
X149194805Y-122705761D01*
X149186387Y-122680507D01*
X149186387Y-122646835D01*
X149203223Y-122613164D01*
X149220059Y-122596328D01*
X149253730Y-122579492D01*
X149270566Y-122579492D01*
X149464179Y-122470059D02*
X149582030Y-122587910D01*
X149354746Y-122444805D02*
X149438925Y-122613164D01*
X149548358Y-122503730D01*
D13*
X144831364Y-122933768D02*
X144427303Y-123337829D01*
X144629334Y-123135799D02*
X143922227Y-122428692D01*
X143955899Y-122597051D01*
X143955899Y-122731738D01*
X143922227Y-122832753D01*
X144561990Y-121788929D02*
X144629334Y-121721585D01*
X144730349Y-121687913D01*
X144797692Y-121687913D01*
X144898708Y-121721585D01*
X145067066Y-121822600D01*
X145235425Y-121990959D01*
X145336440Y-122159318D01*
X145370112Y-122260333D01*
X145370112Y-122327677D01*
X145336440Y-122428692D01*
X145269097Y-122496035D01*
X145168082Y-122529707D01*
X145100738Y-122529707D01*
X144999723Y-122496035D01*
X144831364Y-122395020D01*
X144663005Y-122226661D01*
X144561990Y-122058303D01*
X144528318Y-121957287D01*
X144528318Y-121889944D01*
X144561990Y-121788929D01*
X145235425Y-121115494D02*
X145302769Y-121048150D01*
X145403784Y-121014478D01*
X145471127Y-121014478D01*
X145572143Y-121048150D01*
X145740501Y-121149165D01*
X145908860Y-121317524D01*
X146009875Y-121485883D01*
X146043547Y-121586898D01*
X146043547Y-121654242D01*
X146009875Y-121755257D01*
X145942532Y-121822600D01*
X145841517Y-121856272D01*
X145774173Y-121856272D01*
X145673158Y-121822600D01*
X145504799Y-121721585D01*
X145336440Y-121553226D01*
X145235425Y-121384868D01*
X145201753Y-121283852D01*
X145201753Y-121216509D01*
X145235425Y-121115494D01*
X146009875Y-120812448D02*
X146481280Y-121283852D01*
X146077219Y-120879791D02*
X146077219Y-120812448D01*
X146110891Y-120711433D01*
X146211906Y-120610417D01*
X146312921Y-120576746D01*
X146413936Y-120610417D01*
X146784326Y-120980807D01*
X146986356Y-120037997D02*
X146750654Y-120273700D01*
X147121043Y-120644089D02*
X146413936Y-119936982D01*
X146750654Y-119600265D01*
X147491433Y-118792143D02*
X147794478Y-120307372D01*
X148838303Y-118926830D02*
X148434242Y-119330891D01*
X148636272Y-119128860D02*
X147929165Y-118421753D01*
X147962837Y-118590112D01*
X147962837Y-118724799D01*
X147929165Y-118825814D01*
X148737287Y-117613631D02*
X148602600Y-117748318D01*
X148568929Y-117849334D01*
X148568929Y-117916677D01*
X148602600Y-118085036D01*
X148703616Y-118253395D01*
X148972990Y-118522769D01*
X149074005Y-118556440D01*
X149141348Y-118556440D01*
X149242364Y-118522769D01*
X149377051Y-118388082D01*
X149410722Y-118287066D01*
X149410722Y-118219723D01*
X149377051Y-118118708D01*
X149208692Y-117950349D01*
X149107677Y-117916677D01*
X149040333Y-117916677D01*
X148939318Y-117950349D01*
X148804631Y-118085036D01*
X148770959Y-118186051D01*
X148770959Y-118253395D01*
X148804631Y-118354410D01*
X149006661Y-117344257D02*
X149949470Y-117815662D01*
X149478066Y-116872853D01*
D15*
X147813671Y-121092597D02*
X147813671Y-121109433D01*
X147796835Y-121143104D01*
X147780000Y-121159940D01*
X147746328Y-121176776D01*
X147712656Y-121176776D01*
X147687402Y-121168358D01*
X147645312Y-121143104D01*
X147620059Y-121117851D01*
X147594805Y-121075761D01*
X147586387Y-121050507D01*
X147586387Y-121016835D01*
X147603223Y-120983164D01*
X147620059Y-120966328D01*
X147653730Y-120949492D01*
X147670566Y-120949492D01*
X147813671Y-120772715D02*
X147729492Y-120856895D01*
X147805253Y-120949492D01*
X147805253Y-120932656D01*
X147813671Y-120907402D01*
X147855761Y-120865312D01*
X147881015Y-120856895D01*
X147897851Y-120856895D01*
X147923104Y-120865312D01*
X147965194Y-120907402D01*
X147973612Y-120932656D01*
X147973612Y-120949492D01*
X147965194Y-120974746D01*
X147923104Y-121016835D01*
X147897851Y-121025253D01*
X147881015Y-121025253D01*
D13*
X177927142Y-107557142D02*
X177974761Y-107509523D01*
X178022380Y-107557142D01*
X177974761Y-107604761D01*
X177927142Y-107557142D01*
X178022380Y-107557142D01*
X178022380Y-106557142D02*
X178022380Y-107128571D01*
X178022380Y-106842857D02*
X177022380Y-106842857D01*
X177165238Y-106938095D01*
X177260476Y-107033333D01*
X177308095Y-107128571D01*
X177355714Y-105700000D02*
X178022380Y-105700000D01*
X177355714Y-106128571D02*
X177879523Y-106128571D01*
X177974761Y-106080952D01*
X178022380Y-105985714D01*
X178022380Y-105842857D01*
X177974761Y-105747619D01*
X177927142Y-105700000D01*
X177498571Y-104890476D02*
X177498571Y-105223809D01*
X178022380Y-105223809D02*
X177022380Y-105223809D01*
X177022380Y-104747619D01*
D15*
X176489285Y-106360714D02*
X176501190Y-106372619D01*
X176513095Y-106408333D01*
X176513095Y-106432142D01*
X176501190Y-106467857D01*
X176477380Y-106491666D01*
X176453571Y-106503571D01*
X176405952Y-106515476D01*
X176370238Y-106515476D01*
X176322619Y-106503571D01*
X176298809Y-106491666D01*
X176275000Y-106467857D01*
X176263095Y-106432142D01*
X176263095Y-106408333D01*
X176275000Y-106372619D01*
X176286904Y-106360714D01*
X176346428Y-106146428D02*
X176513095Y-106146428D01*
X176251190Y-106205952D02*
X176429761Y-106265476D01*
X176429761Y-106110714D01*
X176346428Y-105908333D02*
X176513095Y-105908333D01*
X176251190Y-105967857D02*
X176429761Y-106027380D01*
X176429761Y-105872619D01*
D13*
X176727142Y-107557142D02*
X176774761Y-107509523D01*
X176822380Y-107557142D01*
X176774761Y-107604761D01*
X176727142Y-107557142D01*
X176822380Y-107557142D01*
X176822380Y-106557142D02*
X176822380Y-107128571D01*
X176822380Y-106842857D02*
X175822380Y-106842857D01*
X175965238Y-106938095D01*
X176060476Y-107033333D01*
X176108095Y-107128571D01*
X176155714Y-105700000D02*
X176822380Y-105700000D01*
X176155714Y-106128571D02*
X176679523Y-106128571D01*
X176774761Y-106080952D01*
X176822380Y-105985714D01*
X176822380Y-105842857D01*
X176774761Y-105747619D01*
X176727142Y-105700000D01*
X176298571Y-104890476D02*
X176298571Y-105223809D01*
X176822380Y-105223809D02*
X175822380Y-105223809D01*
X175822380Y-104747619D01*
D15*
X175289285Y-106360714D02*
X175301190Y-106372619D01*
X175313095Y-106408333D01*
X175313095Y-106432142D01*
X175301190Y-106467857D01*
X175277380Y-106491666D01*
X175253571Y-106503571D01*
X175205952Y-106515476D01*
X175170238Y-106515476D01*
X175122619Y-106503571D01*
X175098809Y-106491666D01*
X175075000Y-106467857D01*
X175063095Y-106432142D01*
X175063095Y-106408333D01*
X175075000Y-106372619D01*
X175086904Y-106360714D01*
X175146428Y-106146428D02*
X175313095Y-106146428D01*
X175051190Y-106205952D02*
X175229761Y-106265476D01*
X175229761Y-106110714D01*
X175063095Y-105896428D02*
X175063095Y-106015476D01*
X175182142Y-106027380D01*
X175170238Y-106015476D01*
X175158333Y-105991666D01*
X175158333Y-105932142D01*
X175170238Y-105908333D01*
X175182142Y-105896428D01*
X175205952Y-105884523D01*
X175265476Y-105884523D01*
X175289285Y-105896428D01*
X175301190Y-105908333D01*
X175313095Y-105932142D01*
X175313095Y-105991666D01*
X175301190Y-106015476D01*
X175289285Y-106027380D01*
D13*
X146718860Y-122666272D02*
X146011753Y-121959165D01*
X146180112Y-121790807D01*
X146314799Y-121723463D01*
X146449486Y-121723463D01*
X146550501Y-121757135D01*
X146718860Y-121858150D01*
X146819875Y-121959165D01*
X146920891Y-122127524D01*
X146954562Y-122228539D01*
X146954562Y-122363226D01*
X146887219Y-122497913D01*
X146718860Y-122666272D01*
X147324952Y-122194868D02*
X147863700Y-121656120D01*
X147156593Y-120814326D02*
X147560654Y-120410265D01*
X148065730Y-121319402D02*
X147358623Y-120612295D01*
X147695341Y-120275578D02*
X148638150Y-120746982D01*
X148166746Y-119804173D01*
X149042211Y-120275578D02*
X149176898Y-120208234D01*
X149345257Y-120039875D01*
X149378929Y-119938860D01*
X149378929Y-119871517D01*
X149345257Y-119770501D01*
X149277913Y-119703158D01*
X149176898Y-119669486D01*
X149109555Y-119669486D01*
X149008539Y-119703158D01*
X148840181Y-119804173D01*
X148739165Y-119837845D01*
X148671822Y-119837845D01*
X148570807Y-119804173D01*
X148503463Y-119736830D01*
X148469791Y-119635814D01*
X148469791Y-119568471D01*
X148503463Y-119467456D01*
X148671822Y-119299097D01*
X148806509Y-119231753D01*
D15*
X148539492Y-122020448D02*
X148362715Y-121843671D01*
X148404805Y-121801582D01*
X148438477Y-121784746D01*
X148472148Y-121784746D01*
X148497402Y-121793164D01*
X148539492Y-121818417D01*
X148564746Y-121843671D01*
X148590000Y-121885761D01*
X148598417Y-121911015D01*
X148598417Y-121944687D01*
X148581582Y-121978358D01*
X148539492Y-122020448D01*
X148674179Y-121650059D02*
X148792030Y-121767910D01*
X148564746Y-121624805D02*
X148648925Y-121793164D01*
X148758358Y-121683730D01*
D13*
X124119047Y-88428571D02*
X123785714Y-88428571D01*
X123785714Y-88952380D02*
X123785714Y-87952380D01*
X124261904Y-87952380D01*
X124642857Y-88952380D02*
X124642857Y-88285714D01*
X124642857Y-87952380D02*
X124595238Y-88000000D01*
X124642857Y-88047619D01*
X124690476Y-88000000D01*
X124642857Y-87952380D01*
X124642857Y-88047619D01*
X125547619Y-88952380D02*
X125547619Y-87952380D01*
X125547619Y-88904761D02*
X125452380Y-88952380D01*
X125261904Y-88952380D01*
X125166666Y-88904761D01*
X125119047Y-88857142D01*
X125071428Y-88761904D01*
X125071428Y-88476190D01*
X125119047Y-88380952D01*
X125166666Y-88333333D01*
X125261904Y-88285714D01*
X125452380Y-88285714D01*
X125547619Y-88333333D01*
X126452380Y-88285714D02*
X126452380Y-88952380D01*
X126023809Y-88285714D02*
X126023809Y-88809523D01*
X126071428Y-88904761D01*
X126166666Y-88952380D01*
X126309523Y-88952380D01*
X126404761Y-88904761D01*
X126452380Y-88857142D01*
X127357142Y-88904761D02*
X127261904Y-88952380D01*
X127071428Y-88952380D01*
X126976190Y-88904761D01*
X126928571Y-88857142D01*
X126880952Y-88761904D01*
X126880952Y-88476190D01*
X126928571Y-88380952D01*
X126976190Y-88333333D01*
X127071428Y-88285714D01*
X127261904Y-88285714D01*
X127357142Y-88333333D01*
X127785714Y-88952380D02*
X127785714Y-88285714D01*
X127785714Y-87952380D02*
X127738095Y-88000000D01*
X127785714Y-88047619D01*
X127833333Y-88000000D01*
X127785714Y-87952380D01*
X127785714Y-88047619D01*
X128690476Y-88952380D02*
X128690476Y-88428571D01*
X128642857Y-88333333D01*
X128547619Y-88285714D01*
X128357142Y-88285714D01*
X128261904Y-88333333D01*
X128690476Y-88904761D02*
X128595238Y-88952380D01*
X128357142Y-88952380D01*
X128261904Y-88904761D01*
X128214285Y-88809523D01*
X128214285Y-88714285D01*
X128261904Y-88619047D01*
X128357142Y-88571428D01*
X128595238Y-88571428D01*
X128690476Y-88523809D01*
X129309523Y-88952380D02*
X129214285Y-88904761D01*
X129166666Y-88809523D01*
X129166666Y-87952380D01*
D17*
X126178571Y-86478571D02*
X126078571Y-86478571D01*
X126078571Y-86635714D02*
X126078571Y-86335714D01*
X126221428Y-86335714D01*
X126335714Y-86635714D02*
X126335714Y-86335714D01*
X126478571Y-86635714D02*
X126478571Y-86335714D01*
X126550000Y-86335714D01*
X126592857Y-86350000D01*
X126621428Y-86378571D01*
X126635714Y-86407142D01*
X126650000Y-86464285D01*
X126650000Y-86507142D01*
X126635714Y-86564285D01*
X126621428Y-86592857D01*
X126592857Y-86621428D01*
X126550000Y-86635714D01*
X126478571Y-86635714D01*
X126935714Y-86635714D02*
X126764285Y-86635714D01*
X126850000Y-86635714D02*
X126850000Y-86335714D01*
X126821428Y-86378571D01*
X126792857Y-86407142D01*
X126764285Y-86421428D01*
D13*
X172619047Y-76428571D02*
X172285714Y-76428571D01*
X172285714Y-76952380D02*
X172285714Y-75952380D01*
X172761904Y-75952380D01*
X173142857Y-76952380D02*
X173142857Y-76285714D01*
X173142857Y-75952380D02*
X173095238Y-76000000D01*
X173142857Y-76047619D01*
X173190476Y-76000000D01*
X173142857Y-75952380D01*
X173142857Y-76047619D01*
X174047619Y-76952380D02*
X174047619Y-75952380D01*
X174047619Y-76904761D02*
X173952380Y-76952380D01*
X173761904Y-76952380D01*
X173666666Y-76904761D01*
X173619047Y-76857142D01*
X173571428Y-76761904D01*
X173571428Y-76476190D01*
X173619047Y-76380952D01*
X173666666Y-76333333D01*
X173761904Y-76285714D01*
X173952380Y-76285714D01*
X174047619Y-76333333D01*
X174952380Y-76285714D02*
X174952380Y-76952380D01*
X174523809Y-76285714D02*
X174523809Y-76809523D01*
X174571428Y-76904761D01*
X174666666Y-76952380D01*
X174809523Y-76952380D01*
X174904761Y-76904761D01*
X174952380Y-76857142D01*
X175857142Y-76904761D02*
X175761904Y-76952380D01*
X175571428Y-76952380D01*
X175476190Y-76904761D01*
X175428571Y-76857142D01*
X175380952Y-76761904D01*
X175380952Y-76476190D01*
X175428571Y-76380952D01*
X175476190Y-76333333D01*
X175571428Y-76285714D01*
X175761904Y-76285714D01*
X175857142Y-76333333D01*
X176285714Y-76952380D02*
X176285714Y-76285714D01*
X176285714Y-75952380D02*
X176238095Y-76000000D01*
X176285714Y-76047619D01*
X176333333Y-76000000D01*
X176285714Y-75952380D01*
X176285714Y-76047619D01*
X177190476Y-76952380D02*
X177190476Y-76428571D01*
X177142857Y-76333333D01*
X177047619Y-76285714D01*
X176857142Y-76285714D01*
X176761904Y-76333333D01*
X177190476Y-76904761D02*
X177095238Y-76952380D01*
X176857142Y-76952380D01*
X176761904Y-76904761D01*
X176714285Y-76809523D01*
X176714285Y-76714285D01*
X176761904Y-76619047D01*
X176857142Y-76571428D01*
X177095238Y-76571428D01*
X177190476Y-76523809D01*
X177809523Y-76952380D02*
X177714285Y-76904761D01*
X177666666Y-76809523D01*
X177666666Y-75952380D01*
D17*
X174678571Y-74478571D02*
X174578571Y-74478571D01*
X174578571Y-74635714D02*
X174578571Y-74335714D01*
X174721428Y-74335714D01*
X174835714Y-74635714D02*
X174835714Y-74335714D01*
X174978571Y-74635714D02*
X174978571Y-74335714D01*
X175050000Y-74335714D01*
X175092857Y-74350000D01*
X175121428Y-74378571D01*
X175135714Y-74407142D01*
X175150000Y-74464285D01*
X175150000Y-74507142D01*
X175135714Y-74564285D01*
X175121428Y-74592857D01*
X175092857Y-74621428D01*
X175050000Y-74635714D01*
X174978571Y-74635714D01*
X175264285Y-74364285D02*
X175278571Y-74350000D01*
X175307142Y-74335714D01*
X175378571Y-74335714D01*
X175407142Y-74350000D01*
X175421428Y-74364285D01*
X175435714Y-74392857D01*
X175435714Y-74421428D01*
X175421428Y-74464285D01*
X175250000Y-74635714D01*
X175435714Y-74635714D01*
D13*
X172619047Y-137928571D02*
X172285714Y-137928571D01*
X172285714Y-138452380D02*
X172285714Y-137452380D01*
X172761904Y-137452380D01*
X173142857Y-138452380D02*
X173142857Y-137785714D01*
X173142857Y-137452380D02*
X173095238Y-137500000D01*
X173142857Y-137547619D01*
X173190476Y-137500000D01*
X173142857Y-137452380D01*
X173142857Y-137547619D01*
X174047619Y-138452380D02*
X174047619Y-137452380D01*
X174047619Y-138404761D02*
X173952380Y-138452380D01*
X173761904Y-138452380D01*
X173666666Y-138404761D01*
X173619047Y-138357142D01*
X173571428Y-138261904D01*
X173571428Y-137976190D01*
X173619047Y-137880952D01*
X173666666Y-137833333D01*
X173761904Y-137785714D01*
X173952380Y-137785714D01*
X174047619Y-137833333D01*
X174952380Y-137785714D02*
X174952380Y-138452380D01*
X174523809Y-137785714D02*
X174523809Y-138309523D01*
X174571428Y-138404761D01*
X174666666Y-138452380D01*
X174809523Y-138452380D01*
X174904761Y-138404761D01*
X174952380Y-138357142D01*
X175857142Y-138404761D02*
X175761904Y-138452380D01*
X175571428Y-138452380D01*
X175476190Y-138404761D01*
X175428571Y-138357142D01*
X175380952Y-138261904D01*
X175380952Y-137976190D01*
X175428571Y-137880952D01*
X175476190Y-137833333D01*
X175571428Y-137785714D01*
X175761904Y-137785714D01*
X175857142Y-137833333D01*
X176285714Y-138452380D02*
X176285714Y-137785714D01*
X176285714Y-137452380D02*
X176238095Y-137500000D01*
X176285714Y-137547619D01*
X176333333Y-137500000D01*
X176285714Y-137452380D01*
X176285714Y-137547619D01*
X177190476Y-138452380D02*
X177190476Y-137928571D01*
X177142857Y-137833333D01*
X177047619Y-137785714D01*
X176857142Y-137785714D01*
X176761904Y-137833333D01*
X177190476Y-138404761D02*
X177095238Y-138452380D01*
X176857142Y-138452380D01*
X176761904Y-138404761D01*
X176714285Y-138309523D01*
X176714285Y-138214285D01*
X176761904Y-138119047D01*
X176857142Y-138071428D01*
X177095238Y-138071428D01*
X177190476Y-138023809D01*
X177809523Y-138452380D02*
X177714285Y-138404761D01*
X177666666Y-138309523D01*
X177666666Y-137452380D01*
D17*
X174678571Y-135978571D02*
X174578571Y-135978571D01*
X174578571Y-136135714D02*
X174578571Y-135835714D01*
X174721428Y-135835714D01*
X174835714Y-136135714D02*
X174835714Y-135835714D01*
X174978571Y-136135714D02*
X174978571Y-135835714D01*
X175050000Y-135835714D01*
X175092857Y-135850000D01*
X175121428Y-135878571D01*
X175135714Y-135907142D01*
X175150000Y-135964285D01*
X175150000Y-136007142D01*
X175135714Y-136064285D01*
X175121428Y-136092857D01*
X175092857Y-136121428D01*
X175050000Y-136135714D01*
X174978571Y-136135714D01*
X175250000Y-135835714D02*
X175435714Y-135835714D01*
X175335714Y-135950000D01*
X175378571Y-135950000D01*
X175407142Y-135964285D01*
X175421428Y-135978571D01*
X175435714Y-136007142D01*
X175435714Y-136078571D01*
X175421428Y-136107142D01*
X175407142Y-136121428D01*
X175378571Y-136135714D01*
X175292857Y-136135714D01*
X175264285Y-136121428D01*
X175250000Y-136107142D01*
D16*
X117787414Y-108602474D02*
X116186949Y-108602474D01*
X117330139Y-108068986D01*
X116186949Y-107535497D01*
X117787414Y-107535497D01*
X117787414Y-106773371D02*
X116720438Y-106773371D01*
X116186949Y-106773371D02*
X116263162Y-106849584D01*
X116339375Y-106773371D01*
X116263162Y-106697159D01*
X116186949Y-106773371D01*
X116339375Y-106773371D01*
X117711202Y-105325331D02*
X117787414Y-105477757D01*
X117787414Y-105782607D01*
X117711202Y-105935032D01*
X117634989Y-106011245D01*
X117482564Y-106087458D01*
X117025288Y-106087458D01*
X116872863Y-106011245D01*
X116796650Y-105935032D01*
X116720438Y-105782607D01*
X116720438Y-105477757D01*
X116796650Y-105325331D01*
X117787414Y-104639418D02*
X116720438Y-104639418D01*
X117025288Y-104639418D02*
X116872863Y-104563205D01*
X116796650Y-104486993D01*
X116720438Y-104334567D01*
X116720438Y-104182142D01*
X117787414Y-103420016D02*
X117711202Y-103572441D01*
X117634989Y-103648654D01*
X117482564Y-103724866D01*
X117025288Y-103724866D01*
X116872863Y-103648654D01*
X116796650Y-103572441D01*
X116720438Y-103420016D01*
X116720438Y-103191378D01*
X116796650Y-103038953D01*
X116872863Y-102962740D01*
X117025288Y-102886528D01*
X117482564Y-102886528D01*
X117634989Y-102962740D01*
X117711202Y-103038953D01*
X117787414Y-103191378D01*
X117787414Y-103420016D01*
X117939840Y-102581677D02*
X117939840Y-101362275D01*
X117711202Y-101057425D02*
X117787414Y-100828787D01*
X117787414Y-100447724D01*
X117711202Y-100295299D01*
X117634989Y-100219086D01*
X117482564Y-100142873D01*
X117330139Y-100142873D01*
X117177713Y-100219086D01*
X117101501Y-100295299D01*
X117025288Y-100447724D01*
X116949076Y-100752574D01*
X116872863Y-100905000D01*
X116796650Y-100981212D01*
X116644225Y-101057425D01*
X116491800Y-101057425D01*
X116339375Y-100981212D01*
X116263162Y-100905000D01*
X116186949Y-100752574D01*
X116186949Y-100371511D01*
X116263162Y-100142873D01*
X117787414Y-99456960D02*
X116186949Y-99456960D01*
X116186949Y-99075897D01*
X116263162Y-98847259D01*
X116415587Y-98694834D01*
X116568012Y-98618621D01*
X116872863Y-98542408D01*
X117101501Y-98542408D01*
X117406351Y-98618621D01*
X117558777Y-98694834D01*
X117711202Y-98847259D01*
X117787414Y-99075897D01*
X117787414Y-99456960D01*
X117939840Y-98237558D02*
X117939840Y-97018156D01*
X117634989Y-95722541D02*
X117711202Y-95798754D01*
X117787414Y-96027392D01*
X117787414Y-96179817D01*
X117711202Y-96408455D01*
X117558777Y-96560880D01*
X117406351Y-96637093D01*
X117101501Y-96713305D01*
X116872863Y-96713305D01*
X116568012Y-96637093D01*
X116415587Y-96560880D01*
X116263162Y-96408455D01*
X116186949Y-96179817D01*
X116186949Y-96027392D01*
X116263162Y-95798754D01*
X116339375Y-95722541D01*
X117787414Y-94350714D02*
X116949076Y-94350714D01*
X116796650Y-94426927D01*
X116720438Y-94579352D01*
X116720438Y-94884203D01*
X116796650Y-95036628D01*
X117711202Y-94350714D02*
X117787414Y-94503140D01*
X117787414Y-94884203D01*
X117711202Y-95036628D01*
X117558777Y-95112840D01*
X117406351Y-95112840D01*
X117253926Y-95036628D01*
X117177713Y-94884203D01*
X117177713Y-94503140D01*
X117101501Y-94350714D01*
X117787414Y-93588588D02*
X116720438Y-93588588D01*
X117025288Y-93588588D02*
X116872863Y-93512375D01*
X116796650Y-93436163D01*
X116720438Y-93283738D01*
X116720438Y-93131312D01*
X117787414Y-91911910D02*
X116186949Y-91911910D01*
X117711202Y-91911910D02*
X117787414Y-92064336D01*
X117787414Y-92369186D01*
X117711202Y-92521611D01*
X117634989Y-92597824D01*
X117482564Y-92674037D01*
X117025288Y-92674037D01*
X116872863Y-92597824D01*
X116796650Y-92521611D01*
X116720438Y-92369186D01*
X116720438Y-92064336D01*
X116796650Y-91911910D01*
X117939840Y-91530847D02*
X117939840Y-90311445D01*
X117787414Y-89930382D02*
X116186949Y-89930382D01*
X116186949Y-89549319D01*
X116263162Y-89320681D01*
X116415587Y-89168256D01*
X116568012Y-89092044D01*
X116872863Y-89015831D01*
X117101501Y-89015831D01*
X117406351Y-89092044D01*
X117558777Y-89168256D01*
X117711202Y-89320681D01*
X117787414Y-89549319D01*
X117787414Y-89930382D01*
X117711202Y-87720216D02*
X117787414Y-87872642D01*
X117787414Y-88177492D01*
X117711202Y-88329917D01*
X117558777Y-88406130D01*
X116949076Y-88406130D01*
X116796650Y-88329917D01*
X116720438Y-88177492D01*
X116720438Y-87872642D01*
X116796650Y-87720216D01*
X116949076Y-87644004D01*
X117101501Y-87644004D01*
X117253926Y-88406130D01*
X116720438Y-87186728D02*
X116720438Y-86577027D01*
X116186949Y-86958090D02*
X117558777Y-86958090D01*
X117711202Y-86881878D01*
X117787414Y-86729452D01*
X117787414Y-86577027D01*
D13*
X136214285Y-117152380D02*
X136214285Y-116152380D01*
X136547619Y-116866666D01*
X136880952Y-116152380D01*
X136880952Y-117152380D01*
X137500000Y-117152380D02*
X137404761Y-117104761D01*
X137357142Y-117057142D01*
X137309523Y-116961904D01*
X137309523Y-116676190D01*
X137357142Y-116580952D01*
X137404761Y-116533333D01*
X137500000Y-116485714D01*
X137642857Y-116485714D01*
X137738095Y-116533333D01*
X137785714Y-116580952D01*
X137833333Y-116676190D01*
X137833333Y-116961904D01*
X137785714Y-117057142D01*
X137738095Y-117104761D01*
X137642857Y-117152380D01*
X137500000Y-117152380D01*
X138690476Y-116485714D02*
X138690476Y-117152380D01*
X138261904Y-116485714D02*
X138261904Y-117009523D01*
X138309523Y-117104761D01*
X138404761Y-117152380D01*
X138547619Y-117152380D01*
X138642857Y-117104761D01*
X138690476Y-117057142D01*
X139166666Y-116485714D02*
X139166666Y-117152380D01*
X139166666Y-116580952D02*
X139214285Y-116533333D01*
X139309523Y-116485714D01*
X139452380Y-116485714D01*
X139547619Y-116533333D01*
X139595238Y-116628571D01*
X139595238Y-117152380D01*
X139928571Y-116485714D02*
X140309523Y-116485714D01*
X140071428Y-116152380D02*
X140071428Y-117009523D01*
X140119047Y-117104761D01*
X140214285Y-117152380D01*
X140309523Y-117152380D01*
X140642857Y-117152380D02*
X140642857Y-116485714D01*
X140642857Y-116152380D02*
X140595238Y-116200000D01*
X140642857Y-116247619D01*
X140690476Y-116200000D01*
X140642857Y-116152380D01*
X140642857Y-116247619D01*
X141119047Y-116485714D02*
X141119047Y-117152380D01*
X141119047Y-116580952D02*
X141166666Y-116533333D01*
X141261904Y-116485714D01*
X141404761Y-116485714D01*
X141500000Y-116533333D01*
X141547619Y-116628571D01*
X141547619Y-117152380D01*
X142452380Y-116485714D02*
X142452380Y-117295238D01*
X142404761Y-117390476D01*
X142357142Y-117438095D01*
X142261904Y-117485714D01*
X142119047Y-117485714D01*
X142023809Y-117438095D01*
X142452380Y-117104761D02*
X142357142Y-117152380D01*
X142166666Y-117152380D01*
X142071428Y-117104761D01*
X142023809Y-117057142D01*
X141976190Y-116961904D01*
X141976190Y-116676190D01*
X142023809Y-116580952D01*
X142071428Y-116533333D01*
X142166666Y-116485714D01*
X142357142Y-116485714D01*
X142452380Y-116533333D01*
X142928571Y-117152380D02*
X142928571Y-116152380D01*
X142928571Y-116628571D02*
X143500000Y-116628571D01*
X143500000Y-117152380D02*
X143500000Y-116152380D01*
X144119047Y-117152380D02*
X144023809Y-117104761D01*
X143976190Y-117057142D01*
X143928571Y-116961904D01*
X143928571Y-116676190D01*
X143976190Y-116580952D01*
X144023809Y-116533333D01*
X144119047Y-116485714D01*
X144261904Y-116485714D01*
X144357142Y-116533333D01*
X144404761Y-116580952D01*
X144452380Y-116676190D01*
X144452380Y-116961904D01*
X144404761Y-117057142D01*
X144357142Y-117104761D01*
X144261904Y-117152380D01*
X144119047Y-117152380D01*
X145023809Y-117152380D02*
X144928571Y-117104761D01*
X144880952Y-117009523D01*
X144880952Y-116152380D01*
X145785714Y-117104761D02*
X145690476Y-117152380D01*
X145500000Y-117152380D01*
X145404761Y-117104761D01*
X145357142Y-117009523D01*
X145357142Y-116628571D01*
X145404761Y-116533333D01*
X145500000Y-116485714D01*
X145690476Y-116485714D01*
X145785714Y-116533333D01*
X145833333Y-116628571D01*
X145833333Y-116723809D01*
X145357142Y-116819047D01*
X139966666Y-113952380D02*
X139966666Y-112952380D01*
X140300000Y-113666666D01*
X140633333Y-112952380D01*
X140633333Y-113952380D01*
X141109523Y-113952380D02*
X141109523Y-112952380D01*
X141109523Y-113428571D02*
X141680952Y-113428571D01*
X141680952Y-113952380D02*
X141680952Y-112952380D01*
X142680952Y-113952380D02*
X142109523Y-113952380D01*
X142395238Y-113952380D02*
X142395238Y-112952380D01*
X142300000Y-113095238D01*
X142204761Y-113190476D01*
X142109523Y-113238095D01*
X149214285Y-137652380D02*
X149214285Y-136652380D01*
X149547619Y-137366666D01*
X149880952Y-136652380D01*
X149880952Y-137652380D01*
X150500000Y-137652380D02*
X150404761Y-137604761D01*
X150357142Y-137557142D01*
X150309523Y-137461904D01*
X150309523Y-137176190D01*
X150357142Y-137080952D01*
X150404761Y-137033333D01*
X150500000Y-136985714D01*
X150642857Y-136985714D01*
X150738095Y-137033333D01*
X150785714Y-137080952D01*
X150833333Y-137176190D01*
X150833333Y-137461904D01*
X150785714Y-137557142D01*
X150738095Y-137604761D01*
X150642857Y-137652380D01*
X150500000Y-137652380D01*
X151690476Y-136985714D02*
X151690476Y-137652380D01*
X151261904Y-136985714D02*
X151261904Y-137509523D01*
X151309523Y-137604761D01*
X151404761Y-137652380D01*
X151547619Y-137652380D01*
X151642857Y-137604761D01*
X151690476Y-137557142D01*
X152166666Y-136985714D02*
X152166666Y-137652380D01*
X152166666Y-137080952D02*
X152214285Y-137033333D01*
X152309523Y-136985714D01*
X152452380Y-136985714D01*
X152547619Y-137033333D01*
X152595238Y-137128571D01*
X152595238Y-137652380D01*
X152928571Y-136985714D02*
X153309523Y-136985714D01*
X153071428Y-136652380D02*
X153071428Y-137509523D01*
X153119047Y-137604761D01*
X153214285Y-137652380D01*
X153309523Y-137652380D01*
X153642857Y-137652380D02*
X153642857Y-136985714D01*
X153642857Y-136652380D02*
X153595238Y-136700000D01*
X153642857Y-136747619D01*
X153690476Y-136700000D01*
X153642857Y-136652380D01*
X153642857Y-136747619D01*
X154119047Y-136985714D02*
X154119047Y-137652380D01*
X154119047Y-137080952D02*
X154166666Y-137033333D01*
X154261904Y-136985714D01*
X154404761Y-136985714D01*
X154500000Y-137033333D01*
X154547619Y-137128571D01*
X154547619Y-137652380D01*
X155452380Y-136985714D02*
X155452380Y-137795238D01*
X155404761Y-137890476D01*
X155357142Y-137938095D01*
X155261904Y-137985714D01*
X155119047Y-137985714D01*
X155023809Y-137938095D01*
X155452380Y-137604761D02*
X155357142Y-137652380D01*
X155166666Y-137652380D01*
X155071428Y-137604761D01*
X155023809Y-137557142D01*
X154976190Y-137461904D01*
X154976190Y-137176190D01*
X155023809Y-137080952D01*
X155071428Y-137033333D01*
X155166666Y-136985714D01*
X155357142Y-136985714D01*
X155452380Y-137033333D01*
X155928571Y-137652380D02*
X155928571Y-136652380D01*
X155928571Y-137128571D02*
X156500000Y-137128571D01*
X156500000Y-137652380D02*
X156500000Y-136652380D01*
X157119047Y-137652380D02*
X157023809Y-137604761D01*
X156976190Y-137557142D01*
X156928571Y-137461904D01*
X156928571Y-137176190D01*
X156976190Y-137080952D01*
X157023809Y-137033333D01*
X157119047Y-136985714D01*
X157261904Y-136985714D01*
X157357142Y-137033333D01*
X157404761Y-137080952D01*
X157452380Y-137176190D01*
X157452380Y-137461904D01*
X157404761Y-137557142D01*
X157357142Y-137604761D01*
X157261904Y-137652380D01*
X157119047Y-137652380D01*
X158023809Y-137652380D02*
X157928571Y-137604761D01*
X157880952Y-137509523D01*
X157880952Y-136652380D01*
X158785714Y-137604761D02*
X158690476Y-137652380D01*
X158500000Y-137652380D01*
X158404761Y-137604761D01*
X158357142Y-137509523D01*
X158357142Y-137128571D01*
X158404761Y-137033333D01*
X158500000Y-136985714D01*
X158690476Y-136985714D01*
X158785714Y-137033333D01*
X158833333Y-137128571D01*
X158833333Y-137223809D01*
X158357142Y-137319047D01*
X152966666Y-134452380D02*
X152966666Y-133452380D01*
X153300000Y-134166666D01*
X153633333Y-133452380D01*
X153633333Y-134452380D01*
X154109523Y-134452380D02*
X154109523Y-133452380D01*
X154109523Y-133928571D02*
X154680952Y-133928571D01*
X154680952Y-134452380D02*
X154680952Y-133452380D01*
X155109523Y-133547619D02*
X155157142Y-133500000D01*
X155252380Y-133452380D01*
X155490476Y-133452380D01*
X155585714Y-133500000D01*
X155633333Y-133547619D01*
X155680952Y-133642857D01*
X155680952Y-133738095D01*
X155633333Y-133880952D01*
X155061904Y-134452380D01*
X155680952Y-134452380D01*
X171714285Y-99152380D02*
X171714285Y-98152380D01*
X172047619Y-98866666D01*
X172380952Y-98152380D01*
X172380952Y-99152380D01*
X173000000Y-99152380D02*
X172904761Y-99104761D01*
X172857142Y-99057142D01*
X172809523Y-98961904D01*
X172809523Y-98676190D01*
X172857142Y-98580952D01*
X172904761Y-98533333D01*
X173000000Y-98485714D01*
X173142857Y-98485714D01*
X173238095Y-98533333D01*
X173285714Y-98580952D01*
X173333333Y-98676190D01*
X173333333Y-98961904D01*
X173285714Y-99057142D01*
X173238095Y-99104761D01*
X173142857Y-99152380D01*
X173000000Y-99152380D01*
X174190476Y-98485714D02*
X174190476Y-99152380D01*
X173761904Y-98485714D02*
X173761904Y-99009523D01*
X173809523Y-99104761D01*
X173904761Y-99152380D01*
X174047619Y-99152380D01*
X174142857Y-99104761D01*
X174190476Y-99057142D01*
X174666666Y-98485714D02*
X174666666Y-99152380D01*
X174666666Y-98580952D02*
X174714285Y-98533333D01*
X174809523Y-98485714D01*
X174952380Y-98485714D01*
X175047619Y-98533333D01*
X175095238Y-98628571D01*
X175095238Y-99152380D01*
X175428571Y-98485714D02*
X175809523Y-98485714D01*
X175571428Y-98152380D02*
X175571428Y-99009523D01*
X175619047Y-99104761D01*
X175714285Y-99152380D01*
X175809523Y-99152380D01*
X176142857Y-99152380D02*
X176142857Y-98485714D01*
X176142857Y-98152380D02*
X176095238Y-98200000D01*
X176142857Y-98247619D01*
X176190476Y-98200000D01*
X176142857Y-98152380D01*
X176142857Y-98247619D01*
X176619047Y-98485714D02*
X176619047Y-99152380D01*
X176619047Y-98580952D02*
X176666666Y-98533333D01*
X176761904Y-98485714D01*
X176904761Y-98485714D01*
X177000000Y-98533333D01*
X177047619Y-98628571D01*
X177047619Y-99152380D01*
X177952380Y-98485714D02*
X177952380Y-99295238D01*
X177904761Y-99390476D01*
X177857142Y-99438095D01*
X177761904Y-99485714D01*
X177619047Y-99485714D01*
X177523809Y-99438095D01*
X177952380Y-99104761D02*
X177857142Y-99152380D01*
X177666666Y-99152380D01*
X177571428Y-99104761D01*
X177523809Y-99057142D01*
X177476190Y-98961904D01*
X177476190Y-98676190D01*
X177523809Y-98580952D01*
X177571428Y-98533333D01*
X177666666Y-98485714D01*
X177857142Y-98485714D01*
X177952380Y-98533333D01*
X178428571Y-99152380D02*
X178428571Y-98152380D01*
X178428571Y-98628571D02*
X179000000Y-98628571D01*
X179000000Y-99152380D02*
X179000000Y-98152380D01*
X179619047Y-99152380D02*
X179523809Y-99104761D01*
X179476190Y-99057142D01*
X179428571Y-98961904D01*
X179428571Y-98676190D01*
X179476190Y-98580952D01*
X179523809Y-98533333D01*
X179619047Y-98485714D01*
X179761904Y-98485714D01*
X179857142Y-98533333D01*
X179904761Y-98580952D01*
X179952380Y-98676190D01*
X179952380Y-98961904D01*
X179904761Y-99057142D01*
X179857142Y-99104761D01*
X179761904Y-99152380D01*
X179619047Y-99152380D01*
X180523809Y-99152380D02*
X180428571Y-99104761D01*
X180380952Y-99009523D01*
X180380952Y-98152380D01*
X181285714Y-99104761D02*
X181190476Y-99152380D01*
X181000000Y-99152380D01*
X180904761Y-99104761D01*
X180857142Y-99009523D01*
X180857142Y-98628571D01*
X180904761Y-98533333D01*
X181000000Y-98485714D01*
X181190476Y-98485714D01*
X181285714Y-98533333D01*
X181333333Y-98628571D01*
X181333333Y-98723809D01*
X180857142Y-98819047D01*
X175466666Y-95952380D02*
X175466666Y-94952380D01*
X175800000Y-95666666D01*
X176133333Y-94952380D01*
X176133333Y-95952380D01*
X176609523Y-95952380D02*
X176609523Y-94952380D01*
X176609523Y-95428571D02*
X177180952Y-95428571D01*
X177180952Y-95952380D02*
X177180952Y-94952380D01*
X178085714Y-95285714D02*
X178085714Y-95952380D01*
X177847619Y-94904761D02*
X177609523Y-95619047D01*
X178228571Y-95619047D01*
X135628571Y-77782380D02*
X135057142Y-77782380D01*
X135342857Y-77782380D02*
X135342857Y-76782380D01*
X135247619Y-76925238D01*
X135152380Y-77020476D01*
X135057142Y-77068095D01*
X136247619Y-76782380D02*
X136342857Y-76782380D01*
X136438095Y-76830000D01*
X136485714Y-76877619D01*
X136533333Y-76972857D01*
X136580952Y-77163333D01*
X136580952Y-77401428D01*
X136533333Y-77591904D01*
X136485714Y-77687142D01*
X136438095Y-77734761D01*
X136342857Y-77782380D01*
X136247619Y-77782380D01*
X136152380Y-77734761D01*
X136104761Y-77687142D01*
X136057142Y-77591904D01*
X136009523Y-77401428D01*
X136009523Y-77163333D01*
X136057142Y-76972857D01*
X136104761Y-76877619D01*
X136152380Y-76830000D01*
X136247619Y-76782380D01*
X137200000Y-76782380D02*
X137295238Y-76782380D01*
X137390476Y-76830000D01*
X137438095Y-76877619D01*
X137485714Y-76972857D01*
X137533333Y-77163333D01*
X137533333Y-77401428D01*
X137485714Y-77591904D01*
X137438095Y-77687142D01*
X137390476Y-77734761D01*
X137295238Y-77782380D01*
X137200000Y-77782380D01*
X137104761Y-77734761D01*
X137057142Y-77687142D01*
X137009523Y-77591904D01*
X136961904Y-77401428D01*
X136961904Y-77163333D01*
X137009523Y-76972857D01*
X137057142Y-76877619D01*
X137104761Y-76830000D01*
X137200000Y-76782380D01*
X137961904Y-77782380D02*
X137961904Y-76782380D01*
X138057142Y-77401428D02*
X138342857Y-77782380D01*
X138342857Y-77115714D02*
X137961904Y-77496666D01*
D15*
X136539285Y-78613095D02*
X136455952Y-78494047D01*
X136396428Y-78613095D02*
X136396428Y-78363095D01*
X136491666Y-78363095D01*
X136515476Y-78375000D01*
X136527380Y-78386904D01*
X136539285Y-78410714D01*
X136539285Y-78446428D01*
X136527380Y-78470238D01*
X136515476Y-78482142D01*
X136491666Y-78494047D01*
X136396428Y-78494047D01*
X136622619Y-78363095D02*
X136777380Y-78363095D01*
X136694047Y-78458333D01*
X136729761Y-78458333D01*
X136753571Y-78470238D01*
X136765476Y-78482142D01*
X136777380Y-78505952D01*
X136777380Y-78565476D01*
X136765476Y-78589285D01*
X136753571Y-78601190D01*
X136729761Y-78613095D01*
X136658333Y-78613095D01*
X136634523Y-78601190D01*
X136622619Y-78589285D01*
X137015476Y-78613095D02*
X136872619Y-78613095D01*
X136944047Y-78613095D02*
X136944047Y-78363095D01*
X136920238Y-78398809D01*
X136896428Y-78422619D01*
X136872619Y-78434523D01*
D13*
X135543571Y-70282380D02*
X134972142Y-70282380D01*
X135257857Y-70282380D02*
X135257857Y-69282380D01*
X135162619Y-69425238D01*
X135067380Y-69520476D01*
X134972142Y-69568095D01*
X136162619Y-69282380D02*
X136257857Y-69282380D01*
X136353095Y-69330000D01*
X136400714Y-69377619D01*
X136448333Y-69472857D01*
X136495952Y-69663333D01*
X136495952Y-69901428D01*
X136448333Y-70091904D01*
X136400714Y-70187142D01*
X136353095Y-70234761D01*
X136257857Y-70282380D01*
X136162619Y-70282380D01*
X136067380Y-70234761D01*
X136019761Y-70187142D01*
X135972142Y-70091904D01*
X135924523Y-69901428D01*
X135924523Y-69663333D01*
X135972142Y-69472857D01*
X136019761Y-69377619D01*
X136067380Y-69330000D01*
X136162619Y-69282380D01*
X137115000Y-69282380D02*
X137210238Y-69282380D01*
X137305476Y-69330000D01*
X137353095Y-69377619D01*
X137400714Y-69472857D01*
X137448333Y-69663333D01*
X137448333Y-69901428D01*
X137400714Y-70091904D01*
X137353095Y-70187142D01*
X137305476Y-70234761D01*
X137210238Y-70282380D01*
X137115000Y-70282380D01*
X137019761Y-70234761D01*
X136972142Y-70187142D01*
X136924523Y-70091904D01*
X136876904Y-69901428D01*
X136876904Y-69663333D01*
X136924523Y-69472857D01*
X136972142Y-69377619D01*
X137019761Y-69330000D01*
X137115000Y-69282380D01*
X137876904Y-70282380D02*
X137876904Y-69282380D01*
X137972142Y-69901428D02*
X138257857Y-70282380D01*
X138257857Y-69615714D02*
X137876904Y-69996666D01*
D15*
X136454285Y-71113095D02*
X136370952Y-70994047D01*
X136311428Y-71113095D02*
X136311428Y-70863095D01*
X136406666Y-70863095D01*
X136430476Y-70875000D01*
X136442380Y-70886904D01*
X136454285Y-70910714D01*
X136454285Y-70946428D01*
X136442380Y-70970238D01*
X136430476Y-70982142D01*
X136406666Y-70994047D01*
X136311428Y-70994047D01*
X136537619Y-70863095D02*
X136692380Y-70863095D01*
X136609047Y-70958333D01*
X136644761Y-70958333D01*
X136668571Y-70970238D01*
X136680476Y-70982142D01*
X136692380Y-71005952D01*
X136692380Y-71065476D01*
X136680476Y-71089285D01*
X136668571Y-71101190D01*
X136644761Y-71113095D01*
X136573333Y-71113095D01*
X136549523Y-71101190D01*
X136537619Y-71089285D01*
X136787619Y-70886904D02*
X136799523Y-70875000D01*
X136823333Y-70863095D01*
X136882857Y-70863095D01*
X136906666Y-70875000D01*
X136918571Y-70886904D01*
X136930476Y-70910714D01*
X136930476Y-70934523D01*
X136918571Y-70970238D01*
X136775714Y-71113095D01*
X136930476Y-71113095D01*
D13*
X135628571Y-78982380D02*
X135057142Y-78982380D01*
X135342857Y-78982380D02*
X135342857Y-77982380D01*
X135247619Y-78125238D01*
X135152380Y-78220476D01*
X135057142Y-78268095D01*
X136247619Y-77982380D02*
X136342857Y-77982380D01*
X136438095Y-78030000D01*
X136485714Y-78077619D01*
X136533333Y-78172857D01*
X136580952Y-78363333D01*
X136580952Y-78601428D01*
X136533333Y-78791904D01*
X136485714Y-78887142D01*
X136438095Y-78934761D01*
X136342857Y-78982380D01*
X136247619Y-78982380D01*
X136152380Y-78934761D01*
X136104761Y-78887142D01*
X136057142Y-78791904D01*
X136009523Y-78601428D01*
X136009523Y-78363333D01*
X136057142Y-78172857D01*
X136104761Y-78077619D01*
X136152380Y-78030000D01*
X136247619Y-77982380D01*
X137200000Y-77982380D02*
X137295238Y-77982380D01*
X137390476Y-78030000D01*
X137438095Y-78077619D01*
X137485714Y-78172857D01*
X137533333Y-78363333D01*
X137533333Y-78601428D01*
X137485714Y-78791904D01*
X137438095Y-78887142D01*
X137390476Y-78934761D01*
X137295238Y-78982380D01*
X137200000Y-78982380D01*
X137104761Y-78934761D01*
X137057142Y-78887142D01*
X137009523Y-78791904D01*
X136961904Y-78601428D01*
X136961904Y-78363333D01*
X137009523Y-78172857D01*
X137057142Y-78077619D01*
X137104761Y-78030000D01*
X137200000Y-77982380D01*
X137961904Y-78982380D02*
X137961904Y-77982380D01*
X138057142Y-78601428D02*
X138342857Y-78982380D01*
X138342857Y-78315714D02*
X137961904Y-78696666D01*
D15*
X136539285Y-79813095D02*
X136455952Y-79694047D01*
X136396428Y-79813095D02*
X136396428Y-79563095D01*
X136491666Y-79563095D01*
X136515476Y-79575000D01*
X136527380Y-79586904D01*
X136539285Y-79610714D01*
X136539285Y-79646428D01*
X136527380Y-79670238D01*
X136515476Y-79682142D01*
X136491666Y-79694047D01*
X136396428Y-79694047D01*
X136622619Y-79563095D02*
X136777380Y-79563095D01*
X136694047Y-79658333D01*
X136729761Y-79658333D01*
X136753571Y-79670238D01*
X136765476Y-79682142D01*
X136777380Y-79705952D01*
X136777380Y-79765476D01*
X136765476Y-79789285D01*
X136753571Y-79801190D01*
X136729761Y-79813095D01*
X136658333Y-79813095D01*
X136634523Y-79801190D01*
X136622619Y-79789285D01*
X136860714Y-79563095D02*
X137015476Y-79563095D01*
X136932142Y-79658333D01*
X136967857Y-79658333D01*
X136991666Y-79670238D01*
X137003571Y-79682142D01*
X137015476Y-79705952D01*
X137015476Y-79765476D01*
X137003571Y-79789285D01*
X136991666Y-79801190D01*
X136967857Y-79813095D01*
X136896428Y-79813095D01*
X136872619Y-79801190D01*
X136860714Y-79789285D01*
D13*
X175982380Y-120595238D02*
X175982380Y-121166666D01*
X175982380Y-120880952D02*
X174982380Y-120880952D01*
X175125238Y-120976190D01*
X175220476Y-121071428D01*
X175268095Y-121166666D01*
X174982380Y-119976190D02*
X174982380Y-119880952D01*
X175030000Y-119785714D01*
X175077619Y-119738095D01*
X175172857Y-119690476D01*
X175363333Y-119642857D01*
X175601428Y-119642857D01*
X175791904Y-119690476D01*
X175887142Y-119738095D01*
X175934761Y-119785714D01*
X175982380Y-119880952D01*
X175982380Y-119976190D01*
X175934761Y-120071428D01*
X175887142Y-120119047D01*
X175791904Y-120166666D01*
X175601428Y-120214285D01*
X175363333Y-120214285D01*
X175172857Y-120166666D01*
X175077619Y-120119047D01*
X175030000Y-120071428D01*
X174982380Y-119976190D01*
X175982380Y-119214285D02*
X174982380Y-119214285D01*
X175601428Y-119119047D02*
X175982380Y-118833333D01*
X175315714Y-118833333D02*
X175696666Y-119214285D01*
D15*
X176813095Y-120160714D02*
X176694047Y-120244047D01*
X176813095Y-120303571D02*
X176563095Y-120303571D01*
X176563095Y-120208333D01*
X176575000Y-120184523D01*
X176586904Y-120172619D01*
X176610714Y-120160714D01*
X176646428Y-120160714D01*
X176670238Y-120172619D01*
X176682142Y-120184523D01*
X176694047Y-120208333D01*
X176694047Y-120303571D01*
X176563095Y-120077380D02*
X176563095Y-119922619D01*
X176658333Y-120005952D01*
X176658333Y-119970238D01*
X176670238Y-119946428D01*
X176682142Y-119934523D01*
X176705952Y-119922619D01*
X176765476Y-119922619D01*
X176789285Y-119934523D01*
X176801190Y-119946428D01*
X176813095Y-119970238D01*
X176813095Y-120041666D01*
X176801190Y-120065476D01*
X176789285Y-120077380D01*
X176646428Y-119708333D02*
X176813095Y-119708333D01*
X176551190Y-119767857D02*
X176729761Y-119827380D01*
X176729761Y-119672619D01*
D13*
X170033333Y-118227380D02*
X170604761Y-118227380D01*
X170319047Y-119227380D02*
X170319047Y-118227380D01*
X170842857Y-118227380D02*
X171509523Y-119227380D01*
X171509523Y-118227380D02*
X170842857Y-119227380D01*
X172223809Y-118703571D02*
X172366666Y-118751190D01*
X172414285Y-118798809D01*
X172461904Y-118894047D01*
X172461904Y-119036904D01*
X172414285Y-119132142D01*
X172366666Y-119179761D01*
X172271428Y-119227380D01*
X171890476Y-119227380D01*
X171890476Y-118227380D01*
X172223809Y-118227380D01*
X172319047Y-118275000D01*
X172366666Y-118322619D01*
X172414285Y-118417857D01*
X172414285Y-118513095D01*
X172366666Y-118608333D01*
X172319047Y-118655952D01*
X172223809Y-118703571D01*
X171890476Y-118703571D01*
X173080952Y-118227380D02*
X173176190Y-118227380D01*
X173271428Y-118275000D01*
X173319047Y-118322619D01*
X173366666Y-118417857D01*
X173414285Y-118608333D01*
X173414285Y-118846428D01*
X173366666Y-119036904D01*
X173319047Y-119132142D01*
X173271428Y-119179761D01*
X173176190Y-119227380D01*
X173080952Y-119227380D01*
X172985714Y-119179761D01*
X172938095Y-119132142D01*
X172890476Y-119036904D01*
X172842857Y-118846428D01*
X172842857Y-118608333D01*
X172890476Y-118417857D01*
X172938095Y-118322619D01*
X172985714Y-118275000D01*
X173080952Y-118227380D01*
X174366666Y-119227380D02*
X173795238Y-119227380D01*
X174080952Y-119227380D02*
X174080952Y-118227380D01*
X173985714Y-118370238D01*
X173890476Y-118465476D01*
X173795238Y-118513095D01*
X174985714Y-118227380D02*
X175080952Y-118227380D01*
X175176190Y-118275000D01*
X175223809Y-118322619D01*
X175271428Y-118417857D01*
X175319047Y-118608333D01*
X175319047Y-118846428D01*
X175271428Y-119036904D01*
X175223809Y-119132142D01*
X175176190Y-119179761D01*
X175080952Y-119227380D01*
X174985714Y-119227380D01*
X174890476Y-119179761D01*
X174842857Y-119132142D01*
X174795238Y-119036904D01*
X174747619Y-118846428D01*
X174747619Y-118608333D01*
X174795238Y-118417857D01*
X174842857Y-118322619D01*
X174890476Y-118275000D01*
X174985714Y-118227380D01*
X176176190Y-118560714D02*
X176176190Y-119227380D01*
X175938095Y-118179761D02*
X175700000Y-118894047D01*
X176319047Y-118894047D01*
X176700000Y-119227380D02*
X176700000Y-118227380D01*
X176938095Y-118227380D01*
X177080952Y-118275000D01*
X177176190Y-118370238D01*
X177223809Y-118465476D01*
X177271428Y-118655952D01*
X177271428Y-118798809D01*
X177223809Y-118989285D01*
X177176190Y-119084523D01*
X177080952Y-119179761D01*
X176938095Y-119227380D01*
X176700000Y-119227380D01*
D18*
X172585714Y-112907142D02*
X172585714Y-113635714D01*
X172628571Y-113721428D01*
X172671428Y-113764285D01*
X172757142Y-113807142D01*
X172928571Y-113807142D01*
X173014285Y-113764285D01*
X173057142Y-113721428D01*
X173100000Y-113635714D01*
X173100000Y-112907142D01*
X174000000Y-113807142D02*
X173485714Y-113807142D01*
X173742857Y-113807142D02*
X173742857Y-112907142D01*
X173657142Y-113035714D01*
X173571428Y-113121428D01*
X173485714Y-113164285D01*
X174857142Y-113807142D02*
X174342857Y-113807142D01*
X174600000Y-113807142D02*
X174600000Y-112907142D01*
X174514285Y-113035714D01*
X174428571Y-113121428D01*
X174342857Y-113164285D01*
D13*
X149214285Y-127952380D02*
X149214285Y-126952380D01*
X149547619Y-127666666D01*
X149880952Y-126952380D01*
X149880952Y-127952380D01*
X150500000Y-127952380D02*
X150404761Y-127904761D01*
X150357142Y-127857142D01*
X150309523Y-127761904D01*
X150309523Y-127476190D01*
X150357142Y-127380952D01*
X150404761Y-127333333D01*
X150500000Y-127285714D01*
X150642857Y-127285714D01*
X150738095Y-127333333D01*
X150785714Y-127380952D01*
X150833333Y-127476190D01*
X150833333Y-127761904D01*
X150785714Y-127857142D01*
X150738095Y-127904761D01*
X150642857Y-127952380D01*
X150500000Y-127952380D01*
X151690476Y-127285714D02*
X151690476Y-127952380D01*
X151261904Y-127285714D02*
X151261904Y-127809523D01*
X151309523Y-127904761D01*
X151404761Y-127952380D01*
X151547619Y-127952380D01*
X151642857Y-127904761D01*
X151690476Y-127857142D01*
X152166666Y-127285714D02*
X152166666Y-127952380D01*
X152166666Y-127380952D02*
X152214285Y-127333333D01*
X152309523Y-127285714D01*
X152452380Y-127285714D01*
X152547619Y-127333333D01*
X152595238Y-127428571D01*
X152595238Y-127952380D01*
X152928571Y-127285714D02*
X153309523Y-127285714D01*
X153071428Y-126952380D02*
X153071428Y-127809523D01*
X153119047Y-127904761D01*
X153214285Y-127952380D01*
X153309523Y-127952380D01*
X153642857Y-127952380D02*
X153642857Y-127285714D01*
X153642857Y-126952380D02*
X153595238Y-127000000D01*
X153642857Y-127047619D01*
X153690476Y-127000000D01*
X153642857Y-126952380D01*
X153642857Y-127047619D01*
X154119047Y-127285714D02*
X154119047Y-127952380D01*
X154119047Y-127380952D02*
X154166666Y-127333333D01*
X154261904Y-127285714D01*
X154404761Y-127285714D01*
X154500000Y-127333333D01*
X154547619Y-127428571D01*
X154547619Y-127952380D01*
X155452380Y-127285714D02*
X155452380Y-128095238D01*
X155404761Y-128190476D01*
X155357142Y-128238095D01*
X155261904Y-128285714D01*
X155119047Y-128285714D01*
X155023809Y-128238095D01*
X155452380Y-127904761D02*
X155357142Y-127952380D01*
X155166666Y-127952380D01*
X155071428Y-127904761D01*
X155023809Y-127857142D01*
X154976190Y-127761904D01*
X154976190Y-127476190D01*
X155023809Y-127380952D01*
X155071428Y-127333333D01*
X155166666Y-127285714D01*
X155357142Y-127285714D01*
X155452380Y-127333333D01*
X155928571Y-127952380D02*
X155928571Y-126952380D01*
X155928571Y-127428571D02*
X156500000Y-127428571D01*
X156500000Y-127952380D02*
X156500000Y-126952380D01*
X157119047Y-127952380D02*
X157023809Y-127904761D01*
X156976190Y-127857142D01*
X156928571Y-127761904D01*
X156928571Y-127476190D01*
X156976190Y-127380952D01*
X157023809Y-127333333D01*
X157119047Y-127285714D01*
X157261904Y-127285714D01*
X157357142Y-127333333D01*
X157404761Y-127380952D01*
X157452380Y-127476190D01*
X157452380Y-127761904D01*
X157404761Y-127857142D01*
X157357142Y-127904761D01*
X157261904Y-127952380D01*
X157119047Y-127952380D01*
X158023809Y-127952380D02*
X157928571Y-127904761D01*
X157880952Y-127809523D01*
X157880952Y-126952380D01*
X158785714Y-127904761D02*
X158690476Y-127952380D01*
X158500000Y-127952380D01*
X158404761Y-127904761D01*
X158357142Y-127809523D01*
X158357142Y-127428571D01*
X158404761Y-127333333D01*
X158500000Y-127285714D01*
X158690476Y-127285714D01*
X158785714Y-127333333D01*
X158833333Y-127428571D01*
X158833333Y-127523809D01*
X158357142Y-127619047D01*
X174576190Y-76382380D02*
X175242857Y-76382380D01*
X174814285Y-77382380D01*
X175623809Y-77287142D02*
X175671428Y-77334761D01*
X175623809Y-77382380D01*
X175576190Y-77334761D01*
X175623809Y-77287142D01*
X175623809Y-77382380D01*
X176576190Y-76382380D02*
X176100000Y-76382380D01*
X176052380Y-76858571D01*
X176100000Y-76810952D01*
X176195238Y-76763333D01*
X176433333Y-76763333D01*
X176528571Y-76810952D01*
X176576190Y-76858571D01*
X176623809Y-76953809D01*
X176623809Y-77191904D01*
X176576190Y-77287142D01*
X176528571Y-77334761D01*
X176433333Y-77382380D01*
X176195238Y-77382380D01*
X176100000Y-77334761D01*
X176052380Y-77287142D01*
X177052380Y-76715714D02*
X177052380Y-77382380D01*
X177052380Y-76810952D02*
X177100000Y-76763333D01*
X177195238Y-76715714D01*
X177338095Y-76715714D01*
X177433333Y-76763333D01*
X177480952Y-76858571D01*
X177480952Y-77382380D01*
X177957142Y-77382380D02*
X177957142Y-76382380D01*
X177957142Y-76858571D02*
X178528571Y-76858571D01*
X178528571Y-77382380D02*
X178528571Y-76382380D01*
D15*
X176558333Y-78213095D02*
X176439285Y-78213095D01*
X176439285Y-77963095D01*
X176617857Y-77963095D02*
X176772619Y-77963095D01*
X176689285Y-78058333D01*
X176725000Y-78058333D01*
X176748809Y-78070238D01*
X176760714Y-78082142D01*
X176772619Y-78105952D01*
X176772619Y-78165476D01*
X176760714Y-78189285D01*
X176748809Y-78201190D01*
X176725000Y-78213095D01*
X176653571Y-78213095D01*
X176629761Y-78201190D01*
X176617857Y-78189285D01*
D13*
X178822380Y-82923809D02*
X178822380Y-82257142D01*
X179822380Y-82685714D01*
X179727142Y-81876190D02*
X179774761Y-81828571D01*
X179822380Y-81876190D01*
X179774761Y-81923809D01*
X179727142Y-81876190D01*
X179822380Y-81876190D01*
X178822380Y-80923809D02*
X178822380Y-81400000D01*
X179298571Y-81447619D01*
X179250952Y-81400000D01*
X179203333Y-81304761D01*
X179203333Y-81066666D01*
X179250952Y-80971428D01*
X179298571Y-80923809D01*
X179393809Y-80876190D01*
X179631904Y-80876190D01*
X179727142Y-80923809D01*
X179774761Y-80971428D01*
X179822380Y-81066666D01*
X179822380Y-81304761D01*
X179774761Y-81400000D01*
X179727142Y-81447619D01*
X179155714Y-80447619D02*
X179822380Y-80447619D01*
X179250952Y-80447619D02*
X179203333Y-80400000D01*
X179155714Y-80304761D01*
X179155714Y-80161904D01*
X179203333Y-80066666D01*
X179298571Y-80019047D01*
X179822380Y-80019047D01*
X179822380Y-79542857D02*
X178822380Y-79542857D01*
X179298571Y-79542857D02*
X179298571Y-78971428D01*
X179822380Y-78971428D02*
X178822380Y-78971428D01*
D15*
X178313095Y-80941666D02*
X178313095Y-81060714D01*
X178063095Y-81060714D01*
X178146428Y-80751190D02*
X178313095Y-80751190D01*
X178051190Y-80810714D02*
X178229761Y-80870238D01*
X178229761Y-80715476D01*
M02*
