G04 #@! TF.GenerationSoftware,KiCad,Pcbnew,5.1.6+dfsg1-1~bpo10+1*
G04 #@! TF.CreationDate,2021-03-28T20:23:35-04:00*
G04 #@! TF.ProjectId,RUSP_Daughterboard,52555350-5f44-4617-9567-68746572626f,rev?*
G04 #@! TF.SameCoordinates,Original*
G04 #@! TF.FileFunction,Soldermask,Bot*
G04 #@! TF.FilePolarity,Negative*
%FSLAX46Y46*%
G04 Gerber Fmt 4.6, Leading zero omitted, Abs format (unit mm)*
G04 Created by KiCad (PCBNEW 5.1.6+dfsg1-1~bpo10+1) date 2021-03-28 20:23:35*
%MOMM*%
%LPD*%
G01*
G04 APERTURE LIST*
%ADD10C,0.100000*%
G04 APERTURE END LIST*
D10*
G36*
X166945000Y-134397500D02*
G01*
X165946619Y-134397500D01*
X165922233Y-134399902D01*
X165898784Y-134407015D01*
X165877173Y-134418566D01*
X165858231Y-134434111D01*
X165842686Y-134453053D01*
X165831135Y-134474664D01*
X165824022Y-134498113D01*
X165821620Y-134522499D01*
X165824022Y-134546885D01*
X165831135Y-134570334D01*
X165842686Y-134591945D01*
X165858231Y-134610887D01*
X165877173Y-134626432D01*
X165898784Y-134637983D01*
X165909179Y-134642289D01*
X165909180Y-134642289D01*
X166014733Y-134686011D01*
X166109728Y-134749485D01*
X166190515Y-134830272D01*
X166253990Y-134925269D01*
X166297711Y-135030821D01*
X166320000Y-135142874D01*
X166320000Y-135257126D01*
X166315684Y-135278822D01*
X166297711Y-135369180D01*
X166253989Y-135474733D01*
X166190515Y-135569728D01*
X166109728Y-135650515D01*
X166014733Y-135713989D01*
X166014732Y-135713990D01*
X166014731Y-135713990D01*
X165898784Y-135762017D01*
X165877173Y-135773568D01*
X165858231Y-135789113D01*
X165842686Y-135808055D01*
X165831135Y-135829666D01*
X165824022Y-135853115D01*
X165821620Y-135877501D01*
X165824022Y-135901887D01*
X165831135Y-135925336D01*
X165842686Y-135946947D01*
X165858231Y-135965889D01*
X165877173Y-135981434D01*
X165898784Y-135992985D01*
X165922233Y-136000098D01*
X165946619Y-136002500D01*
X166945000Y-136002500D01*
X166945000Y-138077500D01*
X159455000Y-138077500D01*
X159455000Y-136002500D01*
X160453381Y-136002500D01*
X160477767Y-136000098D01*
X160501216Y-135992985D01*
X160522827Y-135981434D01*
X160541769Y-135965889D01*
X160557314Y-135946947D01*
X160568865Y-135925336D01*
X160575978Y-135901887D01*
X160578380Y-135877501D01*
X160575978Y-135853115D01*
X160568865Y-135829666D01*
X160557314Y-135808055D01*
X160541769Y-135789113D01*
X160522827Y-135773568D01*
X160501216Y-135762017D01*
X160385269Y-135713990D01*
X160385268Y-135713990D01*
X160385267Y-135713989D01*
X160290272Y-135650515D01*
X160209485Y-135569728D01*
X160146011Y-135474733D01*
X160102289Y-135369180D01*
X160084316Y-135278822D01*
X160080000Y-135257126D01*
X160080000Y-135142874D01*
X160102289Y-135030821D01*
X160146010Y-134925269D01*
X160209485Y-134830272D01*
X160290272Y-134749485D01*
X160385267Y-134686011D01*
X160490820Y-134642289D01*
X160490821Y-134642289D01*
X160501216Y-134637983D01*
X160522827Y-134626432D01*
X160541769Y-134610887D01*
X160557314Y-134591945D01*
X160568865Y-134570334D01*
X160575978Y-134546885D01*
X160578380Y-134522499D01*
X160741620Y-134522499D01*
X160744022Y-134546885D01*
X160751135Y-134570334D01*
X160762686Y-134591945D01*
X160778231Y-134610887D01*
X160797173Y-134626432D01*
X160818784Y-134637983D01*
X160829179Y-134642289D01*
X160829180Y-134642289D01*
X160934733Y-134686011D01*
X161029728Y-134749485D01*
X161110515Y-134830272D01*
X161173990Y-134925269D01*
X161217711Y-135030821D01*
X161240000Y-135142874D01*
X161240000Y-135257126D01*
X161235684Y-135278822D01*
X161217711Y-135369180D01*
X161173989Y-135474733D01*
X161110515Y-135569728D01*
X161029728Y-135650515D01*
X160934733Y-135713989D01*
X160934732Y-135713990D01*
X160934731Y-135713990D01*
X160818784Y-135762017D01*
X160797173Y-135773568D01*
X160778231Y-135789113D01*
X160762686Y-135808055D01*
X160751135Y-135829666D01*
X160744022Y-135853115D01*
X160741620Y-135877501D01*
X160744022Y-135901887D01*
X160751135Y-135925336D01*
X160762686Y-135946947D01*
X160778231Y-135965889D01*
X160797173Y-135981434D01*
X160818784Y-135992985D01*
X160842233Y-136000098D01*
X160866619Y-136002500D01*
X165533381Y-136002500D01*
X165557767Y-136000098D01*
X165581216Y-135992985D01*
X165602827Y-135981434D01*
X165621769Y-135965889D01*
X165637314Y-135946947D01*
X165648865Y-135925336D01*
X165655978Y-135901887D01*
X165658380Y-135877501D01*
X165655978Y-135853115D01*
X165648865Y-135829666D01*
X165637314Y-135808055D01*
X165621769Y-135789113D01*
X165602827Y-135773568D01*
X165581216Y-135762017D01*
X165465269Y-135713990D01*
X165465268Y-135713990D01*
X165465267Y-135713989D01*
X165370272Y-135650515D01*
X165289485Y-135569728D01*
X165226011Y-135474733D01*
X165182289Y-135369180D01*
X165164316Y-135278822D01*
X165160000Y-135257126D01*
X165160000Y-135142874D01*
X165182289Y-135030821D01*
X165226010Y-134925269D01*
X165289485Y-134830272D01*
X165370272Y-134749485D01*
X165465267Y-134686011D01*
X165570820Y-134642289D01*
X165570821Y-134642289D01*
X165581216Y-134637983D01*
X165602827Y-134626432D01*
X165621769Y-134610887D01*
X165637314Y-134591945D01*
X165648865Y-134570334D01*
X165655978Y-134546885D01*
X165658380Y-134522499D01*
X165655978Y-134498113D01*
X165648865Y-134474664D01*
X165637314Y-134453053D01*
X165621769Y-134434111D01*
X165602827Y-134418566D01*
X165581216Y-134407015D01*
X165557767Y-134399902D01*
X165533381Y-134397500D01*
X160866619Y-134397500D01*
X160842233Y-134399902D01*
X160818784Y-134407015D01*
X160797173Y-134418566D01*
X160778231Y-134434111D01*
X160762686Y-134453053D01*
X160751135Y-134474664D01*
X160744022Y-134498113D01*
X160741620Y-134522499D01*
X160578380Y-134522499D01*
X160575978Y-134498113D01*
X160568865Y-134474664D01*
X160557314Y-134453053D01*
X160541769Y-134434111D01*
X160522827Y-134418566D01*
X160501216Y-134407015D01*
X160477767Y-134399902D01*
X160453381Y-134397500D01*
X159455000Y-134397500D01*
X159455000Y-132322500D01*
X166945000Y-132322500D01*
X166945000Y-134397500D01*
G37*
G36*
X175218766Y-135278821D02*
G01*
X175355257Y-135335358D01*
X175478097Y-135417437D01*
X175582563Y-135521903D01*
X175664642Y-135644743D01*
X175721179Y-135781234D01*
X175750000Y-135926130D01*
X175750000Y-136073870D01*
X175721179Y-136218766D01*
X175664642Y-136355257D01*
X175582563Y-136478097D01*
X175478097Y-136582563D01*
X175355257Y-136664642D01*
X175218766Y-136721179D01*
X175073870Y-136750000D01*
X174926130Y-136750000D01*
X174781234Y-136721179D01*
X174644743Y-136664642D01*
X174521903Y-136582563D01*
X174417437Y-136478097D01*
X174335358Y-136355257D01*
X174278821Y-136218766D01*
X174250000Y-136073870D01*
X174250000Y-135926130D01*
X174278821Y-135781234D01*
X174335358Y-135644743D01*
X174417437Y-135521903D01*
X174521903Y-135417437D01*
X174644743Y-135335358D01*
X174781234Y-135278821D01*
X174926130Y-135250000D01*
X175073870Y-135250000D01*
X175218766Y-135278821D01*
G37*
G36*
X157885529Y-134155710D02*
G01*
X157935378Y-134170831D01*
X157981310Y-134195382D01*
X158021574Y-134228426D01*
X158054618Y-134268690D01*
X158079169Y-134314622D01*
X158094290Y-134364471D01*
X158100000Y-134422444D01*
X158100000Y-135427556D01*
X158094290Y-135485529D01*
X158079169Y-135535378D01*
X158054618Y-135581310D01*
X158021574Y-135621574D01*
X157981310Y-135654618D01*
X157935378Y-135679169D01*
X157885529Y-135694290D01*
X157827556Y-135700000D01*
X156572444Y-135700000D01*
X156514471Y-135694290D01*
X156464622Y-135679169D01*
X156418690Y-135654618D01*
X156378426Y-135621574D01*
X156345382Y-135581310D01*
X156320831Y-135535378D01*
X156305710Y-135485529D01*
X156300000Y-135427556D01*
X156300000Y-134422444D01*
X156305710Y-134364471D01*
X156320831Y-134314622D01*
X156345382Y-134268690D01*
X156378426Y-134228426D01*
X156418690Y-134195382D01*
X156464622Y-134170831D01*
X156514471Y-134155710D01*
X156572444Y-134150000D01*
X157827556Y-134150000D01*
X157885529Y-134155710D01*
G37*
G36*
X154253617Y-132724979D02*
G01*
X154379196Y-132749958D01*
X154615781Y-132847955D01*
X154828702Y-132990224D01*
X155009776Y-133171298D01*
X155152045Y-133384219D01*
X155250042Y-133620804D01*
X155300000Y-133871961D01*
X155300000Y-134128039D01*
X155250042Y-134379196D01*
X155152045Y-134615781D01*
X155009776Y-134828702D01*
X154828702Y-135009776D01*
X154615781Y-135152045D01*
X154379196Y-135250042D01*
X154253617Y-135275021D01*
X154128040Y-135300000D01*
X153871960Y-135300000D01*
X153746383Y-135275021D01*
X153620804Y-135250042D01*
X153384219Y-135152045D01*
X153171298Y-135009776D01*
X152990224Y-134828702D01*
X152847955Y-134615781D01*
X152749958Y-134379196D01*
X152700000Y-134128039D01*
X152700000Y-133871961D01*
X152749958Y-133620804D01*
X152847955Y-133384219D01*
X152990224Y-133171298D01*
X153171298Y-132990224D01*
X153384219Y-132847955D01*
X153620804Y-132749958D01*
X153746383Y-132724979D01*
X153871960Y-132700000D01*
X154128040Y-132700000D01*
X154253617Y-132724979D01*
G37*
G36*
X157885529Y-132105710D02*
G01*
X157935378Y-132120831D01*
X157981310Y-132145382D01*
X158021574Y-132178426D01*
X158054618Y-132218690D01*
X158079169Y-132264622D01*
X158094290Y-132314471D01*
X158100000Y-132372444D01*
X158100000Y-133377556D01*
X158094290Y-133435529D01*
X158079169Y-133485378D01*
X158054618Y-133531310D01*
X158021574Y-133571574D01*
X157981310Y-133604618D01*
X157935378Y-133629169D01*
X157885529Y-133644290D01*
X157827556Y-133650000D01*
X156572444Y-133650000D01*
X156514471Y-133644290D01*
X156464622Y-133629169D01*
X156418690Y-133604618D01*
X156378426Y-133571574D01*
X156345382Y-133531310D01*
X156320831Y-133485378D01*
X156305710Y-133435529D01*
X156300000Y-133377556D01*
X156300000Y-132372444D01*
X156305710Y-132314471D01*
X156320831Y-132264622D01*
X156345382Y-132218690D01*
X156378426Y-132178426D01*
X156418690Y-132145382D01*
X156464622Y-132120831D01*
X156514471Y-132105710D01*
X156572444Y-132100000D01*
X157827556Y-132100000D01*
X157885529Y-132105710D01*
G37*
G36*
X166945000Y-126697500D02*
G01*
X165946619Y-126697500D01*
X165922233Y-126699902D01*
X165898784Y-126707015D01*
X165877173Y-126718566D01*
X165858231Y-126734111D01*
X165842686Y-126753053D01*
X165831135Y-126774664D01*
X165824022Y-126798113D01*
X165821620Y-126822499D01*
X165824022Y-126846885D01*
X165831135Y-126870334D01*
X165842686Y-126891945D01*
X165858231Y-126910887D01*
X165877173Y-126926432D01*
X165898784Y-126937983D01*
X165909179Y-126942289D01*
X165909180Y-126942289D01*
X166014733Y-126986011D01*
X166109728Y-127049485D01*
X166190515Y-127130272D01*
X166253989Y-127225267D01*
X166297711Y-127330820D01*
X166320000Y-127442875D01*
X166320000Y-127557125D01*
X166297711Y-127669180D01*
X166253989Y-127774733D01*
X166190515Y-127869728D01*
X166109728Y-127950515D01*
X166014733Y-128013989D01*
X166014732Y-128013990D01*
X166014731Y-128013990D01*
X165898784Y-128062017D01*
X165877173Y-128073568D01*
X165858231Y-128089113D01*
X165842686Y-128108055D01*
X165831135Y-128129666D01*
X165824022Y-128153115D01*
X165821620Y-128177501D01*
X165824022Y-128201887D01*
X165831135Y-128225336D01*
X165842686Y-128246947D01*
X165858231Y-128265889D01*
X165877173Y-128281434D01*
X165898784Y-128292985D01*
X165922233Y-128300098D01*
X165946619Y-128302500D01*
X166945000Y-128302500D01*
X166945000Y-130377500D01*
X159455000Y-130377500D01*
X159455000Y-128302500D01*
X160453381Y-128302500D01*
X160477767Y-128300098D01*
X160501216Y-128292985D01*
X160522827Y-128281434D01*
X160541769Y-128265889D01*
X160557314Y-128246947D01*
X160568865Y-128225336D01*
X160575978Y-128201887D01*
X160578380Y-128177501D01*
X160575978Y-128153115D01*
X160568865Y-128129666D01*
X160557314Y-128108055D01*
X160541769Y-128089113D01*
X160522827Y-128073568D01*
X160501216Y-128062017D01*
X160385269Y-128013990D01*
X160385268Y-128013990D01*
X160385267Y-128013989D01*
X160290272Y-127950515D01*
X160209485Y-127869728D01*
X160146011Y-127774733D01*
X160102289Y-127669180D01*
X160080000Y-127557125D01*
X160080000Y-127442875D01*
X160102289Y-127330820D01*
X160146011Y-127225267D01*
X160209485Y-127130272D01*
X160290272Y-127049485D01*
X160385267Y-126986011D01*
X160490820Y-126942289D01*
X160490821Y-126942289D01*
X160501216Y-126937983D01*
X160522827Y-126926432D01*
X160541769Y-126910887D01*
X160557314Y-126891945D01*
X160568865Y-126870334D01*
X160575978Y-126846885D01*
X160578380Y-126822499D01*
X160741620Y-126822499D01*
X160744022Y-126846885D01*
X160751135Y-126870334D01*
X160762686Y-126891945D01*
X160778231Y-126910887D01*
X160797173Y-126926432D01*
X160818784Y-126937983D01*
X160829179Y-126942289D01*
X160829180Y-126942289D01*
X160934733Y-126986011D01*
X161029728Y-127049485D01*
X161110515Y-127130272D01*
X161173989Y-127225267D01*
X161217711Y-127330820D01*
X161240000Y-127442875D01*
X161240000Y-127557125D01*
X161217711Y-127669180D01*
X161173989Y-127774733D01*
X161110515Y-127869728D01*
X161029728Y-127950515D01*
X160934733Y-128013989D01*
X160934732Y-128013990D01*
X160934731Y-128013990D01*
X160818784Y-128062017D01*
X160797173Y-128073568D01*
X160778231Y-128089113D01*
X160762686Y-128108055D01*
X160751135Y-128129666D01*
X160744022Y-128153115D01*
X160741620Y-128177501D01*
X160744022Y-128201887D01*
X160751135Y-128225336D01*
X160762686Y-128246947D01*
X160778231Y-128265889D01*
X160797173Y-128281434D01*
X160818784Y-128292985D01*
X160842233Y-128300098D01*
X160866619Y-128302500D01*
X165533381Y-128302500D01*
X165557767Y-128300098D01*
X165581216Y-128292985D01*
X165602827Y-128281434D01*
X165621769Y-128265889D01*
X165637314Y-128246947D01*
X165648865Y-128225336D01*
X165655978Y-128201887D01*
X165658380Y-128177501D01*
X165655978Y-128153115D01*
X165648865Y-128129666D01*
X165637314Y-128108055D01*
X165621769Y-128089113D01*
X165602827Y-128073568D01*
X165581216Y-128062017D01*
X165465269Y-128013990D01*
X165465268Y-128013990D01*
X165465267Y-128013989D01*
X165370272Y-127950515D01*
X165289485Y-127869728D01*
X165226011Y-127774733D01*
X165182289Y-127669180D01*
X165160000Y-127557125D01*
X165160000Y-127442875D01*
X165182289Y-127330820D01*
X165226011Y-127225267D01*
X165289485Y-127130272D01*
X165370272Y-127049485D01*
X165465267Y-126986011D01*
X165570820Y-126942289D01*
X165570821Y-126942289D01*
X165581216Y-126937983D01*
X165602827Y-126926432D01*
X165621769Y-126910887D01*
X165637314Y-126891945D01*
X165648865Y-126870334D01*
X165655978Y-126846885D01*
X165658380Y-126822499D01*
X165655978Y-126798113D01*
X165648865Y-126774664D01*
X165637314Y-126753053D01*
X165621769Y-126734111D01*
X165602827Y-126718566D01*
X165581216Y-126707015D01*
X165557767Y-126699902D01*
X165533381Y-126697500D01*
X160866619Y-126697500D01*
X160842233Y-126699902D01*
X160818784Y-126707015D01*
X160797173Y-126718566D01*
X160778231Y-126734111D01*
X160762686Y-126753053D01*
X160751135Y-126774664D01*
X160744022Y-126798113D01*
X160741620Y-126822499D01*
X160578380Y-126822499D01*
X160575978Y-126798113D01*
X160568865Y-126774664D01*
X160557314Y-126753053D01*
X160541769Y-126734111D01*
X160522827Y-126718566D01*
X160501216Y-126707015D01*
X160477767Y-126699902D01*
X160453381Y-126697500D01*
X159455000Y-126697500D01*
X159455000Y-124622500D01*
X166945000Y-124622500D01*
X166945000Y-126697500D01*
G37*
G36*
X154236849Y-126798113D02*
G01*
X154357319Y-126822076D01*
X154417213Y-126846885D01*
X154580254Y-126914418D01*
X154780891Y-127048480D01*
X154951520Y-127219109D01*
X155085582Y-127419746D01*
X155177924Y-127642682D01*
X155225000Y-127879347D01*
X155225000Y-128120653D01*
X155177924Y-128357318D01*
X155085582Y-128580254D01*
X154951520Y-128780891D01*
X154780891Y-128951520D01*
X154580254Y-129085582D01*
X154449661Y-129139675D01*
X154357319Y-129177924D01*
X154120653Y-129225000D01*
X153879347Y-129225000D01*
X153642681Y-129177924D01*
X153550339Y-129139675D01*
X153419746Y-129085582D01*
X153219109Y-128951520D01*
X153048480Y-128780891D01*
X152914418Y-128580254D01*
X152822076Y-128357318D01*
X152775000Y-128120653D01*
X152775000Y-127879347D01*
X152822076Y-127642682D01*
X152914418Y-127419746D01*
X153048480Y-127219109D01*
X153219109Y-127048480D01*
X153419746Y-126914418D01*
X153582787Y-126846885D01*
X153642681Y-126822076D01*
X153763151Y-126798113D01*
X153879347Y-126775000D01*
X154120653Y-126775000D01*
X154236849Y-126798113D01*
G37*
G36*
X124885974Y-113834148D02*
G01*
X124920567Y-113844642D01*
X124960127Y-113865787D01*
X124966066Y-113869756D01*
X124988703Y-113879135D01*
X125012736Y-113883918D01*
X125037240Y-113883920D01*
X125061274Y-113879142D01*
X125083914Y-113869767D01*
X125089861Y-113865794D01*
X125129433Y-113844642D01*
X125164026Y-113834148D01*
X125206141Y-113830000D01*
X125813859Y-113830000D01*
X125855974Y-113834148D01*
X125890567Y-113844642D01*
X125922440Y-113861678D01*
X125950386Y-113884614D01*
X125973322Y-113912560D01*
X125990358Y-113944433D01*
X126000852Y-113979026D01*
X126005000Y-114021141D01*
X126005000Y-114678859D01*
X126000852Y-114720974D01*
X125990358Y-114755567D01*
X125973322Y-114787440D01*
X125950386Y-114815386D01*
X125922440Y-114838322D01*
X125890567Y-114855358D01*
X125855974Y-114865852D01*
X125813859Y-114870000D01*
X125206141Y-114870000D01*
X125164026Y-114865852D01*
X125129433Y-114855358D01*
X125089873Y-114834213D01*
X125083934Y-114830244D01*
X125061297Y-114820865D01*
X125037264Y-114816082D01*
X125012760Y-114816080D01*
X124988726Y-114820858D01*
X124966086Y-114830233D01*
X124960139Y-114834206D01*
X124920567Y-114855358D01*
X124885974Y-114865852D01*
X124843859Y-114870000D01*
X124236141Y-114870000D01*
X124194026Y-114865852D01*
X124159433Y-114855358D01*
X124127560Y-114838322D01*
X124099614Y-114815386D01*
X124076678Y-114787440D01*
X124059642Y-114755567D01*
X124049148Y-114720974D01*
X124045000Y-114678859D01*
X124045000Y-114021141D01*
X124049148Y-113979026D01*
X124059642Y-113944433D01*
X124076678Y-113912560D01*
X124099614Y-113884614D01*
X124127560Y-113861678D01*
X124159433Y-113844642D01*
X124194026Y-113834148D01*
X124236141Y-113830000D01*
X124843859Y-113830000D01*
X124885974Y-113834148D01*
G37*
G36*
X141253617Y-112224979D02*
G01*
X141379196Y-112249958D01*
X141615781Y-112347955D01*
X141828702Y-112490224D01*
X142009776Y-112671298D01*
X142152045Y-112884219D01*
X142250042Y-113120804D01*
X142300000Y-113371961D01*
X142300000Y-113628039D01*
X142250042Y-113879196D01*
X142152045Y-114115781D01*
X142009776Y-114328702D01*
X141828702Y-114509776D01*
X141615781Y-114652045D01*
X141379196Y-114750042D01*
X141329113Y-114760004D01*
X141128040Y-114800000D01*
X140871960Y-114800000D01*
X140670887Y-114760004D01*
X140620804Y-114750042D01*
X140384219Y-114652045D01*
X140171298Y-114509776D01*
X139990224Y-114328702D01*
X139847955Y-114115781D01*
X139749958Y-113879196D01*
X139700000Y-113628039D01*
X139700000Y-113371961D01*
X139749958Y-113120804D01*
X139847955Y-112884219D01*
X139990224Y-112671298D01*
X140171298Y-112490224D01*
X140384219Y-112347955D01*
X140620804Y-112249958D01*
X140746383Y-112224979D01*
X140871960Y-112200000D01*
X141128040Y-112200000D01*
X141253617Y-112224979D01*
G37*
G36*
X130525000Y-113750000D02*
G01*
X129225000Y-113750000D01*
X129225000Y-112150000D01*
X130525000Y-112150000D01*
X130525000Y-113750000D01*
G37*
G36*
X133825000Y-113750000D02*
G01*
X132525000Y-113750000D01*
X132525000Y-112150000D01*
X133825000Y-112150000D01*
X133825000Y-113750000D01*
G37*
G36*
X124875974Y-112509148D02*
G01*
X124910567Y-112519642D01*
X124950127Y-112540787D01*
X124956066Y-112544756D01*
X124978703Y-112554135D01*
X125002736Y-112558918D01*
X125027240Y-112558920D01*
X125051274Y-112554142D01*
X125073914Y-112544767D01*
X125079861Y-112540794D01*
X125119433Y-112519642D01*
X125154026Y-112509148D01*
X125196141Y-112505000D01*
X125803859Y-112505000D01*
X125845974Y-112509148D01*
X125880567Y-112519642D01*
X125912440Y-112536678D01*
X125940386Y-112559614D01*
X125963322Y-112587560D01*
X125980358Y-112619433D01*
X125990852Y-112654026D01*
X125995000Y-112696141D01*
X125995000Y-113353859D01*
X125990852Y-113395974D01*
X125980358Y-113430567D01*
X125963322Y-113462440D01*
X125940386Y-113490386D01*
X125912440Y-113513322D01*
X125880567Y-113530358D01*
X125845974Y-113540852D01*
X125803859Y-113545000D01*
X125196141Y-113545000D01*
X125154026Y-113540852D01*
X125119433Y-113530358D01*
X125079873Y-113509213D01*
X125073934Y-113505244D01*
X125051297Y-113495865D01*
X125027264Y-113491082D01*
X125002760Y-113491080D01*
X124978726Y-113495858D01*
X124956086Y-113505233D01*
X124950139Y-113509206D01*
X124910567Y-113530358D01*
X124875974Y-113540852D01*
X124833859Y-113545000D01*
X124226141Y-113545000D01*
X124184026Y-113540852D01*
X124149433Y-113530358D01*
X124117560Y-113513322D01*
X124089614Y-113490386D01*
X124066678Y-113462440D01*
X124049642Y-113430567D01*
X124039148Y-113395974D01*
X124035000Y-113353859D01*
X124035000Y-112696141D01*
X124039148Y-112654026D01*
X124049642Y-112619433D01*
X124066678Y-112587560D01*
X124089614Y-112559614D01*
X124117560Y-112536678D01*
X124149433Y-112519642D01*
X124184026Y-112509148D01*
X124226141Y-112505000D01*
X124833859Y-112505000D01*
X124875974Y-112509148D01*
G37*
G36*
X123903351Y-109610743D02*
G01*
X124048941Y-109671048D01*
X124179970Y-109758599D01*
X124291401Y-109870030D01*
X124378952Y-110001059D01*
X124439257Y-110146649D01*
X124470000Y-110301206D01*
X124470000Y-110458794D01*
X124439257Y-110613351D01*
X124378952Y-110758941D01*
X124291401Y-110889970D01*
X124179970Y-111001401D01*
X124048941Y-111088952D01*
X123903351Y-111149257D01*
X123748794Y-111180000D01*
X123591206Y-111180000D01*
X123436649Y-111149257D01*
X123291059Y-111088952D01*
X123160030Y-111001401D01*
X123048599Y-110889970D01*
X122961048Y-110758941D01*
X122900743Y-110613351D01*
X122870000Y-110458794D01*
X122870000Y-110301206D01*
X122900743Y-110146649D01*
X122961048Y-110001059D01*
X123048599Y-109870030D01*
X123160030Y-109758599D01*
X123291059Y-109671048D01*
X123436649Y-109610743D01*
X123591206Y-109580000D01*
X123748794Y-109580000D01*
X123903351Y-109610743D01*
G37*
G36*
X131330000Y-110285000D02*
G01*
X127930000Y-110285000D01*
X127930000Y-108775000D01*
X131330000Y-108775000D01*
X131330000Y-110285000D01*
G37*
G36*
X139330000Y-110285000D02*
G01*
X135930000Y-110285000D01*
X135930000Y-108775000D01*
X139330000Y-108775000D01*
X139330000Y-110285000D01*
G37*
G36*
X125050974Y-106734148D02*
G01*
X125085567Y-106744642D01*
X125125127Y-106765787D01*
X125131066Y-106769756D01*
X125153703Y-106779135D01*
X125177736Y-106783918D01*
X125202240Y-106783920D01*
X125226274Y-106779142D01*
X125248914Y-106769767D01*
X125254861Y-106765794D01*
X125294433Y-106744642D01*
X125329026Y-106734148D01*
X125371141Y-106730000D01*
X125978859Y-106730000D01*
X126020974Y-106734148D01*
X126055567Y-106744642D01*
X126087440Y-106761678D01*
X126115386Y-106784614D01*
X126138322Y-106812560D01*
X126155358Y-106844433D01*
X126165852Y-106879026D01*
X126170000Y-106921141D01*
X126170000Y-107578859D01*
X126165852Y-107620974D01*
X126155358Y-107655567D01*
X126138322Y-107687440D01*
X126115386Y-107715386D01*
X126087440Y-107738322D01*
X126055567Y-107755358D01*
X126031120Y-107762774D01*
X126008481Y-107772151D01*
X125988106Y-107785765D01*
X125970779Y-107803092D01*
X125957165Y-107823466D01*
X125947788Y-107846105D01*
X125943007Y-107870138D01*
X125943007Y-107894642D01*
X125947787Y-107918675D01*
X125957164Y-107941314D01*
X125970778Y-107961689D01*
X125988104Y-107979016D01*
X126025386Y-108009614D01*
X126048322Y-108037560D01*
X126065358Y-108069433D01*
X126075852Y-108104026D01*
X126080000Y-108146141D01*
X126080000Y-108803859D01*
X126075852Y-108845974D01*
X126065358Y-108880567D01*
X126048322Y-108912440D01*
X126025386Y-108940386D01*
X125997440Y-108963322D01*
X125965567Y-108980358D01*
X125930974Y-108990852D01*
X125888859Y-108995000D01*
X125281141Y-108995000D01*
X125239026Y-108990852D01*
X125204433Y-108980358D01*
X125164873Y-108959213D01*
X125158934Y-108955244D01*
X125136297Y-108945865D01*
X125112264Y-108941082D01*
X125087760Y-108941080D01*
X125063726Y-108945858D01*
X125041086Y-108955233D01*
X125035139Y-108959206D01*
X124995567Y-108980358D01*
X124960974Y-108990852D01*
X124918859Y-108995000D01*
X124311141Y-108995000D01*
X124269026Y-108990852D01*
X124234433Y-108980358D01*
X124202560Y-108963322D01*
X124174614Y-108940386D01*
X124151678Y-108912440D01*
X124134642Y-108880567D01*
X124124148Y-108845974D01*
X124120000Y-108803859D01*
X124120000Y-108146141D01*
X124124148Y-108104026D01*
X124134642Y-108069433D01*
X124151678Y-108037560D01*
X124174614Y-108009614D01*
X124202560Y-107986678D01*
X124234433Y-107969642D01*
X124258880Y-107962226D01*
X124281519Y-107952849D01*
X124301894Y-107939235D01*
X124319221Y-107921908D01*
X124332835Y-107901534D01*
X124342212Y-107878895D01*
X124343953Y-107870140D01*
X124973007Y-107870140D01*
X124973007Y-107894644D01*
X124977788Y-107918677D01*
X124987165Y-107941316D01*
X125000779Y-107961690D01*
X125018094Y-107979007D01*
X125020690Y-107981138D01*
X125041063Y-107994754D01*
X125063700Y-108004134D01*
X125087733Y-108008918D01*
X125112237Y-108008921D01*
X125136271Y-108004143D01*
X125158911Y-107994768D01*
X125164855Y-107990796D01*
X125168115Y-107989054D01*
X125188489Y-107975440D01*
X125193418Y-107970511D01*
X125217097Y-107965800D01*
X125228882Y-107962225D01*
X125251521Y-107952848D01*
X125271895Y-107939234D01*
X125289222Y-107921907D01*
X125302836Y-107901533D01*
X125312213Y-107878894D01*
X125316993Y-107854860D01*
X125316993Y-107830356D01*
X125312212Y-107806323D01*
X125302835Y-107783684D01*
X125289221Y-107763310D01*
X125271906Y-107745993D01*
X125269310Y-107743862D01*
X125248937Y-107730246D01*
X125226300Y-107720866D01*
X125202267Y-107716082D01*
X125177763Y-107716079D01*
X125153729Y-107720857D01*
X125131089Y-107730232D01*
X125125145Y-107734204D01*
X125121885Y-107735946D01*
X125101511Y-107749560D01*
X125096582Y-107754489D01*
X125072903Y-107759200D01*
X125061118Y-107762775D01*
X125038479Y-107772152D01*
X125018105Y-107785766D01*
X125000778Y-107803093D01*
X124987164Y-107823467D01*
X124977787Y-107846106D01*
X124973007Y-107870140D01*
X124343953Y-107870140D01*
X124346993Y-107854862D01*
X124346993Y-107830358D01*
X124342213Y-107806325D01*
X124332836Y-107783686D01*
X124319222Y-107763311D01*
X124301896Y-107745984D01*
X124264614Y-107715386D01*
X124241678Y-107687440D01*
X124224642Y-107655567D01*
X124214148Y-107620974D01*
X124210000Y-107578859D01*
X124210000Y-106921141D01*
X124214148Y-106879026D01*
X124224642Y-106844433D01*
X124241678Y-106812560D01*
X124264614Y-106784614D01*
X124292560Y-106761678D01*
X124324433Y-106744642D01*
X124359026Y-106734148D01*
X124401141Y-106730000D01*
X125008859Y-106730000D01*
X125050974Y-106734148D01*
G37*
G36*
X131202000Y-105205000D02*
G01*
X127802000Y-105205000D01*
X127802000Y-103695000D01*
X131202000Y-103695000D01*
X131202000Y-105205000D01*
G37*
G36*
X139330000Y-105205000D02*
G01*
X135930000Y-105205000D01*
X135930000Y-103695000D01*
X139330000Y-103695000D01*
X139330000Y-105205000D01*
G37*
G36*
X126500000Y-105200000D02*
G01*
X125200000Y-105200000D01*
X125200000Y-103600000D01*
X126500000Y-103600000D01*
X126500000Y-105200000D01*
G37*
G36*
X123200000Y-105200000D02*
G01*
X121900000Y-105200000D01*
X121900000Y-103600000D01*
X123200000Y-103600000D01*
X123200000Y-105200000D01*
G37*
G36*
X131202000Y-102665000D02*
G01*
X127802000Y-102665000D01*
X127802000Y-101155000D01*
X131202000Y-101155000D01*
X131202000Y-102665000D01*
G37*
G36*
X139330000Y-102665000D02*
G01*
X135930000Y-102665000D01*
X135930000Y-101155000D01*
X139330000Y-101155000D01*
X139330000Y-102665000D01*
G37*
G36*
X123320857Y-92442272D02*
G01*
X123521043Y-92525192D01*
X123521045Y-92525193D01*
X123611738Y-92585792D01*
X123701208Y-92645574D01*
X123854428Y-92798794D01*
X123951749Y-92944446D01*
X123967294Y-92963388D01*
X123976624Y-92971045D01*
X123977402Y-92978942D01*
X123984515Y-93002391D01*
X124057728Y-93179143D01*
X124100000Y-93391658D01*
X124100000Y-93608342D01*
X124057728Y-93820857D01*
X123984515Y-93997609D01*
X123977402Y-94021058D01*
X123975000Y-94045444D01*
X123975000Y-99954556D01*
X123977402Y-99978942D01*
X123984515Y-100002391D01*
X124057728Y-100179143D01*
X124100000Y-100391658D01*
X124100000Y-100608342D01*
X124057728Y-100820857D01*
X123984515Y-100997609D01*
X123977402Y-101021058D01*
X123976624Y-101028954D01*
X123967294Y-101036611D01*
X123951749Y-101055554D01*
X123854428Y-101201206D01*
X123701209Y-101354425D01*
X123521045Y-101474807D01*
X123521044Y-101474808D01*
X123521043Y-101474808D01*
X123320857Y-101557728D01*
X123108342Y-101600000D01*
X122891658Y-101600000D01*
X122679143Y-101557728D01*
X122478957Y-101474808D01*
X122478956Y-101474808D01*
X122478955Y-101474807D01*
X122298791Y-101354425D01*
X122145572Y-101201206D01*
X122048251Y-101055554D01*
X122032706Y-101036612D01*
X122023376Y-101028955D01*
X122022598Y-101021058D01*
X122015485Y-100997609D01*
X121942272Y-100820857D01*
X121900000Y-100608342D01*
X121900000Y-100391658D01*
X121942272Y-100179143D01*
X122015485Y-100002391D01*
X122022598Y-99978942D01*
X122025000Y-99954556D01*
X122025000Y-94045444D01*
X122022598Y-94021058D01*
X122015485Y-93997609D01*
X121942272Y-93820857D01*
X121900000Y-93608342D01*
X121900000Y-93391658D01*
X121942272Y-93179143D01*
X122015485Y-93002391D01*
X122022598Y-92978942D01*
X122023376Y-92971046D01*
X122032706Y-92963389D01*
X122048251Y-92944446D01*
X122145572Y-92798794D01*
X122298792Y-92645574D01*
X122388262Y-92585792D01*
X122478955Y-92525193D01*
X122478957Y-92525192D01*
X122679143Y-92442272D01*
X122891658Y-92400000D01*
X123108342Y-92400000D01*
X123320857Y-92442272D01*
G37*
G36*
X125905470Y-93619160D02*
G01*
X125963687Y-93630740D01*
X125968626Y-93632786D01*
X126128204Y-93698885D01*
X126276266Y-93797817D01*
X126402183Y-93923734D01*
X126501115Y-94071796D01*
X126541033Y-94168168D01*
X126554219Y-94200000D01*
X126569260Y-94236314D01*
X126604000Y-94410962D01*
X126604000Y-94589038D01*
X126587637Y-94671298D01*
X126569260Y-94763687D01*
X126501114Y-94928205D01*
X126402183Y-95076266D01*
X126399317Y-95080555D01*
X126387766Y-95102166D01*
X126380653Y-95125615D01*
X126378251Y-95150001D01*
X126380653Y-95174387D01*
X126387766Y-95197836D01*
X126399317Y-95219447D01*
X126414862Y-95238389D01*
X126433804Y-95253934D01*
X126455415Y-95265485D01*
X126478864Y-95272598D01*
X126503250Y-95275000D01*
X126550000Y-95275000D01*
X126550000Y-98725000D01*
X126503250Y-98725000D01*
X126478864Y-98727402D01*
X126455415Y-98734515D01*
X126433804Y-98746066D01*
X126414862Y-98761611D01*
X126399317Y-98780553D01*
X126387766Y-98802164D01*
X126380653Y-98825613D01*
X126378251Y-98849999D01*
X126380653Y-98874385D01*
X126387766Y-98897834D01*
X126399317Y-98919445D01*
X126501115Y-99071797D01*
X126569260Y-99236314D01*
X126604000Y-99410962D01*
X126604000Y-99589038D01*
X126569260Y-99763686D01*
X126501115Y-99928204D01*
X126402183Y-100076266D01*
X126276266Y-100202183D01*
X126128204Y-100301115D01*
X126031832Y-100341033D01*
X125963687Y-100369260D01*
X125905470Y-100380840D01*
X125789038Y-100404000D01*
X125610962Y-100404000D01*
X125494530Y-100380840D01*
X125436313Y-100369260D01*
X125368168Y-100341033D01*
X125271796Y-100301115D01*
X125123734Y-100202183D01*
X124997817Y-100076266D01*
X124898885Y-99928204D01*
X124830740Y-99763686D01*
X124796000Y-99589038D01*
X124796000Y-99410962D01*
X124830740Y-99236314D01*
X124898885Y-99071797D01*
X125000683Y-98919445D01*
X125012234Y-98897834D01*
X125019347Y-98874385D01*
X125021749Y-98849999D01*
X125019347Y-98825613D01*
X125012234Y-98802164D01*
X125000683Y-98780553D01*
X124985138Y-98761611D01*
X124966196Y-98746066D01*
X124944585Y-98734515D01*
X124921136Y-98727402D01*
X124896750Y-98725000D01*
X124800000Y-98725000D01*
X124800000Y-95275000D01*
X124896750Y-95275000D01*
X124921136Y-95272598D01*
X124944585Y-95265485D01*
X124966196Y-95253934D01*
X124985138Y-95238389D01*
X125000683Y-95219447D01*
X125012234Y-95197836D01*
X125019347Y-95174387D01*
X125021749Y-95150001D01*
X125019347Y-95125615D01*
X125012234Y-95102166D01*
X125000683Y-95080555D01*
X124997817Y-95076266D01*
X124898886Y-94928205D01*
X124830740Y-94763687D01*
X124812363Y-94671298D01*
X124796000Y-94589038D01*
X124796000Y-94410962D01*
X124830740Y-94236314D01*
X124845782Y-94200000D01*
X124858967Y-94168168D01*
X124898885Y-94071796D01*
X124997817Y-93923734D01*
X125123734Y-93797817D01*
X125271796Y-93698885D01*
X125431374Y-93632786D01*
X125436313Y-93630740D01*
X125494530Y-93619160D01*
X125610962Y-93596000D01*
X125789038Y-93596000D01*
X125905470Y-93619160D01*
G37*
G36*
X131202000Y-100125000D02*
G01*
X127802000Y-100125000D01*
X127802000Y-98615000D01*
X131202000Y-98615000D01*
X131202000Y-100125000D01*
G37*
G36*
X139330000Y-100125000D02*
G01*
X135930000Y-100125000D01*
X135930000Y-98615000D01*
X139330000Y-98615000D01*
X139330000Y-100125000D01*
G37*
G36*
X131202000Y-97585000D02*
G01*
X127802000Y-97585000D01*
X127802000Y-96075000D01*
X131202000Y-96075000D01*
X131202000Y-97585000D01*
G37*
G36*
X139330000Y-97585000D02*
G01*
X135930000Y-97585000D01*
X135930000Y-96075000D01*
X139330000Y-96075000D01*
X139330000Y-97585000D01*
G37*
G36*
X176879196Y-94249958D02*
G01*
X177115781Y-94347955D01*
X177328702Y-94490224D01*
X177509776Y-94671298D01*
X177652045Y-94884219D01*
X177750042Y-95120804D01*
X177800000Y-95371961D01*
X177800000Y-95628039D01*
X177750042Y-95879196D01*
X177652045Y-96115781D01*
X177509776Y-96328702D01*
X177328702Y-96509776D01*
X177115781Y-96652045D01*
X176879196Y-96750042D01*
X176753723Y-96775000D01*
X176628040Y-96800000D01*
X176371960Y-96800000D01*
X176246277Y-96775000D01*
X176120804Y-96750042D01*
X175884219Y-96652045D01*
X175671298Y-96509776D01*
X175490224Y-96328702D01*
X175347955Y-96115781D01*
X175249958Y-95879196D01*
X175200000Y-95628039D01*
X175200000Y-95371961D01*
X175249958Y-95120804D01*
X175347955Y-94884219D01*
X175490224Y-94671298D01*
X175671298Y-94490224D01*
X175884219Y-94347955D01*
X176120804Y-94249958D01*
X176371960Y-94200000D01*
X176628040Y-94200000D01*
X176879196Y-94249958D01*
G37*
G36*
X135769205Y-93529135D02*
G01*
X135951274Y-93565350D01*
X136142362Y-93644502D01*
X136314336Y-93759411D01*
X136460589Y-93905664D01*
X136575498Y-94077638D01*
X136654650Y-94268726D01*
X136695000Y-94471584D01*
X136695000Y-94678416D01*
X136654650Y-94881274D01*
X136575498Y-95072362D01*
X136460589Y-95244336D01*
X136314336Y-95390589D01*
X136142362Y-95505498D01*
X135951274Y-95584650D01*
X135773687Y-95619973D01*
X135748417Y-95625000D01*
X135541583Y-95625000D01*
X135516313Y-95619973D01*
X135338726Y-95584650D01*
X135147638Y-95505498D01*
X134975664Y-95390589D01*
X134829411Y-95244336D01*
X134714502Y-95072362D01*
X134635350Y-94881274D01*
X134595000Y-94678416D01*
X134595000Y-94471584D01*
X134635350Y-94268726D01*
X134714502Y-94077638D01*
X134829411Y-93905664D01*
X134975664Y-93759411D01*
X135147638Y-93644502D01*
X135338726Y-93565350D01*
X135520795Y-93529135D01*
X135541583Y-93525000D01*
X135748417Y-93525000D01*
X135769205Y-93529135D01*
G37*
G36*
X129160974Y-93484148D02*
G01*
X129195567Y-93494642D01*
X129235127Y-93515787D01*
X129241066Y-93519756D01*
X129263703Y-93529135D01*
X129287736Y-93533918D01*
X129312240Y-93533920D01*
X129336274Y-93529142D01*
X129358914Y-93519767D01*
X129364861Y-93515794D01*
X129404433Y-93494642D01*
X129439026Y-93484148D01*
X129481141Y-93480000D01*
X130088859Y-93480000D01*
X130130974Y-93484148D01*
X130165567Y-93494642D01*
X130197440Y-93511678D01*
X130225386Y-93534614D01*
X130248322Y-93562560D01*
X130265358Y-93594433D01*
X130275852Y-93629026D01*
X130280000Y-93671141D01*
X130280000Y-94328859D01*
X130275852Y-94370974D01*
X130265358Y-94405567D01*
X130248322Y-94437440D01*
X130225386Y-94465386D01*
X130197440Y-94488322D01*
X130165567Y-94505358D01*
X130130974Y-94515852D01*
X130088859Y-94520000D01*
X129481141Y-94520000D01*
X129439026Y-94515852D01*
X129404433Y-94505358D01*
X129364873Y-94484213D01*
X129358934Y-94480244D01*
X129336297Y-94470865D01*
X129312264Y-94466082D01*
X129287760Y-94466080D01*
X129263726Y-94470858D01*
X129241086Y-94480233D01*
X129235139Y-94484206D01*
X129195567Y-94505358D01*
X129160974Y-94515852D01*
X129118859Y-94520000D01*
X128511141Y-94520000D01*
X128469026Y-94515852D01*
X128434433Y-94505358D01*
X128402560Y-94488322D01*
X128374614Y-94465386D01*
X128351678Y-94437440D01*
X128334642Y-94405567D01*
X128324148Y-94370974D01*
X128320000Y-94328859D01*
X128320000Y-93671141D01*
X128324148Y-93629026D01*
X128334642Y-93594433D01*
X128351678Y-93562560D01*
X128374614Y-93534614D01*
X128402560Y-93511678D01*
X128434433Y-93494642D01*
X128469026Y-93484148D01*
X128511141Y-93480000D01*
X129118859Y-93480000D01*
X129160974Y-93484148D01*
G37*
G36*
X129160974Y-91884148D02*
G01*
X129195567Y-91894642D01*
X129235127Y-91915787D01*
X129241066Y-91919756D01*
X129263703Y-91929135D01*
X129287736Y-91933918D01*
X129312240Y-91933920D01*
X129336274Y-91929142D01*
X129358914Y-91919767D01*
X129364861Y-91915794D01*
X129404433Y-91894642D01*
X129439026Y-91884148D01*
X129481141Y-91880000D01*
X130088859Y-91880000D01*
X130130974Y-91884148D01*
X130165567Y-91894642D01*
X130197440Y-91911678D01*
X130225386Y-91934614D01*
X130248322Y-91962560D01*
X130265358Y-91994433D01*
X130275852Y-92029026D01*
X130280000Y-92071141D01*
X130280000Y-92728859D01*
X130275852Y-92770974D01*
X130265358Y-92805567D01*
X130248322Y-92837440D01*
X130225386Y-92865386D01*
X130197440Y-92888322D01*
X130165567Y-92905358D01*
X130130974Y-92915852D01*
X130088859Y-92920000D01*
X129481141Y-92920000D01*
X129439026Y-92915852D01*
X129404433Y-92905358D01*
X129364873Y-92884213D01*
X129358934Y-92880244D01*
X129336297Y-92870865D01*
X129312264Y-92866082D01*
X129287760Y-92866080D01*
X129263726Y-92870858D01*
X129241086Y-92880233D01*
X129235139Y-92884206D01*
X129195567Y-92905358D01*
X129160974Y-92915852D01*
X129118859Y-92920000D01*
X128511141Y-92920000D01*
X128469026Y-92915852D01*
X128434433Y-92905358D01*
X128402560Y-92888322D01*
X128374614Y-92865386D01*
X128351678Y-92837440D01*
X128334642Y-92805567D01*
X128324148Y-92770974D01*
X128320000Y-92728859D01*
X128320000Y-92071141D01*
X128324148Y-92029026D01*
X128334642Y-91994433D01*
X128351678Y-91962560D01*
X128374614Y-91934614D01*
X128402560Y-91911678D01*
X128434433Y-91894642D01*
X128469026Y-91884148D01*
X128511141Y-91880000D01*
X129118859Y-91880000D01*
X129160974Y-91884148D01*
G37*
G36*
X140750000Y-92275000D02*
G01*
X139450000Y-92275000D01*
X139450000Y-90675000D01*
X140750000Y-90675000D01*
X140750000Y-92275000D01*
G37*
G36*
X137450000Y-92275000D02*
G01*
X136150000Y-92275000D01*
X136150000Y-90675000D01*
X137450000Y-90675000D01*
X137450000Y-92275000D01*
G37*
G36*
X126718766Y-85778821D02*
G01*
X126855257Y-85835358D01*
X126978097Y-85917437D01*
X127082563Y-86021903D01*
X127164642Y-86144743D01*
X127221179Y-86281234D01*
X127250000Y-86426130D01*
X127250000Y-86573870D01*
X127221179Y-86718766D01*
X127164642Y-86855257D01*
X127082563Y-86978097D01*
X126978097Y-87082563D01*
X126855257Y-87164642D01*
X126718766Y-87221179D01*
X126573870Y-87250000D01*
X126426130Y-87250000D01*
X126281234Y-87221179D01*
X126144743Y-87164642D01*
X126021903Y-87082563D01*
X125917437Y-86978097D01*
X125835358Y-86855257D01*
X125778821Y-86718766D01*
X125750000Y-86573870D01*
X125750000Y-86426130D01*
X125778821Y-86281234D01*
X125835358Y-86144743D01*
X125917437Y-86021903D01*
X126021903Y-85917437D01*
X126144743Y-85835358D01*
X126281234Y-85778821D01*
X126426130Y-85750000D01*
X126573870Y-85750000D01*
X126718766Y-85778821D01*
G37*
G36*
X175218766Y-73778821D02*
G01*
X175355257Y-73835358D01*
X175478097Y-73917437D01*
X175582563Y-74021903D01*
X175664642Y-74144743D01*
X175721179Y-74281234D01*
X175750000Y-74426130D01*
X175750000Y-74573870D01*
X175721179Y-74718766D01*
X175664642Y-74855257D01*
X175582563Y-74978097D01*
X175478097Y-75082563D01*
X175355257Y-75164642D01*
X175218766Y-75221179D01*
X175073870Y-75250000D01*
X174926130Y-75250000D01*
X174781234Y-75221179D01*
X174644743Y-75164642D01*
X174521903Y-75082563D01*
X174417437Y-74978097D01*
X174335358Y-74855257D01*
X174278821Y-74718766D01*
X174250000Y-74573870D01*
X174250000Y-74426130D01*
X174278821Y-74281234D01*
X174335358Y-74144743D01*
X174417437Y-74021903D01*
X174521903Y-73917437D01*
X174644743Y-73835358D01*
X174781234Y-73778821D01*
X174926130Y-73750000D01*
X175073870Y-73750000D01*
X175218766Y-73778821D01*
G37*
M02*
