%TF.GenerationSoftware,KiCad,Pcbnew,6.0.0+dfsg1-2*%
%TF.CreationDate,2022-03-05T21:21:33-05:00*%
%TF.ProjectId,RUSP_Antenna,52555350-5f41-46e7-9465-6e6e612e6b69,rev?*%
%TF.SameCoordinates,Original*%
%TF.FileFunction,Copper,L1,Top*%
%TF.FilePolarity,Positive*%
%FSLAX46Y46*%
G04 Gerber Fmt 4.6, Leading zero omitted, Abs format (unit mm)*
G04 Created by KiCad (PCBNEW 6.0.0+dfsg1-2) date 2022-03-05 21:21:33*
%MOMM*%
%LPD*%
G01*
G04 APERTURE LIST*
G04 Aperture macros list*
%AMRoundRect*
0 Rectangle with rounded corners*
0 $1 Rounding radius*
0 $2 $3 $4 $5 $6 $7 $8 $9 X,Y pos of 4 corners*
0 Add a 4 corners polygon primitive as box body*
4,1,4,$2,$3,$4,$5,$6,$7,$8,$9,$2,$3,0*
0 Add four circle primitives for the rounded corners*
1,1,$1+$1,$2,$3*
1,1,$1+$1,$4,$5*
1,1,$1+$1,$6,$7*
1,1,$1+$1,$8,$9*
0 Add four rect primitives between the rounded corners*
20,1,$1+$1,$2,$3,$4,$5,0*
20,1,$1+$1,$4,$5,$6,$7,0*
20,1,$1+$1,$6,$7,$8,$9,0*
20,1,$1+$1,$8,$9,$2,$3,0*%
G04 Aperture macros list end*
%TA.AperFunction,SMDPad,CuDef*%
%ADD10C,0.750000*%
%TD*%
%TA.AperFunction,SMDPad,CuDef*%
%ADD11R,1.000000X1.000000*%
%TD*%
%TA.AperFunction,SMDPad,CuDef*%
%ADD12R,2.200000X1.050000*%
%TD*%
%TA.AperFunction,SMDPad,CuDef*%
%ADD13RoundRect,0.225000X-0.225000X-0.250000X0.225000X-0.250000X0.225000X0.250000X-0.225000X0.250000X0*%
%TD*%
%TA.AperFunction,SMDPad,CuDef*%
%ADD14RoundRect,0.225000X-0.250000X0.225000X-0.250000X-0.225000X0.250000X-0.225000X0.250000X0.225000X0*%
%TD*%
%TA.AperFunction,SMDPad,CuDef*%
%ADD15RoundRect,0.218750X0.256250X-0.218750X0.256250X0.218750X-0.256250X0.218750X-0.256250X-0.218750X0*%
%TD*%
%TA.AperFunction,SMDPad,CuDef*%
%ADD16R,2.300000X1.650000*%
%TD*%
%TA.AperFunction,SMDPad,CuDef*%
%ADD17RoundRect,0.200000X0.200000X0.275000X-0.200000X0.275000X-0.200000X-0.275000X0.200000X-0.275000X0*%
%TD*%
%TA.AperFunction,SMDPad,CuDef*%
%ADD18RoundRect,0.218750X0.218750X0.256250X-0.218750X0.256250X-0.218750X-0.256250X0.218750X-0.256250X0*%
%TD*%
%TA.AperFunction,Conductor*%
%ADD19C,1.000000*%
%TD*%
%TA.AperFunction,Conductor*%
%ADD20C,2.000000*%
%TD*%
G04 APERTURE END LIST*
D10*
%TO.P,FID1,*%
%TO.N,*%
X125750000Y-103750000D03*
%TD*%
%TO.P,FID2,*%
%TO.N,*%
X151750000Y-90750000D03*
%TD*%
D11*
%TO.P,J1,1,In*%
%TO.N,Net-(J1-Pad1)*%
X140050000Y-102550000D03*
D12*
%TO.P,J1,2,Ext*%
%TO.N,GNDA*%
X138550000Y-101075000D03*
X138550000Y-104025000D03*
D11*
X137050000Y-102550000D03*
%TD*%
D13*
%TO.P,C1,1*%
%TO.N,Net-(C1-Pad1)*%
X150925000Y-103750000D03*
%TO.P,C1,2*%
%TO.N,Net-(C1-Pad2)*%
X152475000Y-103750000D03*
%TD*%
D14*
%TO.P,C2,1*%
%TO.N,GNDA*%
X149490000Y-102245000D03*
%TO.P,C2,2*%
%TO.N,Net-(C1-Pad1)*%
X149490000Y-103795000D03*
%TD*%
D15*
%TO.P,L1,1,1*%
%TO.N,Net-(C1-Pad2)*%
X153160000Y-102277500D03*
%TO.P,L1,2,2*%
%TO.N,GNDA*%
X153160000Y-100702500D03*
%TD*%
D16*
%TO.P,AE1,*%
%TO.N,*%
X163850000Y-92475000D03*
%TO.P,AE1,1,A*%
%TO.N,Net-(AE1-Pad1)*%
X163850000Y-97125000D03*
%TD*%
D17*
%TO.P,R1,1*%
%TO.N,Net-(C3-Pad1)*%
X143635000Y-103700000D03*
%TO.P,R1,2*%
%TO.N,Net-(J1-Pad1)*%
X141985000Y-103700000D03*
%TD*%
D18*
%TO.P,L2,1,1*%
%TO.N,Net-(AE1-Pad1)*%
X155487500Y-103690000D03*
%TO.P,L2,2,2*%
%TO.N,Net-(C1-Pad2)*%
X153912500Y-103690000D03*
%TD*%
D15*
%TO.P,L3,1,1*%
%TO.N,Net-(C1-Pad1)*%
X148010000Y-103797500D03*
%TO.P,L3,2,2*%
%TO.N,GNDA*%
X148010000Y-102222500D03*
%TD*%
D13*
%TO.P,C3,1*%
%TO.N,Net-(C3-Pad1)*%
X145025000Y-103700000D03*
%TO.P,C3,2*%
%TO.N,Net-(C1-Pad1)*%
X146575000Y-103700000D03*
%TD*%
D19*
%TO.N,Net-(AE1-Pad1)*%
X155900000Y-104225480D02*
X155487500Y-103812980D01*
D20*
X164225480Y-104200000D02*
X155997500Y-104200000D01*
X155997500Y-104200000D02*
X155972020Y-104225480D01*
X164225480Y-97500480D02*
X164225480Y-98000000D01*
X164225480Y-98000000D02*
X164225480Y-104200000D01*
D19*
X155487500Y-103812980D02*
X155487500Y-103690000D01*
D20*
X155972020Y-104225480D02*
X155900000Y-104225480D01*
D19*
%TO.N,Net-(C1-Pad1)*%
X148010000Y-103797500D02*
X146672500Y-103797500D01*
X149487500Y-103797500D02*
X149490000Y-103795000D01*
X149535000Y-103750000D02*
X149490000Y-103795000D01*
X148010000Y-103797500D02*
X149487500Y-103797500D01*
X150925000Y-103750000D02*
X149535000Y-103750000D01*
X146672500Y-103797500D02*
X146575000Y-103700000D01*
%TO.N,Net-(C1-Pad2)*%
X153290000Y-103690000D02*
X152535000Y-103690000D01*
X153912500Y-103690000D02*
X153290000Y-103690000D01*
X153160000Y-102277500D02*
X153160000Y-103560000D01*
X153160000Y-103560000D02*
X153290000Y-103690000D01*
X152535000Y-103690000D02*
X152475000Y-103750000D01*
%TO.N,Net-(C3-Pad1)*%
X143635000Y-103700000D02*
X145025000Y-103700000D01*
%TO.N,Net-(J1-Pad1)*%
X140835000Y-102550000D02*
X141985000Y-103700000D01*
X140050000Y-102550000D02*
X140835000Y-102550000D01*
%TD*%
%TA.AperFunction,Conductor*%
%TO.N,GNDA*%
G36*
X154692121Y-89370002D02*
G01*
X154738614Y-89423658D01*
X154750000Y-89476000D01*
X154750000Y-103199809D01*
X154729998Y-103267930D01*
X154676342Y-103314423D01*
X154606068Y-103324527D01*
X154541488Y-103295033D01*
X154511733Y-103257012D01*
X154479159Y-103193082D01*
X154479158Y-103193080D01*
X154474658Y-103184249D01*
X154380751Y-103090342D01*
X154282501Y-103040281D01*
X154271254Y-103034550D01*
X154271253Y-103034550D01*
X154262420Y-103030049D01*
X154164246Y-103014500D01*
X154131299Y-103014500D01*
X154099964Y-103010541D01*
X154095061Y-103009282D01*
X154087987Y-103006524D01*
X154038097Y-102999956D01*
X153970054Y-102990998D01*
X153905127Y-102962276D01*
X153866035Y-102903011D01*
X153860500Y-102866076D01*
X153860500Y-102234984D01*
X153845276Y-102109180D01*
X153842592Y-102102077D01*
X153840779Y-102094695D01*
X153841739Y-102094459D01*
X153835500Y-102060297D01*
X153835500Y-102025754D01*
X153819951Y-101927580D01*
X153759658Y-101809249D01*
X153720310Y-101769901D01*
X153686284Y-101707589D01*
X153691349Y-101636774D01*
X153733896Y-101579938D01*
X153743102Y-101573662D01*
X153864514Y-101498530D01*
X153875915Y-101489494D01*
X153985298Y-101379920D01*
X153994310Y-101368509D01*
X154075553Y-101236709D01*
X154081697Y-101223532D01*
X154130579Y-101076157D01*
X154133445Y-101062790D01*
X154142614Y-100973300D01*
X154138525Y-100959376D01*
X154137135Y-100958171D01*
X154129452Y-100956500D01*
X152195115Y-100956500D01*
X152179876Y-100960975D01*
X152178671Y-100962365D01*
X152177158Y-100969321D01*
X152177337Y-100972782D01*
X152186804Y-101064021D01*
X152189697Y-101077417D01*
X152238830Y-101224687D01*
X152245004Y-101237866D01*
X152326470Y-101369514D01*
X152335506Y-101380915D01*
X152445080Y-101490298D01*
X152456491Y-101499310D01*
X152576792Y-101573465D01*
X152624286Y-101626238D01*
X152635709Y-101696309D01*
X152607435Y-101761433D01*
X152599771Y-101769820D01*
X152560342Y-101809249D01*
X152500049Y-101927580D01*
X152484500Y-102025754D01*
X152484500Y-102058701D01*
X152480541Y-102090036D01*
X152479282Y-102094939D01*
X152476524Y-102102013D01*
X152459500Y-102231326D01*
X152459500Y-102884068D01*
X152439498Y-102952189D01*
X152385842Y-102998682D01*
X152369416Y-103004393D01*
X152366680Y-103004724D01*
X152359582Y-103007406D01*
X152356256Y-103008223D01*
X152341808Y-103012176D01*
X152338529Y-103013166D01*
X152331046Y-103014472D01*
X152285308Y-103034550D01*
X152273234Y-103039850D01*
X152267130Y-103042341D01*
X152208077Y-103064655D01*
X152201816Y-103068958D01*
X152198509Y-103070687D01*
X152159844Y-103083475D01*
X152116874Y-103090281D01*
X151996780Y-103151472D01*
X151901472Y-103246780D01*
X151840281Y-103366874D01*
X151838731Y-103376663D01*
X151838730Y-103376665D01*
X151827351Y-103448510D01*
X151824500Y-103466512D01*
X151822250Y-103466156D01*
X151800326Y-103523676D01*
X151743188Y-103565816D01*
X151672338Y-103570375D01*
X151610271Y-103535906D01*
X151576691Y-103473352D01*
X151575703Y-103466480D01*
X151575500Y-103466512D01*
X151561270Y-103376665D01*
X151561269Y-103376663D01*
X151559719Y-103366874D01*
X151498528Y-103246780D01*
X151403220Y-103151472D01*
X151283126Y-103090281D01*
X151273337Y-103088731D01*
X151273335Y-103088730D01*
X151238841Y-103083267D01*
X151183488Y-103074500D01*
X151143799Y-103074500D01*
X151112464Y-103070541D01*
X151107561Y-103069282D01*
X151100487Y-103066524D01*
X151026191Y-103056743D01*
X150975261Y-103050038D01*
X150975260Y-103050038D01*
X150971174Y-103049500D01*
X150469570Y-103049500D01*
X150401449Y-103029498D01*
X150354956Y-102975842D01*
X150344852Y-102905568D01*
X150362310Y-102857384D01*
X150405004Y-102788120D01*
X150411151Y-102774939D01*
X150460491Y-102626186D01*
X150463358Y-102612810D01*
X150472672Y-102521903D01*
X150472929Y-102516874D01*
X150468525Y-102501876D01*
X150467135Y-102500671D01*
X150459452Y-102499000D01*
X148532168Y-102499000D01*
X148464047Y-102478998D01*
X148463683Y-102478726D01*
X148453452Y-102476500D01*
X147045115Y-102476500D01*
X147029876Y-102480975D01*
X147028671Y-102482365D01*
X147027158Y-102489321D01*
X147027337Y-102492782D01*
X147036804Y-102584021D01*
X147039697Y-102597417D01*
X147088830Y-102744687D01*
X147095004Y-102757866D01*
X147176472Y-102889518D01*
X147179026Y-102892740D01*
X147180084Y-102895354D01*
X147180324Y-102895742D01*
X147180258Y-102895783D01*
X147205660Y-102958551D01*
X147192487Y-103028315D01*
X147143687Y-103079881D01*
X147080277Y-103097000D01*
X147074694Y-103097000D01*
X147017491Y-103083267D01*
X146981098Y-103064724D01*
X146933126Y-103040281D01*
X146923337Y-103038731D01*
X146923335Y-103038730D01*
X146893851Y-103034060D01*
X146833488Y-103024500D01*
X146786018Y-103024500D01*
X146763057Y-103022390D01*
X146753081Y-103020541D01*
X146619308Y-102995748D01*
X146611728Y-102996185D01*
X146611727Y-102996185D01*
X146582572Y-102997866D01*
X146450041Y-103005507D01*
X146420900Y-103014472D01*
X146406409Y-103018930D01*
X146369360Y-103024500D01*
X146316512Y-103024500D01*
X146256149Y-103034060D01*
X146226665Y-103038730D01*
X146226663Y-103038731D01*
X146216874Y-103040281D01*
X146096780Y-103101472D01*
X146001472Y-103196780D01*
X145940281Y-103316874D01*
X145924500Y-103416512D01*
X145922250Y-103416156D01*
X145900326Y-103473676D01*
X145843188Y-103515816D01*
X145772338Y-103520375D01*
X145710271Y-103485906D01*
X145676691Y-103423352D01*
X145675703Y-103416480D01*
X145675500Y-103416512D01*
X145661270Y-103326665D01*
X145661269Y-103326663D01*
X145659719Y-103316874D01*
X145598528Y-103196780D01*
X145503220Y-103101472D01*
X145383126Y-103040281D01*
X145373337Y-103038731D01*
X145373335Y-103038730D01*
X145343851Y-103034060D01*
X145283488Y-103024500D01*
X145243799Y-103024500D01*
X145212464Y-103020541D01*
X145207561Y-103019282D01*
X145200487Y-103016524D01*
X145071174Y-102999500D01*
X143592484Y-102999500D01*
X143466680Y-103014724D01*
X143459576Y-103017408D01*
X143452195Y-103019221D01*
X143451959Y-103018261D01*
X143417794Y-103024501D01*
X143403482Y-103024501D01*
X143398589Y-103025276D01*
X143398588Y-103025276D01*
X143319494Y-103037802D01*
X143319492Y-103037803D01*
X143309696Y-103039354D01*
X143300859Y-103043857D01*
X143300858Y-103043857D01*
X143282320Y-103053303D01*
X143196658Y-103096950D01*
X143106950Y-103186658D01*
X143076316Y-103246780D01*
X143055617Y-103287405D01*
X143049354Y-103299696D01*
X143048042Y-103307977D01*
X143040645Y-103325446D01*
X142979777Y-103440407D01*
X142979775Y-103440412D01*
X142976224Y-103447119D01*
X142934919Y-103611559D01*
X142934879Y-103619159D01*
X142933928Y-103626689D01*
X142931219Y-103626347D01*
X142914546Y-103682044D01*
X142899529Y-103694918D01*
X142931068Y-103752223D01*
X142932543Y-103766038D01*
X142933198Y-103765962D01*
X142934071Y-103773506D01*
X142934031Y-103781105D01*
X142935805Y-103788492D01*
X142935805Y-103788496D01*
X142968896Y-103926324D01*
X142973612Y-103945968D01*
X142977093Y-103952712D01*
X142977094Y-103952715D01*
X143001617Y-104000227D01*
X143041460Y-104077420D01*
X143042401Y-104079244D01*
X143048232Y-104093218D01*
X143049354Y-104100304D01*
X143106950Y-104213342D01*
X143196658Y-104303050D01*
X143309696Y-104360646D01*
X143319485Y-104362196D01*
X143319487Y-104362197D01*
X143340343Y-104365500D01*
X143403481Y-104375500D01*
X143416201Y-104375500D01*
X143447536Y-104379459D01*
X143452439Y-104380718D01*
X143459513Y-104383476D01*
X143588826Y-104400500D01*
X145067516Y-104400500D01*
X145193320Y-104385276D01*
X145200423Y-104382592D01*
X145207805Y-104380779D01*
X145208041Y-104381739D01*
X145242203Y-104375500D01*
X145283488Y-104375500D01*
X145346626Y-104365500D01*
X145373335Y-104361270D01*
X145373337Y-104361269D01*
X145383126Y-104359719D01*
X145503220Y-104298528D01*
X145598528Y-104203220D01*
X145659719Y-104083126D01*
X145663257Y-104060791D01*
X145675500Y-103983488D01*
X145677750Y-103983844D01*
X145699674Y-103926324D01*
X145756812Y-103884184D01*
X145827662Y-103879625D01*
X145889729Y-103914094D01*
X145923309Y-103976648D01*
X145924297Y-103983520D01*
X145924500Y-103983488D01*
X145936744Y-104060791D01*
X145940281Y-104083126D01*
X146001472Y-104203220D01*
X146096780Y-104298528D01*
X146216874Y-104359719D01*
X146226666Y-104361270D01*
X146231351Y-104362012D01*
X146289386Y-104387307D01*
X146306957Y-104401084D01*
X146313883Y-104404211D01*
X146316837Y-104406000D01*
X146329788Y-104413387D01*
X146332834Y-104415020D01*
X146339047Y-104419387D01*
X146386255Y-104437793D01*
X146397866Y-104442320D01*
X146403945Y-104444875D01*
X146461484Y-104470855D01*
X146468955Y-104472240D01*
X146472223Y-104473264D01*
X146486664Y-104477377D01*
X146489937Y-104478217D01*
X146497013Y-104480976D01*
X146541683Y-104486856D01*
X146559606Y-104489216D01*
X146566123Y-104490248D01*
X146571918Y-104491322D01*
X146628192Y-104501752D01*
X146635772Y-104501315D01*
X146635773Y-104501315D01*
X146689644Y-104498209D01*
X146696896Y-104498000D01*
X149458859Y-104498000D01*
X149467429Y-104498292D01*
X149516854Y-104501662D01*
X149516858Y-104501662D01*
X149524430Y-104502178D01*
X149531906Y-104500873D01*
X149531909Y-104500873D01*
X149586632Y-104491322D01*
X149593158Y-104490359D01*
X149633596Y-104485465D01*
X149655820Y-104482776D01*
X149662927Y-104480091D01*
X149666220Y-104479282D01*
X149680691Y-104475323D01*
X149683967Y-104474334D01*
X149691454Y-104473027D01*
X149703526Y-104467728D01*
X149718567Y-104461126D01*
X149769211Y-104450500D01*
X150967516Y-104450500D01*
X151093320Y-104435276D01*
X151100423Y-104432592D01*
X151107805Y-104430779D01*
X151108041Y-104431739D01*
X151142203Y-104425500D01*
X151183488Y-104425500D01*
X151243851Y-104415940D01*
X151273335Y-104411270D01*
X151273337Y-104411269D01*
X151283126Y-104409719D01*
X151403220Y-104348528D01*
X151498528Y-104253220D01*
X151559719Y-104133126D01*
X151563398Y-104109901D01*
X151575500Y-104033488D01*
X151577750Y-104033844D01*
X151599674Y-103976324D01*
X151656812Y-103934184D01*
X151727662Y-103929625D01*
X151789729Y-103964094D01*
X151823309Y-104026648D01*
X151824297Y-104033520D01*
X151824500Y-104033488D01*
X151836603Y-104109901D01*
X151840281Y-104133126D01*
X151901472Y-104253220D01*
X151996780Y-104348528D01*
X152116874Y-104409719D01*
X152126663Y-104411269D01*
X152126665Y-104411270D01*
X152156149Y-104415940D01*
X152216512Y-104425500D01*
X152267866Y-104425500D01*
X152306173Y-104431465D01*
X152342775Y-104443146D01*
X152350355Y-104443663D01*
X152350356Y-104443663D01*
X152504354Y-104454162D01*
X152504358Y-104454162D01*
X152511930Y-104454678D01*
X152519407Y-104453373D01*
X152519408Y-104453373D01*
X152668360Y-104427376D01*
X152690024Y-104425500D01*
X152733488Y-104425500D01*
X152793851Y-104415940D01*
X152823335Y-104411270D01*
X152823337Y-104411269D01*
X152833126Y-104409719D01*
X152841962Y-104405217D01*
X152843894Y-104404233D01*
X152848097Y-104403224D01*
X152851393Y-104402153D01*
X152851477Y-104402412D01*
X152901096Y-104390500D01*
X153213871Y-104390500D01*
X153236831Y-104392610D01*
X153245692Y-104394252D01*
X153253272Y-104393815D01*
X153253273Y-104393815D01*
X153307144Y-104390709D01*
X153314396Y-104390500D01*
X153955016Y-104390500D01*
X154080820Y-104375276D01*
X154087923Y-104372592D01*
X154095305Y-104370779D01*
X154095541Y-104371739D01*
X154129703Y-104365500D01*
X154164246Y-104365500D01*
X154262420Y-104349951D01*
X154380751Y-104289658D01*
X154474658Y-104195751D01*
X154474888Y-104195299D01*
X154526971Y-104155137D01*
X154597707Y-104149061D01*
X154660499Y-104182193D01*
X154695410Y-104244013D01*
X154698674Y-104274200D01*
X154698356Y-104298528D01*
X154698074Y-104320074D01*
X154699053Y-104325771D01*
X154699053Y-104325772D01*
X154729292Y-104501752D01*
X154735438Y-104537523D01*
X154737440Y-104542949D01*
X154737440Y-104542950D01*
X154742212Y-104555886D01*
X154750000Y-104599496D01*
X154750000Y-105024000D01*
X154729998Y-105092121D01*
X154676342Y-105138614D01*
X154624000Y-105150000D01*
X140074766Y-105150000D01*
X140006645Y-105129998D01*
X139960152Y-105076342D01*
X139950048Y-105006068D01*
X139979542Y-104941488D01*
X139999200Y-104923174D01*
X140005726Y-104918283D01*
X140018285Y-104905724D01*
X140094786Y-104803649D01*
X140103324Y-104788054D01*
X140148478Y-104667606D01*
X140152105Y-104652351D01*
X140157631Y-104601486D01*
X140158000Y-104594672D01*
X140158000Y-104297115D01*
X140153525Y-104281876D01*
X140152135Y-104280671D01*
X140144452Y-104279000D01*
X136960116Y-104279000D01*
X136944877Y-104283475D01*
X136943672Y-104284865D01*
X136942001Y-104292548D01*
X136942001Y-104594669D01*
X136942371Y-104601490D01*
X136947895Y-104652352D01*
X136951521Y-104667604D01*
X136996676Y-104788054D01*
X137005214Y-104803649D01*
X137081715Y-104905724D01*
X137094274Y-104918283D01*
X137100800Y-104923174D01*
X137143314Y-104980034D01*
X137148339Y-105050853D01*
X137114279Y-105113146D01*
X137051948Y-105147136D01*
X137025234Y-105150000D01*
X124476000Y-105150000D01*
X124407879Y-105129998D01*
X124361386Y-105076342D01*
X124350000Y-105024000D01*
X124350000Y-103739455D01*
X124994825Y-103739455D01*
X124995512Y-103746462D01*
X124995512Y-103746465D01*
X124998909Y-103781105D01*
X125011255Y-103907025D01*
X125064402Y-104066791D01*
X125068049Y-104072813D01*
X125068050Y-104072815D01*
X125147807Y-104204509D01*
X125151624Y-104210812D01*
X125156513Y-104215875D01*
X125156514Y-104215876D01*
X125183686Y-104244013D01*
X125268586Y-104331929D01*
X125274483Y-104335788D01*
X125403577Y-104420266D01*
X125403581Y-104420268D01*
X125409475Y-104424125D01*
X125567289Y-104482815D01*
X125574270Y-104483746D01*
X125574272Y-104483747D01*
X125615263Y-104489216D01*
X125734183Y-104505083D01*
X125741194Y-104504445D01*
X125741198Y-104504445D01*
X125894843Y-104490462D01*
X125901864Y-104489823D01*
X125908566Y-104487645D01*
X125908568Y-104487645D01*
X126055298Y-104439970D01*
X126055301Y-104439969D01*
X126061997Y-104437793D01*
X126206623Y-104351578D01*
X126211717Y-104346727D01*
X126211721Y-104346724D01*
X126323454Y-104240322D01*
X126323455Y-104240320D01*
X126328554Y-104235465D01*
X126338595Y-104220353D01*
X126385961Y-104149061D01*
X126421731Y-104095223D01*
X126481521Y-103937823D01*
X126497428Y-103824644D01*
X126504404Y-103775010D01*
X126504404Y-103775006D01*
X126504955Y-103771088D01*
X126505249Y-103750000D01*
X126496152Y-103668895D01*
X126487266Y-103589672D01*
X126487265Y-103589669D01*
X126486481Y-103582676D01*
X126431108Y-103423668D01*
X126341884Y-103280879D01*
X126329025Y-103267930D01*
X126228205Y-103166403D01*
X126228201Y-103166400D01*
X126223242Y-103161406D01*
X126208976Y-103152352D01*
X126139848Y-103108483D01*
X126118081Y-103094669D01*
X136042001Y-103094669D01*
X136042371Y-103101490D01*
X136047895Y-103152352D01*
X136051521Y-103167604D01*
X136096676Y-103288054D01*
X136105214Y-103303649D01*
X136181715Y-103405724D01*
X136194276Y-103418285D01*
X136296351Y-103494786D01*
X136311946Y-103503324D01*
X136432394Y-103548478D01*
X136447649Y-103552105D01*
X136498514Y-103557631D01*
X136505328Y-103558000D01*
X136816000Y-103558000D01*
X136884121Y-103578002D01*
X136930614Y-103631658D01*
X136942000Y-103684000D01*
X136942000Y-103752885D01*
X136946475Y-103768124D01*
X136947865Y-103769329D01*
X136955548Y-103771000D01*
X138277885Y-103771000D01*
X138293124Y-103766525D01*
X138294329Y-103765135D01*
X138296000Y-103757452D01*
X138296000Y-103752885D01*
X138804000Y-103752885D01*
X138808475Y-103768124D01*
X138809865Y-103769329D01*
X138817548Y-103771000D01*
X140139884Y-103771000D01*
X140155123Y-103766525D01*
X140156328Y-103765135D01*
X140157999Y-103757452D01*
X140157999Y-103455331D01*
X140157629Y-103448510D01*
X140151286Y-103390105D01*
X140163815Y-103320223D01*
X140212137Y-103268208D01*
X140276549Y-103250500D01*
X140492653Y-103250500D01*
X140560774Y-103270502D01*
X140581749Y-103287405D01*
X140989261Y-103694918D01*
X141390133Y-104095790D01*
X141413304Y-104127682D01*
X141456950Y-104213342D01*
X141546658Y-104303050D01*
X141659696Y-104360646D01*
X141669485Y-104362196D01*
X141669487Y-104362197D01*
X141690343Y-104365500D01*
X141753481Y-104375500D01*
X141773981Y-104375500D01*
X141796942Y-104377610D01*
X141940692Y-104404252D01*
X141948272Y-104403815D01*
X141948273Y-104403815D01*
X141979499Y-104402015D01*
X142109959Y-104394493D01*
X142122259Y-104390709D01*
X142153595Y-104381069D01*
X142190644Y-104375499D01*
X142216518Y-104375499D01*
X142240260Y-104371739D01*
X142300506Y-104362198D01*
X142300508Y-104362197D01*
X142310304Y-104360646D01*
X142423342Y-104303050D01*
X142513050Y-104213342D01*
X142570646Y-104100304D01*
X142572197Y-104090508D01*
X142573112Y-104087693D01*
X142585514Y-104060791D01*
X142622628Y-104000227D01*
X142622631Y-104000221D01*
X142626598Y-103993747D01*
X142678146Y-103832225D01*
X142682330Y-103770847D01*
X142706918Y-103704245D01*
X142718071Y-103695838D01*
X142687827Y-103648227D01*
X142684784Y-103635029D01*
X142683329Y-103626689D01*
X142660528Y-103496047D01*
X142656077Y-103485906D01*
X142595431Y-103347750D01*
X142595430Y-103347748D01*
X142592379Y-103340798D01*
X142587758Y-103334776D01*
X142583888Y-103328232D01*
X142584320Y-103327977D01*
X142571165Y-103302972D01*
X142570646Y-103299696D01*
X142564384Y-103287405D01*
X142543684Y-103246780D01*
X142513050Y-103186658D01*
X142423342Y-103096950D01*
X142337679Y-103053303D01*
X142305788Y-103030131D01*
X141350582Y-102074925D01*
X141344728Y-102068659D01*
X141312165Y-102031331D01*
X141307169Y-102025604D01*
X141255527Y-101989310D01*
X141250242Y-101985384D01*
X141207283Y-101951700D01*
X147027386Y-101951700D01*
X147031475Y-101965624D01*
X147032865Y-101966829D01*
X147040548Y-101968500D01*
X147737885Y-101968500D01*
X147753124Y-101964025D01*
X147754329Y-101962635D01*
X147756000Y-101954952D01*
X147756000Y-101950385D01*
X148264000Y-101950385D01*
X148268475Y-101965624D01*
X148269865Y-101966829D01*
X148277548Y-101968500D01*
X148967832Y-101968500D01*
X149035953Y-101988502D01*
X149036317Y-101988774D01*
X149046548Y-101991000D01*
X149217885Y-101991000D01*
X149233124Y-101986525D01*
X149234329Y-101985135D01*
X149236000Y-101977452D01*
X149236000Y-101972885D01*
X149744000Y-101972885D01*
X149748475Y-101988124D01*
X149749865Y-101989329D01*
X149757548Y-101991000D01*
X150454885Y-101991000D01*
X150470124Y-101986525D01*
X150471329Y-101985135D01*
X150473000Y-101977452D01*
X150473000Y-101974562D01*
X150472663Y-101968047D01*
X150463106Y-101875943D01*
X150460212Y-101862544D01*
X150410619Y-101713893D01*
X150404445Y-101700714D01*
X150322212Y-101567827D01*
X150313176Y-101556426D01*
X150202571Y-101446014D01*
X150191160Y-101437002D01*
X150058120Y-101354996D01*
X150044939Y-101348849D01*
X149896186Y-101299509D01*
X149882810Y-101296642D01*
X149791903Y-101287328D01*
X149785486Y-101287000D01*
X149762115Y-101287000D01*
X149746876Y-101291475D01*
X149745671Y-101292865D01*
X149744000Y-101300548D01*
X149744000Y-101972885D01*
X149236000Y-101972885D01*
X149236000Y-101305115D01*
X149231525Y-101289876D01*
X149230135Y-101288671D01*
X149222452Y-101287000D01*
X149194562Y-101287000D01*
X149188047Y-101287337D01*
X149095943Y-101296894D01*
X149082544Y-101299788D01*
X148933893Y-101349381D01*
X148920714Y-101355555D01*
X148826709Y-101413727D01*
X148758257Y-101432565D01*
X148694290Y-101413843D01*
X148581709Y-101344447D01*
X148568532Y-101338303D01*
X148421157Y-101289421D01*
X148407790Y-101286555D01*
X148317730Y-101277328D01*
X148311315Y-101277000D01*
X148282115Y-101277000D01*
X148266876Y-101281475D01*
X148265671Y-101282865D01*
X148264000Y-101290548D01*
X148264000Y-101950385D01*
X147756000Y-101950385D01*
X147756000Y-101295115D01*
X147751525Y-101279876D01*
X147750135Y-101278671D01*
X147742452Y-101277000D01*
X147708734Y-101277000D01*
X147702218Y-101277337D01*
X147610979Y-101286804D01*
X147597583Y-101289697D01*
X147450313Y-101338830D01*
X147437134Y-101345004D01*
X147305486Y-101426470D01*
X147294085Y-101435506D01*
X147184702Y-101545080D01*
X147175690Y-101556491D01*
X147094447Y-101688291D01*
X147088303Y-101701468D01*
X147039421Y-101848843D01*
X147036555Y-101862210D01*
X147027386Y-101951700D01*
X141207283Y-101951700D01*
X141206524Y-101951105D01*
X141206520Y-101951103D01*
X141200543Y-101946416D01*
X141193620Y-101943290D01*
X141190672Y-101941505D01*
X141177712Y-101934113D01*
X141174666Y-101932480D01*
X141168453Y-101928113D01*
X141109633Y-101905180D01*
X141103554Y-101902624D01*
X141046016Y-101876645D01*
X141038545Y-101875260D01*
X141035277Y-101874236D01*
X141020836Y-101870123D01*
X141017563Y-101869283D01*
X141010487Y-101866524D01*
X140965817Y-101860644D01*
X140947894Y-101858284D01*
X140941377Y-101857252D01*
X140886775Y-101847132D01*
X140879308Y-101845748D01*
X140871728Y-101846185D01*
X140871727Y-101846185D01*
X140817856Y-101849291D01*
X140810604Y-101849500D01*
X140276549Y-101849500D01*
X140208428Y-101829498D01*
X140161935Y-101775842D01*
X140151286Y-101709892D01*
X140157631Y-101651486D01*
X140158000Y-101644672D01*
X140158000Y-101347115D01*
X140153525Y-101331876D01*
X140152135Y-101330671D01*
X140144452Y-101329000D01*
X138822115Y-101329000D01*
X138806876Y-101333475D01*
X138805671Y-101334865D01*
X138804000Y-101342548D01*
X138804000Y-102089885D01*
X138808475Y-102105124D01*
X138809865Y-102106329D01*
X138817548Y-102108000D01*
X139223500Y-102107999D01*
X139291620Y-102128001D01*
X139338114Y-102181656D01*
X139349500Y-102233999D01*
X139349500Y-102541281D01*
X139349498Y-102541941D01*
X139349031Y-102631105D01*
X139349392Y-102632609D01*
X139349500Y-102634481D01*
X139349500Y-102866000D01*
X139329498Y-102934121D01*
X139275842Y-102980614D01*
X139223500Y-102992000D01*
X138822115Y-102992001D01*
X138806876Y-102996476D01*
X138805671Y-102997866D01*
X138804000Y-103005549D01*
X138804000Y-103752885D01*
X138296000Y-103752885D01*
X138296000Y-103010116D01*
X138291525Y-102994877D01*
X138290135Y-102993672D01*
X138282452Y-102992001D01*
X138184000Y-102992001D01*
X138115879Y-102971999D01*
X138069386Y-102918343D01*
X138058000Y-102866001D01*
X138058000Y-102822115D01*
X138053525Y-102806876D01*
X138052135Y-102805671D01*
X138044452Y-102804000D01*
X136060116Y-102804000D01*
X136044877Y-102808475D01*
X136043672Y-102809865D01*
X136042001Y-102817548D01*
X136042001Y-103094669D01*
X126118081Y-103094669D01*
X126081079Y-103071187D01*
X125922462Y-103014706D01*
X125915474Y-103013873D01*
X125915471Y-103013872D01*
X125822300Y-103002762D01*
X125755273Y-102994769D01*
X125748270Y-102995505D01*
X125748269Y-102995505D01*
X125718043Y-102998682D01*
X125587821Y-103012369D01*
X125581155Y-103014638D01*
X125581152Y-103014639D01*
X125435098Y-103064360D01*
X125435095Y-103064361D01*
X125428431Y-103066630D01*
X125422436Y-103070318D01*
X125422432Y-103070320D01*
X125291021Y-103151165D01*
X125291019Y-103151167D01*
X125285022Y-103154856D01*
X125164724Y-103272661D01*
X125073515Y-103414190D01*
X125071105Y-103420810D01*
X125071104Y-103420813D01*
X125054483Y-103466480D01*
X125015927Y-103572409D01*
X124994825Y-103739455D01*
X124350000Y-103739455D01*
X124350000Y-102277885D01*
X136042000Y-102277885D01*
X136046475Y-102293124D01*
X136047865Y-102294329D01*
X136055548Y-102296000D01*
X138039884Y-102296000D01*
X138055123Y-102291525D01*
X138056328Y-102290135D01*
X138057999Y-102282452D01*
X138057999Y-102234000D01*
X138078001Y-102165879D01*
X138131657Y-102119386D01*
X138183999Y-102108000D01*
X138277885Y-102108000D01*
X138293124Y-102103525D01*
X138294329Y-102102135D01*
X138296000Y-102094452D01*
X138296000Y-101347115D01*
X138291525Y-101331876D01*
X138290135Y-101330671D01*
X138282452Y-101329000D01*
X136960116Y-101329000D01*
X136944877Y-101333475D01*
X136943672Y-101334865D01*
X136942001Y-101342548D01*
X136942001Y-101416001D01*
X136921999Y-101484122D01*
X136868343Y-101530615D01*
X136816001Y-101542001D01*
X136505331Y-101542001D01*
X136498510Y-101542371D01*
X136447648Y-101547895D01*
X136432396Y-101551521D01*
X136311946Y-101596676D01*
X136296351Y-101605214D01*
X136194276Y-101681715D01*
X136181715Y-101694276D01*
X136105214Y-101796351D01*
X136096676Y-101811946D01*
X136051522Y-101932394D01*
X136047895Y-101947649D01*
X136042369Y-101998514D01*
X136042000Y-102005328D01*
X136042000Y-102277885D01*
X124350000Y-102277885D01*
X124350000Y-100802885D01*
X136942000Y-100802885D01*
X136946475Y-100818124D01*
X136947865Y-100819329D01*
X136955548Y-100821000D01*
X138277885Y-100821000D01*
X138293124Y-100816525D01*
X138294329Y-100815135D01*
X138296000Y-100807452D01*
X138296000Y-100802885D01*
X138804000Y-100802885D01*
X138808475Y-100818124D01*
X138809865Y-100819329D01*
X138817548Y-100821000D01*
X140139884Y-100821000D01*
X140155123Y-100816525D01*
X140156328Y-100815135D01*
X140157999Y-100807452D01*
X140157999Y-100505331D01*
X140157629Y-100498510D01*
X140152105Y-100447648D01*
X140148479Y-100432396D01*
X140148218Y-100431700D01*
X152177386Y-100431700D01*
X152181475Y-100445624D01*
X152182865Y-100446829D01*
X152190548Y-100448500D01*
X152887885Y-100448500D01*
X152903124Y-100444025D01*
X152904329Y-100442635D01*
X152906000Y-100434952D01*
X152906000Y-100430385D01*
X153414000Y-100430385D01*
X153418475Y-100445624D01*
X153419865Y-100446829D01*
X153427548Y-100448500D01*
X154124885Y-100448500D01*
X154140124Y-100444025D01*
X154141329Y-100442635D01*
X154142842Y-100435679D01*
X154142663Y-100432218D01*
X154133196Y-100340979D01*
X154130303Y-100327583D01*
X154081170Y-100180313D01*
X154074996Y-100167134D01*
X153993530Y-100035486D01*
X153984494Y-100024085D01*
X153874920Y-99914702D01*
X153863509Y-99905690D01*
X153731709Y-99824447D01*
X153718532Y-99818303D01*
X153571157Y-99769421D01*
X153557790Y-99766555D01*
X153467730Y-99757328D01*
X153461315Y-99757000D01*
X153432115Y-99757000D01*
X153416876Y-99761475D01*
X153415671Y-99762865D01*
X153414000Y-99770548D01*
X153414000Y-100430385D01*
X152906000Y-100430385D01*
X152906000Y-99775115D01*
X152901525Y-99759876D01*
X152900135Y-99758671D01*
X152892452Y-99757000D01*
X152858734Y-99757000D01*
X152852218Y-99757337D01*
X152760979Y-99766804D01*
X152747583Y-99769697D01*
X152600313Y-99818830D01*
X152587134Y-99825004D01*
X152455486Y-99906470D01*
X152444085Y-99915506D01*
X152334702Y-100025080D01*
X152325690Y-100036491D01*
X152244447Y-100168291D01*
X152238303Y-100181468D01*
X152189421Y-100328843D01*
X152186555Y-100342210D01*
X152177386Y-100431700D01*
X140148218Y-100431700D01*
X140103324Y-100311946D01*
X140094786Y-100296351D01*
X140018285Y-100194276D01*
X140005724Y-100181715D01*
X139903649Y-100105214D01*
X139888054Y-100096676D01*
X139767606Y-100051522D01*
X139752351Y-100047895D01*
X139701486Y-100042369D01*
X139694672Y-100042000D01*
X138822115Y-100042000D01*
X138806876Y-100046475D01*
X138805671Y-100047865D01*
X138804000Y-100055548D01*
X138804000Y-100802885D01*
X138296000Y-100802885D01*
X138296000Y-100060116D01*
X138291525Y-100044877D01*
X138290135Y-100043672D01*
X138282452Y-100042001D01*
X137405331Y-100042001D01*
X137398510Y-100042371D01*
X137347648Y-100047895D01*
X137332396Y-100051521D01*
X137211946Y-100096676D01*
X137196351Y-100105214D01*
X137094276Y-100181715D01*
X137081715Y-100194276D01*
X137005214Y-100296351D01*
X136996676Y-100311946D01*
X136951522Y-100432394D01*
X136947895Y-100447649D01*
X136942369Y-100498514D01*
X136942000Y-100505328D01*
X136942000Y-100802885D01*
X124350000Y-100802885D01*
X124350000Y-90739455D01*
X150994825Y-90739455D01*
X150995512Y-90746462D01*
X150995512Y-90746465D01*
X150998311Y-90775010D01*
X151011255Y-90907025D01*
X151064402Y-91066791D01*
X151151624Y-91210812D01*
X151156513Y-91215875D01*
X151156514Y-91215876D01*
X151227825Y-91289720D01*
X151268586Y-91331929D01*
X151274483Y-91335788D01*
X151403577Y-91420266D01*
X151403581Y-91420268D01*
X151409475Y-91424125D01*
X151567289Y-91482815D01*
X151574270Y-91483746D01*
X151574272Y-91483747D01*
X151619812Y-91489823D01*
X151734183Y-91505083D01*
X151741194Y-91504445D01*
X151741198Y-91504445D01*
X151894843Y-91490462D01*
X151901864Y-91489823D01*
X151908566Y-91487645D01*
X151908568Y-91487645D01*
X152055298Y-91439970D01*
X152055301Y-91439969D01*
X152061997Y-91437793D01*
X152206623Y-91351578D01*
X152211717Y-91346727D01*
X152211721Y-91346724D01*
X152323454Y-91240322D01*
X152323455Y-91240320D01*
X152328554Y-91235465D01*
X152344934Y-91210812D01*
X152417836Y-91101085D01*
X152421731Y-91095223D01*
X152481521Y-90937823D01*
X152504955Y-90771088D01*
X152505249Y-90750000D01*
X152486481Y-90582676D01*
X152431108Y-90423668D01*
X152341884Y-90280879D01*
X152333723Y-90272661D01*
X152228205Y-90166403D01*
X152228201Y-90166400D01*
X152223242Y-90161406D01*
X152081079Y-90071187D01*
X151922462Y-90014706D01*
X151915474Y-90013873D01*
X151915471Y-90013872D01*
X151822300Y-90002762D01*
X151755273Y-89994769D01*
X151748270Y-89995505D01*
X151748269Y-89995505D01*
X151702712Y-90000293D01*
X151587821Y-90012369D01*
X151581155Y-90014638D01*
X151581152Y-90014639D01*
X151435098Y-90064360D01*
X151435095Y-90064361D01*
X151428431Y-90066630D01*
X151422436Y-90070318D01*
X151422432Y-90070320D01*
X151291021Y-90151165D01*
X151291019Y-90151167D01*
X151285022Y-90154856D01*
X151164724Y-90272661D01*
X151073515Y-90414190D01*
X151015927Y-90572409D01*
X150994825Y-90739455D01*
X124350000Y-90739455D01*
X124350000Y-89476000D01*
X124370002Y-89407879D01*
X124423658Y-89361386D01*
X124476000Y-89350000D01*
X154624000Y-89350000D01*
X154692121Y-89370002D01*
G37*
%TD.AperFunction*%
%TD*%
M02*
