%TF.GenerationSoftware,KiCad,Pcbnew,6.0.0+dfsg1-2*%
%TF.CreationDate,2022-03-05T21:21:34-05:00*%
%TF.ProjectId,RUSP_Antenna,52555350-5f41-46e7-9465-6e6e612e6b69,rev?*%
%TF.SameCoordinates,Original*%
%TF.FileFunction,Legend,Top*%
%TF.FilePolarity,Positive*%
%FSLAX46Y46*%
G04 Gerber Fmt 4.6, Leading zero omitted, Abs format (unit mm)*
G04 Created by KiCad (PCBNEW 6.0.0+dfsg1-2) date 2022-03-05 21:21:34*
%MOMM*%
%LPD*%
G01*
G04 APERTURE LIST*
%ADD10C,0.130000*%
%ADD11C,0.150000*%
%ADD12C,0.120000*%
%ADD13C,0.010000*%
G04 APERTURE END LIST*
D10*
X124650000Y-96716666D02*
X124650000Y-96016666D01*
X125283333Y-96250000D02*
X125283333Y-96816666D01*
X125250000Y-96883333D01*
X125216666Y-96916666D01*
X125150000Y-96950000D01*
X125050000Y-96950000D01*
X124983333Y-96916666D01*
X125283333Y-96683333D02*
X125216666Y-96716666D01*
X125083333Y-96716666D01*
X125016666Y-96683333D01*
X124983333Y-96650000D01*
X124950000Y-96583333D01*
X124950000Y-96383333D01*
X124983333Y-96316666D01*
X125016666Y-96283333D01*
X125083333Y-96250000D01*
X125216666Y-96250000D01*
X125283333Y-96283333D01*
X125616666Y-96250000D02*
X125616666Y-96716666D01*
X125616666Y-96316666D02*
X125650000Y-96283333D01*
X125716666Y-96250000D01*
X125816666Y-96250000D01*
X125883333Y-96283333D01*
X125916666Y-96350000D01*
X125916666Y-96716666D01*
X126250000Y-96716666D02*
X126250000Y-96250000D01*
X126250000Y-96016666D02*
X126216666Y-96050000D01*
X126250000Y-96083333D01*
X126283333Y-96050000D01*
X126250000Y-96016666D01*
X126250000Y-96083333D01*
X126683333Y-96716666D02*
X126616666Y-96683333D01*
X126583333Y-96650000D01*
X126550000Y-96583333D01*
X126550000Y-96383333D01*
X126583333Y-96316666D01*
X126616666Y-96283333D01*
X126683333Y-96250000D01*
X126783333Y-96250000D01*
X126850000Y-96283333D01*
X126883333Y-96316666D01*
X126916666Y-96383333D01*
X126916666Y-96583333D01*
X126883333Y-96650000D01*
X126850000Y-96683333D01*
X126783333Y-96716666D01*
X126683333Y-96716666D01*
X127216666Y-96250000D02*
X127216666Y-96716666D01*
X127216666Y-96316666D02*
X127250000Y-96283333D01*
X127316666Y-96250000D01*
X127416666Y-96250000D01*
X127483333Y-96283333D01*
X127516666Y-96350000D01*
X127516666Y-96716666D01*
X128516666Y-96016666D02*
X128650000Y-96016666D01*
X128716666Y-96050000D01*
X128783333Y-96116666D01*
X128816666Y-96250000D01*
X128816666Y-96483333D01*
X128783333Y-96616666D01*
X128716666Y-96683333D01*
X128650000Y-96716666D01*
X128516666Y-96716666D01*
X128450000Y-96683333D01*
X128383333Y-96616666D01*
X128350000Y-96483333D01*
X128350000Y-96250000D01*
X128383333Y-96116666D01*
X128450000Y-96050000D01*
X128516666Y-96016666D01*
X129116666Y-96716666D02*
X129116666Y-96016666D01*
X129516666Y-96716666D01*
X129516666Y-96016666D01*
X129850000Y-96350000D02*
X130083333Y-96350000D01*
X130183333Y-96716666D02*
X129850000Y-96716666D01*
X129850000Y-96016666D01*
X130183333Y-96016666D01*
X131016666Y-96716666D02*
X131016666Y-96250000D01*
X131016666Y-96316666D02*
X131050000Y-96283333D01*
X131116666Y-96250000D01*
X131216666Y-96250000D01*
X131283333Y-96283333D01*
X131316666Y-96350000D01*
X131316666Y-96716666D01*
X131316666Y-96350000D02*
X131350000Y-96283333D01*
X131416666Y-96250000D01*
X131516666Y-96250000D01*
X131583333Y-96283333D01*
X131616666Y-96350000D01*
X131616666Y-96716666D01*
X131883333Y-96016666D02*
X132350000Y-96716666D01*
X132350000Y-96016666D02*
X131883333Y-96716666D01*
X132516666Y-96016666D02*
X132916666Y-96016666D01*
X132716666Y-96716666D02*
X132716666Y-96016666D01*
X133150000Y-96350000D02*
X133383333Y-96350000D01*
X133483333Y-96716666D02*
X133150000Y-96716666D01*
X133150000Y-96016666D01*
X133483333Y-96016666D01*
X133783333Y-96716666D02*
X133783333Y-96016666D01*
X134183333Y-96716666D01*
X134183333Y-96016666D01*
X134516666Y-96716666D02*
X134516666Y-96016666D01*
X134683333Y-96016666D01*
X134783333Y-96050000D01*
X134850000Y-96116666D01*
X134883333Y-96183333D01*
X134916666Y-96316666D01*
X134916666Y-96416666D01*
X134883333Y-96550000D01*
X134850000Y-96616666D01*
X134783333Y-96683333D01*
X134683333Y-96716666D01*
X134516666Y-96716666D01*
X135750000Y-96716666D02*
X135750000Y-96016666D01*
X136150000Y-96716666D01*
X136150000Y-96016666D01*
X136483333Y-96716666D02*
X136483333Y-96016666D01*
X136883333Y-96716666D01*
X136883333Y-96016666D01*
X137216666Y-96450000D02*
X137750000Y-96450000D01*
X138216666Y-96016666D02*
X138283333Y-96016666D01*
X138350000Y-96050000D01*
X138383333Y-96083333D01*
X138416666Y-96150000D01*
X138450000Y-96283333D01*
X138450000Y-96450000D01*
X138416666Y-96583333D01*
X138383333Y-96650000D01*
X138350000Y-96683333D01*
X138283333Y-96716666D01*
X138216666Y-96716666D01*
X138150000Y-96683333D01*
X138116666Y-96650000D01*
X138083333Y-96583333D01*
X138050000Y-96450000D01*
X138050000Y-96283333D01*
X138083333Y-96150000D01*
X138116666Y-96083333D01*
X138150000Y-96050000D01*
X138216666Y-96016666D01*
X138716666Y-96083333D02*
X138750000Y-96050000D01*
X138816666Y-96016666D01*
X138983333Y-96016666D01*
X139050000Y-96050000D01*
X139083333Y-96083333D01*
X139116666Y-96150000D01*
X139116666Y-96216666D01*
X139083333Y-96316666D01*
X138683333Y-96716666D01*
X139116666Y-96716666D01*
X139416666Y-96450000D02*
X139950000Y-96450000D01*
X140250000Y-96083333D02*
X140283333Y-96050000D01*
X140350000Y-96016666D01*
X140516666Y-96016666D01*
X140583333Y-96050000D01*
X140616666Y-96083333D01*
X140650000Y-96150000D01*
X140650000Y-96216666D01*
X140616666Y-96316666D01*
X140216666Y-96716666D01*
X140650000Y-96716666D01*
X141083333Y-96016666D02*
X141150000Y-96016666D01*
X141216666Y-96050000D01*
X141250000Y-96083333D01*
X141283333Y-96150000D01*
X141316666Y-96283333D01*
X141316666Y-96450000D01*
X141283333Y-96583333D01*
X141250000Y-96650000D01*
X141216666Y-96683333D01*
X141150000Y-96716666D01*
X141083333Y-96716666D01*
X141016666Y-96683333D01*
X140983333Y-96650000D01*
X140950000Y-96583333D01*
X140916666Y-96450000D01*
X140916666Y-96283333D01*
X140950000Y-96150000D01*
X140983333Y-96083333D01*
X141016666Y-96050000D01*
X141083333Y-96016666D01*
X141983333Y-96716666D02*
X141583333Y-96716666D01*
X141783333Y-96716666D02*
X141783333Y-96016666D01*
X141716666Y-96116666D01*
X141650000Y-96183333D01*
X141583333Y-96216666D01*
D11*
X127233333Y-104116666D02*
X127233333Y-104616666D01*
X127200000Y-104716666D01*
X127133333Y-104783333D01*
X127033333Y-104816666D01*
X126966666Y-104816666D01*
X127566666Y-104750000D02*
X127600000Y-104783333D01*
X127566666Y-104816666D01*
X127533333Y-104783333D01*
X127566666Y-104750000D01*
X127566666Y-104816666D01*
X128433333Y-104816666D02*
X128433333Y-104116666D01*
X128433333Y-104450000D02*
X128833333Y-104450000D01*
X128833333Y-104816666D02*
X128833333Y-104116666D01*
X129133333Y-104616666D02*
X129466666Y-104616666D01*
X129066666Y-104816666D02*
X129300000Y-104116666D01*
X129533333Y-104816666D01*
X129766666Y-104116666D02*
X129766666Y-104683333D01*
X129800000Y-104750000D01*
X129833333Y-104783333D01*
X129900000Y-104816666D01*
X130033333Y-104816666D01*
X130100000Y-104783333D01*
X130133333Y-104750000D01*
X130166666Y-104683333D01*
X130166666Y-104116666D01*
X130500000Y-104816666D02*
X130500000Y-104116666D01*
X130766666Y-104116666D01*
X130833333Y-104150000D01*
X130866666Y-104183333D01*
X130900000Y-104250000D01*
X130900000Y-104350000D01*
X130866666Y-104416666D01*
X130833333Y-104450000D01*
X130766666Y-104483333D01*
X130500000Y-104483333D01*
X131100000Y-104116666D02*
X131500000Y-104116666D01*
X131300000Y-104816666D02*
X131300000Y-104116666D01*
X132266666Y-104550000D02*
X132800000Y-104550000D01*
X134066666Y-104816666D02*
X133833333Y-104483333D01*
X133666666Y-104816666D02*
X133666666Y-104116666D01*
X133933333Y-104116666D01*
X134000000Y-104150000D01*
X134033333Y-104183333D01*
X134066666Y-104250000D01*
X134066666Y-104350000D01*
X134033333Y-104416666D01*
X134000000Y-104450000D01*
X133933333Y-104483333D01*
X133666666Y-104483333D01*
X134633333Y-104783333D02*
X134566666Y-104816666D01*
X134433333Y-104816666D01*
X134366666Y-104783333D01*
X134333333Y-104716666D01*
X134333333Y-104450000D01*
X134366666Y-104383333D01*
X134433333Y-104350000D01*
X134566666Y-104350000D01*
X134633333Y-104383333D01*
X134666666Y-104450000D01*
X134666666Y-104516666D01*
X134333333Y-104583333D01*
X134900000Y-104350000D02*
X135066666Y-104816666D01*
X135233333Y-104350000D01*
X135466666Y-104616666D02*
X135800000Y-104616666D01*
X135400000Y-104816666D02*
X135633333Y-104116666D01*
X135866666Y-104816666D01*
X125307023Y-95652380D02*
X124973690Y-95176190D01*
X124735595Y-95652380D02*
X124735595Y-94652380D01*
X125116547Y-94652380D01*
X125211785Y-94700000D01*
X125259404Y-94747619D01*
X125307023Y-94842857D01*
X125307023Y-94985714D01*
X125259404Y-95080952D01*
X125211785Y-95128571D01*
X125116547Y-95176190D01*
X124735595Y-95176190D01*
X125735595Y-94652380D02*
X125735595Y-95461904D01*
X125783214Y-95557142D01*
X125830833Y-95604761D01*
X125926071Y-95652380D01*
X126116547Y-95652380D01*
X126211785Y-95604761D01*
X126259404Y-95557142D01*
X126307023Y-95461904D01*
X126307023Y-94652380D01*
X126735595Y-95604761D02*
X126878452Y-95652380D01*
X127116547Y-95652380D01*
X127211785Y-95604761D01*
X127259404Y-95557142D01*
X127307023Y-95461904D01*
X127307023Y-95366666D01*
X127259404Y-95271428D01*
X127211785Y-95223809D01*
X127116547Y-95176190D01*
X126926071Y-95128571D01*
X126830833Y-95080952D01*
X126783214Y-95033333D01*
X126735595Y-94938095D01*
X126735595Y-94842857D01*
X126783214Y-94747619D01*
X126830833Y-94700000D01*
X126926071Y-94652380D01*
X127164166Y-94652380D01*
X127307023Y-94700000D01*
X127735595Y-95652380D02*
X127735595Y-94652380D01*
X128116547Y-94652380D01*
X128211785Y-94700000D01*
X128259404Y-94747619D01*
X128307023Y-94842857D01*
X128307023Y-94985714D01*
X128259404Y-95080952D01*
X128211785Y-95128571D01*
X128116547Y-95176190D01*
X127735595Y-95176190D01*
X130211785Y-95366666D02*
X130687976Y-95366666D01*
X130116547Y-95652380D02*
X130449880Y-94652380D01*
X130783214Y-95652380D01*
X131116547Y-95652380D02*
X131116547Y-94652380D01*
X131687976Y-95652380D01*
X131687976Y-94652380D01*
X132021309Y-94652380D02*
X132592738Y-94652380D01*
X132307023Y-95652380D02*
X132307023Y-94652380D01*
X132926071Y-95128571D02*
X133259404Y-95128571D01*
X133402261Y-95652380D02*
X132926071Y-95652380D01*
X132926071Y-94652380D01*
X133402261Y-94652380D01*
X133830833Y-95652380D02*
X133830833Y-94652380D01*
X134402261Y-95652380D01*
X134402261Y-94652380D01*
X134878452Y-95652380D02*
X134878452Y-94652380D01*
X135449880Y-95652380D01*
X135449880Y-94652380D01*
X135878452Y-95366666D02*
X136354642Y-95366666D01*
X135783214Y-95652380D02*
X136116547Y-94652380D01*
X136449880Y-95652380D01*
D12*
%TO.C,FID1*%
X125207142Y-102307142D02*
X125007142Y-102307142D01*
X125007142Y-102621428D02*
X125007142Y-102021428D01*
X125292857Y-102021428D01*
X125521428Y-102621428D02*
X125521428Y-102021428D01*
X125807142Y-102621428D02*
X125807142Y-102021428D01*
X125950000Y-102021428D01*
X126035714Y-102050000D01*
X126092857Y-102107142D01*
X126121428Y-102164285D01*
X126150000Y-102278571D01*
X126150000Y-102364285D01*
X126121428Y-102478571D01*
X126092857Y-102535714D01*
X126035714Y-102592857D01*
X125950000Y-102621428D01*
X125807142Y-102621428D01*
X126721428Y-102621428D02*
X126378571Y-102621428D01*
X126550000Y-102621428D02*
X126550000Y-102021428D01*
X126492857Y-102107142D01*
X126435714Y-102164285D01*
X126378571Y-102192857D01*
%TO.C,FID2*%
X151107142Y-92107142D02*
X150907142Y-92107142D01*
X150907142Y-92421428D02*
X150907142Y-91821428D01*
X151192857Y-91821428D01*
X151421428Y-92421428D02*
X151421428Y-91821428D01*
X151707142Y-92421428D02*
X151707142Y-91821428D01*
X151850000Y-91821428D01*
X151935714Y-91850000D01*
X151992857Y-91907142D01*
X152021428Y-91964285D01*
X152050000Y-92078571D01*
X152050000Y-92164285D01*
X152021428Y-92278571D01*
X151992857Y-92335714D01*
X151935714Y-92392857D01*
X151850000Y-92421428D01*
X151707142Y-92421428D01*
X152278571Y-91878571D02*
X152307142Y-91850000D01*
X152364285Y-91821428D01*
X152507142Y-91821428D01*
X152564285Y-91850000D01*
X152592857Y-91878571D01*
X152621428Y-91935714D01*
X152621428Y-91992857D01*
X152592857Y-92078571D01*
X152250000Y-92421428D01*
X152621428Y-92421428D01*
%TO.C,J1*%
X140550000Y-100821428D02*
X140550000Y-101250000D01*
X140521428Y-101335714D01*
X140464285Y-101392857D01*
X140378571Y-101421428D01*
X140321428Y-101421428D01*
X141150000Y-101421428D02*
X140807142Y-101421428D01*
X140978571Y-101421428D02*
X140978571Y-100821428D01*
X140921428Y-100907142D01*
X140864285Y-100964285D01*
X140807142Y-100992857D01*
%TO.C,C1*%
X151200000Y-102934285D02*
X151171428Y-102962857D01*
X151085714Y-102991428D01*
X151028571Y-102991428D01*
X150942857Y-102962857D01*
X150885714Y-102905714D01*
X150857142Y-102848571D01*
X150828571Y-102734285D01*
X150828571Y-102648571D01*
X150857142Y-102534285D01*
X150885714Y-102477142D01*
X150942857Y-102420000D01*
X151028571Y-102391428D01*
X151085714Y-102391428D01*
X151171428Y-102420000D01*
X151200000Y-102448571D01*
X151771428Y-102991428D02*
X151428571Y-102991428D01*
X151600000Y-102991428D02*
X151600000Y-102391428D01*
X151542857Y-102477142D01*
X151485714Y-102534285D01*
X151428571Y-102562857D01*
%TO.C,C2*%
X149694285Y-101180000D02*
X149722857Y-101208571D01*
X149751428Y-101294285D01*
X149751428Y-101351428D01*
X149722857Y-101437142D01*
X149665714Y-101494285D01*
X149608571Y-101522857D01*
X149494285Y-101551428D01*
X149408571Y-101551428D01*
X149294285Y-101522857D01*
X149237142Y-101494285D01*
X149180000Y-101437142D01*
X149151428Y-101351428D01*
X149151428Y-101294285D01*
X149180000Y-101208571D01*
X149208571Y-101180000D01*
X149208571Y-100951428D02*
X149180000Y-100922857D01*
X149151428Y-100865714D01*
X149151428Y-100722857D01*
X149180000Y-100665714D01*
X149208571Y-100637142D01*
X149265714Y-100608571D01*
X149322857Y-100608571D01*
X149408571Y-100637142D01*
X149751428Y-100980000D01*
X149751428Y-100608571D01*
%TO.C,L1*%
X152371428Y-101600000D02*
X152371428Y-101885714D01*
X151771428Y-101885714D01*
X152371428Y-101085714D02*
X152371428Y-101428571D01*
X152371428Y-101257142D02*
X151771428Y-101257142D01*
X151857142Y-101314285D01*
X151914285Y-101371428D01*
X151942857Y-101428571D01*
%TO.C,AE1*%
X161950000Y-94000000D02*
X161950000Y-94285714D01*
X161778571Y-93942857D02*
X162378571Y-94142857D01*
X161778571Y-94342857D01*
X162092857Y-94542857D02*
X162092857Y-94742857D01*
X161778571Y-94828571D02*
X161778571Y-94542857D01*
X162378571Y-94542857D01*
X162378571Y-94828571D01*
X161778571Y-95400000D02*
X161778571Y-95057142D01*
X161778571Y-95228571D02*
X162378571Y-95228571D01*
X162292857Y-95171428D01*
X162235714Y-95114285D01*
X162207142Y-95057142D01*
%TO.C,R1*%
X142700000Y-102951428D02*
X142500000Y-102665714D01*
X142357142Y-102951428D02*
X142357142Y-102351428D01*
X142585714Y-102351428D01*
X142642857Y-102380000D01*
X142671428Y-102408571D01*
X142700000Y-102465714D01*
X142700000Y-102551428D01*
X142671428Y-102608571D01*
X142642857Y-102637142D01*
X142585714Y-102665714D01*
X142357142Y-102665714D01*
X143271428Y-102951428D02*
X142928571Y-102951428D01*
X143100000Y-102951428D02*
X143100000Y-102351428D01*
X143042857Y-102437142D01*
X142985714Y-102494285D01*
X142928571Y-102522857D01*
%TO.C,L2*%
X154600000Y-102991428D02*
X154314285Y-102991428D01*
X154314285Y-102391428D01*
X154771428Y-102448571D02*
X154800000Y-102420000D01*
X154857142Y-102391428D01*
X155000000Y-102391428D01*
X155057142Y-102420000D01*
X155085714Y-102448571D01*
X155114285Y-102505714D01*
X155114285Y-102562857D01*
X155085714Y-102648571D01*
X154742857Y-102991428D01*
X155114285Y-102991428D01*
%TO.C,L3*%
X148341428Y-101280000D02*
X148341428Y-101565714D01*
X147741428Y-101565714D01*
X147741428Y-101137142D02*
X147741428Y-100765714D01*
X147970000Y-100965714D01*
X147970000Y-100880000D01*
X147998571Y-100822857D01*
X148027142Y-100794285D01*
X148084285Y-100765714D01*
X148227142Y-100765714D01*
X148284285Y-100794285D01*
X148312857Y-100822857D01*
X148341428Y-100880000D01*
X148341428Y-101051428D01*
X148312857Y-101108571D01*
X148284285Y-101137142D01*
%TO.C,C3*%
X145600000Y-102884285D02*
X145571428Y-102912857D01*
X145485714Y-102941428D01*
X145428571Y-102941428D01*
X145342857Y-102912857D01*
X145285714Y-102855714D01*
X145257142Y-102798571D01*
X145228571Y-102684285D01*
X145228571Y-102598571D01*
X145257142Y-102484285D01*
X145285714Y-102427142D01*
X145342857Y-102370000D01*
X145428571Y-102341428D01*
X145485714Y-102341428D01*
X145571428Y-102370000D01*
X145600000Y-102398571D01*
X145800000Y-102341428D02*
X146171428Y-102341428D01*
X145971428Y-102570000D01*
X146057142Y-102570000D01*
X146114285Y-102598571D01*
X146142857Y-102627142D01*
X146171428Y-102684285D01*
X146171428Y-102827142D01*
X146142857Y-102884285D01*
X146114285Y-102912857D01*
X146057142Y-102941428D01*
X145885714Y-102941428D01*
X145828571Y-102912857D01*
X145800000Y-102884285D01*
D13*
%TO.C,G\u002A\u002A\u002A*%
X131324331Y-90285312D02*
X131377167Y-90310610D01*
X131377167Y-90310610D02*
X131381106Y-90317338D01*
X131381106Y-90317338D02*
X131379331Y-90367883D01*
X131379331Y-90367883D02*
X131358810Y-90468370D01*
X131358810Y-90468370D02*
X131322447Y-90609046D01*
X131322447Y-90609046D02*
X131273143Y-90780157D01*
X131273143Y-90780157D02*
X131213803Y-90971951D01*
X131213803Y-90971951D02*
X131147327Y-91174674D01*
X131147327Y-91174674D02*
X131076620Y-91378572D01*
X131076620Y-91378572D02*
X131016353Y-91542895D01*
X131016353Y-91542895D02*
X130932685Y-91768451D01*
X130932685Y-91768451D02*
X130862194Y-91969050D01*
X130862194Y-91969050D02*
X130801043Y-92158219D01*
X130801043Y-92158219D02*
X130745398Y-92349484D01*
X130745398Y-92349484D02*
X130691420Y-92556373D01*
X130691420Y-92556373D02*
X130635274Y-92792414D01*
X130635274Y-92792414D02*
X130573124Y-93071133D01*
X130573124Y-93071133D02*
X130541452Y-93217453D01*
X130541452Y-93217453D02*
X130462664Y-93571292D01*
X130462664Y-93571292D02*
X130389817Y-93870021D01*
X130389817Y-93870021D02*
X130320450Y-94121474D01*
X130320450Y-94121474D02*
X130252105Y-94333482D01*
X130252105Y-94333482D02*
X130182322Y-94513879D01*
X130182322Y-94513879D02*
X130108641Y-94670496D01*
X130108641Y-94670496D02*
X130054341Y-94768625D01*
X130054341Y-94768625D02*
X129922207Y-94959724D01*
X129922207Y-94959724D02*
X129751122Y-95158523D01*
X129751122Y-95158523D02*
X129559581Y-95345654D01*
X129559581Y-95345654D02*
X129366076Y-95501751D01*
X129366076Y-95501751D02*
X129331250Y-95525875D01*
X129331250Y-95525875D02*
X129197343Y-95603837D01*
X129197343Y-95603837D02*
X129050338Y-95669688D01*
X129050338Y-95669688D02*
X128901312Y-95720925D01*
X128901312Y-95720925D02*
X128761341Y-95755044D01*
X128761341Y-95755044D02*
X128641500Y-95769543D01*
X128641500Y-95769543D02*
X128552866Y-95761919D01*
X128552866Y-95761919D02*
X128506515Y-95729668D01*
X128506515Y-95729668D02*
X128502385Y-95713187D01*
X128502385Y-95713187D02*
X128502350Y-95602812D01*
X128502350Y-95602812D02*
X128513543Y-95505784D01*
X128513543Y-95505784D02*
X128533049Y-95445174D01*
X128533049Y-95445174D02*
X128536880Y-95440257D01*
X128536880Y-95440257D02*
X128578767Y-95422248D01*
X128578767Y-95422248D02*
X128665963Y-95399181D01*
X128665963Y-95399181D02*
X128780998Y-95375562D01*
X128780998Y-95375562D02*
X128802285Y-95371778D01*
X128802285Y-95371778D02*
X129019366Y-95318278D01*
X129019366Y-95318278D02*
X129209612Y-95233548D01*
X129209612Y-95233548D02*
X129388904Y-95108405D01*
X129388904Y-95108405D02*
X129573119Y-94933668D01*
X129573119Y-94933668D02*
X129588914Y-94916876D01*
X129588914Y-94916876D02*
X129757908Y-94713565D01*
X129757908Y-94713565D02*
X129901661Y-94489592D01*
X129901661Y-94489592D02*
X130022952Y-94237506D01*
X130022952Y-94237506D02*
X130124563Y-93949853D01*
X130124563Y-93949853D02*
X130209275Y-93619182D01*
X130209275Y-93619182D02*
X130279869Y-93238040D01*
X130279869Y-93238040D02*
X130319609Y-92958875D01*
X130319609Y-92958875D02*
X130344031Y-92761264D01*
X130344031Y-92761264D02*
X130359119Y-92599855D01*
X130359119Y-92599855D02*
X130362404Y-92462667D01*
X130362404Y-92462667D02*
X130351415Y-92337720D01*
X130351415Y-92337720D02*
X130323682Y-92213033D01*
X130323682Y-92213033D02*
X130276737Y-92076626D01*
X130276737Y-92076626D02*
X130208108Y-91916520D01*
X130208108Y-91916520D02*
X130115328Y-91720733D01*
X130115328Y-91720733D02*
X130027334Y-91541092D01*
X130027334Y-91541092D02*
X129743768Y-90964887D01*
X129743768Y-90964887D02*
X129799446Y-90869858D01*
X129799446Y-90869858D02*
X129860069Y-90787051D01*
X129860069Y-90787051D02*
X129922440Y-90733717D01*
X129922440Y-90733717D02*
X129972339Y-90720825D01*
X129972339Y-90720825D02*
X129983913Y-90727580D01*
X129983913Y-90727580D02*
X129999792Y-90767120D01*
X129999792Y-90767120D02*
X130021842Y-90851331D01*
X130021842Y-90851331D02*
X130045399Y-90962314D01*
X130045399Y-90962314D02*
X130046311Y-90967084D01*
X130046311Y-90967084D02*
X130076904Y-91086127D01*
X130076904Y-91086127D02*
X130127800Y-91240729D01*
X130127800Y-91240729D02*
X130191461Y-91409377D01*
X130191461Y-91409377D02*
X130249060Y-91545656D01*
X130249060Y-91545656D02*
X130339819Y-91744825D01*
X130339819Y-91744825D02*
X130410773Y-91890063D01*
X130410773Y-91890063D02*
X130465858Y-91986333D01*
X130465858Y-91986333D02*
X130509010Y-92038598D01*
X130509010Y-92038598D02*
X130544164Y-92051823D01*
X130544164Y-92051823D02*
X130575256Y-92030971D01*
X130575256Y-92030971D02*
X130601463Y-91990101D01*
X130601463Y-91990101D02*
X130624583Y-91932713D01*
X130624583Y-91932713D02*
X130661092Y-91825284D01*
X130661092Y-91825284D02*
X130707677Y-91679035D01*
X130707677Y-91679035D02*
X130761022Y-91505188D01*
X130761022Y-91505188D02*
X130817813Y-91314965D01*
X130817813Y-91314965D02*
X130874735Y-91119588D01*
X130874735Y-91119588D02*
X130928472Y-90930279D01*
X130928472Y-90930279D02*
X130975712Y-90758259D01*
X130975712Y-90758259D02*
X131013138Y-90614751D01*
X131013138Y-90614751D02*
X131035086Y-90522062D01*
X131035086Y-90522062D02*
X131088314Y-90276000D01*
X131088314Y-90276000D02*
X131226778Y-90276000D01*
X131226778Y-90276000D02*
X131324331Y-90285312D01*
X131324331Y-90285312D02*
X131324331Y-90285312D01*
G36*
X131324331Y-90285312D02*
G01*
X131377167Y-90310610D01*
X131381106Y-90317338D01*
X131379331Y-90367883D01*
X131358810Y-90468370D01*
X131322447Y-90609046D01*
X131273143Y-90780157D01*
X131213803Y-90971951D01*
X131147327Y-91174674D01*
X131076620Y-91378572D01*
X131016353Y-91542895D01*
X130932685Y-91768451D01*
X130862194Y-91969050D01*
X130801043Y-92158219D01*
X130745398Y-92349484D01*
X130691420Y-92556373D01*
X130635274Y-92792414D01*
X130573124Y-93071133D01*
X130541452Y-93217453D01*
X130462664Y-93571292D01*
X130389817Y-93870021D01*
X130320450Y-94121474D01*
X130252105Y-94333482D01*
X130182322Y-94513879D01*
X130108641Y-94670496D01*
X130054341Y-94768625D01*
X129922207Y-94959724D01*
X129751122Y-95158523D01*
X129559581Y-95345654D01*
X129366076Y-95501751D01*
X129331250Y-95525875D01*
X129197343Y-95603837D01*
X129050338Y-95669688D01*
X128901312Y-95720925D01*
X128761341Y-95755044D01*
X128641500Y-95769543D01*
X128552866Y-95761919D01*
X128506515Y-95729668D01*
X128502385Y-95713187D01*
X128502350Y-95602812D01*
X128513543Y-95505784D01*
X128533049Y-95445174D01*
X128536880Y-95440257D01*
X128578767Y-95422248D01*
X128665963Y-95399181D01*
X128780998Y-95375562D01*
X128802285Y-95371778D01*
X129019366Y-95318278D01*
X129209612Y-95233548D01*
X129388904Y-95108405D01*
X129573119Y-94933668D01*
X129588914Y-94916876D01*
X129757908Y-94713565D01*
X129901661Y-94489592D01*
X130022952Y-94237506D01*
X130124563Y-93949853D01*
X130209275Y-93619182D01*
X130279869Y-93238040D01*
X130319609Y-92958875D01*
X130344031Y-92761264D01*
X130359119Y-92599855D01*
X130362404Y-92462667D01*
X130351415Y-92337720D01*
X130323682Y-92213033D01*
X130276737Y-92076626D01*
X130208108Y-91916520D01*
X130115328Y-91720733D01*
X130027334Y-91541092D01*
X129743768Y-90964887D01*
X129799446Y-90869858D01*
X129860069Y-90787051D01*
X129922440Y-90733717D01*
X129972339Y-90720825D01*
X129983913Y-90727580D01*
X129999792Y-90767120D01*
X130021842Y-90851331D01*
X130045399Y-90962314D01*
X130046311Y-90967084D01*
X130076904Y-91086127D01*
X130127800Y-91240729D01*
X130191461Y-91409377D01*
X130249060Y-91545656D01*
X130339819Y-91744825D01*
X130410773Y-91890063D01*
X130465858Y-91986333D01*
X130509010Y-92038598D01*
X130544164Y-92051823D01*
X130575256Y-92030971D01*
X130601463Y-91990101D01*
X130624583Y-91932713D01*
X130661092Y-91825284D01*
X130707677Y-91679035D01*
X130761022Y-91505188D01*
X130817813Y-91314965D01*
X130874735Y-91119588D01*
X130928472Y-90930279D01*
X130975712Y-90758259D01*
X131013138Y-90614751D01*
X131035086Y-90522062D01*
X131088314Y-90276000D01*
X131226778Y-90276000D01*
X131324331Y-90285312D01*
G37*
X131324331Y-90285312D02*
X131377167Y-90310610D01*
X131381106Y-90317338D01*
X131379331Y-90367883D01*
X131358810Y-90468370D01*
X131322447Y-90609046D01*
X131273143Y-90780157D01*
X131213803Y-90971951D01*
X131147327Y-91174674D01*
X131076620Y-91378572D01*
X131016353Y-91542895D01*
X130932685Y-91768451D01*
X130862194Y-91969050D01*
X130801043Y-92158219D01*
X130745398Y-92349484D01*
X130691420Y-92556373D01*
X130635274Y-92792414D01*
X130573124Y-93071133D01*
X130541452Y-93217453D01*
X130462664Y-93571292D01*
X130389817Y-93870021D01*
X130320450Y-94121474D01*
X130252105Y-94333482D01*
X130182322Y-94513879D01*
X130108641Y-94670496D01*
X130054341Y-94768625D01*
X129922207Y-94959724D01*
X129751122Y-95158523D01*
X129559581Y-95345654D01*
X129366076Y-95501751D01*
X129331250Y-95525875D01*
X129197343Y-95603837D01*
X129050338Y-95669688D01*
X128901312Y-95720925D01*
X128761341Y-95755044D01*
X128641500Y-95769543D01*
X128552866Y-95761919D01*
X128506515Y-95729668D01*
X128502385Y-95713187D01*
X128502350Y-95602812D01*
X128513543Y-95505784D01*
X128533049Y-95445174D01*
X128536880Y-95440257D01*
X128578767Y-95422248D01*
X128665963Y-95399181D01*
X128780998Y-95375562D01*
X128802285Y-95371778D01*
X129019366Y-95318278D01*
X129209612Y-95233548D01*
X129388904Y-95108405D01*
X129573119Y-94933668D01*
X129588914Y-94916876D01*
X129757908Y-94713565D01*
X129901661Y-94489592D01*
X130022952Y-94237506D01*
X130124563Y-93949853D01*
X130209275Y-93619182D01*
X130279869Y-93238040D01*
X130319609Y-92958875D01*
X130344031Y-92761264D01*
X130359119Y-92599855D01*
X130362404Y-92462667D01*
X130351415Y-92337720D01*
X130323682Y-92213033D01*
X130276737Y-92076626D01*
X130208108Y-91916520D01*
X130115328Y-91720733D01*
X130027334Y-91541092D01*
X129743768Y-90964887D01*
X129799446Y-90869858D01*
X129860069Y-90787051D01*
X129922440Y-90733717D01*
X129972339Y-90720825D01*
X129983913Y-90727580D01*
X129999792Y-90767120D01*
X130021842Y-90851331D01*
X130045399Y-90962314D01*
X130046311Y-90967084D01*
X130076904Y-91086127D01*
X130127800Y-91240729D01*
X130191461Y-91409377D01*
X130249060Y-91545656D01*
X130339819Y-91744825D01*
X130410773Y-91890063D01*
X130465858Y-91986333D01*
X130509010Y-92038598D01*
X130544164Y-92051823D01*
X130575256Y-92030971D01*
X130601463Y-91990101D01*
X130624583Y-91932713D01*
X130661092Y-91825284D01*
X130707677Y-91679035D01*
X130761022Y-91505188D01*
X130817813Y-91314965D01*
X130874735Y-91119588D01*
X130928472Y-90930279D01*
X130975712Y-90758259D01*
X131013138Y-90614751D01*
X131035086Y-90522062D01*
X131088314Y-90276000D01*
X131226778Y-90276000D01*
X131324331Y-90285312D01*
X132312289Y-90730478D02*
X132526297Y-90789683D01*
X132526297Y-90789683D02*
X132545937Y-90796796D01*
X132545937Y-90796796D02*
X132792000Y-90887755D01*
X132792000Y-90887755D02*
X132792000Y-91024504D01*
X132792000Y-91024504D02*
X132785704Y-91112503D01*
X132785704Y-91112503D02*
X132769901Y-91170462D01*
X132769901Y-91170462D02*
X132762433Y-91179525D01*
X132762433Y-91179525D02*
X132720624Y-91174278D01*
X132720624Y-91174278D02*
X132649612Y-91139737D01*
X132649612Y-91139737D02*
X132615202Y-91117950D01*
X132615202Y-91117950D02*
X132455444Y-91035862D01*
X132455444Y-91035862D02*
X132273376Y-90984180D01*
X132273376Y-90984180D02*
X132088252Y-90965307D01*
X132088252Y-90965307D02*
X131919327Y-90981647D01*
X131919327Y-90981647D02*
X131815481Y-91018126D01*
X131815481Y-91018126D02*
X131705824Y-91107639D01*
X131705824Y-91107639D02*
X131638959Y-91231069D01*
X131638959Y-91231069D02*
X131619140Y-91371867D01*
X131619140Y-91371867D02*
X131650620Y-91513480D01*
X131650620Y-91513480D02*
X131675684Y-91562054D01*
X131675684Y-91562054D02*
X131709815Y-91613472D01*
X131709815Y-91613472D02*
X131753883Y-91669543D01*
X131753883Y-91669543D02*
X131814033Y-91736540D01*
X131814033Y-91736540D02*
X131896411Y-91820734D01*
X131896411Y-91820734D02*
X132007163Y-91928397D01*
X132007163Y-91928397D02*
X132152434Y-92065800D01*
X132152434Y-92065800D02*
X132338371Y-92239215D01*
X132338371Y-92239215D02*
X132348395Y-92248525D01*
X132348395Y-92248525D02*
X132538512Y-92430693D01*
X132538512Y-92430693D02*
X132683586Y-92584856D01*
X132683586Y-92584856D02*
X132789750Y-92720600D01*
X132789750Y-92720600D02*
X132863139Y-92847511D01*
X132863139Y-92847511D02*
X132909887Y-92975176D01*
X132909887Y-92975176D02*
X132936127Y-93113181D01*
X132936127Y-93113181D02*
X132942552Y-93177068D01*
X132942552Y-93177068D02*
X132932914Y-93395483D01*
X132932914Y-93395483D02*
X132869706Y-93585376D01*
X132869706Y-93585376D02*
X132757055Y-93740952D01*
X132757055Y-93740952D02*
X132599088Y-93856414D01*
X132599088Y-93856414D02*
X132411000Y-93923627D01*
X132411000Y-93923627D02*
X132268762Y-93946282D01*
X132268762Y-93946282D02*
X132089654Y-93962803D01*
X132089654Y-93962803D02*
X131895856Y-93972313D01*
X131895856Y-93972313D02*
X131709547Y-93973938D01*
X131709547Y-93973938D02*
X131552907Y-93966800D01*
X131552907Y-93966800D02*
X131493803Y-93959854D01*
X131493803Y-93959854D02*
X131300053Y-93899004D01*
X131300053Y-93899004D02*
X131133680Y-93785463D01*
X131133680Y-93785463D02*
X131001141Y-93626496D01*
X131001141Y-93626496D02*
X130908889Y-93429367D01*
X130908889Y-93429367D02*
X130869544Y-93257397D01*
X130869544Y-93257397D02*
X130860306Y-93166468D01*
X130860306Y-93166468D02*
X130872089Y-93113428D01*
X130872089Y-93113428D02*
X130915453Y-93073534D01*
X130915453Y-93073534D02*
X130959574Y-93046469D01*
X130959574Y-93046469D02*
X131072463Y-92982904D01*
X131072463Y-92982904D02*
X131142892Y-92957669D01*
X131142892Y-92957669D02*
X131181974Y-92974998D01*
X131181974Y-92974998D02*
X131200822Y-93039129D01*
X131200822Y-93039129D02*
X131209763Y-93141841D01*
X131209763Y-93141841D02*
X131242082Y-93328474D01*
X131242082Y-93328474D02*
X131314669Y-93472599D01*
X131314669Y-93472599D02*
X131430837Y-93576675D01*
X131430837Y-93576675D02*
X131593898Y-93643159D01*
X131593898Y-93643159D02*
X131807166Y-93674509D01*
X131807166Y-93674509D02*
X131932266Y-93677783D01*
X131932266Y-93677783D02*
X132169576Y-93662926D01*
X132169576Y-93662926D02*
X132367227Y-93622166D01*
X132367227Y-93622166D02*
X132518230Y-93557585D01*
X132518230Y-93557585D02*
X132612907Y-93474990D01*
X132612907Y-93474990D02*
X132660195Y-93365376D01*
X132660195Y-93365376D02*
X132674538Y-93225375D01*
X132674538Y-93225375D02*
X132655739Y-93079004D01*
X132655739Y-93079004D02*
X132616995Y-92974015D01*
X132616995Y-92974015D02*
X132578579Y-92919684D01*
X132578579Y-92919684D02*
X132502760Y-92828851D01*
X132502760Y-92828851D02*
X132397047Y-92709905D01*
X132397047Y-92709905D02*
X132268951Y-92571235D01*
X132268951Y-92571235D02*
X132125979Y-92421229D01*
X132125979Y-92421229D02*
X132078042Y-92371927D01*
X132078042Y-92371927D02*
X131855664Y-92138856D01*
X131855664Y-92138856D02*
X131679406Y-91940324D01*
X131679406Y-91940324D02*
X131546210Y-91770698D01*
X131546210Y-91770698D02*
X131453016Y-91624347D01*
X131453016Y-91624347D02*
X131396765Y-91495639D01*
X131396765Y-91495639D02*
X131374400Y-91378941D01*
X131374400Y-91378941D02*
X131382860Y-91268623D01*
X131382860Y-91268623D02*
X131419088Y-91159051D01*
X131419088Y-91159051D02*
X131419181Y-91158840D01*
X131419181Y-91158840D02*
X131519452Y-90994780D01*
X131519452Y-90994780D02*
X131659072Y-90849034D01*
X131659072Y-90849034D02*
X131787306Y-90760330D01*
X131787306Y-90760330D02*
X131928780Y-90715127D01*
X131928780Y-90715127D02*
X132108446Y-90705401D01*
X132108446Y-90705401D02*
X132312289Y-90730478D01*
X132312289Y-90730478D02*
X132312289Y-90730478D01*
G36*
X132312289Y-90730478D02*
G01*
X132526297Y-90789683D01*
X132545937Y-90796796D01*
X132792000Y-90887755D01*
X132792000Y-91024504D01*
X132785704Y-91112503D01*
X132769901Y-91170462D01*
X132762433Y-91179525D01*
X132720624Y-91174278D01*
X132649612Y-91139737D01*
X132615202Y-91117950D01*
X132455444Y-91035862D01*
X132273376Y-90984180D01*
X132088252Y-90965307D01*
X131919327Y-90981647D01*
X131815481Y-91018126D01*
X131705824Y-91107639D01*
X131638959Y-91231069D01*
X131619140Y-91371867D01*
X131650620Y-91513480D01*
X131675684Y-91562054D01*
X131709815Y-91613472D01*
X131753883Y-91669543D01*
X131814033Y-91736540D01*
X131896411Y-91820734D01*
X132007163Y-91928397D01*
X132152434Y-92065800D01*
X132338371Y-92239215D01*
X132348395Y-92248525D01*
X132538512Y-92430693D01*
X132683586Y-92584856D01*
X132789750Y-92720600D01*
X132863139Y-92847511D01*
X132909887Y-92975176D01*
X132936127Y-93113181D01*
X132942552Y-93177068D01*
X132932914Y-93395483D01*
X132869706Y-93585376D01*
X132757055Y-93740952D01*
X132599088Y-93856414D01*
X132411000Y-93923627D01*
X132268762Y-93946282D01*
X132089654Y-93962803D01*
X131895856Y-93972313D01*
X131709547Y-93973938D01*
X131552907Y-93966800D01*
X131493803Y-93959854D01*
X131300053Y-93899004D01*
X131133680Y-93785463D01*
X131001141Y-93626496D01*
X130908889Y-93429367D01*
X130869544Y-93257397D01*
X130860306Y-93166468D01*
X130872089Y-93113428D01*
X130915453Y-93073534D01*
X130959574Y-93046469D01*
X131072463Y-92982904D01*
X131142892Y-92957669D01*
X131181974Y-92974998D01*
X131200822Y-93039129D01*
X131209763Y-93141841D01*
X131242082Y-93328474D01*
X131314669Y-93472599D01*
X131430837Y-93576675D01*
X131593898Y-93643159D01*
X131807166Y-93674509D01*
X131932266Y-93677783D01*
X132169576Y-93662926D01*
X132367227Y-93622166D01*
X132518230Y-93557585D01*
X132612907Y-93474990D01*
X132660195Y-93365376D01*
X132674538Y-93225375D01*
X132655739Y-93079004D01*
X132616995Y-92974015D01*
X132578579Y-92919684D01*
X132502760Y-92828851D01*
X132397047Y-92709905D01*
X132268951Y-92571235D01*
X132125979Y-92421229D01*
X132078042Y-92371927D01*
X131855664Y-92138856D01*
X131679406Y-91940324D01*
X131546210Y-91770698D01*
X131453016Y-91624347D01*
X131396765Y-91495639D01*
X131374400Y-91378941D01*
X131382860Y-91268623D01*
X131419088Y-91159051D01*
X131419181Y-91158840D01*
X131519452Y-90994780D01*
X131659072Y-90849034D01*
X131787306Y-90760330D01*
X131928780Y-90715127D01*
X132108446Y-90705401D01*
X132312289Y-90730478D01*
G37*
X132312289Y-90730478D02*
X132526297Y-90789683D01*
X132545937Y-90796796D01*
X132792000Y-90887755D01*
X132792000Y-91024504D01*
X132785704Y-91112503D01*
X132769901Y-91170462D01*
X132762433Y-91179525D01*
X132720624Y-91174278D01*
X132649612Y-91139737D01*
X132615202Y-91117950D01*
X132455444Y-91035862D01*
X132273376Y-90984180D01*
X132088252Y-90965307D01*
X131919327Y-90981647D01*
X131815481Y-91018126D01*
X131705824Y-91107639D01*
X131638959Y-91231069D01*
X131619140Y-91371867D01*
X131650620Y-91513480D01*
X131675684Y-91562054D01*
X131709815Y-91613472D01*
X131753883Y-91669543D01*
X131814033Y-91736540D01*
X131896411Y-91820734D01*
X132007163Y-91928397D01*
X132152434Y-92065800D01*
X132338371Y-92239215D01*
X132348395Y-92248525D01*
X132538512Y-92430693D01*
X132683586Y-92584856D01*
X132789750Y-92720600D01*
X132863139Y-92847511D01*
X132909887Y-92975176D01*
X132936127Y-93113181D01*
X132942552Y-93177068D01*
X132932914Y-93395483D01*
X132869706Y-93585376D01*
X132757055Y-93740952D01*
X132599088Y-93856414D01*
X132411000Y-93923627D01*
X132268762Y-93946282D01*
X132089654Y-93962803D01*
X131895856Y-93972313D01*
X131709547Y-93973938D01*
X131552907Y-93966800D01*
X131493803Y-93959854D01*
X131300053Y-93899004D01*
X131133680Y-93785463D01*
X131001141Y-93626496D01*
X130908889Y-93429367D01*
X130869544Y-93257397D01*
X130860306Y-93166468D01*
X130872089Y-93113428D01*
X130915453Y-93073534D01*
X130959574Y-93046469D01*
X131072463Y-92982904D01*
X131142892Y-92957669D01*
X131181974Y-92974998D01*
X131200822Y-93039129D01*
X131209763Y-93141841D01*
X131242082Y-93328474D01*
X131314669Y-93472599D01*
X131430837Y-93576675D01*
X131593898Y-93643159D01*
X131807166Y-93674509D01*
X131932266Y-93677783D01*
X132169576Y-93662926D01*
X132367227Y-93622166D01*
X132518230Y-93557585D01*
X132612907Y-93474990D01*
X132660195Y-93365376D01*
X132674538Y-93225375D01*
X132655739Y-93079004D01*
X132616995Y-92974015D01*
X132578579Y-92919684D01*
X132502760Y-92828851D01*
X132397047Y-92709905D01*
X132268951Y-92571235D01*
X132125979Y-92421229D01*
X132078042Y-92371927D01*
X131855664Y-92138856D01*
X131679406Y-91940324D01*
X131546210Y-91770698D01*
X131453016Y-91624347D01*
X131396765Y-91495639D01*
X131374400Y-91378941D01*
X131382860Y-91268623D01*
X131419088Y-91159051D01*
X131419181Y-91158840D01*
X131519452Y-90994780D01*
X131659072Y-90849034D01*
X131787306Y-90760330D01*
X131928780Y-90715127D01*
X132108446Y-90705401D01*
X132312289Y-90730478D01*
X138545910Y-90028074D02*
X138640384Y-90044617D01*
X138640384Y-90044617D02*
X138701351Y-90057542D01*
X138701351Y-90057542D02*
X138888869Y-90129160D01*
X138888869Y-90129160D02*
X139048704Y-90256386D01*
X139048704Y-90256386D02*
X139179486Y-90437038D01*
X139179486Y-90437038D02*
X139279842Y-90668930D01*
X139279842Y-90668930D02*
X139348402Y-90949880D01*
X139348402Y-90949880D02*
X139372203Y-91125917D01*
X139372203Y-91125917D02*
X139384736Y-91262574D01*
X139384736Y-91262574D02*
X139392359Y-91373861D01*
X139392359Y-91373861D02*
X139394277Y-91445894D01*
X139394277Y-91445894D02*
X139391692Y-91465640D01*
X139391692Y-91465640D02*
X139355530Y-91475483D01*
X139355530Y-91475483D02*
X139273644Y-91488275D01*
X139273644Y-91488275D02*
X139163556Y-91501291D01*
X139163556Y-91501291D02*
X139160443Y-91501612D01*
X139160443Y-91501612D02*
X138942876Y-91523902D01*
X138942876Y-91523902D02*
X138959908Y-91431763D01*
X138959908Y-91431763D02*
X138975163Y-91349448D01*
X138975163Y-91349448D02*
X138996514Y-91234469D01*
X138996514Y-91234469D02*
X139012383Y-91149125D01*
X139012383Y-91149125D02*
X139031541Y-90927561D01*
X139031541Y-90927561D02*
X139005020Y-90734884D01*
X139005020Y-90734884D02*
X138937563Y-90576426D01*
X138937563Y-90576426D02*
X138833909Y-90457520D01*
X138833909Y-90457520D02*
X138698802Y-90383502D01*
X138698802Y-90383502D02*
X138536981Y-90359704D01*
X138536981Y-90359704D02*
X138353189Y-90391460D01*
X138353189Y-90391460D02*
X138342089Y-90395074D01*
X138342089Y-90395074D02*
X138207793Y-90460058D01*
X138207793Y-90460058D02*
X138094167Y-90561391D01*
X138094167Y-90561391D02*
X137998416Y-90704394D01*
X137998416Y-90704394D02*
X137917746Y-90894387D01*
X137917746Y-90894387D02*
X137849363Y-91136691D01*
X137849363Y-91136691D02*
X137790472Y-91436626D01*
X137790472Y-91436626D02*
X137788352Y-91449422D01*
X137788352Y-91449422D02*
X137763364Y-91673120D01*
X137763364Y-91673120D02*
X137752689Y-91937878D01*
X137752689Y-91937878D02*
X137755816Y-92223011D01*
X137755816Y-92223011D02*
X137772235Y-92507833D01*
X137772235Y-92507833D02*
X137801435Y-92771658D01*
X137801435Y-92771658D02*
X137824405Y-92908858D01*
X137824405Y-92908858D02*
X137895765Y-93181015D01*
X137895765Y-93181015D02*
X137992833Y-93395466D01*
X137992833Y-93395466D02*
X138116259Y-93552851D01*
X138116259Y-93552851D02*
X138266693Y-93653812D01*
X138266693Y-93653812D02*
X138444785Y-93698989D01*
X138444785Y-93698989D02*
X138620635Y-93693703D01*
X138620635Y-93693703D02*
X138822765Y-93643017D01*
X138822765Y-93643017D02*
X138982785Y-93550627D01*
X138982785Y-93550627D02*
X139102394Y-93414030D01*
X139102394Y-93414030D02*
X139183290Y-93230726D01*
X139183290Y-93230726D02*
X139227174Y-92998212D01*
X139227174Y-92998212D02*
X139236816Y-92786424D01*
X139236816Y-92786424D02*
X139232787Y-92598128D01*
X139232787Y-92598128D02*
X139219309Y-92469113D01*
X139219309Y-92469113D02*
X139193243Y-92395476D01*
X139193243Y-92395476D02*
X139151452Y-92373312D01*
X139151452Y-92373312D02*
X139090799Y-92398718D01*
X139090799Y-92398718D02*
X139008148Y-92467790D01*
X139008148Y-92467790D02*
X138992680Y-92482625D01*
X138992680Y-92482625D02*
X138891237Y-92564529D01*
X138891237Y-92564529D02*
X138814906Y-92588256D01*
X138814906Y-92588256D02*
X138763110Y-92553530D01*
X138763110Y-92553530D02*
X138735272Y-92460075D01*
X138735272Y-92460075D02*
X138729736Y-92357212D01*
X138729736Y-92357212D02*
X138733368Y-92247376D01*
X138733368Y-92247376D02*
X138750747Y-92174328D01*
X138750747Y-92174328D02*
X138792789Y-92129952D01*
X138792789Y-92129952D02*
X138870409Y-92106131D01*
X138870409Y-92106131D02*
X138994523Y-92094750D01*
X138994523Y-92094750D02*
X139088027Y-92090798D01*
X139088027Y-92090798D02*
X139228297Y-92086205D01*
X139228297Y-92086205D02*
X139332606Y-92089359D01*
X139332606Y-92089359D02*
X139405948Y-92108209D01*
X139405948Y-92108209D02*
X139453317Y-92150704D01*
X139453317Y-92150704D02*
X139479705Y-92224794D01*
X139479705Y-92224794D02*
X139490107Y-92338427D01*
X139490107Y-92338427D02*
X139489515Y-92499553D01*
X139489515Y-92499553D02*
X139482924Y-92716121D01*
X139482924Y-92716121D02*
X139482823Y-92719284D01*
X139482823Y-92719284D02*
X139473768Y-92943766D01*
X139473768Y-92943766D02*
X139461897Y-93117871D01*
X139461897Y-93117871D02*
X139445731Y-93254705D01*
X139445731Y-93254705D02*
X139423790Y-93367376D01*
X139423790Y-93367376D02*
X139400100Y-93452034D01*
X139400100Y-93452034D02*
X139309772Y-93654992D01*
X139309772Y-93654992D02*
X139184449Y-93810721D01*
X139184449Y-93810721D02*
X139028320Y-93914103D01*
X139028320Y-93914103D02*
X139018304Y-93918428D01*
X139018304Y-93918428D02*
X138906589Y-93948873D01*
X138906589Y-93948873D02*
X138753933Y-93969120D01*
X138753933Y-93969120D02*
X138582200Y-93978350D01*
X138582200Y-93978350D02*
X138413252Y-93975744D01*
X138413252Y-93975744D02*
X138268952Y-93960483D01*
X138268952Y-93960483D02*
X138215203Y-93948519D01*
X138215203Y-93948519D02*
X138017954Y-93867682D01*
X138017954Y-93867682D02*
X137859116Y-93745233D01*
X137859116Y-93745233D02*
X137733640Y-93575633D01*
X137733640Y-93575633D02*
X137636478Y-93353343D01*
X137636478Y-93353343D02*
X137617025Y-93292250D01*
X137617025Y-93292250D02*
X137557706Y-93034604D01*
X137557706Y-93034604D02*
X137517565Y-92731624D01*
X137517565Y-92731624D02*
X137496461Y-92398462D01*
X137496461Y-92398462D02*
X137494256Y-92050275D01*
X137494256Y-92050275D02*
X137510810Y-91702217D01*
X137510810Y-91702217D02*
X137545983Y-91369444D01*
X137545983Y-91369444D02*
X137599637Y-91067111D01*
X137599637Y-91067111D02*
X137638897Y-90912614D01*
X137638897Y-90912614D02*
X137734506Y-90636743D01*
X137734506Y-90636743D02*
X137846193Y-90418562D01*
X137846193Y-90418562D02*
X137977477Y-90253513D01*
X137977477Y-90253513D02*
X138131878Y-90137039D01*
X138131878Y-90137039D02*
X138288620Y-90071416D01*
X138288620Y-90071416D02*
X138396914Y-90040570D01*
X138396914Y-90040570D02*
X138473715Y-90026424D01*
X138473715Y-90026424D02*
X138545910Y-90028074D01*
X138545910Y-90028074D02*
X138545910Y-90028074D01*
G36*
X138545910Y-90028074D02*
G01*
X138640384Y-90044617D01*
X138701351Y-90057542D01*
X138888869Y-90129160D01*
X139048704Y-90256386D01*
X139179486Y-90437038D01*
X139279842Y-90668930D01*
X139348402Y-90949880D01*
X139372203Y-91125917D01*
X139384736Y-91262574D01*
X139392359Y-91373861D01*
X139394277Y-91445894D01*
X139391692Y-91465640D01*
X139355530Y-91475483D01*
X139273644Y-91488275D01*
X139163556Y-91501291D01*
X139160443Y-91501612D01*
X138942876Y-91523902D01*
X138959908Y-91431763D01*
X138975163Y-91349448D01*
X138996514Y-91234469D01*
X139012383Y-91149125D01*
X139031541Y-90927561D01*
X139005020Y-90734884D01*
X138937563Y-90576426D01*
X138833909Y-90457520D01*
X138698802Y-90383502D01*
X138536981Y-90359704D01*
X138353189Y-90391460D01*
X138342089Y-90395074D01*
X138207793Y-90460058D01*
X138094167Y-90561391D01*
X137998416Y-90704394D01*
X137917746Y-90894387D01*
X137849363Y-91136691D01*
X137790472Y-91436626D01*
X137788352Y-91449422D01*
X137763364Y-91673120D01*
X137752689Y-91937878D01*
X137755816Y-92223011D01*
X137772235Y-92507833D01*
X137801435Y-92771658D01*
X137824405Y-92908858D01*
X137895765Y-93181015D01*
X137992833Y-93395466D01*
X138116259Y-93552851D01*
X138266693Y-93653812D01*
X138444785Y-93698989D01*
X138620635Y-93693703D01*
X138822765Y-93643017D01*
X138982785Y-93550627D01*
X139102394Y-93414030D01*
X139183290Y-93230726D01*
X139227174Y-92998212D01*
X139236816Y-92786424D01*
X139232787Y-92598128D01*
X139219309Y-92469113D01*
X139193243Y-92395476D01*
X139151452Y-92373312D01*
X139090799Y-92398718D01*
X139008148Y-92467790D01*
X138992680Y-92482625D01*
X138891237Y-92564529D01*
X138814906Y-92588256D01*
X138763110Y-92553530D01*
X138735272Y-92460075D01*
X138729736Y-92357212D01*
X138733368Y-92247376D01*
X138750747Y-92174328D01*
X138792789Y-92129952D01*
X138870409Y-92106131D01*
X138994523Y-92094750D01*
X139088027Y-92090798D01*
X139228297Y-92086205D01*
X139332606Y-92089359D01*
X139405948Y-92108209D01*
X139453317Y-92150704D01*
X139479705Y-92224794D01*
X139490107Y-92338427D01*
X139489515Y-92499553D01*
X139482924Y-92716121D01*
X139482823Y-92719284D01*
X139473768Y-92943766D01*
X139461897Y-93117871D01*
X139445731Y-93254705D01*
X139423790Y-93367376D01*
X139400100Y-93452034D01*
X139309772Y-93654992D01*
X139184449Y-93810721D01*
X139028320Y-93914103D01*
X139018304Y-93918428D01*
X138906589Y-93948873D01*
X138753933Y-93969120D01*
X138582200Y-93978350D01*
X138413252Y-93975744D01*
X138268952Y-93960483D01*
X138215203Y-93948519D01*
X138017954Y-93867682D01*
X137859116Y-93745233D01*
X137733640Y-93575633D01*
X137636478Y-93353343D01*
X137617025Y-93292250D01*
X137557706Y-93034604D01*
X137517565Y-92731624D01*
X137496461Y-92398462D01*
X137494256Y-92050275D01*
X137510810Y-91702217D01*
X137545983Y-91369444D01*
X137599637Y-91067111D01*
X137638897Y-90912614D01*
X137734506Y-90636743D01*
X137846193Y-90418562D01*
X137977477Y-90253513D01*
X138131878Y-90137039D01*
X138288620Y-90071416D01*
X138396914Y-90040570D01*
X138473715Y-90026424D01*
X138545910Y-90028074D01*
G37*
X138545910Y-90028074D02*
X138640384Y-90044617D01*
X138701351Y-90057542D01*
X138888869Y-90129160D01*
X139048704Y-90256386D01*
X139179486Y-90437038D01*
X139279842Y-90668930D01*
X139348402Y-90949880D01*
X139372203Y-91125917D01*
X139384736Y-91262574D01*
X139392359Y-91373861D01*
X139394277Y-91445894D01*
X139391692Y-91465640D01*
X139355530Y-91475483D01*
X139273644Y-91488275D01*
X139163556Y-91501291D01*
X139160443Y-91501612D01*
X138942876Y-91523902D01*
X138959908Y-91431763D01*
X138975163Y-91349448D01*
X138996514Y-91234469D01*
X139012383Y-91149125D01*
X139031541Y-90927561D01*
X139005020Y-90734884D01*
X138937563Y-90576426D01*
X138833909Y-90457520D01*
X138698802Y-90383502D01*
X138536981Y-90359704D01*
X138353189Y-90391460D01*
X138342089Y-90395074D01*
X138207793Y-90460058D01*
X138094167Y-90561391D01*
X137998416Y-90704394D01*
X137917746Y-90894387D01*
X137849363Y-91136691D01*
X137790472Y-91436626D01*
X137788352Y-91449422D01*
X137763364Y-91673120D01*
X137752689Y-91937878D01*
X137755816Y-92223011D01*
X137772235Y-92507833D01*
X137801435Y-92771658D01*
X137824405Y-92908858D01*
X137895765Y-93181015D01*
X137992833Y-93395466D01*
X138116259Y-93552851D01*
X138266693Y-93653812D01*
X138444785Y-93698989D01*
X138620635Y-93693703D01*
X138822765Y-93643017D01*
X138982785Y-93550627D01*
X139102394Y-93414030D01*
X139183290Y-93230726D01*
X139227174Y-92998212D01*
X139236816Y-92786424D01*
X139232787Y-92598128D01*
X139219309Y-92469113D01*
X139193243Y-92395476D01*
X139151452Y-92373312D01*
X139090799Y-92398718D01*
X139008148Y-92467790D01*
X138992680Y-92482625D01*
X138891237Y-92564529D01*
X138814906Y-92588256D01*
X138763110Y-92553530D01*
X138735272Y-92460075D01*
X138729736Y-92357212D01*
X138733368Y-92247376D01*
X138750747Y-92174328D01*
X138792789Y-92129952D01*
X138870409Y-92106131D01*
X138994523Y-92094750D01*
X139088027Y-92090798D01*
X139228297Y-92086205D01*
X139332606Y-92089359D01*
X139405948Y-92108209D01*
X139453317Y-92150704D01*
X139479705Y-92224794D01*
X139490107Y-92338427D01*
X139489515Y-92499553D01*
X139482924Y-92716121D01*
X139482823Y-92719284D01*
X139473768Y-92943766D01*
X139461897Y-93117871D01*
X139445731Y-93254705D01*
X139423790Y-93367376D01*
X139400100Y-93452034D01*
X139309772Y-93654992D01*
X139184449Y-93810721D01*
X139028320Y-93914103D01*
X139018304Y-93918428D01*
X138906589Y-93948873D01*
X138753933Y-93969120D01*
X138582200Y-93978350D01*
X138413252Y-93975744D01*
X138268952Y-93960483D01*
X138215203Y-93948519D01*
X138017954Y-93867682D01*
X137859116Y-93745233D01*
X137733640Y-93575633D01*
X137636478Y-93353343D01*
X137617025Y-93292250D01*
X137557706Y-93034604D01*
X137517565Y-92731624D01*
X137496461Y-92398462D01*
X137494256Y-92050275D01*
X137510810Y-91702217D01*
X137545983Y-91369444D01*
X137599637Y-91067111D01*
X137638897Y-90912614D01*
X137734506Y-90636743D01*
X137846193Y-90418562D01*
X137977477Y-90253513D01*
X138131878Y-90137039D01*
X138288620Y-90071416D01*
X138396914Y-90040570D01*
X138473715Y-90026424D01*
X138545910Y-90028074D01*
X135324160Y-90190419D02*
X135329767Y-90265465D01*
X135329767Y-90265465D02*
X135334040Y-90359485D01*
X135334040Y-90359485D02*
X135335917Y-90450216D01*
X135335917Y-90450216D02*
X135334944Y-90506187D01*
X135334944Y-90506187D02*
X135321427Y-90539663D01*
X135321427Y-90539663D02*
X135275782Y-90557031D01*
X135275782Y-90557031D02*
X135183502Y-90563184D01*
X135183502Y-90563184D02*
X135165312Y-90563437D01*
X135165312Y-90563437D02*
X135067641Y-90569752D01*
X135067641Y-90569752D02*
X134926875Y-90585656D01*
X134926875Y-90585656D02*
X134762271Y-90608707D01*
X134762271Y-90608707D02*
X134602076Y-90634875D01*
X134602076Y-90634875D02*
X134431112Y-90665646D01*
X134431112Y-90665646D02*
X134307433Y-90695362D01*
X134307433Y-90695362D02*
X134223111Y-90734215D01*
X134223111Y-90734215D02*
X134170219Y-90792395D01*
X134170219Y-90792395D02*
X134140828Y-90880091D01*
X134140828Y-90880091D02*
X134127012Y-91007494D01*
X134127012Y-91007494D02*
X134120841Y-91184795D01*
X134120841Y-91184795D02*
X134119141Y-91255634D01*
X134119141Y-91255634D02*
X134116166Y-91429502D01*
X134116166Y-91429502D02*
X134122069Y-91558708D01*
X134122069Y-91558708D02*
X134144614Y-91648398D01*
X134144614Y-91648398D02*
X134191561Y-91703722D01*
X134191561Y-91703722D02*
X134270675Y-91729828D01*
X134270675Y-91729828D02*
X134389716Y-91731865D01*
X134389716Y-91731865D02*
X134556448Y-91714979D01*
X134556448Y-91714979D02*
X134767810Y-91685857D01*
X134767810Y-91685857D02*
X134875301Y-91680960D01*
X134875301Y-91680960D02*
X134934239Y-91709289D01*
X134934239Y-91709289D02*
X134950679Y-91778401D01*
X134950679Y-91778401D02*
X134931930Y-91890819D01*
X134931930Y-91890819D02*
X134903375Y-92006375D01*
X134903375Y-92006375D02*
X134545048Y-92006375D01*
X134545048Y-92006375D02*
X134380132Y-92008177D01*
X134380132Y-92008177D02*
X134268183Y-92014434D01*
X134268183Y-92014434D02*
X134198749Y-92026416D01*
X134198749Y-92026416D02*
X134161375Y-92045398D01*
X134161375Y-92045398D02*
X134153887Y-92054000D01*
X134153887Y-92054000D02*
X134143252Y-92102536D01*
X134143252Y-92102536D02*
X134137114Y-92202564D01*
X134137114Y-92202564D02*
X134135139Y-92342260D01*
X134135139Y-92342260D02*
X134136996Y-92509799D01*
X134136996Y-92509799D02*
X134142352Y-92693357D01*
X134142352Y-92693357D02*
X134150872Y-92881109D01*
X134150872Y-92881109D02*
X134162226Y-93061233D01*
X134162226Y-93061233D02*
X134176080Y-93221903D01*
X134176080Y-93221903D02*
X134190014Y-93337397D01*
X134190014Y-93337397D02*
X134208587Y-93458195D01*
X134208587Y-93458195D02*
X134230171Y-93543085D01*
X134230171Y-93543085D02*
X134265059Y-93597828D01*
X134265059Y-93597828D02*
X134323545Y-93628184D01*
X134323545Y-93628184D02*
X134415920Y-93639915D01*
X134415920Y-93639915D02*
X134552478Y-93638781D01*
X134552478Y-93638781D02*
X134715988Y-93631777D01*
X134715988Y-93631777D02*
X134887544Y-93621675D01*
X134887544Y-93621675D02*
X135050148Y-93607926D01*
X135050148Y-93607926D02*
X135185867Y-93592306D01*
X135185867Y-93592306D02*
X135276767Y-93576591D01*
X135276767Y-93576591D02*
X135279238Y-93575981D01*
X135279238Y-93575981D02*
X135400858Y-93551732D01*
X135400858Y-93551732D02*
X135474197Y-93559619D01*
X135474197Y-93559619D02*
X135509785Y-93607826D01*
X135509785Y-93607826D02*
X135518153Y-93704543D01*
X135518153Y-93704543D02*
X135516158Y-93760178D01*
X135516158Y-93760178D02*
X135506625Y-93943125D01*
X135506625Y-93943125D02*
X134725682Y-93951606D01*
X134725682Y-93951606D02*
X133944739Y-93960088D01*
X133944739Y-93960088D02*
X133924297Y-93602172D01*
X133924297Y-93602172D02*
X133917151Y-93451960D01*
X133917151Y-93451960D02*
X133910223Y-93259493D01*
X133910223Y-93259493D02*
X133903622Y-93032845D01*
X133903622Y-93032845D02*
X133897454Y-92780088D01*
X133897454Y-92780088D02*
X133891829Y-92509293D01*
X133891829Y-92509293D02*
X133886855Y-92228533D01*
X133886855Y-92228533D02*
X133882639Y-91945878D01*
X133882639Y-91945878D02*
X133879290Y-91669403D01*
X133879290Y-91669403D02*
X133876915Y-91407177D01*
X133876915Y-91407177D02*
X133875624Y-91167274D01*
X133875624Y-91167274D02*
X133875523Y-90957766D01*
X133875523Y-90957766D02*
X133876722Y-90786723D01*
X133876722Y-90786723D02*
X133879327Y-90662219D01*
X133879327Y-90662219D02*
X133883448Y-90592326D01*
X133883448Y-90592326D02*
X133883941Y-90588695D01*
X133883941Y-90588695D02*
X133906201Y-90441015D01*
X133906201Y-90441015D02*
X134087288Y-90407637D01*
X134087288Y-90407637D02*
X134181052Y-90389323D01*
X134181052Y-90389323D02*
X134321436Y-90360601D01*
X134321436Y-90360601D02*
X134493040Y-90324681D01*
X134493040Y-90324681D02*
X134680460Y-90284774D01*
X134680460Y-90284774D02*
X134789273Y-90261299D01*
X134789273Y-90261299D02*
X134961894Y-90224430D01*
X134961894Y-90224430D02*
X135111321Y-90193594D01*
X135111321Y-90193594D02*
X135227219Y-90170834D01*
X135227219Y-90170834D02*
X135299249Y-90158197D01*
X135299249Y-90158197D02*
X135318279Y-90156606D01*
X135318279Y-90156606D02*
X135324160Y-90190419D01*
X135324160Y-90190419D02*
X135324160Y-90190419D01*
G36*
X135324160Y-90190419D02*
G01*
X135329767Y-90265465D01*
X135334040Y-90359485D01*
X135335917Y-90450216D01*
X135334944Y-90506187D01*
X135321427Y-90539663D01*
X135275782Y-90557031D01*
X135183502Y-90563184D01*
X135165312Y-90563437D01*
X135067641Y-90569752D01*
X134926875Y-90585656D01*
X134762271Y-90608707D01*
X134602076Y-90634875D01*
X134431112Y-90665646D01*
X134307433Y-90695362D01*
X134223111Y-90734215D01*
X134170219Y-90792395D01*
X134140828Y-90880091D01*
X134127012Y-91007494D01*
X134120841Y-91184795D01*
X134119141Y-91255634D01*
X134116166Y-91429502D01*
X134122069Y-91558708D01*
X134144614Y-91648398D01*
X134191561Y-91703722D01*
X134270675Y-91729828D01*
X134389716Y-91731865D01*
X134556448Y-91714979D01*
X134767810Y-91685857D01*
X134875301Y-91680960D01*
X134934239Y-91709289D01*
X134950679Y-91778401D01*
X134931930Y-91890819D01*
X134903375Y-92006375D01*
X134545048Y-92006375D01*
X134380132Y-92008177D01*
X134268183Y-92014434D01*
X134198749Y-92026416D01*
X134161375Y-92045398D01*
X134153887Y-92054000D01*
X134143252Y-92102536D01*
X134137114Y-92202564D01*
X134135139Y-92342260D01*
X134136996Y-92509799D01*
X134142352Y-92693357D01*
X134150872Y-92881109D01*
X134162226Y-93061233D01*
X134176080Y-93221903D01*
X134190014Y-93337397D01*
X134208587Y-93458195D01*
X134230171Y-93543085D01*
X134265059Y-93597828D01*
X134323545Y-93628184D01*
X134415920Y-93639915D01*
X134552478Y-93638781D01*
X134715988Y-93631777D01*
X134887544Y-93621675D01*
X135050148Y-93607926D01*
X135185867Y-93592306D01*
X135276767Y-93576591D01*
X135279238Y-93575981D01*
X135400858Y-93551732D01*
X135474197Y-93559619D01*
X135509785Y-93607826D01*
X135518153Y-93704543D01*
X135516158Y-93760178D01*
X135506625Y-93943125D01*
X134725682Y-93951606D01*
X133944739Y-93960088D01*
X133924297Y-93602172D01*
X133917151Y-93451960D01*
X133910223Y-93259493D01*
X133903622Y-93032845D01*
X133897454Y-92780088D01*
X133891829Y-92509293D01*
X133886855Y-92228533D01*
X133882639Y-91945878D01*
X133879290Y-91669403D01*
X133876915Y-91407177D01*
X133875624Y-91167274D01*
X133875523Y-90957766D01*
X133876722Y-90786723D01*
X133879327Y-90662219D01*
X133883448Y-90592326D01*
X133883941Y-90588695D01*
X133906201Y-90441015D01*
X134087288Y-90407637D01*
X134181052Y-90389323D01*
X134321436Y-90360601D01*
X134493040Y-90324681D01*
X134680460Y-90284774D01*
X134789273Y-90261299D01*
X134961894Y-90224430D01*
X135111321Y-90193594D01*
X135227219Y-90170834D01*
X135299249Y-90158197D01*
X135318279Y-90156606D01*
X135324160Y-90190419D01*
G37*
X135324160Y-90190419D02*
X135329767Y-90265465D01*
X135334040Y-90359485D01*
X135335917Y-90450216D01*
X135334944Y-90506187D01*
X135321427Y-90539663D01*
X135275782Y-90557031D01*
X135183502Y-90563184D01*
X135165312Y-90563437D01*
X135067641Y-90569752D01*
X134926875Y-90585656D01*
X134762271Y-90608707D01*
X134602076Y-90634875D01*
X134431112Y-90665646D01*
X134307433Y-90695362D01*
X134223111Y-90734215D01*
X134170219Y-90792395D01*
X134140828Y-90880091D01*
X134127012Y-91007494D01*
X134120841Y-91184795D01*
X134119141Y-91255634D01*
X134116166Y-91429502D01*
X134122069Y-91558708D01*
X134144614Y-91648398D01*
X134191561Y-91703722D01*
X134270675Y-91729828D01*
X134389716Y-91731865D01*
X134556448Y-91714979D01*
X134767810Y-91685857D01*
X134875301Y-91680960D01*
X134934239Y-91709289D01*
X134950679Y-91778401D01*
X134931930Y-91890819D01*
X134903375Y-92006375D01*
X134545048Y-92006375D01*
X134380132Y-92008177D01*
X134268183Y-92014434D01*
X134198749Y-92026416D01*
X134161375Y-92045398D01*
X134153887Y-92054000D01*
X134143252Y-92102536D01*
X134137114Y-92202564D01*
X134135139Y-92342260D01*
X134136996Y-92509799D01*
X134142352Y-92693357D01*
X134150872Y-92881109D01*
X134162226Y-93061233D01*
X134176080Y-93221903D01*
X134190014Y-93337397D01*
X134208587Y-93458195D01*
X134230171Y-93543085D01*
X134265059Y-93597828D01*
X134323545Y-93628184D01*
X134415920Y-93639915D01*
X134552478Y-93638781D01*
X134715988Y-93631777D01*
X134887544Y-93621675D01*
X135050148Y-93607926D01*
X135185867Y-93592306D01*
X135276767Y-93576591D01*
X135279238Y-93575981D01*
X135400858Y-93551732D01*
X135474197Y-93559619D01*
X135509785Y-93607826D01*
X135518153Y-93704543D01*
X135516158Y-93760178D01*
X135506625Y-93943125D01*
X134725682Y-93951606D01*
X133944739Y-93960088D01*
X133924297Y-93602172D01*
X133917151Y-93451960D01*
X133910223Y-93259493D01*
X133903622Y-93032845D01*
X133897454Y-92780088D01*
X133891829Y-92509293D01*
X133886855Y-92228533D01*
X133882639Y-91945878D01*
X133879290Y-91669403D01*
X133876915Y-91407177D01*
X133875624Y-91167274D01*
X133875523Y-90957766D01*
X133876722Y-90786723D01*
X133879327Y-90662219D01*
X133883448Y-90592326D01*
X133883941Y-90588695D01*
X133906201Y-90441015D01*
X134087288Y-90407637D01*
X134181052Y-90389323D01*
X134321436Y-90360601D01*
X134493040Y-90324681D01*
X134680460Y-90284774D01*
X134789273Y-90261299D01*
X134961894Y-90224430D01*
X135111321Y-90193594D01*
X135227219Y-90170834D01*
X135299249Y-90158197D01*
X135318279Y-90156606D01*
X135324160Y-90190419D01*
X128111299Y-90139546D02*
X128064796Y-90376133D01*
X128064796Y-90376133D02*
X128026574Y-90612436D01*
X128026574Y-90612436D02*
X127997531Y-90838397D01*
X127997531Y-90838397D02*
X127978570Y-91043959D01*
X127978570Y-91043959D02*
X127970590Y-91219064D01*
X127970590Y-91219064D02*
X127974492Y-91353657D01*
X127974492Y-91353657D02*
X127991177Y-91437678D01*
X127991177Y-91437678D02*
X127994446Y-91444578D01*
X127994446Y-91444578D02*
X128032076Y-91493583D01*
X128032076Y-91493583D02*
X128081991Y-91514409D01*
X128081991Y-91514409D02*
X128149605Y-91504388D01*
X128149605Y-91504388D02*
X128240333Y-91460853D01*
X128240333Y-91460853D02*
X128359588Y-91381137D01*
X128359588Y-91381137D02*
X128512785Y-91262572D01*
X128512785Y-91262572D02*
X128705337Y-91102493D01*
X128705337Y-91102493D02*
X128728000Y-91083217D01*
X128728000Y-91083217D02*
X128866976Y-90961341D01*
X128866976Y-90961341D02*
X129014753Y-90826126D01*
X129014753Y-90826126D02*
X129148238Y-90698909D01*
X129148238Y-90698909D02*
X129203332Y-90644023D01*
X129203332Y-90644023D02*
X129296022Y-90552354D01*
X129296022Y-90552354D02*
X129373203Y-90481090D01*
X129373203Y-90481090D02*
X129423579Y-90440424D01*
X129423579Y-90440424D02*
X129435267Y-90434750D01*
X129435267Y-90434750D02*
X129460908Y-90461486D01*
X129460908Y-90461486D02*
X129501285Y-90531122D01*
X129501285Y-90531122D02*
X129541658Y-90615451D01*
X129541658Y-90615451D02*
X129621573Y-90796152D01*
X129621573Y-90796152D02*
X129547849Y-90852901D01*
X129547849Y-90852901D02*
X129497425Y-90887453D01*
X129497425Y-90887453D02*
X129402962Y-90948341D01*
X129402962Y-90948341D02*
X129274773Y-91029062D01*
X129274773Y-91029062D02*
X129123170Y-91123115D01*
X129123170Y-91123115D02*
X128979886Y-91210952D01*
X128979886Y-91210952D02*
X128817381Y-91311574D01*
X128817381Y-91311574D02*
X128670678Y-91405323D01*
X128670678Y-91405323D02*
X128549758Y-91485591D01*
X128549758Y-91485591D02*
X128464603Y-91545770D01*
X128464603Y-91545770D02*
X128427161Y-91576881D01*
X128427161Y-91576881D02*
X128397519Y-91619076D01*
X128397519Y-91619076D02*
X128389942Y-91664994D01*
X128389942Y-91664994D02*
X128408580Y-91723885D01*
X128408580Y-91723885D02*
X128457582Y-91804996D01*
X128457582Y-91804996D02*
X128541098Y-91917576D01*
X128541098Y-91917576D02*
X128630621Y-92030391D01*
X128630621Y-92030391D02*
X128934782Y-92362760D01*
X128934782Y-92362760D02*
X129271380Y-92642102D01*
X129271380Y-92642102D02*
X129646527Y-92873181D01*
X129646527Y-92873181D02*
X129825091Y-92960662D01*
X129825091Y-92960662D02*
X129955152Y-93024676D01*
X129955152Y-93024676D02*
X130037681Y-93084135D01*
X130037681Y-93084135D02*
X130078060Y-93152915D01*
X130078060Y-93152915D02*
X130081669Y-93244896D01*
X130081669Y-93244896D02*
X130053888Y-93373954D01*
X130053888Y-93373954D02*
X130024436Y-93474812D01*
X130024436Y-93474812D02*
X129993982Y-93546014D01*
X129993982Y-93546014D02*
X129945659Y-93573979D01*
X129945659Y-93573979D02*
X129883962Y-93578000D01*
X129883962Y-93578000D02*
X129822883Y-93571351D01*
X129822883Y-93571351D02*
X129765764Y-93545057D01*
X129765764Y-93545057D02*
X129698636Y-93489591D01*
X129698636Y-93489591D02*
X129607528Y-93395429D01*
X129607528Y-93395429D02*
X129592931Y-93379562D01*
X129592931Y-93379562D02*
X129500760Y-93280129D01*
X129500760Y-93280129D02*
X129379420Y-93150796D01*
X129379420Y-93150796D02*
X129243814Y-93007376D01*
X129243814Y-93007376D02*
X129108849Y-92865683D01*
X129108849Y-92865683D02*
X129091682Y-92847750D01*
X129091682Y-92847750D02*
X128950322Y-92698263D01*
X128950322Y-92698263D02*
X128799482Y-92535584D01*
X128799482Y-92535584D02*
X128656927Y-92379049D01*
X128656927Y-92379049D02*
X128540424Y-92247992D01*
X128540424Y-92247992D02*
X128537381Y-92244500D01*
X128537381Y-92244500D02*
X128408852Y-92098687D01*
X128408852Y-92098687D02*
X128312623Y-91995070D01*
X128312623Y-91995070D02*
X128240744Y-91926735D01*
X128240744Y-91926735D02*
X128185264Y-91886764D01*
X128185264Y-91886764D02*
X128138230Y-91868242D01*
X128138230Y-91868242D02*
X128100151Y-91864205D01*
X128100151Y-91864205D02*
X128053249Y-91872296D01*
X128053249Y-91872296D02*
X128018074Y-91902251D01*
X128018074Y-91902251D02*
X127993480Y-91961040D01*
X127993480Y-91961040D02*
X127978320Y-92055630D01*
X127978320Y-92055630D02*
X127971447Y-92192990D01*
X127971447Y-92192990D02*
X127971717Y-92380087D01*
X127971717Y-92380087D02*
X127977524Y-92609625D01*
X127977524Y-92609625D02*
X127994044Y-92949155D01*
X127994044Y-92949155D02*
X128020270Y-93246195D01*
X128020270Y-93246195D02*
X128055318Y-93491022D01*
X128055318Y-93491022D02*
X128059703Y-93514500D01*
X128059703Y-93514500D02*
X128086118Y-93655396D01*
X128086118Y-93655396D02*
X128107335Y-93774836D01*
X128107335Y-93774836D02*
X128120783Y-93857969D01*
X128120783Y-93857969D02*
X128124227Y-93887562D01*
X128124227Y-93887562D02*
X128096712Y-93913374D01*
X128096712Y-93913374D02*
X128011319Y-93925822D01*
X128011319Y-93925822D02*
X127949128Y-93927250D01*
X127949128Y-93927250D02*
X127832453Y-93920000D01*
X127832453Y-93920000D02*
X127769769Y-93899102D01*
X127769769Y-93899102D02*
X127761271Y-93887562D01*
X127761271Y-93887562D02*
X127757852Y-93847276D01*
X127757852Y-93847276D02*
X127753693Y-93750673D01*
X127753693Y-93750673D02*
X127748936Y-93604932D01*
X127748936Y-93604932D02*
X127743723Y-93417228D01*
X127743723Y-93417228D02*
X127738196Y-93194741D01*
X127738196Y-93194741D02*
X127732495Y-92944647D01*
X127732495Y-92944647D02*
X127726764Y-92674123D01*
X127726764Y-92674123D02*
X127721144Y-92390348D01*
X127721144Y-92390348D02*
X127715777Y-92100498D01*
X127715777Y-92100498D02*
X127710805Y-91811752D01*
X127710805Y-91811752D02*
X127706369Y-91531285D01*
X127706369Y-91531285D02*
X127702611Y-91266277D01*
X127702611Y-91266277D02*
X127699673Y-91023903D01*
X127699673Y-91023903D02*
X127697697Y-90811343D01*
X127697697Y-90811343D02*
X127696825Y-90635772D01*
X127696825Y-90635772D02*
X127696810Y-90625250D01*
X127696810Y-90625250D02*
X127696125Y-90069625D01*
X127696125Y-90069625D02*
X127913293Y-90060171D01*
X127913293Y-90060171D02*
X128130461Y-90050718D01*
X128130461Y-90050718D02*
X128111299Y-90139546D01*
X128111299Y-90139546D02*
X128111299Y-90139546D01*
G36*
X128111299Y-90139546D02*
G01*
X128064796Y-90376133D01*
X128026574Y-90612436D01*
X127997531Y-90838397D01*
X127978570Y-91043959D01*
X127970590Y-91219064D01*
X127974492Y-91353657D01*
X127991177Y-91437678D01*
X127994446Y-91444578D01*
X128032076Y-91493583D01*
X128081991Y-91514409D01*
X128149605Y-91504388D01*
X128240333Y-91460853D01*
X128359588Y-91381137D01*
X128512785Y-91262572D01*
X128705337Y-91102493D01*
X128728000Y-91083217D01*
X128866976Y-90961341D01*
X129014753Y-90826126D01*
X129148238Y-90698909D01*
X129203332Y-90644023D01*
X129296022Y-90552354D01*
X129373203Y-90481090D01*
X129423579Y-90440424D01*
X129435267Y-90434750D01*
X129460908Y-90461486D01*
X129501285Y-90531122D01*
X129541658Y-90615451D01*
X129621573Y-90796152D01*
X129547849Y-90852901D01*
X129497425Y-90887453D01*
X129402962Y-90948341D01*
X129274773Y-91029062D01*
X129123170Y-91123115D01*
X128979886Y-91210952D01*
X128817381Y-91311574D01*
X128670678Y-91405323D01*
X128549758Y-91485591D01*
X128464603Y-91545770D01*
X128427161Y-91576881D01*
X128397519Y-91619076D01*
X128389942Y-91664994D01*
X128408580Y-91723885D01*
X128457582Y-91804996D01*
X128541098Y-91917576D01*
X128630621Y-92030391D01*
X128934782Y-92362760D01*
X129271380Y-92642102D01*
X129646527Y-92873181D01*
X129825091Y-92960662D01*
X129955152Y-93024676D01*
X130037681Y-93084135D01*
X130078060Y-93152915D01*
X130081669Y-93244896D01*
X130053888Y-93373954D01*
X130024436Y-93474812D01*
X129993982Y-93546014D01*
X129945659Y-93573979D01*
X129883962Y-93578000D01*
X129822883Y-93571351D01*
X129765764Y-93545057D01*
X129698636Y-93489591D01*
X129607528Y-93395429D01*
X129592931Y-93379562D01*
X129500760Y-93280129D01*
X129379420Y-93150796D01*
X129243814Y-93007376D01*
X129108849Y-92865683D01*
X129091682Y-92847750D01*
X128950322Y-92698263D01*
X128799482Y-92535584D01*
X128656927Y-92379049D01*
X128540424Y-92247992D01*
X128537381Y-92244500D01*
X128408852Y-92098687D01*
X128312623Y-91995070D01*
X128240744Y-91926735D01*
X128185264Y-91886764D01*
X128138230Y-91868242D01*
X128100151Y-91864205D01*
X128053249Y-91872296D01*
X128018074Y-91902251D01*
X127993480Y-91961040D01*
X127978320Y-92055630D01*
X127971447Y-92192990D01*
X127971717Y-92380087D01*
X127977524Y-92609625D01*
X127994044Y-92949155D01*
X128020270Y-93246195D01*
X128055318Y-93491022D01*
X128059703Y-93514500D01*
X128086118Y-93655396D01*
X128107335Y-93774836D01*
X128120783Y-93857969D01*
X128124227Y-93887562D01*
X128096712Y-93913374D01*
X128011319Y-93925822D01*
X127949128Y-93927250D01*
X127832453Y-93920000D01*
X127769769Y-93899102D01*
X127761271Y-93887562D01*
X127757852Y-93847276D01*
X127753693Y-93750673D01*
X127748936Y-93604932D01*
X127743723Y-93417228D01*
X127738196Y-93194741D01*
X127732495Y-92944647D01*
X127726764Y-92674123D01*
X127721144Y-92390348D01*
X127715777Y-92100498D01*
X127710805Y-91811752D01*
X127706369Y-91531285D01*
X127702611Y-91266277D01*
X127699673Y-91023903D01*
X127697697Y-90811343D01*
X127696825Y-90635772D01*
X127696810Y-90625250D01*
X127696125Y-90069625D01*
X127913293Y-90060171D01*
X128130461Y-90050718D01*
X128111299Y-90139546D01*
G37*
X128111299Y-90139546D02*
X128064796Y-90376133D01*
X128026574Y-90612436D01*
X127997531Y-90838397D01*
X127978570Y-91043959D01*
X127970590Y-91219064D01*
X127974492Y-91353657D01*
X127991177Y-91437678D01*
X127994446Y-91444578D01*
X128032076Y-91493583D01*
X128081991Y-91514409D01*
X128149605Y-91504388D01*
X128240333Y-91460853D01*
X128359588Y-91381137D01*
X128512785Y-91262572D01*
X128705337Y-91102493D01*
X128728000Y-91083217D01*
X128866976Y-90961341D01*
X129014753Y-90826126D01*
X129148238Y-90698909D01*
X129203332Y-90644023D01*
X129296022Y-90552354D01*
X129373203Y-90481090D01*
X129423579Y-90440424D01*
X129435267Y-90434750D01*
X129460908Y-90461486D01*
X129501285Y-90531122D01*
X129541658Y-90615451D01*
X129621573Y-90796152D01*
X129547849Y-90852901D01*
X129497425Y-90887453D01*
X129402962Y-90948341D01*
X129274773Y-91029062D01*
X129123170Y-91123115D01*
X128979886Y-91210952D01*
X128817381Y-91311574D01*
X128670678Y-91405323D01*
X128549758Y-91485591D01*
X128464603Y-91545770D01*
X128427161Y-91576881D01*
X128397519Y-91619076D01*
X128389942Y-91664994D01*
X128408580Y-91723885D01*
X128457582Y-91804996D01*
X128541098Y-91917576D01*
X128630621Y-92030391D01*
X128934782Y-92362760D01*
X129271380Y-92642102D01*
X129646527Y-92873181D01*
X129825091Y-92960662D01*
X129955152Y-93024676D01*
X130037681Y-93084135D01*
X130078060Y-93152915D01*
X130081669Y-93244896D01*
X130053888Y-93373954D01*
X130024436Y-93474812D01*
X129993982Y-93546014D01*
X129945659Y-93573979D01*
X129883962Y-93578000D01*
X129822883Y-93571351D01*
X129765764Y-93545057D01*
X129698636Y-93489591D01*
X129607528Y-93395429D01*
X129592931Y-93379562D01*
X129500760Y-93280129D01*
X129379420Y-93150796D01*
X129243814Y-93007376D01*
X129108849Y-92865683D01*
X129091682Y-92847750D01*
X128950322Y-92698263D01*
X128799482Y-92535584D01*
X128656927Y-92379049D01*
X128540424Y-92247992D01*
X128537381Y-92244500D01*
X128408852Y-92098687D01*
X128312623Y-91995070D01*
X128240744Y-91926735D01*
X128185264Y-91886764D01*
X128138230Y-91868242D01*
X128100151Y-91864205D01*
X128053249Y-91872296D01*
X128018074Y-91902251D01*
X127993480Y-91961040D01*
X127978320Y-92055630D01*
X127971447Y-92192990D01*
X127971717Y-92380087D01*
X127977524Y-92609625D01*
X127994044Y-92949155D01*
X128020270Y-93246195D01*
X128055318Y-93491022D01*
X128059703Y-93514500D01*
X128086118Y-93655396D01*
X128107335Y-93774836D01*
X128120783Y-93857969D01*
X128124227Y-93887562D01*
X128096712Y-93913374D01*
X128011319Y-93925822D01*
X127949128Y-93927250D01*
X127832453Y-93920000D01*
X127769769Y-93899102D01*
X127761271Y-93887562D01*
X127757852Y-93847276D01*
X127753693Y-93750673D01*
X127748936Y-93604932D01*
X127743723Y-93417228D01*
X127738196Y-93194741D01*
X127732495Y-92944647D01*
X127726764Y-92674123D01*
X127721144Y-92390348D01*
X127715777Y-92100498D01*
X127710805Y-91811752D01*
X127706369Y-91531285D01*
X127702611Y-91266277D01*
X127699673Y-91023903D01*
X127697697Y-90811343D01*
X127696825Y-90635772D01*
X127696810Y-90625250D01*
X127696125Y-90069625D01*
X127913293Y-90060171D01*
X128130461Y-90050718D01*
X128111299Y-90139546D01*
X135990812Y-90122697D02*
X136159579Y-90131373D01*
X136159579Y-90131373D02*
X136283938Y-90145305D01*
X136283938Y-90145305D02*
X136382956Y-90167977D01*
X136382956Y-90167977D02*
X136475703Y-90202873D01*
X136475703Y-90202873D02*
X136506750Y-90216994D01*
X136506750Y-90216994D02*
X136725578Y-90354282D01*
X136725578Y-90354282D02*
X136911628Y-90545096D01*
X136911628Y-90545096D02*
X137064430Y-90788302D01*
X137064430Y-90788302D02*
X137183519Y-91082760D01*
X137183519Y-91082760D02*
X137268425Y-91427334D01*
X137268425Y-91427334D02*
X137318682Y-91820886D01*
X137318682Y-91820886D02*
X137333914Y-92228625D01*
X137333914Y-92228625D02*
X137319909Y-92624934D01*
X137319909Y-92624934D02*
X137277484Y-92965541D01*
X137277484Y-92965541D02*
X137206056Y-93251818D01*
X137206056Y-93251818D02*
X137105039Y-93485138D01*
X137105039Y-93485138D02*
X136973848Y-93666874D01*
X136973848Y-93666874D02*
X136811898Y-93798397D01*
X136811898Y-93798397D02*
X136631002Y-93877499D01*
X136631002Y-93877499D02*
X136528784Y-93899226D01*
X136528784Y-93899226D02*
X136396956Y-93915136D01*
X136396956Y-93915136D02*
X136249421Y-93925068D01*
X136249421Y-93925068D02*
X136100081Y-93928860D01*
X136100081Y-93928860D02*
X135962842Y-93926352D01*
X135962842Y-93926352D02*
X135851607Y-93917383D01*
X135851607Y-93917383D02*
X135780279Y-93901791D01*
X135780279Y-93901791D02*
X135761739Y-93887562D01*
X135761739Y-93887562D02*
X135758947Y-93850919D01*
X135758947Y-93850919D02*
X135754611Y-93757716D01*
X135754611Y-93757716D02*
X135748944Y-93614869D01*
X135748944Y-93614869D02*
X135742160Y-93429294D01*
X135742160Y-93429294D02*
X135734472Y-93207907D01*
X135734472Y-93207907D02*
X135726092Y-92957623D01*
X135726092Y-92957623D02*
X135717235Y-92685359D01*
X135717235Y-92685359D02*
X135708114Y-92398030D01*
X135708114Y-92398030D02*
X135698941Y-92102551D01*
X135698941Y-92102551D02*
X135689930Y-91805840D01*
X135689930Y-91805840D02*
X135681294Y-91514812D01*
X135681294Y-91514812D02*
X135673247Y-91236382D01*
X135673247Y-91236382D02*
X135671802Y-91184715D01*
X135671802Y-91184715D02*
X135936040Y-91184715D01*
X135936040Y-91184715D02*
X135936070Y-91461097D01*
X135936070Y-91461097D02*
X135936176Y-91602679D01*
X135936176Y-91602679D02*
X135938139Y-92038726D01*
X135938139Y-92038726D02*
X135943229Y-92427109D01*
X135943229Y-92427109D02*
X135951336Y-92765551D01*
X135951336Y-92765551D02*
X135962354Y-93051775D01*
X135962354Y-93051775D02*
X135976175Y-93283505D01*
X135976175Y-93283505D02*
X135992692Y-93458463D01*
X135992692Y-93458463D02*
X136011795Y-93574372D01*
X136011795Y-93574372D02*
X136031909Y-93627323D01*
X136031909Y-93627323D02*
X136086685Y-93661034D01*
X136086685Y-93661034D02*
X136167801Y-93682208D01*
X136167801Y-93682208D02*
X136248183Y-93692592D01*
X136248183Y-93692592D02*
X136300264Y-93699876D01*
X136300264Y-93699876D02*
X136300375Y-93699893D01*
X136300375Y-93699893D02*
X136343437Y-93689592D01*
X136343437Y-93689592D02*
X136425123Y-93657724D01*
X136425123Y-93657724D02*
X136522625Y-93613584D01*
X136522625Y-93613584D02*
X136712196Y-93500856D01*
X136712196Y-93500856D02*
X136858447Y-93359866D01*
X136858447Y-93359866D02*
X136976167Y-93175384D01*
X136976167Y-93175384D02*
X137004293Y-93117625D01*
X137004293Y-93117625D02*
X137038580Y-93039440D01*
X137038580Y-93039440D02*
X137063099Y-92967885D01*
X137063099Y-92967885D02*
X137079865Y-92889382D01*
X137079865Y-92889382D02*
X137090893Y-92790351D01*
X137090893Y-92790351D02*
X137098199Y-92657213D01*
X137098199Y-92657213D02*
X137103799Y-92476388D01*
X137103799Y-92476388D02*
X137104695Y-92441181D01*
X137104695Y-92441181D02*
X137099865Y-92053001D01*
X137099865Y-92053001D02*
X137066395Y-91695029D01*
X137066395Y-91695029D02*
X137006019Y-91371328D01*
X137006019Y-91371328D02*
X136920468Y-91085957D01*
X136920468Y-91085957D02*
X136811473Y-90842978D01*
X136811473Y-90842978D02*
X136680767Y-90646450D01*
X136680767Y-90646450D02*
X136530082Y-90500435D01*
X136530082Y-90500435D02*
X136361149Y-90408993D01*
X136361149Y-90408993D02*
X136225055Y-90378814D01*
X136225055Y-90378814D02*
X136118067Y-90377310D01*
X136118067Y-90377310D02*
X136028441Y-90390921D01*
X136028441Y-90390921D02*
X136003379Y-90400522D01*
X136003379Y-90400522D02*
X135985700Y-90411147D01*
X135985700Y-90411147D02*
X135971385Y-90426337D01*
X135971385Y-90426337D02*
X135960084Y-90452333D01*
X135960084Y-90452333D02*
X135951448Y-90495375D01*
X135951448Y-90495375D02*
X135945129Y-90561704D01*
X135945129Y-90561704D02*
X135940777Y-90657562D01*
X135940777Y-90657562D02*
X135938044Y-90789189D01*
X135938044Y-90789189D02*
X135936582Y-90962827D01*
X135936582Y-90962827D02*
X135936040Y-91184715D01*
X135936040Y-91184715D02*
X135671802Y-91184715D01*
X135671802Y-91184715D02*
X135666002Y-90977466D01*
X135666002Y-90977466D02*
X135659771Y-90744981D01*
X135659771Y-90744981D02*
X135654769Y-90545841D01*
X135654769Y-90545841D02*
X135651208Y-90386964D01*
X135651208Y-90386964D02*
X135649302Y-90275264D01*
X135649302Y-90275264D02*
X135649045Y-90232800D01*
X135649045Y-90232800D02*
X135649500Y-90110225D01*
X135649500Y-90110225D02*
X135990812Y-90122697D01*
X135990812Y-90122697D02*
X135990812Y-90122697D01*
G36*
X135659771Y-90744981D02*
G01*
X135654769Y-90545841D01*
X135651208Y-90386964D01*
X135649302Y-90275264D01*
X135649045Y-90232800D01*
X135649500Y-90110225D01*
X135990812Y-90122697D01*
X136159579Y-90131373D01*
X136283938Y-90145305D01*
X136382956Y-90167977D01*
X136475703Y-90202873D01*
X136506750Y-90216994D01*
X136725578Y-90354282D01*
X136911628Y-90545096D01*
X137064430Y-90788302D01*
X137183519Y-91082760D01*
X137268425Y-91427334D01*
X137318682Y-91820886D01*
X137333914Y-92228625D01*
X137319909Y-92624934D01*
X137277484Y-92965541D01*
X137206056Y-93251818D01*
X137105039Y-93485138D01*
X136973848Y-93666874D01*
X136811898Y-93798397D01*
X136631002Y-93877499D01*
X136528784Y-93899226D01*
X136396956Y-93915136D01*
X136249421Y-93925068D01*
X136100081Y-93928860D01*
X135962842Y-93926352D01*
X135851607Y-93917383D01*
X135780279Y-93901791D01*
X135761739Y-93887562D01*
X135758947Y-93850919D01*
X135754611Y-93757716D01*
X135748944Y-93614869D01*
X135742160Y-93429294D01*
X135734472Y-93207907D01*
X135726092Y-92957623D01*
X135717235Y-92685359D01*
X135708114Y-92398030D01*
X135698941Y-92102551D01*
X135689930Y-91805840D01*
X135681294Y-91514812D01*
X135673247Y-91236382D01*
X135671802Y-91184715D01*
X135936040Y-91184715D01*
X135936070Y-91461097D01*
X135936176Y-91602679D01*
X135938139Y-92038726D01*
X135943229Y-92427109D01*
X135951336Y-92765551D01*
X135962354Y-93051775D01*
X135976175Y-93283505D01*
X135992692Y-93458463D01*
X136011795Y-93574372D01*
X136031909Y-93627323D01*
X136086685Y-93661034D01*
X136167801Y-93682208D01*
X136248183Y-93692592D01*
X136300264Y-93699876D01*
X136300375Y-93699893D01*
X136343437Y-93689592D01*
X136425123Y-93657724D01*
X136522625Y-93613584D01*
X136712196Y-93500856D01*
X136858447Y-93359866D01*
X136976167Y-93175384D01*
X137004293Y-93117625D01*
X137038580Y-93039440D01*
X137063099Y-92967885D01*
X137079865Y-92889382D01*
X137090893Y-92790351D01*
X137098199Y-92657213D01*
X137103799Y-92476388D01*
X137104695Y-92441181D01*
X137099865Y-92053001D01*
X137066395Y-91695029D01*
X137006019Y-91371328D01*
X136920468Y-91085957D01*
X136811473Y-90842978D01*
X136680767Y-90646450D01*
X136530082Y-90500435D01*
X136361149Y-90408993D01*
X136225055Y-90378814D01*
X136118067Y-90377310D01*
X136028441Y-90390921D01*
X136003379Y-90400522D01*
X135985700Y-90411147D01*
X135971385Y-90426337D01*
X135960084Y-90452333D01*
X135951448Y-90495375D01*
X135945129Y-90561704D01*
X135940777Y-90657562D01*
X135938044Y-90789189D01*
X135936582Y-90962827D01*
X135936040Y-91184715D01*
X135671802Y-91184715D01*
X135666002Y-90977466D01*
X135659771Y-90744981D01*
G37*
X135659771Y-90744981D02*
X135654769Y-90545841D01*
X135651208Y-90386964D01*
X135649302Y-90275264D01*
X135649045Y-90232800D01*
X135649500Y-90110225D01*
X135990812Y-90122697D01*
X136159579Y-90131373D01*
X136283938Y-90145305D01*
X136382956Y-90167977D01*
X136475703Y-90202873D01*
X136506750Y-90216994D01*
X136725578Y-90354282D01*
X136911628Y-90545096D01*
X137064430Y-90788302D01*
X137183519Y-91082760D01*
X137268425Y-91427334D01*
X137318682Y-91820886D01*
X137333914Y-92228625D01*
X137319909Y-92624934D01*
X137277484Y-92965541D01*
X137206056Y-93251818D01*
X137105039Y-93485138D01*
X136973848Y-93666874D01*
X136811898Y-93798397D01*
X136631002Y-93877499D01*
X136528784Y-93899226D01*
X136396956Y-93915136D01*
X136249421Y-93925068D01*
X136100081Y-93928860D01*
X135962842Y-93926352D01*
X135851607Y-93917383D01*
X135780279Y-93901791D01*
X135761739Y-93887562D01*
X135758947Y-93850919D01*
X135754611Y-93757716D01*
X135748944Y-93614869D01*
X135742160Y-93429294D01*
X135734472Y-93207907D01*
X135726092Y-92957623D01*
X135717235Y-92685359D01*
X135708114Y-92398030D01*
X135698941Y-92102551D01*
X135689930Y-91805840D01*
X135681294Y-91514812D01*
X135673247Y-91236382D01*
X135671802Y-91184715D01*
X135936040Y-91184715D01*
X135936070Y-91461097D01*
X135936176Y-91602679D01*
X135938139Y-92038726D01*
X135943229Y-92427109D01*
X135951336Y-92765551D01*
X135962354Y-93051775D01*
X135976175Y-93283505D01*
X135992692Y-93458463D01*
X136011795Y-93574372D01*
X136031909Y-93627323D01*
X136086685Y-93661034D01*
X136167801Y-93682208D01*
X136248183Y-93692592D01*
X136300264Y-93699876D01*
X136300375Y-93699893D01*
X136343437Y-93689592D01*
X136425123Y-93657724D01*
X136522625Y-93613584D01*
X136712196Y-93500856D01*
X136858447Y-93359866D01*
X136976167Y-93175384D01*
X137004293Y-93117625D01*
X137038580Y-93039440D01*
X137063099Y-92967885D01*
X137079865Y-92889382D01*
X137090893Y-92790351D01*
X137098199Y-92657213D01*
X137103799Y-92476388D01*
X137104695Y-92441181D01*
X137099865Y-92053001D01*
X137066395Y-91695029D01*
X137006019Y-91371328D01*
X136920468Y-91085957D01*
X136811473Y-90842978D01*
X136680767Y-90646450D01*
X136530082Y-90500435D01*
X136361149Y-90408993D01*
X136225055Y-90378814D01*
X136118067Y-90377310D01*
X136028441Y-90390921D01*
X136003379Y-90400522D01*
X135985700Y-90411147D01*
X135971385Y-90426337D01*
X135960084Y-90452333D01*
X135951448Y-90495375D01*
X135945129Y-90561704D01*
X135940777Y-90657562D01*
X135938044Y-90789189D01*
X135936582Y-90962827D01*
X135936040Y-91184715D01*
X135671802Y-91184715D01*
X135666002Y-90977466D01*
X135659771Y-90744981D01*
X140674202Y-90041118D02*
X140770267Y-90044866D01*
X140770267Y-90044866D02*
X141136452Y-90062900D01*
X141136452Y-90062900D02*
X141147487Y-90178613D01*
X141147487Y-90178613D02*
X141152685Y-90302025D01*
X141152685Y-90302025D02*
X141133881Y-90374249D01*
X141133881Y-90374249D02*
X141082643Y-90400856D01*
X141082643Y-90400856D02*
X140990539Y-90387417D01*
X140990539Y-90387417D02*
X140884304Y-90352501D01*
X140884304Y-90352501D02*
X140785653Y-90327861D01*
X140785653Y-90327861D02*
X140653499Y-90309833D01*
X140653499Y-90309833D02*
X140503985Y-90298815D01*
X140503985Y-90298815D02*
X140353253Y-90295207D01*
X140353253Y-90295207D02*
X140217444Y-90299406D01*
X140217444Y-90299406D02*
X140112699Y-90311811D01*
X140112699Y-90311811D02*
X140056055Y-90332055D01*
X140056055Y-90332055D02*
X140025541Y-90387873D01*
X140025541Y-90387873D02*
X139997411Y-90496659D01*
X139997411Y-90496659D02*
X139973018Y-90647889D01*
X139973018Y-90647889D02*
X139953712Y-90831039D01*
X139953712Y-90831039D02*
X139940848Y-91035585D01*
X139940848Y-91035585D02*
X139935778Y-91251003D01*
X139935778Y-91251003D02*
X139935750Y-91268069D01*
X139935750Y-91268069D02*
X139935843Y-91423822D01*
X139935843Y-91423822D02*
X139941511Y-91539300D01*
X139941511Y-91539300D02*
X139960832Y-91619354D01*
X139960832Y-91619354D02*
X140001884Y-91668834D01*
X140001884Y-91668834D02*
X140072748Y-91692589D01*
X140072748Y-91692589D02*
X140181501Y-91695468D01*
X140181501Y-91695468D02*
X140336223Y-91682323D01*
X140336223Y-91682323D02*
X140544993Y-91658001D01*
X140544993Y-91658001D02*
X140578687Y-91654017D01*
X140578687Y-91654017D02*
X140761250Y-91632507D01*
X140761250Y-91632507D02*
X140761250Y-91775865D01*
X140761250Y-91775865D02*
X140752266Y-91872849D01*
X140752266Y-91872849D02*
X140729380Y-91941528D01*
X140729380Y-91941528D02*
X140719037Y-91954258D01*
X140719037Y-91954258D02*
X140667463Y-91970275D01*
X140667463Y-91970275D02*
X140563508Y-91981646D01*
X140563508Y-91981646D02*
X140418187Y-91987405D01*
X140418187Y-91987405D02*
X140334756Y-91987884D01*
X140334756Y-91987884D02*
X140193329Y-91989145D01*
X140193329Y-91989145D02*
X140076343Y-91993649D01*
X140076343Y-91993649D02*
X139997801Y-92000643D01*
X139997801Y-92000643D02*
X139972156Y-92007419D01*
X139972156Y-92007419D02*
X139963175Y-92048303D01*
X139963175Y-92048303D02*
X139957911Y-92140862D01*
X139957911Y-92140862D02*
X139956104Y-92273395D01*
X139956104Y-92273395D02*
X139957493Y-92434203D01*
X139957493Y-92434203D02*
X139961815Y-92611585D01*
X139961815Y-92611585D02*
X139968810Y-92793841D01*
X139968810Y-92793841D02*
X139978216Y-92969270D01*
X139978216Y-92969270D02*
X139989772Y-93126173D01*
X139989772Y-93126173D02*
X139999274Y-93221084D01*
X139999274Y-93221084D02*
X140023273Y-93391001D01*
X140023273Y-93391001D02*
X140049537Y-93503136D01*
X140049537Y-93503136D02*
X140079499Y-93563201D01*
X140079499Y-93563201D02*
X140086816Y-93570062D01*
X140086816Y-93570062D02*
X140149505Y-93591478D01*
X140149505Y-93591478D02*
X140261523Y-93604131D01*
X140261523Y-93604131D02*
X140409304Y-93607973D01*
X140409304Y-93607973D02*
X140579278Y-93602958D01*
X140579278Y-93602958D02*
X140757876Y-93589036D01*
X140757876Y-93589036D02*
X140888250Y-93572879D01*
X140888250Y-93572879D02*
X141018857Y-93555077D01*
X141018857Y-93555077D02*
X141137171Y-93541269D01*
X141137171Y-93541269D02*
X141218657Y-93534302D01*
X141218657Y-93534302D02*
X141221625Y-93534172D01*
X141221625Y-93534172D02*
X141316875Y-93530375D01*
X141316875Y-93530375D02*
X141316875Y-93911375D01*
X141316875Y-93911375D02*
X140549157Y-93919871D01*
X140549157Y-93919871D02*
X140333080Y-93921133D01*
X140333080Y-93921133D02*
X140139526Y-93920097D01*
X140139526Y-93920097D02*
X139977251Y-93916984D01*
X139977251Y-93916984D02*
X139855012Y-93912015D01*
X139855012Y-93912015D02*
X139781568Y-93905409D01*
X139781568Y-93905409D02*
X139763975Y-93900112D01*
X139763975Y-93900112D02*
X139757156Y-93858813D01*
X139757156Y-93858813D02*
X139750113Y-93761375D01*
X139750113Y-93761375D02*
X139742989Y-93615162D01*
X139742989Y-93615162D02*
X139735923Y-93427533D01*
X139735923Y-93427533D02*
X139729057Y-93205852D01*
X139729057Y-93205852D02*
X139722532Y-92957478D01*
X139722532Y-92957478D02*
X139716489Y-92689774D01*
X139716489Y-92689774D02*
X139711069Y-92410100D01*
X139711069Y-92410100D02*
X139706414Y-92125819D01*
X139706414Y-92125819D02*
X139702663Y-91844291D01*
X139702663Y-91844291D02*
X139699960Y-91572879D01*
X139699960Y-91572879D02*
X139698443Y-91318942D01*
X139698443Y-91318942D02*
X139698256Y-91089844D01*
X139698256Y-91089844D02*
X139699537Y-90892944D01*
X139699537Y-90892944D02*
X139702430Y-90735605D01*
X139702430Y-90735605D02*
X139702975Y-90717060D01*
X139702975Y-90717060D02*
X139723317Y-90062745D01*
X139723317Y-90062745D02*
X140063700Y-90044788D01*
X140063700Y-90044788D02*
X140249249Y-90038770D01*
X140249249Y-90038770D02*
X140464092Y-90037548D01*
X140464092Y-90037548D02*
X140674202Y-90041118D01*
X140674202Y-90041118D02*
X140674202Y-90041118D01*
G36*
X140674202Y-90041118D02*
G01*
X140770267Y-90044866D01*
X141136452Y-90062900D01*
X141147487Y-90178613D01*
X141152685Y-90302025D01*
X141133881Y-90374249D01*
X141082643Y-90400856D01*
X140990539Y-90387417D01*
X140884304Y-90352501D01*
X140785653Y-90327861D01*
X140653499Y-90309833D01*
X140503985Y-90298815D01*
X140353253Y-90295207D01*
X140217444Y-90299406D01*
X140112699Y-90311811D01*
X140056055Y-90332055D01*
X140025541Y-90387873D01*
X139997411Y-90496659D01*
X139973018Y-90647889D01*
X139953712Y-90831039D01*
X139940848Y-91035585D01*
X139935778Y-91251003D01*
X139935750Y-91268069D01*
X139935843Y-91423822D01*
X139941511Y-91539300D01*
X139960832Y-91619354D01*
X140001884Y-91668834D01*
X140072748Y-91692589D01*
X140181501Y-91695468D01*
X140336223Y-91682323D01*
X140544993Y-91658001D01*
X140578687Y-91654017D01*
X140761250Y-91632507D01*
X140761250Y-91775865D01*
X140752266Y-91872849D01*
X140729380Y-91941528D01*
X140719037Y-91954258D01*
X140667463Y-91970275D01*
X140563508Y-91981646D01*
X140418187Y-91987405D01*
X140334756Y-91987884D01*
X140193329Y-91989145D01*
X140076343Y-91993649D01*
X139997801Y-92000643D01*
X139972156Y-92007419D01*
X139963175Y-92048303D01*
X139957911Y-92140862D01*
X139956104Y-92273395D01*
X139957493Y-92434203D01*
X139961815Y-92611585D01*
X139968810Y-92793841D01*
X139978216Y-92969270D01*
X139989772Y-93126173D01*
X139999274Y-93221084D01*
X140023273Y-93391001D01*
X140049537Y-93503136D01*
X140079499Y-93563201D01*
X140086816Y-93570062D01*
X140149505Y-93591478D01*
X140261523Y-93604131D01*
X140409304Y-93607973D01*
X140579278Y-93602958D01*
X140757876Y-93589036D01*
X140888250Y-93572879D01*
X141018857Y-93555077D01*
X141137171Y-93541269D01*
X141218657Y-93534302D01*
X141221625Y-93534172D01*
X141316875Y-93530375D01*
X141316875Y-93911375D01*
X140549157Y-93919871D01*
X140333080Y-93921133D01*
X140139526Y-93920097D01*
X139977251Y-93916984D01*
X139855012Y-93912015D01*
X139781568Y-93905409D01*
X139763975Y-93900112D01*
X139757156Y-93858813D01*
X139750113Y-93761375D01*
X139742989Y-93615162D01*
X139735923Y-93427533D01*
X139729057Y-93205852D01*
X139722532Y-92957478D01*
X139716489Y-92689774D01*
X139711069Y-92410100D01*
X139706414Y-92125819D01*
X139702663Y-91844291D01*
X139699960Y-91572879D01*
X139698443Y-91318942D01*
X139698256Y-91089844D01*
X139699537Y-90892944D01*
X139702430Y-90735605D01*
X139702975Y-90717060D01*
X139723317Y-90062745D01*
X140063700Y-90044788D01*
X140249249Y-90038770D01*
X140464092Y-90037548D01*
X140674202Y-90041118D01*
G37*
X140674202Y-90041118D02*
X140770267Y-90044866D01*
X141136452Y-90062900D01*
X141147487Y-90178613D01*
X141152685Y-90302025D01*
X141133881Y-90374249D01*
X141082643Y-90400856D01*
X140990539Y-90387417D01*
X140884304Y-90352501D01*
X140785653Y-90327861D01*
X140653499Y-90309833D01*
X140503985Y-90298815D01*
X140353253Y-90295207D01*
X140217444Y-90299406D01*
X140112699Y-90311811D01*
X140056055Y-90332055D01*
X140025541Y-90387873D01*
X139997411Y-90496659D01*
X139973018Y-90647889D01*
X139953712Y-90831039D01*
X139940848Y-91035585D01*
X139935778Y-91251003D01*
X139935750Y-91268069D01*
X139935843Y-91423822D01*
X139941511Y-91539300D01*
X139960832Y-91619354D01*
X140001884Y-91668834D01*
X140072748Y-91692589D01*
X140181501Y-91695468D01*
X140336223Y-91682323D01*
X140544993Y-91658001D01*
X140578687Y-91654017D01*
X140761250Y-91632507D01*
X140761250Y-91775865D01*
X140752266Y-91872849D01*
X140729380Y-91941528D01*
X140719037Y-91954258D01*
X140667463Y-91970275D01*
X140563508Y-91981646D01*
X140418187Y-91987405D01*
X140334756Y-91987884D01*
X140193329Y-91989145D01*
X140076343Y-91993649D01*
X139997801Y-92000643D01*
X139972156Y-92007419D01*
X139963175Y-92048303D01*
X139957911Y-92140862D01*
X139956104Y-92273395D01*
X139957493Y-92434203D01*
X139961815Y-92611585D01*
X139968810Y-92793841D01*
X139978216Y-92969270D01*
X139989772Y-93126173D01*
X139999274Y-93221084D01*
X140023273Y-93391001D01*
X140049537Y-93503136D01*
X140079499Y-93563201D01*
X140086816Y-93570062D01*
X140149505Y-93591478D01*
X140261523Y-93604131D01*
X140409304Y-93607973D01*
X140579278Y-93602958D01*
X140757876Y-93589036D01*
X140888250Y-93572879D01*
X141018857Y-93555077D01*
X141137171Y-93541269D01*
X141218657Y-93534302D01*
X141221625Y-93534172D01*
X141316875Y-93530375D01*
X141316875Y-93911375D01*
X140549157Y-93919871D01*
X140333080Y-93921133D01*
X140139526Y-93920097D01*
X139977251Y-93916984D01*
X139855012Y-93912015D01*
X139781568Y-93905409D01*
X139763975Y-93900112D01*
X139757156Y-93858813D01*
X139750113Y-93761375D01*
X139742989Y-93615162D01*
X139735923Y-93427533D01*
X139729057Y-93205852D01*
X139722532Y-92957478D01*
X139716489Y-92689774D01*
X139711069Y-92410100D01*
X139706414Y-92125819D01*
X139702663Y-91844291D01*
X139699960Y-91572879D01*
X139698443Y-91318942D01*
X139698256Y-91089844D01*
X139699537Y-90892944D01*
X139702430Y-90735605D01*
X139702975Y-90717060D01*
X139723317Y-90062745D01*
X140063700Y-90044788D01*
X140249249Y-90038770D01*
X140464092Y-90037548D01*
X140674202Y-90041118D01*
X126484290Y-89999875D02*
X126606731Y-90025511D01*
X126606731Y-90025511D02*
X126750247Y-90062290D01*
X126750247Y-90062290D02*
X126898109Y-90105351D01*
X126898109Y-90105351D02*
X127033590Y-90149827D01*
X127033590Y-90149827D02*
X127139962Y-90190855D01*
X127139962Y-90190855D02*
X127199669Y-90222888D01*
X127199669Y-90222888D02*
X127226204Y-90271534D01*
X127226204Y-90271534D02*
X127229391Y-90362821D01*
X127229391Y-90362821D02*
X127224468Y-90414187D01*
X127224468Y-90414187D02*
X127211021Y-90507303D01*
X127211021Y-90507303D02*
X127197351Y-90570684D01*
X127197351Y-90570684D02*
X127191196Y-90585137D01*
X127191196Y-90585137D02*
X127159300Y-90577305D01*
X127159300Y-90577305D02*
X127097108Y-90539945D01*
X127097108Y-90539945D02*
X127071147Y-90521340D01*
X127071147Y-90521340D02*
X126918456Y-90432014D01*
X126918456Y-90432014D02*
X126737530Y-90364384D01*
X126737530Y-90364384D02*
X126545308Y-90321340D01*
X126545308Y-90321340D02*
X126358734Y-90305769D01*
X126358734Y-90305769D02*
X126194747Y-90320559D01*
X126194747Y-90320559D02*
X126093976Y-90354740D01*
X126093976Y-90354740D02*
X125966652Y-90453135D01*
X125966652Y-90453135D02*
X125883393Y-90585744D01*
X125883393Y-90585744D02*
X125849816Y-90737510D01*
X125849816Y-90737510D02*
X125871537Y-90893374D01*
X125871537Y-90893374D02*
X125882364Y-90922173D01*
X125882364Y-90922173D02*
X125952021Y-91040198D01*
X125952021Y-91040198D02*
X126074442Y-91188701D01*
X126074442Y-91188701D02*
X126247812Y-91365697D01*
X126247812Y-91365697D02*
X126470317Y-91569204D01*
X126470317Y-91569204D02*
X126489625Y-91586081D01*
X126489625Y-91586081D02*
X126754955Y-91822545D01*
X126754955Y-91822545D02*
X126972163Y-92029085D01*
X126972163Y-92029085D02*
X127145470Y-92211725D01*
X127145470Y-92211725D02*
X127279096Y-92376492D01*
X127279096Y-92376492D02*
X127377264Y-92529409D01*
X127377264Y-92529409D02*
X127444194Y-92676503D01*
X127444194Y-92676503D02*
X127484108Y-92823798D01*
X127484108Y-92823798D02*
X127501227Y-92977320D01*
X127501227Y-92977320D02*
X127502605Y-93031933D01*
X127502605Y-93031933D02*
X127485803Y-93253378D01*
X127485803Y-93253378D02*
X127430118Y-93437296D01*
X127430118Y-93437296D02*
X127332346Y-93586005D01*
X127332346Y-93586005D02*
X127189287Y-93701825D01*
X127189287Y-93701825D02*
X126997740Y-93787073D01*
X126997740Y-93787073D02*
X126754503Y-93844068D01*
X126754503Y-93844068D02*
X126456374Y-93875129D01*
X126456374Y-93875129D02*
X126330875Y-93880531D01*
X126330875Y-93880531D02*
X126164447Y-93883280D01*
X126164447Y-93883280D02*
X126011236Y-93881935D01*
X126011236Y-93881935D02*
X125887632Y-93876892D01*
X125887632Y-93876892D02*
X125810022Y-93868545D01*
X125810022Y-93868545D02*
X125807000Y-93867906D01*
X125807000Y-93867906D02*
X125589592Y-93788286D01*
X125589592Y-93788286D02*
X125402163Y-93656097D01*
X125402163Y-93656097D02*
X125249528Y-93477071D01*
X125249528Y-93477071D02*
X125136504Y-93256942D01*
X125136504Y-93256942D02*
X125067906Y-93001442D01*
X125067906Y-93001442D02*
X125065294Y-92985019D01*
X125065294Y-92985019D02*
X125044995Y-92852413D01*
X125044995Y-92852413D02*
X125215549Y-92754831D01*
X125215549Y-92754831D02*
X125311153Y-92703251D01*
X125311153Y-92703251D02*
X125387130Y-92667882D01*
X125387130Y-92667882D02*
X125421927Y-92657250D01*
X125421927Y-92657250D02*
X125444282Y-92687025D01*
X125444282Y-92687025D02*
X125456476Y-92769447D01*
X125456476Y-92769447D02*
X125458060Y-92823937D01*
X125458060Y-92823937D02*
X125486733Y-93036730D01*
X125486733Y-93036730D02*
X125568476Y-93219985D01*
X125568476Y-93219985D02*
X125698128Y-93367119D01*
X125698128Y-93367119D02*
X125870531Y-93471550D01*
X125870531Y-93471550D02*
X125997500Y-93512164D01*
X125997500Y-93512164D02*
X126202778Y-93540454D01*
X126202778Y-93540454D02*
X126427280Y-93540758D01*
X126427280Y-93540758D02*
X126651062Y-93515343D01*
X126651062Y-93515343D02*
X126854182Y-93466479D01*
X126854182Y-93466479D02*
X127016697Y-93396435D01*
X127016697Y-93396435D02*
X127017200Y-93396138D01*
X127017200Y-93396138D02*
X127121830Y-93299774D01*
X127121830Y-93299774D02*
X127181692Y-93166642D01*
X127181692Y-93166642D02*
X127195199Y-93006528D01*
X127195199Y-93006528D02*
X127160767Y-92829222D01*
X127160767Y-92829222D02*
X127124246Y-92735349D01*
X127124246Y-92735349D02*
X127080837Y-92669246D01*
X127080837Y-92669246D02*
X126994592Y-92564566D01*
X126994592Y-92564566D02*
X126869460Y-92425668D01*
X126869460Y-92425668D02*
X126709386Y-92256913D01*
X126709386Y-92256913D02*
X126518319Y-92062661D01*
X126518319Y-92062661D02*
X126486778Y-92031144D01*
X126486778Y-92031144D02*
X126250329Y-91792302D01*
X126250329Y-91792302D02*
X126057475Y-91589603D01*
X126057475Y-91589603D02*
X125904147Y-91417232D01*
X125904147Y-91417232D02*
X125786275Y-91269375D01*
X125786275Y-91269375D02*
X125699790Y-91140218D01*
X125699790Y-91140218D02*
X125640624Y-91023945D01*
X125640624Y-91023945D02*
X125604706Y-90914744D01*
X125604706Y-90914744D02*
X125587967Y-90806799D01*
X125587967Y-90806799D02*
X125585447Y-90743292D01*
X125585447Y-90743292D02*
X125604198Y-90570426D01*
X125604198Y-90570426D02*
X125667248Y-90417757D01*
X125667248Y-90417757D02*
X125782189Y-90268451D01*
X125782189Y-90268451D02*
X125814897Y-90234681D01*
X125814897Y-90234681D02*
X125993524Y-90098906D01*
X125993524Y-90098906D02*
X126200024Y-90015596D01*
X126200024Y-90015596D02*
X126399651Y-89990250D01*
X126399651Y-89990250D02*
X126484290Y-89999875D01*
X126484290Y-89999875D02*
X126484290Y-89999875D01*
G36*
X126484290Y-89999875D02*
G01*
X126606731Y-90025511D01*
X126750247Y-90062290D01*
X126898109Y-90105351D01*
X127033590Y-90149827D01*
X127139962Y-90190855D01*
X127199669Y-90222888D01*
X127226204Y-90271534D01*
X127229391Y-90362821D01*
X127224468Y-90414187D01*
X127211021Y-90507303D01*
X127197351Y-90570684D01*
X127191196Y-90585137D01*
X127159300Y-90577305D01*
X127097108Y-90539945D01*
X127071147Y-90521340D01*
X126918456Y-90432014D01*
X126737530Y-90364384D01*
X126545308Y-90321340D01*
X126358734Y-90305769D01*
X126194747Y-90320559D01*
X126093976Y-90354740D01*
X125966652Y-90453135D01*
X125883393Y-90585744D01*
X125849816Y-90737510D01*
X125871537Y-90893374D01*
X125882364Y-90922173D01*
X125952021Y-91040198D01*
X126074442Y-91188701D01*
X126247812Y-91365697D01*
X126470317Y-91569204D01*
X126489625Y-91586081D01*
X126754955Y-91822545D01*
X126972163Y-92029085D01*
X127145470Y-92211725D01*
X127279096Y-92376492D01*
X127377264Y-92529409D01*
X127444194Y-92676503D01*
X127484108Y-92823798D01*
X127501227Y-92977320D01*
X127502605Y-93031933D01*
X127485803Y-93253378D01*
X127430118Y-93437296D01*
X127332346Y-93586005D01*
X127189287Y-93701825D01*
X126997740Y-93787073D01*
X126754503Y-93844068D01*
X126456374Y-93875129D01*
X126330875Y-93880531D01*
X126164447Y-93883280D01*
X126011236Y-93881935D01*
X125887632Y-93876892D01*
X125810022Y-93868545D01*
X125807000Y-93867906D01*
X125589592Y-93788286D01*
X125402163Y-93656097D01*
X125249528Y-93477071D01*
X125136504Y-93256942D01*
X125067906Y-93001442D01*
X125065294Y-92985019D01*
X125044995Y-92852413D01*
X125215549Y-92754831D01*
X125311153Y-92703251D01*
X125387130Y-92667882D01*
X125421927Y-92657250D01*
X125444282Y-92687025D01*
X125456476Y-92769447D01*
X125458060Y-92823937D01*
X125486733Y-93036730D01*
X125568476Y-93219985D01*
X125698128Y-93367119D01*
X125870531Y-93471550D01*
X125997500Y-93512164D01*
X126202778Y-93540454D01*
X126427280Y-93540758D01*
X126651062Y-93515343D01*
X126854182Y-93466479D01*
X127016697Y-93396435D01*
X127017200Y-93396138D01*
X127121830Y-93299774D01*
X127181692Y-93166642D01*
X127195199Y-93006528D01*
X127160767Y-92829222D01*
X127124246Y-92735349D01*
X127080837Y-92669246D01*
X126994592Y-92564566D01*
X126869460Y-92425668D01*
X126709386Y-92256913D01*
X126518319Y-92062661D01*
X126486778Y-92031144D01*
X126250329Y-91792302D01*
X126057475Y-91589603D01*
X125904147Y-91417232D01*
X125786275Y-91269375D01*
X125699790Y-91140218D01*
X125640624Y-91023945D01*
X125604706Y-90914744D01*
X125587967Y-90806799D01*
X125585447Y-90743292D01*
X125604198Y-90570426D01*
X125667248Y-90417757D01*
X125782189Y-90268451D01*
X125814897Y-90234681D01*
X125993524Y-90098906D01*
X126200024Y-90015596D01*
X126399651Y-89990250D01*
X126484290Y-89999875D01*
G37*
X126484290Y-89999875D02*
X126606731Y-90025511D01*
X126750247Y-90062290D01*
X126898109Y-90105351D01*
X127033590Y-90149827D01*
X127139962Y-90190855D01*
X127199669Y-90222888D01*
X127226204Y-90271534D01*
X127229391Y-90362821D01*
X127224468Y-90414187D01*
X127211021Y-90507303D01*
X127197351Y-90570684D01*
X127191196Y-90585137D01*
X127159300Y-90577305D01*
X127097108Y-90539945D01*
X127071147Y-90521340D01*
X126918456Y-90432014D01*
X126737530Y-90364384D01*
X126545308Y-90321340D01*
X126358734Y-90305769D01*
X126194747Y-90320559D01*
X126093976Y-90354740D01*
X125966652Y-90453135D01*
X125883393Y-90585744D01*
X125849816Y-90737510D01*
X125871537Y-90893374D01*
X125882364Y-90922173D01*
X125952021Y-91040198D01*
X126074442Y-91188701D01*
X126247812Y-91365697D01*
X126470317Y-91569204D01*
X126489625Y-91586081D01*
X126754955Y-91822545D01*
X126972163Y-92029085D01*
X127145470Y-92211725D01*
X127279096Y-92376492D01*
X127377264Y-92529409D01*
X127444194Y-92676503D01*
X127484108Y-92823798D01*
X127501227Y-92977320D01*
X127502605Y-93031933D01*
X127485803Y-93253378D01*
X127430118Y-93437296D01*
X127332346Y-93586005D01*
X127189287Y-93701825D01*
X126997740Y-93787073D01*
X126754503Y-93844068D01*
X126456374Y-93875129D01*
X126330875Y-93880531D01*
X126164447Y-93883280D01*
X126011236Y-93881935D01*
X125887632Y-93876892D01*
X125810022Y-93868545D01*
X125807000Y-93867906D01*
X125589592Y-93788286D01*
X125402163Y-93656097D01*
X125249528Y-93477071D01*
X125136504Y-93256942D01*
X125067906Y-93001442D01*
X125065294Y-92985019D01*
X125044995Y-92852413D01*
X125215549Y-92754831D01*
X125311153Y-92703251D01*
X125387130Y-92667882D01*
X125421927Y-92657250D01*
X125444282Y-92687025D01*
X125456476Y-92769447D01*
X125458060Y-92823937D01*
X125486733Y-93036730D01*
X125568476Y-93219985D01*
X125698128Y-93367119D01*
X125870531Y-93471550D01*
X125997500Y-93512164D01*
X126202778Y-93540454D01*
X126427280Y-93540758D01*
X126651062Y-93515343D01*
X126854182Y-93466479D01*
X127016697Y-93396435D01*
X127017200Y-93396138D01*
X127121830Y-93299774D01*
X127181692Y-93166642D01*
X127195199Y-93006528D01*
X127160767Y-92829222D01*
X127124246Y-92735349D01*
X127080837Y-92669246D01*
X126994592Y-92564566D01*
X126869460Y-92425668D01*
X126709386Y-92256913D01*
X126518319Y-92062661D01*
X126486778Y-92031144D01*
X126250329Y-91792302D01*
X126057475Y-91589603D01*
X125904147Y-91417232D01*
X125786275Y-91269375D01*
X125699790Y-91140218D01*
X125640624Y-91023945D01*
X125604706Y-90914744D01*
X125587967Y-90806799D01*
X125585447Y-90743292D01*
X125604198Y-90570426D01*
X125667248Y-90417757D01*
X125782189Y-90268451D01*
X125814897Y-90234681D01*
X125993524Y-90098906D01*
X126200024Y-90015596D01*
X126399651Y-89990250D01*
X126484290Y-89999875D01*
X131845310Y-89781743D02*
X131868440Y-89906506D01*
X131868440Y-89906506D02*
X131902618Y-89979938D01*
X131902618Y-89979938D02*
X131956788Y-90014176D01*
X131956788Y-90014176D02*
X132022062Y-90021513D01*
X132022062Y-90021513D02*
X132082274Y-90032377D01*
X132082274Y-90032377D02*
X132089293Y-90055841D01*
X132089293Y-90055841D02*
X132048516Y-90080019D01*
X132048516Y-90080019D02*
X131990312Y-90091425D01*
X131990312Y-90091425D02*
X131932114Y-90100320D01*
X131932114Y-90100320D02*
X131899154Y-90123345D01*
X131899154Y-90123345D02*
X131881294Y-90176478D01*
X131881294Y-90176478D02*
X131868397Y-90275693D01*
X131868397Y-90275693D02*
X131867377Y-90285164D01*
X131867377Y-90285164D02*
X131852082Y-90394840D01*
X131852082Y-90394840D02*
X131835446Y-90466270D01*
X131835446Y-90466270D02*
X131820528Y-90492937D01*
X131820528Y-90492937D02*
X131810384Y-90468322D01*
X131810384Y-90468322D02*
X131807750Y-90412260D01*
X131807750Y-90412260D02*
X131798659Y-90261201D01*
X131798659Y-90261201D02*
X131769060Y-90162937D01*
X131769060Y-90162937D02*
X131715459Y-90109087D01*
X131715459Y-90109087D02*
X131675789Y-90095620D01*
X131675789Y-90095620D02*
X131600714Y-90072309D01*
X131600714Y-90072309D02*
X131567415Y-90046121D01*
X131567415Y-90046121D02*
X131582524Y-90026421D01*
X131582524Y-90026421D02*
X131623313Y-90021513D01*
X131623313Y-90021513D02*
X131697302Y-90012032D01*
X131697302Y-90012032D02*
X131744647Y-89976348D01*
X131744647Y-89976348D02*
X131774483Y-89901809D01*
X131774483Y-89901809D02*
X131794879Y-89783875D01*
X131794879Y-89783875D02*
X131820203Y-89593375D01*
X131820203Y-89593375D02*
X131845310Y-89781743D01*
X131845310Y-89781743D02*
X131845310Y-89781743D01*
G36*
X131845310Y-89781743D02*
G01*
X131868440Y-89906506D01*
X131902618Y-89979938D01*
X131956788Y-90014176D01*
X132022062Y-90021513D01*
X132082274Y-90032377D01*
X132089293Y-90055841D01*
X132048516Y-90080019D01*
X131990312Y-90091425D01*
X131932114Y-90100320D01*
X131899154Y-90123345D01*
X131881294Y-90176478D01*
X131868397Y-90275693D01*
X131867377Y-90285164D01*
X131852082Y-90394840D01*
X131835446Y-90466270D01*
X131820528Y-90492937D01*
X131810384Y-90468322D01*
X131807750Y-90412260D01*
X131798659Y-90261201D01*
X131769060Y-90162937D01*
X131715459Y-90109087D01*
X131675789Y-90095620D01*
X131600714Y-90072309D01*
X131567415Y-90046121D01*
X131582524Y-90026421D01*
X131623313Y-90021513D01*
X131697302Y-90012032D01*
X131744647Y-89976348D01*
X131774483Y-89901809D01*
X131794879Y-89783875D01*
X131820203Y-89593375D01*
X131845310Y-89781743D01*
G37*
X131845310Y-89781743D02*
X131868440Y-89906506D01*
X131902618Y-89979938D01*
X131956788Y-90014176D01*
X132022062Y-90021513D01*
X132082274Y-90032377D01*
X132089293Y-90055841D01*
X132048516Y-90080019D01*
X131990312Y-90091425D01*
X131932114Y-90100320D01*
X131899154Y-90123345D01*
X131881294Y-90176478D01*
X131868397Y-90275693D01*
X131867377Y-90285164D01*
X131852082Y-90394840D01*
X131835446Y-90466270D01*
X131820528Y-90492937D01*
X131810384Y-90468322D01*
X131807750Y-90412260D01*
X131798659Y-90261201D01*
X131769060Y-90162937D01*
X131715459Y-90109087D01*
X131675789Y-90095620D01*
X131600714Y-90072309D01*
X131567415Y-90046121D01*
X131582524Y-90026421D01*
X131623313Y-90021513D01*
X131697302Y-90012032D01*
X131744647Y-89976348D01*
X131774483Y-89901809D01*
X131794879Y-89783875D01*
X131820203Y-89593375D01*
X131845310Y-89781743D01*
D12*
%TO.C,J1*%
X137250000Y-104050000D02*
X137050000Y-104050000D01*
X140050000Y-101050000D02*
X140050000Y-101850000D01*
X140050000Y-103250000D02*
X140050000Y-103850000D01*
X140050000Y-101850000D02*
X140550000Y-101850000D01*
X140050000Y-103850000D02*
X139850000Y-104050000D01*
X137050000Y-104050000D02*
X137050000Y-103250000D01*
X140050000Y-103250000D02*
X140550000Y-103250000D01*
X139850000Y-101050000D02*
X140050000Y-101050000D01*
X137050000Y-101050000D02*
X137250000Y-101050000D01*
X137050000Y-101850000D02*
X137050000Y-101050000D01*
%TO.C,C1*%
X151559420Y-103240000D02*
X151840580Y-103240000D01*
X151559420Y-104260000D02*
X151840580Y-104260000D01*
%TO.C,C2*%
X148980000Y-102879420D02*
X148980000Y-103160580D01*
X150000000Y-102879420D02*
X150000000Y-103160580D01*
%TO.C,L1*%
X152650000Y-101652779D02*
X152650000Y-101327221D01*
X153670000Y-101652779D02*
X153670000Y-101327221D01*
%TO.C,R1*%
X143047258Y-103177500D02*
X142572742Y-103177500D01*
X143047258Y-104222500D02*
X142572742Y-104222500D01*
%TO.C,L2*%
X154862779Y-103180000D02*
X154537221Y-103180000D01*
X154862779Y-104200000D02*
X154537221Y-104200000D01*
%TO.C,L3*%
X147500000Y-103172779D02*
X147500000Y-102847221D01*
X148520000Y-103172779D02*
X148520000Y-102847221D01*
%TO.C,C3*%
X145659420Y-104210000D02*
X145940580Y-104210000D01*
X145659420Y-103190000D02*
X145940580Y-103190000D01*
%TD*%
M02*
