G04 #@! TF.GenerationSoftware,KiCad,Pcbnew,5.1.6+dfsg1-1~bpo10+1*
G04 #@! TF.CreationDate,2021-06-28T17:41:37-04:00*
G04 #@! TF.ProjectId,RUSP_Mainboard,52555350-5f4d-4616-996e-626f6172642e,rev?*
G04 #@! TF.SameCoordinates,Original*
G04 #@! TF.FileFunction,Soldermask,Top*
G04 #@! TF.FilePolarity,Negative*
%FSLAX46Y46*%
G04 Gerber Fmt 4.6, Leading zero omitted, Abs format (unit mm)*
G04 Created by KiCad (PCBNEW 5.1.6+dfsg1-1~bpo10+1) date 2021-06-28 17:41:37*
%MOMM*%
%LPD*%
G01*
G04 APERTURE LIST*
%ADD10C,0.010000*%
%ADD11C,4.700000*%
%ADD12C,6.700000*%
%ADD13R,1.300000X1.300000*%
%ADD14R,2.000000X1.000000*%
%ADD15R,1.000000X1.700000*%
%ADD16R,1.000000X2.000000*%
%ADD17R,1.700000X1.000000*%
%ADD18R,1.150000X0.600000*%
%ADD19R,0.850000X0.500000*%
%ADD20R,1.000000X0.500000*%
%ADD21C,0.100000*%
%ADD22R,1.200000X1.200000*%
%ADD23R,2.400000X1.250000*%
%ADD24R,1.250000X2.400000*%
%ADD25C,1.220000*%
%ADD26R,0.940000X2.990000*%
%ADD27R,2.400000X6.500000*%
%ADD28C,1.300000*%
%ADD29R,0.900000X5.200000*%
%ADD30R,1.200000X5.200000*%
%ADD31R,0.950000X0.500000*%
%ADD32R,1.560000X1.660000*%
%ADD33R,1.000000X1.800000*%
%ADD34R,0.800000X1.800000*%
%ADD35O,1.200000X2.200000*%
%ADD36C,0.900000*%
%ADD37C,0.800000*%
%ADD38R,0.550000X1.090000*%
%ADD39C,1.700000*%
%ADD40C,2.575000*%
%ADD41C,1.191000*%
%ADD42C,0.987000*%
%ADD43C,2.500000*%
%ADD44R,0.606400X1.470000*%
%ADD45C,1.500000*%
%ADD46O,3.200000X2.200000*%
%ADD47C,1.800000*%
%ADD48C,2.400000*%
%ADD49R,1.400000X1.100000*%
%ADD50R,1.100000X1.400000*%
%ADD51R,0.900000X0.650000*%
%ADD52C,2.200000*%
%ADD53R,1.100000X1.000000*%
G04 APERTURE END LIST*
D10*
G36*
X167830000Y-82250000D02*
G01*
X167180000Y-82250000D01*
X167174766Y-82249863D01*
X167169547Y-82249452D01*
X167164357Y-82248769D01*
X167159209Y-82247815D01*
X167154118Y-82246593D01*
X167149098Y-82245106D01*
X167144163Y-82243358D01*
X167139326Y-82241355D01*
X167134601Y-82239101D01*
X167130000Y-82236603D01*
X167125536Y-82233867D01*
X167121221Y-82230902D01*
X167117068Y-82227715D01*
X167113087Y-82224314D01*
X167109289Y-82220711D01*
X167105686Y-82216913D01*
X167102285Y-82212932D01*
X167099098Y-82208779D01*
X167096133Y-82204464D01*
X167093397Y-82200000D01*
X167090899Y-82195399D01*
X167088645Y-82190674D01*
X167086642Y-82185837D01*
X167084894Y-82180902D01*
X167083407Y-82175882D01*
X167082185Y-82170791D01*
X167081231Y-82165643D01*
X167080548Y-82160453D01*
X167080137Y-82155234D01*
X167080000Y-82150000D01*
X167080000Y-81950000D01*
X167080137Y-81944766D01*
X167080548Y-81939547D01*
X167081231Y-81934357D01*
X167082185Y-81929209D01*
X167083407Y-81924118D01*
X167084894Y-81919098D01*
X167086642Y-81914163D01*
X167088645Y-81909326D01*
X167090899Y-81904601D01*
X167093397Y-81900000D01*
X167096133Y-81895536D01*
X167099098Y-81891221D01*
X167102285Y-81887068D01*
X167105686Y-81883087D01*
X167109289Y-81879289D01*
X167113087Y-81875686D01*
X167117068Y-81872285D01*
X167121221Y-81869098D01*
X167125536Y-81866133D01*
X167130000Y-81863397D01*
X167134601Y-81860899D01*
X167139326Y-81858645D01*
X167144163Y-81856642D01*
X167149098Y-81854894D01*
X167154118Y-81853407D01*
X167159209Y-81852185D01*
X167164357Y-81851231D01*
X167169547Y-81850548D01*
X167174766Y-81850137D01*
X167180000Y-81850000D01*
X167830000Y-81850000D01*
X167835234Y-81850137D01*
X167840453Y-81850548D01*
X167845643Y-81851231D01*
X167850791Y-81852185D01*
X167855882Y-81853407D01*
X167860902Y-81854894D01*
X167865837Y-81856642D01*
X167870674Y-81858645D01*
X167875399Y-81860899D01*
X167880000Y-81863397D01*
X167884464Y-81866133D01*
X167888779Y-81869098D01*
X167892932Y-81872285D01*
X167896913Y-81875686D01*
X167900711Y-81879289D01*
X167904314Y-81883087D01*
X167907715Y-81887068D01*
X167910902Y-81891221D01*
X167913867Y-81895536D01*
X167916603Y-81900000D01*
X167919101Y-81904601D01*
X167921355Y-81909326D01*
X167923358Y-81914163D01*
X167925106Y-81919098D01*
X167926593Y-81924118D01*
X167927815Y-81929209D01*
X167928769Y-81934357D01*
X167929452Y-81939547D01*
X167929863Y-81944766D01*
X167930000Y-81950000D01*
X167930000Y-82150000D01*
X167929863Y-82155234D01*
X167929452Y-82160453D01*
X167928769Y-82165643D01*
X167927815Y-82170791D01*
X167926593Y-82175882D01*
X167925106Y-82180902D01*
X167923358Y-82185837D01*
X167921355Y-82190674D01*
X167919101Y-82195399D01*
X167916603Y-82200000D01*
X167913867Y-82204464D01*
X167910902Y-82208779D01*
X167907715Y-82212932D01*
X167904314Y-82216913D01*
X167900711Y-82220711D01*
X167896913Y-82224314D01*
X167892932Y-82227715D01*
X167888779Y-82230902D01*
X167884464Y-82233867D01*
X167880000Y-82236603D01*
X167875399Y-82239101D01*
X167870674Y-82241355D01*
X167865837Y-82243358D01*
X167860902Y-82245106D01*
X167855882Y-82246593D01*
X167850791Y-82247815D01*
X167845643Y-82248769D01*
X167840453Y-82249452D01*
X167835234Y-82249863D01*
X167830000Y-82250000D01*
G37*
X167830000Y-82250000D02*
X167180000Y-82250000D01*
X167174766Y-82249863D01*
X167169547Y-82249452D01*
X167164357Y-82248769D01*
X167159209Y-82247815D01*
X167154118Y-82246593D01*
X167149098Y-82245106D01*
X167144163Y-82243358D01*
X167139326Y-82241355D01*
X167134601Y-82239101D01*
X167130000Y-82236603D01*
X167125536Y-82233867D01*
X167121221Y-82230902D01*
X167117068Y-82227715D01*
X167113087Y-82224314D01*
X167109289Y-82220711D01*
X167105686Y-82216913D01*
X167102285Y-82212932D01*
X167099098Y-82208779D01*
X167096133Y-82204464D01*
X167093397Y-82200000D01*
X167090899Y-82195399D01*
X167088645Y-82190674D01*
X167086642Y-82185837D01*
X167084894Y-82180902D01*
X167083407Y-82175882D01*
X167082185Y-82170791D01*
X167081231Y-82165643D01*
X167080548Y-82160453D01*
X167080137Y-82155234D01*
X167080000Y-82150000D01*
X167080000Y-81950000D01*
X167080137Y-81944766D01*
X167080548Y-81939547D01*
X167081231Y-81934357D01*
X167082185Y-81929209D01*
X167083407Y-81924118D01*
X167084894Y-81919098D01*
X167086642Y-81914163D01*
X167088645Y-81909326D01*
X167090899Y-81904601D01*
X167093397Y-81900000D01*
X167096133Y-81895536D01*
X167099098Y-81891221D01*
X167102285Y-81887068D01*
X167105686Y-81883087D01*
X167109289Y-81879289D01*
X167113087Y-81875686D01*
X167117068Y-81872285D01*
X167121221Y-81869098D01*
X167125536Y-81866133D01*
X167130000Y-81863397D01*
X167134601Y-81860899D01*
X167139326Y-81858645D01*
X167144163Y-81856642D01*
X167149098Y-81854894D01*
X167154118Y-81853407D01*
X167159209Y-81852185D01*
X167164357Y-81851231D01*
X167169547Y-81850548D01*
X167174766Y-81850137D01*
X167180000Y-81850000D01*
X167830000Y-81850000D01*
X167835234Y-81850137D01*
X167840453Y-81850548D01*
X167845643Y-81851231D01*
X167850791Y-81852185D01*
X167855882Y-81853407D01*
X167860902Y-81854894D01*
X167865837Y-81856642D01*
X167870674Y-81858645D01*
X167875399Y-81860899D01*
X167880000Y-81863397D01*
X167884464Y-81866133D01*
X167888779Y-81869098D01*
X167892932Y-81872285D01*
X167896913Y-81875686D01*
X167900711Y-81879289D01*
X167904314Y-81883087D01*
X167907715Y-81887068D01*
X167910902Y-81891221D01*
X167913867Y-81895536D01*
X167916603Y-81900000D01*
X167919101Y-81904601D01*
X167921355Y-81909326D01*
X167923358Y-81914163D01*
X167925106Y-81919098D01*
X167926593Y-81924118D01*
X167927815Y-81929209D01*
X167928769Y-81934357D01*
X167929452Y-81939547D01*
X167929863Y-81944766D01*
X167930000Y-81950000D01*
X167930000Y-82150000D01*
X167929863Y-82155234D01*
X167929452Y-82160453D01*
X167928769Y-82165643D01*
X167927815Y-82170791D01*
X167926593Y-82175882D01*
X167925106Y-82180902D01*
X167923358Y-82185837D01*
X167921355Y-82190674D01*
X167919101Y-82195399D01*
X167916603Y-82200000D01*
X167913867Y-82204464D01*
X167910902Y-82208779D01*
X167907715Y-82212932D01*
X167904314Y-82216913D01*
X167900711Y-82220711D01*
X167896913Y-82224314D01*
X167892932Y-82227715D01*
X167888779Y-82230902D01*
X167884464Y-82233867D01*
X167880000Y-82236603D01*
X167875399Y-82239101D01*
X167870674Y-82241355D01*
X167865837Y-82243358D01*
X167860902Y-82245106D01*
X167855882Y-82246593D01*
X167850791Y-82247815D01*
X167845643Y-82248769D01*
X167840453Y-82249452D01*
X167835234Y-82249863D01*
X167830000Y-82250000D01*
G36*
X167150000Y-82500000D02*
G01*
X168050000Y-82500000D01*
X168055234Y-82500137D01*
X168060453Y-82500548D01*
X168065643Y-82501231D01*
X168070791Y-82502185D01*
X168075882Y-82503407D01*
X168080902Y-82504894D01*
X168085837Y-82506642D01*
X168090674Y-82508645D01*
X168095399Y-82510899D01*
X168100000Y-82513397D01*
X168104464Y-82516133D01*
X168108779Y-82519098D01*
X168112932Y-82522285D01*
X168116913Y-82525686D01*
X168120711Y-82529289D01*
X168124314Y-82533087D01*
X168127715Y-82537068D01*
X168130902Y-82541221D01*
X168133867Y-82545536D01*
X168136603Y-82550000D01*
X168139101Y-82554601D01*
X168141355Y-82559326D01*
X168143358Y-82564163D01*
X168145106Y-82569098D01*
X168146593Y-82574118D01*
X168147815Y-82579209D01*
X168148769Y-82584357D01*
X168149452Y-82589547D01*
X168149863Y-82594766D01*
X168150000Y-82600000D01*
X168150000Y-83450000D01*
X168149863Y-83455234D01*
X168149452Y-83460453D01*
X168148769Y-83465643D01*
X168147815Y-83470791D01*
X168146593Y-83475882D01*
X168145106Y-83480902D01*
X168143358Y-83485837D01*
X168141355Y-83490674D01*
X168139101Y-83495399D01*
X168136603Y-83500000D01*
X168133867Y-83504464D01*
X168130902Y-83508779D01*
X168127715Y-83512932D01*
X168124314Y-83516913D01*
X168120711Y-83520711D01*
X168116913Y-83524314D01*
X168112932Y-83527715D01*
X168108779Y-83530902D01*
X168104464Y-83533867D01*
X168100000Y-83536603D01*
X168095399Y-83539101D01*
X168090674Y-83541355D01*
X168085837Y-83543358D01*
X168080902Y-83545106D01*
X168075882Y-83546593D01*
X168070791Y-83547815D01*
X168065643Y-83548769D01*
X168060453Y-83549452D01*
X168055234Y-83549863D01*
X168050000Y-83550000D01*
X167150000Y-83550000D01*
X167144766Y-83549863D01*
X167139547Y-83549452D01*
X167134357Y-83548769D01*
X167129209Y-83547815D01*
X167124118Y-83546593D01*
X167119098Y-83545106D01*
X167114163Y-83543358D01*
X167109326Y-83541355D01*
X167104601Y-83539101D01*
X167100000Y-83536603D01*
X167095536Y-83533867D01*
X167091221Y-83530902D01*
X167087068Y-83527715D01*
X167083087Y-83524314D01*
X167079289Y-83520711D01*
X167075686Y-83516913D01*
X167072285Y-83512932D01*
X167069098Y-83508779D01*
X167066133Y-83504464D01*
X167063397Y-83500000D01*
X167060899Y-83495399D01*
X167058645Y-83490674D01*
X167056642Y-83485837D01*
X167054894Y-83480902D01*
X167053407Y-83475882D01*
X167052185Y-83470791D01*
X167051231Y-83465643D01*
X167050548Y-83460453D01*
X167050137Y-83455234D01*
X167050000Y-83450000D01*
X167050000Y-82600000D01*
X167050137Y-82594766D01*
X167050548Y-82589547D01*
X167051231Y-82584357D01*
X167052185Y-82579209D01*
X167053407Y-82574118D01*
X167054894Y-82569098D01*
X167056642Y-82564163D01*
X167058645Y-82559326D01*
X167060899Y-82554601D01*
X167063397Y-82550000D01*
X167066133Y-82545536D01*
X167069098Y-82541221D01*
X167072285Y-82537068D01*
X167075686Y-82533087D01*
X167079289Y-82529289D01*
X167083087Y-82525686D01*
X167087068Y-82522285D01*
X167091221Y-82519098D01*
X167095536Y-82516133D01*
X167100000Y-82513397D01*
X167104601Y-82510899D01*
X167109326Y-82508645D01*
X167114163Y-82506642D01*
X167119098Y-82504894D01*
X167124118Y-82503407D01*
X167129209Y-82502185D01*
X167134357Y-82501231D01*
X167139547Y-82500548D01*
X167144766Y-82500137D01*
X167150000Y-82500000D01*
G37*
X167150000Y-82500000D02*
X168050000Y-82500000D01*
X168055234Y-82500137D01*
X168060453Y-82500548D01*
X168065643Y-82501231D01*
X168070791Y-82502185D01*
X168075882Y-82503407D01*
X168080902Y-82504894D01*
X168085837Y-82506642D01*
X168090674Y-82508645D01*
X168095399Y-82510899D01*
X168100000Y-82513397D01*
X168104464Y-82516133D01*
X168108779Y-82519098D01*
X168112932Y-82522285D01*
X168116913Y-82525686D01*
X168120711Y-82529289D01*
X168124314Y-82533087D01*
X168127715Y-82537068D01*
X168130902Y-82541221D01*
X168133867Y-82545536D01*
X168136603Y-82550000D01*
X168139101Y-82554601D01*
X168141355Y-82559326D01*
X168143358Y-82564163D01*
X168145106Y-82569098D01*
X168146593Y-82574118D01*
X168147815Y-82579209D01*
X168148769Y-82584357D01*
X168149452Y-82589547D01*
X168149863Y-82594766D01*
X168150000Y-82600000D01*
X168150000Y-83450000D01*
X168149863Y-83455234D01*
X168149452Y-83460453D01*
X168148769Y-83465643D01*
X168147815Y-83470791D01*
X168146593Y-83475882D01*
X168145106Y-83480902D01*
X168143358Y-83485837D01*
X168141355Y-83490674D01*
X168139101Y-83495399D01*
X168136603Y-83500000D01*
X168133867Y-83504464D01*
X168130902Y-83508779D01*
X168127715Y-83512932D01*
X168124314Y-83516913D01*
X168120711Y-83520711D01*
X168116913Y-83524314D01*
X168112932Y-83527715D01*
X168108779Y-83530902D01*
X168104464Y-83533867D01*
X168100000Y-83536603D01*
X168095399Y-83539101D01*
X168090674Y-83541355D01*
X168085837Y-83543358D01*
X168080902Y-83545106D01*
X168075882Y-83546593D01*
X168070791Y-83547815D01*
X168065643Y-83548769D01*
X168060453Y-83549452D01*
X168055234Y-83549863D01*
X168050000Y-83550000D01*
X167150000Y-83550000D01*
X167144766Y-83549863D01*
X167139547Y-83549452D01*
X167134357Y-83548769D01*
X167129209Y-83547815D01*
X167124118Y-83546593D01*
X167119098Y-83545106D01*
X167114163Y-83543358D01*
X167109326Y-83541355D01*
X167104601Y-83539101D01*
X167100000Y-83536603D01*
X167095536Y-83533867D01*
X167091221Y-83530902D01*
X167087068Y-83527715D01*
X167083087Y-83524314D01*
X167079289Y-83520711D01*
X167075686Y-83516913D01*
X167072285Y-83512932D01*
X167069098Y-83508779D01*
X167066133Y-83504464D01*
X167063397Y-83500000D01*
X167060899Y-83495399D01*
X167058645Y-83490674D01*
X167056642Y-83485837D01*
X167054894Y-83480902D01*
X167053407Y-83475882D01*
X167052185Y-83470791D01*
X167051231Y-83465643D01*
X167050548Y-83460453D01*
X167050137Y-83455234D01*
X167050000Y-83450000D01*
X167050000Y-82600000D01*
X167050137Y-82594766D01*
X167050548Y-82589547D01*
X167051231Y-82584357D01*
X167052185Y-82579209D01*
X167053407Y-82574118D01*
X167054894Y-82569098D01*
X167056642Y-82564163D01*
X167058645Y-82559326D01*
X167060899Y-82554601D01*
X167063397Y-82550000D01*
X167066133Y-82545536D01*
X167069098Y-82541221D01*
X167072285Y-82537068D01*
X167075686Y-82533087D01*
X167079289Y-82529289D01*
X167083087Y-82525686D01*
X167087068Y-82522285D01*
X167091221Y-82519098D01*
X167095536Y-82516133D01*
X167100000Y-82513397D01*
X167104601Y-82510899D01*
X167109326Y-82508645D01*
X167114163Y-82506642D01*
X167119098Y-82504894D01*
X167124118Y-82503407D01*
X167129209Y-82502185D01*
X167134357Y-82501231D01*
X167139547Y-82500548D01*
X167144766Y-82500137D01*
X167150000Y-82500000D01*
G36*
X166350000Y-82150000D02*
G01*
X166350000Y-81950000D01*
X166350137Y-81944766D01*
X166350548Y-81939547D01*
X166351231Y-81934357D01*
X166352185Y-81929209D01*
X166353407Y-81924118D01*
X166354894Y-81919098D01*
X166356642Y-81914163D01*
X166358645Y-81909326D01*
X166360899Y-81904601D01*
X166363397Y-81900000D01*
X166366133Y-81895536D01*
X166369098Y-81891221D01*
X166372285Y-81887068D01*
X166375686Y-81883087D01*
X166379289Y-81879289D01*
X166383087Y-81875686D01*
X166387068Y-81872285D01*
X166391221Y-81869098D01*
X166395536Y-81866133D01*
X166400000Y-81863397D01*
X166404601Y-81860899D01*
X166409326Y-81858645D01*
X166414163Y-81856642D01*
X166419098Y-81854894D01*
X166424118Y-81853407D01*
X166429209Y-81852185D01*
X166434357Y-81851231D01*
X166439547Y-81850548D01*
X166444766Y-81850137D01*
X166450000Y-81850000D01*
X166800000Y-81850000D01*
X166805234Y-81850137D01*
X166810453Y-81850548D01*
X166815643Y-81851231D01*
X166820791Y-81852185D01*
X166825882Y-81853407D01*
X166830902Y-81854894D01*
X166835837Y-81856642D01*
X166840674Y-81858645D01*
X166845399Y-81860899D01*
X166850000Y-81863397D01*
X166854464Y-81866133D01*
X166858779Y-81869098D01*
X166862932Y-81872285D01*
X166866913Y-81875686D01*
X166870711Y-81879289D01*
X166874314Y-81883087D01*
X166877715Y-81887068D01*
X166880902Y-81891221D01*
X166883867Y-81895536D01*
X166886603Y-81900000D01*
X166889101Y-81904601D01*
X166891355Y-81909326D01*
X166893358Y-81914163D01*
X166895106Y-81919098D01*
X166896593Y-81924118D01*
X166897815Y-81929209D01*
X166898769Y-81934357D01*
X166899452Y-81939547D01*
X166899863Y-81944766D01*
X166900000Y-81950000D01*
X166900000Y-82150000D01*
X166899863Y-82155234D01*
X166899452Y-82160453D01*
X166898769Y-82165643D01*
X166897815Y-82170791D01*
X166896593Y-82175882D01*
X166895106Y-82180902D01*
X166893358Y-82185837D01*
X166891355Y-82190674D01*
X166889101Y-82195399D01*
X166886603Y-82200000D01*
X166883867Y-82204464D01*
X166880902Y-82208779D01*
X166877715Y-82212932D01*
X166874314Y-82216913D01*
X166870711Y-82220711D01*
X166866913Y-82224314D01*
X166862932Y-82227715D01*
X166858779Y-82230902D01*
X166854464Y-82233867D01*
X166850000Y-82236603D01*
X166845399Y-82239101D01*
X166840674Y-82241355D01*
X166835837Y-82243358D01*
X166830902Y-82245106D01*
X166825882Y-82246593D01*
X166820791Y-82247815D01*
X166815643Y-82248769D01*
X166810453Y-82249452D01*
X166805234Y-82249863D01*
X166800000Y-82250000D01*
X166450000Y-82250000D01*
X166444766Y-82249863D01*
X166439547Y-82249452D01*
X166434357Y-82248769D01*
X166429209Y-82247815D01*
X166424118Y-82246593D01*
X166419098Y-82245106D01*
X166414163Y-82243358D01*
X166409326Y-82241355D01*
X166404601Y-82239101D01*
X166400000Y-82236603D01*
X166395536Y-82233867D01*
X166391221Y-82230902D01*
X166387068Y-82227715D01*
X166383087Y-82224314D01*
X166379289Y-82220711D01*
X166375686Y-82216913D01*
X166372285Y-82212932D01*
X166369098Y-82208779D01*
X166366133Y-82204464D01*
X166363397Y-82200000D01*
X166360899Y-82195399D01*
X166358645Y-82190674D01*
X166356642Y-82185837D01*
X166354894Y-82180902D01*
X166353407Y-82175882D01*
X166352185Y-82170791D01*
X166351231Y-82165643D01*
X166350548Y-82160453D01*
X166350137Y-82155234D01*
X166350000Y-82150000D01*
G37*
X166350000Y-82150000D02*
X166350000Y-81950000D01*
X166350137Y-81944766D01*
X166350548Y-81939547D01*
X166351231Y-81934357D01*
X166352185Y-81929209D01*
X166353407Y-81924118D01*
X166354894Y-81919098D01*
X166356642Y-81914163D01*
X166358645Y-81909326D01*
X166360899Y-81904601D01*
X166363397Y-81900000D01*
X166366133Y-81895536D01*
X166369098Y-81891221D01*
X166372285Y-81887068D01*
X166375686Y-81883087D01*
X166379289Y-81879289D01*
X166383087Y-81875686D01*
X166387068Y-81872285D01*
X166391221Y-81869098D01*
X166395536Y-81866133D01*
X166400000Y-81863397D01*
X166404601Y-81860899D01*
X166409326Y-81858645D01*
X166414163Y-81856642D01*
X166419098Y-81854894D01*
X166424118Y-81853407D01*
X166429209Y-81852185D01*
X166434357Y-81851231D01*
X166439547Y-81850548D01*
X166444766Y-81850137D01*
X166450000Y-81850000D01*
X166800000Y-81850000D01*
X166805234Y-81850137D01*
X166810453Y-81850548D01*
X166815643Y-81851231D01*
X166820791Y-81852185D01*
X166825882Y-81853407D01*
X166830902Y-81854894D01*
X166835837Y-81856642D01*
X166840674Y-81858645D01*
X166845399Y-81860899D01*
X166850000Y-81863397D01*
X166854464Y-81866133D01*
X166858779Y-81869098D01*
X166862932Y-81872285D01*
X166866913Y-81875686D01*
X166870711Y-81879289D01*
X166874314Y-81883087D01*
X166877715Y-81887068D01*
X166880902Y-81891221D01*
X166883867Y-81895536D01*
X166886603Y-81900000D01*
X166889101Y-81904601D01*
X166891355Y-81909326D01*
X166893358Y-81914163D01*
X166895106Y-81919098D01*
X166896593Y-81924118D01*
X166897815Y-81929209D01*
X166898769Y-81934357D01*
X166899452Y-81939547D01*
X166899863Y-81944766D01*
X166900000Y-81950000D01*
X166900000Y-82150000D01*
X166899863Y-82155234D01*
X166899452Y-82160453D01*
X166898769Y-82165643D01*
X166897815Y-82170791D01*
X166896593Y-82175882D01*
X166895106Y-82180902D01*
X166893358Y-82185837D01*
X166891355Y-82190674D01*
X166889101Y-82195399D01*
X166886603Y-82200000D01*
X166883867Y-82204464D01*
X166880902Y-82208779D01*
X166877715Y-82212932D01*
X166874314Y-82216913D01*
X166870711Y-82220711D01*
X166866913Y-82224314D01*
X166862932Y-82227715D01*
X166858779Y-82230902D01*
X166854464Y-82233867D01*
X166850000Y-82236603D01*
X166845399Y-82239101D01*
X166840674Y-82241355D01*
X166835837Y-82243358D01*
X166830902Y-82245106D01*
X166825882Y-82246593D01*
X166820791Y-82247815D01*
X166815643Y-82248769D01*
X166810453Y-82249452D01*
X166805234Y-82249863D01*
X166800000Y-82250000D01*
X166450000Y-82250000D01*
X166444766Y-82249863D01*
X166439547Y-82249452D01*
X166434357Y-82248769D01*
X166429209Y-82247815D01*
X166424118Y-82246593D01*
X166419098Y-82245106D01*
X166414163Y-82243358D01*
X166409326Y-82241355D01*
X166404601Y-82239101D01*
X166400000Y-82236603D01*
X166395536Y-82233867D01*
X166391221Y-82230902D01*
X166387068Y-82227715D01*
X166383087Y-82224314D01*
X166379289Y-82220711D01*
X166375686Y-82216913D01*
X166372285Y-82212932D01*
X166369098Y-82208779D01*
X166366133Y-82204464D01*
X166363397Y-82200000D01*
X166360899Y-82195399D01*
X166358645Y-82190674D01*
X166356642Y-82185837D01*
X166354894Y-82180902D01*
X166353407Y-82175882D01*
X166352185Y-82170791D01*
X166351231Y-82165643D01*
X166350548Y-82160453D01*
X166350137Y-82155234D01*
X166350000Y-82150000D01*
G36*
X166350000Y-83450000D02*
G01*
X166350000Y-83250000D01*
X166350137Y-83244766D01*
X166350548Y-83239547D01*
X166351231Y-83234357D01*
X166352185Y-83229209D01*
X166353407Y-83224118D01*
X166354894Y-83219098D01*
X166356642Y-83214163D01*
X166358645Y-83209326D01*
X166360899Y-83204601D01*
X166363397Y-83200000D01*
X166366133Y-83195536D01*
X166369098Y-83191221D01*
X166372285Y-83187068D01*
X166375686Y-83183087D01*
X166379289Y-83179289D01*
X166383087Y-83175686D01*
X166387068Y-83172285D01*
X166391221Y-83169098D01*
X166395536Y-83166133D01*
X166400000Y-83163397D01*
X166404601Y-83160899D01*
X166409326Y-83158645D01*
X166414163Y-83156642D01*
X166419098Y-83154894D01*
X166424118Y-83153407D01*
X166429209Y-83152185D01*
X166434357Y-83151231D01*
X166439547Y-83150548D01*
X166444766Y-83150137D01*
X166450000Y-83150000D01*
X166800000Y-83150000D01*
X166805234Y-83150137D01*
X166810453Y-83150548D01*
X166815643Y-83151231D01*
X166820791Y-83152185D01*
X166825882Y-83153407D01*
X166830902Y-83154894D01*
X166835837Y-83156642D01*
X166840674Y-83158645D01*
X166845399Y-83160899D01*
X166850000Y-83163397D01*
X166854464Y-83166133D01*
X166858779Y-83169098D01*
X166862932Y-83172285D01*
X166866913Y-83175686D01*
X166870711Y-83179289D01*
X166874314Y-83183087D01*
X166877715Y-83187068D01*
X166880902Y-83191221D01*
X166883867Y-83195536D01*
X166886603Y-83200000D01*
X166889101Y-83204601D01*
X166891355Y-83209326D01*
X166893358Y-83214163D01*
X166895106Y-83219098D01*
X166896593Y-83224118D01*
X166897815Y-83229209D01*
X166898769Y-83234357D01*
X166899452Y-83239547D01*
X166899863Y-83244766D01*
X166900000Y-83250000D01*
X166900000Y-83450000D01*
X166899863Y-83455234D01*
X166899452Y-83460453D01*
X166898769Y-83465643D01*
X166897815Y-83470791D01*
X166896593Y-83475882D01*
X166895106Y-83480902D01*
X166893358Y-83485837D01*
X166891355Y-83490674D01*
X166889101Y-83495399D01*
X166886603Y-83500000D01*
X166883867Y-83504464D01*
X166880902Y-83508779D01*
X166877715Y-83512932D01*
X166874314Y-83516913D01*
X166870711Y-83520711D01*
X166866913Y-83524314D01*
X166862932Y-83527715D01*
X166858779Y-83530902D01*
X166854464Y-83533867D01*
X166850000Y-83536603D01*
X166845399Y-83539101D01*
X166840674Y-83541355D01*
X166835837Y-83543358D01*
X166830902Y-83545106D01*
X166825882Y-83546593D01*
X166820791Y-83547815D01*
X166815643Y-83548769D01*
X166810453Y-83549452D01*
X166805234Y-83549863D01*
X166800000Y-83550000D01*
X166450000Y-83550000D01*
X166444766Y-83549863D01*
X166439547Y-83549452D01*
X166434357Y-83548769D01*
X166429209Y-83547815D01*
X166424118Y-83546593D01*
X166419098Y-83545106D01*
X166414163Y-83543358D01*
X166409326Y-83541355D01*
X166404601Y-83539101D01*
X166400000Y-83536603D01*
X166395536Y-83533867D01*
X166391221Y-83530902D01*
X166387068Y-83527715D01*
X166383087Y-83524314D01*
X166379289Y-83520711D01*
X166375686Y-83516913D01*
X166372285Y-83512932D01*
X166369098Y-83508779D01*
X166366133Y-83504464D01*
X166363397Y-83500000D01*
X166360899Y-83495399D01*
X166358645Y-83490674D01*
X166356642Y-83485837D01*
X166354894Y-83480902D01*
X166353407Y-83475882D01*
X166352185Y-83470791D01*
X166351231Y-83465643D01*
X166350548Y-83460453D01*
X166350137Y-83455234D01*
X166350000Y-83450000D01*
G37*
X166350000Y-83450000D02*
X166350000Y-83250000D01*
X166350137Y-83244766D01*
X166350548Y-83239547D01*
X166351231Y-83234357D01*
X166352185Y-83229209D01*
X166353407Y-83224118D01*
X166354894Y-83219098D01*
X166356642Y-83214163D01*
X166358645Y-83209326D01*
X166360899Y-83204601D01*
X166363397Y-83200000D01*
X166366133Y-83195536D01*
X166369098Y-83191221D01*
X166372285Y-83187068D01*
X166375686Y-83183087D01*
X166379289Y-83179289D01*
X166383087Y-83175686D01*
X166387068Y-83172285D01*
X166391221Y-83169098D01*
X166395536Y-83166133D01*
X166400000Y-83163397D01*
X166404601Y-83160899D01*
X166409326Y-83158645D01*
X166414163Y-83156642D01*
X166419098Y-83154894D01*
X166424118Y-83153407D01*
X166429209Y-83152185D01*
X166434357Y-83151231D01*
X166439547Y-83150548D01*
X166444766Y-83150137D01*
X166450000Y-83150000D01*
X166800000Y-83150000D01*
X166805234Y-83150137D01*
X166810453Y-83150548D01*
X166815643Y-83151231D01*
X166820791Y-83152185D01*
X166825882Y-83153407D01*
X166830902Y-83154894D01*
X166835837Y-83156642D01*
X166840674Y-83158645D01*
X166845399Y-83160899D01*
X166850000Y-83163397D01*
X166854464Y-83166133D01*
X166858779Y-83169098D01*
X166862932Y-83172285D01*
X166866913Y-83175686D01*
X166870711Y-83179289D01*
X166874314Y-83183087D01*
X166877715Y-83187068D01*
X166880902Y-83191221D01*
X166883867Y-83195536D01*
X166886603Y-83200000D01*
X166889101Y-83204601D01*
X166891355Y-83209326D01*
X166893358Y-83214163D01*
X166895106Y-83219098D01*
X166896593Y-83224118D01*
X166897815Y-83229209D01*
X166898769Y-83234357D01*
X166899452Y-83239547D01*
X166899863Y-83244766D01*
X166900000Y-83250000D01*
X166900000Y-83450000D01*
X166899863Y-83455234D01*
X166899452Y-83460453D01*
X166898769Y-83465643D01*
X166897815Y-83470791D01*
X166896593Y-83475882D01*
X166895106Y-83480902D01*
X166893358Y-83485837D01*
X166891355Y-83490674D01*
X166889101Y-83495399D01*
X166886603Y-83500000D01*
X166883867Y-83504464D01*
X166880902Y-83508779D01*
X166877715Y-83512932D01*
X166874314Y-83516913D01*
X166870711Y-83520711D01*
X166866913Y-83524314D01*
X166862932Y-83527715D01*
X166858779Y-83530902D01*
X166854464Y-83533867D01*
X166850000Y-83536603D01*
X166845399Y-83539101D01*
X166840674Y-83541355D01*
X166835837Y-83543358D01*
X166830902Y-83545106D01*
X166825882Y-83546593D01*
X166820791Y-83547815D01*
X166815643Y-83548769D01*
X166810453Y-83549452D01*
X166805234Y-83549863D01*
X166800000Y-83550000D01*
X166450000Y-83550000D01*
X166444766Y-83549863D01*
X166439547Y-83549452D01*
X166434357Y-83548769D01*
X166429209Y-83547815D01*
X166424118Y-83546593D01*
X166419098Y-83545106D01*
X166414163Y-83543358D01*
X166409326Y-83541355D01*
X166404601Y-83539101D01*
X166400000Y-83536603D01*
X166395536Y-83533867D01*
X166391221Y-83530902D01*
X166387068Y-83527715D01*
X166383087Y-83524314D01*
X166379289Y-83520711D01*
X166375686Y-83516913D01*
X166372285Y-83512932D01*
X166369098Y-83508779D01*
X166366133Y-83504464D01*
X166363397Y-83500000D01*
X166360899Y-83495399D01*
X166358645Y-83490674D01*
X166356642Y-83485837D01*
X166354894Y-83480902D01*
X166353407Y-83475882D01*
X166352185Y-83470791D01*
X166351231Y-83465643D01*
X166350548Y-83460453D01*
X166350137Y-83455234D01*
X166350000Y-83450000D01*
G36*
X168300000Y-82150000D02*
G01*
X168300000Y-81950000D01*
X168300137Y-81944766D01*
X168300548Y-81939547D01*
X168301231Y-81934357D01*
X168302185Y-81929209D01*
X168303407Y-81924118D01*
X168304894Y-81919098D01*
X168306642Y-81914163D01*
X168308645Y-81909326D01*
X168310899Y-81904601D01*
X168313397Y-81900000D01*
X168316133Y-81895536D01*
X168319098Y-81891221D01*
X168322285Y-81887068D01*
X168325686Y-81883087D01*
X168329289Y-81879289D01*
X168333087Y-81875686D01*
X168337068Y-81872285D01*
X168341221Y-81869098D01*
X168345536Y-81866133D01*
X168350000Y-81863397D01*
X168354601Y-81860899D01*
X168359326Y-81858645D01*
X168364163Y-81856642D01*
X168369098Y-81854894D01*
X168374118Y-81853407D01*
X168379209Y-81852185D01*
X168384357Y-81851231D01*
X168389547Y-81850548D01*
X168394766Y-81850137D01*
X168400000Y-81850000D01*
X168750000Y-81850000D01*
X168755234Y-81850137D01*
X168760453Y-81850548D01*
X168765643Y-81851231D01*
X168770791Y-81852185D01*
X168775882Y-81853407D01*
X168780902Y-81854894D01*
X168785837Y-81856642D01*
X168790674Y-81858645D01*
X168795399Y-81860899D01*
X168800000Y-81863397D01*
X168804464Y-81866133D01*
X168808779Y-81869098D01*
X168812932Y-81872285D01*
X168816913Y-81875686D01*
X168820711Y-81879289D01*
X168824314Y-81883087D01*
X168827715Y-81887068D01*
X168830902Y-81891221D01*
X168833867Y-81895536D01*
X168836603Y-81900000D01*
X168839101Y-81904601D01*
X168841355Y-81909326D01*
X168843358Y-81914163D01*
X168845106Y-81919098D01*
X168846593Y-81924118D01*
X168847815Y-81929209D01*
X168848769Y-81934357D01*
X168849452Y-81939547D01*
X168849863Y-81944766D01*
X168850000Y-81950000D01*
X168850000Y-82150000D01*
X168849863Y-82155234D01*
X168849452Y-82160453D01*
X168848769Y-82165643D01*
X168847815Y-82170791D01*
X168846593Y-82175882D01*
X168845106Y-82180902D01*
X168843358Y-82185837D01*
X168841355Y-82190674D01*
X168839101Y-82195399D01*
X168836603Y-82200000D01*
X168833867Y-82204464D01*
X168830902Y-82208779D01*
X168827715Y-82212932D01*
X168824314Y-82216913D01*
X168820711Y-82220711D01*
X168816913Y-82224314D01*
X168812932Y-82227715D01*
X168808779Y-82230902D01*
X168804464Y-82233867D01*
X168800000Y-82236603D01*
X168795399Y-82239101D01*
X168790674Y-82241355D01*
X168785837Y-82243358D01*
X168780902Y-82245106D01*
X168775882Y-82246593D01*
X168770791Y-82247815D01*
X168765643Y-82248769D01*
X168760453Y-82249452D01*
X168755234Y-82249863D01*
X168750000Y-82250000D01*
X168400000Y-82250000D01*
X168394766Y-82249863D01*
X168389547Y-82249452D01*
X168384357Y-82248769D01*
X168379209Y-82247815D01*
X168374118Y-82246593D01*
X168369098Y-82245106D01*
X168364163Y-82243358D01*
X168359326Y-82241355D01*
X168354601Y-82239101D01*
X168350000Y-82236603D01*
X168345536Y-82233867D01*
X168341221Y-82230902D01*
X168337068Y-82227715D01*
X168333087Y-82224314D01*
X168329289Y-82220711D01*
X168325686Y-82216913D01*
X168322285Y-82212932D01*
X168319098Y-82208779D01*
X168316133Y-82204464D01*
X168313397Y-82200000D01*
X168310899Y-82195399D01*
X168308645Y-82190674D01*
X168306642Y-82185837D01*
X168304894Y-82180902D01*
X168303407Y-82175882D01*
X168302185Y-82170791D01*
X168301231Y-82165643D01*
X168300548Y-82160453D01*
X168300137Y-82155234D01*
X168300000Y-82150000D01*
G37*
X168300000Y-82150000D02*
X168300000Y-81950000D01*
X168300137Y-81944766D01*
X168300548Y-81939547D01*
X168301231Y-81934357D01*
X168302185Y-81929209D01*
X168303407Y-81924118D01*
X168304894Y-81919098D01*
X168306642Y-81914163D01*
X168308645Y-81909326D01*
X168310899Y-81904601D01*
X168313397Y-81900000D01*
X168316133Y-81895536D01*
X168319098Y-81891221D01*
X168322285Y-81887068D01*
X168325686Y-81883087D01*
X168329289Y-81879289D01*
X168333087Y-81875686D01*
X168337068Y-81872285D01*
X168341221Y-81869098D01*
X168345536Y-81866133D01*
X168350000Y-81863397D01*
X168354601Y-81860899D01*
X168359326Y-81858645D01*
X168364163Y-81856642D01*
X168369098Y-81854894D01*
X168374118Y-81853407D01*
X168379209Y-81852185D01*
X168384357Y-81851231D01*
X168389547Y-81850548D01*
X168394766Y-81850137D01*
X168400000Y-81850000D01*
X168750000Y-81850000D01*
X168755234Y-81850137D01*
X168760453Y-81850548D01*
X168765643Y-81851231D01*
X168770791Y-81852185D01*
X168775882Y-81853407D01*
X168780902Y-81854894D01*
X168785837Y-81856642D01*
X168790674Y-81858645D01*
X168795399Y-81860899D01*
X168800000Y-81863397D01*
X168804464Y-81866133D01*
X168808779Y-81869098D01*
X168812932Y-81872285D01*
X168816913Y-81875686D01*
X168820711Y-81879289D01*
X168824314Y-81883087D01*
X168827715Y-81887068D01*
X168830902Y-81891221D01*
X168833867Y-81895536D01*
X168836603Y-81900000D01*
X168839101Y-81904601D01*
X168841355Y-81909326D01*
X168843358Y-81914163D01*
X168845106Y-81919098D01*
X168846593Y-81924118D01*
X168847815Y-81929209D01*
X168848769Y-81934357D01*
X168849452Y-81939547D01*
X168849863Y-81944766D01*
X168850000Y-81950000D01*
X168850000Y-82150000D01*
X168849863Y-82155234D01*
X168849452Y-82160453D01*
X168848769Y-82165643D01*
X168847815Y-82170791D01*
X168846593Y-82175882D01*
X168845106Y-82180902D01*
X168843358Y-82185837D01*
X168841355Y-82190674D01*
X168839101Y-82195399D01*
X168836603Y-82200000D01*
X168833867Y-82204464D01*
X168830902Y-82208779D01*
X168827715Y-82212932D01*
X168824314Y-82216913D01*
X168820711Y-82220711D01*
X168816913Y-82224314D01*
X168812932Y-82227715D01*
X168808779Y-82230902D01*
X168804464Y-82233867D01*
X168800000Y-82236603D01*
X168795399Y-82239101D01*
X168790674Y-82241355D01*
X168785837Y-82243358D01*
X168780902Y-82245106D01*
X168775882Y-82246593D01*
X168770791Y-82247815D01*
X168765643Y-82248769D01*
X168760453Y-82249452D01*
X168755234Y-82249863D01*
X168750000Y-82250000D01*
X168400000Y-82250000D01*
X168394766Y-82249863D01*
X168389547Y-82249452D01*
X168384357Y-82248769D01*
X168379209Y-82247815D01*
X168374118Y-82246593D01*
X168369098Y-82245106D01*
X168364163Y-82243358D01*
X168359326Y-82241355D01*
X168354601Y-82239101D01*
X168350000Y-82236603D01*
X168345536Y-82233867D01*
X168341221Y-82230902D01*
X168337068Y-82227715D01*
X168333087Y-82224314D01*
X168329289Y-82220711D01*
X168325686Y-82216913D01*
X168322285Y-82212932D01*
X168319098Y-82208779D01*
X168316133Y-82204464D01*
X168313397Y-82200000D01*
X168310899Y-82195399D01*
X168308645Y-82190674D01*
X168306642Y-82185837D01*
X168304894Y-82180902D01*
X168303407Y-82175882D01*
X168302185Y-82170791D01*
X168301231Y-82165643D01*
X168300548Y-82160453D01*
X168300137Y-82155234D01*
X168300000Y-82150000D01*
G36*
X168300000Y-83450000D02*
G01*
X168300000Y-83250000D01*
X168300137Y-83244766D01*
X168300548Y-83239547D01*
X168301231Y-83234357D01*
X168302185Y-83229209D01*
X168303407Y-83224118D01*
X168304894Y-83219098D01*
X168306642Y-83214163D01*
X168308645Y-83209326D01*
X168310899Y-83204601D01*
X168313397Y-83200000D01*
X168316133Y-83195536D01*
X168319098Y-83191221D01*
X168322285Y-83187068D01*
X168325686Y-83183087D01*
X168329289Y-83179289D01*
X168333087Y-83175686D01*
X168337068Y-83172285D01*
X168341221Y-83169098D01*
X168345536Y-83166133D01*
X168350000Y-83163397D01*
X168354601Y-83160899D01*
X168359326Y-83158645D01*
X168364163Y-83156642D01*
X168369098Y-83154894D01*
X168374118Y-83153407D01*
X168379209Y-83152185D01*
X168384357Y-83151231D01*
X168389547Y-83150548D01*
X168394766Y-83150137D01*
X168400000Y-83150000D01*
X168750000Y-83150000D01*
X168755234Y-83150137D01*
X168760453Y-83150548D01*
X168765643Y-83151231D01*
X168770791Y-83152185D01*
X168775882Y-83153407D01*
X168780902Y-83154894D01*
X168785837Y-83156642D01*
X168790674Y-83158645D01*
X168795399Y-83160899D01*
X168800000Y-83163397D01*
X168804464Y-83166133D01*
X168808779Y-83169098D01*
X168812932Y-83172285D01*
X168816913Y-83175686D01*
X168820711Y-83179289D01*
X168824314Y-83183087D01*
X168827715Y-83187068D01*
X168830902Y-83191221D01*
X168833867Y-83195536D01*
X168836603Y-83200000D01*
X168839101Y-83204601D01*
X168841355Y-83209326D01*
X168843358Y-83214163D01*
X168845106Y-83219098D01*
X168846593Y-83224118D01*
X168847815Y-83229209D01*
X168848769Y-83234357D01*
X168849452Y-83239547D01*
X168849863Y-83244766D01*
X168850000Y-83250000D01*
X168850000Y-83450000D01*
X168849863Y-83455234D01*
X168849452Y-83460453D01*
X168848769Y-83465643D01*
X168847815Y-83470791D01*
X168846593Y-83475882D01*
X168845106Y-83480902D01*
X168843358Y-83485837D01*
X168841355Y-83490674D01*
X168839101Y-83495399D01*
X168836603Y-83500000D01*
X168833867Y-83504464D01*
X168830902Y-83508779D01*
X168827715Y-83512932D01*
X168824314Y-83516913D01*
X168820711Y-83520711D01*
X168816913Y-83524314D01*
X168812932Y-83527715D01*
X168808779Y-83530902D01*
X168804464Y-83533867D01*
X168800000Y-83536603D01*
X168795399Y-83539101D01*
X168790674Y-83541355D01*
X168785837Y-83543358D01*
X168780902Y-83545106D01*
X168775882Y-83546593D01*
X168770791Y-83547815D01*
X168765643Y-83548769D01*
X168760453Y-83549452D01*
X168755234Y-83549863D01*
X168750000Y-83550000D01*
X168400000Y-83550000D01*
X168394766Y-83549863D01*
X168389547Y-83549452D01*
X168384357Y-83548769D01*
X168379209Y-83547815D01*
X168374118Y-83546593D01*
X168369098Y-83545106D01*
X168364163Y-83543358D01*
X168359326Y-83541355D01*
X168354601Y-83539101D01*
X168350000Y-83536603D01*
X168345536Y-83533867D01*
X168341221Y-83530902D01*
X168337068Y-83527715D01*
X168333087Y-83524314D01*
X168329289Y-83520711D01*
X168325686Y-83516913D01*
X168322285Y-83512932D01*
X168319098Y-83508779D01*
X168316133Y-83504464D01*
X168313397Y-83500000D01*
X168310899Y-83495399D01*
X168308645Y-83490674D01*
X168306642Y-83485837D01*
X168304894Y-83480902D01*
X168303407Y-83475882D01*
X168302185Y-83470791D01*
X168301231Y-83465643D01*
X168300548Y-83460453D01*
X168300137Y-83455234D01*
X168300000Y-83450000D01*
G37*
X168300000Y-83450000D02*
X168300000Y-83250000D01*
X168300137Y-83244766D01*
X168300548Y-83239547D01*
X168301231Y-83234357D01*
X168302185Y-83229209D01*
X168303407Y-83224118D01*
X168304894Y-83219098D01*
X168306642Y-83214163D01*
X168308645Y-83209326D01*
X168310899Y-83204601D01*
X168313397Y-83200000D01*
X168316133Y-83195536D01*
X168319098Y-83191221D01*
X168322285Y-83187068D01*
X168325686Y-83183087D01*
X168329289Y-83179289D01*
X168333087Y-83175686D01*
X168337068Y-83172285D01*
X168341221Y-83169098D01*
X168345536Y-83166133D01*
X168350000Y-83163397D01*
X168354601Y-83160899D01*
X168359326Y-83158645D01*
X168364163Y-83156642D01*
X168369098Y-83154894D01*
X168374118Y-83153407D01*
X168379209Y-83152185D01*
X168384357Y-83151231D01*
X168389547Y-83150548D01*
X168394766Y-83150137D01*
X168400000Y-83150000D01*
X168750000Y-83150000D01*
X168755234Y-83150137D01*
X168760453Y-83150548D01*
X168765643Y-83151231D01*
X168770791Y-83152185D01*
X168775882Y-83153407D01*
X168780902Y-83154894D01*
X168785837Y-83156642D01*
X168790674Y-83158645D01*
X168795399Y-83160899D01*
X168800000Y-83163397D01*
X168804464Y-83166133D01*
X168808779Y-83169098D01*
X168812932Y-83172285D01*
X168816913Y-83175686D01*
X168820711Y-83179289D01*
X168824314Y-83183087D01*
X168827715Y-83187068D01*
X168830902Y-83191221D01*
X168833867Y-83195536D01*
X168836603Y-83200000D01*
X168839101Y-83204601D01*
X168841355Y-83209326D01*
X168843358Y-83214163D01*
X168845106Y-83219098D01*
X168846593Y-83224118D01*
X168847815Y-83229209D01*
X168848769Y-83234357D01*
X168849452Y-83239547D01*
X168849863Y-83244766D01*
X168850000Y-83250000D01*
X168850000Y-83450000D01*
X168849863Y-83455234D01*
X168849452Y-83460453D01*
X168848769Y-83465643D01*
X168847815Y-83470791D01*
X168846593Y-83475882D01*
X168845106Y-83480902D01*
X168843358Y-83485837D01*
X168841355Y-83490674D01*
X168839101Y-83495399D01*
X168836603Y-83500000D01*
X168833867Y-83504464D01*
X168830902Y-83508779D01*
X168827715Y-83512932D01*
X168824314Y-83516913D01*
X168820711Y-83520711D01*
X168816913Y-83524314D01*
X168812932Y-83527715D01*
X168808779Y-83530902D01*
X168804464Y-83533867D01*
X168800000Y-83536603D01*
X168795399Y-83539101D01*
X168790674Y-83541355D01*
X168785837Y-83543358D01*
X168780902Y-83545106D01*
X168775882Y-83546593D01*
X168770791Y-83547815D01*
X168765643Y-83548769D01*
X168760453Y-83549452D01*
X168755234Y-83549863D01*
X168750000Y-83550000D01*
X168400000Y-83550000D01*
X168394766Y-83549863D01*
X168389547Y-83549452D01*
X168384357Y-83548769D01*
X168379209Y-83547815D01*
X168374118Y-83546593D01*
X168369098Y-83545106D01*
X168364163Y-83543358D01*
X168359326Y-83541355D01*
X168354601Y-83539101D01*
X168350000Y-83536603D01*
X168345536Y-83533867D01*
X168341221Y-83530902D01*
X168337068Y-83527715D01*
X168333087Y-83524314D01*
X168329289Y-83520711D01*
X168325686Y-83516913D01*
X168322285Y-83512932D01*
X168319098Y-83508779D01*
X168316133Y-83504464D01*
X168313397Y-83500000D01*
X168310899Y-83495399D01*
X168308645Y-83490674D01*
X168306642Y-83485837D01*
X168304894Y-83480902D01*
X168303407Y-83475882D01*
X168302185Y-83470791D01*
X168301231Y-83465643D01*
X168300548Y-83460453D01*
X168300137Y-83455234D01*
X168300000Y-83450000D01*
G36*
X168300000Y-82800000D02*
G01*
X168300000Y-82600000D01*
X168300137Y-82594766D01*
X168300548Y-82589547D01*
X168301231Y-82584357D01*
X168302185Y-82579209D01*
X168303407Y-82574118D01*
X168304894Y-82569098D01*
X168306642Y-82564163D01*
X168308645Y-82559326D01*
X168310899Y-82554601D01*
X168313397Y-82550000D01*
X168316133Y-82545536D01*
X168319098Y-82541221D01*
X168322285Y-82537068D01*
X168325686Y-82533087D01*
X168329289Y-82529289D01*
X168333087Y-82525686D01*
X168337068Y-82522285D01*
X168341221Y-82519098D01*
X168345536Y-82516133D01*
X168350000Y-82513397D01*
X168354601Y-82510899D01*
X168359326Y-82508645D01*
X168364163Y-82506642D01*
X168369098Y-82504894D01*
X168374118Y-82503407D01*
X168379209Y-82502185D01*
X168384357Y-82501231D01*
X168389547Y-82500548D01*
X168394766Y-82500137D01*
X168400000Y-82500000D01*
X168750000Y-82500000D01*
X168755234Y-82500137D01*
X168760453Y-82500548D01*
X168765643Y-82501231D01*
X168770791Y-82502185D01*
X168775882Y-82503407D01*
X168780902Y-82504894D01*
X168785837Y-82506642D01*
X168790674Y-82508645D01*
X168795399Y-82510899D01*
X168800000Y-82513397D01*
X168804464Y-82516133D01*
X168808779Y-82519098D01*
X168812932Y-82522285D01*
X168816913Y-82525686D01*
X168820711Y-82529289D01*
X168824314Y-82533087D01*
X168827715Y-82537068D01*
X168830902Y-82541221D01*
X168833867Y-82545536D01*
X168836603Y-82550000D01*
X168839101Y-82554601D01*
X168841355Y-82559326D01*
X168843358Y-82564163D01*
X168845106Y-82569098D01*
X168846593Y-82574118D01*
X168847815Y-82579209D01*
X168848769Y-82584357D01*
X168849452Y-82589547D01*
X168849863Y-82594766D01*
X168850000Y-82600000D01*
X168850000Y-82800000D01*
X168849863Y-82805234D01*
X168849452Y-82810453D01*
X168848769Y-82815643D01*
X168847815Y-82820791D01*
X168846593Y-82825882D01*
X168845106Y-82830902D01*
X168843358Y-82835837D01*
X168841355Y-82840674D01*
X168839101Y-82845399D01*
X168836603Y-82850000D01*
X168833867Y-82854464D01*
X168830902Y-82858779D01*
X168827715Y-82862932D01*
X168824314Y-82866913D01*
X168820711Y-82870711D01*
X168816913Y-82874314D01*
X168812932Y-82877715D01*
X168808779Y-82880902D01*
X168804464Y-82883867D01*
X168800000Y-82886603D01*
X168795399Y-82889101D01*
X168790674Y-82891355D01*
X168785837Y-82893358D01*
X168780902Y-82895106D01*
X168775882Y-82896593D01*
X168770791Y-82897815D01*
X168765643Y-82898769D01*
X168760453Y-82899452D01*
X168755234Y-82899863D01*
X168750000Y-82900000D01*
X168400000Y-82900000D01*
X168394766Y-82899863D01*
X168389547Y-82899452D01*
X168384357Y-82898769D01*
X168379209Y-82897815D01*
X168374118Y-82896593D01*
X168369098Y-82895106D01*
X168364163Y-82893358D01*
X168359326Y-82891355D01*
X168354601Y-82889101D01*
X168350000Y-82886603D01*
X168345536Y-82883867D01*
X168341221Y-82880902D01*
X168337068Y-82877715D01*
X168333087Y-82874314D01*
X168329289Y-82870711D01*
X168325686Y-82866913D01*
X168322285Y-82862932D01*
X168319098Y-82858779D01*
X168316133Y-82854464D01*
X168313397Y-82850000D01*
X168310899Y-82845399D01*
X168308645Y-82840674D01*
X168306642Y-82835837D01*
X168304894Y-82830902D01*
X168303407Y-82825882D01*
X168302185Y-82820791D01*
X168301231Y-82815643D01*
X168300548Y-82810453D01*
X168300137Y-82805234D01*
X168300000Y-82800000D01*
G37*
X168300000Y-82800000D02*
X168300000Y-82600000D01*
X168300137Y-82594766D01*
X168300548Y-82589547D01*
X168301231Y-82584357D01*
X168302185Y-82579209D01*
X168303407Y-82574118D01*
X168304894Y-82569098D01*
X168306642Y-82564163D01*
X168308645Y-82559326D01*
X168310899Y-82554601D01*
X168313397Y-82550000D01*
X168316133Y-82545536D01*
X168319098Y-82541221D01*
X168322285Y-82537068D01*
X168325686Y-82533087D01*
X168329289Y-82529289D01*
X168333087Y-82525686D01*
X168337068Y-82522285D01*
X168341221Y-82519098D01*
X168345536Y-82516133D01*
X168350000Y-82513397D01*
X168354601Y-82510899D01*
X168359326Y-82508645D01*
X168364163Y-82506642D01*
X168369098Y-82504894D01*
X168374118Y-82503407D01*
X168379209Y-82502185D01*
X168384357Y-82501231D01*
X168389547Y-82500548D01*
X168394766Y-82500137D01*
X168400000Y-82500000D01*
X168750000Y-82500000D01*
X168755234Y-82500137D01*
X168760453Y-82500548D01*
X168765643Y-82501231D01*
X168770791Y-82502185D01*
X168775882Y-82503407D01*
X168780902Y-82504894D01*
X168785837Y-82506642D01*
X168790674Y-82508645D01*
X168795399Y-82510899D01*
X168800000Y-82513397D01*
X168804464Y-82516133D01*
X168808779Y-82519098D01*
X168812932Y-82522285D01*
X168816913Y-82525686D01*
X168820711Y-82529289D01*
X168824314Y-82533087D01*
X168827715Y-82537068D01*
X168830902Y-82541221D01*
X168833867Y-82545536D01*
X168836603Y-82550000D01*
X168839101Y-82554601D01*
X168841355Y-82559326D01*
X168843358Y-82564163D01*
X168845106Y-82569098D01*
X168846593Y-82574118D01*
X168847815Y-82579209D01*
X168848769Y-82584357D01*
X168849452Y-82589547D01*
X168849863Y-82594766D01*
X168850000Y-82600000D01*
X168850000Y-82800000D01*
X168849863Y-82805234D01*
X168849452Y-82810453D01*
X168848769Y-82815643D01*
X168847815Y-82820791D01*
X168846593Y-82825882D01*
X168845106Y-82830902D01*
X168843358Y-82835837D01*
X168841355Y-82840674D01*
X168839101Y-82845399D01*
X168836603Y-82850000D01*
X168833867Y-82854464D01*
X168830902Y-82858779D01*
X168827715Y-82862932D01*
X168824314Y-82866913D01*
X168820711Y-82870711D01*
X168816913Y-82874314D01*
X168812932Y-82877715D01*
X168808779Y-82880902D01*
X168804464Y-82883867D01*
X168800000Y-82886603D01*
X168795399Y-82889101D01*
X168790674Y-82891355D01*
X168785837Y-82893358D01*
X168780902Y-82895106D01*
X168775882Y-82896593D01*
X168770791Y-82897815D01*
X168765643Y-82898769D01*
X168760453Y-82899452D01*
X168755234Y-82899863D01*
X168750000Y-82900000D01*
X168400000Y-82900000D01*
X168394766Y-82899863D01*
X168389547Y-82899452D01*
X168384357Y-82898769D01*
X168379209Y-82897815D01*
X168374118Y-82896593D01*
X168369098Y-82895106D01*
X168364163Y-82893358D01*
X168359326Y-82891355D01*
X168354601Y-82889101D01*
X168350000Y-82886603D01*
X168345536Y-82883867D01*
X168341221Y-82880902D01*
X168337068Y-82877715D01*
X168333087Y-82874314D01*
X168329289Y-82870711D01*
X168325686Y-82866913D01*
X168322285Y-82862932D01*
X168319098Y-82858779D01*
X168316133Y-82854464D01*
X168313397Y-82850000D01*
X168310899Y-82845399D01*
X168308645Y-82840674D01*
X168306642Y-82835837D01*
X168304894Y-82830902D01*
X168303407Y-82825882D01*
X168302185Y-82820791D01*
X168301231Y-82815643D01*
X168300548Y-82810453D01*
X168300137Y-82805234D01*
X168300000Y-82800000D01*
G36*
X166350000Y-82800000D02*
G01*
X166350000Y-82600000D01*
X166350137Y-82594766D01*
X166350548Y-82589547D01*
X166351231Y-82584357D01*
X166352185Y-82579209D01*
X166353407Y-82574118D01*
X166354894Y-82569098D01*
X166356642Y-82564163D01*
X166358645Y-82559326D01*
X166360899Y-82554601D01*
X166363397Y-82550000D01*
X166366133Y-82545536D01*
X166369098Y-82541221D01*
X166372285Y-82537068D01*
X166375686Y-82533087D01*
X166379289Y-82529289D01*
X166383087Y-82525686D01*
X166387068Y-82522285D01*
X166391221Y-82519098D01*
X166395536Y-82516133D01*
X166400000Y-82513397D01*
X166404601Y-82510899D01*
X166409326Y-82508645D01*
X166414163Y-82506642D01*
X166419098Y-82504894D01*
X166424118Y-82503407D01*
X166429209Y-82502185D01*
X166434357Y-82501231D01*
X166439547Y-82500548D01*
X166444766Y-82500137D01*
X166450000Y-82500000D01*
X166800000Y-82500000D01*
X166805234Y-82500137D01*
X166810453Y-82500548D01*
X166815643Y-82501231D01*
X166820791Y-82502185D01*
X166825882Y-82503407D01*
X166830902Y-82504894D01*
X166835837Y-82506642D01*
X166840674Y-82508645D01*
X166845399Y-82510899D01*
X166850000Y-82513397D01*
X166854464Y-82516133D01*
X166858779Y-82519098D01*
X166862932Y-82522285D01*
X166866913Y-82525686D01*
X166870711Y-82529289D01*
X166874314Y-82533087D01*
X166877715Y-82537068D01*
X166880902Y-82541221D01*
X166883867Y-82545536D01*
X166886603Y-82550000D01*
X166889101Y-82554601D01*
X166891355Y-82559326D01*
X166893358Y-82564163D01*
X166895106Y-82569098D01*
X166896593Y-82574118D01*
X166897815Y-82579209D01*
X166898769Y-82584357D01*
X166899452Y-82589547D01*
X166899863Y-82594766D01*
X166900000Y-82600000D01*
X166900000Y-82800000D01*
X166899863Y-82805234D01*
X166899452Y-82810453D01*
X166898769Y-82815643D01*
X166897815Y-82820791D01*
X166896593Y-82825882D01*
X166895106Y-82830902D01*
X166893358Y-82835837D01*
X166891355Y-82840674D01*
X166889101Y-82845399D01*
X166886603Y-82850000D01*
X166883867Y-82854464D01*
X166880902Y-82858779D01*
X166877715Y-82862932D01*
X166874314Y-82866913D01*
X166870711Y-82870711D01*
X166866913Y-82874314D01*
X166862932Y-82877715D01*
X166858779Y-82880902D01*
X166854464Y-82883867D01*
X166850000Y-82886603D01*
X166845399Y-82889101D01*
X166840674Y-82891355D01*
X166835837Y-82893358D01*
X166830902Y-82895106D01*
X166825882Y-82896593D01*
X166820791Y-82897815D01*
X166815643Y-82898769D01*
X166810453Y-82899452D01*
X166805234Y-82899863D01*
X166800000Y-82900000D01*
X166450000Y-82900000D01*
X166444766Y-82899863D01*
X166439547Y-82899452D01*
X166434357Y-82898769D01*
X166429209Y-82897815D01*
X166424118Y-82896593D01*
X166419098Y-82895106D01*
X166414163Y-82893358D01*
X166409326Y-82891355D01*
X166404601Y-82889101D01*
X166400000Y-82886603D01*
X166395536Y-82883867D01*
X166391221Y-82880902D01*
X166387068Y-82877715D01*
X166383087Y-82874314D01*
X166379289Y-82870711D01*
X166375686Y-82866913D01*
X166372285Y-82862932D01*
X166369098Y-82858779D01*
X166366133Y-82854464D01*
X166363397Y-82850000D01*
X166360899Y-82845399D01*
X166358645Y-82840674D01*
X166356642Y-82835837D01*
X166354894Y-82830902D01*
X166353407Y-82825882D01*
X166352185Y-82820791D01*
X166351231Y-82815643D01*
X166350548Y-82810453D01*
X166350137Y-82805234D01*
X166350000Y-82800000D01*
G37*
X166350000Y-82800000D02*
X166350000Y-82600000D01*
X166350137Y-82594766D01*
X166350548Y-82589547D01*
X166351231Y-82584357D01*
X166352185Y-82579209D01*
X166353407Y-82574118D01*
X166354894Y-82569098D01*
X166356642Y-82564163D01*
X166358645Y-82559326D01*
X166360899Y-82554601D01*
X166363397Y-82550000D01*
X166366133Y-82545536D01*
X166369098Y-82541221D01*
X166372285Y-82537068D01*
X166375686Y-82533087D01*
X166379289Y-82529289D01*
X166383087Y-82525686D01*
X166387068Y-82522285D01*
X166391221Y-82519098D01*
X166395536Y-82516133D01*
X166400000Y-82513397D01*
X166404601Y-82510899D01*
X166409326Y-82508645D01*
X166414163Y-82506642D01*
X166419098Y-82504894D01*
X166424118Y-82503407D01*
X166429209Y-82502185D01*
X166434357Y-82501231D01*
X166439547Y-82500548D01*
X166444766Y-82500137D01*
X166450000Y-82500000D01*
X166800000Y-82500000D01*
X166805234Y-82500137D01*
X166810453Y-82500548D01*
X166815643Y-82501231D01*
X166820791Y-82502185D01*
X166825882Y-82503407D01*
X166830902Y-82504894D01*
X166835837Y-82506642D01*
X166840674Y-82508645D01*
X166845399Y-82510899D01*
X166850000Y-82513397D01*
X166854464Y-82516133D01*
X166858779Y-82519098D01*
X166862932Y-82522285D01*
X166866913Y-82525686D01*
X166870711Y-82529289D01*
X166874314Y-82533087D01*
X166877715Y-82537068D01*
X166880902Y-82541221D01*
X166883867Y-82545536D01*
X166886603Y-82550000D01*
X166889101Y-82554601D01*
X166891355Y-82559326D01*
X166893358Y-82564163D01*
X166895106Y-82569098D01*
X166896593Y-82574118D01*
X166897815Y-82579209D01*
X166898769Y-82584357D01*
X166899452Y-82589547D01*
X166899863Y-82594766D01*
X166900000Y-82600000D01*
X166900000Y-82800000D01*
X166899863Y-82805234D01*
X166899452Y-82810453D01*
X166898769Y-82815643D01*
X166897815Y-82820791D01*
X166896593Y-82825882D01*
X166895106Y-82830902D01*
X166893358Y-82835837D01*
X166891355Y-82840674D01*
X166889101Y-82845399D01*
X166886603Y-82850000D01*
X166883867Y-82854464D01*
X166880902Y-82858779D01*
X166877715Y-82862932D01*
X166874314Y-82866913D01*
X166870711Y-82870711D01*
X166866913Y-82874314D01*
X166862932Y-82877715D01*
X166858779Y-82880902D01*
X166854464Y-82883867D01*
X166850000Y-82886603D01*
X166845399Y-82889101D01*
X166840674Y-82891355D01*
X166835837Y-82893358D01*
X166830902Y-82895106D01*
X166825882Y-82896593D01*
X166820791Y-82897815D01*
X166815643Y-82898769D01*
X166810453Y-82899452D01*
X166805234Y-82899863D01*
X166800000Y-82900000D01*
X166450000Y-82900000D01*
X166444766Y-82899863D01*
X166439547Y-82899452D01*
X166434357Y-82898769D01*
X166429209Y-82897815D01*
X166424118Y-82896593D01*
X166419098Y-82895106D01*
X166414163Y-82893358D01*
X166409326Y-82891355D01*
X166404601Y-82889101D01*
X166400000Y-82886603D01*
X166395536Y-82883867D01*
X166391221Y-82880902D01*
X166387068Y-82877715D01*
X166383087Y-82874314D01*
X166379289Y-82870711D01*
X166375686Y-82866913D01*
X166372285Y-82862932D01*
X166369098Y-82858779D01*
X166366133Y-82854464D01*
X166363397Y-82850000D01*
X166360899Y-82845399D01*
X166358645Y-82840674D01*
X166356642Y-82835837D01*
X166354894Y-82830902D01*
X166353407Y-82825882D01*
X166352185Y-82820791D01*
X166351231Y-82815643D01*
X166350548Y-82810453D01*
X166350137Y-82805234D01*
X166350000Y-82800000D01*
D11*
X156800000Y-124450000D03*
X156800000Y-124450000D03*
X145500000Y-115500000D03*
X145500000Y-115500000D03*
D12*
X154000000Y-134000000D03*
D13*
X162150000Y-71050000D03*
X158550000Y-75250000D03*
X160350000Y-68950000D03*
X162150000Y-66850000D03*
X160350000Y-71050000D03*
X158550000Y-64750000D03*
X160350000Y-75250000D03*
X162150000Y-73150000D03*
X160350000Y-64750000D03*
X162150000Y-75250000D03*
X162150000Y-64750000D03*
X162150000Y-68950000D03*
X160350000Y-73150000D03*
X160350000Y-66850000D03*
X153350000Y-64750000D03*
X151550000Y-75250000D03*
X151550000Y-73150000D03*
X151550000Y-66850000D03*
X151550000Y-68950000D03*
X151550000Y-64750000D03*
X153350000Y-68950000D03*
X153350000Y-73150000D03*
X153350000Y-75250000D03*
X149750000Y-64750000D03*
X153350000Y-71050000D03*
X151550000Y-71050000D03*
X153350000Y-66850000D03*
X149750000Y-75250000D03*
X145250000Y-64750000D03*
X141650000Y-64750000D03*
X141650000Y-68950000D03*
X143450000Y-71050000D03*
X141650000Y-73150000D03*
X143450000Y-68950000D03*
X143450000Y-75250000D03*
X141650000Y-75250000D03*
X143450000Y-64750000D03*
X145250000Y-75250000D03*
X143450000Y-73150000D03*
X143450000Y-66850000D03*
X141650000Y-66850000D03*
X141650000Y-71050000D03*
X136450000Y-75250000D03*
X132850000Y-73150000D03*
X134650000Y-73150000D03*
X134650000Y-71050000D03*
X132850000Y-75250000D03*
X132850000Y-71050000D03*
X134650000Y-75250000D03*
X136450000Y-64750000D03*
X134650000Y-66850000D03*
X134650000Y-64750000D03*
X134650000Y-68950000D03*
X132850000Y-68950000D03*
X132850000Y-66850000D03*
X132850000Y-64750000D03*
D14*
X131000000Y-64500000D03*
X131000000Y-71100000D03*
X131000000Y-66700000D03*
X131000000Y-72200000D03*
X131000000Y-67800000D03*
X131000000Y-73300000D03*
X131000000Y-65600000D03*
X131000000Y-70000000D03*
X131000000Y-75500000D03*
X131000000Y-74400000D03*
X131000000Y-68900000D03*
X164000000Y-64500000D03*
X164000000Y-71100000D03*
X164000000Y-66700000D03*
X164000000Y-72200000D03*
X164000000Y-67800000D03*
X164000000Y-73300000D03*
X164000000Y-65600000D03*
X164000000Y-70000000D03*
X164000000Y-75500000D03*
X164000000Y-74400000D03*
X164000000Y-68900000D03*
D15*
X164200000Y-59850000D03*
D16*
X155200000Y-58900000D03*
X150800000Y-58900000D03*
X138700000Y-58900000D03*
X160700000Y-58900000D03*
X140900000Y-58900000D03*
X134300000Y-58900000D03*
X145300000Y-58900000D03*
X142000000Y-58900000D03*
X153000000Y-58900000D03*
X157400000Y-58900000D03*
X151900000Y-58900000D03*
D13*
X164050000Y-61450000D03*
D15*
X130800000Y-59850000D03*
D16*
X148600000Y-58900000D03*
X161800000Y-58900000D03*
X147500000Y-58900000D03*
X135400000Y-58900000D03*
X156300000Y-58900000D03*
D17*
X132550000Y-61450000D03*
D15*
X130800000Y-63050000D03*
D13*
X130950000Y-61450000D03*
D15*
X164200000Y-63050000D03*
D16*
X139800000Y-58900000D03*
D15*
X132100000Y-59050000D03*
D17*
X162450000Y-61450000D03*
D16*
X149700000Y-58900000D03*
X158500000Y-58900000D03*
X146400000Y-58900000D03*
X137600000Y-58900000D03*
X133200000Y-58900000D03*
X136500000Y-58900000D03*
X144200000Y-58900000D03*
X154100000Y-58900000D03*
X159600000Y-58900000D03*
D15*
X162900000Y-59050000D03*
D16*
X143100000Y-58900000D03*
D13*
X164050000Y-78550000D03*
D15*
X164200000Y-80150000D03*
X164200000Y-76950000D03*
D17*
X162450000Y-78550000D03*
D15*
X132100000Y-80950000D03*
D16*
X133200000Y-81100000D03*
X134300000Y-81100000D03*
X135400000Y-81100000D03*
X136500000Y-81100000D03*
X137600000Y-81100000D03*
X138700000Y-81100000D03*
X139800000Y-81100000D03*
X140900000Y-81100000D03*
X142000000Y-81100000D03*
X143100000Y-81100000D03*
X144200000Y-81100000D03*
X145300000Y-81100000D03*
X146400000Y-81100000D03*
X147500000Y-81100000D03*
X148600000Y-81100000D03*
X149700000Y-81100000D03*
X150800000Y-81100000D03*
X151900000Y-81100000D03*
X153000000Y-81100000D03*
X154100000Y-81100000D03*
X155200000Y-81100000D03*
X156300000Y-81100000D03*
X157400000Y-81100000D03*
X158500000Y-81100000D03*
X159600000Y-81100000D03*
X160700000Y-81100000D03*
X161800000Y-81100000D03*
D15*
X162900000Y-80950000D03*
X130800000Y-76950000D03*
D13*
X130950000Y-78550000D03*
D17*
X132550000Y-78550000D03*
D15*
X130800000Y-80150000D03*
D18*
X121775000Y-132400000D03*
X121775000Y-122000000D03*
D19*
X124375000Y-131400000D03*
X124375000Y-130800000D03*
X124375000Y-130200000D03*
X124375000Y-129600000D03*
X124375000Y-129000000D03*
X124375000Y-128400000D03*
X124375000Y-127800000D03*
X124375000Y-127200000D03*
X124375000Y-126600000D03*
X124375000Y-126000000D03*
X124375000Y-125400000D03*
X124375000Y-124800000D03*
X124375000Y-124200000D03*
X124375000Y-123600000D03*
X124375000Y-123000000D03*
D20*
X121500000Y-131700000D03*
X121500000Y-131100000D03*
X121500000Y-130500000D03*
X121500000Y-129900000D03*
X121500000Y-129300000D03*
X121500000Y-128700000D03*
X121500000Y-128100000D03*
X121500000Y-127500000D03*
X121500000Y-126900000D03*
X121500000Y-126300000D03*
X121500000Y-125700000D03*
X121500000Y-125100000D03*
X121500000Y-124500000D03*
X121500000Y-123900000D03*
X121500000Y-123300000D03*
X121500000Y-122700000D03*
G36*
G01*
X119210000Y-124377500D02*
X119210000Y-124822500D01*
G75*
G02*
X119012500Y-125020000I-197500J0D01*
G01*
X118617500Y-125020000D01*
G75*
G02*
X118420000Y-124822500I0J197500D01*
G01*
X118420000Y-124377500D01*
G75*
G02*
X118617500Y-124180000I197500J0D01*
G01*
X119012500Y-124180000D01*
G75*
G02*
X119210000Y-124377500I0J-197500D01*
G01*
G37*
G36*
G01*
X120180000Y-124377500D02*
X120180000Y-124822500D01*
G75*
G02*
X119982500Y-125020000I-197500J0D01*
G01*
X119587500Y-125020000D01*
G75*
G02*
X119390000Y-124822500I0J197500D01*
G01*
X119390000Y-124377500D01*
G75*
G02*
X119587500Y-124180000I197500J0D01*
G01*
X119982500Y-124180000D01*
G75*
G02*
X120180000Y-124377500I0J-197500D01*
G01*
G37*
G36*
G01*
X119390000Y-123622500D02*
X119390000Y-123177500D01*
G75*
G02*
X119587500Y-122980000I197500J0D01*
G01*
X119982500Y-122980000D01*
G75*
G02*
X120180000Y-123177500I0J-197500D01*
G01*
X120180000Y-123622500D01*
G75*
G02*
X119982500Y-123820000I-197500J0D01*
G01*
X119587500Y-123820000D01*
G75*
G02*
X119390000Y-123622500I0J197500D01*
G01*
G37*
G36*
G01*
X118420000Y-123622500D02*
X118420000Y-123177500D01*
G75*
G02*
X118617500Y-122980000I197500J0D01*
G01*
X119012500Y-122980000D01*
G75*
G02*
X119210000Y-123177500I0J-197500D01*
G01*
X119210000Y-123622500D01*
G75*
G02*
X119012500Y-123820000I-197500J0D01*
G01*
X118617500Y-123820000D01*
G75*
G02*
X118420000Y-123622500I0J197500D01*
G01*
G37*
G36*
G01*
X123150000Y-134806250D02*
X123150000Y-133793750D01*
G75*
G02*
X123443750Y-133500000I293750J0D01*
G01*
X124031250Y-133500000D01*
G75*
G02*
X124325000Y-133793750I0J-293750D01*
G01*
X124325000Y-134806250D01*
G75*
G02*
X124031250Y-135100000I-293750J0D01*
G01*
X123443750Y-135100000D01*
G75*
G02*
X123150000Y-134806250I0J293750D01*
G01*
G37*
G36*
G01*
X121275000Y-134806250D02*
X121275000Y-133793750D01*
G75*
G02*
X121568750Y-133500000I293750J0D01*
G01*
X122156250Y-133500000D01*
G75*
G02*
X122450000Y-133793750I0J-293750D01*
G01*
X122450000Y-134806250D01*
G75*
G02*
X122156250Y-135100000I-293750J0D01*
G01*
X121568750Y-135100000D01*
G75*
G02*
X121275000Y-134806250I0J293750D01*
G01*
G37*
G36*
G01*
X119390000Y-127122500D02*
X119390000Y-126677500D01*
G75*
G02*
X119587500Y-126480000I197500J0D01*
G01*
X119982500Y-126480000D01*
G75*
G02*
X120180000Y-126677500I0J-197500D01*
G01*
X120180000Y-127122500D01*
G75*
G02*
X119982500Y-127320000I-197500J0D01*
G01*
X119587500Y-127320000D01*
G75*
G02*
X119390000Y-127122500I0J197500D01*
G01*
G37*
G36*
G01*
X118420000Y-127122500D02*
X118420000Y-126677500D01*
G75*
G02*
X118617500Y-126480000I197500J0D01*
G01*
X119012500Y-126480000D01*
G75*
G02*
X119210000Y-126677500I0J-197500D01*
G01*
X119210000Y-127122500D01*
G75*
G02*
X119012500Y-127320000I-197500J0D01*
G01*
X118617500Y-127320000D01*
G75*
G02*
X118420000Y-127122500I0J197500D01*
G01*
G37*
G36*
G01*
X125893750Y-132287500D02*
X126906250Y-132287500D01*
G75*
G02*
X127200000Y-132581250I0J-293750D01*
G01*
X127200000Y-133168750D01*
G75*
G02*
X126906250Y-133462500I-293750J0D01*
G01*
X125893750Y-133462500D01*
G75*
G02*
X125600000Y-133168750I0J293750D01*
G01*
X125600000Y-132581250D01*
G75*
G02*
X125893750Y-132287500I293750J0D01*
G01*
G37*
G36*
G01*
X125893750Y-130412500D02*
X126906250Y-130412500D01*
G75*
G02*
X127200000Y-130706250I0J-293750D01*
G01*
X127200000Y-131293750D01*
G75*
G02*
X126906250Y-131587500I-293750J0D01*
G01*
X125893750Y-131587500D01*
G75*
G02*
X125600000Y-131293750I0J293750D01*
G01*
X125600000Y-130706250D01*
G75*
G02*
X125893750Y-130412500I293750J0D01*
G01*
G37*
G36*
G01*
X126393750Y-128350000D02*
X127406250Y-128350000D01*
G75*
G02*
X127700000Y-128643750I0J-293750D01*
G01*
X127700000Y-129231250D01*
G75*
G02*
X127406250Y-129525000I-293750J0D01*
G01*
X126393750Y-129525000D01*
G75*
G02*
X126100000Y-129231250I0J293750D01*
G01*
X126100000Y-128643750D01*
G75*
G02*
X126393750Y-128350000I293750J0D01*
G01*
G37*
G36*
G01*
X126393750Y-126475000D02*
X127406250Y-126475000D01*
G75*
G02*
X127700000Y-126768750I0J-293750D01*
G01*
X127700000Y-127356250D01*
G75*
G02*
X127406250Y-127650000I-293750J0D01*
G01*
X126393750Y-127650000D01*
G75*
G02*
X126100000Y-127356250I0J293750D01*
G01*
X126100000Y-126768750D01*
G75*
G02*
X126393750Y-126475000I293750J0D01*
G01*
G37*
D21*
G36*
X128296364Y-146202948D02*
G01*
X127737319Y-145781677D01*
X128339134Y-144983042D01*
X128898179Y-145404313D01*
X128296364Y-146202948D01*
G37*
G36*
X127490821Y-146441120D02*
G01*
X126851912Y-145959668D01*
X128266177Y-144082874D01*
X128905086Y-144564326D01*
X127490821Y-146441120D01*
G37*
G36*
X125680832Y-144232004D02*
G01*
X125121787Y-143810733D01*
X125723602Y-143012098D01*
X126282647Y-143433369D01*
X125680832Y-144232004D01*
G37*
G36*
X126596992Y-145924088D02*
G01*
X125039653Y-144750549D01*
X126604372Y-142674096D01*
X128161711Y-143847635D01*
X126596992Y-145924088D01*
G37*
G36*
G01*
X130766123Y-146321351D02*
X130246693Y-145996775D01*
G75*
G02*
X130161196Y-145626446I142416J227913D01*
G01*
X130446028Y-145170620D01*
G75*
G02*
X130816357Y-145085123I227913J-142416D01*
G01*
X131335787Y-145409699D01*
G75*
G02*
X131421284Y-145780028I-142416J-227913D01*
G01*
X131136452Y-146235854D01*
G75*
G02*
X130766123Y-146321351I-227913J142416D01*
G01*
G37*
G36*
G01*
X129931501Y-147657027D02*
X129412071Y-147332451D01*
G75*
G02*
X129326574Y-146962122I142416J227913D01*
G01*
X129611406Y-146506296D01*
G75*
G02*
X129981735Y-146420799I227913J-142416D01*
G01*
X130501165Y-146745375D01*
G75*
G02*
X130586662Y-147115704I-142416J-227913D01*
G01*
X130301830Y-147571530D01*
G75*
G02*
X129931501Y-147657027I-227913J142416D01*
G01*
G37*
G36*
G01*
X129687500Y-84656250D02*
X129687500Y-84043750D01*
G75*
G02*
X129956250Y-83775000I268750J0D01*
G01*
X130493750Y-83775000D01*
G75*
G02*
X130762500Y-84043750I0J-268750D01*
G01*
X130762500Y-84656250D01*
G75*
G02*
X130493750Y-84925000I-268750J0D01*
G01*
X129956250Y-84925000D01*
G75*
G02*
X129687500Y-84656250I0J268750D01*
G01*
G37*
G36*
G01*
X128112500Y-84656250D02*
X128112500Y-84043750D01*
G75*
G02*
X128381250Y-83775000I268750J0D01*
G01*
X128918750Y-83775000D01*
G75*
G02*
X129187500Y-84043750I0J-268750D01*
G01*
X129187500Y-84656250D01*
G75*
G02*
X128918750Y-84925000I-268750J0D01*
G01*
X128381250Y-84925000D01*
G75*
G02*
X128112500Y-84656250I0J268750D01*
G01*
G37*
G36*
G01*
X133650000Y-84956250D02*
X133650000Y-84343750D01*
G75*
G02*
X133918750Y-84075000I268750J0D01*
G01*
X134456250Y-84075000D01*
G75*
G02*
X134725000Y-84343750I0J-268750D01*
G01*
X134725000Y-84956250D01*
G75*
G02*
X134456250Y-85225000I-268750J0D01*
G01*
X133918750Y-85225000D01*
G75*
G02*
X133650000Y-84956250I0J268750D01*
G01*
G37*
G36*
G01*
X132075000Y-84956250D02*
X132075000Y-84343750D01*
G75*
G02*
X132343750Y-84075000I268750J0D01*
G01*
X132881250Y-84075000D01*
G75*
G02*
X133150000Y-84343750I0J-268750D01*
G01*
X133150000Y-84956250D01*
G75*
G02*
X132881250Y-85225000I-268750J0D01*
G01*
X132343750Y-85225000D01*
G75*
G02*
X132075000Y-84956250I0J268750D01*
G01*
G37*
D22*
X176500000Y-87400000D03*
X179500000Y-87400000D03*
D23*
X178000000Y-88875000D03*
X178000000Y-85925000D03*
D22*
X177200000Y-77100000D03*
X177200000Y-80100000D03*
D24*
X175725000Y-78600000D03*
X178675000Y-78600000D03*
D22*
X173500000Y-73200000D03*
X176500000Y-73200000D03*
D23*
X175000000Y-74675000D03*
X175000000Y-71725000D03*
D22*
X167900000Y-73200000D03*
X170900000Y-73200000D03*
D23*
X169400000Y-74675000D03*
X169400000Y-71725000D03*
D25*
X160660000Y-135200000D03*
X165740000Y-135200000D03*
D26*
X166375000Y-137235000D03*
X165105000Y-137235000D03*
X166375000Y-133165000D03*
X165105000Y-133165000D03*
X163835000Y-137235000D03*
X162565000Y-137235000D03*
X163835000Y-133165000D03*
X162565000Y-133165000D03*
X161295000Y-133165000D03*
X161295000Y-137235000D03*
X160025000Y-133165000D03*
X160025000Y-137235000D03*
G36*
G01*
X144775000Y-119826250D02*
X144775000Y-118813750D01*
G75*
G02*
X145068750Y-118520000I293750J0D01*
G01*
X145656250Y-118520000D01*
G75*
G02*
X145950000Y-118813750I0J-293750D01*
G01*
X145950000Y-119826250D01*
G75*
G02*
X145656250Y-120120000I-293750J0D01*
G01*
X145068750Y-120120000D01*
G75*
G02*
X144775000Y-119826250I0J293750D01*
G01*
G37*
G36*
G01*
X146650000Y-119826250D02*
X146650000Y-118813750D01*
G75*
G02*
X146943750Y-118520000I293750J0D01*
G01*
X147531250Y-118520000D01*
G75*
G02*
X147825000Y-118813750I0J-293750D01*
G01*
X147825000Y-119826250D01*
G75*
G02*
X147531250Y-120120000I-293750J0D01*
G01*
X146943750Y-120120000D01*
G75*
G02*
X146650000Y-119826250I0J293750D01*
G01*
G37*
D27*
X130100000Y-131500000D03*
X134200000Y-131500000D03*
D22*
X140750000Y-133100000D03*
G36*
G01*
X139810000Y-104027500D02*
X139810000Y-104472500D01*
G75*
G02*
X139612500Y-104670000I-197500J0D01*
G01*
X139217500Y-104670000D01*
G75*
G02*
X139020000Y-104472500I0J197500D01*
G01*
X139020000Y-104027500D01*
G75*
G02*
X139217500Y-103830000I197500J0D01*
G01*
X139612500Y-103830000D01*
G75*
G02*
X139810000Y-104027500I0J-197500D01*
G01*
G37*
G36*
G01*
X140780000Y-104027500D02*
X140780000Y-104472500D01*
G75*
G02*
X140582500Y-104670000I-197500J0D01*
G01*
X140187500Y-104670000D01*
G75*
G02*
X139990000Y-104472500I0J197500D01*
G01*
X139990000Y-104027500D01*
G75*
G02*
X140187500Y-103830000I197500J0D01*
G01*
X140582500Y-103830000D01*
G75*
G02*
X140780000Y-104027500I0J-197500D01*
G01*
G37*
D28*
X149050000Y-143300000D03*
X150950000Y-143300000D03*
D29*
X141800000Y-108000000D03*
D30*
X140300000Y-108000000D03*
D29*
X138800000Y-108000000D03*
D31*
X136600000Y-118650000D03*
D32*
X138100000Y-119400000D03*
D31*
X136600000Y-119150000D03*
X136600000Y-119650000D03*
X136600000Y-120150000D03*
X139600000Y-120150000D03*
X139600000Y-119650000D03*
X139600000Y-119150000D03*
X139600000Y-118650000D03*
D33*
X167100000Y-144450000D03*
X167100000Y-141550000D03*
X153600000Y-144450000D03*
X153600000Y-141550000D03*
D34*
X166100000Y-141550000D03*
X165600000Y-144450000D03*
X165100000Y-141550000D03*
X164600000Y-144450000D03*
X164100000Y-141550000D03*
X163600000Y-144450000D03*
X163100000Y-141550000D03*
X162600000Y-144450000D03*
X162100000Y-141550000D03*
X161600000Y-144450000D03*
X161100000Y-141550000D03*
X160600000Y-144450000D03*
X160100000Y-141550000D03*
X159600000Y-144450000D03*
X159100000Y-141550000D03*
X158600000Y-144450000D03*
X158100000Y-141550000D03*
X157600000Y-144450000D03*
X157100000Y-141550000D03*
X156600000Y-144450000D03*
X156100000Y-141550000D03*
X155600000Y-144450000D03*
X155100000Y-141550000D03*
X154600000Y-144450000D03*
D25*
X160660000Y-127500000D03*
X165740000Y-127500000D03*
D26*
X166375000Y-129535000D03*
X165105000Y-129535000D03*
X166375000Y-125465000D03*
X165105000Y-125465000D03*
X163835000Y-129535000D03*
X162565000Y-129535000D03*
X163835000Y-125465000D03*
X162565000Y-125465000D03*
X161295000Y-125465000D03*
X161295000Y-129535000D03*
X160025000Y-125465000D03*
X160025000Y-129535000D03*
D35*
X155000000Y-153025000D03*
X164000000Y-153025000D03*
D36*
X163225000Y-148925000D03*
X155775000Y-148925000D03*
D28*
X155450000Y-147825000D03*
D35*
X155000000Y-147275000D03*
D28*
X163550000Y-147825000D03*
D35*
X164000000Y-147275000D03*
D37*
X161900000Y-148925000D03*
X161100000Y-148925000D03*
X160300000Y-148925000D03*
X157100000Y-148925000D03*
X157900000Y-148925000D03*
X158700000Y-148925000D03*
X162550000Y-148225000D03*
X160700000Y-148225000D03*
X159900000Y-148225000D03*
X156450000Y-148225000D03*
X158300000Y-148225000D03*
X159100000Y-148225000D03*
D38*
X162250000Y-147020000D03*
X161750000Y-147020000D03*
X161250000Y-147020000D03*
X160750000Y-147020000D03*
X160250000Y-147020000D03*
X159750000Y-147020000D03*
X159250000Y-147020000D03*
X158750000Y-147020000D03*
X158250000Y-147020000D03*
X157750000Y-147020000D03*
X157250000Y-147020000D03*
X156750000Y-147020000D03*
D39*
X117500000Y-135250000D03*
G36*
G01*
X154050000Y-138513750D02*
X154050000Y-139526250D01*
G75*
G02*
X153756250Y-139820000I-293750J0D01*
G01*
X153168750Y-139820000D01*
G75*
G02*
X152875000Y-139526250I0J293750D01*
G01*
X152875000Y-138513750D01*
G75*
G02*
X153168750Y-138220000I293750J0D01*
G01*
X153756250Y-138220000D01*
G75*
G02*
X154050000Y-138513750I0J-293750D01*
G01*
G37*
G36*
G01*
X155925000Y-138513750D02*
X155925000Y-139526250D01*
G75*
G02*
X155631250Y-139820000I-293750J0D01*
G01*
X155043750Y-139820000D01*
G75*
G02*
X154750000Y-139526250I0J293750D01*
G01*
X154750000Y-138513750D01*
G75*
G02*
X155043750Y-138220000I293750J0D01*
G01*
X155631250Y-138220000D01*
G75*
G02*
X155925000Y-138513750I0J-293750D01*
G01*
G37*
D40*
X114000000Y-107160000D03*
X117175000Y-107160000D03*
X117175000Y-112240000D03*
X114000000Y-112240000D03*
D41*
X114000000Y-109700000D03*
X119080000Y-108684000D03*
X119080000Y-110716000D03*
D42*
X115270000Y-110335000D03*
X115270000Y-109065000D03*
X116540000Y-110335000D03*
X116540000Y-109065000D03*
X117810000Y-110335000D03*
X117810000Y-109065000D03*
D43*
X168770000Y-133100000D03*
X173850000Y-133100000D03*
X178930000Y-133100000D03*
G36*
G01*
X138999286Y-152680902D02*
X139187429Y-152190772D01*
G75*
G02*
X139526566Y-152039779I245065J-94072D01*
G01*
X140366789Y-152362310D01*
G75*
G02*
X140517782Y-152701447I-94072J-245065D01*
G01*
X140329639Y-153191576D01*
G75*
G02*
X139990502Y-153342569I-245065J94072D01*
G01*
X139150279Y-153020038D01*
G75*
G02*
X138999286Y-152680901I94072J245065D01*
G01*
G37*
G36*
G01*
X137482218Y-152098554D02*
X137670361Y-151608424D01*
G75*
G02*
X138009498Y-151457431I245065J-94072D01*
G01*
X138849721Y-151779962D01*
G75*
G02*
X139000714Y-152119099I-94072J-245065D01*
G01*
X138812571Y-152609228D01*
G75*
G02*
X138473434Y-152760221I-245065J94072D01*
G01*
X137633211Y-152437690D01*
G75*
G02*
X137482218Y-152098553I94072J245065D01*
G01*
G37*
G36*
G01*
X133861413Y-150378721D02*
X134107885Y-149915174D01*
G75*
G02*
X134462895Y-149806636I231774J-123236D01*
G01*
X135257548Y-150229160D01*
G75*
G02*
X135366086Y-150584170I-123236J-231774D01*
G01*
X135119613Y-151047718D01*
G75*
G02*
X134764603Y-151156256I-231774J123236D01*
G01*
X133969950Y-150733732D01*
G75*
G02*
X133861412Y-150378722I123236J231774D01*
G01*
G37*
G36*
G01*
X132426623Y-149615829D02*
X132673095Y-149152282D01*
G75*
G02*
X133028105Y-149043744I231774J-123236D01*
G01*
X133822758Y-149466268D01*
G75*
G02*
X133931296Y-149821278I-123236J-231774D01*
G01*
X133684823Y-150284826D01*
G75*
G02*
X133329813Y-150393364I-231774J123236D01*
G01*
X132535160Y-149970840D01*
G75*
G02*
X132426622Y-149615830I123236J231774D01*
G01*
G37*
D44*
X135521000Y-141567000D03*
X134886000Y-141567000D03*
X134225600Y-141567000D03*
X133565200Y-141567000D03*
X132930200Y-141567000D03*
X132269800Y-141567000D03*
X131609400Y-141567000D03*
X130974400Y-141567000D03*
X130974400Y-136233000D03*
X131609400Y-136233000D03*
X132269800Y-136233000D03*
X132930200Y-136233000D03*
X133565200Y-136233000D03*
X134225600Y-136233000D03*
X134886000Y-136233000D03*
X135521000Y-136233000D03*
D45*
X122750000Y-59000000D03*
X176750000Y-59000000D03*
X119750000Y-135000000D03*
D46*
X119700000Y-86400000D03*
X119700000Y-98600000D03*
D47*
X119700000Y-88500000D03*
X119700000Y-90500000D03*
X119700000Y-92500000D03*
X119700000Y-96500000D03*
G36*
G01*
X137877500Y-131490000D02*
X138322500Y-131490000D01*
G75*
G02*
X138520000Y-131687500I0J-197500D01*
G01*
X138520000Y-132082500D01*
G75*
G02*
X138322500Y-132280000I-197500J0D01*
G01*
X137877500Y-132280000D01*
G75*
G02*
X137680000Y-132082500I0J197500D01*
G01*
X137680000Y-131687500D01*
G75*
G02*
X137877500Y-131490000I197500J0D01*
G01*
G37*
G36*
G01*
X137877500Y-130520000D02*
X138322500Y-130520000D01*
G75*
G02*
X138520000Y-130717500I0J-197500D01*
G01*
X138520000Y-131112500D01*
G75*
G02*
X138322500Y-131310000I-197500J0D01*
G01*
X137877500Y-131310000D01*
G75*
G02*
X137680000Y-131112500I0J197500D01*
G01*
X137680000Y-130717500D01*
G75*
G02*
X137877500Y-130520000I197500J0D01*
G01*
G37*
G36*
G01*
X134625000Y-56577500D02*
X134625000Y-57022500D01*
G75*
G02*
X134427500Y-57220000I-197500J0D01*
G01*
X134032500Y-57220000D01*
G75*
G02*
X133835000Y-57022500I0J197500D01*
G01*
X133835000Y-56577500D01*
G75*
G02*
X134032500Y-56380000I197500J0D01*
G01*
X134427500Y-56380000D01*
G75*
G02*
X134625000Y-56577500I0J-197500D01*
G01*
G37*
G36*
G01*
X135595000Y-56577500D02*
X135595000Y-57022500D01*
G75*
G02*
X135397500Y-57220000I-197500J0D01*
G01*
X135002500Y-57220000D01*
G75*
G02*
X134805000Y-57022500I0J197500D01*
G01*
X134805000Y-56577500D01*
G75*
G02*
X135002500Y-56380000I197500J0D01*
G01*
X135397500Y-56380000D01*
G75*
G02*
X135595000Y-56577500I0J-197500D01*
G01*
G37*
G36*
G01*
X153220000Y-57122500D02*
X153220000Y-56677500D01*
G75*
G02*
X153417500Y-56480000I197500J0D01*
G01*
X153812500Y-56480000D01*
G75*
G02*
X154010000Y-56677500I0J-197500D01*
G01*
X154010000Y-57122500D01*
G75*
G02*
X153812500Y-57320000I-197500J0D01*
G01*
X153417500Y-57320000D01*
G75*
G02*
X153220000Y-57122500I0J197500D01*
G01*
G37*
G36*
G01*
X154190000Y-57122500D02*
X154190000Y-56677500D01*
G75*
G02*
X154387500Y-56480000I197500J0D01*
G01*
X154782500Y-56480000D01*
G75*
G02*
X154980000Y-56677500I0J-197500D01*
G01*
X154980000Y-57122500D01*
G75*
G02*
X154782500Y-57320000I-197500J0D01*
G01*
X154387500Y-57320000D01*
G75*
G02*
X154190000Y-57122500I0J197500D01*
G01*
G37*
G36*
G01*
X172605000Y-58622500D02*
X172605000Y-58177500D01*
G75*
G02*
X172802500Y-57980000I197500J0D01*
G01*
X173197500Y-57980000D01*
G75*
G02*
X173395000Y-58177500I0J-197500D01*
G01*
X173395000Y-58622500D01*
G75*
G02*
X173197500Y-58820000I-197500J0D01*
G01*
X172802500Y-58820000D01*
G75*
G02*
X172605000Y-58622500I0J197500D01*
G01*
G37*
G36*
G01*
X171635000Y-58622500D02*
X171635000Y-58177500D01*
G75*
G02*
X171832500Y-57980000I197500J0D01*
G01*
X172227500Y-57980000D01*
G75*
G02*
X172425000Y-58177500I0J-197500D01*
G01*
X172425000Y-58622500D01*
G75*
G02*
X172227500Y-58820000I-197500J0D01*
G01*
X171832500Y-58820000D01*
G75*
G02*
X171635000Y-58622500I0J197500D01*
G01*
G37*
G36*
G01*
X166380000Y-79322500D02*
X166380000Y-78877500D01*
G75*
G02*
X166577500Y-78680000I197500J0D01*
G01*
X166972500Y-78680000D01*
G75*
G02*
X167170000Y-78877500I0J-197500D01*
G01*
X167170000Y-79322500D01*
G75*
G02*
X166972500Y-79520000I-197500J0D01*
G01*
X166577500Y-79520000D01*
G75*
G02*
X166380000Y-79322500I0J197500D01*
G01*
G37*
G36*
G01*
X167350000Y-79322500D02*
X167350000Y-78877500D01*
G75*
G02*
X167547500Y-78680000I197500J0D01*
G01*
X167942500Y-78680000D01*
G75*
G02*
X168140000Y-78877500I0J-197500D01*
G01*
X168140000Y-79322500D01*
G75*
G02*
X167942500Y-79520000I-197500J0D01*
G01*
X167547500Y-79520000D01*
G75*
G02*
X167350000Y-79322500I0J197500D01*
G01*
G37*
G36*
G01*
X160215000Y-84222500D02*
X160215000Y-83777500D01*
G75*
G02*
X160412500Y-83580000I197500J0D01*
G01*
X160807500Y-83580000D01*
G75*
G02*
X161005000Y-83777500I0J-197500D01*
G01*
X161005000Y-84222500D01*
G75*
G02*
X160807500Y-84420000I-197500J0D01*
G01*
X160412500Y-84420000D01*
G75*
G02*
X160215000Y-84222500I0J197500D01*
G01*
G37*
G36*
G01*
X159245000Y-84222500D02*
X159245000Y-83777500D01*
G75*
G02*
X159442500Y-83580000I197500J0D01*
G01*
X159837500Y-83580000D01*
G75*
G02*
X160035000Y-83777500I0J-197500D01*
G01*
X160035000Y-84222500D01*
G75*
G02*
X159837500Y-84420000I-197500J0D01*
G01*
X159442500Y-84420000D01*
G75*
G02*
X159245000Y-84222500I0J197500D01*
G01*
G37*
G36*
G01*
X125910000Y-116197500D02*
X125910000Y-116642500D01*
G75*
G02*
X125712500Y-116840000I-197500J0D01*
G01*
X125317500Y-116840000D01*
G75*
G02*
X125120000Y-116642500I0J197500D01*
G01*
X125120000Y-116197500D01*
G75*
G02*
X125317500Y-116000000I197500J0D01*
G01*
X125712500Y-116000000D01*
G75*
G02*
X125910000Y-116197500I0J-197500D01*
G01*
G37*
G36*
G01*
X126880000Y-116197500D02*
X126880000Y-116642500D01*
G75*
G02*
X126682500Y-116840000I-197500J0D01*
G01*
X126287500Y-116840000D01*
G75*
G02*
X126090000Y-116642500I0J197500D01*
G01*
X126090000Y-116197500D01*
G75*
G02*
X126287500Y-116000000I197500J0D01*
G01*
X126682500Y-116000000D01*
G75*
G02*
X126880000Y-116197500I0J-197500D01*
G01*
G37*
G36*
G01*
X143020000Y-139922500D02*
X143020000Y-139477500D01*
G75*
G02*
X143217500Y-139280000I197500J0D01*
G01*
X143612500Y-139280000D01*
G75*
G02*
X143810000Y-139477500I0J-197500D01*
G01*
X143810000Y-139922500D01*
G75*
G02*
X143612500Y-140120000I-197500J0D01*
G01*
X143217500Y-140120000D01*
G75*
G02*
X143020000Y-139922500I0J197500D01*
G01*
G37*
G36*
G01*
X143990000Y-139922500D02*
X143990000Y-139477500D01*
G75*
G02*
X144187500Y-139280000I197500J0D01*
G01*
X144582500Y-139280000D01*
G75*
G02*
X144780000Y-139477500I0J-197500D01*
G01*
X144780000Y-139922500D01*
G75*
G02*
X144582500Y-140120000I-197500J0D01*
G01*
X144187500Y-140120000D01*
G75*
G02*
X143990000Y-139922500I0J197500D01*
G01*
G37*
D21*
G36*
X121863603Y-69833453D02*
G01*
X120166547Y-68136397D01*
X121050431Y-67252513D01*
X122747487Y-68949569D01*
X121863603Y-69833453D01*
G37*
G36*
X123949569Y-67747487D02*
G01*
X122252513Y-66050431D01*
X123136397Y-65166547D01*
X124833453Y-66863603D01*
X123949569Y-67747487D01*
G37*
G36*
X121439340Y-67287868D02*
G01*
X120590812Y-66439340D01*
X121439340Y-65590812D01*
X122287868Y-66439340D01*
X121439340Y-67287868D01*
G37*
G36*
X123560660Y-69409188D02*
G01*
X122712132Y-68560660D01*
X123560660Y-67712132D01*
X124409188Y-68560660D01*
X123560660Y-69409188D01*
G37*
D22*
X126500000Y-62500000D03*
X126500000Y-59500000D03*
D24*
X127975000Y-61000000D03*
X125025000Y-61000000D03*
G36*
G01*
X115777500Y-125920000D02*
X116222500Y-125920000D01*
G75*
G02*
X116420000Y-126117500I0J-197500D01*
G01*
X116420000Y-126512500D01*
G75*
G02*
X116222500Y-126710000I-197500J0D01*
G01*
X115777500Y-126710000D01*
G75*
G02*
X115580000Y-126512500I0J197500D01*
G01*
X115580000Y-126117500D01*
G75*
G02*
X115777500Y-125920000I197500J0D01*
G01*
G37*
G36*
G01*
X115777500Y-126890000D02*
X116222500Y-126890000D01*
G75*
G02*
X116420000Y-127087500I0J-197500D01*
G01*
X116420000Y-127482500D01*
G75*
G02*
X116222500Y-127680000I-197500J0D01*
G01*
X115777500Y-127680000D01*
G75*
G02*
X115580000Y-127482500I0J197500D01*
G01*
X115580000Y-127087500D01*
G75*
G02*
X115777500Y-126890000I197500J0D01*
G01*
G37*
G36*
G01*
X141610000Y-150977500D02*
X141610000Y-151422500D01*
G75*
G02*
X141412500Y-151620000I-197500J0D01*
G01*
X141017500Y-151620000D01*
G75*
G02*
X140820000Y-151422500I0J197500D01*
G01*
X140820000Y-150977500D01*
G75*
G02*
X141017500Y-150780000I197500J0D01*
G01*
X141412500Y-150780000D01*
G75*
G02*
X141610000Y-150977500I0J-197500D01*
G01*
G37*
G36*
G01*
X142580000Y-150977500D02*
X142580000Y-151422500D01*
G75*
G02*
X142382500Y-151620000I-197500J0D01*
G01*
X141987500Y-151620000D01*
G75*
G02*
X141790000Y-151422500I0J197500D01*
G01*
X141790000Y-150977500D01*
G75*
G02*
X141987500Y-150780000I197500J0D01*
G01*
X142382500Y-150780000D01*
G75*
G02*
X142580000Y-150977500I0J-197500D01*
G01*
G37*
G36*
G01*
X136910000Y-149277500D02*
X136910000Y-149722500D01*
G75*
G02*
X136712500Y-149920000I-197500J0D01*
G01*
X136317500Y-149920000D01*
G75*
G02*
X136120000Y-149722500I0J197500D01*
G01*
X136120000Y-149277500D01*
G75*
G02*
X136317500Y-149080000I197500J0D01*
G01*
X136712500Y-149080000D01*
G75*
G02*
X136910000Y-149277500I0J-197500D01*
G01*
G37*
G36*
G01*
X137880000Y-149277500D02*
X137880000Y-149722500D01*
G75*
G02*
X137682500Y-149920000I-197500J0D01*
G01*
X137287500Y-149920000D01*
G75*
G02*
X137090000Y-149722500I0J197500D01*
G01*
X137090000Y-149277500D01*
G75*
G02*
X137287500Y-149080000I197500J0D01*
G01*
X137682500Y-149080000D01*
G75*
G02*
X137880000Y-149277500I0J-197500D01*
G01*
G37*
G36*
G01*
X134455000Y-118342500D02*
X134455000Y-117897500D01*
G75*
G02*
X134652500Y-117700000I197500J0D01*
G01*
X135047500Y-117700000D01*
G75*
G02*
X135245000Y-117897500I0J-197500D01*
G01*
X135245000Y-118342500D01*
G75*
G02*
X135047500Y-118540000I-197500J0D01*
G01*
X134652500Y-118540000D01*
G75*
G02*
X134455000Y-118342500I0J197500D01*
G01*
G37*
G36*
G01*
X133485000Y-118342500D02*
X133485000Y-117897500D01*
G75*
G02*
X133682500Y-117700000I197500J0D01*
G01*
X134077500Y-117700000D01*
G75*
G02*
X134275000Y-117897500I0J-197500D01*
G01*
X134275000Y-118342500D01*
G75*
G02*
X134077500Y-118540000I-197500J0D01*
G01*
X133682500Y-118540000D01*
G75*
G02*
X133485000Y-118342500I0J197500D01*
G01*
G37*
G36*
G01*
X136595000Y-117772500D02*
X136595000Y-117327500D01*
G75*
G02*
X136792500Y-117130000I197500J0D01*
G01*
X137187500Y-117130000D01*
G75*
G02*
X137385000Y-117327500I0J-197500D01*
G01*
X137385000Y-117772500D01*
G75*
G02*
X137187500Y-117970000I-197500J0D01*
G01*
X136792500Y-117970000D01*
G75*
G02*
X136595000Y-117772500I0J197500D01*
G01*
G37*
G36*
G01*
X137565000Y-117772500D02*
X137565000Y-117327500D01*
G75*
G02*
X137762500Y-117130000I197500J0D01*
G01*
X138157500Y-117130000D01*
G75*
G02*
X138355000Y-117327500I0J-197500D01*
G01*
X138355000Y-117772500D01*
G75*
G02*
X138157500Y-117970000I-197500J0D01*
G01*
X137762500Y-117970000D01*
G75*
G02*
X137565000Y-117772500I0J197500D01*
G01*
G37*
G36*
G01*
X152022500Y-83510000D02*
X151577500Y-83510000D01*
G75*
G02*
X151380000Y-83312500I0J197500D01*
G01*
X151380000Y-82917500D01*
G75*
G02*
X151577500Y-82720000I197500J0D01*
G01*
X152022500Y-82720000D01*
G75*
G02*
X152220000Y-82917500I0J-197500D01*
G01*
X152220000Y-83312500D01*
G75*
G02*
X152022500Y-83510000I-197500J0D01*
G01*
G37*
G36*
G01*
X152022500Y-84480000D02*
X151577500Y-84480000D01*
G75*
G02*
X151380000Y-84282500I0J197500D01*
G01*
X151380000Y-83887500D01*
G75*
G02*
X151577500Y-83690000I197500J0D01*
G01*
X152022500Y-83690000D01*
G75*
G02*
X152220000Y-83887500I0J-197500D01*
G01*
X152220000Y-84282500D01*
G75*
G02*
X152022500Y-84480000I-197500J0D01*
G01*
G37*
D47*
X120050000Y-73500000D03*
X120050000Y-75500000D03*
X120050000Y-77500000D03*
X120050000Y-79500000D03*
X120050000Y-81500000D03*
X120050000Y-83500000D03*
X122550000Y-73500000D03*
X122550000Y-75500000D03*
X122550000Y-77500000D03*
X122550000Y-79500000D03*
X122550000Y-81500000D03*
X122550000Y-83500000D03*
D48*
X118500000Y-71900000D03*
X124100000Y-85100000D03*
D49*
X142450000Y-122350000D03*
X142450000Y-119050000D03*
D47*
X147500000Y-151550000D03*
X147500000Y-154850000D03*
X150000000Y-151550000D03*
X150000000Y-154850000D03*
X152500000Y-151550000D03*
X152500000Y-154850000D03*
G36*
G01*
X128906250Y-138650000D02*
X127893750Y-138650000D01*
G75*
G02*
X127600000Y-138356250I0J293750D01*
G01*
X127600000Y-137768750D01*
G75*
G02*
X127893750Y-137475000I293750J0D01*
G01*
X128906250Y-137475000D01*
G75*
G02*
X129200000Y-137768750I0J-293750D01*
G01*
X129200000Y-138356250D01*
G75*
G02*
X128906250Y-138650000I-293750J0D01*
G01*
G37*
G36*
G01*
X128906250Y-140525000D02*
X127893750Y-140525000D01*
G75*
G02*
X127600000Y-140231250I0J293750D01*
G01*
X127600000Y-139643750D01*
G75*
G02*
X127893750Y-139350000I293750J0D01*
G01*
X128906250Y-139350000D01*
G75*
G02*
X129200000Y-139643750I0J-293750D01*
G01*
X129200000Y-140231250D01*
G75*
G02*
X128906250Y-140525000I-293750J0D01*
G01*
G37*
G36*
G01*
X153406250Y-147070000D02*
X152393750Y-147070000D01*
G75*
G02*
X152100000Y-146776250I0J293750D01*
G01*
X152100000Y-146188750D01*
G75*
G02*
X152393750Y-145895000I293750J0D01*
G01*
X153406250Y-145895000D01*
G75*
G02*
X153700000Y-146188750I0J-293750D01*
G01*
X153700000Y-146776250D01*
G75*
G02*
X153406250Y-147070000I-293750J0D01*
G01*
G37*
G36*
G01*
X153406250Y-148945000D02*
X152393750Y-148945000D01*
G75*
G02*
X152100000Y-148651250I0J293750D01*
G01*
X152100000Y-148063750D01*
G75*
G02*
X152393750Y-147770000I293750J0D01*
G01*
X153406250Y-147770000D01*
G75*
G02*
X153700000Y-148063750I0J-293750D01*
G01*
X153700000Y-148651250D01*
G75*
G02*
X153406250Y-148945000I-293750J0D01*
G01*
G37*
G36*
G01*
X145106250Y-149425000D02*
X144093750Y-149425000D01*
G75*
G02*
X143800000Y-149131250I0J293750D01*
G01*
X143800000Y-148543750D01*
G75*
G02*
X144093750Y-148250000I293750J0D01*
G01*
X145106250Y-148250000D01*
G75*
G02*
X145400000Y-148543750I0J-293750D01*
G01*
X145400000Y-149131250D01*
G75*
G02*
X145106250Y-149425000I-293750J0D01*
G01*
G37*
G36*
G01*
X145106250Y-147550000D02*
X144093750Y-147550000D01*
G75*
G02*
X143800000Y-147256250I0J293750D01*
G01*
X143800000Y-146668750D01*
G75*
G02*
X144093750Y-146375000I293750J0D01*
G01*
X145106250Y-146375000D01*
G75*
G02*
X145400000Y-146668750I0J-293750D01*
G01*
X145400000Y-147256250D01*
G75*
G02*
X145106250Y-147550000I-293750J0D01*
G01*
G37*
G36*
G01*
X158506250Y-138825000D02*
X157493750Y-138825000D01*
G75*
G02*
X157200000Y-138531250I0J293750D01*
G01*
X157200000Y-137943750D01*
G75*
G02*
X157493750Y-137650000I293750J0D01*
G01*
X158506250Y-137650000D01*
G75*
G02*
X158800000Y-137943750I0J-293750D01*
G01*
X158800000Y-138531250D01*
G75*
G02*
X158506250Y-138825000I-293750J0D01*
G01*
G37*
G36*
G01*
X158506250Y-136950000D02*
X157493750Y-136950000D01*
G75*
G02*
X157200000Y-136656250I0J293750D01*
G01*
X157200000Y-136068750D01*
G75*
G02*
X157493750Y-135775000I293750J0D01*
G01*
X158506250Y-135775000D01*
G75*
G02*
X158800000Y-136068750I0J-293750D01*
G01*
X158800000Y-136656250D01*
G75*
G02*
X158506250Y-136950000I-293750J0D01*
G01*
G37*
G36*
G01*
X170043750Y-148070000D02*
X171056250Y-148070000D01*
G75*
G02*
X171350000Y-148363750I0J-293750D01*
G01*
X171350000Y-148951250D01*
G75*
G02*
X171056250Y-149245000I-293750J0D01*
G01*
X170043750Y-149245000D01*
G75*
G02*
X169750000Y-148951250I0J293750D01*
G01*
X169750000Y-148363750D01*
G75*
G02*
X170043750Y-148070000I293750J0D01*
G01*
G37*
G36*
G01*
X170043750Y-146195000D02*
X171056250Y-146195000D01*
G75*
G02*
X171350000Y-146488750I0J-293750D01*
G01*
X171350000Y-147076250D01*
G75*
G02*
X171056250Y-147370000I-293750J0D01*
G01*
X170043750Y-147370000D01*
G75*
G02*
X169750000Y-147076250I0J293750D01*
G01*
X169750000Y-146488750D01*
G75*
G02*
X170043750Y-146195000I293750J0D01*
G01*
G37*
G36*
G01*
X168475000Y-138206250D02*
X168475000Y-137193750D01*
G75*
G02*
X168768750Y-136900000I293750J0D01*
G01*
X169356250Y-136900000D01*
G75*
G02*
X169650000Y-137193750I0J-293750D01*
G01*
X169650000Y-138206250D01*
G75*
G02*
X169356250Y-138500000I-293750J0D01*
G01*
X168768750Y-138500000D01*
G75*
G02*
X168475000Y-138206250I0J293750D01*
G01*
G37*
G36*
G01*
X170350000Y-138206250D02*
X170350000Y-137193750D01*
G75*
G02*
X170643750Y-136900000I293750J0D01*
G01*
X171231250Y-136900000D01*
G75*
G02*
X171525000Y-137193750I0J-293750D01*
G01*
X171525000Y-138206250D01*
G75*
G02*
X171231250Y-138500000I-293750J0D01*
G01*
X170643750Y-138500000D01*
G75*
G02*
X170350000Y-138206250I0J293750D01*
G01*
G37*
D50*
X143850000Y-144100000D03*
X147150000Y-144100000D03*
D49*
X168000000Y-149670000D03*
X168000000Y-146370000D03*
D50*
X150550000Y-147100000D03*
X147250000Y-147100000D03*
D51*
X150500000Y-141200000D03*
X150500000Y-139900000D03*
X148500000Y-140550000D03*
D48*
X138000000Y-86000000D03*
X141000000Y-113500000D03*
X164000000Y-86000000D03*
X176500000Y-95500000D03*
D52*
X128100000Y-88800000D03*
X123100000Y-88800000D03*
X125600000Y-88800000D03*
D39*
X176300000Y-134600000D03*
X115500000Y-121000000D03*
X114250000Y-124500000D03*
X114000000Y-128750000D03*
X115250000Y-132000000D03*
G36*
G01*
X152022500Y-140580000D02*
X151577500Y-140580000D01*
G75*
G02*
X151380000Y-140382500I0J197500D01*
G01*
X151380000Y-139987500D01*
G75*
G02*
X151577500Y-139790000I197500J0D01*
G01*
X152022500Y-139790000D01*
G75*
G02*
X152220000Y-139987500I0J-197500D01*
G01*
X152220000Y-140382500D01*
G75*
G02*
X152022500Y-140580000I-197500J0D01*
G01*
G37*
G36*
G01*
X152022500Y-139610000D02*
X151577500Y-139610000D01*
G75*
G02*
X151380000Y-139412500I0J197500D01*
G01*
X151380000Y-139017500D01*
G75*
G02*
X151577500Y-138820000I197500J0D01*
G01*
X152022500Y-138820000D01*
G75*
G02*
X152220000Y-139017500I0J-197500D01*
G01*
X152220000Y-139412500D01*
G75*
G02*
X152022500Y-139610000I-197500J0D01*
G01*
G37*
D53*
X171300000Y-80150000D03*
X171300000Y-82050000D03*
X173300000Y-81100000D03*
G36*
G01*
X170280000Y-77997500D02*
X170280000Y-78442500D01*
G75*
G02*
X170082500Y-78640000I-197500J0D01*
G01*
X169687500Y-78640000D01*
G75*
G02*
X169490000Y-78442500I0J197500D01*
G01*
X169490000Y-77997500D01*
G75*
G02*
X169687500Y-77800000I197500J0D01*
G01*
X170082500Y-77800000D01*
G75*
G02*
X170280000Y-77997500I0J-197500D01*
G01*
G37*
G36*
G01*
X169310000Y-77997500D02*
X169310000Y-78442500D01*
G75*
G02*
X169112500Y-78640000I-197500J0D01*
G01*
X168717500Y-78640000D01*
G75*
G02*
X168520000Y-78442500I0J197500D01*
G01*
X168520000Y-77997500D01*
G75*
G02*
X168717500Y-77800000I197500J0D01*
G01*
X169112500Y-77800000D01*
G75*
G02*
X169310000Y-77997500I0J-197500D01*
G01*
G37*
D22*
X143250000Y-130850000D03*
X140800000Y-135600000D03*
D39*
X119500000Y-138500000D03*
D21*
G36*
X169409455Y-93794134D02*
G01*
X166897981Y-92344134D01*
X168247981Y-90005866D01*
X170759455Y-91455866D01*
X169409455Y-93794134D01*
G37*
G36*
X171019263Y-91605866D02*
G01*
X173530737Y-93055866D01*
X172180737Y-95394134D01*
X169669263Y-93944134D01*
X171019263Y-91605866D01*
G37*
M02*
