M48
; DRILL file {KiCad 5.1.6+dfsg1-1~bpo10+1} date Wed Jun 23 15:56:19 2021
; FORMAT={-:-/ absolute / inch / decimal}
; #@! TF.CreationDate,2021-06-23T15:56:19-04:00
; #@! TF.GenerationSoftware,Kicad,Pcbnew,5.1.6+dfsg1-1~bpo10+1
; #@! TF.FileFunction,Plated,1,6,PTH
FMAT,2
INCH
T1C0.0118
T2C0.0157
T3C0.0197
T4C0.0217
T5C0.0236
T6C0.0315
T7C0.0402
T8C0.0472
T9C0.0492
T10C0.0591
T11C0.0984
T12C0.1469
%
G90
G05
T1
X4.4961Y-4.5236
X4.502Y-4.7213
X4.5039Y-4.3543
X4.5157Y-5.1457
X4.523Y-4.5629
X4.5374Y-4.9715
X4.5572Y-4.3167
X4.5591Y-4.937
X4.563Y-5.0472
X4.5669Y-4.878
X4.5689Y-4.2776
X4.5787Y-4.5394
X4.6012Y-4.8054
X4.6142Y-4.7788
X4.6171Y-4.315
X4.6192Y-4.9687
X4.6201Y-4.6917
X4.637Y-4.9923
X4.6383Y-5.0218
X4.6417Y-2.752
X4.6522Y-4.9331
X4.6693Y-5.1329
X4.6732Y-4.8433
X4.6784Y-5.0699
X4.6811Y-5.2441
X4.6831Y-4.7323
X4.685Y-4.5717
X4.689Y-4.4713
X4.6949Y-4.5315
X4.6988Y-5.2756
X4.7008Y-5.3957
X4.7087Y-2.6535
X4.7126Y-2.685
X4.7165Y-2.622
X4.7283Y-2.7126
X4.7323Y-2.5945
X4.7382Y-5.2677
X4.752Y-2.5748
X4.752Y-2.7402
X4.7539Y-5.2067
X4.7565Y-4.6285
X4.7579Y-5.3643
X4.7695Y-5.4783
X4.7756Y-2.7638
X4.7756Y-2.5512
X4.7835Y-4.5433
X4.7874Y-4.7776
X4.79Y-5.3948
X4.7949Y-4.6179
X4.7953Y-5.1614
X4.8031Y-2.5394
X4.8051Y-5.0207
X4.811Y-2.7638
X4.8181Y-4.7067
X4.8228Y-5.3465
X4.8307Y-5.0984
X4.8346Y-2.5315
X4.8346Y-4.6063
X4.8425Y-2.7638
X4.8465Y-4.8307
X4.8488Y-4.7066
X4.8489Y-5.3685
X4.8498Y-4.7598
X4.8524Y-4.5697
X4.8525Y-4.8821
X4.8622Y-4.9689
X4.8652Y-5.0257
X4.866Y-5.1464
X4.8661Y-2.5433
X4.8701Y-2.36
X4.8701Y-2.3976
X4.8701Y-2.4291
X4.874Y-2.4606
X4.877Y-4.7161
X4.878Y-2.7717
X4.88Y-2.33
X4.8858Y-2.5
X4.8858Y-2.5669
X4.8861Y-5.4054
X4.89Y-2.3
X4.8967Y-5.5037
X4.8976Y-5.3504
X4.8977Y-4.7401
X4.9047Y-4.5708
X4.9055Y-2.7874
X4.9055Y-2.5906
X4.91Y-2.2795
X4.9134Y-2.5197
X4.9134Y-5.6417
X4.9213Y-2.6772
X4.9252Y-2.6142
X4.9252Y-2.7087
X4.9272Y-2.8091
X4.9291Y-5.2008
X4.9331Y-2.6457
X4.936Y-5.4401
X4.9366Y-4.8548
X4.937Y-4.9882
X4.9409Y-2.5354
X4.9424Y-4.7157
X4.9438Y-5.0453
X4.9449Y-2.2756
X4.9488Y-2.8346
X4.9488Y-2.5669
X4.9488Y-2.7323
X4.9567Y-2.5984
X4.9606Y-4.3622
X4.9724Y-2.7559
X4.9724Y-2.8543
X4.9744Y-2.624
X4.9763Y-5.372
X4.9843Y-2.2717
X4.9921Y-2.7795
X4.9961Y-2.878
X5.0Y-2.6417
X5.0031Y-5.3597
X5.0039Y-3.237
X5.0039Y-3.3031
X5.0043Y-4.7075
X5.0074Y-4.5689
X5.0079Y-4.4429
X5.0118Y-2.5236
X5.0118Y-2.5551
X5.0157Y-4.6122
X5.0177Y-2.8051
X5.0197Y-2.8976
X5.0226Y-2.7606
X5.0261Y-5.2049
X5.0276Y-2.2559
X5.0315Y-2.5827
X5.0315Y-2.6535
X5.0329Y-5.3694
X5.0343Y-4.8454
X5.0354Y-3.6654
X5.0383Y-4.7087
X5.0394Y-5.0472
X5.0433Y-2.5236
X5.0442Y-5.3967
X5.0472Y-2.8346
X5.0488Y-5.1275
X5.0551Y-5.3296
X5.0551Y-2.2756
X5.0559Y-5.2049
X5.0571Y-4.872
X5.0591Y-4.6031
X5.063Y-2.5945
X5.0669Y-2.6575
X5.0678Y-4.7067
X5.0689Y-4.4193
X5.0709Y-2.5039
X5.0709Y-2.8504
X5.0787Y-2.3031
X5.0824Y-2.3465
X5.0827Y-2.4587
X5.0827Y-4.3465
X5.0863Y-5.3318
X5.0866Y-2.3819
X5.0866Y-2.4213
X5.0887Y-3.0696
X5.0984Y-2.5945
X5.0984Y-2.6575
X5.0984Y-2.8543
X5.1029Y-5.3562
X5.1142Y-3.5276
X5.1202Y-5.3802
X5.1496Y-5.3197
X5.1519Y-3.3031
X5.1572Y-5.4291
X5.1649Y-5.0114
X5.185Y-5.1336
X5.185Y-5.7205
X5.1884Y-5.4317
X5.1952Y-3.3009
X5.2008Y-5.3189
X5.2028Y-4.5687
X5.2049Y-4.7305
X5.2158Y-5.1693
X5.2165Y-5.0906
X5.2165Y-5.1339
X5.2205Y-4.4449
X5.2205Y-5.2047
X5.2265Y-4.7096
X5.2283Y-5.8386
X5.2402Y-3.6299
X5.2442Y-4.6093
X5.2468Y-4.9909
X5.2501Y-5.0202
X5.252Y-4.9567
X5.252Y-5.6949
X5.2598Y-3.248
X5.2598Y-3.6024
X5.2677Y-4.5913
X5.2736Y-3.0217
X5.2795Y-4.7402
X5.283Y-4.8234
X5.2835Y-3.2874
X5.2854Y-4.9582
X5.2972Y-4.3484
X5.2992Y-5.7126
X5.2992Y-5.7559
X5.3071Y-4.4555
X5.3327Y-4.6043
X5.3362Y-5.394
X5.3425Y-3.6417
X5.3425Y-4.6811
X5.3583Y-5.4331
X5.374Y-2.2528
X5.3807Y-5.6142
X5.3858Y-4.561
X5.387Y-4.8743
X5.4094Y-4.8346
X5.4094Y-5.2205
X5.4094Y-5.937
X5.4114Y-5.061
X5.4166Y-4.878
X5.4232Y-2.9035
X5.4311Y-4.628
X5.435Y-3.1339
X5.4445Y-5.2249
X5.4488Y-5.9094
X5.4524Y-5.6417
X5.4528Y-3.6142
X5.4621Y-3.6422
X5.4646Y-5.2677
X5.4724Y-2.3937
X5.4842Y-5.2025
X5.493Y-5.2596
X5.4939Y-5.4723
X5.5039Y-5.5669
X5.5098Y-2.5453
X5.5157Y-4.372
X5.5195Y-5.4215
X5.5217Y-4.628
X5.5276Y-2.3937
X5.5276Y-4.748
X5.5319Y-4.2913
X5.5376Y-4.6909
X5.5386Y-5.5676
X5.5433Y-2.2598
X5.5438Y-5.0183
X5.5487Y-5.4168
X5.5568Y-5.5908
X5.5583Y-4.9475
X5.5593Y-5.061
X5.5704Y-5.15
X5.5709Y-4.8976
X5.575Y-5.0184
X5.5768Y-3.3867
X5.5787Y-4.3701
X5.5797Y-4.9721
X5.5807Y-5.4311
X5.5807Y-5.2205
X5.5906Y-2.3858
X5.5906Y-3.2559
X5.5906Y-5.9843
X5.5981Y-5.4883
X5.6036Y-5.0112
X5.6048Y-5.4088
X5.6073Y-3.0069
X5.6378Y-2.3858
X5.6378Y-3.1299
X5.6417Y-5.2234
X5.6485Y-3.0025
X5.6535Y-4.6339
X5.6663Y-3.0325
X5.6713Y-4.8189
X5.6772Y-2.378
X5.6772Y-3.0854
X5.6916Y-2.7652
X5.694Y-3.2766
X5.7047Y-5.5827
X5.7054Y-4.6791
X5.7075Y-4.8602
X5.7087Y-5.1594
X5.7098Y-3.4517
X5.7116Y-3.1311
X5.7146Y-5.8268
X5.7165Y-2.3858
X5.7185Y-2.8827
X5.7193Y-3.0382
X5.7283Y-5.7559
X5.7323Y-5.2205
X5.7351Y-3.0631
X5.7357Y-5.322
X5.7412Y-3.1089
X5.7484Y-2.8802
X5.7539Y-5.4252
X5.7579Y-3.2598
X5.7657Y-4.9469
X5.766Y-5.5835
X5.7756Y-5.4823
X5.7756Y-5.5433
X5.7776Y-2.8846
X5.7848Y-4.806
X5.8051Y-5.5437
X5.811Y-5.4803
X5.818Y-3.5148
X5.8268Y-2.4744
X5.8297Y-3.1339
X5.8445Y-4.8602
X5.8504Y-3.2598
X5.8504Y-5.1679
X5.8533Y-2.4006
X5.8543Y-2.8787
X5.8634Y-2.7657
X5.8711Y-2.7234
X5.8875Y-5.6075
X5.8937Y-3.1339
X5.9134Y-2.8858
X5.9343Y-2.5938
X5.9398Y-3.0492
X5.9639Y-4.9849
X5.9665Y-2.6713
X5.9799Y-3.0091
X5.9961Y-2.7618
X5.9987Y-3.2459
X6.0039Y-5.5748
X6.0414Y-2.5904
X6.0423Y-2.9055
X6.0591Y-2.5098
X6.0709Y-2.5925
X6.0768Y-2.6929
X6.0881Y-3.1406
X6.1191Y-2.2411
X6.1237Y-3.0923
X6.126Y-5.7402
X6.1496Y-2.4547
X6.1555Y-5.6299
X6.1614Y-3.126
X6.1811Y-2.5709
X6.185Y-2.6752
X6.19Y-5.1588
X6.1929Y-2.4081
X6.1988Y-2.7267
X6.1988Y-2.439
X6.2047Y-2.9173
X6.2244Y-5.6378
X6.2323Y-5.2323
X6.2333Y-5.1594
X6.2392Y-5.5226
X6.2441Y-2.4902
X6.248Y-6.0197
X6.249Y-3.0541
X6.2496Y-5.7492
X6.2508Y-5.6537
X6.256Y-5.3314
X6.2577Y-5.4724
X6.2619Y-5.1482
X6.2638Y-3.3051
X6.2756Y-5.5236
X6.279Y-5.7524
X6.2825Y-5.6447
X6.2835Y-3.1299
X6.2835Y-6.0236
X6.2854Y-2.436
X6.2854Y-5.2205
X6.2969Y-5.6056
X6.2972Y-5.372
X6.3051Y-4.8602
X6.3071Y-5.5157
X6.315Y-3.1102
X6.3238Y-5.6496
X6.3248Y-2.757
X6.3307Y-4.8386
X6.3386Y-3.2598
X6.3386Y-2.591
X6.3404Y-5.4864
X6.3406Y-2.2618
X6.3445Y-3.062
X6.3445Y-5.5866
X6.3474Y-5.2923
X6.3541Y-5.0985
X6.361Y-4.8609
X6.3701Y-3.252
X6.3819Y-5.0118
X6.3874Y-5.3153
X6.3906Y-4.8541
X6.3924Y-5.7392
X6.4026Y-2.4203
X6.4108Y-5.093
X6.4133Y-5.644
X6.4173Y-3.0197
X6.4176Y-4.9661
X6.4252Y-5.4724
X6.4518Y-5.5994
X6.4541Y-5.0542
X6.4675Y-2.3455
X6.4724Y-5.8899
X6.4803Y-5.3298
X6.4902Y-5.4894
X6.4942Y-5.774
X6.4962Y-5.1645
X6.5Y-5.7411
X6.5009Y-3.2268
X6.5059Y-3.124
X6.5059Y-3.2559
X6.5096Y-5.3582
X6.5112Y-2.689
X6.5138Y-3.0728
X6.5177Y-5.6378
X6.5385Y-3.2559
X6.5453Y-3.0382
X6.5453Y-3.2008
X6.5492Y-4.8425
X6.5512Y-3.6496
X6.5748Y-2.8898
X6.5787Y-3.1929
X6.5846Y-5.4823
X6.5861Y-5.3534
X6.5929Y-5.1929
X6.597Y-5.2928
X6.5984Y-2.9213
X6.6024Y-5.3287
X6.6043Y-2.5402
X6.6102Y-2.3228
X6.6142Y-3.4016
X6.6142Y-5.7205
X6.6257Y-5.087
X6.6339Y-3.1202
X6.6339Y-3.4213
X6.6417Y-5.497
X6.6496Y-3.6181
X6.6535Y-3.1496
X6.6536Y-3.2086
X6.6575Y-3.2606
X6.6594Y-3.3042
X6.6633Y-3.501
X6.6665Y-5.7049
X6.6693Y-5.1496
X6.6735Y-3.4731
X6.6811Y-3.6142
X6.687Y-3.2619
X6.7165Y-5.1732
X6.7354Y-4.8394
X6.7362Y-3.2559
X6.7559Y-2.81
X6.7592Y-3.6015
X6.7638Y-3.4016
X6.7977Y-3.7973
X6.8098Y-4.852
X6.811Y-3.2835
X6.811Y-3.4374
X6.811Y-3.3858
X6.815Y-3.5827
X6.8268Y-2.926
X6.8278Y-2.2963
X6.8283Y-5.4646
X6.8319Y-5.0629
X6.8405Y-5.0346
X6.8531Y-4.8478
X6.8599Y-4.763
X6.8622Y-3.2638
X6.8622Y-5.7559
X6.8635Y-4.8755
X6.8661Y-2.8898
X6.8661Y-3.0315
X6.9213Y-3.0079
X6.9237Y-4.6974
X6.9272Y-5.376
X6.9291Y-4.7383
X6.937Y-3.4803
X6.937Y-3.5118
X6.9606Y-5.4004
X6.9921Y-3.2677
X6.9921Y-4.9921
X6.9961Y-2.926
X7.0118Y-2.9929
X7.0292Y-3.9949
X7.0339Y-3.6874
X7.0354Y-5.5039
X7.0512Y-2.3472
X7.0512Y-3.1614
X7.0551Y-4.2845
X7.0571Y-3.5522
X7.0575Y-4.0595
X7.059Y-4.0001
X7.0591Y-3.3425
X7.0591Y-4.3973
X7.0602Y-4.8452
X7.0602Y-4.1673
X7.0602Y-3.3091
X7.0602Y-4.4785
X7.0602Y-4.5854
X7.0621Y-3.7756
X7.0628Y-4.1995
X7.065Y-3.7224
X7.0666Y-3.9696
X7.0689Y-4.817
X7.0865Y-3.5498
X7.0888Y-3.3378
X7.1087Y-5.0513
X7.1137Y-3.0445
X7.1191Y-5.0874
T2
X5.3307Y-2.3819
X5.3819Y-3.1102
X5.4173Y-2.3819
X5.5098Y-2.9705
X5.7677Y-2.4055
X6.0079Y-2.2441
X6.548Y-3.4824
X6.5731Y-3.5371
X6.7402Y-2.2992
X6.1594Y-5.8356
X6.185Y-5.8632
X6.2165Y-5.8632
X6.2323Y-5.8356
X6.248Y-5.8632
X6.2638Y-5.8356
X6.2953Y-5.8356
X6.311Y-5.8632
X6.3268Y-5.8356
X6.3425Y-5.8632
X6.374Y-5.8632
X6.3996Y-5.8356
T3
X6.1201Y-5.8199
X6.439Y-5.8199
T4
X5.8681Y-5.6417
X5.9429Y-5.6417
T5
X6.1024Y-5.7982
X6.4567Y-5.7982
T6
X4.7126Y-3.4843
X4.7126Y-3.563
X4.7126Y-3.6417
X4.7126Y-3.7992
X5.8071Y-5.9665
X5.8071Y-6.0965
X5.9055Y-5.9665
X5.9055Y-6.0965
X6.0039Y-5.9665
X6.0039Y-6.0965
X4.7264Y-2.8937
X4.7264Y-2.9724
X4.7264Y-3.0512
X4.7264Y-3.1299
X4.7264Y-3.2087
X4.7264Y-3.2874
X4.8248Y-2.8937
X4.8248Y-2.9724
X4.8248Y-3.0512
X4.8248Y-3.1299
X4.8248Y-3.2087
X4.8248Y-3.2874
T7
X4.8465Y-3.4961
X4.9449Y-3.4961
X5.0433Y-3.4961
T8
X6.6445Y-5.2402
X6.8445Y-5.2402
X7.0445Y-5.2402
T9
X4.6654Y-2.8307
X4.8858Y-3.3504
T10
X4.7126Y-3.4016
X4.7126Y-3.8819
T11
X5.7283Y-4.5472
X5.7283Y-4.5472
X6.1732Y-4.8996
X6.1732Y-4.8996
T12
X6.063Y-5.2756
T5
G00X6.1024Y-6.0069
M15
G01X6.1024Y-6.0423
M16
G05
G00X6.4567Y-6.0069
M15
G01X6.4567Y-6.0423
M16
G05
T0
M30
