G04 #@! TF.GenerationSoftware,KiCad,Pcbnew,5.1.6+dfsg1-1~bpo10+1*
G04 #@! TF.CreationDate,2021-06-19T16:41:49-04:00*
G04 #@! TF.ProjectId,RUSP_Daughterboard,52555350-5f44-4617-9567-68746572626f,rev?*
G04 #@! TF.SameCoordinates,Original*
G04 #@! TF.FileFunction,Other,Fab,Bot*
%FSLAX46Y46*%
G04 Gerber Fmt 4.6, Leading zero omitted, Abs format (unit mm)*
G04 Created by KiCad (PCBNEW 5.1.6+dfsg1-1~bpo10+1) date 2021-06-19 16:41:49*
%MOMM*%
%LPD*%
G01*
G04 APERTURE LIST*
%ADD10C,0.100000*%
%ADD11C,0.150000*%
%ADD12C,0.040000*%
%ADD13C,0.050000*%
%ADD14C,0.135000*%
G04 APERTURE END LIST*
D10*
X172900000Y-113100000D02*
X172900000Y-112600000D01*
X172900000Y-112600000D02*
X171900000Y-112600000D01*
X171900000Y-112600000D02*
X171900000Y-113100000D01*
X171900000Y-113100000D02*
X172900000Y-113100000D01*
X176800000Y-112550000D02*
X176800000Y-113050000D01*
X176800000Y-113050000D02*
X177800000Y-113050000D01*
X177800000Y-113050000D02*
X177800000Y-112550000D01*
X177800000Y-112550000D02*
X176800000Y-112550000D01*
X124300000Y-96450000D02*
X125300000Y-96450000D01*
X124300000Y-95950000D02*
X124300000Y-96450000D01*
X125300000Y-95950000D02*
X124300000Y-95950000D01*
X125300000Y-96450000D02*
X125300000Y-95950000D01*
X124525000Y-114600000D02*
X125525000Y-114600000D01*
X124525000Y-114100000D02*
X124525000Y-114600000D01*
X125525000Y-114100000D02*
X124525000Y-114100000D01*
X125525000Y-114600000D02*
X125525000Y-114100000D01*
X125690000Y-107500000D02*
X125690000Y-107000000D01*
X125690000Y-107000000D02*
X124690000Y-107000000D01*
X124690000Y-107000000D02*
X124690000Y-107500000D01*
X124690000Y-107500000D02*
X125690000Y-107500000D01*
X176650000Y-124750000D02*
X177650000Y-124750000D01*
X176650000Y-124250000D02*
X176650000Y-124750000D01*
X177650000Y-124250000D02*
X176650000Y-124250000D01*
X177650000Y-124750000D02*
X177650000Y-124250000D01*
X172200000Y-124300000D02*
X172200000Y-124800000D01*
X172200000Y-124800000D02*
X173200000Y-124800000D01*
X173200000Y-124800000D02*
X173200000Y-124300000D01*
X173200000Y-124300000D02*
X172200000Y-124300000D01*
X124300000Y-95050000D02*
X125300000Y-95050000D01*
X124300000Y-94550000D02*
X124300000Y-95050000D01*
X125300000Y-94550000D02*
X124300000Y-94550000D01*
X125300000Y-95050000D02*
X125300000Y-94550000D01*
X125515000Y-113275000D02*
X125515000Y-112775000D01*
X125515000Y-112775000D02*
X124515000Y-112775000D01*
X124515000Y-112775000D02*
X124515000Y-113275000D01*
X124515000Y-113275000D02*
X125515000Y-113275000D01*
X124600000Y-108725000D02*
X125600000Y-108725000D01*
X124600000Y-108225000D02*
X124600000Y-108725000D01*
X125600000Y-108225000D02*
X124600000Y-108225000D01*
X125600000Y-108725000D02*
X125600000Y-108225000D01*
X127250000Y-86500000D02*
G75*
G03*
X127250000Y-86500000I-750000J0D01*
G01*
X172250000Y-70500000D02*
G75*
G03*
X172250000Y-70500000I-750000J0D01*
G01*
X172250000Y-137000000D02*
G75*
G03*
X172250000Y-137000000I-750000J0D01*
G01*
D11*
X159450000Y-126000000D02*
X159450000Y-129000000D01*
X166950000Y-126000000D02*
X159450000Y-126000000D01*
X166950000Y-129000000D02*
X166950000Y-126000000D01*
X159450000Y-129000000D02*
X166950000Y-129000000D01*
X159450000Y-136700000D02*
X166950000Y-136700000D01*
X166950000Y-136700000D02*
X166950000Y-133700000D01*
X166950000Y-133700000D02*
X159450000Y-133700000D01*
X159450000Y-133700000D02*
X159450000Y-136700000D01*
D10*
X168900000Y-121350000D02*
X169400000Y-121350000D01*
X169400000Y-121350000D02*
X169400000Y-120350000D01*
X169400000Y-120350000D02*
X168900000Y-120350000D01*
X168900000Y-120350000D02*
X168900000Y-121350000D01*
D11*
X173900000Y-122950000D02*
X176800000Y-122950000D01*
X176800000Y-122950000D02*
X176800000Y-114250000D01*
X176800000Y-114250000D02*
X172900000Y-114250000D01*
X172900000Y-114250000D02*
X172900000Y-121950000D01*
X172900000Y-121950000D02*
X173900000Y-122950000D01*
D10*
X124100000Y-98400000D02*
X124100000Y-101200000D01*
X124100000Y-101200000D02*
X125900000Y-101200000D01*
X125900000Y-101200000D02*
X125900000Y-98400000D01*
X125900000Y-98400000D02*
X124100000Y-98400000D01*
X125000000Y-99050000D02*
X125000000Y-99450000D01*
X125000000Y-99450000D02*
X124450000Y-99450000D01*
X125000000Y-99450000D02*
X125550000Y-99450000D01*
X125000000Y-99450000D02*
X124600000Y-100050000D01*
X124600000Y-100050000D02*
X125400000Y-100050000D01*
X125400000Y-100050000D02*
X125000000Y-99450000D01*
X125000000Y-100050000D02*
X125000000Y-100550000D01*
X141700000Y-108550000D02*
X141700000Y-108050000D01*
X141300000Y-108550000D02*
X141700000Y-109150000D01*
X142100000Y-108550000D02*
X141300000Y-108550000D01*
X141700000Y-109150000D02*
X142100000Y-108550000D01*
X141700000Y-109150000D02*
X141150000Y-109150000D01*
X141700000Y-109150000D02*
X142250000Y-109150000D01*
X141700000Y-109550000D02*
X141700000Y-109150000D01*
X140800000Y-110200000D02*
X142600000Y-110200000D01*
X140800000Y-107400000D02*
X140800000Y-110200000D01*
X142600000Y-107400000D02*
X140800000Y-107400000D01*
X142600000Y-110200000D02*
X142600000Y-107400000D01*
D11*
X172995238Y-114472380D02*
X173566666Y-114472380D01*
X173280952Y-114472380D02*
X173280952Y-113472380D01*
X173376190Y-113615238D01*
X173471428Y-113710476D01*
X173566666Y-113758095D01*
X172376190Y-113472380D02*
X172280952Y-113472380D01*
X172185714Y-113520000D01*
X172138095Y-113567619D01*
X172090476Y-113662857D01*
X172042857Y-113853333D01*
X172042857Y-114091428D01*
X172090476Y-114281904D01*
X172138095Y-114377142D01*
X172185714Y-114424761D01*
X172280952Y-114472380D01*
X172376190Y-114472380D01*
X172471428Y-114424761D01*
X172519047Y-114377142D01*
X172566666Y-114281904D01*
X172614285Y-114091428D01*
X172614285Y-113853333D01*
X172566666Y-113662857D01*
X172519047Y-113567619D01*
X172471428Y-113520000D01*
X172376190Y-113472380D01*
X171614285Y-114472380D02*
X171614285Y-113472380D01*
X171519047Y-114091428D02*
X171233333Y-114472380D01*
X171233333Y-113805714D02*
X171614285Y-114186666D01*
D12*
X172560714Y-112963095D02*
X172644047Y-112844047D01*
X172703571Y-112963095D02*
X172703571Y-112713095D01*
X172608333Y-112713095D01*
X172584523Y-112725000D01*
X172572619Y-112736904D01*
X172560714Y-112760714D01*
X172560714Y-112796428D01*
X172572619Y-112820238D01*
X172584523Y-112832142D01*
X172608333Y-112844047D01*
X172703571Y-112844047D01*
X172477380Y-112713095D02*
X172322619Y-112713095D01*
X172405952Y-112808333D01*
X172370238Y-112808333D01*
X172346428Y-112820238D01*
X172334523Y-112832142D01*
X172322619Y-112855952D01*
X172322619Y-112915476D01*
X172334523Y-112939285D01*
X172346428Y-112951190D01*
X172370238Y-112963095D01*
X172441666Y-112963095D01*
X172465476Y-112951190D01*
X172477380Y-112939285D01*
X172108333Y-112796428D02*
X172108333Y-112963095D01*
X172167857Y-112701190D02*
X172227380Y-112879761D01*
X172072619Y-112879761D01*
D11*
X177990476Y-111177619D02*
X177942857Y-111130000D01*
X177847619Y-111082380D01*
X177609523Y-111082380D01*
X177514285Y-111130000D01*
X177466666Y-111177619D01*
X177419047Y-111272857D01*
X177419047Y-111368095D01*
X177466666Y-111510952D01*
X178038095Y-112082380D01*
X177419047Y-112082380D01*
X176990476Y-112082380D02*
X176990476Y-111082380D01*
X176895238Y-111701428D02*
X176609523Y-112082380D01*
X176609523Y-111415714D02*
X176990476Y-111796666D01*
D12*
X177341666Y-112913095D02*
X177425000Y-112794047D01*
X177484523Y-112913095D02*
X177484523Y-112663095D01*
X177389285Y-112663095D01*
X177365476Y-112675000D01*
X177353571Y-112686904D01*
X177341666Y-112710714D01*
X177341666Y-112746428D01*
X177353571Y-112770238D01*
X177365476Y-112782142D01*
X177389285Y-112794047D01*
X177484523Y-112794047D01*
X177103571Y-112913095D02*
X177246428Y-112913095D01*
X177175000Y-112913095D02*
X177175000Y-112663095D01*
X177198809Y-112698809D01*
X177222619Y-112722619D01*
X177246428Y-112734523D01*
D11*
X127871428Y-97155714D02*
X127871428Y-97822380D01*
X128109523Y-96774761D02*
X128347619Y-97489047D01*
X127728571Y-97489047D01*
X127442857Y-96822380D02*
X126776190Y-96822380D01*
X127204761Y-97822380D01*
X126395238Y-97155714D02*
X126395238Y-98155714D01*
X126395238Y-97203333D02*
X126300000Y-97155714D01*
X126109523Y-97155714D01*
X126014285Y-97203333D01*
X125966666Y-97250952D01*
X125919047Y-97346190D01*
X125919047Y-97631904D01*
X125966666Y-97727142D01*
X126014285Y-97774761D01*
X126109523Y-97822380D01*
X126300000Y-97822380D01*
X126395238Y-97774761D01*
X125157142Y-97298571D02*
X125490476Y-97298571D01*
X125490476Y-97822380D02*
X125490476Y-96822380D01*
X125014285Y-96822380D01*
X123919047Y-96774761D02*
X124776190Y-98060476D01*
X123109523Y-96822380D02*
X123585714Y-96822380D01*
X123633333Y-97298571D01*
X123585714Y-97250952D01*
X123490476Y-97203333D01*
X123252380Y-97203333D01*
X123157142Y-97250952D01*
X123109523Y-97298571D01*
X123061904Y-97393809D01*
X123061904Y-97631904D01*
X123109523Y-97727142D01*
X123157142Y-97774761D01*
X123252380Y-97822380D01*
X123490476Y-97822380D01*
X123585714Y-97774761D01*
X123633333Y-97727142D01*
X122442857Y-96822380D02*
X122347619Y-96822380D01*
X122252380Y-96870000D01*
X122204761Y-96917619D01*
X122157142Y-97012857D01*
X122109523Y-97203333D01*
X122109523Y-97441428D01*
X122157142Y-97631904D01*
X122204761Y-97727142D01*
X122252380Y-97774761D01*
X122347619Y-97822380D01*
X122442857Y-97822380D01*
X122538095Y-97774761D01*
X122585714Y-97727142D01*
X122633333Y-97631904D01*
X122680952Y-97441428D01*
X122680952Y-97203333D01*
X122633333Y-97012857D01*
X122585714Y-96917619D01*
X122538095Y-96870000D01*
X122442857Y-96822380D01*
X121823809Y-96822380D02*
X121490476Y-97822380D01*
X121157142Y-96822380D01*
D12*
X124841666Y-96289285D02*
X124853571Y-96301190D01*
X124889285Y-96313095D01*
X124913095Y-96313095D01*
X124948809Y-96301190D01*
X124972619Y-96277380D01*
X124984523Y-96253571D01*
X124996428Y-96205952D01*
X124996428Y-96170238D01*
X124984523Y-96122619D01*
X124972619Y-96098809D01*
X124948809Y-96075000D01*
X124913095Y-96063095D01*
X124889285Y-96063095D01*
X124853571Y-96075000D01*
X124841666Y-96086904D01*
X124603571Y-96313095D02*
X124746428Y-96313095D01*
X124675000Y-96313095D02*
X124675000Y-96063095D01*
X124698809Y-96098809D01*
X124722619Y-96122619D01*
X124746428Y-96134523D01*
D11*
X128096428Y-115305714D02*
X128096428Y-115972380D01*
X128334523Y-114924761D02*
X128572619Y-115639047D01*
X127953571Y-115639047D01*
X127667857Y-114972380D02*
X127001190Y-114972380D01*
X127429761Y-115972380D01*
X126620238Y-115305714D02*
X126620238Y-116305714D01*
X126620238Y-115353333D02*
X126525000Y-115305714D01*
X126334523Y-115305714D01*
X126239285Y-115353333D01*
X126191666Y-115400952D01*
X126144047Y-115496190D01*
X126144047Y-115781904D01*
X126191666Y-115877142D01*
X126239285Y-115924761D01*
X126334523Y-115972380D01*
X126525000Y-115972380D01*
X126620238Y-115924761D01*
X125382142Y-115448571D02*
X125715476Y-115448571D01*
X125715476Y-115972380D02*
X125715476Y-114972380D01*
X125239285Y-114972380D01*
X124144047Y-114924761D02*
X125001190Y-116210476D01*
X123334523Y-114972380D02*
X123810714Y-114972380D01*
X123858333Y-115448571D01*
X123810714Y-115400952D01*
X123715476Y-115353333D01*
X123477380Y-115353333D01*
X123382142Y-115400952D01*
X123334523Y-115448571D01*
X123286904Y-115543809D01*
X123286904Y-115781904D01*
X123334523Y-115877142D01*
X123382142Y-115924761D01*
X123477380Y-115972380D01*
X123715476Y-115972380D01*
X123810714Y-115924761D01*
X123858333Y-115877142D01*
X122667857Y-114972380D02*
X122572619Y-114972380D01*
X122477380Y-115020000D01*
X122429761Y-115067619D01*
X122382142Y-115162857D01*
X122334523Y-115353333D01*
X122334523Y-115591428D01*
X122382142Y-115781904D01*
X122429761Y-115877142D01*
X122477380Y-115924761D01*
X122572619Y-115972380D01*
X122667857Y-115972380D01*
X122763095Y-115924761D01*
X122810714Y-115877142D01*
X122858333Y-115781904D01*
X122905952Y-115591428D01*
X122905952Y-115353333D01*
X122858333Y-115162857D01*
X122810714Y-115067619D01*
X122763095Y-115020000D01*
X122667857Y-114972380D01*
X122048809Y-114972380D02*
X121715476Y-115972380D01*
X121382142Y-114972380D01*
D12*
X125066666Y-114439285D02*
X125078571Y-114451190D01*
X125114285Y-114463095D01*
X125138095Y-114463095D01*
X125173809Y-114451190D01*
X125197619Y-114427380D01*
X125209523Y-114403571D01*
X125221428Y-114355952D01*
X125221428Y-114320238D01*
X125209523Y-114272619D01*
X125197619Y-114248809D01*
X125173809Y-114225000D01*
X125138095Y-114213095D01*
X125114285Y-114213095D01*
X125078571Y-114225000D01*
X125066666Y-114236904D01*
X124971428Y-114236904D02*
X124959523Y-114225000D01*
X124935714Y-114213095D01*
X124876190Y-114213095D01*
X124852380Y-114225000D01*
X124840476Y-114236904D01*
X124828571Y-114260714D01*
X124828571Y-114284523D01*
X124840476Y-114320238D01*
X124983333Y-114463095D01*
X124828571Y-114463095D01*
D11*
X128261428Y-108205714D02*
X128261428Y-108872380D01*
X128499523Y-107824761D02*
X128737619Y-108539047D01*
X128118571Y-108539047D01*
X127832857Y-107872380D02*
X127166190Y-107872380D01*
X127594761Y-108872380D01*
X126785238Y-108205714D02*
X126785238Y-109205714D01*
X126785238Y-108253333D02*
X126690000Y-108205714D01*
X126499523Y-108205714D01*
X126404285Y-108253333D01*
X126356666Y-108300952D01*
X126309047Y-108396190D01*
X126309047Y-108681904D01*
X126356666Y-108777142D01*
X126404285Y-108824761D01*
X126499523Y-108872380D01*
X126690000Y-108872380D01*
X126785238Y-108824761D01*
X125547142Y-108348571D02*
X125880476Y-108348571D01*
X125880476Y-108872380D02*
X125880476Y-107872380D01*
X125404285Y-107872380D01*
X124309047Y-107824761D02*
X125166190Y-109110476D01*
X123499523Y-107872380D02*
X123975714Y-107872380D01*
X124023333Y-108348571D01*
X123975714Y-108300952D01*
X123880476Y-108253333D01*
X123642380Y-108253333D01*
X123547142Y-108300952D01*
X123499523Y-108348571D01*
X123451904Y-108443809D01*
X123451904Y-108681904D01*
X123499523Y-108777142D01*
X123547142Y-108824761D01*
X123642380Y-108872380D01*
X123880476Y-108872380D01*
X123975714Y-108824761D01*
X124023333Y-108777142D01*
X122832857Y-107872380D02*
X122737619Y-107872380D01*
X122642380Y-107920000D01*
X122594761Y-107967619D01*
X122547142Y-108062857D01*
X122499523Y-108253333D01*
X122499523Y-108491428D01*
X122547142Y-108681904D01*
X122594761Y-108777142D01*
X122642380Y-108824761D01*
X122737619Y-108872380D01*
X122832857Y-108872380D01*
X122928095Y-108824761D01*
X122975714Y-108777142D01*
X123023333Y-108681904D01*
X123070952Y-108491428D01*
X123070952Y-108253333D01*
X123023333Y-108062857D01*
X122975714Y-107967619D01*
X122928095Y-107920000D01*
X122832857Y-107872380D01*
X122213809Y-107872380D02*
X121880476Y-108872380D01*
X121547142Y-107872380D01*
D12*
X125231666Y-107339285D02*
X125243571Y-107351190D01*
X125279285Y-107363095D01*
X125303095Y-107363095D01*
X125338809Y-107351190D01*
X125362619Y-107327380D01*
X125374523Y-107303571D01*
X125386428Y-107255952D01*
X125386428Y-107220238D01*
X125374523Y-107172619D01*
X125362619Y-107148809D01*
X125338809Y-107125000D01*
X125303095Y-107113095D01*
X125279285Y-107113095D01*
X125243571Y-107125000D01*
X125231666Y-107136904D01*
X125148333Y-107113095D02*
X124993571Y-107113095D01*
X125076904Y-107208333D01*
X125041190Y-107208333D01*
X125017380Y-107220238D01*
X125005476Y-107232142D01*
X124993571Y-107255952D01*
X124993571Y-107315476D01*
X125005476Y-107339285D01*
X125017380Y-107351190D01*
X125041190Y-107363095D01*
X125112619Y-107363095D01*
X125136428Y-107351190D01*
X125148333Y-107339285D01*
D11*
X178507142Y-126027142D02*
X178459523Y-126074761D01*
X178507142Y-126122380D01*
X178554761Y-126074761D01*
X178507142Y-126027142D01*
X178507142Y-126122380D01*
X177507142Y-126122380D02*
X178078571Y-126122380D01*
X177792857Y-126122380D02*
X177792857Y-125122380D01*
X177888095Y-125265238D01*
X177983333Y-125360476D01*
X178078571Y-125408095D01*
X176650000Y-125455714D02*
X176650000Y-126122380D01*
X177078571Y-125455714D02*
X177078571Y-125979523D01*
X177030952Y-126074761D01*
X176935714Y-126122380D01*
X176792857Y-126122380D01*
X176697619Y-126074761D01*
X176650000Y-126027142D01*
X175840476Y-125598571D02*
X176173809Y-125598571D01*
X176173809Y-126122380D02*
X176173809Y-125122380D01*
X175697619Y-125122380D01*
D12*
X177310714Y-124589285D02*
X177322619Y-124601190D01*
X177358333Y-124613095D01*
X177382142Y-124613095D01*
X177417857Y-124601190D01*
X177441666Y-124577380D01*
X177453571Y-124553571D01*
X177465476Y-124505952D01*
X177465476Y-124470238D01*
X177453571Y-124422619D01*
X177441666Y-124398809D01*
X177417857Y-124375000D01*
X177382142Y-124363095D01*
X177358333Y-124363095D01*
X177322619Y-124375000D01*
X177310714Y-124386904D01*
X177096428Y-124446428D02*
X177096428Y-124613095D01*
X177155952Y-124351190D02*
X177215476Y-124529761D01*
X177060714Y-124529761D01*
X176858333Y-124446428D02*
X176858333Y-124613095D01*
X176917857Y-124351190D02*
X176977380Y-124529761D01*
X176822619Y-124529761D01*
D11*
X174057142Y-123737142D02*
X174009523Y-123784761D01*
X174057142Y-123832380D01*
X174104761Y-123784761D01*
X174057142Y-123737142D01*
X174057142Y-123832380D01*
X173057142Y-123832380D02*
X173628571Y-123832380D01*
X173342857Y-123832380D02*
X173342857Y-122832380D01*
X173438095Y-122975238D01*
X173533333Y-123070476D01*
X173628571Y-123118095D01*
X172200000Y-123165714D02*
X172200000Y-123832380D01*
X172628571Y-123165714D02*
X172628571Y-123689523D01*
X172580952Y-123784761D01*
X172485714Y-123832380D01*
X172342857Y-123832380D01*
X172247619Y-123784761D01*
X172200000Y-123737142D01*
X171390476Y-123308571D02*
X171723809Y-123308571D01*
X171723809Y-123832380D02*
X171723809Y-122832380D01*
X171247619Y-122832380D01*
D12*
X172860714Y-124639285D02*
X172872619Y-124651190D01*
X172908333Y-124663095D01*
X172932142Y-124663095D01*
X172967857Y-124651190D01*
X172991666Y-124627380D01*
X173003571Y-124603571D01*
X173015476Y-124555952D01*
X173015476Y-124520238D01*
X173003571Y-124472619D01*
X172991666Y-124448809D01*
X172967857Y-124425000D01*
X172932142Y-124413095D01*
X172908333Y-124413095D01*
X172872619Y-124425000D01*
X172860714Y-124436904D01*
X172646428Y-124496428D02*
X172646428Y-124663095D01*
X172705952Y-124401190D02*
X172765476Y-124579761D01*
X172610714Y-124579761D01*
X172396428Y-124413095D02*
X172515476Y-124413095D01*
X172527380Y-124532142D01*
X172515476Y-124520238D01*
X172491666Y-124508333D01*
X172432142Y-124508333D01*
X172408333Y-124520238D01*
X172396428Y-124532142D01*
X172384523Y-124555952D01*
X172384523Y-124615476D01*
X172396428Y-124639285D01*
X172408333Y-124651190D01*
X172432142Y-124663095D01*
X172491666Y-124663095D01*
X172515476Y-124651190D01*
X172527380Y-124639285D01*
D11*
X126728571Y-96422380D02*
X126728571Y-95422380D01*
X126490476Y-95422380D01*
X126347619Y-95470000D01*
X126252380Y-95565238D01*
X126204761Y-95660476D01*
X126157142Y-95850952D01*
X126157142Y-95993809D01*
X126204761Y-96184285D01*
X126252380Y-96279523D01*
X126347619Y-96374761D01*
X126490476Y-96422380D01*
X126728571Y-96422380D01*
X125966666Y-96517619D02*
X125204761Y-96517619D01*
X125109523Y-95422380D02*
X124538095Y-95422380D01*
X124823809Y-96422380D02*
X124823809Y-95422380D01*
X124347619Y-95422380D02*
X124014285Y-96422380D01*
X123680952Y-95422380D01*
X123395238Y-96374761D02*
X123252380Y-96422380D01*
X123014285Y-96422380D01*
X122919047Y-96374761D01*
X122871428Y-96327142D01*
X122823809Y-96231904D01*
X122823809Y-96136666D01*
X122871428Y-96041428D01*
X122919047Y-95993809D01*
X123014285Y-95946190D01*
X123204761Y-95898571D01*
X123300000Y-95850952D01*
X123347619Y-95803333D01*
X123395238Y-95708095D01*
X123395238Y-95612857D01*
X123347619Y-95517619D01*
X123300000Y-95470000D01*
X123204761Y-95422380D01*
X122966666Y-95422380D01*
X122823809Y-95470000D01*
D12*
X124984523Y-94913095D02*
X124984523Y-94663095D01*
X124925000Y-94663095D01*
X124889285Y-94675000D01*
X124865476Y-94698809D01*
X124853571Y-94722619D01*
X124841666Y-94770238D01*
X124841666Y-94805952D01*
X124853571Y-94853571D01*
X124865476Y-94877380D01*
X124889285Y-94901190D01*
X124925000Y-94913095D01*
X124984523Y-94913095D01*
X124603571Y-94913095D02*
X124746428Y-94913095D01*
X124675000Y-94913095D02*
X124675000Y-94663095D01*
X124698809Y-94698809D01*
X124722619Y-94722619D01*
X124746428Y-94734523D01*
D11*
X126943571Y-114647380D02*
X126943571Y-113647380D01*
X126705476Y-113647380D01*
X126562619Y-113695000D01*
X126467380Y-113790238D01*
X126419761Y-113885476D01*
X126372142Y-114075952D01*
X126372142Y-114218809D01*
X126419761Y-114409285D01*
X126467380Y-114504523D01*
X126562619Y-114599761D01*
X126705476Y-114647380D01*
X126943571Y-114647380D01*
X126181666Y-114742619D02*
X125419761Y-114742619D01*
X125324523Y-113647380D02*
X124753095Y-113647380D01*
X125038809Y-114647380D02*
X125038809Y-113647380D01*
X124562619Y-113647380D02*
X124229285Y-114647380D01*
X123895952Y-113647380D01*
X123610238Y-114599761D02*
X123467380Y-114647380D01*
X123229285Y-114647380D01*
X123134047Y-114599761D01*
X123086428Y-114552142D01*
X123038809Y-114456904D01*
X123038809Y-114361666D01*
X123086428Y-114266428D01*
X123134047Y-114218809D01*
X123229285Y-114171190D01*
X123419761Y-114123571D01*
X123515000Y-114075952D01*
X123562619Y-114028333D01*
X123610238Y-113933095D01*
X123610238Y-113837857D01*
X123562619Y-113742619D01*
X123515000Y-113695000D01*
X123419761Y-113647380D01*
X123181666Y-113647380D01*
X123038809Y-113695000D01*
D12*
X125199523Y-113138095D02*
X125199523Y-112888095D01*
X125140000Y-112888095D01*
X125104285Y-112900000D01*
X125080476Y-112923809D01*
X125068571Y-112947619D01*
X125056666Y-112995238D01*
X125056666Y-113030952D01*
X125068571Y-113078571D01*
X125080476Y-113102380D01*
X125104285Y-113126190D01*
X125140000Y-113138095D01*
X125199523Y-113138095D01*
X124961428Y-112911904D02*
X124949523Y-112900000D01*
X124925714Y-112888095D01*
X124866190Y-112888095D01*
X124842380Y-112900000D01*
X124830476Y-112911904D01*
X124818571Y-112935714D01*
X124818571Y-112959523D01*
X124830476Y-112995238D01*
X124973333Y-113138095D01*
X124818571Y-113138095D01*
D11*
X127028571Y-110097380D02*
X127028571Y-109097380D01*
X126790476Y-109097380D01*
X126647619Y-109145000D01*
X126552380Y-109240238D01*
X126504761Y-109335476D01*
X126457142Y-109525952D01*
X126457142Y-109668809D01*
X126504761Y-109859285D01*
X126552380Y-109954523D01*
X126647619Y-110049761D01*
X126790476Y-110097380D01*
X127028571Y-110097380D01*
X126266666Y-110192619D02*
X125504761Y-110192619D01*
X125409523Y-109097380D02*
X124838095Y-109097380D01*
X125123809Y-110097380D02*
X125123809Y-109097380D01*
X124647619Y-109097380D02*
X124314285Y-110097380D01*
X123980952Y-109097380D01*
X123695238Y-110049761D02*
X123552380Y-110097380D01*
X123314285Y-110097380D01*
X123219047Y-110049761D01*
X123171428Y-110002142D01*
X123123809Y-109906904D01*
X123123809Y-109811666D01*
X123171428Y-109716428D01*
X123219047Y-109668809D01*
X123314285Y-109621190D01*
X123504761Y-109573571D01*
X123600000Y-109525952D01*
X123647619Y-109478333D01*
X123695238Y-109383095D01*
X123695238Y-109287857D01*
X123647619Y-109192619D01*
X123600000Y-109145000D01*
X123504761Y-109097380D01*
X123266666Y-109097380D01*
X123123809Y-109145000D01*
D12*
X125284523Y-108588095D02*
X125284523Y-108338095D01*
X125225000Y-108338095D01*
X125189285Y-108350000D01*
X125165476Y-108373809D01*
X125153571Y-108397619D01*
X125141666Y-108445238D01*
X125141666Y-108480952D01*
X125153571Y-108528571D01*
X125165476Y-108552380D01*
X125189285Y-108576190D01*
X125225000Y-108588095D01*
X125284523Y-108588095D01*
X125058333Y-108338095D02*
X124903571Y-108338095D01*
X124986904Y-108433333D01*
X124951190Y-108433333D01*
X124927380Y-108445238D01*
X124915476Y-108457142D01*
X124903571Y-108480952D01*
X124903571Y-108540476D01*
X124915476Y-108564285D01*
X124927380Y-108576190D01*
X124951190Y-108588095D01*
X125022619Y-108588095D01*
X125046428Y-108576190D01*
X125058333Y-108564285D01*
D11*
X128880952Y-84428571D02*
X129214285Y-84428571D01*
X129214285Y-84952380D02*
X129214285Y-83952380D01*
X128738095Y-83952380D01*
X128357142Y-84952380D02*
X128357142Y-84285714D01*
X128357142Y-83952380D02*
X128404761Y-84000000D01*
X128357142Y-84047619D01*
X128309523Y-84000000D01*
X128357142Y-83952380D01*
X128357142Y-84047619D01*
X127452380Y-84952380D02*
X127452380Y-83952380D01*
X127452380Y-84904761D02*
X127547619Y-84952380D01*
X127738095Y-84952380D01*
X127833333Y-84904761D01*
X127880952Y-84857142D01*
X127928571Y-84761904D01*
X127928571Y-84476190D01*
X127880952Y-84380952D01*
X127833333Y-84333333D01*
X127738095Y-84285714D01*
X127547619Y-84285714D01*
X127452380Y-84333333D01*
X126547619Y-84285714D02*
X126547619Y-84952380D01*
X126976190Y-84285714D02*
X126976190Y-84809523D01*
X126928571Y-84904761D01*
X126833333Y-84952380D01*
X126690476Y-84952380D01*
X126595238Y-84904761D01*
X126547619Y-84857142D01*
X125642857Y-84904761D02*
X125738095Y-84952380D01*
X125928571Y-84952380D01*
X126023809Y-84904761D01*
X126071428Y-84857142D01*
X126119047Y-84761904D01*
X126119047Y-84476190D01*
X126071428Y-84380952D01*
X126023809Y-84333333D01*
X125928571Y-84285714D01*
X125738095Y-84285714D01*
X125642857Y-84333333D01*
X125214285Y-84952380D02*
X125214285Y-84285714D01*
X125214285Y-83952380D02*
X125261904Y-84000000D01*
X125214285Y-84047619D01*
X125166666Y-84000000D01*
X125214285Y-83952380D01*
X125214285Y-84047619D01*
X124309523Y-84952380D02*
X124309523Y-84428571D01*
X124357142Y-84333333D01*
X124452380Y-84285714D01*
X124642857Y-84285714D01*
X124738095Y-84333333D01*
X124309523Y-84904761D02*
X124404761Y-84952380D01*
X124642857Y-84952380D01*
X124738095Y-84904761D01*
X124785714Y-84809523D01*
X124785714Y-84714285D01*
X124738095Y-84619047D01*
X124642857Y-84571428D01*
X124404761Y-84571428D01*
X124309523Y-84523809D01*
X123690476Y-84952380D02*
X123785714Y-84904761D01*
X123833333Y-84809523D01*
X123833333Y-83952380D01*
D13*
X126821428Y-86478571D02*
X126921428Y-86478571D01*
X126921428Y-86635714D02*
X126921428Y-86335714D01*
X126778571Y-86335714D01*
X126664285Y-86635714D02*
X126664285Y-86335714D01*
X126521428Y-86635714D02*
X126521428Y-86335714D01*
X126450000Y-86335714D01*
X126407142Y-86350000D01*
X126378571Y-86378571D01*
X126364285Y-86407142D01*
X126350000Y-86464285D01*
X126350000Y-86507142D01*
X126364285Y-86564285D01*
X126378571Y-86592857D01*
X126407142Y-86621428D01*
X126450000Y-86635714D01*
X126521428Y-86635714D01*
X126092857Y-86435714D02*
X126092857Y-86635714D01*
X126164285Y-86321428D02*
X126235714Y-86535714D01*
X126050000Y-86535714D01*
D11*
X173880952Y-68428571D02*
X174214285Y-68428571D01*
X174214285Y-68952380D02*
X174214285Y-67952380D01*
X173738095Y-67952380D01*
X173357142Y-68952380D02*
X173357142Y-68285714D01*
X173357142Y-67952380D02*
X173404761Y-68000000D01*
X173357142Y-68047619D01*
X173309523Y-68000000D01*
X173357142Y-67952380D01*
X173357142Y-68047619D01*
X172452380Y-68952380D02*
X172452380Y-67952380D01*
X172452380Y-68904761D02*
X172547619Y-68952380D01*
X172738095Y-68952380D01*
X172833333Y-68904761D01*
X172880952Y-68857142D01*
X172928571Y-68761904D01*
X172928571Y-68476190D01*
X172880952Y-68380952D01*
X172833333Y-68333333D01*
X172738095Y-68285714D01*
X172547619Y-68285714D01*
X172452380Y-68333333D01*
X171547619Y-68285714D02*
X171547619Y-68952380D01*
X171976190Y-68285714D02*
X171976190Y-68809523D01*
X171928571Y-68904761D01*
X171833333Y-68952380D01*
X171690476Y-68952380D01*
X171595238Y-68904761D01*
X171547619Y-68857142D01*
X170642857Y-68904761D02*
X170738095Y-68952380D01*
X170928571Y-68952380D01*
X171023809Y-68904761D01*
X171071428Y-68857142D01*
X171119047Y-68761904D01*
X171119047Y-68476190D01*
X171071428Y-68380952D01*
X171023809Y-68333333D01*
X170928571Y-68285714D01*
X170738095Y-68285714D01*
X170642857Y-68333333D01*
X170214285Y-68952380D02*
X170214285Y-68285714D01*
X170214285Y-67952380D02*
X170261904Y-68000000D01*
X170214285Y-68047619D01*
X170166666Y-68000000D01*
X170214285Y-67952380D01*
X170214285Y-68047619D01*
X169309523Y-68952380D02*
X169309523Y-68428571D01*
X169357142Y-68333333D01*
X169452380Y-68285714D01*
X169642857Y-68285714D01*
X169738095Y-68333333D01*
X169309523Y-68904761D02*
X169404761Y-68952380D01*
X169642857Y-68952380D01*
X169738095Y-68904761D01*
X169785714Y-68809523D01*
X169785714Y-68714285D01*
X169738095Y-68619047D01*
X169642857Y-68571428D01*
X169404761Y-68571428D01*
X169309523Y-68523809D01*
X168690476Y-68952380D02*
X168785714Y-68904761D01*
X168833333Y-68809523D01*
X168833333Y-67952380D01*
D13*
X171821428Y-70478571D02*
X171921428Y-70478571D01*
X171921428Y-70635714D02*
X171921428Y-70335714D01*
X171778571Y-70335714D01*
X171664285Y-70635714D02*
X171664285Y-70335714D01*
X171521428Y-70635714D02*
X171521428Y-70335714D01*
X171450000Y-70335714D01*
X171407142Y-70350000D01*
X171378571Y-70378571D01*
X171364285Y-70407142D01*
X171350000Y-70464285D01*
X171350000Y-70507142D01*
X171364285Y-70564285D01*
X171378571Y-70592857D01*
X171407142Y-70621428D01*
X171450000Y-70635714D01*
X171521428Y-70635714D01*
X171078571Y-70335714D02*
X171221428Y-70335714D01*
X171235714Y-70478571D01*
X171221428Y-70464285D01*
X171192857Y-70450000D01*
X171121428Y-70450000D01*
X171092857Y-70464285D01*
X171078571Y-70478571D01*
X171064285Y-70507142D01*
X171064285Y-70578571D01*
X171078571Y-70607142D01*
X171092857Y-70621428D01*
X171121428Y-70635714D01*
X171192857Y-70635714D01*
X171221428Y-70621428D01*
X171235714Y-70607142D01*
D11*
X173880952Y-134928571D02*
X174214285Y-134928571D01*
X174214285Y-135452380D02*
X174214285Y-134452380D01*
X173738095Y-134452380D01*
X173357142Y-135452380D02*
X173357142Y-134785714D01*
X173357142Y-134452380D02*
X173404761Y-134500000D01*
X173357142Y-134547619D01*
X173309523Y-134500000D01*
X173357142Y-134452380D01*
X173357142Y-134547619D01*
X172452380Y-135452380D02*
X172452380Y-134452380D01*
X172452380Y-135404761D02*
X172547619Y-135452380D01*
X172738095Y-135452380D01*
X172833333Y-135404761D01*
X172880952Y-135357142D01*
X172928571Y-135261904D01*
X172928571Y-134976190D01*
X172880952Y-134880952D01*
X172833333Y-134833333D01*
X172738095Y-134785714D01*
X172547619Y-134785714D01*
X172452380Y-134833333D01*
X171547619Y-134785714D02*
X171547619Y-135452380D01*
X171976190Y-134785714D02*
X171976190Y-135309523D01*
X171928571Y-135404761D01*
X171833333Y-135452380D01*
X171690476Y-135452380D01*
X171595238Y-135404761D01*
X171547619Y-135357142D01*
X170642857Y-135404761D02*
X170738095Y-135452380D01*
X170928571Y-135452380D01*
X171023809Y-135404761D01*
X171071428Y-135357142D01*
X171119047Y-135261904D01*
X171119047Y-134976190D01*
X171071428Y-134880952D01*
X171023809Y-134833333D01*
X170928571Y-134785714D01*
X170738095Y-134785714D01*
X170642857Y-134833333D01*
X170214285Y-135452380D02*
X170214285Y-134785714D01*
X170214285Y-134452380D02*
X170261904Y-134500000D01*
X170214285Y-134547619D01*
X170166666Y-134500000D01*
X170214285Y-134452380D01*
X170214285Y-134547619D01*
X169309523Y-135452380D02*
X169309523Y-134928571D01*
X169357142Y-134833333D01*
X169452380Y-134785714D01*
X169642857Y-134785714D01*
X169738095Y-134833333D01*
X169309523Y-135404761D02*
X169404761Y-135452380D01*
X169642857Y-135452380D01*
X169738095Y-135404761D01*
X169785714Y-135309523D01*
X169785714Y-135214285D01*
X169738095Y-135119047D01*
X169642857Y-135071428D01*
X169404761Y-135071428D01*
X169309523Y-135023809D01*
X168690476Y-135452380D02*
X168785714Y-135404761D01*
X168833333Y-135309523D01*
X168833333Y-134452380D01*
D13*
X171821428Y-136978571D02*
X171921428Y-136978571D01*
X171921428Y-137135714D02*
X171921428Y-136835714D01*
X171778571Y-136835714D01*
X171664285Y-137135714D02*
X171664285Y-136835714D01*
X171521428Y-137135714D02*
X171521428Y-136835714D01*
X171450000Y-136835714D01*
X171407142Y-136850000D01*
X171378571Y-136878571D01*
X171364285Y-136907142D01*
X171350000Y-136964285D01*
X171350000Y-137007142D01*
X171364285Y-137064285D01*
X171378571Y-137092857D01*
X171407142Y-137121428D01*
X171450000Y-137135714D01*
X171521428Y-137135714D01*
X171092857Y-136835714D02*
X171150000Y-136835714D01*
X171178571Y-136850000D01*
X171192857Y-136864285D01*
X171221428Y-136907142D01*
X171235714Y-136964285D01*
X171235714Y-137078571D01*
X171221428Y-137107142D01*
X171207142Y-137121428D01*
X171178571Y-137135714D01*
X171121428Y-137135714D01*
X171092857Y-137121428D01*
X171078571Y-137107142D01*
X171064285Y-137078571D01*
X171064285Y-137007142D01*
X171078571Y-136978571D01*
X171092857Y-136964285D01*
X171121428Y-136950000D01*
X171178571Y-136950000D01*
X171207142Y-136964285D01*
X171221428Y-136978571D01*
X171235714Y-137007142D01*
D11*
X168432380Y-119778571D02*
X168432380Y-119207142D01*
X168432380Y-119492857D02*
X167432380Y-119492857D01*
X167575238Y-119397619D01*
X167670476Y-119302380D01*
X167718095Y-119207142D01*
X167432380Y-120397619D02*
X167432380Y-120492857D01*
X167480000Y-120588095D01*
X167527619Y-120635714D01*
X167622857Y-120683333D01*
X167813333Y-120730952D01*
X168051428Y-120730952D01*
X168241904Y-120683333D01*
X168337142Y-120635714D01*
X168384761Y-120588095D01*
X168432380Y-120492857D01*
X168432380Y-120397619D01*
X168384761Y-120302380D01*
X168337142Y-120254761D01*
X168241904Y-120207142D01*
X168051428Y-120159523D01*
X167813333Y-120159523D01*
X167622857Y-120207142D01*
X167527619Y-120254761D01*
X167480000Y-120302380D01*
X167432380Y-120397619D01*
X167432380Y-121350000D02*
X167432380Y-121445238D01*
X167480000Y-121540476D01*
X167527619Y-121588095D01*
X167622857Y-121635714D01*
X167813333Y-121683333D01*
X168051428Y-121683333D01*
X168241904Y-121635714D01*
X168337142Y-121588095D01*
X168384761Y-121540476D01*
X168432380Y-121445238D01*
X168432380Y-121350000D01*
X168384761Y-121254761D01*
X168337142Y-121207142D01*
X168241904Y-121159523D01*
X168051428Y-121111904D01*
X167813333Y-121111904D01*
X167622857Y-121159523D01*
X167527619Y-121207142D01*
X167480000Y-121254761D01*
X167432380Y-121350000D01*
X168432380Y-122111904D02*
X167432380Y-122111904D01*
X168051428Y-122207142D02*
X168432380Y-122492857D01*
X167765714Y-122492857D02*
X168146666Y-122111904D01*
D12*
X169263095Y-120689285D02*
X169144047Y-120605952D01*
X169263095Y-120546428D02*
X169013095Y-120546428D01*
X169013095Y-120641666D01*
X169025000Y-120665476D01*
X169036904Y-120677380D01*
X169060714Y-120689285D01*
X169096428Y-120689285D01*
X169120238Y-120677380D01*
X169132142Y-120665476D01*
X169144047Y-120641666D01*
X169144047Y-120546428D01*
X169013095Y-120772619D02*
X169013095Y-120927380D01*
X169108333Y-120844047D01*
X169108333Y-120879761D01*
X169120238Y-120903571D01*
X169132142Y-120915476D01*
X169155952Y-120927380D01*
X169215476Y-120927380D01*
X169239285Y-120915476D01*
X169251190Y-120903571D01*
X169263095Y-120879761D01*
X169263095Y-120808333D01*
X169251190Y-120784523D01*
X169239285Y-120772619D01*
X169263095Y-121165476D02*
X169263095Y-121022619D01*
X169263095Y-121094047D02*
X169013095Y-121094047D01*
X169048809Y-121070238D01*
X169072619Y-121046428D01*
X169084523Y-121022619D01*
D11*
X178516666Y-112677380D02*
X177945238Y-112677380D01*
X178230952Y-113677380D02*
X178230952Y-112677380D01*
X177707142Y-112677380D02*
X177040476Y-113677380D01*
X177040476Y-112677380D02*
X177707142Y-113677380D01*
X176326190Y-113153571D02*
X176183333Y-113201190D01*
X176135714Y-113248809D01*
X176088095Y-113344047D01*
X176088095Y-113486904D01*
X176135714Y-113582142D01*
X176183333Y-113629761D01*
X176278571Y-113677380D01*
X176659523Y-113677380D01*
X176659523Y-112677380D01*
X176326190Y-112677380D01*
X176230952Y-112725000D01*
X176183333Y-112772619D01*
X176135714Y-112867857D01*
X176135714Y-112963095D01*
X176183333Y-113058333D01*
X176230952Y-113105952D01*
X176326190Y-113153571D01*
X176659523Y-113153571D01*
X175469047Y-112677380D02*
X175373809Y-112677380D01*
X175278571Y-112725000D01*
X175230952Y-112772619D01*
X175183333Y-112867857D01*
X175135714Y-113058333D01*
X175135714Y-113296428D01*
X175183333Y-113486904D01*
X175230952Y-113582142D01*
X175278571Y-113629761D01*
X175373809Y-113677380D01*
X175469047Y-113677380D01*
X175564285Y-113629761D01*
X175611904Y-113582142D01*
X175659523Y-113486904D01*
X175707142Y-113296428D01*
X175707142Y-113058333D01*
X175659523Y-112867857D01*
X175611904Y-112772619D01*
X175564285Y-112725000D01*
X175469047Y-112677380D01*
X174183333Y-113677380D02*
X174754761Y-113677380D01*
X174469047Y-113677380D02*
X174469047Y-112677380D01*
X174564285Y-112820238D01*
X174659523Y-112915476D01*
X174754761Y-112963095D01*
X173564285Y-112677380D02*
X173469047Y-112677380D01*
X173373809Y-112725000D01*
X173326190Y-112772619D01*
X173278571Y-112867857D01*
X173230952Y-113058333D01*
X173230952Y-113296428D01*
X173278571Y-113486904D01*
X173326190Y-113582142D01*
X173373809Y-113629761D01*
X173469047Y-113677380D01*
X173564285Y-113677380D01*
X173659523Y-113629761D01*
X173707142Y-113582142D01*
X173754761Y-113486904D01*
X173802380Y-113296428D01*
X173802380Y-113058333D01*
X173754761Y-112867857D01*
X173707142Y-112772619D01*
X173659523Y-112725000D01*
X173564285Y-112677380D01*
X172373809Y-113010714D02*
X172373809Y-113677380D01*
X172611904Y-112629761D02*
X172849999Y-113344047D01*
X172230952Y-113344047D01*
X171850000Y-113677380D02*
X171850000Y-112677380D01*
X171611904Y-112677380D01*
X171469047Y-112725000D01*
X171373809Y-112820238D01*
X171326190Y-112915476D01*
X171278571Y-113105952D01*
X171278571Y-113248809D01*
X171326190Y-113439285D01*
X171373809Y-113534523D01*
X171469047Y-113629761D01*
X171611904Y-113677380D01*
X171850000Y-113677380D01*
D14*
X175964285Y-118107142D02*
X175964285Y-118835714D01*
X175921428Y-118921428D01*
X175878571Y-118964285D01*
X175792857Y-119007142D01*
X175621428Y-119007142D01*
X175535714Y-118964285D01*
X175492857Y-118921428D01*
X175450000Y-118835714D01*
X175450000Y-118107142D01*
X174550000Y-119007142D02*
X175064285Y-119007142D01*
X174807142Y-119007142D02*
X174807142Y-118107142D01*
X174892857Y-118235714D01*
X174978571Y-118321428D01*
X175064285Y-118364285D01*
X173692857Y-119007142D02*
X174207142Y-119007142D01*
X173950000Y-119007142D02*
X173950000Y-118107142D01*
X174035714Y-118235714D01*
X174121428Y-118321428D01*
X174207142Y-118364285D01*
D11*
X127552380Y-97657142D02*
X127552380Y-97085714D01*
X127552380Y-97371428D02*
X126552380Y-97371428D01*
X126695238Y-97276190D01*
X126790476Y-97180952D01*
X126838095Y-97085714D01*
X127552380Y-98085714D02*
X126552380Y-98085714D01*
X127552380Y-98657142D01*
X126552380Y-98657142D01*
X126885714Y-99561904D02*
X127552380Y-99561904D01*
X126504761Y-99323809D02*
X127219047Y-99085714D01*
X127219047Y-99704761D01*
X127552380Y-100609523D02*
X127552380Y-100038095D01*
X127552380Y-100323809D02*
X126552380Y-100323809D01*
X126695238Y-100228571D01*
X126790476Y-100133333D01*
X126838095Y-100038095D01*
X126885714Y-101466666D02*
X127552380Y-101466666D01*
X126504761Y-101228571D02*
X127219047Y-100990476D01*
X127219047Y-101609523D01*
X126980952Y-102133333D02*
X126933333Y-102038095D01*
X126885714Y-101990476D01*
X126790476Y-101942857D01*
X126742857Y-101942857D01*
X126647619Y-101990476D01*
X126600000Y-102038095D01*
X126552380Y-102133333D01*
X126552380Y-102323809D01*
X126600000Y-102419047D01*
X126647619Y-102466666D01*
X126742857Y-102514285D01*
X126790476Y-102514285D01*
X126885714Y-102466666D01*
X126933333Y-102419047D01*
X126980952Y-102323809D01*
X126980952Y-102133333D01*
X127028571Y-102038095D01*
X127076190Y-101990476D01*
X127171428Y-101942857D01*
X127361904Y-101942857D01*
X127457142Y-101990476D01*
X127504761Y-102038095D01*
X127552380Y-102133333D01*
X127552380Y-102323809D01*
X127504761Y-102419047D01*
X127457142Y-102466666D01*
X127361904Y-102514285D01*
X127171428Y-102514285D01*
X127076190Y-102466666D01*
X127028571Y-102419047D01*
X126980952Y-102323809D01*
X123452380Y-99061904D02*
X122452380Y-99061904D01*
X122452380Y-99300000D01*
X122500000Y-99442857D01*
X122595238Y-99538095D01*
X122690476Y-99585714D01*
X122880952Y-99633333D01*
X123023809Y-99633333D01*
X123214285Y-99585714D01*
X123309523Y-99538095D01*
X123404761Y-99442857D01*
X123452380Y-99300000D01*
X123452380Y-99061904D01*
X122452380Y-100490476D02*
X122452380Y-100300000D01*
X122500000Y-100204761D01*
X122547619Y-100157142D01*
X122690476Y-100061904D01*
X122880952Y-100014285D01*
X123261904Y-100014285D01*
X123357142Y-100061904D01*
X123404761Y-100109523D01*
X123452380Y-100204761D01*
X123452380Y-100395238D01*
X123404761Y-100490476D01*
X123357142Y-100538095D01*
X123261904Y-100585714D01*
X123023809Y-100585714D01*
X122928571Y-100538095D01*
X122880952Y-100490476D01*
X122833333Y-100395238D01*
X122833333Y-100204761D01*
X122880952Y-100109523D01*
X122928571Y-100061904D01*
X123023809Y-100014285D01*
X140052380Y-106657142D02*
X140052380Y-106085714D01*
X140052380Y-106371428D02*
X139052380Y-106371428D01*
X139195238Y-106276190D01*
X139290476Y-106180952D01*
X139338095Y-106085714D01*
X140052380Y-107085714D02*
X139052380Y-107085714D01*
X140052380Y-107657142D01*
X139052380Y-107657142D01*
X139385714Y-108561904D02*
X140052380Y-108561904D01*
X139004761Y-108323809D02*
X139719047Y-108085714D01*
X139719047Y-108704761D01*
X140052380Y-109609523D02*
X140052380Y-109038095D01*
X140052380Y-109323809D02*
X139052380Y-109323809D01*
X139195238Y-109228571D01*
X139290476Y-109133333D01*
X139338095Y-109038095D01*
X139385714Y-110466666D02*
X140052380Y-110466666D01*
X139004761Y-110228571D02*
X139719047Y-109990476D01*
X139719047Y-110609523D01*
X139480952Y-111133333D02*
X139433333Y-111038095D01*
X139385714Y-110990476D01*
X139290476Y-110942857D01*
X139242857Y-110942857D01*
X139147619Y-110990476D01*
X139100000Y-111038095D01*
X139052380Y-111133333D01*
X139052380Y-111323809D01*
X139100000Y-111419047D01*
X139147619Y-111466666D01*
X139242857Y-111514285D01*
X139290476Y-111514285D01*
X139385714Y-111466666D01*
X139433333Y-111419047D01*
X139480952Y-111323809D01*
X139480952Y-111133333D01*
X139528571Y-111038095D01*
X139576190Y-110990476D01*
X139671428Y-110942857D01*
X139861904Y-110942857D01*
X139957142Y-110990476D01*
X140004761Y-111038095D01*
X140052380Y-111133333D01*
X140052380Y-111323809D01*
X140004761Y-111419047D01*
X139957142Y-111466666D01*
X139861904Y-111514285D01*
X139671428Y-111514285D01*
X139576190Y-111466666D01*
X139528571Y-111419047D01*
X139480952Y-111323809D01*
X144152380Y-108061904D02*
X143152380Y-108061904D01*
X143152380Y-108300000D01*
X143200000Y-108442857D01*
X143295238Y-108538095D01*
X143390476Y-108585714D01*
X143580952Y-108633333D01*
X143723809Y-108633333D01*
X143914285Y-108585714D01*
X144009523Y-108538095D01*
X144104761Y-108442857D01*
X144152380Y-108300000D01*
X144152380Y-108061904D01*
X143152380Y-108966666D02*
X143152380Y-109633333D01*
X144152380Y-109204761D01*
M02*
