G04 #@! TF.GenerationSoftware,KiCad,Pcbnew,5.1.6+dfsg1-1~bpo10+1*
G04 #@! TF.CreationDate,2021-06-19T16:41:49-04:00*
G04 #@! TF.ProjectId,RUSP_Daughterboard,52555350-5f44-4617-9567-68746572626f,rev?*
G04 #@! TF.SameCoordinates,Original*
G04 #@! TF.FileFunction,Other,Fab,Top*
%FSLAX46Y46*%
G04 Gerber Fmt 4.6, Leading zero omitted, Abs format (unit mm)*
G04 Created by KiCad (PCBNEW 5.1.6+dfsg1-1~bpo10+1) date 2021-06-19 16:41:49*
%MOMM*%
%LPD*%
G01*
G04 APERTURE LIST*
%ADD10C,0.200000*%
%ADD11C,0.120000*%
%ADD12C,0.127000*%
%ADD13C,0.100000*%
%ADD14C,0.150000*%
%ADD15C,0.015000*%
%ADD16C,0.040000*%
%ADD17C,0.050000*%
G04 APERTURE END LIST*
D10*
X183000000Y-100000000D02*
G75*
G03*
X183000000Y-100000000I-33000000J0D01*
G01*
D11*
X155552417Y-128000000D02*
G75*
G03*
X155552417Y-128000000I-1552417J0D01*
G01*
D10*
X173700000Y-88200000D02*
G75*
G03*
X173700000Y-88200000I-100000J0D01*
G01*
D12*
X162700000Y-89800000D02*
X172700000Y-89800000D01*
X162700000Y-86600000D02*
X162700000Y-89800000D01*
X172700000Y-86600000D02*
X162700000Y-86600000D01*
X172700000Y-89800000D02*
X172700000Y-86600000D01*
D13*
X176000000Y-77850000D02*
X176000000Y-78350000D01*
X176000000Y-78350000D02*
X175000000Y-78350000D01*
X175000000Y-78350000D02*
X175000000Y-77850000D01*
X175000000Y-77850000D02*
X176000000Y-77850000D01*
X175900000Y-72500000D02*
X176200000Y-72800000D01*
X175600000Y-72800000D02*
X175900000Y-72500000D01*
X175950000Y-71500000D02*
G75*
G03*
X175950000Y-71500000I-50000J0D01*
G01*
X176025000Y-71500000D02*
G75*
G03*
X176025000Y-71500000I-125000J0D01*
G01*
X176800000Y-71500000D02*
G75*
G03*
X176800000Y-71500000I-900000J0D01*
G01*
X174600000Y-70200000D02*
X177200000Y-70200000D01*
X174600000Y-70200000D02*
X174600000Y-72500000D01*
X174600000Y-72500000D02*
X174900000Y-72800000D01*
X177200000Y-70200000D02*
X177200000Y-72800000D01*
X174900000Y-72800000D02*
X177200000Y-72800000D01*
X176100000Y-71500000D02*
G75*
G03*
X176100000Y-71500000I-200000J0D01*
G01*
X177450000Y-75550000D02*
X176950000Y-75550000D01*
X176950000Y-75550000D02*
X176950000Y-74550000D01*
X176950000Y-74550000D02*
X177450000Y-74550000D01*
X177450000Y-74550000D02*
X177450000Y-75550000D01*
X177450000Y-77550000D02*
X176950000Y-77550000D01*
X176950000Y-77550000D02*
X176950000Y-76550000D01*
X176950000Y-76550000D02*
X177450000Y-76550000D01*
X177450000Y-76550000D02*
X177450000Y-77550000D01*
X146949670Y-122106777D02*
X147656777Y-121399670D01*
X147303223Y-122460330D02*
X146949670Y-122106777D01*
X148010330Y-121753223D02*
X147303223Y-122460330D01*
X147656777Y-121399670D02*
X148010330Y-121753223D01*
X146056777Y-119769670D02*
X146410330Y-120123223D01*
X146410330Y-120123223D02*
X145703223Y-120830330D01*
X145703223Y-120830330D02*
X145349670Y-120476777D01*
X145349670Y-120476777D02*
X146056777Y-119769670D01*
X146866777Y-120579670D02*
X147220330Y-120933223D01*
X147220330Y-120933223D02*
X146513223Y-121640330D01*
X146513223Y-121640330D02*
X146159670Y-121286777D01*
X146159670Y-121286777D02*
X146866777Y-120579670D01*
X127250000Y-86500000D02*
G75*
G03*
X127250000Y-86500000I-750000J0D01*
G01*
X172250000Y-70500000D02*
G75*
G03*
X172250000Y-70500000I-750000J0D01*
G01*
X172250000Y-137000000D02*
G75*
G03*
X172250000Y-137000000I-750000J0D01*
G01*
D14*
X138350000Y-115750000D02*
X121050000Y-115750000D01*
X121050000Y-115750000D02*
X121050000Y-86250000D01*
X121050000Y-86250000D02*
X138350000Y-86250000D01*
X138350000Y-86250000D02*
X138350000Y-115750000D01*
D13*
X118375000Y-69750000D02*
X118375000Y-83750000D01*
X118375000Y-69750000D02*
X133825000Y-69750000D01*
X118375000Y-83750000D02*
X133825000Y-83750000D01*
X133825000Y-69750000D02*
X133825000Y-83750000D01*
X125600000Y-76750000D02*
X126600000Y-76750000D01*
X126100000Y-76250000D02*
X126100000Y-77250000D01*
X136115000Y-70750000D02*
X137115000Y-70750000D01*
X136115000Y-71250000D02*
X136115000Y-70750000D01*
X137115000Y-71250000D02*
X136115000Y-71250000D01*
X137115000Y-70750000D02*
X137115000Y-71250000D01*
X137200000Y-79450000D02*
X137200000Y-79950000D01*
X137200000Y-79950000D02*
X136200000Y-79950000D01*
X136200000Y-79950000D02*
X136200000Y-79450000D01*
X136200000Y-79450000D02*
X137200000Y-79450000D01*
X175000000Y-75850000D02*
X176000000Y-75850000D01*
X175000000Y-76350000D02*
X175000000Y-75850000D01*
X176000000Y-76350000D02*
X175000000Y-76350000D01*
X176000000Y-75850000D02*
X176000000Y-76350000D01*
X177450000Y-79650000D02*
X176950000Y-79650000D01*
X176950000Y-79650000D02*
X176950000Y-78650000D01*
X176950000Y-78650000D02*
X177450000Y-78650000D01*
X177450000Y-78650000D02*
X177450000Y-79650000D01*
D14*
X149214285Y-127952380D02*
X149214285Y-126952380D01*
X149547619Y-127666666D01*
X149880952Y-126952380D01*
X149880952Y-127952380D01*
X150500000Y-127952380D02*
X150404761Y-127904761D01*
X150357142Y-127857142D01*
X150309523Y-127761904D01*
X150309523Y-127476190D01*
X150357142Y-127380952D01*
X150404761Y-127333333D01*
X150500000Y-127285714D01*
X150642857Y-127285714D01*
X150738095Y-127333333D01*
X150785714Y-127380952D01*
X150833333Y-127476190D01*
X150833333Y-127761904D01*
X150785714Y-127857142D01*
X150738095Y-127904761D01*
X150642857Y-127952380D01*
X150500000Y-127952380D01*
X151690476Y-127285714D02*
X151690476Y-127952380D01*
X151261904Y-127285714D02*
X151261904Y-127809523D01*
X151309523Y-127904761D01*
X151404761Y-127952380D01*
X151547619Y-127952380D01*
X151642857Y-127904761D01*
X151690476Y-127857142D01*
X152166666Y-127285714D02*
X152166666Y-127952380D01*
X152166666Y-127380952D02*
X152214285Y-127333333D01*
X152309523Y-127285714D01*
X152452380Y-127285714D01*
X152547619Y-127333333D01*
X152595238Y-127428571D01*
X152595238Y-127952380D01*
X152928571Y-127285714D02*
X153309523Y-127285714D01*
X153071428Y-126952380D02*
X153071428Y-127809523D01*
X153119047Y-127904761D01*
X153214285Y-127952380D01*
X153309523Y-127952380D01*
X153642857Y-127952380D02*
X153642857Y-127285714D01*
X153642857Y-126952380D02*
X153595238Y-127000000D01*
X153642857Y-127047619D01*
X153690476Y-127000000D01*
X153642857Y-126952380D01*
X153642857Y-127047619D01*
X154119047Y-127285714D02*
X154119047Y-127952380D01*
X154119047Y-127380952D02*
X154166666Y-127333333D01*
X154261904Y-127285714D01*
X154404761Y-127285714D01*
X154500000Y-127333333D01*
X154547619Y-127428571D01*
X154547619Y-127952380D01*
X155452380Y-127285714D02*
X155452380Y-128095238D01*
X155404761Y-128190476D01*
X155357142Y-128238095D01*
X155261904Y-128285714D01*
X155119047Y-128285714D01*
X155023809Y-128238095D01*
X155452380Y-127904761D02*
X155357142Y-127952380D01*
X155166666Y-127952380D01*
X155071428Y-127904761D01*
X155023809Y-127857142D01*
X154976190Y-127761904D01*
X154976190Y-127476190D01*
X155023809Y-127380952D01*
X155071428Y-127333333D01*
X155166666Y-127285714D01*
X155357142Y-127285714D01*
X155452380Y-127333333D01*
X155928571Y-127952380D02*
X155928571Y-126952380D01*
X155928571Y-127428571D02*
X156500000Y-127428571D01*
X156500000Y-127952380D02*
X156500000Y-126952380D01*
X157119047Y-127952380D02*
X157023809Y-127904761D01*
X156976190Y-127857142D01*
X156928571Y-127761904D01*
X156928571Y-127476190D01*
X156976190Y-127380952D01*
X157023809Y-127333333D01*
X157119047Y-127285714D01*
X157261904Y-127285714D01*
X157357142Y-127333333D01*
X157404761Y-127380952D01*
X157452380Y-127476190D01*
X157452380Y-127761904D01*
X157404761Y-127857142D01*
X157357142Y-127904761D01*
X157261904Y-127952380D01*
X157119047Y-127952380D01*
X158023809Y-127952380D02*
X157928571Y-127904761D01*
X157880952Y-127809523D01*
X157880952Y-126952380D01*
X158785714Y-127904761D02*
X158690476Y-127952380D01*
X158500000Y-127952380D01*
X158404761Y-127904761D01*
X158357142Y-127809523D01*
X158357142Y-127428571D01*
X158404761Y-127333333D01*
X158500000Y-127285714D01*
X158690476Y-127285714D01*
X158785714Y-127333333D01*
X158833333Y-127428571D01*
X158833333Y-127523809D01*
X158357142Y-127619047D01*
D15*
X162267428Y-91413333D02*
X162648380Y-91413333D01*
X162191238Y-91641904D02*
X162457904Y-90841904D01*
X162724571Y-91641904D01*
X162991238Y-91108571D02*
X162991238Y-91641904D01*
X162991238Y-91184761D02*
X163029333Y-91146666D01*
X163105523Y-91108571D01*
X163219809Y-91108571D01*
X163296000Y-91146666D01*
X163334095Y-91222857D01*
X163334095Y-91641904D01*
X163600761Y-91108571D02*
X163905523Y-91108571D01*
X163715047Y-90841904D02*
X163715047Y-91527619D01*
X163753142Y-91603809D01*
X163829333Y-91641904D01*
X163905523Y-91641904D01*
X164476952Y-91603809D02*
X164400761Y-91641904D01*
X164248380Y-91641904D01*
X164172190Y-91603809D01*
X164134095Y-91527619D01*
X164134095Y-91222857D01*
X164172190Y-91146666D01*
X164248380Y-91108571D01*
X164400761Y-91108571D01*
X164476952Y-91146666D01*
X164515047Y-91222857D01*
X164515047Y-91299047D01*
X164134095Y-91375238D01*
X164857904Y-91108571D02*
X164857904Y-91641904D01*
X164857904Y-91184761D02*
X164896000Y-91146666D01*
X164972190Y-91108571D01*
X165086476Y-91108571D01*
X165162666Y-91146666D01*
X165200761Y-91222857D01*
X165200761Y-91641904D01*
X165581714Y-91108571D02*
X165581714Y-91641904D01*
X165581714Y-91184761D02*
X165619809Y-91146666D01*
X165696000Y-91108571D01*
X165810285Y-91108571D01*
X165886476Y-91146666D01*
X165924571Y-91222857D01*
X165924571Y-91641904D01*
X166648380Y-91641904D02*
X166648380Y-91222857D01*
X166610285Y-91146666D01*
X166534095Y-91108571D01*
X166381714Y-91108571D01*
X166305523Y-91146666D01*
X166648380Y-91603809D02*
X166572190Y-91641904D01*
X166381714Y-91641904D01*
X166305523Y-91603809D01*
X166267428Y-91527619D01*
X166267428Y-91451428D01*
X166305523Y-91375238D01*
X166381714Y-91337142D01*
X166572190Y-91337142D01*
X166648380Y-91299047D01*
X166838857Y-91718095D02*
X167448380Y-91718095D01*
X168096000Y-91565714D02*
X168057904Y-91603809D01*
X167943619Y-91641904D01*
X167867428Y-91641904D01*
X167753142Y-91603809D01*
X167676952Y-91527619D01*
X167638857Y-91451428D01*
X167600761Y-91299047D01*
X167600761Y-91184761D01*
X167638857Y-91032380D01*
X167676952Y-90956190D01*
X167753142Y-90880000D01*
X167867428Y-90841904D01*
X167943619Y-90841904D01*
X168057904Y-90880000D01*
X168096000Y-90918095D01*
X168438857Y-91641904D02*
X168438857Y-90841904D01*
X168781714Y-91641904D02*
X168781714Y-91222857D01*
X168743619Y-91146666D01*
X168667428Y-91108571D01*
X168553142Y-91108571D01*
X168476952Y-91146666D01*
X168438857Y-91184761D01*
X169162666Y-91641904D02*
X169162666Y-91108571D01*
X169162666Y-90841904D02*
X169124571Y-90880000D01*
X169162666Y-90918095D01*
X169200761Y-90880000D01*
X169162666Y-90841904D01*
X169162666Y-90918095D01*
X169543619Y-91108571D02*
X169543619Y-91908571D01*
X169543619Y-91146666D02*
X169619809Y-91108571D01*
X169772190Y-91108571D01*
X169848380Y-91146666D01*
X169886476Y-91184761D01*
X169924571Y-91260952D01*
X169924571Y-91489523D01*
X169886476Y-91565714D01*
X169848380Y-91603809D01*
X169772190Y-91641904D01*
X169619809Y-91641904D01*
X169543619Y-91603809D01*
D14*
X149214285Y-137652380D02*
X149214285Y-136652380D01*
X149547619Y-137366666D01*
X149880952Y-136652380D01*
X149880952Y-137652380D01*
X150500000Y-137652380D02*
X150404761Y-137604761D01*
X150357142Y-137557142D01*
X150309523Y-137461904D01*
X150309523Y-137176190D01*
X150357142Y-137080952D01*
X150404761Y-137033333D01*
X150500000Y-136985714D01*
X150642857Y-136985714D01*
X150738095Y-137033333D01*
X150785714Y-137080952D01*
X150833333Y-137176190D01*
X150833333Y-137461904D01*
X150785714Y-137557142D01*
X150738095Y-137604761D01*
X150642857Y-137652380D01*
X150500000Y-137652380D01*
X151690476Y-136985714D02*
X151690476Y-137652380D01*
X151261904Y-136985714D02*
X151261904Y-137509523D01*
X151309523Y-137604761D01*
X151404761Y-137652380D01*
X151547619Y-137652380D01*
X151642857Y-137604761D01*
X151690476Y-137557142D01*
X152166666Y-136985714D02*
X152166666Y-137652380D01*
X152166666Y-137080952D02*
X152214285Y-137033333D01*
X152309523Y-136985714D01*
X152452380Y-136985714D01*
X152547619Y-137033333D01*
X152595238Y-137128571D01*
X152595238Y-137652380D01*
X152928571Y-136985714D02*
X153309523Y-136985714D01*
X153071428Y-136652380D02*
X153071428Y-137509523D01*
X153119047Y-137604761D01*
X153214285Y-137652380D01*
X153309523Y-137652380D01*
X153642857Y-137652380D02*
X153642857Y-136985714D01*
X153642857Y-136652380D02*
X153595238Y-136700000D01*
X153642857Y-136747619D01*
X153690476Y-136700000D01*
X153642857Y-136652380D01*
X153642857Y-136747619D01*
X154119047Y-136985714D02*
X154119047Y-137652380D01*
X154119047Y-137080952D02*
X154166666Y-137033333D01*
X154261904Y-136985714D01*
X154404761Y-136985714D01*
X154500000Y-137033333D01*
X154547619Y-137128571D01*
X154547619Y-137652380D01*
X155452380Y-136985714D02*
X155452380Y-137795238D01*
X155404761Y-137890476D01*
X155357142Y-137938095D01*
X155261904Y-137985714D01*
X155119047Y-137985714D01*
X155023809Y-137938095D01*
X155452380Y-137604761D02*
X155357142Y-137652380D01*
X155166666Y-137652380D01*
X155071428Y-137604761D01*
X155023809Y-137557142D01*
X154976190Y-137461904D01*
X154976190Y-137176190D01*
X155023809Y-137080952D01*
X155071428Y-137033333D01*
X155166666Y-136985714D01*
X155357142Y-136985714D01*
X155452380Y-137033333D01*
X155928571Y-137652380D02*
X155928571Y-136652380D01*
X155928571Y-137128571D02*
X156500000Y-137128571D01*
X156500000Y-137652380D02*
X156500000Y-136652380D01*
X157119047Y-137652380D02*
X157023809Y-137604761D01*
X156976190Y-137557142D01*
X156928571Y-137461904D01*
X156928571Y-137176190D01*
X156976190Y-137080952D01*
X157023809Y-137033333D01*
X157119047Y-136985714D01*
X157261904Y-136985714D01*
X157357142Y-137033333D01*
X157404761Y-137080952D01*
X157452380Y-137176190D01*
X157452380Y-137461904D01*
X157404761Y-137557142D01*
X157357142Y-137604761D01*
X157261904Y-137652380D01*
X157119047Y-137652380D01*
X158023809Y-137652380D02*
X157928571Y-137604761D01*
X157880952Y-137509523D01*
X157880952Y-136652380D01*
X158785714Y-137604761D02*
X158690476Y-137652380D01*
X158500000Y-137652380D01*
X158404761Y-137604761D01*
X158357142Y-137509523D01*
X158357142Y-137128571D01*
X158404761Y-137033333D01*
X158500000Y-136985714D01*
X158690476Y-136985714D01*
X158785714Y-137033333D01*
X158833333Y-137128571D01*
X158833333Y-137223809D01*
X158357142Y-137319047D01*
X152966666Y-134452380D02*
X152966666Y-133452380D01*
X153300000Y-134166666D01*
X153633333Y-133452380D01*
X153633333Y-134452380D01*
X154109523Y-134452380D02*
X154109523Y-133452380D01*
X154109523Y-133928571D02*
X154680952Y-133928571D01*
X154680952Y-134452380D02*
X154680952Y-133452380D01*
X155109523Y-133547619D02*
X155157142Y-133500000D01*
X155252380Y-133452380D01*
X155490476Y-133452380D01*
X155585714Y-133500000D01*
X155633333Y-133547619D01*
X155680952Y-133642857D01*
X155680952Y-133738095D01*
X155633333Y-133880952D01*
X155061904Y-134452380D01*
X155680952Y-134452380D01*
X173476190Y-76382380D02*
X174142857Y-76382380D01*
X173714285Y-77382380D01*
X174523809Y-77287142D02*
X174571428Y-77334761D01*
X174523809Y-77382380D01*
X174476190Y-77334761D01*
X174523809Y-77287142D01*
X174523809Y-77382380D01*
X175476190Y-76382380D02*
X175000000Y-76382380D01*
X174952380Y-76858571D01*
X175000000Y-76810952D01*
X175095238Y-76763333D01*
X175333333Y-76763333D01*
X175428571Y-76810952D01*
X175476190Y-76858571D01*
X175523809Y-76953809D01*
X175523809Y-77191904D01*
X175476190Y-77287142D01*
X175428571Y-77334761D01*
X175333333Y-77382380D01*
X175095238Y-77382380D01*
X175000000Y-77334761D01*
X174952380Y-77287142D01*
X175952380Y-76715714D02*
X175952380Y-77382380D01*
X175952380Y-76810952D02*
X176000000Y-76763333D01*
X176095238Y-76715714D01*
X176238095Y-76715714D01*
X176333333Y-76763333D01*
X176380952Y-76858571D01*
X176380952Y-77382380D01*
X176857142Y-77382380D02*
X176857142Y-76382380D01*
X176857142Y-76858571D02*
X177428571Y-76858571D01*
X177428571Y-77382380D02*
X177428571Y-76382380D01*
D16*
X175458333Y-78213095D02*
X175339285Y-78213095D01*
X175339285Y-77963095D01*
X175529761Y-77986904D02*
X175541666Y-77975000D01*
X175565476Y-77963095D01*
X175625000Y-77963095D01*
X175648809Y-77975000D01*
X175660714Y-77986904D01*
X175672619Y-78010714D01*
X175672619Y-78034523D01*
X175660714Y-78070238D01*
X175517857Y-78213095D01*
X175672619Y-78213095D01*
D14*
X171709523Y-68555142D02*
X171661904Y-68602761D01*
X171519047Y-68650380D01*
X171423809Y-68650380D01*
X171280952Y-68602761D01*
X171185714Y-68507523D01*
X171138095Y-68412285D01*
X171090476Y-68221809D01*
X171090476Y-68078952D01*
X171138095Y-67888476D01*
X171185714Y-67793238D01*
X171280952Y-67698000D01*
X171423809Y-67650380D01*
X171519047Y-67650380D01*
X171661904Y-67698000D01*
X171709523Y-67745619D01*
X172280952Y-68650380D02*
X172185714Y-68602761D01*
X172138095Y-68555142D01*
X172090476Y-68459904D01*
X172090476Y-68174190D01*
X172138095Y-68078952D01*
X172185714Y-68031333D01*
X172280952Y-67983714D01*
X172423809Y-67983714D01*
X172519047Y-68031333D01*
X172566666Y-68078952D01*
X172614285Y-68174190D01*
X172614285Y-68459904D01*
X172566666Y-68555142D01*
X172519047Y-68602761D01*
X172423809Y-68650380D01*
X172280952Y-68650380D01*
X173042857Y-67983714D02*
X173042857Y-68650380D01*
X173042857Y-68078952D02*
X173090476Y-68031333D01*
X173185714Y-67983714D01*
X173328571Y-67983714D01*
X173423809Y-68031333D01*
X173471428Y-68126571D01*
X173471428Y-68650380D01*
X173947619Y-67983714D02*
X173947619Y-68650380D01*
X173947619Y-68078952D02*
X173995238Y-68031333D01*
X174090476Y-67983714D01*
X174233333Y-67983714D01*
X174328571Y-68031333D01*
X174376190Y-68126571D01*
X174376190Y-68650380D01*
X174614285Y-68745619D02*
X175376190Y-68745619D01*
X176185714Y-68555142D02*
X176138095Y-68602761D01*
X175995238Y-68650380D01*
X175900000Y-68650380D01*
X175757142Y-68602761D01*
X175661904Y-68507523D01*
X175614285Y-68412285D01*
X175566666Y-68221809D01*
X175566666Y-68078952D01*
X175614285Y-67888476D01*
X175661904Y-67793238D01*
X175757142Y-67698000D01*
X175900000Y-67650380D01*
X175995238Y-67650380D01*
X176138095Y-67698000D01*
X176185714Y-67745619D01*
X176757142Y-68650380D02*
X176661904Y-68602761D01*
X176614285Y-68555142D01*
X176566666Y-68459904D01*
X176566666Y-68174190D01*
X176614285Y-68078952D01*
X176661904Y-68031333D01*
X176757142Y-67983714D01*
X176900000Y-67983714D01*
X176995238Y-68031333D01*
X177042857Y-68078952D01*
X177090476Y-68174190D01*
X177090476Y-68459904D01*
X177042857Y-68555142D01*
X176995238Y-68602761D01*
X176900000Y-68650380D01*
X176757142Y-68650380D01*
X177947619Y-68650380D02*
X177947619Y-68126571D01*
X177900000Y-68031333D01*
X177804761Y-67983714D01*
X177614285Y-67983714D01*
X177519047Y-68031333D01*
X177947619Y-68602761D02*
X177852380Y-68650380D01*
X177614285Y-68650380D01*
X177519047Y-68602761D01*
X177471428Y-68507523D01*
X177471428Y-68412285D01*
X177519047Y-68317047D01*
X177614285Y-68269428D01*
X177852380Y-68269428D01*
X177947619Y-68221809D01*
X178328571Y-68650380D02*
X178852380Y-67983714D01*
X178328571Y-67983714D02*
X178852380Y-68650380D01*
X179233333Y-68650380D02*
X179233333Y-67983714D01*
X179233333Y-67650380D02*
X179185714Y-67698000D01*
X179233333Y-67745619D01*
X179280952Y-67698000D01*
X179233333Y-67650380D01*
X179233333Y-67745619D01*
X180138095Y-68650380D02*
X180138095Y-68126571D01*
X180090476Y-68031333D01*
X179995238Y-67983714D01*
X179804761Y-67983714D01*
X179709523Y-68031333D01*
X180138095Y-68602761D02*
X180042857Y-68650380D01*
X179804761Y-68650380D01*
X179709523Y-68602761D01*
X179661904Y-68507523D01*
X179661904Y-68412285D01*
X179709523Y-68317047D01*
X179804761Y-68269428D01*
X180042857Y-68269428D01*
X180138095Y-68221809D01*
X180757142Y-68650380D02*
X180661904Y-68602761D01*
X180614285Y-68507523D01*
X180614285Y-67650380D01*
X175566666Y-74452380D02*
X175566666Y-75166666D01*
X175519047Y-75309523D01*
X175423809Y-75404761D01*
X175280952Y-75452380D01*
X175185714Y-75452380D01*
X176566666Y-75452380D02*
X175995238Y-75452380D01*
X176280952Y-75452380D02*
X176280952Y-74452380D01*
X176185714Y-74595238D01*
X176090476Y-74690476D01*
X175995238Y-74738095D01*
X178727142Y-76407142D02*
X178774761Y-76359523D01*
X178822380Y-76407142D01*
X178774761Y-76454761D01*
X178727142Y-76407142D01*
X178822380Y-76407142D01*
X177822380Y-75454761D02*
X177822380Y-75930952D01*
X178298571Y-75978571D01*
X178250952Y-75930952D01*
X178203333Y-75835714D01*
X178203333Y-75597619D01*
X178250952Y-75502380D01*
X178298571Y-75454761D01*
X178393809Y-75407142D01*
X178631904Y-75407142D01*
X178727142Y-75454761D01*
X178774761Y-75502380D01*
X178822380Y-75597619D01*
X178822380Y-75835714D01*
X178774761Y-75930952D01*
X178727142Y-75978571D01*
X178155714Y-74978571D02*
X179155714Y-74978571D01*
X178203333Y-74978571D02*
X178155714Y-74883333D01*
X178155714Y-74692857D01*
X178203333Y-74597619D01*
X178250952Y-74550000D01*
X178346190Y-74502380D01*
X178631904Y-74502380D01*
X178727142Y-74550000D01*
X178774761Y-74597619D01*
X178822380Y-74692857D01*
X178822380Y-74883333D01*
X178774761Y-74978571D01*
X178298571Y-73740476D02*
X178298571Y-74073809D01*
X178822380Y-74073809D02*
X177822380Y-74073809D01*
X177822380Y-73597619D01*
D16*
X177289285Y-75091666D02*
X177301190Y-75103571D01*
X177313095Y-75139285D01*
X177313095Y-75163095D01*
X177301190Y-75198809D01*
X177277380Y-75222619D01*
X177253571Y-75234523D01*
X177205952Y-75246428D01*
X177170238Y-75246428D01*
X177122619Y-75234523D01*
X177098809Y-75222619D01*
X177075000Y-75198809D01*
X177063095Y-75163095D01*
X177063095Y-75139285D01*
X177075000Y-75103571D01*
X177086904Y-75091666D01*
X177063095Y-75008333D02*
X177063095Y-74841666D01*
X177313095Y-74948809D01*
D14*
X177917619Y-78930952D02*
X177870000Y-78883333D01*
X177822380Y-78788095D01*
X177822380Y-78550000D01*
X177870000Y-78454761D01*
X177917619Y-78407142D01*
X178012857Y-78359523D01*
X178108095Y-78359523D01*
X178250952Y-78407142D01*
X178822380Y-78978571D01*
X178822380Y-78359523D01*
X178727142Y-77930952D02*
X178774761Y-77883333D01*
X178822380Y-77930952D01*
X178774761Y-77978571D01*
X178727142Y-77930952D01*
X178822380Y-77930952D01*
X177822380Y-77550000D02*
X177822380Y-76883333D01*
X178822380Y-77311904D01*
X178155714Y-76502380D02*
X179155714Y-76502380D01*
X178203333Y-76502380D02*
X178155714Y-76407142D01*
X178155714Y-76216666D01*
X178203333Y-76121428D01*
X178250952Y-76073809D01*
X178346190Y-76026190D01*
X178631904Y-76026190D01*
X178727142Y-76073809D01*
X178774761Y-76121428D01*
X178822380Y-76216666D01*
X178822380Y-76407142D01*
X178774761Y-76502380D01*
X178298571Y-75264285D02*
X178298571Y-75597619D01*
X178822380Y-75597619D02*
X177822380Y-75597619D01*
X177822380Y-75121428D01*
D16*
X177289285Y-77091666D02*
X177301190Y-77103571D01*
X177313095Y-77139285D01*
X177313095Y-77163095D01*
X177301190Y-77198809D01*
X177277380Y-77222619D01*
X177253571Y-77234523D01*
X177205952Y-77246428D01*
X177170238Y-77246428D01*
X177122619Y-77234523D01*
X177098809Y-77222619D01*
X177075000Y-77198809D01*
X177063095Y-77163095D01*
X177063095Y-77139285D01*
X177075000Y-77103571D01*
X177086904Y-77091666D01*
X177063095Y-76877380D02*
X177063095Y-76925000D01*
X177075000Y-76948809D01*
X177086904Y-76960714D01*
X177122619Y-76984523D01*
X177170238Y-76996428D01*
X177265476Y-76996428D01*
X177289285Y-76984523D01*
X177301190Y-76972619D01*
X177313095Y-76948809D01*
X177313095Y-76901190D01*
X177301190Y-76877380D01*
X177289285Y-76865476D01*
X177265476Y-76853571D01*
X177205952Y-76853571D01*
X177182142Y-76865476D01*
X177170238Y-76877380D01*
X177158333Y-76901190D01*
X177158333Y-76948809D01*
X177170238Y-76972619D01*
X177182142Y-76984523D01*
X177205952Y-76996428D01*
D14*
X144329334Y-123122990D02*
X144800738Y-123594394D01*
X143891601Y-123021974D02*
X144228318Y-123695409D01*
X144666051Y-123257677D01*
X144396677Y-122584242D02*
X144868082Y-122112837D01*
X145272143Y-123122990D01*
X145373158Y-122079165D02*
X146080265Y-122786272D01*
X145406830Y-122112837D02*
X145440501Y-122011822D01*
X145575188Y-121877135D01*
X145676204Y-121843463D01*
X145743547Y-121843463D01*
X145844562Y-121877135D01*
X146046593Y-122079165D01*
X146080265Y-122180181D01*
X146080265Y-122247524D01*
X146046593Y-122348539D01*
X145911906Y-122483226D01*
X145810891Y-122516898D01*
X146349639Y-121304715D02*
X146113936Y-121540417D01*
X146484326Y-121910807D02*
X145777219Y-121203700D01*
X146113936Y-120866982D01*
X146854715Y-120058860D02*
X147157761Y-121574089D01*
X147460807Y-119520112D02*
X147124089Y-119856830D01*
X147427135Y-120227219D01*
X147427135Y-120159875D01*
X147460807Y-120058860D01*
X147629165Y-119890501D01*
X147730181Y-119856830D01*
X147797524Y-119856830D01*
X147898539Y-119890501D01*
X148066898Y-120058860D01*
X148100570Y-120159875D01*
X148100570Y-120227219D01*
X148066898Y-120328234D01*
X147898539Y-120496593D01*
X147797524Y-120530265D01*
X147730181Y-120530265D01*
X147932211Y-119048708D02*
X147999555Y-118981364D01*
X148100570Y-118947692D01*
X148167913Y-118947692D01*
X148268929Y-118981364D01*
X148437287Y-119082379D01*
X148605646Y-119250738D01*
X148706661Y-119419097D01*
X148740333Y-119520112D01*
X148740333Y-119587456D01*
X148706661Y-119688471D01*
X148639318Y-119755814D01*
X148538303Y-119789486D01*
X148470959Y-119789486D01*
X148369944Y-119755814D01*
X148201585Y-119654799D01*
X148033226Y-119486440D01*
X147932211Y-119318082D01*
X147898539Y-119217066D01*
X147898539Y-119149723D01*
X147932211Y-119048708D01*
X148369944Y-118610975D02*
X149312753Y-119082379D01*
X148841348Y-118139570D01*
D16*
X147513671Y-122022597D02*
X147513671Y-122039433D01*
X147496835Y-122073104D01*
X147480000Y-122089940D01*
X147446328Y-122106776D01*
X147412656Y-122106776D01*
X147387402Y-122098358D01*
X147345312Y-122073104D01*
X147320059Y-122047851D01*
X147294805Y-122005761D01*
X147286387Y-121980507D01*
X147286387Y-121946835D01*
X147303223Y-121913164D01*
X147320059Y-121896328D01*
X147353730Y-121879492D01*
X147370566Y-121879492D01*
X147564179Y-121770059D02*
X147682030Y-121887910D01*
X147454746Y-121744805D02*
X147538925Y-121913164D01*
X147648358Y-121803730D01*
D14*
X142931364Y-122233768D02*
X142527303Y-122637829D01*
X142729334Y-122435799D02*
X142022227Y-121728692D01*
X142055899Y-121897051D01*
X142055899Y-122031738D01*
X142022227Y-122132753D01*
X142661990Y-121088929D02*
X142729334Y-121021585D01*
X142830349Y-120987913D01*
X142897692Y-120987913D01*
X142998708Y-121021585D01*
X143167066Y-121122600D01*
X143335425Y-121290959D01*
X143436440Y-121459318D01*
X143470112Y-121560333D01*
X143470112Y-121627677D01*
X143436440Y-121728692D01*
X143369097Y-121796035D01*
X143268082Y-121829707D01*
X143200738Y-121829707D01*
X143099723Y-121796035D01*
X142931364Y-121695020D01*
X142763005Y-121526661D01*
X142661990Y-121358303D01*
X142628318Y-121257287D01*
X142628318Y-121189944D01*
X142661990Y-121088929D01*
X143335425Y-120415494D02*
X143402769Y-120348150D01*
X143503784Y-120314478D01*
X143571127Y-120314478D01*
X143672143Y-120348150D01*
X143840501Y-120449165D01*
X144008860Y-120617524D01*
X144109875Y-120785883D01*
X144143547Y-120886898D01*
X144143547Y-120954242D01*
X144109875Y-121055257D01*
X144042532Y-121122600D01*
X143941517Y-121156272D01*
X143874173Y-121156272D01*
X143773158Y-121122600D01*
X143604799Y-121021585D01*
X143436440Y-120853226D01*
X143335425Y-120684868D01*
X143301753Y-120583852D01*
X143301753Y-120516509D01*
X143335425Y-120415494D01*
X144109875Y-120112448D02*
X144581280Y-120583852D01*
X144177219Y-120179791D02*
X144177219Y-120112448D01*
X144210891Y-120011433D01*
X144311906Y-119910417D01*
X144412921Y-119876746D01*
X144513936Y-119910417D01*
X144884326Y-120280807D01*
X145086356Y-119337997D02*
X144850654Y-119573700D01*
X145221043Y-119944089D02*
X144513936Y-119236982D01*
X144850654Y-118900265D01*
X145591433Y-118092143D02*
X145894478Y-119607372D01*
X146938303Y-118226830D02*
X146534242Y-118630891D01*
X146736272Y-118428860D02*
X146029165Y-117721753D01*
X146062837Y-117890112D01*
X146062837Y-118024799D01*
X146029165Y-118125814D01*
X146837287Y-116913631D02*
X146702600Y-117048318D01*
X146668929Y-117149334D01*
X146668929Y-117216677D01*
X146702600Y-117385036D01*
X146803616Y-117553395D01*
X147072990Y-117822769D01*
X147174005Y-117856440D01*
X147241348Y-117856440D01*
X147342364Y-117822769D01*
X147477051Y-117688082D01*
X147510722Y-117587066D01*
X147510722Y-117519723D01*
X147477051Y-117418708D01*
X147308692Y-117250349D01*
X147207677Y-117216677D01*
X147140333Y-117216677D01*
X147039318Y-117250349D01*
X146904631Y-117385036D01*
X146870959Y-117486051D01*
X146870959Y-117553395D01*
X146904631Y-117654410D01*
X147106661Y-116644257D02*
X148049470Y-117115662D01*
X147578066Y-116172853D01*
D16*
X145913671Y-120392597D02*
X145913671Y-120409433D01*
X145896835Y-120443104D01*
X145880000Y-120459940D01*
X145846328Y-120476776D01*
X145812656Y-120476776D01*
X145787402Y-120468358D01*
X145745312Y-120443104D01*
X145720059Y-120417851D01*
X145694805Y-120375761D01*
X145686387Y-120350507D01*
X145686387Y-120316835D01*
X145703223Y-120283164D01*
X145720059Y-120266328D01*
X145753730Y-120249492D01*
X145770566Y-120249492D01*
X145913671Y-120072715D02*
X145829492Y-120156895D01*
X145905253Y-120249492D01*
X145905253Y-120232656D01*
X145913671Y-120207402D01*
X145955761Y-120165312D01*
X145981015Y-120156895D01*
X145997851Y-120156895D01*
X146023104Y-120165312D01*
X146065194Y-120207402D01*
X146073612Y-120232656D01*
X146073612Y-120249492D01*
X146065194Y-120274746D01*
X146023104Y-120316835D01*
X145997851Y-120325253D01*
X145981015Y-120325253D01*
D14*
X144818860Y-121966272D02*
X144111753Y-121259165D01*
X144280112Y-121090807D01*
X144414799Y-121023463D01*
X144549486Y-121023463D01*
X144650501Y-121057135D01*
X144818860Y-121158150D01*
X144919875Y-121259165D01*
X145020891Y-121427524D01*
X145054562Y-121528539D01*
X145054562Y-121663226D01*
X144987219Y-121797913D01*
X144818860Y-121966272D01*
X145424952Y-121494868D02*
X145963700Y-120956120D01*
X145256593Y-120114326D02*
X145660654Y-119710265D01*
X146165730Y-120619402D02*
X145458623Y-119912295D01*
X145795341Y-119575578D02*
X146738150Y-120046982D01*
X146266746Y-119104173D01*
X147142211Y-119575578D02*
X147276898Y-119508234D01*
X147445257Y-119339875D01*
X147478929Y-119238860D01*
X147478929Y-119171517D01*
X147445257Y-119070501D01*
X147377913Y-119003158D01*
X147276898Y-118969486D01*
X147209555Y-118969486D01*
X147108539Y-119003158D01*
X146940181Y-119104173D01*
X146839165Y-119137845D01*
X146771822Y-119137845D01*
X146670807Y-119104173D01*
X146603463Y-119036830D01*
X146569791Y-118935814D01*
X146569791Y-118868471D01*
X146603463Y-118767456D01*
X146771822Y-118599097D01*
X146906509Y-118531753D01*
D16*
X146639492Y-121320448D02*
X146462715Y-121143671D01*
X146504805Y-121101582D01*
X146538477Y-121084746D01*
X146572148Y-121084746D01*
X146597402Y-121093164D01*
X146639492Y-121118417D01*
X146664746Y-121143671D01*
X146690000Y-121185761D01*
X146698417Y-121211015D01*
X146698417Y-121244687D01*
X146681582Y-121278358D01*
X146639492Y-121320448D01*
X146774179Y-120950059D02*
X146892030Y-121067910D01*
X146664746Y-120924805D02*
X146748925Y-121093164D01*
X146858358Y-120983730D01*
D14*
X124119047Y-88428571D02*
X123785714Y-88428571D01*
X123785714Y-88952380D02*
X123785714Y-87952380D01*
X124261904Y-87952380D01*
X124642857Y-88952380D02*
X124642857Y-88285714D01*
X124642857Y-87952380D02*
X124595238Y-88000000D01*
X124642857Y-88047619D01*
X124690476Y-88000000D01*
X124642857Y-87952380D01*
X124642857Y-88047619D01*
X125547619Y-88952380D02*
X125547619Y-87952380D01*
X125547619Y-88904761D02*
X125452380Y-88952380D01*
X125261904Y-88952380D01*
X125166666Y-88904761D01*
X125119047Y-88857142D01*
X125071428Y-88761904D01*
X125071428Y-88476190D01*
X125119047Y-88380952D01*
X125166666Y-88333333D01*
X125261904Y-88285714D01*
X125452380Y-88285714D01*
X125547619Y-88333333D01*
X126452380Y-88285714D02*
X126452380Y-88952380D01*
X126023809Y-88285714D02*
X126023809Y-88809523D01*
X126071428Y-88904761D01*
X126166666Y-88952380D01*
X126309523Y-88952380D01*
X126404761Y-88904761D01*
X126452380Y-88857142D01*
X127357142Y-88904761D02*
X127261904Y-88952380D01*
X127071428Y-88952380D01*
X126976190Y-88904761D01*
X126928571Y-88857142D01*
X126880952Y-88761904D01*
X126880952Y-88476190D01*
X126928571Y-88380952D01*
X126976190Y-88333333D01*
X127071428Y-88285714D01*
X127261904Y-88285714D01*
X127357142Y-88333333D01*
X127785714Y-88952380D02*
X127785714Y-88285714D01*
X127785714Y-87952380D02*
X127738095Y-88000000D01*
X127785714Y-88047619D01*
X127833333Y-88000000D01*
X127785714Y-87952380D01*
X127785714Y-88047619D01*
X128690476Y-88952380D02*
X128690476Y-88428571D01*
X128642857Y-88333333D01*
X128547619Y-88285714D01*
X128357142Y-88285714D01*
X128261904Y-88333333D01*
X128690476Y-88904761D02*
X128595238Y-88952380D01*
X128357142Y-88952380D01*
X128261904Y-88904761D01*
X128214285Y-88809523D01*
X128214285Y-88714285D01*
X128261904Y-88619047D01*
X128357142Y-88571428D01*
X128595238Y-88571428D01*
X128690476Y-88523809D01*
X129309523Y-88952380D02*
X129214285Y-88904761D01*
X129166666Y-88809523D01*
X129166666Y-87952380D01*
D17*
X126178571Y-86478571D02*
X126078571Y-86478571D01*
X126078571Y-86635714D02*
X126078571Y-86335714D01*
X126221428Y-86335714D01*
X126335714Y-86635714D02*
X126335714Y-86335714D01*
X126478571Y-86635714D02*
X126478571Y-86335714D01*
X126550000Y-86335714D01*
X126592857Y-86350000D01*
X126621428Y-86378571D01*
X126635714Y-86407142D01*
X126650000Y-86464285D01*
X126650000Y-86507142D01*
X126635714Y-86564285D01*
X126621428Y-86592857D01*
X126592857Y-86621428D01*
X126550000Y-86635714D01*
X126478571Y-86635714D01*
X126935714Y-86635714D02*
X126764285Y-86635714D01*
X126850000Y-86635714D02*
X126850000Y-86335714D01*
X126821428Y-86378571D01*
X126792857Y-86407142D01*
X126764285Y-86421428D01*
D14*
X169119047Y-72428571D02*
X168785714Y-72428571D01*
X168785714Y-72952380D02*
X168785714Y-71952380D01*
X169261904Y-71952380D01*
X169642857Y-72952380D02*
X169642857Y-72285714D01*
X169642857Y-71952380D02*
X169595238Y-72000000D01*
X169642857Y-72047619D01*
X169690476Y-72000000D01*
X169642857Y-71952380D01*
X169642857Y-72047619D01*
X170547619Y-72952380D02*
X170547619Y-71952380D01*
X170547619Y-72904761D02*
X170452380Y-72952380D01*
X170261904Y-72952380D01*
X170166666Y-72904761D01*
X170119047Y-72857142D01*
X170071428Y-72761904D01*
X170071428Y-72476190D01*
X170119047Y-72380952D01*
X170166666Y-72333333D01*
X170261904Y-72285714D01*
X170452380Y-72285714D01*
X170547619Y-72333333D01*
X171452380Y-72285714D02*
X171452380Y-72952380D01*
X171023809Y-72285714D02*
X171023809Y-72809523D01*
X171071428Y-72904761D01*
X171166666Y-72952380D01*
X171309523Y-72952380D01*
X171404761Y-72904761D01*
X171452380Y-72857142D01*
X172357142Y-72904761D02*
X172261904Y-72952380D01*
X172071428Y-72952380D01*
X171976190Y-72904761D01*
X171928571Y-72857142D01*
X171880952Y-72761904D01*
X171880952Y-72476190D01*
X171928571Y-72380952D01*
X171976190Y-72333333D01*
X172071428Y-72285714D01*
X172261904Y-72285714D01*
X172357142Y-72333333D01*
X172785714Y-72952380D02*
X172785714Y-72285714D01*
X172785714Y-71952380D02*
X172738095Y-72000000D01*
X172785714Y-72047619D01*
X172833333Y-72000000D01*
X172785714Y-71952380D01*
X172785714Y-72047619D01*
X173690476Y-72952380D02*
X173690476Y-72428571D01*
X173642857Y-72333333D01*
X173547619Y-72285714D01*
X173357142Y-72285714D01*
X173261904Y-72333333D01*
X173690476Y-72904761D02*
X173595238Y-72952380D01*
X173357142Y-72952380D01*
X173261904Y-72904761D01*
X173214285Y-72809523D01*
X173214285Y-72714285D01*
X173261904Y-72619047D01*
X173357142Y-72571428D01*
X173595238Y-72571428D01*
X173690476Y-72523809D01*
X174309523Y-72952380D02*
X174214285Y-72904761D01*
X174166666Y-72809523D01*
X174166666Y-71952380D01*
D17*
X171178571Y-70478571D02*
X171078571Y-70478571D01*
X171078571Y-70635714D02*
X171078571Y-70335714D01*
X171221428Y-70335714D01*
X171335714Y-70635714D02*
X171335714Y-70335714D01*
X171478571Y-70635714D02*
X171478571Y-70335714D01*
X171550000Y-70335714D01*
X171592857Y-70350000D01*
X171621428Y-70378571D01*
X171635714Y-70407142D01*
X171650000Y-70464285D01*
X171650000Y-70507142D01*
X171635714Y-70564285D01*
X171621428Y-70592857D01*
X171592857Y-70621428D01*
X171550000Y-70635714D01*
X171478571Y-70635714D01*
X171764285Y-70364285D02*
X171778571Y-70350000D01*
X171807142Y-70335714D01*
X171878571Y-70335714D01*
X171907142Y-70350000D01*
X171921428Y-70364285D01*
X171935714Y-70392857D01*
X171935714Y-70421428D01*
X171921428Y-70464285D01*
X171750000Y-70635714D01*
X171935714Y-70635714D01*
D14*
X169119047Y-138928571D02*
X168785714Y-138928571D01*
X168785714Y-139452380D02*
X168785714Y-138452380D01*
X169261904Y-138452380D01*
X169642857Y-139452380D02*
X169642857Y-138785714D01*
X169642857Y-138452380D02*
X169595238Y-138500000D01*
X169642857Y-138547619D01*
X169690476Y-138500000D01*
X169642857Y-138452380D01*
X169642857Y-138547619D01*
X170547619Y-139452380D02*
X170547619Y-138452380D01*
X170547619Y-139404761D02*
X170452380Y-139452380D01*
X170261904Y-139452380D01*
X170166666Y-139404761D01*
X170119047Y-139357142D01*
X170071428Y-139261904D01*
X170071428Y-138976190D01*
X170119047Y-138880952D01*
X170166666Y-138833333D01*
X170261904Y-138785714D01*
X170452380Y-138785714D01*
X170547619Y-138833333D01*
X171452380Y-138785714D02*
X171452380Y-139452380D01*
X171023809Y-138785714D02*
X171023809Y-139309523D01*
X171071428Y-139404761D01*
X171166666Y-139452380D01*
X171309523Y-139452380D01*
X171404761Y-139404761D01*
X171452380Y-139357142D01*
X172357142Y-139404761D02*
X172261904Y-139452380D01*
X172071428Y-139452380D01*
X171976190Y-139404761D01*
X171928571Y-139357142D01*
X171880952Y-139261904D01*
X171880952Y-138976190D01*
X171928571Y-138880952D01*
X171976190Y-138833333D01*
X172071428Y-138785714D01*
X172261904Y-138785714D01*
X172357142Y-138833333D01*
X172785714Y-139452380D02*
X172785714Y-138785714D01*
X172785714Y-138452380D02*
X172738095Y-138500000D01*
X172785714Y-138547619D01*
X172833333Y-138500000D01*
X172785714Y-138452380D01*
X172785714Y-138547619D01*
X173690476Y-139452380D02*
X173690476Y-138928571D01*
X173642857Y-138833333D01*
X173547619Y-138785714D01*
X173357142Y-138785714D01*
X173261904Y-138833333D01*
X173690476Y-139404761D02*
X173595238Y-139452380D01*
X173357142Y-139452380D01*
X173261904Y-139404761D01*
X173214285Y-139309523D01*
X173214285Y-139214285D01*
X173261904Y-139119047D01*
X173357142Y-139071428D01*
X173595238Y-139071428D01*
X173690476Y-139023809D01*
X174309523Y-139452380D02*
X174214285Y-139404761D01*
X174166666Y-139309523D01*
X174166666Y-138452380D01*
D17*
X171178571Y-136978571D02*
X171078571Y-136978571D01*
X171078571Y-137135714D02*
X171078571Y-136835714D01*
X171221428Y-136835714D01*
X171335714Y-137135714D02*
X171335714Y-136835714D01*
X171478571Y-137135714D02*
X171478571Y-136835714D01*
X171550000Y-136835714D01*
X171592857Y-136850000D01*
X171621428Y-136878571D01*
X171635714Y-136907142D01*
X171650000Y-136964285D01*
X171650000Y-137007142D01*
X171635714Y-137064285D01*
X171621428Y-137092857D01*
X171592857Y-137121428D01*
X171550000Y-137135714D01*
X171478571Y-137135714D01*
X171750000Y-136835714D02*
X171935714Y-136835714D01*
X171835714Y-136950000D01*
X171878571Y-136950000D01*
X171907142Y-136964285D01*
X171921428Y-136978571D01*
X171935714Y-137007142D01*
X171935714Y-137078571D01*
X171921428Y-137107142D01*
X171907142Y-137121428D01*
X171878571Y-137135714D01*
X171792857Y-137135714D01*
X171764285Y-137121428D01*
X171750000Y-137107142D01*
D15*
X117787414Y-108602474D02*
X116186949Y-108602474D01*
X117330139Y-108068986D01*
X116186949Y-107535497D01*
X117787414Y-107535497D01*
X117787414Y-106773371D02*
X116720438Y-106773371D01*
X116186949Y-106773371D02*
X116263162Y-106849584D01*
X116339375Y-106773371D01*
X116263162Y-106697159D01*
X116186949Y-106773371D01*
X116339375Y-106773371D01*
X117711202Y-105325331D02*
X117787414Y-105477757D01*
X117787414Y-105782607D01*
X117711202Y-105935032D01*
X117634989Y-106011245D01*
X117482564Y-106087458D01*
X117025288Y-106087458D01*
X116872863Y-106011245D01*
X116796650Y-105935032D01*
X116720438Y-105782607D01*
X116720438Y-105477757D01*
X116796650Y-105325331D01*
X117787414Y-104639418D02*
X116720438Y-104639418D01*
X117025288Y-104639418D02*
X116872863Y-104563205D01*
X116796650Y-104486993D01*
X116720438Y-104334567D01*
X116720438Y-104182142D01*
X117787414Y-103420016D02*
X117711202Y-103572441D01*
X117634989Y-103648654D01*
X117482564Y-103724866D01*
X117025288Y-103724866D01*
X116872863Y-103648654D01*
X116796650Y-103572441D01*
X116720438Y-103420016D01*
X116720438Y-103191378D01*
X116796650Y-103038953D01*
X116872863Y-102962740D01*
X117025288Y-102886528D01*
X117482564Y-102886528D01*
X117634989Y-102962740D01*
X117711202Y-103038953D01*
X117787414Y-103191378D01*
X117787414Y-103420016D01*
X117939840Y-102581677D02*
X117939840Y-101362275D01*
X117711202Y-101057425D02*
X117787414Y-100828787D01*
X117787414Y-100447724D01*
X117711202Y-100295299D01*
X117634989Y-100219086D01*
X117482564Y-100142873D01*
X117330139Y-100142873D01*
X117177713Y-100219086D01*
X117101501Y-100295299D01*
X117025288Y-100447724D01*
X116949076Y-100752574D01*
X116872863Y-100905000D01*
X116796650Y-100981212D01*
X116644225Y-101057425D01*
X116491800Y-101057425D01*
X116339375Y-100981212D01*
X116263162Y-100905000D01*
X116186949Y-100752574D01*
X116186949Y-100371511D01*
X116263162Y-100142873D01*
X117787414Y-99456960D02*
X116186949Y-99456960D01*
X116186949Y-99075897D01*
X116263162Y-98847259D01*
X116415587Y-98694834D01*
X116568012Y-98618621D01*
X116872863Y-98542408D01*
X117101501Y-98542408D01*
X117406351Y-98618621D01*
X117558777Y-98694834D01*
X117711202Y-98847259D01*
X117787414Y-99075897D01*
X117787414Y-99456960D01*
X117939840Y-98237558D02*
X117939840Y-97018156D01*
X117634989Y-95722541D02*
X117711202Y-95798754D01*
X117787414Y-96027392D01*
X117787414Y-96179817D01*
X117711202Y-96408455D01*
X117558777Y-96560880D01*
X117406351Y-96637093D01*
X117101501Y-96713305D01*
X116872863Y-96713305D01*
X116568012Y-96637093D01*
X116415587Y-96560880D01*
X116263162Y-96408455D01*
X116186949Y-96179817D01*
X116186949Y-96027392D01*
X116263162Y-95798754D01*
X116339375Y-95722541D01*
X117787414Y-94350714D02*
X116949076Y-94350714D01*
X116796650Y-94426927D01*
X116720438Y-94579352D01*
X116720438Y-94884203D01*
X116796650Y-95036628D01*
X117711202Y-94350714D02*
X117787414Y-94503140D01*
X117787414Y-94884203D01*
X117711202Y-95036628D01*
X117558777Y-95112840D01*
X117406351Y-95112840D01*
X117253926Y-95036628D01*
X117177713Y-94884203D01*
X117177713Y-94503140D01*
X117101501Y-94350714D01*
X117787414Y-93588588D02*
X116720438Y-93588588D01*
X117025288Y-93588588D02*
X116872863Y-93512375D01*
X116796650Y-93436163D01*
X116720438Y-93283738D01*
X116720438Y-93131312D01*
X117787414Y-91911910D02*
X116186949Y-91911910D01*
X117711202Y-91911910D02*
X117787414Y-92064336D01*
X117787414Y-92369186D01*
X117711202Y-92521611D01*
X117634989Y-92597824D01*
X117482564Y-92674037D01*
X117025288Y-92674037D01*
X116872863Y-92597824D01*
X116796650Y-92521611D01*
X116720438Y-92369186D01*
X116720438Y-92064336D01*
X116796650Y-91911910D01*
X117939840Y-91530847D02*
X117939840Y-90311445D01*
X117787414Y-89930382D02*
X116186949Y-89930382D01*
X116186949Y-89549319D01*
X116263162Y-89320681D01*
X116415587Y-89168256D01*
X116568012Y-89092044D01*
X116872863Y-89015831D01*
X117101501Y-89015831D01*
X117406351Y-89092044D01*
X117558777Y-89168256D01*
X117711202Y-89320681D01*
X117787414Y-89549319D01*
X117787414Y-89930382D01*
X117711202Y-87720216D02*
X117787414Y-87872642D01*
X117787414Y-88177492D01*
X117711202Y-88329917D01*
X117558777Y-88406130D01*
X116949076Y-88406130D01*
X116796650Y-88329917D01*
X116720438Y-88177492D01*
X116720438Y-87872642D01*
X116796650Y-87720216D01*
X116949076Y-87644004D01*
X117101501Y-87644004D01*
X117253926Y-88406130D01*
X116720438Y-87186728D02*
X116720438Y-86577027D01*
X116186949Y-86958090D02*
X117558777Y-86958090D01*
X117711202Y-86881878D01*
X117787414Y-86729452D01*
X117787414Y-86577027D01*
D14*
X136214285Y-117152380D02*
X136214285Y-116152380D01*
X136547619Y-116866666D01*
X136880952Y-116152380D01*
X136880952Y-117152380D01*
X137500000Y-117152380D02*
X137404761Y-117104761D01*
X137357142Y-117057142D01*
X137309523Y-116961904D01*
X137309523Y-116676190D01*
X137357142Y-116580952D01*
X137404761Y-116533333D01*
X137500000Y-116485714D01*
X137642857Y-116485714D01*
X137738095Y-116533333D01*
X137785714Y-116580952D01*
X137833333Y-116676190D01*
X137833333Y-116961904D01*
X137785714Y-117057142D01*
X137738095Y-117104761D01*
X137642857Y-117152380D01*
X137500000Y-117152380D01*
X138690476Y-116485714D02*
X138690476Y-117152380D01*
X138261904Y-116485714D02*
X138261904Y-117009523D01*
X138309523Y-117104761D01*
X138404761Y-117152380D01*
X138547619Y-117152380D01*
X138642857Y-117104761D01*
X138690476Y-117057142D01*
X139166666Y-116485714D02*
X139166666Y-117152380D01*
X139166666Y-116580952D02*
X139214285Y-116533333D01*
X139309523Y-116485714D01*
X139452380Y-116485714D01*
X139547619Y-116533333D01*
X139595238Y-116628571D01*
X139595238Y-117152380D01*
X139928571Y-116485714D02*
X140309523Y-116485714D01*
X140071428Y-116152380D02*
X140071428Y-117009523D01*
X140119047Y-117104761D01*
X140214285Y-117152380D01*
X140309523Y-117152380D01*
X140642857Y-117152380D02*
X140642857Y-116485714D01*
X140642857Y-116152380D02*
X140595238Y-116200000D01*
X140642857Y-116247619D01*
X140690476Y-116200000D01*
X140642857Y-116152380D01*
X140642857Y-116247619D01*
X141119047Y-116485714D02*
X141119047Y-117152380D01*
X141119047Y-116580952D02*
X141166666Y-116533333D01*
X141261904Y-116485714D01*
X141404761Y-116485714D01*
X141500000Y-116533333D01*
X141547619Y-116628571D01*
X141547619Y-117152380D01*
X142452380Y-116485714D02*
X142452380Y-117295238D01*
X142404761Y-117390476D01*
X142357142Y-117438095D01*
X142261904Y-117485714D01*
X142119047Y-117485714D01*
X142023809Y-117438095D01*
X142452380Y-117104761D02*
X142357142Y-117152380D01*
X142166666Y-117152380D01*
X142071428Y-117104761D01*
X142023809Y-117057142D01*
X141976190Y-116961904D01*
X141976190Y-116676190D01*
X142023809Y-116580952D01*
X142071428Y-116533333D01*
X142166666Y-116485714D01*
X142357142Y-116485714D01*
X142452380Y-116533333D01*
X142928571Y-117152380D02*
X142928571Y-116152380D01*
X142928571Y-116628571D02*
X143500000Y-116628571D01*
X143500000Y-117152380D02*
X143500000Y-116152380D01*
X144119047Y-117152380D02*
X144023809Y-117104761D01*
X143976190Y-117057142D01*
X143928571Y-116961904D01*
X143928571Y-116676190D01*
X143976190Y-116580952D01*
X144023809Y-116533333D01*
X144119047Y-116485714D01*
X144261904Y-116485714D01*
X144357142Y-116533333D01*
X144404761Y-116580952D01*
X144452380Y-116676190D01*
X144452380Y-116961904D01*
X144404761Y-117057142D01*
X144357142Y-117104761D01*
X144261904Y-117152380D01*
X144119047Y-117152380D01*
X145023809Y-117152380D02*
X144928571Y-117104761D01*
X144880952Y-117009523D01*
X144880952Y-116152380D01*
X145785714Y-117104761D02*
X145690476Y-117152380D01*
X145500000Y-117152380D01*
X145404761Y-117104761D01*
X145357142Y-117009523D01*
X145357142Y-116628571D01*
X145404761Y-116533333D01*
X145500000Y-116485714D01*
X145690476Y-116485714D01*
X145785714Y-116533333D01*
X145833333Y-116628571D01*
X145833333Y-116723809D01*
X145357142Y-116819047D01*
X139966666Y-113952380D02*
X139966666Y-112952380D01*
X140300000Y-113666666D01*
X140633333Y-112952380D01*
X140633333Y-113952380D01*
X141109523Y-113952380D02*
X141109523Y-112952380D01*
X141109523Y-113428571D02*
X141680952Y-113428571D01*
X141680952Y-113952380D02*
X141680952Y-112952380D01*
X142680952Y-113952380D02*
X142109523Y-113952380D01*
X142395238Y-113952380D02*
X142395238Y-112952380D01*
X142300000Y-113095238D01*
X142204761Y-113190476D01*
X142109523Y-113238095D01*
X171714285Y-99152380D02*
X171714285Y-98152380D01*
X172047619Y-98866666D01*
X172380952Y-98152380D01*
X172380952Y-99152380D01*
X173000000Y-99152380D02*
X172904761Y-99104761D01*
X172857142Y-99057142D01*
X172809523Y-98961904D01*
X172809523Y-98676190D01*
X172857142Y-98580952D01*
X172904761Y-98533333D01*
X173000000Y-98485714D01*
X173142857Y-98485714D01*
X173238095Y-98533333D01*
X173285714Y-98580952D01*
X173333333Y-98676190D01*
X173333333Y-98961904D01*
X173285714Y-99057142D01*
X173238095Y-99104761D01*
X173142857Y-99152380D01*
X173000000Y-99152380D01*
X174190476Y-98485714D02*
X174190476Y-99152380D01*
X173761904Y-98485714D02*
X173761904Y-99009523D01*
X173809523Y-99104761D01*
X173904761Y-99152380D01*
X174047619Y-99152380D01*
X174142857Y-99104761D01*
X174190476Y-99057142D01*
X174666666Y-98485714D02*
X174666666Y-99152380D01*
X174666666Y-98580952D02*
X174714285Y-98533333D01*
X174809523Y-98485714D01*
X174952380Y-98485714D01*
X175047619Y-98533333D01*
X175095238Y-98628571D01*
X175095238Y-99152380D01*
X175428571Y-98485714D02*
X175809523Y-98485714D01*
X175571428Y-98152380D02*
X175571428Y-99009523D01*
X175619047Y-99104761D01*
X175714285Y-99152380D01*
X175809523Y-99152380D01*
X176142857Y-99152380D02*
X176142857Y-98485714D01*
X176142857Y-98152380D02*
X176095238Y-98200000D01*
X176142857Y-98247619D01*
X176190476Y-98200000D01*
X176142857Y-98152380D01*
X176142857Y-98247619D01*
X176619047Y-98485714D02*
X176619047Y-99152380D01*
X176619047Y-98580952D02*
X176666666Y-98533333D01*
X176761904Y-98485714D01*
X176904761Y-98485714D01*
X177000000Y-98533333D01*
X177047619Y-98628571D01*
X177047619Y-99152380D01*
X177952380Y-98485714D02*
X177952380Y-99295238D01*
X177904761Y-99390476D01*
X177857142Y-99438095D01*
X177761904Y-99485714D01*
X177619047Y-99485714D01*
X177523809Y-99438095D01*
X177952380Y-99104761D02*
X177857142Y-99152380D01*
X177666666Y-99152380D01*
X177571428Y-99104761D01*
X177523809Y-99057142D01*
X177476190Y-98961904D01*
X177476190Y-98676190D01*
X177523809Y-98580952D01*
X177571428Y-98533333D01*
X177666666Y-98485714D01*
X177857142Y-98485714D01*
X177952380Y-98533333D01*
X178428571Y-99152380D02*
X178428571Y-98152380D01*
X178428571Y-98628571D02*
X179000000Y-98628571D01*
X179000000Y-99152380D02*
X179000000Y-98152380D01*
X179619047Y-99152380D02*
X179523809Y-99104761D01*
X179476190Y-99057142D01*
X179428571Y-98961904D01*
X179428571Y-98676190D01*
X179476190Y-98580952D01*
X179523809Y-98533333D01*
X179619047Y-98485714D01*
X179761904Y-98485714D01*
X179857142Y-98533333D01*
X179904761Y-98580952D01*
X179952380Y-98676190D01*
X179952380Y-98961904D01*
X179904761Y-99057142D01*
X179857142Y-99104761D01*
X179761904Y-99152380D01*
X179619047Y-99152380D01*
X180523809Y-99152380D02*
X180428571Y-99104761D01*
X180380952Y-99009523D01*
X180380952Y-98152380D01*
X181285714Y-99104761D02*
X181190476Y-99152380D01*
X181000000Y-99152380D01*
X180904761Y-99104761D01*
X180857142Y-99009523D01*
X180857142Y-98628571D01*
X180904761Y-98533333D01*
X181000000Y-98485714D01*
X181190476Y-98485714D01*
X181285714Y-98533333D01*
X181333333Y-98628571D01*
X181333333Y-98723809D01*
X180857142Y-98819047D01*
X175466666Y-95952380D02*
X175466666Y-94952380D01*
X175800000Y-95666666D01*
X176133333Y-94952380D01*
X176133333Y-95952380D01*
X176609523Y-95952380D02*
X176609523Y-94952380D01*
X176609523Y-95428571D02*
X177180952Y-95428571D01*
X177180952Y-95952380D02*
X177180952Y-94952380D01*
X178085714Y-95285714D02*
X178085714Y-95952380D01*
X177847619Y-94904761D02*
X177609523Y-95619047D01*
X178228571Y-95619047D01*
X135543571Y-70282380D02*
X134972142Y-70282380D01*
X135257857Y-70282380D02*
X135257857Y-69282380D01*
X135162619Y-69425238D01*
X135067380Y-69520476D01*
X134972142Y-69568095D01*
X136162619Y-69282380D02*
X136257857Y-69282380D01*
X136353095Y-69330000D01*
X136400714Y-69377619D01*
X136448333Y-69472857D01*
X136495952Y-69663333D01*
X136495952Y-69901428D01*
X136448333Y-70091904D01*
X136400714Y-70187142D01*
X136353095Y-70234761D01*
X136257857Y-70282380D01*
X136162619Y-70282380D01*
X136067380Y-70234761D01*
X136019761Y-70187142D01*
X135972142Y-70091904D01*
X135924523Y-69901428D01*
X135924523Y-69663333D01*
X135972142Y-69472857D01*
X136019761Y-69377619D01*
X136067380Y-69330000D01*
X136162619Y-69282380D01*
X137115000Y-69282380D02*
X137210238Y-69282380D01*
X137305476Y-69330000D01*
X137353095Y-69377619D01*
X137400714Y-69472857D01*
X137448333Y-69663333D01*
X137448333Y-69901428D01*
X137400714Y-70091904D01*
X137353095Y-70187142D01*
X137305476Y-70234761D01*
X137210238Y-70282380D01*
X137115000Y-70282380D01*
X137019761Y-70234761D01*
X136972142Y-70187142D01*
X136924523Y-70091904D01*
X136876904Y-69901428D01*
X136876904Y-69663333D01*
X136924523Y-69472857D01*
X136972142Y-69377619D01*
X137019761Y-69330000D01*
X137115000Y-69282380D01*
X137876904Y-70282380D02*
X137876904Y-69282380D01*
X137972142Y-69901428D02*
X138257857Y-70282380D01*
X138257857Y-69615714D02*
X137876904Y-69996666D01*
D16*
X136454285Y-71113095D02*
X136370952Y-70994047D01*
X136311428Y-71113095D02*
X136311428Y-70863095D01*
X136406666Y-70863095D01*
X136430476Y-70875000D01*
X136442380Y-70886904D01*
X136454285Y-70910714D01*
X136454285Y-70946428D01*
X136442380Y-70970238D01*
X136430476Y-70982142D01*
X136406666Y-70994047D01*
X136311428Y-70994047D01*
X136537619Y-70863095D02*
X136692380Y-70863095D01*
X136609047Y-70958333D01*
X136644761Y-70958333D01*
X136668571Y-70970238D01*
X136680476Y-70982142D01*
X136692380Y-71005952D01*
X136692380Y-71065476D01*
X136680476Y-71089285D01*
X136668571Y-71101190D01*
X136644761Y-71113095D01*
X136573333Y-71113095D01*
X136549523Y-71101190D01*
X136537619Y-71089285D01*
X136787619Y-70886904D02*
X136799523Y-70875000D01*
X136823333Y-70863095D01*
X136882857Y-70863095D01*
X136906666Y-70875000D01*
X136918571Y-70886904D01*
X136930476Y-70910714D01*
X136930476Y-70934523D01*
X136918571Y-70970238D01*
X136775714Y-71113095D01*
X136930476Y-71113095D01*
D14*
X135628571Y-78982380D02*
X135057142Y-78982380D01*
X135342857Y-78982380D02*
X135342857Y-77982380D01*
X135247619Y-78125238D01*
X135152380Y-78220476D01*
X135057142Y-78268095D01*
X136247619Y-77982380D02*
X136342857Y-77982380D01*
X136438095Y-78030000D01*
X136485714Y-78077619D01*
X136533333Y-78172857D01*
X136580952Y-78363333D01*
X136580952Y-78601428D01*
X136533333Y-78791904D01*
X136485714Y-78887142D01*
X136438095Y-78934761D01*
X136342857Y-78982380D01*
X136247619Y-78982380D01*
X136152380Y-78934761D01*
X136104761Y-78887142D01*
X136057142Y-78791904D01*
X136009523Y-78601428D01*
X136009523Y-78363333D01*
X136057142Y-78172857D01*
X136104761Y-78077619D01*
X136152380Y-78030000D01*
X136247619Y-77982380D01*
X137200000Y-77982380D02*
X137295238Y-77982380D01*
X137390476Y-78030000D01*
X137438095Y-78077619D01*
X137485714Y-78172857D01*
X137533333Y-78363333D01*
X137533333Y-78601428D01*
X137485714Y-78791904D01*
X137438095Y-78887142D01*
X137390476Y-78934761D01*
X137295238Y-78982380D01*
X137200000Y-78982380D01*
X137104761Y-78934761D01*
X137057142Y-78887142D01*
X137009523Y-78791904D01*
X136961904Y-78601428D01*
X136961904Y-78363333D01*
X137009523Y-78172857D01*
X137057142Y-78077619D01*
X137104761Y-78030000D01*
X137200000Y-77982380D01*
X137961904Y-78982380D02*
X137961904Y-77982380D01*
X138057142Y-78601428D02*
X138342857Y-78982380D01*
X138342857Y-78315714D02*
X137961904Y-78696666D01*
D16*
X136539285Y-79813095D02*
X136455952Y-79694047D01*
X136396428Y-79813095D02*
X136396428Y-79563095D01*
X136491666Y-79563095D01*
X136515476Y-79575000D01*
X136527380Y-79586904D01*
X136539285Y-79610714D01*
X136539285Y-79646428D01*
X136527380Y-79670238D01*
X136515476Y-79682142D01*
X136491666Y-79694047D01*
X136396428Y-79694047D01*
X136622619Y-79563095D02*
X136777380Y-79563095D01*
X136694047Y-79658333D01*
X136729761Y-79658333D01*
X136753571Y-79670238D01*
X136765476Y-79682142D01*
X136777380Y-79705952D01*
X136777380Y-79765476D01*
X136765476Y-79789285D01*
X136753571Y-79801190D01*
X136729761Y-79813095D01*
X136658333Y-79813095D01*
X136634523Y-79801190D01*
X136622619Y-79789285D01*
X136860714Y-79563095D02*
X137015476Y-79563095D01*
X136932142Y-79658333D01*
X136967857Y-79658333D01*
X136991666Y-79670238D01*
X137003571Y-79682142D01*
X137015476Y-79705952D01*
X137015476Y-79765476D01*
X137003571Y-79789285D01*
X136991666Y-79801190D01*
X136967857Y-79813095D01*
X136896428Y-79813095D01*
X136872619Y-79801190D01*
X136860714Y-79789285D01*
D14*
X173476190Y-74382380D02*
X174142857Y-74382380D01*
X173714285Y-75382380D01*
X174523809Y-75287142D02*
X174571428Y-75334761D01*
X174523809Y-75382380D01*
X174476190Y-75334761D01*
X174523809Y-75287142D01*
X174523809Y-75382380D01*
X175476190Y-74382380D02*
X175000000Y-74382380D01*
X174952380Y-74858571D01*
X175000000Y-74810952D01*
X175095238Y-74763333D01*
X175333333Y-74763333D01*
X175428571Y-74810952D01*
X175476190Y-74858571D01*
X175523809Y-74953809D01*
X175523809Y-75191904D01*
X175476190Y-75287142D01*
X175428571Y-75334761D01*
X175333333Y-75382380D01*
X175095238Y-75382380D01*
X175000000Y-75334761D01*
X174952380Y-75287142D01*
X175952380Y-74715714D02*
X175952380Y-75382380D01*
X175952380Y-74810952D02*
X176000000Y-74763333D01*
X176095238Y-74715714D01*
X176238095Y-74715714D01*
X176333333Y-74763333D01*
X176380952Y-74858571D01*
X176380952Y-75382380D01*
X176857142Y-75382380D02*
X176857142Y-74382380D01*
X176857142Y-74858571D02*
X177428571Y-74858571D01*
X177428571Y-75382380D02*
X177428571Y-74382380D01*
D16*
X175458333Y-76213095D02*
X175339285Y-76213095D01*
X175339285Y-75963095D01*
X175517857Y-75963095D02*
X175672619Y-75963095D01*
X175589285Y-76058333D01*
X175625000Y-76058333D01*
X175648809Y-76070238D01*
X175660714Y-76082142D01*
X175672619Y-76105952D01*
X175672619Y-76165476D01*
X175660714Y-76189285D01*
X175648809Y-76201190D01*
X175625000Y-76213095D01*
X175553571Y-76213095D01*
X175529761Y-76201190D01*
X175517857Y-76189285D01*
D14*
X177822380Y-81173809D02*
X177822380Y-80507142D01*
X178822380Y-80935714D01*
X178727142Y-80126190D02*
X178774761Y-80078571D01*
X178822380Y-80126190D01*
X178774761Y-80173809D01*
X178727142Y-80126190D01*
X178822380Y-80126190D01*
X177822380Y-79173809D02*
X177822380Y-79650000D01*
X178298571Y-79697619D01*
X178250952Y-79650000D01*
X178203333Y-79554761D01*
X178203333Y-79316666D01*
X178250952Y-79221428D01*
X178298571Y-79173809D01*
X178393809Y-79126190D01*
X178631904Y-79126190D01*
X178727142Y-79173809D01*
X178774761Y-79221428D01*
X178822380Y-79316666D01*
X178822380Y-79554761D01*
X178774761Y-79650000D01*
X178727142Y-79697619D01*
X178155714Y-78697619D02*
X178822380Y-78697619D01*
X178250952Y-78697619D02*
X178203333Y-78650000D01*
X178155714Y-78554761D01*
X178155714Y-78411904D01*
X178203333Y-78316666D01*
X178298571Y-78269047D01*
X178822380Y-78269047D01*
X178822380Y-77792857D02*
X177822380Y-77792857D01*
X178298571Y-77792857D02*
X178298571Y-77221428D01*
X178822380Y-77221428D02*
X177822380Y-77221428D01*
D16*
X177313095Y-79191666D02*
X177313095Y-79310714D01*
X177063095Y-79310714D01*
X177146428Y-79001190D02*
X177313095Y-79001190D01*
X177051190Y-79060714D02*
X177229761Y-79120238D01*
X177229761Y-78965476D01*
M02*
