G04 #@! TF.GenerationSoftware,KiCad,Pcbnew,5.1.6+dfsg1-1~bpo10+1*
G04 #@! TF.CreationDate,2021-06-19T16:41:49-04:00*
G04 #@! TF.ProjectId,RUSP_Daughterboard,52555350-5f44-4617-9567-68746572626f,rev?*
G04 #@! TF.SameCoordinates,Original*
G04 #@! TF.FileFunction,Paste,Bot*
G04 #@! TF.FilePolarity,Positive*
%FSLAX46Y46*%
G04 Gerber Fmt 4.6, Leading zero omitted, Abs format (unit mm)*
G04 Created by KiCad (PCBNEW 5.1.6+dfsg1-1~bpo10+1) date 2021-06-19 16:41:49*
%MOMM*%
%LPD*%
G01*
G04 APERTURE LIST*
%ADD10R,0.740000X1.675000*%
%ADD11R,1.500000X0.600000*%
%ADD12R,1.200000X0.900000*%
%ADD13R,3.000000X1.110000*%
G04 APERTURE END LIST*
G36*
G01*
X173180000Y-112677500D02*
X173180000Y-113022500D01*
G75*
G02*
X173032500Y-113170000I-147500J0D01*
G01*
X172737500Y-113170000D01*
G75*
G02*
X172590000Y-113022500I0J147500D01*
G01*
X172590000Y-112677500D01*
G75*
G02*
X172737500Y-112530000I147500J0D01*
G01*
X173032500Y-112530000D01*
G75*
G02*
X173180000Y-112677500I0J-147500D01*
G01*
G37*
G36*
G01*
X172210000Y-112677500D02*
X172210000Y-113022500D01*
G75*
G02*
X172062500Y-113170000I-147500J0D01*
G01*
X171767500Y-113170000D01*
G75*
G02*
X171620000Y-113022500I0J147500D01*
G01*
X171620000Y-112677500D01*
G75*
G02*
X171767500Y-112530000I147500J0D01*
G01*
X172062500Y-112530000D01*
G75*
G02*
X172210000Y-112677500I0J-147500D01*
G01*
G37*
G36*
G01*
X177490000Y-112972500D02*
X177490000Y-112627500D01*
G75*
G02*
X177637500Y-112480000I147500J0D01*
G01*
X177932500Y-112480000D01*
G75*
G02*
X178080000Y-112627500I0J-147500D01*
G01*
X178080000Y-112972500D01*
G75*
G02*
X177932500Y-113120000I-147500J0D01*
G01*
X177637500Y-113120000D01*
G75*
G02*
X177490000Y-112972500I0J147500D01*
G01*
G37*
G36*
G01*
X176520000Y-112972500D02*
X176520000Y-112627500D01*
G75*
G02*
X176667500Y-112480000I147500J0D01*
G01*
X176962500Y-112480000D01*
G75*
G02*
X177110000Y-112627500I0J-147500D01*
G01*
X177110000Y-112972500D01*
G75*
G02*
X176962500Y-113120000I-147500J0D01*
G01*
X176667500Y-113120000D01*
G75*
G02*
X176520000Y-112972500I0J147500D01*
G01*
G37*
G36*
G01*
X124610000Y-96027500D02*
X124610000Y-96372500D01*
G75*
G02*
X124462500Y-96520000I-147500J0D01*
G01*
X124167500Y-96520000D01*
G75*
G02*
X124020000Y-96372500I0J147500D01*
G01*
X124020000Y-96027500D01*
G75*
G02*
X124167500Y-95880000I147500J0D01*
G01*
X124462500Y-95880000D01*
G75*
G02*
X124610000Y-96027500I0J-147500D01*
G01*
G37*
G36*
G01*
X125580000Y-96027500D02*
X125580000Y-96372500D01*
G75*
G02*
X125432500Y-96520000I-147500J0D01*
G01*
X125137500Y-96520000D01*
G75*
G02*
X124990000Y-96372500I0J147500D01*
G01*
X124990000Y-96027500D01*
G75*
G02*
X125137500Y-95880000I147500J0D01*
G01*
X125432500Y-95880000D01*
G75*
G02*
X125580000Y-96027500I0J-147500D01*
G01*
G37*
G36*
G01*
X124835000Y-114177500D02*
X124835000Y-114522500D01*
G75*
G02*
X124687500Y-114670000I-147500J0D01*
G01*
X124392500Y-114670000D01*
G75*
G02*
X124245000Y-114522500I0J147500D01*
G01*
X124245000Y-114177500D01*
G75*
G02*
X124392500Y-114030000I147500J0D01*
G01*
X124687500Y-114030000D01*
G75*
G02*
X124835000Y-114177500I0J-147500D01*
G01*
G37*
G36*
G01*
X125805000Y-114177500D02*
X125805000Y-114522500D01*
G75*
G02*
X125657500Y-114670000I-147500J0D01*
G01*
X125362500Y-114670000D01*
G75*
G02*
X125215000Y-114522500I0J147500D01*
G01*
X125215000Y-114177500D01*
G75*
G02*
X125362500Y-114030000I147500J0D01*
G01*
X125657500Y-114030000D01*
G75*
G02*
X125805000Y-114177500I0J-147500D01*
G01*
G37*
G36*
G01*
X125970000Y-107077500D02*
X125970000Y-107422500D01*
G75*
G02*
X125822500Y-107570000I-147500J0D01*
G01*
X125527500Y-107570000D01*
G75*
G02*
X125380000Y-107422500I0J147500D01*
G01*
X125380000Y-107077500D01*
G75*
G02*
X125527500Y-106930000I147500J0D01*
G01*
X125822500Y-106930000D01*
G75*
G02*
X125970000Y-107077500I0J-147500D01*
G01*
G37*
G36*
G01*
X125000000Y-107077500D02*
X125000000Y-107422500D01*
G75*
G02*
X124852500Y-107570000I-147500J0D01*
G01*
X124557500Y-107570000D01*
G75*
G02*
X124410000Y-107422500I0J147500D01*
G01*
X124410000Y-107077500D01*
G75*
G02*
X124557500Y-106930000I147500J0D01*
G01*
X124852500Y-106930000D01*
G75*
G02*
X125000000Y-107077500I0J-147500D01*
G01*
G37*
G36*
G01*
X176960000Y-124327500D02*
X176960000Y-124672500D01*
G75*
G02*
X176812500Y-124820000I-147500J0D01*
G01*
X176517500Y-124820000D01*
G75*
G02*
X176370000Y-124672500I0J147500D01*
G01*
X176370000Y-124327500D01*
G75*
G02*
X176517500Y-124180000I147500J0D01*
G01*
X176812500Y-124180000D01*
G75*
G02*
X176960000Y-124327500I0J-147500D01*
G01*
G37*
G36*
G01*
X177930000Y-124327500D02*
X177930000Y-124672500D01*
G75*
G02*
X177782500Y-124820000I-147500J0D01*
G01*
X177487500Y-124820000D01*
G75*
G02*
X177340000Y-124672500I0J147500D01*
G01*
X177340000Y-124327500D01*
G75*
G02*
X177487500Y-124180000I147500J0D01*
G01*
X177782500Y-124180000D01*
G75*
G02*
X177930000Y-124327500I0J-147500D01*
G01*
G37*
G36*
G01*
X171920000Y-124722500D02*
X171920000Y-124377500D01*
G75*
G02*
X172067500Y-124230000I147500J0D01*
G01*
X172362500Y-124230000D01*
G75*
G02*
X172510000Y-124377500I0J-147500D01*
G01*
X172510000Y-124722500D01*
G75*
G02*
X172362500Y-124870000I-147500J0D01*
G01*
X172067500Y-124870000D01*
G75*
G02*
X171920000Y-124722500I0J147500D01*
G01*
G37*
G36*
G01*
X172890000Y-124722500D02*
X172890000Y-124377500D01*
G75*
G02*
X173037500Y-124230000I147500J0D01*
G01*
X173332500Y-124230000D01*
G75*
G02*
X173480000Y-124377500I0J-147500D01*
G01*
X173480000Y-124722500D01*
G75*
G02*
X173332500Y-124870000I-147500J0D01*
G01*
X173037500Y-124870000D01*
G75*
G02*
X172890000Y-124722500I0J147500D01*
G01*
G37*
G36*
G01*
X124610000Y-94627500D02*
X124610000Y-94972500D01*
G75*
G02*
X124462500Y-95120000I-147500J0D01*
G01*
X124167500Y-95120000D01*
G75*
G02*
X124020000Y-94972500I0J147500D01*
G01*
X124020000Y-94627500D01*
G75*
G02*
X124167500Y-94480000I147500J0D01*
G01*
X124462500Y-94480000D01*
G75*
G02*
X124610000Y-94627500I0J-147500D01*
G01*
G37*
G36*
G01*
X125580000Y-94627500D02*
X125580000Y-94972500D01*
G75*
G02*
X125432500Y-95120000I-147500J0D01*
G01*
X125137500Y-95120000D01*
G75*
G02*
X124990000Y-94972500I0J147500D01*
G01*
X124990000Y-94627500D01*
G75*
G02*
X125137500Y-94480000I147500J0D01*
G01*
X125432500Y-94480000D01*
G75*
G02*
X125580000Y-94627500I0J-147500D01*
G01*
G37*
G36*
G01*
X125795000Y-112852500D02*
X125795000Y-113197500D01*
G75*
G02*
X125647500Y-113345000I-147500J0D01*
G01*
X125352500Y-113345000D01*
G75*
G02*
X125205000Y-113197500I0J147500D01*
G01*
X125205000Y-112852500D01*
G75*
G02*
X125352500Y-112705000I147500J0D01*
G01*
X125647500Y-112705000D01*
G75*
G02*
X125795000Y-112852500I0J-147500D01*
G01*
G37*
G36*
G01*
X124825000Y-112852500D02*
X124825000Y-113197500D01*
G75*
G02*
X124677500Y-113345000I-147500J0D01*
G01*
X124382500Y-113345000D01*
G75*
G02*
X124235000Y-113197500I0J147500D01*
G01*
X124235000Y-112852500D01*
G75*
G02*
X124382500Y-112705000I147500J0D01*
G01*
X124677500Y-112705000D01*
G75*
G02*
X124825000Y-112852500I0J-147500D01*
G01*
G37*
G36*
G01*
X124910000Y-108302500D02*
X124910000Y-108647500D01*
G75*
G02*
X124762500Y-108795000I-147500J0D01*
G01*
X124467500Y-108795000D01*
G75*
G02*
X124320000Y-108647500I0J147500D01*
G01*
X124320000Y-108302500D01*
G75*
G02*
X124467500Y-108155000I147500J0D01*
G01*
X124762500Y-108155000D01*
G75*
G02*
X124910000Y-108302500I0J-147500D01*
G01*
G37*
G36*
G01*
X125880000Y-108302500D02*
X125880000Y-108647500D01*
G75*
G02*
X125732500Y-108795000I-147500J0D01*
G01*
X125437500Y-108795000D01*
G75*
G02*
X125290000Y-108647500I0J147500D01*
G01*
X125290000Y-108302500D01*
G75*
G02*
X125437500Y-108155000I147500J0D01*
G01*
X125732500Y-108155000D01*
G75*
G02*
X125880000Y-108302500I0J-147500D01*
G01*
G37*
D10*
X166375000Y-125660000D03*
X166375000Y-129340000D03*
X165105000Y-125660000D03*
X165105000Y-129340000D03*
X163835000Y-125660000D03*
X163835000Y-129340000D03*
X162565000Y-125660000D03*
X162565000Y-129340000D03*
X161295000Y-125660000D03*
X161295000Y-129340000D03*
X160025000Y-129340000D03*
X160025000Y-125660000D03*
X160025000Y-133360000D03*
X160025000Y-137040000D03*
X161295000Y-137040000D03*
X161295000Y-133360000D03*
X162565000Y-137040000D03*
X162565000Y-133360000D03*
X163835000Y-137040000D03*
X163835000Y-133360000D03*
X165105000Y-137040000D03*
X165105000Y-133360000D03*
X166375000Y-137040000D03*
X166375000Y-133360000D03*
G36*
G01*
X169322500Y-121630000D02*
X168977500Y-121630000D01*
G75*
G02*
X168830000Y-121482500I0J147500D01*
G01*
X168830000Y-121187500D01*
G75*
G02*
X168977500Y-121040000I147500J0D01*
G01*
X169322500Y-121040000D01*
G75*
G02*
X169470000Y-121187500I0J-147500D01*
G01*
X169470000Y-121482500D01*
G75*
G02*
X169322500Y-121630000I-147500J0D01*
G01*
G37*
G36*
G01*
X169322500Y-120660000D02*
X168977500Y-120660000D01*
G75*
G02*
X168830000Y-120512500I0J147500D01*
G01*
X168830000Y-120217500D01*
G75*
G02*
X168977500Y-120070000I147500J0D01*
G01*
X169322500Y-120070000D01*
G75*
G02*
X169470000Y-120217500I0J-147500D01*
G01*
X169470000Y-120512500D01*
G75*
G02*
X169322500Y-120660000I-147500J0D01*
G01*
G37*
D11*
X172150000Y-122410000D03*
X172150000Y-121140000D03*
X172150000Y-119870000D03*
X172150000Y-118600000D03*
X172150000Y-117330000D03*
X172150000Y-116060000D03*
X172150000Y-114790000D03*
X177550000Y-114790000D03*
X177550000Y-116060000D03*
X177550000Y-117330000D03*
X177550000Y-118600000D03*
X177550000Y-119870000D03*
X177550000Y-121140000D03*
X177550000Y-122410000D03*
D12*
X125000000Y-101450000D03*
X125000000Y-98150000D03*
X141700000Y-110450000D03*
X141700000Y-107150000D03*
D13*
X129630000Y-107530000D03*
X129502000Y-102450000D03*
X129502000Y-99910000D03*
X129502000Y-97370000D03*
X129502000Y-94830000D03*
X137630000Y-94830000D03*
X137630000Y-97370000D03*
X137630000Y-99910000D03*
X137630000Y-102450000D03*
X137630000Y-107530000D03*
M02*
