M48
; DRILL file {KiCad 6.0.0+dfsg1-2} date Wed 11 May 2022 10:29:57 PM EDT
; FORMAT={-:-/ absolute / inch / decimal}
; #@! TF.CreationDate,2022-05-11T22:29:57-04:00
; #@! TF.GenerationSoftware,Kicad,Pcbnew,6.0.0+dfsg1-2
; #@! TF.FileFunction,Plated,1,6,PTH
FMAT,2
INCH
; #@! TA.AperFunction,Plated,PTH,ViaDrill
T1C0.0118
; #@! TA.AperFunction,Plated,PTH,ViaDrill
T2C0.0157
; #@! TA.AperFunction,Plated,PTH,ComponentDrill
T3C0.0157
; #@! TA.AperFunction,Plated,PTH,ComponentDrill
T4C0.0197
; #@! TA.AperFunction,Plated,PTH,ComponentDrill
T5C0.0217
; #@! TA.AperFunction,Plated,PTH,ComponentDrill
T6C0.0236
; #@! TA.AperFunction,Plated,PTH,ComponentDrill
T7C0.0315
; #@! TA.AperFunction,Plated,PTH,ComponentDrill
T8C0.0354
; #@! TA.AperFunction,Plated,PTH,ComponentDrill
T9C0.0472
; #@! TA.AperFunction,Plated,PTH,ComponentDrill
T10C0.0492
; #@! TA.AperFunction,Plated,PTH,ComponentDrill
T11C0.0591
; #@! TA.AperFunction,Plated,PTH,ComponentDrill
T12C0.0984
; #@! TA.AperFunction,Plated,PTH,ComponentDrill
T13C0.1469
%
G90
G05
T1
X4.4536Y-4.3422
X4.4921Y-4.7874
X4.4961Y-4.5236
X4.5157Y-5.1457
X4.523Y-4.5629
X4.5572Y-4.3167
X4.5603Y-4.8614
X4.5689Y-4.2776
X4.5787Y-4.5394
X4.5795Y-4.944
X4.5906Y-4.9055
X4.6012Y-4.8054
X4.6142Y-4.7788
X4.6171Y-4.315
X4.6378Y-4.9961
X4.6417Y-2.752
X4.6516Y-5.2323
X4.6535Y-4.8701
X4.6535Y-5.0256
X4.6565Y-4.9468
X4.6692Y-5.1329
X4.6702Y-5.1852
X4.685Y-4.5717
X4.6863Y-5.0815
X4.689Y-4.4713
X4.6949Y-4.5315
X4.6955Y-5.4064
X4.6985Y-5.2766
X4.7043Y-5.2303
X4.7087Y-2.6732
X4.7165Y-2.6398
X4.7185Y-2.6063
X4.7205Y-2.7067
X4.7362Y-5.2175
X4.7387Y-5.2814
X4.7441Y-2.5807
X4.755Y-2.7376
X4.7677Y-5.4787
X4.7677Y-4.6614
X4.7697Y-2.5591
X4.7835Y-2.7657
X4.7968Y-4.7141
X4.8031Y-2.5453
X4.813Y-4.5768
X4.8189Y-2.7697
X4.8189Y-5.1397
X4.8219Y-4.8425
X4.8219Y-4.9291
X4.8244Y-5.3701
X4.8268Y-4.6102
X4.8268Y-4.9646
X4.8289Y-5.0236
X4.8366Y-2.5413
X4.8532Y-5.3637
X4.8545Y-4.5493
X4.8563Y-2.7598
X4.8597Y-4.5852
X4.8642Y-2.374
X4.8661Y-2.4114
X4.8701Y-2.4508
X4.874Y-2.563
X4.874Y-4.748
X4.8752Y-4.7144
X4.876Y-4.7795
X4.878Y-2.5079
X4.8852Y-4.5492
X4.8898Y-2.7756
X4.89Y-2.3
X4.8993Y-4.7328
X4.9016Y-2.5827
X4.9016Y-5.374
X4.9134Y-2.5197
X4.9134Y-5.6417
X4.9173Y-2.2776
X4.9173Y-2.7992
X4.9213Y-5.0197
X4.9219Y-5.195
X4.9272Y-2.6063
X4.9331Y-2.6437
X4.9331Y-2.687
X4.9331Y-4.9764
X4.9334Y-5.4427
X4.9409Y-2.5354
X4.9409Y-2.8268
X4.9424Y-4.7157
X4.9426Y-4.881
X4.9429Y-2.7224
X4.9488Y-2.5669
X4.9488Y-4.9099
X4.9528Y-5.0
X4.9567Y-2.2736
X4.9567Y-2.5984
X4.9606Y-4.3622
X4.965Y-4.8175
X4.9685Y-2.8583
X4.9705Y-2.7461
X4.9744Y-2.624
X4.9744Y-3.2539
X4.9866Y-4.8444
X4.9902Y-2.7717
X4.9941Y-2.2697
X4.9961Y-4.7146
X4.998Y-2.8878
X5.0Y-2.6417
X5.0Y-3.6397
X5.002Y-5.3878
X5.0076Y-4.8789
X5.0079Y-4.4429
X5.0118Y-2.5236
X5.0118Y-2.5551
X5.0118Y-2.8012
X5.0118Y-3.248
X5.0157Y-4.9079
X5.0166Y-4.8508
X5.0226Y-2.7606
X5.0276Y-2.2559
X5.0282Y-5.3743
X5.0295Y-4.6063
X5.0315Y-2.5827
X5.0315Y-2.6535
X5.0354Y-2.8327
X5.0394Y-4.7146
X5.0429Y-4.9296
X5.0433Y-2.5236
X5.0456Y-5.3981
X5.0457Y-5.1771
X5.0488Y-5.3331
X5.0551Y-5.1339
X5.0561Y-5.2047
X5.0571Y-2.2815
X5.0571Y-4.561
X5.061Y-2.8465
X5.063Y-2.5945
X5.065Y-5.0142
X5.0669Y-2.6575
X5.0689Y-4.4193
X5.0709Y-2.5039
X5.0724Y-4.9291
X5.0768Y-4.3898
X5.0772Y-5.3252
X5.0807Y-2.311
X5.0824Y-2.3465
X5.0827Y-2.4587
X5.0827Y-4.3465
X5.0835Y-4.5912
X5.0866Y-2.3858
X5.0866Y-2.4232
X5.0915Y-5.351
X5.0984Y-2.5945
X5.0984Y-2.6575
X5.0984Y-2.8543
X5.1024Y-4.3091
X5.1102Y-3.0709
X5.114Y-5.3906
X5.1177Y-3.3027
X5.126Y-3.4744
X5.1417Y-5.6614
X5.1496Y-5.3197
X5.15Y-5.4886
X5.1535Y-5.8071
X5.185Y-5.1555
X5.185Y-5.1929
X5.1935Y-5.4662
X5.1999Y-4.7353
X5.2008Y-3.5787
X5.2008Y-5.3189
X5.2028Y-4.5797
X5.2099Y-5.4907
X5.2165Y-4.8044
X5.2212Y-4.7149
X5.2225Y-5.1555
X5.226Y-5.436
X5.2283Y-5.8386
X5.2295Y-4.9364
X5.232Y-5.0056
X5.2392Y-4.6062
X5.2397Y-4.8268
X5.2402Y-3.6299
X5.2435Y-4.8731
X5.2536Y-5.0315
X5.2543Y-4.9862
X5.2555Y-4.5816
X5.2559Y-4.4764
X5.2595Y-3.272
X5.2677Y-4.9134
X5.2795Y-4.7473
X5.2854Y-4.9597
X5.2872Y-4.827
X5.3071Y-5.752
X5.3089Y-5.3928
X5.3115Y-3.0477
X5.3126Y-4.5774
X5.315Y-3.2933
X5.3157Y-3.4618
X5.3212Y-4.5037
X5.3315Y-4.6061
X5.3425Y-3.6417
X5.3445Y-5.376
X5.3465Y-4.6831
X5.3543Y-4.3189
X5.3583Y-5.4646
X5.3701Y-5.3937
X5.374Y-2.2528
X5.3865Y-4.8742
X5.4016Y-5.0551
X5.4055Y-2.7717
X5.4086Y-5.9392
X5.4094Y-4.832
X5.4114Y-5.7087
X5.4114Y-5.7829
X5.4114Y-5.8386
X5.4172Y-4.8753
X5.4213Y-5.0039
X5.4221Y-5.1102
X5.4289Y-5.5244
X5.4343Y-4.6366
X5.435Y-3.1339
X5.4363Y-5.2463
X5.4441Y-4.9737
X5.4449Y-4.7795
X5.4449Y-4.8465
X5.4488Y-5.9094
X5.4573Y-5.2185
X5.4764Y-3.5669
X5.477Y-5.0754
X5.4833Y-3.5983
X5.4852Y-5.2283
X5.4906Y-3.6332
X5.4988Y-4.9637
X5.5079Y-2.6772
X5.5098Y-2.5906
X5.5122Y-4.7571
X5.5157Y-4.874
X5.5183Y-5.8558
X5.5217Y-5.2132
X5.5291Y-5.0827
X5.5298Y-5.4319
X5.5313Y-4.6974
X5.5315Y-2.3898
X5.5413Y-4.9211
X5.5433Y-2.2598
X5.56Y-3.3878
X5.5607Y-4.973
X5.5627Y-5.0984
X5.5737Y-5.6191
X5.5846Y-4.9193
X5.5906Y-2.3858
X5.5906Y-5.9843
X5.5922Y-4.871
X5.5922Y-5.0984
X5.6076Y-3.1371
X5.6102Y-5.5197
X5.6135Y-5.0201
X5.624Y-2.9232
X5.626Y-5.8617
X5.6299Y-4.9213
X5.6339Y-3.0531
X5.6378Y-2.3858
X5.6458Y-3.1412
X5.6535Y-4.6339
X5.6713Y-4.8189
X5.6732Y-5.2283
X5.6772Y-2.378
X5.6811Y-4.939
X5.687Y-3.439
X5.6893Y-3.0962
X5.694Y-3.2766
X5.7041Y-3.1411
X5.7054Y-4.6791
X5.7089Y-4.8586
X5.7144Y-2.893
X5.7146Y-5.8268
X5.7165Y-2.3858
X5.7165Y-2.8504
X5.7244Y-3.0388
X5.7283Y-5.7559
X5.7362Y-5.0394
X5.7364Y-3.0658
X5.7412Y-3.1091
X5.7461Y-5.6838
X5.748Y-2.8819
X5.7559Y-2.6909
X5.776Y-2.8913
X5.7776Y-5.4587
X5.801Y-4.7898
X5.8208Y-2.4804
X5.8268Y-5.498
X5.85Y-2.8854
X5.8533Y-2.4006
X5.8583Y-2.7717
X5.8681Y-2.8583
X5.874Y-2.5984
X5.8898Y-3.5039
X5.9134Y-2.8858
X5.9291Y-3.1339
X5.933Y-2.5926
X5.9409Y-2.1732
X5.9409Y-3.063
X5.9764Y-2.6713
X5.9799Y-3.0085
X5.9921Y-3.3661
X5.9961Y-2.7618
X6.002Y-2.582
X6.0034Y-5.6055
X6.0478Y-2.4631
X6.0709Y-2.9075
X6.0768Y-2.6929
X6.0827Y-2.1732
X6.0851Y-3.126
X6.0886Y-2.5079
X6.1237Y-3.0923
X6.126Y-5.7402
X6.1339Y-2.4252
X6.1555Y-5.6299
X6.1614Y-3.126
X6.1693Y-2.376
X6.1738Y-5.1519
X6.185Y-2.6752
X6.1969Y-3.5551
X6.1988Y-2.7267
X6.2083Y-2.3872
X6.2106Y-5.1486
X6.2126Y-3.4843
X6.221Y-5.2289
X6.2226Y-2.9157
X6.2244Y-5.6378
X6.2343Y-5.1673
X6.2386Y-5.5232
X6.249Y-3.0541
X6.2496Y-5.7492
X6.2508Y-5.6537
X6.252Y-2.5018
X6.2533Y-5.2259
X6.2638Y-3.3051
X6.2642Y-2.6413
X6.2677Y-6.0571
X6.2681Y-5.3114
X6.2716Y-5.5256
X6.279Y-5.7524
X6.2795Y-5.3661
X6.2825Y-5.6447
X6.2835Y-6.0236
X6.2865Y-2.4347
X6.2916Y-5.1929
X6.2969Y-5.6056
X6.2972Y-3.5256
X6.3031Y-5.5236
X6.3051Y-4.8602
X6.3172Y-3.1333
X6.3238Y-5.6496
X6.3248Y-2.757
X6.3307Y-4.8386
X6.3386Y-3.2598
X6.3386Y-2.591
X6.3409Y-5.488
X6.3425Y-3.1181
X6.3428Y-3.0637
X6.3445Y-2.2323
X6.3445Y-5.5866
X6.3474Y-5.2923
X6.3541Y-5.0997
X6.361Y-4.8609
X6.3701Y-3.252
X6.3819Y-5.0134
X6.3906Y-4.8541
X6.3922Y-5.3105
X6.3935Y-5.7381
X6.3937Y-2.3839
X6.4108Y-5.093
X6.4133Y-5.644
X6.4176Y-4.9661
X6.4252Y-5.4724
X6.4518Y-5.5994
X6.4541Y-5.0542
X6.486Y-5.3183
X6.4902Y-5.4894
X6.4921Y-2.3484
X6.4942Y-5.774
X6.4962Y-5.1645
X6.4972Y-3.2337
X6.5Y-5.7411
X6.5077Y-3.2649
X6.5134Y-5.3641
X6.5157Y-3.1299
X6.5177Y-5.6378
X6.5236Y-3.0433
X6.5276Y-2.6772
X6.537Y-3.2575
X6.5492Y-4.8425
X6.5512Y-3.6496
X6.5548Y-3.2067
X6.5669Y-3.0512
X6.5748Y-5.3307
X6.5787Y-3.1929
X6.5787Y-3.4528
X6.5846Y-5.4823
X6.5906Y-5.1811
X6.6009Y-5.2888
X6.6063Y-5.3248
X6.6102Y-2.3228
X6.6142Y-3.4016
X6.6142Y-5.7205
X6.6257Y-5.087
X6.6258Y-3.1156
X6.6295Y-3.4198
X6.6366Y-5.4988
X6.6496Y-2.8819
X6.6536Y-3.2086
X6.656Y-3.3059
X6.6575Y-3.4291
X6.6614Y-3.6575
X6.6642Y-3.2591
X6.6665Y-5.7049
X6.6693Y-5.1496
X6.6772Y-3.1339
X6.6811Y-2.9094
X6.6811Y-3.6142
X6.6829Y-3.2936
X6.6929Y-4.8386
X6.7165Y-5.1732
X6.7293Y-3.2579
X6.7402Y-2.8346
X6.7745Y-2.9145
X6.7776Y-3.4232
X6.7799Y-5.4523
X6.784Y-5.4154
X6.804Y-3.627
X6.811Y-3.2835
X6.8209Y-3.4374
X6.8225Y-3.6609
X6.8238Y-2.9332
X6.8281Y-3.6269
X6.8319Y-5.0629
X6.8366Y-2.2913
X6.8405Y-5.0346
X6.8465Y-3.0295
X6.8509Y-4.7541
X6.8622Y-3.2638
X6.8976Y-2.3484
X6.9055Y-2.2854
X6.9077Y-4.7169
X6.9102Y-4.6838
X6.9213Y-3.0039
X6.9272Y-5.376
X6.9316Y-3.9958
X6.9355Y-4.0803
X6.937Y-3.4803
X6.937Y-3.5118
X6.9783Y-4.9921
X6.9849Y-3.2777
X6.9882Y-2.8307
X6.9901Y-2.92
X7.0Y-2.9764
X7.0197Y-4.8248
X7.0339Y-3.6874
X7.0443Y-3.1565
X7.0551Y-4.2638
X7.0571Y-3.5522
X7.0575Y-4.0595
X7.0591Y-3.3425
X7.0591Y-4.1939
X7.0602Y-4.4764
X7.0602Y-4.3996
X7.0602Y-3.3091
X7.0602Y-4.1615
X7.0602Y-4.5854
X7.0621Y-3.7756
X7.065Y-3.7224
X7.0754Y-4.8289
X7.0756Y-3.957
X7.0768Y-2.9823
X7.0865Y-3.5498
X7.0888Y-3.3378
X7.0984Y-2.7559
X7.1087Y-5.0513
X7.1137Y-3.0445
T2
X5.3307Y-2.3819
X5.3819Y-3.1102
X5.4173Y-2.3819
X5.5098Y-2.9705
X5.7541Y-2.4192
X6.7402Y-2.2992
T3
X6.1594Y-5.8358
X6.185Y-5.8634
X6.2165Y-5.8634
X6.2323Y-5.8358
X6.248Y-5.8634
X6.2638Y-5.8358
X6.2953Y-5.8358
X6.311Y-5.8634
X6.3268Y-5.8358
X6.3425Y-5.8634
X6.374Y-5.8634
X6.3996Y-5.8358
T4
X6.1201Y-5.8201
X6.439Y-5.8201
T5
X5.8681Y-5.6417
X5.9429Y-5.6417
T6
X6.1024Y-5.7984
X6.4567Y-5.7984
T7
X4.7126Y-3.4843
X4.7126Y-3.563
X4.7126Y-3.6417
X4.7126Y-3.7992
X4.7224Y-2.8937
X4.7224Y-2.9724
X4.7224Y-3.0512
X4.7224Y-3.1299
X4.7224Y-3.2087
X4.7224Y-3.2874
X4.8209Y-2.8937
X4.8209Y-2.9724
X4.8209Y-3.0512
X4.8209Y-3.1299
X4.8209Y-3.2087
X4.8209Y-3.2874
X5.8071Y-5.9665
X5.8071Y-6.0965
X5.9055Y-5.9665
X5.9055Y-6.0965
X6.0039Y-5.9665
X6.0039Y-6.0965
T8
X4.8465Y-3.522
X5.0433Y-3.522
T9
X6.6445Y-5.2402
X6.8445Y-5.2402
X7.0445Y-5.2402
T10
X4.6614Y-2.8307
X4.8819Y-3.3504
T11
X4.7126Y-3.4016
X4.7126Y-3.8819
T12
X5.7283Y-4.5472
X5.7283Y-4.5472
X6.1732Y-4.8996
X6.1732Y-4.8996
T13
X6.063Y-5.2756
T6
G00X6.1024Y-6.0071
M15
G01X6.1024Y-6.0425
M16
G05
G00X6.4567Y-6.0071
M15
G01X6.4567Y-6.0425
M16
G05
T0
M30
