G04 #@! TF.GenerationSoftware,KiCad,Pcbnew,6.0.0+dfsg1-2*
G04 #@! TF.CreationDate,2022-05-11T22:29:49-04:00*
G04 #@! TF.ProjectId,RUSP_Mainboard,52555350-5f4d-4616-996e-626f6172642e,rev?*
G04 #@! TF.SameCoordinates,Original*
G04 #@! TF.FileFunction,Legend,Top*
G04 #@! TF.FilePolarity,Positive*
%FSLAX46Y46*%
G04 Gerber Fmt 4.6, Leading zero omitted, Abs format (unit mm)*
G04 Created by KiCad (PCBNEW 6.0.0+dfsg1-2) date 2022-05-11 22:29:49*
%MOMM*%
%LPD*%
G01*
G04 APERTURE LIST*
%ADD10C,0.300000*%
%ADD11C,0.120000*%
%ADD12C,0.150000*%
%ADD13C,0.100000*%
%ADD14C,0.010000*%
%ADD15C,0.127000*%
%ADD16C,0.200000*%
G04 APERTURE END LIST*
D10*
X180278571Y-119964285D02*
X180278571Y-120678571D01*
X178778571Y-120678571D01*
X180278571Y-119464285D02*
X178778571Y-119464285D01*
X178778571Y-118964285D02*
X180278571Y-118464285D01*
X178778571Y-117964285D01*
X179492857Y-117464285D02*
X179492857Y-116964285D01*
X180278571Y-116750000D02*
X180278571Y-117464285D01*
X178778571Y-117464285D01*
X178778571Y-116750000D01*
X179492857Y-114464285D02*
X179492857Y-114964285D01*
X180278571Y-114964285D02*
X178778571Y-114964285D01*
X178778571Y-114250000D01*
X180278571Y-112821428D02*
X179564285Y-113321428D01*
X180278571Y-113678571D02*
X178778571Y-113678571D01*
X178778571Y-113107142D01*
X178850000Y-112964285D01*
X178921428Y-112892857D01*
X179064285Y-112821428D01*
X179278571Y-112821428D01*
X179421428Y-112892857D01*
X179492857Y-112964285D01*
X179564285Y-113107142D01*
X179564285Y-113678571D01*
X179492857Y-112178571D02*
X179492857Y-111678571D01*
X180278571Y-111464285D02*
X180278571Y-112178571D01*
X178778571Y-112178571D01*
X178778571Y-111464285D01*
X179492857Y-110821428D02*
X179492857Y-110321428D01*
X180278571Y-110107142D02*
X180278571Y-110821428D01*
X178778571Y-110821428D01*
X178778571Y-110107142D01*
X179850000Y-108392857D02*
X179850000Y-107678571D01*
X180278571Y-108535714D02*
X178778571Y-108035714D01*
X180278571Y-107535714D01*
X180278571Y-107035714D02*
X178778571Y-107035714D01*
X180278571Y-106178571D01*
X178778571Y-106178571D01*
X180278571Y-105464285D02*
X178778571Y-105464285D01*
X178778571Y-105107142D01*
X178850000Y-104892857D01*
X178992857Y-104750000D01*
X179135714Y-104678571D01*
X179421428Y-104607142D01*
X179635714Y-104607142D01*
X179921428Y-104678571D01*
X180064285Y-104750000D01*
X180207142Y-104892857D01*
X180278571Y-105107142D01*
X180278571Y-105464285D01*
X180278571Y-102821428D02*
X178778571Y-102821428D01*
X178778571Y-102464285D01*
X178850000Y-102250000D01*
X178992857Y-102107142D01*
X179135714Y-102035714D01*
X179421428Y-101964285D01*
X179635714Y-101964285D01*
X179921428Y-102035714D01*
X180064285Y-102107142D01*
X180207142Y-102250000D01*
X180278571Y-102464285D01*
X180278571Y-102821428D01*
X180278571Y-101321428D02*
X178778571Y-101321428D01*
X179850000Y-100678571D02*
X179850000Y-99964285D01*
X180278571Y-100821428D02*
X178778571Y-100321428D01*
X180278571Y-99821428D01*
X180278571Y-98607142D02*
X180278571Y-99321428D01*
X178778571Y-99321428D01*
D11*
X162038095Y-89802380D02*
X162038095Y-88802380D01*
X162371428Y-89516666D01*
X162704761Y-88802380D01*
X162704761Y-89802380D01*
X163133333Y-88897619D02*
X163180952Y-88850000D01*
X163276190Y-88802380D01*
X163514285Y-88802380D01*
X163609523Y-88850000D01*
X163657142Y-88897619D01*
X163704761Y-88992857D01*
X163704761Y-89088095D01*
X163657142Y-89230952D01*
X163085714Y-89802380D01*
X163704761Y-89802380D01*
X164038095Y-88802380D02*
X164704761Y-89802380D01*
X164704761Y-88802380D02*
X164038095Y-89802380D01*
X165514285Y-89135714D02*
X165514285Y-89802380D01*
X165276190Y-88754761D02*
X165038095Y-89469047D01*
X165657142Y-89469047D01*
X153973809Y-128252380D02*
X153973809Y-127252380D01*
X154307142Y-127966666D01*
X154640476Y-127252380D01*
X154640476Y-128252380D01*
X155640476Y-128252380D02*
X155069047Y-128252380D01*
X155354761Y-128252380D02*
X155354761Y-127252380D01*
X155259523Y-127395238D01*
X155164285Y-127490476D01*
X155069047Y-127538095D01*
X156069047Y-128157142D02*
X156116666Y-128204761D01*
X156069047Y-128252380D01*
X156021428Y-128204761D01*
X156069047Y-128157142D01*
X156069047Y-128252380D01*
X156973809Y-127252380D02*
X156783333Y-127252380D01*
X156688095Y-127300000D01*
X156640476Y-127347619D01*
X156545238Y-127490476D01*
X156497619Y-127680952D01*
X156497619Y-128061904D01*
X156545238Y-128157142D01*
X156592857Y-128204761D01*
X156688095Y-128252380D01*
X156878571Y-128252380D01*
X156973809Y-128204761D01*
X157021428Y-128157142D01*
X157069047Y-128061904D01*
X157069047Y-127823809D01*
X157021428Y-127728571D01*
X156973809Y-127680952D01*
X156878571Y-127633333D01*
X156688095Y-127633333D01*
X156592857Y-127680952D01*
X156545238Y-127728571D01*
X156497619Y-127823809D01*
X157402380Y-127252380D02*
X158069047Y-128252380D01*
X158069047Y-127252380D02*
X157402380Y-128252380D01*
X158878571Y-127585714D02*
X158878571Y-128252380D01*
X158640476Y-127204761D02*
X158402380Y-127919047D01*
X159021428Y-127919047D01*
D12*
X142829365Y-109803678D02*
X143329365Y-108937652D01*
X143260897Y-109722908D01*
X143906715Y-109270986D01*
X143406715Y-110137011D01*
X144272741Y-110637011D02*
X143777869Y-110351297D01*
X144025305Y-110494154D02*
X144525305Y-109628128D01*
X144371398Y-109704227D01*
X144241300Y-109739087D01*
X144135012Y-109732707D01*
X144691514Y-110768818D02*
X144708943Y-110833867D01*
X144643895Y-110851297D01*
X144626465Y-110786248D01*
X144691514Y-110768818D01*
X144643895Y-110851297D01*
X145927441Y-110437652D02*
X145762484Y-110342414D01*
X145656196Y-110336034D01*
X145591147Y-110353464D01*
X145437240Y-110429563D01*
X145300763Y-110570711D01*
X145110286Y-110900625D01*
X145103907Y-111006913D01*
X145121336Y-111071962D01*
X145180006Y-111160821D01*
X145344963Y-111256059D01*
X145451251Y-111262438D01*
X145516300Y-111245009D01*
X145605158Y-111186339D01*
X145724206Y-110980143D01*
X145730585Y-110873855D01*
X145713156Y-110808806D01*
X145654487Y-110719948D01*
X145489529Y-110624710D01*
X145383241Y-110618330D01*
X145318192Y-110635760D01*
X145229334Y-110694429D01*
X146298595Y-110651938D02*
X146375945Y-111851297D01*
X146875945Y-110985271D02*
X145798595Y-111517963D01*
X147410347Y-111678708D02*
X147077014Y-112256059D01*
X147394627Y-111229746D02*
X146831287Y-111729288D01*
X147367398Y-112038812D01*
D11*
X135988095Y-89702380D02*
X135988095Y-88702380D01*
X136321428Y-89416666D01*
X136654761Y-88702380D01*
X136654761Y-89702380D01*
X137083333Y-88797619D02*
X137130952Y-88750000D01*
X137226190Y-88702380D01*
X137464285Y-88702380D01*
X137559523Y-88750000D01*
X137607142Y-88797619D01*
X137654761Y-88892857D01*
X137654761Y-88988095D01*
X137607142Y-89130952D01*
X137035714Y-89702380D01*
X137654761Y-89702380D01*
X137988095Y-88702380D02*
X138654761Y-89702380D01*
X138654761Y-88702380D02*
X137988095Y-89702380D01*
X139464285Y-89035714D02*
X139464285Y-89702380D01*
X139226190Y-88654761D02*
X138988095Y-89369047D01*
X139607142Y-89369047D01*
X141200000Y-90266666D02*
X140966666Y-89933333D01*
X140800000Y-90266666D02*
X140800000Y-89566666D01*
X141066666Y-89566666D01*
X141133333Y-89600000D01*
X141166666Y-89633333D01*
X141200000Y-89700000D01*
X141200000Y-89800000D01*
X141166666Y-89866666D01*
X141133333Y-89900000D01*
X141066666Y-89933333D01*
X140800000Y-89933333D01*
X141633333Y-89566666D02*
X141766666Y-89566666D01*
X141833333Y-89600000D01*
X141900000Y-89666666D01*
X141933333Y-89800000D01*
X141933333Y-90033333D01*
X141900000Y-90166666D01*
X141833333Y-90233333D01*
X141766666Y-90266666D01*
X141633333Y-90266666D01*
X141566666Y-90233333D01*
X141500000Y-90166666D01*
X141466666Y-90033333D01*
X141466666Y-89800000D01*
X141500000Y-89666666D01*
X141566666Y-89600000D01*
X141633333Y-89566666D01*
X142133333Y-89566666D02*
X142533333Y-89566666D01*
X142333333Y-90266666D02*
X142333333Y-89566666D01*
X142733333Y-90066666D02*
X143066666Y-90066666D01*
X142666666Y-90266666D02*
X142900000Y-89566666D01*
X143133333Y-90266666D01*
X143766666Y-90266666D02*
X143533333Y-89933333D01*
X143366666Y-90266666D02*
X143366666Y-89566666D01*
X143633333Y-89566666D01*
X143700000Y-89600000D01*
X143733333Y-89633333D01*
X143766666Y-89700000D01*
X143766666Y-89800000D01*
X143733333Y-89866666D01*
X143700000Y-89900000D01*
X143633333Y-89933333D01*
X143366666Y-89933333D01*
X144200000Y-89933333D02*
X144200000Y-90266666D01*
X143966666Y-89566666D02*
X144200000Y-89933333D01*
X144433333Y-89566666D01*
X146266666Y-89566666D02*
X146266666Y-90133333D01*
X146300000Y-90200000D01*
X146333333Y-90233333D01*
X146400000Y-90266666D01*
X146533333Y-90266666D01*
X146600000Y-90233333D01*
X146633333Y-90200000D01*
X146666666Y-90133333D01*
X146666666Y-89566666D01*
X147000000Y-90266666D02*
X147000000Y-89566666D01*
X147400000Y-90266666D01*
X147400000Y-89566666D01*
X147733333Y-90000000D02*
X148266666Y-90000000D01*
X148566666Y-90233333D02*
X148666666Y-90266666D01*
X148833333Y-90266666D01*
X148900000Y-90233333D01*
X148933333Y-90200000D01*
X148966666Y-90133333D01*
X148966666Y-90066666D01*
X148933333Y-90000000D01*
X148900000Y-89966666D01*
X148833333Y-89933333D01*
X148700000Y-89900000D01*
X148633333Y-89866666D01*
X148600000Y-89833333D01*
X148566666Y-89766666D01*
X148566666Y-89700000D01*
X148600000Y-89633333D01*
X148633333Y-89600000D01*
X148700000Y-89566666D01*
X148866666Y-89566666D01*
X148966666Y-89600000D01*
X149266666Y-90266666D02*
X149266666Y-89566666D01*
X149500000Y-90066666D01*
X149733333Y-89566666D01*
X149733333Y-90266666D01*
X150033333Y-90066666D02*
X150366666Y-90066666D01*
X149966666Y-90266666D02*
X150200000Y-89566666D01*
X150433333Y-90266666D01*
X151066666Y-90266666D02*
X150833333Y-89933333D01*
X150666666Y-90266666D02*
X150666666Y-89566666D01*
X150933333Y-89566666D01*
X151000000Y-89600000D01*
X151033333Y-89633333D01*
X151066666Y-89700000D01*
X151066666Y-89800000D01*
X151033333Y-89866666D01*
X151000000Y-89900000D01*
X150933333Y-89933333D01*
X150666666Y-89933333D01*
X151266666Y-89566666D02*
X151666666Y-89566666D01*
X151466666Y-90266666D02*
X151466666Y-89566666D01*
X151900000Y-90266666D02*
X151900000Y-89566666D01*
X152166666Y-89566666D01*
X152233333Y-89600000D01*
X152266666Y-89633333D01*
X152300000Y-89700000D01*
X152300000Y-89800000D01*
X152266666Y-89866666D01*
X152233333Y-89900000D01*
X152166666Y-89933333D01*
X151900000Y-89933333D01*
X152600000Y-90266666D02*
X152600000Y-89566666D01*
X152600000Y-89900000D02*
X153000000Y-89900000D01*
X153000000Y-90266666D02*
X153000000Y-89566666D01*
X153466666Y-89566666D02*
X153600000Y-89566666D01*
X153666666Y-89600000D01*
X153733333Y-89666666D01*
X153766666Y-89800000D01*
X153766666Y-90033333D01*
X153733333Y-90166666D01*
X153666666Y-90233333D01*
X153600000Y-90266666D01*
X153466666Y-90266666D01*
X153400000Y-90233333D01*
X153333333Y-90166666D01*
X153300000Y-90033333D01*
X153300000Y-89800000D01*
X153333333Y-89666666D01*
X153400000Y-89600000D01*
X153466666Y-89566666D01*
X154066666Y-90266666D02*
X154066666Y-89566666D01*
X154466666Y-90266666D01*
X154466666Y-89566666D01*
X154800000Y-89900000D02*
X155033333Y-89900000D01*
X155133333Y-90266666D02*
X154800000Y-90266666D01*
X154800000Y-89566666D01*
X155133333Y-89566666D01*
X151214285Y-138521428D02*
X151014285Y-138235714D01*
X150871428Y-138521428D02*
X150871428Y-137921428D01*
X151100000Y-137921428D01*
X151157142Y-137950000D01*
X151185714Y-137978571D01*
X151214285Y-138035714D01*
X151214285Y-138121428D01*
X151185714Y-138178571D01*
X151157142Y-138207142D01*
X151100000Y-138235714D01*
X150871428Y-138235714D01*
X151414285Y-137921428D02*
X151785714Y-137921428D01*
X151585714Y-138150000D01*
X151671428Y-138150000D01*
X151728571Y-138178571D01*
X151757142Y-138207142D01*
X151785714Y-138264285D01*
X151785714Y-138407142D01*
X151757142Y-138464285D01*
X151728571Y-138492857D01*
X151671428Y-138521428D01*
X151500000Y-138521428D01*
X151442857Y-138492857D01*
X151414285Y-138464285D01*
X152014285Y-137978571D02*
X152042857Y-137950000D01*
X152100000Y-137921428D01*
X152242857Y-137921428D01*
X152300000Y-137950000D01*
X152328571Y-137978571D01*
X152357142Y-138035714D01*
X152357142Y-138092857D01*
X152328571Y-138178571D01*
X151985714Y-138521428D01*
X152357142Y-138521428D01*
X159739285Y-85284285D02*
X159710714Y-85312857D01*
X159625000Y-85341428D01*
X159567857Y-85341428D01*
X159482142Y-85312857D01*
X159425000Y-85255714D01*
X159396428Y-85198571D01*
X159367857Y-85084285D01*
X159367857Y-84998571D01*
X159396428Y-84884285D01*
X159425000Y-84827142D01*
X159482142Y-84770000D01*
X159567857Y-84741428D01*
X159625000Y-84741428D01*
X159710714Y-84770000D01*
X159739285Y-84798571D01*
X159939285Y-84741428D02*
X160310714Y-84741428D01*
X160110714Y-84970000D01*
X160196428Y-84970000D01*
X160253571Y-84998571D01*
X160282142Y-85027142D01*
X160310714Y-85084285D01*
X160310714Y-85227142D01*
X160282142Y-85284285D01*
X160253571Y-85312857D01*
X160196428Y-85341428D01*
X160025000Y-85341428D01*
X159967857Y-85312857D01*
X159939285Y-85284285D01*
X160825000Y-84941428D02*
X160825000Y-85341428D01*
X160682142Y-84712857D02*
X160539285Y-85141428D01*
X160910714Y-85141428D01*
X166714285Y-78914285D02*
X166685714Y-78942857D01*
X166600000Y-78971428D01*
X166542857Y-78971428D01*
X166457142Y-78942857D01*
X166400000Y-78885714D01*
X166371428Y-78828571D01*
X166342857Y-78714285D01*
X166342857Y-78628571D01*
X166371428Y-78514285D01*
X166400000Y-78457142D01*
X166457142Y-78400000D01*
X166542857Y-78371428D01*
X166600000Y-78371428D01*
X166685714Y-78400000D01*
X166714285Y-78428571D01*
X166914285Y-78371428D02*
X167285714Y-78371428D01*
X167085714Y-78600000D01*
X167171428Y-78600000D01*
X167228571Y-78628571D01*
X167257142Y-78657142D01*
X167285714Y-78714285D01*
X167285714Y-78857142D01*
X167257142Y-78914285D01*
X167228571Y-78942857D01*
X167171428Y-78971428D01*
X167000000Y-78971428D01*
X166942857Y-78942857D01*
X166914285Y-78914285D01*
X167485714Y-78371428D02*
X167857142Y-78371428D01*
X167657142Y-78600000D01*
X167742857Y-78600000D01*
X167800000Y-78628571D01*
X167828571Y-78657142D01*
X167857142Y-78714285D01*
X167857142Y-78857142D01*
X167828571Y-78914285D01*
X167800000Y-78942857D01*
X167742857Y-78971428D01*
X167571428Y-78971428D01*
X167514285Y-78942857D01*
X167485714Y-78914285D01*
X172129285Y-57584285D02*
X172100714Y-57612857D01*
X172015000Y-57641428D01*
X171957857Y-57641428D01*
X171872142Y-57612857D01*
X171815000Y-57555714D01*
X171786428Y-57498571D01*
X171757857Y-57384285D01*
X171757857Y-57298571D01*
X171786428Y-57184285D01*
X171815000Y-57127142D01*
X171872142Y-57070000D01*
X171957857Y-57041428D01*
X172015000Y-57041428D01*
X172100714Y-57070000D01*
X172129285Y-57098571D01*
X172329285Y-57041428D02*
X172700714Y-57041428D01*
X172500714Y-57270000D01*
X172586428Y-57270000D01*
X172643571Y-57298571D01*
X172672142Y-57327142D01*
X172700714Y-57384285D01*
X172700714Y-57527142D01*
X172672142Y-57584285D01*
X172643571Y-57612857D01*
X172586428Y-57641428D01*
X172415000Y-57641428D01*
X172357857Y-57612857D01*
X172329285Y-57584285D01*
X172929285Y-57098571D02*
X172957857Y-57070000D01*
X173015000Y-57041428D01*
X173157857Y-57041428D01*
X173215000Y-57070000D01*
X173243571Y-57098571D01*
X173272142Y-57155714D01*
X173272142Y-57212857D01*
X173243571Y-57298571D01*
X172900714Y-57641428D01*
X173272142Y-57641428D01*
X152214285Y-56784285D02*
X152185714Y-56812857D01*
X152100000Y-56841428D01*
X152042857Y-56841428D01*
X151957142Y-56812857D01*
X151900000Y-56755714D01*
X151871428Y-56698571D01*
X151842857Y-56584285D01*
X151842857Y-56498571D01*
X151871428Y-56384285D01*
X151900000Y-56327142D01*
X151957142Y-56270000D01*
X152042857Y-56241428D01*
X152100000Y-56241428D01*
X152185714Y-56270000D01*
X152214285Y-56298571D01*
X152414285Y-56241428D02*
X152785714Y-56241428D01*
X152585714Y-56470000D01*
X152671428Y-56470000D01*
X152728571Y-56498571D01*
X152757142Y-56527142D01*
X152785714Y-56584285D01*
X152785714Y-56727142D01*
X152757142Y-56784285D01*
X152728571Y-56812857D01*
X152671428Y-56841428D01*
X152500000Y-56841428D01*
X152442857Y-56812857D01*
X152414285Y-56784285D01*
X153357142Y-56841428D02*
X153014285Y-56841428D01*
X153185714Y-56841428D02*
X153185714Y-56241428D01*
X153128571Y-56327142D01*
X153071428Y-56384285D01*
X153014285Y-56412857D01*
X167600000Y-135891428D02*
X167600000Y-136320000D01*
X167571428Y-136405714D01*
X167514285Y-136462857D01*
X167428571Y-136491428D01*
X167371428Y-136491428D01*
X168142857Y-135891428D02*
X168028571Y-135891428D01*
X167971428Y-135920000D01*
X167942857Y-135948571D01*
X167885714Y-136034285D01*
X167857142Y-136148571D01*
X167857142Y-136377142D01*
X167885714Y-136434285D01*
X167914285Y-136462857D01*
X167971428Y-136491428D01*
X168085714Y-136491428D01*
X168142857Y-136462857D01*
X168171428Y-136434285D01*
X168200000Y-136377142D01*
X168200000Y-136234285D01*
X168171428Y-136177142D01*
X168142857Y-136148571D01*
X168085714Y-136120000D01*
X167971428Y-136120000D01*
X167914285Y-136148571D01*
X167885714Y-136177142D01*
X167857142Y-136234285D01*
X173550000Y-123292857D02*
X173635714Y-123321428D01*
X173778571Y-123321428D01*
X173835714Y-123292857D01*
X173864285Y-123264285D01*
X173892857Y-123207142D01*
X173892857Y-123150000D01*
X173864285Y-123092857D01*
X173835714Y-123064285D01*
X173778571Y-123035714D01*
X173664285Y-123007142D01*
X173607142Y-122978571D01*
X173578571Y-122950000D01*
X173550000Y-122892857D01*
X173550000Y-122835714D01*
X173578571Y-122778571D01*
X173607142Y-122750000D01*
X173664285Y-122721428D01*
X173807142Y-122721428D01*
X173892857Y-122750000D01*
X174092857Y-122721428D02*
X174235714Y-123321428D01*
X174350000Y-122892857D01*
X174464285Y-123321428D01*
X174607142Y-122721428D01*
X174807142Y-122778571D02*
X174835714Y-122750000D01*
X174892857Y-122721428D01*
X175035714Y-122721428D01*
X175092857Y-122750000D01*
X175121428Y-122778571D01*
X175150000Y-122835714D01*
X175150000Y-122892857D01*
X175121428Y-122978571D01*
X174778571Y-123321428D01*
X175150000Y-123321428D01*
X115828571Y-129192857D02*
X115828571Y-129535714D01*
X115228571Y-129364285D02*
X115828571Y-129364285D01*
X115828571Y-129992857D02*
X115828571Y-129878571D01*
X115800000Y-129821428D01*
X115771428Y-129792857D01*
X115685714Y-129735714D01*
X115571428Y-129707142D01*
X115342857Y-129707142D01*
X115285714Y-129735714D01*
X115257142Y-129764285D01*
X115228571Y-129821428D01*
X115228571Y-129935714D01*
X115257142Y-129992857D01*
X115285714Y-130021428D01*
X115342857Y-130050000D01*
X115485714Y-130050000D01*
X115542857Y-130021428D01*
X115571428Y-129992857D01*
X115600000Y-129935714D01*
X115600000Y-129821428D01*
X115571428Y-129764285D01*
X115542857Y-129735714D01*
X115485714Y-129707142D01*
X114128571Y-119942857D02*
X114128571Y-120285714D01*
X113528571Y-120114285D02*
X114128571Y-120114285D01*
X113928571Y-120742857D02*
X113528571Y-120742857D01*
X114157142Y-120600000D02*
X113728571Y-120457142D01*
X113728571Y-120828571D01*
X168071428Y-143485714D02*
X168500000Y-143485714D01*
X168585714Y-143514285D01*
X168642857Y-143571428D01*
X168671428Y-143657142D01*
X168671428Y-143714285D01*
X168671428Y-142885714D02*
X168671428Y-143228571D01*
X168671428Y-143057142D02*
X168071428Y-143057142D01*
X168157142Y-143114285D01*
X168214285Y-143171428D01*
X168242857Y-143228571D01*
X168071428Y-142514285D02*
X168071428Y-142457142D01*
X168100000Y-142400000D01*
X168128571Y-142371428D01*
X168185714Y-142342857D01*
X168300000Y-142314285D01*
X168442857Y-142314285D01*
X168557142Y-142342857D01*
X168614285Y-142371428D01*
X168642857Y-142400000D01*
X168671428Y-142457142D01*
X168671428Y-142514285D01*
X168642857Y-142571428D01*
X168614285Y-142600000D01*
X168557142Y-142628571D01*
X168442857Y-142657142D01*
X168300000Y-142657142D01*
X168185714Y-142628571D01*
X168128571Y-142600000D01*
X168100000Y-142571428D01*
X168071428Y-142514285D01*
X149628571Y-133100000D02*
X150228571Y-133100000D01*
X149800000Y-133300000D01*
X150228571Y-133500000D01*
X149628571Y-133500000D01*
X149628571Y-133785714D02*
X150228571Y-133785714D01*
X149942857Y-133785714D02*
X149942857Y-134128571D01*
X149628571Y-134128571D02*
X150228571Y-134128571D01*
X150228571Y-134357142D02*
X150228571Y-134757142D01*
X149628571Y-134500000D01*
X167271428Y-151191428D02*
X167271428Y-150591428D01*
X167414285Y-150591428D01*
X167500000Y-150620000D01*
X167557142Y-150677142D01*
X167585714Y-150734285D01*
X167614285Y-150848571D01*
X167614285Y-150934285D01*
X167585714Y-151048571D01*
X167557142Y-151105714D01*
X167500000Y-151162857D01*
X167414285Y-151191428D01*
X167271428Y-151191428D01*
X168185714Y-151191428D02*
X167842857Y-151191428D01*
X168014285Y-151191428D02*
X168014285Y-150591428D01*
X167957142Y-150677142D01*
X167900000Y-150734285D01*
X167842857Y-150762857D01*
X168757142Y-151191428D02*
X168414285Y-151191428D01*
X168585714Y-151191428D02*
X168585714Y-150591428D01*
X168528571Y-150677142D01*
X168471428Y-150734285D01*
X168414285Y-150762857D01*
X169514285Y-136514285D02*
X169485714Y-136542857D01*
X169400000Y-136571428D01*
X169342857Y-136571428D01*
X169257142Y-136542857D01*
X169200000Y-136485714D01*
X169171428Y-136428571D01*
X169142857Y-136314285D01*
X169142857Y-136228571D01*
X169171428Y-136114285D01*
X169200000Y-136057142D01*
X169257142Y-136000000D01*
X169342857Y-135971428D01*
X169400000Y-135971428D01*
X169485714Y-136000000D01*
X169514285Y-136028571D01*
X169742857Y-136028571D02*
X169771428Y-136000000D01*
X169828571Y-135971428D01*
X169971428Y-135971428D01*
X170028571Y-136000000D01*
X170057142Y-136028571D01*
X170085714Y-136085714D01*
X170085714Y-136142857D01*
X170057142Y-136228571D01*
X169714285Y-136571428D01*
X170085714Y-136571428D01*
X170371428Y-136571428D02*
X170485714Y-136571428D01*
X170542857Y-136542857D01*
X170571428Y-136514285D01*
X170628571Y-136428571D01*
X170657142Y-136314285D01*
X170657142Y-136085714D01*
X170628571Y-136028571D01*
X170600000Y-136000000D01*
X170542857Y-135971428D01*
X170428571Y-135971428D01*
X170371428Y-136000000D01*
X170342857Y-136028571D01*
X170314285Y-136085714D01*
X170314285Y-136228571D01*
X170342857Y-136285714D01*
X170371428Y-136314285D01*
X170428571Y-136342857D01*
X170542857Y-136342857D01*
X170600000Y-136314285D01*
X170628571Y-136285714D01*
X170657142Y-136228571D01*
X157814285Y-135364285D02*
X157785714Y-135392857D01*
X157700000Y-135421428D01*
X157642857Y-135421428D01*
X157557142Y-135392857D01*
X157500000Y-135335714D01*
X157471428Y-135278571D01*
X157442857Y-135164285D01*
X157442857Y-135078571D01*
X157471428Y-134964285D01*
X157500000Y-134907142D01*
X157557142Y-134850000D01*
X157642857Y-134821428D01*
X157700000Y-134821428D01*
X157785714Y-134850000D01*
X157814285Y-134878571D01*
X158042857Y-134878571D02*
X158071428Y-134850000D01*
X158128571Y-134821428D01*
X158271428Y-134821428D01*
X158328571Y-134850000D01*
X158357142Y-134878571D01*
X158385714Y-134935714D01*
X158385714Y-134992857D01*
X158357142Y-135078571D01*
X158014285Y-135421428D01*
X158385714Y-135421428D01*
X158900000Y-134821428D02*
X158785714Y-134821428D01*
X158728571Y-134850000D01*
X158700000Y-134878571D01*
X158642857Y-134964285D01*
X158614285Y-135078571D01*
X158614285Y-135307142D01*
X158642857Y-135364285D01*
X158671428Y-135392857D01*
X158728571Y-135421428D01*
X158842857Y-135421428D01*
X158900000Y-135392857D01*
X158928571Y-135364285D01*
X158957142Y-135307142D01*
X158957142Y-135164285D01*
X158928571Y-135107142D01*
X158900000Y-135078571D01*
X158842857Y-135050000D01*
X158728571Y-135050000D01*
X158671428Y-135078571D01*
X158642857Y-135107142D01*
X158614285Y-135164285D01*
X156335714Y-138864285D02*
X156307142Y-138835714D01*
X156278571Y-138750000D01*
X156278571Y-138692857D01*
X156307142Y-138607142D01*
X156364285Y-138550000D01*
X156421428Y-138521428D01*
X156535714Y-138492857D01*
X156621428Y-138492857D01*
X156735714Y-138521428D01*
X156792857Y-138550000D01*
X156850000Y-138607142D01*
X156878571Y-138692857D01*
X156878571Y-138750000D01*
X156850000Y-138835714D01*
X156821428Y-138864285D01*
X156821428Y-139092857D02*
X156850000Y-139121428D01*
X156878571Y-139178571D01*
X156878571Y-139321428D01*
X156850000Y-139378571D01*
X156821428Y-139407142D01*
X156764285Y-139435714D01*
X156707142Y-139435714D01*
X156621428Y-139407142D01*
X156278571Y-139064285D01*
X156278571Y-139435714D01*
X156678571Y-139950000D02*
X156278571Y-139950000D01*
X156907142Y-139807142D02*
X156478571Y-139664285D01*
X156478571Y-140035714D01*
X143464285Y-148285714D02*
X143492857Y-148314285D01*
X143521428Y-148400000D01*
X143521428Y-148457142D01*
X143492857Y-148542857D01*
X143435714Y-148600000D01*
X143378571Y-148628571D01*
X143264285Y-148657142D01*
X143178571Y-148657142D01*
X143064285Y-148628571D01*
X143007142Y-148600000D01*
X142950000Y-148542857D01*
X142921428Y-148457142D01*
X142921428Y-148400000D01*
X142950000Y-148314285D01*
X142978571Y-148285714D01*
X142978571Y-148057142D02*
X142950000Y-148028571D01*
X142921428Y-147971428D01*
X142921428Y-147828571D01*
X142950000Y-147771428D01*
X142978571Y-147742857D01*
X143035714Y-147714285D01*
X143092857Y-147714285D01*
X143178571Y-147742857D01*
X143521428Y-148085714D01*
X143521428Y-147714285D01*
X142978571Y-147485714D02*
X142950000Y-147457142D01*
X142921428Y-147400000D01*
X142921428Y-147257142D01*
X142950000Y-147200000D01*
X142978571Y-147171428D01*
X143035714Y-147142857D01*
X143092857Y-147142857D01*
X143178571Y-147171428D01*
X143521428Y-147514285D01*
X143521428Y-147142857D01*
X127114285Y-139485714D02*
X127142857Y-139514285D01*
X127171428Y-139600000D01*
X127171428Y-139657142D01*
X127142857Y-139742857D01*
X127085714Y-139800000D01*
X127028571Y-139828571D01*
X126914285Y-139857142D01*
X126828571Y-139857142D01*
X126714285Y-139828571D01*
X126657142Y-139800000D01*
X126600000Y-139742857D01*
X126571428Y-139657142D01*
X126571428Y-139600000D01*
X126600000Y-139514285D01*
X126628571Y-139485714D01*
X126628571Y-139257142D02*
X126600000Y-139228571D01*
X126571428Y-139171428D01*
X126571428Y-139028571D01*
X126600000Y-138971428D01*
X126628571Y-138942857D01*
X126685714Y-138914285D01*
X126742857Y-138914285D01*
X126828571Y-138942857D01*
X127171428Y-139285714D01*
X127171428Y-138914285D01*
X126571428Y-138542857D02*
X126571428Y-138485714D01*
X126600000Y-138428571D01*
X126628571Y-138400000D01*
X126685714Y-138371428D01*
X126800000Y-138342857D01*
X126942857Y-138342857D01*
X127057142Y-138371428D01*
X127114285Y-138400000D01*
X127142857Y-138428571D01*
X127171428Y-138485714D01*
X127171428Y-138542857D01*
X127142857Y-138600000D01*
X127114285Y-138628571D01*
X127057142Y-138657142D01*
X126942857Y-138685714D01*
X126800000Y-138685714D01*
X126685714Y-138657142D01*
X126628571Y-138628571D01*
X126600000Y-138600000D01*
X126571428Y-138542857D01*
X145007142Y-152364285D02*
X144978571Y-152450000D01*
X144978571Y-152592857D01*
X145007142Y-152650000D01*
X145035714Y-152678571D01*
X145092857Y-152707142D01*
X145150000Y-152707142D01*
X145207142Y-152678571D01*
X145235714Y-152650000D01*
X145264285Y-152592857D01*
X145292857Y-152478571D01*
X145321428Y-152421428D01*
X145350000Y-152392857D01*
X145407142Y-152364285D01*
X145464285Y-152364285D01*
X145521428Y-152392857D01*
X145550000Y-152421428D01*
X145578571Y-152478571D01*
X145578571Y-152621428D01*
X145550000Y-152707142D01*
X145578571Y-152907142D02*
X144978571Y-153050000D01*
X145407142Y-153164285D01*
X144978571Y-153278571D01*
X145578571Y-153421428D01*
X144978571Y-153964285D02*
X144978571Y-153621428D01*
X144978571Y-153792857D02*
X145578571Y-153792857D01*
X145492857Y-153735714D01*
X145435714Y-153678571D01*
X145407142Y-153621428D01*
X145578571Y-154335714D02*
X145578571Y-154392857D01*
X145550000Y-154450000D01*
X145521428Y-154478571D01*
X145464285Y-154507142D01*
X145350000Y-154535714D01*
X145207142Y-154535714D01*
X145092857Y-154507142D01*
X145035714Y-154478571D01*
X145007142Y-154450000D01*
X144978571Y-154392857D01*
X144978571Y-154335714D01*
X145007142Y-154278571D01*
X145035714Y-154250000D01*
X145092857Y-154221428D01*
X145207142Y-154192857D01*
X145350000Y-154192857D01*
X145464285Y-154221428D01*
X145521428Y-154250000D01*
X145550000Y-154278571D01*
X145578571Y-154335714D01*
X133229285Y-57244285D02*
X133200714Y-57272857D01*
X133115000Y-57301428D01*
X133057857Y-57301428D01*
X132972142Y-57272857D01*
X132915000Y-57215714D01*
X132886428Y-57158571D01*
X132857857Y-57044285D01*
X132857857Y-56958571D01*
X132886428Y-56844285D01*
X132915000Y-56787142D01*
X132972142Y-56730000D01*
X133057857Y-56701428D01*
X133115000Y-56701428D01*
X133200714Y-56730000D01*
X133229285Y-56758571D01*
X133429285Y-56701428D02*
X133800714Y-56701428D01*
X133600714Y-56930000D01*
X133686428Y-56930000D01*
X133743571Y-56958571D01*
X133772142Y-56987142D01*
X133800714Y-57044285D01*
X133800714Y-57187142D01*
X133772142Y-57244285D01*
X133743571Y-57272857D01*
X133686428Y-57301428D01*
X133515000Y-57301428D01*
X133457857Y-57272857D01*
X133429285Y-57244285D01*
X134172142Y-56701428D02*
X134229285Y-56701428D01*
X134286428Y-56730000D01*
X134315000Y-56758571D01*
X134343571Y-56815714D01*
X134372142Y-56930000D01*
X134372142Y-57072857D01*
X134343571Y-57187142D01*
X134315000Y-57244285D01*
X134286428Y-57272857D01*
X134229285Y-57301428D01*
X134172142Y-57301428D01*
X134115000Y-57272857D01*
X134086428Y-57244285D01*
X134057857Y-57187142D01*
X134029285Y-57072857D01*
X134029285Y-56930000D01*
X134057857Y-56815714D01*
X134086428Y-56758571D01*
X134115000Y-56730000D01*
X134172142Y-56701428D01*
X122157142Y-60257142D02*
X121957142Y-60257142D01*
X121957142Y-60571428D02*
X121957142Y-59971428D01*
X122242857Y-59971428D01*
X122471428Y-60571428D02*
X122471428Y-59971428D01*
X122757142Y-60571428D02*
X122757142Y-59971428D01*
X122900000Y-59971428D01*
X122985714Y-60000000D01*
X123042857Y-60057142D01*
X123071428Y-60114285D01*
X123100000Y-60228571D01*
X123100000Y-60314285D01*
X123071428Y-60428571D01*
X123042857Y-60485714D01*
X122985714Y-60542857D01*
X122900000Y-60571428D01*
X122757142Y-60571428D01*
X123671428Y-60571428D02*
X123328571Y-60571428D01*
X123500000Y-60571428D02*
X123500000Y-59971428D01*
X123442857Y-60057142D01*
X123385714Y-60114285D01*
X123328571Y-60142857D01*
X138889285Y-151294694D02*
X139104306Y-150734546D01*
X139237675Y-150785741D01*
X139307457Y-150843132D01*
X139340326Y-150916958D01*
X139346522Y-150980544D01*
X139332239Y-151097478D01*
X139301522Y-151177500D01*
X139233892Y-151273955D01*
X139186740Y-151317064D01*
X139112914Y-151349933D01*
X139022654Y-151345890D01*
X138889285Y-151294694D01*
X139832844Y-151228434D02*
X139689497Y-151601867D01*
X139781388Y-150963849D02*
X139494434Y-151312760D01*
X139841192Y-151445868D01*
D12*
X136651031Y-150811796D02*
X136791573Y-151375814D01*
X137184505Y-151016577D02*
X136826137Y-151950158D01*
X136470488Y-151813637D01*
X136398640Y-151735050D01*
X136371249Y-151673529D01*
X136360923Y-151567551D01*
X136412119Y-151434183D01*
X136490705Y-151362335D01*
X136552227Y-151334944D01*
X136658204Y-151324618D01*
X137013854Y-151461140D01*
X136339837Y-150692340D02*
X135611907Y-151127010D01*
X136100925Y-151314727D02*
X135850819Y-150504623D01*
D11*
X137164285Y-131500000D02*
X137192857Y-131528571D01*
X137221428Y-131614285D01*
X137221428Y-131671428D01*
X137192857Y-131757142D01*
X137135714Y-131814285D01*
X137078571Y-131842857D01*
X136964285Y-131871428D01*
X136878571Y-131871428D01*
X136764285Y-131842857D01*
X136707142Y-131814285D01*
X136650000Y-131757142D01*
X136621428Y-131671428D01*
X136621428Y-131614285D01*
X136650000Y-131528571D01*
X136678571Y-131500000D01*
X136678571Y-131271428D02*
X136650000Y-131242857D01*
X136621428Y-131185714D01*
X136621428Y-131042857D01*
X136650000Y-130985714D01*
X136678571Y-130957142D01*
X136735714Y-130928571D01*
X136792857Y-130928571D01*
X136878571Y-130957142D01*
X137221428Y-131300000D01*
X137221428Y-130928571D01*
X137592857Y-120771428D02*
X137592857Y-121257142D01*
X137621428Y-121314285D01*
X137650000Y-121342857D01*
X137707142Y-121371428D01*
X137821428Y-121371428D01*
X137878571Y-121342857D01*
X137907142Y-121314285D01*
X137935714Y-121257142D01*
X137935714Y-120771428D01*
X138164285Y-120771428D02*
X138564285Y-120771428D01*
X138307142Y-121371428D01*
X141571428Y-118221428D02*
X141571428Y-117621428D01*
X141714285Y-117621428D01*
X141800000Y-117650000D01*
X141857142Y-117707142D01*
X141885714Y-117764285D01*
X141914285Y-117878571D01*
X141914285Y-117964285D01*
X141885714Y-118078571D01*
X141857142Y-118135714D01*
X141800000Y-118192857D01*
X141714285Y-118221428D01*
X141571428Y-118221428D01*
X142142857Y-117678571D02*
X142171428Y-117650000D01*
X142228571Y-117621428D01*
X142371428Y-117621428D01*
X142428571Y-117650000D01*
X142457142Y-117678571D01*
X142485714Y-117735714D01*
X142485714Y-117792857D01*
X142457142Y-117878571D01*
X142114285Y-118221428D01*
X142485714Y-118221428D01*
X142685714Y-117621428D02*
X143057142Y-117621428D01*
X142857142Y-117850000D01*
X142942857Y-117850000D01*
X143000000Y-117878571D01*
X143028571Y-117907142D01*
X143057142Y-117964285D01*
X143057142Y-118107142D01*
X143028571Y-118164285D01*
X143000000Y-118192857D01*
X142942857Y-118221428D01*
X142771428Y-118221428D01*
X142714285Y-118192857D01*
X142685714Y-118164285D01*
X164721428Y-151000000D02*
X165150000Y-151000000D01*
X165235714Y-151028571D01*
X165292857Y-151085714D01*
X165321428Y-151171428D01*
X165321428Y-151228571D01*
X165321428Y-150400000D02*
X165321428Y-150742857D01*
X165321428Y-150571428D02*
X164721428Y-150571428D01*
X164807142Y-150628571D01*
X164864285Y-150685714D01*
X164892857Y-150742857D01*
X147067857Y-56871428D02*
X147067857Y-57357142D01*
X147096428Y-57414285D01*
X147125000Y-57442857D01*
X147182142Y-57471428D01*
X147296428Y-57471428D01*
X147353571Y-57442857D01*
X147382142Y-57414285D01*
X147410714Y-57357142D01*
X147410714Y-56871428D01*
X147725000Y-57471428D02*
X147839285Y-57471428D01*
X147896428Y-57442857D01*
X147925000Y-57414285D01*
X147982142Y-57328571D01*
X148010714Y-57214285D01*
X148010714Y-56985714D01*
X147982142Y-56928571D01*
X147953571Y-56900000D01*
X147896428Y-56871428D01*
X147782142Y-56871428D01*
X147725000Y-56900000D01*
X147696428Y-56928571D01*
X147667857Y-56985714D01*
X147667857Y-57128571D01*
X147696428Y-57185714D01*
X147725000Y-57214285D01*
X147782142Y-57242857D01*
X147896428Y-57242857D01*
X147953571Y-57214285D01*
X147982142Y-57185714D01*
X148010714Y-57128571D01*
X180371428Y-74585714D02*
X180085714Y-74785714D01*
X180371428Y-74928571D02*
X179771428Y-74928571D01*
X179771428Y-74700000D01*
X179800000Y-74642857D01*
X179828571Y-74614285D01*
X179885714Y-74585714D01*
X179971428Y-74585714D01*
X180028571Y-74614285D01*
X180057142Y-74642857D01*
X180085714Y-74700000D01*
X180085714Y-74928571D01*
X179971428Y-74071428D02*
X180371428Y-74071428D01*
X179742857Y-74214285D02*
X180171428Y-74357142D01*
X180171428Y-73985714D01*
X180028571Y-73671428D02*
X180000000Y-73728571D01*
X179971428Y-73757142D01*
X179914285Y-73785714D01*
X179885714Y-73785714D01*
X179828571Y-73757142D01*
X179800000Y-73728571D01*
X179771428Y-73671428D01*
X179771428Y-73557142D01*
X179800000Y-73500000D01*
X179828571Y-73471428D01*
X179885714Y-73442857D01*
X179914285Y-73442857D01*
X179971428Y-73471428D01*
X180000000Y-73500000D01*
X180028571Y-73557142D01*
X180028571Y-73671428D01*
X180057142Y-73728571D01*
X180085714Y-73757142D01*
X180142857Y-73785714D01*
X180257142Y-73785714D01*
X180314285Y-73757142D01*
X180342857Y-73728571D01*
X180371428Y-73671428D01*
X180371428Y-73557142D01*
X180342857Y-73500000D01*
X180314285Y-73471428D01*
X180257142Y-73442857D01*
X180142857Y-73442857D01*
X180085714Y-73471428D01*
X180057142Y-73500000D01*
X180028571Y-73557142D01*
X150664285Y-83046428D02*
X150464285Y-82760714D01*
X150321428Y-83046428D02*
X150321428Y-82446428D01*
X150550000Y-82446428D01*
X150607142Y-82475000D01*
X150635714Y-82503571D01*
X150664285Y-82560714D01*
X150664285Y-82646428D01*
X150635714Y-82703571D01*
X150607142Y-82732142D01*
X150550000Y-82760714D01*
X150321428Y-82760714D01*
X150864285Y-82446428D02*
X151235714Y-82446428D01*
X151035714Y-82675000D01*
X151121428Y-82675000D01*
X151178571Y-82703571D01*
X151207142Y-82732142D01*
X151235714Y-82789285D01*
X151235714Y-82932142D01*
X151207142Y-82989285D01*
X151178571Y-83017857D01*
X151121428Y-83046428D01*
X150950000Y-83046428D01*
X150892857Y-83017857D01*
X150864285Y-82989285D01*
X151607142Y-82446428D02*
X151664285Y-82446428D01*
X151721428Y-82475000D01*
X151750000Y-82503571D01*
X151778571Y-82560714D01*
X151807142Y-82675000D01*
X151807142Y-82817857D01*
X151778571Y-82932142D01*
X151750000Y-82989285D01*
X151721428Y-83017857D01*
X151664285Y-83046428D01*
X151607142Y-83046428D01*
X151550000Y-83017857D01*
X151521428Y-82989285D01*
X151492857Y-82932142D01*
X151464285Y-82817857D01*
X151464285Y-82675000D01*
X151492857Y-82560714D01*
X151521428Y-82503571D01*
X151550000Y-82475000D01*
X151607142Y-82446428D01*
X137089285Y-116041428D02*
X136889285Y-115755714D01*
X136746428Y-116041428D02*
X136746428Y-115441428D01*
X136975000Y-115441428D01*
X137032142Y-115470000D01*
X137060714Y-115498571D01*
X137089285Y-115555714D01*
X137089285Y-115641428D01*
X137060714Y-115698571D01*
X137032142Y-115727142D01*
X136975000Y-115755714D01*
X136746428Y-115755714D01*
X137317857Y-115498571D02*
X137346428Y-115470000D01*
X137403571Y-115441428D01*
X137546428Y-115441428D01*
X137603571Y-115470000D01*
X137632142Y-115498571D01*
X137660714Y-115555714D01*
X137660714Y-115612857D01*
X137632142Y-115698571D01*
X137289285Y-116041428D01*
X137660714Y-116041428D01*
X137889285Y-115498571D02*
X137917857Y-115470000D01*
X137975000Y-115441428D01*
X138117857Y-115441428D01*
X138175000Y-115470000D01*
X138203571Y-115498571D01*
X138232142Y-115555714D01*
X138232142Y-115612857D01*
X138203571Y-115698571D01*
X137860714Y-116041428D01*
X138232142Y-116041428D01*
X134014285Y-117171428D02*
X133814285Y-116885714D01*
X133671428Y-117171428D02*
X133671428Y-116571428D01*
X133900000Y-116571428D01*
X133957142Y-116600000D01*
X133985714Y-116628571D01*
X134014285Y-116685714D01*
X134014285Y-116771428D01*
X133985714Y-116828571D01*
X133957142Y-116857142D01*
X133900000Y-116885714D01*
X133671428Y-116885714D01*
X134242857Y-116628571D02*
X134271428Y-116600000D01*
X134328571Y-116571428D01*
X134471428Y-116571428D01*
X134528571Y-116600000D01*
X134557142Y-116628571D01*
X134585714Y-116685714D01*
X134585714Y-116742857D01*
X134557142Y-116828571D01*
X134214285Y-117171428D01*
X134585714Y-117171428D01*
X135157142Y-117171428D02*
X134814285Y-117171428D01*
X134985714Y-117171428D02*
X134985714Y-116571428D01*
X134928571Y-116657142D01*
X134871428Y-116714285D01*
X134814285Y-116742857D01*
X139064285Y-149621428D02*
X138864285Y-149335714D01*
X138721428Y-149621428D02*
X138721428Y-149021428D01*
X138950000Y-149021428D01*
X139007142Y-149050000D01*
X139035714Y-149078571D01*
X139064285Y-149135714D01*
X139064285Y-149221428D01*
X139035714Y-149278571D01*
X139007142Y-149307142D01*
X138950000Y-149335714D01*
X138721428Y-149335714D01*
X139635714Y-149621428D02*
X139292857Y-149621428D01*
X139464285Y-149621428D02*
X139464285Y-149021428D01*
X139407142Y-149107142D01*
X139350000Y-149164285D01*
X139292857Y-149192857D01*
X140207142Y-149621428D02*
X139864285Y-149621428D01*
X140035714Y-149621428D02*
X140035714Y-149021428D01*
X139978571Y-149107142D01*
X139921428Y-149164285D01*
X139864285Y-149192857D01*
X141364285Y-150371428D02*
X141164285Y-150085714D01*
X141021428Y-150371428D02*
X141021428Y-149771428D01*
X141250000Y-149771428D01*
X141307142Y-149800000D01*
X141335714Y-149828571D01*
X141364285Y-149885714D01*
X141364285Y-149971428D01*
X141335714Y-150028571D01*
X141307142Y-150057142D01*
X141250000Y-150085714D01*
X141021428Y-150085714D01*
X141935714Y-150371428D02*
X141592857Y-150371428D01*
X141764285Y-150371428D02*
X141764285Y-149771428D01*
X141707142Y-149857142D01*
X141650000Y-149914285D01*
X141592857Y-149942857D01*
X142307142Y-149771428D02*
X142364285Y-149771428D01*
X142421428Y-149800000D01*
X142450000Y-149828571D01*
X142478571Y-149885714D01*
X142507142Y-150000000D01*
X142507142Y-150142857D01*
X142478571Y-150257142D01*
X142450000Y-150314285D01*
X142421428Y-150342857D01*
X142364285Y-150371428D01*
X142307142Y-150371428D01*
X142250000Y-150342857D01*
X142221428Y-150314285D01*
X142192857Y-150257142D01*
X142164285Y-150142857D01*
X142164285Y-150000000D01*
X142192857Y-149885714D01*
X142221428Y-149828571D01*
X142250000Y-149800000D01*
X142307142Y-149771428D01*
X138046428Y-111725000D02*
X137760714Y-111925000D01*
X138046428Y-112067857D02*
X137446428Y-112067857D01*
X137446428Y-111839285D01*
X137475000Y-111782142D01*
X137503571Y-111753571D01*
X137560714Y-111725000D01*
X137646428Y-111725000D01*
X137703571Y-111753571D01*
X137732142Y-111782142D01*
X137760714Y-111839285D01*
X137760714Y-112067857D01*
X137503571Y-111496428D02*
X137475000Y-111467857D01*
X137446428Y-111410714D01*
X137446428Y-111267857D01*
X137475000Y-111210714D01*
X137503571Y-111182142D01*
X137560714Y-111153571D01*
X137617857Y-111153571D01*
X137703571Y-111182142D01*
X138046428Y-111525000D01*
X138046428Y-111153571D01*
X167642857Y-84828571D02*
X167585714Y-84800000D01*
X167528571Y-84742857D01*
X167442857Y-84657142D01*
X167385714Y-84628571D01*
X167328571Y-84628571D01*
X167357142Y-84771428D02*
X167300000Y-84742857D01*
X167242857Y-84685714D01*
X167214285Y-84571428D01*
X167214285Y-84371428D01*
X167242857Y-84257142D01*
X167300000Y-84200000D01*
X167357142Y-84171428D01*
X167471428Y-84171428D01*
X167528571Y-84200000D01*
X167585714Y-84257142D01*
X167614285Y-84371428D01*
X167614285Y-84571428D01*
X167585714Y-84685714D01*
X167528571Y-84742857D01*
X167471428Y-84771428D01*
X167357142Y-84771428D01*
X168128571Y-84371428D02*
X168128571Y-84771428D01*
X167985714Y-84142857D02*
X167842857Y-84571428D01*
X168214285Y-84571428D01*
X124900000Y-62971428D02*
X124900000Y-63400000D01*
X124871428Y-63485714D01*
X124814285Y-63542857D01*
X124728571Y-63571428D01*
X124671428Y-63571428D01*
X125471428Y-62971428D02*
X125185714Y-62971428D01*
X125157142Y-63257142D01*
X125185714Y-63228571D01*
X125242857Y-63200000D01*
X125385714Y-63200000D01*
X125442857Y-63228571D01*
X125471428Y-63257142D01*
X125500000Y-63314285D01*
X125500000Y-63457142D01*
X125471428Y-63514285D01*
X125442857Y-63542857D01*
X125385714Y-63571428D01*
X125242857Y-63571428D01*
X125185714Y-63542857D01*
X125157142Y-63514285D01*
X122551243Y-70684086D02*
X122854289Y-70987132D01*
X122894695Y-71067944D01*
X122894695Y-71148756D01*
X122854289Y-71229568D01*
X122813883Y-71269974D01*
X123076522Y-70441649D02*
X123359365Y-70724492D01*
X122813883Y-70381040D02*
X123015913Y-70785101D01*
X123278553Y-70522461D01*
X133981552Y-149031748D02*
X134263235Y-148501979D01*
X134389370Y-148569047D01*
X134451638Y-148634514D01*
X134475265Y-148711795D01*
X134473665Y-148775663D01*
X134445238Y-148889985D01*
X134404998Y-148965666D01*
X134326117Y-149053161D01*
X134274063Y-149090201D01*
X134196782Y-149113829D01*
X134107687Y-149098815D01*
X133981552Y-149031748D01*
X135045274Y-148917797D02*
X134793003Y-148783662D01*
X134633642Y-149022520D01*
X134672282Y-149010706D01*
X134736150Y-149012306D01*
X134862285Y-149079373D01*
X134899326Y-149131427D01*
X134911139Y-149170068D01*
X134909539Y-149233935D01*
X134842472Y-149360071D01*
X134790418Y-149397111D01*
X134751778Y-149408925D01*
X134687910Y-149407325D01*
X134561775Y-149340258D01*
X134524734Y-149288204D01*
X134512920Y-149249563D01*
D12*
X131952563Y-149507677D02*
X131448022Y-149239408D01*
X132169764Y-148490595D02*
X131700292Y-149373543D01*
X131707268Y-148244681D02*
X130931790Y-148587399D01*
X131394287Y-148833313D02*
X131244771Y-147998768D01*
D11*
X132239285Y-113860714D02*
X132239285Y-114146428D01*
X132039285Y-113546428D02*
X132239285Y-113860714D01*
X132439285Y-113546428D01*
X132953571Y-114146428D02*
X132610714Y-114146428D01*
X132782142Y-114146428D02*
X132782142Y-113546428D01*
X132725000Y-113632142D01*
X132667857Y-113689285D01*
X132610714Y-113717857D01*
X176057142Y-60257142D02*
X175857142Y-60257142D01*
X175857142Y-60571428D02*
X175857142Y-59971428D01*
X176142857Y-59971428D01*
X176371428Y-60571428D02*
X176371428Y-59971428D01*
X176657142Y-60571428D02*
X176657142Y-59971428D01*
X176800000Y-59971428D01*
X176885714Y-60000000D01*
X176942857Y-60057142D01*
X176971428Y-60114285D01*
X177000000Y-60228571D01*
X177000000Y-60314285D01*
X176971428Y-60428571D01*
X176942857Y-60485714D01*
X176885714Y-60542857D01*
X176800000Y-60571428D01*
X176657142Y-60571428D01*
X177228571Y-60028571D02*
X177257142Y-60000000D01*
X177314285Y-59971428D01*
X177457142Y-59971428D01*
X177514285Y-60000000D01*
X177542857Y-60028571D01*
X177571428Y-60085714D01*
X177571428Y-60142857D01*
X177542857Y-60228571D01*
X177200000Y-60571428D01*
X177571428Y-60571428D01*
X117128571Y-131542857D02*
X117128571Y-131885714D01*
X116528571Y-131714285D02*
X117128571Y-131714285D01*
X116871428Y-132171428D02*
X116900000Y-132114285D01*
X116928571Y-132085714D01*
X116985714Y-132057142D01*
X117014285Y-132057142D01*
X117071428Y-132085714D01*
X117100000Y-132114285D01*
X117128571Y-132171428D01*
X117128571Y-132285714D01*
X117100000Y-132342857D01*
X117071428Y-132371428D01*
X117014285Y-132400000D01*
X116985714Y-132400000D01*
X116928571Y-132371428D01*
X116900000Y-132342857D01*
X116871428Y-132285714D01*
X116871428Y-132171428D01*
X116842857Y-132114285D01*
X116814285Y-132085714D01*
X116757142Y-132057142D01*
X116642857Y-132057142D01*
X116585714Y-132085714D01*
X116557142Y-132114285D01*
X116528571Y-132171428D01*
X116528571Y-132285714D01*
X116557142Y-132342857D01*
X116585714Y-132371428D01*
X116642857Y-132400000D01*
X116757142Y-132400000D01*
X116814285Y-132371428D01*
X116842857Y-132342857D01*
X116871428Y-132285714D01*
X116128571Y-124042857D02*
X116128571Y-124385714D01*
X115528571Y-124214285D02*
X116128571Y-124214285D01*
X116128571Y-124871428D02*
X116128571Y-124585714D01*
X115842857Y-124557142D01*
X115871428Y-124585714D01*
X115900000Y-124642857D01*
X115900000Y-124785714D01*
X115871428Y-124842857D01*
X115842857Y-124871428D01*
X115785714Y-124900000D01*
X115642857Y-124900000D01*
X115585714Y-124871428D01*
X115557142Y-124842857D01*
X115528571Y-124785714D01*
X115528571Y-124642857D01*
X115557142Y-124585714D01*
X115585714Y-124557142D01*
X139200000Y-136635714D02*
X139171428Y-136692857D01*
X139171428Y-136778571D01*
X139200000Y-136864285D01*
X139257142Y-136921428D01*
X139314285Y-136950000D01*
X139428571Y-136978571D01*
X139514285Y-136978571D01*
X139628571Y-136950000D01*
X139685714Y-136921428D01*
X139742857Y-136864285D01*
X139771428Y-136778571D01*
X139771428Y-136721428D01*
X139742857Y-136635714D01*
X139714285Y-136607142D01*
X139514285Y-136607142D01*
X139514285Y-136721428D01*
X139771428Y-136350000D02*
X139171428Y-136350000D01*
X139171428Y-136121428D01*
X139200000Y-136064285D01*
X139228571Y-136035714D01*
X139285714Y-136007142D01*
X139371428Y-136007142D01*
X139428571Y-136035714D01*
X139457142Y-136064285D01*
X139485714Y-136121428D01*
X139485714Y-136350000D01*
X139771428Y-135750000D02*
X139171428Y-135750000D01*
X139171428Y-135350000D02*
X139171428Y-135235714D01*
X139200000Y-135178571D01*
X139257142Y-135121428D01*
X139371428Y-135092857D01*
X139571428Y-135092857D01*
X139685714Y-135121428D01*
X139742857Y-135178571D01*
X139771428Y-135235714D01*
X139771428Y-135350000D01*
X139742857Y-135407142D01*
X139685714Y-135464285D01*
X139571428Y-135492857D01*
X139371428Y-135492857D01*
X139257142Y-135464285D01*
X139200000Y-135407142D01*
X139171428Y-135350000D01*
X139171428Y-134892857D02*
X139171428Y-134521428D01*
X139400000Y-134721428D01*
X139400000Y-134635714D01*
X139428571Y-134578571D01*
X139457142Y-134550000D01*
X139514285Y-134521428D01*
X139657142Y-134521428D01*
X139714285Y-134550000D01*
X139742857Y-134578571D01*
X139771428Y-134635714D01*
X139771428Y-134807142D01*
X139742857Y-134864285D01*
X139714285Y-134892857D01*
D12*
X114523809Y-105352380D02*
X114523809Y-104352380D01*
X115571428Y-105257142D02*
X115523809Y-105304761D01*
X115380952Y-105352380D01*
X115285714Y-105352380D01*
X115142857Y-105304761D01*
X115047619Y-105209523D01*
X115000000Y-105114285D01*
X114952380Y-104923809D01*
X114952380Y-104780952D01*
X115000000Y-104590476D01*
X115047619Y-104495238D01*
X115142857Y-104400000D01*
X115285714Y-104352380D01*
X115380952Y-104352380D01*
X115523809Y-104400000D01*
X115571428Y-104447619D01*
X115952380Y-105304761D02*
X116095238Y-105352380D01*
X116333333Y-105352380D01*
X116428571Y-105304761D01*
X116476190Y-105257142D01*
X116523809Y-105161904D01*
X116523809Y-105066666D01*
X116476190Y-104971428D01*
X116428571Y-104923809D01*
X116333333Y-104876190D01*
X116142857Y-104828571D01*
X116047619Y-104780952D01*
X116000000Y-104733333D01*
X115952380Y-104638095D01*
X115952380Y-104542857D01*
X116000000Y-104447619D01*
X116047619Y-104400000D01*
X116142857Y-104352380D01*
X116380952Y-104352380D01*
X116523809Y-104400000D01*
X116952380Y-105352380D02*
X116952380Y-104352380D01*
X117333333Y-104352380D01*
X117428571Y-104400000D01*
X117476190Y-104447619D01*
X117523809Y-104542857D01*
X117523809Y-104685714D01*
X117476190Y-104780952D01*
X117428571Y-104828571D01*
X117333333Y-104876190D01*
X116952380Y-104876190D01*
D13*
X112357142Y-113971428D02*
X112357142Y-114457142D01*
X112385714Y-114514285D01*
X112414285Y-114542857D01*
X112471428Y-114571428D01*
X112585714Y-114571428D01*
X112642857Y-114542857D01*
X112671428Y-114514285D01*
X112700000Y-114457142D01*
X112700000Y-113971428D01*
X112957142Y-114542857D02*
X113042857Y-114571428D01*
X113185714Y-114571428D01*
X113242857Y-114542857D01*
X113271428Y-114514285D01*
X113300000Y-114457142D01*
X113300000Y-114400000D01*
X113271428Y-114342857D01*
X113242857Y-114314285D01*
X113185714Y-114285714D01*
X113071428Y-114257142D01*
X113014285Y-114228571D01*
X112985714Y-114200000D01*
X112957142Y-114142857D01*
X112957142Y-114085714D01*
X112985714Y-114028571D01*
X113014285Y-114000000D01*
X113071428Y-113971428D01*
X113214285Y-113971428D01*
X113300000Y-114000000D01*
X113557142Y-114257142D02*
X113757142Y-114257142D01*
X113842857Y-114571428D02*
X113557142Y-114571428D01*
X113557142Y-113971428D01*
X113842857Y-113971428D01*
X114471428Y-113971428D02*
X114814285Y-113971428D01*
X114642857Y-114571428D02*
X114642857Y-113971428D01*
X115357142Y-114514285D02*
X115328571Y-114542857D01*
X115242857Y-114571428D01*
X115185714Y-114571428D01*
X115100000Y-114542857D01*
X115042857Y-114485714D01*
X115014285Y-114428571D01*
X114985714Y-114314285D01*
X114985714Y-114228571D01*
X115014285Y-114114285D01*
X115042857Y-114057142D01*
X115100000Y-114000000D01*
X115185714Y-113971428D01*
X115242857Y-113971428D01*
X115328571Y-114000000D01*
X115357142Y-114028571D01*
X115585714Y-114028571D02*
X115614285Y-114000000D01*
X115671428Y-113971428D01*
X115814285Y-113971428D01*
X115871428Y-114000000D01*
X115900000Y-114028571D01*
X115928571Y-114085714D01*
X115928571Y-114142857D01*
X115900000Y-114228571D01*
X115557142Y-114571428D01*
X115928571Y-114571428D01*
X116300000Y-113971428D02*
X116357142Y-113971428D01*
X116414285Y-114000000D01*
X116442857Y-114028571D01*
X116471428Y-114085714D01*
X116500000Y-114200000D01*
X116500000Y-114342857D01*
X116471428Y-114457142D01*
X116442857Y-114514285D01*
X116414285Y-114542857D01*
X116357142Y-114571428D01*
X116300000Y-114571428D01*
X116242857Y-114542857D01*
X116214285Y-114514285D01*
X116185714Y-114457142D01*
X116157142Y-114342857D01*
X116157142Y-114200000D01*
X116185714Y-114085714D01*
X116214285Y-114028571D01*
X116242857Y-114000000D01*
X116300000Y-113971428D01*
X116700000Y-113971428D02*
X117071428Y-113971428D01*
X116871428Y-114200000D01*
X116957142Y-114200000D01*
X117014285Y-114228571D01*
X117042857Y-114257142D01*
X117071428Y-114314285D01*
X117071428Y-114457142D01*
X117042857Y-114514285D01*
X117014285Y-114542857D01*
X116957142Y-114571428D01*
X116785714Y-114571428D01*
X116728571Y-114542857D01*
X116700000Y-114514285D01*
X117442857Y-113971428D02*
X117500000Y-113971428D01*
X117557142Y-114000000D01*
X117585714Y-114028571D01*
X117614285Y-114085714D01*
X117642857Y-114200000D01*
X117642857Y-114342857D01*
X117614285Y-114457142D01*
X117585714Y-114514285D01*
X117557142Y-114542857D01*
X117500000Y-114571428D01*
X117442857Y-114571428D01*
X117385714Y-114542857D01*
X117357142Y-114514285D01*
X117328571Y-114457142D01*
X117300000Y-114342857D01*
X117300000Y-114200000D01*
X117328571Y-114085714D01*
X117357142Y-114028571D01*
X117385714Y-114000000D01*
X117442857Y-113971428D01*
X117900000Y-114342857D02*
X118357142Y-114342857D01*
X118642857Y-114571428D02*
X118642857Y-113971428D01*
X118928571Y-114571428D02*
X118928571Y-113971428D01*
X119071428Y-113971428D01*
X119157142Y-114000000D01*
X119214285Y-114057142D01*
X119242857Y-114114285D01*
X119271428Y-114228571D01*
X119271428Y-114314285D01*
X119242857Y-114428571D01*
X119214285Y-114485714D01*
X119157142Y-114542857D01*
X119071428Y-114571428D01*
X118928571Y-114571428D01*
X119871428Y-114514285D02*
X119842857Y-114542857D01*
X119757142Y-114571428D01*
X119700000Y-114571428D01*
X119614285Y-114542857D01*
X119557142Y-114485714D01*
X119528571Y-114428571D01*
X119500000Y-114314285D01*
X119500000Y-114228571D01*
X119528571Y-114114285D01*
X119557142Y-114057142D01*
X119614285Y-114000000D01*
X119700000Y-113971428D01*
X119757142Y-113971428D01*
X119842857Y-114000000D01*
X119871428Y-114028571D01*
D11*
X152514285Y-149834285D02*
X152485714Y-149862857D01*
X152400000Y-149891428D01*
X152342857Y-149891428D01*
X152257142Y-149862857D01*
X152200000Y-149805714D01*
X152171428Y-149748571D01*
X152142857Y-149634285D01*
X152142857Y-149548571D01*
X152171428Y-149434285D01*
X152200000Y-149377142D01*
X152257142Y-149320000D01*
X152342857Y-149291428D01*
X152400000Y-149291428D01*
X152485714Y-149320000D01*
X152514285Y-149348571D01*
X152742857Y-149348571D02*
X152771428Y-149320000D01*
X152828571Y-149291428D01*
X152971428Y-149291428D01*
X153028571Y-149320000D01*
X153057142Y-149348571D01*
X153085714Y-149405714D01*
X153085714Y-149462857D01*
X153057142Y-149548571D01*
X152714285Y-149891428D01*
X153085714Y-149891428D01*
X153657142Y-149891428D02*
X153314285Y-149891428D01*
X153485714Y-149891428D02*
X153485714Y-149291428D01*
X153428571Y-149377142D01*
X153371428Y-149434285D01*
X153314285Y-149462857D01*
X120921428Y-138692857D02*
X120921428Y-138350000D01*
X121521428Y-138521428D02*
X120921428Y-138521428D01*
X120978571Y-138178571D02*
X120950000Y-138150000D01*
X120921428Y-138092857D01*
X120921428Y-137950000D01*
X120950000Y-137892857D01*
X120978571Y-137864285D01*
X121035714Y-137835714D01*
X121092857Y-137835714D01*
X121178571Y-137864285D01*
X121521428Y-138207142D01*
X121521428Y-137835714D01*
X121521428Y-137264285D02*
X121521428Y-137607142D01*
X121521428Y-137435714D02*
X120921428Y-137435714D01*
X121007142Y-137492857D01*
X121064285Y-137550000D01*
X121092857Y-137607142D01*
X139864285Y-131352000D02*
X139807142Y-131323428D01*
X139721428Y-131323428D01*
X139635714Y-131352000D01*
X139578571Y-131409142D01*
X139550000Y-131466285D01*
X139521428Y-131580571D01*
X139521428Y-131666285D01*
X139550000Y-131780571D01*
X139578571Y-131837714D01*
X139635714Y-131894857D01*
X139721428Y-131923428D01*
X139778571Y-131923428D01*
X139864285Y-131894857D01*
X139892857Y-131866285D01*
X139892857Y-131666285D01*
X139778571Y-131666285D01*
X140150000Y-131923428D02*
X140150000Y-131323428D01*
X140378571Y-131323428D01*
X140435714Y-131352000D01*
X140464285Y-131380571D01*
X140492857Y-131437714D01*
X140492857Y-131523428D01*
X140464285Y-131580571D01*
X140435714Y-131609142D01*
X140378571Y-131637714D01*
X140150000Y-131637714D01*
X140750000Y-131923428D02*
X140750000Y-131323428D01*
X141150000Y-131323428D02*
X141264285Y-131323428D01*
X141321428Y-131352000D01*
X141378571Y-131409142D01*
X141407142Y-131523428D01*
X141407142Y-131723428D01*
X141378571Y-131837714D01*
X141321428Y-131894857D01*
X141264285Y-131923428D01*
X141150000Y-131923428D01*
X141092857Y-131894857D01*
X141035714Y-131837714D01*
X141007142Y-131723428D01*
X141007142Y-131523428D01*
X141035714Y-131409142D01*
X141092857Y-131352000D01*
X141150000Y-131323428D01*
X141978571Y-131923428D02*
X141635714Y-131923428D01*
X141807142Y-131923428D02*
X141807142Y-131323428D01*
X141750000Y-131409142D01*
X141692857Y-131466285D01*
X141635714Y-131494857D01*
X175842857Y-132623428D02*
X176185714Y-132623428D01*
X176014285Y-133223428D02*
X176014285Y-132623428D01*
X176328571Y-132623428D02*
X176700000Y-132623428D01*
X176500000Y-132852000D01*
X176585714Y-132852000D01*
X176642857Y-132880571D01*
X176671428Y-132909142D01*
X176700000Y-132966285D01*
X176700000Y-133109142D01*
X176671428Y-133166285D01*
X176642857Y-133194857D01*
X176585714Y-133223428D01*
X176414285Y-133223428D01*
X176357142Y-133194857D01*
X176328571Y-133166285D01*
X168889285Y-77371428D02*
X168689285Y-77085714D01*
X168546428Y-77371428D02*
X168546428Y-76771428D01*
X168775000Y-76771428D01*
X168832142Y-76800000D01*
X168860714Y-76828571D01*
X168889285Y-76885714D01*
X168889285Y-76971428D01*
X168860714Y-77028571D01*
X168832142Y-77057142D01*
X168775000Y-77085714D01*
X168546428Y-77085714D01*
X169089285Y-76771428D02*
X169489285Y-76771428D01*
X169232142Y-77371428D01*
X169975000Y-76971428D02*
X169975000Y-77371428D01*
X169832142Y-76742857D02*
X169689285Y-77171428D01*
X170060714Y-77171428D01*
X119157142Y-136157142D02*
X118957142Y-136157142D01*
X118957142Y-136471428D02*
X118957142Y-135871428D01*
X119242857Y-135871428D01*
X119471428Y-136471428D02*
X119471428Y-135871428D01*
X119757142Y-136471428D02*
X119757142Y-135871428D01*
X119900000Y-135871428D01*
X119985714Y-135900000D01*
X120042857Y-135957142D01*
X120071428Y-136014285D01*
X120100000Y-136128571D01*
X120100000Y-136214285D01*
X120071428Y-136328571D01*
X120042857Y-136385714D01*
X119985714Y-136442857D01*
X119900000Y-136471428D01*
X119757142Y-136471428D01*
X120300000Y-135871428D02*
X120671428Y-135871428D01*
X120471428Y-136100000D01*
X120557142Y-136100000D01*
X120614285Y-136128571D01*
X120642857Y-136157142D01*
X120671428Y-136214285D01*
X120671428Y-136357142D01*
X120642857Y-136414285D01*
X120614285Y-136442857D01*
X120557142Y-136471428D01*
X120385714Y-136471428D01*
X120328571Y-136442857D01*
X120300000Y-136414285D01*
X118528571Y-133142857D02*
X118528571Y-133485714D01*
X117928571Y-133314285D02*
X118528571Y-133314285D01*
X118528571Y-133628571D02*
X118528571Y-134028571D01*
X117928571Y-133771428D01*
X170114285Y-150214285D02*
X170085714Y-150242857D01*
X170000000Y-150271428D01*
X169942857Y-150271428D01*
X169857142Y-150242857D01*
X169800000Y-150185714D01*
X169771428Y-150128571D01*
X169742857Y-150014285D01*
X169742857Y-149928571D01*
X169771428Y-149814285D01*
X169800000Y-149757142D01*
X169857142Y-149700000D01*
X169942857Y-149671428D01*
X170000000Y-149671428D01*
X170085714Y-149700000D01*
X170114285Y-149728571D01*
X170342857Y-149728571D02*
X170371428Y-149700000D01*
X170428571Y-149671428D01*
X170571428Y-149671428D01*
X170628571Y-149700000D01*
X170657142Y-149728571D01*
X170685714Y-149785714D01*
X170685714Y-149842857D01*
X170657142Y-149928571D01*
X170314285Y-150271428D01*
X170685714Y-150271428D01*
X170885714Y-149671428D02*
X171285714Y-149671428D01*
X171028571Y-150271428D01*
X149542857Y-139028571D02*
X149485714Y-139000000D01*
X149428571Y-138942857D01*
X149342857Y-138857142D01*
X149285714Y-138828571D01*
X149228571Y-138828571D01*
X149257142Y-138971428D02*
X149200000Y-138942857D01*
X149142857Y-138885714D01*
X149114285Y-138771428D01*
X149114285Y-138571428D01*
X149142857Y-138457142D01*
X149200000Y-138400000D01*
X149257142Y-138371428D01*
X149371428Y-138371428D01*
X149428571Y-138400000D01*
X149485714Y-138457142D01*
X149514285Y-138571428D01*
X149514285Y-138771428D01*
X149485714Y-138885714D01*
X149428571Y-138942857D01*
X149371428Y-138971428D01*
X149257142Y-138971428D01*
X150057142Y-138371428D02*
X149771428Y-138371428D01*
X149742857Y-138657142D01*
X149771428Y-138628571D01*
X149828571Y-138600000D01*
X149971428Y-138600000D01*
X150028571Y-138628571D01*
X150057142Y-138657142D01*
X150085714Y-138714285D01*
X150085714Y-138857142D01*
X150057142Y-138914285D01*
X150028571Y-138942857D01*
X149971428Y-138971428D01*
X149828571Y-138971428D01*
X149771428Y-138942857D01*
X149742857Y-138914285D01*
X132100000Y-127378571D02*
X132385714Y-127378571D01*
X132385714Y-127978571D01*
X131957142Y-127978571D02*
X131585714Y-127978571D01*
X131785714Y-127750000D01*
X131700000Y-127750000D01*
X131642857Y-127721428D01*
X131614285Y-127692857D01*
X131585714Y-127635714D01*
X131585714Y-127492857D01*
X131614285Y-127435714D01*
X131642857Y-127407142D01*
X131700000Y-127378571D01*
X131871428Y-127378571D01*
X131928571Y-127407142D01*
X131957142Y-127435714D01*
X169064285Y-70171428D02*
X169064285Y-70600000D01*
X169035714Y-70685714D01*
X168978571Y-70742857D01*
X168892857Y-70771428D01*
X168835714Y-70771428D01*
X169664285Y-70771428D02*
X169321428Y-70771428D01*
X169492857Y-70771428D02*
X169492857Y-70171428D01*
X169435714Y-70257142D01*
X169378571Y-70314285D01*
X169321428Y-70342857D01*
X169864285Y-70171428D02*
X170235714Y-70171428D01*
X170035714Y-70400000D01*
X170121428Y-70400000D01*
X170178571Y-70428571D01*
X170207142Y-70457142D01*
X170235714Y-70514285D01*
X170235714Y-70657142D01*
X170207142Y-70714285D01*
X170178571Y-70742857D01*
X170121428Y-70771428D01*
X169950000Y-70771428D01*
X169892857Y-70742857D01*
X169864285Y-70714285D01*
X174964285Y-70246428D02*
X174964285Y-70675000D01*
X174935714Y-70760714D01*
X174878571Y-70817857D01*
X174792857Y-70846428D01*
X174735714Y-70846428D01*
X175564285Y-70846428D02*
X175221428Y-70846428D01*
X175392857Y-70846428D02*
X175392857Y-70246428D01*
X175335714Y-70332142D01*
X175278571Y-70389285D01*
X175221428Y-70417857D01*
X176078571Y-70446428D02*
X176078571Y-70846428D01*
X175935714Y-70217857D02*
X175792857Y-70646428D01*
X176164285Y-70646428D01*
X179671428Y-79085714D02*
X180100000Y-79085714D01*
X180185714Y-79114285D01*
X180242857Y-79171428D01*
X180271428Y-79257142D01*
X180271428Y-79314285D01*
X180271428Y-78485714D02*
X180271428Y-78828571D01*
X180271428Y-78657142D02*
X179671428Y-78657142D01*
X179757142Y-78714285D01*
X179814285Y-78771428D01*
X179842857Y-78828571D01*
X179671428Y-77942857D02*
X179671428Y-78228571D01*
X179957142Y-78257142D01*
X179928571Y-78228571D01*
X179900000Y-78171428D01*
X179900000Y-78028571D01*
X179928571Y-77971428D01*
X179957142Y-77942857D01*
X180014285Y-77914285D01*
X180157142Y-77914285D01*
X180214285Y-77942857D01*
X180242857Y-77971428D01*
X180271428Y-78028571D01*
X180271428Y-78171428D01*
X180242857Y-78228571D01*
X180214285Y-78257142D01*
X127114285Y-82014285D02*
X127085714Y-82042857D01*
X127000000Y-82071428D01*
X126942857Y-82071428D01*
X126857142Y-82042857D01*
X126800000Y-81985714D01*
X126771428Y-81928571D01*
X126742857Y-81814285D01*
X126742857Y-81728571D01*
X126771428Y-81614285D01*
X126800000Y-81557142D01*
X126857142Y-81500000D01*
X126942857Y-81471428D01*
X127000000Y-81471428D01*
X127085714Y-81500000D01*
X127114285Y-81528571D01*
X127314285Y-81471428D02*
X127685714Y-81471428D01*
X127485714Y-81700000D01*
X127571428Y-81700000D01*
X127628571Y-81728571D01*
X127657142Y-81757142D01*
X127685714Y-81814285D01*
X127685714Y-81957142D01*
X127657142Y-82014285D01*
X127628571Y-82042857D01*
X127571428Y-82071428D01*
X127400000Y-82071428D01*
X127342857Y-82042857D01*
X127314285Y-82014285D01*
X128200000Y-81471428D02*
X128085714Y-81471428D01*
X128028571Y-81500000D01*
X128000000Y-81528571D01*
X127942857Y-81614285D01*
X127914285Y-81728571D01*
X127914285Y-81957142D01*
X127942857Y-82014285D01*
X127971428Y-82042857D01*
X128028571Y-82071428D01*
X128142857Y-82071428D01*
X128200000Y-82042857D01*
X128228571Y-82014285D01*
X128257142Y-81957142D01*
X128257142Y-81814285D01*
X128228571Y-81757142D01*
X128200000Y-81728571D01*
X128142857Y-81700000D01*
X128028571Y-81700000D01*
X127971428Y-81728571D01*
X127942857Y-81757142D01*
X127914285Y-81814285D01*
X131720916Y-147027570D02*
X131372632Y-147045774D01*
X131539229Y-147318329D02*
X131030400Y-147000378D01*
X131151524Y-146806538D01*
X131206036Y-146773219D01*
X131245406Y-146764129D01*
X131309006Y-146770181D01*
X131381696Y-146815602D01*
X131415016Y-146870113D01*
X131424105Y-146909484D01*
X131418054Y-146973084D01*
X131296929Y-147166924D01*
X131318071Y-146540009D02*
X131530038Y-146200790D01*
X131902602Y-146736811D01*
X132175132Y-146300672D02*
X132235694Y-146203752D01*
X132241745Y-146140151D01*
X132232656Y-146100781D01*
X132190247Y-146006899D01*
X132108468Y-145922107D01*
X131914628Y-145800983D01*
X131851028Y-145794932D01*
X131811658Y-145804021D01*
X131757147Y-145837340D01*
X131696584Y-145934260D01*
X131690533Y-145997861D01*
X131699623Y-146037231D01*
X131732942Y-146091742D01*
X131854092Y-146167445D01*
X131917692Y-146173496D01*
X131957063Y-146164407D01*
X132011574Y-146131087D01*
X132072136Y-146034168D01*
X132078187Y-145970567D01*
X132069098Y-145931197D01*
X132035778Y-145876686D01*
X180671428Y-87885714D02*
X181100000Y-87885714D01*
X181185714Y-87914285D01*
X181242857Y-87971428D01*
X181271428Y-88057142D01*
X181271428Y-88114285D01*
X181271428Y-87285714D02*
X181271428Y-87628571D01*
X181271428Y-87457142D02*
X180671428Y-87457142D01*
X180757142Y-87514285D01*
X180814285Y-87571428D01*
X180842857Y-87628571D01*
X180671428Y-86771428D02*
X180671428Y-86885714D01*
X180700000Y-86942857D01*
X180728571Y-86971428D01*
X180814285Y-87028571D01*
X180928571Y-87057142D01*
X181157142Y-87057142D01*
X181214285Y-87028571D01*
X181242857Y-87000000D01*
X181271428Y-86942857D01*
X181271428Y-86828571D01*
X181242857Y-86771428D01*
X181214285Y-86742857D01*
X181157142Y-86714285D01*
X181014285Y-86714285D01*
X180957142Y-86742857D01*
X180928571Y-86771428D01*
X180900000Y-86828571D01*
X180900000Y-86942857D01*
X180928571Y-87000000D01*
X180957142Y-87028571D01*
X181014285Y-87057142D01*
X125850254Y-143167031D02*
X125371073Y-142805942D01*
X125457046Y-142691851D01*
X125531448Y-142640591D01*
X125611474Y-142629344D01*
X125674305Y-142640916D01*
X125782773Y-142686876D01*
X125851227Y-142738460D01*
X125925305Y-142830057D01*
X125953747Y-142887265D01*
X125964993Y-142967291D01*
X125936227Y-143052940D01*
X125850254Y-143167031D01*
X126400485Y-142436850D02*
X126194148Y-142710668D01*
X126297317Y-142573759D02*
X125818135Y-142212670D01*
X125852200Y-142309890D01*
X125863447Y-142389916D01*
X125851876Y-142452747D01*
X172242857Y-79178571D02*
X172185714Y-79150000D01*
X172128571Y-79092857D01*
X172042857Y-79007142D01*
X171985714Y-78978571D01*
X171928571Y-78978571D01*
X171957142Y-79121428D02*
X171900000Y-79092857D01*
X171842857Y-79035714D01*
X171814285Y-78921428D01*
X171814285Y-78721428D01*
X171842857Y-78607142D01*
X171900000Y-78550000D01*
X171957142Y-78521428D01*
X172071428Y-78521428D01*
X172128571Y-78550000D01*
X172185714Y-78607142D01*
X172214285Y-78721428D01*
X172214285Y-78921428D01*
X172185714Y-79035714D01*
X172128571Y-79092857D01*
X172071428Y-79121428D01*
X171957142Y-79121428D01*
X172414285Y-78521428D02*
X172814285Y-78521428D01*
X172557142Y-79121428D01*
X126464285Y-126064285D02*
X126435714Y-126092857D01*
X126350000Y-126121428D01*
X126292857Y-126121428D01*
X126207142Y-126092857D01*
X126150000Y-126035714D01*
X126121428Y-125978571D01*
X126092857Y-125864285D01*
X126092857Y-125778571D01*
X126121428Y-125664285D01*
X126150000Y-125607142D01*
X126207142Y-125550000D01*
X126292857Y-125521428D01*
X126350000Y-125521428D01*
X126435714Y-125550000D01*
X126464285Y-125578571D01*
X126978571Y-125721428D02*
X126978571Y-126121428D01*
X126835714Y-125492857D02*
X126692857Y-125921428D01*
X127064285Y-125921428D01*
X127407142Y-125521428D02*
X127464285Y-125521428D01*
X127521428Y-125550000D01*
X127550000Y-125578571D01*
X127578571Y-125635714D01*
X127607142Y-125750000D01*
X127607142Y-125892857D01*
X127578571Y-126007142D01*
X127550000Y-126064285D01*
X127521428Y-126092857D01*
X127464285Y-126121428D01*
X127407142Y-126121428D01*
X127350000Y-126092857D01*
X127321428Y-126064285D01*
X127292857Y-126007142D01*
X127264285Y-125892857D01*
X127264285Y-125750000D01*
X127292857Y-125635714D01*
X127321428Y-125578571D01*
X127350000Y-125550000D01*
X127407142Y-125521428D01*
X128014285Y-132185714D02*
X128042857Y-132214285D01*
X128071428Y-132300000D01*
X128071428Y-132357142D01*
X128042857Y-132442857D01*
X127985714Y-132500000D01*
X127928571Y-132528571D01*
X127814285Y-132557142D01*
X127728571Y-132557142D01*
X127614285Y-132528571D01*
X127557142Y-132500000D01*
X127500000Y-132442857D01*
X127471428Y-132357142D01*
X127471428Y-132300000D01*
X127500000Y-132214285D01*
X127528571Y-132185714D01*
X127671428Y-131671428D02*
X128071428Y-131671428D01*
X127442857Y-131814285D02*
X127871428Y-131957142D01*
X127871428Y-131585714D01*
X128071428Y-131042857D02*
X128071428Y-131385714D01*
X128071428Y-131214285D02*
X127471428Y-131214285D01*
X127557142Y-131271428D01*
X127614285Y-131328571D01*
X127642857Y-131385714D01*
X125814285Y-136464285D02*
X125785714Y-136492857D01*
X125700000Y-136521428D01*
X125642857Y-136521428D01*
X125557142Y-136492857D01*
X125500000Y-136435714D01*
X125471428Y-136378571D01*
X125442857Y-136264285D01*
X125442857Y-136178571D01*
X125471428Y-136064285D01*
X125500000Y-136007142D01*
X125557142Y-135950000D01*
X125642857Y-135921428D01*
X125700000Y-135921428D01*
X125785714Y-135950000D01*
X125814285Y-135978571D01*
X126328571Y-136121428D02*
X126328571Y-136521428D01*
X126185714Y-135892857D02*
X126042857Y-136321428D01*
X126414285Y-136321428D01*
X126900000Y-136121428D02*
X126900000Y-136521428D01*
X126757142Y-135892857D02*
X126614285Y-136321428D01*
X126985714Y-136321428D01*
X122371428Y-120150000D02*
X122800000Y-120150000D01*
X122885714Y-120178571D01*
X122942857Y-120235714D01*
X122971428Y-120321428D01*
X122971428Y-120378571D01*
X122971428Y-119835714D02*
X122971428Y-119721428D01*
X122942857Y-119664285D01*
X122914285Y-119635714D01*
X122828571Y-119578571D01*
X122714285Y-119550000D01*
X122485714Y-119550000D01*
X122428571Y-119578571D01*
X122400000Y-119607142D01*
X122371428Y-119664285D01*
X122371428Y-119778571D01*
X122400000Y-119835714D01*
X122428571Y-119864285D01*
X122485714Y-119892857D01*
X122628571Y-119892857D01*
X122685714Y-119864285D01*
X122714285Y-119835714D01*
X122742857Y-119778571D01*
X122742857Y-119664285D01*
X122714285Y-119607142D01*
X122685714Y-119578571D01*
X122628571Y-119550000D01*
X121939285Y-135971428D02*
X121739285Y-135685714D01*
X121596428Y-135971428D02*
X121596428Y-135371428D01*
X121825000Y-135371428D01*
X121882142Y-135400000D01*
X121910714Y-135428571D01*
X121939285Y-135485714D01*
X121939285Y-135571428D01*
X121910714Y-135628571D01*
X121882142Y-135657142D01*
X121825000Y-135685714D01*
X121596428Y-135685714D01*
X122510714Y-135971428D02*
X122167857Y-135971428D01*
X122339285Y-135971428D02*
X122339285Y-135371428D01*
X122282142Y-135457142D01*
X122225000Y-135514285D01*
X122167857Y-135542857D01*
X123025000Y-135371428D02*
X122910714Y-135371428D01*
X122853571Y-135400000D01*
X122825000Y-135428571D01*
X122767857Y-135514285D01*
X122739285Y-135628571D01*
X122739285Y-135857142D01*
X122767857Y-135914285D01*
X122796428Y-135942857D01*
X122853571Y-135971428D01*
X122967857Y-135971428D01*
X123025000Y-135942857D01*
X123053571Y-135914285D01*
X123082142Y-135857142D01*
X123082142Y-135714285D01*
X123053571Y-135657142D01*
X123025000Y-135628571D01*
X122967857Y-135600000D01*
X122853571Y-135600000D01*
X122796428Y-135628571D01*
X122767857Y-135657142D01*
X122739285Y-135714285D01*
X146114285Y-118594285D02*
X146085714Y-118622857D01*
X146000000Y-118651428D01*
X145942857Y-118651428D01*
X145857142Y-118622857D01*
X145800000Y-118565714D01*
X145771428Y-118508571D01*
X145742857Y-118394285D01*
X145742857Y-118308571D01*
X145771428Y-118194285D01*
X145800000Y-118137142D01*
X145857142Y-118080000D01*
X145942857Y-118051428D01*
X146000000Y-118051428D01*
X146085714Y-118080000D01*
X146114285Y-118108571D01*
X146685714Y-118651428D02*
X146342857Y-118651428D01*
X146514285Y-118651428D02*
X146514285Y-118051428D01*
X146457142Y-118137142D01*
X146400000Y-118194285D01*
X146342857Y-118222857D01*
X147200000Y-118051428D02*
X147085714Y-118051428D01*
X147028571Y-118080000D01*
X147000000Y-118108571D01*
X146942857Y-118194285D01*
X146914285Y-118308571D01*
X146914285Y-118537142D01*
X146942857Y-118594285D01*
X146971428Y-118622857D01*
X147028571Y-118651428D01*
X147142857Y-118651428D01*
X147200000Y-118622857D01*
X147228571Y-118594285D01*
X147257142Y-118537142D01*
X147257142Y-118394285D01*
X147228571Y-118337142D01*
X147200000Y-118308571D01*
X147142857Y-118280000D01*
X147028571Y-118280000D01*
X146971428Y-118308571D01*
X146942857Y-118337142D01*
X146914285Y-118394285D01*
X163000000Y-122671428D02*
X163000000Y-123100000D01*
X162971428Y-123185714D01*
X162914285Y-123242857D01*
X162828571Y-123271428D01*
X162771428Y-123271428D01*
X163228571Y-122671428D02*
X163600000Y-122671428D01*
X163400000Y-122900000D01*
X163485714Y-122900000D01*
X163542857Y-122928571D01*
X163571428Y-122957142D01*
X163600000Y-123014285D01*
X163600000Y-123157142D01*
X163571428Y-123214285D01*
X163542857Y-123242857D01*
X163485714Y-123271428D01*
X163314285Y-123271428D01*
X163257142Y-123242857D01*
X163228571Y-123214285D01*
X133007142Y-90646428D02*
X133007142Y-91132142D01*
X133035714Y-91189285D01*
X133064285Y-91217857D01*
X133121428Y-91246428D01*
X133235714Y-91246428D01*
X133292857Y-91217857D01*
X133321428Y-91189285D01*
X133350000Y-91132142D01*
X133350000Y-90646428D01*
X133950000Y-91246428D02*
X133607142Y-91246428D01*
X133778571Y-91246428D02*
X133778571Y-90646428D01*
X133721428Y-90732142D01*
X133664285Y-90789285D01*
X133607142Y-90817857D01*
X134521428Y-91246428D02*
X134178571Y-91246428D01*
X134350000Y-91246428D02*
X134350000Y-90646428D01*
X134292857Y-90732142D01*
X134235714Y-90789285D01*
X134178571Y-90817857D01*
X127014285Y-76864285D02*
X126985714Y-76892857D01*
X126900000Y-76921428D01*
X126842857Y-76921428D01*
X126757142Y-76892857D01*
X126700000Y-76835714D01*
X126671428Y-76778571D01*
X126642857Y-76664285D01*
X126642857Y-76578571D01*
X126671428Y-76464285D01*
X126700000Y-76407142D01*
X126757142Y-76350000D01*
X126842857Y-76321428D01*
X126900000Y-76321428D01*
X126985714Y-76350000D01*
X127014285Y-76378571D01*
X127214285Y-76321428D02*
X127585714Y-76321428D01*
X127385714Y-76550000D01*
X127471428Y-76550000D01*
X127528571Y-76578571D01*
X127557142Y-76607142D01*
X127585714Y-76664285D01*
X127585714Y-76807142D01*
X127557142Y-76864285D01*
X127528571Y-76892857D01*
X127471428Y-76921428D01*
X127300000Y-76921428D01*
X127242857Y-76892857D01*
X127214285Y-76864285D01*
X127928571Y-76578571D02*
X127871428Y-76550000D01*
X127842857Y-76521428D01*
X127814285Y-76464285D01*
X127814285Y-76435714D01*
X127842857Y-76378571D01*
X127871428Y-76350000D01*
X127928571Y-76321428D01*
X128042857Y-76321428D01*
X128100000Y-76350000D01*
X128128571Y-76378571D01*
X128157142Y-76435714D01*
X128157142Y-76464285D01*
X128128571Y-76521428D01*
X128100000Y-76550000D01*
X128042857Y-76578571D01*
X127928571Y-76578571D01*
X127871428Y-76607142D01*
X127842857Y-76635714D01*
X127814285Y-76692857D01*
X127814285Y-76807142D01*
X127842857Y-76864285D01*
X127871428Y-76892857D01*
X127928571Y-76921428D01*
X128042857Y-76921428D01*
X128100000Y-76892857D01*
X128128571Y-76864285D01*
X128157142Y-76807142D01*
X128157142Y-76692857D01*
X128128571Y-76635714D01*
X128100000Y-76607142D01*
X128042857Y-76578571D01*
X133314285Y-147285714D02*
X133342857Y-147314285D01*
X133371428Y-147400000D01*
X133371428Y-147457142D01*
X133342857Y-147542857D01*
X133285714Y-147600000D01*
X133228571Y-147628571D01*
X133114285Y-147657142D01*
X133028571Y-147657142D01*
X132914285Y-147628571D01*
X132857142Y-147600000D01*
X132800000Y-147542857D01*
X132771428Y-147457142D01*
X132771428Y-147400000D01*
X132800000Y-147314285D01*
X132828571Y-147285714D01*
X132771428Y-146771428D02*
X132771428Y-146885714D01*
X132800000Y-146942857D01*
X132828571Y-146971428D01*
X132914285Y-147028571D01*
X133028571Y-147057142D01*
X133257142Y-147057142D01*
X133314285Y-147028571D01*
X133342857Y-147000000D01*
X133371428Y-146942857D01*
X133371428Y-146828571D01*
X133342857Y-146771428D01*
X133314285Y-146742857D01*
X133257142Y-146714285D01*
X133114285Y-146714285D01*
X133057142Y-146742857D01*
X133028571Y-146771428D01*
X133000000Y-146828571D01*
X133000000Y-146942857D01*
X133028571Y-147000000D01*
X133057142Y-147028571D01*
X133114285Y-147057142D01*
X132771428Y-146200000D02*
X132771428Y-146314285D01*
X132800000Y-146371428D01*
X132828571Y-146400000D01*
X132914285Y-146457142D01*
X133028571Y-146485714D01*
X133257142Y-146485714D01*
X133314285Y-146457142D01*
X133342857Y-146428571D01*
X133371428Y-146371428D01*
X133371428Y-146257142D01*
X133342857Y-146200000D01*
X133314285Y-146171428D01*
X133257142Y-146142857D01*
X133114285Y-146142857D01*
X133057142Y-146171428D01*
X133028571Y-146200000D01*
X133000000Y-146257142D01*
X133000000Y-146371428D01*
X133028571Y-146428571D01*
X133057142Y-146457142D01*
X133114285Y-146485714D01*
X135494285Y-147585714D02*
X135522857Y-147614285D01*
X135551428Y-147700000D01*
X135551428Y-147757142D01*
X135522857Y-147842857D01*
X135465714Y-147900000D01*
X135408571Y-147928571D01*
X135294285Y-147957142D01*
X135208571Y-147957142D01*
X135094285Y-147928571D01*
X135037142Y-147900000D01*
X134980000Y-147842857D01*
X134951428Y-147757142D01*
X134951428Y-147700000D01*
X134980000Y-147614285D01*
X135008571Y-147585714D01*
X134951428Y-147071428D02*
X134951428Y-147185714D01*
X134980000Y-147242857D01*
X135008571Y-147271428D01*
X135094285Y-147328571D01*
X135208571Y-147357142D01*
X135437142Y-147357142D01*
X135494285Y-147328571D01*
X135522857Y-147300000D01*
X135551428Y-147242857D01*
X135551428Y-147128571D01*
X135522857Y-147071428D01*
X135494285Y-147042857D01*
X135437142Y-147014285D01*
X135294285Y-147014285D01*
X135237142Y-147042857D01*
X135208571Y-147071428D01*
X135180000Y-147128571D01*
X135180000Y-147242857D01*
X135208571Y-147300000D01*
X135237142Y-147328571D01*
X135294285Y-147357142D01*
X134951428Y-146814285D02*
X134951428Y-146414285D01*
X135551428Y-146671428D01*
X139014285Y-138584285D02*
X138985714Y-138612857D01*
X138900000Y-138641428D01*
X138842857Y-138641428D01*
X138757142Y-138612857D01*
X138700000Y-138555714D01*
X138671428Y-138498571D01*
X138642857Y-138384285D01*
X138642857Y-138298571D01*
X138671428Y-138184285D01*
X138700000Y-138127142D01*
X138757142Y-138070000D01*
X138842857Y-138041428D01*
X138900000Y-138041428D01*
X138985714Y-138070000D01*
X139014285Y-138098571D01*
X139528571Y-138041428D02*
X139414285Y-138041428D01*
X139357142Y-138070000D01*
X139328571Y-138098571D01*
X139271428Y-138184285D01*
X139242857Y-138298571D01*
X139242857Y-138527142D01*
X139271428Y-138584285D01*
X139300000Y-138612857D01*
X139357142Y-138641428D01*
X139471428Y-138641428D01*
X139528571Y-138612857D01*
X139557142Y-138584285D01*
X139585714Y-138527142D01*
X139585714Y-138384285D01*
X139557142Y-138327142D01*
X139528571Y-138298571D01*
X139471428Y-138270000D01*
X139357142Y-138270000D01*
X139300000Y-138298571D01*
X139271428Y-138327142D01*
X139242857Y-138384285D01*
X139928571Y-138298571D02*
X139871428Y-138270000D01*
X139842857Y-138241428D01*
X139814285Y-138184285D01*
X139814285Y-138155714D01*
X139842857Y-138098571D01*
X139871428Y-138070000D01*
X139928571Y-138041428D01*
X140042857Y-138041428D01*
X140100000Y-138070000D01*
X140128571Y-138098571D01*
X140157142Y-138155714D01*
X140157142Y-138184285D01*
X140128571Y-138241428D01*
X140100000Y-138270000D01*
X140042857Y-138298571D01*
X139928571Y-138298571D01*
X139871428Y-138327142D01*
X139842857Y-138355714D01*
X139814285Y-138412857D01*
X139814285Y-138527142D01*
X139842857Y-138584285D01*
X139871428Y-138612857D01*
X139928571Y-138641428D01*
X140042857Y-138641428D01*
X140100000Y-138612857D01*
X140128571Y-138584285D01*
X140157142Y-138527142D01*
X140157142Y-138412857D01*
X140128571Y-138355714D01*
X140100000Y-138327142D01*
X140042857Y-138298571D01*
X138814285Y-142284285D02*
X138785714Y-142312857D01*
X138700000Y-142341428D01*
X138642857Y-142341428D01*
X138557142Y-142312857D01*
X138500000Y-142255714D01*
X138471428Y-142198571D01*
X138442857Y-142084285D01*
X138442857Y-141998571D01*
X138471428Y-141884285D01*
X138500000Y-141827142D01*
X138557142Y-141770000D01*
X138642857Y-141741428D01*
X138700000Y-141741428D01*
X138785714Y-141770000D01*
X138814285Y-141798571D01*
X139328571Y-141741428D02*
X139214285Y-141741428D01*
X139157142Y-141770000D01*
X139128571Y-141798571D01*
X139071428Y-141884285D01*
X139042857Y-141998571D01*
X139042857Y-142227142D01*
X139071428Y-142284285D01*
X139100000Y-142312857D01*
X139157142Y-142341428D01*
X139271428Y-142341428D01*
X139328571Y-142312857D01*
X139357142Y-142284285D01*
X139385714Y-142227142D01*
X139385714Y-142084285D01*
X139357142Y-142027142D01*
X139328571Y-141998571D01*
X139271428Y-141970000D01*
X139157142Y-141970000D01*
X139100000Y-141998571D01*
X139071428Y-142027142D01*
X139042857Y-142084285D01*
X139671428Y-142341428D02*
X139785714Y-142341428D01*
X139842857Y-142312857D01*
X139871428Y-142284285D01*
X139928571Y-142198571D01*
X139957142Y-142084285D01*
X139957142Y-141855714D01*
X139928571Y-141798571D01*
X139900000Y-141770000D01*
X139842857Y-141741428D01*
X139728571Y-141741428D01*
X139671428Y-141770000D01*
X139642857Y-141798571D01*
X139614285Y-141855714D01*
X139614285Y-141998571D01*
X139642857Y-142055714D01*
X139671428Y-142084285D01*
X139728571Y-142112857D01*
X139842857Y-142112857D01*
X139900000Y-142084285D01*
X139928571Y-142055714D01*
X139957142Y-141998571D01*
X145151428Y-127155714D02*
X145580000Y-127155714D01*
X145665714Y-127184285D01*
X145722857Y-127241428D01*
X145751428Y-127327142D01*
X145751428Y-127384285D01*
X145751428Y-126555714D02*
X145751428Y-126898571D01*
X145751428Y-126727142D02*
X145151428Y-126727142D01*
X145237142Y-126784285D01*
X145294285Y-126841428D01*
X145322857Y-126898571D01*
X145151428Y-126355714D02*
X145151428Y-125955714D01*
X145751428Y-126212857D01*
X139917714Y-125479428D02*
X139917714Y-125965142D01*
X139946285Y-126022285D01*
X139974857Y-126050857D01*
X140032000Y-126079428D01*
X140146285Y-126079428D01*
X140203428Y-126050857D01*
X140232000Y-126022285D01*
X140260571Y-125965142D01*
X140260571Y-125479428D01*
X140517714Y-126050857D02*
X140603428Y-126079428D01*
X140746285Y-126079428D01*
X140803428Y-126050857D01*
X140832000Y-126022285D01*
X140860571Y-125965142D01*
X140860571Y-125908000D01*
X140832000Y-125850857D01*
X140803428Y-125822285D01*
X140746285Y-125793714D01*
X140632000Y-125765142D01*
X140574857Y-125736571D01*
X140546285Y-125708000D01*
X140517714Y-125650857D01*
X140517714Y-125593714D01*
X140546285Y-125536571D01*
X140574857Y-125508000D01*
X140632000Y-125479428D01*
X140774857Y-125479428D01*
X140860571Y-125508000D01*
X141317714Y-125765142D02*
X141403428Y-125793714D01*
X141432000Y-125822285D01*
X141460571Y-125879428D01*
X141460571Y-125965142D01*
X141432000Y-126022285D01*
X141403428Y-126050857D01*
X141346285Y-126079428D01*
X141117714Y-126079428D01*
X141117714Y-125479428D01*
X141317714Y-125479428D01*
X141374857Y-125508000D01*
X141403428Y-125536571D01*
X141432000Y-125593714D01*
X141432000Y-125650857D01*
X141403428Y-125708000D01*
X141374857Y-125736571D01*
X141317714Y-125765142D01*
X141117714Y-125765142D01*
X142174857Y-126079428D02*
X142174857Y-125479428D01*
X142803428Y-126022285D02*
X142774857Y-126050857D01*
X142689142Y-126079428D01*
X142632000Y-126079428D01*
X142546285Y-126050857D01*
X142489142Y-125993714D01*
X142460571Y-125936571D01*
X142432000Y-125822285D01*
X142432000Y-125736571D01*
X142460571Y-125622285D01*
X142489142Y-125565142D01*
X142546285Y-125508000D01*
X142632000Y-125479428D01*
X142689142Y-125479428D01*
X142774857Y-125508000D01*
X142803428Y-125536571D01*
X143032000Y-126050857D02*
X143117714Y-126079428D01*
X143260571Y-126079428D01*
X143317714Y-126050857D01*
X143346285Y-126022285D01*
X143374857Y-125965142D01*
X143374857Y-125908000D01*
X143346285Y-125850857D01*
X143317714Y-125822285D01*
X143260571Y-125793714D01*
X143146285Y-125765142D01*
X143089142Y-125736571D01*
X143060571Y-125708000D01*
X143032000Y-125650857D01*
X143032000Y-125593714D01*
X143060571Y-125536571D01*
X143089142Y-125508000D01*
X143146285Y-125479428D01*
X143289142Y-125479428D01*
X143374857Y-125508000D01*
X143632000Y-126079428D02*
X143632000Y-125479428D01*
X143860571Y-125479428D01*
X143917714Y-125508000D01*
X143946285Y-125536571D01*
X143974857Y-125593714D01*
X143974857Y-125679428D01*
X143946285Y-125736571D01*
X143917714Y-125765142D01*
X143860571Y-125793714D01*
X143632000Y-125793714D01*
X137518571Y-129221428D02*
X137518571Y-129707142D01*
X137547142Y-129764285D01*
X137575714Y-129792857D01*
X137632857Y-129821428D01*
X137747142Y-129821428D01*
X137804285Y-129792857D01*
X137832857Y-129764285D01*
X137861428Y-129707142D01*
X137861428Y-129221428D01*
X138118571Y-129792857D02*
X138204285Y-129821428D01*
X138347142Y-129821428D01*
X138404285Y-129792857D01*
X138432857Y-129764285D01*
X138461428Y-129707142D01*
X138461428Y-129650000D01*
X138432857Y-129592857D01*
X138404285Y-129564285D01*
X138347142Y-129535714D01*
X138232857Y-129507142D01*
X138175714Y-129478571D01*
X138147142Y-129450000D01*
X138118571Y-129392857D01*
X138118571Y-129335714D01*
X138147142Y-129278571D01*
X138175714Y-129250000D01*
X138232857Y-129221428D01*
X138375714Y-129221428D01*
X138461428Y-129250000D01*
X138718571Y-129507142D02*
X138918571Y-129507142D01*
X139004285Y-129821428D02*
X138718571Y-129821428D01*
X138718571Y-129221428D01*
X139004285Y-129221428D01*
X139632857Y-129221428D02*
X139975714Y-129221428D01*
X139804285Y-129821428D02*
X139804285Y-129221428D01*
X140518571Y-129764285D02*
X140490000Y-129792857D01*
X140404285Y-129821428D01*
X140347142Y-129821428D01*
X140261428Y-129792857D01*
X140204285Y-129735714D01*
X140175714Y-129678571D01*
X140147142Y-129564285D01*
X140147142Y-129478571D01*
X140175714Y-129364285D01*
X140204285Y-129307142D01*
X140261428Y-129250000D01*
X140347142Y-129221428D01*
X140404285Y-129221428D01*
X140490000Y-129250000D01*
X140518571Y-129278571D01*
X140747142Y-129278571D02*
X140775714Y-129250000D01*
X140832857Y-129221428D01*
X140975714Y-129221428D01*
X141032857Y-129250000D01*
X141061428Y-129278571D01*
X141090000Y-129335714D01*
X141090000Y-129392857D01*
X141061428Y-129478571D01*
X140718571Y-129821428D01*
X141090000Y-129821428D01*
X141461428Y-129221428D02*
X141518571Y-129221428D01*
X141575714Y-129250000D01*
X141604285Y-129278571D01*
X141632857Y-129335714D01*
X141661428Y-129450000D01*
X141661428Y-129592857D01*
X141632857Y-129707142D01*
X141604285Y-129764285D01*
X141575714Y-129792857D01*
X141518571Y-129821428D01*
X141461428Y-129821428D01*
X141404285Y-129792857D01*
X141375714Y-129764285D01*
X141347142Y-129707142D01*
X141318571Y-129592857D01*
X141318571Y-129450000D01*
X141347142Y-129335714D01*
X141375714Y-129278571D01*
X141404285Y-129250000D01*
X141461428Y-129221428D01*
X141861428Y-129221428D02*
X142232857Y-129221428D01*
X142032857Y-129450000D01*
X142118571Y-129450000D01*
X142175714Y-129478571D01*
X142204285Y-129507142D01*
X142232857Y-129564285D01*
X142232857Y-129707142D01*
X142204285Y-129764285D01*
X142175714Y-129792857D01*
X142118571Y-129821428D01*
X141947142Y-129821428D01*
X141890000Y-129792857D01*
X141861428Y-129764285D01*
X142604285Y-129221428D02*
X142661428Y-129221428D01*
X142718571Y-129250000D01*
X142747142Y-129278571D01*
X142775714Y-129335714D01*
X142804285Y-129450000D01*
X142804285Y-129592857D01*
X142775714Y-129707142D01*
X142747142Y-129764285D01*
X142718571Y-129792857D01*
X142661428Y-129821428D01*
X142604285Y-129821428D01*
X142547142Y-129792857D01*
X142518571Y-129764285D01*
X142490000Y-129707142D01*
X142461428Y-129592857D01*
X142461428Y-129450000D01*
X142490000Y-129335714D01*
X142518571Y-129278571D01*
X142547142Y-129250000D01*
X142604285Y-129221428D01*
X143061428Y-129592857D02*
X143518571Y-129592857D01*
X143804285Y-129821428D02*
X143804285Y-129221428D01*
X144090000Y-129821428D02*
X144090000Y-129221428D01*
X144232857Y-129221428D01*
X144318571Y-129250000D01*
X144375714Y-129307142D01*
X144404285Y-129364285D01*
X144432857Y-129478571D01*
X144432857Y-129564285D01*
X144404285Y-129678571D01*
X144375714Y-129735714D01*
X144318571Y-129792857D01*
X144232857Y-129821428D01*
X144090000Y-129821428D01*
X145032857Y-129764285D02*
X145004285Y-129792857D01*
X144918571Y-129821428D01*
X144861428Y-129821428D01*
X144775714Y-129792857D01*
X144718571Y-129735714D01*
X144690000Y-129678571D01*
X144661428Y-129564285D01*
X144661428Y-129478571D01*
X144690000Y-129364285D01*
X144718571Y-129307142D01*
X144775714Y-129250000D01*
X144861428Y-129221428D01*
X144918571Y-129221428D01*
X145004285Y-129250000D01*
X145032857Y-129278571D01*
X145290000Y-129592857D02*
X145747142Y-129592857D01*
X146032857Y-129821428D02*
X146032857Y-129221428D01*
X146375714Y-129821428D01*
X146375714Y-129221428D01*
X146947142Y-129821428D02*
X146661428Y-129821428D01*
X146661428Y-129221428D01*
X143114285Y-141271428D02*
X142914285Y-140985714D01*
X142771428Y-141271428D02*
X142771428Y-140671428D01*
X143000000Y-140671428D01*
X143057142Y-140700000D01*
X143085714Y-140728571D01*
X143114285Y-140785714D01*
X143114285Y-140871428D01*
X143085714Y-140928571D01*
X143057142Y-140957142D01*
X143000000Y-140985714D01*
X142771428Y-140985714D01*
X143685714Y-141271428D02*
X143342857Y-141271428D01*
X143514285Y-141271428D02*
X143514285Y-140671428D01*
X143457142Y-140757142D01*
X143400000Y-140814285D01*
X143342857Y-140842857D01*
X144028571Y-140928571D02*
X143971428Y-140900000D01*
X143942857Y-140871428D01*
X143914285Y-140814285D01*
X143914285Y-140785714D01*
X143942857Y-140728571D01*
X143971428Y-140700000D01*
X144028571Y-140671428D01*
X144142857Y-140671428D01*
X144200000Y-140700000D01*
X144228571Y-140728571D01*
X144257142Y-140785714D01*
X144257142Y-140814285D01*
X144228571Y-140871428D01*
X144200000Y-140900000D01*
X144142857Y-140928571D01*
X144028571Y-140928571D01*
X143971428Y-140957142D01*
X143942857Y-140985714D01*
X143914285Y-141042857D01*
X143914285Y-141157142D01*
X143942857Y-141214285D01*
X143971428Y-141242857D01*
X144028571Y-141271428D01*
X144142857Y-141271428D01*
X144200000Y-141242857D01*
X144228571Y-141214285D01*
X144257142Y-141157142D01*
X144257142Y-141042857D01*
X144228571Y-140985714D01*
X144200000Y-140957142D01*
X144142857Y-140928571D01*
X142635714Y-146185714D02*
X142921428Y-146185714D01*
X142321428Y-146385714D02*
X142635714Y-146185714D01*
X142321428Y-145985714D01*
X142378571Y-145814285D02*
X142350000Y-145785714D01*
X142321428Y-145728571D01*
X142321428Y-145585714D01*
X142350000Y-145528571D01*
X142378571Y-145500000D01*
X142435714Y-145471428D01*
X142492857Y-145471428D01*
X142578571Y-145500000D01*
X142921428Y-145842857D01*
X142921428Y-145471428D01*
X172208919Y-95484551D02*
X172423205Y-95113397D01*
X172490805Y-95053452D01*
X172568864Y-95032536D01*
X172657380Y-95050650D01*
X172706868Y-95079221D01*
X172014798Y-95306492D02*
X171975769Y-95316950D01*
X171911996Y-95313122D01*
X171788278Y-95241694D01*
X171753077Y-95188379D01*
X171742619Y-95149349D01*
X171746446Y-95085576D01*
X171775018Y-95036089D01*
X171842619Y-94976144D01*
X172310970Y-94850650D01*
X171989304Y-94664935D01*
X133942857Y-138071428D02*
X133942857Y-138557142D01*
X133971428Y-138614285D01*
X134000000Y-138642857D01*
X134057142Y-138671428D01*
X134171428Y-138671428D01*
X134228571Y-138642857D01*
X134257142Y-138614285D01*
X134285714Y-138557142D01*
X134285714Y-138071428D01*
X134885714Y-138671428D02*
X134542857Y-138671428D01*
X134714285Y-138671428D02*
X134714285Y-138071428D01*
X134657142Y-138157142D01*
X134600000Y-138214285D01*
X134542857Y-138242857D01*
X129464285Y-118471428D02*
X129264285Y-118185714D01*
X129121428Y-118471428D02*
X129121428Y-117871428D01*
X129350000Y-117871428D01*
X129407142Y-117900000D01*
X129435714Y-117928571D01*
X129464285Y-117985714D01*
X129464285Y-118071428D01*
X129435714Y-118128571D01*
X129407142Y-118157142D01*
X129350000Y-118185714D01*
X129121428Y-118185714D01*
X129692857Y-117928571D02*
X129721428Y-117900000D01*
X129778571Y-117871428D01*
X129921428Y-117871428D01*
X129978571Y-117900000D01*
X130007142Y-117928571D01*
X130035714Y-117985714D01*
X130035714Y-118042857D01*
X130007142Y-118128571D01*
X129664285Y-118471428D01*
X130035714Y-118471428D01*
X130578571Y-117871428D02*
X130292857Y-117871428D01*
X130264285Y-118157142D01*
X130292857Y-118128571D01*
X130350000Y-118100000D01*
X130492857Y-118100000D01*
X130550000Y-118128571D01*
X130578571Y-118157142D01*
X130607142Y-118214285D01*
X130607142Y-118357142D01*
X130578571Y-118414285D01*
X130550000Y-118442857D01*
X130492857Y-118471428D01*
X130350000Y-118471428D01*
X130292857Y-118442857D01*
X130264285Y-118414285D01*
X147966428Y-145781428D02*
X147966428Y-145181428D01*
X148109285Y-145181428D01*
X148195000Y-145210000D01*
X148252142Y-145267142D01*
X148280714Y-145324285D01*
X148309285Y-145438571D01*
X148309285Y-145524285D01*
X148280714Y-145638571D01*
X148252142Y-145695714D01*
X148195000Y-145752857D01*
X148109285Y-145781428D01*
X147966428Y-145781428D01*
X148880714Y-145781428D02*
X148537857Y-145781428D01*
X148709285Y-145781428D02*
X148709285Y-145181428D01*
X148652142Y-145267142D01*
X148595000Y-145324285D01*
X148537857Y-145352857D01*
X149109285Y-145238571D02*
X149137857Y-145210000D01*
X149195000Y-145181428D01*
X149337857Y-145181428D01*
X149395000Y-145210000D01*
X149423571Y-145238571D01*
X149452142Y-145295714D01*
X149452142Y-145352857D01*
X149423571Y-145438571D01*
X149080714Y-145781428D01*
X149452142Y-145781428D01*
D12*
X165144047Y-91172871D02*
X165905952Y-91172871D01*
D11*
X144021428Y-146061428D02*
X144021428Y-145461428D01*
X144164285Y-145461428D01*
X144250000Y-145490000D01*
X144307142Y-145547142D01*
X144335714Y-145604285D01*
X144364285Y-145718571D01*
X144364285Y-145804285D01*
X144335714Y-145918571D01*
X144307142Y-145975714D01*
X144250000Y-146032857D01*
X144164285Y-146061428D01*
X144021428Y-146061428D01*
X144935714Y-146061428D02*
X144592857Y-146061428D01*
X144764285Y-146061428D02*
X144764285Y-145461428D01*
X144707142Y-145547142D01*
X144650000Y-145604285D01*
X144592857Y-145632857D01*
X145307142Y-145461428D02*
X145364285Y-145461428D01*
X145421428Y-145490000D01*
X145450000Y-145518571D01*
X145478571Y-145575714D01*
X145507142Y-145690000D01*
X145507142Y-145832857D01*
X145478571Y-145947142D01*
X145450000Y-146004285D01*
X145421428Y-146032857D01*
X145364285Y-146061428D01*
X145307142Y-146061428D01*
X145250000Y-146032857D01*
X145221428Y-146004285D01*
X145192857Y-145947142D01*
X145164285Y-145832857D01*
X145164285Y-145690000D01*
X145192857Y-145575714D01*
X145221428Y-145518571D01*
X145250000Y-145490000D01*
X145307142Y-145461428D01*
D12*
X125433333Y-92352380D02*
X124957142Y-92352380D01*
X124957142Y-91352380D01*
X126195238Y-91685714D02*
X126195238Y-92352380D01*
X125957142Y-91304761D02*
X125719047Y-92019047D01*
X126338095Y-92019047D01*
D11*
X132614285Y-122694285D02*
X132585714Y-122722857D01*
X132500000Y-122751428D01*
X132442857Y-122751428D01*
X132357142Y-122722857D01*
X132300000Y-122665714D01*
X132271428Y-122608571D01*
X132242857Y-122494285D01*
X132242857Y-122408571D01*
X132271428Y-122294285D01*
X132300000Y-122237142D01*
X132357142Y-122180000D01*
X132442857Y-122151428D01*
X132500000Y-122151428D01*
X132585714Y-122180000D01*
X132614285Y-122208571D01*
X133128571Y-122151428D02*
X133014285Y-122151428D01*
X132957142Y-122180000D01*
X132928571Y-122208571D01*
X132871428Y-122294285D01*
X132842857Y-122408571D01*
X132842857Y-122637142D01*
X132871428Y-122694285D01*
X132900000Y-122722857D01*
X132957142Y-122751428D01*
X133071428Y-122751428D01*
X133128571Y-122722857D01*
X133157142Y-122694285D01*
X133185714Y-122637142D01*
X133185714Y-122494285D01*
X133157142Y-122437142D01*
X133128571Y-122408571D01*
X133071428Y-122380000D01*
X132957142Y-122380000D01*
X132900000Y-122408571D01*
X132871428Y-122437142D01*
X132842857Y-122494285D01*
X133728571Y-122151428D02*
X133442857Y-122151428D01*
X133414285Y-122437142D01*
X133442857Y-122408571D01*
X133500000Y-122380000D01*
X133642857Y-122380000D01*
X133700000Y-122408571D01*
X133728571Y-122437142D01*
X133757142Y-122494285D01*
X133757142Y-122637142D01*
X133728571Y-122694285D01*
X133700000Y-122722857D01*
X133642857Y-122751428D01*
X133500000Y-122751428D01*
X133442857Y-122722857D01*
X133414285Y-122694285D01*
D12*
X157608758Y-91364377D02*
X158370663Y-91364377D01*
X157989711Y-91745329D02*
X157989711Y-90983425D01*
D11*
X125714285Y-120944285D02*
X125685714Y-120972857D01*
X125600000Y-121001428D01*
X125542857Y-121001428D01*
X125457142Y-120972857D01*
X125400000Y-120915714D01*
X125371428Y-120858571D01*
X125342857Y-120744285D01*
X125342857Y-120658571D01*
X125371428Y-120544285D01*
X125400000Y-120487142D01*
X125457142Y-120430000D01*
X125542857Y-120401428D01*
X125600000Y-120401428D01*
X125685714Y-120430000D01*
X125714285Y-120458571D01*
X126228571Y-120401428D02*
X126114285Y-120401428D01*
X126057142Y-120430000D01*
X126028571Y-120458571D01*
X125971428Y-120544285D01*
X125942857Y-120658571D01*
X125942857Y-120887142D01*
X125971428Y-120944285D01*
X126000000Y-120972857D01*
X126057142Y-121001428D01*
X126171428Y-121001428D01*
X126228571Y-120972857D01*
X126257142Y-120944285D01*
X126285714Y-120887142D01*
X126285714Y-120744285D01*
X126257142Y-120687142D01*
X126228571Y-120658571D01*
X126171428Y-120630000D01*
X126057142Y-120630000D01*
X126000000Y-120658571D01*
X125971428Y-120687142D01*
X125942857Y-120744285D01*
X126800000Y-120601428D02*
X126800000Y-121001428D01*
X126657142Y-120372857D02*
X126514285Y-120801428D01*
X126885714Y-120801428D01*
X129522857Y-125351428D02*
X129522857Y-125837142D01*
X129551428Y-125894285D01*
X129580000Y-125922857D01*
X129637142Y-125951428D01*
X129751428Y-125951428D01*
X129808571Y-125922857D01*
X129837142Y-125894285D01*
X129865714Y-125837142D01*
X129865714Y-125351428D01*
X130122857Y-125408571D02*
X130151428Y-125380000D01*
X130208571Y-125351428D01*
X130351428Y-125351428D01*
X130408571Y-125380000D01*
X130437142Y-125408571D01*
X130465714Y-125465714D01*
X130465714Y-125522857D01*
X130437142Y-125608571D01*
X130094285Y-125951428D01*
X130465714Y-125951428D01*
X159984420Y-84510000D02*
X160265580Y-84510000D01*
X159984420Y-83490000D02*
X160265580Y-83490000D01*
X167087221Y-79390000D02*
X167412779Y-79390000D01*
X167087221Y-80410000D02*
X167412779Y-80410000D01*
X172374420Y-57890000D02*
X172655580Y-57890000D01*
X172374420Y-58910000D02*
X172655580Y-58910000D01*
X152437221Y-56110000D02*
X152762779Y-56110000D01*
X152437221Y-55090000D02*
X152762779Y-55090000D01*
D12*
X159136803Y-137811803D02*
G75*
G03*
X159136803Y-137811803I-111803J0D01*
G01*
X180250000Y-123800000D02*
X167450000Y-123800000D01*
X180250000Y-130300000D02*
X180250000Y-123800000D01*
X167450000Y-130300000D02*
X180250000Y-130300000D01*
X167450000Y-123800000D02*
X167450000Y-130300000D01*
D11*
X114950000Y-128750000D02*
G75*
G03*
X114950000Y-128750000I-950000J0D01*
G01*
X116450000Y-121000000D02*
G75*
G03*
X116450000Y-121000000I-950000J0D01*
G01*
X167000000Y-150270000D02*
X167000000Y-146370000D01*
X167000000Y-150270000D02*
X169000000Y-150270000D01*
X169000000Y-150270000D02*
X169000000Y-146370000D01*
X169741422Y-136990000D02*
X170258578Y-136990000D01*
X169741422Y-138410000D02*
X170258578Y-138410000D01*
X157290000Y-137558578D02*
X157290000Y-137041422D01*
X158710000Y-137558578D02*
X158710000Y-137041422D01*
X154658578Y-138310000D02*
X154141422Y-138310000D01*
X154658578Y-139730000D02*
X154141422Y-139730000D01*
X143890000Y-148158578D02*
X143890000Y-147641422D01*
X145310000Y-148158578D02*
X145310000Y-147641422D01*
X129110000Y-139258578D02*
X129110000Y-138741422D01*
X127690000Y-139258578D02*
X127690000Y-138741422D01*
X133755580Y-56510000D02*
X133474420Y-56510000D01*
X133755580Y-55490000D02*
X133474420Y-55490000D01*
X137672399Y-151156647D02*
X137181435Y-152435653D01*
X139992346Y-152047192D02*
X137672399Y-151156647D01*
X137181435Y-152435653D02*
X139501382Y-153326197D01*
X138610000Y-131237221D02*
X138610000Y-131562779D01*
X137590000Y-131237221D02*
X137590000Y-131562779D01*
D14*
X151990812Y-84872697D02*
X152159579Y-84881373D01*
X152159579Y-84881373D02*
X152283938Y-84895305D01*
X152283938Y-84895305D02*
X152382956Y-84917977D01*
X152382956Y-84917977D02*
X152475703Y-84952873D01*
X152475703Y-84952873D02*
X152506750Y-84966994D01*
X152506750Y-84966994D02*
X152725578Y-85104282D01*
X152725578Y-85104282D02*
X152911628Y-85295096D01*
X152911628Y-85295096D02*
X153064430Y-85538302D01*
X153064430Y-85538302D02*
X153183519Y-85832760D01*
X153183519Y-85832760D02*
X153268425Y-86177334D01*
X153268425Y-86177334D02*
X153318682Y-86570886D01*
X153318682Y-86570886D02*
X153333914Y-86978625D01*
X153333914Y-86978625D02*
X153319909Y-87374934D01*
X153319909Y-87374934D02*
X153277484Y-87715541D01*
X153277484Y-87715541D02*
X153206056Y-88001818D01*
X153206056Y-88001818D02*
X153105039Y-88235138D01*
X153105039Y-88235138D02*
X152973848Y-88416874D01*
X152973848Y-88416874D02*
X152811898Y-88548397D01*
X152811898Y-88548397D02*
X152631002Y-88627499D01*
X152631002Y-88627499D02*
X152528784Y-88649226D01*
X152528784Y-88649226D02*
X152396956Y-88665136D01*
X152396956Y-88665136D02*
X152249421Y-88675068D01*
X152249421Y-88675068D02*
X152100081Y-88678860D01*
X152100081Y-88678860D02*
X151962842Y-88676352D01*
X151962842Y-88676352D02*
X151851607Y-88667383D01*
X151851607Y-88667383D02*
X151780279Y-88651791D01*
X151780279Y-88651791D02*
X151761739Y-88637562D01*
X151761739Y-88637562D02*
X151758947Y-88600919D01*
X151758947Y-88600919D02*
X151754611Y-88507716D01*
X151754611Y-88507716D02*
X151748944Y-88364869D01*
X151748944Y-88364869D02*
X151742160Y-88179294D01*
X151742160Y-88179294D02*
X151734472Y-87957907D01*
X151734472Y-87957907D02*
X151726092Y-87707623D01*
X151726092Y-87707623D02*
X151717235Y-87435359D01*
X151717235Y-87435359D02*
X151708114Y-87148030D01*
X151708114Y-87148030D02*
X151698941Y-86852551D01*
X151698941Y-86852551D02*
X151689930Y-86555840D01*
X151689930Y-86555840D02*
X151681294Y-86264812D01*
X151681294Y-86264812D02*
X151673247Y-85986382D01*
X151673247Y-85986382D02*
X151671802Y-85934715D01*
X151671802Y-85934715D02*
X151936040Y-85934715D01*
X151936040Y-85934715D02*
X151936070Y-86211097D01*
X151936070Y-86211097D02*
X151936176Y-86352679D01*
X151936176Y-86352679D02*
X151938139Y-86788726D01*
X151938139Y-86788726D02*
X151943229Y-87177109D01*
X151943229Y-87177109D02*
X151951336Y-87515551D01*
X151951336Y-87515551D02*
X151962354Y-87801775D01*
X151962354Y-87801775D02*
X151976175Y-88033505D01*
X151976175Y-88033505D02*
X151992692Y-88208463D01*
X151992692Y-88208463D02*
X152011795Y-88324372D01*
X152011795Y-88324372D02*
X152031909Y-88377323D01*
X152031909Y-88377323D02*
X152086685Y-88411034D01*
X152086685Y-88411034D02*
X152167801Y-88432208D01*
X152167801Y-88432208D02*
X152248183Y-88442592D01*
X152248183Y-88442592D02*
X152300264Y-88449876D01*
X152300264Y-88449876D02*
X152300375Y-88449893D01*
X152300375Y-88449893D02*
X152343437Y-88439592D01*
X152343437Y-88439592D02*
X152425123Y-88407724D01*
X152425123Y-88407724D02*
X152522625Y-88363584D01*
X152522625Y-88363584D02*
X152712196Y-88250856D01*
X152712196Y-88250856D02*
X152858447Y-88109866D01*
X152858447Y-88109866D02*
X152976167Y-87925384D01*
X152976167Y-87925384D02*
X153004293Y-87867625D01*
X153004293Y-87867625D02*
X153038580Y-87789440D01*
X153038580Y-87789440D02*
X153063099Y-87717885D01*
X153063099Y-87717885D02*
X153079865Y-87639382D01*
X153079865Y-87639382D02*
X153090893Y-87540351D01*
X153090893Y-87540351D02*
X153098199Y-87407213D01*
X153098199Y-87407213D02*
X153103799Y-87226388D01*
X153103799Y-87226388D02*
X153104695Y-87191181D01*
X153104695Y-87191181D02*
X153099865Y-86803001D01*
X153099865Y-86803001D02*
X153066395Y-86445029D01*
X153066395Y-86445029D02*
X153006019Y-86121328D01*
X153006019Y-86121328D02*
X152920468Y-85835957D01*
X152920468Y-85835957D02*
X152811473Y-85592978D01*
X152811473Y-85592978D02*
X152680767Y-85396450D01*
X152680767Y-85396450D02*
X152530082Y-85250435D01*
X152530082Y-85250435D02*
X152361149Y-85158993D01*
X152361149Y-85158993D02*
X152225055Y-85128814D01*
X152225055Y-85128814D02*
X152118067Y-85127310D01*
X152118067Y-85127310D02*
X152028441Y-85140921D01*
X152028441Y-85140921D02*
X152003379Y-85150522D01*
X152003379Y-85150522D02*
X151985700Y-85161147D01*
X151985700Y-85161147D02*
X151971385Y-85176337D01*
X151971385Y-85176337D02*
X151960084Y-85202333D01*
X151960084Y-85202333D02*
X151951448Y-85245375D01*
X151951448Y-85245375D02*
X151945129Y-85311704D01*
X151945129Y-85311704D02*
X151940777Y-85407562D01*
X151940777Y-85407562D02*
X151938044Y-85539189D01*
X151938044Y-85539189D02*
X151936582Y-85712827D01*
X151936582Y-85712827D02*
X151936040Y-85934715D01*
X151936040Y-85934715D02*
X151671802Y-85934715D01*
X151671802Y-85934715D02*
X151666002Y-85727466D01*
X151666002Y-85727466D02*
X151659771Y-85494981D01*
X151659771Y-85494981D02*
X151654769Y-85295841D01*
X151654769Y-85295841D02*
X151651208Y-85136964D01*
X151651208Y-85136964D02*
X151649302Y-85025264D01*
X151649302Y-85025264D02*
X151649045Y-84982800D01*
X151649045Y-84982800D02*
X151649500Y-84860225D01*
X151649500Y-84860225D02*
X151990812Y-84872697D01*
X151990812Y-84872697D02*
X151990812Y-84872697D01*
G36*
X151659771Y-85494981D02*
G01*
X151654769Y-85295841D01*
X151651208Y-85136964D01*
X151649302Y-85025264D01*
X151649045Y-84982800D01*
X151649500Y-84860225D01*
X151990812Y-84872697D01*
X152159579Y-84881373D01*
X152283938Y-84895305D01*
X152382956Y-84917977D01*
X152475703Y-84952873D01*
X152506750Y-84966994D01*
X152725578Y-85104282D01*
X152911628Y-85295096D01*
X153064430Y-85538302D01*
X153183519Y-85832760D01*
X153268425Y-86177334D01*
X153318682Y-86570886D01*
X153333914Y-86978625D01*
X153319909Y-87374934D01*
X153277484Y-87715541D01*
X153206056Y-88001818D01*
X153105039Y-88235138D01*
X152973848Y-88416874D01*
X152811898Y-88548397D01*
X152631002Y-88627499D01*
X152528784Y-88649226D01*
X152396956Y-88665136D01*
X152249421Y-88675068D01*
X152100081Y-88678860D01*
X151962842Y-88676352D01*
X151851607Y-88667383D01*
X151780279Y-88651791D01*
X151761739Y-88637562D01*
X151758947Y-88600919D01*
X151754611Y-88507716D01*
X151748944Y-88364869D01*
X151742160Y-88179294D01*
X151734472Y-87957907D01*
X151726092Y-87707623D01*
X151717235Y-87435359D01*
X151708114Y-87148030D01*
X151698941Y-86852551D01*
X151689930Y-86555840D01*
X151681294Y-86264812D01*
X151673247Y-85986382D01*
X151671802Y-85934715D01*
X151936040Y-85934715D01*
X151936070Y-86211097D01*
X151936176Y-86352679D01*
X151938139Y-86788726D01*
X151943229Y-87177109D01*
X151951336Y-87515551D01*
X151962354Y-87801775D01*
X151976175Y-88033505D01*
X151992692Y-88208463D01*
X152011795Y-88324372D01*
X152031909Y-88377323D01*
X152086685Y-88411034D01*
X152167801Y-88432208D01*
X152248183Y-88442592D01*
X152300264Y-88449876D01*
X152300375Y-88449893D01*
X152343437Y-88439592D01*
X152425123Y-88407724D01*
X152522625Y-88363584D01*
X152712196Y-88250856D01*
X152858447Y-88109866D01*
X152976167Y-87925384D01*
X153004293Y-87867625D01*
X153038580Y-87789440D01*
X153063099Y-87717885D01*
X153079865Y-87639382D01*
X153090893Y-87540351D01*
X153098199Y-87407213D01*
X153103799Y-87226388D01*
X153104695Y-87191181D01*
X153099865Y-86803001D01*
X153066395Y-86445029D01*
X153006019Y-86121328D01*
X152920468Y-85835957D01*
X152811473Y-85592978D01*
X152680767Y-85396450D01*
X152530082Y-85250435D01*
X152361149Y-85158993D01*
X152225055Y-85128814D01*
X152118067Y-85127310D01*
X152028441Y-85140921D01*
X152003379Y-85150522D01*
X151985700Y-85161147D01*
X151971385Y-85176337D01*
X151960084Y-85202333D01*
X151951448Y-85245375D01*
X151945129Y-85311704D01*
X151940777Y-85407562D01*
X151938044Y-85539189D01*
X151936582Y-85712827D01*
X151936040Y-85934715D01*
X151671802Y-85934715D01*
X151666002Y-85727466D01*
X151659771Y-85494981D01*
G37*
X151659771Y-85494981D02*
X151654769Y-85295841D01*
X151651208Y-85136964D01*
X151649302Y-85025264D01*
X151649045Y-84982800D01*
X151649500Y-84860225D01*
X151990812Y-84872697D01*
X152159579Y-84881373D01*
X152283938Y-84895305D01*
X152382956Y-84917977D01*
X152475703Y-84952873D01*
X152506750Y-84966994D01*
X152725578Y-85104282D01*
X152911628Y-85295096D01*
X153064430Y-85538302D01*
X153183519Y-85832760D01*
X153268425Y-86177334D01*
X153318682Y-86570886D01*
X153333914Y-86978625D01*
X153319909Y-87374934D01*
X153277484Y-87715541D01*
X153206056Y-88001818D01*
X153105039Y-88235138D01*
X152973848Y-88416874D01*
X152811898Y-88548397D01*
X152631002Y-88627499D01*
X152528784Y-88649226D01*
X152396956Y-88665136D01*
X152249421Y-88675068D01*
X152100081Y-88678860D01*
X151962842Y-88676352D01*
X151851607Y-88667383D01*
X151780279Y-88651791D01*
X151761739Y-88637562D01*
X151758947Y-88600919D01*
X151754611Y-88507716D01*
X151748944Y-88364869D01*
X151742160Y-88179294D01*
X151734472Y-87957907D01*
X151726092Y-87707623D01*
X151717235Y-87435359D01*
X151708114Y-87148030D01*
X151698941Y-86852551D01*
X151689930Y-86555840D01*
X151681294Y-86264812D01*
X151673247Y-85986382D01*
X151671802Y-85934715D01*
X151936040Y-85934715D01*
X151936070Y-86211097D01*
X151936176Y-86352679D01*
X151938139Y-86788726D01*
X151943229Y-87177109D01*
X151951336Y-87515551D01*
X151962354Y-87801775D01*
X151976175Y-88033505D01*
X151992692Y-88208463D01*
X152011795Y-88324372D01*
X152031909Y-88377323D01*
X152086685Y-88411034D01*
X152167801Y-88432208D01*
X152248183Y-88442592D01*
X152300264Y-88449876D01*
X152300375Y-88449893D01*
X152343437Y-88439592D01*
X152425123Y-88407724D01*
X152522625Y-88363584D01*
X152712196Y-88250856D01*
X152858447Y-88109866D01*
X152976167Y-87925384D01*
X153004293Y-87867625D01*
X153038580Y-87789440D01*
X153063099Y-87717885D01*
X153079865Y-87639382D01*
X153090893Y-87540351D01*
X153098199Y-87407213D01*
X153103799Y-87226388D01*
X153104695Y-87191181D01*
X153099865Y-86803001D01*
X153066395Y-86445029D01*
X153006019Y-86121328D01*
X152920468Y-85835957D01*
X152811473Y-85592978D01*
X152680767Y-85396450D01*
X152530082Y-85250435D01*
X152361149Y-85158993D01*
X152225055Y-85128814D01*
X152118067Y-85127310D01*
X152028441Y-85140921D01*
X152003379Y-85150522D01*
X151985700Y-85161147D01*
X151971385Y-85176337D01*
X151960084Y-85202333D01*
X151951448Y-85245375D01*
X151945129Y-85311704D01*
X151940777Y-85407562D01*
X151938044Y-85539189D01*
X151936582Y-85712827D01*
X151936040Y-85934715D01*
X151671802Y-85934715D01*
X151666002Y-85727466D01*
X151659771Y-85494981D01*
X147324331Y-85035312D02*
X147377167Y-85060610D01*
X147377167Y-85060610D02*
X147381106Y-85067338D01*
X147381106Y-85067338D02*
X147379331Y-85117883D01*
X147379331Y-85117883D02*
X147358810Y-85218370D01*
X147358810Y-85218370D02*
X147322447Y-85359046D01*
X147322447Y-85359046D02*
X147273143Y-85530157D01*
X147273143Y-85530157D02*
X147213803Y-85721951D01*
X147213803Y-85721951D02*
X147147327Y-85924674D01*
X147147327Y-85924674D02*
X147076620Y-86128572D01*
X147076620Y-86128572D02*
X147016353Y-86292895D01*
X147016353Y-86292895D02*
X146932685Y-86518451D01*
X146932685Y-86518451D02*
X146862194Y-86719050D01*
X146862194Y-86719050D02*
X146801043Y-86908219D01*
X146801043Y-86908219D02*
X146745398Y-87099484D01*
X146745398Y-87099484D02*
X146691420Y-87306373D01*
X146691420Y-87306373D02*
X146635274Y-87542414D01*
X146635274Y-87542414D02*
X146573124Y-87821133D01*
X146573124Y-87821133D02*
X146541452Y-87967453D01*
X146541452Y-87967453D02*
X146462664Y-88321292D01*
X146462664Y-88321292D02*
X146389817Y-88620021D01*
X146389817Y-88620021D02*
X146320450Y-88871474D01*
X146320450Y-88871474D02*
X146252105Y-89083482D01*
X146252105Y-89083482D02*
X146182322Y-89263879D01*
X146182322Y-89263879D02*
X146108641Y-89420496D01*
X146108641Y-89420496D02*
X146054341Y-89518625D01*
X146054341Y-89518625D02*
X145922207Y-89709724D01*
X145922207Y-89709724D02*
X145751122Y-89908523D01*
X145751122Y-89908523D02*
X145559581Y-90095654D01*
X145559581Y-90095654D02*
X145366076Y-90251751D01*
X145366076Y-90251751D02*
X145331250Y-90275875D01*
X145331250Y-90275875D02*
X145197343Y-90353837D01*
X145197343Y-90353837D02*
X145050338Y-90419688D01*
X145050338Y-90419688D02*
X144901312Y-90470925D01*
X144901312Y-90470925D02*
X144761341Y-90505044D01*
X144761341Y-90505044D02*
X144641500Y-90519543D01*
X144641500Y-90519543D02*
X144552866Y-90511919D01*
X144552866Y-90511919D02*
X144506515Y-90479668D01*
X144506515Y-90479668D02*
X144502385Y-90463187D01*
X144502385Y-90463187D02*
X144502350Y-90352812D01*
X144502350Y-90352812D02*
X144513543Y-90255784D01*
X144513543Y-90255784D02*
X144533049Y-90195174D01*
X144533049Y-90195174D02*
X144536880Y-90190257D01*
X144536880Y-90190257D02*
X144578767Y-90172248D01*
X144578767Y-90172248D02*
X144665963Y-90149181D01*
X144665963Y-90149181D02*
X144780998Y-90125562D01*
X144780998Y-90125562D02*
X144802285Y-90121778D01*
X144802285Y-90121778D02*
X145019366Y-90068278D01*
X145019366Y-90068278D02*
X145209612Y-89983548D01*
X145209612Y-89983548D02*
X145388904Y-89858405D01*
X145388904Y-89858405D02*
X145573119Y-89683668D01*
X145573119Y-89683668D02*
X145588914Y-89666876D01*
X145588914Y-89666876D02*
X145757908Y-89463565D01*
X145757908Y-89463565D02*
X145901661Y-89239592D01*
X145901661Y-89239592D02*
X146022952Y-88987506D01*
X146022952Y-88987506D02*
X146124563Y-88699853D01*
X146124563Y-88699853D02*
X146209275Y-88369182D01*
X146209275Y-88369182D02*
X146279869Y-87988040D01*
X146279869Y-87988040D02*
X146319609Y-87708875D01*
X146319609Y-87708875D02*
X146344031Y-87511264D01*
X146344031Y-87511264D02*
X146359119Y-87349855D01*
X146359119Y-87349855D02*
X146362404Y-87212667D01*
X146362404Y-87212667D02*
X146351415Y-87087720D01*
X146351415Y-87087720D02*
X146323682Y-86963033D01*
X146323682Y-86963033D02*
X146276737Y-86826626D01*
X146276737Y-86826626D02*
X146208108Y-86666520D01*
X146208108Y-86666520D02*
X146115328Y-86470733D01*
X146115328Y-86470733D02*
X146027334Y-86291092D01*
X146027334Y-86291092D02*
X145743768Y-85714887D01*
X145743768Y-85714887D02*
X145799446Y-85619858D01*
X145799446Y-85619858D02*
X145860069Y-85537051D01*
X145860069Y-85537051D02*
X145922440Y-85483717D01*
X145922440Y-85483717D02*
X145972339Y-85470825D01*
X145972339Y-85470825D02*
X145983913Y-85477580D01*
X145983913Y-85477580D02*
X145999792Y-85517120D01*
X145999792Y-85517120D02*
X146021842Y-85601331D01*
X146021842Y-85601331D02*
X146045399Y-85712314D01*
X146045399Y-85712314D02*
X146046311Y-85717084D01*
X146046311Y-85717084D02*
X146076904Y-85836127D01*
X146076904Y-85836127D02*
X146127800Y-85990729D01*
X146127800Y-85990729D02*
X146191461Y-86159377D01*
X146191461Y-86159377D02*
X146249060Y-86295656D01*
X146249060Y-86295656D02*
X146339819Y-86494825D01*
X146339819Y-86494825D02*
X146410773Y-86640063D01*
X146410773Y-86640063D02*
X146465858Y-86736333D01*
X146465858Y-86736333D02*
X146509010Y-86788598D01*
X146509010Y-86788598D02*
X146544164Y-86801823D01*
X146544164Y-86801823D02*
X146575256Y-86780971D01*
X146575256Y-86780971D02*
X146601463Y-86740101D01*
X146601463Y-86740101D02*
X146624583Y-86682713D01*
X146624583Y-86682713D02*
X146661092Y-86575284D01*
X146661092Y-86575284D02*
X146707677Y-86429035D01*
X146707677Y-86429035D02*
X146761022Y-86255188D01*
X146761022Y-86255188D02*
X146817813Y-86064965D01*
X146817813Y-86064965D02*
X146874735Y-85869588D01*
X146874735Y-85869588D02*
X146928472Y-85680279D01*
X146928472Y-85680279D02*
X146975712Y-85508259D01*
X146975712Y-85508259D02*
X147013138Y-85364751D01*
X147013138Y-85364751D02*
X147035086Y-85272062D01*
X147035086Y-85272062D02*
X147088314Y-85026000D01*
X147088314Y-85026000D02*
X147226778Y-85026000D01*
X147226778Y-85026000D02*
X147324331Y-85035312D01*
X147324331Y-85035312D02*
X147324331Y-85035312D01*
G36*
X147324331Y-85035312D02*
G01*
X147377167Y-85060610D01*
X147381106Y-85067338D01*
X147379331Y-85117883D01*
X147358810Y-85218370D01*
X147322447Y-85359046D01*
X147273143Y-85530157D01*
X147213803Y-85721951D01*
X147147327Y-85924674D01*
X147076620Y-86128572D01*
X147016353Y-86292895D01*
X146932685Y-86518451D01*
X146862194Y-86719050D01*
X146801043Y-86908219D01*
X146745398Y-87099484D01*
X146691420Y-87306373D01*
X146635274Y-87542414D01*
X146573124Y-87821133D01*
X146541452Y-87967453D01*
X146462664Y-88321292D01*
X146389817Y-88620021D01*
X146320450Y-88871474D01*
X146252105Y-89083482D01*
X146182322Y-89263879D01*
X146108641Y-89420496D01*
X146054341Y-89518625D01*
X145922207Y-89709724D01*
X145751122Y-89908523D01*
X145559581Y-90095654D01*
X145366076Y-90251751D01*
X145331250Y-90275875D01*
X145197343Y-90353837D01*
X145050338Y-90419688D01*
X144901312Y-90470925D01*
X144761341Y-90505044D01*
X144641500Y-90519543D01*
X144552866Y-90511919D01*
X144506515Y-90479668D01*
X144502385Y-90463187D01*
X144502350Y-90352812D01*
X144513543Y-90255784D01*
X144533049Y-90195174D01*
X144536880Y-90190257D01*
X144578767Y-90172248D01*
X144665963Y-90149181D01*
X144780998Y-90125562D01*
X144802285Y-90121778D01*
X145019366Y-90068278D01*
X145209612Y-89983548D01*
X145388904Y-89858405D01*
X145573119Y-89683668D01*
X145588914Y-89666876D01*
X145757908Y-89463565D01*
X145901661Y-89239592D01*
X146022952Y-88987506D01*
X146124563Y-88699853D01*
X146209275Y-88369182D01*
X146279869Y-87988040D01*
X146319609Y-87708875D01*
X146344031Y-87511264D01*
X146359119Y-87349855D01*
X146362404Y-87212667D01*
X146351415Y-87087720D01*
X146323682Y-86963033D01*
X146276737Y-86826626D01*
X146208108Y-86666520D01*
X146115328Y-86470733D01*
X146027334Y-86291092D01*
X145743768Y-85714887D01*
X145799446Y-85619858D01*
X145860069Y-85537051D01*
X145922440Y-85483717D01*
X145972339Y-85470825D01*
X145983913Y-85477580D01*
X145999792Y-85517120D01*
X146021842Y-85601331D01*
X146045399Y-85712314D01*
X146046311Y-85717084D01*
X146076904Y-85836127D01*
X146127800Y-85990729D01*
X146191461Y-86159377D01*
X146249060Y-86295656D01*
X146339819Y-86494825D01*
X146410773Y-86640063D01*
X146465858Y-86736333D01*
X146509010Y-86788598D01*
X146544164Y-86801823D01*
X146575256Y-86780971D01*
X146601463Y-86740101D01*
X146624583Y-86682713D01*
X146661092Y-86575284D01*
X146707677Y-86429035D01*
X146761022Y-86255188D01*
X146817813Y-86064965D01*
X146874735Y-85869588D01*
X146928472Y-85680279D01*
X146975712Y-85508259D01*
X147013138Y-85364751D01*
X147035086Y-85272062D01*
X147088314Y-85026000D01*
X147226778Y-85026000D01*
X147324331Y-85035312D01*
G37*
X147324331Y-85035312D02*
X147377167Y-85060610D01*
X147381106Y-85067338D01*
X147379331Y-85117883D01*
X147358810Y-85218370D01*
X147322447Y-85359046D01*
X147273143Y-85530157D01*
X147213803Y-85721951D01*
X147147327Y-85924674D01*
X147076620Y-86128572D01*
X147016353Y-86292895D01*
X146932685Y-86518451D01*
X146862194Y-86719050D01*
X146801043Y-86908219D01*
X146745398Y-87099484D01*
X146691420Y-87306373D01*
X146635274Y-87542414D01*
X146573124Y-87821133D01*
X146541452Y-87967453D01*
X146462664Y-88321292D01*
X146389817Y-88620021D01*
X146320450Y-88871474D01*
X146252105Y-89083482D01*
X146182322Y-89263879D01*
X146108641Y-89420496D01*
X146054341Y-89518625D01*
X145922207Y-89709724D01*
X145751122Y-89908523D01*
X145559581Y-90095654D01*
X145366076Y-90251751D01*
X145331250Y-90275875D01*
X145197343Y-90353837D01*
X145050338Y-90419688D01*
X144901312Y-90470925D01*
X144761341Y-90505044D01*
X144641500Y-90519543D01*
X144552866Y-90511919D01*
X144506515Y-90479668D01*
X144502385Y-90463187D01*
X144502350Y-90352812D01*
X144513543Y-90255784D01*
X144533049Y-90195174D01*
X144536880Y-90190257D01*
X144578767Y-90172248D01*
X144665963Y-90149181D01*
X144780998Y-90125562D01*
X144802285Y-90121778D01*
X145019366Y-90068278D01*
X145209612Y-89983548D01*
X145388904Y-89858405D01*
X145573119Y-89683668D01*
X145588914Y-89666876D01*
X145757908Y-89463565D01*
X145901661Y-89239592D01*
X146022952Y-88987506D01*
X146124563Y-88699853D01*
X146209275Y-88369182D01*
X146279869Y-87988040D01*
X146319609Y-87708875D01*
X146344031Y-87511264D01*
X146359119Y-87349855D01*
X146362404Y-87212667D01*
X146351415Y-87087720D01*
X146323682Y-86963033D01*
X146276737Y-86826626D01*
X146208108Y-86666520D01*
X146115328Y-86470733D01*
X146027334Y-86291092D01*
X145743768Y-85714887D01*
X145799446Y-85619858D01*
X145860069Y-85537051D01*
X145922440Y-85483717D01*
X145972339Y-85470825D01*
X145983913Y-85477580D01*
X145999792Y-85517120D01*
X146021842Y-85601331D01*
X146045399Y-85712314D01*
X146046311Y-85717084D01*
X146076904Y-85836127D01*
X146127800Y-85990729D01*
X146191461Y-86159377D01*
X146249060Y-86295656D01*
X146339819Y-86494825D01*
X146410773Y-86640063D01*
X146465858Y-86736333D01*
X146509010Y-86788598D01*
X146544164Y-86801823D01*
X146575256Y-86780971D01*
X146601463Y-86740101D01*
X146624583Y-86682713D01*
X146661092Y-86575284D01*
X146707677Y-86429035D01*
X146761022Y-86255188D01*
X146817813Y-86064965D01*
X146874735Y-85869588D01*
X146928472Y-85680279D01*
X146975712Y-85508259D01*
X147013138Y-85364751D01*
X147035086Y-85272062D01*
X147088314Y-85026000D01*
X147226778Y-85026000D01*
X147324331Y-85035312D01*
X148312289Y-85480478D02*
X148526297Y-85539683D01*
X148526297Y-85539683D02*
X148545937Y-85546796D01*
X148545937Y-85546796D02*
X148792000Y-85637755D01*
X148792000Y-85637755D02*
X148792000Y-85774504D01*
X148792000Y-85774504D02*
X148785704Y-85862503D01*
X148785704Y-85862503D02*
X148769901Y-85920462D01*
X148769901Y-85920462D02*
X148762433Y-85929525D01*
X148762433Y-85929525D02*
X148720624Y-85924278D01*
X148720624Y-85924278D02*
X148649612Y-85889737D01*
X148649612Y-85889737D02*
X148615202Y-85867950D01*
X148615202Y-85867950D02*
X148455444Y-85785862D01*
X148455444Y-85785862D02*
X148273376Y-85734180D01*
X148273376Y-85734180D02*
X148088252Y-85715307D01*
X148088252Y-85715307D02*
X147919327Y-85731647D01*
X147919327Y-85731647D02*
X147815481Y-85768126D01*
X147815481Y-85768126D02*
X147705824Y-85857639D01*
X147705824Y-85857639D02*
X147638959Y-85981069D01*
X147638959Y-85981069D02*
X147619140Y-86121867D01*
X147619140Y-86121867D02*
X147650620Y-86263480D01*
X147650620Y-86263480D02*
X147675684Y-86312054D01*
X147675684Y-86312054D02*
X147709815Y-86363472D01*
X147709815Y-86363472D02*
X147753883Y-86419543D01*
X147753883Y-86419543D02*
X147814033Y-86486540D01*
X147814033Y-86486540D02*
X147896411Y-86570734D01*
X147896411Y-86570734D02*
X148007163Y-86678397D01*
X148007163Y-86678397D02*
X148152434Y-86815800D01*
X148152434Y-86815800D02*
X148338371Y-86989215D01*
X148338371Y-86989215D02*
X148348395Y-86998525D01*
X148348395Y-86998525D02*
X148538512Y-87180693D01*
X148538512Y-87180693D02*
X148683586Y-87334856D01*
X148683586Y-87334856D02*
X148789750Y-87470600D01*
X148789750Y-87470600D02*
X148863139Y-87597511D01*
X148863139Y-87597511D02*
X148909887Y-87725176D01*
X148909887Y-87725176D02*
X148936127Y-87863181D01*
X148936127Y-87863181D02*
X148942552Y-87927068D01*
X148942552Y-87927068D02*
X148932914Y-88145483D01*
X148932914Y-88145483D02*
X148869706Y-88335376D01*
X148869706Y-88335376D02*
X148757055Y-88490952D01*
X148757055Y-88490952D02*
X148599088Y-88606414D01*
X148599088Y-88606414D02*
X148411000Y-88673627D01*
X148411000Y-88673627D02*
X148268762Y-88696282D01*
X148268762Y-88696282D02*
X148089654Y-88712803D01*
X148089654Y-88712803D02*
X147895856Y-88722313D01*
X147895856Y-88722313D02*
X147709547Y-88723938D01*
X147709547Y-88723938D02*
X147552907Y-88716800D01*
X147552907Y-88716800D02*
X147493803Y-88709854D01*
X147493803Y-88709854D02*
X147300053Y-88649004D01*
X147300053Y-88649004D02*
X147133680Y-88535463D01*
X147133680Y-88535463D02*
X147001141Y-88376496D01*
X147001141Y-88376496D02*
X146908889Y-88179367D01*
X146908889Y-88179367D02*
X146869544Y-88007397D01*
X146869544Y-88007397D02*
X146860306Y-87916468D01*
X146860306Y-87916468D02*
X146872089Y-87863428D01*
X146872089Y-87863428D02*
X146915453Y-87823534D01*
X146915453Y-87823534D02*
X146959574Y-87796469D01*
X146959574Y-87796469D02*
X147072463Y-87732904D01*
X147072463Y-87732904D02*
X147142892Y-87707669D01*
X147142892Y-87707669D02*
X147181974Y-87724998D01*
X147181974Y-87724998D02*
X147200822Y-87789129D01*
X147200822Y-87789129D02*
X147209763Y-87891841D01*
X147209763Y-87891841D02*
X147242082Y-88078474D01*
X147242082Y-88078474D02*
X147314669Y-88222599D01*
X147314669Y-88222599D02*
X147430837Y-88326675D01*
X147430837Y-88326675D02*
X147593898Y-88393159D01*
X147593898Y-88393159D02*
X147807166Y-88424509D01*
X147807166Y-88424509D02*
X147932266Y-88427783D01*
X147932266Y-88427783D02*
X148169576Y-88412926D01*
X148169576Y-88412926D02*
X148367227Y-88372166D01*
X148367227Y-88372166D02*
X148518230Y-88307585D01*
X148518230Y-88307585D02*
X148612907Y-88224990D01*
X148612907Y-88224990D02*
X148660195Y-88115376D01*
X148660195Y-88115376D02*
X148674538Y-87975375D01*
X148674538Y-87975375D02*
X148655739Y-87829004D01*
X148655739Y-87829004D02*
X148616995Y-87724015D01*
X148616995Y-87724015D02*
X148578579Y-87669684D01*
X148578579Y-87669684D02*
X148502760Y-87578851D01*
X148502760Y-87578851D02*
X148397047Y-87459905D01*
X148397047Y-87459905D02*
X148268951Y-87321235D01*
X148268951Y-87321235D02*
X148125979Y-87171229D01*
X148125979Y-87171229D02*
X148078042Y-87121927D01*
X148078042Y-87121927D02*
X147855664Y-86888856D01*
X147855664Y-86888856D02*
X147679406Y-86690324D01*
X147679406Y-86690324D02*
X147546210Y-86520698D01*
X147546210Y-86520698D02*
X147453016Y-86374347D01*
X147453016Y-86374347D02*
X147396765Y-86245639D01*
X147396765Y-86245639D02*
X147374400Y-86128941D01*
X147374400Y-86128941D02*
X147382860Y-86018623D01*
X147382860Y-86018623D02*
X147419088Y-85909051D01*
X147419088Y-85909051D02*
X147419181Y-85908840D01*
X147419181Y-85908840D02*
X147519452Y-85744780D01*
X147519452Y-85744780D02*
X147659072Y-85599034D01*
X147659072Y-85599034D02*
X147787306Y-85510330D01*
X147787306Y-85510330D02*
X147928780Y-85465127D01*
X147928780Y-85465127D02*
X148108446Y-85455401D01*
X148108446Y-85455401D02*
X148312289Y-85480478D01*
X148312289Y-85480478D02*
X148312289Y-85480478D01*
G36*
X148312289Y-85480478D02*
G01*
X148526297Y-85539683D01*
X148545937Y-85546796D01*
X148792000Y-85637755D01*
X148792000Y-85774504D01*
X148785704Y-85862503D01*
X148769901Y-85920462D01*
X148762433Y-85929525D01*
X148720624Y-85924278D01*
X148649612Y-85889737D01*
X148615202Y-85867950D01*
X148455444Y-85785862D01*
X148273376Y-85734180D01*
X148088252Y-85715307D01*
X147919327Y-85731647D01*
X147815481Y-85768126D01*
X147705824Y-85857639D01*
X147638959Y-85981069D01*
X147619140Y-86121867D01*
X147650620Y-86263480D01*
X147675684Y-86312054D01*
X147709815Y-86363472D01*
X147753883Y-86419543D01*
X147814033Y-86486540D01*
X147896411Y-86570734D01*
X148007163Y-86678397D01*
X148152434Y-86815800D01*
X148338371Y-86989215D01*
X148348395Y-86998525D01*
X148538512Y-87180693D01*
X148683586Y-87334856D01*
X148789750Y-87470600D01*
X148863139Y-87597511D01*
X148909887Y-87725176D01*
X148936127Y-87863181D01*
X148942552Y-87927068D01*
X148932914Y-88145483D01*
X148869706Y-88335376D01*
X148757055Y-88490952D01*
X148599088Y-88606414D01*
X148411000Y-88673627D01*
X148268762Y-88696282D01*
X148089654Y-88712803D01*
X147895856Y-88722313D01*
X147709547Y-88723938D01*
X147552907Y-88716800D01*
X147493803Y-88709854D01*
X147300053Y-88649004D01*
X147133680Y-88535463D01*
X147001141Y-88376496D01*
X146908889Y-88179367D01*
X146869544Y-88007397D01*
X146860306Y-87916468D01*
X146872089Y-87863428D01*
X146915453Y-87823534D01*
X146959574Y-87796469D01*
X147072463Y-87732904D01*
X147142892Y-87707669D01*
X147181974Y-87724998D01*
X147200822Y-87789129D01*
X147209763Y-87891841D01*
X147242082Y-88078474D01*
X147314669Y-88222599D01*
X147430837Y-88326675D01*
X147593898Y-88393159D01*
X147807166Y-88424509D01*
X147932266Y-88427783D01*
X148169576Y-88412926D01*
X148367227Y-88372166D01*
X148518230Y-88307585D01*
X148612907Y-88224990D01*
X148660195Y-88115376D01*
X148674538Y-87975375D01*
X148655739Y-87829004D01*
X148616995Y-87724015D01*
X148578579Y-87669684D01*
X148502760Y-87578851D01*
X148397047Y-87459905D01*
X148268951Y-87321235D01*
X148125979Y-87171229D01*
X148078042Y-87121927D01*
X147855664Y-86888856D01*
X147679406Y-86690324D01*
X147546210Y-86520698D01*
X147453016Y-86374347D01*
X147396765Y-86245639D01*
X147374400Y-86128941D01*
X147382860Y-86018623D01*
X147419088Y-85909051D01*
X147419181Y-85908840D01*
X147519452Y-85744780D01*
X147659072Y-85599034D01*
X147787306Y-85510330D01*
X147928780Y-85465127D01*
X148108446Y-85455401D01*
X148312289Y-85480478D01*
G37*
X148312289Y-85480478D02*
X148526297Y-85539683D01*
X148545937Y-85546796D01*
X148792000Y-85637755D01*
X148792000Y-85774504D01*
X148785704Y-85862503D01*
X148769901Y-85920462D01*
X148762433Y-85929525D01*
X148720624Y-85924278D01*
X148649612Y-85889737D01*
X148615202Y-85867950D01*
X148455444Y-85785862D01*
X148273376Y-85734180D01*
X148088252Y-85715307D01*
X147919327Y-85731647D01*
X147815481Y-85768126D01*
X147705824Y-85857639D01*
X147638959Y-85981069D01*
X147619140Y-86121867D01*
X147650620Y-86263480D01*
X147675684Y-86312054D01*
X147709815Y-86363472D01*
X147753883Y-86419543D01*
X147814033Y-86486540D01*
X147896411Y-86570734D01*
X148007163Y-86678397D01*
X148152434Y-86815800D01*
X148338371Y-86989215D01*
X148348395Y-86998525D01*
X148538512Y-87180693D01*
X148683586Y-87334856D01*
X148789750Y-87470600D01*
X148863139Y-87597511D01*
X148909887Y-87725176D01*
X148936127Y-87863181D01*
X148942552Y-87927068D01*
X148932914Y-88145483D01*
X148869706Y-88335376D01*
X148757055Y-88490952D01*
X148599088Y-88606414D01*
X148411000Y-88673627D01*
X148268762Y-88696282D01*
X148089654Y-88712803D01*
X147895856Y-88722313D01*
X147709547Y-88723938D01*
X147552907Y-88716800D01*
X147493803Y-88709854D01*
X147300053Y-88649004D01*
X147133680Y-88535463D01*
X147001141Y-88376496D01*
X146908889Y-88179367D01*
X146869544Y-88007397D01*
X146860306Y-87916468D01*
X146872089Y-87863428D01*
X146915453Y-87823534D01*
X146959574Y-87796469D01*
X147072463Y-87732904D01*
X147142892Y-87707669D01*
X147181974Y-87724998D01*
X147200822Y-87789129D01*
X147209763Y-87891841D01*
X147242082Y-88078474D01*
X147314669Y-88222599D01*
X147430837Y-88326675D01*
X147593898Y-88393159D01*
X147807166Y-88424509D01*
X147932266Y-88427783D01*
X148169576Y-88412926D01*
X148367227Y-88372166D01*
X148518230Y-88307585D01*
X148612907Y-88224990D01*
X148660195Y-88115376D01*
X148674538Y-87975375D01*
X148655739Y-87829004D01*
X148616995Y-87724015D01*
X148578579Y-87669684D01*
X148502760Y-87578851D01*
X148397047Y-87459905D01*
X148268951Y-87321235D01*
X148125979Y-87171229D01*
X148078042Y-87121927D01*
X147855664Y-86888856D01*
X147679406Y-86690324D01*
X147546210Y-86520698D01*
X147453016Y-86374347D01*
X147396765Y-86245639D01*
X147374400Y-86128941D01*
X147382860Y-86018623D01*
X147419088Y-85909051D01*
X147419181Y-85908840D01*
X147519452Y-85744780D01*
X147659072Y-85599034D01*
X147787306Y-85510330D01*
X147928780Y-85465127D01*
X148108446Y-85455401D01*
X148312289Y-85480478D01*
X151324160Y-84940419D02*
X151329767Y-85015465D01*
X151329767Y-85015465D02*
X151334040Y-85109485D01*
X151334040Y-85109485D02*
X151335917Y-85200216D01*
X151335917Y-85200216D02*
X151334944Y-85256187D01*
X151334944Y-85256187D02*
X151321427Y-85289663D01*
X151321427Y-85289663D02*
X151275782Y-85307031D01*
X151275782Y-85307031D02*
X151183502Y-85313184D01*
X151183502Y-85313184D02*
X151165312Y-85313437D01*
X151165312Y-85313437D02*
X151067641Y-85319752D01*
X151067641Y-85319752D02*
X150926875Y-85335656D01*
X150926875Y-85335656D02*
X150762271Y-85358707D01*
X150762271Y-85358707D02*
X150602076Y-85384875D01*
X150602076Y-85384875D02*
X150431112Y-85415646D01*
X150431112Y-85415646D02*
X150307433Y-85445362D01*
X150307433Y-85445362D02*
X150223111Y-85484215D01*
X150223111Y-85484215D02*
X150170219Y-85542395D01*
X150170219Y-85542395D02*
X150140828Y-85630091D01*
X150140828Y-85630091D02*
X150127012Y-85757494D01*
X150127012Y-85757494D02*
X150120841Y-85934795D01*
X150120841Y-85934795D02*
X150119141Y-86005634D01*
X150119141Y-86005634D02*
X150116166Y-86179502D01*
X150116166Y-86179502D02*
X150122069Y-86308708D01*
X150122069Y-86308708D02*
X150144614Y-86398398D01*
X150144614Y-86398398D02*
X150191561Y-86453722D01*
X150191561Y-86453722D02*
X150270675Y-86479828D01*
X150270675Y-86479828D02*
X150389716Y-86481865D01*
X150389716Y-86481865D02*
X150556448Y-86464979D01*
X150556448Y-86464979D02*
X150767810Y-86435857D01*
X150767810Y-86435857D02*
X150875301Y-86430960D01*
X150875301Y-86430960D02*
X150934239Y-86459289D01*
X150934239Y-86459289D02*
X150950679Y-86528401D01*
X150950679Y-86528401D02*
X150931930Y-86640819D01*
X150931930Y-86640819D02*
X150903375Y-86756375D01*
X150903375Y-86756375D02*
X150545048Y-86756375D01*
X150545048Y-86756375D02*
X150380132Y-86758177D01*
X150380132Y-86758177D02*
X150268183Y-86764434D01*
X150268183Y-86764434D02*
X150198749Y-86776416D01*
X150198749Y-86776416D02*
X150161375Y-86795398D01*
X150161375Y-86795398D02*
X150153887Y-86804000D01*
X150153887Y-86804000D02*
X150143252Y-86852536D01*
X150143252Y-86852536D02*
X150137114Y-86952564D01*
X150137114Y-86952564D02*
X150135139Y-87092260D01*
X150135139Y-87092260D02*
X150136996Y-87259799D01*
X150136996Y-87259799D02*
X150142352Y-87443357D01*
X150142352Y-87443357D02*
X150150872Y-87631109D01*
X150150872Y-87631109D02*
X150162226Y-87811233D01*
X150162226Y-87811233D02*
X150176080Y-87971903D01*
X150176080Y-87971903D02*
X150190014Y-88087397D01*
X150190014Y-88087397D02*
X150208587Y-88208195D01*
X150208587Y-88208195D02*
X150230171Y-88293085D01*
X150230171Y-88293085D02*
X150265059Y-88347828D01*
X150265059Y-88347828D02*
X150323545Y-88378184D01*
X150323545Y-88378184D02*
X150415920Y-88389915D01*
X150415920Y-88389915D02*
X150552478Y-88388781D01*
X150552478Y-88388781D02*
X150715988Y-88381777D01*
X150715988Y-88381777D02*
X150887544Y-88371675D01*
X150887544Y-88371675D02*
X151050148Y-88357926D01*
X151050148Y-88357926D02*
X151185867Y-88342306D01*
X151185867Y-88342306D02*
X151276767Y-88326591D01*
X151276767Y-88326591D02*
X151279238Y-88325981D01*
X151279238Y-88325981D02*
X151400858Y-88301732D01*
X151400858Y-88301732D02*
X151474197Y-88309619D01*
X151474197Y-88309619D02*
X151509785Y-88357826D01*
X151509785Y-88357826D02*
X151518153Y-88454543D01*
X151518153Y-88454543D02*
X151516158Y-88510178D01*
X151516158Y-88510178D02*
X151506625Y-88693125D01*
X151506625Y-88693125D02*
X150725682Y-88701606D01*
X150725682Y-88701606D02*
X149944739Y-88710088D01*
X149944739Y-88710088D02*
X149924297Y-88352172D01*
X149924297Y-88352172D02*
X149917151Y-88201960D01*
X149917151Y-88201960D02*
X149910223Y-88009493D01*
X149910223Y-88009493D02*
X149903622Y-87782845D01*
X149903622Y-87782845D02*
X149897454Y-87530088D01*
X149897454Y-87530088D02*
X149891829Y-87259293D01*
X149891829Y-87259293D02*
X149886855Y-86978533D01*
X149886855Y-86978533D02*
X149882639Y-86695878D01*
X149882639Y-86695878D02*
X149879290Y-86419403D01*
X149879290Y-86419403D02*
X149876915Y-86157177D01*
X149876915Y-86157177D02*
X149875624Y-85917274D01*
X149875624Y-85917274D02*
X149875523Y-85707766D01*
X149875523Y-85707766D02*
X149876722Y-85536723D01*
X149876722Y-85536723D02*
X149879327Y-85412219D01*
X149879327Y-85412219D02*
X149883448Y-85342326D01*
X149883448Y-85342326D02*
X149883941Y-85338695D01*
X149883941Y-85338695D02*
X149906201Y-85191015D01*
X149906201Y-85191015D02*
X150087288Y-85157637D01*
X150087288Y-85157637D02*
X150181052Y-85139323D01*
X150181052Y-85139323D02*
X150321436Y-85110601D01*
X150321436Y-85110601D02*
X150493040Y-85074681D01*
X150493040Y-85074681D02*
X150680460Y-85034774D01*
X150680460Y-85034774D02*
X150789273Y-85011299D01*
X150789273Y-85011299D02*
X150961894Y-84974430D01*
X150961894Y-84974430D02*
X151111321Y-84943594D01*
X151111321Y-84943594D02*
X151227219Y-84920834D01*
X151227219Y-84920834D02*
X151299249Y-84908197D01*
X151299249Y-84908197D02*
X151318279Y-84906606D01*
X151318279Y-84906606D02*
X151324160Y-84940419D01*
X151324160Y-84940419D02*
X151324160Y-84940419D01*
G36*
X151324160Y-84940419D02*
G01*
X151329767Y-85015465D01*
X151334040Y-85109485D01*
X151335917Y-85200216D01*
X151334944Y-85256187D01*
X151321427Y-85289663D01*
X151275782Y-85307031D01*
X151183502Y-85313184D01*
X151165312Y-85313437D01*
X151067641Y-85319752D01*
X150926875Y-85335656D01*
X150762271Y-85358707D01*
X150602076Y-85384875D01*
X150431112Y-85415646D01*
X150307433Y-85445362D01*
X150223111Y-85484215D01*
X150170219Y-85542395D01*
X150140828Y-85630091D01*
X150127012Y-85757494D01*
X150120841Y-85934795D01*
X150119141Y-86005634D01*
X150116166Y-86179502D01*
X150122069Y-86308708D01*
X150144614Y-86398398D01*
X150191561Y-86453722D01*
X150270675Y-86479828D01*
X150389716Y-86481865D01*
X150556448Y-86464979D01*
X150767810Y-86435857D01*
X150875301Y-86430960D01*
X150934239Y-86459289D01*
X150950679Y-86528401D01*
X150931930Y-86640819D01*
X150903375Y-86756375D01*
X150545048Y-86756375D01*
X150380132Y-86758177D01*
X150268183Y-86764434D01*
X150198749Y-86776416D01*
X150161375Y-86795398D01*
X150153887Y-86804000D01*
X150143252Y-86852536D01*
X150137114Y-86952564D01*
X150135139Y-87092260D01*
X150136996Y-87259799D01*
X150142352Y-87443357D01*
X150150872Y-87631109D01*
X150162226Y-87811233D01*
X150176080Y-87971903D01*
X150190014Y-88087397D01*
X150208587Y-88208195D01*
X150230171Y-88293085D01*
X150265059Y-88347828D01*
X150323545Y-88378184D01*
X150415920Y-88389915D01*
X150552478Y-88388781D01*
X150715988Y-88381777D01*
X150887544Y-88371675D01*
X151050148Y-88357926D01*
X151185867Y-88342306D01*
X151276767Y-88326591D01*
X151279238Y-88325981D01*
X151400858Y-88301732D01*
X151474197Y-88309619D01*
X151509785Y-88357826D01*
X151518153Y-88454543D01*
X151516158Y-88510178D01*
X151506625Y-88693125D01*
X150725682Y-88701606D01*
X149944739Y-88710088D01*
X149924297Y-88352172D01*
X149917151Y-88201960D01*
X149910223Y-88009493D01*
X149903622Y-87782845D01*
X149897454Y-87530088D01*
X149891829Y-87259293D01*
X149886855Y-86978533D01*
X149882639Y-86695878D01*
X149879290Y-86419403D01*
X149876915Y-86157177D01*
X149875624Y-85917274D01*
X149875523Y-85707766D01*
X149876722Y-85536723D01*
X149879327Y-85412219D01*
X149883448Y-85342326D01*
X149883941Y-85338695D01*
X149906201Y-85191015D01*
X150087288Y-85157637D01*
X150181052Y-85139323D01*
X150321436Y-85110601D01*
X150493040Y-85074681D01*
X150680460Y-85034774D01*
X150789273Y-85011299D01*
X150961894Y-84974430D01*
X151111321Y-84943594D01*
X151227219Y-84920834D01*
X151299249Y-84908197D01*
X151318279Y-84906606D01*
X151324160Y-84940419D01*
G37*
X151324160Y-84940419D02*
X151329767Y-85015465D01*
X151334040Y-85109485D01*
X151335917Y-85200216D01*
X151334944Y-85256187D01*
X151321427Y-85289663D01*
X151275782Y-85307031D01*
X151183502Y-85313184D01*
X151165312Y-85313437D01*
X151067641Y-85319752D01*
X150926875Y-85335656D01*
X150762271Y-85358707D01*
X150602076Y-85384875D01*
X150431112Y-85415646D01*
X150307433Y-85445362D01*
X150223111Y-85484215D01*
X150170219Y-85542395D01*
X150140828Y-85630091D01*
X150127012Y-85757494D01*
X150120841Y-85934795D01*
X150119141Y-86005634D01*
X150116166Y-86179502D01*
X150122069Y-86308708D01*
X150144614Y-86398398D01*
X150191561Y-86453722D01*
X150270675Y-86479828D01*
X150389716Y-86481865D01*
X150556448Y-86464979D01*
X150767810Y-86435857D01*
X150875301Y-86430960D01*
X150934239Y-86459289D01*
X150950679Y-86528401D01*
X150931930Y-86640819D01*
X150903375Y-86756375D01*
X150545048Y-86756375D01*
X150380132Y-86758177D01*
X150268183Y-86764434D01*
X150198749Y-86776416D01*
X150161375Y-86795398D01*
X150153887Y-86804000D01*
X150143252Y-86852536D01*
X150137114Y-86952564D01*
X150135139Y-87092260D01*
X150136996Y-87259799D01*
X150142352Y-87443357D01*
X150150872Y-87631109D01*
X150162226Y-87811233D01*
X150176080Y-87971903D01*
X150190014Y-88087397D01*
X150208587Y-88208195D01*
X150230171Y-88293085D01*
X150265059Y-88347828D01*
X150323545Y-88378184D01*
X150415920Y-88389915D01*
X150552478Y-88388781D01*
X150715988Y-88381777D01*
X150887544Y-88371675D01*
X151050148Y-88357926D01*
X151185867Y-88342306D01*
X151276767Y-88326591D01*
X151279238Y-88325981D01*
X151400858Y-88301732D01*
X151474197Y-88309619D01*
X151509785Y-88357826D01*
X151518153Y-88454543D01*
X151516158Y-88510178D01*
X151506625Y-88693125D01*
X150725682Y-88701606D01*
X149944739Y-88710088D01*
X149924297Y-88352172D01*
X149917151Y-88201960D01*
X149910223Y-88009493D01*
X149903622Y-87782845D01*
X149897454Y-87530088D01*
X149891829Y-87259293D01*
X149886855Y-86978533D01*
X149882639Y-86695878D01*
X149879290Y-86419403D01*
X149876915Y-86157177D01*
X149875624Y-85917274D01*
X149875523Y-85707766D01*
X149876722Y-85536723D01*
X149879327Y-85412219D01*
X149883448Y-85342326D01*
X149883941Y-85338695D01*
X149906201Y-85191015D01*
X150087288Y-85157637D01*
X150181052Y-85139323D01*
X150321436Y-85110601D01*
X150493040Y-85074681D01*
X150680460Y-85034774D01*
X150789273Y-85011299D01*
X150961894Y-84974430D01*
X151111321Y-84943594D01*
X151227219Y-84920834D01*
X151299249Y-84908197D01*
X151318279Y-84906606D01*
X151324160Y-84940419D01*
X147845310Y-84531743D02*
X147868440Y-84656506D01*
X147868440Y-84656506D02*
X147902618Y-84729938D01*
X147902618Y-84729938D02*
X147956788Y-84764176D01*
X147956788Y-84764176D02*
X148022062Y-84771513D01*
X148022062Y-84771513D02*
X148082274Y-84782377D01*
X148082274Y-84782377D02*
X148089293Y-84805841D01*
X148089293Y-84805841D02*
X148048516Y-84830019D01*
X148048516Y-84830019D02*
X147990312Y-84841425D01*
X147990312Y-84841425D02*
X147932114Y-84850320D01*
X147932114Y-84850320D02*
X147899154Y-84873345D01*
X147899154Y-84873345D02*
X147881294Y-84926478D01*
X147881294Y-84926478D02*
X147868397Y-85025693D01*
X147868397Y-85025693D02*
X147867377Y-85035164D01*
X147867377Y-85035164D02*
X147852082Y-85144840D01*
X147852082Y-85144840D02*
X147835446Y-85216270D01*
X147835446Y-85216270D02*
X147820528Y-85242937D01*
X147820528Y-85242937D02*
X147810384Y-85218322D01*
X147810384Y-85218322D02*
X147807750Y-85162260D01*
X147807750Y-85162260D02*
X147798659Y-85011201D01*
X147798659Y-85011201D02*
X147769060Y-84912937D01*
X147769060Y-84912937D02*
X147715459Y-84859087D01*
X147715459Y-84859087D02*
X147675789Y-84845620D01*
X147675789Y-84845620D02*
X147600714Y-84822309D01*
X147600714Y-84822309D02*
X147567415Y-84796121D01*
X147567415Y-84796121D02*
X147582524Y-84776421D01*
X147582524Y-84776421D02*
X147623313Y-84771513D01*
X147623313Y-84771513D02*
X147697302Y-84762032D01*
X147697302Y-84762032D02*
X147744647Y-84726348D01*
X147744647Y-84726348D02*
X147774483Y-84651809D01*
X147774483Y-84651809D02*
X147794879Y-84533875D01*
X147794879Y-84533875D02*
X147820203Y-84343375D01*
X147820203Y-84343375D02*
X147845310Y-84531743D01*
X147845310Y-84531743D02*
X147845310Y-84531743D01*
G36*
X147845310Y-84531743D02*
G01*
X147868440Y-84656506D01*
X147902618Y-84729938D01*
X147956788Y-84764176D01*
X148022062Y-84771513D01*
X148082274Y-84782377D01*
X148089293Y-84805841D01*
X148048516Y-84830019D01*
X147990312Y-84841425D01*
X147932114Y-84850320D01*
X147899154Y-84873345D01*
X147881294Y-84926478D01*
X147868397Y-85025693D01*
X147867377Y-85035164D01*
X147852082Y-85144840D01*
X147835446Y-85216270D01*
X147820528Y-85242937D01*
X147810384Y-85218322D01*
X147807750Y-85162260D01*
X147798659Y-85011201D01*
X147769060Y-84912937D01*
X147715459Y-84859087D01*
X147675789Y-84845620D01*
X147600714Y-84822309D01*
X147567415Y-84796121D01*
X147582524Y-84776421D01*
X147623313Y-84771513D01*
X147697302Y-84762032D01*
X147744647Y-84726348D01*
X147774483Y-84651809D01*
X147794879Y-84533875D01*
X147820203Y-84343375D01*
X147845310Y-84531743D01*
G37*
X147845310Y-84531743D02*
X147868440Y-84656506D01*
X147902618Y-84729938D01*
X147956788Y-84764176D01*
X148022062Y-84771513D01*
X148082274Y-84782377D01*
X148089293Y-84805841D01*
X148048516Y-84830019D01*
X147990312Y-84841425D01*
X147932114Y-84850320D01*
X147899154Y-84873345D01*
X147881294Y-84926478D01*
X147868397Y-85025693D01*
X147867377Y-85035164D01*
X147852082Y-85144840D01*
X147835446Y-85216270D01*
X147820528Y-85242937D01*
X147810384Y-85218322D01*
X147807750Y-85162260D01*
X147798659Y-85011201D01*
X147769060Y-84912937D01*
X147715459Y-84859087D01*
X147675789Y-84845620D01*
X147600714Y-84822309D01*
X147567415Y-84796121D01*
X147582524Y-84776421D01*
X147623313Y-84771513D01*
X147697302Y-84762032D01*
X147744647Y-84726348D01*
X147774483Y-84651809D01*
X147794879Y-84533875D01*
X147820203Y-84343375D01*
X147845310Y-84531743D01*
X156674202Y-84791118D02*
X156770267Y-84794866D01*
X156770267Y-84794866D02*
X157136452Y-84812900D01*
X157136452Y-84812900D02*
X157147487Y-84928613D01*
X157147487Y-84928613D02*
X157152685Y-85052025D01*
X157152685Y-85052025D02*
X157133881Y-85124249D01*
X157133881Y-85124249D02*
X157082643Y-85150856D01*
X157082643Y-85150856D02*
X156990539Y-85137417D01*
X156990539Y-85137417D02*
X156884304Y-85102501D01*
X156884304Y-85102501D02*
X156785653Y-85077861D01*
X156785653Y-85077861D02*
X156653499Y-85059833D01*
X156653499Y-85059833D02*
X156503985Y-85048815D01*
X156503985Y-85048815D02*
X156353253Y-85045207D01*
X156353253Y-85045207D02*
X156217444Y-85049406D01*
X156217444Y-85049406D02*
X156112699Y-85061811D01*
X156112699Y-85061811D02*
X156056055Y-85082055D01*
X156056055Y-85082055D02*
X156025541Y-85137873D01*
X156025541Y-85137873D02*
X155997411Y-85246659D01*
X155997411Y-85246659D02*
X155973018Y-85397889D01*
X155973018Y-85397889D02*
X155953712Y-85581039D01*
X155953712Y-85581039D02*
X155940848Y-85785585D01*
X155940848Y-85785585D02*
X155935778Y-86001003D01*
X155935778Y-86001003D02*
X155935750Y-86018069D01*
X155935750Y-86018069D02*
X155935843Y-86173822D01*
X155935843Y-86173822D02*
X155941511Y-86289300D01*
X155941511Y-86289300D02*
X155960832Y-86369354D01*
X155960832Y-86369354D02*
X156001884Y-86418834D01*
X156001884Y-86418834D02*
X156072748Y-86442589D01*
X156072748Y-86442589D02*
X156181501Y-86445468D01*
X156181501Y-86445468D02*
X156336223Y-86432323D01*
X156336223Y-86432323D02*
X156544993Y-86408001D01*
X156544993Y-86408001D02*
X156578687Y-86404017D01*
X156578687Y-86404017D02*
X156761250Y-86382507D01*
X156761250Y-86382507D02*
X156761250Y-86525865D01*
X156761250Y-86525865D02*
X156752266Y-86622849D01*
X156752266Y-86622849D02*
X156729380Y-86691528D01*
X156729380Y-86691528D02*
X156719037Y-86704258D01*
X156719037Y-86704258D02*
X156667463Y-86720275D01*
X156667463Y-86720275D02*
X156563508Y-86731646D01*
X156563508Y-86731646D02*
X156418187Y-86737405D01*
X156418187Y-86737405D02*
X156334756Y-86737884D01*
X156334756Y-86737884D02*
X156193329Y-86739145D01*
X156193329Y-86739145D02*
X156076343Y-86743649D01*
X156076343Y-86743649D02*
X155997801Y-86750643D01*
X155997801Y-86750643D02*
X155972156Y-86757419D01*
X155972156Y-86757419D02*
X155963175Y-86798303D01*
X155963175Y-86798303D02*
X155957911Y-86890862D01*
X155957911Y-86890862D02*
X155956104Y-87023395D01*
X155956104Y-87023395D02*
X155957493Y-87184203D01*
X155957493Y-87184203D02*
X155961815Y-87361585D01*
X155961815Y-87361585D02*
X155968810Y-87543841D01*
X155968810Y-87543841D02*
X155978216Y-87719270D01*
X155978216Y-87719270D02*
X155989772Y-87876173D01*
X155989772Y-87876173D02*
X155999274Y-87971084D01*
X155999274Y-87971084D02*
X156023273Y-88141001D01*
X156023273Y-88141001D02*
X156049537Y-88253136D01*
X156049537Y-88253136D02*
X156079499Y-88313201D01*
X156079499Y-88313201D02*
X156086816Y-88320062D01*
X156086816Y-88320062D02*
X156149505Y-88341478D01*
X156149505Y-88341478D02*
X156261523Y-88354131D01*
X156261523Y-88354131D02*
X156409304Y-88357973D01*
X156409304Y-88357973D02*
X156579278Y-88352958D01*
X156579278Y-88352958D02*
X156757876Y-88339036D01*
X156757876Y-88339036D02*
X156888250Y-88322879D01*
X156888250Y-88322879D02*
X157018857Y-88305077D01*
X157018857Y-88305077D02*
X157137171Y-88291269D01*
X157137171Y-88291269D02*
X157218657Y-88284302D01*
X157218657Y-88284302D02*
X157221625Y-88284172D01*
X157221625Y-88284172D02*
X157316875Y-88280375D01*
X157316875Y-88280375D02*
X157316875Y-88661375D01*
X157316875Y-88661375D02*
X156549157Y-88669871D01*
X156549157Y-88669871D02*
X156333080Y-88671133D01*
X156333080Y-88671133D02*
X156139526Y-88670097D01*
X156139526Y-88670097D02*
X155977251Y-88666984D01*
X155977251Y-88666984D02*
X155855012Y-88662015D01*
X155855012Y-88662015D02*
X155781568Y-88655409D01*
X155781568Y-88655409D02*
X155763975Y-88650112D01*
X155763975Y-88650112D02*
X155757156Y-88608813D01*
X155757156Y-88608813D02*
X155750113Y-88511375D01*
X155750113Y-88511375D02*
X155742989Y-88365162D01*
X155742989Y-88365162D02*
X155735923Y-88177533D01*
X155735923Y-88177533D02*
X155729057Y-87955852D01*
X155729057Y-87955852D02*
X155722532Y-87707478D01*
X155722532Y-87707478D02*
X155716489Y-87439774D01*
X155716489Y-87439774D02*
X155711069Y-87160100D01*
X155711069Y-87160100D02*
X155706414Y-86875819D01*
X155706414Y-86875819D02*
X155702663Y-86594291D01*
X155702663Y-86594291D02*
X155699960Y-86322879D01*
X155699960Y-86322879D02*
X155698443Y-86068942D01*
X155698443Y-86068942D02*
X155698256Y-85839844D01*
X155698256Y-85839844D02*
X155699537Y-85642944D01*
X155699537Y-85642944D02*
X155702430Y-85485605D01*
X155702430Y-85485605D02*
X155702975Y-85467060D01*
X155702975Y-85467060D02*
X155723317Y-84812745D01*
X155723317Y-84812745D02*
X156063700Y-84794788D01*
X156063700Y-84794788D02*
X156249249Y-84788770D01*
X156249249Y-84788770D02*
X156464092Y-84787548D01*
X156464092Y-84787548D02*
X156674202Y-84791118D01*
X156674202Y-84791118D02*
X156674202Y-84791118D01*
G36*
X156674202Y-84791118D02*
G01*
X156770267Y-84794866D01*
X157136452Y-84812900D01*
X157147487Y-84928613D01*
X157152685Y-85052025D01*
X157133881Y-85124249D01*
X157082643Y-85150856D01*
X156990539Y-85137417D01*
X156884304Y-85102501D01*
X156785653Y-85077861D01*
X156653499Y-85059833D01*
X156503985Y-85048815D01*
X156353253Y-85045207D01*
X156217444Y-85049406D01*
X156112699Y-85061811D01*
X156056055Y-85082055D01*
X156025541Y-85137873D01*
X155997411Y-85246659D01*
X155973018Y-85397889D01*
X155953712Y-85581039D01*
X155940848Y-85785585D01*
X155935778Y-86001003D01*
X155935750Y-86018069D01*
X155935843Y-86173822D01*
X155941511Y-86289300D01*
X155960832Y-86369354D01*
X156001884Y-86418834D01*
X156072748Y-86442589D01*
X156181501Y-86445468D01*
X156336223Y-86432323D01*
X156544993Y-86408001D01*
X156578687Y-86404017D01*
X156761250Y-86382507D01*
X156761250Y-86525865D01*
X156752266Y-86622849D01*
X156729380Y-86691528D01*
X156719037Y-86704258D01*
X156667463Y-86720275D01*
X156563508Y-86731646D01*
X156418187Y-86737405D01*
X156334756Y-86737884D01*
X156193329Y-86739145D01*
X156076343Y-86743649D01*
X155997801Y-86750643D01*
X155972156Y-86757419D01*
X155963175Y-86798303D01*
X155957911Y-86890862D01*
X155956104Y-87023395D01*
X155957493Y-87184203D01*
X155961815Y-87361585D01*
X155968810Y-87543841D01*
X155978216Y-87719270D01*
X155989772Y-87876173D01*
X155999274Y-87971084D01*
X156023273Y-88141001D01*
X156049537Y-88253136D01*
X156079499Y-88313201D01*
X156086816Y-88320062D01*
X156149505Y-88341478D01*
X156261523Y-88354131D01*
X156409304Y-88357973D01*
X156579278Y-88352958D01*
X156757876Y-88339036D01*
X156888250Y-88322879D01*
X157018857Y-88305077D01*
X157137171Y-88291269D01*
X157218657Y-88284302D01*
X157221625Y-88284172D01*
X157316875Y-88280375D01*
X157316875Y-88661375D01*
X156549157Y-88669871D01*
X156333080Y-88671133D01*
X156139526Y-88670097D01*
X155977251Y-88666984D01*
X155855012Y-88662015D01*
X155781568Y-88655409D01*
X155763975Y-88650112D01*
X155757156Y-88608813D01*
X155750113Y-88511375D01*
X155742989Y-88365162D01*
X155735923Y-88177533D01*
X155729057Y-87955852D01*
X155722532Y-87707478D01*
X155716489Y-87439774D01*
X155711069Y-87160100D01*
X155706414Y-86875819D01*
X155702663Y-86594291D01*
X155699960Y-86322879D01*
X155698443Y-86068942D01*
X155698256Y-85839844D01*
X155699537Y-85642944D01*
X155702430Y-85485605D01*
X155702975Y-85467060D01*
X155723317Y-84812745D01*
X156063700Y-84794788D01*
X156249249Y-84788770D01*
X156464092Y-84787548D01*
X156674202Y-84791118D01*
G37*
X156674202Y-84791118D02*
X156770267Y-84794866D01*
X157136452Y-84812900D01*
X157147487Y-84928613D01*
X157152685Y-85052025D01*
X157133881Y-85124249D01*
X157082643Y-85150856D01*
X156990539Y-85137417D01*
X156884304Y-85102501D01*
X156785653Y-85077861D01*
X156653499Y-85059833D01*
X156503985Y-85048815D01*
X156353253Y-85045207D01*
X156217444Y-85049406D01*
X156112699Y-85061811D01*
X156056055Y-85082055D01*
X156025541Y-85137873D01*
X155997411Y-85246659D01*
X155973018Y-85397889D01*
X155953712Y-85581039D01*
X155940848Y-85785585D01*
X155935778Y-86001003D01*
X155935750Y-86018069D01*
X155935843Y-86173822D01*
X155941511Y-86289300D01*
X155960832Y-86369354D01*
X156001884Y-86418834D01*
X156072748Y-86442589D01*
X156181501Y-86445468D01*
X156336223Y-86432323D01*
X156544993Y-86408001D01*
X156578687Y-86404017D01*
X156761250Y-86382507D01*
X156761250Y-86525865D01*
X156752266Y-86622849D01*
X156729380Y-86691528D01*
X156719037Y-86704258D01*
X156667463Y-86720275D01*
X156563508Y-86731646D01*
X156418187Y-86737405D01*
X156334756Y-86737884D01*
X156193329Y-86739145D01*
X156076343Y-86743649D01*
X155997801Y-86750643D01*
X155972156Y-86757419D01*
X155963175Y-86798303D01*
X155957911Y-86890862D01*
X155956104Y-87023395D01*
X155957493Y-87184203D01*
X155961815Y-87361585D01*
X155968810Y-87543841D01*
X155978216Y-87719270D01*
X155989772Y-87876173D01*
X155999274Y-87971084D01*
X156023273Y-88141001D01*
X156049537Y-88253136D01*
X156079499Y-88313201D01*
X156086816Y-88320062D01*
X156149505Y-88341478D01*
X156261523Y-88354131D01*
X156409304Y-88357973D01*
X156579278Y-88352958D01*
X156757876Y-88339036D01*
X156888250Y-88322879D01*
X157018857Y-88305077D01*
X157137171Y-88291269D01*
X157218657Y-88284302D01*
X157221625Y-88284172D01*
X157316875Y-88280375D01*
X157316875Y-88661375D01*
X156549157Y-88669871D01*
X156333080Y-88671133D01*
X156139526Y-88670097D01*
X155977251Y-88666984D01*
X155855012Y-88662015D01*
X155781568Y-88655409D01*
X155763975Y-88650112D01*
X155757156Y-88608813D01*
X155750113Y-88511375D01*
X155742989Y-88365162D01*
X155735923Y-88177533D01*
X155729057Y-87955852D01*
X155722532Y-87707478D01*
X155716489Y-87439774D01*
X155711069Y-87160100D01*
X155706414Y-86875819D01*
X155702663Y-86594291D01*
X155699960Y-86322879D01*
X155698443Y-86068942D01*
X155698256Y-85839844D01*
X155699537Y-85642944D01*
X155702430Y-85485605D01*
X155702975Y-85467060D01*
X155723317Y-84812745D01*
X156063700Y-84794788D01*
X156249249Y-84788770D01*
X156464092Y-84787548D01*
X156674202Y-84791118D01*
X154545910Y-84778074D02*
X154640384Y-84794617D01*
X154640384Y-84794617D02*
X154701351Y-84807542D01*
X154701351Y-84807542D02*
X154888869Y-84879160D01*
X154888869Y-84879160D02*
X155048704Y-85006386D01*
X155048704Y-85006386D02*
X155179486Y-85187038D01*
X155179486Y-85187038D02*
X155279842Y-85418930D01*
X155279842Y-85418930D02*
X155348402Y-85699880D01*
X155348402Y-85699880D02*
X155372203Y-85875917D01*
X155372203Y-85875917D02*
X155384736Y-86012574D01*
X155384736Y-86012574D02*
X155392359Y-86123861D01*
X155392359Y-86123861D02*
X155394277Y-86195894D01*
X155394277Y-86195894D02*
X155391692Y-86215640D01*
X155391692Y-86215640D02*
X155355530Y-86225483D01*
X155355530Y-86225483D02*
X155273644Y-86238275D01*
X155273644Y-86238275D02*
X155163556Y-86251291D01*
X155163556Y-86251291D02*
X155160443Y-86251612D01*
X155160443Y-86251612D02*
X154942876Y-86273902D01*
X154942876Y-86273902D02*
X154959908Y-86181763D01*
X154959908Y-86181763D02*
X154975163Y-86099448D01*
X154975163Y-86099448D02*
X154996514Y-85984469D01*
X154996514Y-85984469D02*
X155012383Y-85899125D01*
X155012383Y-85899125D02*
X155031541Y-85677561D01*
X155031541Y-85677561D02*
X155005020Y-85484884D01*
X155005020Y-85484884D02*
X154937563Y-85326426D01*
X154937563Y-85326426D02*
X154833909Y-85207520D01*
X154833909Y-85207520D02*
X154698802Y-85133502D01*
X154698802Y-85133502D02*
X154536981Y-85109704D01*
X154536981Y-85109704D02*
X154353189Y-85141460D01*
X154353189Y-85141460D02*
X154342089Y-85145074D01*
X154342089Y-85145074D02*
X154207793Y-85210058D01*
X154207793Y-85210058D02*
X154094167Y-85311391D01*
X154094167Y-85311391D02*
X153998416Y-85454394D01*
X153998416Y-85454394D02*
X153917746Y-85644387D01*
X153917746Y-85644387D02*
X153849363Y-85886691D01*
X153849363Y-85886691D02*
X153790472Y-86186626D01*
X153790472Y-86186626D02*
X153788352Y-86199422D01*
X153788352Y-86199422D02*
X153763364Y-86423120D01*
X153763364Y-86423120D02*
X153752689Y-86687878D01*
X153752689Y-86687878D02*
X153755816Y-86973011D01*
X153755816Y-86973011D02*
X153772235Y-87257833D01*
X153772235Y-87257833D02*
X153801435Y-87521658D01*
X153801435Y-87521658D02*
X153824405Y-87658858D01*
X153824405Y-87658858D02*
X153895765Y-87931015D01*
X153895765Y-87931015D02*
X153992833Y-88145466D01*
X153992833Y-88145466D02*
X154116259Y-88302851D01*
X154116259Y-88302851D02*
X154266693Y-88403812D01*
X154266693Y-88403812D02*
X154444785Y-88448989D01*
X154444785Y-88448989D02*
X154620635Y-88443703D01*
X154620635Y-88443703D02*
X154822765Y-88393017D01*
X154822765Y-88393017D02*
X154982785Y-88300627D01*
X154982785Y-88300627D02*
X155102394Y-88164030D01*
X155102394Y-88164030D02*
X155183290Y-87980726D01*
X155183290Y-87980726D02*
X155227174Y-87748212D01*
X155227174Y-87748212D02*
X155236816Y-87536424D01*
X155236816Y-87536424D02*
X155232787Y-87348128D01*
X155232787Y-87348128D02*
X155219309Y-87219113D01*
X155219309Y-87219113D02*
X155193243Y-87145476D01*
X155193243Y-87145476D02*
X155151452Y-87123312D01*
X155151452Y-87123312D02*
X155090799Y-87148718D01*
X155090799Y-87148718D02*
X155008148Y-87217790D01*
X155008148Y-87217790D02*
X154992680Y-87232625D01*
X154992680Y-87232625D02*
X154891237Y-87314529D01*
X154891237Y-87314529D02*
X154814906Y-87338256D01*
X154814906Y-87338256D02*
X154763110Y-87303530D01*
X154763110Y-87303530D02*
X154735272Y-87210075D01*
X154735272Y-87210075D02*
X154729736Y-87107212D01*
X154729736Y-87107212D02*
X154733368Y-86997376D01*
X154733368Y-86997376D02*
X154750747Y-86924328D01*
X154750747Y-86924328D02*
X154792789Y-86879952D01*
X154792789Y-86879952D02*
X154870409Y-86856131D01*
X154870409Y-86856131D02*
X154994523Y-86844750D01*
X154994523Y-86844750D02*
X155088027Y-86840798D01*
X155088027Y-86840798D02*
X155228297Y-86836205D01*
X155228297Y-86836205D02*
X155332606Y-86839359D01*
X155332606Y-86839359D02*
X155405948Y-86858209D01*
X155405948Y-86858209D02*
X155453317Y-86900704D01*
X155453317Y-86900704D02*
X155479705Y-86974794D01*
X155479705Y-86974794D02*
X155490107Y-87088427D01*
X155490107Y-87088427D02*
X155489515Y-87249553D01*
X155489515Y-87249553D02*
X155482924Y-87466121D01*
X155482924Y-87466121D02*
X155482823Y-87469284D01*
X155482823Y-87469284D02*
X155473768Y-87693766D01*
X155473768Y-87693766D02*
X155461897Y-87867871D01*
X155461897Y-87867871D02*
X155445731Y-88004705D01*
X155445731Y-88004705D02*
X155423790Y-88117376D01*
X155423790Y-88117376D02*
X155400100Y-88202034D01*
X155400100Y-88202034D02*
X155309772Y-88404992D01*
X155309772Y-88404992D02*
X155184449Y-88560721D01*
X155184449Y-88560721D02*
X155028320Y-88664103D01*
X155028320Y-88664103D02*
X155018304Y-88668428D01*
X155018304Y-88668428D02*
X154906589Y-88698873D01*
X154906589Y-88698873D02*
X154753933Y-88719120D01*
X154753933Y-88719120D02*
X154582200Y-88728350D01*
X154582200Y-88728350D02*
X154413252Y-88725744D01*
X154413252Y-88725744D02*
X154268952Y-88710483D01*
X154268952Y-88710483D02*
X154215203Y-88698519D01*
X154215203Y-88698519D02*
X154017954Y-88617682D01*
X154017954Y-88617682D02*
X153859116Y-88495233D01*
X153859116Y-88495233D02*
X153733640Y-88325633D01*
X153733640Y-88325633D02*
X153636478Y-88103343D01*
X153636478Y-88103343D02*
X153617025Y-88042250D01*
X153617025Y-88042250D02*
X153557706Y-87784604D01*
X153557706Y-87784604D02*
X153517565Y-87481624D01*
X153517565Y-87481624D02*
X153496461Y-87148462D01*
X153496461Y-87148462D02*
X153494256Y-86800275D01*
X153494256Y-86800275D02*
X153510810Y-86452217D01*
X153510810Y-86452217D02*
X153545983Y-86119444D01*
X153545983Y-86119444D02*
X153599637Y-85817111D01*
X153599637Y-85817111D02*
X153638897Y-85662614D01*
X153638897Y-85662614D02*
X153734506Y-85386743D01*
X153734506Y-85386743D02*
X153846193Y-85168562D01*
X153846193Y-85168562D02*
X153977477Y-85003513D01*
X153977477Y-85003513D02*
X154131878Y-84887039D01*
X154131878Y-84887039D02*
X154288620Y-84821416D01*
X154288620Y-84821416D02*
X154396914Y-84790570D01*
X154396914Y-84790570D02*
X154473715Y-84776424D01*
X154473715Y-84776424D02*
X154545910Y-84778074D01*
X154545910Y-84778074D02*
X154545910Y-84778074D01*
G36*
X154545910Y-84778074D02*
G01*
X154640384Y-84794617D01*
X154701351Y-84807542D01*
X154888869Y-84879160D01*
X155048704Y-85006386D01*
X155179486Y-85187038D01*
X155279842Y-85418930D01*
X155348402Y-85699880D01*
X155372203Y-85875917D01*
X155384736Y-86012574D01*
X155392359Y-86123861D01*
X155394277Y-86195894D01*
X155391692Y-86215640D01*
X155355530Y-86225483D01*
X155273644Y-86238275D01*
X155163556Y-86251291D01*
X155160443Y-86251612D01*
X154942876Y-86273902D01*
X154959908Y-86181763D01*
X154975163Y-86099448D01*
X154996514Y-85984469D01*
X155012383Y-85899125D01*
X155031541Y-85677561D01*
X155005020Y-85484884D01*
X154937563Y-85326426D01*
X154833909Y-85207520D01*
X154698802Y-85133502D01*
X154536981Y-85109704D01*
X154353189Y-85141460D01*
X154342089Y-85145074D01*
X154207793Y-85210058D01*
X154094167Y-85311391D01*
X153998416Y-85454394D01*
X153917746Y-85644387D01*
X153849363Y-85886691D01*
X153790472Y-86186626D01*
X153788352Y-86199422D01*
X153763364Y-86423120D01*
X153752689Y-86687878D01*
X153755816Y-86973011D01*
X153772235Y-87257833D01*
X153801435Y-87521658D01*
X153824405Y-87658858D01*
X153895765Y-87931015D01*
X153992833Y-88145466D01*
X154116259Y-88302851D01*
X154266693Y-88403812D01*
X154444785Y-88448989D01*
X154620635Y-88443703D01*
X154822765Y-88393017D01*
X154982785Y-88300627D01*
X155102394Y-88164030D01*
X155183290Y-87980726D01*
X155227174Y-87748212D01*
X155236816Y-87536424D01*
X155232787Y-87348128D01*
X155219309Y-87219113D01*
X155193243Y-87145476D01*
X155151452Y-87123312D01*
X155090799Y-87148718D01*
X155008148Y-87217790D01*
X154992680Y-87232625D01*
X154891237Y-87314529D01*
X154814906Y-87338256D01*
X154763110Y-87303530D01*
X154735272Y-87210075D01*
X154729736Y-87107212D01*
X154733368Y-86997376D01*
X154750747Y-86924328D01*
X154792789Y-86879952D01*
X154870409Y-86856131D01*
X154994523Y-86844750D01*
X155088027Y-86840798D01*
X155228297Y-86836205D01*
X155332606Y-86839359D01*
X155405948Y-86858209D01*
X155453317Y-86900704D01*
X155479705Y-86974794D01*
X155490107Y-87088427D01*
X155489515Y-87249553D01*
X155482924Y-87466121D01*
X155482823Y-87469284D01*
X155473768Y-87693766D01*
X155461897Y-87867871D01*
X155445731Y-88004705D01*
X155423790Y-88117376D01*
X155400100Y-88202034D01*
X155309772Y-88404992D01*
X155184449Y-88560721D01*
X155028320Y-88664103D01*
X155018304Y-88668428D01*
X154906589Y-88698873D01*
X154753933Y-88719120D01*
X154582200Y-88728350D01*
X154413252Y-88725744D01*
X154268952Y-88710483D01*
X154215203Y-88698519D01*
X154017954Y-88617682D01*
X153859116Y-88495233D01*
X153733640Y-88325633D01*
X153636478Y-88103343D01*
X153617025Y-88042250D01*
X153557706Y-87784604D01*
X153517565Y-87481624D01*
X153496461Y-87148462D01*
X153494256Y-86800275D01*
X153510810Y-86452217D01*
X153545983Y-86119444D01*
X153599637Y-85817111D01*
X153638897Y-85662614D01*
X153734506Y-85386743D01*
X153846193Y-85168562D01*
X153977477Y-85003513D01*
X154131878Y-84887039D01*
X154288620Y-84821416D01*
X154396914Y-84790570D01*
X154473715Y-84776424D01*
X154545910Y-84778074D01*
G37*
X154545910Y-84778074D02*
X154640384Y-84794617D01*
X154701351Y-84807542D01*
X154888869Y-84879160D01*
X155048704Y-85006386D01*
X155179486Y-85187038D01*
X155279842Y-85418930D01*
X155348402Y-85699880D01*
X155372203Y-85875917D01*
X155384736Y-86012574D01*
X155392359Y-86123861D01*
X155394277Y-86195894D01*
X155391692Y-86215640D01*
X155355530Y-86225483D01*
X155273644Y-86238275D01*
X155163556Y-86251291D01*
X155160443Y-86251612D01*
X154942876Y-86273902D01*
X154959908Y-86181763D01*
X154975163Y-86099448D01*
X154996514Y-85984469D01*
X155012383Y-85899125D01*
X155031541Y-85677561D01*
X155005020Y-85484884D01*
X154937563Y-85326426D01*
X154833909Y-85207520D01*
X154698802Y-85133502D01*
X154536981Y-85109704D01*
X154353189Y-85141460D01*
X154342089Y-85145074D01*
X154207793Y-85210058D01*
X154094167Y-85311391D01*
X153998416Y-85454394D01*
X153917746Y-85644387D01*
X153849363Y-85886691D01*
X153790472Y-86186626D01*
X153788352Y-86199422D01*
X153763364Y-86423120D01*
X153752689Y-86687878D01*
X153755816Y-86973011D01*
X153772235Y-87257833D01*
X153801435Y-87521658D01*
X153824405Y-87658858D01*
X153895765Y-87931015D01*
X153992833Y-88145466D01*
X154116259Y-88302851D01*
X154266693Y-88403812D01*
X154444785Y-88448989D01*
X154620635Y-88443703D01*
X154822765Y-88393017D01*
X154982785Y-88300627D01*
X155102394Y-88164030D01*
X155183290Y-87980726D01*
X155227174Y-87748212D01*
X155236816Y-87536424D01*
X155232787Y-87348128D01*
X155219309Y-87219113D01*
X155193243Y-87145476D01*
X155151452Y-87123312D01*
X155090799Y-87148718D01*
X155008148Y-87217790D01*
X154992680Y-87232625D01*
X154891237Y-87314529D01*
X154814906Y-87338256D01*
X154763110Y-87303530D01*
X154735272Y-87210075D01*
X154729736Y-87107212D01*
X154733368Y-86997376D01*
X154750747Y-86924328D01*
X154792789Y-86879952D01*
X154870409Y-86856131D01*
X154994523Y-86844750D01*
X155088027Y-86840798D01*
X155228297Y-86836205D01*
X155332606Y-86839359D01*
X155405948Y-86858209D01*
X155453317Y-86900704D01*
X155479705Y-86974794D01*
X155490107Y-87088427D01*
X155489515Y-87249553D01*
X155482924Y-87466121D01*
X155482823Y-87469284D01*
X155473768Y-87693766D01*
X155461897Y-87867871D01*
X155445731Y-88004705D01*
X155423790Y-88117376D01*
X155400100Y-88202034D01*
X155309772Y-88404992D01*
X155184449Y-88560721D01*
X155028320Y-88664103D01*
X155018304Y-88668428D01*
X154906589Y-88698873D01*
X154753933Y-88719120D01*
X154582200Y-88728350D01*
X154413252Y-88725744D01*
X154268952Y-88710483D01*
X154215203Y-88698519D01*
X154017954Y-88617682D01*
X153859116Y-88495233D01*
X153733640Y-88325633D01*
X153636478Y-88103343D01*
X153617025Y-88042250D01*
X153557706Y-87784604D01*
X153517565Y-87481624D01*
X153496461Y-87148462D01*
X153494256Y-86800275D01*
X153510810Y-86452217D01*
X153545983Y-86119444D01*
X153599637Y-85817111D01*
X153638897Y-85662614D01*
X153734506Y-85386743D01*
X153846193Y-85168562D01*
X153977477Y-85003513D01*
X154131878Y-84887039D01*
X154288620Y-84821416D01*
X154396914Y-84790570D01*
X154473715Y-84776424D01*
X154545910Y-84778074D01*
X144111299Y-84889546D02*
X144064796Y-85126133D01*
X144064796Y-85126133D02*
X144026574Y-85362436D01*
X144026574Y-85362436D02*
X143997531Y-85588397D01*
X143997531Y-85588397D02*
X143978570Y-85793959D01*
X143978570Y-85793959D02*
X143970590Y-85969064D01*
X143970590Y-85969064D02*
X143974492Y-86103657D01*
X143974492Y-86103657D02*
X143991177Y-86187678D01*
X143991177Y-86187678D02*
X143994446Y-86194578D01*
X143994446Y-86194578D02*
X144032076Y-86243583D01*
X144032076Y-86243583D02*
X144081991Y-86264409D01*
X144081991Y-86264409D02*
X144149605Y-86254388D01*
X144149605Y-86254388D02*
X144240333Y-86210853D01*
X144240333Y-86210853D02*
X144359588Y-86131137D01*
X144359588Y-86131137D02*
X144512785Y-86012572D01*
X144512785Y-86012572D02*
X144705337Y-85852493D01*
X144705337Y-85852493D02*
X144728000Y-85833217D01*
X144728000Y-85833217D02*
X144866976Y-85711341D01*
X144866976Y-85711341D02*
X145014753Y-85576126D01*
X145014753Y-85576126D02*
X145148238Y-85448909D01*
X145148238Y-85448909D02*
X145203332Y-85394023D01*
X145203332Y-85394023D02*
X145296022Y-85302354D01*
X145296022Y-85302354D02*
X145373203Y-85231090D01*
X145373203Y-85231090D02*
X145423579Y-85190424D01*
X145423579Y-85190424D02*
X145435267Y-85184750D01*
X145435267Y-85184750D02*
X145460908Y-85211486D01*
X145460908Y-85211486D02*
X145501285Y-85281122D01*
X145501285Y-85281122D02*
X145541658Y-85365451D01*
X145541658Y-85365451D02*
X145621573Y-85546152D01*
X145621573Y-85546152D02*
X145547849Y-85602901D01*
X145547849Y-85602901D02*
X145497425Y-85637453D01*
X145497425Y-85637453D02*
X145402962Y-85698341D01*
X145402962Y-85698341D02*
X145274773Y-85779062D01*
X145274773Y-85779062D02*
X145123170Y-85873115D01*
X145123170Y-85873115D02*
X144979886Y-85960952D01*
X144979886Y-85960952D02*
X144817381Y-86061574D01*
X144817381Y-86061574D02*
X144670678Y-86155323D01*
X144670678Y-86155323D02*
X144549758Y-86235591D01*
X144549758Y-86235591D02*
X144464603Y-86295770D01*
X144464603Y-86295770D02*
X144427161Y-86326881D01*
X144427161Y-86326881D02*
X144397519Y-86369076D01*
X144397519Y-86369076D02*
X144389942Y-86414994D01*
X144389942Y-86414994D02*
X144408580Y-86473885D01*
X144408580Y-86473885D02*
X144457582Y-86554996D01*
X144457582Y-86554996D02*
X144541098Y-86667576D01*
X144541098Y-86667576D02*
X144630621Y-86780391D01*
X144630621Y-86780391D02*
X144934782Y-87112760D01*
X144934782Y-87112760D02*
X145271380Y-87392102D01*
X145271380Y-87392102D02*
X145646527Y-87623181D01*
X145646527Y-87623181D02*
X145825091Y-87710662D01*
X145825091Y-87710662D02*
X145955152Y-87774676D01*
X145955152Y-87774676D02*
X146037681Y-87834135D01*
X146037681Y-87834135D02*
X146078060Y-87902915D01*
X146078060Y-87902915D02*
X146081669Y-87994896D01*
X146081669Y-87994896D02*
X146053888Y-88123954D01*
X146053888Y-88123954D02*
X146024436Y-88224812D01*
X146024436Y-88224812D02*
X145993982Y-88296014D01*
X145993982Y-88296014D02*
X145945659Y-88323979D01*
X145945659Y-88323979D02*
X145883962Y-88328000D01*
X145883962Y-88328000D02*
X145822883Y-88321351D01*
X145822883Y-88321351D02*
X145765764Y-88295057D01*
X145765764Y-88295057D02*
X145698636Y-88239591D01*
X145698636Y-88239591D02*
X145607528Y-88145429D01*
X145607528Y-88145429D02*
X145592931Y-88129562D01*
X145592931Y-88129562D02*
X145500760Y-88030129D01*
X145500760Y-88030129D02*
X145379420Y-87900796D01*
X145379420Y-87900796D02*
X145243814Y-87757376D01*
X145243814Y-87757376D02*
X145108849Y-87615683D01*
X145108849Y-87615683D02*
X145091682Y-87597750D01*
X145091682Y-87597750D02*
X144950322Y-87448263D01*
X144950322Y-87448263D02*
X144799482Y-87285584D01*
X144799482Y-87285584D02*
X144656927Y-87129049D01*
X144656927Y-87129049D02*
X144540424Y-86997992D01*
X144540424Y-86997992D02*
X144537381Y-86994500D01*
X144537381Y-86994500D02*
X144408852Y-86848687D01*
X144408852Y-86848687D02*
X144312623Y-86745070D01*
X144312623Y-86745070D02*
X144240744Y-86676735D01*
X144240744Y-86676735D02*
X144185264Y-86636764D01*
X144185264Y-86636764D02*
X144138230Y-86618242D01*
X144138230Y-86618242D02*
X144100151Y-86614205D01*
X144100151Y-86614205D02*
X144053249Y-86622296D01*
X144053249Y-86622296D02*
X144018074Y-86652251D01*
X144018074Y-86652251D02*
X143993480Y-86711040D01*
X143993480Y-86711040D02*
X143978320Y-86805630D01*
X143978320Y-86805630D02*
X143971447Y-86942990D01*
X143971447Y-86942990D02*
X143971717Y-87130087D01*
X143971717Y-87130087D02*
X143977524Y-87359625D01*
X143977524Y-87359625D02*
X143994044Y-87699155D01*
X143994044Y-87699155D02*
X144020270Y-87996195D01*
X144020270Y-87996195D02*
X144055318Y-88241022D01*
X144055318Y-88241022D02*
X144059703Y-88264500D01*
X144059703Y-88264500D02*
X144086118Y-88405396D01*
X144086118Y-88405396D02*
X144107335Y-88524836D01*
X144107335Y-88524836D02*
X144120783Y-88607969D01*
X144120783Y-88607969D02*
X144124227Y-88637562D01*
X144124227Y-88637562D02*
X144096712Y-88663374D01*
X144096712Y-88663374D02*
X144011319Y-88675822D01*
X144011319Y-88675822D02*
X143949128Y-88677250D01*
X143949128Y-88677250D02*
X143832453Y-88670000D01*
X143832453Y-88670000D02*
X143769769Y-88649102D01*
X143769769Y-88649102D02*
X143761271Y-88637562D01*
X143761271Y-88637562D02*
X143757852Y-88597276D01*
X143757852Y-88597276D02*
X143753693Y-88500673D01*
X143753693Y-88500673D02*
X143748936Y-88354932D01*
X143748936Y-88354932D02*
X143743723Y-88167228D01*
X143743723Y-88167228D02*
X143738196Y-87944741D01*
X143738196Y-87944741D02*
X143732495Y-87694647D01*
X143732495Y-87694647D02*
X143726764Y-87424123D01*
X143726764Y-87424123D02*
X143721144Y-87140348D01*
X143721144Y-87140348D02*
X143715777Y-86850498D01*
X143715777Y-86850498D02*
X143710805Y-86561752D01*
X143710805Y-86561752D02*
X143706369Y-86281285D01*
X143706369Y-86281285D02*
X143702611Y-86016277D01*
X143702611Y-86016277D02*
X143699673Y-85773903D01*
X143699673Y-85773903D02*
X143697697Y-85561343D01*
X143697697Y-85561343D02*
X143696825Y-85385772D01*
X143696825Y-85385772D02*
X143696810Y-85375250D01*
X143696810Y-85375250D02*
X143696125Y-84819625D01*
X143696125Y-84819625D02*
X143913293Y-84810171D01*
X143913293Y-84810171D02*
X144130461Y-84800718D01*
X144130461Y-84800718D02*
X144111299Y-84889546D01*
X144111299Y-84889546D02*
X144111299Y-84889546D01*
G36*
X144111299Y-84889546D02*
G01*
X144064796Y-85126133D01*
X144026574Y-85362436D01*
X143997531Y-85588397D01*
X143978570Y-85793959D01*
X143970590Y-85969064D01*
X143974492Y-86103657D01*
X143991177Y-86187678D01*
X143994446Y-86194578D01*
X144032076Y-86243583D01*
X144081991Y-86264409D01*
X144149605Y-86254388D01*
X144240333Y-86210853D01*
X144359588Y-86131137D01*
X144512785Y-86012572D01*
X144705337Y-85852493D01*
X144728000Y-85833217D01*
X144866976Y-85711341D01*
X145014753Y-85576126D01*
X145148238Y-85448909D01*
X145203332Y-85394023D01*
X145296022Y-85302354D01*
X145373203Y-85231090D01*
X145423579Y-85190424D01*
X145435267Y-85184750D01*
X145460908Y-85211486D01*
X145501285Y-85281122D01*
X145541658Y-85365451D01*
X145621573Y-85546152D01*
X145547849Y-85602901D01*
X145497425Y-85637453D01*
X145402962Y-85698341D01*
X145274773Y-85779062D01*
X145123170Y-85873115D01*
X144979886Y-85960952D01*
X144817381Y-86061574D01*
X144670678Y-86155323D01*
X144549758Y-86235591D01*
X144464603Y-86295770D01*
X144427161Y-86326881D01*
X144397519Y-86369076D01*
X144389942Y-86414994D01*
X144408580Y-86473885D01*
X144457582Y-86554996D01*
X144541098Y-86667576D01*
X144630621Y-86780391D01*
X144934782Y-87112760D01*
X145271380Y-87392102D01*
X145646527Y-87623181D01*
X145825091Y-87710662D01*
X145955152Y-87774676D01*
X146037681Y-87834135D01*
X146078060Y-87902915D01*
X146081669Y-87994896D01*
X146053888Y-88123954D01*
X146024436Y-88224812D01*
X145993982Y-88296014D01*
X145945659Y-88323979D01*
X145883962Y-88328000D01*
X145822883Y-88321351D01*
X145765764Y-88295057D01*
X145698636Y-88239591D01*
X145607528Y-88145429D01*
X145592931Y-88129562D01*
X145500760Y-88030129D01*
X145379420Y-87900796D01*
X145243814Y-87757376D01*
X145108849Y-87615683D01*
X145091682Y-87597750D01*
X144950322Y-87448263D01*
X144799482Y-87285584D01*
X144656927Y-87129049D01*
X144540424Y-86997992D01*
X144537381Y-86994500D01*
X144408852Y-86848687D01*
X144312623Y-86745070D01*
X144240744Y-86676735D01*
X144185264Y-86636764D01*
X144138230Y-86618242D01*
X144100151Y-86614205D01*
X144053249Y-86622296D01*
X144018074Y-86652251D01*
X143993480Y-86711040D01*
X143978320Y-86805630D01*
X143971447Y-86942990D01*
X143971717Y-87130087D01*
X143977524Y-87359625D01*
X143994044Y-87699155D01*
X144020270Y-87996195D01*
X144055318Y-88241022D01*
X144059703Y-88264500D01*
X144086118Y-88405396D01*
X144107335Y-88524836D01*
X144120783Y-88607969D01*
X144124227Y-88637562D01*
X144096712Y-88663374D01*
X144011319Y-88675822D01*
X143949128Y-88677250D01*
X143832453Y-88670000D01*
X143769769Y-88649102D01*
X143761271Y-88637562D01*
X143757852Y-88597276D01*
X143753693Y-88500673D01*
X143748936Y-88354932D01*
X143743723Y-88167228D01*
X143738196Y-87944741D01*
X143732495Y-87694647D01*
X143726764Y-87424123D01*
X143721144Y-87140348D01*
X143715777Y-86850498D01*
X143710805Y-86561752D01*
X143706369Y-86281285D01*
X143702611Y-86016277D01*
X143699673Y-85773903D01*
X143697697Y-85561343D01*
X143696825Y-85385772D01*
X143696810Y-85375250D01*
X143696125Y-84819625D01*
X143913293Y-84810171D01*
X144130461Y-84800718D01*
X144111299Y-84889546D01*
G37*
X144111299Y-84889546D02*
X144064796Y-85126133D01*
X144026574Y-85362436D01*
X143997531Y-85588397D01*
X143978570Y-85793959D01*
X143970590Y-85969064D01*
X143974492Y-86103657D01*
X143991177Y-86187678D01*
X143994446Y-86194578D01*
X144032076Y-86243583D01*
X144081991Y-86264409D01*
X144149605Y-86254388D01*
X144240333Y-86210853D01*
X144359588Y-86131137D01*
X144512785Y-86012572D01*
X144705337Y-85852493D01*
X144728000Y-85833217D01*
X144866976Y-85711341D01*
X145014753Y-85576126D01*
X145148238Y-85448909D01*
X145203332Y-85394023D01*
X145296022Y-85302354D01*
X145373203Y-85231090D01*
X145423579Y-85190424D01*
X145435267Y-85184750D01*
X145460908Y-85211486D01*
X145501285Y-85281122D01*
X145541658Y-85365451D01*
X145621573Y-85546152D01*
X145547849Y-85602901D01*
X145497425Y-85637453D01*
X145402962Y-85698341D01*
X145274773Y-85779062D01*
X145123170Y-85873115D01*
X144979886Y-85960952D01*
X144817381Y-86061574D01*
X144670678Y-86155323D01*
X144549758Y-86235591D01*
X144464603Y-86295770D01*
X144427161Y-86326881D01*
X144397519Y-86369076D01*
X144389942Y-86414994D01*
X144408580Y-86473885D01*
X144457582Y-86554996D01*
X144541098Y-86667576D01*
X144630621Y-86780391D01*
X144934782Y-87112760D01*
X145271380Y-87392102D01*
X145646527Y-87623181D01*
X145825091Y-87710662D01*
X145955152Y-87774676D01*
X146037681Y-87834135D01*
X146078060Y-87902915D01*
X146081669Y-87994896D01*
X146053888Y-88123954D01*
X146024436Y-88224812D01*
X145993982Y-88296014D01*
X145945659Y-88323979D01*
X145883962Y-88328000D01*
X145822883Y-88321351D01*
X145765764Y-88295057D01*
X145698636Y-88239591D01*
X145607528Y-88145429D01*
X145592931Y-88129562D01*
X145500760Y-88030129D01*
X145379420Y-87900796D01*
X145243814Y-87757376D01*
X145108849Y-87615683D01*
X145091682Y-87597750D01*
X144950322Y-87448263D01*
X144799482Y-87285584D01*
X144656927Y-87129049D01*
X144540424Y-86997992D01*
X144537381Y-86994500D01*
X144408852Y-86848687D01*
X144312623Y-86745070D01*
X144240744Y-86676735D01*
X144185264Y-86636764D01*
X144138230Y-86618242D01*
X144100151Y-86614205D01*
X144053249Y-86622296D01*
X144018074Y-86652251D01*
X143993480Y-86711040D01*
X143978320Y-86805630D01*
X143971447Y-86942990D01*
X143971717Y-87130087D01*
X143977524Y-87359625D01*
X143994044Y-87699155D01*
X144020270Y-87996195D01*
X144055318Y-88241022D01*
X144059703Y-88264500D01*
X144086118Y-88405396D01*
X144107335Y-88524836D01*
X144120783Y-88607969D01*
X144124227Y-88637562D01*
X144096712Y-88663374D01*
X144011319Y-88675822D01*
X143949128Y-88677250D01*
X143832453Y-88670000D01*
X143769769Y-88649102D01*
X143761271Y-88637562D01*
X143757852Y-88597276D01*
X143753693Y-88500673D01*
X143748936Y-88354932D01*
X143743723Y-88167228D01*
X143738196Y-87944741D01*
X143732495Y-87694647D01*
X143726764Y-87424123D01*
X143721144Y-87140348D01*
X143715777Y-86850498D01*
X143710805Y-86561752D01*
X143706369Y-86281285D01*
X143702611Y-86016277D01*
X143699673Y-85773903D01*
X143697697Y-85561343D01*
X143696825Y-85385772D01*
X143696810Y-85375250D01*
X143696125Y-84819625D01*
X143913293Y-84810171D01*
X144130461Y-84800718D01*
X144111299Y-84889546D01*
X142484290Y-84749875D02*
X142606731Y-84775511D01*
X142606731Y-84775511D02*
X142750247Y-84812290D01*
X142750247Y-84812290D02*
X142898109Y-84855351D01*
X142898109Y-84855351D02*
X143033590Y-84899827D01*
X143033590Y-84899827D02*
X143139962Y-84940855D01*
X143139962Y-84940855D02*
X143199669Y-84972888D01*
X143199669Y-84972888D02*
X143226204Y-85021534D01*
X143226204Y-85021534D02*
X143229391Y-85112821D01*
X143229391Y-85112821D02*
X143224468Y-85164187D01*
X143224468Y-85164187D02*
X143211021Y-85257303D01*
X143211021Y-85257303D02*
X143197351Y-85320684D01*
X143197351Y-85320684D02*
X143191196Y-85335137D01*
X143191196Y-85335137D02*
X143159300Y-85327305D01*
X143159300Y-85327305D02*
X143097108Y-85289945D01*
X143097108Y-85289945D02*
X143071147Y-85271340D01*
X143071147Y-85271340D02*
X142918456Y-85182014D01*
X142918456Y-85182014D02*
X142737530Y-85114384D01*
X142737530Y-85114384D02*
X142545308Y-85071340D01*
X142545308Y-85071340D02*
X142358734Y-85055769D01*
X142358734Y-85055769D02*
X142194747Y-85070559D01*
X142194747Y-85070559D02*
X142093976Y-85104740D01*
X142093976Y-85104740D02*
X141966652Y-85203135D01*
X141966652Y-85203135D02*
X141883393Y-85335744D01*
X141883393Y-85335744D02*
X141849816Y-85487510D01*
X141849816Y-85487510D02*
X141871537Y-85643374D01*
X141871537Y-85643374D02*
X141882364Y-85672173D01*
X141882364Y-85672173D02*
X141952021Y-85790198D01*
X141952021Y-85790198D02*
X142074442Y-85938701D01*
X142074442Y-85938701D02*
X142247812Y-86115697D01*
X142247812Y-86115697D02*
X142470317Y-86319204D01*
X142470317Y-86319204D02*
X142489625Y-86336081D01*
X142489625Y-86336081D02*
X142754955Y-86572545D01*
X142754955Y-86572545D02*
X142972163Y-86779085D01*
X142972163Y-86779085D02*
X143145470Y-86961725D01*
X143145470Y-86961725D02*
X143279096Y-87126492D01*
X143279096Y-87126492D02*
X143377264Y-87279409D01*
X143377264Y-87279409D02*
X143444194Y-87426503D01*
X143444194Y-87426503D02*
X143484108Y-87573798D01*
X143484108Y-87573798D02*
X143501227Y-87727320D01*
X143501227Y-87727320D02*
X143502605Y-87781933D01*
X143502605Y-87781933D02*
X143485803Y-88003378D01*
X143485803Y-88003378D02*
X143430118Y-88187296D01*
X143430118Y-88187296D02*
X143332346Y-88336005D01*
X143332346Y-88336005D02*
X143189287Y-88451825D01*
X143189287Y-88451825D02*
X142997740Y-88537073D01*
X142997740Y-88537073D02*
X142754503Y-88594068D01*
X142754503Y-88594068D02*
X142456374Y-88625129D01*
X142456374Y-88625129D02*
X142330875Y-88630531D01*
X142330875Y-88630531D02*
X142164447Y-88633280D01*
X142164447Y-88633280D02*
X142011236Y-88631935D01*
X142011236Y-88631935D02*
X141887632Y-88626892D01*
X141887632Y-88626892D02*
X141810022Y-88618545D01*
X141810022Y-88618545D02*
X141807000Y-88617906D01*
X141807000Y-88617906D02*
X141589592Y-88538286D01*
X141589592Y-88538286D02*
X141402163Y-88406097D01*
X141402163Y-88406097D02*
X141249528Y-88227071D01*
X141249528Y-88227071D02*
X141136504Y-88006942D01*
X141136504Y-88006942D02*
X141067906Y-87751442D01*
X141067906Y-87751442D02*
X141065294Y-87735019D01*
X141065294Y-87735019D02*
X141044995Y-87602413D01*
X141044995Y-87602413D02*
X141215549Y-87504831D01*
X141215549Y-87504831D02*
X141311153Y-87453251D01*
X141311153Y-87453251D02*
X141387130Y-87417882D01*
X141387130Y-87417882D02*
X141421927Y-87407250D01*
X141421927Y-87407250D02*
X141444282Y-87437025D01*
X141444282Y-87437025D02*
X141456476Y-87519447D01*
X141456476Y-87519447D02*
X141458060Y-87573937D01*
X141458060Y-87573937D02*
X141486733Y-87786730D01*
X141486733Y-87786730D02*
X141568476Y-87969985D01*
X141568476Y-87969985D02*
X141698128Y-88117119D01*
X141698128Y-88117119D02*
X141870531Y-88221550D01*
X141870531Y-88221550D02*
X141997500Y-88262164D01*
X141997500Y-88262164D02*
X142202778Y-88290454D01*
X142202778Y-88290454D02*
X142427280Y-88290758D01*
X142427280Y-88290758D02*
X142651062Y-88265343D01*
X142651062Y-88265343D02*
X142854182Y-88216479D01*
X142854182Y-88216479D02*
X143016697Y-88146435D01*
X143016697Y-88146435D02*
X143017200Y-88146138D01*
X143017200Y-88146138D02*
X143121830Y-88049774D01*
X143121830Y-88049774D02*
X143181692Y-87916642D01*
X143181692Y-87916642D02*
X143195199Y-87756528D01*
X143195199Y-87756528D02*
X143160767Y-87579222D01*
X143160767Y-87579222D02*
X143124246Y-87485349D01*
X143124246Y-87485349D02*
X143080837Y-87419246D01*
X143080837Y-87419246D02*
X142994592Y-87314566D01*
X142994592Y-87314566D02*
X142869460Y-87175668D01*
X142869460Y-87175668D02*
X142709386Y-87006913D01*
X142709386Y-87006913D02*
X142518319Y-86812661D01*
X142518319Y-86812661D02*
X142486778Y-86781144D01*
X142486778Y-86781144D02*
X142250329Y-86542302D01*
X142250329Y-86542302D02*
X142057475Y-86339603D01*
X142057475Y-86339603D02*
X141904147Y-86167232D01*
X141904147Y-86167232D02*
X141786275Y-86019375D01*
X141786275Y-86019375D02*
X141699790Y-85890218D01*
X141699790Y-85890218D02*
X141640624Y-85773945D01*
X141640624Y-85773945D02*
X141604706Y-85664744D01*
X141604706Y-85664744D02*
X141587967Y-85556799D01*
X141587967Y-85556799D02*
X141585447Y-85493292D01*
X141585447Y-85493292D02*
X141604198Y-85320426D01*
X141604198Y-85320426D02*
X141667248Y-85167757D01*
X141667248Y-85167757D02*
X141782189Y-85018451D01*
X141782189Y-85018451D02*
X141814897Y-84984681D01*
X141814897Y-84984681D02*
X141993524Y-84848906D01*
X141993524Y-84848906D02*
X142200024Y-84765596D01*
X142200024Y-84765596D02*
X142399651Y-84740250D01*
X142399651Y-84740250D02*
X142484290Y-84749875D01*
X142484290Y-84749875D02*
X142484290Y-84749875D01*
G36*
X142484290Y-84749875D02*
G01*
X142606731Y-84775511D01*
X142750247Y-84812290D01*
X142898109Y-84855351D01*
X143033590Y-84899827D01*
X143139962Y-84940855D01*
X143199669Y-84972888D01*
X143226204Y-85021534D01*
X143229391Y-85112821D01*
X143224468Y-85164187D01*
X143211021Y-85257303D01*
X143197351Y-85320684D01*
X143191196Y-85335137D01*
X143159300Y-85327305D01*
X143097108Y-85289945D01*
X143071147Y-85271340D01*
X142918456Y-85182014D01*
X142737530Y-85114384D01*
X142545308Y-85071340D01*
X142358734Y-85055769D01*
X142194747Y-85070559D01*
X142093976Y-85104740D01*
X141966652Y-85203135D01*
X141883393Y-85335744D01*
X141849816Y-85487510D01*
X141871537Y-85643374D01*
X141882364Y-85672173D01*
X141952021Y-85790198D01*
X142074442Y-85938701D01*
X142247812Y-86115697D01*
X142470317Y-86319204D01*
X142489625Y-86336081D01*
X142754955Y-86572545D01*
X142972163Y-86779085D01*
X143145470Y-86961725D01*
X143279096Y-87126492D01*
X143377264Y-87279409D01*
X143444194Y-87426503D01*
X143484108Y-87573798D01*
X143501227Y-87727320D01*
X143502605Y-87781933D01*
X143485803Y-88003378D01*
X143430118Y-88187296D01*
X143332346Y-88336005D01*
X143189287Y-88451825D01*
X142997740Y-88537073D01*
X142754503Y-88594068D01*
X142456374Y-88625129D01*
X142330875Y-88630531D01*
X142164447Y-88633280D01*
X142011236Y-88631935D01*
X141887632Y-88626892D01*
X141810022Y-88618545D01*
X141807000Y-88617906D01*
X141589592Y-88538286D01*
X141402163Y-88406097D01*
X141249528Y-88227071D01*
X141136504Y-88006942D01*
X141067906Y-87751442D01*
X141065294Y-87735019D01*
X141044995Y-87602413D01*
X141215549Y-87504831D01*
X141311153Y-87453251D01*
X141387130Y-87417882D01*
X141421927Y-87407250D01*
X141444282Y-87437025D01*
X141456476Y-87519447D01*
X141458060Y-87573937D01*
X141486733Y-87786730D01*
X141568476Y-87969985D01*
X141698128Y-88117119D01*
X141870531Y-88221550D01*
X141997500Y-88262164D01*
X142202778Y-88290454D01*
X142427280Y-88290758D01*
X142651062Y-88265343D01*
X142854182Y-88216479D01*
X143016697Y-88146435D01*
X143017200Y-88146138D01*
X143121830Y-88049774D01*
X143181692Y-87916642D01*
X143195199Y-87756528D01*
X143160767Y-87579222D01*
X143124246Y-87485349D01*
X143080837Y-87419246D01*
X142994592Y-87314566D01*
X142869460Y-87175668D01*
X142709386Y-87006913D01*
X142518319Y-86812661D01*
X142486778Y-86781144D01*
X142250329Y-86542302D01*
X142057475Y-86339603D01*
X141904147Y-86167232D01*
X141786275Y-86019375D01*
X141699790Y-85890218D01*
X141640624Y-85773945D01*
X141604706Y-85664744D01*
X141587967Y-85556799D01*
X141585447Y-85493292D01*
X141604198Y-85320426D01*
X141667248Y-85167757D01*
X141782189Y-85018451D01*
X141814897Y-84984681D01*
X141993524Y-84848906D01*
X142200024Y-84765596D01*
X142399651Y-84740250D01*
X142484290Y-84749875D01*
G37*
X142484290Y-84749875D02*
X142606731Y-84775511D01*
X142750247Y-84812290D01*
X142898109Y-84855351D01*
X143033590Y-84899827D01*
X143139962Y-84940855D01*
X143199669Y-84972888D01*
X143226204Y-85021534D01*
X143229391Y-85112821D01*
X143224468Y-85164187D01*
X143211021Y-85257303D01*
X143197351Y-85320684D01*
X143191196Y-85335137D01*
X143159300Y-85327305D01*
X143097108Y-85289945D01*
X143071147Y-85271340D01*
X142918456Y-85182014D01*
X142737530Y-85114384D01*
X142545308Y-85071340D01*
X142358734Y-85055769D01*
X142194747Y-85070559D01*
X142093976Y-85104740D01*
X141966652Y-85203135D01*
X141883393Y-85335744D01*
X141849816Y-85487510D01*
X141871537Y-85643374D01*
X141882364Y-85672173D01*
X141952021Y-85790198D01*
X142074442Y-85938701D01*
X142247812Y-86115697D01*
X142470317Y-86319204D01*
X142489625Y-86336081D01*
X142754955Y-86572545D01*
X142972163Y-86779085D01*
X143145470Y-86961725D01*
X143279096Y-87126492D01*
X143377264Y-87279409D01*
X143444194Y-87426503D01*
X143484108Y-87573798D01*
X143501227Y-87727320D01*
X143502605Y-87781933D01*
X143485803Y-88003378D01*
X143430118Y-88187296D01*
X143332346Y-88336005D01*
X143189287Y-88451825D01*
X142997740Y-88537073D01*
X142754503Y-88594068D01*
X142456374Y-88625129D01*
X142330875Y-88630531D01*
X142164447Y-88633280D01*
X142011236Y-88631935D01*
X141887632Y-88626892D01*
X141810022Y-88618545D01*
X141807000Y-88617906D01*
X141589592Y-88538286D01*
X141402163Y-88406097D01*
X141249528Y-88227071D01*
X141136504Y-88006942D01*
X141067906Y-87751442D01*
X141065294Y-87735019D01*
X141044995Y-87602413D01*
X141215549Y-87504831D01*
X141311153Y-87453251D01*
X141387130Y-87417882D01*
X141421927Y-87407250D01*
X141444282Y-87437025D01*
X141456476Y-87519447D01*
X141458060Y-87573937D01*
X141486733Y-87786730D01*
X141568476Y-87969985D01*
X141698128Y-88117119D01*
X141870531Y-88221550D01*
X141997500Y-88262164D01*
X142202778Y-88290454D01*
X142427280Y-88290758D01*
X142651062Y-88265343D01*
X142854182Y-88216479D01*
X143016697Y-88146435D01*
X143017200Y-88146138D01*
X143121830Y-88049774D01*
X143181692Y-87916642D01*
X143195199Y-87756528D01*
X143160767Y-87579222D01*
X143124246Y-87485349D01*
X143080837Y-87419246D01*
X142994592Y-87314566D01*
X142869460Y-87175668D01*
X142709386Y-87006913D01*
X142518319Y-86812661D01*
X142486778Y-86781144D01*
X142250329Y-86542302D01*
X142057475Y-86339603D01*
X141904147Y-86167232D01*
X141786275Y-86019375D01*
X141699790Y-85890218D01*
X141640624Y-85773945D01*
X141604706Y-85664744D01*
X141587967Y-85556799D01*
X141585447Y-85493292D01*
X141604198Y-85320426D01*
X141667248Y-85167757D01*
X141782189Y-85018451D01*
X141814897Y-84984681D01*
X141993524Y-84848906D01*
X142200024Y-84765596D01*
X142399651Y-84740250D01*
X142484290Y-84749875D01*
D12*
X136400000Y-118000000D02*
G75*
G03*
X136400000Y-118000000I-100000J0D01*
G01*
D11*
X141450000Y-122950000D02*
X141450000Y-119050000D01*
X141450000Y-122950000D02*
X143450000Y-122950000D01*
X143450000Y-122950000D02*
X143450000Y-119050000D01*
D15*
X164325000Y-154430000D02*
X164325000Y-156680000D01*
X164325000Y-156680000D02*
X154675000Y-156680000D01*
X164325000Y-148680000D02*
X164325000Y-151680000D01*
X154675000Y-151680000D02*
X154675000Y-148680000D01*
X155750000Y-146680000D02*
X156250000Y-146680000D01*
X162750000Y-146680000D02*
X163250000Y-146680000D01*
X154675000Y-156680000D02*
X154675000Y-154430000D01*
D16*
X156850000Y-146180000D02*
G75*
G03*
X156850000Y-146180000I-100000J0D01*
G01*
D12*
X129700000Y-82400000D02*
X130700000Y-82400000D01*
X165300000Y-81400000D02*
X165300000Y-82400000D01*
X129700000Y-57600000D02*
X130700000Y-57600000D01*
X129700000Y-81400000D02*
X129700000Y-82400000D01*
X164300000Y-57600000D02*
X165300000Y-57600000D01*
X165300000Y-57600000D02*
X165300000Y-58600000D01*
X165300000Y-82400000D02*
X164300000Y-82400000D01*
X129700000Y-57600000D02*
X129700000Y-58600000D01*
X130700000Y-81800000D02*
G75*
G03*
X130700000Y-81800000I-200000J0D01*
G01*
D11*
X178390000Y-74462779D02*
X178390000Y-74137221D01*
X179410000Y-74462779D02*
X179410000Y-74137221D01*
X150912221Y-84435000D02*
X151237779Y-84435000D01*
X150912221Y-83415000D02*
X151237779Y-83415000D01*
X137312221Y-116690000D02*
X137637779Y-116690000D01*
X137312221Y-117710000D02*
X137637779Y-117710000D01*
X134202221Y-117610000D02*
X134527779Y-117610000D01*
X134202221Y-118630000D02*
X134527779Y-118630000D01*
X137262779Y-149760000D02*
X136937221Y-149760000D01*
X137262779Y-148740000D02*
X136937221Y-148740000D01*
X141862779Y-151710000D02*
X141537221Y-151710000D01*
X141862779Y-150690000D02*
X141537221Y-150690000D01*
X135990000Y-111437221D02*
X135990000Y-111762779D01*
X137010000Y-111437221D02*
X137010000Y-111762779D01*
D15*
X168600000Y-83819000D02*
X166600000Y-83819000D01*
X166600000Y-81581000D02*
X168600000Y-81581000D01*
D16*
X169450000Y-83350000D02*
G75*
G03*
X169450000Y-83350000I-100000J0D01*
G01*
D11*
X125200000Y-62500000D02*
X125000000Y-62300000D01*
X127200000Y-59500000D02*
X128000000Y-59500000D01*
X127200000Y-62500000D02*
X127200000Y-63000000D01*
X128000000Y-59500000D02*
X128000000Y-59700000D01*
X128000000Y-62300000D02*
X128000000Y-62500000D01*
X125800000Y-62500000D02*
X125800000Y-63000000D01*
X128000000Y-62500000D02*
X127200000Y-62500000D01*
X125000000Y-59500000D02*
X125800000Y-59500000D01*
X125800000Y-62500000D02*
X125200000Y-62500000D01*
X125000000Y-59700000D02*
X125000000Y-59500000D01*
X124621320Y-67500000D02*
X124055635Y-68065685D01*
X122641421Y-69479899D02*
X122358579Y-69479899D01*
X123065685Y-69055635D02*
X122641421Y-69479899D01*
X120520101Y-67641421D02*
X120378680Y-67500000D01*
X120378680Y-67500000D02*
X120944365Y-66934315D01*
X123065685Y-69055635D02*
X123419239Y-69409188D01*
X124055635Y-68065685D02*
X124409188Y-68419239D01*
X122500000Y-65378680D02*
X122641421Y-65520101D01*
X121934315Y-65944365D02*
X122500000Y-65378680D01*
X124479899Y-67358579D02*
X124621320Y-67500000D01*
X132086999Y-149913760D02*
X134281124Y-151080396D01*
X134924300Y-149870758D02*
X132730175Y-148704121D01*
X132730175Y-148704121D02*
X132086999Y-149913760D01*
X116200000Y-132000000D02*
G75*
G03*
X116200000Y-132000000I-950000J0D01*
G01*
X115200000Y-124500000D02*
G75*
G03*
X115200000Y-124500000I-950000J0D01*
G01*
X141500000Y-134900000D02*
X141500000Y-136300000D01*
X140100000Y-136300000D02*
X140100000Y-134900000D01*
X140100000Y-134900000D02*
X141500000Y-134900000D01*
X141500000Y-136300000D02*
X140100000Y-136300000D01*
X153610000Y-147678578D02*
X153610000Y-147161422D01*
X152190000Y-147678578D02*
X152190000Y-147161422D01*
X120450000Y-138500000D02*
G75*
G03*
X120450000Y-138500000I-950000J0D01*
G01*
X141450000Y-132400000D02*
X141450000Y-133800000D01*
X140050000Y-133800000D02*
X140050000Y-132400000D01*
X141450000Y-133800000D02*
X140050000Y-133800000D01*
X140050000Y-132400000D02*
X141450000Y-132400000D01*
X177250000Y-134600000D02*
G75*
G03*
X177250000Y-134600000I-950000J0D01*
G01*
X169562779Y-78730000D02*
X169237221Y-78730000D01*
X169562779Y-77710000D02*
X169237221Y-77710000D01*
X118450000Y-135250000D02*
G75*
G03*
X118450000Y-135250000I-950000J0D01*
G01*
X169840000Y-147461422D02*
X169840000Y-147978578D01*
X171260000Y-147461422D02*
X171260000Y-147978578D01*
X148770000Y-141710000D02*
X150800000Y-141710000D01*
X150180000Y-139390000D02*
X148770000Y-139390000D01*
X148770000Y-140050000D02*
X148770000Y-139390000D01*
X148770000Y-141710000D02*
X148770000Y-141050000D01*
X170700000Y-71700000D02*
X170900000Y-71700000D01*
X170900000Y-74700000D02*
X170700000Y-74700000D01*
X170900000Y-73900000D02*
X170900000Y-74700000D01*
X167900000Y-72500000D02*
X167400000Y-72500000D01*
X167900000Y-71900000D02*
X168100000Y-71700000D01*
X167900000Y-72500000D02*
X167900000Y-71900000D01*
X167900000Y-74700000D02*
X167900000Y-73900000D01*
X167900000Y-73900000D02*
X167400000Y-73900000D01*
X168100000Y-74700000D02*
X167900000Y-74700000D01*
X170900000Y-71700000D02*
X170900000Y-72500000D01*
X176500000Y-71700000D02*
X176500000Y-72500000D01*
X176500000Y-73900000D02*
X176500000Y-74700000D01*
X173500000Y-73900000D02*
X173000000Y-73900000D01*
X176500000Y-74700000D02*
X176300000Y-74700000D01*
X173500000Y-72500000D02*
X173000000Y-72500000D01*
X173500000Y-74700000D02*
X173500000Y-73900000D01*
X173500000Y-71900000D02*
X173700000Y-71700000D01*
X173700000Y-74700000D02*
X173500000Y-74700000D01*
X173500000Y-72500000D02*
X173500000Y-71900000D01*
X176300000Y-71700000D02*
X176500000Y-71700000D01*
X177900000Y-77100000D02*
X178500000Y-77100000D01*
X177900000Y-77100000D02*
X177900000Y-76600000D01*
X178700000Y-79900000D02*
X178700000Y-80100000D01*
X175700000Y-77300000D02*
X175700000Y-77100000D01*
X175700000Y-80100000D02*
X175700000Y-79900000D01*
X176500000Y-80100000D02*
X175700000Y-80100000D01*
X178700000Y-80100000D02*
X177900000Y-80100000D01*
X178500000Y-77100000D02*
X178700000Y-77300000D01*
X175700000Y-77100000D02*
X176500000Y-77100000D01*
X176500000Y-77100000D02*
X176500000Y-76600000D01*
X127658578Y-79590000D02*
X127141422Y-79590000D01*
X127658578Y-81010000D02*
X127141422Y-81010000D01*
X129855165Y-146238861D02*
X130027684Y-145962772D01*
X130720174Y-146779378D02*
X130892693Y-146503289D01*
X176700000Y-88900000D02*
X176500000Y-88900000D01*
X179500000Y-88100000D02*
X179500000Y-88900000D01*
X176500000Y-86700000D02*
X176500000Y-86100000D01*
X176500000Y-88100000D02*
X176000000Y-88100000D01*
X176500000Y-86700000D02*
X176000000Y-86700000D01*
X179500000Y-88900000D02*
X179300000Y-88900000D01*
X176500000Y-88900000D02*
X176500000Y-88100000D01*
X179300000Y-85900000D02*
X179500000Y-85900000D01*
X176500000Y-86100000D02*
X176700000Y-85900000D01*
X179500000Y-85900000D02*
X179500000Y-86700000D01*
X173060000Y-82680000D02*
X173060000Y-81750000D01*
X173060000Y-82680000D02*
X171600000Y-82680000D01*
X173060000Y-79520000D02*
X173060000Y-80450000D01*
X173060000Y-79520000D02*
X170900000Y-79520000D01*
X127610000Y-127741422D02*
X127610000Y-128258578D01*
X126190000Y-127741422D02*
X126190000Y-128258578D01*
X127110000Y-131678922D02*
X127110000Y-132196078D01*
X125690000Y-131678922D02*
X125690000Y-132196078D01*
X125841422Y-134140000D02*
X126358578Y-134140000D01*
X125841422Y-135560000D02*
X126358578Y-135560000D01*
X122387221Y-134040000D02*
X122712779Y-134040000D01*
X122387221Y-135060000D02*
X122712779Y-135060000D01*
X145897936Y-121110000D02*
X147102064Y-121110000D01*
X145897936Y-119290000D02*
X147102064Y-119290000D01*
D12*
X159136803Y-130111803D02*
G75*
G03*
X159136803Y-130111803I-111803J0D01*
G01*
X129883000Y-88397000D02*
X129883000Y-90429000D01*
X130824605Y-90810000D02*
G75*
G03*
X130824605Y-90810000I-179605J0D01*
G01*
D11*
X127141422Y-78760000D02*
X127658578Y-78760000D01*
X127141422Y-77340000D02*
X127658578Y-77340000D01*
X136860000Y-146759420D02*
X136860000Y-147040580D01*
X135840000Y-146759420D02*
X135840000Y-147040580D01*
X139459420Y-138890000D02*
X139740580Y-138890000D01*
X139459420Y-139910000D02*
X139740580Y-139910000D01*
X139459420Y-140590000D02*
X139740580Y-140590000D01*
X139459420Y-141610000D02*
X139740580Y-141610000D01*
X143337221Y-141590000D02*
X143662779Y-141590000D01*
X143337221Y-142610000D02*
X143662779Y-142610000D01*
D12*
X174548076Y-89468911D02*
X171048076Y-95531089D01*
X165851924Y-92531089D02*
X171048076Y-95531089D01*
X169351924Y-86468911D02*
X165851924Y-92531089D01*
D16*
X170987564Y-86835898D02*
X171787564Y-85450258D01*
D12*
X174548076Y-89468911D02*
X169351924Y-86468911D01*
D16*
X170694744Y-85743078D02*
X172080385Y-86543078D01*
X173206218Y-87193078D02*
X174591858Y-87993078D01*
D11*
X136435000Y-139390000D02*
X136910000Y-139390000D01*
X136435000Y-144610000D02*
X136910000Y-144610000D01*
X132165000Y-144610000D02*
X131690000Y-144610000D01*
X132165000Y-139390000D02*
X131690000Y-139390000D01*
X131690000Y-144610000D02*
X131690000Y-144135000D01*
X131690000Y-139390000D02*
X131690000Y-139865000D01*
X136910000Y-139390000D02*
X136910000Y-139865000D01*
X129687221Y-119960000D02*
X130012779Y-119960000D01*
X129687221Y-118940000D02*
X130012779Y-118940000D01*
X146535000Y-146180000D02*
X146535000Y-148180000D01*
X146535000Y-148180000D02*
X150435000Y-148180000D01*
X146535000Y-146180000D02*
X150435000Y-146180000D01*
X164650000Y-93050000D02*
X162250000Y-93050000D01*
X164650000Y-90650000D02*
X164650000Y-93050000D01*
X162250000Y-90650000D02*
X164650000Y-90650000D01*
X162250000Y-93050000D02*
X162250000Y-90650000D01*
X143220000Y-143180000D02*
X143220000Y-145180000D01*
X143220000Y-143180000D02*
X147120000Y-143180000D01*
X143220000Y-145180000D02*
X147120000Y-145180000D01*
X133859420Y-123200000D02*
X134140580Y-123200000D01*
X133859420Y-124220000D02*
X134140580Y-124220000D01*
X161200000Y-90650000D02*
X161200000Y-93050000D01*
X158800000Y-90650000D02*
X161200000Y-90650000D01*
X158800000Y-93050000D02*
X158800000Y-90650000D01*
X161200000Y-93050000D02*
X158800000Y-93050000D01*
X126340580Y-122410000D02*
X126059420Y-122410000D01*
X126340580Y-121390000D02*
X126059420Y-121390000D01*
X128980000Y-124880000D02*
X131480000Y-124880000D01*
X128980000Y-120680000D02*
X130980000Y-120680000D01*
M02*
