M48
; DRILL file {KiCad 5.1.6+dfsg1-1~bpo10+1} date Sat Jun 19 16:29:01 2021
; FORMAT={-:-/ absolute / inch / decimal}
; #@! TF.CreationDate,2021-06-19T16:29:01-04:00
; #@! TF.GenerationSoftware,Kicad,Pcbnew,5.1.6+dfsg1-1~bpo10+1
; #@! TF.FileFunction,Plated,1,4,PTH
FMAT,2
INCH
T1C0.0157
T2C0.0807
%
G90
G05
T1
X4.7362Y-2.8071
X4.74Y-3.2362
X4.7756Y-2.9685
X4.9016Y-2.8819
X4.9016Y-4.4094
X4.9055Y-2.7953
X4.9685Y-3.7874
X5.0743Y-3.4572
X5.1024Y-3.5984
X5.1142Y-4.4488
X5.1732Y-3.7323
X5.19Y-3.7638
X5.198Y-4.436
X5.315Y-3.4803
X5.3154Y-4.4419
X5.3307Y-2.7953
X5.3346Y-3.0413
X5.4291Y-2.7953
X5.4331Y-3.0906
X5.4331Y-3.1378
X5.5Y-3.34
X5.75Y-4.32
X5.7795Y-4.748
X5.78Y-4.35
X5.8099Y-4.7216
X5.8661Y-3.1201
X5.8661Y-3.4252
X5.8891Y-4.8629
X5.9252Y-4.8465
X5.95Y-3.08
X5.97Y-3.38
X6.0669Y-3.122
X6.1142Y-3.063
X6.1693Y-3.1142
X6.2Y-5.13
X6.2165Y-3.1142
X6.26Y-5.34
X6.2677Y-5.2677
X6.3071Y-4.8661
X6.3386Y-3.4449
X6.3543Y-4.8819
X6.3659Y-5.0364
X6.3858Y-5.3071
X6.3976Y-4.878
X6.4016Y-5.0197
X6.4252Y-5.1929
X6.4252Y-5.3228
X6.4409Y-5.0079
X6.4488Y-3.1417
X6.4488Y-4.8819
X6.4528Y-5.3947
X6.4724Y-5.314
X6.504Y-5.1575
X6.504Y-5.188
X6.5157Y-4.878
X6.5945Y-4.9724
X6.6142Y-5.2657
X6.6378Y-5.0945
X6.6732Y-4.9449
T2
X6.063Y-5.0394
T0
M30
