G04 #@! TF.GenerationSoftware,KiCad,Pcbnew,5.1.6+dfsg1-1~bpo10+1*
G04 #@! TF.CreationDate,2021-06-19T16:41:40-04:00*
G04 #@! TF.ProjectId,RUSP_Daughterboard,52555350-5f44-4617-9567-68746572626f,rev?*
G04 #@! TF.SameCoordinates,Original*
G04 #@! TF.FileFunction,Other,Fab,Top*
%FSLAX46Y46*%
G04 Gerber Fmt 4.6, Leading zero omitted, Abs format (unit mm)*
G04 Created by KiCad (PCBNEW 5.1.6+dfsg1-1~bpo10+1) date 2021-06-19 16:41:40*
%MOMM*%
%LPD*%
G01*
G04 APERTURE LIST*
%ADD10C,0.200000*%
%ADD11C,0.120000*%
%ADD12C,0.127000*%
%ADD13C,0.100000*%
%ADD14C,0.150000*%
%ADD15C,0.015000*%
%ADD16C,0.040000*%
%ADD17C,0.050000*%
%ADD18C,0.135000*%
G04 APERTURE END LIST*
D10*
X183000000Y-100000000D02*
G75*
G03*
X183000000Y-100000000I-33000000J0D01*
G01*
D11*
X155552417Y-128000000D02*
G75*
G03*
X155552417Y-128000000I-1552417J0D01*
G01*
D12*
X172100000Y-118300000D02*
X175300000Y-118300000D01*
X175300000Y-118300000D02*
X175300000Y-108300000D01*
X175300000Y-108300000D02*
X172100000Y-108300000D01*
X172100000Y-108300000D02*
X172100000Y-118300000D01*
D10*
X173800000Y-119200000D02*
G75*
G03*
X173800000Y-119200000I-100000J0D01*
G01*
D13*
X162200000Y-87450000D02*
X162200000Y-86450000D01*
X162700000Y-87450000D02*
X162200000Y-87450000D01*
X162700000Y-86450000D02*
X162700000Y-87450000D01*
X162200000Y-86450000D02*
X162700000Y-86450000D01*
X162200000Y-80850000D02*
X162200000Y-79850000D01*
X162700000Y-80850000D02*
X162200000Y-80850000D01*
X162700000Y-79850000D02*
X162700000Y-80850000D01*
X162200000Y-79850000D02*
X162700000Y-79850000D01*
X163850000Y-121300000D02*
X163350000Y-121300000D01*
X163350000Y-121300000D02*
X163350000Y-120300000D01*
X163350000Y-120300000D02*
X163850000Y-120300000D01*
X163850000Y-120300000D02*
X163850000Y-121300000D01*
X158000000Y-121000000D02*
X158300000Y-120700000D01*
X158300000Y-121300000D02*
X158000000Y-121000000D01*
X157050000Y-121000000D02*
G75*
G03*
X157050000Y-121000000I-50000J0D01*
G01*
X157125000Y-121000000D02*
G75*
G03*
X157125000Y-121000000I-125000J0D01*
G01*
X157900000Y-121000000D02*
G75*
G03*
X157900000Y-121000000I-900000J0D01*
G01*
X155700000Y-122300000D02*
X155700000Y-119700000D01*
X155700000Y-122300000D02*
X158000000Y-122300000D01*
X158000000Y-122300000D02*
X158300000Y-122000000D01*
X155700000Y-119700000D02*
X158300000Y-119700000D01*
X158300000Y-122000000D02*
X158300000Y-119700000D01*
X157200000Y-121000000D02*
G75*
G03*
X157200000Y-121000000I-200000J0D01*
G01*
X161050000Y-122250000D02*
X161050000Y-122750000D01*
X161050000Y-122750000D02*
X160050000Y-122750000D01*
X160050000Y-122750000D02*
X160050000Y-122250000D01*
X160050000Y-122250000D02*
X161050000Y-122250000D01*
X163050000Y-122250000D02*
X163050000Y-122750000D01*
X163050000Y-122750000D02*
X162050000Y-122750000D01*
X162050000Y-122750000D02*
X162050000Y-122250000D01*
X162050000Y-122250000D02*
X163050000Y-122250000D01*
X149556777Y-122099670D02*
X149910330Y-122453223D01*
X149910330Y-122453223D02*
X149203223Y-123160330D01*
X149203223Y-123160330D02*
X148849670Y-122806777D01*
X148849670Y-122806777D02*
X149556777Y-122099670D01*
X147249670Y-121176777D02*
X147956777Y-120469670D01*
X147603223Y-121530330D02*
X147249670Y-121176777D01*
X148310330Y-120823223D02*
X147603223Y-121530330D01*
X147956777Y-120469670D02*
X148310330Y-120823223D01*
X150750000Y-79000000D02*
X150750000Y-79500000D01*
X150750000Y-79500000D02*
X149750000Y-79500000D01*
X149750000Y-79500000D02*
X149750000Y-79000000D01*
X149750000Y-79000000D02*
X150750000Y-79000000D01*
X149750000Y-86750000D02*
X150750000Y-86750000D01*
X149750000Y-87250000D02*
X149750000Y-86750000D01*
X150750000Y-87250000D02*
X149750000Y-87250000D01*
X150750000Y-86750000D02*
X150750000Y-87250000D01*
X148059670Y-121986777D02*
X148766777Y-121279670D01*
X148413223Y-122340330D02*
X148059670Y-121986777D01*
X149120330Y-121633223D02*
X148413223Y-122340330D01*
X148766777Y-121279670D02*
X149120330Y-121633223D01*
X127250000Y-86500000D02*
G75*
G03*
X127250000Y-86500000I-750000J0D01*
G01*
X175750000Y-74500000D02*
G75*
G03*
X175750000Y-74500000I-750000J0D01*
G01*
X171750000Y-137000000D02*
G75*
G03*
X171750000Y-137000000I-750000J0D01*
G01*
D14*
X138350000Y-86250000D02*
X138350000Y-115750000D01*
X121050000Y-86250000D02*
X138350000Y-86250000D01*
X121050000Y-115750000D02*
X121050000Y-86250000D01*
X138350000Y-115750000D02*
X121050000Y-115750000D01*
D13*
X126100000Y-76250000D02*
X126100000Y-77250000D01*
X125600000Y-76750000D02*
X126600000Y-76750000D01*
X133825000Y-69750000D02*
X133825000Y-83750000D01*
X118375000Y-83750000D02*
X133825000Y-83750000D01*
X118375000Y-69750000D02*
X133825000Y-69750000D01*
X118375000Y-69750000D02*
X118375000Y-83750000D01*
X136200000Y-78250000D02*
X137200000Y-78250000D01*
X136200000Y-78750000D02*
X136200000Y-78250000D01*
X137200000Y-78750000D02*
X136200000Y-78750000D01*
X137200000Y-78250000D02*
X137200000Y-78750000D01*
X137115000Y-70750000D02*
X137115000Y-71250000D01*
X137115000Y-71250000D02*
X136115000Y-71250000D01*
X136115000Y-71250000D02*
X136115000Y-70750000D01*
X136115000Y-70750000D02*
X137115000Y-70750000D01*
X136200000Y-79450000D02*
X137200000Y-79450000D01*
X136200000Y-79950000D02*
X136200000Y-79450000D01*
X137200000Y-79950000D02*
X136200000Y-79950000D01*
X137200000Y-79450000D02*
X137200000Y-79950000D01*
D14*
X153300000Y-85300000D02*
X152300000Y-84300000D01*
X161000000Y-85300000D02*
X153300000Y-85300000D01*
X161000000Y-81400000D02*
X161000000Y-85300000D01*
X152300000Y-81400000D02*
X161000000Y-81400000D01*
X152300000Y-84300000D02*
X152300000Y-81400000D01*
D13*
X161850000Y-120300000D02*
X161850000Y-121300000D01*
X161350000Y-120300000D02*
X161850000Y-120300000D01*
X161350000Y-121300000D02*
X161350000Y-120300000D01*
X161850000Y-121300000D02*
X161350000Y-121300000D01*
X165150000Y-122250000D02*
X165150000Y-122750000D01*
X165150000Y-122750000D02*
X164150000Y-122750000D01*
X164150000Y-122750000D02*
X164150000Y-122250000D01*
X164150000Y-122250000D02*
X165150000Y-122250000D01*
D14*
X149214285Y-127952380D02*
X149214285Y-126952380D01*
X149547619Y-127666666D01*
X149880952Y-126952380D01*
X149880952Y-127952380D01*
X150500000Y-127952380D02*
X150404761Y-127904761D01*
X150357142Y-127857142D01*
X150309523Y-127761904D01*
X150309523Y-127476190D01*
X150357142Y-127380952D01*
X150404761Y-127333333D01*
X150500000Y-127285714D01*
X150642857Y-127285714D01*
X150738095Y-127333333D01*
X150785714Y-127380952D01*
X150833333Y-127476190D01*
X150833333Y-127761904D01*
X150785714Y-127857142D01*
X150738095Y-127904761D01*
X150642857Y-127952380D01*
X150500000Y-127952380D01*
X151690476Y-127285714D02*
X151690476Y-127952380D01*
X151261904Y-127285714D02*
X151261904Y-127809523D01*
X151309523Y-127904761D01*
X151404761Y-127952380D01*
X151547619Y-127952380D01*
X151642857Y-127904761D01*
X151690476Y-127857142D01*
X152166666Y-127285714D02*
X152166666Y-127952380D01*
X152166666Y-127380952D02*
X152214285Y-127333333D01*
X152309523Y-127285714D01*
X152452380Y-127285714D01*
X152547619Y-127333333D01*
X152595238Y-127428571D01*
X152595238Y-127952380D01*
X152928571Y-127285714D02*
X153309523Y-127285714D01*
X153071428Y-126952380D02*
X153071428Y-127809523D01*
X153119047Y-127904761D01*
X153214285Y-127952380D01*
X153309523Y-127952380D01*
X153642857Y-127952380D02*
X153642857Y-127285714D01*
X153642857Y-126952380D02*
X153595238Y-127000000D01*
X153642857Y-127047619D01*
X153690476Y-127000000D01*
X153642857Y-126952380D01*
X153642857Y-127047619D01*
X154119047Y-127285714D02*
X154119047Y-127952380D01*
X154119047Y-127380952D02*
X154166666Y-127333333D01*
X154261904Y-127285714D01*
X154404761Y-127285714D01*
X154500000Y-127333333D01*
X154547619Y-127428571D01*
X154547619Y-127952380D01*
X155452380Y-127285714D02*
X155452380Y-128095238D01*
X155404761Y-128190476D01*
X155357142Y-128238095D01*
X155261904Y-128285714D01*
X155119047Y-128285714D01*
X155023809Y-128238095D01*
X155452380Y-127904761D02*
X155357142Y-127952380D01*
X155166666Y-127952380D01*
X155071428Y-127904761D01*
X155023809Y-127857142D01*
X154976190Y-127761904D01*
X154976190Y-127476190D01*
X155023809Y-127380952D01*
X155071428Y-127333333D01*
X155166666Y-127285714D01*
X155357142Y-127285714D01*
X155452380Y-127333333D01*
X155928571Y-127952380D02*
X155928571Y-126952380D01*
X155928571Y-127428571D02*
X156500000Y-127428571D01*
X156500000Y-127952380D02*
X156500000Y-126952380D01*
X157119047Y-127952380D02*
X157023809Y-127904761D01*
X156976190Y-127857142D01*
X156928571Y-127761904D01*
X156928571Y-127476190D01*
X156976190Y-127380952D01*
X157023809Y-127333333D01*
X157119047Y-127285714D01*
X157261904Y-127285714D01*
X157357142Y-127333333D01*
X157404761Y-127380952D01*
X157452380Y-127476190D01*
X157452380Y-127761904D01*
X157404761Y-127857142D01*
X157357142Y-127904761D01*
X157261904Y-127952380D01*
X157119047Y-127952380D01*
X158023809Y-127952380D02*
X157928571Y-127904761D01*
X157880952Y-127809523D01*
X157880952Y-126952380D01*
X158785714Y-127904761D02*
X158690476Y-127952380D01*
X158500000Y-127952380D01*
X158404761Y-127904761D01*
X158357142Y-127809523D01*
X158357142Y-127428571D01*
X158404761Y-127333333D01*
X158500000Y-127285714D01*
X158690476Y-127285714D01*
X158785714Y-127333333D01*
X158833333Y-127428571D01*
X158833333Y-127523809D01*
X158357142Y-127619047D01*
D15*
X170753333Y-115524571D02*
X170753333Y-115143619D01*
X170981904Y-115600761D02*
X170181904Y-115334095D01*
X170981904Y-115067428D01*
X170448571Y-114800761D02*
X170981904Y-114800761D01*
X170524761Y-114800761D02*
X170486666Y-114762666D01*
X170448571Y-114686476D01*
X170448571Y-114572190D01*
X170486666Y-114496000D01*
X170562857Y-114457904D01*
X170981904Y-114457904D01*
X170448571Y-114191238D02*
X170448571Y-113886476D01*
X170181904Y-114076952D02*
X170867619Y-114076952D01*
X170943809Y-114038857D01*
X170981904Y-113962666D01*
X170981904Y-113886476D01*
X170943809Y-113315047D02*
X170981904Y-113391238D01*
X170981904Y-113543619D01*
X170943809Y-113619809D01*
X170867619Y-113657904D01*
X170562857Y-113657904D01*
X170486666Y-113619809D01*
X170448571Y-113543619D01*
X170448571Y-113391238D01*
X170486666Y-113315047D01*
X170562857Y-113276952D01*
X170639047Y-113276952D01*
X170715238Y-113657904D01*
X170448571Y-112934095D02*
X170981904Y-112934095D01*
X170524761Y-112934095D02*
X170486666Y-112896000D01*
X170448571Y-112819809D01*
X170448571Y-112705523D01*
X170486666Y-112629333D01*
X170562857Y-112591238D01*
X170981904Y-112591238D01*
X170448571Y-112210285D02*
X170981904Y-112210285D01*
X170524761Y-112210285D02*
X170486666Y-112172190D01*
X170448571Y-112096000D01*
X170448571Y-111981714D01*
X170486666Y-111905523D01*
X170562857Y-111867428D01*
X170981904Y-111867428D01*
X170981904Y-111143619D02*
X170562857Y-111143619D01*
X170486666Y-111181714D01*
X170448571Y-111257904D01*
X170448571Y-111410285D01*
X170486666Y-111486476D01*
X170943809Y-111143619D02*
X170981904Y-111219809D01*
X170981904Y-111410285D01*
X170943809Y-111486476D01*
X170867619Y-111524571D01*
X170791428Y-111524571D01*
X170715238Y-111486476D01*
X170677142Y-111410285D01*
X170677142Y-111219809D01*
X170639047Y-111143619D01*
X171058095Y-110953142D02*
X171058095Y-110343619D01*
X170905714Y-109696000D02*
X170943809Y-109734095D01*
X170981904Y-109848380D01*
X170981904Y-109924571D01*
X170943809Y-110038857D01*
X170867619Y-110115047D01*
X170791428Y-110153142D01*
X170639047Y-110191238D01*
X170524761Y-110191238D01*
X170372380Y-110153142D01*
X170296190Y-110115047D01*
X170220000Y-110038857D01*
X170181904Y-109924571D01*
X170181904Y-109848380D01*
X170220000Y-109734095D01*
X170258095Y-109696000D01*
X170981904Y-109353142D02*
X170181904Y-109353142D01*
X170981904Y-109010285D02*
X170562857Y-109010285D01*
X170486666Y-109048380D01*
X170448571Y-109124571D01*
X170448571Y-109238857D01*
X170486666Y-109315047D01*
X170524761Y-109353142D01*
X170981904Y-108629333D02*
X170448571Y-108629333D01*
X170181904Y-108629333D02*
X170220000Y-108667428D01*
X170258095Y-108629333D01*
X170220000Y-108591238D01*
X170181904Y-108629333D01*
X170258095Y-108629333D01*
X170448571Y-108248380D02*
X171248571Y-108248380D01*
X170486666Y-108248380D02*
X170448571Y-108172190D01*
X170448571Y-108019809D01*
X170486666Y-107943619D01*
X170524761Y-107905523D01*
X170600952Y-107867428D01*
X170829523Y-107867428D01*
X170905714Y-107905523D01*
X170943809Y-107943619D01*
X170981904Y-108019809D01*
X170981904Y-108172190D01*
X170943809Y-108248380D01*
D14*
X149214285Y-137652380D02*
X149214285Y-136652380D01*
X149547619Y-137366666D01*
X149880952Y-136652380D01*
X149880952Y-137652380D01*
X150500000Y-137652380D02*
X150404761Y-137604761D01*
X150357142Y-137557142D01*
X150309523Y-137461904D01*
X150309523Y-137176190D01*
X150357142Y-137080952D01*
X150404761Y-137033333D01*
X150500000Y-136985714D01*
X150642857Y-136985714D01*
X150738095Y-137033333D01*
X150785714Y-137080952D01*
X150833333Y-137176190D01*
X150833333Y-137461904D01*
X150785714Y-137557142D01*
X150738095Y-137604761D01*
X150642857Y-137652380D01*
X150500000Y-137652380D01*
X151690476Y-136985714D02*
X151690476Y-137652380D01*
X151261904Y-136985714D02*
X151261904Y-137509523D01*
X151309523Y-137604761D01*
X151404761Y-137652380D01*
X151547619Y-137652380D01*
X151642857Y-137604761D01*
X151690476Y-137557142D01*
X152166666Y-136985714D02*
X152166666Y-137652380D01*
X152166666Y-137080952D02*
X152214285Y-137033333D01*
X152309523Y-136985714D01*
X152452380Y-136985714D01*
X152547619Y-137033333D01*
X152595238Y-137128571D01*
X152595238Y-137652380D01*
X152928571Y-136985714D02*
X153309523Y-136985714D01*
X153071428Y-136652380D02*
X153071428Y-137509523D01*
X153119047Y-137604761D01*
X153214285Y-137652380D01*
X153309523Y-137652380D01*
X153642857Y-137652380D02*
X153642857Y-136985714D01*
X153642857Y-136652380D02*
X153595238Y-136700000D01*
X153642857Y-136747619D01*
X153690476Y-136700000D01*
X153642857Y-136652380D01*
X153642857Y-136747619D01*
X154119047Y-136985714D02*
X154119047Y-137652380D01*
X154119047Y-137080952D02*
X154166666Y-137033333D01*
X154261904Y-136985714D01*
X154404761Y-136985714D01*
X154500000Y-137033333D01*
X154547619Y-137128571D01*
X154547619Y-137652380D01*
X155452380Y-136985714D02*
X155452380Y-137795238D01*
X155404761Y-137890476D01*
X155357142Y-137938095D01*
X155261904Y-137985714D01*
X155119047Y-137985714D01*
X155023809Y-137938095D01*
X155452380Y-137604761D02*
X155357142Y-137652380D01*
X155166666Y-137652380D01*
X155071428Y-137604761D01*
X155023809Y-137557142D01*
X154976190Y-137461904D01*
X154976190Y-137176190D01*
X155023809Y-137080952D01*
X155071428Y-137033333D01*
X155166666Y-136985714D01*
X155357142Y-136985714D01*
X155452380Y-137033333D01*
X155928571Y-137652380D02*
X155928571Y-136652380D01*
X155928571Y-137128571D02*
X156500000Y-137128571D01*
X156500000Y-137652380D02*
X156500000Y-136652380D01*
X157119047Y-137652380D02*
X157023809Y-137604761D01*
X156976190Y-137557142D01*
X156928571Y-137461904D01*
X156928571Y-137176190D01*
X156976190Y-137080952D01*
X157023809Y-137033333D01*
X157119047Y-136985714D01*
X157261904Y-136985714D01*
X157357142Y-137033333D01*
X157404761Y-137080952D01*
X157452380Y-137176190D01*
X157452380Y-137461904D01*
X157404761Y-137557142D01*
X157357142Y-137604761D01*
X157261904Y-137652380D01*
X157119047Y-137652380D01*
X158023809Y-137652380D02*
X157928571Y-137604761D01*
X157880952Y-137509523D01*
X157880952Y-136652380D01*
X158785714Y-137604761D02*
X158690476Y-137652380D01*
X158500000Y-137652380D01*
X158404761Y-137604761D01*
X158357142Y-137509523D01*
X158357142Y-137128571D01*
X158404761Y-137033333D01*
X158500000Y-136985714D01*
X158690476Y-136985714D01*
X158785714Y-137033333D01*
X158833333Y-137128571D01*
X158833333Y-137223809D01*
X158357142Y-137319047D01*
X152966666Y-134452380D02*
X152966666Y-133452380D01*
X153300000Y-134166666D01*
X153633333Y-133452380D01*
X153633333Y-134452380D01*
X154109523Y-134452380D02*
X154109523Y-133452380D01*
X154109523Y-133928571D02*
X154680952Y-133928571D01*
X154680952Y-134452380D02*
X154680952Y-133452380D01*
X155109523Y-133547619D02*
X155157142Y-133500000D01*
X155252380Y-133452380D01*
X155490476Y-133452380D01*
X155585714Y-133500000D01*
X155633333Y-133547619D01*
X155680952Y-133642857D01*
X155680952Y-133738095D01*
X155633333Y-133880952D01*
X155061904Y-134452380D01*
X155680952Y-134452380D01*
X161732380Y-87545238D02*
X161732380Y-88116666D01*
X161732380Y-87830952D02*
X160732380Y-87830952D01*
X160875238Y-87926190D01*
X160970476Y-88021428D01*
X161018095Y-88116666D01*
X160732380Y-86926190D02*
X160732380Y-86830952D01*
X160780000Y-86735714D01*
X160827619Y-86688095D01*
X160922857Y-86640476D01*
X161113333Y-86592857D01*
X161351428Y-86592857D01*
X161541904Y-86640476D01*
X161637142Y-86688095D01*
X161684761Y-86735714D01*
X161732380Y-86830952D01*
X161732380Y-86926190D01*
X161684761Y-87021428D01*
X161637142Y-87069047D01*
X161541904Y-87116666D01*
X161351428Y-87164285D01*
X161113333Y-87164285D01*
X160922857Y-87116666D01*
X160827619Y-87069047D01*
X160780000Y-87021428D01*
X160732380Y-86926190D01*
X161732380Y-86164285D02*
X160732380Y-86164285D01*
X161351428Y-86069047D02*
X161732380Y-85783333D01*
X161065714Y-85783333D02*
X161446666Y-86164285D01*
D16*
X162563095Y-87110714D02*
X162444047Y-87194047D01*
X162563095Y-87253571D02*
X162313095Y-87253571D01*
X162313095Y-87158333D01*
X162325000Y-87134523D01*
X162336904Y-87122619D01*
X162360714Y-87110714D01*
X162396428Y-87110714D01*
X162420238Y-87122619D01*
X162432142Y-87134523D01*
X162444047Y-87158333D01*
X162444047Y-87253571D01*
X162313095Y-87027380D02*
X162313095Y-86872619D01*
X162408333Y-86955952D01*
X162408333Y-86920238D01*
X162420238Y-86896428D01*
X162432142Y-86884523D01*
X162455952Y-86872619D01*
X162515476Y-86872619D01*
X162539285Y-86884523D01*
X162551190Y-86896428D01*
X162563095Y-86920238D01*
X162563095Y-86991666D01*
X162551190Y-87015476D01*
X162539285Y-87027380D01*
X162396428Y-86658333D02*
X162563095Y-86658333D01*
X162301190Y-86717857D02*
X162479761Y-86777380D01*
X162479761Y-86622619D01*
D14*
X160827619Y-81040476D02*
X160780000Y-80992857D01*
X160732380Y-80897619D01*
X160732380Y-80659523D01*
X160780000Y-80564285D01*
X160827619Y-80516666D01*
X160922857Y-80469047D01*
X161018095Y-80469047D01*
X161160952Y-80516666D01*
X161732380Y-81088095D01*
X161732380Y-80469047D01*
X161732380Y-80040476D02*
X160732380Y-80040476D01*
X161351428Y-79945238D02*
X161732380Y-79659523D01*
X161065714Y-79659523D02*
X161446666Y-80040476D01*
D16*
X162563095Y-80391666D02*
X162444047Y-80475000D01*
X162563095Y-80534523D02*
X162313095Y-80534523D01*
X162313095Y-80439285D01*
X162325000Y-80415476D01*
X162336904Y-80403571D01*
X162360714Y-80391666D01*
X162396428Y-80391666D01*
X162420238Y-80403571D01*
X162432142Y-80415476D01*
X162444047Y-80439285D01*
X162444047Y-80534523D01*
X162563095Y-80153571D02*
X162563095Y-80296428D01*
X162563095Y-80225000D02*
X162313095Y-80225000D01*
X162348809Y-80248809D01*
X162372619Y-80272619D01*
X162384523Y-80296428D01*
D14*
X164222380Y-122823809D02*
X164222380Y-122157142D01*
X165222380Y-122585714D01*
X165127142Y-121776190D02*
X165174761Y-121728571D01*
X165222380Y-121776190D01*
X165174761Y-121823809D01*
X165127142Y-121776190D01*
X165222380Y-121776190D01*
X164222380Y-120823809D02*
X164222380Y-121300000D01*
X164698571Y-121347619D01*
X164650952Y-121300000D01*
X164603333Y-121204761D01*
X164603333Y-120966666D01*
X164650952Y-120871428D01*
X164698571Y-120823809D01*
X164793809Y-120776190D01*
X165031904Y-120776190D01*
X165127142Y-120823809D01*
X165174761Y-120871428D01*
X165222380Y-120966666D01*
X165222380Y-121204761D01*
X165174761Y-121300000D01*
X165127142Y-121347619D01*
X164555714Y-120347619D02*
X165222380Y-120347619D01*
X164650952Y-120347619D02*
X164603333Y-120300000D01*
X164555714Y-120204761D01*
X164555714Y-120061904D01*
X164603333Y-119966666D01*
X164698571Y-119919047D01*
X165222380Y-119919047D01*
X165222380Y-119442857D02*
X164222380Y-119442857D01*
X164698571Y-119442857D02*
X164698571Y-118871428D01*
X165222380Y-118871428D02*
X164222380Y-118871428D01*
D16*
X163713095Y-120841666D02*
X163713095Y-120960714D01*
X163463095Y-120960714D01*
X163486904Y-120770238D02*
X163475000Y-120758333D01*
X163463095Y-120734523D01*
X163463095Y-120675000D01*
X163475000Y-120651190D01*
X163486904Y-120639285D01*
X163510714Y-120627380D01*
X163534523Y-120627380D01*
X163570238Y-120639285D01*
X163713095Y-120782142D01*
X163713095Y-120627380D01*
D14*
X154055142Y-125190476D02*
X154102761Y-125238095D01*
X154150380Y-125380952D01*
X154150380Y-125476190D01*
X154102761Y-125619047D01*
X154007523Y-125714285D01*
X153912285Y-125761904D01*
X153721809Y-125809523D01*
X153578952Y-125809523D01*
X153388476Y-125761904D01*
X153293238Y-125714285D01*
X153198000Y-125619047D01*
X153150380Y-125476190D01*
X153150380Y-125380952D01*
X153198000Y-125238095D01*
X153245619Y-125190476D01*
X154150380Y-124619047D02*
X154102761Y-124714285D01*
X154055142Y-124761904D01*
X153959904Y-124809523D01*
X153674190Y-124809523D01*
X153578952Y-124761904D01*
X153531333Y-124714285D01*
X153483714Y-124619047D01*
X153483714Y-124476190D01*
X153531333Y-124380952D01*
X153578952Y-124333333D01*
X153674190Y-124285714D01*
X153959904Y-124285714D01*
X154055142Y-124333333D01*
X154102761Y-124380952D01*
X154150380Y-124476190D01*
X154150380Y-124619047D01*
X153483714Y-123857142D02*
X154150380Y-123857142D01*
X153578952Y-123857142D02*
X153531333Y-123809523D01*
X153483714Y-123714285D01*
X153483714Y-123571428D01*
X153531333Y-123476190D01*
X153626571Y-123428571D01*
X154150380Y-123428571D01*
X153483714Y-122952380D02*
X154150380Y-122952380D01*
X153578952Y-122952380D02*
X153531333Y-122904761D01*
X153483714Y-122809523D01*
X153483714Y-122666666D01*
X153531333Y-122571428D01*
X153626571Y-122523809D01*
X154150380Y-122523809D01*
X154245619Y-122285714D02*
X154245619Y-121523809D01*
X154055142Y-120714285D02*
X154102761Y-120761904D01*
X154150380Y-120904761D01*
X154150380Y-121000000D01*
X154102761Y-121142857D01*
X154007523Y-121238095D01*
X153912285Y-121285714D01*
X153721809Y-121333333D01*
X153578952Y-121333333D01*
X153388476Y-121285714D01*
X153293238Y-121238095D01*
X153198000Y-121142857D01*
X153150380Y-121000000D01*
X153150380Y-120904761D01*
X153198000Y-120761904D01*
X153245619Y-120714285D01*
X154150380Y-120142857D02*
X154102761Y-120238095D01*
X154055142Y-120285714D01*
X153959904Y-120333333D01*
X153674190Y-120333333D01*
X153578952Y-120285714D01*
X153531333Y-120238095D01*
X153483714Y-120142857D01*
X153483714Y-120000000D01*
X153531333Y-119904761D01*
X153578952Y-119857142D01*
X153674190Y-119809523D01*
X153959904Y-119809523D01*
X154055142Y-119857142D01*
X154102761Y-119904761D01*
X154150380Y-120000000D01*
X154150380Y-120142857D01*
X154150380Y-118952380D02*
X153626571Y-118952380D01*
X153531333Y-119000000D01*
X153483714Y-119095238D01*
X153483714Y-119285714D01*
X153531333Y-119380952D01*
X154102761Y-118952380D02*
X154150380Y-119047619D01*
X154150380Y-119285714D01*
X154102761Y-119380952D01*
X154007523Y-119428571D01*
X153912285Y-119428571D01*
X153817047Y-119380952D01*
X153769428Y-119285714D01*
X153769428Y-119047619D01*
X153721809Y-118952380D01*
X154150380Y-118571428D02*
X153483714Y-118047619D01*
X153483714Y-118571428D02*
X154150380Y-118047619D01*
X154150380Y-117666666D02*
X153483714Y-117666666D01*
X153150380Y-117666666D02*
X153198000Y-117714285D01*
X153245619Y-117666666D01*
X153198000Y-117619047D01*
X153150380Y-117666666D01*
X153245619Y-117666666D01*
X154150380Y-116761904D02*
X153626571Y-116761904D01*
X153531333Y-116809523D01*
X153483714Y-116904761D01*
X153483714Y-117095238D01*
X153531333Y-117190476D01*
X154102761Y-116761904D02*
X154150380Y-116857142D01*
X154150380Y-117095238D01*
X154102761Y-117190476D01*
X154007523Y-117238095D01*
X153912285Y-117238095D01*
X153817047Y-117190476D01*
X153769428Y-117095238D01*
X153769428Y-116857142D01*
X153721809Y-116761904D01*
X154150380Y-116142857D02*
X154102761Y-116238095D01*
X154007523Y-116285714D01*
X153150380Y-116285714D01*
X159952380Y-121333333D02*
X160666666Y-121333333D01*
X160809523Y-121380952D01*
X160904761Y-121476190D01*
X160952380Y-121619047D01*
X160952380Y-121714285D01*
X160952380Y-120333333D02*
X160952380Y-120904761D01*
X160952380Y-120619047D02*
X159952380Y-120619047D01*
X160095238Y-120714285D01*
X160190476Y-120809523D01*
X160238095Y-120904761D01*
X159192857Y-121687142D02*
X159240476Y-121734761D01*
X159192857Y-121782380D01*
X159145238Y-121734761D01*
X159192857Y-121687142D01*
X159192857Y-121782380D01*
X160145238Y-120782380D02*
X159669047Y-120782380D01*
X159621428Y-121258571D01*
X159669047Y-121210952D01*
X159764285Y-121163333D01*
X160002380Y-121163333D01*
X160097619Y-121210952D01*
X160145238Y-121258571D01*
X160192857Y-121353809D01*
X160192857Y-121591904D01*
X160145238Y-121687142D01*
X160097619Y-121734761D01*
X160002380Y-121782380D01*
X159764285Y-121782380D01*
X159669047Y-121734761D01*
X159621428Y-121687142D01*
X160621428Y-121115714D02*
X160621428Y-122115714D01*
X160621428Y-121163333D02*
X160716666Y-121115714D01*
X160907142Y-121115714D01*
X161002380Y-121163333D01*
X161050000Y-121210952D01*
X161097619Y-121306190D01*
X161097619Y-121591904D01*
X161050000Y-121687142D01*
X161002380Y-121734761D01*
X160907142Y-121782380D01*
X160716666Y-121782380D01*
X160621428Y-121734761D01*
X161859523Y-121258571D02*
X161526190Y-121258571D01*
X161526190Y-121782380D02*
X161526190Y-120782380D01*
X162002380Y-120782380D01*
D16*
X160508333Y-122589285D02*
X160496428Y-122601190D01*
X160460714Y-122613095D01*
X160436904Y-122613095D01*
X160401190Y-122601190D01*
X160377380Y-122577380D01*
X160365476Y-122553571D01*
X160353571Y-122505952D01*
X160353571Y-122470238D01*
X160365476Y-122422619D01*
X160377380Y-122398809D01*
X160401190Y-122375000D01*
X160436904Y-122363095D01*
X160460714Y-122363095D01*
X160496428Y-122375000D01*
X160508333Y-122386904D01*
X160591666Y-122363095D02*
X160758333Y-122363095D01*
X160651190Y-122613095D01*
D14*
X160669047Y-120877619D02*
X160716666Y-120830000D01*
X160811904Y-120782380D01*
X161050000Y-120782380D01*
X161145238Y-120830000D01*
X161192857Y-120877619D01*
X161240476Y-120972857D01*
X161240476Y-121068095D01*
X161192857Y-121210952D01*
X160621428Y-121782380D01*
X161240476Y-121782380D01*
X161669047Y-121687142D02*
X161716666Y-121734761D01*
X161669047Y-121782380D01*
X161621428Y-121734761D01*
X161669047Y-121687142D01*
X161669047Y-121782380D01*
X162050000Y-120782380D02*
X162716666Y-120782380D01*
X162288095Y-121782380D01*
X163097619Y-121115714D02*
X163097619Y-122115714D01*
X163097619Y-121163333D02*
X163192857Y-121115714D01*
X163383333Y-121115714D01*
X163478571Y-121163333D01*
X163526190Y-121210952D01*
X163573809Y-121306190D01*
X163573809Y-121591904D01*
X163526190Y-121687142D01*
X163478571Y-121734761D01*
X163383333Y-121782380D01*
X163192857Y-121782380D01*
X163097619Y-121734761D01*
X164335714Y-121258571D02*
X164002380Y-121258571D01*
X164002380Y-121782380D02*
X164002380Y-120782380D01*
X164478571Y-120782380D01*
D16*
X162508333Y-122589285D02*
X162496428Y-122601190D01*
X162460714Y-122613095D01*
X162436904Y-122613095D01*
X162401190Y-122601190D01*
X162377380Y-122577380D01*
X162365476Y-122553571D01*
X162353571Y-122505952D01*
X162353571Y-122470238D01*
X162365476Y-122422619D01*
X162377380Y-122398809D01*
X162401190Y-122375000D01*
X162436904Y-122363095D01*
X162460714Y-122363095D01*
X162496428Y-122375000D01*
X162508333Y-122386904D01*
X162722619Y-122363095D02*
X162675000Y-122363095D01*
X162651190Y-122375000D01*
X162639285Y-122386904D01*
X162615476Y-122422619D01*
X162603571Y-122470238D01*
X162603571Y-122565476D01*
X162615476Y-122589285D01*
X162627380Y-122601190D01*
X162651190Y-122613095D01*
X162698809Y-122613095D01*
X162722619Y-122601190D01*
X162734523Y-122589285D01*
X162746428Y-122565476D01*
X162746428Y-122505952D01*
X162734523Y-122482142D01*
X162722619Y-122470238D01*
X162698809Y-122458333D01*
X162651190Y-122458333D01*
X162627380Y-122470238D01*
X162615476Y-122482142D01*
X162603571Y-122505952D01*
D14*
X146229334Y-123822990D02*
X146700738Y-124294394D01*
X145791601Y-123721974D02*
X146128318Y-124395409D01*
X146566051Y-123957677D01*
X146296677Y-123284242D02*
X146768082Y-122812837D01*
X147172143Y-123822990D01*
X147273158Y-122779165D02*
X147980265Y-123486272D01*
X147306830Y-122812837D02*
X147340501Y-122711822D01*
X147475188Y-122577135D01*
X147576204Y-122543463D01*
X147643547Y-122543463D01*
X147744562Y-122577135D01*
X147946593Y-122779165D01*
X147980265Y-122880181D01*
X147980265Y-122947524D01*
X147946593Y-123048539D01*
X147811906Y-123183226D01*
X147710891Y-123216898D01*
X148249639Y-122004715D02*
X148013936Y-122240417D01*
X148384326Y-122610807D02*
X147677219Y-121903700D01*
X148013936Y-121566982D01*
X148754715Y-120758860D02*
X149057761Y-122274089D01*
X149360807Y-120220112D02*
X149024089Y-120556830D01*
X149327135Y-120927219D01*
X149327135Y-120859875D01*
X149360807Y-120758860D01*
X149529165Y-120590501D01*
X149630181Y-120556830D01*
X149697524Y-120556830D01*
X149798539Y-120590501D01*
X149966898Y-120758860D01*
X150000570Y-120859875D01*
X150000570Y-120927219D01*
X149966898Y-121028234D01*
X149798539Y-121196593D01*
X149697524Y-121230265D01*
X149630181Y-121230265D01*
X149832211Y-119748708D02*
X149899555Y-119681364D01*
X150000570Y-119647692D01*
X150067913Y-119647692D01*
X150168929Y-119681364D01*
X150337287Y-119782379D01*
X150505646Y-119950738D01*
X150606661Y-120119097D01*
X150640333Y-120220112D01*
X150640333Y-120287456D01*
X150606661Y-120388471D01*
X150539318Y-120455814D01*
X150438303Y-120489486D01*
X150370959Y-120489486D01*
X150269944Y-120455814D01*
X150101585Y-120354799D01*
X149933226Y-120186440D01*
X149832211Y-120018082D01*
X149798539Y-119917066D01*
X149798539Y-119849723D01*
X149832211Y-119748708D01*
X150269944Y-119310975D02*
X151212753Y-119782379D01*
X150741348Y-118839570D01*
D16*
X149413671Y-122722597D02*
X149413671Y-122739433D01*
X149396835Y-122773104D01*
X149380000Y-122789940D01*
X149346328Y-122806776D01*
X149312656Y-122806776D01*
X149287402Y-122798358D01*
X149245312Y-122773104D01*
X149220059Y-122747851D01*
X149194805Y-122705761D01*
X149186387Y-122680507D01*
X149186387Y-122646835D01*
X149203223Y-122613164D01*
X149220059Y-122596328D01*
X149253730Y-122579492D01*
X149270566Y-122579492D01*
X149464179Y-122470059D02*
X149582030Y-122587910D01*
X149354746Y-122444805D02*
X149438925Y-122613164D01*
X149548358Y-122503730D01*
D14*
X144831364Y-122933768D02*
X144427303Y-123337829D01*
X144629334Y-123135799D02*
X143922227Y-122428692D01*
X143955899Y-122597051D01*
X143955899Y-122731738D01*
X143922227Y-122832753D01*
X144561990Y-121788929D02*
X144629334Y-121721585D01*
X144730349Y-121687913D01*
X144797692Y-121687913D01*
X144898708Y-121721585D01*
X145067066Y-121822600D01*
X145235425Y-121990959D01*
X145336440Y-122159318D01*
X145370112Y-122260333D01*
X145370112Y-122327677D01*
X145336440Y-122428692D01*
X145269097Y-122496035D01*
X145168082Y-122529707D01*
X145100738Y-122529707D01*
X144999723Y-122496035D01*
X144831364Y-122395020D01*
X144663005Y-122226661D01*
X144561990Y-122058303D01*
X144528318Y-121957287D01*
X144528318Y-121889944D01*
X144561990Y-121788929D01*
X145235425Y-121115494D02*
X145302769Y-121048150D01*
X145403784Y-121014478D01*
X145471127Y-121014478D01*
X145572143Y-121048150D01*
X145740501Y-121149165D01*
X145908860Y-121317524D01*
X146009875Y-121485883D01*
X146043547Y-121586898D01*
X146043547Y-121654242D01*
X146009875Y-121755257D01*
X145942532Y-121822600D01*
X145841517Y-121856272D01*
X145774173Y-121856272D01*
X145673158Y-121822600D01*
X145504799Y-121721585D01*
X145336440Y-121553226D01*
X145235425Y-121384868D01*
X145201753Y-121283852D01*
X145201753Y-121216509D01*
X145235425Y-121115494D01*
X146009875Y-120812448D02*
X146481280Y-121283852D01*
X146077219Y-120879791D02*
X146077219Y-120812448D01*
X146110891Y-120711433D01*
X146211906Y-120610417D01*
X146312921Y-120576746D01*
X146413936Y-120610417D01*
X146784326Y-120980807D01*
X146986356Y-120037997D02*
X146750654Y-120273700D01*
X147121043Y-120644089D02*
X146413936Y-119936982D01*
X146750654Y-119600265D01*
X147491433Y-118792143D02*
X147794478Y-120307372D01*
X148838303Y-118926830D02*
X148434242Y-119330891D01*
X148636272Y-119128860D02*
X147929165Y-118421753D01*
X147962837Y-118590112D01*
X147962837Y-118724799D01*
X147929165Y-118825814D01*
X148737287Y-117613631D02*
X148602600Y-117748318D01*
X148568929Y-117849334D01*
X148568929Y-117916677D01*
X148602600Y-118085036D01*
X148703616Y-118253395D01*
X148972990Y-118522769D01*
X149074005Y-118556440D01*
X149141348Y-118556440D01*
X149242364Y-118522769D01*
X149377051Y-118388082D01*
X149410722Y-118287066D01*
X149410722Y-118219723D01*
X149377051Y-118118708D01*
X149208692Y-117950349D01*
X149107677Y-117916677D01*
X149040333Y-117916677D01*
X148939318Y-117950349D01*
X148804631Y-118085036D01*
X148770959Y-118186051D01*
X148770959Y-118253395D01*
X148804631Y-118354410D01*
X149006661Y-117344257D02*
X149949470Y-117815662D01*
X149478066Y-116872853D01*
D16*
X147813671Y-121092597D02*
X147813671Y-121109433D01*
X147796835Y-121143104D01*
X147780000Y-121159940D01*
X147746328Y-121176776D01*
X147712656Y-121176776D01*
X147687402Y-121168358D01*
X147645312Y-121143104D01*
X147620059Y-121117851D01*
X147594805Y-121075761D01*
X147586387Y-121050507D01*
X147586387Y-121016835D01*
X147603223Y-120983164D01*
X147620059Y-120966328D01*
X147653730Y-120949492D01*
X147670566Y-120949492D01*
X147813671Y-120772715D02*
X147729492Y-120856895D01*
X147805253Y-120949492D01*
X147805253Y-120932656D01*
X147813671Y-120907402D01*
X147855761Y-120865312D01*
X147881015Y-120856895D01*
X147897851Y-120856895D01*
X147923104Y-120865312D01*
X147965194Y-120907402D01*
X147973612Y-120932656D01*
X147973612Y-120949492D01*
X147965194Y-120974746D01*
X147923104Y-121016835D01*
X147897851Y-121025253D01*
X147881015Y-121025253D01*
D14*
X148892857Y-78437142D02*
X148940476Y-78484761D01*
X148892857Y-78532380D01*
X148845238Y-78484761D01*
X148892857Y-78437142D01*
X148892857Y-78532380D01*
X149892857Y-78532380D02*
X149321428Y-78532380D01*
X149607142Y-78532380D02*
X149607142Y-77532380D01*
X149511904Y-77675238D01*
X149416666Y-77770476D01*
X149321428Y-77818095D01*
X150750000Y-77865714D02*
X150750000Y-78532380D01*
X150321428Y-77865714D02*
X150321428Y-78389523D01*
X150369047Y-78484761D01*
X150464285Y-78532380D01*
X150607142Y-78532380D01*
X150702380Y-78484761D01*
X150750000Y-78437142D01*
X151559523Y-78008571D02*
X151226190Y-78008571D01*
X151226190Y-78532380D02*
X151226190Y-77532380D01*
X151702380Y-77532380D01*
D16*
X150089285Y-79339285D02*
X150077380Y-79351190D01*
X150041666Y-79363095D01*
X150017857Y-79363095D01*
X149982142Y-79351190D01*
X149958333Y-79327380D01*
X149946428Y-79303571D01*
X149934523Y-79255952D01*
X149934523Y-79220238D01*
X149946428Y-79172619D01*
X149958333Y-79148809D01*
X149982142Y-79125000D01*
X150017857Y-79113095D01*
X150041666Y-79113095D01*
X150077380Y-79125000D01*
X150089285Y-79136904D01*
X150303571Y-79196428D02*
X150303571Y-79363095D01*
X150244047Y-79101190D02*
X150184523Y-79279761D01*
X150339285Y-79279761D01*
X150541666Y-79196428D02*
X150541666Y-79363095D01*
X150482142Y-79101190D02*
X150422619Y-79279761D01*
X150577380Y-79279761D01*
D14*
X148892857Y-86187142D02*
X148940476Y-86234761D01*
X148892857Y-86282380D01*
X148845238Y-86234761D01*
X148892857Y-86187142D01*
X148892857Y-86282380D01*
X149892857Y-86282380D02*
X149321428Y-86282380D01*
X149607142Y-86282380D02*
X149607142Y-85282380D01*
X149511904Y-85425238D01*
X149416666Y-85520476D01*
X149321428Y-85568095D01*
X150750000Y-85615714D02*
X150750000Y-86282380D01*
X150321428Y-85615714D02*
X150321428Y-86139523D01*
X150369047Y-86234761D01*
X150464285Y-86282380D01*
X150607142Y-86282380D01*
X150702380Y-86234761D01*
X150750000Y-86187142D01*
X151559523Y-85758571D02*
X151226190Y-85758571D01*
X151226190Y-86282380D02*
X151226190Y-85282380D01*
X151702380Y-85282380D01*
D16*
X150089285Y-87089285D02*
X150077380Y-87101190D01*
X150041666Y-87113095D01*
X150017857Y-87113095D01*
X149982142Y-87101190D01*
X149958333Y-87077380D01*
X149946428Y-87053571D01*
X149934523Y-87005952D01*
X149934523Y-86970238D01*
X149946428Y-86922619D01*
X149958333Y-86898809D01*
X149982142Y-86875000D01*
X150017857Y-86863095D01*
X150041666Y-86863095D01*
X150077380Y-86875000D01*
X150089285Y-86886904D01*
X150303571Y-86946428D02*
X150303571Y-87113095D01*
X150244047Y-86851190D02*
X150184523Y-87029761D01*
X150339285Y-87029761D01*
X150553571Y-86863095D02*
X150434523Y-86863095D01*
X150422619Y-86982142D01*
X150434523Y-86970238D01*
X150458333Y-86958333D01*
X150517857Y-86958333D01*
X150541666Y-86970238D01*
X150553571Y-86982142D01*
X150565476Y-87005952D01*
X150565476Y-87065476D01*
X150553571Y-87089285D01*
X150541666Y-87101190D01*
X150517857Y-87113095D01*
X150458333Y-87113095D01*
X150434523Y-87101190D01*
X150422619Y-87089285D01*
D14*
X146718860Y-122666272D02*
X146011753Y-121959165D01*
X146180112Y-121790807D01*
X146314799Y-121723463D01*
X146449486Y-121723463D01*
X146550501Y-121757135D01*
X146718860Y-121858150D01*
X146819875Y-121959165D01*
X146920891Y-122127524D01*
X146954562Y-122228539D01*
X146954562Y-122363226D01*
X146887219Y-122497913D01*
X146718860Y-122666272D01*
X147324952Y-122194868D02*
X147863700Y-121656120D01*
X147156593Y-120814326D02*
X147560654Y-120410265D01*
X148065730Y-121319402D02*
X147358623Y-120612295D01*
X147695341Y-120275578D02*
X148638150Y-120746982D01*
X148166746Y-119804173D01*
X149042211Y-120275578D02*
X149176898Y-120208234D01*
X149345257Y-120039875D01*
X149378929Y-119938860D01*
X149378929Y-119871517D01*
X149345257Y-119770501D01*
X149277913Y-119703158D01*
X149176898Y-119669486D01*
X149109555Y-119669486D01*
X149008539Y-119703158D01*
X148840181Y-119804173D01*
X148739165Y-119837845D01*
X148671822Y-119837845D01*
X148570807Y-119804173D01*
X148503463Y-119736830D01*
X148469791Y-119635814D01*
X148469791Y-119568471D01*
X148503463Y-119467456D01*
X148671822Y-119299097D01*
X148806509Y-119231753D01*
D16*
X148539492Y-122020448D02*
X148362715Y-121843671D01*
X148404805Y-121801582D01*
X148438477Y-121784746D01*
X148472148Y-121784746D01*
X148497402Y-121793164D01*
X148539492Y-121818417D01*
X148564746Y-121843671D01*
X148590000Y-121885761D01*
X148598417Y-121911015D01*
X148598417Y-121944687D01*
X148581582Y-121978358D01*
X148539492Y-122020448D01*
X148674179Y-121650059D02*
X148792030Y-121767910D01*
X148564746Y-121624805D02*
X148648925Y-121793164D01*
X148758358Y-121683730D01*
D14*
X124119047Y-88428571D02*
X123785714Y-88428571D01*
X123785714Y-88952380D02*
X123785714Y-87952380D01*
X124261904Y-87952380D01*
X124642857Y-88952380D02*
X124642857Y-88285714D01*
X124642857Y-87952380D02*
X124595238Y-88000000D01*
X124642857Y-88047619D01*
X124690476Y-88000000D01*
X124642857Y-87952380D01*
X124642857Y-88047619D01*
X125547619Y-88952380D02*
X125547619Y-87952380D01*
X125547619Y-88904761D02*
X125452380Y-88952380D01*
X125261904Y-88952380D01*
X125166666Y-88904761D01*
X125119047Y-88857142D01*
X125071428Y-88761904D01*
X125071428Y-88476190D01*
X125119047Y-88380952D01*
X125166666Y-88333333D01*
X125261904Y-88285714D01*
X125452380Y-88285714D01*
X125547619Y-88333333D01*
X126452380Y-88285714D02*
X126452380Y-88952380D01*
X126023809Y-88285714D02*
X126023809Y-88809523D01*
X126071428Y-88904761D01*
X126166666Y-88952380D01*
X126309523Y-88952380D01*
X126404761Y-88904761D01*
X126452380Y-88857142D01*
X127357142Y-88904761D02*
X127261904Y-88952380D01*
X127071428Y-88952380D01*
X126976190Y-88904761D01*
X126928571Y-88857142D01*
X126880952Y-88761904D01*
X126880952Y-88476190D01*
X126928571Y-88380952D01*
X126976190Y-88333333D01*
X127071428Y-88285714D01*
X127261904Y-88285714D01*
X127357142Y-88333333D01*
X127785714Y-88952380D02*
X127785714Y-88285714D01*
X127785714Y-87952380D02*
X127738095Y-88000000D01*
X127785714Y-88047619D01*
X127833333Y-88000000D01*
X127785714Y-87952380D01*
X127785714Y-88047619D01*
X128690476Y-88952380D02*
X128690476Y-88428571D01*
X128642857Y-88333333D01*
X128547619Y-88285714D01*
X128357142Y-88285714D01*
X128261904Y-88333333D01*
X128690476Y-88904761D02*
X128595238Y-88952380D01*
X128357142Y-88952380D01*
X128261904Y-88904761D01*
X128214285Y-88809523D01*
X128214285Y-88714285D01*
X128261904Y-88619047D01*
X128357142Y-88571428D01*
X128595238Y-88571428D01*
X128690476Y-88523809D01*
X129309523Y-88952380D02*
X129214285Y-88904761D01*
X129166666Y-88809523D01*
X129166666Y-87952380D01*
D17*
X126178571Y-86478571D02*
X126078571Y-86478571D01*
X126078571Y-86635714D02*
X126078571Y-86335714D01*
X126221428Y-86335714D01*
X126335714Y-86635714D02*
X126335714Y-86335714D01*
X126478571Y-86635714D02*
X126478571Y-86335714D01*
X126550000Y-86335714D01*
X126592857Y-86350000D01*
X126621428Y-86378571D01*
X126635714Y-86407142D01*
X126650000Y-86464285D01*
X126650000Y-86507142D01*
X126635714Y-86564285D01*
X126621428Y-86592857D01*
X126592857Y-86621428D01*
X126550000Y-86635714D01*
X126478571Y-86635714D01*
X126935714Y-86635714D02*
X126764285Y-86635714D01*
X126850000Y-86635714D02*
X126850000Y-86335714D01*
X126821428Y-86378571D01*
X126792857Y-86407142D01*
X126764285Y-86421428D01*
D14*
X172619047Y-76428571D02*
X172285714Y-76428571D01*
X172285714Y-76952380D02*
X172285714Y-75952380D01*
X172761904Y-75952380D01*
X173142857Y-76952380D02*
X173142857Y-76285714D01*
X173142857Y-75952380D02*
X173095238Y-76000000D01*
X173142857Y-76047619D01*
X173190476Y-76000000D01*
X173142857Y-75952380D01*
X173142857Y-76047619D01*
X174047619Y-76952380D02*
X174047619Y-75952380D01*
X174047619Y-76904761D02*
X173952380Y-76952380D01*
X173761904Y-76952380D01*
X173666666Y-76904761D01*
X173619047Y-76857142D01*
X173571428Y-76761904D01*
X173571428Y-76476190D01*
X173619047Y-76380952D01*
X173666666Y-76333333D01*
X173761904Y-76285714D01*
X173952380Y-76285714D01*
X174047619Y-76333333D01*
X174952380Y-76285714D02*
X174952380Y-76952380D01*
X174523809Y-76285714D02*
X174523809Y-76809523D01*
X174571428Y-76904761D01*
X174666666Y-76952380D01*
X174809523Y-76952380D01*
X174904761Y-76904761D01*
X174952380Y-76857142D01*
X175857142Y-76904761D02*
X175761904Y-76952380D01*
X175571428Y-76952380D01*
X175476190Y-76904761D01*
X175428571Y-76857142D01*
X175380952Y-76761904D01*
X175380952Y-76476190D01*
X175428571Y-76380952D01*
X175476190Y-76333333D01*
X175571428Y-76285714D01*
X175761904Y-76285714D01*
X175857142Y-76333333D01*
X176285714Y-76952380D02*
X176285714Y-76285714D01*
X176285714Y-75952380D02*
X176238095Y-76000000D01*
X176285714Y-76047619D01*
X176333333Y-76000000D01*
X176285714Y-75952380D01*
X176285714Y-76047619D01*
X177190476Y-76952380D02*
X177190476Y-76428571D01*
X177142857Y-76333333D01*
X177047619Y-76285714D01*
X176857142Y-76285714D01*
X176761904Y-76333333D01*
X177190476Y-76904761D02*
X177095238Y-76952380D01*
X176857142Y-76952380D01*
X176761904Y-76904761D01*
X176714285Y-76809523D01*
X176714285Y-76714285D01*
X176761904Y-76619047D01*
X176857142Y-76571428D01*
X177095238Y-76571428D01*
X177190476Y-76523809D01*
X177809523Y-76952380D02*
X177714285Y-76904761D01*
X177666666Y-76809523D01*
X177666666Y-75952380D01*
D17*
X174678571Y-74478571D02*
X174578571Y-74478571D01*
X174578571Y-74635714D02*
X174578571Y-74335714D01*
X174721428Y-74335714D01*
X174835714Y-74635714D02*
X174835714Y-74335714D01*
X174978571Y-74635714D02*
X174978571Y-74335714D01*
X175050000Y-74335714D01*
X175092857Y-74350000D01*
X175121428Y-74378571D01*
X175135714Y-74407142D01*
X175150000Y-74464285D01*
X175150000Y-74507142D01*
X175135714Y-74564285D01*
X175121428Y-74592857D01*
X175092857Y-74621428D01*
X175050000Y-74635714D01*
X174978571Y-74635714D01*
X175264285Y-74364285D02*
X175278571Y-74350000D01*
X175307142Y-74335714D01*
X175378571Y-74335714D01*
X175407142Y-74350000D01*
X175421428Y-74364285D01*
X175435714Y-74392857D01*
X175435714Y-74421428D01*
X175421428Y-74464285D01*
X175250000Y-74635714D01*
X175435714Y-74635714D01*
D14*
X168619047Y-138928571D02*
X168285714Y-138928571D01*
X168285714Y-139452380D02*
X168285714Y-138452380D01*
X168761904Y-138452380D01*
X169142857Y-139452380D02*
X169142857Y-138785714D01*
X169142857Y-138452380D02*
X169095238Y-138500000D01*
X169142857Y-138547619D01*
X169190476Y-138500000D01*
X169142857Y-138452380D01*
X169142857Y-138547619D01*
X170047619Y-139452380D02*
X170047619Y-138452380D01*
X170047619Y-139404761D02*
X169952380Y-139452380D01*
X169761904Y-139452380D01*
X169666666Y-139404761D01*
X169619047Y-139357142D01*
X169571428Y-139261904D01*
X169571428Y-138976190D01*
X169619047Y-138880952D01*
X169666666Y-138833333D01*
X169761904Y-138785714D01*
X169952380Y-138785714D01*
X170047619Y-138833333D01*
X170952380Y-138785714D02*
X170952380Y-139452380D01*
X170523809Y-138785714D02*
X170523809Y-139309523D01*
X170571428Y-139404761D01*
X170666666Y-139452380D01*
X170809523Y-139452380D01*
X170904761Y-139404761D01*
X170952380Y-139357142D01*
X171857142Y-139404761D02*
X171761904Y-139452380D01*
X171571428Y-139452380D01*
X171476190Y-139404761D01*
X171428571Y-139357142D01*
X171380952Y-139261904D01*
X171380952Y-138976190D01*
X171428571Y-138880952D01*
X171476190Y-138833333D01*
X171571428Y-138785714D01*
X171761904Y-138785714D01*
X171857142Y-138833333D01*
X172285714Y-139452380D02*
X172285714Y-138785714D01*
X172285714Y-138452380D02*
X172238095Y-138500000D01*
X172285714Y-138547619D01*
X172333333Y-138500000D01*
X172285714Y-138452380D01*
X172285714Y-138547619D01*
X173190476Y-139452380D02*
X173190476Y-138928571D01*
X173142857Y-138833333D01*
X173047619Y-138785714D01*
X172857142Y-138785714D01*
X172761904Y-138833333D01*
X173190476Y-139404761D02*
X173095238Y-139452380D01*
X172857142Y-139452380D01*
X172761904Y-139404761D01*
X172714285Y-139309523D01*
X172714285Y-139214285D01*
X172761904Y-139119047D01*
X172857142Y-139071428D01*
X173095238Y-139071428D01*
X173190476Y-139023809D01*
X173809523Y-139452380D02*
X173714285Y-139404761D01*
X173666666Y-139309523D01*
X173666666Y-138452380D01*
D17*
X170678571Y-136978571D02*
X170578571Y-136978571D01*
X170578571Y-137135714D02*
X170578571Y-136835714D01*
X170721428Y-136835714D01*
X170835714Y-137135714D02*
X170835714Y-136835714D01*
X170978571Y-137135714D02*
X170978571Y-136835714D01*
X171050000Y-136835714D01*
X171092857Y-136850000D01*
X171121428Y-136878571D01*
X171135714Y-136907142D01*
X171150000Y-136964285D01*
X171150000Y-137007142D01*
X171135714Y-137064285D01*
X171121428Y-137092857D01*
X171092857Y-137121428D01*
X171050000Y-137135714D01*
X170978571Y-137135714D01*
X171250000Y-136835714D02*
X171435714Y-136835714D01*
X171335714Y-136950000D01*
X171378571Y-136950000D01*
X171407142Y-136964285D01*
X171421428Y-136978571D01*
X171435714Y-137007142D01*
X171435714Y-137078571D01*
X171421428Y-137107142D01*
X171407142Y-137121428D01*
X171378571Y-137135714D01*
X171292857Y-137135714D01*
X171264285Y-137121428D01*
X171250000Y-137107142D01*
D15*
X117787414Y-108602474D02*
X116186949Y-108602474D01*
X117330139Y-108068986D01*
X116186949Y-107535497D01*
X117787414Y-107535497D01*
X117787414Y-106773371D02*
X116720438Y-106773371D01*
X116186949Y-106773371D02*
X116263162Y-106849584D01*
X116339375Y-106773371D01*
X116263162Y-106697159D01*
X116186949Y-106773371D01*
X116339375Y-106773371D01*
X117711202Y-105325331D02*
X117787414Y-105477757D01*
X117787414Y-105782607D01*
X117711202Y-105935032D01*
X117634989Y-106011245D01*
X117482564Y-106087458D01*
X117025288Y-106087458D01*
X116872863Y-106011245D01*
X116796650Y-105935032D01*
X116720438Y-105782607D01*
X116720438Y-105477757D01*
X116796650Y-105325331D01*
X117787414Y-104639418D02*
X116720438Y-104639418D01*
X117025288Y-104639418D02*
X116872863Y-104563205D01*
X116796650Y-104486993D01*
X116720438Y-104334567D01*
X116720438Y-104182142D01*
X117787414Y-103420016D02*
X117711202Y-103572441D01*
X117634989Y-103648654D01*
X117482564Y-103724866D01*
X117025288Y-103724866D01*
X116872863Y-103648654D01*
X116796650Y-103572441D01*
X116720438Y-103420016D01*
X116720438Y-103191378D01*
X116796650Y-103038953D01*
X116872863Y-102962740D01*
X117025288Y-102886528D01*
X117482564Y-102886528D01*
X117634989Y-102962740D01*
X117711202Y-103038953D01*
X117787414Y-103191378D01*
X117787414Y-103420016D01*
X117939840Y-102581677D02*
X117939840Y-101362275D01*
X117711202Y-101057425D02*
X117787414Y-100828787D01*
X117787414Y-100447724D01*
X117711202Y-100295299D01*
X117634989Y-100219086D01*
X117482564Y-100142873D01*
X117330139Y-100142873D01*
X117177713Y-100219086D01*
X117101501Y-100295299D01*
X117025288Y-100447724D01*
X116949076Y-100752574D01*
X116872863Y-100905000D01*
X116796650Y-100981212D01*
X116644225Y-101057425D01*
X116491800Y-101057425D01*
X116339375Y-100981212D01*
X116263162Y-100905000D01*
X116186949Y-100752574D01*
X116186949Y-100371511D01*
X116263162Y-100142873D01*
X117787414Y-99456960D02*
X116186949Y-99456960D01*
X116186949Y-99075897D01*
X116263162Y-98847259D01*
X116415587Y-98694834D01*
X116568012Y-98618621D01*
X116872863Y-98542408D01*
X117101501Y-98542408D01*
X117406351Y-98618621D01*
X117558777Y-98694834D01*
X117711202Y-98847259D01*
X117787414Y-99075897D01*
X117787414Y-99456960D01*
X117939840Y-98237558D02*
X117939840Y-97018156D01*
X117634989Y-95722541D02*
X117711202Y-95798754D01*
X117787414Y-96027392D01*
X117787414Y-96179817D01*
X117711202Y-96408455D01*
X117558777Y-96560880D01*
X117406351Y-96637093D01*
X117101501Y-96713305D01*
X116872863Y-96713305D01*
X116568012Y-96637093D01*
X116415587Y-96560880D01*
X116263162Y-96408455D01*
X116186949Y-96179817D01*
X116186949Y-96027392D01*
X116263162Y-95798754D01*
X116339375Y-95722541D01*
X117787414Y-94350714D02*
X116949076Y-94350714D01*
X116796650Y-94426927D01*
X116720438Y-94579352D01*
X116720438Y-94884203D01*
X116796650Y-95036628D01*
X117711202Y-94350714D02*
X117787414Y-94503140D01*
X117787414Y-94884203D01*
X117711202Y-95036628D01*
X117558777Y-95112840D01*
X117406351Y-95112840D01*
X117253926Y-95036628D01*
X117177713Y-94884203D01*
X117177713Y-94503140D01*
X117101501Y-94350714D01*
X117787414Y-93588588D02*
X116720438Y-93588588D01*
X117025288Y-93588588D02*
X116872863Y-93512375D01*
X116796650Y-93436163D01*
X116720438Y-93283738D01*
X116720438Y-93131312D01*
X117787414Y-91911910D02*
X116186949Y-91911910D01*
X117711202Y-91911910D02*
X117787414Y-92064336D01*
X117787414Y-92369186D01*
X117711202Y-92521611D01*
X117634989Y-92597824D01*
X117482564Y-92674037D01*
X117025288Y-92674037D01*
X116872863Y-92597824D01*
X116796650Y-92521611D01*
X116720438Y-92369186D01*
X116720438Y-92064336D01*
X116796650Y-91911910D01*
X117939840Y-91530847D02*
X117939840Y-90311445D01*
X117787414Y-89930382D02*
X116186949Y-89930382D01*
X116186949Y-89549319D01*
X116263162Y-89320681D01*
X116415587Y-89168256D01*
X116568012Y-89092044D01*
X116872863Y-89015831D01*
X117101501Y-89015831D01*
X117406351Y-89092044D01*
X117558777Y-89168256D01*
X117711202Y-89320681D01*
X117787414Y-89549319D01*
X117787414Y-89930382D01*
X117711202Y-87720216D02*
X117787414Y-87872642D01*
X117787414Y-88177492D01*
X117711202Y-88329917D01*
X117558777Y-88406130D01*
X116949076Y-88406130D01*
X116796650Y-88329917D01*
X116720438Y-88177492D01*
X116720438Y-87872642D01*
X116796650Y-87720216D01*
X116949076Y-87644004D01*
X117101501Y-87644004D01*
X117253926Y-88406130D01*
X116720438Y-87186728D02*
X116720438Y-86577027D01*
X116186949Y-86958090D02*
X117558777Y-86958090D01*
X117711202Y-86881878D01*
X117787414Y-86729452D01*
X117787414Y-86577027D01*
D14*
X136214285Y-117152380D02*
X136214285Y-116152380D01*
X136547619Y-116866666D01*
X136880952Y-116152380D01*
X136880952Y-117152380D01*
X137500000Y-117152380D02*
X137404761Y-117104761D01*
X137357142Y-117057142D01*
X137309523Y-116961904D01*
X137309523Y-116676190D01*
X137357142Y-116580952D01*
X137404761Y-116533333D01*
X137500000Y-116485714D01*
X137642857Y-116485714D01*
X137738095Y-116533333D01*
X137785714Y-116580952D01*
X137833333Y-116676190D01*
X137833333Y-116961904D01*
X137785714Y-117057142D01*
X137738095Y-117104761D01*
X137642857Y-117152380D01*
X137500000Y-117152380D01*
X138690476Y-116485714D02*
X138690476Y-117152380D01*
X138261904Y-116485714D02*
X138261904Y-117009523D01*
X138309523Y-117104761D01*
X138404761Y-117152380D01*
X138547619Y-117152380D01*
X138642857Y-117104761D01*
X138690476Y-117057142D01*
X139166666Y-116485714D02*
X139166666Y-117152380D01*
X139166666Y-116580952D02*
X139214285Y-116533333D01*
X139309523Y-116485714D01*
X139452380Y-116485714D01*
X139547619Y-116533333D01*
X139595238Y-116628571D01*
X139595238Y-117152380D01*
X139928571Y-116485714D02*
X140309523Y-116485714D01*
X140071428Y-116152380D02*
X140071428Y-117009523D01*
X140119047Y-117104761D01*
X140214285Y-117152380D01*
X140309523Y-117152380D01*
X140642857Y-117152380D02*
X140642857Y-116485714D01*
X140642857Y-116152380D02*
X140595238Y-116200000D01*
X140642857Y-116247619D01*
X140690476Y-116200000D01*
X140642857Y-116152380D01*
X140642857Y-116247619D01*
X141119047Y-116485714D02*
X141119047Y-117152380D01*
X141119047Y-116580952D02*
X141166666Y-116533333D01*
X141261904Y-116485714D01*
X141404761Y-116485714D01*
X141500000Y-116533333D01*
X141547619Y-116628571D01*
X141547619Y-117152380D01*
X142452380Y-116485714D02*
X142452380Y-117295238D01*
X142404761Y-117390476D01*
X142357142Y-117438095D01*
X142261904Y-117485714D01*
X142119047Y-117485714D01*
X142023809Y-117438095D01*
X142452380Y-117104761D02*
X142357142Y-117152380D01*
X142166666Y-117152380D01*
X142071428Y-117104761D01*
X142023809Y-117057142D01*
X141976190Y-116961904D01*
X141976190Y-116676190D01*
X142023809Y-116580952D01*
X142071428Y-116533333D01*
X142166666Y-116485714D01*
X142357142Y-116485714D01*
X142452380Y-116533333D01*
X142928571Y-117152380D02*
X142928571Y-116152380D01*
X142928571Y-116628571D02*
X143500000Y-116628571D01*
X143500000Y-117152380D02*
X143500000Y-116152380D01*
X144119047Y-117152380D02*
X144023809Y-117104761D01*
X143976190Y-117057142D01*
X143928571Y-116961904D01*
X143928571Y-116676190D01*
X143976190Y-116580952D01*
X144023809Y-116533333D01*
X144119047Y-116485714D01*
X144261904Y-116485714D01*
X144357142Y-116533333D01*
X144404761Y-116580952D01*
X144452380Y-116676190D01*
X144452380Y-116961904D01*
X144404761Y-117057142D01*
X144357142Y-117104761D01*
X144261904Y-117152380D01*
X144119047Y-117152380D01*
X145023809Y-117152380D02*
X144928571Y-117104761D01*
X144880952Y-117009523D01*
X144880952Y-116152380D01*
X145785714Y-117104761D02*
X145690476Y-117152380D01*
X145500000Y-117152380D01*
X145404761Y-117104761D01*
X145357142Y-117009523D01*
X145357142Y-116628571D01*
X145404761Y-116533333D01*
X145500000Y-116485714D01*
X145690476Y-116485714D01*
X145785714Y-116533333D01*
X145833333Y-116628571D01*
X145833333Y-116723809D01*
X145357142Y-116819047D01*
X139966666Y-113952380D02*
X139966666Y-112952380D01*
X140300000Y-113666666D01*
X140633333Y-112952380D01*
X140633333Y-113952380D01*
X141109523Y-113952380D02*
X141109523Y-112952380D01*
X141109523Y-113428571D02*
X141680952Y-113428571D01*
X141680952Y-113952380D02*
X141680952Y-112952380D01*
X142680952Y-113952380D02*
X142109523Y-113952380D01*
X142395238Y-113952380D02*
X142395238Y-112952380D01*
X142300000Y-113095238D01*
X142204761Y-113190476D01*
X142109523Y-113238095D01*
X171714285Y-99152380D02*
X171714285Y-98152380D01*
X172047619Y-98866666D01*
X172380952Y-98152380D01*
X172380952Y-99152380D01*
X173000000Y-99152380D02*
X172904761Y-99104761D01*
X172857142Y-99057142D01*
X172809523Y-98961904D01*
X172809523Y-98676190D01*
X172857142Y-98580952D01*
X172904761Y-98533333D01*
X173000000Y-98485714D01*
X173142857Y-98485714D01*
X173238095Y-98533333D01*
X173285714Y-98580952D01*
X173333333Y-98676190D01*
X173333333Y-98961904D01*
X173285714Y-99057142D01*
X173238095Y-99104761D01*
X173142857Y-99152380D01*
X173000000Y-99152380D01*
X174190476Y-98485714D02*
X174190476Y-99152380D01*
X173761904Y-98485714D02*
X173761904Y-99009523D01*
X173809523Y-99104761D01*
X173904761Y-99152380D01*
X174047619Y-99152380D01*
X174142857Y-99104761D01*
X174190476Y-99057142D01*
X174666666Y-98485714D02*
X174666666Y-99152380D01*
X174666666Y-98580952D02*
X174714285Y-98533333D01*
X174809523Y-98485714D01*
X174952380Y-98485714D01*
X175047619Y-98533333D01*
X175095238Y-98628571D01*
X175095238Y-99152380D01*
X175428571Y-98485714D02*
X175809523Y-98485714D01*
X175571428Y-98152380D02*
X175571428Y-99009523D01*
X175619047Y-99104761D01*
X175714285Y-99152380D01*
X175809523Y-99152380D01*
X176142857Y-99152380D02*
X176142857Y-98485714D01*
X176142857Y-98152380D02*
X176095238Y-98200000D01*
X176142857Y-98247619D01*
X176190476Y-98200000D01*
X176142857Y-98152380D01*
X176142857Y-98247619D01*
X176619047Y-98485714D02*
X176619047Y-99152380D01*
X176619047Y-98580952D02*
X176666666Y-98533333D01*
X176761904Y-98485714D01*
X176904761Y-98485714D01*
X177000000Y-98533333D01*
X177047619Y-98628571D01*
X177047619Y-99152380D01*
X177952380Y-98485714D02*
X177952380Y-99295238D01*
X177904761Y-99390476D01*
X177857142Y-99438095D01*
X177761904Y-99485714D01*
X177619047Y-99485714D01*
X177523809Y-99438095D01*
X177952380Y-99104761D02*
X177857142Y-99152380D01*
X177666666Y-99152380D01*
X177571428Y-99104761D01*
X177523809Y-99057142D01*
X177476190Y-98961904D01*
X177476190Y-98676190D01*
X177523809Y-98580952D01*
X177571428Y-98533333D01*
X177666666Y-98485714D01*
X177857142Y-98485714D01*
X177952380Y-98533333D01*
X178428571Y-99152380D02*
X178428571Y-98152380D01*
X178428571Y-98628571D02*
X179000000Y-98628571D01*
X179000000Y-99152380D02*
X179000000Y-98152380D01*
X179619047Y-99152380D02*
X179523809Y-99104761D01*
X179476190Y-99057142D01*
X179428571Y-98961904D01*
X179428571Y-98676190D01*
X179476190Y-98580952D01*
X179523809Y-98533333D01*
X179619047Y-98485714D01*
X179761904Y-98485714D01*
X179857142Y-98533333D01*
X179904761Y-98580952D01*
X179952380Y-98676190D01*
X179952380Y-98961904D01*
X179904761Y-99057142D01*
X179857142Y-99104761D01*
X179761904Y-99152380D01*
X179619047Y-99152380D01*
X180523809Y-99152380D02*
X180428571Y-99104761D01*
X180380952Y-99009523D01*
X180380952Y-98152380D01*
X181285714Y-99104761D02*
X181190476Y-99152380D01*
X181000000Y-99152380D01*
X180904761Y-99104761D01*
X180857142Y-99009523D01*
X180857142Y-98628571D01*
X180904761Y-98533333D01*
X181000000Y-98485714D01*
X181190476Y-98485714D01*
X181285714Y-98533333D01*
X181333333Y-98628571D01*
X181333333Y-98723809D01*
X180857142Y-98819047D01*
X175466666Y-95952380D02*
X175466666Y-94952380D01*
X175800000Y-95666666D01*
X176133333Y-94952380D01*
X176133333Y-95952380D01*
X176609523Y-95952380D02*
X176609523Y-94952380D01*
X176609523Y-95428571D02*
X177180952Y-95428571D01*
X177180952Y-95952380D02*
X177180952Y-94952380D01*
X178085714Y-95285714D02*
X178085714Y-95952380D01*
X177847619Y-94904761D02*
X177609523Y-95619047D01*
X178228571Y-95619047D01*
X135628571Y-77782380D02*
X135057142Y-77782380D01*
X135342857Y-77782380D02*
X135342857Y-76782380D01*
X135247619Y-76925238D01*
X135152380Y-77020476D01*
X135057142Y-77068095D01*
X136247619Y-76782380D02*
X136342857Y-76782380D01*
X136438095Y-76830000D01*
X136485714Y-76877619D01*
X136533333Y-76972857D01*
X136580952Y-77163333D01*
X136580952Y-77401428D01*
X136533333Y-77591904D01*
X136485714Y-77687142D01*
X136438095Y-77734761D01*
X136342857Y-77782380D01*
X136247619Y-77782380D01*
X136152380Y-77734761D01*
X136104761Y-77687142D01*
X136057142Y-77591904D01*
X136009523Y-77401428D01*
X136009523Y-77163333D01*
X136057142Y-76972857D01*
X136104761Y-76877619D01*
X136152380Y-76830000D01*
X136247619Y-76782380D01*
X137200000Y-76782380D02*
X137295238Y-76782380D01*
X137390476Y-76830000D01*
X137438095Y-76877619D01*
X137485714Y-76972857D01*
X137533333Y-77163333D01*
X137533333Y-77401428D01*
X137485714Y-77591904D01*
X137438095Y-77687142D01*
X137390476Y-77734761D01*
X137295238Y-77782380D01*
X137200000Y-77782380D01*
X137104761Y-77734761D01*
X137057142Y-77687142D01*
X137009523Y-77591904D01*
X136961904Y-77401428D01*
X136961904Y-77163333D01*
X137009523Y-76972857D01*
X137057142Y-76877619D01*
X137104761Y-76830000D01*
X137200000Y-76782380D01*
X137961904Y-77782380D02*
X137961904Y-76782380D01*
X138057142Y-77401428D02*
X138342857Y-77782380D01*
X138342857Y-77115714D02*
X137961904Y-77496666D01*
D16*
X136539285Y-78613095D02*
X136455952Y-78494047D01*
X136396428Y-78613095D02*
X136396428Y-78363095D01*
X136491666Y-78363095D01*
X136515476Y-78375000D01*
X136527380Y-78386904D01*
X136539285Y-78410714D01*
X136539285Y-78446428D01*
X136527380Y-78470238D01*
X136515476Y-78482142D01*
X136491666Y-78494047D01*
X136396428Y-78494047D01*
X136622619Y-78363095D02*
X136777380Y-78363095D01*
X136694047Y-78458333D01*
X136729761Y-78458333D01*
X136753571Y-78470238D01*
X136765476Y-78482142D01*
X136777380Y-78505952D01*
X136777380Y-78565476D01*
X136765476Y-78589285D01*
X136753571Y-78601190D01*
X136729761Y-78613095D01*
X136658333Y-78613095D01*
X136634523Y-78601190D01*
X136622619Y-78589285D01*
X137015476Y-78613095D02*
X136872619Y-78613095D01*
X136944047Y-78613095D02*
X136944047Y-78363095D01*
X136920238Y-78398809D01*
X136896428Y-78422619D01*
X136872619Y-78434523D01*
D14*
X135543571Y-70282380D02*
X134972142Y-70282380D01*
X135257857Y-70282380D02*
X135257857Y-69282380D01*
X135162619Y-69425238D01*
X135067380Y-69520476D01*
X134972142Y-69568095D01*
X136162619Y-69282380D02*
X136257857Y-69282380D01*
X136353095Y-69330000D01*
X136400714Y-69377619D01*
X136448333Y-69472857D01*
X136495952Y-69663333D01*
X136495952Y-69901428D01*
X136448333Y-70091904D01*
X136400714Y-70187142D01*
X136353095Y-70234761D01*
X136257857Y-70282380D01*
X136162619Y-70282380D01*
X136067380Y-70234761D01*
X136019761Y-70187142D01*
X135972142Y-70091904D01*
X135924523Y-69901428D01*
X135924523Y-69663333D01*
X135972142Y-69472857D01*
X136019761Y-69377619D01*
X136067380Y-69330000D01*
X136162619Y-69282380D01*
X137115000Y-69282380D02*
X137210238Y-69282380D01*
X137305476Y-69330000D01*
X137353095Y-69377619D01*
X137400714Y-69472857D01*
X137448333Y-69663333D01*
X137448333Y-69901428D01*
X137400714Y-70091904D01*
X137353095Y-70187142D01*
X137305476Y-70234761D01*
X137210238Y-70282380D01*
X137115000Y-70282380D01*
X137019761Y-70234761D01*
X136972142Y-70187142D01*
X136924523Y-70091904D01*
X136876904Y-69901428D01*
X136876904Y-69663333D01*
X136924523Y-69472857D01*
X136972142Y-69377619D01*
X137019761Y-69330000D01*
X137115000Y-69282380D01*
X137876904Y-70282380D02*
X137876904Y-69282380D01*
X137972142Y-69901428D02*
X138257857Y-70282380D01*
X138257857Y-69615714D02*
X137876904Y-69996666D01*
D16*
X136454285Y-71113095D02*
X136370952Y-70994047D01*
X136311428Y-71113095D02*
X136311428Y-70863095D01*
X136406666Y-70863095D01*
X136430476Y-70875000D01*
X136442380Y-70886904D01*
X136454285Y-70910714D01*
X136454285Y-70946428D01*
X136442380Y-70970238D01*
X136430476Y-70982142D01*
X136406666Y-70994047D01*
X136311428Y-70994047D01*
X136537619Y-70863095D02*
X136692380Y-70863095D01*
X136609047Y-70958333D01*
X136644761Y-70958333D01*
X136668571Y-70970238D01*
X136680476Y-70982142D01*
X136692380Y-71005952D01*
X136692380Y-71065476D01*
X136680476Y-71089285D01*
X136668571Y-71101190D01*
X136644761Y-71113095D01*
X136573333Y-71113095D01*
X136549523Y-71101190D01*
X136537619Y-71089285D01*
X136787619Y-70886904D02*
X136799523Y-70875000D01*
X136823333Y-70863095D01*
X136882857Y-70863095D01*
X136906666Y-70875000D01*
X136918571Y-70886904D01*
X136930476Y-70910714D01*
X136930476Y-70934523D01*
X136918571Y-70970238D01*
X136775714Y-71113095D01*
X136930476Y-71113095D01*
D14*
X135628571Y-78982380D02*
X135057142Y-78982380D01*
X135342857Y-78982380D02*
X135342857Y-77982380D01*
X135247619Y-78125238D01*
X135152380Y-78220476D01*
X135057142Y-78268095D01*
X136247619Y-77982380D02*
X136342857Y-77982380D01*
X136438095Y-78030000D01*
X136485714Y-78077619D01*
X136533333Y-78172857D01*
X136580952Y-78363333D01*
X136580952Y-78601428D01*
X136533333Y-78791904D01*
X136485714Y-78887142D01*
X136438095Y-78934761D01*
X136342857Y-78982380D01*
X136247619Y-78982380D01*
X136152380Y-78934761D01*
X136104761Y-78887142D01*
X136057142Y-78791904D01*
X136009523Y-78601428D01*
X136009523Y-78363333D01*
X136057142Y-78172857D01*
X136104761Y-78077619D01*
X136152380Y-78030000D01*
X136247619Y-77982380D01*
X137200000Y-77982380D02*
X137295238Y-77982380D01*
X137390476Y-78030000D01*
X137438095Y-78077619D01*
X137485714Y-78172857D01*
X137533333Y-78363333D01*
X137533333Y-78601428D01*
X137485714Y-78791904D01*
X137438095Y-78887142D01*
X137390476Y-78934761D01*
X137295238Y-78982380D01*
X137200000Y-78982380D01*
X137104761Y-78934761D01*
X137057142Y-78887142D01*
X137009523Y-78791904D01*
X136961904Y-78601428D01*
X136961904Y-78363333D01*
X137009523Y-78172857D01*
X137057142Y-78077619D01*
X137104761Y-78030000D01*
X137200000Y-77982380D01*
X137961904Y-78982380D02*
X137961904Y-77982380D01*
X138057142Y-78601428D02*
X138342857Y-78982380D01*
X138342857Y-78315714D02*
X137961904Y-78696666D01*
D16*
X136539285Y-79813095D02*
X136455952Y-79694047D01*
X136396428Y-79813095D02*
X136396428Y-79563095D01*
X136491666Y-79563095D01*
X136515476Y-79575000D01*
X136527380Y-79586904D01*
X136539285Y-79610714D01*
X136539285Y-79646428D01*
X136527380Y-79670238D01*
X136515476Y-79682142D01*
X136491666Y-79694047D01*
X136396428Y-79694047D01*
X136622619Y-79563095D02*
X136777380Y-79563095D01*
X136694047Y-79658333D01*
X136729761Y-79658333D01*
X136753571Y-79670238D01*
X136765476Y-79682142D01*
X136777380Y-79705952D01*
X136777380Y-79765476D01*
X136765476Y-79789285D01*
X136753571Y-79801190D01*
X136729761Y-79813095D01*
X136658333Y-79813095D01*
X136634523Y-79801190D01*
X136622619Y-79789285D01*
X136860714Y-79563095D02*
X137015476Y-79563095D01*
X136932142Y-79658333D01*
X136967857Y-79658333D01*
X136991666Y-79670238D01*
X137003571Y-79682142D01*
X137015476Y-79705952D01*
X137015476Y-79765476D01*
X137003571Y-79789285D01*
X136991666Y-79801190D01*
X136967857Y-79813095D01*
X136896428Y-79813095D01*
X136872619Y-79801190D01*
X136860714Y-79789285D01*
D14*
X161477380Y-87016666D02*
X161477380Y-86445238D01*
X162477380Y-86730952D02*
X161477380Y-86730952D01*
X161477380Y-86207142D02*
X162477380Y-85540476D01*
X161477380Y-85540476D02*
X162477380Y-86207142D01*
X161953571Y-84826190D02*
X162001190Y-84683333D01*
X162048809Y-84635714D01*
X162144047Y-84588095D01*
X162286904Y-84588095D01*
X162382142Y-84635714D01*
X162429761Y-84683333D01*
X162477380Y-84778571D01*
X162477380Y-85159523D01*
X161477380Y-85159523D01*
X161477380Y-84826190D01*
X161525000Y-84730952D01*
X161572619Y-84683333D01*
X161667857Y-84635714D01*
X161763095Y-84635714D01*
X161858333Y-84683333D01*
X161905952Y-84730952D01*
X161953571Y-84826190D01*
X161953571Y-85159523D01*
X161477380Y-83969047D02*
X161477380Y-83873809D01*
X161525000Y-83778571D01*
X161572619Y-83730952D01*
X161667857Y-83683333D01*
X161858333Y-83635714D01*
X162096428Y-83635714D01*
X162286904Y-83683333D01*
X162382142Y-83730952D01*
X162429761Y-83778571D01*
X162477380Y-83873809D01*
X162477380Y-83969047D01*
X162429761Y-84064285D01*
X162382142Y-84111904D01*
X162286904Y-84159523D01*
X162096428Y-84207142D01*
X161858333Y-84207142D01*
X161667857Y-84159523D01*
X161572619Y-84111904D01*
X161525000Y-84064285D01*
X161477380Y-83969047D01*
X162477380Y-82683333D02*
X162477380Y-83254761D01*
X162477380Y-82969047D02*
X161477380Y-82969047D01*
X161620238Y-83064285D01*
X161715476Y-83159523D01*
X161763095Y-83254761D01*
X161477380Y-82064285D02*
X161477380Y-81969047D01*
X161525000Y-81873809D01*
X161572619Y-81826190D01*
X161667857Y-81778571D01*
X161858333Y-81730952D01*
X162096428Y-81730952D01*
X162286904Y-81778571D01*
X162382142Y-81826190D01*
X162429761Y-81873809D01*
X162477380Y-81969047D01*
X162477380Y-82064285D01*
X162429761Y-82159523D01*
X162382142Y-82207142D01*
X162286904Y-82254761D01*
X162096428Y-82302380D01*
X161858333Y-82302380D01*
X161667857Y-82254761D01*
X161572619Y-82207142D01*
X161525000Y-82159523D01*
X161477380Y-82064285D01*
X161810714Y-80873809D02*
X162477380Y-80873809D01*
X161429761Y-81111904D02*
X162144047Y-81350000D01*
X162144047Y-80730952D01*
X162477380Y-80350000D02*
X161477380Y-80350000D01*
X161477380Y-80111904D01*
X161525000Y-79969047D01*
X161620238Y-79873809D01*
X161715476Y-79826190D01*
X161905952Y-79778571D01*
X162048809Y-79778571D01*
X162239285Y-79826190D01*
X162334523Y-79873809D01*
X162429761Y-79969047D01*
X162477380Y-80111904D01*
X162477380Y-80350000D01*
D18*
X156157142Y-84464285D02*
X156885714Y-84464285D01*
X156971428Y-84421428D01*
X157014285Y-84378571D01*
X157057142Y-84292857D01*
X157057142Y-84121428D01*
X157014285Y-84035714D01*
X156971428Y-83992857D01*
X156885714Y-83950000D01*
X156157142Y-83950000D01*
X157057142Y-83050000D02*
X157057142Y-83564285D01*
X157057142Y-83307142D02*
X156157142Y-83307142D01*
X156285714Y-83392857D01*
X156371428Y-83478571D01*
X156414285Y-83564285D01*
X157057142Y-82192857D02*
X157057142Y-82707142D01*
X157057142Y-82450000D02*
X156157142Y-82450000D01*
X156285714Y-82535714D01*
X156371428Y-82621428D01*
X156414285Y-82707142D01*
D14*
X162222380Y-122823809D02*
X162222380Y-122157142D01*
X163222380Y-122585714D01*
X163127142Y-121776190D02*
X163174761Y-121728571D01*
X163222380Y-121776190D01*
X163174761Y-121823809D01*
X163127142Y-121776190D01*
X163222380Y-121776190D01*
X162222380Y-120823809D02*
X162222380Y-121300000D01*
X162698571Y-121347619D01*
X162650952Y-121300000D01*
X162603333Y-121204761D01*
X162603333Y-120966666D01*
X162650952Y-120871428D01*
X162698571Y-120823809D01*
X162793809Y-120776190D01*
X163031904Y-120776190D01*
X163127142Y-120823809D01*
X163174761Y-120871428D01*
X163222380Y-120966666D01*
X163222380Y-121204761D01*
X163174761Y-121300000D01*
X163127142Y-121347619D01*
X162555714Y-120347619D02*
X163222380Y-120347619D01*
X162650952Y-120347619D02*
X162603333Y-120300000D01*
X162555714Y-120204761D01*
X162555714Y-120061904D01*
X162603333Y-119966666D01*
X162698571Y-119919047D01*
X163222380Y-119919047D01*
X163222380Y-119442857D02*
X162222380Y-119442857D01*
X162698571Y-119442857D02*
X162698571Y-118871428D01*
X163222380Y-118871428D02*
X162222380Y-118871428D01*
D16*
X161713095Y-120841666D02*
X161713095Y-120960714D01*
X161463095Y-120960714D01*
X161463095Y-120782142D02*
X161463095Y-120627380D01*
X161558333Y-120710714D01*
X161558333Y-120675000D01*
X161570238Y-120651190D01*
X161582142Y-120639285D01*
X161605952Y-120627380D01*
X161665476Y-120627380D01*
X161689285Y-120639285D01*
X161701190Y-120651190D01*
X161713095Y-120675000D01*
X161713095Y-120746428D01*
X161701190Y-120770238D01*
X161689285Y-120782142D01*
D14*
X162626190Y-120782380D02*
X163292857Y-120782380D01*
X162864285Y-121782380D01*
X163673809Y-121687142D02*
X163721428Y-121734761D01*
X163673809Y-121782380D01*
X163626190Y-121734761D01*
X163673809Y-121687142D01*
X163673809Y-121782380D01*
X164626190Y-120782380D02*
X164150000Y-120782380D01*
X164102380Y-121258571D01*
X164150000Y-121210952D01*
X164245238Y-121163333D01*
X164483333Y-121163333D01*
X164578571Y-121210952D01*
X164626190Y-121258571D01*
X164673809Y-121353809D01*
X164673809Y-121591904D01*
X164626190Y-121687142D01*
X164578571Y-121734761D01*
X164483333Y-121782380D01*
X164245238Y-121782380D01*
X164150000Y-121734761D01*
X164102380Y-121687142D01*
X165102380Y-121115714D02*
X165102380Y-121782380D01*
X165102380Y-121210952D02*
X165150000Y-121163333D01*
X165245238Y-121115714D01*
X165388095Y-121115714D01*
X165483333Y-121163333D01*
X165530952Y-121258571D01*
X165530952Y-121782380D01*
X166007142Y-121782380D02*
X166007142Y-120782380D01*
X166007142Y-121258571D02*
X166578571Y-121258571D01*
X166578571Y-121782380D02*
X166578571Y-120782380D01*
D16*
X164608333Y-122613095D02*
X164489285Y-122613095D01*
X164489285Y-122363095D01*
X164798809Y-122446428D02*
X164798809Y-122613095D01*
X164739285Y-122351190D02*
X164679761Y-122529761D01*
X164834523Y-122529761D01*
M02*
