G04 #@! TF.GenerationSoftware,KiCad,Pcbnew,5.1.6+dfsg1-1~bpo10+1*
G04 #@! TF.CreationDate,2021-06-19T16:41:40-04:00*
G04 #@! TF.ProjectId,RUSP_Daughterboard,52555350-5f44-4617-9567-68746572626f,rev?*
G04 #@! TF.SameCoordinates,Original*
G04 #@! TF.FileFunction,Copper,L1,Top*
G04 #@! TF.FilePolarity,Positive*
%FSLAX46Y46*%
G04 Gerber Fmt 4.6, Leading zero omitted, Abs format (unit mm)*
G04 Created by KiCad (PCBNEW 5.1.6+dfsg1-1~bpo10+1) date 2021-06-19 16:41:40*
%MOMM*%
%LPD*%
G01*
G04 APERTURE LIST*
G04 #@! TA.AperFunction,ComponentPad*
%ADD10C,3.000000*%
G04 #@! TD*
G04 #@! TA.AperFunction,SMDPad,CuDef*
%ADD11R,3.200000X1.700000*%
G04 #@! TD*
G04 #@! TA.AperFunction,SMDPad,CuDef*
%ADD12R,2.200000X1.050000*%
G04 #@! TD*
G04 #@! TA.AperFunction,SMDPad,CuDef*
%ADD13R,1.000000X1.000000*%
G04 #@! TD*
G04 #@! TA.AperFunction,SMDPad,CuDef*
%ADD14C,0.750000*%
G04 #@! TD*
G04 #@! TA.AperFunction,SMDPad,CuDef*
%ADD15R,1.400000X1.800000*%
G04 #@! TD*
G04 #@! TA.AperFunction,SMDPad,CuDef*
%ADD16R,2.000000X0.800000*%
G04 #@! TD*
G04 #@! TA.AperFunction,SMDPad,CuDef*
%ADD17R,1.900000X1.400000*%
G04 #@! TD*
G04 #@! TA.AperFunction,SMDPad,CuDef*
%ADD18R,0.600000X1.500000*%
G04 #@! TD*
G04 #@! TA.AperFunction,ViaPad*
%ADD19C,0.800000*%
G04 #@! TD*
G04 #@! TA.AperFunction,Conductor*
%ADD20C,0.250000*%
G04 #@! TD*
G04 #@! TA.AperFunction,Conductor*
%ADD21C,0.500000*%
G04 #@! TD*
G04 #@! TA.AperFunction,Conductor*
%ADD22C,0.750000*%
G04 #@! TD*
G04 #@! TA.AperFunction,Conductor*
%ADD23C,0.200000*%
G04 #@! TD*
G04 #@! TA.AperFunction,NonConductor*
%ADD24C,0.254000*%
G04 #@! TD*
G04 APERTURE END LIST*
D10*
X154000000Y-128000000D03*
D11*
X173700000Y-109050000D03*
X173700000Y-117550000D03*
G04 #@! TA.AperFunction,SMDPad,CuDef*
G36*
G01*
X162277500Y-86170000D02*
X162622500Y-86170000D01*
G75*
G02*
X162770000Y-86317500I0J-147500D01*
G01*
X162770000Y-86612500D01*
G75*
G02*
X162622500Y-86760000I-147500J0D01*
G01*
X162277500Y-86760000D01*
G75*
G02*
X162130000Y-86612500I0J147500D01*
G01*
X162130000Y-86317500D01*
G75*
G02*
X162277500Y-86170000I147500J0D01*
G01*
G37*
G04 #@! TD.AperFunction*
G04 #@! TA.AperFunction,SMDPad,CuDef*
G36*
G01*
X162277500Y-87140000D02*
X162622500Y-87140000D01*
G75*
G02*
X162770000Y-87287500I0J-147500D01*
G01*
X162770000Y-87582500D01*
G75*
G02*
X162622500Y-87730000I-147500J0D01*
G01*
X162277500Y-87730000D01*
G75*
G02*
X162130000Y-87582500I0J147500D01*
G01*
X162130000Y-87287500D01*
G75*
G02*
X162277500Y-87140000I147500J0D01*
G01*
G37*
G04 #@! TD.AperFunction*
G04 #@! TA.AperFunction,SMDPad,CuDef*
G36*
G01*
X162277500Y-80540000D02*
X162622500Y-80540000D01*
G75*
G02*
X162770000Y-80687500I0J-147500D01*
G01*
X162770000Y-80982500D01*
G75*
G02*
X162622500Y-81130000I-147500J0D01*
G01*
X162277500Y-81130000D01*
G75*
G02*
X162130000Y-80982500I0J147500D01*
G01*
X162130000Y-80687500D01*
G75*
G02*
X162277500Y-80540000I147500J0D01*
G01*
G37*
G04 #@! TD.AperFunction*
G04 #@! TA.AperFunction,SMDPad,CuDef*
G36*
G01*
X162277500Y-79570000D02*
X162622500Y-79570000D01*
G75*
G02*
X162770000Y-79717500I0J-147500D01*
G01*
X162770000Y-80012500D01*
G75*
G02*
X162622500Y-80160000I-147500J0D01*
G01*
X162277500Y-80160000D01*
G75*
G02*
X162130000Y-80012500I0J147500D01*
G01*
X162130000Y-79717500D01*
G75*
G02*
X162277500Y-79570000I147500J0D01*
G01*
G37*
G04 #@! TD.AperFunction*
G04 #@! TA.AperFunction,SMDPad,CuDef*
G36*
G01*
X163772500Y-121580000D02*
X163427500Y-121580000D01*
G75*
G02*
X163280000Y-121432500I0J147500D01*
G01*
X163280000Y-121137500D01*
G75*
G02*
X163427500Y-120990000I147500J0D01*
G01*
X163772500Y-120990000D01*
G75*
G02*
X163920000Y-121137500I0J-147500D01*
G01*
X163920000Y-121432500D01*
G75*
G02*
X163772500Y-121580000I-147500J0D01*
G01*
G37*
G04 #@! TD.AperFunction*
G04 #@! TA.AperFunction,SMDPad,CuDef*
G36*
G01*
X163772500Y-120610000D02*
X163427500Y-120610000D01*
G75*
G02*
X163280000Y-120462500I0J147500D01*
G01*
X163280000Y-120167500D01*
G75*
G02*
X163427500Y-120020000I147500J0D01*
G01*
X163772500Y-120020000D01*
G75*
G02*
X163920000Y-120167500I0J-147500D01*
G01*
X163920000Y-120462500D01*
G75*
G02*
X163772500Y-120610000I-147500J0D01*
G01*
G37*
G04 #@! TD.AperFunction*
D12*
X157000000Y-122475000D03*
X157000000Y-119525000D03*
D13*
X155500000Y-121000000D03*
X158500000Y-121000000D03*
G04 #@! TA.AperFunction,SMDPad,CuDef*
G36*
G01*
X161330000Y-122327500D02*
X161330000Y-122672500D01*
G75*
G02*
X161182500Y-122820000I-147500J0D01*
G01*
X160887500Y-122820000D01*
G75*
G02*
X160740000Y-122672500I0J147500D01*
G01*
X160740000Y-122327500D01*
G75*
G02*
X160887500Y-122180000I147500J0D01*
G01*
X161182500Y-122180000D01*
G75*
G02*
X161330000Y-122327500I0J-147500D01*
G01*
G37*
G04 #@! TD.AperFunction*
G04 #@! TA.AperFunction,SMDPad,CuDef*
G36*
G01*
X160360000Y-122327500D02*
X160360000Y-122672500D01*
G75*
G02*
X160212500Y-122820000I-147500J0D01*
G01*
X159917500Y-122820000D01*
G75*
G02*
X159770000Y-122672500I0J147500D01*
G01*
X159770000Y-122327500D01*
G75*
G02*
X159917500Y-122180000I147500J0D01*
G01*
X160212500Y-122180000D01*
G75*
G02*
X160360000Y-122327500I0J-147500D01*
G01*
G37*
G04 #@! TD.AperFunction*
G04 #@! TA.AperFunction,SMDPad,CuDef*
G36*
G01*
X163330000Y-122327500D02*
X163330000Y-122672500D01*
G75*
G02*
X163182500Y-122820000I-147500J0D01*
G01*
X162887500Y-122820000D01*
G75*
G02*
X162740000Y-122672500I0J147500D01*
G01*
X162740000Y-122327500D01*
G75*
G02*
X162887500Y-122180000I147500J0D01*
G01*
X163182500Y-122180000D01*
G75*
G02*
X163330000Y-122327500I0J-147500D01*
G01*
G37*
G04 #@! TD.AperFunction*
G04 #@! TA.AperFunction,SMDPad,CuDef*
G36*
G01*
X162360000Y-122327500D02*
X162360000Y-122672500D01*
G75*
G02*
X162212500Y-122820000I-147500J0D01*
G01*
X161917500Y-122820000D01*
G75*
G02*
X161770000Y-122672500I0J147500D01*
G01*
X161770000Y-122327500D01*
G75*
G02*
X161917500Y-122180000I147500J0D01*
G01*
X162212500Y-122180000D01*
G75*
G02*
X162360000Y-122327500I0J-147500D01*
G01*
G37*
G04 #@! TD.AperFunction*
G04 #@! TA.AperFunction,SMDPad,CuDef*
G36*
G01*
X149123674Y-122642375D02*
X149367625Y-122886327D01*
G75*
G02*
X149367625Y-123094923I-104298J-104298D01*
G01*
X149159029Y-123303519D01*
G75*
G02*
X148950433Y-123303519I-104298J104298D01*
G01*
X148706481Y-123059567D01*
G75*
G02*
X148706481Y-122850971I104298J104298D01*
G01*
X148915077Y-122642375D01*
G75*
G02*
X149123673Y-122642375I104298J-104298D01*
G01*
G37*
G04 #@! TD.AperFunction*
G04 #@! TA.AperFunction,SMDPad,CuDef*
G36*
G01*
X149809568Y-121956481D02*
X150053519Y-122200433D01*
G75*
G02*
X150053519Y-122409029I-104298J-104298D01*
G01*
X149844923Y-122617625D01*
G75*
G02*
X149636327Y-122617625I-104298J104298D01*
G01*
X149392375Y-122373673D01*
G75*
G02*
X149392375Y-122165077I104298J104298D01*
G01*
X149600971Y-121956481D01*
G75*
G02*
X149809567Y-121956481I104298J-104298D01*
G01*
G37*
G04 #@! TD.AperFunction*
G04 #@! TA.AperFunction,SMDPad,CuDef*
G36*
G01*
X148209568Y-120326481D02*
X148453519Y-120570433D01*
G75*
G02*
X148453519Y-120779029I-104298J-104298D01*
G01*
X148244923Y-120987625D01*
G75*
G02*
X148036327Y-120987625I-104298J104298D01*
G01*
X147792375Y-120743673D01*
G75*
G02*
X147792375Y-120535077I104298J104298D01*
G01*
X148000971Y-120326481D01*
G75*
G02*
X148209567Y-120326481I104298J-104298D01*
G01*
G37*
G04 #@! TD.AperFunction*
G04 #@! TA.AperFunction,SMDPad,CuDef*
G36*
G01*
X147523674Y-121012375D02*
X147767625Y-121256327D01*
G75*
G02*
X147767625Y-121464923I-104298J-104298D01*
G01*
X147559029Y-121673519D01*
G75*
G02*
X147350433Y-121673519I-104298J104298D01*
G01*
X147106481Y-121429567D01*
G75*
G02*
X147106481Y-121220971I104298J104298D01*
G01*
X147315077Y-121012375D01*
G75*
G02*
X147523673Y-121012375I104298J-104298D01*
G01*
G37*
G04 #@! TD.AperFunction*
G04 #@! TA.AperFunction,SMDPad,CuDef*
G36*
G01*
X150060000Y-79077500D02*
X150060000Y-79422500D01*
G75*
G02*
X149912500Y-79570000I-147500J0D01*
G01*
X149617500Y-79570000D01*
G75*
G02*
X149470000Y-79422500I0J147500D01*
G01*
X149470000Y-79077500D01*
G75*
G02*
X149617500Y-78930000I147500J0D01*
G01*
X149912500Y-78930000D01*
G75*
G02*
X150060000Y-79077500I0J-147500D01*
G01*
G37*
G04 #@! TD.AperFunction*
G04 #@! TA.AperFunction,SMDPad,CuDef*
G36*
G01*
X151030000Y-79077500D02*
X151030000Y-79422500D01*
G75*
G02*
X150882500Y-79570000I-147500J0D01*
G01*
X150587500Y-79570000D01*
G75*
G02*
X150440000Y-79422500I0J147500D01*
G01*
X150440000Y-79077500D01*
G75*
G02*
X150587500Y-78930000I147500J0D01*
G01*
X150882500Y-78930000D01*
G75*
G02*
X151030000Y-79077500I0J-147500D01*
G01*
G37*
G04 #@! TD.AperFunction*
G04 #@! TA.AperFunction,SMDPad,CuDef*
G36*
G01*
X151030000Y-86827500D02*
X151030000Y-87172500D01*
G75*
G02*
X150882500Y-87320000I-147500J0D01*
G01*
X150587500Y-87320000D01*
G75*
G02*
X150440000Y-87172500I0J147500D01*
G01*
X150440000Y-86827500D01*
G75*
G02*
X150587500Y-86680000I147500J0D01*
G01*
X150882500Y-86680000D01*
G75*
G02*
X151030000Y-86827500I0J-147500D01*
G01*
G37*
G04 #@! TD.AperFunction*
G04 #@! TA.AperFunction,SMDPad,CuDef*
G36*
G01*
X150060000Y-86827500D02*
X150060000Y-87172500D01*
G75*
G02*
X149912500Y-87320000I-147500J0D01*
G01*
X149617500Y-87320000D01*
G75*
G02*
X149470000Y-87172500I0J147500D01*
G01*
X149470000Y-86827500D01*
G75*
G02*
X149617500Y-86680000I147500J0D01*
G01*
X149912500Y-86680000D01*
G75*
G02*
X150060000Y-86827500I0J-147500D01*
G01*
G37*
G04 #@! TD.AperFunction*
G04 #@! TA.AperFunction,SMDPad,CuDef*
G36*
G01*
X149019568Y-121136481D02*
X149263519Y-121380433D01*
G75*
G02*
X149263519Y-121589029I-104298J-104298D01*
G01*
X149054923Y-121797625D01*
G75*
G02*
X148846327Y-121797625I-104298J104298D01*
G01*
X148602375Y-121553673D01*
G75*
G02*
X148602375Y-121345077I104298J104298D01*
G01*
X148810971Y-121136481D01*
G75*
G02*
X149019567Y-121136481I104298J-104298D01*
G01*
G37*
G04 #@! TD.AperFunction*
G04 #@! TA.AperFunction,SMDPad,CuDef*
G36*
G01*
X148333674Y-121822375D02*
X148577625Y-122066327D01*
G75*
G02*
X148577625Y-122274923I-104298J-104298D01*
G01*
X148369029Y-122483519D01*
G75*
G02*
X148160433Y-122483519I-104298J104298D01*
G01*
X147916481Y-122239567D01*
G75*
G02*
X147916481Y-122030971I104298J104298D01*
G01*
X148125077Y-121822375D01*
G75*
G02*
X148333673Y-121822375I104298J-104298D01*
G01*
G37*
G04 #@! TD.AperFunction*
D14*
X126500000Y-86500000D03*
X175000000Y-74500000D03*
X171000000Y-137000000D03*
D15*
X133560000Y-114886500D03*
X131083500Y-114886500D03*
X128480000Y-114886500D03*
X133560000Y-89613500D03*
X131020000Y-89613500D03*
X128480000Y-89613500D03*
D16*
X122875000Y-78690000D03*
X123275000Y-77590000D03*
X122875000Y-76490000D03*
X122675000Y-75390000D03*
X122875000Y-74290000D03*
X122675000Y-73190000D03*
X122875000Y-72090000D03*
X122875000Y-70990000D03*
D15*
X133425000Y-71800000D03*
X133425000Y-77500000D03*
D17*
X120275000Y-70200000D03*
X119275000Y-83350000D03*
G04 #@! TA.AperFunction,SMDPad,CuDef*
G36*
G01*
X137480000Y-78327500D02*
X137480000Y-78672500D01*
G75*
G02*
X137332500Y-78820000I-147500J0D01*
G01*
X137037500Y-78820000D01*
G75*
G02*
X136890000Y-78672500I0J147500D01*
G01*
X136890000Y-78327500D01*
G75*
G02*
X137037500Y-78180000I147500J0D01*
G01*
X137332500Y-78180000D01*
G75*
G02*
X137480000Y-78327500I0J-147500D01*
G01*
G37*
G04 #@! TD.AperFunction*
G04 #@! TA.AperFunction,SMDPad,CuDef*
G36*
G01*
X136510000Y-78327500D02*
X136510000Y-78672500D01*
G75*
G02*
X136362500Y-78820000I-147500J0D01*
G01*
X136067500Y-78820000D01*
G75*
G02*
X135920000Y-78672500I0J147500D01*
G01*
X135920000Y-78327500D01*
G75*
G02*
X136067500Y-78180000I147500J0D01*
G01*
X136362500Y-78180000D01*
G75*
G02*
X136510000Y-78327500I0J-147500D01*
G01*
G37*
G04 #@! TD.AperFunction*
G04 #@! TA.AperFunction,SMDPad,CuDef*
G36*
G01*
X136425000Y-70827500D02*
X136425000Y-71172500D01*
G75*
G02*
X136277500Y-71320000I-147500J0D01*
G01*
X135982500Y-71320000D01*
G75*
G02*
X135835000Y-71172500I0J147500D01*
G01*
X135835000Y-70827500D01*
G75*
G02*
X135982500Y-70680000I147500J0D01*
G01*
X136277500Y-70680000D01*
G75*
G02*
X136425000Y-70827500I0J-147500D01*
G01*
G37*
G04 #@! TD.AperFunction*
G04 #@! TA.AperFunction,SMDPad,CuDef*
G36*
G01*
X137395000Y-70827500D02*
X137395000Y-71172500D01*
G75*
G02*
X137247500Y-71320000I-147500J0D01*
G01*
X136952500Y-71320000D01*
G75*
G02*
X136805000Y-71172500I0J147500D01*
G01*
X136805000Y-70827500D01*
G75*
G02*
X136952500Y-70680000I147500J0D01*
G01*
X137247500Y-70680000D01*
G75*
G02*
X137395000Y-70827500I0J-147500D01*
G01*
G37*
G04 #@! TD.AperFunction*
G04 #@! TA.AperFunction,SMDPad,CuDef*
G36*
G01*
X137480000Y-79527500D02*
X137480000Y-79872500D01*
G75*
G02*
X137332500Y-80020000I-147500J0D01*
G01*
X137037500Y-80020000D01*
G75*
G02*
X136890000Y-79872500I0J147500D01*
G01*
X136890000Y-79527500D01*
G75*
G02*
X137037500Y-79380000I147500J0D01*
G01*
X137332500Y-79380000D01*
G75*
G02*
X137480000Y-79527500I0J-147500D01*
G01*
G37*
G04 #@! TD.AperFunction*
G04 #@! TA.AperFunction,SMDPad,CuDef*
G36*
G01*
X136510000Y-79527500D02*
X136510000Y-79872500D01*
G75*
G02*
X136362500Y-80020000I-147500J0D01*
G01*
X136067500Y-80020000D01*
G75*
G02*
X135920000Y-79872500I0J147500D01*
G01*
X135920000Y-79527500D01*
G75*
G02*
X136067500Y-79380000I147500J0D01*
G01*
X136362500Y-79380000D01*
G75*
G02*
X136510000Y-79527500I0J-147500D01*
G01*
G37*
G04 #@! TD.AperFunction*
D18*
X152840000Y-86050000D03*
X154110000Y-86050000D03*
X155380000Y-86050000D03*
X156650000Y-86050000D03*
X157920000Y-86050000D03*
X159190000Y-86050000D03*
X160460000Y-86050000D03*
X160460000Y-80650000D03*
X159190000Y-80650000D03*
X157920000Y-80650000D03*
X156650000Y-80650000D03*
X155380000Y-80650000D03*
X154110000Y-80650000D03*
X152840000Y-80650000D03*
G04 #@! TA.AperFunction,SMDPad,CuDef*
G36*
G01*
X161772500Y-121580000D02*
X161427500Y-121580000D01*
G75*
G02*
X161280000Y-121432500I0J147500D01*
G01*
X161280000Y-121137500D01*
G75*
G02*
X161427500Y-120990000I147500J0D01*
G01*
X161772500Y-120990000D01*
G75*
G02*
X161920000Y-121137500I0J-147500D01*
G01*
X161920000Y-121432500D01*
G75*
G02*
X161772500Y-121580000I-147500J0D01*
G01*
G37*
G04 #@! TD.AperFunction*
G04 #@! TA.AperFunction,SMDPad,CuDef*
G36*
G01*
X161772500Y-120610000D02*
X161427500Y-120610000D01*
G75*
G02*
X161280000Y-120462500I0J147500D01*
G01*
X161280000Y-120167500D01*
G75*
G02*
X161427500Y-120020000I147500J0D01*
G01*
X161772500Y-120020000D01*
G75*
G02*
X161920000Y-120167500I0J-147500D01*
G01*
X161920000Y-120462500D01*
G75*
G02*
X161772500Y-120610000I-147500J0D01*
G01*
G37*
G04 #@! TD.AperFunction*
G04 #@! TA.AperFunction,SMDPad,CuDef*
G36*
G01*
X164460000Y-122327500D02*
X164460000Y-122672500D01*
G75*
G02*
X164312500Y-122820000I-147500J0D01*
G01*
X164017500Y-122820000D01*
G75*
G02*
X163870000Y-122672500I0J147500D01*
G01*
X163870000Y-122327500D01*
G75*
G02*
X164017500Y-122180000I147500J0D01*
G01*
X164312500Y-122180000D01*
G75*
G02*
X164460000Y-122327500I0J-147500D01*
G01*
G37*
G04 #@! TD.AperFunction*
G04 #@! TA.AperFunction,SMDPad,CuDef*
G36*
G01*
X165430000Y-122327500D02*
X165430000Y-122672500D01*
G75*
G02*
X165282500Y-122820000I-147500J0D01*
G01*
X164987500Y-122820000D01*
G75*
G02*
X164840000Y-122672500I0J147500D01*
G01*
X164840000Y-122327500D01*
G75*
G02*
X164987500Y-122180000I147500J0D01*
G01*
X165282500Y-122180000D01*
G75*
G02*
X165430000Y-122327500I0J-147500D01*
G01*
G37*
G04 #@! TD.AperFunction*
D19*
X120300000Y-71300000D03*
X135000000Y-88400000D03*
X124500000Y-112000000D03*
X146800000Y-120600000D03*
X149582053Y-123517947D03*
X124500000Y-73200000D03*
X161000000Y-87500000D03*
X149000000Y-87000000D03*
X149000000Y-79250000D03*
X168599999Y-129400001D03*
X165500000Y-123900000D03*
X157480000Y-130302000D03*
X159004000Y-135636000D03*
X120396006Y-82200000D03*
X146812000Y-110490000D03*
X146050000Y-109728000D03*
X169500000Y-125600000D03*
X157900000Y-79100000D03*
X162600000Y-127500000D03*
X161400000Y-124000000D03*
X155300000Y-77800000D03*
X160200000Y-123600000D03*
X151130000Y-78232000D03*
X161694805Y-127925000D03*
X139700000Y-84836000D03*
X121300000Y-75400000D03*
X137900000Y-71000000D03*
X138000000Y-78500000D03*
X138000000Y-79700000D03*
X159200000Y-133800000D03*
X168000000Y-133750000D03*
X151638000Y-85852000D03*
X135500000Y-77250000D03*
X163600000Y-127200000D03*
X154100000Y-79300000D03*
X163800000Y-124000000D03*
X164400000Y-134974990D03*
X128887660Y-87812340D03*
X126200000Y-96200000D03*
X129600000Y-91400000D03*
X163200000Y-131900000D03*
X129900000Y-113000000D03*
X163900000Y-137025010D03*
X132029325Y-112674990D03*
X147571375Y-119928625D03*
X150500000Y-123100000D03*
X162200000Y-134800000D03*
X135010743Y-112824979D03*
X163800000Y-79800000D03*
X163200000Y-135200000D03*
X124600000Y-71000000D03*
X135400000Y-71000000D03*
X165201292Y-131775010D03*
X131400000Y-94800000D03*
X165201292Y-131001292D03*
X131826000Y-95600000D03*
X167500000Y-126300000D03*
X156700000Y-79100000D03*
X162500000Y-123900000D03*
D20*
X120275000Y-70200000D02*
X120275000Y-71275000D01*
X120275000Y-71275000D02*
X120300000Y-71300000D01*
X147437053Y-121342947D02*
X148200000Y-122105894D01*
X148200000Y-122105894D02*
X148205894Y-122105894D01*
X148205894Y-122105894D02*
X149000000Y-122900000D01*
X133560000Y-89613500D02*
X133786500Y-89613500D01*
X133786500Y-89613500D02*
X135000000Y-88400000D01*
X147437053Y-121342947D02*
X146800000Y-120705894D01*
X146800000Y-120705894D02*
X146800000Y-120600000D01*
X149037053Y-122972947D02*
X149582053Y-123517947D01*
X122675000Y-73190000D02*
X124490000Y-73190000D01*
X124490000Y-73190000D02*
X124500000Y-73200000D01*
X160460000Y-86050000D02*
X160460000Y-86960000D01*
X160460000Y-86960000D02*
X161000000Y-87500000D01*
X161065000Y-87435000D02*
X161000000Y-87500000D01*
X162450000Y-87435000D02*
X161065000Y-87435000D01*
X149765000Y-87000000D02*
X149000000Y-87000000D01*
X149765000Y-79250000D02*
X149000000Y-79250000D01*
X119275000Y-83350000D02*
X120396006Y-82228994D01*
X120396006Y-82228994D02*
X120396006Y-82200000D01*
X157920000Y-80650000D02*
X157920000Y-79120000D01*
X157920000Y-79120000D02*
X157900000Y-79100000D01*
X155380000Y-80650000D02*
X155380000Y-77880000D01*
X155380000Y-77880000D02*
X155300000Y-77800000D01*
X152735000Y-80665000D02*
X152850000Y-80550000D01*
X150735000Y-79250000D02*
X151500000Y-79250000D01*
X151500000Y-79250000D02*
X152750000Y-80500000D01*
X150735000Y-78627000D02*
X151130000Y-78232000D01*
X150735000Y-79250000D02*
X150735000Y-78627000D01*
X122675000Y-75390000D02*
X121310000Y-75390000D01*
X121310000Y-75390000D02*
X121300000Y-75400000D01*
X137100000Y-71000000D02*
X137900000Y-71000000D01*
X137185000Y-78500000D02*
X138000000Y-78500000D01*
X137185000Y-79700000D02*
X138000000Y-79700000D01*
X150735000Y-87000000D02*
X151750000Y-87000000D01*
X151750000Y-87000000D02*
X152750000Y-86000000D01*
X152840000Y-86050000D02*
X151836000Y-86050000D01*
X151836000Y-86050000D02*
X151638000Y-85852000D01*
X132700011Y-74700011D02*
X132500000Y-74500000D01*
X141325011Y-74700011D02*
X132700011Y-74700011D01*
X149575010Y-82950011D02*
X141325011Y-74700011D01*
X156650000Y-84400000D02*
X155200011Y-82950011D01*
X156650000Y-86050000D02*
X156650000Y-84400000D01*
X132500000Y-74500000D02*
X123000000Y-74500000D01*
X155200011Y-82950011D02*
X149575010Y-82950011D01*
X158000000Y-84500000D02*
X158000000Y-86250000D01*
X141511410Y-74250000D02*
X149761410Y-82500000D01*
X130840000Y-72090000D02*
X133000000Y-74250000D01*
X122875000Y-72090000D02*
X130840000Y-72090000D01*
X156000000Y-82500000D02*
X158000000Y-84500000D01*
X133000000Y-74250000D02*
X141511410Y-74250000D01*
X149761410Y-82500000D02*
X156000000Y-82500000D01*
X135250000Y-77500000D02*
X135500000Y-77250000D01*
X133425000Y-77500000D02*
X135250000Y-77500000D01*
X122875000Y-76490000D02*
X131260000Y-76490000D01*
X131260000Y-76490000D02*
X132599978Y-75150022D01*
X155250000Y-84250000D02*
X155250000Y-86000000D01*
X132599978Y-75150022D02*
X141138612Y-75150022D01*
X141138612Y-75150022D02*
X149388610Y-83400022D01*
X149388610Y-83400022D02*
X154400022Y-83400022D01*
X154400022Y-83400022D02*
X155250000Y-84250000D01*
X135400000Y-78500000D02*
X136215000Y-78500000D01*
X135150000Y-78750000D02*
X135400000Y-78500000D01*
X131000000Y-78750000D02*
X135150000Y-78750000D01*
X123275000Y-77590000D02*
X129840000Y-77590000D01*
X129840000Y-77590000D02*
X131000000Y-78750000D01*
X149202213Y-83850033D02*
X142102180Y-76750000D01*
X136250000Y-77573002D02*
X136250000Y-78500000D01*
X154110000Y-85050000D02*
X152910033Y-83850033D01*
X154110000Y-86050000D02*
X154110000Y-85050000D01*
X152910033Y-83850033D02*
X149202213Y-83850033D01*
X142102180Y-76750000D02*
X137073002Y-76750000D01*
X137073002Y-76750000D02*
X136250000Y-77573002D01*
X154110000Y-80650000D02*
X154110000Y-79310000D01*
X154110000Y-79310000D02*
X154100000Y-79300000D01*
X128480000Y-88220000D02*
X128887660Y-87812340D01*
X128480000Y-89613500D02*
X128480000Y-88220000D01*
X128480000Y-89613500D02*
X129600000Y-90733500D01*
X129600000Y-90733500D02*
X129600000Y-91400000D01*
X128480000Y-114886500D02*
X128480000Y-114420000D01*
X128480000Y-114420000D02*
X129900000Y-113000000D01*
X131083500Y-114886500D02*
X131083500Y-113620815D01*
X131083500Y-113620815D02*
X132029325Y-112674990D01*
X147571375Y-119928625D02*
X148200000Y-120557250D01*
X148200000Y-120557250D02*
X148200000Y-120700000D01*
X148200000Y-120700000D02*
X149700000Y-122200000D01*
X149722947Y-122287053D02*
X149722947Y-122322947D01*
X149722947Y-122322947D02*
X150500000Y-123100000D01*
D21*
X133560000Y-114886500D02*
X133560000Y-92160000D01*
X133560000Y-92160000D02*
X131200000Y-89800000D01*
D20*
X133560000Y-114886500D02*
X135010743Y-113435757D01*
X135010743Y-113435757D02*
X135010743Y-112824979D01*
X162450000Y-79865000D02*
X163735000Y-79865000D01*
X163735000Y-79865000D02*
X163800000Y-79800000D01*
X136215000Y-79700000D02*
X126600000Y-79700000D01*
X125590000Y-78690000D02*
X126600000Y-79700000D01*
X122875000Y-78690000D02*
X125590000Y-78690000D01*
X122875000Y-70990000D02*
X124590000Y-70990000D01*
X124590000Y-70990000D02*
X124600000Y-71000000D01*
X136130000Y-71000000D02*
X135400000Y-71000000D01*
X173700000Y-122500000D02*
X165400000Y-122500000D01*
X173700000Y-117550000D02*
X173700000Y-122500000D01*
X156650000Y-80650000D02*
X156650000Y-79150000D01*
X156650000Y-79150000D02*
X156700000Y-79100000D01*
X160460000Y-80650000D02*
X161350000Y-80650000D01*
X161350000Y-80650000D02*
X161650000Y-80950000D01*
X161650000Y-80950000D02*
X162450000Y-80950000D01*
X163125001Y-85789999D02*
X163125001Y-81425001D01*
X162450000Y-86465000D02*
X163125001Y-85789999D01*
X163125001Y-81425001D02*
X162450000Y-80750000D01*
D22*
X158500000Y-121000000D02*
X160000000Y-121000000D01*
X160000000Y-121000000D02*
X160000000Y-122500000D01*
D23*
G36*
X140441178Y-100538756D02*
G01*
X140441904Y-100550790D01*
X140441537Y-100562837D01*
X140445770Y-100614833D01*
X140596402Y-101798239D01*
X140598712Y-101810063D01*
X140599942Y-101822061D01*
X140611015Y-101873040D01*
X140916836Y-103026129D01*
X140920692Y-103037551D01*
X140923496Y-103049273D01*
X140941199Y-103098297D01*
X140941213Y-103098340D01*
X140941219Y-103098353D01*
X141396852Y-104200852D01*
X141402180Y-104211655D01*
X141406514Y-104222913D01*
X141430565Y-104269205D01*
X142028016Y-105301771D01*
X142034725Y-105311773D01*
X142040510Y-105322359D01*
X142070473Y-105365064D01*
X142799238Y-106309544D01*
X142807212Y-106318572D01*
X142814346Y-106328300D01*
X142849694Y-106366667D01*
X143696970Y-107206464D01*
X143706069Y-107214359D01*
X143714426Y-107223057D01*
X143754537Y-107256412D01*
X144705440Y-107976776D01*
X144715506Y-107983400D01*
X144724937Y-107990914D01*
X144769107Y-108018671D01*
X145806929Y-108606944D01*
X145817785Y-108612179D01*
X145828125Y-108618379D01*
X145875560Y-108640041D01*
X145875578Y-108640050D01*
X145875583Y-108640052D01*
X146982087Y-109085897D01*
X146993538Y-109089650D01*
X147004608Y-109094428D01*
X147054511Y-109109633D01*
X148210264Y-109405221D01*
X148222110Y-109407426D01*
X148233717Y-109410699D01*
X148285192Y-109419170D01*
X149469887Y-109559305D01*
X149481922Y-109559924D01*
X149493858Y-109561633D01*
X149546000Y-109563222D01*
X149546002Y-109563222D01*
X150738823Y-109545442D01*
X150750835Y-109544464D01*
X150762891Y-109544579D01*
X150814787Y-109539258D01*
X151994778Y-109363876D01*
X152006550Y-109361319D01*
X152018521Y-109359838D01*
X152069257Y-109347700D01*
X153215688Y-109017798D01*
X153227023Y-109013705D01*
X153238688Y-109010655D01*
X153287346Y-108991923D01*
X153287372Y-108991914D01*
X153287379Y-108991910D01*
X154380102Y-108513285D01*
X154390796Y-108507729D01*
X154401955Y-108503163D01*
X154447734Y-108478148D01*
X155467560Y-107859205D01*
X155477427Y-107852282D01*
X155487883Y-107846281D01*
X155529951Y-107815431D01*
X156458962Y-107067046D01*
X156467825Y-107058880D01*
X156477397Y-107051548D01*
X156515015Y-107015405D01*
X157313998Y-106174806D01*
X157320019Y-106170053D01*
X157325766Y-106164447D01*
X157577625Y-105915312D01*
X157826068Y-105750944D01*
X158101691Y-105637968D01*
X158394017Y-105580678D01*
X158691904Y-105581258D01*
X158984005Y-105639688D01*
X159259189Y-105753738D01*
X159515449Y-105924719D01*
X159674475Y-106072488D01*
X159688671Y-106083302D01*
X159793344Y-106190919D01*
X159808158Y-106204208D01*
X159822042Y-106218451D01*
X159826549Y-106222444D01*
X160695741Y-106984194D01*
X160724430Y-107006074D01*
X160752928Y-107028283D01*
X160757935Y-107031626D01*
X161722466Y-107668365D01*
X161753876Y-107686158D01*
X161785108Y-107704285D01*
X161790516Y-107706915D01*
X161790522Y-107706918D01*
X161790528Y-107706920D01*
X162832546Y-108206864D01*
X162866045Y-108220216D01*
X162899482Y-108233950D01*
X162905204Y-108235824D01*
X164005438Y-108589726D01*
X164040458Y-108598413D01*
X164075431Y-108607477D01*
X164081354Y-108608557D01*
X164300000Y-108647232D01*
X164300000Y-109140763D01*
X164219151Y-109194785D01*
X163824785Y-109589151D01*
X163514934Y-110052876D01*
X163301505Y-110568140D01*
X163192699Y-111115141D01*
X163192699Y-111672859D01*
X163301505Y-112219860D01*
X163514934Y-112735124D01*
X163824785Y-113198849D01*
X164219151Y-113593215D01*
X164300000Y-113647237D01*
X164300000Y-120500000D01*
X163898592Y-120500000D01*
X163772500Y-120487581D01*
X163427500Y-120487581D01*
X163301408Y-120500000D01*
X161898592Y-120500000D01*
X161772500Y-120487581D01*
X161427500Y-120487581D01*
X161301408Y-120500000D01*
X160721598Y-120500000D01*
X160621712Y-120378288D01*
X160488476Y-120268944D01*
X160336468Y-120187695D01*
X160171530Y-120137661D01*
X160042979Y-120125000D01*
X160000000Y-120120767D01*
X159957021Y-120125000D01*
X159331215Y-120125000D01*
X159279129Y-120082254D01*
X159192267Y-120035825D01*
X159140099Y-120020000D01*
X160978548Y-120020000D01*
X160980000Y-120045000D01*
X161055000Y-120120000D01*
X161400000Y-120120000D01*
X161400000Y-119795000D01*
X161800000Y-119795000D01*
X161800000Y-120120000D01*
X162145000Y-120120000D01*
X162220000Y-120045000D01*
X162221452Y-120020000D01*
X162978548Y-120020000D01*
X162980000Y-120045000D01*
X163055000Y-120120000D01*
X163400000Y-120120000D01*
X163400000Y-119795000D01*
X163800000Y-119795000D01*
X163800000Y-120120000D01*
X164145000Y-120120000D01*
X164220000Y-120045000D01*
X164221452Y-120020000D01*
X164215660Y-119961190D01*
X164198505Y-119904639D01*
X164170648Y-119852522D01*
X164133159Y-119806841D01*
X164087478Y-119769352D01*
X164035361Y-119741495D01*
X163978810Y-119724340D01*
X163920000Y-119718548D01*
X163875000Y-119720000D01*
X163800000Y-119795000D01*
X163400000Y-119795000D01*
X163325000Y-119720000D01*
X163280000Y-119718548D01*
X163221190Y-119724340D01*
X163164639Y-119741495D01*
X163112522Y-119769352D01*
X163066841Y-119806841D01*
X163029352Y-119852522D01*
X163001495Y-119904639D01*
X162984340Y-119961190D01*
X162978548Y-120020000D01*
X162221452Y-120020000D01*
X162215660Y-119961190D01*
X162198505Y-119904639D01*
X162170648Y-119852522D01*
X162133159Y-119806841D01*
X162087478Y-119769352D01*
X162035361Y-119741495D01*
X161978810Y-119724340D01*
X161920000Y-119718548D01*
X161875000Y-119720000D01*
X161800000Y-119795000D01*
X161400000Y-119795000D01*
X161325000Y-119720000D01*
X161280000Y-119718548D01*
X161221190Y-119724340D01*
X161164639Y-119741495D01*
X161112522Y-119769352D01*
X161066841Y-119806841D01*
X161029352Y-119852522D01*
X161001495Y-119904639D01*
X160984340Y-119961190D01*
X160978548Y-120020000D01*
X159140099Y-120020000D01*
X159098017Y-120007235D01*
X159000000Y-119997581D01*
X158401148Y-119997581D01*
X158400000Y-119800000D01*
X158325000Y-119725000D01*
X157200000Y-119725000D01*
X157200000Y-120275000D01*
X157275000Y-120350000D01*
X157522871Y-120350436D01*
X157507235Y-120401983D01*
X157497581Y-120500000D01*
X157497581Y-121500000D01*
X157507235Y-121598017D01*
X157522871Y-121649564D01*
X157275000Y-121650000D01*
X157200000Y-121725000D01*
X157200000Y-122275000D01*
X158325000Y-122275000D01*
X158400000Y-122200000D01*
X158401148Y-122002419D01*
X159000000Y-122002419D01*
X159098017Y-121992765D01*
X159125001Y-121984580D01*
X159125001Y-122542979D01*
X159137662Y-122671530D01*
X159187696Y-122836468D01*
X159268945Y-122988476D01*
X159300000Y-123026317D01*
X159300000Y-124400000D01*
X149760922Y-124400000D01*
X149844573Y-124383361D01*
X150008363Y-124315517D01*
X150155770Y-124217023D01*
X150281129Y-124091664D01*
X150350469Y-123987889D01*
X150411358Y-124000000D01*
X150588642Y-124000000D01*
X150762520Y-123965414D01*
X150926310Y-123897570D01*
X151073717Y-123799076D01*
X151199076Y-123673717D01*
X151297570Y-123526310D01*
X151365414Y-123362520D01*
X151400000Y-123188642D01*
X151400000Y-123011358D01*
X151397741Y-123000000D01*
X155598548Y-123000000D01*
X155604340Y-123058810D01*
X155621495Y-123115361D01*
X155649352Y-123167478D01*
X155686841Y-123213159D01*
X155732522Y-123250648D01*
X155784639Y-123278505D01*
X155841190Y-123295660D01*
X155900000Y-123301452D01*
X156725000Y-123300000D01*
X156800000Y-123225000D01*
X156800000Y-122675000D01*
X157200000Y-122675000D01*
X157200000Y-123225000D01*
X157275000Y-123300000D01*
X158100000Y-123301452D01*
X158158810Y-123295660D01*
X158215361Y-123278505D01*
X158267478Y-123250648D01*
X158313159Y-123213159D01*
X158350648Y-123167478D01*
X158378505Y-123115361D01*
X158395660Y-123058810D01*
X158401452Y-123000000D01*
X158400000Y-122750000D01*
X158325000Y-122675000D01*
X157200000Y-122675000D01*
X156800000Y-122675000D01*
X155675000Y-122675000D01*
X155600000Y-122750000D01*
X155598548Y-123000000D01*
X151397741Y-123000000D01*
X151365414Y-122837480D01*
X151297570Y-122673690D01*
X151199076Y-122526283D01*
X151073717Y-122400924D01*
X150926310Y-122302430D01*
X150762520Y-122234586D01*
X150588829Y-122200037D01*
X150586652Y-122177938D01*
X150549668Y-122056018D01*
X150493001Y-121950000D01*
X155598548Y-121950000D01*
X155600000Y-122200000D01*
X155675000Y-122275000D01*
X156800000Y-122275000D01*
X156800000Y-121725000D01*
X156725000Y-121650000D01*
X156260427Y-121649182D01*
X156278505Y-121615361D01*
X156295660Y-121558810D01*
X156301452Y-121500000D01*
X156300000Y-121275000D01*
X156225000Y-121200000D01*
X155700000Y-121200000D01*
X155700000Y-121725000D01*
X155700572Y-121725572D01*
X155686841Y-121736841D01*
X155649352Y-121782522D01*
X155621495Y-121834639D01*
X155604340Y-121891190D01*
X155598548Y-121950000D01*
X150493001Y-121950000D01*
X150489609Y-121943655D01*
X150408783Y-121845169D01*
X150164831Y-121601217D01*
X150066345Y-121520391D01*
X150028196Y-121500000D01*
X154698548Y-121500000D01*
X154704340Y-121558810D01*
X154721495Y-121615361D01*
X154749352Y-121667478D01*
X154786841Y-121713159D01*
X154832522Y-121750648D01*
X154884639Y-121778505D01*
X154941190Y-121795660D01*
X155000000Y-121801452D01*
X155225000Y-121800000D01*
X155300000Y-121725000D01*
X155300000Y-121200000D01*
X154775000Y-121200000D01*
X154700000Y-121275000D01*
X154698548Y-121500000D01*
X150028196Y-121500000D01*
X149953982Y-121460332D01*
X149832062Y-121423348D01*
X149804518Y-121420635D01*
X149802642Y-121418760D01*
X149796652Y-121357938D01*
X149759668Y-121236018D01*
X149699609Y-121123655D01*
X149618783Y-121025169D01*
X149374831Y-120781217D01*
X149276345Y-120700391D01*
X149163982Y-120640332D01*
X149042062Y-120603348D01*
X148991620Y-120598380D01*
X148986652Y-120547938D01*
X148972111Y-120500000D01*
X154698548Y-120500000D01*
X154700000Y-120725000D01*
X154775000Y-120800000D01*
X155300000Y-120800000D01*
X155300000Y-120275000D01*
X155225000Y-120200000D01*
X155000000Y-120198548D01*
X154941190Y-120204340D01*
X154884639Y-120221495D01*
X154832522Y-120249352D01*
X154786841Y-120286841D01*
X154749352Y-120332522D01*
X154721495Y-120384639D01*
X154704340Y-120441190D01*
X154698548Y-120500000D01*
X148972111Y-120500000D01*
X148949668Y-120426018D01*
X148889609Y-120313655D01*
X148808783Y-120215169D01*
X148643614Y-120050000D01*
X155598548Y-120050000D01*
X155604340Y-120108810D01*
X155621495Y-120165361D01*
X155649352Y-120217478D01*
X155686841Y-120263159D01*
X155700572Y-120274428D01*
X155700000Y-120275000D01*
X155700000Y-120800000D01*
X156225000Y-120800000D01*
X156300000Y-120725000D01*
X156301452Y-120500000D01*
X156295660Y-120441190D01*
X156278505Y-120384639D01*
X156260427Y-120350818D01*
X156725000Y-120350000D01*
X156800000Y-120275000D01*
X156800000Y-119725000D01*
X155675000Y-119725000D01*
X155600000Y-119800000D01*
X155598548Y-120050000D01*
X148643614Y-120050000D01*
X148564831Y-119971217D01*
X148471375Y-119894519D01*
X148471375Y-119839983D01*
X148436789Y-119666105D01*
X148368945Y-119502315D01*
X148270451Y-119354908D01*
X148145092Y-119229549D01*
X147997685Y-119131055D01*
X147833895Y-119063211D01*
X147660017Y-119028625D01*
X147482733Y-119028625D01*
X147308855Y-119063211D01*
X147145065Y-119131055D01*
X146997658Y-119229549D01*
X146872299Y-119354908D01*
X146773805Y-119502315D01*
X146705961Y-119666105D01*
X146698719Y-119702514D01*
X146537480Y-119734586D01*
X146373690Y-119802430D01*
X146226283Y-119900924D01*
X146100924Y-120026283D01*
X146002430Y-120173690D01*
X145934586Y-120337480D01*
X145900000Y-120511358D01*
X145900000Y-120688642D01*
X145934586Y-120862520D01*
X146002430Y-121026310D01*
X146100924Y-121173717D01*
X146226283Y-121299076D01*
X146373690Y-121397570D01*
X146537480Y-121465414D01*
X146579962Y-121473864D01*
X146610332Y-121573982D01*
X146670391Y-121686345D01*
X146751217Y-121784831D01*
X146995169Y-122028783D01*
X147093655Y-122109609D01*
X147206018Y-122169668D01*
X147327938Y-122206652D01*
X147378380Y-122211620D01*
X147383348Y-122262062D01*
X147420332Y-122383982D01*
X147480391Y-122496345D01*
X147561217Y-122594831D01*
X147805169Y-122838783D01*
X147903655Y-122919609D01*
X148016018Y-122979668D01*
X148137938Y-123016652D01*
X148167189Y-123019533D01*
X148173348Y-123082062D01*
X148210332Y-123203982D01*
X148270391Y-123316345D01*
X148351217Y-123414831D01*
X148595169Y-123658783D01*
X148693655Y-123739609D01*
X148710279Y-123748495D01*
X148716639Y-123780467D01*
X148784483Y-123944257D01*
X148882977Y-124091664D01*
X149008336Y-124217023D01*
X149155743Y-124315517D01*
X149319533Y-124383361D01*
X149403184Y-124400000D01*
X147456562Y-124400000D01*
X147439490Y-124374497D01*
X147439464Y-124374457D01*
X147439453Y-124374443D01*
X146440903Y-122969345D01*
X146434712Y-122961421D01*
X146428992Y-122953191D01*
X146408807Y-122928264D01*
X146408785Y-122928236D01*
X146408775Y-122928226D01*
X145286985Y-121619410D01*
X145280104Y-121612082D01*
X145273659Y-121604402D01*
X145251301Y-121581410D01*
X145251274Y-121581381D01*
X145251262Y-121581371D01*
X144015468Y-120379612D01*
X144007959Y-120372945D01*
X144000837Y-120365873D01*
X143976457Y-120344977D01*
X142636818Y-119260159D01*
X142628730Y-119254196D01*
X142621002Y-119247803D01*
X142594867Y-119229229D01*
X142594829Y-119229201D01*
X142594813Y-119229192D01*
X142252451Y-119000000D01*
X155598548Y-119000000D01*
X155600000Y-119250000D01*
X155675000Y-119325000D01*
X156800000Y-119325000D01*
X156800000Y-118775000D01*
X157200000Y-118775000D01*
X157200000Y-119325000D01*
X158325000Y-119325000D01*
X158400000Y-119250000D01*
X158401452Y-119000000D01*
X158395660Y-118941190D01*
X158378505Y-118884639D01*
X158350648Y-118832522D01*
X158313159Y-118786841D01*
X158267478Y-118749352D01*
X158215361Y-118721495D01*
X158158810Y-118704340D01*
X158100000Y-118698548D01*
X157275000Y-118700000D01*
X157200000Y-118775000D01*
X156800000Y-118775000D01*
X156725000Y-118700000D01*
X155900000Y-118698548D01*
X155841190Y-118704340D01*
X155784639Y-118721495D01*
X155732522Y-118749352D01*
X155686841Y-118786841D01*
X155649352Y-118832522D01*
X155621495Y-118884639D01*
X155604340Y-118941190D01*
X155598548Y-119000000D01*
X142252451Y-119000000D01*
X141162383Y-118270263D01*
X141153789Y-118265058D01*
X141145512Y-118259391D01*
X141117803Y-118243264D01*
X141117761Y-118243238D01*
X141117744Y-118243230D01*
X139604300Y-117418073D01*
X139595270Y-117413669D01*
X139586513Y-117408775D01*
X139557412Y-117395204D01*
X137975392Y-116710603D01*
X137966006Y-116707038D01*
X137956836Y-116702955D01*
X137926625Y-116692078D01*
X136289070Y-116153677D01*
X136279387Y-116150973D01*
X136269897Y-116147743D01*
X136238824Y-116139648D01*
X134761235Y-115798520D01*
X134762419Y-115786500D01*
X134762419Y-114567964D01*
X135430979Y-113899405D01*
X135454823Y-113879837D01*
X135474395Y-113855989D01*
X135532925Y-113784670D01*
X135590961Y-113676093D01*
X135603710Y-113634066D01*
X135626700Y-113558278D01*
X135635054Y-113473461D01*
X135709819Y-113398696D01*
X135747425Y-113342414D01*
X139400000Y-113342414D01*
X139400000Y-113657586D01*
X139461487Y-113966703D01*
X139582098Y-114257884D01*
X139757199Y-114519941D01*
X139980059Y-114742801D01*
X140242116Y-114917902D01*
X140533297Y-115038513D01*
X140842414Y-115100000D01*
X141157586Y-115100000D01*
X141466703Y-115038513D01*
X141506228Y-115022141D01*
X151846699Y-115022141D01*
X151846699Y-115579859D01*
X151955505Y-116126860D01*
X152168934Y-116642124D01*
X152478785Y-117105849D01*
X152873151Y-117500215D01*
X153336876Y-117810066D01*
X153852140Y-118023495D01*
X154399141Y-118132301D01*
X154956859Y-118132301D01*
X155503860Y-118023495D01*
X156019124Y-117810066D01*
X156482849Y-117500215D01*
X156877215Y-117105849D01*
X157187066Y-116642124D01*
X157400495Y-116126860D01*
X157509301Y-115579859D01*
X157509301Y-115022141D01*
X157400495Y-114475140D01*
X157187066Y-113959876D01*
X156877215Y-113496151D01*
X156482849Y-113101785D01*
X156019124Y-112791934D01*
X155503860Y-112578505D01*
X154956859Y-112469699D01*
X154399141Y-112469699D01*
X153852140Y-112578505D01*
X153336876Y-112791934D01*
X152873151Y-113101785D01*
X152478785Y-113496151D01*
X152168934Y-113959876D01*
X151955505Y-114475140D01*
X151846699Y-115022141D01*
X141506228Y-115022141D01*
X141757884Y-114917902D01*
X142019941Y-114742801D01*
X142242801Y-114519941D01*
X142417902Y-114257884D01*
X142538513Y-113966703D01*
X142600000Y-113657586D01*
X142600000Y-113342414D01*
X142538513Y-113033297D01*
X142417902Y-112742116D01*
X142242801Y-112480059D01*
X142019941Y-112257199D01*
X141757884Y-112082098D01*
X141466703Y-111961487D01*
X141157586Y-111900000D01*
X140842414Y-111900000D01*
X140533297Y-111961487D01*
X140242116Y-112082098D01*
X139980059Y-112257199D01*
X139757199Y-112480059D01*
X139582098Y-112742116D01*
X139461487Y-113033297D01*
X139400000Y-113342414D01*
X135747425Y-113342414D01*
X135808313Y-113251289D01*
X135876157Y-113087499D01*
X135910743Y-112913621D01*
X135910743Y-112736337D01*
X135876157Y-112562459D01*
X135808313Y-112398669D01*
X135709819Y-112251262D01*
X135584460Y-112125903D01*
X135437053Y-112027409D01*
X135273263Y-111959565D01*
X135099385Y-111924979D01*
X134922101Y-111924979D01*
X134748223Y-111959565D01*
X134584433Y-112027409D01*
X134437026Y-112125903D01*
X134311667Y-112251262D01*
X134310000Y-112253757D01*
X134310000Y-109639358D01*
X145150000Y-109639358D01*
X145150000Y-109816642D01*
X145184586Y-109990520D01*
X145252430Y-110154310D01*
X145350924Y-110301717D01*
X145476283Y-110427076D01*
X145623690Y-110525570D01*
X145787480Y-110593414D01*
X145920189Y-110619811D01*
X145946586Y-110752520D01*
X146014430Y-110916310D01*
X146112924Y-111063717D01*
X146238283Y-111189076D01*
X146385690Y-111287570D01*
X146549480Y-111355414D01*
X146723358Y-111390000D01*
X146900642Y-111390000D01*
X147074520Y-111355414D01*
X147238310Y-111287570D01*
X147385717Y-111189076D01*
X147511076Y-111063717D01*
X147609570Y-110916310D01*
X147677414Y-110752520D01*
X147712000Y-110578642D01*
X147712000Y-110401358D01*
X147677414Y-110227480D01*
X147609570Y-110063690D01*
X147511076Y-109916283D01*
X147385717Y-109790924D01*
X147238310Y-109692430D01*
X147074520Y-109624586D01*
X146941811Y-109598189D01*
X146915414Y-109465480D01*
X146847570Y-109301690D01*
X146749076Y-109154283D01*
X146623717Y-109028924D01*
X146476310Y-108930430D01*
X146312520Y-108862586D01*
X146138642Y-108828000D01*
X145961358Y-108828000D01*
X145787480Y-108862586D01*
X145623690Y-108930430D01*
X145476283Y-109028924D01*
X145350924Y-109154283D01*
X145252430Y-109301690D01*
X145184586Y-109465480D01*
X145150000Y-109639358D01*
X134310000Y-109639358D01*
X134310000Y-100300000D01*
X140442620Y-100300000D01*
X140441178Y-100538756D01*
G37*
X140441178Y-100538756D02*
X140441904Y-100550790D01*
X140441537Y-100562837D01*
X140445770Y-100614833D01*
X140596402Y-101798239D01*
X140598712Y-101810063D01*
X140599942Y-101822061D01*
X140611015Y-101873040D01*
X140916836Y-103026129D01*
X140920692Y-103037551D01*
X140923496Y-103049273D01*
X140941199Y-103098297D01*
X140941213Y-103098340D01*
X140941219Y-103098353D01*
X141396852Y-104200852D01*
X141402180Y-104211655D01*
X141406514Y-104222913D01*
X141430565Y-104269205D01*
X142028016Y-105301771D01*
X142034725Y-105311773D01*
X142040510Y-105322359D01*
X142070473Y-105365064D01*
X142799238Y-106309544D01*
X142807212Y-106318572D01*
X142814346Y-106328300D01*
X142849694Y-106366667D01*
X143696970Y-107206464D01*
X143706069Y-107214359D01*
X143714426Y-107223057D01*
X143754537Y-107256412D01*
X144705440Y-107976776D01*
X144715506Y-107983400D01*
X144724937Y-107990914D01*
X144769107Y-108018671D01*
X145806929Y-108606944D01*
X145817785Y-108612179D01*
X145828125Y-108618379D01*
X145875560Y-108640041D01*
X145875578Y-108640050D01*
X145875583Y-108640052D01*
X146982087Y-109085897D01*
X146993538Y-109089650D01*
X147004608Y-109094428D01*
X147054511Y-109109633D01*
X148210264Y-109405221D01*
X148222110Y-109407426D01*
X148233717Y-109410699D01*
X148285192Y-109419170D01*
X149469887Y-109559305D01*
X149481922Y-109559924D01*
X149493858Y-109561633D01*
X149546000Y-109563222D01*
X149546002Y-109563222D01*
X150738823Y-109545442D01*
X150750835Y-109544464D01*
X150762891Y-109544579D01*
X150814787Y-109539258D01*
X151994778Y-109363876D01*
X152006550Y-109361319D01*
X152018521Y-109359838D01*
X152069257Y-109347700D01*
X153215688Y-109017798D01*
X153227023Y-109013705D01*
X153238688Y-109010655D01*
X153287346Y-108991923D01*
X153287372Y-108991914D01*
X153287379Y-108991910D01*
X154380102Y-108513285D01*
X154390796Y-108507729D01*
X154401955Y-108503163D01*
X154447734Y-108478148D01*
X155467560Y-107859205D01*
X155477427Y-107852282D01*
X155487883Y-107846281D01*
X155529951Y-107815431D01*
X156458962Y-107067046D01*
X156467825Y-107058880D01*
X156477397Y-107051548D01*
X156515015Y-107015405D01*
X157313998Y-106174806D01*
X157320019Y-106170053D01*
X157325766Y-106164447D01*
X157577625Y-105915312D01*
X157826068Y-105750944D01*
X158101691Y-105637968D01*
X158394017Y-105580678D01*
X158691904Y-105581258D01*
X158984005Y-105639688D01*
X159259189Y-105753738D01*
X159515449Y-105924719D01*
X159674475Y-106072488D01*
X159688671Y-106083302D01*
X159793344Y-106190919D01*
X159808158Y-106204208D01*
X159822042Y-106218451D01*
X159826549Y-106222444D01*
X160695741Y-106984194D01*
X160724430Y-107006074D01*
X160752928Y-107028283D01*
X160757935Y-107031626D01*
X161722466Y-107668365D01*
X161753876Y-107686158D01*
X161785108Y-107704285D01*
X161790516Y-107706915D01*
X161790522Y-107706918D01*
X161790528Y-107706920D01*
X162832546Y-108206864D01*
X162866045Y-108220216D01*
X162899482Y-108233950D01*
X162905204Y-108235824D01*
X164005438Y-108589726D01*
X164040458Y-108598413D01*
X164075431Y-108607477D01*
X164081354Y-108608557D01*
X164300000Y-108647232D01*
X164300000Y-109140763D01*
X164219151Y-109194785D01*
X163824785Y-109589151D01*
X163514934Y-110052876D01*
X163301505Y-110568140D01*
X163192699Y-111115141D01*
X163192699Y-111672859D01*
X163301505Y-112219860D01*
X163514934Y-112735124D01*
X163824785Y-113198849D01*
X164219151Y-113593215D01*
X164300000Y-113647237D01*
X164300000Y-120500000D01*
X163898592Y-120500000D01*
X163772500Y-120487581D01*
X163427500Y-120487581D01*
X163301408Y-120500000D01*
X161898592Y-120500000D01*
X161772500Y-120487581D01*
X161427500Y-120487581D01*
X161301408Y-120500000D01*
X160721598Y-120500000D01*
X160621712Y-120378288D01*
X160488476Y-120268944D01*
X160336468Y-120187695D01*
X160171530Y-120137661D01*
X160042979Y-120125000D01*
X160000000Y-120120767D01*
X159957021Y-120125000D01*
X159331215Y-120125000D01*
X159279129Y-120082254D01*
X159192267Y-120035825D01*
X159140099Y-120020000D01*
X160978548Y-120020000D01*
X160980000Y-120045000D01*
X161055000Y-120120000D01*
X161400000Y-120120000D01*
X161400000Y-119795000D01*
X161800000Y-119795000D01*
X161800000Y-120120000D01*
X162145000Y-120120000D01*
X162220000Y-120045000D01*
X162221452Y-120020000D01*
X162978548Y-120020000D01*
X162980000Y-120045000D01*
X163055000Y-120120000D01*
X163400000Y-120120000D01*
X163400000Y-119795000D01*
X163800000Y-119795000D01*
X163800000Y-120120000D01*
X164145000Y-120120000D01*
X164220000Y-120045000D01*
X164221452Y-120020000D01*
X164215660Y-119961190D01*
X164198505Y-119904639D01*
X164170648Y-119852522D01*
X164133159Y-119806841D01*
X164087478Y-119769352D01*
X164035361Y-119741495D01*
X163978810Y-119724340D01*
X163920000Y-119718548D01*
X163875000Y-119720000D01*
X163800000Y-119795000D01*
X163400000Y-119795000D01*
X163325000Y-119720000D01*
X163280000Y-119718548D01*
X163221190Y-119724340D01*
X163164639Y-119741495D01*
X163112522Y-119769352D01*
X163066841Y-119806841D01*
X163029352Y-119852522D01*
X163001495Y-119904639D01*
X162984340Y-119961190D01*
X162978548Y-120020000D01*
X162221452Y-120020000D01*
X162215660Y-119961190D01*
X162198505Y-119904639D01*
X162170648Y-119852522D01*
X162133159Y-119806841D01*
X162087478Y-119769352D01*
X162035361Y-119741495D01*
X161978810Y-119724340D01*
X161920000Y-119718548D01*
X161875000Y-119720000D01*
X161800000Y-119795000D01*
X161400000Y-119795000D01*
X161325000Y-119720000D01*
X161280000Y-119718548D01*
X161221190Y-119724340D01*
X161164639Y-119741495D01*
X161112522Y-119769352D01*
X161066841Y-119806841D01*
X161029352Y-119852522D01*
X161001495Y-119904639D01*
X160984340Y-119961190D01*
X160978548Y-120020000D01*
X159140099Y-120020000D01*
X159098017Y-120007235D01*
X159000000Y-119997581D01*
X158401148Y-119997581D01*
X158400000Y-119800000D01*
X158325000Y-119725000D01*
X157200000Y-119725000D01*
X157200000Y-120275000D01*
X157275000Y-120350000D01*
X157522871Y-120350436D01*
X157507235Y-120401983D01*
X157497581Y-120500000D01*
X157497581Y-121500000D01*
X157507235Y-121598017D01*
X157522871Y-121649564D01*
X157275000Y-121650000D01*
X157200000Y-121725000D01*
X157200000Y-122275000D01*
X158325000Y-122275000D01*
X158400000Y-122200000D01*
X158401148Y-122002419D01*
X159000000Y-122002419D01*
X159098017Y-121992765D01*
X159125001Y-121984580D01*
X159125001Y-122542979D01*
X159137662Y-122671530D01*
X159187696Y-122836468D01*
X159268945Y-122988476D01*
X159300000Y-123026317D01*
X159300000Y-124400000D01*
X149760922Y-124400000D01*
X149844573Y-124383361D01*
X150008363Y-124315517D01*
X150155770Y-124217023D01*
X150281129Y-124091664D01*
X150350469Y-123987889D01*
X150411358Y-124000000D01*
X150588642Y-124000000D01*
X150762520Y-123965414D01*
X150926310Y-123897570D01*
X151073717Y-123799076D01*
X151199076Y-123673717D01*
X151297570Y-123526310D01*
X151365414Y-123362520D01*
X151400000Y-123188642D01*
X151400000Y-123011358D01*
X151397741Y-123000000D01*
X155598548Y-123000000D01*
X155604340Y-123058810D01*
X155621495Y-123115361D01*
X155649352Y-123167478D01*
X155686841Y-123213159D01*
X155732522Y-123250648D01*
X155784639Y-123278505D01*
X155841190Y-123295660D01*
X155900000Y-123301452D01*
X156725000Y-123300000D01*
X156800000Y-123225000D01*
X156800000Y-122675000D01*
X157200000Y-122675000D01*
X157200000Y-123225000D01*
X157275000Y-123300000D01*
X158100000Y-123301452D01*
X158158810Y-123295660D01*
X158215361Y-123278505D01*
X158267478Y-123250648D01*
X158313159Y-123213159D01*
X158350648Y-123167478D01*
X158378505Y-123115361D01*
X158395660Y-123058810D01*
X158401452Y-123000000D01*
X158400000Y-122750000D01*
X158325000Y-122675000D01*
X157200000Y-122675000D01*
X156800000Y-122675000D01*
X155675000Y-122675000D01*
X155600000Y-122750000D01*
X155598548Y-123000000D01*
X151397741Y-123000000D01*
X151365414Y-122837480D01*
X151297570Y-122673690D01*
X151199076Y-122526283D01*
X151073717Y-122400924D01*
X150926310Y-122302430D01*
X150762520Y-122234586D01*
X150588829Y-122200037D01*
X150586652Y-122177938D01*
X150549668Y-122056018D01*
X150493001Y-121950000D01*
X155598548Y-121950000D01*
X155600000Y-122200000D01*
X155675000Y-122275000D01*
X156800000Y-122275000D01*
X156800000Y-121725000D01*
X156725000Y-121650000D01*
X156260427Y-121649182D01*
X156278505Y-121615361D01*
X156295660Y-121558810D01*
X156301452Y-121500000D01*
X156300000Y-121275000D01*
X156225000Y-121200000D01*
X155700000Y-121200000D01*
X155700000Y-121725000D01*
X155700572Y-121725572D01*
X155686841Y-121736841D01*
X155649352Y-121782522D01*
X155621495Y-121834639D01*
X155604340Y-121891190D01*
X155598548Y-121950000D01*
X150493001Y-121950000D01*
X150489609Y-121943655D01*
X150408783Y-121845169D01*
X150164831Y-121601217D01*
X150066345Y-121520391D01*
X150028196Y-121500000D01*
X154698548Y-121500000D01*
X154704340Y-121558810D01*
X154721495Y-121615361D01*
X154749352Y-121667478D01*
X154786841Y-121713159D01*
X154832522Y-121750648D01*
X154884639Y-121778505D01*
X154941190Y-121795660D01*
X155000000Y-121801452D01*
X155225000Y-121800000D01*
X155300000Y-121725000D01*
X155300000Y-121200000D01*
X154775000Y-121200000D01*
X154700000Y-121275000D01*
X154698548Y-121500000D01*
X150028196Y-121500000D01*
X149953982Y-121460332D01*
X149832062Y-121423348D01*
X149804518Y-121420635D01*
X149802642Y-121418760D01*
X149796652Y-121357938D01*
X149759668Y-121236018D01*
X149699609Y-121123655D01*
X149618783Y-121025169D01*
X149374831Y-120781217D01*
X149276345Y-120700391D01*
X149163982Y-120640332D01*
X149042062Y-120603348D01*
X148991620Y-120598380D01*
X148986652Y-120547938D01*
X148972111Y-120500000D01*
X154698548Y-120500000D01*
X154700000Y-120725000D01*
X154775000Y-120800000D01*
X155300000Y-120800000D01*
X155300000Y-120275000D01*
X155225000Y-120200000D01*
X155000000Y-120198548D01*
X154941190Y-120204340D01*
X154884639Y-120221495D01*
X154832522Y-120249352D01*
X154786841Y-120286841D01*
X154749352Y-120332522D01*
X154721495Y-120384639D01*
X154704340Y-120441190D01*
X154698548Y-120500000D01*
X148972111Y-120500000D01*
X148949668Y-120426018D01*
X148889609Y-120313655D01*
X148808783Y-120215169D01*
X148643614Y-120050000D01*
X155598548Y-120050000D01*
X155604340Y-120108810D01*
X155621495Y-120165361D01*
X155649352Y-120217478D01*
X155686841Y-120263159D01*
X155700572Y-120274428D01*
X155700000Y-120275000D01*
X155700000Y-120800000D01*
X156225000Y-120800000D01*
X156300000Y-120725000D01*
X156301452Y-120500000D01*
X156295660Y-120441190D01*
X156278505Y-120384639D01*
X156260427Y-120350818D01*
X156725000Y-120350000D01*
X156800000Y-120275000D01*
X156800000Y-119725000D01*
X155675000Y-119725000D01*
X155600000Y-119800000D01*
X155598548Y-120050000D01*
X148643614Y-120050000D01*
X148564831Y-119971217D01*
X148471375Y-119894519D01*
X148471375Y-119839983D01*
X148436789Y-119666105D01*
X148368945Y-119502315D01*
X148270451Y-119354908D01*
X148145092Y-119229549D01*
X147997685Y-119131055D01*
X147833895Y-119063211D01*
X147660017Y-119028625D01*
X147482733Y-119028625D01*
X147308855Y-119063211D01*
X147145065Y-119131055D01*
X146997658Y-119229549D01*
X146872299Y-119354908D01*
X146773805Y-119502315D01*
X146705961Y-119666105D01*
X146698719Y-119702514D01*
X146537480Y-119734586D01*
X146373690Y-119802430D01*
X146226283Y-119900924D01*
X146100924Y-120026283D01*
X146002430Y-120173690D01*
X145934586Y-120337480D01*
X145900000Y-120511358D01*
X145900000Y-120688642D01*
X145934586Y-120862520D01*
X146002430Y-121026310D01*
X146100924Y-121173717D01*
X146226283Y-121299076D01*
X146373690Y-121397570D01*
X146537480Y-121465414D01*
X146579962Y-121473864D01*
X146610332Y-121573982D01*
X146670391Y-121686345D01*
X146751217Y-121784831D01*
X146995169Y-122028783D01*
X147093655Y-122109609D01*
X147206018Y-122169668D01*
X147327938Y-122206652D01*
X147378380Y-122211620D01*
X147383348Y-122262062D01*
X147420332Y-122383982D01*
X147480391Y-122496345D01*
X147561217Y-122594831D01*
X147805169Y-122838783D01*
X147903655Y-122919609D01*
X148016018Y-122979668D01*
X148137938Y-123016652D01*
X148167189Y-123019533D01*
X148173348Y-123082062D01*
X148210332Y-123203982D01*
X148270391Y-123316345D01*
X148351217Y-123414831D01*
X148595169Y-123658783D01*
X148693655Y-123739609D01*
X148710279Y-123748495D01*
X148716639Y-123780467D01*
X148784483Y-123944257D01*
X148882977Y-124091664D01*
X149008336Y-124217023D01*
X149155743Y-124315517D01*
X149319533Y-124383361D01*
X149403184Y-124400000D01*
X147456562Y-124400000D01*
X147439490Y-124374497D01*
X147439464Y-124374457D01*
X147439453Y-124374443D01*
X146440903Y-122969345D01*
X146434712Y-122961421D01*
X146428992Y-122953191D01*
X146408807Y-122928264D01*
X146408785Y-122928236D01*
X146408775Y-122928226D01*
X145286985Y-121619410D01*
X145280104Y-121612082D01*
X145273659Y-121604402D01*
X145251301Y-121581410D01*
X145251274Y-121581381D01*
X145251262Y-121581371D01*
X144015468Y-120379612D01*
X144007959Y-120372945D01*
X144000837Y-120365873D01*
X143976457Y-120344977D01*
X142636818Y-119260159D01*
X142628730Y-119254196D01*
X142621002Y-119247803D01*
X142594867Y-119229229D01*
X142594829Y-119229201D01*
X142594813Y-119229192D01*
X142252451Y-119000000D01*
X155598548Y-119000000D01*
X155600000Y-119250000D01*
X155675000Y-119325000D01*
X156800000Y-119325000D01*
X156800000Y-118775000D01*
X157200000Y-118775000D01*
X157200000Y-119325000D01*
X158325000Y-119325000D01*
X158400000Y-119250000D01*
X158401452Y-119000000D01*
X158395660Y-118941190D01*
X158378505Y-118884639D01*
X158350648Y-118832522D01*
X158313159Y-118786841D01*
X158267478Y-118749352D01*
X158215361Y-118721495D01*
X158158810Y-118704340D01*
X158100000Y-118698548D01*
X157275000Y-118700000D01*
X157200000Y-118775000D01*
X156800000Y-118775000D01*
X156725000Y-118700000D01*
X155900000Y-118698548D01*
X155841190Y-118704340D01*
X155784639Y-118721495D01*
X155732522Y-118749352D01*
X155686841Y-118786841D01*
X155649352Y-118832522D01*
X155621495Y-118884639D01*
X155604340Y-118941190D01*
X155598548Y-119000000D01*
X142252451Y-119000000D01*
X141162383Y-118270263D01*
X141153789Y-118265058D01*
X141145512Y-118259391D01*
X141117803Y-118243264D01*
X141117761Y-118243238D01*
X141117744Y-118243230D01*
X139604300Y-117418073D01*
X139595270Y-117413669D01*
X139586513Y-117408775D01*
X139557412Y-117395204D01*
X137975392Y-116710603D01*
X137966006Y-116707038D01*
X137956836Y-116702955D01*
X137926625Y-116692078D01*
X136289070Y-116153677D01*
X136279387Y-116150973D01*
X136269897Y-116147743D01*
X136238824Y-116139648D01*
X134761235Y-115798520D01*
X134762419Y-115786500D01*
X134762419Y-114567964D01*
X135430979Y-113899405D01*
X135454823Y-113879837D01*
X135474395Y-113855989D01*
X135532925Y-113784670D01*
X135590961Y-113676093D01*
X135603710Y-113634066D01*
X135626700Y-113558278D01*
X135635054Y-113473461D01*
X135709819Y-113398696D01*
X135747425Y-113342414D01*
X139400000Y-113342414D01*
X139400000Y-113657586D01*
X139461487Y-113966703D01*
X139582098Y-114257884D01*
X139757199Y-114519941D01*
X139980059Y-114742801D01*
X140242116Y-114917902D01*
X140533297Y-115038513D01*
X140842414Y-115100000D01*
X141157586Y-115100000D01*
X141466703Y-115038513D01*
X141506228Y-115022141D01*
X151846699Y-115022141D01*
X151846699Y-115579859D01*
X151955505Y-116126860D01*
X152168934Y-116642124D01*
X152478785Y-117105849D01*
X152873151Y-117500215D01*
X153336876Y-117810066D01*
X153852140Y-118023495D01*
X154399141Y-118132301D01*
X154956859Y-118132301D01*
X155503860Y-118023495D01*
X156019124Y-117810066D01*
X156482849Y-117500215D01*
X156877215Y-117105849D01*
X157187066Y-116642124D01*
X157400495Y-116126860D01*
X157509301Y-115579859D01*
X157509301Y-115022141D01*
X157400495Y-114475140D01*
X157187066Y-113959876D01*
X156877215Y-113496151D01*
X156482849Y-113101785D01*
X156019124Y-112791934D01*
X155503860Y-112578505D01*
X154956859Y-112469699D01*
X154399141Y-112469699D01*
X153852140Y-112578505D01*
X153336876Y-112791934D01*
X152873151Y-113101785D01*
X152478785Y-113496151D01*
X152168934Y-113959876D01*
X151955505Y-114475140D01*
X151846699Y-115022141D01*
X141506228Y-115022141D01*
X141757884Y-114917902D01*
X142019941Y-114742801D01*
X142242801Y-114519941D01*
X142417902Y-114257884D01*
X142538513Y-113966703D01*
X142600000Y-113657586D01*
X142600000Y-113342414D01*
X142538513Y-113033297D01*
X142417902Y-112742116D01*
X142242801Y-112480059D01*
X142019941Y-112257199D01*
X141757884Y-112082098D01*
X141466703Y-111961487D01*
X141157586Y-111900000D01*
X140842414Y-111900000D01*
X140533297Y-111961487D01*
X140242116Y-112082098D01*
X139980059Y-112257199D01*
X139757199Y-112480059D01*
X139582098Y-112742116D01*
X139461487Y-113033297D01*
X139400000Y-113342414D01*
X135747425Y-113342414D01*
X135808313Y-113251289D01*
X135876157Y-113087499D01*
X135910743Y-112913621D01*
X135910743Y-112736337D01*
X135876157Y-112562459D01*
X135808313Y-112398669D01*
X135709819Y-112251262D01*
X135584460Y-112125903D01*
X135437053Y-112027409D01*
X135273263Y-111959565D01*
X135099385Y-111924979D01*
X134922101Y-111924979D01*
X134748223Y-111959565D01*
X134584433Y-112027409D01*
X134437026Y-112125903D01*
X134311667Y-112251262D01*
X134310000Y-112253757D01*
X134310000Y-109639358D01*
X145150000Y-109639358D01*
X145150000Y-109816642D01*
X145184586Y-109990520D01*
X145252430Y-110154310D01*
X145350924Y-110301717D01*
X145476283Y-110427076D01*
X145623690Y-110525570D01*
X145787480Y-110593414D01*
X145920189Y-110619811D01*
X145946586Y-110752520D01*
X146014430Y-110916310D01*
X146112924Y-111063717D01*
X146238283Y-111189076D01*
X146385690Y-111287570D01*
X146549480Y-111355414D01*
X146723358Y-111390000D01*
X146900642Y-111390000D01*
X147074520Y-111355414D01*
X147238310Y-111287570D01*
X147385717Y-111189076D01*
X147511076Y-111063717D01*
X147609570Y-110916310D01*
X147677414Y-110752520D01*
X147712000Y-110578642D01*
X147712000Y-110401358D01*
X147677414Y-110227480D01*
X147609570Y-110063690D01*
X147511076Y-109916283D01*
X147385717Y-109790924D01*
X147238310Y-109692430D01*
X147074520Y-109624586D01*
X146941811Y-109598189D01*
X146915414Y-109465480D01*
X146847570Y-109301690D01*
X146749076Y-109154283D01*
X146623717Y-109028924D01*
X146476310Y-108930430D01*
X146312520Y-108862586D01*
X146138642Y-108828000D01*
X145961358Y-108828000D01*
X145787480Y-108862586D01*
X145623690Y-108930430D01*
X145476283Y-109028924D01*
X145350924Y-109154283D01*
X145252430Y-109301690D01*
X145184586Y-109465480D01*
X145150000Y-109639358D01*
X134310000Y-109639358D01*
X134310000Y-100300000D01*
X140442620Y-100300000D01*
X140441178Y-100538756D01*
G36*
X175200000Y-124400000D02*
G01*
X165989950Y-124400000D01*
X166043726Y-124346224D01*
X166120332Y-124231574D01*
X166173099Y-124104182D01*
X166200000Y-123968944D01*
X166200000Y-123831056D01*
X166173099Y-123695818D01*
X166120332Y-123568426D01*
X166043726Y-123453776D01*
X165946224Y-123356274D01*
X165831574Y-123279668D01*
X165704182Y-123226901D01*
X165568944Y-123200000D01*
X165431056Y-123200000D01*
X165295818Y-123226901D01*
X165168426Y-123279668D01*
X165053776Y-123356274D01*
X164956274Y-123453776D01*
X164900000Y-123537997D01*
X164900000Y-121600000D01*
X173000000Y-121600000D01*
X173019509Y-121598079D01*
X173038268Y-121592388D01*
X173055557Y-121583147D01*
X173070711Y-121570711D01*
X173083147Y-121555557D01*
X173092388Y-121538268D01*
X173098079Y-121519509D01*
X173100000Y-121500000D01*
X173100000Y-118100000D01*
X175200000Y-118100000D01*
X175200000Y-124400000D01*
G37*
X175200000Y-124400000D02*
X165989950Y-124400000D01*
X166043726Y-124346224D01*
X166120332Y-124231574D01*
X166173099Y-124104182D01*
X166200000Y-123968944D01*
X166200000Y-123831056D01*
X166173099Y-123695818D01*
X166120332Y-123568426D01*
X166043726Y-123453776D01*
X165946224Y-123356274D01*
X165831574Y-123279668D01*
X165704182Y-123226901D01*
X165568944Y-123200000D01*
X165431056Y-123200000D01*
X165295818Y-123226901D01*
X165168426Y-123279668D01*
X165053776Y-123356274D01*
X164956274Y-123453776D01*
X164900000Y-123537997D01*
X164900000Y-121600000D01*
X173000000Y-121600000D01*
X173019509Y-121598079D01*
X173038268Y-121592388D01*
X173055557Y-121583147D01*
X173070711Y-121570711D01*
X173083147Y-121555557D01*
X173092388Y-121538268D01*
X173098079Y-121519509D01*
X173100000Y-121500000D01*
X173100000Y-118100000D01*
X175200000Y-118100000D01*
X175200000Y-124400000D01*
G36*
X164300000Y-123510050D02*
G01*
X164246224Y-123456274D01*
X164131574Y-123379668D01*
X164004182Y-123326901D01*
X163868944Y-123300000D01*
X163731056Y-123300000D01*
X163595818Y-123326901D01*
X163468426Y-123379668D01*
X163353776Y-123456274D01*
X163256274Y-123553776D01*
X163179668Y-123668426D01*
X163170710Y-123690052D01*
X163120332Y-123568426D01*
X163043726Y-123453776D01*
X162946224Y-123356274D01*
X162900000Y-123325388D01*
X162900000Y-121100000D01*
X164300000Y-121100000D01*
X164300000Y-123510050D01*
G37*
X164300000Y-123510050D02*
X164246224Y-123456274D01*
X164131574Y-123379668D01*
X164004182Y-123326901D01*
X163868944Y-123300000D01*
X163731056Y-123300000D01*
X163595818Y-123326901D01*
X163468426Y-123379668D01*
X163353776Y-123456274D01*
X163256274Y-123553776D01*
X163179668Y-123668426D01*
X163170710Y-123690052D01*
X163120332Y-123568426D01*
X163043726Y-123453776D01*
X162946224Y-123356274D01*
X162900000Y-123325388D01*
X162900000Y-121100000D01*
X164300000Y-121100000D01*
X164300000Y-123510050D01*
G36*
X162200000Y-123266590D02*
G01*
X162168426Y-123279668D01*
X162053776Y-123356274D01*
X161956274Y-123453776D01*
X161911194Y-123521244D01*
X161846224Y-123456274D01*
X161731574Y-123379668D01*
X161604182Y-123326901D01*
X161468944Y-123300000D01*
X161331056Y-123300000D01*
X161195818Y-123326901D01*
X161068426Y-123379668D01*
X160953776Y-123456274D01*
X160900000Y-123510050D01*
X160900000Y-121100000D01*
X162200000Y-121100000D01*
X162200000Y-123266590D01*
G37*
X162200000Y-123266590D02*
X162168426Y-123279668D01*
X162053776Y-123356274D01*
X161956274Y-123453776D01*
X161911194Y-123521244D01*
X161846224Y-123456274D01*
X161731574Y-123379668D01*
X161604182Y-123326901D01*
X161468944Y-123300000D01*
X161331056Y-123300000D01*
X161195818Y-123326901D01*
X161068426Y-123379668D01*
X160953776Y-123456274D01*
X160900000Y-123510050D01*
X160900000Y-121100000D01*
X162200000Y-121100000D01*
X162200000Y-123266590D01*
D24*
G36*
X118795451Y-70900000D02*
G01*
X118805626Y-71003310D01*
X118835761Y-71102650D01*
X118884696Y-71194202D01*
X118950552Y-71274448D01*
X119030798Y-71340304D01*
X119122350Y-71389239D01*
X119221690Y-71419374D01*
X119325000Y-71429549D01*
X119380608Y-71429549D01*
X119408624Y-71570396D01*
X119478504Y-71739099D01*
X119579952Y-71890928D01*
X119709072Y-72020048D01*
X119860901Y-72121496D01*
X120029604Y-72191376D01*
X120208699Y-72227000D01*
X120391301Y-72227000D01*
X120570396Y-72191376D01*
X120739099Y-72121496D01*
X120890928Y-72020048D01*
X121020048Y-71890928D01*
X121121496Y-71739099D01*
X121191376Y-71570396D01*
X121219392Y-71429549D01*
X121225000Y-71429549D01*
X121328310Y-71419374D01*
X121347763Y-71413473D01*
X121355626Y-71493310D01*
X121369790Y-71540000D01*
X121355626Y-71586690D01*
X121345451Y-71690000D01*
X121345451Y-72378704D01*
X121300552Y-72415552D01*
X121234696Y-72495798D01*
X121185761Y-72587350D01*
X121155626Y-72686690D01*
X121145451Y-72790000D01*
X121145451Y-73590000D01*
X121155626Y-73693310D01*
X121185761Y-73792650D01*
X121234696Y-73884202D01*
X121300552Y-73964448D01*
X121345451Y-74001296D01*
X121345451Y-74473000D01*
X121208699Y-74473000D01*
X121029604Y-74508624D01*
X120860901Y-74578504D01*
X120709072Y-74679952D01*
X120579952Y-74809072D01*
X120478504Y-74960901D01*
X120408624Y-75129604D01*
X120373000Y-75308699D01*
X120373000Y-75491301D01*
X120408624Y-75670396D01*
X120478504Y-75839099D01*
X120579952Y-75990928D01*
X120709072Y-76120048D01*
X120860901Y-76221496D01*
X121029604Y-76291376D01*
X121208699Y-76327000D01*
X121345451Y-76327000D01*
X121345451Y-76890000D01*
X121355626Y-76993310D01*
X121385761Y-77092650D01*
X121434696Y-77184202D01*
X121500552Y-77264448D01*
X121580798Y-77330304D01*
X121672350Y-77379239D01*
X121745451Y-77401414D01*
X121745451Y-77778586D01*
X121672350Y-77800761D01*
X121580798Y-77849696D01*
X121500552Y-77915552D01*
X121434696Y-77995798D01*
X121385761Y-78087350D01*
X121355626Y-78186690D01*
X121345451Y-78290000D01*
X121345451Y-79090000D01*
X121355626Y-79193310D01*
X121385761Y-79292650D01*
X121434696Y-79384202D01*
X121500552Y-79464448D01*
X121580798Y-79530304D01*
X121672350Y-79579239D01*
X121771690Y-79609374D01*
X121875000Y-79619549D01*
X123875000Y-79619549D01*
X123978310Y-79609374D01*
X124077650Y-79579239D01*
X124169202Y-79530304D01*
X124249448Y-79464448D01*
X124315304Y-79384202D01*
X124337861Y-79342000D01*
X125319934Y-79342000D01*
X126116320Y-80138387D01*
X126136736Y-80163264D01*
X126236016Y-80244741D01*
X126349283Y-80305283D01*
X126472185Y-80342565D01*
X126600000Y-80355154D01*
X126632022Y-80352000D01*
X135589673Y-80352000D01*
X135691352Y-80435446D01*
X135808405Y-80498012D01*
X135935414Y-80536540D01*
X136067500Y-80549549D01*
X136362500Y-80549549D01*
X136494586Y-80536540D01*
X136621595Y-80498012D01*
X136700000Y-80456104D01*
X136778405Y-80498012D01*
X136905414Y-80536540D01*
X137037500Y-80549549D01*
X137332500Y-80549549D01*
X137464586Y-80536540D01*
X137546313Y-80511748D01*
X137560901Y-80521496D01*
X137729604Y-80591376D01*
X137908699Y-80627000D01*
X138091301Y-80627000D01*
X138270396Y-80591376D01*
X138439099Y-80521496D01*
X138590928Y-80420048D01*
X138720048Y-80290928D01*
X138821496Y-80139099D01*
X138891376Y-79970396D01*
X138927000Y-79791301D01*
X138927000Y-79608699D01*
X138891376Y-79429604D01*
X138821496Y-79260901D01*
X138720048Y-79109072D01*
X138710976Y-79100000D01*
X138720048Y-79090928D01*
X138821496Y-78939099D01*
X138891376Y-78770396D01*
X138927000Y-78591301D01*
X138927000Y-78408699D01*
X138891376Y-78229604D01*
X138821496Y-78060901D01*
X138720048Y-77909072D01*
X138590928Y-77779952D01*
X138439099Y-77678504D01*
X138270396Y-77608624D01*
X138091301Y-77573000D01*
X137908699Y-77573000D01*
X137729604Y-77608624D01*
X137560901Y-77678504D01*
X137546313Y-77688252D01*
X137464586Y-77663460D01*
X137332500Y-77650451D01*
X137094617Y-77650451D01*
X137343069Y-77402000D01*
X141832114Y-77402000D01*
X148718533Y-84288420D01*
X148738949Y-84313297D01*
X148838229Y-84394774D01*
X148951496Y-84455316D01*
X148993241Y-84467979D01*
X149074398Y-84492598D01*
X149202213Y-84505187D01*
X149234235Y-84502033D01*
X152639967Y-84502033D01*
X152908385Y-84770451D01*
X152540000Y-84770451D01*
X152436690Y-84780626D01*
X152337350Y-84810761D01*
X152245798Y-84859696D01*
X152165552Y-84925552D01*
X152099696Y-85005798D01*
X152084019Y-85035128D01*
X152077099Y-85030504D01*
X151908396Y-84960624D01*
X151729301Y-84925000D01*
X151546699Y-84925000D01*
X151367604Y-84960624D01*
X151198901Y-85030504D01*
X151047072Y-85131952D01*
X150917952Y-85261072D01*
X150816504Y-85412901D01*
X150746624Y-85581604D01*
X150711000Y-85760699D01*
X150711000Y-85943301D01*
X150746624Y-86122396D01*
X150758245Y-86150451D01*
X150587500Y-86150451D01*
X150455414Y-86163460D01*
X150328405Y-86201988D01*
X150250000Y-86243896D01*
X150171595Y-86201988D01*
X150044586Y-86163460D01*
X149912500Y-86150451D01*
X149617500Y-86150451D01*
X149485414Y-86163460D01*
X149437713Y-86177930D01*
X149270396Y-86108624D01*
X149091301Y-86073000D01*
X148908699Y-86073000D01*
X148729604Y-86108624D01*
X148560901Y-86178504D01*
X148409072Y-86279952D01*
X148279952Y-86409072D01*
X148178504Y-86560901D01*
X148108624Y-86729604D01*
X148073000Y-86908699D01*
X148073000Y-87091301D01*
X148108624Y-87270396D01*
X148178504Y-87439099D01*
X148279952Y-87590928D01*
X148409072Y-87720048D01*
X148560901Y-87821496D01*
X148729604Y-87891376D01*
X148908699Y-87927000D01*
X149091301Y-87927000D01*
X149270396Y-87891376D01*
X149437713Y-87822070D01*
X149485414Y-87836540D01*
X149617500Y-87849549D01*
X149912500Y-87849549D01*
X150044586Y-87836540D01*
X150171595Y-87798012D01*
X150250000Y-87756104D01*
X150328405Y-87798012D01*
X150455414Y-87836540D01*
X150587500Y-87849549D01*
X150882500Y-87849549D01*
X151014586Y-87836540D01*
X151141595Y-87798012D01*
X151258648Y-87735446D01*
X151360327Y-87652000D01*
X151717978Y-87652000D01*
X151750000Y-87655154D01*
X151782022Y-87652000D01*
X151877814Y-87642565D01*
X152000717Y-87605283D01*
X152113984Y-87544741D01*
X152213264Y-87463264D01*
X152233685Y-87438382D01*
X152372242Y-87299824D01*
X152436690Y-87319374D01*
X152540000Y-87329549D01*
X153140000Y-87329549D01*
X153243310Y-87319374D01*
X153342650Y-87289239D01*
X153434202Y-87240304D01*
X153475000Y-87206822D01*
X153515798Y-87240304D01*
X153607350Y-87289239D01*
X153706690Y-87319374D01*
X153810000Y-87329549D01*
X154410000Y-87329549D01*
X154513310Y-87319374D01*
X154612650Y-87289239D01*
X154704202Y-87240304D01*
X154745000Y-87206822D01*
X154785798Y-87240304D01*
X154877350Y-87289239D01*
X154976690Y-87319374D01*
X155080000Y-87329549D01*
X155680000Y-87329549D01*
X155783310Y-87319374D01*
X155882650Y-87289239D01*
X155974202Y-87240304D01*
X156015000Y-87206822D01*
X156055798Y-87240304D01*
X156147350Y-87289239D01*
X156246690Y-87319374D01*
X156350000Y-87329549D01*
X156950000Y-87329549D01*
X157053310Y-87319374D01*
X157152650Y-87289239D01*
X157244202Y-87240304D01*
X157285000Y-87206822D01*
X157325798Y-87240304D01*
X157417350Y-87289239D01*
X157516690Y-87319374D01*
X157620000Y-87329549D01*
X158220000Y-87329549D01*
X158323310Y-87319374D01*
X158422650Y-87289239D01*
X158514202Y-87240304D01*
X158555000Y-87206822D01*
X158595798Y-87240304D01*
X158687350Y-87289239D01*
X158786690Y-87319374D01*
X158890000Y-87329549D01*
X159490000Y-87329549D01*
X159593310Y-87319374D01*
X159692650Y-87289239D01*
X159784202Y-87240304D01*
X159825000Y-87206822D01*
X159865798Y-87240304D01*
X159872426Y-87243847D01*
X159915260Y-87323984D01*
X159996737Y-87423264D01*
X160021614Y-87443680D01*
X160073000Y-87495066D01*
X160073000Y-87591301D01*
X160108624Y-87770396D01*
X160178504Y-87939099D01*
X160279952Y-88090928D01*
X160409072Y-88220048D01*
X160560901Y-88321496D01*
X160729604Y-88391376D01*
X160908699Y-88427000D01*
X161091301Y-88427000D01*
X161270396Y-88391376D01*
X161439099Y-88321496D01*
X161590928Y-88220048D01*
X161720048Y-88090928D01*
X161722673Y-88087000D01*
X161830135Y-88087000D01*
X161901352Y-88145446D01*
X162018405Y-88208012D01*
X162145414Y-88246540D01*
X162277500Y-88259549D01*
X162622500Y-88259549D01*
X162754586Y-88246540D01*
X162881595Y-88208012D01*
X162998648Y-88145446D01*
X163101246Y-88061246D01*
X163185446Y-87958648D01*
X163248012Y-87841595D01*
X163286540Y-87714586D01*
X163299549Y-87582500D01*
X163299549Y-87287500D01*
X163286540Y-87155414D01*
X163248012Y-87028405D01*
X163206104Y-86950000D01*
X163248012Y-86871595D01*
X163286540Y-86744586D01*
X163299549Y-86612500D01*
X163299549Y-86537518D01*
X163563389Y-86273678D01*
X163588265Y-86253263D01*
X163669742Y-86153983D01*
X163730284Y-86040716D01*
X163748925Y-85979264D01*
X163767566Y-85917814D01*
X163780155Y-85789999D01*
X163777001Y-85757977D01*
X163777001Y-81457023D01*
X163780155Y-81425001D01*
X163767566Y-81297186D01*
X163738302Y-81200715D01*
X163730284Y-81174284D01*
X163669742Y-81061017D01*
X163588265Y-80961737D01*
X163563387Y-80941321D01*
X163298455Y-80676388D01*
X163288269Y-80572965D01*
X163360901Y-80621496D01*
X163529604Y-80691376D01*
X163708699Y-80727000D01*
X163891301Y-80727000D01*
X164070396Y-80691376D01*
X164239099Y-80621496D01*
X164273000Y-80598844D01*
X164273000Y-90930036D01*
X163656854Y-91069670D01*
X163620653Y-91080510D01*
X163584318Y-91090976D01*
X163578405Y-91093160D01*
X162496334Y-91499217D01*
X162461891Y-91514891D01*
X162427362Y-91530170D01*
X162421799Y-91533136D01*
X161404849Y-92082289D01*
X161372912Y-92102455D01*
X161340714Y-92122316D01*
X161335606Y-92126010D01*
X160402593Y-92808099D01*
X160373687Y-92832413D01*
X160344484Y-92856460D01*
X160339924Y-92860813D01*
X159513273Y-93658240D01*
X159259668Y-93891511D01*
X159009880Y-94044032D01*
X158735222Y-94145134D01*
X158446163Y-94190961D01*
X158153700Y-94179769D01*
X157868985Y-94111986D01*
X157602857Y-93990191D01*
X157364529Y-93818358D01*
X157133667Y-93572720D01*
X157131208Y-93570569D01*
X157125878Y-93564586D01*
X156608628Y-93034462D01*
X156604876Y-93031095D01*
X156601538Y-93027316D01*
X156561043Y-92990666D01*
X155641139Y-92231114D01*
X155630895Y-92223740D01*
X155621364Y-92215471D01*
X155576378Y-92184499D01*
X154564100Y-91553283D01*
X154552970Y-91547329D01*
X154542430Y-91540393D01*
X154493781Y-91515662D01*
X154493743Y-91515642D01*
X154493730Y-91515637D01*
X153406875Y-91023851D01*
X153395051Y-91019419D01*
X153383691Y-91013941D01*
X153332158Y-90995847D01*
X152189794Y-90652121D01*
X152177490Y-90649293D01*
X152165503Y-90645364D01*
X152112075Y-90634254D01*
X152112029Y-90634244D01*
X152112014Y-90634243D01*
X150934242Y-90444623D01*
X150921679Y-90443447D01*
X150909269Y-90441137D01*
X150854799Y-90437188D01*
X150854795Y-90437188D01*
X149662275Y-90405002D01*
X149649661Y-90405498D01*
X149637061Y-90404850D01*
X149582543Y-90408140D01*
X148396242Y-90533955D01*
X148383805Y-90536115D01*
X148371230Y-90537139D01*
X148317626Y-90547611D01*
X147158386Y-90829216D01*
X147146348Y-90833001D01*
X147134013Y-90835680D01*
X147082295Y-90853140D01*
X147082266Y-90853149D01*
X147082258Y-90853153D01*
X145970452Y-91285598D01*
X145959015Y-91290944D01*
X145947149Y-91295229D01*
X145898187Y-91319379D01*
X145898167Y-91319388D01*
X145898162Y-91319391D01*
X144853314Y-91895084D01*
X144842681Y-91901898D01*
X144831491Y-91907712D01*
X144786133Y-91938137D01*
X143826599Y-92646963D01*
X143816969Y-92655116D01*
X143806636Y-92662366D01*
X143765701Y-92698523D01*
X142908342Y-93528026D01*
X142899870Y-93537387D01*
X142890592Y-93545935D01*
X142854798Y-93587189D01*
X142114679Y-94522797D01*
X142107522Y-94533193D01*
X142099453Y-94542896D01*
X142069445Y-94588498D01*
X142069430Y-94588520D01*
X142069427Y-94588527D01*
X141459552Y-95613796D01*
X141453831Y-95625050D01*
X141447119Y-95635731D01*
X141423412Y-95684888D01*
X141423393Y-95684926D01*
X141423388Y-95684939D01*
X140954471Y-96781854D01*
X140950289Y-96793764D01*
X140945048Y-96805241D01*
X140928038Y-96857142D01*
X140608311Y-98006453D01*
X140605740Y-98018817D01*
X140602064Y-98030882D01*
X140592067Y-98084576D01*
X140427153Y-99266076D01*
X140426241Y-99278662D01*
X140424191Y-99291116D01*
X140421384Y-99345661D01*
X140419407Y-99673000D01*
X134337000Y-99673000D01*
X134337000Y-95015484D01*
X134424718Y-95227254D01*
X134575414Y-95452787D01*
X134767213Y-95644586D01*
X134992746Y-95795282D01*
X135243344Y-95899083D01*
X135509377Y-95952000D01*
X135780623Y-95952000D01*
X136046656Y-95899083D01*
X136297254Y-95795282D01*
X136522787Y-95644586D01*
X136714586Y-95452787D01*
X136865282Y-95227254D01*
X136969083Y-94976656D01*
X137022000Y-94710623D01*
X137022000Y-94439377D01*
X136969083Y-94173344D01*
X136865282Y-93922746D01*
X136714586Y-93697213D01*
X136522787Y-93505414D01*
X136297254Y-93354718D01*
X136046656Y-93250917D01*
X135780623Y-93198000D01*
X135509377Y-93198000D01*
X135243344Y-93250917D01*
X134992746Y-93354718D01*
X134767213Y-93505414D01*
X134575414Y-93697213D01*
X134424718Y-93922746D01*
X134337000Y-94134516D01*
X134337000Y-92198163D01*
X134340759Y-92159999D01*
X134337000Y-92121834D01*
X134325757Y-92007681D01*
X134281327Y-91861216D01*
X134265139Y-91830931D01*
X134209177Y-91726233D01*
X134136409Y-91637565D01*
X134136408Y-91637564D01*
X134112080Y-91607920D01*
X134082436Y-91583592D01*
X133541893Y-91043049D01*
X134260000Y-91043049D01*
X134363310Y-91032874D01*
X134462650Y-91002739D01*
X134554202Y-90953804D01*
X134634448Y-90887948D01*
X134700304Y-90807702D01*
X134749239Y-90716150D01*
X134779374Y-90616810D01*
X134789549Y-90513500D01*
X134789549Y-89532517D01*
X134995067Y-89327000D01*
X135091301Y-89327000D01*
X135270396Y-89291376D01*
X135439099Y-89221496D01*
X135590928Y-89120048D01*
X135720048Y-88990928D01*
X135821496Y-88839099D01*
X135891376Y-88670396D01*
X135927000Y-88491301D01*
X135927000Y-88308699D01*
X135891376Y-88129604D01*
X135821496Y-87960901D01*
X135720048Y-87809072D01*
X135590928Y-87679952D01*
X135439099Y-87578504D01*
X135270396Y-87508624D01*
X135091301Y-87473000D01*
X134908699Y-87473000D01*
X134729604Y-87508624D01*
X134560901Y-87578504D01*
X134409072Y-87679952D01*
X134279952Y-87809072D01*
X134178504Y-87960901D01*
X134108624Y-88129604D01*
X134097814Y-88183951D01*
X132860000Y-88183951D01*
X132756690Y-88194126D01*
X132657350Y-88224261D01*
X132565798Y-88273196D01*
X132485552Y-88339052D01*
X132419696Y-88419298D01*
X132370761Y-88510850D01*
X132340626Y-88610190D01*
X132330451Y-88713500D01*
X132330451Y-89831608D01*
X132249549Y-89750706D01*
X132249549Y-88713500D01*
X132239374Y-88610190D01*
X132209239Y-88510850D01*
X132160304Y-88419298D01*
X132094448Y-88339052D01*
X132014202Y-88273196D01*
X131922650Y-88224261D01*
X131823310Y-88194126D01*
X131720000Y-88183951D01*
X130320000Y-88183951D01*
X130216690Y-88194126D01*
X130117350Y-88224261D01*
X130025798Y-88273196D01*
X129945552Y-88339052D01*
X129879696Y-88419298D01*
X129830761Y-88510850D01*
X129800626Y-88610190D01*
X129790451Y-88713500D01*
X129790451Y-90001884D01*
X129709549Y-89920982D01*
X129709549Y-88713500D01*
X129699374Y-88610190D01*
X129669239Y-88510850D01*
X129620304Y-88419298D01*
X129607401Y-88403575D01*
X129607708Y-88403268D01*
X129709156Y-88251439D01*
X129779036Y-88082736D01*
X129814660Y-87903641D01*
X129814660Y-87721039D01*
X129779036Y-87541944D01*
X129709156Y-87373241D01*
X129607708Y-87221412D01*
X129478588Y-87092292D01*
X129326759Y-86990844D01*
X129158056Y-86920964D01*
X128978961Y-86885340D01*
X128796359Y-86885340D01*
X128617264Y-86920964D01*
X128448561Y-86990844D01*
X128296732Y-87092292D01*
X128167612Y-87221412D01*
X128066164Y-87373241D01*
X127996284Y-87541944D01*
X127960660Y-87721039D01*
X127960660Y-87825066D01*
X127935260Y-87856016D01*
X127916360Y-87891376D01*
X127874717Y-87969284D01*
X127837435Y-88092186D01*
X127828397Y-88183951D01*
X127780000Y-88183951D01*
X127676690Y-88194126D01*
X127577350Y-88224261D01*
X127485798Y-88273196D01*
X127405552Y-88339052D01*
X127339696Y-88419298D01*
X127290761Y-88510850D01*
X127260626Y-88610190D01*
X127250451Y-88713500D01*
X127250451Y-90513500D01*
X127260626Y-90616810D01*
X127290761Y-90716150D01*
X127339696Y-90807702D01*
X127405552Y-90887948D01*
X127485798Y-90953804D01*
X127577350Y-91002739D01*
X127676690Y-91032874D01*
X127780000Y-91043049D01*
X128744477Y-91043049D01*
X128708624Y-91129604D01*
X128673000Y-91308699D01*
X128673000Y-91491301D01*
X128708624Y-91670396D01*
X128778504Y-91839099D01*
X128879952Y-91990928D01*
X129009072Y-92120048D01*
X129160901Y-92221496D01*
X129329604Y-92291376D01*
X129508699Y-92327000D01*
X129691301Y-92327000D01*
X129870396Y-92291376D01*
X130039099Y-92221496D01*
X130190928Y-92120048D01*
X130320048Y-91990928D01*
X130421496Y-91839099D01*
X130491376Y-91670396D01*
X130527000Y-91491301D01*
X130527000Y-91308699D01*
X130491376Y-91129604D01*
X130455523Y-91043049D01*
X131344206Y-91043049D01*
X132783001Y-92481845D01*
X132783001Y-99673000D01*
X122102000Y-99673000D01*
X122102000Y-96108699D01*
X125273000Y-96108699D01*
X125273000Y-96291301D01*
X125308624Y-96470396D01*
X125378504Y-96639099D01*
X125479952Y-96790928D01*
X125609072Y-96920048D01*
X125760901Y-97021496D01*
X125929604Y-97091376D01*
X126108699Y-97127000D01*
X126291301Y-97127000D01*
X126470396Y-97091376D01*
X126639099Y-97021496D01*
X126790928Y-96920048D01*
X126920048Y-96790928D01*
X127021496Y-96639099D01*
X127091376Y-96470396D01*
X127127000Y-96291301D01*
X127127000Y-96108699D01*
X127091376Y-95929604D01*
X127021496Y-95760901D01*
X126920048Y-95609072D01*
X126790928Y-95479952D01*
X126639099Y-95378504D01*
X126470396Y-95308624D01*
X126291301Y-95273000D01*
X126108699Y-95273000D01*
X125929604Y-95308624D01*
X125760901Y-95378504D01*
X125609072Y-95479952D01*
X125479952Y-95609072D01*
X125378504Y-95760901D01*
X125308624Y-95929604D01*
X125273000Y-96108699D01*
X122102000Y-96108699D01*
X122102000Y-94708699D01*
X130473000Y-94708699D01*
X130473000Y-94891301D01*
X130508624Y-95070396D01*
X130578504Y-95239099D01*
X130679952Y-95390928D01*
X130809072Y-95520048D01*
X130899000Y-95580135D01*
X130899000Y-95691301D01*
X130934624Y-95870396D01*
X131004504Y-96039099D01*
X131105952Y-96190928D01*
X131235072Y-96320048D01*
X131386901Y-96421496D01*
X131555604Y-96491376D01*
X131734699Y-96527000D01*
X131917301Y-96527000D01*
X132096396Y-96491376D01*
X132265099Y-96421496D01*
X132416928Y-96320048D01*
X132546048Y-96190928D01*
X132647496Y-96039099D01*
X132717376Y-95870396D01*
X132753000Y-95691301D01*
X132753000Y-95508699D01*
X132717376Y-95329604D01*
X132647496Y-95160901D01*
X132546048Y-95009072D01*
X132416928Y-94879952D01*
X132327000Y-94819865D01*
X132327000Y-94708699D01*
X132291376Y-94529604D01*
X132221496Y-94360901D01*
X132120048Y-94209072D01*
X131990928Y-94079952D01*
X131839099Y-93978504D01*
X131670396Y-93908624D01*
X131491301Y-93873000D01*
X131308699Y-93873000D01*
X131129604Y-93908624D01*
X130960901Y-93978504D01*
X130809072Y-94079952D01*
X130679952Y-94209072D01*
X130578504Y-94360901D01*
X130508624Y-94529604D01*
X130473000Y-94708699D01*
X122102000Y-94708699D01*
X122102000Y-86411161D01*
X125598000Y-86411161D01*
X125598000Y-86588839D01*
X125632664Y-86763104D01*
X125700658Y-86927257D01*
X125799371Y-87074991D01*
X125925009Y-87200629D01*
X126072743Y-87299342D01*
X126236896Y-87367336D01*
X126411161Y-87402000D01*
X126588839Y-87402000D01*
X126763104Y-87367336D01*
X126927257Y-87299342D01*
X127074991Y-87200629D01*
X127200629Y-87074991D01*
X127299342Y-86927257D01*
X127367336Y-86763104D01*
X127402000Y-86588839D01*
X127402000Y-86411161D01*
X127367336Y-86236896D01*
X127299342Y-86072743D01*
X127200629Y-85925009D01*
X127074991Y-85799371D01*
X126927257Y-85700658D01*
X126763104Y-85632664D01*
X126588839Y-85598000D01*
X126411161Y-85598000D01*
X126236896Y-85632664D01*
X126072743Y-85700658D01*
X125925009Y-85799371D01*
X125799371Y-85925009D01*
X125700658Y-86072743D01*
X125632664Y-86236896D01*
X125598000Y-86411161D01*
X122102000Y-86411161D01*
X122102000Y-84744699D01*
X138773000Y-84744699D01*
X138773000Y-84927301D01*
X138808624Y-85106396D01*
X138878504Y-85275099D01*
X138979952Y-85426928D01*
X139109072Y-85556048D01*
X139260901Y-85657496D01*
X139429604Y-85727376D01*
X139608699Y-85763000D01*
X139791301Y-85763000D01*
X139970396Y-85727376D01*
X140139099Y-85657496D01*
X140290928Y-85556048D01*
X140420048Y-85426928D01*
X140521496Y-85275099D01*
X140591376Y-85106396D01*
X140627000Y-84927301D01*
X140627000Y-84744699D01*
X140591376Y-84565604D01*
X140521496Y-84396901D01*
X140420048Y-84245072D01*
X140290928Y-84115952D01*
X140139099Y-84014504D01*
X139970396Y-83944624D01*
X139791301Y-83909000D01*
X139608699Y-83909000D01*
X139429604Y-83944624D01*
X139260901Y-84014504D01*
X139109072Y-84115952D01*
X138979952Y-84245072D01*
X138878504Y-84396901D01*
X138808624Y-84565604D01*
X138773000Y-84744699D01*
X122102000Y-84744699D01*
X122102000Y-84029565D01*
X122104912Y-84000000D01*
X122093289Y-83881988D01*
X122058866Y-83768510D01*
X122002966Y-83663929D01*
X121927737Y-83572263D01*
X121836071Y-83497034D01*
X121731490Y-83441134D01*
X121618012Y-83406711D01*
X121529566Y-83398000D01*
X121500000Y-83395088D01*
X121470434Y-83398000D01*
X120754549Y-83398000D01*
X120754549Y-83054864D01*
X120835105Y-83021496D01*
X120986934Y-82920048D01*
X121116054Y-82790928D01*
X121217502Y-82639099D01*
X121287382Y-82470396D01*
X121323006Y-82291301D01*
X121323006Y-82108699D01*
X121287382Y-81929604D01*
X121217502Y-81760901D01*
X121116054Y-81609072D01*
X120986934Y-81479952D01*
X120835105Y-81378504D01*
X120666402Y-81308624D01*
X120487307Y-81273000D01*
X120304705Y-81273000D01*
X120125610Y-81308624D01*
X119956907Y-81378504D01*
X119805078Y-81479952D01*
X119675958Y-81609072D01*
X119574510Y-81760901D01*
X119504630Y-81929604D01*
X119469006Y-82108699D01*
X119469006Y-82120451D01*
X118325000Y-82120451D01*
X118302000Y-82122716D01*
X118302000Y-69602000D01*
X118795451Y-69602000D01*
X118795451Y-70900000D01*
G37*
X118795451Y-70900000D02*
X118805626Y-71003310D01*
X118835761Y-71102650D01*
X118884696Y-71194202D01*
X118950552Y-71274448D01*
X119030798Y-71340304D01*
X119122350Y-71389239D01*
X119221690Y-71419374D01*
X119325000Y-71429549D01*
X119380608Y-71429549D01*
X119408624Y-71570396D01*
X119478504Y-71739099D01*
X119579952Y-71890928D01*
X119709072Y-72020048D01*
X119860901Y-72121496D01*
X120029604Y-72191376D01*
X120208699Y-72227000D01*
X120391301Y-72227000D01*
X120570396Y-72191376D01*
X120739099Y-72121496D01*
X120890928Y-72020048D01*
X121020048Y-71890928D01*
X121121496Y-71739099D01*
X121191376Y-71570396D01*
X121219392Y-71429549D01*
X121225000Y-71429549D01*
X121328310Y-71419374D01*
X121347763Y-71413473D01*
X121355626Y-71493310D01*
X121369790Y-71540000D01*
X121355626Y-71586690D01*
X121345451Y-71690000D01*
X121345451Y-72378704D01*
X121300552Y-72415552D01*
X121234696Y-72495798D01*
X121185761Y-72587350D01*
X121155626Y-72686690D01*
X121145451Y-72790000D01*
X121145451Y-73590000D01*
X121155626Y-73693310D01*
X121185761Y-73792650D01*
X121234696Y-73884202D01*
X121300552Y-73964448D01*
X121345451Y-74001296D01*
X121345451Y-74473000D01*
X121208699Y-74473000D01*
X121029604Y-74508624D01*
X120860901Y-74578504D01*
X120709072Y-74679952D01*
X120579952Y-74809072D01*
X120478504Y-74960901D01*
X120408624Y-75129604D01*
X120373000Y-75308699D01*
X120373000Y-75491301D01*
X120408624Y-75670396D01*
X120478504Y-75839099D01*
X120579952Y-75990928D01*
X120709072Y-76120048D01*
X120860901Y-76221496D01*
X121029604Y-76291376D01*
X121208699Y-76327000D01*
X121345451Y-76327000D01*
X121345451Y-76890000D01*
X121355626Y-76993310D01*
X121385761Y-77092650D01*
X121434696Y-77184202D01*
X121500552Y-77264448D01*
X121580798Y-77330304D01*
X121672350Y-77379239D01*
X121745451Y-77401414D01*
X121745451Y-77778586D01*
X121672350Y-77800761D01*
X121580798Y-77849696D01*
X121500552Y-77915552D01*
X121434696Y-77995798D01*
X121385761Y-78087350D01*
X121355626Y-78186690D01*
X121345451Y-78290000D01*
X121345451Y-79090000D01*
X121355626Y-79193310D01*
X121385761Y-79292650D01*
X121434696Y-79384202D01*
X121500552Y-79464448D01*
X121580798Y-79530304D01*
X121672350Y-79579239D01*
X121771690Y-79609374D01*
X121875000Y-79619549D01*
X123875000Y-79619549D01*
X123978310Y-79609374D01*
X124077650Y-79579239D01*
X124169202Y-79530304D01*
X124249448Y-79464448D01*
X124315304Y-79384202D01*
X124337861Y-79342000D01*
X125319934Y-79342000D01*
X126116320Y-80138387D01*
X126136736Y-80163264D01*
X126236016Y-80244741D01*
X126349283Y-80305283D01*
X126472185Y-80342565D01*
X126600000Y-80355154D01*
X126632022Y-80352000D01*
X135589673Y-80352000D01*
X135691352Y-80435446D01*
X135808405Y-80498012D01*
X135935414Y-80536540D01*
X136067500Y-80549549D01*
X136362500Y-80549549D01*
X136494586Y-80536540D01*
X136621595Y-80498012D01*
X136700000Y-80456104D01*
X136778405Y-80498012D01*
X136905414Y-80536540D01*
X137037500Y-80549549D01*
X137332500Y-80549549D01*
X137464586Y-80536540D01*
X137546313Y-80511748D01*
X137560901Y-80521496D01*
X137729604Y-80591376D01*
X137908699Y-80627000D01*
X138091301Y-80627000D01*
X138270396Y-80591376D01*
X138439099Y-80521496D01*
X138590928Y-80420048D01*
X138720048Y-80290928D01*
X138821496Y-80139099D01*
X138891376Y-79970396D01*
X138927000Y-79791301D01*
X138927000Y-79608699D01*
X138891376Y-79429604D01*
X138821496Y-79260901D01*
X138720048Y-79109072D01*
X138710976Y-79100000D01*
X138720048Y-79090928D01*
X138821496Y-78939099D01*
X138891376Y-78770396D01*
X138927000Y-78591301D01*
X138927000Y-78408699D01*
X138891376Y-78229604D01*
X138821496Y-78060901D01*
X138720048Y-77909072D01*
X138590928Y-77779952D01*
X138439099Y-77678504D01*
X138270396Y-77608624D01*
X138091301Y-77573000D01*
X137908699Y-77573000D01*
X137729604Y-77608624D01*
X137560901Y-77678504D01*
X137546313Y-77688252D01*
X137464586Y-77663460D01*
X137332500Y-77650451D01*
X137094617Y-77650451D01*
X137343069Y-77402000D01*
X141832114Y-77402000D01*
X148718533Y-84288420D01*
X148738949Y-84313297D01*
X148838229Y-84394774D01*
X148951496Y-84455316D01*
X148993241Y-84467979D01*
X149074398Y-84492598D01*
X149202213Y-84505187D01*
X149234235Y-84502033D01*
X152639967Y-84502033D01*
X152908385Y-84770451D01*
X152540000Y-84770451D01*
X152436690Y-84780626D01*
X152337350Y-84810761D01*
X152245798Y-84859696D01*
X152165552Y-84925552D01*
X152099696Y-85005798D01*
X152084019Y-85035128D01*
X152077099Y-85030504D01*
X151908396Y-84960624D01*
X151729301Y-84925000D01*
X151546699Y-84925000D01*
X151367604Y-84960624D01*
X151198901Y-85030504D01*
X151047072Y-85131952D01*
X150917952Y-85261072D01*
X150816504Y-85412901D01*
X150746624Y-85581604D01*
X150711000Y-85760699D01*
X150711000Y-85943301D01*
X150746624Y-86122396D01*
X150758245Y-86150451D01*
X150587500Y-86150451D01*
X150455414Y-86163460D01*
X150328405Y-86201988D01*
X150250000Y-86243896D01*
X150171595Y-86201988D01*
X150044586Y-86163460D01*
X149912500Y-86150451D01*
X149617500Y-86150451D01*
X149485414Y-86163460D01*
X149437713Y-86177930D01*
X149270396Y-86108624D01*
X149091301Y-86073000D01*
X148908699Y-86073000D01*
X148729604Y-86108624D01*
X148560901Y-86178504D01*
X148409072Y-86279952D01*
X148279952Y-86409072D01*
X148178504Y-86560901D01*
X148108624Y-86729604D01*
X148073000Y-86908699D01*
X148073000Y-87091301D01*
X148108624Y-87270396D01*
X148178504Y-87439099D01*
X148279952Y-87590928D01*
X148409072Y-87720048D01*
X148560901Y-87821496D01*
X148729604Y-87891376D01*
X148908699Y-87927000D01*
X149091301Y-87927000D01*
X149270396Y-87891376D01*
X149437713Y-87822070D01*
X149485414Y-87836540D01*
X149617500Y-87849549D01*
X149912500Y-87849549D01*
X150044586Y-87836540D01*
X150171595Y-87798012D01*
X150250000Y-87756104D01*
X150328405Y-87798012D01*
X150455414Y-87836540D01*
X150587500Y-87849549D01*
X150882500Y-87849549D01*
X151014586Y-87836540D01*
X151141595Y-87798012D01*
X151258648Y-87735446D01*
X151360327Y-87652000D01*
X151717978Y-87652000D01*
X151750000Y-87655154D01*
X151782022Y-87652000D01*
X151877814Y-87642565D01*
X152000717Y-87605283D01*
X152113984Y-87544741D01*
X152213264Y-87463264D01*
X152233685Y-87438382D01*
X152372242Y-87299824D01*
X152436690Y-87319374D01*
X152540000Y-87329549D01*
X153140000Y-87329549D01*
X153243310Y-87319374D01*
X153342650Y-87289239D01*
X153434202Y-87240304D01*
X153475000Y-87206822D01*
X153515798Y-87240304D01*
X153607350Y-87289239D01*
X153706690Y-87319374D01*
X153810000Y-87329549D01*
X154410000Y-87329549D01*
X154513310Y-87319374D01*
X154612650Y-87289239D01*
X154704202Y-87240304D01*
X154745000Y-87206822D01*
X154785798Y-87240304D01*
X154877350Y-87289239D01*
X154976690Y-87319374D01*
X155080000Y-87329549D01*
X155680000Y-87329549D01*
X155783310Y-87319374D01*
X155882650Y-87289239D01*
X155974202Y-87240304D01*
X156015000Y-87206822D01*
X156055798Y-87240304D01*
X156147350Y-87289239D01*
X156246690Y-87319374D01*
X156350000Y-87329549D01*
X156950000Y-87329549D01*
X157053310Y-87319374D01*
X157152650Y-87289239D01*
X157244202Y-87240304D01*
X157285000Y-87206822D01*
X157325798Y-87240304D01*
X157417350Y-87289239D01*
X157516690Y-87319374D01*
X157620000Y-87329549D01*
X158220000Y-87329549D01*
X158323310Y-87319374D01*
X158422650Y-87289239D01*
X158514202Y-87240304D01*
X158555000Y-87206822D01*
X158595798Y-87240304D01*
X158687350Y-87289239D01*
X158786690Y-87319374D01*
X158890000Y-87329549D01*
X159490000Y-87329549D01*
X159593310Y-87319374D01*
X159692650Y-87289239D01*
X159784202Y-87240304D01*
X159825000Y-87206822D01*
X159865798Y-87240304D01*
X159872426Y-87243847D01*
X159915260Y-87323984D01*
X159996737Y-87423264D01*
X160021614Y-87443680D01*
X160073000Y-87495066D01*
X160073000Y-87591301D01*
X160108624Y-87770396D01*
X160178504Y-87939099D01*
X160279952Y-88090928D01*
X160409072Y-88220048D01*
X160560901Y-88321496D01*
X160729604Y-88391376D01*
X160908699Y-88427000D01*
X161091301Y-88427000D01*
X161270396Y-88391376D01*
X161439099Y-88321496D01*
X161590928Y-88220048D01*
X161720048Y-88090928D01*
X161722673Y-88087000D01*
X161830135Y-88087000D01*
X161901352Y-88145446D01*
X162018405Y-88208012D01*
X162145414Y-88246540D01*
X162277500Y-88259549D01*
X162622500Y-88259549D01*
X162754586Y-88246540D01*
X162881595Y-88208012D01*
X162998648Y-88145446D01*
X163101246Y-88061246D01*
X163185446Y-87958648D01*
X163248012Y-87841595D01*
X163286540Y-87714586D01*
X163299549Y-87582500D01*
X163299549Y-87287500D01*
X163286540Y-87155414D01*
X163248012Y-87028405D01*
X163206104Y-86950000D01*
X163248012Y-86871595D01*
X163286540Y-86744586D01*
X163299549Y-86612500D01*
X163299549Y-86537518D01*
X163563389Y-86273678D01*
X163588265Y-86253263D01*
X163669742Y-86153983D01*
X163730284Y-86040716D01*
X163748925Y-85979264D01*
X163767566Y-85917814D01*
X163780155Y-85789999D01*
X163777001Y-85757977D01*
X163777001Y-81457023D01*
X163780155Y-81425001D01*
X163767566Y-81297186D01*
X163738302Y-81200715D01*
X163730284Y-81174284D01*
X163669742Y-81061017D01*
X163588265Y-80961737D01*
X163563387Y-80941321D01*
X163298455Y-80676388D01*
X163288269Y-80572965D01*
X163360901Y-80621496D01*
X163529604Y-80691376D01*
X163708699Y-80727000D01*
X163891301Y-80727000D01*
X164070396Y-80691376D01*
X164239099Y-80621496D01*
X164273000Y-80598844D01*
X164273000Y-90930036D01*
X163656854Y-91069670D01*
X163620653Y-91080510D01*
X163584318Y-91090976D01*
X163578405Y-91093160D01*
X162496334Y-91499217D01*
X162461891Y-91514891D01*
X162427362Y-91530170D01*
X162421799Y-91533136D01*
X161404849Y-92082289D01*
X161372912Y-92102455D01*
X161340714Y-92122316D01*
X161335606Y-92126010D01*
X160402593Y-92808099D01*
X160373687Y-92832413D01*
X160344484Y-92856460D01*
X160339924Y-92860813D01*
X159513273Y-93658240D01*
X159259668Y-93891511D01*
X159009880Y-94044032D01*
X158735222Y-94145134D01*
X158446163Y-94190961D01*
X158153700Y-94179769D01*
X157868985Y-94111986D01*
X157602857Y-93990191D01*
X157364529Y-93818358D01*
X157133667Y-93572720D01*
X157131208Y-93570569D01*
X157125878Y-93564586D01*
X156608628Y-93034462D01*
X156604876Y-93031095D01*
X156601538Y-93027316D01*
X156561043Y-92990666D01*
X155641139Y-92231114D01*
X155630895Y-92223740D01*
X155621364Y-92215471D01*
X155576378Y-92184499D01*
X154564100Y-91553283D01*
X154552970Y-91547329D01*
X154542430Y-91540393D01*
X154493781Y-91515662D01*
X154493743Y-91515642D01*
X154493730Y-91515637D01*
X153406875Y-91023851D01*
X153395051Y-91019419D01*
X153383691Y-91013941D01*
X153332158Y-90995847D01*
X152189794Y-90652121D01*
X152177490Y-90649293D01*
X152165503Y-90645364D01*
X152112075Y-90634254D01*
X152112029Y-90634244D01*
X152112014Y-90634243D01*
X150934242Y-90444623D01*
X150921679Y-90443447D01*
X150909269Y-90441137D01*
X150854799Y-90437188D01*
X150854795Y-90437188D01*
X149662275Y-90405002D01*
X149649661Y-90405498D01*
X149637061Y-90404850D01*
X149582543Y-90408140D01*
X148396242Y-90533955D01*
X148383805Y-90536115D01*
X148371230Y-90537139D01*
X148317626Y-90547611D01*
X147158386Y-90829216D01*
X147146348Y-90833001D01*
X147134013Y-90835680D01*
X147082295Y-90853140D01*
X147082266Y-90853149D01*
X147082258Y-90853153D01*
X145970452Y-91285598D01*
X145959015Y-91290944D01*
X145947149Y-91295229D01*
X145898187Y-91319379D01*
X145898167Y-91319388D01*
X145898162Y-91319391D01*
X144853314Y-91895084D01*
X144842681Y-91901898D01*
X144831491Y-91907712D01*
X144786133Y-91938137D01*
X143826599Y-92646963D01*
X143816969Y-92655116D01*
X143806636Y-92662366D01*
X143765701Y-92698523D01*
X142908342Y-93528026D01*
X142899870Y-93537387D01*
X142890592Y-93545935D01*
X142854798Y-93587189D01*
X142114679Y-94522797D01*
X142107522Y-94533193D01*
X142099453Y-94542896D01*
X142069445Y-94588498D01*
X142069430Y-94588520D01*
X142069427Y-94588527D01*
X141459552Y-95613796D01*
X141453831Y-95625050D01*
X141447119Y-95635731D01*
X141423412Y-95684888D01*
X141423393Y-95684926D01*
X141423388Y-95684939D01*
X140954471Y-96781854D01*
X140950289Y-96793764D01*
X140945048Y-96805241D01*
X140928038Y-96857142D01*
X140608311Y-98006453D01*
X140605740Y-98018817D01*
X140602064Y-98030882D01*
X140592067Y-98084576D01*
X140427153Y-99266076D01*
X140426241Y-99278662D01*
X140424191Y-99291116D01*
X140421384Y-99345661D01*
X140419407Y-99673000D01*
X134337000Y-99673000D01*
X134337000Y-95015484D01*
X134424718Y-95227254D01*
X134575414Y-95452787D01*
X134767213Y-95644586D01*
X134992746Y-95795282D01*
X135243344Y-95899083D01*
X135509377Y-95952000D01*
X135780623Y-95952000D01*
X136046656Y-95899083D01*
X136297254Y-95795282D01*
X136522787Y-95644586D01*
X136714586Y-95452787D01*
X136865282Y-95227254D01*
X136969083Y-94976656D01*
X137022000Y-94710623D01*
X137022000Y-94439377D01*
X136969083Y-94173344D01*
X136865282Y-93922746D01*
X136714586Y-93697213D01*
X136522787Y-93505414D01*
X136297254Y-93354718D01*
X136046656Y-93250917D01*
X135780623Y-93198000D01*
X135509377Y-93198000D01*
X135243344Y-93250917D01*
X134992746Y-93354718D01*
X134767213Y-93505414D01*
X134575414Y-93697213D01*
X134424718Y-93922746D01*
X134337000Y-94134516D01*
X134337000Y-92198163D01*
X134340759Y-92159999D01*
X134337000Y-92121834D01*
X134325757Y-92007681D01*
X134281327Y-91861216D01*
X134265139Y-91830931D01*
X134209177Y-91726233D01*
X134136409Y-91637565D01*
X134136408Y-91637564D01*
X134112080Y-91607920D01*
X134082436Y-91583592D01*
X133541893Y-91043049D01*
X134260000Y-91043049D01*
X134363310Y-91032874D01*
X134462650Y-91002739D01*
X134554202Y-90953804D01*
X134634448Y-90887948D01*
X134700304Y-90807702D01*
X134749239Y-90716150D01*
X134779374Y-90616810D01*
X134789549Y-90513500D01*
X134789549Y-89532517D01*
X134995067Y-89327000D01*
X135091301Y-89327000D01*
X135270396Y-89291376D01*
X135439099Y-89221496D01*
X135590928Y-89120048D01*
X135720048Y-88990928D01*
X135821496Y-88839099D01*
X135891376Y-88670396D01*
X135927000Y-88491301D01*
X135927000Y-88308699D01*
X135891376Y-88129604D01*
X135821496Y-87960901D01*
X135720048Y-87809072D01*
X135590928Y-87679952D01*
X135439099Y-87578504D01*
X135270396Y-87508624D01*
X135091301Y-87473000D01*
X134908699Y-87473000D01*
X134729604Y-87508624D01*
X134560901Y-87578504D01*
X134409072Y-87679952D01*
X134279952Y-87809072D01*
X134178504Y-87960901D01*
X134108624Y-88129604D01*
X134097814Y-88183951D01*
X132860000Y-88183951D01*
X132756690Y-88194126D01*
X132657350Y-88224261D01*
X132565798Y-88273196D01*
X132485552Y-88339052D01*
X132419696Y-88419298D01*
X132370761Y-88510850D01*
X132340626Y-88610190D01*
X132330451Y-88713500D01*
X132330451Y-89831608D01*
X132249549Y-89750706D01*
X132249549Y-88713500D01*
X132239374Y-88610190D01*
X132209239Y-88510850D01*
X132160304Y-88419298D01*
X132094448Y-88339052D01*
X132014202Y-88273196D01*
X131922650Y-88224261D01*
X131823310Y-88194126D01*
X131720000Y-88183951D01*
X130320000Y-88183951D01*
X130216690Y-88194126D01*
X130117350Y-88224261D01*
X130025798Y-88273196D01*
X129945552Y-88339052D01*
X129879696Y-88419298D01*
X129830761Y-88510850D01*
X129800626Y-88610190D01*
X129790451Y-88713500D01*
X129790451Y-90001884D01*
X129709549Y-89920982D01*
X129709549Y-88713500D01*
X129699374Y-88610190D01*
X129669239Y-88510850D01*
X129620304Y-88419298D01*
X129607401Y-88403575D01*
X129607708Y-88403268D01*
X129709156Y-88251439D01*
X129779036Y-88082736D01*
X129814660Y-87903641D01*
X129814660Y-87721039D01*
X129779036Y-87541944D01*
X129709156Y-87373241D01*
X129607708Y-87221412D01*
X129478588Y-87092292D01*
X129326759Y-86990844D01*
X129158056Y-86920964D01*
X128978961Y-86885340D01*
X128796359Y-86885340D01*
X128617264Y-86920964D01*
X128448561Y-86990844D01*
X128296732Y-87092292D01*
X128167612Y-87221412D01*
X128066164Y-87373241D01*
X127996284Y-87541944D01*
X127960660Y-87721039D01*
X127960660Y-87825066D01*
X127935260Y-87856016D01*
X127916360Y-87891376D01*
X127874717Y-87969284D01*
X127837435Y-88092186D01*
X127828397Y-88183951D01*
X127780000Y-88183951D01*
X127676690Y-88194126D01*
X127577350Y-88224261D01*
X127485798Y-88273196D01*
X127405552Y-88339052D01*
X127339696Y-88419298D01*
X127290761Y-88510850D01*
X127260626Y-88610190D01*
X127250451Y-88713500D01*
X127250451Y-90513500D01*
X127260626Y-90616810D01*
X127290761Y-90716150D01*
X127339696Y-90807702D01*
X127405552Y-90887948D01*
X127485798Y-90953804D01*
X127577350Y-91002739D01*
X127676690Y-91032874D01*
X127780000Y-91043049D01*
X128744477Y-91043049D01*
X128708624Y-91129604D01*
X128673000Y-91308699D01*
X128673000Y-91491301D01*
X128708624Y-91670396D01*
X128778504Y-91839099D01*
X128879952Y-91990928D01*
X129009072Y-92120048D01*
X129160901Y-92221496D01*
X129329604Y-92291376D01*
X129508699Y-92327000D01*
X129691301Y-92327000D01*
X129870396Y-92291376D01*
X130039099Y-92221496D01*
X130190928Y-92120048D01*
X130320048Y-91990928D01*
X130421496Y-91839099D01*
X130491376Y-91670396D01*
X130527000Y-91491301D01*
X130527000Y-91308699D01*
X130491376Y-91129604D01*
X130455523Y-91043049D01*
X131344206Y-91043049D01*
X132783001Y-92481845D01*
X132783001Y-99673000D01*
X122102000Y-99673000D01*
X122102000Y-96108699D01*
X125273000Y-96108699D01*
X125273000Y-96291301D01*
X125308624Y-96470396D01*
X125378504Y-96639099D01*
X125479952Y-96790928D01*
X125609072Y-96920048D01*
X125760901Y-97021496D01*
X125929604Y-97091376D01*
X126108699Y-97127000D01*
X126291301Y-97127000D01*
X126470396Y-97091376D01*
X126639099Y-97021496D01*
X126790928Y-96920048D01*
X126920048Y-96790928D01*
X127021496Y-96639099D01*
X127091376Y-96470396D01*
X127127000Y-96291301D01*
X127127000Y-96108699D01*
X127091376Y-95929604D01*
X127021496Y-95760901D01*
X126920048Y-95609072D01*
X126790928Y-95479952D01*
X126639099Y-95378504D01*
X126470396Y-95308624D01*
X126291301Y-95273000D01*
X126108699Y-95273000D01*
X125929604Y-95308624D01*
X125760901Y-95378504D01*
X125609072Y-95479952D01*
X125479952Y-95609072D01*
X125378504Y-95760901D01*
X125308624Y-95929604D01*
X125273000Y-96108699D01*
X122102000Y-96108699D01*
X122102000Y-94708699D01*
X130473000Y-94708699D01*
X130473000Y-94891301D01*
X130508624Y-95070396D01*
X130578504Y-95239099D01*
X130679952Y-95390928D01*
X130809072Y-95520048D01*
X130899000Y-95580135D01*
X130899000Y-95691301D01*
X130934624Y-95870396D01*
X131004504Y-96039099D01*
X131105952Y-96190928D01*
X131235072Y-96320048D01*
X131386901Y-96421496D01*
X131555604Y-96491376D01*
X131734699Y-96527000D01*
X131917301Y-96527000D01*
X132096396Y-96491376D01*
X132265099Y-96421496D01*
X132416928Y-96320048D01*
X132546048Y-96190928D01*
X132647496Y-96039099D01*
X132717376Y-95870396D01*
X132753000Y-95691301D01*
X132753000Y-95508699D01*
X132717376Y-95329604D01*
X132647496Y-95160901D01*
X132546048Y-95009072D01*
X132416928Y-94879952D01*
X132327000Y-94819865D01*
X132327000Y-94708699D01*
X132291376Y-94529604D01*
X132221496Y-94360901D01*
X132120048Y-94209072D01*
X131990928Y-94079952D01*
X131839099Y-93978504D01*
X131670396Y-93908624D01*
X131491301Y-93873000D01*
X131308699Y-93873000D01*
X131129604Y-93908624D01*
X130960901Y-93978504D01*
X130809072Y-94079952D01*
X130679952Y-94209072D01*
X130578504Y-94360901D01*
X130508624Y-94529604D01*
X130473000Y-94708699D01*
X122102000Y-94708699D01*
X122102000Y-86411161D01*
X125598000Y-86411161D01*
X125598000Y-86588839D01*
X125632664Y-86763104D01*
X125700658Y-86927257D01*
X125799371Y-87074991D01*
X125925009Y-87200629D01*
X126072743Y-87299342D01*
X126236896Y-87367336D01*
X126411161Y-87402000D01*
X126588839Y-87402000D01*
X126763104Y-87367336D01*
X126927257Y-87299342D01*
X127074991Y-87200629D01*
X127200629Y-87074991D01*
X127299342Y-86927257D01*
X127367336Y-86763104D01*
X127402000Y-86588839D01*
X127402000Y-86411161D01*
X127367336Y-86236896D01*
X127299342Y-86072743D01*
X127200629Y-85925009D01*
X127074991Y-85799371D01*
X126927257Y-85700658D01*
X126763104Y-85632664D01*
X126588839Y-85598000D01*
X126411161Y-85598000D01*
X126236896Y-85632664D01*
X126072743Y-85700658D01*
X125925009Y-85799371D01*
X125799371Y-85925009D01*
X125700658Y-86072743D01*
X125632664Y-86236896D01*
X125598000Y-86411161D01*
X122102000Y-86411161D01*
X122102000Y-84744699D01*
X138773000Y-84744699D01*
X138773000Y-84927301D01*
X138808624Y-85106396D01*
X138878504Y-85275099D01*
X138979952Y-85426928D01*
X139109072Y-85556048D01*
X139260901Y-85657496D01*
X139429604Y-85727376D01*
X139608699Y-85763000D01*
X139791301Y-85763000D01*
X139970396Y-85727376D01*
X140139099Y-85657496D01*
X140290928Y-85556048D01*
X140420048Y-85426928D01*
X140521496Y-85275099D01*
X140591376Y-85106396D01*
X140627000Y-84927301D01*
X140627000Y-84744699D01*
X140591376Y-84565604D01*
X140521496Y-84396901D01*
X140420048Y-84245072D01*
X140290928Y-84115952D01*
X140139099Y-84014504D01*
X139970396Y-83944624D01*
X139791301Y-83909000D01*
X139608699Y-83909000D01*
X139429604Y-83944624D01*
X139260901Y-84014504D01*
X139109072Y-84115952D01*
X138979952Y-84245072D01*
X138878504Y-84396901D01*
X138808624Y-84565604D01*
X138773000Y-84744699D01*
X122102000Y-84744699D01*
X122102000Y-84029565D01*
X122104912Y-84000000D01*
X122093289Y-83881988D01*
X122058866Y-83768510D01*
X122002966Y-83663929D01*
X121927737Y-83572263D01*
X121836071Y-83497034D01*
X121731490Y-83441134D01*
X121618012Y-83406711D01*
X121529566Y-83398000D01*
X121500000Y-83395088D01*
X121470434Y-83398000D01*
X120754549Y-83398000D01*
X120754549Y-83054864D01*
X120835105Y-83021496D01*
X120986934Y-82920048D01*
X121116054Y-82790928D01*
X121217502Y-82639099D01*
X121287382Y-82470396D01*
X121323006Y-82291301D01*
X121323006Y-82108699D01*
X121287382Y-81929604D01*
X121217502Y-81760901D01*
X121116054Y-81609072D01*
X120986934Y-81479952D01*
X120835105Y-81378504D01*
X120666402Y-81308624D01*
X120487307Y-81273000D01*
X120304705Y-81273000D01*
X120125610Y-81308624D01*
X119956907Y-81378504D01*
X119805078Y-81479952D01*
X119675958Y-81609072D01*
X119574510Y-81760901D01*
X119504630Y-81929604D01*
X119469006Y-82108699D01*
X119469006Y-82120451D01*
X118325000Y-82120451D01*
X118302000Y-82122716D01*
X118302000Y-69602000D01*
X118795451Y-69602000D01*
X118795451Y-70900000D01*
G36*
X161286016Y-81494741D02*
G01*
X161394666Y-81552815D01*
X161399283Y-81555283D01*
X161522185Y-81592565D01*
X161649999Y-81605154D01*
X161682021Y-81602000D01*
X162007157Y-81602000D01*
X162018405Y-81608012D01*
X162145414Y-81646540D01*
X162277500Y-81659549D01*
X162437482Y-81659549D01*
X162473002Y-81695069D01*
X162473001Y-85519932D01*
X162352482Y-85640451D01*
X162277500Y-85640451D01*
X162145414Y-85653460D01*
X162018405Y-85691988D01*
X161901352Y-85754554D01*
X161798754Y-85838754D01*
X161714554Y-85941352D01*
X161651988Y-86058405D01*
X161613460Y-86185414D01*
X161600451Y-86317500D01*
X161600451Y-86612500D01*
X161613460Y-86744586D01*
X161625113Y-86783000D01*
X161593976Y-86783000D01*
X161590928Y-86779952D01*
X161439099Y-86678504D01*
X161289549Y-86616558D01*
X161289549Y-85300000D01*
X161279374Y-85196690D01*
X161249239Y-85097350D01*
X161200304Y-85005798D01*
X161134448Y-84925552D01*
X161054202Y-84859696D01*
X160962650Y-84810761D01*
X160863310Y-84780626D01*
X160760000Y-84770451D01*
X160160000Y-84770451D01*
X160056690Y-84780626D01*
X159957350Y-84810761D01*
X159865798Y-84859696D01*
X159825000Y-84893178D01*
X159784202Y-84859696D01*
X159692650Y-84810761D01*
X159593310Y-84780626D01*
X159490000Y-84770451D01*
X158890000Y-84770451D01*
X158786690Y-84780626D01*
X158687350Y-84810761D01*
X158652000Y-84829656D01*
X158652000Y-84532021D01*
X158655154Y-84499999D01*
X158642565Y-84372185D01*
X158605283Y-84249283D01*
X158603032Y-84245072D01*
X158544741Y-84136016D01*
X158463264Y-84036736D01*
X158438388Y-84016321D01*
X156483685Y-82061619D01*
X156463264Y-82036736D01*
X156363984Y-81955259D01*
X156308177Y-81925430D01*
X156350000Y-81929549D01*
X156950000Y-81929549D01*
X157053310Y-81919374D01*
X157152650Y-81889239D01*
X157244202Y-81840304D01*
X157285000Y-81806822D01*
X157325798Y-81840304D01*
X157417350Y-81889239D01*
X157516690Y-81919374D01*
X157620000Y-81929549D01*
X158220000Y-81929549D01*
X158323310Y-81919374D01*
X158422650Y-81889239D01*
X158514202Y-81840304D01*
X158555000Y-81806822D01*
X158595798Y-81840304D01*
X158687350Y-81889239D01*
X158786690Y-81919374D01*
X158890000Y-81929549D01*
X159490000Y-81929549D01*
X159593310Y-81919374D01*
X159692650Y-81889239D01*
X159784202Y-81840304D01*
X159825000Y-81806822D01*
X159865798Y-81840304D01*
X159957350Y-81889239D01*
X160056690Y-81919374D01*
X160160000Y-81929549D01*
X160760000Y-81929549D01*
X160863310Y-81919374D01*
X160962650Y-81889239D01*
X161054202Y-81840304D01*
X161134448Y-81774448D01*
X161200304Y-81694202D01*
X161249239Y-81602650D01*
X161279374Y-81503310D01*
X161280652Y-81490339D01*
X161286016Y-81494741D01*
G37*
X161286016Y-81494741D02*
X161394666Y-81552815D01*
X161399283Y-81555283D01*
X161522185Y-81592565D01*
X161649999Y-81605154D01*
X161682021Y-81602000D01*
X162007157Y-81602000D01*
X162018405Y-81608012D01*
X162145414Y-81646540D01*
X162277500Y-81659549D01*
X162437482Y-81659549D01*
X162473002Y-81695069D01*
X162473001Y-85519932D01*
X162352482Y-85640451D01*
X162277500Y-85640451D01*
X162145414Y-85653460D01*
X162018405Y-85691988D01*
X161901352Y-85754554D01*
X161798754Y-85838754D01*
X161714554Y-85941352D01*
X161651988Y-86058405D01*
X161613460Y-86185414D01*
X161600451Y-86317500D01*
X161600451Y-86612500D01*
X161613460Y-86744586D01*
X161625113Y-86783000D01*
X161593976Y-86783000D01*
X161590928Y-86779952D01*
X161439099Y-86678504D01*
X161289549Y-86616558D01*
X161289549Y-85300000D01*
X161279374Y-85196690D01*
X161249239Y-85097350D01*
X161200304Y-85005798D01*
X161134448Y-84925552D01*
X161054202Y-84859696D01*
X160962650Y-84810761D01*
X160863310Y-84780626D01*
X160760000Y-84770451D01*
X160160000Y-84770451D01*
X160056690Y-84780626D01*
X159957350Y-84810761D01*
X159865798Y-84859696D01*
X159825000Y-84893178D01*
X159784202Y-84859696D01*
X159692650Y-84810761D01*
X159593310Y-84780626D01*
X159490000Y-84770451D01*
X158890000Y-84770451D01*
X158786690Y-84780626D01*
X158687350Y-84810761D01*
X158652000Y-84829656D01*
X158652000Y-84532021D01*
X158655154Y-84499999D01*
X158642565Y-84372185D01*
X158605283Y-84249283D01*
X158603032Y-84245072D01*
X158544741Y-84136016D01*
X158463264Y-84036736D01*
X158438388Y-84016321D01*
X156483685Y-82061619D01*
X156463264Y-82036736D01*
X156363984Y-81955259D01*
X156308177Y-81925430D01*
X156350000Y-81929549D01*
X156950000Y-81929549D01*
X157053310Y-81919374D01*
X157152650Y-81889239D01*
X157244202Y-81840304D01*
X157285000Y-81806822D01*
X157325798Y-81840304D01*
X157417350Y-81889239D01*
X157516690Y-81919374D01*
X157620000Y-81929549D01*
X158220000Y-81929549D01*
X158323310Y-81919374D01*
X158422650Y-81889239D01*
X158514202Y-81840304D01*
X158555000Y-81806822D01*
X158595798Y-81840304D01*
X158687350Y-81889239D01*
X158786690Y-81919374D01*
X158890000Y-81929549D01*
X159490000Y-81929549D01*
X159593310Y-81919374D01*
X159692650Y-81889239D01*
X159784202Y-81840304D01*
X159825000Y-81806822D01*
X159865798Y-81840304D01*
X159957350Y-81889239D01*
X160056690Y-81919374D01*
X160160000Y-81929549D01*
X160760000Y-81929549D01*
X160863310Y-81919374D01*
X160962650Y-81889239D01*
X161054202Y-81840304D01*
X161134448Y-81774448D01*
X161200304Y-81694202D01*
X161249239Y-81602650D01*
X161279374Y-81503310D01*
X161280652Y-81490339D01*
X161286016Y-81494741D01*
G36*
X155998001Y-84670068D02*
G01*
X155998001Y-84879227D01*
X155974202Y-84859696D01*
X155902000Y-84821104D01*
X155902000Y-84574067D01*
X155998001Y-84670068D01*
G37*
X155998001Y-84670068D02*
X155998001Y-84879227D01*
X155974202Y-84859696D01*
X155902000Y-84821104D01*
X155902000Y-84574067D01*
X155998001Y-84670068D01*
G36*
X157348000Y-84770067D02*
G01*
X157348000Y-84847829D01*
X157325798Y-84859696D01*
X157302000Y-84879226D01*
X157302000Y-84724067D01*
X157348000Y-84770067D01*
G37*
X157348000Y-84770067D02*
X157348000Y-84847829D01*
X157325798Y-84859696D01*
X157302000Y-84879226D01*
X157302000Y-84724067D01*
X157348000Y-84770067D01*
G36*
X154598000Y-84520067D02*
G01*
X154598000Y-84616877D01*
X154573264Y-84586736D01*
X154548387Y-84566320D01*
X154034089Y-84052022D01*
X154129956Y-84052022D01*
X154598000Y-84520067D01*
G37*
X154598000Y-84520067D02*
X154598000Y-84616877D01*
X154573264Y-84586736D01*
X154548387Y-84566320D01*
X154034089Y-84052022D01*
X154129956Y-84052022D01*
X154598000Y-84520067D01*
G36*
X156055798Y-81840304D02*
G01*
X156078820Y-81852609D01*
X156032022Y-81848000D01*
X156000000Y-81844846D01*
X155967978Y-81848000D01*
X155959804Y-81848000D01*
X155974202Y-81840304D01*
X156015000Y-81806822D01*
X156055798Y-81840304D01*
G37*
X156055798Y-81840304D02*
X156078820Y-81852609D01*
X156032022Y-81848000D01*
X156000000Y-81844846D01*
X155967978Y-81848000D01*
X155959804Y-81848000D01*
X155974202Y-81840304D01*
X156015000Y-81806822D01*
X156055798Y-81840304D01*
G36*
X154785798Y-81840304D02*
G01*
X154800196Y-81848000D01*
X154689804Y-81848000D01*
X154704202Y-81840304D01*
X154745000Y-81806822D01*
X154785798Y-81840304D01*
G37*
X154785798Y-81840304D02*
X154800196Y-81848000D01*
X154689804Y-81848000D01*
X154704202Y-81840304D01*
X154745000Y-81806822D01*
X154785798Y-81840304D01*
G36*
X153515798Y-81840304D02*
G01*
X153530196Y-81848000D01*
X153419804Y-81848000D01*
X153434202Y-81840304D01*
X153475000Y-81806822D01*
X153515798Y-81840304D01*
G37*
X153515798Y-81840304D02*
X153530196Y-81848000D01*
X153419804Y-81848000D01*
X153434202Y-81840304D01*
X153475000Y-81806822D01*
X153515798Y-81840304D01*
G36*
X164273000Y-79001156D02*
G01*
X164239099Y-78978504D01*
X164070396Y-78908624D01*
X163891301Y-78873000D01*
X163708699Y-78873000D01*
X163529604Y-78908624D01*
X163360901Y-78978504D01*
X163209072Y-79079952D01*
X163079952Y-79209072D01*
X163077327Y-79213000D01*
X163069865Y-79213000D01*
X162998648Y-79154554D01*
X162881595Y-79091988D01*
X162754586Y-79053460D01*
X162622500Y-79040451D01*
X162277500Y-79040451D01*
X162145414Y-79053460D01*
X162018405Y-79091988D01*
X161901352Y-79154554D01*
X161798754Y-79238754D01*
X161714554Y-79341352D01*
X161651988Y-79458405D01*
X161613460Y-79585414D01*
X161600451Y-79717500D01*
X161600451Y-80012500D01*
X161603786Y-80046357D01*
X161600717Y-80044717D01*
X161477814Y-80007435D01*
X161382022Y-79998000D01*
X161350000Y-79994846D01*
X161317978Y-79998000D01*
X161289549Y-79998000D01*
X161289549Y-79900000D01*
X161279374Y-79796690D01*
X161249239Y-79697350D01*
X161200304Y-79605798D01*
X161134448Y-79525552D01*
X161054202Y-79459696D01*
X160962650Y-79410761D01*
X160863310Y-79380626D01*
X160760000Y-79370451D01*
X160160000Y-79370451D01*
X160056690Y-79380626D01*
X159957350Y-79410761D01*
X159865798Y-79459696D01*
X159825000Y-79493178D01*
X159784202Y-79459696D01*
X159692650Y-79410761D01*
X159593310Y-79380626D01*
X159490000Y-79370451D01*
X158890000Y-79370451D01*
X158787158Y-79380580D01*
X158791376Y-79370396D01*
X158827000Y-79191301D01*
X158827000Y-79008699D01*
X158791376Y-78829604D01*
X158721496Y-78660901D01*
X158620048Y-78509072D01*
X158490928Y-78379952D01*
X158339099Y-78278504D01*
X158170396Y-78208624D01*
X157991301Y-78173000D01*
X157808699Y-78173000D01*
X157629604Y-78208624D01*
X157460901Y-78278504D01*
X157309072Y-78379952D01*
X157300000Y-78389024D01*
X157290928Y-78379952D01*
X157139099Y-78278504D01*
X156970396Y-78208624D01*
X156791301Y-78173000D01*
X156608699Y-78173000D01*
X156429604Y-78208624D01*
X156260901Y-78278504D01*
X156109072Y-78379952D01*
X156032000Y-78457024D01*
X156032000Y-78373040D01*
X156121496Y-78239099D01*
X156191376Y-78070396D01*
X156227000Y-77891301D01*
X156227000Y-77708699D01*
X156191376Y-77529604D01*
X156121496Y-77360901D01*
X156020048Y-77209072D01*
X155890928Y-77079952D01*
X155739099Y-76978504D01*
X155570396Y-76908624D01*
X155391301Y-76873000D01*
X155208699Y-76873000D01*
X155029604Y-76908624D01*
X154860901Y-76978504D01*
X154709072Y-77079952D01*
X154579952Y-77209072D01*
X154478504Y-77360901D01*
X154408624Y-77529604D01*
X154373000Y-77708699D01*
X154373000Y-77891301D01*
X154408624Y-78070396D01*
X154478504Y-78239099D01*
X154579952Y-78390928D01*
X154709072Y-78520048D01*
X154728001Y-78532696D01*
X154728001Y-78617025D01*
X154690928Y-78579952D01*
X154539099Y-78478504D01*
X154370396Y-78408624D01*
X154191301Y-78373000D01*
X154008699Y-78373000D01*
X153829604Y-78408624D01*
X153660901Y-78478504D01*
X153509072Y-78579952D01*
X153379952Y-78709072D01*
X153278504Y-78860901D01*
X153208624Y-79029604D01*
X153173000Y-79208699D01*
X153173000Y-79373701D01*
X153140000Y-79370451D01*
X152542517Y-79370451D01*
X151983685Y-78811619D01*
X151963264Y-78786736D01*
X151905762Y-78739545D01*
X151951496Y-78671099D01*
X152021376Y-78502396D01*
X152057000Y-78323301D01*
X152057000Y-78140699D01*
X152021376Y-77961604D01*
X151951496Y-77792901D01*
X151850048Y-77641072D01*
X151720928Y-77511952D01*
X151569099Y-77410504D01*
X151400396Y-77340624D01*
X151221301Y-77305000D01*
X151038699Y-77305000D01*
X150859604Y-77340624D01*
X150690901Y-77410504D01*
X150539072Y-77511952D01*
X150409952Y-77641072D01*
X150308504Y-77792901D01*
X150238624Y-77961604D01*
X150203000Y-78140699D01*
X150203000Y-78247492D01*
X150190260Y-78263016D01*
X150129717Y-78376283D01*
X150125275Y-78390928D01*
X150112216Y-78433976D01*
X150044586Y-78413460D01*
X149912500Y-78400451D01*
X149617500Y-78400451D01*
X149485414Y-78413460D01*
X149437713Y-78427930D01*
X149270396Y-78358624D01*
X149091301Y-78323000D01*
X148908699Y-78323000D01*
X148729604Y-78358624D01*
X148560901Y-78428504D01*
X148409072Y-78529952D01*
X148279952Y-78659072D01*
X148178504Y-78810901D01*
X148108624Y-78979604D01*
X148073000Y-79158699D01*
X148073000Y-79341301D01*
X148108624Y-79520396D01*
X148178504Y-79689099D01*
X148279952Y-79840928D01*
X148409072Y-79970048D01*
X148560901Y-80071496D01*
X148729604Y-80141376D01*
X148908699Y-80177000D01*
X149091301Y-80177000D01*
X149270396Y-80141376D01*
X149437713Y-80072070D01*
X149485414Y-80086540D01*
X149617500Y-80099549D01*
X149912500Y-80099549D01*
X150044586Y-80086540D01*
X150171595Y-80048012D01*
X150250000Y-80006104D01*
X150328405Y-80048012D01*
X150455414Y-80086540D01*
X150587500Y-80099549D01*
X150882500Y-80099549D01*
X151014586Y-80086540D01*
X151141595Y-80048012D01*
X151258648Y-79985446D01*
X151288709Y-79960775D01*
X152010451Y-80682518D01*
X152010451Y-81400000D01*
X152020626Y-81503310D01*
X152050761Y-81602650D01*
X152099696Y-81694202D01*
X152165552Y-81774448D01*
X152245798Y-81840304D01*
X152260196Y-81848000D01*
X150031477Y-81848000D01*
X141995095Y-73811619D01*
X141974674Y-73786736D01*
X141875394Y-73705259D01*
X141762127Y-73644717D01*
X141639224Y-73607435D01*
X141543432Y-73598000D01*
X141511410Y-73594846D01*
X141479388Y-73598000D01*
X133270067Y-73598000D01*
X132901616Y-73229549D01*
X134125000Y-73229549D01*
X134228310Y-73219374D01*
X134327650Y-73189239D01*
X134419202Y-73140304D01*
X134499448Y-73074448D01*
X134565304Y-72994202D01*
X134614239Y-72902650D01*
X134644374Y-72803310D01*
X134654549Y-72700000D01*
X134654549Y-71552909D01*
X134679952Y-71590928D01*
X134809072Y-71720048D01*
X134960901Y-71821496D01*
X135129604Y-71891376D01*
X135308699Y-71927000D01*
X135491301Y-71927000D01*
X135670396Y-71891376D01*
X135822917Y-71828199D01*
X135850414Y-71836540D01*
X135982500Y-71849549D01*
X136277500Y-71849549D01*
X136409586Y-71836540D01*
X136536595Y-71798012D01*
X136615000Y-71756104D01*
X136693405Y-71798012D01*
X136820414Y-71836540D01*
X136952500Y-71849549D01*
X137247500Y-71849549D01*
X137379586Y-71836540D01*
X137450996Y-71814878D01*
X137460901Y-71821496D01*
X137629604Y-71891376D01*
X137808699Y-71927000D01*
X137991301Y-71927000D01*
X138170396Y-71891376D01*
X138339099Y-71821496D01*
X138490928Y-71720048D01*
X138620048Y-71590928D01*
X138721496Y-71439099D01*
X138791376Y-71270396D01*
X138827000Y-71091301D01*
X138827000Y-70908699D01*
X138791376Y-70729604D01*
X138721496Y-70560901D01*
X138620048Y-70409072D01*
X138490928Y-70279952D01*
X138339099Y-70178504D01*
X138170396Y-70108624D01*
X137991301Y-70073000D01*
X137808699Y-70073000D01*
X137629604Y-70108624D01*
X137460901Y-70178504D01*
X137450996Y-70185122D01*
X137379586Y-70163460D01*
X137247500Y-70150451D01*
X136952500Y-70150451D01*
X136820414Y-70163460D01*
X136693405Y-70201988D01*
X136615000Y-70243896D01*
X136536595Y-70201988D01*
X136409586Y-70163460D01*
X136277500Y-70150451D01*
X135982500Y-70150451D01*
X135850414Y-70163460D01*
X135822917Y-70171801D01*
X135670396Y-70108624D01*
X135491301Y-70073000D01*
X135308699Y-70073000D01*
X135129604Y-70108624D01*
X134960901Y-70178504D01*
X134809072Y-70279952D01*
X134679952Y-70409072D01*
X134578504Y-70560901D01*
X134561717Y-70601427D01*
X134499448Y-70525552D01*
X134419202Y-70459696D01*
X134327650Y-70410761D01*
X134228310Y-70380626D01*
X134125000Y-70370451D01*
X132725000Y-70370451D01*
X132621690Y-70380626D01*
X132522350Y-70410761D01*
X132430798Y-70459696D01*
X132350552Y-70525552D01*
X132284696Y-70605798D01*
X132235761Y-70697350D01*
X132205626Y-70796690D01*
X132195451Y-70900000D01*
X132195451Y-72523385D01*
X131323685Y-71651619D01*
X131303264Y-71626736D01*
X131203984Y-71545259D01*
X131090717Y-71484717D01*
X130967814Y-71447435D01*
X130872022Y-71438000D01*
X130840000Y-71434846D01*
X130807978Y-71438000D01*
X125421951Y-71438000D01*
X125491376Y-71270396D01*
X125527000Y-71091301D01*
X125527000Y-70908699D01*
X125491376Y-70729604D01*
X125421496Y-70560901D01*
X125320048Y-70409072D01*
X125190928Y-70279952D01*
X125039099Y-70178504D01*
X124870396Y-70108624D01*
X124691301Y-70073000D01*
X124508699Y-70073000D01*
X124329604Y-70108624D01*
X124189746Y-70166556D01*
X124169202Y-70149696D01*
X124077650Y-70100761D01*
X123978310Y-70070626D01*
X123875000Y-70060451D01*
X121875000Y-70060451D01*
X121771690Y-70070626D01*
X121754549Y-70075826D01*
X121754549Y-69602000D01*
X164273000Y-69602000D01*
X164273000Y-79001156D01*
G37*
X164273000Y-79001156D02*
X164239099Y-78978504D01*
X164070396Y-78908624D01*
X163891301Y-78873000D01*
X163708699Y-78873000D01*
X163529604Y-78908624D01*
X163360901Y-78978504D01*
X163209072Y-79079952D01*
X163079952Y-79209072D01*
X163077327Y-79213000D01*
X163069865Y-79213000D01*
X162998648Y-79154554D01*
X162881595Y-79091988D01*
X162754586Y-79053460D01*
X162622500Y-79040451D01*
X162277500Y-79040451D01*
X162145414Y-79053460D01*
X162018405Y-79091988D01*
X161901352Y-79154554D01*
X161798754Y-79238754D01*
X161714554Y-79341352D01*
X161651988Y-79458405D01*
X161613460Y-79585414D01*
X161600451Y-79717500D01*
X161600451Y-80012500D01*
X161603786Y-80046357D01*
X161600717Y-80044717D01*
X161477814Y-80007435D01*
X161382022Y-79998000D01*
X161350000Y-79994846D01*
X161317978Y-79998000D01*
X161289549Y-79998000D01*
X161289549Y-79900000D01*
X161279374Y-79796690D01*
X161249239Y-79697350D01*
X161200304Y-79605798D01*
X161134448Y-79525552D01*
X161054202Y-79459696D01*
X160962650Y-79410761D01*
X160863310Y-79380626D01*
X160760000Y-79370451D01*
X160160000Y-79370451D01*
X160056690Y-79380626D01*
X159957350Y-79410761D01*
X159865798Y-79459696D01*
X159825000Y-79493178D01*
X159784202Y-79459696D01*
X159692650Y-79410761D01*
X159593310Y-79380626D01*
X159490000Y-79370451D01*
X158890000Y-79370451D01*
X158787158Y-79380580D01*
X158791376Y-79370396D01*
X158827000Y-79191301D01*
X158827000Y-79008699D01*
X158791376Y-78829604D01*
X158721496Y-78660901D01*
X158620048Y-78509072D01*
X158490928Y-78379952D01*
X158339099Y-78278504D01*
X158170396Y-78208624D01*
X157991301Y-78173000D01*
X157808699Y-78173000D01*
X157629604Y-78208624D01*
X157460901Y-78278504D01*
X157309072Y-78379952D01*
X157300000Y-78389024D01*
X157290928Y-78379952D01*
X157139099Y-78278504D01*
X156970396Y-78208624D01*
X156791301Y-78173000D01*
X156608699Y-78173000D01*
X156429604Y-78208624D01*
X156260901Y-78278504D01*
X156109072Y-78379952D01*
X156032000Y-78457024D01*
X156032000Y-78373040D01*
X156121496Y-78239099D01*
X156191376Y-78070396D01*
X156227000Y-77891301D01*
X156227000Y-77708699D01*
X156191376Y-77529604D01*
X156121496Y-77360901D01*
X156020048Y-77209072D01*
X155890928Y-77079952D01*
X155739099Y-76978504D01*
X155570396Y-76908624D01*
X155391301Y-76873000D01*
X155208699Y-76873000D01*
X155029604Y-76908624D01*
X154860901Y-76978504D01*
X154709072Y-77079952D01*
X154579952Y-77209072D01*
X154478504Y-77360901D01*
X154408624Y-77529604D01*
X154373000Y-77708699D01*
X154373000Y-77891301D01*
X154408624Y-78070396D01*
X154478504Y-78239099D01*
X154579952Y-78390928D01*
X154709072Y-78520048D01*
X154728001Y-78532696D01*
X154728001Y-78617025D01*
X154690928Y-78579952D01*
X154539099Y-78478504D01*
X154370396Y-78408624D01*
X154191301Y-78373000D01*
X154008699Y-78373000D01*
X153829604Y-78408624D01*
X153660901Y-78478504D01*
X153509072Y-78579952D01*
X153379952Y-78709072D01*
X153278504Y-78860901D01*
X153208624Y-79029604D01*
X153173000Y-79208699D01*
X153173000Y-79373701D01*
X153140000Y-79370451D01*
X152542517Y-79370451D01*
X151983685Y-78811619D01*
X151963264Y-78786736D01*
X151905762Y-78739545D01*
X151951496Y-78671099D01*
X152021376Y-78502396D01*
X152057000Y-78323301D01*
X152057000Y-78140699D01*
X152021376Y-77961604D01*
X151951496Y-77792901D01*
X151850048Y-77641072D01*
X151720928Y-77511952D01*
X151569099Y-77410504D01*
X151400396Y-77340624D01*
X151221301Y-77305000D01*
X151038699Y-77305000D01*
X150859604Y-77340624D01*
X150690901Y-77410504D01*
X150539072Y-77511952D01*
X150409952Y-77641072D01*
X150308504Y-77792901D01*
X150238624Y-77961604D01*
X150203000Y-78140699D01*
X150203000Y-78247492D01*
X150190260Y-78263016D01*
X150129717Y-78376283D01*
X150125275Y-78390928D01*
X150112216Y-78433976D01*
X150044586Y-78413460D01*
X149912500Y-78400451D01*
X149617500Y-78400451D01*
X149485414Y-78413460D01*
X149437713Y-78427930D01*
X149270396Y-78358624D01*
X149091301Y-78323000D01*
X148908699Y-78323000D01*
X148729604Y-78358624D01*
X148560901Y-78428504D01*
X148409072Y-78529952D01*
X148279952Y-78659072D01*
X148178504Y-78810901D01*
X148108624Y-78979604D01*
X148073000Y-79158699D01*
X148073000Y-79341301D01*
X148108624Y-79520396D01*
X148178504Y-79689099D01*
X148279952Y-79840928D01*
X148409072Y-79970048D01*
X148560901Y-80071496D01*
X148729604Y-80141376D01*
X148908699Y-80177000D01*
X149091301Y-80177000D01*
X149270396Y-80141376D01*
X149437713Y-80072070D01*
X149485414Y-80086540D01*
X149617500Y-80099549D01*
X149912500Y-80099549D01*
X150044586Y-80086540D01*
X150171595Y-80048012D01*
X150250000Y-80006104D01*
X150328405Y-80048012D01*
X150455414Y-80086540D01*
X150587500Y-80099549D01*
X150882500Y-80099549D01*
X151014586Y-80086540D01*
X151141595Y-80048012D01*
X151258648Y-79985446D01*
X151288709Y-79960775D01*
X152010451Y-80682518D01*
X152010451Y-81400000D01*
X152020626Y-81503310D01*
X152050761Y-81602650D01*
X152099696Y-81694202D01*
X152165552Y-81774448D01*
X152245798Y-81840304D01*
X152260196Y-81848000D01*
X150031477Y-81848000D01*
X141995095Y-73811619D01*
X141974674Y-73786736D01*
X141875394Y-73705259D01*
X141762127Y-73644717D01*
X141639224Y-73607435D01*
X141543432Y-73598000D01*
X141511410Y-73594846D01*
X141479388Y-73598000D01*
X133270067Y-73598000D01*
X132901616Y-73229549D01*
X134125000Y-73229549D01*
X134228310Y-73219374D01*
X134327650Y-73189239D01*
X134419202Y-73140304D01*
X134499448Y-73074448D01*
X134565304Y-72994202D01*
X134614239Y-72902650D01*
X134644374Y-72803310D01*
X134654549Y-72700000D01*
X134654549Y-71552909D01*
X134679952Y-71590928D01*
X134809072Y-71720048D01*
X134960901Y-71821496D01*
X135129604Y-71891376D01*
X135308699Y-71927000D01*
X135491301Y-71927000D01*
X135670396Y-71891376D01*
X135822917Y-71828199D01*
X135850414Y-71836540D01*
X135982500Y-71849549D01*
X136277500Y-71849549D01*
X136409586Y-71836540D01*
X136536595Y-71798012D01*
X136615000Y-71756104D01*
X136693405Y-71798012D01*
X136820414Y-71836540D01*
X136952500Y-71849549D01*
X137247500Y-71849549D01*
X137379586Y-71836540D01*
X137450996Y-71814878D01*
X137460901Y-71821496D01*
X137629604Y-71891376D01*
X137808699Y-71927000D01*
X137991301Y-71927000D01*
X138170396Y-71891376D01*
X138339099Y-71821496D01*
X138490928Y-71720048D01*
X138620048Y-71590928D01*
X138721496Y-71439099D01*
X138791376Y-71270396D01*
X138827000Y-71091301D01*
X138827000Y-70908699D01*
X138791376Y-70729604D01*
X138721496Y-70560901D01*
X138620048Y-70409072D01*
X138490928Y-70279952D01*
X138339099Y-70178504D01*
X138170396Y-70108624D01*
X137991301Y-70073000D01*
X137808699Y-70073000D01*
X137629604Y-70108624D01*
X137460901Y-70178504D01*
X137450996Y-70185122D01*
X137379586Y-70163460D01*
X137247500Y-70150451D01*
X136952500Y-70150451D01*
X136820414Y-70163460D01*
X136693405Y-70201988D01*
X136615000Y-70243896D01*
X136536595Y-70201988D01*
X136409586Y-70163460D01*
X136277500Y-70150451D01*
X135982500Y-70150451D01*
X135850414Y-70163460D01*
X135822917Y-70171801D01*
X135670396Y-70108624D01*
X135491301Y-70073000D01*
X135308699Y-70073000D01*
X135129604Y-70108624D01*
X134960901Y-70178504D01*
X134809072Y-70279952D01*
X134679952Y-70409072D01*
X134578504Y-70560901D01*
X134561717Y-70601427D01*
X134499448Y-70525552D01*
X134419202Y-70459696D01*
X134327650Y-70410761D01*
X134228310Y-70380626D01*
X134125000Y-70370451D01*
X132725000Y-70370451D01*
X132621690Y-70380626D01*
X132522350Y-70410761D01*
X132430798Y-70459696D01*
X132350552Y-70525552D01*
X132284696Y-70605798D01*
X132235761Y-70697350D01*
X132205626Y-70796690D01*
X132195451Y-70900000D01*
X132195451Y-72523385D01*
X131323685Y-71651619D01*
X131303264Y-71626736D01*
X131203984Y-71545259D01*
X131090717Y-71484717D01*
X130967814Y-71447435D01*
X130872022Y-71438000D01*
X130840000Y-71434846D01*
X130807978Y-71438000D01*
X125421951Y-71438000D01*
X125491376Y-71270396D01*
X125527000Y-71091301D01*
X125527000Y-70908699D01*
X125491376Y-70729604D01*
X125421496Y-70560901D01*
X125320048Y-70409072D01*
X125190928Y-70279952D01*
X125039099Y-70178504D01*
X124870396Y-70108624D01*
X124691301Y-70073000D01*
X124508699Y-70073000D01*
X124329604Y-70108624D01*
X124189746Y-70166556D01*
X124169202Y-70149696D01*
X124077650Y-70100761D01*
X123978310Y-70070626D01*
X123875000Y-70060451D01*
X121875000Y-70060451D01*
X121771690Y-70070626D01*
X121754549Y-70075826D01*
X121754549Y-69602000D01*
X164273000Y-69602000D01*
X164273000Y-79001156D01*
G36*
X130375933Y-79048000D02*
G01*
X126870067Y-79048000D01*
X126073685Y-78251618D01*
X126065791Y-78242000D01*
X129569934Y-78242000D01*
X130375933Y-79048000D01*
G37*
X130375933Y-79048000D02*
X126870067Y-79048000D01*
X126073685Y-78251618D01*
X126065791Y-78242000D01*
X129569934Y-78242000D01*
X130375933Y-79048000D01*
G36*
X132205626Y-76496690D02*
G01*
X132195451Y-76600000D01*
X132195451Y-78098000D01*
X131270067Y-78098000D01*
X130323685Y-77151619D01*
X130315791Y-77142000D01*
X131227978Y-77142000D01*
X131260000Y-77145154D01*
X131292022Y-77142000D01*
X131387814Y-77132565D01*
X131510717Y-77095283D01*
X131623984Y-77034741D01*
X131723264Y-76953264D01*
X131743685Y-76928381D01*
X132218798Y-76453268D01*
X132205626Y-76496690D01*
G37*
X132205626Y-76496690D02*
X132195451Y-76600000D01*
X132195451Y-78098000D01*
X131270067Y-78098000D01*
X130323685Y-77151619D01*
X130315791Y-77142000D01*
X131227978Y-77142000D01*
X131260000Y-77145154D01*
X131292022Y-77142000D01*
X131387814Y-77132565D01*
X131510717Y-77095283D01*
X131623984Y-77034741D01*
X131723264Y-76953264D01*
X131743685Y-76928381D01*
X132218798Y-76453268D01*
X132205626Y-76496690D01*
G36*
X141164524Y-76098000D02*
G01*
X137105024Y-76098000D01*
X137073002Y-76094846D01*
X136945187Y-76107435D01*
X136903608Y-76120048D01*
X136822285Y-76144717D01*
X136709018Y-76205259D01*
X136609738Y-76286736D01*
X136589322Y-76311613D01*
X136228786Y-76672149D01*
X136220048Y-76659072D01*
X136090928Y-76529952D01*
X135939099Y-76428504D01*
X135770396Y-76358624D01*
X135591301Y-76323000D01*
X135408699Y-76323000D01*
X135229604Y-76358624D01*
X135060901Y-76428504D01*
X134909072Y-76529952D01*
X134779952Y-76659072D01*
X134678504Y-76810901D01*
X134663137Y-76848000D01*
X134654549Y-76848000D01*
X134654549Y-76600000D01*
X134644374Y-76496690D01*
X134614239Y-76397350D01*
X134565304Y-76305798D01*
X134499448Y-76225552D01*
X134419202Y-76159696D01*
X134327650Y-76110761D01*
X134228310Y-76080626D01*
X134125000Y-76070451D01*
X132725000Y-76070451D01*
X132621690Y-76080626D01*
X132578269Y-76093798D01*
X132870045Y-75802022D01*
X140868546Y-75802022D01*
X141164524Y-76098000D01*
G37*
X141164524Y-76098000D02*
X137105024Y-76098000D01*
X137073002Y-76094846D01*
X136945187Y-76107435D01*
X136903608Y-76120048D01*
X136822285Y-76144717D01*
X136709018Y-76205259D01*
X136609738Y-76286736D01*
X136589322Y-76311613D01*
X136228786Y-76672149D01*
X136220048Y-76659072D01*
X136090928Y-76529952D01*
X135939099Y-76428504D01*
X135770396Y-76358624D01*
X135591301Y-76323000D01*
X135408699Y-76323000D01*
X135229604Y-76358624D01*
X135060901Y-76428504D01*
X134909072Y-76529952D01*
X134779952Y-76659072D01*
X134678504Y-76810901D01*
X134663137Y-76848000D01*
X134654549Y-76848000D01*
X134654549Y-76600000D01*
X134644374Y-76496690D01*
X134614239Y-76397350D01*
X134565304Y-76305798D01*
X134499448Y-76225552D01*
X134419202Y-76159696D01*
X134327650Y-76110761D01*
X134228310Y-76080626D01*
X134125000Y-76070451D01*
X132725000Y-76070451D01*
X132621690Y-76080626D01*
X132578269Y-76093798D01*
X132870045Y-75802022D01*
X140868546Y-75802022D01*
X141164524Y-76098000D01*
G36*
X130989934Y-75838000D02*
G01*
X124337861Y-75838000D01*
X124315304Y-75795798D01*
X124249448Y-75715552D01*
X124204549Y-75678704D01*
X124204549Y-75152000D01*
X131675933Y-75152000D01*
X130989934Y-75838000D01*
G37*
X130989934Y-75838000D02*
X124337861Y-75838000D01*
X124315304Y-75795798D01*
X124249448Y-75715552D01*
X124204549Y-75678704D01*
X124204549Y-75152000D01*
X131675933Y-75152000D01*
X130989934Y-75838000D01*
G36*
X131675933Y-73848000D02*
G01*
X125162976Y-73848000D01*
X125220048Y-73790928D01*
X125321496Y-73639099D01*
X125391376Y-73470396D01*
X125427000Y-73291301D01*
X125427000Y-73108699D01*
X125391376Y-72929604D01*
X125321496Y-72760901D01*
X125308867Y-72742000D01*
X130569934Y-72742000D01*
X131675933Y-73848000D01*
G37*
X131675933Y-73848000D02*
X125162976Y-73848000D01*
X125220048Y-73790928D01*
X125321496Y-73639099D01*
X125391376Y-73470396D01*
X125427000Y-73291301D01*
X125427000Y-73108699D01*
X125391376Y-72929604D01*
X125321496Y-72760901D01*
X125308867Y-72742000D01*
X130569934Y-72742000D01*
X131675933Y-73848000D01*
M02*
