G04 #@! TF.GenerationSoftware,KiCad,Pcbnew,5.1.6+dfsg1-1~bpo10+1*
G04 #@! TF.CreationDate,2021-06-19T16:41:40-04:00*
G04 #@! TF.ProjectId,RUSP_Daughterboard,52555350-5f44-4617-9567-68746572626f,rev?*
G04 #@! TF.SameCoordinates,Original*
G04 #@! TF.FileFunction,Paste,Top*
G04 #@! TF.FilePolarity,Positive*
%FSLAX46Y46*%
G04 Gerber Fmt 4.6, Leading zero omitted, Abs format (unit mm)*
G04 Created by KiCad (PCBNEW 5.1.6+dfsg1-1~bpo10+1) date 2021-06-19 16:41:40*
%MOMM*%
%LPD*%
G01*
G04 APERTURE LIST*
%ADD10R,3.200000X1.700000*%
%ADD11R,2.200000X1.050000*%
%ADD12R,1.000000X1.000000*%
%ADD13R,1.400000X1.800000*%
%ADD14R,2.000000X0.800000*%
%ADD15R,1.900000X1.400000*%
%ADD16R,0.600000X1.500000*%
G04 APERTURE END LIST*
D10*
X173700000Y-109050000D03*
X173700000Y-117550000D03*
G36*
G01*
X162277500Y-86170000D02*
X162622500Y-86170000D01*
G75*
G02*
X162770000Y-86317500I0J-147500D01*
G01*
X162770000Y-86612500D01*
G75*
G02*
X162622500Y-86760000I-147500J0D01*
G01*
X162277500Y-86760000D01*
G75*
G02*
X162130000Y-86612500I0J147500D01*
G01*
X162130000Y-86317500D01*
G75*
G02*
X162277500Y-86170000I147500J0D01*
G01*
G37*
G36*
G01*
X162277500Y-87140000D02*
X162622500Y-87140000D01*
G75*
G02*
X162770000Y-87287500I0J-147500D01*
G01*
X162770000Y-87582500D01*
G75*
G02*
X162622500Y-87730000I-147500J0D01*
G01*
X162277500Y-87730000D01*
G75*
G02*
X162130000Y-87582500I0J147500D01*
G01*
X162130000Y-87287500D01*
G75*
G02*
X162277500Y-87140000I147500J0D01*
G01*
G37*
G36*
G01*
X162277500Y-80540000D02*
X162622500Y-80540000D01*
G75*
G02*
X162770000Y-80687500I0J-147500D01*
G01*
X162770000Y-80982500D01*
G75*
G02*
X162622500Y-81130000I-147500J0D01*
G01*
X162277500Y-81130000D01*
G75*
G02*
X162130000Y-80982500I0J147500D01*
G01*
X162130000Y-80687500D01*
G75*
G02*
X162277500Y-80540000I147500J0D01*
G01*
G37*
G36*
G01*
X162277500Y-79570000D02*
X162622500Y-79570000D01*
G75*
G02*
X162770000Y-79717500I0J-147500D01*
G01*
X162770000Y-80012500D01*
G75*
G02*
X162622500Y-80160000I-147500J0D01*
G01*
X162277500Y-80160000D01*
G75*
G02*
X162130000Y-80012500I0J147500D01*
G01*
X162130000Y-79717500D01*
G75*
G02*
X162277500Y-79570000I147500J0D01*
G01*
G37*
G36*
G01*
X163772500Y-121580000D02*
X163427500Y-121580000D01*
G75*
G02*
X163280000Y-121432500I0J147500D01*
G01*
X163280000Y-121137500D01*
G75*
G02*
X163427500Y-120990000I147500J0D01*
G01*
X163772500Y-120990000D01*
G75*
G02*
X163920000Y-121137500I0J-147500D01*
G01*
X163920000Y-121432500D01*
G75*
G02*
X163772500Y-121580000I-147500J0D01*
G01*
G37*
G36*
G01*
X163772500Y-120610000D02*
X163427500Y-120610000D01*
G75*
G02*
X163280000Y-120462500I0J147500D01*
G01*
X163280000Y-120167500D01*
G75*
G02*
X163427500Y-120020000I147500J0D01*
G01*
X163772500Y-120020000D01*
G75*
G02*
X163920000Y-120167500I0J-147500D01*
G01*
X163920000Y-120462500D01*
G75*
G02*
X163772500Y-120610000I-147500J0D01*
G01*
G37*
D11*
X157000000Y-122475000D03*
X157000000Y-119525000D03*
D12*
X155500000Y-121000000D03*
X158500000Y-121000000D03*
G36*
G01*
X161330000Y-122327500D02*
X161330000Y-122672500D01*
G75*
G02*
X161182500Y-122820000I-147500J0D01*
G01*
X160887500Y-122820000D01*
G75*
G02*
X160740000Y-122672500I0J147500D01*
G01*
X160740000Y-122327500D01*
G75*
G02*
X160887500Y-122180000I147500J0D01*
G01*
X161182500Y-122180000D01*
G75*
G02*
X161330000Y-122327500I0J-147500D01*
G01*
G37*
G36*
G01*
X160360000Y-122327500D02*
X160360000Y-122672500D01*
G75*
G02*
X160212500Y-122820000I-147500J0D01*
G01*
X159917500Y-122820000D01*
G75*
G02*
X159770000Y-122672500I0J147500D01*
G01*
X159770000Y-122327500D01*
G75*
G02*
X159917500Y-122180000I147500J0D01*
G01*
X160212500Y-122180000D01*
G75*
G02*
X160360000Y-122327500I0J-147500D01*
G01*
G37*
G36*
G01*
X163330000Y-122327500D02*
X163330000Y-122672500D01*
G75*
G02*
X163182500Y-122820000I-147500J0D01*
G01*
X162887500Y-122820000D01*
G75*
G02*
X162740000Y-122672500I0J147500D01*
G01*
X162740000Y-122327500D01*
G75*
G02*
X162887500Y-122180000I147500J0D01*
G01*
X163182500Y-122180000D01*
G75*
G02*
X163330000Y-122327500I0J-147500D01*
G01*
G37*
G36*
G01*
X162360000Y-122327500D02*
X162360000Y-122672500D01*
G75*
G02*
X162212500Y-122820000I-147500J0D01*
G01*
X161917500Y-122820000D01*
G75*
G02*
X161770000Y-122672500I0J147500D01*
G01*
X161770000Y-122327500D01*
G75*
G02*
X161917500Y-122180000I147500J0D01*
G01*
X162212500Y-122180000D01*
G75*
G02*
X162360000Y-122327500I0J-147500D01*
G01*
G37*
G36*
G01*
X149123674Y-122642375D02*
X149367625Y-122886327D01*
G75*
G02*
X149367625Y-123094923I-104298J-104298D01*
G01*
X149159029Y-123303519D01*
G75*
G02*
X148950433Y-123303519I-104298J104298D01*
G01*
X148706481Y-123059567D01*
G75*
G02*
X148706481Y-122850971I104298J104298D01*
G01*
X148915077Y-122642375D01*
G75*
G02*
X149123673Y-122642375I104298J-104298D01*
G01*
G37*
G36*
G01*
X149809568Y-121956481D02*
X150053519Y-122200433D01*
G75*
G02*
X150053519Y-122409029I-104298J-104298D01*
G01*
X149844923Y-122617625D01*
G75*
G02*
X149636327Y-122617625I-104298J104298D01*
G01*
X149392375Y-122373673D01*
G75*
G02*
X149392375Y-122165077I104298J104298D01*
G01*
X149600971Y-121956481D01*
G75*
G02*
X149809567Y-121956481I104298J-104298D01*
G01*
G37*
G36*
G01*
X148209568Y-120326481D02*
X148453519Y-120570433D01*
G75*
G02*
X148453519Y-120779029I-104298J-104298D01*
G01*
X148244923Y-120987625D01*
G75*
G02*
X148036327Y-120987625I-104298J104298D01*
G01*
X147792375Y-120743673D01*
G75*
G02*
X147792375Y-120535077I104298J104298D01*
G01*
X148000971Y-120326481D01*
G75*
G02*
X148209567Y-120326481I104298J-104298D01*
G01*
G37*
G36*
G01*
X147523674Y-121012375D02*
X147767625Y-121256327D01*
G75*
G02*
X147767625Y-121464923I-104298J-104298D01*
G01*
X147559029Y-121673519D01*
G75*
G02*
X147350433Y-121673519I-104298J104298D01*
G01*
X147106481Y-121429567D01*
G75*
G02*
X147106481Y-121220971I104298J104298D01*
G01*
X147315077Y-121012375D01*
G75*
G02*
X147523673Y-121012375I104298J-104298D01*
G01*
G37*
G36*
G01*
X150060000Y-79077500D02*
X150060000Y-79422500D01*
G75*
G02*
X149912500Y-79570000I-147500J0D01*
G01*
X149617500Y-79570000D01*
G75*
G02*
X149470000Y-79422500I0J147500D01*
G01*
X149470000Y-79077500D01*
G75*
G02*
X149617500Y-78930000I147500J0D01*
G01*
X149912500Y-78930000D01*
G75*
G02*
X150060000Y-79077500I0J-147500D01*
G01*
G37*
G36*
G01*
X151030000Y-79077500D02*
X151030000Y-79422500D01*
G75*
G02*
X150882500Y-79570000I-147500J0D01*
G01*
X150587500Y-79570000D01*
G75*
G02*
X150440000Y-79422500I0J147500D01*
G01*
X150440000Y-79077500D01*
G75*
G02*
X150587500Y-78930000I147500J0D01*
G01*
X150882500Y-78930000D01*
G75*
G02*
X151030000Y-79077500I0J-147500D01*
G01*
G37*
G36*
G01*
X151030000Y-86827500D02*
X151030000Y-87172500D01*
G75*
G02*
X150882500Y-87320000I-147500J0D01*
G01*
X150587500Y-87320000D01*
G75*
G02*
X150440000Y-87172500I0J147500D01*
G01*
X150440000Y-86827500D01*
G75*
G02*
X150587500Y-86680000I147500J0D01*
G01*
X150882500Y-86680000D01*
G75*
G02*
X151030000Y-86827500I0J-147500D01*
G01*
G37*
G36*
G01*
X150060000Y-86827500D02*
X150060000Y-87172500D01*
G75*
G02*
X149912500Y-87320000I-147500J0D01*
G01*
X149617500Y-87320000D01*
G75*
G02*
X149470000Y-87172500I0J147500D01*
G01*
X149470000Y-86827500D01*
G75*
G02*
X149617500Y-86680000I147500J0D01*
G01*
X149912500Y-86680000D01*
G75*
G02*
X150060000Y-86827500I0J-147500D01*
G01*
G37*
G36*
G01*
X149019568Y-121136481D02*
X149263519Y-121380433D01*
G75*
G02*
X149263519Y-121589029I-104298J-104298D01*
G01*
X149054923Y-121797625D01*
G75*
G02*
X148846327Y-121797625I-104298J104298D01*
G01*
X148602375Y-121553673D01*
G75*
G02*
X148602375Y-121345077I104298J104298D01*
G01*
X148810971Y-121136481D01*
G75*
G02*
X149019567Y-121136481I104298J-104298D01*
G01*
G37*
G36*
G01*
X148333674Y-121822375D02*
X148577625Y-122066327D01*
G75*
G02*
X148577625Y-122274923I-104298J-104298D01*
G01*
X148369029Y-122483519D01*
G75*
G02*
X148160433Y-122483519I-104298J104298D01*
G01*
X147916481Y-122239567D01*
G75*
G02*
X147916481Y-122030971I104298J104298D01*
G01*
X148125077Y-121822375D01*
G75*
G02*
X148333673Y-121822375I104298J-104298D01*
G01*
G37*
D13*
X133560000Y-114886500D03*
X131083500Y-114886500D03*
X128480000Y-114886500D03*
X133560000Y-89613500D03*
X131020000Y-89613500D03*
X128480000Y-89613500D03*
D14*
X122875000Y-78690000D03*
X123275000Y-77590000D03*
X122875000Y-76490000D03*
X122675000Y-75390000D03*
X122875000Y-74290000D03*
X122675000Y-73190000D03*
X122875000Y-72090000D03*
X122875000Y-70990000D03*
D13*
X133425000Y-71800000D03*
X133425000Y-77500000D03*
D15*
X120275000Y-70200000D03*
X119275000Y-83350000D03*
G36*
G01*
X137480000Y-78327500D02*
X137480000Y-78672500D01*
G75*
G02*
X137332500Y-78820000I-147500J0D01*
G01*
X137037500Y-78820000D01*
G75*
G02*
X136890000Y-78672500I0J147500D01*
G01*
X136890000Y-78327500D01*
G75*
G02*
X137037500Y-78180000I147500J0D01*
G01*
X137332500Y-78180000D01*
G75*
G02*
X137480000Y-78327500I0J-147500D01*
G01*
G37*
G36*
G01*
X136510000Y-78327500D02*
X136510000Y-78672500D01*
G75*
G02*
X136362500Y-78820000I-147500J0D01*
G01*
X136067500Y-78820000D01*
G75*
G02*
X135920000Y-78672500I0J147500D01*
G01*
X135920000Y-78327500D01*
G75*
G02*
X136067500Y-78180000I147500J0D01*
G01*
X136362500Y-78180000D01*
G75*
G02*
X136510000Y-78327500I0J-147500D01*
G01*
G37*
G36*
G01*
X136425000Y-70827500D02*
X136425000Y-71172500D01*
G75*
G02*
X136277500Y-71320000I-147500J0D01*
G01*
X135982500Y-71320000D01*
G75*
G02*
X135835000Y-71172500I0J147500D01*
G01*
X135835000Y-70827500D01*
G75*
G02*
X135982500Y-70680000I147500J0D01*
G01*
X136277500Y-70680000D01*
G75*
G02*
X136425000Y-70827500I0J-147500D01*
G01*
G37*
G36*
G01*
X137395000Y-70827500D02*
X137395000Y-71172500D01*
G75*
G02*
X137247500Y-71320000I-147500J0D01*
G01*
X136952500Y-71320000D01*
G75*
G02*
X136805000Y-71172500I0J147500D01*
G01*
X136805000Y-70827500D01*
G75*
G02*
X136952500Y-70680000I147500J0D01*
G01*
X137247500Y-70680000D01*
G75*
G02*
X137395000Y-70827500I0J-147500D01*
G01*
G37*
G36*
G01*
X137480000Y-79527500D02*
X137480000Y-79872500D01*
G75*
G02*
X137332500Y-80020000I-147500J0D01*
G01*
X137037500Y-80020000D01*
G75*
G02*
X136890000Y-79872500I0J147500D01*
G01*
X136890000Y-79527500D01*
G75*
G02*
X137037500Y-79380000I147500J0D01*
G01*
X137332500Y-79380000D01*
G75*
G02*
X137480000Y-79527500I0J-147500D01*
G01*
G37*
G36*
G01*
X136510000Y-79527500D02*
X136510000Y-79872500D01*
G75*
G02*
X136362500Y-80020000I-147500J0D01*
G01*
X136067500Y-80020000D01*
G75*
G02*
X135920000Y-79872500I0J147500D01*
G01*
X135920000Y-79527500D01*
G75*
G02*
X136067500Y-79380000I147500J0D01*
G01*
X136362500Y-79380000D01*
G75*
G02*
X136510000Y-79527500I0J-147500D01*
G01*
G37*
D16*
X152840000Y-86050000D03*
X154110000Y-86050000D03*
X155380000Y-86050000D03*
X156650000Y-86050000D03*
X157920000Y-86050000D03*
X159190000Y-86050000D03*
X160460000Y-86050000D03*
X160460000Y-80650000D03*
X159190000Y-80650000D03*
X157920000Y-80650000D03*
X156650000Y-80650000D03*
X155380000Y-80650000D03*
X154110000Y-80650000D03*
X152840000Y-80650000D03*
G36*
G01*
X161772500Y-121580000D02*
X161427500Y-121580000D01*
G75*
G02*
X161280000Y-121432500I0J147500D01*
G01*
X161280000Y-121137500D01*
G75*
G02*
X161427500Y-120990000I147500J0D01*
G01*
X161772500Y-120990000D01*
G75*
G02*
X161920000Y-121137500I0J-147500D01*
G01*
X161920000Y-121432500D01*
G75*
G02*
X161772500Y-121580000I-147500J0D01*
G01*
G37*
G36*
G01*
X161772500Y-120610000D02*
X161427500Y-120610000D01*
G75*
G02*
X161280000Y-120462500I0J147500D01*
G01*
X161280000Y-120167500D01*
G75*
G02*
X161427500Y-120020000I147500J0D01*
G01*
X161772500Y-120020000D01*
G75*
G02*
X161920000Y-120167500I0J-147500D01*
G01*
X161920000Y-120462500D01*
G75*
G02*
X161772500Y-120610000I-147500J0D01*
G01*
G37*
G36*
G01*
X164460000Y-122327500D02*
X164460000Y-122672500D01*
G75*
G02*
X164312500Y-122820000I-147500J0D01*
G01*
X164017500Y-122820000D01*
G75*
G02*
X163870000Y-122672500I0J147500D01*
G01*
X163870000Y-122327500D01*
G75*
G02*
X164017500Y-122180000I147500J0D01*
G01*
X164312500Y-122180000D01*
G75*
G02*
X164460000Y-122327500I0J-147500D01*
G01*
G37*
G36*
G01*
X165430000Y-122327500D02*
X165430000Y-122672500D01*
G75*
G02*
X165282500Y-122820000I-147500J0D01*
G01*
X164987500Y-122820000D01*
G75*
G02*
X164840000Y-122672500I0J147500D01*
G01*
X164840000Y-122327500D01*
G75*
G02*
X164987500Y-122180000I147500J0D01*
G01*
X165282500Y-122180000D01*
G75*
G02*
X165430000Y-122327500I0J-147500D01*
G01*
G37*
M02*
