G04 #@! TF.GenerationSoftware,KiCad,Pcbnew,5.1.6+dfsg1-1~bpo10+1*
G04 #@! TF.CreationDate,2021-06-19T16:41:40-04:00*
G04 #@! TF.ProjectId,RUSP_Daughterboard,52555350-5f44-4617-9567-68746572626f,rev?*
G04 #@! TF.SameCoordinates,Original*
G04 #@! TF.FileFunction,Copper,L2,Inr*
G04 #@! TF.FilePolarity,Positive*
%FSLAX46Y46*%
G04 Gerber Fmt 4.6, Leading zero omitted, Abs format (unit mm)*
G04 Created by KiCad (PCBNEW 5.1.6+dfsg1-1~bpo10+1) date 2021-06-19 16:41:40*
%MOMM*%
%LPD*%
G01*
G04 APERTURE LIST*
G04 #@! TA.AperFunction,ViaPad*
%ADD10C,3.000000*%
G04 #@! TD*
G04 #@! TA.AperFunction,ViaPad*
%ADD11C,0.800000*%
G04 #@! TD*
G04 #@! TA.AperFunction,Conductor*
%ADD12C,0.750000*%
G04 #@! TD*
G04 #@! TA.AperFunction,Conductor*
%ADD13C,0.250000*%
G04 #@! TD*
G04 APERTURE END LIST*
D10*
X154000000Y-128000000D03*
D11*
X120300000Y-71300000D03*
X135000000Y-88400000D03*
X124500000Y-112000000D03*
X146800000Y-120600000D03*
X149582053Y-123517947D03*
X124500000Y-73200000D03*
X161000000Y-87500000D03*
X149000000Y-87000000D03*
X149000000Y-79250000D03*
X168599999Y-129400001D03*
X165500000Y-123900000D03*
X157480000Y-130302000D03*
X159004000Y-135636000D03*
X120396006Y-82200000D03*
X146812000Y-110490000D03*
X146050000Y-109728000D03*
X169500000Y-125600000D03*
X157900000Y-79100000D03*
X162600000Y-127500000D03*
X161400000Y-124000000D03*
X155300000Y-77800000D03*
X160200000Y-123600000D03*
X151130000Y-78232000D03*
X161694805Y-127925000D03*
X139700000Y-84836000D03*
X121300000Y-75400000D03*
X137900000Y-71000000D03*
X138000000Y-78500000D03*
X138000000Y-79700000D03*
X159200000Y-133800000D03*
X168000000Y-133750000D03*
X151638000Y-85852000D03*
X135500000Y-77250000D03*
X163600000Y-127200000D03*
X154100000Y-79300000D03*
X163800000Y-124000000D03*
X164400000Y-134974990D03*
X128887660Y-87812340D03*
X126200000Y-96200000D03*
X129600000Y-91400000D03*
X163200000Y-131900000D03*
X129900000Y-113000000D03*
X163900000Y-137025010D03*
X132029325Y-112674990D03*
X147571375Y-119928625D03*
X150500000Y-123100000D03*
X162200000Y-134800000D03*
X135010743Y-112824979D03*
X163800000Y-79800000D03*
X163200000Y-135200000D03*
X124600000Y-71000000D03*
X135400000Y-71000000D03*
X165201292Y-131775010D03*
X131400000Y-94800000D03*
X165201292Y-131001292D03*
X131826000Y-95600000D03*
X167500000Y-126300000D03*
X156700000Y-79100000D03*
X162500000Y-123900000D03*
D12*
X157480000Y-133590038D02*
X158502981Y-134613019D01*
X158502981Y-135134981D02*
X159004000Y-135636000D01*
X158502981Y-134613019D02*
X158502981Y-135134981D01*
X150876000Y-125586038D02*
X150876000Y-128550038D01*
X149582053Y-123517947D02*
X149582053Y-124292091D01*
X149582053Y-124292091D02*
X150876000Y-125586038D01*
X153389962Y-131064000D02*
X157480000Y-131064000D01*
X150876000Y-128550038D02*
X153389962Y-131064000D01*
X157480000Y-130302000D02*
X157480000Y-131064000D01*
X157480000Y-131064000D02*
X157480000Y-133590038D01*
D13*
X164400000Y-126800000D02*
X164400000Y-127473002D01*
X162994978Y-125394978D02*
X164400000Y-126800000D01*
X158284139Y-125394977D02*
X162994978Y-125394978D01*
X138249968Y-92350032D02*
X138249968Y-105360806D01*
X163025001Y-127925001D02*
X162600000Y-127500000D01*
X138249968Y-105360806D02*
X158284139Y-125394977D01*
X163948001Y-127925001D02*
X163025001Y-127925001D01*
X164400000Y-127473002D02*
X163948001Y-127925001D01*
X157900000Y-79100000D02*
X155874999Y-77074999D01*
X155874999Y-77074999D02*
X153525001Y-77074999D01*
X153525001Y-77074999D02*
X138249968Y-92350032D01*
X153600000Y-77800000D02*
X155300000Y-77800000D01*
X157999999Y-124399999D02*
X138699978Y-105099978D01*
X161400000Y-124000000D02*
X161000001Y-124399999D01*
X138699978Y-92700022D02*
X153600000Y-77800000D01*
X161000001Y-124399999D02*
X157999999Y-124399999D01*
X138699978Y-105099978D02*
X138699978Y-92700022D01*
X133800000Y-78950000D02*
X133800000Y-101547248D01*
X162244988Y-125844988D02*
X163600000Y-127200000D01*
X158097740Y-125844988D02*
X162244988Y-125844988D01*
X135500000Y-77250000D02*
X133800000Y-78950000D01*
X133800000Y-101547248D02*
X158097740Y-125844988D01*
X154100000Y-79300000D02*
X139600000Y-93800000D01*
X155572820Y-120700000D02*
X160500000Y-120700000D01*
X139600000Y-104727180D02*
X155572820Y-120700000D01*
X160500000Y-120700000D02*
X163800000Y-124000000D01*
X139600000Y-93800000D02*
X139600000Y-104727180D01*
X126472822Y-96200000D02*
X126200000Y-96200000D01*
X159872833Y-129600011D02*
X126472822Y-96200000D01*
X163300011Y-129600011D02*
X159872833Y-129600011D01*
X164400000Y-130700000D02*
X163300011Y-129600011D01*
X164400000Y-134974990D02*
X164400000Y-130700000D01*
X157500000Y-128700000D02*
X157600000Y-128800000D01*
X142386421Y-117450011D02*
X141313600Y-117450011D01*
X152011410Y-122374999D02*
X147311409Y-122374999D01*
X147311409Y-122374999D02*
X142386421Y-117450011D01*
X157500000Y-128700000D02*
X157500000Y-127863589D01*
X157500000Y-127863589D02*
X152011410Y-122374999D01*
X141313600Y-117450011D02*
X137463589Y-113599999D01*
X137463589Y-113599999D02*
X130499999Y-113599999D01*
X130499999Y-113599999D02*
X129900000Y-113000000D01*
X160787413Y-131900000D02*
X163200000Y-131900000D01*
X157587413Y-128700000D02*
X160787413Y-131900000D01*
X157500000Y-128700000D02*
X157587413Y-128700000D01*
X137324979Y-112824979D02*
X135010743Y-112824979D01*
X141500000Y-117000000D02*
X137324979Y-112824979D01*
X144642750Y-117000000D02*
X141500000Y-117000000D01*
X147571375Y-119928625D02*
X144642750Y-117000000D01*
X162200000Y-133948998D02*
X162200000Y-134800000D01*
X157000000Y-128000000D02*
X157000000Y-129017157D01*
X152100000Y-123100000D02*
X157000000Y-128000000D01*
X157000000Y-129017157D02*
X157305842Y-129322999D01*
X157574001Y-129322999D02*
X162200000Y-133948998D01*
X150500000Y-123100000D02*
X152100000Y-123100000D01*
X157305842Y-129322999D02*
X157574001Y-129322999D01*
X125474999Y-86201999D02*
X125474999Y-109674999D01*
X129900000Y-114100000D02*
X137327179Y-114100000D01*
X135576998Y-76100000D02*
X125474999Y-86201999D01*
X163800000Y-79800000D02*
X160100000Y-76100000D01*
X161800000Y-136600000D02*
X163200000Y-135200000D01*
X155425001Y-133315999D02*
X155425001Y-134089001D01*
X125474999Y-109674999D02*
X129900000Y-114100000D01*
X154684001Y-132574999D02*
X155425001Y-133315999D01*
X155425001Y-134089001D02*
X157936000Y-136600000D01*
X160100000Y-76100000D02*
X135576998Y-76100000D01*
X142200022Y-117900022D02*
X150114000Y-125814000D01*
X153910999Y-132574999D02*
X154684001Y-132574999D01*
X150114000Y-125814000D02*
X150114000Y-128778000D01*
X137327179Y-114100000D02*
X141127200Y-117900022D01*
X141127200Y-117900022D02*
X142200022Y-117900022D01*
X150114000Y-128778000D02*
X153910999Y-132574999D01*
X157936000Y-136600000D02*
X161800000Y-136600000D01*
X124600000Y-71000000D02*
X135400000Y-71000000D01*
D12*
X165201292Y-131775010D02*
X165201292Y-131001292D01*
X160162787Y-128900000D02*
X131826000Y-100563213D01*
X131826000Y-95226000D02*
X131826000Y-95600000D01*
X131826000Y-100563213D02*
X131826000Y-95600000D01*
X165201292Y-131001292D02*
X165201292Y-130435607D01*
X165201292Y-130435607D02*
X163665685Y-128900000D01*
X163665685Y-128900000D02*
X160162787Y-128900000D01*
X131400000Y-94800000D02*
X131826000Y-95226000D01*
D13*
X155836410Y-121600000D02*
X160200000Y-121600000D01*
X139149989Y-93177009D02*
X139149989Y-104913579D01*
X160200000Y-121600000D02*
X162500000Y-123900000D01*
X139149989Y-104913579D02*
X155836410Y-121600000D01*
X153751999Y-78574999D02*
X139149989Y-93177009D01*
X156700000Y-79100000D02*
X156174999Y-78574999D01*
X156174999Y-78574999D02*
X153751999Y-78574999D01*
M02*
