M48
; DRILL file {KiCad 6.0.2+dfsg-1} date Tue 23 Aug 2022 03:38:13 PM EDT
; FORMAT={-:-/ absolute / inch / decimal}
; #@! TF.CreationDate,2022-08-23T15:38:13-04:00
; #@! TF.GenerationSoftware,Kicad,Pcbnew,6.0.2+dfsg-1
; #@! TF.FileFunction,NonPlated,1,6,NPTH
FMAT,2
INCH
; #@! TA.AperFunction,NonPlated,NPTH,ComponentDrill
T1C0.0276
; #@! TA.AperFunction,NonPlated,NPTH,ComponentDrill
T2C0.0390
; #@! TA.AperFunction,NonPlated,NPTH,ComponentDrill
T3C0.0402
; #@! TA.AperFunction,NonPlated,NPTH,ComponentDrill
T4C0.0866
; #@! TA.AperFunction,NonPlated,NPTH,ComponentDrill
T5C0.0935
%
G90
G05
T1
X6.1329Y-5.8634
X6.4262Y-5.8634
T2
X4.4882Y-4.3189
X4.6882Y-4.2789
X4.6882Y-4.3589
X5.4855Y-5.02
X5.6855Y-4.98
X5.6855Y-5.06
T3
X6.3252Y-5.0197
X6.3252Y-5.3228
X6.5252Y-5.0197
X6.5252Y-5.3228
T4
X5.4331Y-3.3858
X5.5512Y-4.4685
X6.4567Y-3.3858
X6.9488Y-3.7598
T5
X4.4882Y-4.2189
X4.4882Y-4.4189
X4.6132Y-4.2189
X4.6132Y-4.4189
T0
M30
