G04 #@! TF.GenerationSoftware,KiCad,Pcbnew,5.1.6+dfsg1-1~bpo10+1*
G04 #@! TF.CreationDate,2021-06-28T17:41:37-04:00*
G04 #@! TF.ProjectId,RUSP_Mainboard,52555350-5f4d-4616-996e-626f6172642e,rev?*
G04 #@! TF.SameCoordinates,Original*
G04 #@! TF.FileFunction,Paste,Bot*
G04 #@! TF.FilePolarity,Positive*
%FSLAX46Y46*%
G04 Gerber Fmt 4.6, Leading zero omitted, Abs format (unit mm)*
G04 Created by KiCad (PCBNEW 5.1.6+dfsg1-1~bpo10+1) date 2021-06-28 17:41:37*
%MOMM*%
%LPD*%
G01*
G04 APERTURE LIST*
%ADD10C,0.100000*%
%ADD11C,0.010000*%
%ADD12R,0.800000X0.900000*%
%ADD13R,3.500000X2.610000*%
%ADD14R,0.800000X1.500000*%
%ADD15R,1.500000X3.000000*%
%ADD16R,0.200000X1.100000*%
%ADD17R,0.200000X1.000000*%
%ADD18R,2.400000X1.100000*%
%ADD19R,0.180000X0.350000*%
%ADD20R,0.940000X0.300000*%
%ADD21R,0.450000X0.300000*%
%ADD22R,3.400000X1.200000*%
%ADD23R,1.000000X1.500000*%
%ADD24R,0.800000X0.500000*%
%ADD25R,1.600000X3.500000*%
%ADD26R,1.200000X0.900000*%
%ADD27R,1.500000X0.300000*%
%ADD28R,0.300000X1.500000*%
%ADD29R,0.280000X0.850000*%
%ADD30R,0.280000X0.750000*%
%ADD31R,0.650000X1.060000*%
%ADD32R,1.100000X1.100000*%
%ADD33R,1.600000X1.600000*%
%ADD34R,1.800000X1.600000*%
%ADD35R,0.900000X0.800000*%
%ADD36R,2.370000X2.550000*%
%ADD37R,1.020000X2.290000*%
%ADD38R,1.100000X0.200000*%
%ADD39R,1.000000X0.200000*%
G04 APERTURE END LIST*
D10*
G36*
X157600000Y-126500000D02*
G01*
X158050000Y-126250000D01*
X158350000Y-126000000D01*
X158600000Y-125700000D01*
X158825000Y-125275000D01*
X158925000Y-124975000D01*
X158975000Y-124650000D01*
X158100000Y-124650000D01*
X158050000Y-124875000D01*
X157925000Y-125125000D01*
X157700000Y-125400000D01*
X157450000Y-125600000D01*
X157150000Y-125700000D01*
X157150000Y-126625000D01*
X157600000Y-126500000D01*
G37*
X157600000Y-126500000D02*
X158050000Y-126250000D01*
X158350000Y-126000000D01*
X158600000Y-125700000D01*
X158825000Y-125275000D01*
X158925000Y-124975000D01*
X158975000Y-124650000D01*
X158100000Y-124650000D01*
X158050000Y-124875000D01*
X157925000Y-125125000D01*
X157700000Y-125400000D01*
X157450000Y-125600000D01*
X157150000Y-125700000D01*
X157150000Y-126625000D01*
X157600000Y-126500000D01*
G36*
X157600000Y-126500000D02*
G01*
X158050000Y-126250000D01*
X158350000Y-126000000D01*
X158600000Y-125700000D01*
X158825000Y-125275000D01*
X158925000Y-124975000D01*
X158975000Y-124650000D01*
X158100000Y-124650000D01*
X158050000Y-124875000D01*
X157925000Y-125125000D01*
X157700000Y-125400000D01*
X157450000Y-125600000D01*
X157150000Y-125700000D01*
X157150000Y-126625000D01*
X157600000Y-126500000D01*
G37*
X157600000Y-126500000D02*
X158050000Y-126250000D01*
X158350000Y-126000000D01*
X158600000Y-125700000D01*
X158825000Y-125275000D01*
X158925000Y-124975000D01*
X158975000Y-124650000D01*
X158100000Y-124650000D01*
X158050000Y-124875000D01*
X157925000Y-125125000D01*
X157700000Y-125400000D01*
X157450000Y-125600000D01*
X157150000Y-125700000D01*
X157150000Y-126625000D01*
X157600000Y-126500000D01*
G36*
X154750000Y-125250000D02*
G01*
X155000000Y-125700000D01*
X155250000Y-126000000D01*
X155550000Y-126250000D01*
X155975000Y-126475000D01*
X156275000Y-126575000D01*
X156600000Y-126625000D01*
X156600000Y-125750000D01*
X156375000Y-125700000D01*
X156125000Y-125575000D01*
X155850000Y-125350000D01*
X155650000Y-125100000D01*
X155550000Y-124800000D01*
X154625000Y-124800000D01*
X154750000Y-125250000D01*
G37*
X154750000Y-125250000D02*
X155000000Y-125700000D01*
X155250000Y-126000000D01*
X155550000Y-126250000D01*
X155975000Y-126475000D01*
X156275000Y-126575000D01*
X156600000Y-126625000D01*
X156600000Y-125750000D01*
X156375000Y-125700000D01*
X156125000Y-125575000D01*
X155850000Y-125350000D01*
X155650000Y-125100000D01*
X155550000Y-124800000D01*
X154625000Y-124800000D01*
X154750000Y-125250000D01*
G36*
X156000000Y-122400000D02*
G01*
X155550000Y-122650000D01*
X155250000Y-122900000D01*
X155000000Y-123200000D01*
X154775000Y-123625000D01*
X154675000Y-123925000D01*
X154625000Y-124250000D01*
X155500000Y-124250000D01*
X155550000Y-124025000D01*
X155675000Y-123775000D01*
X155900000Y-123500000D01*
X156150000Y-123300000D01*
X156450000Y-123200000D01*
X156450000Y-122275000D01*
X156000000Y-122400000D01*
G37*
X156000000Y-122400000D02*
X155550000Y-122650000D01*
X155250000Y-122900000D01*
X155000000Y-123200000D01*
X154775000Y-123625000D01*
X154675000Y-123925000D01*
X154625000Y-124250000D01*
X155500000Y-124250000D01*
X155550000Y-124025000D01*
X155675000Y-123775000D01*
X155900000Y-123500000D01*
X156150000Y-123300000D01*
X156450000Y-123200000D01*
X156450000Y-122275000D01*
X156000000Y-122400000D01*
G36*
X158850000Y-123625000D02*
G01*
X158600000Y-123175000D01*
X158350000Y-122875000D01*
X158050000Y-122625000D01*
X157625000Y-122400000D01*
X157325000Y-122300000D01*
X157000000Y-122250000D01*
X157000000Y-123125000D01*
X157225000Y-123175000D01*
X157475000Y-123300000D01*
X157750000Y-123525000D01*
X157950000Y-123775000D01*
X158050000Y-124075000D01*
X158975000Y-124075000D01*
X158850000Y-123625000D01*
G37*
X158850000Y-123625000D02*
X158600000Y-123175000D01*
X158350000Y-122875000D01*
X158050000Y-122625000D01*
X157625000Y-122400000D01*
X157325000Y-122300000D01*
X157000000Y-122250000D01*
X157000000Y-123125000D01*
X157225000Y-123175000D01*
X157475000Y-123300000D01*
X157750000Y-123525000D01*
X157950000Y-123775000D01*
X158050000Y-124075000D01*
X158975000Y-124075000D01*
X158850000Y-123625000D01*
G36*
X146300000Y-117550000D02*
G01*
X146750000Y-117300000D01*
X147050000Y-117050000D01*
X147300000Y-116750000D01*
X147525000Y-116325000D01*
X147625000Y-116025000D01*
X147675000Y-115700000D01*
X146800000Y-115700000D01*
X146750000Y-115925000D01*
X146625000Y-116175000D01*
X146400000Y-116450000D01*
X146150000Y-116650000D01*
X145850000Y-116750000D01*
X145850000Y-117675000D01*
X146300000Y-117550000D01*
G37*
X146300000Y-117550000D02*
X146750000Y-117300000D01*
X147050000Y-117050000D01*
X147300000Y-116750000D01*
X147525000Y-116325000D01*
X147625000Y-116025000D01*
X147675000Y-115700000D01*
X146800000Y-115700000D01*
X146750000Y-115925000D01*
X146625000Y-116175000D01*
X146400000Y-116450000D01*
X146150000Y-116650000D01*
X145850000Y-116750000D01*
X145850000Y-117675000D01*
X146300000Y-117550000D01*
G36*
X146300000Y-117550000D02*
G01*
X146750000Y-117300000D01*
X147050000Y-117050000D01*
X147300000Y-116750000D01*
X147525000Y-116325000D01*
X147625000Y-116025000D01*
X147675000Y-115700000D01*
X146800000Y-115700000D01*
X146750000Y-115925000D01*
X146625000Y-116175000D01*
X146400000Y-116450000D01*
X146150000Y-116650000D01*
X145850000Y-116750000D01*
X145850000Y-117675000D01*
X146300000Y-117550000D01*
G37*
X146300000Y-117550000D02*
X146750000Y-117300000D01*
X147050000Y-117050000D01*
X147300000Y-116750000D01*
X147525000Y-116325000D01*
X147625000Y-116025000D01*
X147675000Y-115700000D01*
X146800000Y-115700000D01*
X146750000Y-115925000D01*
X146625000Y-116175000D01*
X146400000Y-116450000D01*
X146150000Y-116650000D01*
X145850000Y-116750000D01*
X145850000Y-117675000D01*
X146300000Y-117550000D01*
G36*
X143450000Y-116300000D02*
G01*
X143700000Y-116750000D01*
X143950000Y-117050000D01*
X144250000Y-117300000D01*
X144675000Y-117525000D01*
X144975000Y-117625000D01*
X145300000Y-117675000D01*
X145300000Y-116800000D01*
X145075000Y-116750000D01*
X144825000Y-116625000D01*
X144550000Y-116400000D01*
X144350000Y-116150000D01*
X144250000Y-115850000D01*
X143325000Y-115850000D01*
X143450000Y-116300000D01*
G37*
X143450000Y-116300000D02*
X143700000Y-116750000D01*
X143950000Y-117050000D01*
X144250000Y-117300000D01*
X144675000Y-117525000D01*
X144975000Y-117625000D01*
X145300000Y-117675000D01*
X145300000Y-116800000D01*
X145075000Y-116750000D01*
X144825000Y-116625000D01*
X144550000Y-116400000D01*
X144350000Y-116150000D01*
X144250000Y-115850000D01*
X143325000Y-115850000D01*
X143450000Y-116300000D01*
G36*
X144700000Y-113450000D02*
G01*
X144250000Y-113700000D01*
X143950000Y-113950000D01*
X143700000Y-114250000D01*
X143475000Y-114675000D01*
X143375000Y-114975000D01*
X143325000Y-115300000D01*
X144200000Y-115300000D01*
X144250000Y-115075000D01*
X144375000Y-114825000D01*
X144600000Y-114550000D01*
X144850000Y-114350000D01*
X145150000Y-114250000D01*
X145150000Y-113325000D01*
X144700000Y-113450000D01*
G37*
X144700000Y-113450000D02*
X144250000Y-113700000D01*
X143950000Y-113950000D01*
X143700000Y-114250000D01*
X143475000Y-114675000D01*
X143375000Y-114975000D01*
X143325000Y-115300000D01*
X144200000Y-115300000D01*
X144250000Y-115075000D01*
X144375000Y-114825000D01*
X144600000Y-114550000D01*
X144850000Y-114350000D01*
X145150000Y-114250000D01*
X145150000Y-113325000D01*
X144700000Y-113450000D01*
G36*
X147550000Y-114675000D02*
G01*
X147300000Y-114225000D01*
X147050000Y-113925000D01*
X146750000Y-113675000D01*
X146325000Y-113450000D01*
X146025000Y-113350000D01*
X145700000Y-113300000D01*
X145700000Y-114175000D01*
X145925000Y-114225000D01*
X146175000Y-114350000D01*
X146450000Y-114575000D01*
X146650000Y-114825000D01*
X146750000Y-115125000D01*
X147675000Y-115125000D01*
X147550000Y-114675000D01*
G37*
X147550000Y-114675000D02*
X147300000Y-114225000D01*
X147050000Y-113925000D01*
X146750000Y-113675000D01*
X146325000Y-113450000D01*
X146025000Y-113350000D01*
X145700000Y-113300000D01*
X145700000Y-114175000D01*
X145925000Y-114225000D01*
X146175000Y-114350000D01*
X146450000Y-114575000D01*
X146650000Y-114825000D01*
X146750000Y-115125000D01*
X147675000Y-115125000D01*
X147550000Y-114675000D01*
D11*
G36*
X168000000Y-81945000D02*
G01*
X167200000Y-81945000D01*
X167197383Y-81945069D01*
X167194774Y-81945274D01*
X167192178Y-81945616D01*
X167189604Y-81946093D01*
X167187059Y-81946704D01*
X167184549Y-81947447D01*
X167182082Y-81948321D01*
X167179663Y-81949323D01*
X167177300Y-81950450D01*
X167175000Y-81951699D01*
X167172768Y-81953066D01*
X167170611Y-81954549D01*
X167168534Y-81956143D01*
X167166543Y-81957843D01*
X167164645Y-81959645D01*
X167162843Y-81961543D01*
X167161143Y-81963534D01*
X167159549Y-81965611D01*
X167158066Y-81967768D01*
X167156699Y-81970000D01*
X167155450Y-81972300D01*
X167154323Y-81974663D01*
X167153321Y-81977082D01*
X167152447Y-81979549D01*
X167151704Y-81982059D01*
X167151093Y-81984604D01*
X167150616Y-81987178D01*
X167150274Y-81989774D01*
X167150069Y-81992383D01*
X167150000Y-81995000D01*
X167150000Y-82755000D01*
X167150069Y-82757617D01*
X167150274Y-82760226D01*
X167150616Y-82762822D01*
X167151093Y-82765396D01*
X167151704Y-82767941D01*
X167152447Y-82770451D01*
X167153321Y-82772918D01*
X167154323Y-82775337D01*
X167155450Y-82777700D01*
X167156699Y-82780000D01*
X167158066Y-82782232D01*
X167159549Y-82784389D01*
X167161143Y-82786466D01*
X167162843Y-82788457D01*
X167164645Y-82790355D01*
X167166543Y-82792157D01*
X167168534Y-82793857D01*
X167170611Y-82795451D01*
X167172768Y-82796934D01*
X167175000Y-82798301D01*
X167177300Y-82799550D01*
X167179663Y-82800677D01*
X167182082Y-82801679D01*
X167184549Y-82802553D01*
X167187059Y-82803296D01*
X167189604Y-82803907D01*
X167192178Y-82804384D01*
X167194774Y-82804726D01*
X167197383Y-82804931D01*
X167200000Y-82805000D01*
X168000000Y-82805000D01*
X168002617Y-82804931D01*
X168005226Y-82804726D01*
X168007822Y-82804384D01*
X168010396Y-82803907D01*
X168012941Y-82803296D01*
X168015451Y-82802553D01*
X168017918Y-82801679D01*
X168020337Y-82800677D01*
X168022700Y-82799550D01*
X168025000Y-82798301D01*
X168027232Y-82796934D01*
X168029389Y-82795451D01*
X168031466Y-82793857D01*
X168033457Y-82792157D01*
X168035355Y-82790355D01*
X168037157Y-82788457D01*
X168038857Y-82786466D01*
X168040451Y-82784389D01*
X168041934Y-82782232D01*
X168043301Y-82780000D01*
X168044550Y-82777700D01*
X168045677Y-82775337D01*
X168046679Y-82772918D01*
X168047553Y-82770451D01*
X168048296Y-82767941D01*
X168048907Y-82765396D01*
X168049384Y-82762822D01*
X168049726Y-82760226D01*
X168049931Y-82757617D01*
X168050000Y-82755000D01*
X168050000Y-81995000D01*
X168049931Y-81992383D01*
X168049726Y-81989774D01*
X168049384Y-81987178D01*
X168048907Y-81984604D01*
X168048296Y-81982059D01*
X168047553Y-81979549D01*
X168046679Y-81977082D01*
X168045677Y-81974663D01*
X168044550Y-81972300D01*
X168043301Y-81970000D01*
X168041934Y-81967768D01*
X168040451Y-81965611D01*
X168038857Y-81963534D01*
X168037157Y-81961543D01*
X168035355Y-81959645D01*
X168033457Y-81957843D01*
X168031466Y-81956143D01*
X168029389Y-81954549D01*
X168027232Y-81953066D01*
X168025000Y-81951699D01*
X168022700Y-81950450D01*
X168020337Y-81949323D01*
X168017918Y-81948321D01*
X168015451Y-81947447D01*
X168012941Y-81946704D01*
X168010396Y-81946093D01*
X168007822Y-81945616D01*
X168005226Y-81945274D01*
X168002617Y-81945069D01*
X168000000Y-81945000D01*
G37*
X168000000Y-81945000D02*
X167200000Y-81945000D01*
X167197383Y-81945069D01*
X167194774Y-81945274D01*
X167192178Y-81945616D01*
X167189604Y-81946093D01*
X167187059Y-81946704D01*
X167184549Y-81947447D01*
X167182082Y-81948321D01*
X167179663Y-81949323D01*
X167177300Y-81950450D01*
X167175000Y-81951699D01*
X167172768Y-81953066D01*
X167170611Y-81954549D01*
X167168534Y-81956143D01*
X167166543Y-81957843D01*
X167164645Y-81959645D01*
X167162843Y-81961543D01*
X167161143Y-81963534D01*
X167159549Y-81965611D01*
X167158066Y-81967768D01*
X167156699Y-81970000D01*
X167155450Y-81972300D01*
X167154323Y-81974663D01*
X167153321Y-81977082D01*
X167152447Y-81979549D01*
X167151704Y-81982059D01*
X167151093Y-81984604D01*
X167150616Y-81987178D01*
X167150274Y-81989774D01*
X167150069Y-81992383D01*
X167150000Y-81995000D01*
X167150000Y-82755000D01*
X167150069Y-82757617D01*
X167150274Y-82760226D01*
X167150616Y-82762822D01*
X167151093Y-82765396D01*
X167151704Y-82767941D01*
X167152447Y-82770451D01*
X167153321Y-82772918D01*
X167154323Y-82775337D01*
X167155450Y-82777700D01*
X167156699Y-82780000D01*
X167158066Y-82782232D01*
X167159549Y-82784389D01*
X167161143Y-82786466D01*
X167162843Y-82788457D01*
X167164645Y-82790355D01*
X167166543Y-82792157D01*
X167168534Y-82793857D01*
X167170611Y-82795451D01*
X167172768Y-82796934D01*
X167175000Y-82798301D01*
X167177300Y-82799550D01*
X167179663Y-82800677D01*
X167182082Y-82801679D01*
X167184549Y-82802553D01*
X167187059Y-82803296D01*
X167189604Y-82803907D01*
X167192178Y-82804384D01*
X167194774Y-82804726D01*
X167197383Y-82804931D01*
X167200000Y-82805000D01*
X168000000Y-82805000D01*
X168002617Y-82804931D01*
X168005226Y-82804726D01*
X168007822Y-82804384D01*
X168010396Y-82803907D01*
X168012941Y-82803296D01*
X168015451Y-82802553D01*
X168017918Y-82801679D01*
X168020337Y-82800677D01*
X168022700Y-82799550D01*
X168025000Y-82798301D01*
X168027232Y-82796934D01*
X168029389Y-82795451D01*
X168031466Y-82793857D01*
X168033457Y-82792157D01*
X168035355Y-82790355D01*
X168037157Y-82788457D01*
X168038857Y-82786466D01*
X168040451Y-82784389D01*
X168041934Y-82782232D01*
X168043301Y-82780000D01*
X168044550Y-82777700D01*
X168045677Y-82775337D01*
X168046679Y-82772918D01*
X168047553Y-82770451D01*
X168048296Y-82767941D01*
X168048907Y-82765396D01*
X168049384Y-82762822D01*
X168049726Y-82760226D01*
X168049931Y-82757617D01*
X168050000Y-82755000D01*
X168050000Y-81995000D01*
X168049931Y-81992383D01*
X168049726Y-81989774D01*
X168049384Y-81987178D01*
X168048907Y-81984604D01*
X168048296Y-81982059D01*
X168047553Y-81979549D01*
X168046679Y-81977082D01*
X168045677Y-81974663D01*
X168044550Y-81972300D01*
X168043301Y-81970000D01*
X168041934Y-81967768D01*
X168040451Y-81965611D01*
X168038857Y-81963534D01*
X168037157Y-81961543D01*
X168035355Y-81959645D01*
X168033457Y-81957843D01*
X168031466Y-81956143D01*
X168029389Y-81954549D01*
X168027232Y-81953066D01*
X168025000Y-81951699D01*
X168022700Y-81950450D01*
X168020337Y-81949323D01*
X168017918Y-81948321D01*
X168015451Y-81947447D01*
X168012941Y-81946704D01*
X168010396Y-81946093D01*
X168007822Y-81945616D01*
X168005226Y-81945274D01*
X168002617Y-81945069D01*
X168000000Y-81945000D01*
G36*
X167205000Y-83495000D02*
G01*
X167805000Y-83495000D01*
X167807617Y-83494931D01*
X167810226Y-83494726D01*
X167812822Y-83494384D01*
X167815396Y-83493907D01*
X167817941Y-83493296D01*
X167820451Y-83492553D01*
X167822918Y-83491679D01*
X167825337Y-83490677D01*
X167827700Y-83489550D01*
X167830000Y-83488301D01*
X167832232Y-83486934D01*
X167834389Y-83485451D01*
X167836466Y-83483857D01*
X167838457Y-83482157D01*
X167840355Y-83480355D01*
X167842157Y-83478457D01*
X167843857Y-83476466D01*
X167845451Y-83474389D01*
X167846934Y-83472232D01*
X167848301Y-83470000D01*
X167849550Y-83467700D01*
X167850677Y-83465337D01*
X167851679Y-83462918D01*
X167852553Y-83460451D01*
X167853296Y-83457941D01*
X167853907Y-83455396D01*
X167854384Y-83452822D01*
X167854726Y-83450226D01*
X167854931Y-83447617D01*
X167855000Y-83445000D01*
X167855000Y-83255000D01*
X167854931Y-83252383D01*
X167854726Y-83249774D01*
X167854384Y-83247178D01*
X167853907Y-83244604D01*
X167853296Y-83242059D01*
X167852553Y-83239549D01*
X167851679Y-83237082D01*
X167850677Y-83234663D01*
X167849550Y-83232300D01*
X167848301Y-83230000D01*
X167846934Y-83227768D01*
X167845451Y-83225611D01*
X167843857Y-83223534D01*
X167842157Y-83221543D01*
X167840355Y-83219645D01*
X167838457Y-83217843D01*
X167836466Y-83216143D01*
X167834389Y-83214549D01*
X167832232Y-83213066D01*
X167830000Y-83211699D01*
X167827700Y-83210450D01*
X167825337Y-83209323D01*
X167822918Y-83208321D01*
X167820451Y-83207447D01*
X167817941Y-83206704D01*
X167815396Y-83206093D01*
X167812822Y-83205616D01*
X167810226Y-83205274D01*
X167807617Y-83205069D01*
X167805000Y-83205000D01*
X167205000Y-83205000D01*
X167202383Y-83205069D01*
X167199774Y-83205274D01*
X167197178Y-83205616D01*
X167194604Y-83206093D01*
X167192059Y-83206704D01*
X167189549Y-83207447D01*
X167187082Y-83208321D01*
X167184663Y-83209323D01*
X167182300Y-83210450D01*
X167180000Y-83211699D01*
X167177768Y-83213066D01*
X167175611Y-83214549D01*
X167173534Y-83216143D01*
X167171543Y-83217843D01*
X167169645Y-83219645D01*
X167167843Y-83221543D01*
X167166143Y-83223534D01*
X167164549Y-83225611D01*
X167163066Y-83227768D01*
X167161699Y-83230000D01*
X167160450Y-83232300D01*
X167159323Y-83234663D01*
X167158321Y-83237082D01*
X167157447Y-83239549D01*
X167156704Y-83242059D01*
X167156093Y-83244604D01*
X167155616Y-83247178D01*
X167155274Y-83249774D01*
X167155069Y-83252383D01*
X167155000Y-83255000D01*
X167155000Y-83445000D01*
X167155069Y-83447617D01*
X167155274Y-83450226D01*
X167155616Y-83452822D01*
X167156093Y-83455396D01*
X167156704Y-83457941D01*
X167157447Y-83460451D01*
X167158321Y-83462918D01*
X167159323Y-83465337D01*
X167160450Y-83467700D01*
X167161699Y-83470000D01*
X167163066Y-83472232D01*
X167164549Y-83474389D01*
X167166143Y-83476466D01*
X167167843Y-83478457D01*
X167169645Y-83480355D01*
X167171543Y-83482157D01*
X167173534Y-83483857D01*
X167175611Y-83485451D01*
X167177768Y-83486934D01*
X167180000Y-83488301D01*
X167182300Y-83489550D01*
X167184663Y-83490677D01*
X167187082Y-83491679D01*
X167189549Y-83492553D01*
X167192059Y-83493296D01*
X167194604Y-83493907D01*
X167197178Y-83494384D01*
X167199774Y-83494726D01*
X167202383Y-83494931D01*
X167205000Y-83495000D01*
G37*
X167205000Y-83495000D02*
X167805000Y-83495000D01*
X167807617Y-83494931D01*
X167810226Y-83494726D01*
X167812822Y-83494384D01*
X167815396Y-83493907D01*
X167817941Y-83493296D01*
X167820451Y-83492553D01*
X167822918Y-83491679D01*
X167825337Y-83490677D01*
X167827700Y-83489550D01*
X167830000Y-83488301D01*
X167832232Y-83486934D01*
X167834389Y-83485451D01*
X167836466Y-83483857D01*
X167838457Y-83482157D01*
X167840355Y-83480355D01*
X167842157Y-83478457D01*
X167843857Y-83476466D01*
X167845451Y-83474389D01*
X167846934Y-83472232D01*
X167848301Y-83470000D01*
X167849550Y-83467700D01*
X167850677Y-83465337D01*
X167851679Y-83462918D01*
X167852553Y-83460451D01*
X167853296Y-83457941D01*
X167853907Y-83455396D01*
X167854384Y-83452822D01*
X167854726Y-83450226D01*
X167854931Y-83447617D01*
X167855000Y-83445000D01*
X167855000Y-83255000D01*
X167854931Y-83252383D01*
X167854726Y-83249774D01*
X167854384Y-83247178D01*
X167853907Y-83244604D01*
X167853296Y-83242059D01*
X167852553Y-83239549D01*
X167851679Y-83237082D01*
X167850677Y-83234663D01*
X167849550Y-83232300D01*
X167848301Y-83230000D01*
X167846934Y-83227768D01*
X167845451Y-83225611D01*
X167843857Y-83223534D01*
X167842157Y-83221543D01*
X167840355Y-83219645D01*
X167838457Y-83217843D01*
X167836466Y-83216143D01*
X167834389Y-83214549D01*
X167832232Y-83213066D01*
X167830000Y-83211699D01*
X167827700Y-83210450D01*
X167825337Y-83209323D01*
X167822918Y-83208321D01*
X167820451Y-83207447D01*
X167817941Y-83206704D01*
X167815396Y-83206093D01*
X167812822Y-83205616D01*
X167810226Y-83205274D01*
X167807617Y-83205069D01*
X167805000Y-83205000D01*
X167205000Y-83205000D01*
X167202383Y-83205069D01*
X167199774Y-83205274D01*
X167197178Y-83205616D01*
X167194604Y-83206093D01*
X167192059Y-83206704D01*
X167189549Y-83207447D01*
X167187082Y-83208321D01*
X167184663Y-83209323D01*
X167182300Y-83210450D01*
X167180000Y-83211699D01*
X167177768Y-83213066D01*
X167175611Y-83214549D01*
X167173534Y-83216143D01*
X167171543Y-83217843D01*
X167169645Y-83219645D01*
X167167843Y-83221543D01*
X167166143Y-83223534D01*
X167164549Y-83225611D01*
X167163066Y-83227768D01*
X167161699Y-83230000D01*
X167160450Y-83232300D01*
X167159323Y-83234663D01*
X167158321Y-83237082D01*
X167157447Y-83239549D01*
X167156704Y-83242059D01*
X167156093Y-83244604D01*
X167155616Y-83247178D01*
X167155274Y-83249774D01*
X167155069Y-83252383D01*
X167155000Y-83255000D01*
X167155000Y-83445000D01*
X167155069Y-83447617D01*
X167155274Y-83450226D01*
X167155616Y-83452822D01*
X167156093Y-83455396D01*
X167156704Y-83457941D01*
X167157447Y-83460451D01*
X167158321Y-83462918D01*
X167159323Y-83465337D01*
X167160450Y-83467700D01*
X167161699Y-83470000D01*
X167163066Y-83472232D01*
X167164549Y-83474389D01*
X167166143Y-83476466D01*
X167167843Y-83478457D01*
X167169645Y-83480355D01*
X167171543Y-83482157D01*
X167173534Y-83483857D01*
X167175611Y-83485451D01*
X167177768Y-83486934D01*
X167180000Y-83488301D01*
X167182300Y-83489550D01*
X167184663Y-83490677D01*
X167187082Y-83491679D01*
X167189549Y-83492553D01*
X167192059Y-83493296D01*
X167194604Y-83493907D01*
X167197178Y-83494384D01*
X167199774Y-83494726D01*
X167202383Y-83494931D01*
X167205000Y-83495000D01*
G36*
G01*
X135410000Y-133827500D02*
X135410000Y-134172500D01*
G75*
G02*
X135262500Y-134320000I-147500J0D01*
G01*
X134967500Y-134320000D01*
G75*
G02*
X134820000Y-134172500I0J147500D01*
G01*
X134820000Y-133827500D01*
G75*
G02*
X134967500Y-133680000I147500J0D01*
G01*
X135262500Y-133680000D01*
G75*
G02*
X135410000Y-133827500I0J-147500D01*
G01*
G37*
G36*
G01*
X136380000Y-133827500D02*
X136380000Y-134172500D01*
G75*
G02*
X136232500Y-134320000I-147500J0D01*
G01*
X135937500Y-134320000D01*
G75*
G02*
X135790000Y-134172500I0J147500D01*
G01*
X135790000Y-133827500D01*
G75*
G02*
X135937500Y-133680000I147500J0D01*
G01*
X136232500Y-133680000D01*
G75*
G02*
X136380000Y-133827500I0J-147500D01*
G01*
G37*
D12*
X136000000Y-135900000D03*
X135050000Y-137900000D03*
X136950000Y-137900000D03*
D13*
X133000000Y-87700000D03*
D14*
X131095000Y-90240000D03*
X132365000Y-90240000D03*
X133635000Y-90240000D03*
X134905000Y-90240000D03*
X134905000Y-85160000D03*
X133635000Y-85160000D03*
X132365000Y-85160000D03*
X131095000Y-85160000D03*
G36*
G01*
X136790000Y-82772500D02*
X136790000Y-82427500D01*
G75*
G02*
X136937500Y-82280000I147500J0D01*
G01*
X137232500Y-82280000D01*
G75*
G02*
X137380000Y-82427500I0J-147500D01*
G01*
X137380000Y-82772500D01*
G75*
G02*
X137232500Y-82920000I-147500J0D01*
G01*
X136937500Y-82920000D01*
G75*
G02*
X136790000Y-82772500I0J147500D01*
G01*
G37*
G36*
G01*
X135820000Y-82772500D02*
X135820000Y-82427500D01*
G75*
G02*
X135967500Y-82280000I147500J0D01*
G01*
X136262500Y-82280000D01*
G75*
G02*
X136410000Y-82427500I0J-147500D01*
G01*
X136410000Y-82772500D01*
G75*
G02*
X136262500Y-82920000I-147500J0D01*
G01*
X135967500Y-82920000D01*
G75*
G02*
X135820000Y-82772500I0J147500D01*
G01*
G37*
D15*
X152375000Y-62750000D03*
D16*
X163950000Y-133070000D03*
D17*
X163550000Y-133120000D03*
X163150000Y-133120000D03*
X162750000Y-133120000D03*
X162350000Y-133120000D03*
X161950000Y-133120000D03*
X161550000Y-133120000D03*
X161150000Y-133120000D03*
X160750000Y-133120000D03*
X160350000Y-133120000D03*
X160350000Y-131320000D03*
X160750000Y-131320000D03*
X161150000Y-131320000D03*
X161550000Y-131320000D03*
X161950000Y-131320000D03*
X162350000Y-131320000D03*
X162750000Y-131320000D03*
X163150000Y-131320000D03*
X163550000Y-131320000D03*
X163950000Y-131320000D03*
D18*
X160800000Y-59000000D03*
X167200000Y-59000000D03*
X167200000Y-63000000D03*
X160800000Y-63000000D03*
X126800000Y-59000000D03*
X133200000Y-59000000D03*
X133200000Y-63000000D03*
X126800000Y-63000000D03*
X129346000Y-142497000D03*
X122946000Y-142497000D03*
X122946000Y-138497000D03*
X129346000Y-138497000D03*
X143027000Y-147886000D03*
X136627000Y-147886000D03*
X136627000Y-143886000D03*
X143027000Y-143886000D03*
X163200000Y-144000000D03*
X156800000Y-144000000D03*
X156800000Y-140000000D03*
X163200000Y-140000000D03*
X176200000Y-144000000D03*
X169800000Y-144000000D03*
X169800000Y-140000000D03*
X176200000Y-140000000D03*
D19*
X143800000Y-133175000D03*
X144200000Y-133175000D03*
X144600000Y-133175000D03*
X144600000Y-134225000D03*
X144200000Y-134225000D03*
X143800000Y-134225000D03*
D20*
X144200000Y-133700000D03*
D21*
X168575000Y-82050000D03*
X168575000Y-82700000D03*
X168575000Y-83350000D03*
X166625000Y-83350000D03*
X166625000Y-82700000D03*
X166625000Y-82050000D03*
D22*
X123700000Y-111200000D03*
X123700000Y-109200000D03*
D23*
X180280000Y-127350000D03*
X180280000Y-123850000D03*
D24*
X180050000Y-126000000D03*
X180050000Y-125200000D03*
D25*
X136000000Y-69700000D03*
X136000000Y-75300000D03*
D23*
X180280000Y-78750000D03*
X180280000Y-75250000D03*
D24*
X180050000Y-77400000D03*
X180050000Y-76600000D03*
D23*
X180280000Y-84150000D03*
X180280000Y-80650000D03*
D24*
X180050000Y-82800000D03*
X180050000Y-82000000D03*
D23*
X180300000Y-89550000D03*
X180300000Y-86050000D03*
D24*
X180070000Y-88200000D03*
X180070000Y-87400000D03*
D23*
X180300000Y-94950000D03*
X180300000Y-91450000D03*
D24*
X180070000Y-93600000D03*
X180070000Y-92800000D03*
D23*
X180280000Y-100350000D03*
X180280000Y-96850000D03*
D24*
X180050000Y-99000000D03*
X180050000Y-98200000D03*
D23*
X180280000Y-105750000D03*
X180280000Y-102250000D03*
D24*
X180050000Y-104400000D03*
X180050000Y-103600000D03*
D23*
X180280000Y-111150000D03*
X180280000Y-107650000D03*
D24*
X180050000Y-109800000D03*
X180050000Y-109000000D03*
D23*
X180280000Y-116550000D03*
X180280000Y-113050000D03*
D24*
X180050000Y-115200000D03*
X180050000Y-114400000D03*
D23*
X180280000Y-121950000D03*
X180280000Y-118450000D03*
D24*
X180050000Y-120600000D03*
X180050000Y-119800000D03*
D26*
X166500000Y-137570000D03*
X166500000Y-140870000D03*
G36*
G01*
X166350000Y-147599999D02*
X166350000Y-148500001D01*
G75*
G02*
X166100001Y-148750000I-249999J0D01*
G01*
X165449999Y-148750000D01*
G75*
G02*
X165200000Y-148500001I0J249999D01*
G01*
X165200000Y-147599999D01*
G75*
G02*
X165449999Y-147350000I249999J0D01*
G01*
X166100001Y-147350000D01*
G75*
G02*
X166350000Y-147599999I0J-249999D01*
G01*
G37*
G36*
G01*
X168400000Y-147599999D02*
X168400000Y-148500001D01*
G75*
G02*
X168150001Y-148750000I-249999J0D01*
G01*
X167499999Y-148750000D01*
G75*
G02*
X167250000Y-148500001I0J249999D01*
G01*
X167250000Y-147599999D01*
G75*
G02*
X167499999Y-147350000I249999J0D01*
G01*
X168150001Y-147350000D01*
G75*
G02*
X168400000Y-147599999I0J-249999D01*
G01*
G37*
D27*
X135450000Y-132000000D03*
X135450000Y-131500000D03*
X135450000Y-131000000D03*
X135450000Y-130500000D03*
X135450000Y-130000000D03*
X135450000Y-129500000D03*
X135450000Y-129000000D03*
X135450000Y-128500000D03*
X135450000Y-128000000D03*
X135450000Y-127500000D03*
X135450000Y-127000000D03*
X135450000Y-126500000D03*
X135450000Y-126000000D03*
X135450000Y-125500000D03*
X135450000Y-125000000D03*
X135450000Y-124500000D03*
X135450000Y-124000000D03*
X135450000Y-123500000D03*
X135450000Y-123000000D03*
X135450000Y-122500000D03*
X135450000Y-122000000D03*
X135450000Y-121500000D03*
X135450000Y-121000000D03*
X135450000Y-120500000D03*
X135450000Y-120000000D03*
D28*
X133800000Y-118350000D03*
X133300000Y-118350000D03*
X132800000Y-118350000D03*
X132300000Y-118350000D03*
X131800000Y-118350000D03*
X131300000Y-118350000D03*
X130800000Y-118350000D03*
X130300000Y-118350000D03*
X129800000Y-118350000D03*
X129300000Y-118350000D03*
X128800000Y-118350000D03*
X128300000Y-118350000D03*
X127800000Y-118350000D03*
X127300000Y-118350000D03*
X126800000Y-118350000D03*
X126300000Y-118350000D03*
X125800000Y-118350000D03*
X125300000Y-118350000D03*
X124800000Y-118350000D03*
X124300000Y-118350000D03*
X123800000Y-118350000D03*
X123300000Y-118350000D03*
X122800000Y-118350000D03*
X122300000Y-118350000D03*
X121800000Y-118350000D03*
D27*
X120150000Y-120000000D03*
X120150000Y-120500000D03*
X120150000Y-121000000D03*
X120150000Y-121500000D03*
X120150000Y-122000000D03*
X120150000Y-122500000D03*
X120150000Y-123000000D03*
X120150000Y-123500000D03*
X120150000Y-124000000D03*
X120150000Y-124500000D03*
X120150000Y-125000000D03*
X120150000Y-125500000D03*
X120150000Y-126000000D03*
X120150000Y-126500000D03*
X120150000Y-127000000D03*
X120150000Y-127500000D03*
X120150000Y-128000000D03*
X120150000Y-128500000D03*
X120150000Y-129000000D03*
X120150000Y-129500000D03*
X120150000Y-130000000D03*
X120150000Y-130500000D03*
X120150000Y-131000000D03*
X120150000Y-131500000D03*
X120150000Y-132000000D03*
D28*
X121800000Y-133650000D03*
X122300000Y-133650000D03*
X122800000Y-133650000D03*
X123300000Y-133650000D03*
X123800000Y-133650000D03*
X124300000Y-133650000D03*
X124800000Y-133650000D03*
X125300000Y-133650000D03*
X125800000Y-133650000D03*
X126300000Y-133650000D03*
X126800000Y-133650000D03*
X127300000Y-133650000D03*
X127800000Y-133650000D03*
X128300000Y-133650000D03*
X128800000Y-133650000D03*
X129300000Y-133650000D03*
X129800000Y-133650000D03*
X130300000Y-133650000D03*
X130800000Y-133650000D03*
X131300000Y-133650000D03*
X131800000Y-133650000D03*
X132300000Y-133650000D03*
X132800000Y-133650000D03*
X133300000Y-133650000D03*
X133800000Y-133650000D03*
G36*
G01*
X137272500Y-90380000D02*
X136927500Y-90380000D01*
G75*
G02*
X136780000Y-90232500I0J147500D01*
G01*
X136780000Y-89937500D01*
G75*
G02*
X136927500Y-89790000I147500J0D01*
G01*
X137272500Y-89790000D01*
G75*
G02*
X137420000Y-89937500I0J-147500D01*
G01*
X137420000Y-90232500D01*
G75*
G02*
X137272500Y-90380000I-147500J0D01*
G01*
G37*
G36*
G01*
X137272500Y-89410000D02*
X136927500Y-89410000D01*
G75*
G02*
X136780000Y-89262500I0J147500D01*
G01*
X136780000Y-88967500D01*
G75*
G02*
X136927500Y-88820000I147500J0D01*
G01*
X137272500Y-88820000D01*
G75*
G02*
X137420000Y-88967500I0J-147500D01*
G01*
X137420000Y-89262500D01*
G75*
G02*
X137272500Y-89410000I-147500J0D01*
G01*
G37*
G36*
G01*
X116772500Y-129910000D02*
X116427500Y-129910000D01*
G75*
G02*
X116280000Y-129762500I0J147500D01*
G01*
X116280000Y-129467500D01*
G75*
G02*
X116427500Y-129320000I147500J0D01*
G01*
X116772500Y-129320000D01*
G75*
G02*
X116920000Y-129467500I0J-147500D01*
G01*
X116920000Y-129762500D01*
G75*
G02*
X116772500Y-129910000I-147500J0D01*
G01*
G37*
G36*
G01*
X116772500Y-130880000D02*
X116427500Y-130880000D01*
G75*
G02*
X116280000Y-130732500I0J147500D01*
G01*
X116280000Y-130437500D01*
G75*
G02*
X116427500Y-130290000I147500J0D01*
G01*
X116772500Y-130290000D01*
G75*
G02*
X116920000Y-130437500I0J-147500D01*
G01*
X116920000Y-130732500D01*
G75*
G02*
X116772500Y-130880000I-147500J0D01*
G01*
G37*
G36*
G01*
X138597500Y-140505000D02*
X138252500Y-140505000D01*
G75*
G02*
X138105000Y-140357500I0J147500D01*
G01*
X138105000Y-140062500D01*
G75*
G02*
X138252500Y-139915000I147500J0D01*
G01*
X138597500Y-139915000D01*
G75*
G02*
X138745000Y-140062500I0J-147500D01*
G01*
X138745000Y-140357500D01*
G75*
G02*
X138597500Y-140505000I-147500J0D01*
G01*
G37*
G36*
G01*
X138597500Y-139535000D02*
X138252500Y-139535000D01*
G75*
G02*
X138105000Y-139387500I0J147500D01*
G01*
X138105000Y-139092500D01*
G75*
G02*
X138252500Y-138945000I147500J0D01*
G01*
X138597500Y-138945000D01*
G75*
G02*
X138745000Y-139092500I0J-147500D01*
G01*
X138745000Y-139387500D01*
G75*
G02*
X138597500Y-139535000I-147500J0D01*
G01*
G37*
G36*
G01*
X137227500Y-114960000D02*
X137572500Y-114960000D01*
G75*
G02*
X137720000Y-115107500I0J-147500D01*
G01*
X137720000Y-115402500D01*
G75*
G02*
X137572500Y-115550000I-147500J0D01*
G01*
X137227500Y-115550000D01*
G75*
G02*
X137080000Y-115402500I0J147500D01*
G01*
X137080000Y-115107500D01*
G75*
G02*
X137227500Y-114960000I147500J0D01*
G01*
G37*
G36*
G01*
X137227500Y-113990000D02*
X137572500Y-113990000D01*
G75*
G02*
X137720000Y-114137500I0J-147500D01*
G01*
X137720000Y-114432500D01*
G75*
G02*
X137572500Y-114580000I-147500J0D01*
G01*
X137227500Y-114580000D01*
G75*
G02*
X137080000Y-114432500I0J147500D01*
G01*
X137080000Y-114137500D01*
G75*
G02*
X137227500Y-113990000I147500J0D01*
G01*
G37*
G36*
G01*
X119747500Y-116630000D02*
X119402500Y-116630000D01*
G75*
G02*
X119255000Y-116482500I0J147500D01*
G01*
X119255000Y-116187500D01*
G75*
G02*
X119402500Y-116040000I147500J0D01*
G01*
X119747500Y-116040000D01*
G75*
G02*
X119895000Y-116187500I0J-147500D01*
G01*
X119895000Y-116482500D01*
G75*
G02*
X119747500Y-116630000I-147500J0D01*
G01*
G37*
G36*
G01*
X119747500Y-115660000D02*
X119402500Y-115660000D01*
G75*
G02*
X119255000Y-115512500I0J147500D01*
G01*
X119255000Y-115217500D01*
G75*
G02*
X119402500Y-115070000I147500J0D01*
G01*
X119747500Y-115070000D01*
G75*
G02*
X119895000Y-115217500I0J-147500D01*
G01*
X119895000Y-115512500D01*
G75*
G02*
X119747500Y-115660000I-147500J0D01*
G01*
G37*
G36*
G01*
X139810000Y-130877500D02*
X139810000Y-131222500D01*
G75*
G02*
X139662500Y-131370000I-147500J0D01*
G01*
X139367500Y-131370000D01*
G75*
G02*
X139220000Y-131222500I0J147500D01*
G01*
X139220000Y-130877500D01*
G75*
G02*
X139367500Y-130730000I147500J0D01*
G01*
X139662500Y-130730000D01*
G75*
G02*
X139810000Y-130877500I0J-147500D01*
G01*
G37*
G36*
G01*
X140780000Y-130877500D02*
X140780000Y-131222500D01*
G75*
G02*
X140632500Y-131370000I-147500J0D01*
G01*
X140337500Y-131370000D01*
G75*
G02*
X140190000Y-131222500I0J147500D01*
G01*
X140190000Y-130877500D01*
G75*
G02*
X140337500Y-130730000I147500J0D01*
G01*
X140632500Y-130730000D01*
G75*
G02*
X140780000Y-130877500I0J-147500D01*
G01*
G37*
G36*
G01*
X167680000Y-151327500D02*
X167680000Y-151672500D01*
G75*
G02*
X167532500Y-151820000I-147500J0D01*
G01*
X167237500Y-151820000D01*
G75*
G02*
X167090000Y-151672500I0J147500D01*
G01*
X167090000Y-151327500D01*
G75*
G02*
X167237500Y-151180000I147500J0D01*
G01*
X167532500Y-151180000D01*
G75*
G02*
X167680000Y-151327500I0J-147500D01*
G01*
G37*
G36*
G01*
X166710000Y-151327500D02*
X166710000Y-151672500D01*
G75*
G02*
X166562500Y-151820000I-147500J0D01*
G01*
X166267500Y-151820000D01*
G75*
G02*
X166120000Y-151672500I0J147500D01*
G01*
X166120000Y-151327500D01*
G75*
G02*
X166267500Y-151180000I147500J0D01*
G01*
X166562500Y-151180000D01*
G75*
G02*
X166710000Y-151327500I0J-147500D01*
G01*
G37*
G36*
G01*
X157527500Y-150770000D02*
X157872500Y-150770000D01*
G75*
G02*
X158020000Y-150917500I0J-147500D01*
G01*
X158020000Y-151212500D01*
G75*
G02*
X157872500Y-151360000I-147500J0D01*
G01*
X157527500Y-151360000D01*
G75*
G02*
X157380000Y-151212500I0J147500D01*
G01*
X157380000Y-150917500D01*
G75*
G02*
X157527500Y-150770000I147500J0D01*
G01*
G37*
G36*
G01*
X157527500Y-151740000D02*
X157872500Y-151740000D01*
G75*
G02*
X158020000Y-151887500I0J-147500D01*
G01*
X158020000Y-152182500D01*
G75*
G02*
X157872500Y-152330000I-147500J0D01*
G01*
X157527500Y-152330000D01*
G75*
G02*
X157380000Y-152182500I0J147500D01*
G01*
X157380000Y-151887500D01*
G75*
G02*
X157527500Y-151740000I147500J0D01*
G01*
G37*
G36*
G01*
X160657500Y-150780000D02*
X161002500Y-150780000D01*
G75*
G02*
X161150000Y-150927500I0J-147500D01*
G01*
X161150000Y-151222500D01*
G75*
G02*
X161002500Y-151370000I-147500J0D01*
G01*
X160657500Y-151370000D01*
G75*
G02*
X160510000Y-151222500I0J147500D01*
G01*
X160510000Y-150927500D01*
G75*
G02*
X160657500Y-150780000I147500J0D01*
G01*
G37*
G36*
G01*
X160657500Y-151750000D02*
X161002500Y-151750000D01*
G75*
G02*
X161150000Y-151897500I0J-147500D01*
G01*
X161150000Y-152192500D01*
G75*
G02*
X161002500Y-152340000I-147500J0D01*
G01*
X160657500Y-152340000D01*
G75*
G02*
X160510000Y-152192500I0J147500D01*
G01*
X160510000Y-151897500D01*
G75*
G02*
X160657500Y-151750000I147500J0D01*
G01*
G37*
G36*
G01*
X119827500Y-137090000D02*
X120172500Y-137090000D01*
G75*
G02*
X120320000Y-137237500I0J-147500D01*
G01*
X120320000Y-137532500D01*
G75*
G02*
X120172500Y-137680000I-147500J0D01*
G01*
X119827500Y-137680000D01*
G75*
G02*
X119680000Y-137532500I0J147500D01*
G01*
X119680000Y-137237500D01*
G75*
G02*
X119827500Y-137090000I147500J0D01*
G01*
G37*
G36*
G01*
X119827500Y-136120000D02*
X120172500Y-136120000D01*
G75*
G02*
X120320000Y-136267500I0J-147500D01*
G01*
X120320000Y-136562500D01*
G75*
G02*
X120172500Y-136710000I-147500J0D01*
G01*
X119827500Y-136710000D01*
G75*
G02*
X119680000Y-136562500I0J147500D01*
G01*
X119680000Y-136267500D01*
G75*
G02*
X119827500Y-136120000I147500J0D01*
G01*
G37*
G36*
G01*
X173480000Y-83877500D02*
X173480000Y-84222500D01*
G75*
G02*
X173332500Y-84370000I-147500J0D01*
G01*
X173037500Y-84370000D01*
G75*
G02*
X172890000Y-84222500I0J147500D01*
G01*
X172890000Y-83877500D01*
G75*
G02*
X173037500Y-83730000I147500J0D01*
G01*
X173332500Y-83730000D01*
G75*
G02*
X173480000Y-83877500I0J-147500D01*
G01*
G37*
G36*
G01*
X172510000Y-83877500D02*
X172510000Y-84222500D01*
G75*
G02*
X172362500Y-84370000I-147500J0D01*
G01*
X172067500Y-84370000D01*
G75*
G02*
X171920000Y-84222500I0J147500D01*
G01*
X171920000Y-83877500D01*
G75*
G02*
X172067500Y-83730000I147500J0D01*
G01*
X172362500Y-83730000D01*
G75*
G02*
X172510000Y-83877500I0J-147500D01*
G01*
G37*
D25*
X128750000Y-75200000D03*
X128750000Y-69800000D03*
G36*
G01*
X142427500Y-135890000D02*
X142772500Y-135890000D01*
G75*
G02*
X142920000Y-136037500I0J-147500D01*
G01*
X142920000Y-136332500D01*
G75*
G02*
X142772500Y-136480000I-147500J0D01*
G01*
X142427500Y-136480000D01*
G75*
G02*
X142280000Y-136332500I0J147500D01*
G01*
X142280000Y-136037500D01*
G75*
G02*
X142427500Y-135890000I147500J0D01*
G01*
G37*
G36*
G01*
X142427500Y-134920000D02*
X142772500Y-134920000D01*
G75*
G02*
X142920000Y-135067500I0J-147500D01*
G01*
X142920000Y-135362500D01*
G75*
G02*
X142772500Y-135510000I-147500J0D01*
G01*
X142427500Y-135510000D01*
G75*
G02*
X142280000Y-135362500I0J147500D01*
G01*
X142280000Y-135067500D01*
G75*
G02*
X142427500Y-134920000I147500J0D01*
G01*
G37*
G36*
G01*
X143877500Y-73240000D02*
X144222500Y-73240000D01*
G75*
G02*
X144370000Y-73387500I0J-147500D01*
G01*
X144370000Y-73682500D01*
G75*
G02*
X144222500Y-73830000I-147500J0D01*
G01*
X143877500Y-73830000D01*
G75*
G02*
X143730000Y-73682500I0J147500D01*
G01*
X143730000Y-73387500D01*
G75*
G02*
X143877500Y-73240000I147500J0D01*
G01*
G37*
G36*
G01*
X143877500Y-72270000D02*
X144222500Y-72270000D01*
G75*
G02*
X144370000Y-72417500I0J-147500D01*
G01*
X144370000Y-72712500D01*
G75*
G02*
X144222500Y-72860000I-147500J0D01*
G01*
X143877500Y-72860000D01*
G75*
G02*
X143730000Y-72712500I0J147500D01*
G01*
X143730000Y-72417500D01*
G75*
G02*
X143877500Y-72270000I147500J0D01*
G01*
G37*
G36*
G01*
X144222500Y-75560000D02*
X143877500Y-75560000D01*
G75*
G02*
X143730000Y-75412500I0J147500D01*
G01*
X143730000Y-75117500D01*
G75*
G02*
X143877500Y-74970000I147500J0D01*
G01*
X144222500Y-74970000D01*
G75*
G02*
X144370000Y-75117500I0J-147500D01*
G01*
X144370000Y-75412500D01*
G75*
G02*
X144222500Y-75560000I-147500J0D01*
G01*
G37*
G36*
G01*
X144222500Y-76530000D02*
X143877500Y-76530000D01*
G75*
G02*
X143730000Y-76382500I0J147500D01*
G01*
X143730000Y-76087500D01*
G75*
G02*
X143877500Y-75940000I147500J0D01*
G01*
X144222500Y-75940000D01*
G75*
G02*
X144370000Y-76087500I0J-147500D01*
G01*
X144370000Y-76382500D01*
G75*
G02*
X144222500Y-76530000I-147500J0D01*
G01*
G37*
G36*
G01*
X143525000Y-88377500D02*
X143525000Y-88722500D01*
G75*
G02*
X143377500Y-88870000I-147500J0D01*
G01*
X143082500Y-88870000D01*
G75*
G02*
X142935000Y-88722500I0J147500D01*
G01*
X142935000Y-88377500D01*
G75*
G02*
X143082500Y-88230000I147500J0D01*
G01*
X143377500Y-88230000D01*
G75*
G02*
X143525000Y-88377500I0J-147500D01*
G01*
G37*
G36*
G01*
X144495000Y-88377500D02*
X144495000Y-88722500D01*
G75*
G02*
X144347500Y-88870000I-147500J0D01*
G01*
X144052500Y-88870000D01*
G75*
G02*
X143905000Y-88722500I0J147500D01*
G01*
X143905000Y-88377500D01*
G75*
G02*
X144052500Y-88230000I147500J0D01*
G01*
X144347500Y-88230000D01*
G75*
G02*
X144495000Y-88377500I0J-147500D01*
G01*
G37*
G36*
G01*
X153330000Y-77517500D02*
X153330000Y-77862500D01*
G75*
G02*
X153182500Y-78010000I-147500J0D01*
G01*
X152887500Y-78010000D01*
G75*
G02*
X152740000Y-77862500I0J147500D01*
G01*
X152740000Y-77517500D01*
G75*
G02*
X152887500Y-77370000I147500J0D01*
G01*
X153182500Y-77370000D01*
G75*
G02*
X153330000Y-77517500I0J-147500D01*
G01*
G37*
G36*
G01*
X152360000Y-77517500D02*
X152360000Y-77862500D01*
G75*
G02*
X152212500Y-78010000I-147500J0D01*
G01*
X151917500Y-78010000D01*
G75*
G02*
X151770000Y-77862500I0J147500D01*
G01*
X151770000Y-77517500D01*
G75*
G02*
X151917500Y-77370000I147500J0D01*
G01*
X152212500Y-77370000D01*
G75*
G02*
X152360000Y-77517500I0J-147500D01*
G01*
G37*
G36*
G01*
X157245000Y-76997500D02*
X157245000Y-76652500D01*
G75*
G02*
X157392500Y-76505000I147500J0D01*
G01*
X157687500Y-76505000D01*
G75*
G02*
X157835000Y-76652500I0J-147500D01*
G01*
X157835000Y-76997500D01*
G75*
G02*
X157687500Y-77145000I-147500J0D01*
G01*
X157392500Y-77145000D01*
G75*
G02*
X157245000Y-76997500I0J147500D01*
G01*
G37*
G36*
G01*
X158215000Y-76997500D02*
X158215000Y-76652500D01*
G75*
G02*
X158362500Y-76505000I147500J0D01*
G01*
X158657500Y-76505000D01*
G75*
G02*
X158805000Y-76652500I0J-147500D01*
G01*
X158805000Y-76997500D01*
G75*
G02*
X158657500Y-77145000I-147500J0D01*
G01*
X158362500Y-77145000D01*
G75*
G02*
X158215000Y-76997500I0J147500D01*
G01*
G37*
G36*
G01*
X149727500Y-77890000D02*
X150072500Y-77890000D01*
G75*
G02*
X150220000Y-78037500I0J-147500D01*
G01*
X150220000Y-78332500D01*
G75*
G02*
X150072500Y-78480000I-147500J0D01*
G01*
X149727500Y-78480000D01*
G75*
G02*
X149580000Y-78332500I0J147500D01*
G01*
X149580000Y-78037500D01*
G75*
G02*
X149727500Y-77890000I147500J0D01*
G01*
G37*
G36*
G01*
X149727500Y-76920000D02*
X150072500Y-76920000D01*
G75*
G02*
X150220000Y-77067500I0J-147500D01*
G01*
X150220000Y-77362500D01*
G75*
G02*
X150072500Y-77510000I-147500J0D01*
G01*
X149727500Y-77510000D01*
G75*
G02*
X149580000Y-77362500I0J147500D01*
G01*
X149580000Y-77067500D01*
G75*
G02*
X149727500Y-76920000I147500J0D01*
G01*
G37*
G36*
G01*
X155377500Y-75390000D02*
X155722500Y-75390000D01*
G75*
G02*
X155870000Y-75537500I0J-147500D01*
G01*
X155870000Y-75832500D01*
G75*
G02*
X155722500Y-75980000I-147500J0D01*
G01*
X155377500Y-75980000D01*
G75*
G02*
X155230000Y-75832500I0J147500D01*
G01*
X155230000Y-75537500D01*
G75*
G02*
X155377500Y-75390000I147500J0D01*
G01*
G37*
G36*
G01*
X155377500Y-74420000D02*
X155722500Y-74420000D01*
G75*
G02*
X155870000Y-74567500I0J-147500D01*
G01*
X155870000Y-74862500D01*
G75*
G02*
X155722500Y-75010000I-147500J0D01*
G01*
X155377500Y-75010000D01*
G75*
G02*
X155230000Y-74862500I0J147500D01*
G01*
X155230000Y-74567500D01*
G75*
G02*
X155377500Y-74420000I147500J0D01*
G01*
G37*
G36*
G01*
X154427500Y-74420000D02*
X154772500Y-74420000D01*
G75*
G02*
X154920000Y-74567500I0J-147500D01*
G01*
X154920000Y-74862500D01*
G75*
G02*
X154772500Y-75010000I-147500J0D01*
G01*
X154427500Y-75010000D01*
G75*
G02*
X154280000Y-74862500I0J147500D01*
G01*
X154280000Y-74567500D01*
G75*
G02*
X154427500Y-74420000I147500J0D01*
G01*
G37*
G36*
G01*
X154427500Y-75390000D02*
X154772500Y-75390000D01*
G75*
G02*
X154920000Y-75537500I0J-147500D01*
G01*
X154920000Y-75832500D01*
G75*
G02*
X154772500Y-75980000I-147500J0D01*
G01*
X154427500Y-75980000D01*
G75*
G02*
X154280000Y-75832500I0J147500D01*
G01*
X154280000Y-75537500D01*
G75*
G02*
X154427500Y-75390000I147500J0D01*
G01*
G37*
G36*
G01*
X150510000Y-71427500D02*
X150510000Y-71772500D01*
G75*
G02*
X150362500Y-71920000I-147500J0D01*
G01*
X150067500Y-71920000D01*
G75*
G02*
X149920000Y-71772500I0J147500D01*
G01*
X149920000Y-71427500D01*
G75*
G02*
X150067500Y-71280000I147500J0D01*
G01*
X150362500Y-71280000D01*
G75*
G02*
X150510000Y-71427500I0J-147500D01*
G01*
G37*
G36*
G01*
X151480000Y-71427500D02*
X151480000Y-71772500D01*
G75*
G02*
X151332500Y-71920000I-147500J0D01*
G01*
X151037500Y-71920000D01*
G75*
G02*
X150890000Y-71772500I0J147500D01*
G01*
X150890000Y-71427500D01*
G75*
G02*
X151037500Y-71280000I147500J0D01*
G01*
X151332500Y-71280000D01*
G75*
G02*
X151480000Y-71427500I0J-147500D01*
G01*
G37*
G36*
G01*
X151480000Y-72427500D02*
X151480000Y-72772500D01*
G75*
G02*
X151332500Y-72920000I-147500J0D01*
G01*
X151037500Y-72920000D01*
G75*
G02*
X150890000Y-72772500I0J147500D01*
G01*
X150890000Y-72427500D01*
G75*
G02*
X151037500Y-72280000I147500J0D01*
G01*
X151332500Y-72280000D01*
G75*
G02*
X151480000Y-72427500I0J-147500D01*
G01*
G37*
G36*
G01*
X150510000Y-72427500D02*
X150510000Y-72772500D01*
G75*
G02*
X150362500Y-72920000I-147500J0D01*
G01*
X150067500Y-72920000D01*
G75*
G02*
X149920000Y-72772500I0J147500D01*
G01*
X149920000Y-72427500D01*
G75*
G02*
X150067500Y-72280000I147500J0D01*
G01*
X150362500Y-72280000D01*
G75*
G02*
X150510000Y-72427500I0J-147500D01*
G01*
G37*
G36*
G01*
X150472500Y-68580000D02*
X150127500Y-68580000D01*
G75*
G02*
X149980000Y-68432500I0J147500D01*
G01*
X149980000Y-68137500D01*
G75*
G02*
X150127500Y-67990000I147500J0D01*
G01*
X150472500Y-67990000D01*
G75*
G02*
X150620000Y-68137500I0J-147500D01*
G01*
X150620000Y-68432500D01*
G75*
G02*
X150472500Y-68580000I-147500J0D01*
G01*
G37*
G36*
G01*
X150472500Y-67610000D02*
X150127500Y-67610000D01*
G75*
G02*
X149980000Y-67462500I0J147500D01*
G01*
X149980000Y-67167500D01*
G75*
G02*
X150127500Y-67020000I147500J0D01*
G01*
X150472500Y-67020000D01*
G75*
G02*
X150620000Y-67167500I0J-147500D01*
G01*
X150620000Y-67462500D01*
G75*
G02*
X150472500Y-67610000I-147500J0D01*
G01*
G37*
G36*
G01*
X158156250Y-66200000D02*
X157643750Y-66200000D01*
G75*
G02*
X157425000Y-65981250I0J218750D01*
G01*
X157425000Y-65543750D01*
G75*
G02*
X157643750Y-65325000I218750J0D01*
G01*
X158156250Y-65325000D01*
G75*
G02*
X158375000Y-65543750I0J-218750D01*
G01*
X158375000Y-65981250D01*
G75*
G02*
X158156250Y-66200000I-218750J0D01*
G01*
G37*
G36*
G01*
X158156250Y-67775000D02*
X157643750Y-67775000D01*
G75*
G02*
X157425000Y-67556250I0J218750D01*
G01*
X157425000Y-67118750D01*
G75*
G02*
X157643750Y-66900000I218750J0D01*
G01*
X158156250Y-66900000D01*
G75*
G02*
X158375000Y-67118750I0J-218750D01*
G01*
X158375000Y-67556250D01*
G75*
G02*
X158156250Y-67775000I-218750J0D01*
G01*
G37*
G36*
G01*
X160872500Y-67930000D02*
X160527500Y-67930000D01*
G75*
G02*
X160380000Y-67782500I0J147500D01*
G01*
X160380000Y-67487500D01*
G75*
G02*
X160527500Y-67340000I147500J0D01*
G01*
X160872500Y-67340000D01*
G75*
G02*
X161020000Y-67487500I0J-147500D01*
G01*
X161020000Y-67782500D01*
G75*
G02*
X160872500Y-67930000I-147500J0D01*
G01*
G37*
G36*
G01*
X160872500Y-66960000D02*
X160527500Y-66960000D01*
G75*
G02*
X160380000Y-66812500I0J147500D01*
G01*
X160380000Y-66517500D01*
G75*
G02*
X160527500Y-66370000I147500J0D01*
G01*
X160872500Y-66370000D01*
G75*
G02*
X161020000Y-66517500I0J-147500D01*
G01*
X161020000Y-66812500D01*
G75*
G02*
X160872500Y-66960000I-147500J0D01*
G01*
G37*
G36*
G01*
X161872500Y-66960000D02*
X161527500Y-66960000D01*
G75*
G02*
X161380000Y-66812500I0J147500D01*
G01*
X161380000Y-66517500D01*
G75*
G02*
X161527500Y-66370000I147500J0D01*
G01*
X161872500Y-66370000D01*
G75*
G02*
X162020000Y-66517500I0J-147500D01*
G01*
X162020000Y-66812500D01*
G75*
G02*
X161872500Y-66960000I-147500J0D01*
G01*
G37*
G36*
G01*
X161872500Y-67930000D02*
X161527500Y-67930000D01*
G75*
G02*
X161380000Y-67782500I0J147500D01*
G01*
X161380000Y-67487500D01*
G75*
G02*
X161527500Y-67340000I147500J0D01*
G01*
X161872500Y-67340000D01*
G75*
G02*
X162020000Y-67487500I0J-147500D01*
G01*
X162020000Y-67782500D01*
G75*
G02*
X161872500Y-67930000I-147500J0D01*
G01*
G37*
G36*
G01*
X173705000Y-71077500D02*
X173705000Y-71422500D01*
G75*
G02*
X173557500Y-71570000I-147500J0D01*
G01*
X173262500Y-71570000D01*
G75*
G02*
X173115000Y-71422500I0J147500D01*
G01*
X173115000Y-71077500D01*
G75*
G02*
X173262500Y-70930000I147500J0D01*
G01*
X173557500Y-70930000D01*
G75*
G02*
X173705000Y-71077500I0J-147500D01*
G01*
G37*
G36*
G01*
X172735000Y-71077500D02*
X172735000Y-71422500D01*
G75*
G02*
X172587500Y-71570000I-147500J0D01*
G01*
X172292500Y-71570000D01*
G75*
G02*
X172145000Y-71422500I0J147500D01*
G01*
X172145000Y-71077500D01*
G75*
G02*
X172292500Y-70930000I147500J0D01*
G01*
X172587500Y-70930000D01*
G75*
G02*
X172735000Y-71077500I0J-147500D01*
G01*
G37*
G36*
G01*
X140172500Y-61060000D02*
X139827500Y-61060000D01*
G75*
G02*
X139680000Y-60912500I0J147500D01*
G01*
X139680000Y-60617500D01*
G75*
G02*
X139827500Y-60470000I147500J0D01*
G01*
X140172500Y-60470000D01*
G75*
G02*
X140320000Y-60617500I0J-147500D01*
G01*
X140320000Y-60912500D01*
G75*
G02*
X140172500Y-61060000I-147500J0D01*
G01*
G37*
G36*
G01*
X140172500Y-62030000D02*
X139827500Y-62030000D01*
G75*
G02*
X139680000Y-61882500I0J147500D01*
G01*
X139680000Y-61587500D01*
G75*
G02*
X139827500Y-61440000I147500J0D01*
G01*
X140172500Y-61440000D01*
G75*
G02*
X140320000Y-61587500I0J-147500D01*
G01*
X140320000Y-61882500D01*
G75*
G02*
X140172500Y-62030000I-147500J0D01*
G01*
G37*
G36*
G01*
X174727500Y-71395000D02*
X175072500Y-71395000D01*
G75*
G02*
X175220000Y-71542500I0J-147500D01*
G01*
X175220000Y-71837500D01*
G75*
G02*
X175072500Y-71985000I-147500J0D01*
G01*
X174727500Y-71985000D01*
G75*
G02*
X174580000Y-71837500I0J147500D01*
G01*
X174580000Y-71542500D01*
G75*
G02*
X174727500Y-71395000I147500J0D01*
G01*
G37*
G36*
G01*
X174727500Y-72365000D02*
X175072500Y-72365000D01*
G75*
G02*
X175220000Y-72512500I0J-147500D01*
G01*
X175220000Y-72807500D01*
G75*
G02*
X175072500Y-72955000I-147500J0D01*
G01*
X174727500Y-72955000D01*
G75*
G02*
X174580000Y-72807500I0J147500D01*
G01*
X174580000Y-72512500D01*
G75*
G02*
X174727500Y-72365000I147500J0D01*
G01*
G37*
G36*
G01*
X139827500Y-63690000D02*
X140172500Y-63690000D01*
G75*
G02*
X140320000Y-63837500I0J-147500D01*
G01*
X140320000Y-64132500D01*
G75*
G02*
X140172500Y-64280000I-147500J0D01*
G01*
X139827500Y-64280000D01*
G75*
G02*
X139680000Y-64132500I0J147500D01*
G01*
X139680000Y-63837500D01*
G75*
G02*
X139827500Y-63690000I147500J0D01*
G01*
G37*
G36*
G01*
X139827500Y-62720000D02*
X140172500Y-62720000D01*
G75*
G02*
X140320000Y-62867500I0J-147500D01*
G01*
X140320000Y-63162500D01*
G75*
G02*
X140172500Y-63310000I-147500J0D01*
G01*
X139827500Y-63310000D01*
G75*
G02*
X139680000Y-63162500I0J147500D01*
G01*
X139680000Y-62867500D01*
G75*
G02*
X139827500Y-62720000I147500J0D01*
G01*
G37*
G36*
G01*
X157300000Y-78437500D02*
X157300000Y-77962500D01*
G75*
G02*
X157537500Y-77725000I237500J0D01*
G01*
X158112500Y-77725000D01*
G75*
G02*
X158350000Y-77962500I0J-237500D01*
G01*
X158350000Y-78437500D01*
G75*
G02*
X158112500Y-78675000I-237500J0D01*
G01*
X157537500Y-78675000D01*
G75*
G02*
X157300000Y-78437500I0J237500D01*
G01*
G37*
G36*
G01*
X159050000Y-78437500D02*
X159050000Y-77962500D01*
G75*
G02*
X159287500Y-77725000I237500J0D01*
G01*
X159862500Y-77725000D01*
G75*
G02*
X160100000Y-77962500I0J-237500D01*
G01*
X160100000Y-78437500D01*
G75*
G02*
X159862500Y-78675000I-237500J0D01*
G01*
X159287500Y-78675000D01*
G75*
G02*
X159050000Y-78437500I0J237500D01*
G01*
G37*
G36*
G01*
X152000000Y-78887500D02*
X152000000Y-79362500D01*
G75*
G02*
X151762500Y-79600000I-237500J0D01*
G01*
X151187500Y-79600000D01*
G75*
G02*
X150950000Y-79362500I0J237500D01*
G01*
X150950000Y-78887500D01*
G75*
G02*
X151187500Y-78650000I237500J0D01*
G01*
X151762500Y-78650000D01*
G75*
G02*
X152000000Y-78887500I0J-237500D01*
G01*
G37*
G36*
G01*
X153750000Y-78887500D02*
X153750000Y-79362500D01*
G75*
G02*
X153512500Y-79600000I-237500J0D01*
G01*
X152937500Y-79600000D01*
G75*
G02*
X152700000Y-79362500I0J237500D01*
G01*
X152700000Y-78887500D01*
G75*
G02*
X152937500Y-78650000I237500J0D01*
G01*
X153512500Y-78650000D01*
G75*
G02*
X153750000Y-78887500I0J-237500D01*
G01*
G37*
G36*
G01*
X176062500Y-70825000D02*
X176537500Y-70825000D01*
G75*
G02*
X176775000Y-71062500I0J-237500D01*
G01*
X176775000Y-71637500D01*
G75*
G02*
X176537500Y-71875000I-237500J0D01*
G01*
X176062500Y-71875000D01*
G75*
G02*
X175825000Y-71637500I0J237500D01*
G01*
X175825000Y-71062500D01*
G75*
G02*
X176062500Y-70825000I237500J0D01*
G01*
G37*
G36*
G01*
X176062500Y-72575000D02*
X176537500Y-72575000D01*
G75*
G02*
X176775000Y-72812500I0J-237500D01*
G01*
X176775000Y-73387500D01*
G75*
G02*
X176537500Y-73625000I-237500J0D01*
G01*
X176062500Y-73625000D01*
G75*
G02*
X175825000Y-73387500I0J237500D01*
G01*
X175825000Y-72812500D01*
G75*
G02*
X176062500Y-72575000I237500J0D01*
G01*
G37*
G36*
G01*
X177787500Y-72625000D02*
X178262500Y-72625000D01*
G75*
G02*
X178500000Y-72862500I0J-237500D01*
G01*
X178500000Y-73437500D01*
G75*
G02*
X178262500Y-73675000I-237500J0D01*
G01*
X177787500Y-73675000D01*
G75*
G02*
X177550000Y-73437500I0J237500D01*
G01*
X177550000Y-72862500D01*
G75*
G02*
X177787500Y-72625000I237500J0D01*
G01*
G37*
G36*
G01*
X177787500Y-70875000D02*
X178262500Y-70875000D01*
G75*
G02*
X178500000Y-71112500I0J-237500D01*
G01*
X178500000Y-71687500D01*
G75*
G02*
X178262500Y-71925000I-237500J0D01*
G01*
X177787500Y-71925000D01*
G75*
G02*
X177550000Y-71687500I0J237500D01*
G01*
X177550000Y-71112500D01*
G75*
G02*
X177787500Y-70875000I237500J0D01*
G01*
G37*
G36*
G01*
X167529422Y-75575374D02*
X167297949Y-75931809D01*
G75*
G02*
X167003996Y-75994290I-178217J115736D01*
G01*
X166333060Y-75558579D01*
G75*
G02*
X166270579Y-75264626I115736J178217D01*
G01*
X166502051Y-74908191D01*
G75*
G02*
X166796004Y-74845710I178217J-115736D01*
G01*
X167466940Y-75281421D01*
G75*
G02*
X167529421Y-75575374I-115736J-178217D01*
G01*
G37*
G36*
G01*
X166166582Y-74690336D02*
X165935109Y-75046771D01*
G75*
G02*
X165641156Y-75109252I-178217J115736D01*
G01*
X164970220Y-74673541D01*
G75*
G02*
X164907739Y-74379588I115736J178217D01*
G01*
X165139211Y-74023153D01*
G75*
G02*
X165433164Y-73960672I178217J-115736D01*
G01*
X166104100Y-74396383D01*
G75*
G02*
X166166581Y-74690336I-115736J-178217D01*
G01*
G37*
G36*
G01*
X173111430Y-80836791D02*
X172795593Y-81121171D01*
G75*
G02*
X172495485Y-81105443I-142190J157918D01*
G01*
X171960180Y-80510927D01*
G75*
G02*
X171975908Y-80210819I157918J142190D01*
G01*
X172291745Y-79926439D01*
G75*
G02*
X172591853Y-79942167I142190J-157918D01*
G01*
X173127158Y-80536683D01*
G75*
G02*
X173111430Y-80836791I-157918J-142190D01*
G01*
G37*
G36*
G01*
X172024092Y-79629181D02*
X171708255Y-79913561D01*
G75*
G02*
X171408147Y-79897833I-142190J157918D01*
G01*
X170872842Y-79303317D01*
G75*
G02*
X170888570Y-79003209I157918J142190D01*
G01*
X171204407Y-78718829D01*
G75*
G02*
X171504515Y-78734557I142190J-157918D01*
G01*
X172039820Y-79329073D01*
G75*
G02*
X172024092Y-79629181I-157918J-142190D01*
G01*
G37*
G36*
G01*
X155377500Y-77440000D02*
X155722500Y-77440000D01*
G75*
G02*
X155870000Y-77587500I0J-147500D01*
G01*
X155870000Y-77882500D01*
G75*
G02*
X155722500Y-78030000I-147500J0D01*
G01*
X155377500Y-78030000D01*
G75*
G02*
X155230000Y-77882500I0J147500D01*
G01*
X155230000Y-77587500D01*
G75*
G02*
X155377500Y-77440000I147500J0D01*
G01*
G37*
G36*
G01*
X155377500Y-76470000D02*
X155722500Y-76470000D01*
G75*
G02*
X155870000Y-76617500I0J-147500D01*
G01*
X155870000Y-76912500D01*
G75*
G02*
X155722500Y-77060000I-147500J0D01*
G01*
X155377500Y-77060000D01*
G75*
G02*
X155230000Y-76912500I0J147500D01*
G01*
X155230000Y-76617500D01*
G75*
G02*
X155377500Y-76470000I147500J0D01*
G01*
G37*
G36*
G01*
X154427500Y-76470000D02*
X154772500Y-76470000D01*
G75*
G02*
X154920000Y-76617500I0J-147500D01*
G01*
X154920000Y-76912500D01*
G75*
G02*
X154772500Y-77060000I-147500J0D01*
G01*
X154427500Y-77060000D01*
G75*
G02*
X154280000Y-76912500I0J147500D01*
G01*
X154280000Y-76617500D01*
G75*
G02*
X154427500Y-76470000I147500J0D01*
G01*
G37*
G36*
G01*
X154427500Y-77440000D02*
X154772500Y-77440000D01*
G75*
G02*
X154920000Y-77587500I0J-147500D01*
G01*
X154920000Y-77882500D01*
G75*
G02*
X154772500Y-78030000I-147500J0D01*
G01*
X154427500Y-78030000D01*
G75*
G02*
X154280000Y-77882500I0J147500D01*
G01*
X154280000Y-77587500D01*
G75*
G02*
X154427500Y-77440000I147500J0D01*
G01*
G37*
G36*
G01*
X166970000Y-67302500D02*
X166970000Y-67647500D01*
G75*
G02*
X166822500Y-67795000I-147500J0D01*
G01*
X166527500Y-67795000D01*
G75*
G02*
X166380000Y-67647500I0J147500D01*
G01*
X166380000Y-67302500D01*
G75*
G02*
X166527500Y-67155000I147500J0D01*
G01*
X166822500Y-67155000D01*
G75*
G02*
X166970000Y-67302500I0J-147500D01*
G01*
G37*
G36*
G01*
X166000000Y-67302500D02*
X166000000Y-67647500D01*
G75*
G02*
X165852500Y-67795000I-147500J0D01*
G01*
X165557500Y-67795000D01*
G75*
G02*
X165410000Y-67647500I0J147500D01*
G01*
X165410000Y-67302500D01*
G75*
G02*
X165557500Y-67155000I147500J0D01*
G01*
X165852500Y-67155000D01*
G75*
G02*
X166000000Y-67302500I0J-147500D01*
G01*
G37*
G36*
G01*
X153090000Y-67572500D02*
X153090000Y-67227500D01*
G75*
G02*
X153237500Y-67080000I147500J0D01*
G01*
X153532500Y-67080000D01*
G75*
G02*
X153680000Y-67227500I0J-147500D01*
G01*
X153680000Y-67572500D01*
G75*
G02*
X153532500Y-67720000I-147500J0D01*
G01*
X153237500Y-67720000D01*
G75*
G02*
X153090000Y-67572500I0J147500D01*
G01*
G37*
G36*
G01*
X152120000Y-67572500D02*
X152120000Y-67227500D01*
G75*
G02*
X152267500Y-67080000I147500J0D01*
G01*
X152562500Y-67080000D01*
G75*
G02*
X152710000Y-67227500I0J-147500D01*
G01*
X152710000Y-67572500D01*
G75*
G02*
X152562500Y-67720000I-147500J0D01*
G01*
X152267500Y-67720000D01*
G75*
G02*
X152120000Y-67572500I0J147500D01*
G01*
G37*
G36*
G01*
X117872500Y-129910000D02*
X117527500Y-129910000D01*
G75*
G02*
X117380000Y-129762500I0J147500D01*
G01*
X117380000Y-129467500D01*
G75*
G02*
X117527500Y-129320000I147500J0D01*
G01*
X117872500Y-129320000D01*
G75*
G02*
X118020000Y-129467500I0J-147500D01*
G01*
X118020000Y-129762500D01*
G75*
G02*
X117872500Y-129910000I-147500J0D01*
G01*
G37*
G36*
G01*
X117872500Y-130880000D02*
X117527500Y-130880000D01*
G75*
G02*
X117380000Y-130732500I0J147500D01*
G01*
X117380000Y-130437500D01*
G75*
G02*
X117527500Y-130290000I147500J0D01*
G01*
X117872500Y-130290000D01*
G75*
G02*
X118020000Y-130437500I0J-147500D01*
G01*
X118020000Y-130732500D01*
G75*
G02*
X117872500Y-130880000I-147500J0D01*
G01*
G37*
G36*
G01*
X161697500Y-150780000D02*
X162042500Y-150780000D01*
G75*
G02*
X162190000Y-150927500I0J-147500D01*
G01*
X162190000Y-151222500D01*
G75*
G02*
X162042500Y-151370000I-147500J0D01*
G01*
X161697500Y-151370000D01*
G75*
G02*
X161550000Y-151222500I0J147500D01*
G01*
X161550000Y-150927500D01*
G75*
G02*
X161697500Y-150780000I147500J0D01*
G01*
G37*
G36*
G01*
X161697500Y-151750000D02*
X162042500Y-151750000D01*
G75*
G02*
X162190000Y-151897500I0J-147500D01*
G01*
X162190000Y-152192500D01*
G75*
G02*
X162042500Y-152340000I-147500J0D01*
G01*
X161697500Y-152340000D01*
G75*
G02*
X161550000Y-152192500I0J147500D01*
G01*
X161550000Y-151897500D01*
G75*
G02*
X161697500Y-151750000I147500J0D01*
G01*
G37*
G36*
G01*
X157660000Y-146727500D02*
X157660000Y-147072500D01*
G75*
G02*
X157512500Y-147220000I-147500J0D01*
G01*
X157217500Y-147220000D01*
G75*
G02*
X157070000Y-147072500I0J147500D01*
G01*
X157070000Y-146727500D01*
G75*
G02*
X157217500Y-146580000I147500J0D01*
G01*
X157512500Y-146580000D01*
G75*
G02*
X157660000Y-146727500I0J-147500D01*
G01*
G37*
G36*
G01*
X158630000Y-146727500D02*
X158630000Y-147072500D01*
G75*
G02*
X158482500Y-147220000I-147500J0D01*
G01*
X158187500Y-147220000D01*
G75*
G02*
X158040000Y-147072500I0J147500D01*
G01*
X158040000Y-146727500D01*
G75*
G02*
X158187500Y-146580000I147500J0D01*
G01*
X158482500Y-146580000D01*
G75*
G02*
X158630000Y-146727500I0J-147500D01*
G01*
G37*
G36*
G01*
X159972500Y-151345000D02*
X159627500Y-151345000D01*
G75*
G02*
X159480000Y-151197500I0J147500D01*
G01*
X159480000Y-150902500D01*
G75*
G02*
X159627500Y-150755000I147500J0D01*
G01*
X159972500Y-150755000D01*
G75*
G02*
X160120000Y-150902500I0J-147500D01*
G01*
X160120000Y-151197500D01*
G75*
G02*
X159972500Y-151345000I-147500J0D01*
G01*
G37*
G36*
G01*
X159972500Y-152315000D02*
X159627500Y-152315000D01*
G75*
G02*
X159480000Y-152167500I0J147500D01*
G01*
X159480000Y-151872500D01*
G75*
G02*
X159627500Y-151725000I147500J0D01*
G01*
X159972500Y-151725000D01*
G75*
G02*
X160120000Y-151872500I0J-147500D01*
G01*
X160120000Y-152167500D01*
G75*
G02*
X159972500Y-152315000I-147500J0D01*
G01*
G37*
G36*
G01*
X158922500Y-152330000D02*
X158577500Y-152330000D01*
G75*
G02*
X158430000Y-152182500I0J147500D01*
G01*
X158430000Y-151887500D01*
G75*
G02*
X158577500Y-151740000I147500J0D01*
G01*
X158922500Y-151740000D01*
G75*
G02*
X159070000Y-151887500I0J-147500D01*
G01*
X159070000Y-152182500D01*
G75*
G02*
X158922500Y-152330000I-147500J0D01*
G01*
G37*
G36*
G01*
X158922500Y-151360000D02*
X158577500Y-151360000D01*
G75*
G02*
X158430000Y-151212500I0J147500D01*
G01*
X158430000Y-150917500D01*
G75*
G02*
X158577500Y-150770000I147500J0D01*
G01*
X158922500Y-150770000D01*
G75*
G02*
X159070000Y-150917500I0J-147500D01*
G01*
X159070000Y-151212500D01*
G75*
G02*
X158922500Y-151360000I-147500J0D01*
G01*
G37*
G36*
G01*
X133572500Y-137080000D02*
X133227500Y-137080000D01*
G75*
G02*
X133080000Y-136932500I0J147500D01*
G01*
X133080000Y-136637500D01*
G75*
G02*
X133227500Y-136490000I147500J0D01*
G01*
X133572500Y-136490000D01*
G75*
G02*
X133720000Y-136637500I0J-147500D01*
G01*
X133720000Y-136932500D01*
G75*
G02*
X133572500Y-137080000I-147500J0D01*
G01*
G37*
G36*
G01*
X133572500Y-136110000D02*
X133227500Y-136110000D01*
G75*
G02*
X133080000Y-135962500I0J147500D01*
G01*
X133080000Y-135667500D01*
G75*
G02*
X133227500Y-135520000I147500J0D01*
G01*
X133572500Y-135520000D01*
G75*
G02*
X133720000Y-135667500I0J-147500D01*
G01*
X133720000Y-135962500D01*
G75*
G02*
X133572500Y-136110000I-147500J0D01*
G01*
G37*
G36*
G01*
X132280000Y-135827500D02*
X132280000Y-136172500D01*
G75*
G02*
X132132500Y-136320000I-147500J0D01*
G01*
X131837500Y-136320000D01*
G75*
G02*
X131690000Y-136172500I0J147500D01*
G01*
X131690000Y-135827500D01*
G75*
G02*
X131837500Y-135680000I147500J0D01*
G01*
X132132500Y-135680000D01*
G75*
G02*
X132280000Y-135827500I0J-147500D01*
G01*
G37*
G36*
G01*
X131310000Y-135827500D02*
X131310000Y-136172500D01*
G75*
G02*
X131162500Y-136320000I-147500J0D01*
G01*
X130867500Y-136320000D01*
G75*
G02*
X130720000Y-136172500I0J147500D01*
G01*
X130720000Y-135827500D01*
G75*
G02*
X130867500Y-135680000I147500J0D01*
G01*
X131162500Y-135680000D01*
G75*
G02*
X131310000Y-135827500I0J-147500D01*
G01*
G37*
G36*
G01*
X168772500Y-88910000D02*
X168427500Y-88910000D01*
G75*
G02*
X168280000Y-88762500I0J147500D01*
G01*
X168280000Y-88467500D01*
G75*
G02*
X168427500Y-88320000I147500J0D01*
G01*
X168772500Y-88320000D01*
G75*
G02*
X168920000Y-88467500I0J-147500D01*
G01*
X168920000Y-88762500D01*
G75*
G02*
X168772500Y-88910000I-147500J0D01*
G01*
G37*
G36*
G01*
X168772500Y-89880000D02*
X168427500Y-89880000D01*
G75*
G02*
X168280000Y-89732500I0J147500D01*
G01*
X168280000Y-89437500D01*
G75*
G02*
X168427500Y-89290000I147500J0D01*
G01*
X168772500Y-89290000D01*
G75*
G02*
X168920000Y-89437500I0J-147500D01*
G01*
X168920000Y-89732500D01*
G75*
G02*
X168772500Y-89880000I-147500J0D01*
G01*
G37*
G36*
G01*
X173480000Y-85077500D02*
X173480000Y-85422500D01*
G75*
G02*
X173332500Y-85570000I-147500J0D01*
G01*
X173037500Y-85570000D01*
G75*
G02*
X172890000Y-85422500I0J147500D01*
G01*
X172890000Y-85077500D01*
G75*
G02*
X173037500Y-84930000I147500J0D01*
G01*
X173332500Y-84930000D01*
G75*
G02*
X173480000Y-85077500I0J-147500D01*
G01*
G37*
G36*
G01*
X172510000Y-85077500D02*
X172510000Y-85422500D01*
G75*
G02*
X172362500Y-85570000I-147500J0D01*
G01*
X172067500Y-85570000D01*
G75*
G02*
X171920000Y-85422500I0J147500D01*
G01*
X171920000Y-85077500D01*
G75*
G02*
X172067500Y-84930000I147500J0D01*
G01*
X172362500Y-84930000D01*
G75*
G02*
X172510000Y-85077500I0J-147500D01*
G01*
G37*
G36*
G01*
X173630000Y-87877500D02*
X173630000Y-88222500D01*
G75*
G02*
X173482500Y-88370000I-147500J0D01*
G01*
X173187500Y-88370000D01*
G75*
G02*
X173040000Y-88222500I0J147500D01*
G01*
X173040000Y-87877500D01*
G75*
G02*
X173187500Y-87730000I147500J0D01*
G01*
X173482500Y-87730000D01*
G75*
G02*
X173630000Y-87877500I0J-147500D01*
G01*
G37*
G36*
G01*
X172660000Y-87877500D02*
X172660000Y-88222500D01*
G75*
G02*
X172512500Y-88370000I-147500J0D01*
G01*
X172217500Y-88370000D01*
G75*
G02*
X172070000Y-88222500I0J147500D01*
G01*
X172070000Y-87877500D01*
G75*
G02*
X172217500Y-87730000I147500J0D01*
G01*
X172512500Y-87730000D01*
G75*
G02*
X172660000Y-87877500I0J-147500D01*
G01*
G37*
G36*
G01*
X172997500Y-95655000D02*
X172652500Y-95655000D01*
G75*
G02*
X172505000Y-95507500I0J147500D01*
G01*
X172505000Y-95212500D01*
G75*
G02*
X172652500Y-95065000I147500J0D01*
G01*
X172997500Y-95065000D01*
G75*
G02*
X173145000Y-95212500I0J-147500D01*
G01*
X173145000Y-95507500D01*
G75*
G02*
X172997500Y-95655000I-147500J0D01*
G01*
G37*
G36*
G01*
X172997500Y-94685000D02*
X172652500Y-94685000D01*
G75*
G02*
X172505000Y-94537500I0J147500D01*
G01*
X172505000Y-94242500D01*
G75*
G02*
X172652500Y-94095000I147500J0D01*
G01*
X172997500Y-94095000D01*
G75*
G02*
X173145000Y-94242500I0J-147500D01*
G01*
X173145000Y-94537500D01*
G75*
G02*
X172997500Y-94685000I-147500J0D01*
G01*
G37*
G36*
G01*
X144995000Y-135327500D02*
X144995000Y-135672500D01*
G75*
G02*
X144847500Y-135820000I-147500J0D01*
G01*
X144552500Y-135820000D01*
G75*
G02*
X144405000Y-135672500I0J147500D01*
G01*
X144405000Y-135327500D01*
G75*
G02*
X144552500Y-135180000I147500J0D01*
G01*
X144847500Y-135180000D01*
G75*
G02*
X144995000Y-135327500I0J-147500D01*
G01*
G37*
G36*
G01*
X144025000Y-135327500D02*
X144025000Y-135672500D01*
G75*
G02*
X143877500Y-135820000I-147500J0D01*
G01*
X143582500Y-135820000D01*
G75*
G02*
X143435000Y-135672500I0J147500D01*
G01*
X143435000Y-135327500D01*
G75*
G02*
X143582500Y-135180000I147500J0D01*
G01*
X143877500Y-135180000D01*
G75*
G02*
X144025000Y-135327500I0J-147500D01*
G01*
G37*
G36*
G01*
X118220000Y-70117500D02*
X118220000Y-69772500D01*
G75*
G02*
X118367500Y-69625000I147500J0D01*
G01*
X118662500Y-69625000D01*
G75*
G02*
X118810000Y-69772500I0J-147500D01*
G01*
X118810000Y-70117500D01*
G75*
G02*
X118662500Y-70265000I-147500J0D01*
G01*
X118367500Y-70265000D01*
G75*
G02*
X118220000Y-70117500I0J147500D01*
G01*
G37*
G36*
G01*
X119190000Y-70117500D02*
X119190000Y-69772500D01*
G75*
G02*
X119337500Y-69625000I147500J0D01*
G01*
X119632500Y-69625000D01*
G75*
G02*
X119780000Y-69772500I0J-147500D01*
G01*
X119780000Y-70117500D01*
G75*
G02*
X119632500Y-70265000I-147500J0D01*
G01*
X119337500Y-70265000D01*
G75*
G02*
X119190000Y-70117500I0J147500D01*
G01*
G37*
G36*
G01*
X146572500Y-72600000D02*
X146227500Y-72600000D01*
G75*
G02*
X146080000Y-72452500I0J147500D01*
G01*
X146080000Y-72157500D01*
G75*
G02*
X146227500Y-72010000I147500J0D01*
G01*
X146572500Y-72010000D01*
G75*
G02*
X146720000Y-72157500I0J-147500D01*
G01*
X146720000Y-72452500D01*
G75*
G02*
X146572500Y-72600000I-147500J0D01*
G01*
G37*
G36*
G01*
X146572500Y-71630000D02*
X146227500Y-71630000D01*
G75*
G02*
X146080000Y-71482500I0J147500D01*
G01*
X146080000Y-71187500D01*
G75*
G02*
X146227500Y-71040000I147500J0D01*
G01*
X146572500Y-71040000D01*
G75*
G02*
X146720000Y-71187500I0J-147500D01*
G01*
X146720000Y-71482500D01*
G75*
G02*
X146572500Y-71630000I-147500J0D01*
G01*
G37*
G36*
G01*
X157772500Y-75980000D02*
X157427500Y-75980000D01*
G75*
G02*
X157280000Y-75832500I0J147500D01*
G01*
X157280000Y-75537500D01*
G75*
G02*
X157427500Y-75390000I147500J0D01*
G01*
X157772500Y-75390000D01*
G75*
G02*
X157920000Y-75537500I0J-147500D01*
G01*
X157920000Y-75832500D01*
G75*
G02*
X157772500Y-75980000I-147500J0D01*
G01*
G37*
G36*
G01*
X157772500Y-75010000D02*
X157427500Y-75010000D01*
G75*
G02*
X157280000Y-74862500I0J147500D01*
G01*
X157280000Y-74567500D01*
G75*
G02*
X157427500Y-74420000I147500J0D01*
G01*
X157772500Y-74420000D01*
G75*
G02*
X157920000Y-74567500I0J-147500D01*
G01*
X157920000Y-74862500D01*
G75*
G02*
X157772500Y-75010000I-147500J0D01*
G01*
G37*
G36*
G01*
X153090000Y-66572500D02*
X153090000Y-66227500D01*
G75*
G02*
X153237500Y-66080000I147500J0D01*
G01*
X153532500Y-66080000D01*
G75*
G02*
X153680000Y-66227500I0J-147500D01*
G01*
X153680000Y-66572500D01*
G75*
G02*
X153532500Y-66720000I-147500J0D01*
G01*
X153237500Y-66720000D01*
G75*
G02*
X153090000Y-66572500I0J147500D01*
G01*
G37*
G36*
G01*
X152120000Y-66572500D02*
X152120000Y-66227500D01*
G75*
G02*
X152267500Y-66080000I147500J0D01*
G01*
X152562500Y-66080000D01*
G75*
G02*
X152710000Y-66227500I0J-147500D01*
G01*
X152710000Y-66572500D01*
G75*
G02*
X152562500Y-66720000I-147500J0D01*
G01*
X152267500Y-66720000D01*
G75*
G02*
X152120000Y-66572500I0J147500D01*
G01*
G37*
G36*
G01*
X155072500Y-66705000D02*
X154727500Y-66705000D01*
G75*
G02*
X154580000Y-66557500I0J147500D01*
G01*
X154580000Y-66262500D01*
G75*
G02*
X154727500Y-66115000I147500J0D01*
G01*
X155072500Y-66115000D01*
G75*
G02*
X155220000Y-66262500I0J-147500D01*
G01*
X155220000Y-66557500D01*
G75*
G02*
X155072500Y-66705000I-147500J0D01*
G01*
G37*
G36*
G01*
X155072500Y-65735000D02*
X154727500Y-65735000D01*
G75*
G02*
X154580000Y-65587500I0J147500D01*
G01*
X154580000Y-65292500D01*
G75*
G02*
X154727500Y-65145000I147500J0D01*
G01*
X155072500Y-65145000D01*
G75*
G02*
X155220000Y-65292500I0J-147500D01*
G01*
X155220000Y-65587500D01*
G75*
G02*
X155072500Y-65735000I-147500J0D01*
G01*
G37*
G36*
G01*
X152772500Y-75980000D02*
X152427500Y-75980000D01*
G75*
G02*
X152280000Y-75832500I0J147500D01*
G01*
X152280000Y-75537500D01*
G75*
G02*
X152427500Y-75390000I147500J0D01*
G01*
X152772500Y-75390000D01*
G75*
G02*
X152920000Y-75537500I0J-147500D01*
G01*
X152920000Y-75832500D01*
G75*
G02*
X152772500Y-75980000I-147500J0D01*
G01*
G37*
G36*
G01*
X152772500Y-75010000D02*
X152427500Y-75010000D01*
G75*
G02*
X152280000Y-74862500I0J147500D01*
G01*
X152280000Y-74567500D01*
G75*
G02*
X152427500Y-74420000I147500J0D01*
G01*
X152772500Y-74420000D01*
G75*
G02*
X152920000Y-74567500I0J-147500D01*
G01*
X152920000Y-74862500D01*
G75*
G02*
X152772500Y-75010000I-147500J0D01*
G01*
G37*
G36*
G01*
X159110000Y-72977500D02*
X159110000Y-73322500D01*
G75*
G02*
X158962500Y-73470000I-147500J0D01*
G01*
X158667500Y-73470000D01*
G75*
G02*
X158520000Y-73322500I0J147500D01*
G01*
X158520000Y-72977500D01*
G75*
G02*
X158667500Y-72830000I147500J0D01*
G01*
X158962500Y-72830000D01*
G75*
G02*
X159110000Y-72977500I0J-147500D01*
G01*
G37*
G36*
G01*
X160080000Y-72977500D02*
X160080000Y-73322500D01*
G75*
G02*
X159932500Y-73470000I-147500J0D01*
G01*
X159637500Y-73470000D01*
G75*
G02*
X159490000Y-73322500I0J147500D01*
G01*
X159490000Y-72977500D01*
G75*
G02*
X159637500Y-72830000I147500J0D01*
G01*
X159932500Y-72830000D01*
G75*
G02*
X160080000Y-72977500I0J-147500D01*
G01*
G37*
G36*
G01*
X164830000Y-75852500D02*
X164830000Y-76197500D01*
G75*
G02*
X164682500Y-76345000I-147500J0D01*
G01*
X164387500Y-76345000D01*
G75*
G02*
X164240000Y-76197500I0J147500D01*
G01*
X164240000Y-75852500D01*
G75*
G02*
X164387500Y-75705000I147500J0D01*
G01*
X164682500Y-75705000D01*
G75*
G02*
X164830000Y-75852500I0J-147500D01*
G01*
G37*
G36*
G01*
X163860000Y-75852500D02*
X163860000Y-76197500D01*
G75*
G02*
X163712500Y-76345000I-147500J0D01*
G01*
X163417500Y-76345000D01*
G75*
G02*
X163270000Y-76197500I0J147500D01*
G01*
X163270000Y-75852500D01*
G75*
G02*
X163417500Y-75705000I147500J0D01*
G01*
X163712500Y-75705000D01*
G75*
G02*
X163860000Y-75852500I0J-147500D01*
G01*
G37*
G36*
G01*
X169310000Y-80602500D02*
X169310000Y-80947500D01*
G75*
G02*
X169162500Y-81095000I-147500J0D01*
G01*
X168867500Y-81095000D01*
G75*
G02*
X168720000Y-80947500I0J147500D01*
G01*
X168720000Y-80602500D01*
G75*
G02*
X168867500Y-80455000I147500J0D01*
G01*
X169162500Y-80455000D01*
G75*
G02*
X169310000Y-80602500I0J-147500D01*
G01*
G37*
G36*
G01*
X170280000Y-80602500D02*
X170280000Y-80947500D01*
G75*
G02*
X170132500Y-81095000I-147500J0D01*
G01*
X169837500Y-81095000D01*
G75*
G02*
X169690000Y-80947500I0J147500D01*
G01*
X169690000Y-80602500D01*
G75*
G02*
X169837500Y-80455000I147500J0D01*
G01*
X170132500Y-80455000D01*
G75*
G02*
X170280000Y-80602500I0J-147500D01*
G01*
G37*
G36*
G01*
X178627500Y-110640000D02*
X178972500Y-110640000D01*
G75*
G02*
X179120000Y-110787500I0J-147500D01*
G01*
X179120000Y-111082500D01*
G75*
G02*
X178972500Y-111230000I-147500J0D01*
G01*
X178627500Y-111230000D01*
G75*
G02*
X178480000Y-111082500I0J147500D01*
G01*
X178480000Y-110787500D01*
G75*
G02*
X178627500Y-110640000I147500J0D01*
G01*
G37*
G36*
G01*
X178627500Y-109670000D02*
X178972500Y-109670000D01*
G75*
G02*
X179120000Y-109817500I0J-147500D01*
G01*
X179120000Y-110112500D01*
G75*
G02*
X178972500Y-110260000I-147500J0D01*
G01*
X178627500Y-110260000D01*
G75*
G02*
X178480000Y-110112500I0J147500D01*
G01*
X178480000Y-109817500D01*
G75*
G02*
X178627500Y-109670000I147500J0D01*
G01*
G37*
G36*
G01*
X178627500Y-108190000D02*
X178972500Y-108190000D01*
G75*
G02*
X179120000Y-108337500I0J-147500D01*
G01*
X179120000Y-108632500D01*
G75*
G02*
X178972500Y-108780000I-147500J0D01*
G01*
X178627500Y-108780000D01*
G75*
G02*
X178480000Y-108632500I0J147500D01*
G01*
X178480000Y-108337500D01*
G75*
G02*
X178627500Y-108190000I147500J0D01*
G01*
G37*
G36*
G01*
X178627500Y-107220000D02*
X178972500Y-107220000D01*
G75*
G02*
X179120000Y-107367500I0J-147500D01*
G01*
X179120000Y-107662500D01*
G75*
G02*
X178972500Y-107810000I-147500J0D01*
G01*
X178627500Y-107810000D01*
G75*
G02*
X178480000Y-107662500I0J147500D01*
G01*
X178480000Y-107367500D01*
G75*
G02*
X178627500Y-107220000I147500J0D01*
G01*
G37*
G36*
G01*
X178527500Y-77990000D02*
X178872500Y-77990000D01*
G75*
G02*
X179020000Y-78137500I0J-147500D01*
G01*
X179020000Y-78432500D01*
G75*
G02*
X178872500Y-78580000I-147500J0D01*
G01*
X178527500Y-78580000D01*
G75*
G02*
X178380000Y-78432500I0J147500D01*
G01*
X178380000Y-78137500D01*
G75*
G02*
X178527500Y-77990000I147500J0D01*
G01*
G37*
G36*
G01*
X178527500Y-77020000D02*
X178872500Y-77020000D01*
G75*
G02*
X179020000Y-77167500I0J-147500D01*
G01*
X179020000Y-77462500D01*
G75*
G02*
X178872500Y-77610000I-147500J0D01*
G01*
X178527500Y-77610000D01*
G75*
G02*
X178380000Y-77462500I0J147500D01*
G01*
X178380000Y-77167500D01*
G75*
G02*
X178527500Y-77020000I147500J0D01*
G01*
G37*
G36*
G01*
X178527500Y-75070000D02*
X178872500Y-75070000D01*
G75*
G02*
X179020000Y-75217500I0J-147500D01*
G01*
X179020000Y-75512500D01*
G75*
G02*
X178872500Y-75660000I-147500J0D01*
G01*
X178527500Y-75660000D01*
G75*
G02*
X178380000Y-75512500I0J147500D01*
G01*
X178380000Y-75217500D01*
G75*
G02*
X178527500Y-75070000I147500J0D01*
G01*
G37*
G36*
G01*
X178527500Y-76040000D02*
X178872500Y-76040000D01*
G75*
G02*
X179020000Y-76187500I0J-147500D01*
G01*
X179020000Y-76482500D01*
G75*
G02*
X178872500Y-76630000I-147500J0D01*
G01*
X178527500Y-76630000D01*
G75*
G02*
X178380000Y-76482500I0J147500D01*
G01*
X178380000Y-76187500D01*
G75*
G02*
X178527500Y-76040000I147500J0D01*
G01*
G37*
G36*
G01*
X178577500Y-126640000D02*
X178922500Y-126640000D01*
G75*
G02*
X179070000Y-126787500I0J-147500D01*
G01*
X179070000Y-127082500D01*
G75*
G02*
X178922500Y-127230000I-147500J0D01*
G01*
X178577500Y-127230000D01*
G75*
G02*
X178430000Y-127082500I0J147500D01*
G01*
X178430000Y-126787500D01*
G75*
G02*
X178577500Y-126640000I147500J0D01*
G01*
G37*
G36*
G01*
X178577500Y-125670000D02*
X178922500Y-125670000D01*
G75*
G02*
X179070000Y-125817500I0J-147500D01*
G01*
X179070000Y-126112500D01*
G75*
G02*
X178922500Y-126260000I-147500J0D01*
G01*
X178577500Y-126260000D01*
G75*
G02*
X178430000Y-126112500I0J147500D01*
G01*
X178430000Y-125817500D01*
G75*
G02*
X178577500Y-125670000I147500J0D01*
G01*
G37*
G36*
G01*
X178577500Y-123570000D02*
X178922500Y-123570000D01*
G75*
G02*
X179070000Y-123717500I0J-147500D01*
G01*
X179070000Y-124012500D01*
G75*
G02*
X178922500Y-124160000I-147500J0D01*
G01*
X178577500Y-124160000D01*
G75*
G02*
X178430000Y-124012500I0J147500D01*
G01*
X178430000Y-123717500D01*
G75*
G02*
X178577500Y-123570000I147500J0D01*
G01*
G37*
G36*
G01*
X178577500Y-124540000D02*
X178922500Y-124540000D01*
G75*
G02*
X179070000Y-124687500I0J-147500D01*
G01*
X179070000Y-124982500D01*
G75*
G02*
X178922500Y-125130000I-147500J0D01*
G01*
X178577500Y-125130000D01*
G75*
G02*
X178430000Y-124982500I0J147500D01*
G01*
X178430000Y-124687500D01*
G75*
G02*
X178577500Y-124540000I147500J0D01*
G01*
G37*
G36*
G01*
X178627500Y-120320000D02*
X178972500Y-120320000D01*
G75*
G02*
X179120000Y-120467500I0J-147500D01*
G01*
X179120000Y-120762500D01*
G75*
G02*
X178972500Y-120910000I-147500J0D01*
G01*
X178627500Y-120910000D01*
G75*
G02*
X178480000Y-120762500I0J147500D01*
G01*
X178480000Y-120467500D01*
G75*
G02*
X178627500Y-120320000I147500J0D01*
G01*
G37*
G36*
G01*
X178627500Y-121290000D02*
X178972500Y-121290000D01*
G75*
G02*
X179120000Y-121437500I0J-147500D01*
G01*
X179120000Y-121732500D01*
G75*
G02*
X178972500Y-121880000I-147500J0D01*
G01*
X178627500Y-121880000D01*
G75*
G02*
X178480000Y-121732500I0J147500D01*
G01*
X178480000Y-121437500D01*
G75*
G02*
X178627500Y-121290000I147500J0D01*
G01*
G37*
G36*
G01*
X178627500Y-119140000D02*
X178972500Y-119140000D01*
G75*
G02*
X179120000Y-119287500I0J-147500D01*
G01*
X179120000Y-119582500D01*
G75*
G02*
X178972500Y-119730000I-147500J0D01*
G01*
X178627500Y-119730000D01*
G75*
G02*
X178480000Y-119582500I0J147500D01*
G01*
X178480000Y-119287500D01*
G75*
G02*
X178627500Y-119140000I147500J0D01*
G01*
G37*
G36*
G01*
X178627500Y-118170000D02*
X178972500Y-118170000D01*
G75*
G02*
X179120000Y-118317500I0J-147500D01*
G01*
X179120000Y-118612500D01*
G75*
G02*
X178972500Y-118760000I-147500J0D01*
G01*
X178627500Y-118760000D01*
G75*
G02*
X178480000Y-118612500I0J147500D01*
G01*
X178480000Y-118317500D01*
G75*
G02*
X178627500Y-118170000I147500J0D01*
G01*
G37*
G36*
G01*
X178627500Y-114870000D02*
X178972500Y-114870000D01*
G75*
G02*
X179120000Y-115017500I0J-147500D01*
G01*
X179120000Y-115312500D01*
G75*
G02*
X178972500Y-115460000I-147500J0D01*
G01*
X178627500Y-115460000D01*
G75*
G02*
X178480000Y-115312500I0J147500D01*
G01*
X178480000Y-115017500D01*
G75*
G02*
X178627500Y-114870000I147500J0D01*
G01*
G37*
G36*
G01*
X178627500Y-115840000D02*
X178972500Y-115840000D01*
G75*
G02*
X179120000Y-115987500I0J-147500D01*
G01*
X179120000Y-116282500D01*
G75*
G02*
X178972500Y-116430000I-147500J0D01*
G01*
X178627500Y-116430000D01*
G75*
G02*
X178480000Y-116282500I0J147500D01*
G01*
X178480000Y-115987500D01*
G75*
G02*
X178627500Y-115840000I147500J0D01*
G01*
G37*
G36*
G01*
X178627500Y-113740000D02*
X178972500Y-113740000D01*
G75*
G02*
X179120000Y-113887500I0J-147500D01*
G01*
X179120000Y-114182500D01*
G75*
G02*
X178972500Y-114330000I-147500J0D01*
G01*
X178627500Y-114330000D01*
G75*
G02*
X178480000Y-114182500I0J147500D01*
G01*
X178480000Y-113887500D01*
G75*
G02*
X178627500Y-113740000I147500J0D01*
G01*
G37*
G36*
G01*
X178627500Y-112770000D02*
X178972500Y-112770000D01*
G75*
G02*
X179120000Y-112917500I0J-147500D01*
G01*
X179120000Y-113212500D01*
G75*
G02*
X178972500Y-113360000I-147500J0D01*
G01*
X178627500Y-113360000D01*
G75*
G02*
X178480000Y-113212500I0J147500D01*
G01*
X178480000Y-112917500D01*
G75*
G02*
X178627500Y-112770000I147500J0D01*
G01*
G37*
G36*
G01*
X178327500Y-83990000D02*
X178672500Y-83990000D01*
G75*
G02*
X178820000Y-84137500I0J-147500D01*
G01*
X178820000Y-84432500D01*
G75*
G02*
X178672500Y-84580000I-147500J0D01*
G01*
X178327500Y-84580000D01*
G75*
G02*
X178180000Y-84432500I0J147500D01*
G01*
X178180000Y-84137500D01*
G75*
G02*
X178327500Y-83990000I147500J0D01*
G01*
G37*
G36*
G01*
X178327500Y-83020000D02*
X178672500Y-83020000D01*
G75*
G02*
X178820000Y-83167500I0J-147500D01*
G01*
X178820000Y-83462500D01*
G75*
G02*
X178672500Y-83610000I-147500J0D01*
G01*
X178327500Y-83610000D01*
G75*
G02*
X178180000Y-83462500I0J147500D01*
G01*
X178180000Y-83167500D01*
G75*
G02*
X178327500Y-83020000I147500J0D01*
G01*
G37*
G36*
G01*
X178427500Y-81120000D02*
X178772500Y-81120000D01*
G75*
G02*
X178920000Y-81267500I0J-147500D01*
G01*
X178920000Y-81562500D01*
G75*
G02*
X178772500Y-81710000I-147500J0D01*
G01*
X178427500Y-81710000D01*
G75*
G02*
X178280000Y-81562500I0J147500D01*
G01*
X178280000Y-81267500D01*
G75*
G02*
X178427500Y-81120000I147500J0D01*
G01*
G37*
G36*
G01*
X178427500Y-82090000D02*
X178772500Y-82090000D01*
G75*
G02*
X178920000Y-82237500I0J-147500D01*
G01*
X178920000Y-82532500D01*
G75*
G02*
X178772500Y-82680000I-147500J0D01*
G01*
X178427500Y-82680000D01*
G75*
G02*
X178280000Y-82532500I0J147500D01*
G01*
X178280000Y-82237500D01*
G75*
G02*
X178427500Y-82090000I147500J0D01*
G01*
G37*
G36*
G01*
X178527500Y-88020000D02*
X178872500Y-88020000D01*
G75*
G02*
X179020000Y-88167500I0J-147500D01*
G01*
X179020000Y-88462500D01*
G75*
G02*
X178872500Y-88610000I-147500J0D01*
G01*
X178527500Y-88610000D01*
G75*
G02*
X178380000Y-88462500I0J147500D01*
G01*
X178380000Y-88167500D01*
G75*
G02*
X178527500Y-88020000I147500J0D01*
G01*
G37*
G36*
G01*
X178527500Y-88990000D02*
X178872500Y-88990000D01*
G75*
G02*
X179020000Y-89137500I0J-147500D01*
G01*
X179020000Y-89432500D01*
G75*
G02*
X178872500Y-89580000I-147500J0D01*
G01*
X178527500Y-89580000D01*
G75*
G02*
X178380000Y-89432500I0J147500D01*
G01*
X178380000Y-89137500D01*
G75*
G02*
X178527500Y-88990000I147500J0D01*
G01*
G37*
G36*
G01*
X178527500Y-85820000D02*
X178872500Y-85820000D01*
G75*
G02*
X179020000Y-85967500I0J-147500D01*
G01*
X179020000Y-86262500D01*
G75*
G02*
X178872500Y-86410000I-147500J0D01*
G01*
X178527500Y-86410000D01*
G75*
G02*
X178380000Y-86262500I0J147500D01*
G01*
X178380000Y-85967500D01*
G75*
G02*
X178527500Y-85820000I147500J0D01*
G01*
G37*
G36*
G01*
X178527500Y-86790000D02*
X178872500Y-86790000D01*
G75*
G02*
X179020000Y-86937500I0J-147500D01*
G01*
X179020000Y-87232500D01*
G75*
G02*
X178872500Y-87380000I-147500J0D01*
G01*
X178527500Y-87380000D01*
G75*
G02*
X178380000Y-87232500I0J147500D01*
G01*
X178380000Y-86937500D01*
G75*
G02*
X178527500Y-86790000I147500J0D01*
G01*
G37*
G36*
G01*
X176827500Y-91140000D02*
X177172500Y-91140000D01*
G75*
G02*
X177320000Y-91287500I0J-147500D01*
G01*
X177320000Y-91582500D01*
G75*
G02*
X177172500Y-91730000I-147500J0D01*
G01*
X176827500Y-91730000D01*
G75*
G02*
X176680000Y-91582500I0J147500D01*
G01*
X176680000Y-91287500D01*
G75*
G02*
X176827500Y-91140000I147500J0D01*
G01*
G37*
G36*
G01*
X176827500Y-90170000D02*
X177172500Y-90170000D01*
G75*
G02*
X177320000Y-90317500I0J-147500D01*
G01*
X177320000Y-90612500D01*
G75*
G02*
X177172500Y-90760000I-147500J0D01*
G01*
X176827500Y-90760000D01*
G75*
G02*
X176680000Y-90612500I0J147500D01*
G01*
X176680000Y-90317500D01*
G75*
G02*
X176827500Y-90170000I147500J0D01*
G01*
G37*
G36*
G01*
X178527500Y-91370000D02*
X178872500Y-91370000D01*
G75*
G02*
X179020000Y-91517500I0J-147500D01*
G01*
X179020000Y-91812500D01*
G75*
G02*
X178872500Y-91960000I-147500J0D01*
G01*
X178527500Y-91960000D01*
G75*
G02*
X178380000Y-91812500I0J147500D01*
G01*
X178380000Y-91517500D01*
G75*
G02*
X178527500Y-91370000I147500J0D01*
G01*
G37*
G36*
G01*
X178527500Y-92340000D02*
X178872500Y-92340000D01*
G75*
G02*
X179020000Y-92487500I0J-147500D01*
G01*
X179020000Y-92782500D01*
G75*
G02*
X178872500Y-92930000I-147500J0D01*
G01*
X178527500Y-92930000D01*
G75*
G02*
X178380000Y-92782500I0J147500D01*
G01*
X178380000Y-92487500D01*
G75*
G02*
X178527500Y-92340000I147500J0D01*
G01*
G37*
G36*
G01*
X178527500Y-98820000D02*
X178872500Y-98820000D01*
G75*
G02*
X179020000Y-98967500I0J-147500D01*
G01*
X179020000Y-99262500D01*
G75*
G02*
X178872500Y-99410000I-147500J0D01*
G01*
X178527500Y-99410000D01*
G75*
G02*
X178380000Y-99262500I0J147500D01*
G01*
X178380000Y-98967500D01*
G75*
G02*
X178527500Y-98820000I147500J0D01*
G01*
G37*
G36*
G01*
X178527500Y-99790000D02*
X178872500Y-99790000D01*
G75*
G02*
X179020000Y-99937500I0J-147500D01*
G01*
X179020000Y-100232500D01*
G75*
G02*
X178872500Y-100380000I-147500J0D01*
G01*
X178527500Y-100380000D01*
G75*
G02*
X178380000Y-100232500I0J147500D01*
G01*
X178380000Y-99937500D01*
G75*
G02*
X178527500Y-99790000I147500J0D01*
G01*
G37*
G36*
G01*
X177077500Y-99405000D02*
X177422500Y-99405000D01*
G75*
G02*
X177570000Y-99552500I0J-147500D01*
G01*
X177570000Y-99847500D01*
G75*
G02*
X177422500Y-99995000I-147500J0D01*
G01*
X177077500Y-99995000D01*
G75*
G02*
X176930000Y-99847500I0J147500D01*
G01*
X176930000Y-99552500D01*
G75*
G02*
X177077500Y-99405000I147500J0D01*
G01*
G37*
G36*
G01*
X177077500Y-100375000D02*
X177422500Y-100375000D01*
G75*
G02*
X177570000Y-100522500I0J-147500D01*
G01*
X177570000Y-100817500D01*
G75*
G02*
X177422500Y-100965000I-147500J0D01*
G01*
X177077500Y-100965000D01*
G75*
G02*
X176930000Y-100817500I0J147500D01*
G01*
X176930000Y-100522500D01*
G75*
G02*
X177077500Y-100375000I147500J0D01*
G01*
G37*
G36*
G01*
X178527500Y-104120000D02*
X178872500Y-104120000D01*
G75*
G02*
X179020000Y-104267500I0J-147500D01*
G01*
X179020000Y-104562500D01*
G75*
G02*
X178872500Y-104710000I-147500J0D01*
G01*
X178527500Y-104710000D01*
G75*
G02*
X178380000Y-104562500I0J147500D01*
G01*
X178380000Y-104267500D01*
G75*
G02*
X178527500Y-104120000I147500J0D01*
G01*
G37*
G36*
G01*
X178527500Y-105090000D02*
X178872500Y-105090000D01*
G75*
G02*
X179020000Y-105237500I0J-147500D01*
G01*
X179020000Y-105532500D01*
G75*
G02*
X178872500Y-105680000I-147500J0D01*
G01*
X178527500Y-105680000D01*
G75*
G02*
X178380000Y-105532500I0J147500D01*
G01*
X178380000Y-105237500D01*
G75*
G02*
X178527500Y-105090000I147500J0D01*
G01*
G37*
G36*
G01*
X178527500Y-102990000D02*
X178872500Y-102990000D01*
G75*
G02*
X179020000Y-103137500I0J-147500D01*
G01*
X179020000Y-103432500D01*
G75*
G02*
X178872500Y-103580000I-147500J0D01*
G01*
X178527500Y-103580000D01*
G75*
G02*
X178380000Y-103432500I0J147500D01*
G01*
X178380000Y-103137500D01*
G75*
G02*
X178527500Y-102990000I147500J0D01*
G01*
G37*
G36*
G01*
X178527500Y-102020000D02*
X178872500Y-102020000D01*
G75*
G02*
X179020000Y-102167500I0J-147500D01*
G01*
X179020000Y-102462500D01*
G75*
G02*
X178872500Y-102610000I-147500J0D01*
G01*
X178527500Y-102610000D01*
G75*
G02*
X178380000Y-102462500I0J147500D01*
G01*
X178380000Y-102167500D01*
G75*
G02*
X178527500Y-102020000I147500J0D01*
G01*
G37*
D29*
X170800000Y-86475000D03*
D30*
X170300000Y-86525000D03*
X169800000Y-86525000D03*
X169800000Y-85375000D03*
X170300000Y-85375000D03*
X170800000Y-85375000D03*
D31*
X172050000Y-92700000D03*
X171100000Y-92700000D03*
X170150000Y-92700000D03*
X170150000Y-90500000D03*
X172050000Y-90500000D03*
D10*
G36*
X154210000Y-72840000D02*
G01*
X154210169Y-72840000D01*
X154210169Y-72833131D01*
X154211515Y-72819458D01*
X154214196Y-72805983D01*
X154218184Y-72792835D01*
X154223441Y-72780142D01*
X154229918Y-72768026D01*
X154237551Y-72756602D01*
X154246267Y-72745982D01*
X154255982Y-72736267D01*
X154266602Y-72727551D01*
X154278026Y-72719918D01*
X154290142Y-72713441D01*
X154302835Y-72708184D01*
X154315983Y-72704196D01*
X154329458Y-72701515D01*
X154343131Y-72700169D01*
X154356869Y-72700169D01*
X154370542Y-72701515D01*
X154384017Y-72704196D01*
X154397165Y-72708184D01*
X154409858Y-72713441D01*
X154421974Y-72719918D01*
X154433398Y-72727551D01*
X154444018Y-72736267D01*
X154453733Y-72745982D01*
X154462449Y-72756602D01*
X154470082Y-72768026D01*
X154476559Y-72780142D01*
X154481816Y-72792835D01*
X154485804Y-72805983D01*
X154488485Y-72819458D01*
X154489831Y-72833131D01*
X154489831Y-72840000D01*
X154490000Y-72840000D01*
X154490000Y-73550000D01*
X154210000Y-73550000D01*
X154210000Y-72840000D01*
G37*
G36*
X154710000Y-72840000D02*
G01*
X154710169Y-72840000D01*
X154710169Y-72833131D01*
X154711515Y-72819458D01*
X154714196Y-72805983D01*
X154718184Y-72792835D01*
X154723441Y-72780142D01*
X154729918Y-72768026D01*
X154737551Y-72756602D01*
X154746267Y-72745982D01*
X154755982Y-72736267D01*
X154766602Y-72727551D01*
X154778026Y-72719918D01*
X154790142Y-72713441D01*
X154802835Y-72708184D01*
X154815983Y-72704196D01*
X154829458Y-72701515D01*
X154843131Y-72700169D01*
X154856869Y-72700169D01*
X154870542Y-72701515D01*
X154884017Y-72704196D01*
X154897165Y-72708184D01*
X154909858Y-72713441D01*
X154921974Y-72719918D01*
X154933398Y-72727551D01*
X154944018Y-72736267D01*
X154953733Y-72745982D01*
X154962449Y-72756602D01*
X154970082Y-72768026D01*
X154976559Y-72780142D01*
X154981816Y-72792835D01*
X154985804Y-72805983D01*
X154988485Y-72819458D01*
X154989831Y-72833131D01*
X154989831Y-72840000D01*
X154990000Y-72840000D01*
X154990000Y-73550000D01*
X154710000Y-73550000D01*
X154710000Y-72840000D01*
G37*
G36*
X155210000Y-72840000D02*
G01*
X155210169Y-72840000D01*
X155210169Y-72833131D01*
X155211515Y-72819458D01*
X155214196Y-72805983D01*
X155218184Y-72792835D01*
X155223441Y-72780142D01*
X155229918Y-72768026D01*
X155237551Y-72756602D01*
X155246267Y-72745982D01*
X155255982Y-72736267D01*
X155266602Y-72727551D01*
X155278026Y-72719918D01*
X155290142Y-72713441D01*
X155302835Y-72708184D01*
X155315983Y-72704196D01*
X155329458Y-72701515D01*
X155343131Y-72700169D01*
X155356869Y-72700169D01*
X155370542Y-72701515D01*
X155384017Y-72704196D01*
X155397165Y-72708184D01*
X155409858Y-72713441D01*
X155421974Y-72719918D01*
X155433398Y-72727551D01*
X155444018Y-72736267D01*
X155453733Y-72745982D01*
X155462449Y-72756602D01*
X155470082Y-72768026D01*
X155476559Y-72780142D01*
X155481816Y-72792835D01*
X155485804Y-72805983D01*
X155488485Y-72819458D01*
X155489831Y-72833131D01*
X155489831Y-72840000D01*
X155490000Y-72840000D01*
X155490000Y-73550000D01*
X155210000Y-73550000D01*
X155210000Y-72840000D01*
G37*
G36*
X155710000Y-72840000D02*
G01*
X155710169Y-72840000D01*
X155710169Y-72833131D01*
X155711515Y-72819458D01*
X155714196Y-72805983D01*
X155718184Y-72792835D01*
X155723441Y-72780142D01*
X155729918Y-72768026D01*
X155737551Y-72756602D01*
X155746267Y-72745982D01*
X155755982Y-72736267D01*
X155766602Y-72727551D01*
X155778026Y-72719918D01*
X155790142Y-72713441D01*
X155802835Y-72708184D01*
X155815983Y-72704196D01*
X155829458Y-72701515D01*
X155843131Y-72700169D01*
X155856869Y-72700169D01*
X155870542Y-72701515D01*
X155884017Y-72704196D01*
X155897165Y-72708184D01*
X155909858Y-72713441D01*
X155921974Y-72719918D01*
X155933398Y-72727551D01*
X155944018Y-72736267D01*
X155953733Y-72745982D01*
X155962449Y-72756602D01*
X155970082Y-72768026D01*
X155976559Y-72780142D01*
X155981816Y-72792835D01*
X155985804Y-72805983D01*
X155988485Y-72819458D01*
X155989831Y-72833131D01*
X155989831Y-72840000D01*
X155990000Y-72840000D01*
X155990000Y-73550000D01*
X155710000Y-73550000D01*
X155710000Y-72840000D01*
G37*
G36*
X156210000Y-72840000D02*
G01*
X156210169Y-72840000D01*
X156210169Y-72833131D01*
X156211515Y-72819458D01*
X156214196Y-72805983D01*
X156218184Y-72792835D01*
X156223441Y-72780142D01*
X156229918Y-72768026D01*
X156237551Y-72756602D01*
X156246267Y-72745982D01*
X156255982Y-72736267D01*
X156266602Y-72727551D01*
X156278026Y-72719918D01*
X156290142Y-72713441D01*
X156302835Y-72708184D01*
X156315983Y-72704196D01*
X156329458Y-72701515D01*
X156343131Y-72700169D01*
X156356869Y-72700169D01*
X156370542Y-72701515D01*
X156384017Y-72704196D01*
X156397165Y-72708184D01*
X156409858Y-72713441D01*
X156421974Y-72719918D01*
X156433398Y-72727551D01*
X156444018Y-72736267D01*
X156453733Y-72745982D01*
X156462449Y-72756602D01*
X156470082Y-72768026D01*
X156476559Y-72780142D01*
X156481816Y-72792835D01*
X156485804Y-72805983D01*
X156488485Y-72819458D01*
X156489831Y-72833131D01*
X156489831Y-72840000D01*
X156490000Y-72840000D01*
X156490000Y-73550000D01*
X156210000Y-73550000D01*
X156210000Y-72840000D01*
G37*
G36*
X156710000Y-72840000D02*
G01*
X156710169Y-72840000D01*
X156710169Y-72833131D01*
X156711515Y-72819458D01*
X156714196Y-72805983D01*
X156718184Y-72792835D01*
X156723441Y-72780142D01*
X156729918Y-72768026D01*
X156737551Y-72756602D01*
X156746267Y-72745982D01*
X156755982Y-72736267D01*
X156766602Y-72727551D01*
X156778026Y-72719918D01*
X156790142Y-72713441D01*
X156802835Y-72708184D01*
X156815983Y-72704196D01*
X156829458Y-72701515D01*
X156843131Y-72700169D01*
X156856869Y-72700169D01*
X156870542Y-72701515D01*
X156884017Y-72704196D01*
X156897165Y-72708184D01*
X156909858Y-72713441D01*
X156921974Y-72719918D01*
X156933398Y-72727551D01*
X156944018Y-72736267D01*
X156953733Y-72745982D01*
X156962449Y-72756602D01*
X156970082Y-72768026D01*
X156976559Y-72780142D01*
X156981816Y-72792835D01*
X156985804Y-72805983D01*
X156988485Y-72819458D01*
X156989831Y-72833131D01*
X156989831Y-72840000D01*
X156990000Y-72840000D01*
X156990000Y-73550000D01*
X156710000Y-73550000D01*
X156710000Y-72840000D01*
G37*
G36*
X157290000Y-72540000D02*
G01*
X157290000Y-72539831D01*
X157283131Y-72539831D01*
X157269458Y-72538485D01*
X157255983Y-72535804D01*
X157242835Y-72531816D01*
X157230142Y-72526559D01*
X157218026Y-72520082D01*
X157206602Y-72512449D01*
X157195982Y-72503733D01*
X157186267Y-72494018D01*
X157177551Y-72483398D01*
X157169918Y-72471974D01*
X157163441Y-72459858D01*
X157158184Y-72447165D01*
X157154196Y-72434017D01*
X157151515Y-72420542D01*
X157150169Y-72406869D01*
X157150169Y-72393131D01*
X157151515Y-72379458D01*
X157154196Y-72365983D01*
X157158184Y-72352835D01*
X157163441Y-72340142D01*
X157169918Y-72328026D01*
X157177551Y-72316602D01*
X157186267Y-72305982D01*
X157195982Y-72296267D01*
X157206602Y-72287551D01*
X157218026Y-72279918D01*
X157230142Y-72273441D01*
X157242835Y-72268184D01*
X157255983Y-72264196D01*
X157269458Y-72261515D01*
X157283131Y-72260169D01*
X157290000Y-72260169D01*
X157290000Y-72260000D01*
X158000000Y-72260000D01*
X158000000Y-72540000D01*
X157290000Y-72540000D01*
G37*
G36*
X157290000Y-72040000D02*
G01*
X157290000Y-72039831D01*
X157283131Y-72039831D01*
X157269458Y-72038485D01*
X157255983Y-72035804D01*
X157242835Y-72031816D01*
X157230142Y-72026559D01*
X157218026Y-72020082D01*
X157206602Y-72012449D01*
X157195982Y-72003733D01*
X157186267Y-71994018D01*
X157177551Y-71983398D01*
X157169918Y-71971974D01*
X157163441Y-71959858D01*
X157158184Y-71947165D01*
X157154196Y-71934017D01*
X157151515Y-71920542D01*
X157150169Y-71906869D01*
X157150169Y-71893131D01*
X157151515Y-71879458D01*
X157154196Y-71865983D01*
X157158184Y-71852835D01*
X157163441Y-71840142D01*
X157169918Y-71828026D01*
X157177551Y-71816602D01*
X157186267Y-71805982D01*
X157195982Y-71796267D01*
X157206602Y-71787551D01*
X157218026Y-71779918D01*
X157230142Y-71773441D01*
X157242835Y-71768184D01*
X157255983Y-71764196D01*
X157269458Y-71761515D01*
X157283131Y-71760169D01*
X157290000Y-71760169D01*
X157290000Y-71760000D01*
X158000000Y-71760000D01*
X158000000Y-72040000D01*
X157290000Y-72040000D01*
G37*
G36*
X157290000Y-71540000D02*
G01*
X157290000Y-71539831D01*
X157283131Y-71539831D01*
X157269458Y-71538485D01*
X157255983Y-71535804D01*
X157242835Y-71531816D01*
X157230142Y-71526559D01*
X157218026Y-71520082D01*
X157206602Y-71512449D01*
X157195982Y-71503733D01*
X157186267Y-71494018D01*
X157177551Y-71483398D01*
X157169918Y-71471974D01*
X157163441Y-71459858D01*
X157158184Y-71447165D01*
X157154196Y-71434017D01*
X157151515Y-71420542D01*
X157150169Y-71406869D01*
X157150169Y-71393131D01*
X157151515Y-71379458D01*
X157154196Y-71365983D01*
X157158184Y-71352835D01*
X157163441Y-71340142D01*
X157169918Y-71328026D01*
X157177551Y-71316602D01*
X157186267Y-71305982D01*
X157195982Y-71296267D01*
X157206602Y-71287551D01*
X157218026Y-71279918D01*
X157230142Y-71273441D01*
X157242835Y-71268184D01*
X157255983Y-71264196D01*
X157269458Y-71261515D01*
X157283131Y-71260169D01*
X157290000Y-71260169D01*
X157290000Y-71260000D01*
X158000000Y-71260000D01*
X158000000Y-71540000D01*
X157290000Y-71540000D01*
G37*
G36*
X157290000Y-71040000D02*
G01*
X157290000Y-71039831D01*
X157283131Y-71039831D01*
X157269458Y-71038485D01*
X157255983Y-71035804D01*
X157242835Y-71031816D01*
X157230142Y-71026559D01*
X157218026Y-71020082D01*
X157206602Y-71012449D01*
X157195982Y-71003733D01*
X157186267Y-70994018D01*
X157177551Y-70983398D01*
X157169918Y-70971974D01*
X157163441Y-70959858D01*
X157158184Y-70947165D01*
X157154196Y-70934017D01*
X157151515Y-70920542D01*
X157150169Y-70906869D01*
X157150169Y-70893131D01*
X157151515Y-70879458D01*
X157154196Y-70865983D01*
X157158184Y-70852835D01*
X157163441Y-70840142D01*
X157169918Y-70828026D01*
X157177551Y-70816602D01*
X157186267Y-70805982D01*
X157195982Y-70796267D01*
X157206602Y-70787551D01*
X157218026Y-70779918D01*
X157230142Y-70773441D01*
X157242835Y-70768184D01*
X157255983Y-70764196D01*
X157269458Y-70761515D01*
X157283131Y-70760169D01*
X157290000Y-70760169D01*
X157290000Y-70760000D01*
X158000000Y-70760000D01*
X158000000Y-71040000D01*
X157290000Y-71040000D01*
G37*
G36*
X157290000Y-70540000D02*
G01*
X157290000Y-70539831D01*
X157283131Y-70539831D01*
X157269458Y-70538485D01*
X157255983Y-70535804D01*
X157242835Y-70531816D01*
X157230142Y-70526559D01*
X157218026Y-70520082D01*
X157206602Y-70512449D01*
X157195982Y-70503733D01*
X157186267Y-70494018D01*
X157177551Y-70483398D01*
X157169918Y-70471974D01*
X157163441Y-70459858D01*
X157158184Y-70447165D01*
X157154196Y-70434017D01*
X157151515Y-70420542D01*
X157150169Y-70406869D01*
X157150169Y-70393131D01*
X157151515Y-70379458D01*
X157154196Y-70365983D01*
X157158184Y-70352835D01*
X157163441Y-70340142D01*
X157169918Y-70328026D01*
X157177551Y-70316602D01*
X157186267Y-70305982D01*
X157195982Y-70296267D01*
X157206602Y-70287551D01*
X157218026Y-70279918D01*
X157230142Y-70273441D01*
X157242835Y-70268184D01*
X157255983Y-70264196D01*
X157269458Y-70261515D01*
X157283131Y-70260169D01*
X157290000Y-70260169D01*
X157290000Y-70260000D01*
X158000000Y-70260000D01*
X158000000Y-70540000D01*
X157290000Y-70540000D01*
G37*
G36*
X157290000Y-70040000D02*
G01*
X157290000Y-70039831D01*
X157283131Y-70039831D01*
X157269458Y-70038485D01*
X157255983Y-70035804D01*
X157242835Y-70031816D01*
X157230142Y-70026559D01*
X157218026Y-70020082D01*
X157206602Y-70012449D01*
X157195982Y-70003733D01*
X157186267Y-69994018D01*
X157177551Y-69983398D01*
X157169918Y-69971974D01*
X157163441Y-69959858D01*
X157158184Y-69947165D01*
X157154196Y-69934017D01*
X157151515Y-69920542D01*
X157150169Y-69906869D01*
X157150169Y-69893131D01*
X157151515Y-69879458D01*
X157154196Y-69865983D01*
X157158184Y-69852835D01*
X157163441Y-69840142D01*
X157169918Y-69828026D01*
X157177551Y-69816602D01*
X157186267Y-69805982D01*
X157195982Y-69796267D01*
X157206602Y-69787551D01*
X157218026Y-69779918D01*
X157230142Y-69773441D01*
X157242835Y-69768184D01*
X157255983Y-69764196D01*
X157269458Y-69761515D01*
X157283131Y-69760169D01*
X157290000Y-69760169D01*
X157290000Y-69760000D01*
X158000000Y-69760000D01*
X158000000Y-70040000D01*
X157290000Y-70040000D01*
G37*
G36*
X156990000Y-69460000D02*
G01*
X156989831Y-69460000D01*
X156989831Y-69466869D01*
X156988485Y-69480542D01*
X156985804Y-69494017D01*
X156981816Y-69507165D01*
X156976559Y-69519858D01*
X156970082Y-69531974D01*
X156962449Y-69543398D01*
X156953733Y-69554018D01*
X156944018Y-69563733D01*
X156933398Y-69572449D01*
X156921974Y-69580082D01*
X156909858Y-69586559D01*
X156897165Y-69591816D01*
X156884017Y-69595804D01*
X156870542Y-69598485D01*
X156856869Y-69599831D01*
X156843131Y-69599831D01*
X156829458Y-69598485D01*
X156815983Y-69595804D01*
X156802835Y-69591816D01*
X156790142Y-69586559D01*
X156778026Y-69580082D01*
X156766602Y-69572449D01*
X156755982Y-69563733D01*
X156746267Y-69554018D01*
X156737551Y-69543398D01*
X156729918Y-69531974D01*
X156723441Y-69519858D01*
X156718184Y-69507165D01*
X156714196Y-69494017D01*
X156711515Y-69480542D01*
X156710169Y-69466869D01*
X156710169Y-69460000D01*
X156710000Y-69460000D01*
X156710000Y-68750000D01*
X156990000Y-68750000D01*
X156990000Y-69460000D01*
G37*
G36*
X156490000Y-69460000D02*
G01*
X156489831Y-69460000D01*
X156489831Y-69466869D01*
X156488485Y-69480542D01*
X156485804Y-69494017D01*
X156481816Y-69507165D01*
X156476559Y-69519858D01*
X156470082Y-69531974D01*
X156462449Y-69543398D01*
X156453733Y-69554018D01*
X156444018Y-69563733D01*
X156433398Y-69572449D01*
X156421974Y-69580082D01*
X156409858Y-69586559D01*
X156397165Y-69591816D01*
X156384017Y-69595804D01*
X156370542Y-69598485D01*
X156356869Y-69599831D01*
X156343131Y-69599831D01*
X156329458Y-69598485D01*
X156315983Y-69595804D01*
X156302835Y-69591816D01*
X156290142Y-69586559D01*
X156278026Y-69580082D01*
X156266602Y-69572449D01*
X156255982Y-69563733D01*
X156246267Y-69554018D01*
X156237551Y-69543398D01*
X156229918Y-69531974D01*
X156223441Y-69519858D01*
X156218184Y-69507165D01*
X156214196Y-69494017D01*
X156211515Y-69480542D01*
X156210169Y-69466869D01*
X156210169Y-69460000D01*
X156210000Y-69460000D01*
X156210000Y-68750000D01*
X156490000Y-68750000D01*
X156490000Y-69460000D01*
G37*
G36*
X155990000Y-69460000D02*
G01*
X155989831Y-69460000D01*
X155989831Y-69466869D01*
X155988485Y-69480542D01*
X155985804Y-69494017D01*
X155981816Y-69507165D01*
X155976559Y-69519858D01*
X155970082Y-69531974D01*
X155962449Y-69543398D01*
X155953733Y-69554018D01*
X155944018Y-69563733D01*
X155933398Y-69572449D01*
X155921974Y-69580082D01*
X155909858Y-69586559D01*
X155897165Y-69591816D01*
X155884017Y-69595804D01*
X155870542Y-69598485D01*
X155856869Y-69599831D01*
X155843131Y-69599831D01*
X155829458Y-69598485D01*
X155815983Y-69595804D01*
X155802835Y-69591816D01*
X155790142Y-69586559D01*
X155778026Y-69580082D01*
X155766602Y-69572449D01*
X155755982Y-69563733D01*
X155746267Y-69554018D01*
X155737551Y-69543398D01*
X155729918Y-69531974D01*
X155723441Y-69519858D01*
X155718184Y-69507165D01*
X155714196Y-69494017D01*
X155711515Y-69480542D01*
X155710169Y-69466869D01*
X155710169Y-69460000D01*
X155710000Y-69460000D01*
X155710000Y-68750000D01*
X155990000Y-68750000D01*
X155990000Y-69460000D01*
G37*
G36*
X155490000Y-69460000D02*
G01*
X155489831Y-69460000D01*
X155489831Y-69466869D01*
X155488485Y-69480542D01*
X155485804Y-69494017D01*
X155481816Y-69507165D01*
X155476559Y-69519858D01*
X155470082Y-69531974D01*
X155462449Y-69543398D01*
X155453733Y-69554018D01*
X155444018Y-69563733D01*
X155433398Y-69572449D01*
X155421974Y-69580082D01*
X155409858Y-69586559D01*
X155397165Y-69591816D01*
X155384017Y-69595804D01*
X155370542Y-69598485D01*
X155356869Y-69599831D01*
X155343131Y-69599831D01*
X155329458Y-69598485D01*
X155315983Y-69595804D01*
X155302835Y-69591816D01*
X155290142Y-69586559D01*
X155278026Y-69580082D01*
X155266602Y-69572449D01*
X155255982Y-69563733D01*
X155246267Y-69554018D01*
X155237551Y-69543398D01*
X155229918Y-69531974D01*
X155223441Y-69519858D01*
X155218184Y-69507165D01*
X155214196Y-69494017D01*
X155211515Y-69480542D01*
X155210169Y-69466869D01*
X155210169Y-69460000D01*
X155210000Y-69460000D01*
X155210000Y-68750000D01*
X155490000Y-68750000D01*
X155490000Y-69460000D01*
G37*
G36*
X154990000Y-69460000D02*
G01*
X154989831Y-69460000D01*
X154989831Y-69466869D01*
X154988485Y-69480542D01*
X154985804Y-69494017D01*
X154981816Y-69507165D01*
X154976559Y-69519858D01*
X154970082Y-69531974D01*
X154962449Y-69543398D01*
X154953733Y-69554018D01*
X154944018Y-69563733D01*
X154933398Y-69572449D01*
X154921974Y-69580082D01*
X154909858Y-69586559D01*
X154897165Y-69591816D01*
X154884017Y-69595804D01*
X154870542Y-69598485D01*
X154856869Y-69599831D01*
X154843131Y-69599831D01*
X154829458Y-69598485D01*
X154815983Y-69595804D01*
X154802835Y-69591816D01*
X154790142Y-69586559D01*
X154778026Y-69580082D01*
X154766602Y-69572449D01*
X154755982Y-69563733D01*
X154746267Y-69554018D01*
X154737551Y-69543398D01*
X154729918Y-69531974D01*
X154723441Y-69519858D01*
X154718184Y-69507165D01*
X154714196Y-69494017D01*
X154711515Y-69480542D01*
X154710169Y-69466869D01*
X154710169Y-69460000D01*
X154710000Y-69460000D01*
X154710000Y-68750000D01*
X154990000Y-68750000D01*
X154990000Y-69460000D01*
G37*
G36*
X154490000Y-69460000D02*
G01*
X154489831Y-69460000D01*
X154489831Y-69466869D01*
X154488485Y-69480542D01*
X154485804Y-69494017D01*
X154481816Y-69507165D01*
X154476559Y-69519858D01*
X154470082Y-69531974D01*
X154462449Y-69543398D01*
X154453733Y-69554018D01*
X154444018Y-69563733D01*
X154433398Y-69572449D01*
X154421974Y-69580082D01*
X154409858Y-69586559D01*
X154397165Y-69591816D01*
X154384017Y-69595804D01*
X154370542Y-69598485D01*
X154356869Y-69599831D01*
X154343131Y-69599831D01*
X154329458Y-69598485D01*
X154315983Y-69595804D01*
X154302835Y-69591816D01*
X154290142Y-69586559D01*
X154278026Y-69580082D01*
X154266602Y-69572449D01*
X154255982Y-69563733D01*
X154246267Y-69554018D01*
X154237551Y-69543398D01*
X154229918Y-69531974D01*
X154223441Y-69519858D01*
X154218184Y-69507165D01*
X154214196Y-69494017D01*
X154211515Y-69480542D01*
X154210169Y-69466869D01*
X154210169Y-69460000D01*
X154210000Y-69460000D01*
X154210000Y-68750000D01*
X154490000Y-68750000D01*
X154490000Y-69460000D01*
G37*
G36*
X153910000Y-69760000D02*
G01*
X153910000Y-69760169D01*
X153916869Y-69760169D01*
X153930542Y-69761515D01*
X153944017Y-69764196D01*
X153957165Y-69768184D01*
X153969858Y-69773441D01*
X153981974Y-69779918D01*
X153993398Y-69787551D01*
X154004018Y-69796267D01*
X154013733Y-69805982D01*
X154022449Y-69816602D01*
X154030082Y-69828026D01*
X154036559Y-69840142D01*
X154041816Y-69852835D01*
X154045804Y-69865983D01*
X154048485Y-69879458D01*
X154049831Y-69893131D01*
X154049831Y-69906869D01*
X154048485Y-69920542D01*
X154045804Y-69934017D01*
X154041816Y-69947165D01*
X154036559Y-69959858D01*
X154030082Y-69971974D01*
X154022449Y-69983398D01*
X154013733Y-69994018D01*
X154004018Y-70003733D01*
X153993398Y-70012449D01*
X153981974Y-70020082D01*
X153969858Y-70026559D01*
X153957165Y-70031816D01*
X153944017Y-70035804D01*
X153930542Y-70038485D01*
X153916869Y-70039831D01*
X153910000Y-70039831D01*
X153910000Y-70040000D01*
X153200000Y-70040000D01*
X153200000Y-69760000D01*
X153910000Y-69760000D01*
G37*
G36*
X153910000Y-70260000D02*
G01*
X153910000Y-70260169D01*
X153916869Y-70260169D01*
X153930542Y-70261515D01*
X153944017Y-70264196D01*
X153957165Y-70268184D01*
X153969858Y-70273441D01*
X153981974Y-70279918D01*
X153993398Y-70287551D01*
X154004018Y-70296267D01*
X154013733Y-70305982D01*
X154022449Y-70316602D01*
X154030082Y-70328026D01*
X154036559Y-70340142D01*
X154041816Y-70352835D01*
X154045804Y-70365983D01*
X154048485Y-70379458D01*
X154049831Y-70393131D01*
X154049831Y-70406869D01*
X154048485Y-70420542D01*
X154045804Y-70434017D01*
X154041816Y-70447165D01*
X154036559Y-70459858D01*
X154030082Y-70471974D01*
X154022449Y-70483398D01*
X154013733Y-70494018D01*
X154004018Y-70503733D01*
X153993398Y-70512449D01*
X153981974Y-70520082D01*
X153969858Y-70526559D01*
X153957165Y-70531816D01*
X153944017Y-70535804D01*
X153930542Y-70538485D01*
X153916869Y-70539831D01*
X153910000Y-70539831D01*
X153910000Y-70540000D01*
X153200000Y-70540000D01*
X153200000Y-70260000D01*
X153910000Y-70260000D01*
G37*
G36*
X153910000Y-70760000D02*
G01*
X153910000Y-70760169D01*
X153916869Y-70760169D01*
X153930542Y-70761515D01*
X153944017Y-70764196D01*
X153957165Y-70768184D01*
X153969858Y-70773441D01*
X153981974Y-70779918D01*
X153993398Y-70787551D01*
X154004018Y-70796267D01*
X154013733Y-70805982D01*
X154022449Y-70816602D01*
X154030082Y-70828026D01*
X154036559Y-70840142D01*
X154041816Y-70852835D01*
X154045804Y-70865983D01*
X154048485Y-70879458D01*
X154049831Y-70893131D01*
X154049831Y-70906869D01*
X154048485Y-70920542D01*
X154045804Y-70934017D01*
X154041816Y-70947165D01*
X154036559Y-70959858D01*
X154030082Y-70971974D01*
X154022449Y-70983398D01*
X154013733Y-70994018D01*
X154004018Y-71003733D01*
X153993398Y-71012449D01*
X153981974Y-71020082D01*
X153969858Y-71026559D01*
X153957165Y-71031816D01*
X153944017Y-71035804D01*
X153930542Y-71038485D01*
X153916869Y-71039831D01*
X153910000Y-71039831D01*
X153910000Y-71040000D01*
X153200000Y-71040000D01*
X153200000Y-70760000D01*
X153910000Y-70760000D01*
G37*
G36*
X153910000Y-71260000D02*
G01*
X153910000Y-71260169D01*
X153916869Y-71260169D01*
X153930542Y-71261515D01*
X153944017Y-71264196D01*
X153957165Y-71268184D01*
X153969858Y-71273441D01*
X153981974Y-71279918D01*
X153993398Y-71287551D01*
X154004018Y-71296267D01*
X154013733Y-71305982D01*
X154022449Y-71316602D01*
X154030082Y-71328026D01*
X154036559Y-71340142D01*
X154041816Y-71352835D01*
X154045804Y-71365983D01*
X154048485Y-71379458D01*
X154049831Y-71393131D01*
X154049831Y-71406869D01*
X154048485Y-71420542D01*
X154045804Y-71434017D01*
X154041816Y-71447165D01*
X154036559Y-71459858D01*
X154030082Y-71471974D01*
X154022449Y-71483398D01*
X154013733Y-71494018D01*
X154004018Y-71503733D01*
X153993398Y-71512449D01*
X153981974Y-71520082D01*
X153969858Y-71526559D01*
X153957165Y-71531816D01*
X153944017Y-71535804D01*
X153930542Y-71538485D01*
X153916869Y-71539831D01*
X153910000Y-71539831D01*
X153910000Y-71540000D01*
X153200000Y-71540000D01*
X153200000Y-71260000D01*
X153910000Y-71260000D01*
G37*
G36*
X153910000Y-71760000D02*
G01*
X153910000Y-71760169D01*
X153916869Y-71760169D01*
X153930542Y-71761515D01*
X153944017Y-71764196D01*
X153957165Y-71768184D01*
X153969858Y-71773441D01*
X153981974Y-71779918D01*
X153993398Y-71787551D01*
X154004018Y-71796267D01*
X154013733Y-71805982D01*
X154022449Y-71816602D01*
X154030082Y-71828026D01*
X154036559Y-71840142D01*
X154041816Y-71852835D01*
X154045804Y-71865983D01*
X154048485Y-71879458D01*
X154049831Y-71893131D01*
X154049831Y-71906869D01*
X154048485Y-71920542D01*
X154045804Y-71934017D01*
X154041816Y-71947165D01*
X154036559Y-71959858D01*
X154030082Y-71971974D01*
X154022449Y-71983398D01*
X154013733Y-71994018D01*
X154004018Y-72003733D01*
X153993398Y-72012449D01*
X153981974Y-72020082D01*
X153969858Y-72026559D01*
X153957165Y-72031816D01*
X153944017Y-72035804D01*
X153930542Y-72038485D01*
X153916869Y-72039831D01*
X153910000Y-72039831D01*
X153910000Y-72040000D01*
X153200000Y-72040000D01*
X153200000Y-71760000D01*
X153910000Y-71760000D01*
G37*
G36*
X153910000Y-72260000D02*
G01*
X153910000Y-72260169D01*
X153916869Y-72260169D01*
X153930542Y-72261515D01*
X153944017Y-72264196D01*
X153957165Y-72268184D01*
X153969858Y-72273441D01*
X153981974Y-72279918D01*
X153993398Y-72287551D01*
X154004018Y-72296267D01*
X154013733Y-72305982D01*
X154022449Y-72316602D01*
X154030082Y-72328026D01*
X154036559Y-72340142D01*
X154041816Y-72352835D01*
X154045804Y-72365983D01*
X154048485Y-72379458D01*
X154049831Y-72393131D01*
X154049831Y-72406869D01*
X154048485Y-72420542D01*
X154045804Y-72434017D01*
X154041816Y-72447165D01*
X154036559Y-72459858D01*
X154030082Y-72471974D01*
X154022449Y-72483398D01*
X154013733Y-72494018D01*
X154004018Y-72503733D01*
X153993398Y-72512449D01*
X153981974Y-72520082D01*
X153969858Y-72526559D01*
X153957165Y-72531816D01*
X153944017Y-72535804D01*
X153930542Y-72538485D01*
X153916869Y-72539831D01*
X153910000Y-72539831D01*
X153910000Y-72540000D01*
X153200000Y-72540000D01*
X153200000Y-72260000D01*
X153910000Y-72260000D01*
G37*
D32*
X154900000Y-71850000D03*
X156300000Y-71850000D03*
X156300000Y-70450000D03*
X154900000Y-70450000D03*
G36*
G01*
X134025000Y-109775000D02*
X134025000Y-111025000D01*
G75*
G02*
X133775000Y-111275000I-250000J0D01*
G01*
X133025000Y-111275000D01*
G75*
G02*
X132775000Y-111025000I0J250000D01*
G01*
X132775000Y-109775000D01*
G75*
G02*
X133025000Y-109525000I250000J0D01*
G01*
X133775000Y-109525000D01*
G75*
G02*
X134025000Y-109775000I0J-250000D01*
G01*
G37*
G36*
G01*
X131225000Y-109775000D02*
X131225000Y-111025000D01*
G75*
G02*
X130975000Y-111275000I-250000J0D01*
G01*
X130225000Y-111275000D01*
G75*
G02*
X129975000Y-111025000I0J250000D01*
G01*
X129975000Y-109775000D01*
G75*
G02*
X130225000Y-109525000I250000J0D01*
G01*
X130975000Y-109525000D01*
G75*
G02*
X131225000Y-109775000I0J-250000D01*
G01*
G37*
G36*
G01*
X142772500Y-134380000D02*
X142427500Y-134380000D01*
G75*
G02*
X142280000Y-134232500I0J147500D01*
G01*
X142280000Y-133937500D01*
G75*
G02*
X142427500Y-133790000I147500J0D01*
G01*
X142772500Y-133790000D01*
G75*
G02*
X142920000Y-133937500I0J-147500D01*
G01*
X142920000Y-134232500D01*
G75*
G02*
X142772500Y-134380000I-147500J0D01*
G01*
G37*
G36*
G01*
X142772500Y-133410000D02*
X142427500Y-133410000D01*
G75*
G02*
X142280000Y-133262500I0J147500D01*
G01*
X142280000Y-132967500D01*
G75*
G02*
X142427500Y-132820000I147500J0D01*
G01*
X142772500Y-132820000D01*
G75*
G02*
X142920000Y-132967500I0J-147500D01*
G01*
X142920000Y-133262500D01*
G75*
G02*
X142772500Y-133410000I-147500J0D01*
G01*
G37*
G36*
G01*
X145527500Y-132920000D02*
X145872500Y-132920000D01*
G75*
G02*
X146020000Y-133067500I0J-147500D01*
G01*
X146020000Y-133362500D01*
G75*
G02*
X145872500Y-133510000I-147500J0D01*
G01*
X145527500Y-133510000D01*
G75*
G02*
X145380000Y-133362500I0J147500D01*
G01*
X145380000Y-133067500D01*
G75*
G02*
X145527500Y-132920000I147500J0D01*
G01*
G37*
G36*
G01*
X145527500Y-133890000D02*
X145872500Y-133890000D01*
G75*
G02*
X146020000Y-134037500I0J-147500D01*
G01*
X146020000Y-134332500D01*
G75*
G02*
X145872500Y-134480000I-147500J0D01*
G01*
X145527500Y-134480000D01*
G75*
G02*
X145380000Y-134332500I0J147500D01*
G01*
X145380000Y-134037500D01*
G75*
G02*
X145527500Y-133890000I147500J0D01*
G01*
G37*
G36*
G01*
X172420000Y-122972500D02*
X172420000Y-122627500D01*
G75*
G02*
X172567500Y-122480000I147500J0D01*
G01*
X172862500Y-122480000D01*
G75*
G02*
X173010000Y-122627500I0J-147500D01*
G01*
X173010000Y-122972500D01*
G75*
G02*
X172862500Y-123120000I-147500J0D01*
G01*
X172567500Y-123120000D01*
G75*
G02*
X172420000Y-122972500I0J147500D01*
G01*
G37*
G36*
G01*
X173390000Y-122972500D02*
X173390000Y-122627500D01*
G75*
G02*
X173537500Y-122480000I147500J0D01*
G01*
X173832500Y-122480000D01*
G75*
G02*
X173980000Y-122627500I0J-147500D01*
G01*
X173980000Y-122972500D01*
G75*
G02*
X173832500Y-123120000I-147500J0D01*
G01*
X173537500Y-123120000D01*
G75*
G02*
X173390000Y-122972500I0J147500D01*
G01*
G37*
G36*
G01*
X166172500Y-124410000D02*
X165827500Y-124410000D01*
G75*
G02*
X165680000Y-124262500I0J147500D01*
G01*
X165680000Y-123967500D01*
G75*
G02*
X165827500Y-123820000I147500J0D01*
G01*
X166172500Y-123820000D01*
G75*
G02*
X166320000Y-123967500I0J-147500D01*
G01*
X166320000Y-124262500D01*
G75*
G02*
X166172500Y-124410000I-147500J0D01*
G01*
G37*
G36*
G01*
X166172500Y-125380000D02*
X165827500Y-125380000D01*
G75*
G02*
X165680000Y-125232500I0J147500D01*
G01*
X165680000Y-124937500D01*
G75*
G02*
X165827500Y-124790000I147500J0D01*
G01*
X166172500Y-124790000D01*
G75*
G02*
X166320000Y-124937500I0J-147500D01*
G01*
X166320000Y-125232500D01*
G75*
G02*
X166172500Y-125380000I-147500J0D01*
G01*
G37*
G36*
G01*
X172250000Y-136576250D02*
X172250000Y-135663750D01*
G75*
G02*
X172493750Y-135420000I243750J0D01*
G01*
X172981250Y-135420000D01*
G75*
G02*
X173225000Y-135663750I0J-243750D01*
G01*
X173225000Y-136576250D01*
G75*
G02*
X172981250Y-136820000I-243750J0D01*
G01*
X172493750Y-136820000D01*
G75*
G02*
X172250000Y-136576250I0J243750D01*
G01*
G37*
G36*
G01*
X170375000Y-136576250D02*
X170375000Y-135663750D01*
G75*
G02*
X170618750Y-135420000I243750J0D01*
G01*
X171106250Y-135420000D01*
G75*
G02*
X171350000Y-135663750I0J-243750D01*
G01*
X171350000Y-136576250D01*
G75*
G02*
X171106250Y-136820000I-243750J0D01*
G01*
X170618750Y-136820000D01*
G75*
G02*
X170375000Y-136576250I0J243750D01*
G01*
G37*
G36*
G01*
X166143750Y-142395000D02*
X167056250Y-142395000D01*
G75*
G02*
X167300000Y-142638750I0J-243750D01*
G01*
X167300000Y-143126250D01*
G75*
G02*
X167056250Y-143370000I-243750J0D01*
G01*
X166143750Y-143370000D01*
G75*
G02*
X165900000Y-143126250I0J243750D01*
G01*
X165900000Y-142638750D01*
G75*
G02*
X166143750Y-142395000I243750J0D01*
G01*
G37*
G36*
G01*
X166143750Y-144270000D02*
X167056250Y-144270000D01*
G75*
G02*
X167300000Y-144513750I0J-243750D01*
G01*
X167300000Y-145001250D01*
G75*
G02*
X167056250Y-145245000I-243750J0D01*
G01*
X166143750Y-145245000D01*
G75*
G02*
X165900000Y-145001250I0J243750D01*
G01*
X165900000Y-144513750D01*
G75*
G02*
X166143750Y-144270000I243750J0D01*
G01*
G37*
G36*
G01*
X175375000Y-136576250D02*
X175375000Y-135663750D01*
G75*
G02*
X175618750Y-135420000I243750J0D01*
G01*
X176106250Y-135420000D01*
G75*
G02*
X176350000Y-135663750I0J-243750D01*
G01*
X176350000Y-136576250D01*
G75*
G02*
X176106250Y-136820000I-243750J0D01*
G01*
X175618750Y-136820000D01*
G75*
G02*
X175375000Y-136576250I0J243750D01*
G01*
G37*
G36*
G01*
X177250000Y-136576250D02*
X177250000Y-135663750D01*
G75*
G02*
X177493750Y-135420000I243750J0D01*
G01*
X177981250Y-135420000D01*
G75*
G02*
X178225000Y-135663750I0J-243750D01*
G01*
X178225000Y-136576250D01*
G75*
G02*
X177981250Y-136820000I-243750J0D01*
G01*
X177493750Y-136820000D01*
G75*
G02*
X177250000Y-136576250I0J243750D01*
G01*
G37*
G36*
G01*
X175977500Y-123590000D02*
X176322500Y-123590000D01*
G75*
G02*
X176470000Y-123737500I0J-147500D01*
G01*
X176470000Y-124032500D01*
G75*
G02*
X176322500Y-124180000I-147500J0D01*
G01*
X175977500Y-124180000D01*
G75*
G02*
X175830000Y-124032500I0J147500D01*
G01*
X175830000Y-123737500D01*
G75*
G02*
X175977500Y-123590000I147500J0D01*
G01*
G37*
G36*
G01*
X175977500Y-122620000D02*
X176322500Y-122620000D01*
G75*
G02*
X176470000Y-122767500I0J-147500D01*
G01*
X176470000Y-123062500D01*
G75*
G02*
X176322500Y-123210000I-147500J0D01*
G01*
X175977500Y-123210000D01*
G75*
G02*
X175830000Y-123062500I0J147500D01*
G01*
X175830000Y-122767500D01*
G75*
G02*
X175977500Y-122620000I147500J0D01*
G01*
G37*
G36*
G01*
X175072500Y-124080000D02*
X174727500Y-124080000D01*
G75*
G02*
X174580000Y-123932500I0J147500D01*
G01*
X174580000Y-123637500D01*
G75*
G02*
X174727500Y-123490000I147500J0D01*
G01*
X175072500Y-123490000D01*
G75*
G02*
X175220000Y-123637500I0J-147500D01*
G01*
X175220000Y-123932500D01*
G75*
G02*
X175072500Y-124080000I-147500J0D01*
G01*
G37*
G36*
G01*
X175072500Y-123110000D02*
X174727500Y-123110000D01*
G75*
G02*
X174580000Y-122962500I0J147500D01*
G01*
X174580000Y-122667500D01*
G75*
G02*
X174727500Y-122520000I147500J0D01*
G01*
X175072500Y-122520000D01*
G75*
G02*
X175220000Y-122667500I0J-147500D01*
G01*
X175220000Y-122962500D01*
G75*
G02*
X175072500Y-123110000I-147500J0D01*
G01*
G37*
D33*
X180950000Y-61500000D03*
D34*
X171550000Y-69500000D03*
X175750000Y-69500000D03*
X178750000Y-69500000D03*
X171550000Y-61500000D03*
X175750000Y-61500000D03*
X178600000Y-61500000D03*
D35*
X133825000Y-114550000D03*
X133825000Y-112650000D03*
X135825000Y-113600000D03*
X128450000Y-113600000D03*
X126450000Y-112650000D03*
X126450000Y-114550000D03*
G36*
G01*
X161543750Y-74575000D02*
X162056250Y-74575000D01*
G75*
G02*
X162275000Y-74793750I0J-218750D01*
G01*
X162275000Y-75231250D01*
G75*
G02*
X162056250Y-75450000I-218750J0D01*
G01*
X161543750Y-75450000D01*
G75*
G02*
X161325000Y-75231250I0J218750D01*
G01*
X161325000Y-74793750D01*
G75*
G02*
X161543750Y-74575000I218750J0D01*
G01*
G37*
G36*
G01*
X161543750Y-76150000D02*
X162056250Y-76150000D01*
G75*
G02*
X162275000Y-76368750I0J-218750D01*
G01*
X162275000Y-76806250D01*
G75*
G02*
X162056250Y-77025000I-218750J0D01*
G01*
X161543750Y-77025000D01*
G75*
G02*
X161325000Y-76806250I0J218750D01*
G01*
X161325000Y-76368750D01*
G75*
G02*
X161543750Y-76150000I218750J0D01*
G01*
G37*
G36*
G01*
X130795000Y-113447500D02*
X130795000Y-113102500D01*
G75*
G02*
X130942500Y-112955000I147500J0D01*
G01*
X131237500Y-112955000D01*
G75*
G02*
X131385000Y-113102500I0J-147500D01*
G01*
X131385000Y-113447500D01*
G75*
G02*
X131237500Y-113595000I-147500J0D01*
G01*
X130942500Y-113595000D01*
G75*
G02*
X130795000Y-113447500I0J147500D01*
G01*
G37*
G36*
G01*
X131765000Y-113447500D02*
X131765000Y-113102500D01*
G75*
G02*
X131912500Y-112955000I147500J0D01*
G01*
X132207500Y-112955000D01*
G75*
G02*
X132355000Y-113102500I0J-147500D01*
G01*
X132355000Y-113447500D01*
G75*
G02*
X132207500Y-113595000I-147500J0D01*
G01*
X131912500Y-113595000D01*
G75*
G02*
X131765000Y-113447500I0J147500D01*
G01*
G37*
G36*
G01*
X131385000Y-114402500D02*
X131385000Y-114747500D01*
G75*
G02*
X131237500Y-114895000I-147500J0D01*
G01*
X130942500Y-114895000D01*
G75*
G02*
X130795000Y-114747500I0J147500D01*
G01*
X130795000Y-114402500D01*
G75*
G02*
X130942500Y-114255000I147500J0D01*
G01*
X131237500Y-114255000D01*
G75*
G02*
X131385000Y-114402500I0J-147500D01*
G01*
G37*
G36*
G01*
X132355000Y-114402500D02*
X132355000Y-114747500D01*
G75*
G02*
X132207500Y-114895000I-147500J0D01*
G01*
X131912500Y-114895000D01*
G75*
G02*
X131765000Y-114747500I0J147500D01*
G01*
X131765000Y-114402500D01*
G75*
G02*
X131912500Y-114255000I147500J0D01*
G01*
X132207500Y-114255000D01*
G75*
G02*
X132355000Y-114402500I0J-147500D01*
G01*
G37*
G36*
G01*
X122610000Y-113027500D02*
X122610000Y-113372500D01*
G75*
G02*
X122462500Y-113520000I-147500J0D01*
G01*
X122167500Y-113520000D01*
G75*
G02*
X122020000Y-113372500I0J147500D01*
G01*
X122020000Y-113027500D01*
G75*
G02*
X122167500Y-112880000I147500J0D01*
G01*
X122462500Y-112880000D01*
G75*
G02*
X122610000Y-113027500I0J-147500D01*
G01*
G37*
G36*
G01*
X123580000Y-113027500D02*
X123580000Y-113372500D01*
G75*
G02*
X123432500Y-113520000I-147500J0D01*
G01*
X123137500Y-113520000D01*
G75*
G02*
X122990000Y-113372500I0J147500D01*
G01*
X122990000Y-113027500D01*
G75*
G02*
X123137500Y-112880000I147500J0D01*
G01*
X123432500Y-112880000D01*
G75*
G02*
X123580000Y-113027500I0J-147500D01*
G01*
G37*
G36*
G01*
X124872500Y-114330000D02*
X124527500Y-114330000D01*
G75*
G02*
X124380000Y-114182500I0J147500D01*
G01*
X124380000Y-113887500D01*
G75*
G02*
X124527500Y-113740000I147500J0D01*
G01*
X124872500Y-113740000D01*
G75*
G02*
X125020000Y-113887500I0J-147500D01*
G01*
X125020000Y-114182500D01*
G75*
G02*
X124872500Y-114330000I-147500J0D01*
G01*
G37*
G36*
G01*
X124872500Y-113360000D02*
X124527500Y-113360000D01*
G75*
G02*
X124380000Y-113212500I0J147500D01*
G01*
X124380000Y-112917500D01*
G75*
G02*
X124527500Y-112770000I147500J0D01*
G01*
X124872500Y-112770000D01*
G75*
G02*
X125020000Y-112917500I0J-147500D01*
G01*
X125020000Y-113212500D01*
G75*
G02*
X124872500Y-113360000I-147500J0D01*
G01*
G37*
G36*
G01*
X167743750Y-92100000D02*
X168256250Y-92100000D01*
G75*
G02*
X168475000Y-92318750I0J-218750D01*
G01*
X168475000Y-92756250D01*
G75*
G02*
X168256250Y-92975000I-218750J0D01*
G01*
X167743750Y-92975000D01*
G75*
G02*
X167525000Y-92756250I0J218750D01*
G01*
X167525000Y-92318750D01*
G75*
G02*
X167743750Y-92100000I218750J0D01*
G01*
G37*
G36*
G01*
X167743750Y-90525000D02*
X168256250Y-90525000D01*
G75*
G02*
X168475000Y-90743750I0J-218750D01*
G01*
X168475000Y-91181250D01*
G75*
G02*
X168256250Y-91400000I-218750J0D01*
G01*
X167743750Y-91400000D01*
G75*
G02*
X167525000Y-91181250I0J218750D01*
G01*
X167525000Y-90743750D01*
G75*
G02*
X167743750Y-90525000I218750J0D01*
G01*
G37*
G36*
G01*
X165106250Y-92975000D02*
X164593750Y-92975000D01*
G75*
G02*
X164375000Y-92756250I0J218750D01*
G01*
X164375000Y-92318750D01*
G75*
G02*
X164593750Y-92100000I218750J0D01*
G01*
X165106250Y-92100000D01*
G75*
G02*
X165325000Y-92318750I0J-218750D01*
G01*
X165325000Y-92756250D01*
G75*
G02*
X165106250Y-92975000I-218750J0D01*
G01*
G37*
G36*
G01*
X165106250Y-91400000D02*
X164593750Y-91400000D01*
G75*
G02*
X164375000Y-91181250I0J218750D01*
G01*
X164375000Y-90743750D01*
G75*
G02*
X164593750Y-90525000I218750J0D01*
G01*
X165106250Y-90525000D01*
G75*
G02*
X165325000Y-90743750I0J-218750D01*
G01*
X165325000Y-91181250D01*
G75*
G02*
X165106250Y-91400000I-218750J0D01*
G01*
G37*
G36*
G01*
X150943750Y-75550000D02*
X151456250Y-75550000D01*
G75*
G02*
X151675000Y-75768750I0J-218750D01*
G01*
X151675000Y-76206250D01*
G75*
G02*
X151456250Y-76425000I-218750J0D01*
G01*
X150943750Y-76425000D01*
G75*
G02*
X150725000Y-76206250I0J218750D01*
G01*
X150725000Y-75768750D01*
G75*
G02*
X150943750Y-75550000I218750J0D01*
G01*
G37*
G36*
G01*
X150943750Y-73975000D02*
X151456250Y-73975000D01*
G75*
G02*
X151675000Y-74193750I0J-218750D01*
G01*
X151675000Y-74631250D01*
G75*
G02*
X151456250Y-74850000I-218750J0D01*
G01*
X150943750Y-74850000D01*
G75*
G02*
X150725000Y-74631250I0J218750D01*
G01*
X150725000Y-74193750D01*
G75*
G02*
X150943750Y-73975000I218750J0D01*
G01*
G37*
G36*
G01*
X151785000Y-70023750D02*
X151785000Y-70536250D01*
G75*
G02*
X151566250Y-70755000I-218750J0D01*
G01*
X151128750Y-70755000D01*
G75*
G02*
X150910000Y-70536250I0J218750D01*
G01*
X150910000Y-70023750D01*
G75*
G02*
X151128750Y-69805000I218750J0D01*
G01*
X151566250Y-69805000D01*
G75*
G02*
X151785000Y-70023750I0J-218750D01*
G01*
G37*
G36*
G01*
X150210000Y-70023750D02*
X150210000Y-70536250D01*
G75*
G02*
X149991250Y-70755000I-218750J0D01*
G01*
X149553750Y-70755000D01*
G75*
G02*
X149335000Y-70536250I0J218750D01*
G01*
X149335000Y-70023750D01*
G75*
G02*
X149553750Y-69805000I218750J0D01*
G01*
X149991250Y-69805000D01*
G75*
G02*
X150210000Y-70023750I0J-218750D01*
G01*
G37*
D36*
X133325000Y-80620000D03*
X127075000Y-80620000D03*
D37*
X163925000Y-68525000D03*
X165925000Y-71550000D03*
D10*
G36*
X177547640Y-79986421D02*
G01*
X176234150Y-81862279D01*
X175398614Y-81277231D01*
X176712104Y-79401373D01*
X177547640Y-79986421D01*
G37*
G36*
X177644404Y-76361333D02*
G01*
X176330914Y-78237191D01*
X175495378Y-77652143D01*
X176808868Y-75776285D01*
X177644404Y-76361333D01*
G37*
G36*
G01*
X145472500Y-71630000D02*
X145127500Y-71630000D01*
G75*
G02*
X144980000Y-71482500I0J147500D01*
G01*
X144980000Y-71187500D01*
G75*
G02*
X145127500Y-71040000I147500J0D01*
G01*
X145472500Y-71040000D01*
G75*
G02*
X145620000Y-71187500I0J-147500D01*
G01*
X145620000Y-71482500D01*
G75*
G02*
X145472500Y-71630000I-147500J0D01*
G01*
G37*
G36*
G01*
X145472500Y-72600000D02*
X145127500Y-72600000D01*
G75*
G02*
X144980000Y-72452500I0J147500D01*
G01*
X144980000Y-72157500D01*
G75*
G02*
X145127500Y-72010000I147500J0D01*
G01*
X145472500Y-72010000D01*
G75*
G02*
X145620000Y-72157500I0J-147500D01*
G01*
X145620000Y-72452500D01*
G75*
G02*
X145472500Y-72600000I-147500J0D01*
G01*
G37*
G36*
G01*
X147672500Y-72600000D02*
X147327500Y-72600000D01*
G75*
G02*
X147180000Y-72452500I0J147500D01*
G01*
X147180000Y-72157500D01*
G75*
G02*
X147327500Y-72010000I147500J0D01*
G01*
X147672500Y-72010000D01*
G75*
G02*
X147820000Y-72157500I0J-147500D01*
G01*
X147820000Y-72452500D01*
G75*
G02*
X147672500Y-72600000I-147500J0D01*
G01*
G37*
G36*
G01*
X147672500Y-71630000D02*
X147327500Y-71630000D01*
G75*
G02*
X147180000Y-71482500I0J147500D01*
G01*
X147180000Y-71187500D01*
G75*
G02*
X147327500Y-71040000I147500J0D01*
G01*
X147672500Y-71040000D01*
G75*
G02*
X147820000Y-71187500I0J-147500D01*
G01*
X147820000Y-71482500D01*
G75*
G02*
X147672500Y-71630000I-147500J0D01*
G01*
G37*
G36*
G01*
X145970000Y-136422500D02*
X145970000Y-136077500D01*
G75*
G02*
X146117500Y-135930000I147500J0D01*
G01*
X146412500Y-135930000D01*
G75*
G02*
X146560000Y-136077500I0J-147500D01*
G01*
X146560000Y-136422500D01*
G75*
G02*
X146412500Y-136570000I-147500J0D01*
G01*
X146117500Y-136570000D01*
G75*
G02*
X145970000Y-136422500I0J147500D01*
G01*
G37*
G36*
G01*
X146940000Y-136422500D02*
X146940000Y-136077500D01*
G75*
G02*
X147087500Y-135930000I147500J0D01*
G01*
X147382500Y-135930000D01*
G75*
G02*
X147530000Y-136077500I0J-147500D01*
G01*
X147530000Y-136422500D01*
G75*
G02*
X147382500Y-136570000I-147500J0D01*
G01*
X147087500Y-136570000D01*
G75*
G02*
X146940000Y-136422500I0J147500D01*
G01*
G37*
G36*
G01*
X147472500Y-138680000D02*
X147127500Y-138680000D01*
G75*
G02*
X146980000Y-138532500I0J147500D01*
G01*
X146980000Y-138237500D01*
G75*
G02*
X147127500Y-138090000I147500J0D01*
G01*
X147472500Y-138090000D01*
G75*
G02*
X147620000Y-138237500I0J-147500D01*
G01*
X147620000Y-138532500D01*
G75*
G02*
X147472500Y-138680000I-147500J0D01*
G01*
G37*
G36*
G01*
X147472500Y-137710000D02*
X147127500Y-137710000D01*
G75*
G02*
X146980000Y-137562500I0J147500D01*
G01*
X146980000Y-137267500D01*
G75*
G02*
X147127500Y-137120000I147500J0D01*
G01*
X147472500Y-137120000D01*
G75*
G02*
X147620000Y-137267500I0J-147500D01*
G01*
X147620000Y-137562500D01*
G75*
G02*
X147472500Y-137710000I-147500J0D01*
G01*
G37*
G36*
G01*
X140710000Y-138527500D02*
X140710000Y-138872500D01*
G75*
G02*
X140562500Y-139020000I-147500J0D01*
G01*
X140267500Y-139020000D01*
G75*
G02*
X140120000Y-138872500I0J147500D01*
G01*
X140120000Y-138527500D01*
G75*
G02*
X140267500Y-138380000I147500J0D01*
G01*
X140562500Y-138380000D01*
G75*
G02*
X140710000Y-138527500I0J-147500D01*
G01*
G37*
G36*
G01*
X141680000Y-138527500D02*
X141680000Y-138872500D01*
G75*
G02*
X141532500Y-139020000I-147500J0D01*
G01*
X141237500Y-139020000D01*
G75*
G02*
X141090000Y-138872500I0J147500D01*
G01*
X141090000Y-138527500D01*
G75*
G02*
X141237500Y-138380000I147500J0D01*
G01*
X141532500Y-138380000D01*
G75*
G02*
X141680000Y-138527500I0J-147500D01*
G01*
G37*
G36*
G01*
X159822500Y-129160000D02*
X159477500Y-129160000D01*
G75*
G02*
X159330000Y-129012500I0J147500D01*
G01*
X159330000Y-128717500D01*
G75*
G02*
X159477500Y-128570000I147500J0D01*
G01*
X159822500Y-128570000D01*
G75*
G02*
X159970000Y-128717500I0J-147500D01*
G01*
X159970000Y-129012500D01*
G75*
G02*
X159822500Y-129160000I-147500J0D01*
G01*
G37*
G36*
G01*
X159822500Y-130130000D02*
X159477500Y-130130000D01*
G75*
G02*
X159330000Y-129982500I0J147500D01*
G01*
X159330000Y-129687500D01*
G75*
G02*
X159477500Y-129540000I147500J0D01*
G01*
X159822500Y-129540000D01*
G75*
G02*
X159970000Y-129687500I0J-147500D01*
G01*
X159970000Y-129982500D01*
G75*
G02*
X159822500Y-130130000I-147500J0D01*
G01*
G37*
G36*
G01*
X162877500Y-136490000D02*
X163222500Y-136490000D01*
G75*
G02*
X163370000Y-136637500I0J-147500D01*
G01*
X163370000Y-136932500D01*
G75*
G02*
X163222500Y-137080000I-147500J0D01*
G01*
X162877500Y-137080000D01*
G75*
G02*
X162730000Y-136932500I0J147500D01*
G01*
X162730000Y-136637500D01*
G75*
G02*
X162877500Y-136490000I147500J0D01*
G01*
G37*
G36*
G01*
X162877500Y-135520000D02*
X163222500Y-135520000D01*
G75*
G02*
X163370000Y-135667500I0J-147500D01*
G01*
X163370000Y-135962500D01*
G75*
G02*
X163222500Y-136110000I-147500J0D01*
G01*
X162877500Y-136110000D01*
G75*
G02*
X162730000Y-135962500I0J147500D01*
G01*
X162730000Y-135667500D01*
G75*
G02*
X162877500Y-135520000I147500J0D01*
G01*
G37*
G36*
G01*
X161777500Y-135520000D02*
X162122500Y-135520000D01*
G75*
G02*
X162270000Y-135667500I0J-147500D01*
G01*
X162270000Y-135962500D01*
G75*
G02*
X162122500Y-136110000I-147500J0D01*
G01*
X161777500Y-136110000D01*
G75*
G02*
X161630000Y-135962500I0J147500D01*
G01*
X161630000Y-135667500D01*
G75*
G02*
X161777500Y-135520000I147500J0D01*
G01*
G37*
G36*
G01*
X161777500Y-136490000D02*
X162122500Y-136490000D01*
G75*
G02*
X162270000Y-136637500I0J-147500D01*
G01*
X162270000Y-136932500D01*
G75*
G02*
X162122500Y-137080000I-147500J0D01*
G01*
X161777500Y-137080000D01*
G75*
G02*
X161630000Y-136932500I0J147500D01*
G01*
X161630000Y-136637500D01*
G75*
G02*
X161777500Y-136490000I147500J0D01*
G01*
G37*
D38*
X143450000Y-140920000D03*
D39*
X143400000Y-140520000D03*
X143400000Y-140120000D03*
X143400000Y-139720000D03*
X143400000Y-139320000D03*
X143400000Y-138920000D03*
X143400000Y-138520000D03*
X143400000Y-138120000D03*
X143400000Y-137720000D03*
X143400000Y-137320000D03*
X145200000Y-137320000D03*
X145200000Y-137720000D03*
X145200000Y-138120000D03*
X145200000Y-138520000D03*
X145200000Y-138920000D03*
X145200000Y-139320000D03*
X145200000Y-139720000D03*
X145200000Y-140120000D03*
X145200000Y-140520000D03*
X145200000Y-140920000D03*
D17*
X145350000Y-76220000D03*
X145750000Y-76220000D03*
X146150000Y-76220000D03*
X146550000Y-76220000D03*
X146950000Y-76220000D03*
X147350000Y-76220000D03*
X147750000Y-76220000D03*
X148150000Y-76220000D03*
X148550000Y-76220000D03*
X148950000Y-76220000D03*
X148950000Y-74420000D03*
X148550000Y-74420000D03*
X148150000Y-74420000D03*
X147750000Y-74420000D03*
X147350000Y-74420000D03*
X146950000Y-74420000D03*
X146550000Y-74420000D03*
X146150000Y-74420000D03*
X145750000Y-74420000D03*
D16*
X145350000Y-74470000D03*
M02*
