G04 #@! TF.GenerationSoftware,KiCad,Pcbnew,6.0.2+dfsg-1*
G04 #@! TF.CreationDate,2022-12-26T21:57:54-05:00*
G04 #@! TF.ProjectId,RUSP_TestBoard,52555350-5f54-4657-9374-426f6172642e,rev?*
G04 #@! TF.SameCoordinates,Original*
G04 #@! TF.FileFunction,Soldermask,Top*
G04 #@! TF.FilePolarity,Negative*
%FSLAX46Y46*%
G04 Gerber Fmt 4.6, Leading zero omitted, Abs format (unit mm)*
G04 Created by KiCad (PCBNEW 6.0.2+dfsg-1) date 2022-12-26 21:57:54*
%MOMM*%
%LPD*%
G01*
G04 APERTURE LIST*
%ADD10C,3.000000*%
%ADD11C,6.400000*%
%ADD12C,2.200000*%
%ADD13C,1.600000*%
%ADD14R,4.000000X4.000000*%
%ADD15R,1.500000X3.000000*%
%ADD16R,1.727200X1.727200*%
%ADD17O,1.727200X1.727200*%
%ADD18R,1.700000X1.700000*%
%ADD19C,1.700000*%
%ADD20C,4.000000*%
G04 APERTURE END LIST*
D10*
X110250000Y-138250000D03*
X124250000Y-124750000D03*
X139250000Y-89750000D03*
X129250000Y-145750000D03*
D11*
X152000000Y-162000000D03*
D10*
X124250000Y-121250000D03*
D11*
X94500000Y-36000000D03*
D10*
X119250000Y-128250000D03*
D11*
X94500000Y-162000000D03*
D10*
X124250000Y-133750000D03*
X91750000Y-120750000D03*
X124250000Y-128250000D03*
D12*
X123900000Y-160112500D03*
X137100000Y-165712500D03*
D13*
X135500000Y-164162500D03*
X133500000Y-164162500D03*
X131500000Y-164162500D03*
X129500000Y-164162500D03*
X127500000Y-164162500D03*
X125500000Y-164162500D03*
X135500000Y-161662500D03*
X133500000Y-161662500D03*
X131500000Y-161662500D03*
X129500000Y-161662500D03*
X127500000Y-161662500D03*
X125500000Y-161662500D03*
D10*
X144000000Y-148250000D03*
D14*
X93000000Y-67000000D03*
D10*
X119250000Y-124750000D03*
D11*
X152000000Y-52000000D03*
D10*
X129500000Y-60000000D03*
X119750000Y-135750000D03*
X119000000Y-60000000D03*
D15*
X110625000Y-44250000D03*
X121375000Y-44250000D03*
D14*
X93000000Y-75000000D03*
D10*
X138250000Y-143250000D03*
X110250000Y-142750000D03*
X142750000Y-89750000D03*
D16*
X108500000Y-157000000D03*
D17*
X108500000Y-159540000D03*
X111040000Y-157000000D03*
X111040000Y-159540000D03*
X113580000Y-157000000D03*
X113580000Y-159540000D03*
D18*
X148480000Y-43510000D03*
D19*
X145980000Y-43510000D03*
X145980000Y-41510000D03*
X148480000Y-41510000D03*
D20*
X153250000Y-38800000D03*
X141210000Y-38800000D03*
M02*
