G04 #@! TF.GenerationSoftware,KiCad,Pcbnew,6.0.2+dfsg-1*
G04 #@! TF.CreationDate,2022-12-26T21:57:54-05:00*
G04 #@! TF.ProjectId,RUSP_TestBoard,52555350-5f54-4657-9374-426f6172642e,rev?*
G04 #@! TF.SameCoordinates,Original*
G04 #@! TF.FileFunction,Legend,Bot*
G04 #@! TF.FilePolarity,Positive*
%FSLAX46Y46*%
G04 Gerber Fmt 4.6, Leading zero omitted, Abs format (unit mm)*
G04 Created by KiCad (PCBNEW 6.0.2+dfsg-1) date 2022-12-26 21:57:54*
%MOMM*%
%LPD*%
G01*
G04 APERTURE LIST*
%ADD10C,0.150000*%
%ADD11C,0.120000*%
G04 APERTURE END LIST*
D10*
X103802380Y-163416666D02*
X104516666Y-163416666D01*
X104659523Y-163369047D01*
X104754761Y-163273809D01*
X104802380Y-163130952D01*
X104802380Y-163035714D01*
X104802380Y-164416666D02*
X104802380Y-163845238D01*
X104802380Y-164130952D02*
X103802380Y-164130952D01*
X103945238Y-164035714D01*
X104040476Y-163940476D01*
X104088095Y-163845238D01*
X155047619Y-34833333D02*
X154333333Y-34833333D01*
X154190476Y-34880952D01*
X154095238Y-34976190D01*
X154047619Y-35119047D01*
X154047619Y-35214285D01*
X154952380Y-34404761D02*
X155000000Y-34357142D01*
X155047619Y-34261904D01*
X155047619Y-34023809D01*
X155000000Y-33928571D01*
X154952380Y-33880952D01*
X154857142Y-33833333D01*
X154761904Y-33833333D01*
X154619047Y-33880952D01*
X154047619Y-34452380D01*
X154047619Y-33833333D01*
X118000000Y-154000000D02*
X118000000Y-162500000D01*
X104000000Y-154000000D02*
X104000000Y-159500000D01*
X104000000Y-154000000D02*
X108500000Y-154000000D01*
X118000000Y-154000000D02*
X113500000Y-154000000D01*
X104000000Y-162500000D02*
X118000000Y-162500000D01*
X104000000Y-159500000D02*
X104000000Y-162500000D01*
D11*
X148480000Y-45330000D02*
X148980000Y-45830000D01*
X153390000Y-40850000D02*
X153390000Y-45110000D01*
X147980000Y-45830000D02*
X148480000Y-45330000D01*
X141070000Y-28390000D02*
X141070000Y-36750000D01*
X153390000Y-28390000D02*
X141070000Y-28390000D01*
X153390000Y-45110000D02*
X141070000Y-45110000D01*
X141070000Y-45110000D02*
X141070000Y-40850000D01*
X153390000Y-36750000D02*
X153390000Y-28390000D01*
M02*
