G04 #@! TF.GenerationSoftware,KiCad,Pcbnew,6.0.2+dfsg-1*
G04 #@! TF.CreationDate,2022-12-26T21:57:54-05:00*
G04 #@! TF.ProjectId,RUSP_TestBoard,52555350-5f54-4657-9374-426f6172642e,rev?*
G04 #@! TF.SameCoordinates,Original*
G04 #@! TF.FileFunction,Copper,L2,Bot*
G04 #@! TF.FilePolarity,Positive*
%FSLAX46Y46*%
G04 Gerber Fmt 4.6, Leading zero omitted, Abs format (unit mm)*
G04 Created by KiCad (PCBNEW 6.0.2+dfsg-1) date 2022-12-26 21:57:54*
%MOMM*%
%LPD*%
G01*
G04 APERTURE LIST*
G04 #@! TA.AperFunction,ComponentPad*
%ADD10C,3.000000*%
G04 #@! TD*
G04 #@! TA.AperFunction,ComponentPad*
%ADD11C,6.400000*%
G04 #@! TD*
G04 #@! TA.AperFunction,ComponentPad*
%ADD12C,2.200000*%
G04 #@! TD*
G04 #@! TA.AperFunction,ComponentPad*
%ADD13C,1.600000*%
G04 #@! TD*
G04 #@! TA.AperFunction,ComponentPad*
%ADD14R,1.727200X1.727200*%
G04 #@! TD*
G04 #@! TA.AperFunction,ComponentPad*
%ADD15O,1.727200X1.727200*%
G04 #@! TD*
G04 #@! TA.AperFunction,ComponentPad*
%ADD16R,1.700000X1.700000*%
G04 #@! TD*
G04 #@! TA.AperFunction,ComponentPad*
%ADD17C,1.700000*%
G04 #@! TD*
G04 #@! TA.AperFunction,ComponentPad*
%ADD18C,4.000000*%
G04 #@! TD*
G04 #@! TA.AperFunction,ViaPad*
%ADD19C,0.800000*%
G04 #@! TD*
G04 #@! TA.AperFunction,Conductor*
%ADD20C,0.250000*%
G04 #@! TD*
G04 APERTURE END LIST*
D10*
X110250000Y-138250000D03*
X124250000Y-124750000D03*
X139250000Y-89750000D03*
X129250000Y-145750000D03*
D11*
X152000000Y-162000000D03*
D10*
X124250000Y-121250000D03*
D11*
X94500000Y-36000000D03*
D10*
X119250000Y-128250000D03*
D11*
X94500000Y-162000000D03*
D10*
X124250000Y-133750000D03*
X91750000Y-120750000D03*
X124250000Y-128250000D03*
D12*
X123900000Y-160112500D03*
X137100000Y-165712500D03*
D13*
X135500000Y-164162500D03*
X133500000Y-164162500D03*
X131500000Y-164162500D03*
X129500000Y-164162500D03*
X127500000Y-164162500D03*
X125500000Y-164162500D03*
X135500000Y-161662500D03*
X133500000Y-161662500D03*
X131500000Y-161662500D03*
X129500000Y-161662500D03*
X127500000Y-161662500D03*
X125500000Y-161662500D03*
D10*
X144000000Y-148250000D03*
X119250000Y-124750000D03*
D11*
X152000000Y-52000000D03*
D10*
X129500000Y-60000000D03*
X119750000Y-135750000D03*
X119000000Y-60000000D03*
X138250000Y-143250000D03*
X110250000Y-142750000D03*
X142750000Y-89750000D03*
D14*
X108500000Y-157000000D03*
D15*
X108500000Y-159540000D03*
X111040000Y-157000000D03*
X111040000Y-159540000D03*
X113580000Y-157000000D03*
X113580000Y-159540000D03*
D16*
X148480000Y-43510000D03*
D17*
X145980000Y-43510000D03*
X145980000Y-41510000D03*
X148480000Y-41510000D03*
D18*
X153250000Y-38800000D03*
X141210000Y-38800000D03*
D19*
X121500000Y-156750000D03*
X136500000Y-160000000D03*
D20*
X108500000Y-159540000D02*
X106750000Y-157790000D01*
X106750000Y-157790000D02*
X106750000Y-146250000D01*
X106750000Y-146250000D02*
X110250000Y-142750000D01*
X121750000Y-157000000D02*
X121500000Y-156750000D01*
X123500000Y-157000000D02*
X121750000Y-157000000D01*
X124250000Y-133750000D02*
X121574511Y-136425489D01*
X121574511Y-136425489D02*
X121574511Y-136505738D01*
X121574511Y-136505738D02*
X119250000Y-138830249D01*
X124772936Y-163000000D02*
X130337500Y-163000000D01*
X119250000Y-138830249D02*
X119250000Y-157477064D01*
X119250000Y-157477064D02*
X124772936Y-163000000D01*
X130337500Y-163000000D02*
X131500000Y-164162500D01*
X128837500Y-157000000D02*
X123500000Y-157000000D01*
X133500000Y-161662500D02*
X128837500Y-157000000D01*
X124250000Y-124750000D02*
X122250000Y-126750000D01*
X122250000Y-126750000D02*
X122250000Y-128750000D01*
X122250000Y-128750000D02*
X117000000Y-134000000D01*
X117000000Y-134000000D02*
X117000000Y-157750000D01*
X128750000Y-165750000D02*
X129500000Y-165000000D01*
X117000000Y-157750000D02*
X125000000Y-165750000D01*
X125000000Y-165750000D02*
X128750000Y-165750000D01*
X129500000Y-165000000D02*
X129500000Y-164162500D01*
X136500000Y-160662500D02*
X135500000Y-161662500D01*
X136500000Y-160000000D02*
X136500000Y-160662500D01*
X124250000Y-128250000D02*
X117925489Y-134574511D01*
X117925489Y-134574511D02*
X117925489Y-157719359D01*
X124368630Y-164162500D02*
X125500000Y-164162500D01*
X117925489Y-157719359D02*
X124368630Y-164162500D01*
X138250000Y-138000000D02*
X147000000Y-129250000D01*
X147000000Y-129250000D02*
X147000000Y-46191010D01*
X148480000Y-44711010D02*
X148480000Y-43510000D01*
X147000000Y-46191010D02*
X148480000Y-44711010D01*
X138250000Y-143250000D02*
X138250000Y-138000000D01*
G04 #@! TA.AperFunction,Conductor*
G36*
X156542121Y-31420002D02*
G01*
X156588614Y-31473658D01*
X156600000Y-31526000D01*
X156600000Y-166474000D01*
X156579998Y-166542121D01*
X156526342Y-166588614D01*
X156474000Y-166600000D01*
X138538037Y-166600000D01*
X138469916Y-166579998D01*
X138423423Y-166526342D01*
X138413319Y-166456068D01*
X138425080Y-166418173D01*
X138436150Y-166395774D01*
X138499911Y-166266764D01*
X138521712Y-166195008D01*
X138570135Y-166035632D01*
X138570136Y-166035626D01*
X138571639Y-166030680D01*
X138603845Y-165786050D01*
X138605643Y-165712500D01*
X138590406Y-165527169D01*
X138585849Y-165471740D01*
X138585848Y-165471734D01*
X138585425Y-165466589D01*
X138525316Y-165227283D01*
X138426928Y-165001007D01*
X138292905Y-164793839D01*
X138126846Y-164611342D01*
X138122795Y-164608143D01*
X138122791Y-164608139D01*
X137937264Y-164461619D01*
X137937259Y-164461616D01*
X137933210Y-164458418D01*
X137928694Y-164455925D01*
X137928691Y-164455923D01*
X137721722Y-164341670D01*
X137721718Y-164341668D01*
X137717198Y-164339173D01*
X137712329Y-164337449D01*
X137712325Y-164337447D01*
X137489485Y-164258535D01*
X137489481Y-164258534D01*
X137484610Y-164256809D01*
X137479517Y-164255902D01*
X137479514Y-164255901D01*
X137246783Y-164214445D01*
X137246777Y-164214444D01*
X137241694Y-164213539D01*
X137162324Y-164212569D01*
X137000142Y-164210588D01*
X137000140Y-164210588D01*
X136994972Y-164210525D01*
X136908167Y-164223808D01*
X136846291Y-164233276D01*
X136775928Y-164223808D01*
X136721854Y-164177802D01*
X136701761Y-164120255D01*
X136701667Y-164119225D01*
X136685454Y-163942789D01*
X136625565Y-163730436D01*
X136527980Y-163532553D01*
X136395967Y-163355767D01*
X136233949Y-163205999D01*
X136047350Y-163088264D01*
X135899124Y-163029128D01*
X135843266Y-162985309D01*
X135819965Y-162918245D01*
X135836621Y-162849229D01*
X135887945Y-162800175D01*
X135905313Y-162792786D01*
X135912830Y-162790234D01*
X135990379Y-162763910D01*
X136182884Y-162656102D01*
X136352518Y-162515018D01*
X136433476Y-162417677D01*
X136489908Y-162349826D01*
X136489910Y-162349823D01*
X136493602Y-162345384D01*
X136601410Y-162152879D01*
X136603266Y-162147412D01*
X136603268Y-162147407D01*
X136653306Y-162000000D01*
X148394559Y-162000000D01*
X148414310Y-162376871D01*
X148414823Y-162380111D01*
X148414824Y-162380119D01*
X148436254Y-162515418D01*
X148473347Y-162749613D01*
X148571022Y-163114143D01*
X148572207Y-163117231D01*
X148572208Y-163117233D01*
X148605099Y-163202917D01*
X148706266Y-163466465D01*
X148877597Y-163802720D01*
X148879393Y-163805486D01*
X148879395Y-163805489D01*
X148972297Y-163948546D01*
X149083137Y-164119225D01*
X149320635Y-164412511D01*
X149587489Y-164679365D01*
X149880775Y-164916863D01*
X149961033Y-164968983D01*
X150166890Y-165102668D01*
X150197279Y-165122403D01*
X150200213Y-165123898D01*
X150200220Y-165123902D01*
X150483261Y-165268118D01*
X150533535Y-165293734D01*
X150885857Y-165428978D01*
X151250387Y-165526653D01*
X151448353Y-165558008D01*
X151619881Y-165585176D01*
X151619889Y-165585177D01*
X151623129Y-165585690D01*
X152000000Y-165605441D01*
X152376871Y-165585690D01*
X152380111Y-165585177D01*
X152380119Y-165585176D01*
X152551647Y-165558008D01*
X152749613Y-165526653D01*
X153114143Y-165428978D01*
X153466465Y-165293734D01*
X153516739Y-165268118D01*
X153799780Y-165123902D01*
X153799787Y-165123898D01*
X153802721Y-165122403D01*
X153833111Y-165102668D01*
X154038967Y-164968983D01*
X154119225Y-164916863D01*
X154412511Y-164679365D01*
X154679365Y-164412511D01*
X154916863Y-164119225D01*
X155027703Y-163948546D01*
X155120605Y-163805489D01*
X155120607Y-163805486D01*
X155122403Y-163802720D01*
X155293734Y-163466465D01*
X155394901Y-163202917D01*
X155427792Y-163117233D01*
X155427793Y-163117231D01*
X155428978Y-163114143D01*
X155526653Y-162749613D01*
X155563746Y-162515418D01*
X155585176Y-162380119D01*
X155585177Y-162380111D01*
X155585690Y-162376871D01*
X155605441Y-162000000D01*
X155585690Y-161623129D01*
X155526653Y-161250387D01*
X155428978Y-160885857D01*
X155420745Y-160864408D01*
X155376044Y-160747959D01*
X155293734Y-160533535D01*
X155288194Y-160522663D01*
X155123902Y-160200221D01*
X155123898Y-160200214D01*
X155122403Y-160197280D01*
X155110515Y-160178973D01*
X154918665Y-159883550D01*
X154916863Y-159880775D01*
X154679365Y-159587489D01*
X154412511Y-159320635D01*
X154119225Y-159083137D01*
X153853287Y-158910435D01*
X153805490Y-158879395D01*
X153805487Y-158879393D01*
X153802721Y-158877597D01*
X153799787Y-158876102D01*
X153799780Y-158876098D01*
X153469405Y-158707764D01*
X153466465Y-158706266D01*
X153224739Y-158613476D01*
X153117233Y-158572208D01*
X153117231Y-158572207D01*
X153114143Y-158571022D01*
X152749613Y-158473347D01*
X152531159Y-158438747D01*
X152380119Y-158414824D01*
X152380111Y-158414823D01*
X152376871Y-158414310D01*
X152000000Y-158394559D01*
X151623129Y-158414310D01*
X151619889Y-158414823D01*
X151619881Y-158414824D01*
X151468841Y-158438747D01*
X151250387Y-158473347D01*
X150885857Y-158571022D01*
X150882769Y-158572207D01*
X150882767Y-158572208D01*
X150775261Y-158613476D01*
X150533535Y-158706266D01*
X150530595Y-158707764D01*
X150200221Y-158876098D01*
X150200214Y-158876102D01*
X150197280Y-158877597D01*
X150194514Y-158879393D01*
X150194511Y-158879395D01*
X150049705Y-158973433D01*
X149880775Y-159083137D01*
X149587489Y-159320635D01*
X149320635Y-159587489D01*
X149083137Y-159880775D01*
X149081335Y-159883550D01*
X148889486Y-160178973D01*
X148877597Y-160197280D01*
X148876102Y-160200214D01*
X148876098Y-160200221D01*
X148711806Y-160522663D01*
X148706266Y-160533535D01*
X148623956Y-160747959D01*
X148579256Y-160864408D01*
X148571022Y-160885857D01*
X148473347Y-161250387D01*
X148414310Y-161623129D01*
X148394559Y-162000000D01*
X136653306Y-162000000D01*
X136670475Y-161949421D01*
X136670476Y-161949416D01*
X136672331Y-161943952D01*
X136673159Y-161938243D01*
X136673160Y-161938238D01*
X136703458Y-161729272D01*
X136703991Y-161725598D01*
X136705643Y-161662500D01*
X136685454Y-161442789D01*
X136656536Y-161340253D01*
X136657296Y-161269263D01*
X136688710Y-161216959D01*
X136861364Y-161044305D01*
X136865173Y-161040652D01*
X136902385Y-161006434D01*
X136908712Y-161000616D01*
X136930465Y-160965532D01*
X136937182Y-160955760D01*
X136956935Y-160929736D01*
X136962128Y-160922895D01*
X136967224Y-160910024D01*
X136977292Y-160890007D01*
X136977886Y-160889049D01*
X136984582Y-160878250D01*
X136989105Y-160862684D01*
X136996094Y-160838626D01*
X136999939Y-160827397D01*
X137011968Y-160797014D01*
X137011968Y-160797012D01*
X137015130Y-160789027D01*
X137016577Y-160775258D01*
X137020890Y-160753276D01*
X137022908Y-160746330D01*
X137024751Y-160739988D01*
X137025500Y-160729788D01*
X137025500Y-160696971D01*
X137026190Y-160683800D01*
X137030180Y-160645838D01*
X137032863Y-160646120D01*
X137047290Y-160590591D01*
X137068480Y-160564106D01*
X137117099Y-160517807D01*
X137216483Y-160368222D01*
X137263592Y-160244208D01*
X137277757Y-160206919D01*
X137277758Y-160206914D01*
X137280257Y-160200336D01*
X137282736Y-160182697D01*
X137304700Y-160026416D01*
X137304700Y-160026411D01*
X137305251Y-160022493D01*
X137305565Y-160000000D01*
X137285546Y-159821528D01*
X137279427Y-159803955D01*
X137228803Y-159658584D01*
X137226485Y-159651927D01*
X137131316Y-159499625D01*
X137067771Y-159435635D01*
X137009733Y-159377190D01*
X137009729Y-159377187D01*
X137004770Y-159372193D01*
X136993761Y-159365206D01*
X136886893Y-159297386D01*
X136853136Y-159275963D01*
X136823352Y-159265357D01*
X136690586Y-159218081D01*
X136690581Y-159218080D01*
X136683951Y-159215719D01*
X136676965Y-159214886D01*
X136676961Y-159214885D01*
X136536888Y-159198183D01*
X136505624Y-159194455D01*
X136498621Y-159195191D01*
X136498620Y-159195191D01*
X136334025Y-159212490D01*
X136334021Y-159212491D01*
X136327017Y-159213227D01*
X136320346Y-159215498D01*
X136163677Y-159268832D01*
X136163674Y-159268833D01*
X136157007Y-159271103D01*
X136151009Y-159274793D01*
X136151007Y-159274794D01*
X136086725Y-159314341D01*
X136004045Y-159365206D01*
X135999014Y-159370132D01*
X135999011Y-159370135D01*
X135956260Y-159412000D01*
X135875732Y-159490859D01*
X135871913Y-159496784D01*
X135871912Y-159496786D01*
X135784582Y-159632296D01*
X135778446Y-159641817D01*
X135717022Y-159810578D01*
X135694514Y-159988753D01*
X135695201Y-159995760D01*
X135695201Y-159995763D01*
X135695644Y-160000280D01*
X135712039Y-160167486D01*
X135714262Y-160174168D01*
X135714262Y-160174169D01*
X135755650Y-160298587D01*
X135758172Y-160369538D01*
X135721935Y-160430591D01*
X135658443Y-160462360D01*
X135626409Y-160463539D01*
X135626024Y-160463462D01*
X135620252Y-160463386D01*
X135620248Y-160463386D01*
X135503989Y-160461865D01*
X135405406Y-160460574D01*
X135399709Y-160461553D01*
X135399708Y-160461553D01*
X135193654Y-160496959D01*
X135193653Y-160496959D01*
X135187957Y-160497938D01*
X134980957Y-160574304D01*
X134975996Y-160577256D01*
X134975995Y-160577256D01*
X134860246Y-160646120D01*
X134791341Y-160687114D01*
X134625457Y-160832590D01*
X134621878Y-160837130D01*
X134621877Y-160837131D01*
X134600374Y-160864408D01*
X134542494Y-160905522D01*
X134471573Y-160908816D01*
X134410131Y-160873245D01*
X134400465Y-160861791D01*
X134399418Y-160860389D01*
X134395967Y-160855767D01*
X134264052Y-160733826D01*
X134238189Y-160709918D01*
X134238186Y-160709916D01*
X134233949Y-160705999D01*
X134047350Y-160588264D01*
X133842421Y-160506506D01*
X133836761Y-160505380D01*
X133836757Y-160505379D01*
X133631691Y-160464589D01*
X133631688Y-160464589D01*
X133626024Y-160463462D01*
X133620249Y-160463386D01*
X133620245Y-160463386D01*
X133509504Y-160461937D01*
X133405406Y-160460574D01*
X133399709Y-160461553D01*
X133399708Y-160461553D01*
X133193647Y-160496960D01*
X133193644Y-160496961D01*
X133187957Y-160497938D01*
X133182540Y-160499936D01*
X133176959Y-160501432D01*
X133176569Y-160499976D01*
X133112932Y-160504306D01*
X133051044Y-160470374D01*
X129219305Y-156638636D01*
X129215652Y-156634827D01*
X129181434Y-156597615D01*
X129175616Y-156591288D01*
X129140544Y-156569542D01*
X129130762Y-156562819D01*
X129104740Y-156543067D01*
X129097896Y-156537872D01*
X129089909Y-156534710D01*
X129089906Y-156534708D01*
X129085017Y-156532772D01*
X129065016Y-156522713D01*
X129053250Y-156515418D01*
X129013619Y-156503904D01*
X129002395Y-156500060D01*
X128972016Y-156488033D01*
X128972013Y-156488032D01*
X128964028Y-156484871D01*
X128955491Y-156483974D01*
X128955484Y-156483972D01*
X128950261Y-156483423D01*
X128928284Y-156479112D01*
X128921322Y-156477089D01*
X128921320Y-156477089D01*
X128914988Y-156475249D01*
X128908173Y-156474749D01*
X128907096Y-156474669D01*
X128907083Y-156474669D01*
X128904788Y-156474500D01*
X128871961Y-156474500D01*
X128858790Y-156473810D01*
X128820838Y-156469821D01*
X128812372Y-156471253D01*
X128812369Y-156471253D01*
X128803602Y-156472736D01*
X128782590Y-156474500D01*
X122339732Y-156474500D01*
X122271611Y-156454498D01*
X122227320Y-156404325D01*
X122226485Y-156401927D01*
X122131316Y-156249625D01*
X122062623Y-156180451D01*
X122009733Y-156127190D01*
X122009729Y-156127187D01*
X122004770Y-156122193D01*
X121993761Y-156115206D01*
X121862398Y-156031841D01*
X121853136Y-156025963D01*
X121786565Y-156002258D01*
X121690586Y-155968081D01*
X121690581Y-155968080D01*
X121683951Y-155965719D01*
X121676965Y-155964886D01*
X121676961Y-155964885D01*
X121549177Y-155949648D01*
X121505624Y-155944455D01*
X121498621Y-155945191D01*
X121498620Y-155945191D01*
X121334025Y-155962490D01*
X121334021Y-155962491D01*
X121327017Y-155963227D01*
X121320346Y-155965498D01*
X121163677Y-156018832D01*
X121163674Y-156018833D01*
X121157007Y-156021103D01*
X121151009Y-156024793D01*
X121151007Y-156024794D01*
X121080526Y-156068155D01*
X121004045Y-156115206D01*
X120999014Y-156120132D01*
X120999011Y-156120135D01*
X120991807Y-156127190D01*
X120875732Y-156240859D01*
X120871913Y-156246784D01*
X120871912Y-156246786D01*
X120843461Y-156290933D01*
X120778446Y-156391817D01*
X120717022Y-156560578D01*
X120694514Y-156738753D01*
X120695201Y-156745760D01*
X120695201Y-156745763D01*
X120703276Y-156828119D01*
X120712039Y-156917486D01*
X120714262Y-156924168D01*
X120714262Y-156924169D01*
X120741309Y-157005475D01*
X120768726Y-157087896D01*
X120861759Y-157241512D01*
X120986514Y-157370699D01*
X121136789Y-157469036D01*
X121305116Y-157531636D01*
X121312097Y-157532567D01*
X121312099Y-157532568D01*
X121476149Y-157554457D01*
X121476153Y-157554457D01*
X121483130Y-157555388D01*
X121490142Y-157554750D01*
X121490146Y-157554750D01*
X121654963Y-157539751D01*
X121654966Y-157539750D01*
X121661981Y-157539112D01*
X121682869Y-157532325D01*
X121734973Y-157526849D01*
X121758117Y-157529281D01*
X121766661Y-157530179D01*
X121775127Y-157528747D01*
X121775130Y-157528747D01*
X121783897Y-157527264D01*
X121804909Y-157525500D01*
X128567641Y-157525500D01*
X128635762Y-157545502D01*
X128656736Y-157562405D01*
X131360917Y-160266586D01*
X131394943Y-160328898D01*
X131389878Y-160399713D01*
X131347331Y-160456549D01*
X131293160Y-160479861D01*
X131193654Y-160496959D01*
X131193653Y-160496959D01*
X131187957Y-160497938D01*
X130980957Y-160574304D01*
X130975996Y-160577256D01*
X130975995Y-160577256D01*
X130860246Y-160646120D01*
X130791341Y-160687114D01*
X130625457Y-160832590D01*
X130621878Y-160837130D01*
X130621877Y-160837131D01*
X130600374Y-160864408D01*
X130542494Y-160905522D01*
X130471573Y-160908816D01*
X130410131Y-160873245D01*
X130400465Y-160861791D01*
X130399418Y-160860389D01*
X130395967Y-160855767D01*
X130264052Y-160733826D01*
X130238189Y-160709918D01*
X130238186Y-160709916D01*
X130233949Y-160705999D01*
X130047350Y-160588264D01*
X129842421Y-160506506D01*
X129836761Y-160505380D01*
X129836757Y-160505379D01*
X129631691Y-160464589D01*
X129631688Y-160464589D01*
X129626024Y-160463462D01*
X129620249Y-160463386D01*
X129620245Y-160463386D01*
X129509504Y-160461937D01*
X129405406Y-160460574D01*
X129399709Y-160461553D01*
X129399708Y-160461553D01*
X129193654Y-160496959D01*
X129193653Y-160496959D01*
X129187957Y-160497938D01*
X128980957Y-160574304D01*
X128975996Y-160577256D01*
X128975995Y-160577256D01*
X128860246Y-160646120D01*
X128791341Y-160687114D01*
X128625457Y-160832590D01*
X128621878Y-160837130D01*
X128621877Y-160837131D01*
X128600374Y-160864408D01*
X128542494Y-160905522D01*
X128471573Y-160908816D01*
X128410131Y-160873245D01*
X128400465Y-160861791D01*
X128399418Y-160860389D01*
X128395967Y-160855767D01*
X128264052Y-160733826D01*
X128238189Y-160709918D01*
X128238186Y-160709916D01*
X128233949Y-160705999D01*
X128047350Y-160588264D01*
X127842421Y-160506506D01*
X127836761Y-160505380D01*
X127836757Y-160505379D01*
X127631691Y-160464589D01*
X127631688Y-160464589D01*
X127626024Y-160463462D01*
X127620249Y-160463386D01*
X127620245Y-160463386D01*
X127509504Y-160461937D01*
X127405406Y-160460574D01*
X127399709Y-160461553D01*
X127399708Y-160461553D01*
X127193654Y-160496959D01*
X127193653Y-160496959D01*
X127187957Y-160497938D01*
X126980957Y-160574304D01*
X126975996Y-160577256D01*
X126975995Y-160577256D01*
X126860246Y-160646120D01*
X126791341Y-160687114D01*
X126625457Y-160832590D01*
X126621878Y-160837130D01*
X126621877Y-160837131D01*
X126600374Y-160864408D01*
X126542494Y-160905522D01*
X126471573Y-160908816D01*
X126410131Y-160873245D01*
X126400465Y-160861791D01*
X126399418Y-160860389D01*
X126395967Y-160855767D01*
X126264052Y-160733826D01*
X126238189Y-160709918D01*
X126238186Y-160709916D01*
X126233949Y-160705999D01*
X126047350Y-160588264D01*
X125842421Y-160506506D01*
X125836761Y-160505380D01*
X125836757Y-160505379D01*
X125631691Y-160464589D01*
X125631688Y-160464589D01*
X125626024Y-160463462D01*
X125620249Y-160463386D01*
X125620245Y-160463386D01*
X125509548Y-160461937D01*
X125441695Y-160441045D01*
X125395909Y-160386785D01*
X125386276Y-160319502D01*
X125403408Y-160189372D01*
X125403409Y-160189366D01*
X125403845Y-160186050D01*
X125404128Y-160174464D01*
X125405561Y-160115864D01*
X125405561Y-160115860D01*
X125405643Y-160112500D01*
X125395469Y-159988753D01*
X125385849Y-159871740D01*
X125385848Y-159871734D01*
X125385425Y-159866589D01*
X125325316Y-159627283D01*
X125226928Y-159401007D01*
X125092905Y-159193839D01*
X125066635Y-159164968D01*
X125007757Y-159100262D01*
X124926846Y-159011342D01*
X124922795Y-159008143D01*
X124922791Y-159008139D01*
X124737264Y-158861619D01*
X124737259Y-158861616D01*
X124733210Y-158858418D01*
X124728694Y-158855925D01*
X124728691Y-158855923D01*
X124521722Y-158741670D01*
X124521718Y-158741668D01*
X124517198Y-158739173D01*
X124512329Y-158737449D01*
X124512325Y-158737447D01*
X124289485Y-158658535D01*
X124289481Y-158658534D01*
X124284610Y-158656809D01*
X124279517Y-158655902D01*
X124279514Y-158655901D01*
X124046783Y-158614445D01*
X124046777Y-158614444D01*
X124041694Y-158613539D01*
X123962324Y-158612569D01*
X123800142Y-158610588D01*
X123800140Y-158610588D01*
X123794972Y-158610525D01*
X123551070Y-158647847D01*
X123316540Y-158724503D01*
X123097679Y-158838435D01*
X123093546Y-158841538D01*
X123093543Y-158841540D01*
X122945080Y-158953009D01*
X122900364Y-158986583D01*
X122729896Y-159164968D01*
X122726982Y-159169240D01*
X122726981Y-159169241D01*
X122654978Y-159274794D01*
X122590851Y-159368800D01*
X122486965Y-159592604D01*
X122471480Y-159648440D01*
X122462578Y-159680539D01*
X122425099Y-159740837D01*
X122360969Y-159771299D01*
X122290551Y-159762255D01*
X122252066Y-159735961D01*
X119812405Y-157296300D01*
X119778379Y-157233988D01*
X119775500Y-157207205D01*
X119775500Y-148190151D01*
X142095585Y-148190151D01*
X142095760Y-148194602D01*
X142102763Y-148372820D01*
X142106152Y-148459083D01*
X142154505Y-148723843D01*
X142239682Y-148979148D01*
X142359981Y-149219905D01*
X142513003Y-149441309D01*
X142516025Y-149444578D01*
X142692679Y-149635682D01*
X142692684Y-149635687D01*
X142695695Y-149638944D01*
X142904411Y-149808866D01*
X142908229Y-149811165D01*
X142908231Y-149811166D01*
X143131170Y-149945386D01*
X143134987Y-149947684D01*
X143139082Y-149949418D01*
X143139084Y-149949419D01*
X143378721Y-150050892D01*
X143378728Y-150050894D01*
X143382822Y-150052628D01*
X143478710Y-150078052D01*
X143638675Y-150120467D01*
X143638680Y-150120468D01*
X143642972Y-150121606D01*
X143647381Y-150122128D01*
X143647387Y-150122129D01*
X143796289Y-150139752D01*
X143910245Y-150153240D01*
X144179310Y-150146899D01*
X144183708Y-150146167D01*
X144440406Y-150103441D01*
X144440410Y-150103440D01*
X144444796Y-150102710D01*
X144449037Y-150101369D01*
X144449040Y-150101368D01*
X144697162Y-150022897D01*
X144697164Y-150022896D01*
X144701408Y-150021554D01*
X144705419Y-150019628D01*
X144705424Y-150019626D01*
X144940006Y-149906981D01*
X144940007Y-149906980D01*
X144944025Y-149905051D01*
X144947731Y-149902575D01*
X145164098Y-149758004D01*
X145164102Y-149758001D01*
X145167806Y-149755526D01*
X145171123Y-149752555D01*
X145171127Y-149752552D01*
X145364970Y-149578931D01*
X145368286Y-149575961D01*
X145381180Y-149560622D01*
X145538601Y-149373348D01*
X145538606Y-149373342D01*
X145541465Y-149369940D01*
X145683887Y-149141572D01*
X145792712Y-148895416D01*
X145865767Y-148636382D01*
X145901595Y-148369638D01*
X145905355Y-148250000D01*
X145886347Y-147981533D01*
X145829700Y-147718423D01*
X145810188Y-147665531D01*
X145738090Y-147470101D01*
X145738089Y-147470099D01*
X145736547Y-147465919D01*
X145705249Y-147407913D01*
X145610857Y-147232976D01*
X145608744Y-147229060D01*
X145448843Y-147012571D01*
X145260034Y-146820772D01*
X145046083Y-146657490D01*
X145024402Y-146645348D01*
X144815147Y-146528159D01*
X144815144Y-146528158D01*
X144811261Y-146525983D01*
X144807122Y-146524382D01*
X144807114Y-146524378D01*
X144621566Y-146452596D01*
X144560251Y-146428875D01*
X144555926Y-146427872D01*
X144555921Y-146427871D01*
X144397356Y-146391118D01*
X144298063Y-146368103D01*
X144029928Y-146344880D01*
X144025493Y-146345124D01*
X144025489Y-146345124D01*
X143916324Y-146351132D01*
X143761196Y-146359669D01*
X143756833Y-146360537D01*
X143756832Y-146360537D01*
X143501596Y-146411307D01*
X143501594Y-146411308D01*
X143497228Y-146412176D01*
X143243292Y-146501352D01*
X143004455Y-146625418D01*
X143000840Y-146628001D01*
X143000834Y-146628005D01*
X142955793Y-146660192D01*
X142785481Y-146781899D01*
X142782254Y-146784977D01*
X142782252Y-146784979D01*
X142614949Y-146944578D01*
X142590740Y-146967672D01*
X142424118Y-147179032D01*
X142363264Y-147283801D01*
X142291173Y-147407913D01*
X142291170Y-147407919D01*
X142288939Y-147411760D01*
X142287269Y-147415883D01*
X142203731Y-147622129D01*
X142187900Y-147661213D01*
X142186829Y-147665526D01*
X142186827Y-147665531D01*
X142173689Y-147718423D01*
X142123017Y-147922414D01*
X142095585Y-148190151D01*
X119775500Y-148190151D01*
X119775500Y-145690151D01*
X127345585Y-145690151D01*
X127345760Y-145694602D01*
X127352763Y-145872820D01*
X127356152Y-145959083D01*
X127404505Y-146223843D01*
X127489682Y-146479148D01*
X127491674Y-146483135D01*
X127491675Y-146483137D01*
X127562769Y-146625418D01*
X127609981Y-146719905D01*
X127763003Y-146941309D01*
X127766025Y-146944578D01*
X127942679Y-147135682D01*
X127942684Y-147135687D01*
X127945695Y-147138944D01*
X128154411Y-147308866D01*
X128158229Y-147311165D01*
X128158231Y-147311166D01*
X128325317Y-147411760D01*
X128384987Y-147447684D01*
X128389082Y-147449418D01*
X128389084Y-147449419D01*
X128628721Y-147550892D01*
X128628728Y-147550894D01*
X128632822Y-147552628D01*
X128728710Y-147578052D01*
X128888675Y-147620467D01*
X128888680Y-147620468D01*
X128892972Y-147621606D01*
X128897381Y-147622128D01*
X128897387Y-147622129D01*
X129046289Y-147639752D01*
X129160245Y-147653240D01*
X129429310Y-147646899D01*
X129433708Y-147646167D01*
X129690406Y-147603441D01*
X129690410Y-147603440D01*
X129694796Y-147602710D01*
X129699037Y-147601369D01*
X129699040Y-147601368D01*
X129947162Y-147522897D01*
X129947164Y-147522896D01*
X129951408Y-147521554D01*
X129955419Y-147519628D01*
X129955424Y-147519626D01*
X130190006Y-147406981D01*
X130190007Y-147406980D01*
X130194025Y-147405051D01*
X130197731Y-147402575D01*
X130414098Y-147258004D01*
X130414102Y-147258001D01*
X130417806Y-147255526D01*
X130421123Y-147252555D01*
X130421127Y-147252552D01*
X130614970Y-147078931D01*
X130618286Y-147075961D01*
X130709313Y-146967672D01*
X130788601Y-146873348D01*
X130788606Y-146873342D01*
X130791465Y-146869940D01*
X130933887Y-146641572D01*
X131042712Y-146395416D01*
X131115767Y-146136382D01*
X131123396Y-146079583D01*
X131151168Y-145872820D01*
X131151169Y-145872812D01*
X131151595Y-145869638D01*
X131155355Y-145750000D01*
X131136347Y-145481533D01*
X131079700Y-145218423D01*
X131060188Y-145165531D01*
X130988090Y-144970101D01*
X130988089Y-144970099D01*
X130986547Y-144965919D01*
X130955249Y-144907913D01*
X130860857Y-144732976D01*
X130858744Y-144729060D01*
X130698843Y-144512571D01*
X130510034Y-144320772D01*
X130296083Y-144157490D01*
X130274402Y-144145348D01*
X130065147Y-144028159D01*
X130065144Y-144028158D01*
X130061261Y-144025983D01*
X130057122Y-144024382D01*
X130057114Y-144024378D01*
X129871566Y-143952596D01*
X129810251Y-143928875D01*
X129805926Y-143927872D01*
X129805921Y-143927871D01*
X129647356Y-143891118D01*
X129548063Y-143868103D01*
X129279928Y-143844880D01*
X129275493Y-143845124D01*
X129275489Y-143845124D01*
X129166324Y-143851132D01*
X129011196Y-143859669D01*
X129006833Y-143860537D01*
X129006832Y-143860537D01*
X128751596Y-143911307D01*
X128751594Y-143911308D01*
X128747228Y-143912176D01*
X128493292Y-144001352D01*
X128254455Y-144125418D01*
X128250840Y-144128001D01*
X128250834Y-144128005D01*
X128205793Y-144160192D01*
X128035481Y-144281899D01*
X128032254Y-144284977D01*
X128032252Y-144284979D01*
X127861693Y-144447684D01*
X127840740Y-144467672D01*
X127674118Y-144679032D01*
X127613264Y-144783801D01*
X127541173Y-144907913D01*
X127541170Y-144907919D01*
X127538939Y-144911760D01*
X127537269Y-144915883D01*
X127453731Y-145122129D01*
X127437900Y-145161213D01*
X127436829Y-145165526D01*
X127436827Y-145165531D01*
X127423689Y-145218423D01*
X127373017Y-145422414D01*
X127345585Y-145690151D01*
X119775500Y-145690151D01*
X119775500Y-143190151D01*
X136345585Y-143190151D01*
X136345760Y-143194602D01*
X136352763Y-143372820D01*
X136356152Y-143459083D01*
X136404505Y-143723843D01*
X136489682Y-143979148D01*
X136491674Y-143983135D01*
X136491675Y-143983137D01*
X136562769Y-144125418D01*
X136609981Y-144219905D01*
X136677827Y-144318070D01*
X136737944Y-144405051D01*
X136763003Y-144441309D01*
X136766025Y-144444578D01*
X136942679Y-144635682D01*
X136942684Y-144635687D01*
X136945695Y-144638944D01*
X137154411Y-144808866D01*
X137158229Y-144811165D01*
X137158231Y-144811166D01*
X137325317Y-144911760D01*
X137384987Y-144947684D01*
X137389082Y-144949418D01*
X137389084Y-144949419D01*
X137628721Y-145050892D01*
X137628728Y-145050894D01*
X137632822Y-145052628D01*
X137728710Y-145078052D01*
X137888675Y-145120467D01*
X137888680Y-145120468D01*
X137892972Y-145121606D01*
X137897381Y-145122128D01*
X137897387Y-145122129D01*
X138046289Y-145139752D01*
X138160245Y-145153240D01*
X138429310Y-145146899D01*
X138433708Y-145146167D01*
X138690406Y-145103441D01*
X138690410Y-145103440D01*
X138694796Y-145102710D01*
X138699037Y-145101369D01*
X138699040Y-145101368D01*
X138947162Y-145022897D01*
X138947164Y-145022896D01*
X138951408Y-145021554D01*
X138955419Y-145019628D01*
X138955424Y-145019626D01*
X139190006Y-144906981D01*
X139190007Y-144906980D01*
X139194025Y-144905051D01*
X139197731Y-144902575D01*
X139414098Y-144758004D01*
X139414102Y-144758001D01*
X139417806Y-144755526D01*
X139421123Y-144752555D01*
X139421127Y-144752552D01*
X139614970Y-144578931D01*
X139618286Y-144575961D01*
X139709313Y-144467672D01*
X139788601Y-144373348D01*
X139788606Y-144373342D01*
X139791465Y-144369940D01*
X139933887Y-144141572D01*
X139961581Y-144078931D01*
X140027920Y-143928875D01*
X140042712Y-143895416D01*
X140115767Y-143636382D01*
X140140179Y-143454634D01*
X140151168Y-143372820D01*
X140151169Y-143372812D01*
X140151595Y-143369638D01*
X140155355Y-143250000D01*
X140136347Y-142981533D01*
X140112942Y-142872820D01*
X140080636Y-142722771D01*
X140079700Y-142718423D01*
X140067636Y-142685720D01*
X139988090Y-142470101D01*
X139988089Y-142470099D01*
X139986547Y-142465919D01*
X139955249Y-142407913D01*
X139860857Y-142232976D01*
X139858744Y-142229060D01*
X139698843Y-142012571D01*
X139510034Y-141820772D01*
X139296083Y-141657490D01*
X139243434Y-141628005D01*
X139065147Y-141528159D01*
X139065144Y-141528158D01*
X139061261Y-141525983D01*
X138856037Y-141446588D01*
X138799723Y-141403355D01*
X138775721Y-141336539D01*
X138775500Y-141329076D01*
X138775500Y-138269859D01*
X138795502Y-138201738D01*
X138812405Y-138180764D01*
X147361364Y-129631805D01*
X147365173Y-129628152D01*
X147402385Y-129593934D01*
X147408712Y-129588116D01*
X147430465Y-129553032D01*
X147437182Y-129543260D01*
X147456935Y-129517236D01*
X147462128Y-129510395D01*
X147467224Y-129497524D01*
X147477292Y-129477507D01*
X147480056Y-129473049D01*
X147484582Y-129465750D01*
X147496094Y-129426126D01*
X147499939Y-129414897D01*
X147511968Y-129384514D01*
X147511968Y-129384512D01*
X147515130Y-129376527D01*
X147516577Y-129362758D01*
X147520890Y-129340776D01*
X147522908Y-129333830D01*
X147524751Y-129327488D01*
X147525500Y-129317288D01*
X147525500Y-129284471D01*
X147526190Y-129271300D01*
X147529282Y-129241882D01*
X147530180Y-129233338D01*
X147527265Y-129216104D01*
X147525500Y-129195091D01*
X147525500Y-52000000D01*
X148394559Y-52000000D01*
X148414310Y-52376871D01*
X148473347Y-52749613D01*
X148571022Y-53114143D01*
X148706266Y-53466465D01*
X148877597Y-53802720D01*
X149083137Y-54119225D01*
X149320635Y-54412511D01*
X149587489Y-54679365D01*
X149880775Y-54916863D01*
X150197279Y-55122403D01*
X150200213Y-55123898D01*
X150200220Y-55123902D01*
X150530595Y-55292236D01*
X150533535Y-55293734D01*
X150885857Y-55428978D01*
X151250387Y-55526653D01*
X151448353Y-55558008D01*
X151619881Y-55585176D01*
X151619889Y-55585177D01*
X151623129Y-55585690D01*
X152000000Y-55605441D01*
X152376871Y-55585690D01*
X152380111Y-55585177D01*
X152380119Y-55585176D01*
X152551647Y-55558008D01*
X152749613Y-55526653D01*
X153114143Y-55428978D01*
X153466465Y-55293734D01*
X153469405Y-55292236D01*
X153799780Y-55123902D01*
X153799787Y-55123898D01*
X153802721Y-55122403D01*
X154119225Y-54916863D01*
X154412511Y-54679365D01*
X154679365Y-54412511D01*
X154916863Y-54119225D01*
X155122403Y-53802720D01*
X155293734Y-53466465D01*
X155428978Y-53114143D01*
X155526653Y-52749613D01*
X155585690Y-52376871D01*
X155605441Y-52000000D01*
X155585690Y-51623129D01*
X155526653Y-51250387D01*
X155428978Y-50885857D01*
X155293734Y-50533535D01*
X155122403Y-50197280D01*
X154916863Y-49880775D01*
X154679365Y-49587489D01*
X154412511Y-49320635D01*
X154119225Y-49083137D01*
X153802721Y-48877597D01*
X153799787Y-48876102D01*
X153799780Y-48876098D01*
X153469405Y-48707764D01*
X153466465Y-48706266D01*
X153114143Y-48571022D01*
X152749613Y-48473347D01*
X152551647Y-48441992D01*
X152380119Y-48414824D01*
X152380111Y-48414823D01*
X152376871Y-48414310D01*
X152000000Y-48394559D01*
X151623129Y-48414310D01*
X151619889Y-48414823D01*
X151619881Y-48414824D01*
X151448353Y-48441992D01*
X151250387Y-48473347D01*
X150885857Y-48571022D01*
X150533535Y-48706266D01*
X150530595Y-48707764D01*
X150200221Y-48876098D01*
X150200214Y-48876102D01*
X150197280Y-48877597D01*
X149880775Y-49083137D01*
X149587489Y-49320635D01*
X149320635Y-49587489D01*
X149083137Y-49880775D01*
X148877597Y-50197280D01*
X148706266Y-50533535D01*
X148571022Y-50885857D01*
X148473347Y-51250387D01*
X148414310Y-51623129D01*
X148394559Y-52000000D01*
X147525500Y-52000000D01*
X147525500Y-46460869D01*
X147545502Y-46392748D01*
X147562405Y-46371774D01*
X148841364Y-45092815D01*
X148845173Y-45089162D01*
X148882389Y-45054940D01*
X148888712Y-45049126D01*
X148910460Y-45014050D01*
X148917174Y-45004280D01*
X148942127Y-44971406D01*
X148947222Y-44958536D01*
X148957286Y-44938528D01*
X148964582Y-44926760D01*
X148966977Y-44918517D01*
X148966980Y-44918510D01*
X148976101Y-44887117D01*
X148979945Y-44875890D01*
X148994108Y-44840117D01*
X149037781Y-44784142D01*
X149111260Y-44760499D01*
X149361518Y-44760499D01*
X149366412Y-44759724D01*
X149445506Y-44747198D01*
X149445508Y-44747197D01*
X149455304Y-44745646D01*
X149568342Y-44688050D01*
X149658050Y-44598342D01*
X149715646Y-44485304D01*
X149717317Y-44474757D01*
X149729725Y-44396412D01*
X149730500Y-44391519D01*
X149730499Y-42628482D01*
X149725845Y-42599095D01*
X149717198Y-42544494D01*
X149717197Y-42544492D01*
X149715646Y-42534696D01*
X149658050Y-42421658D01*
X149640169Y-42403777D01*
X149606143Y-42341465D01*
X149611208Y-42270650D01*
X149626941Y-42241156D01*
X149645003Y-42216020D01*
X149650316Y-42207177D01*
X149744670Y-42016267D01*
X149748469Y-42006672D01*
X149810376Y-41802915D01*
X149812555Y-41792834D01*
X149840590Y-41579887D01*
X149841109Y-41573212D01*
X149842572Y-41513364D01*
X149842378Y-41506646D01*
X149824781Y-41292604D01*
X149823096Y-41282424D01*
X149771214Y-41075875D01*
X149767894Y-41066124D01*
X149682972Y-40870814D01*
X149678105Y-40861739D01*
X149613063Y-40761197D01*
X149602377Y-40751995D01*
X149592812Y-40756398D01*
X148569095Y-41780115D01*
X148506783Y-41814141D01*
X148435968Y-41809076D01*
X148390905Y-41780115D01*
X147369849Y-40759059D01*
X147358313Y-40752759D01*
X147346031Y-40762382D01*
X147298089Y-40832662D01*
X147293005Y-40841611D01*
X147283647Y-40861773D01*
X147236824Y-40915141D01*
X147168581Y-40934723D01*
X147100585Y-40914301D01*
X147066147Y-40880998D01*
X146941598Y-40703123D01*
X146786877Y-40548402D01*
X146782369Y-40545245D01*
X146782366Y-40545243D01*
X146612148Y-40426055D01*
X146612145Y-40426053D01*
X146607639Y-40422898D01*
X146602657Y-40420575D01*
X146602652Y-40420572D01*
X146529427Y-40386427D01*
X147721223Y-40386427D01*
X147727968Y-40398758D01*
X148467188Y-41137978D01*
X148481132Y-41145592D01*
X148482965Y-41145461D01*
X148489580Y-41141210D01*
X148884803Y-40745987D01*
X151668721Y-40745987D01*
X151677548Y-40757605D01*
X151900281Y-40919430D01*
X151906961Y-40923670D01*
X152176572Y-41071890D01*
X152183707Y-41075247D01*
X152469770Y-41188508D01*
X152477296Y-41190953D01*
X152775279Y-41267462D01*
X152783050Y-41268945D01*
X153088278Y-41307503D01*
X153096169Y-41308000D01*
X153403831Y-41308000D01*
X153411722Y-41307503D01*
X153716950Y-41268945D01*
X153724721Y-41267462D01*
X154022704Y-41190953D01*
X154030230Y-41188508D01*
X154316293Y-41075247D01*
X154323428Y-41071890D01*
X154593039Y-40923670D01*
X154599719Y-40919430D01*
X154822823Y-40757336D01*
X154831246Y-40746413D01*
X154824342Y-40733552D01*
X153262812Y-39172022D01*
X153248868Y-39164408D01*
X153247035Y-39164539D01*
X153240420Y-39168790D01*
X151675334Y-40733876D01*
X151668721Y-40745987D01*
X148884803Y-40745987D01*
X149233389Y-40397401D01*
X149240410Y-40384544D01*
X149233611Y-40375213D01*
X149229554Y-40372518D01*
X149043117Y-40269599D01*
X149033705Y-40265369D01*
X148832959Y-40194280D01*
X148822989Y-40191646D01*
X148613327Y-40154301D01*
X148603073Y-40153331D01*
X148390116Y-40150728D01*
X148379832Y-40151448D01*
X148169321Y-40183661D01*
X148159293Y-40186050D01*
X147956868Y-40252212D01*
X147947359Y-40256209D01*
X147758466Y-40354540D01*
X147749734Y-40360039D01*
X147729677Y-40375099D01*
X147721223Y-40386427D01*
X146529427Y-40386427D01*
X146414312Y-40332748D01*
X146414311Y-40332747D01*
X146409330Y-40330425D01*
X146404022Y-40329003D01*
X146404020Y-40329002D01*
X146338255Y-40311380D01*
X146197977Y-40273793D01*
X145980000Y-40254723D01*
X145762023Y-40273793D01*
X145621745Y-40311380D01*
X145555980Y-40329002D01*
X145555978Y-40329003D01*
X145550670Y-40330425D01*
X145545690Y-40332747D01*
X145545688Y-40332748D01*
X145357343Y-40420575D01*
X145357340Y-40420577D01*
X145352362Y-40422898D01*
X145173123Y-40548402D01*
X145018402Y-40703123D01*
X144892898Y-40882362D01*
X144890577Y-40887340D01*
X144890575Y-40887343D01*
X144807208Y-41066124D01*
X144800425Y-41080670D01*
X144743793Y-41292023D01*
X144724723Y-41510000D01*
X144743793Y-41727977D01*
X144800425Y-41939330D01*
X144892898Y-42137638D01*
X145018402Y-42316877D01*
X145122430Y-42420905D01*
X145156456Y-42483217D01*
X145151391Y-42554032D01*
X145122430Y-42599095D01*
X145018402Y-42703123D01*
X144892898Y-42882362D01*
X144800425Y-43080670D01*
X144743793Y-43292023D01*
X144724723Y-43510000D01*
X144743793Y-43727977D01*
X144800425Y-43939330D01*
X144892898Y-44137638D01*
X145018402Y-44316877D01*
X145173123Y-44471598D01*
X145177631Y-44474755D01*
X145177634Y-44474757D01*
X145205319Y-44494142D01*
X145352361Y-44597102D01*
X145357343Y-44599425D01*
X145357348Y-44599428D01*
X145532364Y-44681039D01*
X145550670Y-44689575D01*
X145555978Y-44690997D01*
X145555980Y-44690998D01*
X145621745Y-44708620D01*
X145762023Y-44746207D01*
X145980000Y-44765277D01*
X146197977Y-44746207D01*
X146338255Y-44708620D01*
X146404020Y-44690998D01*
X146404022Y-44690997D01*
X146409330Y-44689575D01*
X146427636Y-44681039D01*
X146602652Y-44599428D01*
X146602657Y-44599425D01*
X146607639Y-44597102D01*
X146754681Y-44494142D01*
X146782366Y-44474757D01*
X146782369Y-44474755D01*
X146786877Y-44471598D01*
X146941598Y-44316877D01*
X147000289Y-44233057D01*
X147055745Y-44188730D01*
X147126364Y-44181421D01*
X147189725Y-44213452D01*
X147225710Y-44274653D01*
X147229501Y-44305329D01*
X147229501Y-44391518D01*
X147230276Y-44396409D01*
X147230276Y-44396412D01*
X147242684Y-44474757D01*
X147244354Y-44485304D01*
X147301950Y-44598342D01*
X147391658Y-44688050D01*
X147481011Y-44733578D01*
X147532625Y-44782325D01*
X147549691Y-44851240D01*
X147526790Y-44918442D01*
X147512902Y-44934939D01*
X146638636Y-45809205D01*
X146634827Y-45812858D01*
X146591288Y-45852894D01*
X146586760Y-45860197D01*
X146586759Y-45860198D01*
X146569543Y-45887965D01*
X146562820Y-45897747D01*
X146537872Y-45930614D01*
X146534710Y-45938601D01*
X146534708Y-45938604D01*
X146532772Y-45943493D01*
X146522713Y-45963494D01*
X146515418Y-45975260D01*
X146503905Y-46014887D01*
X146500060Y-46026115D01*
X146488033Y-46056494D01*
X146488032Y-46056497D01*
X146484871Y-46064482D01*
X146483974Y-46073019D01*
X146483972Y-46073026D01*
X146483423Y-46078249D01*
X146479112Y-46100225D01*
X146475249Y-46113522D01*
X146474500Y-46123722D01*
X146474500Y-46156549D01*
X146473810Y-46169720D01*
X146469821Y-46207672D01*
X146471253Y-46216138D01*
X146471253Y-46216141D01*
X146472736Y-46224908D01*
X146474500Y-46245920D01*
X146474500Y-128980140D01*
X146454498Y-129048261D01*
X146437595Y-129069235D01*
X137888636Y-137618195D01*
X137884827Y-137621848D01*
X137841288Y-137661884D01*
X137836760Y-137669187D01*
X137836759Y-137669188D01*
X137819543Y-137696955D01*
X137812820Y-137706737D01*
X137787872Y-137739604D01*
X137784710Y-137747591D01*
X137784708Y-137747594D01*
X137782772Y-137752483D01*
X137772713Y-137772484D01*
X137765418Y-137784250D01*
X137753905Y-137823877D01*
X137750060Y-137835105D01*
X137738033Y-137865484D01*
X137738032Y-137865487D01*
X137734871Y-137873472D01*
X137733974Y-137882009D01*
X137733972Y-137882016D01*
X137733423Y-137887239D01*
X137729112Y-137909215D01*
X137725249Y-137922512D01*
X137724500Y-137932712D01*
X137724500Y-137965539D01*
X137723810Y-137978710D01*
X137719821Y-138016662D01*
X137721253Y-138025128D01*
X137721253Y-138025131D01*
X137722736Y-138033898D01*
X137724500Y-138054910D01*
X137724500Y-141330862D01*
X137704498Y-141398983D01*
X137650842Y-141445476D01*
X137640248Y-141449745D01*
X137497500Y-141499874D01*
X137497497Y-141499875D01*
X137493292Y-141501352D01*
X137489339Y-141503405D01*
X137489333Y-141503408D01*
X137445875Y-141525983D01*
X137254455Y-141625418D01*
X137250840Y-141628001D01*
X137250834Y-141628005D01*
X137179429Y-141679032D01*
X137035481Y-141781899D01*
X137032254Y-141784977D01*
X137032252Y-141784979D01*
X136846687Y-141961999D01*
X136840740Y-141967672D01*
X136674118Y-142179032D01*
X136642785Y-142232976D01*
X136541173Y-142407913D01*
X136541170Y-142407919D01*
X136538939Y-142411760D01*
X136537269Y-142415883D01*
X136512442Y-142477179D01*
X136437900Y-142661213D01*
X136436829Y-142665526D01*
X136436827Y-142665531D01*
X136423689Y-142718423D01*
X136373017Y-142922414D01*
X136345585Y-143190151D01*
X119775500Y-143190151D01*
X119775500Y-139100108D01*
X119795502Y-139031987D01*
X119812405Y-139011013D01*
X121935875Y-136887543D01*
X121939684Y-136883890D01*
X121976896Y-136849672D01*
X121983223Y-136843854D01*
X122004969Y-136808782D01*
X122011692Y-136799000D01*
X122031444Y-136772978D01*
X122036639Y-136766134D01*
X122039803Y-136758144D01*
X122041739Y-136753255D01*
X122051798Y-136733254D01*
X122059093Y-136721488D01*
X122061491Y-136713236D01*
X122065390Y-136699817D01*
X122097291Y-136645878D01*
X123262070Y-135481099D01*
X123324382Y-135447073D01*
X123400295Y-135454167D01*
X123628716Y-135550890D01*
X123628724Y-135550893D01*
X123632822Y-135552628D01*
X123728710Y-135578052D01*
X123888675Y-135620467D01*
X123888680Y-135620468D01*
X123892972Y-135621606D01*
X123897381Y-135622128D01*
X123897387Y-135622129D01*
X124046289Y-135639752D01*
X124160245Y-135653240D01*
X124429310Y-135646899D01*
X124433708Y-135646167D01*
X124690406Y-135603441D01*
X124690410Y-135603440D01*
X124694796Y-135602710D01*
X124699037Y-135601369D01*
X124699040Y-135601368D01*
X124947162Y-135522897D01*
X124947164Y-135522896D01*
X124951408Y-135521554D01*
X124955419Y-135519628D01*
X124955424Y-135519626D01*
X125190006Y-135406981D01*
X125190007Y-135406980D01*
X125194025Y-135405051D01*
X125197731Y-135402575D01*
X125414098Y-135258004D01*
X125414102Y-135258001D01*
X125417806Y-135255526D01*
X125421123Y-135252555D01*
X125421127Y-135252552D01*
X125614970Y-135078931D01*
X125618286Y-135075961D01*
X125710786Y-134965919D01*
X125788601Y-134873348D01*
X125788606Y-134873342D01*
X125791465Y-134869940D01*
X125933887Y-134641572D01*
X125956698Y-134589976D01*
X126040907Y-134399498D01*
X126042712Y-134395416D01*
X126115767Y-134136382D01*
X126130303Y-134028159D01*
X126151168Y-133872820D01*
X126151169Y-133872812D01*
X126151595Y-133869638D01*
X126152361Y-133845264D01*
X126155254Y-133753222D01*
X126155254Y-133753217D01*
X126155355Y-133750000D01*
X126136347Y-133481533D01*
X126079700Y-133218423D01*
X126060188Y-133165531D01*
X125988090Y-132970101D01*
X125988089Y-132970099D01*
X125986547Y-132965919D01*
X125955249Y-132907913D01*
X125860857Y-132732976D01*
X125858744Y-132729060D01*
X125698843Y-132512571D01*
X125510034Y-132320772D01*
X125296083Y-132157490D01*
X125243434Y-132128005D01*
X125065147Y-132028159D01*
X125065144Y-132028158D01*
X125061261Y-132025983D01*
X125057122Y-132024382D01*
X125057114Y-132024378D01*
X124871566Y-131952596D01*
X124810251Y-131928875D01*
X124805926Y-131927872D01*
X124805921Y-131927871D01*
X124661864Y-131894481D01*
X124548063Y-131868103D01*
X124279928Y-131844880D01*
X124275493Y-131845124D01*
X124275489Y-131845124D01*
X124166324Y-131851132D01*
X124011196Y-131859669D01*
X124006833Y-131860537D01*
X124006832Y-131860537D01*
X123751596Y-131911307D01*
X123751594Y-131911308D01*
X123747228Y-131912176D01*
X123493292Y-132001352D01*
X123254455Y-132125418D01*
X123250840Y-132128001D01*
X123250834Y-132128005D01*
X123205793Y-132160192D01*
X123035481Y-132281899D01*
X122840740Y-132467672D01*
X122674118Y-132679032D01*
X122642785Y-132732976D01*
X122541173Y-132907913D01*
X122541170Y-132907919D01*
X122538939Y-132911760D01*
X122437900Y-133161213D01*
X122436829Y-133165526D01*
X122436827Y-133165531D01*
X122423689Y-133218423D01*
X122373017Y-133422414D01*
X122345585Y-133690151D01*
X122345760Y-133694602D01*
X122354974Y-133929091D01*
X122356152Y-133959083D01*
X122404505Y-134223843D01*
X122489682Y-134479148D01*
X122491674Y-134483135D01*
X122491675Y-134483137D01*
X122545059Y-134589976D01*
X122557614Y-134659854D01*
X122530398Y-134725427D01*
X122521441Y-134735390D01*
X121824545Y-135432286D01*
X121762233Y-135466312D01*
X121691418Y-135461247D01*
X121634582Y-135418700D01*
X121612272Y-135369711D01*
X121580636Y-135222771D01*
X121579700Y-135218423D01*
X121527144Y-135075961D01*
X121488090Y-134970101D01*
X121488089Y-134970099D01*
X121486547Y-134965919D01*
X121358744Y-134729060D01*
X121198843Y-134512571D01*
X121010034Y-134320772D01*
X120796083Y-134157490D01*
X120594015Y-134044326D01*
X120565147Y-134028159D01*
X120565144Y-134028158D01*
X120561261Y-134025983D01*
X120557122Y-134024382D01*
X120557114Y-134024378D01*
X120320169Y-133932712D01*
X120310251Y-133928875D01*
X120305926Y-133927872D01*
X120305921Y-133927871D01*
X120130621Y-133887239D01*
X120048063Y-133868103D01*
X119779928Y-133844880D01*
X119775493Y-133845124D01*
X119775488Y-133845124D01*
X119705094Y-133848998D01*
X119635977Y-133832769D01*
X119586607Y-133781749D01*
X119572657Y-133712136D01*
X119598557Y-133646032D01*
X119609076Y-133634093D01*
X123262070Y-129981099D01*
X123324382Y-129947073D01*
X123400295Y-129954167D01*
X123628716Y-130050890D01*
X123628722Y-130050892D01*
X123632822Y-130052628D01*
X123728710Y-130078052D01*
X123888675Y-130120467D01*
X123888680Y-130120468D01*
X123892972Y-130121606D01*
X123897381Y-130122128D01*
X123897387Y-130122129D01*
X124046289Y-130139752D01*
X124160245Y-130153240D01*
X124429310Y-130146899D01*
X124438082Y-130145439D01*
X124690406Y-130103441D01*
X124690410Y-130103440D01*
X124694796Y-130102710D01*
X124699037Y-130101369D01*
X124699040Y-130101368D01*
X124947162Y-130022897D01*
X124947164Y-130022896D01*
X124951408Y-130021554D01*
X124955419Y-130019628D01*
X124955424Y-130019626D01*
X125190006Y-129906981D01*
X125190007Y-129906980D01*
X125194025Y-129905051D01*
X125197731Y-129902575D01*
X125414098Y-129758004D01*
X125414102Y-129758001D01*
X125417806Y-129755526D01*
X125421123Y-129752555D01*
X125421127Y-129752552D01*
X125614970Y-129578931D01*
X125618286Y-129575961D01*
X125673400Y-129510395D01*
X125788601Y-129373348D01*
X125788606Y-129373342D01*
X125791465Y-129369940D01*
X125933887Y-129141572D01*
X126042712Y-128895416D01*
X126115767Y-128636382D01*
X126151595Y-128369638D01*
X126155355Y-128250000D01*
X126136347Y-127981533D01*
X126079700Y-127718423D01*
X126060188Y-127665531D01*
X125988090Y-127470101D01*
X125988089Y-127470099D01*
X125986547Y-127465919D01*
X125955249Y-127407913D01*
X125860857Y-127232976D01*
X125858744Y-127229060D01*
X125784285Y-127128250D01*
X125701492Y-127016157D01*
X125701489Y-127016154D01*
X125698843Y-127012571D01*
X125510034Y-126820772D01*
X125475382Y-126794326D01*
X125380801Y-126722145D01*
X125296083Y-126657490D01*
X125214419Y-126611756D01*
X125164760Y-126561022D01*
X125150412Y-126491490D01*
X125175934Y-126425239D01*
X125205986Y-126397059D01*
X125414098Y-126258004D01*
X125414102Y-126258001D01*
X125417806Y-126255526D01*
X125421123Y-126252555D01*
X125421127Y-126252552D01*
X125614970Y-126078931D01*
X125618286Y-126075961D01*
X125631180Y-126060622D01*
X125788601Y-125873348D01*
X125788606Y-125873342D01*
X125791465Y-125869940D01*
X125933887Y-125641572D01*
X125956698Y-125589976D01*
X126040907Y-125399498D01*
X126042712Y-125395416D01*
X126115767Y-125136382D01*
X126151595Y-124869638D01*
X126155355Y-124750000D01*
X126136347Y-124481533D01*
X126079700Y-124218423D01*
X126060188Y-124165531D01*
X125988090Y-123970101D01*
X125988089Y-123970099D01*
X125986547Y-123965919D01*
X125955249Y-123907913D01*
X125860857Y-123732976D01*
X125858744Y-123729060D01*
X125698843Y-123512571D01*
X125510034Y-123320772D01*
X125296083Y-123157490D01*
X125214419Y-123111756D01*
X125164760Y-123061022D01*
X125150412Y-122991490D01*
X125175934Y-122925239D01*
X125205986Y-122897059D01*
X125414098Y-122758004D01*
X125414102Y-122758001D01*
X125417806Y-122755526D01*
X125421123Y-122752555D01*
X125421127Y-122752552D01*
X125614970Y-122578931D01*
X125618286Y-122575961D01*
X125724656Y-122449419D01*
X125788601Y-122373348D01*
X125788606Y-122373342D01*
X125791465Y-122369940D01*
X125933887Y-122141572D01*
X125961581Y-122078931D01*
X126007564Y-121974919D01*
X126042712Y-121895416D01*
X126115767Y-121636382D01*
X126140179Y-121454634D01*
X126151168Y-121372820D01*
X126151169Y-121372812D01*
X126151595Y-121369638D01*
X126155355Y-121250000D01*
X126136347Y-120981533D01*
X126112942Y-120872820D01*
X126080636Y-120722771D01*
X126079700Y-120718423D01*
X126060188Y-120665531D01*
X125988090Y-120470101D01*
X125988089Y-120470099D01*
X125986547Y-120465919D01*
X125955249Y-120407913D01*
X125860857Y-120232976D01*
X125858744Y-120229060D01*
X125698843Y-120012571D01*
X125510034Y-119820772D01*
X125296083Y-119657490D01*
X125243434Y-119628005D01*
X125065147Y-119528159D01*
X125065144Y-119528158D01*
X125061261Y-119525983D01*
X125057122Y-119524382D01*
X125057114Y-119524378D01*
X124871566Y-119452596D01*
X124810251Y-119428875D01*
X124805926Y-119427872D01*
X124805921Y-119427871D01*
X124661864Y-119394481D01*
X124548063Y-119368103D01*
X124279928Y-119344880D01*
X124275493Y-119345124D01*
X124275489Y-119345124D01*
X124166324Y-119351132D01*
X124011196Y-119359669D01*
X124006833Y-119360537D01*
X124006832Y-119360537D01*
X123751596Y-119411307D01*
X123751594Y-119411308D01*
X123747228Y-119412176D01*
X123493292Y-119501352D01*
X123254455Y-119625418D01*
X123250840Y-119628001D01*
X123250834Y-119628005D01*
X123145170Y-119703514D01*
X123035481Y-119781899D01*
X123032254Y-119784977D01*
X123032252Y-119784979D01*
X122846687Y-119961999D01*
X122840740Y-119967672D01*
X122674118Y-120179032D01*
X122642785Y-120232976D01*
X122541173Y-120407913D01*
X122541170Y-120407919D01*
X122538939Y-120411760D01*
X122537269Y-120415883D01*
X122512442Y-120477179D01*
X122437900Y-120661213D01*
X122436829Y-120665526D01*
X122436827Y-120665531D01*
X122423689Y-120718423D01*
X122373017Y-120922414D01*
X122345585Y-121190151D01*
X122345760Y-121194602D01*
X122352763Y-121372820D01*
X122356152Y-121459083D01*
X122404505Y-121723843D01*
X122489682Y-121979148D01*
X122491674Y-121983135D01*
X122491675Y-121983137D01*
X122539541Y-122078931D01*
X122609981Y-122219905D01*
X122711066Y-122366162D01*
X122737944Y-122405051D01*
X122763003Y-122441309D01*
X122766025Y-122444578D01*
X122942679Y-122635682D01*
X122942684Y-122635687D01*
X122945695Y-122638944D01*
X123154411Y-122808866D01*
X123158229Y-122811165D01*
X123158231Y-122811166D01*
X123290253Y-122890650D01*
X123338297Y-122942922D01*
X123350453Y-123012870D01*
X123322863Y-123078286D01*
X123283346Y-123110410D01*
X123258411Y-123123363D01*
X123254455Y-123125418D01*
X123250840Y-123128001D01*
X123250834Y-123128005D01*
X123205793Y-123160192D01*
X123035481Y-123281899D01*
X122840740Y-123467672D01*
X122674118Y-123679032D01*
X122642785Y-123732976D01*
X122541173Y-123907913D01*
X122541170Y-123907919D01*
X122538939Y-123911760D01*
X122437900Y-124161213D01*
X122436829Y-124165526D01*
X122436827Y-124165531D01*
X122423689Y-124218423D01*
X122373017Y-124422414D01*
X122345585Y-124690151D01*
X122345760Y-124694602D01*
X122352763Y-124872820D01*
X122356152Y-124959083D01*
X122404505Y-125223843D01*
X122489682Y-125479148D01*
X122491674Y-125483135D01*
X122491675Y-125483137D01*
X122545059Y-125589976D01*
X122557614Y-125659854D01*
X122530398Y-125725427D01*
X122521441Y-125735390D01*
X121888636Y-126368195D01*
X121884827Y-126371848D01*
X121841288Y-126411884D01*
X121822044Y-126442922D01*
X121819543Y-126446955D01*
X121812820Y-126456737D01*
X121787872Y-126489604D01*
X121784710Y-126497591D01*
X121784708Y-126497594D01*
X121782772Y-126502483D01*
X121772713Y-126522484D01*
X121765418Y-126534250D01*
X121757640Y-126561022D01*
X121753905Y-126573877D01*
X121750060Y-126585105D01*
X121738033Y-126615484D01*
X121738032Y-126615487D01*
X121734871Y-126623472D01*
X121733974Y-126632009D01*
X121733972Y-126632016D01*
X121733423Y-126637239D01*
X121729112Y-126659215D01*
X121725249Y-126672512D01*
X121724500Y-126682712D01*
X121724500Y-126715539D01*
X121723810Y-126728710D01*
X121719821Y-126766662D01*
X121721253Y-126775128D01*
X121721253Y-126775131D01*
X121722736Y-126783898D01*
X121724500Y-126804910D01*
X121724500Y-128480141D01*
X121704498Y-128548262D01*
X121687595Y-128569236D01*
X121258951Y-128997880D01*
X121196639Y-129031906D01*
X121125824Y-129026841D01*
X121068988Y-128984294D01*
X121044177Y-128917774D01*
X121048587Y-128874586D01*
X121115767Y-128636382D01*
X121151595Y-128369638D01*
X121155355Y-128250000D01*
X121136347Y-127981533D01*
X121079700Y-127718423D01*
X121060188Y-127665531D01*
X120988090Y-127470101D01*
X120988089Y-127470099D01*
X120986547Y-127465919D01*
X120955249Y-127407913D01*
X120860857Y-127232976D01*
X120858744Y-127229060D01*
X120784285Y-127128250D01*
X120701492Y-127016157D01*
X120701489Y-127016154D01*
X120698843Y-127012571D01*
X120510034Y-126820772D01*
X120475382Y-126794326D01*
X120380801Y-126722145D01*
X120296083Y-126657490D01*
X120214419Y-126611756D01*
X120164760Y-126561022D01*
X120150412Y-126491490D01*
X120175934Y-126425239D01*
X120205986Y-126397059D01*
X120414098Y-126258004D01*
X120414102Y-126258001D01*
X120417806Y-126255526D01*
X120421123Y-126252555D01*
X120421127Y-126252552D01*
X120614970Y-126078931D01*
X120618286Y-126075961D01*
X120631180Y-126060622D01*
X120788601Y-125873348D01*
X120788606Y-125873342D01*
X120791465Y-125869940D01*
X120933887Y-125641572D01*
X120956698Y-125589976D01*
X121040907Y-125399498D01*
X121042712Y-125395416D01*
X121115767Y-125136382D01*
X121151595Y-124869638D01*
X121155355Y-124750000D01*
X121136347Y-124481533D01*
X121079700Y-124218423D01*
X121060188Y-124165531D01*
X120988090Y-123970101D01*
X120988089Y-123970099D01*
X120986547Y-123965919D01*
X120955249Y-123907913D01*
X120860857Y-123732976D01*
X120858744Y-123729060D01*
X120698843Y-123512571D01*
X120510034Y-123320772D01*
X120296083Y-123157490D01*
X120243434Y-123128005D01*
X120065147Y-123028159D01*
X120065144Y-123028158D01*
X120061261Y-123025983D01*
X120057122Y-123024382D01*
X120057114Y-123024378D01*
X119871566Y-122952596D01*
X119810251Y-122928875D01*
X119805926Y-122927872D01*
X119805921Y-122927871D01*
X119645337Y-122890650D01*
X119548063Y-122868103D01*
X119279928Y-122844880D01*
X119275493Y-122845124D01*
X119275489Y-122845124D01*
X119166324Y-122851132D01*
X119011196Y-122859669D01*
X119006833Y-122860537D01*
X119006832Y-122860537D01*
X118751596Y-122911307D01*
X118751594Y-122911308D01*
X118747228Y-122912176D01*
X118493292Y-123001352D01*
X118254455Y-123125418D01*
X118250840Y-123128001D01*
X118250834Y-123128005D01*
X118205793Y-123160192D01*
X118035481Y-123281899D01*
X117840740Y-123467672D01*
X117674118Y-123679032D01*
X117642785Y-123732976D01*
X117541173Y-123907913D01*
X117541170Y-123907919D01*
X117538939Y-123911760D01*
X117437900Y-124161213D01*
X117436829Y-124165526D01*
X117436827Y-124165531D01*
X117423689Y-124218423D01*
X117373017Y-124422414D01*
X117345585Y-124690151D01*
X117345760Y-124694602D01*
X117352763Y-124872820D01*
X117356152Y-124959083D01*
X117404505Y-125223843D01*
X117489682Y-125479148D01*
X117609981Y-125719905D01*
X117763003Y-125941309D01*
X117766025Y-125944578D01*
X117942679Y-126135682D01*
X117942684Y-126135687D01*
X117945695Y-126138944D01*
X118154411Y-126308866D01*
X118158229Y-126311165D01*
X118158231Y-126311166D01*
X118290253Y-126390650D01*
X118338297Y-126442922D01*
X118350453Y-126512870D01*
X118322863Y-126578286D01*
X118283346Y-126610410D01*
X118258411Y-126623363D01*
X118254455Y-126625418D01*
X118250840Y-126628001D01*
X118250834Y-126628005D01*
X118145170Y-126703514D01*
X118035481Y-126781899D01*
X117840740Y-126967672D01*
X117674118Y-127179032D01*
X117642785Y-127232976D01*
X117541173Y-127407913D01*
X117541170Y-127407919D01*
X117538939Y-127411760D01*
X117437900Y-127661213D01*
X117436829Y-127665526D01*
X117436827Y-127665531D01*
X117423689Y-127718423D01*
X117373017Y-127922414D01*
X117345585Y-128190151D01*
X117345760Y-128194602D01*
X117352763Y-128372820D01*
X117356152Y-128459083D01*
X117404505Y-128723843D01*
X117489682Y-128979148D01*
X117491674Y-128983135D01*
X117491675Y-128983137D01*
X117602868Y-129205669D01*
X117609981Y-129219905D01*
X117612510Y-129223564D01*
X117744749Y-129414897D01*
X117763003Y-129441309D01*
X117766025Y-129444578D01*
X117942679Y-129635682D01*
X117942684Y-129635687D01*
X117945695Y-129638944D01*
X118154411Y-129808866D01*
X118158229Y-129811165D01*
X118158231Y-129811166D01*
X118329119Y-129914049D01*
X118384987Y-129947684D01*
X118389082Y-129949418D01*
X118389084Y-129949419D01*
X118628721Y-130050892D01*
X118628728Y-130050894D01*
X118632822Y-130052628D01*
X118728710Y-130078052D01*
X118888675Y-130120467D01*
X118888680Y-130120468D01*
X118892972Y-130121606D01*
X118897381Y-130122128D01*
X118897387Y-130122129D01*
X119046289Y-130139752D01*
X119160245Y-130153240D01*
X119429310Y-130146899D01*
X119438082Y-130145439D01*
X119690406Y-130103441D01*
X119690410Y-130103440D01*
X119694796Y-130102710D01*
X119699037Y-130101369D01*
X119699040Y-130101368D01*
X119858642Y-130050892D01*
X119874699Y-130045814D01*
X119945679Y-130044344D01*
X120006187Y-130081482D01*
X120037011Y-130145439D01*
X120028365Y-130215907D01*
X120001787Y-130255044D01*
X116638636Y-133618195D01*
X116634827Y-133621848D01*
X116591288Y-133661884D01*
X116586760Y-133669187D01*
X116586759Y-133669188D01*
X116569543Y-133696955D01*
X116562820Y-133706737D01*
X116537872Y-133739604D01*
X116534710Y-133747591D01*
X116534708Y-133747594D01*
X116532772Y-133752483D01*
X116522713Y-133772484D01*
X116515418Y-133784250D01*
X116503905Y-133823877D01*
X116500060Y-133835105D01*
X116488033Y-133865484D01*
X116488032Y-133865487D01*
X116484871Y-133873472D01*
X116483974Y-133882009D01*
X116483972Y-133882016D01*
X116483423Y-133887239D01*
X116479112Y-133909215D01*
X116475249Y-133922512D01*
X116474500Y-133932712D01*
X116474500Y-133965539D01*
X116473810Y-133978710D01*
X116469821Y-134016662D01*
X116471253Y-134025128D01*
X116471253Y-134025131D01*
X116472736Y-134033898D01*
X116474500Y-134054910D01*
X116474500Y-157735565D01*
X116474389Y-157740841D01*
X116471913Y-157799919D01*
X116481295Y-157839919D01*
X116481337Y-157840097D01*
X116483500Y-157851770D01*
X116489099Y-157892646D01*
X116492510Y-157900527D01*
X116492510Y-157900529D01*
X116494595Y-157905347D01*
X116501627Y-157926610D01*
X116502828Y-157931729D01*
X116504790Y-157940093D01*
X116524681Y-157976275D01*
X116529888Y-157986905D01*
X116546280Y-158024783D01*
X116551686Y-158031459D01*
X116551687Y-158031461D01*
X116554992Y-158035542D01*
X116567480Y-158054126D01*
X116574153Y-158066263D01*
X116580836Y-158074005D01*
X116604040Y-158097209D01*
X116612865Y-158107009D01*
X116636888Y-158136675D01*
X116651144Y-158146806D01*
X116667244Y-158160413D01*
X124618207Y-166111377D01*
X124621860Y-166115186D01*
X124661884Y-166158712D01*
X124694645Y-166179025D01*
X124696953Y-166180456D01*
X124706732Y-166187177D01*
X124739604Y-166212127D01*
X124752474Y-166217222D01*
X124772482Y-166227286D01*
X124784250Y-166234582D01*
X124792493Y-166236977D01*
X124792500Y-166236980D01*
X124823893Y-166246101D01*
X124835120Y-166249945D01*
X124865487Y-166261968D01*
X124865489Y-166261969D01*
X124873472Y-166265129D01*
X124882009Y-166266026D01*
X124882016Y-166266028D01*
X124887239Y-166266577D01*
X124909216Y-166270888D01*
X124916178Y-166272911D01*
X124916180Y-166272911D01*
X124922512Y-166274751D01*
X124929327Y-166275251D01*
X124930404Y-166275331D01*
X124930417Y-166275331D01*
X124932712Y-166275500D01*
X124965538Y-166275500D01*
X124978709Y-166276190D01*
X125016661Y-166280179D01*
X125025127Y-166278747D01*
X125025130Y-166278747D01*
X125033897Y-166277264D01*
X125054909Y-166275500D01*
X128735565Y-166275500D01*
X128740842Y-166275611D01*
X128799919Y-166278087D01*
X128840105Y-166268662D01*
X128851771Y-166266500D01*
X128884136Y-166262067D01*
X128884138Y-166262066D01*
X128892646Y-166260901D01*
X128900527Y-166257490D01*
X128900529Y-166257490D01*
X128905347Y-166255405D01*
X128926610Y-166248373D01*
X128931729Y-166247172D01*
X128931731Y-166247171D01*
X128940093Y-166245210D01*
X128976275Y-166225319D01*
X128986905Y-166220112D01*
X129024783Y-166203720D01*
X129031459Y-166198314D01*
X129031461Y-166198313D01*
X129035542Y-166195008D01*
X129054126Y-166182520D01*
X129066263Y-166175847D01*
X129074005Y-166169164D01*
X129097209Y-166145960D01*
X129107010Y-166137134D01*
X129129999Y-166118518D01*
X129136675Y-166113112D01*
X129146806Y-166098856D01*
X129160413Y-166082756D01*
X129861364Y-165381805D01*
X129865173Y-165378152D01*
X129878756Y-165365662D01*
X129908712Y-165338116D01*
X129921410Y-165317636D01*
X129974306Y-165270281D01*
X129979629Y-165268118D01*
X129984911Y-165265766D01*
X129990379Y-165263910D01*
X130182884Y-165156102D01*
X130189209Y-165150842D01*
X130348086Y-165018704D01*
X130352518Y-165015018D01*
X130356204Y-165010586D01*
X130356209Y-165010581D01*
X130400555Y-164957261D01*
X130459493Y-164917677D01*
X130530475Y-164916241D01*
X130585351Y-164947576D01*
X130741264Y-165099461D01*
X130746060Y-165102666D01*
X130746063Y-165102668D01*
X130830261Y-165158927D01*
X130924717Y-165222040D01*
X130930020Y-165224318D01*
X130930023Y-165224320D01*
X131091589Y-165293734D01*
X131127436Y-165309135D01*
X131207088Y-165327158D01*
X131336995Y-165356554D01*
X131337001Y-165356555D01*
X131342632Y-165357829D01*
X131348403Y-165358056D01*
X131348405Y-165358056D01*
X131416211Y-165360720D01*
X131563098Y-165366491D01*
X131672275Y-165350661D01*
X131775738Y-165335660D01*
X131775743Y-165335659D01*
X131781452Y-165334831D01*
X131786916Y-165332976D01*
X131786921Y-165332975D01*
X131984907Y-165265768D01*
X131984912Y-165265766D01*
X131990379Y-165263910D01*
X132182884Y-165156102D01*
X132189209Y-165150842D01*
X132348086Y-165018704D01*
X132352518Y-165015018D01*
X132356204Y-165010586D01*
X132356209Y-165010581D01*
X132400555Y-164957261D01*
X132459493Y-164917677D01*
X132530475Y-164916241D01*
X132585351Y-164947576D01*
X132741264Y-165099461D01*
X132746060Y-165102666D01*
X132746063Y-165102668D01*
X132830261Y-165158927D01*
X132924717Y-165222040D01*
X132930020Y-165224318D01*
X132930023Y-165224320D01*
X133091589Y-165293734D01*
X133127436Y-165309135D01*
X133207088Y-165327158D01*
X133336995Y-165356554D01*
X133337001Y-165356555D01*
X133342632Y-165357829D01*
X133348403Y-165358056D01*
X133348405Y-165358056D01*
X133416211Y-165360720D01*
X133563098Y-165366491D01*
X133672275Y-165350661D01*
X133775738Y-165335660D01*
X133775743Y-165335659D01*
X133781452Y-165334831D01*
X133786916Y-165332976D01*
X133786921Y-165332975D01*
X133984907Y-165265768D01*
X133984912Y-165265766D01*
X133990379Y-165263910D01*
X134182884Y-165156102D01*
X134189209Y-165150842D01*
X134348086Y-165018704D01*
X134352518Y-165015018D01*
X134356204Y-165010586D01*
X134356209Y-165010581D01*
X134400555Y-164957261D01*
X134459493Y-164917677D01*
X134530475Y-164916241D01*
X134585351Y-164947576D01*
X134741264Y-165099461D01*
X134746060Y-165102666D01*
X134746063Y-165102668D01*
X134830261Y-165158927D01*
X134924717Y-165222040D01*
X134930020Y-165224318D01*
X134930023Y-165224320D01*
X135091589Y-165293734D01*
X135127436Y-165309135D01*
X135207088Y-165327158D01*
X135336995Y-165356554D01*
X135337001Y-165356555D01*
X135342632Y-165357829D01*
X135348403Y-165358056D01*
X135348405Y-165358056D01*
X135492921Y-165363734D01*
X135560204Y-165386395D01*
X135604554Y-165441835D01*
X135613261Y-165503026D01*
X135610736Y-165526653D01*
X135594806Y-165675714D01*
X135609010Y-165922045D01*
X135610147Y-165927091D01*
X135610148Y-165927097D01*
X135632336Y-166025551D01*
X135663255Y-166162749D01*
X135756084Y-166391361D01*
X135766382Y-166408165D01*
X135784921Y-166476696D01*
X135763466Y-166544373D01*
X135708828Y-166589707D01*
X135658950Y-166600000D01*
X90026000Y-166600000D01*
X89957879Y-166579998D01*
X89911386Y-166526342D01*
X89900000Y-166474000D01*
X89900000Y-162000000D01*
X90894559Y-162000000D01*
X90914310Y-162376871D01*
X90914823Y-162380111D01*
X90914824Y-162380119D01*
X90936254Y-162515418D01*
X90973347Y-162749613D01*
X91071022Y-163114143D01*
X91072207Y-163117231D01*
X91072208Y-163117233D01*
X91105099Y-163202917D01*
X91206266Y-163466465D01*
X91377597Y-163802720D01*
X91379393Y-163805486D01*
X91379395Y-163805489D01*
X91472297Y-163948546D01*
X91583137Y-164119225D01*
X91820635Y-164412511D01*
X92087489Y-164679365D01*
X92380775Y-164916863D01*
X92461033Y-164968983D01*
X92666890Y-165102668D01*
X92697279Y-165122403D01*
X92700213Y-165123898D01*
X92700220Y-165123902D01*
X92983261Y-165268118D01*
X93033535Y-165293734D01*
X93385857Y-165428978D01*
X93750387Y-165526653D01*
X93948353Y-165558008D01*
X94119881Y-165585176D01*
X94119889Y-165585177D01*
X94123129Y-165585690D01*
X94500000Y-165605441D01*
X94876871Y-165585690D01*
X94880111Y-165585177D01*
X94880119Y-165585176D01*
X95051647Y-165558008D01*
X95249613Y-165526653D01*
X95614143Y-165428978D01*
X95966465Y-165293734D01*
X96016739Y-165268118D01*
X96299780Y-165123902D01*
X96299787Y-165123898D01*
X96302721Y-165122403D01*
X96333111Y-165102668D01*
X96538967Y-164968983D01*
X96619225Y-164916863D01*
X96912511Y-164679365D01*
X97179365Y-164412511D01*
X97416863Y-164119225D01*
X97527703Y-163948546D01*
X97620605Y-163805489D01*
X97620607Y-163805486D01*
X97622403Y-163802720D01*
X97793734Y-163466465D01*
X97894901Y-163202917D01*
X97927792Y-163117233D01*
X97927793Y-163117231D01*
X97928978Y-163114143D01*
X98026653Y-162749613D01*
X98063746Y-162515418D01*
X98085176Y-162380119D01*
X98085177Y-162380111D01*
X98085690Y-162376871D01*
X98105441Y-162000000D01*
X98085690Y-161623129D01*
X98026653Y-161250387D01*
X97928978Y-160885857D01*
X97920745Y-160864408D01*
X97876044Y-160747959D01*
X97793734Y-160533535D01*
X97788194Y-160522663D01*
X97623902Y-160200221D01*
X97623898Y-160200214D01*
X97622403Y-160197280D01*
X97610515Y-160178973D01*
X97418665Y-159883550D01*
X97416863Y-159880775D01*
X97179365Y-159587489D01*
X96912511Y-159320635D01*
X96619225Y-159083137D01*
X96353287Y-158910435D01*
X96305490Y-158879395D01*
X96305487Y-158879393D01*
X96302721Y-158877597D01*
X96299787Y-158876102D01*
X96299780Y-158876098D01*
X95969405Y-158707764D01*
X95966465Y-158706266D01*
X95724739Y-158613476D01*
X95617233Y-158572208D01*
X95617231Y-158572207D01*
X95614143Y-158571022D01*
X95249613Y-158473347D01*
X95031159Y-158438747D01*
X94880119Y-158414824D01*
X94880111Y-158414823D01*
X94876871Y-158414310D01*
X94500000Y-158394559D01*
X94123129Y-158414310D01*
X94119889Y-158414823D01*
X94119881Y-158414824D01*
X93968841Y-158438747D01*
X93750387Y-158473347D01*
X93385857Y-158571022D01*
X93382769Y-158572207D01*
X93382767Y-158572208D01*
X93275261Y-158613476D01*
X93033535Y-158706266D01*
X93030595Y-158707764D01*
X92700221Y-158876098D01*
X92700214Y-158876102D01*
X92697280Y-158877597D01*
X92694514Y-158879393D01*
X92694511Y-158879395D01*
X92549705Y-158973433D01*
X92380775Y-159083137D01*
X92087489Y-159320635D01*
X91820635Y-159587489D01*
X91583137Y-159880775D01*
X91581335Y-159883550D01*
X91389486Y-160178973D01*
X91377597Y-160197280D01*
X91376102Y-160200214D01*
X91376098Y-160200221D01*
X91211806Y-160522663D01*
X91206266Y-160533535D01*
X91123956Y-160747959D01*
X91079256Y-160864408D01*
X91071022Y-160885857D01*
X90973347Y-161250387D01*
X90914310Y-161623129D01*
X90894559Y-162000000D01*
X89900000Y-162000000D01*
X89900000Y-146266662D01*
X106219821Y-146266662D01*
X106221253Y-146275128D01*
X106221253Y-146275131D01*
X106222736Y-146283898D01*
X106224500Y-146304910D01*
X106224500Y-157775565D01*
X106224389Y-157780841D01*
X106221913Y-157839919D01*
X106231337Y-157880097D01*
X106233500Y-157891771D01*
X106235360Y-157905347D01*
X106239099Y-157932646D01*
X106242510Y-157940527D01*
X106242510Y-157940529D01*
X106244595Y-157945347D01*
X106251627Y-157966610D01*
X106252828Y-157971729D01*
X106254790Y-157980093D01*
X106274681Y-158016275D01*
X106279888Y-158026905D01*
X106296280Y-158064783D01*
X106301686Y-158071459D01*
X106301687Y-158071461D01*
X106304992Y-158075542D01*
X106317480Y-158094126D01*
X106324153Y-158106263D01*
X106330836Y-158114005D01*
X106354040Y-158137209D01*
X106362865Y-158147009D01*
X106386888Y-158176675D01*
X106401144Y-158186806D01*
X106417244Y-158200413D01*
X107259377Y-159042546D01*
X107293403Y-159104858D01*
X107291989Y-159164251D01*
X107250349Y-159319653D01*
X107231071Y-159540000D01*
X107250349Y-159760347D01*
X107251773Y-159765660D01*
X107251773Y-159765662D01*
X107282618Y-159880775D01*
X107307597Y-159973999D01*
X107309920Y-159978980D01*
X107309920Y-159978981D01*
X107398749Y-160169477D01*
X107398752Y-160169482D01*
X107401075Y-160174464D01*
X107404229Y-160178968D01*
X107404232Y-160178973D01*
X107509211Y-160328898D01*
X107527944Y-160355652D01*
X107684348Y-160512056D01*
X107688856Y-160515213D01*
X107688859Y-160515215D01*
X107699496Y-160522663D01*
X107865535Y-160638925D01*
X107919513Y-160664095D01*
X108061018Y-160730080D01*
X108061024Y-160730082D01*
X108066001Y-160732403D01*
X108071309Y-160733825D01*
X108071311Y-160733826D01*
X108274338Y-160788227D01*
X108274340Y-160788227D01*
X108279653Y-160789651D01*
X108500000Y-160808929D01*
X108720347Y-160789651D01*
X108725660Y-160788227D01*
X108725662Y-160788227D01*
X108928689Y-160733826D01*
X108928691Y-160733825D01*
X108933999Y-160732403D01*
X108938976Y-160730082D01*
X108938982Y-160730080D01*
X109080487Y-160664095D01*
X109134465Y-160638925D01*
X109300504Y-160522663D01*
X109311141Y-160515215D01*
X109311144Y-160515213D01*
X109315652Y-160512056D01*
X109472056Y-160355652D01*
X109490790Y-160328898D01*
X109595768Y-160178973D01*
X109595771Y-160178968D01*
X109598925Y-160174464D01*
X109601248Y-160169482D01*
X109601251Y-160169477D01*
X109655805Y-160052484D01*
X109702722Y-159999199D01*
X109770999Y-159979738D01*
X109838959Y-160000280D01*
X109884195Y-160052484D01*
X109938749Y-160169477D01*
X109938752Y-160169482D01*
X109941075Y-160174464D01*
X109944229Y-160178968D01*
X109944232Y-160178973D01*
X110049211Y-160328898D01*
X110067944Y-160355652D01*
X110224348Y-160512056D01*
X110228856Y-160515213D01*
X110228859Y-160515215D01*
X110239496Y-160522663D01*
X110405535Y-160638925D01*
X110459513Y-160664095D01*
X110601018Y-160730080D01*
X110601024Y-160730082D01*
X110606001Y-160732403D01*
X110611309Y-160733825D01*
X110611311Y-160733826D01*
X110814338Y-160788227D01*
X110814340Y-160788227D01*
X110819653Y-160789651D01*
X111040000Y-160808929D01*
X111260347Y-160789651D01*
X111265660Y-160788227D01*
X111265662Y-160788227D01*
X111468689Y-160733826D01*
X111468691Y-160733825D01*
X111473999Y-160732403D01*
X111478976Y-160730082D01*
X111478982Y-160730080D01*
X111620487Y-160664095D01*
X111674465Y-160638925D01*
X111840504Y-160522663D01*
X111851141Y-160515215D01*
X111851144Y-160515213D01*
X111855652Y-160512056D01*
X112012056Y-160355652D01*
X112030790Y-160328898D01*
X112133160Y-160182697D01*
X112138925Y-160174464D01*
X112140446Y-160171201D01*
X112191403Y-160122613D01*
X112261116Y-160109175D01*
X112327027Y-160135561D01*
X112356573Y-160168770D01*
X112466676Y-160348440D01*
X112472765Y-160356759D01*
X112613665Y-160519417D01*
X112621032Y-160526633D01*
X112786606Y-160664095D01*
X112795053Y-160670010D01*
X112980859Y-160778586D01*
X112990146Y-160783036D01*
X113191198Y-160859810D01*
X113201091Y-160862684D01*
X113308248Y-160884485D01*
X113322300Y-160883290D01*
X113326000Y-160872945D01*
X113326000Y-160872229D01*
X113834000Y-160872229D01*
X113838064Y-160886071D01*
X113851479Y-160888105D01*
X113861025Y-160886882D01*
X113871095Y-160884742D01*
X114077225Y-160822900D01*
X114086832Y-160819134D01*
X114280076Y-160724464D01*
X114288934Y-160719185D01*
X114464141Y-160594211D01*
X114472003Y-160587567D01*
X114624445Y-160435656D01*
X114631122Y-160427811D01*
X114756702Y-160253047D01*
X114762013Y-160244208D01*
X114857358Y-160051292D01*
X114861156Y-160041699D01*
X114923716Y-159835791D01*
X114925893Y-159825721D01*
X114927705Y-159811960D01*
X114925493Y-159797778D01*
X114912336Y-159794000D01*
X113852115Y-159794000D01*
X113836876Y-159798475D01*
X113835671Y-159799865D01*
X113834000Y-159807548D01*
X113834000Y-160872229D01*
X113326000Y-160872229D01*
X113326000Y-159412000D01*
X113346002Y-159343879D01*
X113399658Y-159297386D01*
X113452000Y-159286000D01*
X114912367Y-159286000D01*
X114925898Y-159282027D01*
X114927203Y-159272947D01*
X114884133Y-159101477D01*
X114880813Y-159091726D01*
X114794999Y-158894365D01*
X114790133Y-158885290D01*
X114673239Y-158704601D01*
X114666947Y-158696430D01*
X114522113Y-158537260D01*
X114514580Y-158530234D01*
X114345691Y-158396855D01*
X114337108Y-158391153D01*
X114210539Y-158321283D01*
X114160568Y-158270850D01*
X114145796Y-158201407D01*
X114170912Y-158135002D01*
X114208431Y-158101856D01*
X114209487Y-158101246D01*
X114214465Y-158098925D01*
X114317297Y-158026921D01*
X114391141Y-157975215D01*
X114391144Y-157975213D01*
X114395652Y-157972056D01*
X114552056Y-157815652D01*
X114557218Y-157808281D01*
X114675768Y-157638973D01*
X114675769Y-157638971D01*
X114678925Y-157634464D01*
X114681248Y-157629482D01*
X114681251Y-157629477D01*
X114770080Y-157438981D01*
X114770080Y-157438980D01*
X114772403Y-157433999D01*
X114788331Y-157374557D01*
X114828227Y-157225662D01*
X114828227Y-157225660D01*
X114829651Y-157220347D01*
X114848929Y-157000000D01*
X114829651Y-156779653D01*
X114791866Y-156638636D01*
X114773826Y-156571311D01*
X114773825Y-156571309D01*
X114772403Y-156566001D01*
X114756908Y-156532772D01*
X114681251Y-156370523D01*
X114681248Y-156370518D01*
X114678925Y-156365536D01*
X114626688Y-156290933D01*
X114555215Y-156188859D01*
X114555213Y-156188856D01*
X114552056Y-156184348D01*
X114395652Y-156027944D01*
X114391144Y-156024787D01*
X114391141Y-156024785D01*
X114276418Y-155944455D01*
X114214465Y-155901075D01*
X114126503Y-155860058D01*
X114018982Y-155809920D01*
X114018976Y-155809918D01*
X114013999Y-155807597D01*
X114008691Y-155806175D01*
X114008689Y-155806174D01*
X113805662Y-155751773D01*
X113805660Y-155751773D01*
X113800347Y-155750349D01*
X113580000Y-155731071D01*
X113359653Y-155750349D01*
X113354340Y-155751773D01*
X113354338Y-155751773D01*
X113151311Y-155806174D01*
X113151309Y-155806175D01*
X113146001Y-155807597D01*
X113141020Y-155809920D01*
X113141019Y-155809920D01*
X112950523Y-155898749D01*
X112950518Y-155898752D01*
X112945536Y-155901075D01*
X112941029Y-155904231D01*
X112941027Y-155904232D01*
X112768859Y-156024785D01*
X112768856Y-156024787D01*
X112764348Y-156027944D01*
X112607944Y-156184348D01*
X112604787Y-156188856D01*
X112604785Y-156188859D01*
X112533312Y-156290933D01*
X112481075Y-156365536D01*
X112478752Y-156370518D01*
X112478749Y-156370523D01*
X112424195Y-156487516D01*
X112377278Y-156540801D01*
X112309001Y-156560262D01*
X112241041Y-156539720D01*
X112195805Y-156487516D01*
X112141251Y-156370523D01*
X112141248Y-156370518D01*
X112138925Y-156365536D01*
X112086688Y-156290933D01*
X112015215Y-156188859D01*
X112015213Y-156188856D01*
X112012056Y-156184348D01*
X111855652Y-156027944D01*
X111851144Y-156024787D01*
X111851141Y-156024785D01*
X111736418Y-155944455D01*
X111674465Y-155901075D01*
X111586503Y-155860058D01*
X111478982Y-155809920D01*
X111478976Y-155809918D01*
X111473999Y-155807597D01*
X111468691Y-155806175D01*
X111468689Y-155806174D01*
X111265662Y-155751773D01*
X111265660Y-155751773D01*
X111260347Y-155750349D01*
X111040000Y-155731071D01*
X110819653Y-155750349D01*
X110814340Y-155751773D01*
X110814338Y-155751773D01*
X110611311Y-155806174D01*
X110611309Y-155806175D01*
X110606001Y-155807597D01*
X110601020Y-155809920D01*
X110601019Y-155809920D01*
X110410523Y-155898749D01*
X110410518Y-155898752D01*
X110405536Y-155901075D01*
X110401029Y-155904231D01*
X110401027Y-155904232D01*
X110228859Y-156024785D01*
X110228856Y-156024787D01*
X110224348Y-156027944D01*
X110067944Y-156184348D01*
X110064786Y-156188858D01*
X110064781Y-156188864D01*
X109993312Y-156290933D01*
X109937855Y-156335262D01*
X109867236Y-156342571D01*
X109803875Y-156310541D01*
X109767890Y-156249339D01*
X109764099Y-156218663D01*
X109764099Y-156104882D01*
X109763324Y-156099988D01*
X109750798Y-156020894D01*
X109750797Y-156020892D01*
X109749246Y-156011096D01*
X109691650Y-155898058D01*
X109601942Y-155808350D01*
X109488904Y-155750754D01*
X109479115Y-155749204D01*
X109479113Y-155749203D01*
X109451751Y-155744870D01*
X109395119Y-155735900D01*
X108500181Y-155735900D01*
X107604882Y-155735901D01*
X107599989Y-155736676D01*
X107599988Y-155736676D01*
X107520894Y-155749202D01*
X107520892Y-155749203D01*
X107511096Y-155750754D01*
X107502257Y-155755258D01*
X107502256Y-155755258D01*
X107458704Y-155777449D01*
X107388927Y-155790554D01*
X107323142Y-155763854D01*
X107282235Y-155705827D01*
X107275500Y-155665183D01*
X107275500Y-146519859D01*
X107295502Y-146451738D01*
X107312405Y-146430764D01*
X109262070Y-144481099D01*
X109324382Y-144447073D01*
X109400295Y-144454167D01*
X109628716Y-144550890D01*
X109628724Y-144550893D01*
X109632822Y-144552628D01*
X109707977Y-144572555D01*
X109888675Y-144620467D01*
X109888680Y-144620468D01*
X109892972Y-144621606D01*
X109897381Y-144622128D01*
X109897387Y-144622129D01*
X110039459Y-144638944D01*
X110160245Y-144653240D01*
X110429310Y-144646899D01*
X110460245Y-144641750D01*
X110690406Y-144603441D01*
X110690410Y-144603440D01*
X110694796Y-144602710D01*
X110699037Y-144601369D01*
X110699040Y-144601368D01*
X110947162Y-144522897D01*
X110947164Y-144522896D01*
X110951408Y-144521554D01*
X110955419Y-144519628D01*
X110955424Y-144519626D01*
X111190006Y-144406981D01*
X111190007Y-144406980D01*
X111194025Y-144405051D01*
X111197731Y-144402575D01*
X111414098Y-144258004D01*
X111414102Y-144258001D01*
X111417806Y-144255526D01*
X111421123Y-144252555D01*
X111421127Y-144252552D01*
X111614970Y-144078931D01*
X111618286Y-144075961D01*
X111703221Y-143974919D01*
X111788601Y-143873348D01*
X111788606Y-143873342D01*
X111791465Y-143869940D01*
X111933887Y-143641572D01*
X111936182Y-143636382D01*
X112007564Y-143474919D01*
X112042712Y-143395416D01*
X112115767Y-143136382D01*
X112143911Y-142926845D01*
X112151168Y-142872820D01*
X112151169Y-142872812D01*
X112151595Y-142869638D01*
X112155355Y-142750000D01*
X112152824Y-142714245D01*
X112136662Y-142485982D01*
X112136347Y-142481533D01*
X112132986Y-142465919D01*
X112080636Y-142222771D01*
X112079700Y-142218423D01*
X112063879Y-142175536D01*
X111988090Y-141970101D01*
X111988089Y-141970099D01*
X111986547Y-141965919D01*
X111955249Y-141907913D01*
X111860857Y-141732976D01*
X111858744Y-141729060D01*
X111780677Y-141623366D01*
X111701492Y-141516157D01*
X111701489Y-141516154D01*
X111698843Y-141512571D01*
X111510034Y-141320772D01*
X111296083Y-141157490D01*
X111243434Y-141128005D01*
X111065147Y-141028159D01*
X111065144Y-141028158D01*
X111061261Y-141025983D01*
X111057122Y-141024382D01*
X111057114Y-141024378D01*
X110871566Y-140952596D01*
X110810251Y-140928875D01*
X110805926Y-140927872D01*
X110805921Y-140927871D01*
X110661864Y-140894481D01*
X110548063Y-140868103D01*
X110279928Y-140844880D01*
X110275493Y-140845124D01*
X110275489Y-140845124D01*
X110166324Y-140851132D01*
X110011196Y-140859669D01*
X110006833Y-140860537D01*
X110006832Y-140860537D01*
X109751596Y-140911307D01*
X109751594Y-140911308D01*
X109747228Y-140912176D01*
X109493292Y-141001352D01*
X109254455Y-141125418D01*
X109250840Y-141128001D01*
X109250834Y-141128005D01*
X109205793Y-141160192D01*
X109035481Y-141281899D01*
X109032254Y-141284977D01*
X109032252Y-141284979D01*
X108862841Y-141446589D01*
X108840740Y-141467672D01*
X108674118Y-141679032D01*
X108642785Y-141732976D01*
X108541173Y-141907913D01*
X108541170Y-141907919D01*
X108538939Y-141911760D01*
X108437900Y-142161213D01*
X108436829Y-142165526D01*
X108436827Y-142165531D01*
X108420074Y-142232976D01*
X108373017Y-142422414D01*
X108345585Y-142690151D01*
X108345760Y-142694602D01*
X108352763Y-142872820D01*
X108356152Y-142959083D01*
X108404505Y-143223843D01*
X108489682Y-143479148D01*
X108491674Y-143483135D01*
X108491675Y-143483137D01*
X108545059Y-143589976D01*
X108557614Y-143659854D01*
X108530398Y-143725427D01*
X108521441Y-143735390D01*
X106388636Y-145868195D01*
X106384827Y-145871848D01*
X106341288Y-145911884D01*
X106336760Y-145919187D01*
X106336759Y-145919188D01*
X106319543Y-145946955D01*
X106312820Y-145956737D01*
X106287872Y-145989604D01*
X106284710Y-145997591D01*
X106284708Y-145997594D01*
X106282772Y-146002483D01*
X106272713Y-146022484D01*
X106265418Y-146034250D01*
X106253905Y-146073877D01*
X106250060Y-146085105D01*
X106238033Y-146115484D01*
X106238032Y-146115487D01*
X106234871Y-146123472D01*
X106233974Y-146132009D01*
X106233972Y-146132016D01*
X106233423Y-146137239D01*
X106229112Y-146159215D01*
X106225249Y-146172512D01*
X106224500Y-146182712D01*
X106224500Y-146215539D01*
X106223810Y-146228710D01*
X106219821Y-146266662D01*
X89900000Y-146266662D01*
X89900000Y-139839654D01*
X109025618Y-139839654D01*
X109032673Y-139849627D01*
X109063679Y-139875551D01*
X109070598Y-139880579D01*
X109295272Y-140021515D01*
X109302807Y-140025556D01*
X109544520Y-140134694D01*
X109552551Y-140137680D01*
X109806832Y-140213002D01*
X109815184Y-140214869D01*
X110077340Y-140254984D01*
X110085874Y-140255700D01*
X110351045Y-140259867D01*
X110359596Y-140259418D01*
X110622883Y-140227557D01*
X110631284Y-140225955D01*
X110887824Y-140158653D01*
X110895926Y-140155926D01*
X111140949Y-140054434D01*
X111148617Y-140050628D01*
X111377598Y-139916822D01*
X111384679Y-139912009D01*
X111464655Y-139849301D01*
X111473125Y-139837442D01*
X111466608Y-139825818D01*
X110262812Y-138622022D01*
X110248868Y-138614408D01*
X110247035Y-138614539D01*
X110240420Y-138618790D01*
X109032910Y-139826300D01*
X109025618Y-139839654D01*
X89900000Y-139839654D01*
X89900000Y-138233204D01*
X108237665Y-138233204D01*
X108252932Y-138497969D01*
X108254005Y-138506470D01*
X108305065Y-138766722D01*
X108307276Y-138774974D01*
X108393184Y-139025894D01*
X108396499Y-139033779D01*
X108515664Y-139270713D01*
X108520020Y-139278079D01*
X108649347Y-139466250D01*
X108659601Y-139474594D01*
X108673342Y-139467448D01*
X109877978Y-138262812D01*
X109884356Y-138251132D01*
X110614408Y-138251132D01*
X110614539Y-138252965D01*
X110618790Y-138259580D01*
X111825730Y-139466520D01*
X111837939Y-139473187D01*
X111849439Y-139464497D01*
X111946831Y-139331913D01*
X111951418Y-139324685D01*
X112077962Y-139091621D01*
X112081530Y-139083827D01*
X112175271Y-138835750D01*
X112177748Y-138827544D01*
X112236954Y-138569038D01*
X112238294Y-138560577D01*
X112262031Y-138294616D01*
X112262277Y-138289677D01*
X112262666Y-138252485D01*
X112262523Y-138247519D01*
X112244362Y-137981123D01*
X112243201Y-137972649D01*
X112189419Y-137712944D01*
X112187120Y-137704709D01*
X112098588Y-137454705D01*
X112095191Y-137446854D01*
X111973550Y-137211178D01*
X111969122Y-137203866D01*
X111850031Y-137034417D01*
X111839509Y-137026037D01*
X111826121Y-137033089D01*
X110622022Y-138237188D01*
X110614408Y-138251132D01*
X109884356Y-138251132D01*
X109885592Y-138248868D01*
X109885461Y-138247035D01*
X109881210Y-138240420D01*
X108673814Y-137033024D01*
X108661804Y-137026466D01*
X108650064Y-137035434D01*
X108541935Y-137185911D01*
X108537418Y-137193196D01*
X108413325Y-137427567D01*
X108409839Y-137435395D01*
X108318700Y-137684446D01*
X108316311Y-137692670D01*
X108259812Y-137951795D01*
X108258563Y-137960250D01*
X108237754Y-138224653D01*
X108237665Y-138233204D01*
X89900000Y-138233204D01*
X89900000Y-136662500D01*
X109026584Y-136662500D01*
X109032980Y-136673770D01*
X110237188Y-137877978D01*
X110251132Y-137885592D01*
X110252965Y-137885461D01*
X110259580Y-137881210D01*
X111466604Y-136674186D01*
X111473795Y-136661017D01*
X111466473Y-136650780D01*
X111419233Y-136612115D01*
X111412261Y-136607160D01*
X111186122Y-136468582D01*
X111178552Y-136464624D01*
X110935704Y-136358022D01*
X110927644Y-136355120D01*
X110672592Y-136282467D01*
X110664214Y-136280685D01*
X110401656Y-136243318D01*
X110393111Y-136242691D01*
X110127908Y-136241302D01*
X110119374Y-136241839D01*
X109856433Y-136276456D01*
X109848035Y-136278149D01*
X109592238Y-136348127D01*
X109584143Y-136350946D01*
X109340199Y-136454997D01*
X109332577Y-136458881D01*
X109105013Y-136595075D01*
X109097981Y-136599962D01*
X109035053Y-136650377D01*
X109026584Y-136662500D01*
X89900000Y-136662500D01*
X89900000Y-121820007D01*
X89920002Y-121751886D01*
X89973658Y-121705393D01*
X90043932Y-121695289D01*
X90108512Y-121724783D01*
X90129653Y-121748368D01*
X90263003Y-121941309D01*
X90266025Y-121944578D01*
X90442679Y-122135682D01*
X90442684Y-122135687D01*
X90445695Y-122138944D01*
X90654411Y-122308866D01*
X90658229Y-122311165D01*
X90658231Y-122311166D01*
X90868316Y-122437647D01*
X90884987Y-122447684D01*
X90889082Y-122449418D01*
X90889084Y-122449419D01*
X91128721Y-122550892D01*
X91128728Y-122550894D01*
X91132822Y-122552628D01*
X91207977Y-122572555D01*
X91388675Y-122620467D01*
X91388680Y-122620468D01*
X91392972Y-122621606D01*
X91397381Y-122622128D01*
X91397387Y-122622129D01*
X91539459Y-122638944D01*
X91660245Y-122653240D01*
X91929310Y-122646899D01*
X91960245Y-122641750D01*
X92190406Y-122603441D01*
X92190410Y-122603440D01*
X92194796Y-122602710D01*
X92199037Y-122601369D01*
X92199040Y-122601368D01*
X92447162Y-122522897D01*
X92447164Y-122522896D01*
X92451408Y-122521554D01*
X92455419Y-122519628D01*
X92455424Y-122519626D01*
X92690006Y-122406981D01*
X92690007Y-122406980D01*
X92694025Y-122405051D01*
X92697731Y-122402575D01*
X92914098Y-122258004D01*
X92914102Y-122258001D01*
X92917806Y-122255526D01*
X92921123Y-122252555D01*
X92921127Y-122252552D01*
X93114970Y-122078931D01*
X93118286Y-122075961D01*
X93203221Y-121974919D01*
X93288601Y-121873348D01*
X93288606Y-121873342D01*
X93291465Y-121869940D01*
X93433887Y-121641572D01*
X93436182Y-121636382D01*
X93505694Y-121479148D01*
X93542712Y-121395416D01*
X93615767Y-121136382D01*
X93643911Y-120926845D01*
X93651168Y-120872820D01*
X93651169Y-120872812D01*
X93651595Y-120869638D01*
X93655355Y-120750000D01*
X93652824Y-120714245D01*
X93636662Y-120485982D01*
X93636347Y-120481533D01*
X93632986Y-120465919D01*
X93580636Y-120222771D01*
X93579700Y-120218423D01*
X93563879Y-120175536D01*
X93488090Y-119970101D01*
X93488089Y-119970099D01*
X93486547Y-119965919D01*
X93406772Y-119818070D01*
X93360857Y-119732976D01*
X93358744Y-119729060D01*
X93280677Y-119623366D01*
X93201492Y-119516157D01*
X93201489Y-119516154D01*
X93198843Y-119512571D01*
X93010034Y-119320772D01*
X92796083Y-119157490D01*
X92743434Y-119128005D01*
X92565147Y-119028159D01*
X92565144Y-119028158D01*
X92561261Y-119025983D01*
X92557122Y-119024382D01*
X92557114Y-119024378D01*
X92371566Y-118952596D01*
X92310251Y-118928875D01*
X92305926Y-118927872D01*
X92305921Y-118927871D01*
X92161864Y-118894481D01*
X92048063Y-118868103D01*
X91779928Y-118844880D01*
X91775493Y-118845124D01*
X91775489Y-118845124D01*
X91666324Y-118851132D01*
X91511196Y-118859669D01*
X91506833Y-118860537D01*
X91506832Y-118860537D01*
X91251596Y-118911307D01*
X91251594Y-118911308D01*
X91247228Y-118912176D01*
X90993292Y-119001352D01*
X90754455Y-119125418D01*
X90750840Y-119128001D01*
X90750834Y-119128005D01*
X90705793Y-119160192D01*
X90535481Y-119281899D01*
X90532254Y-119284977D01*
X90532252Y-119284979D01*
X90379730Y-119430478D01*
X90340740Y-119467672D01*
X90174118Y-119679032D01*
X90142785Y-119732976D01*
X90134954Y-119746458D01*
X90083443Y-119795317D01*
X90013695Y-119808571D01*
X89947853Y-119782012D01*
X89906822Y-119724072D01*
X89900000Y-119683173D01*
X89900000Y-89690151D01*
X137345585Y-89690151D01*
X137345760Y-89694602D01*
X137352763Y-89872820D01*
X137356152Y-89959083D01*
X137404505Y-90223843D01*
X137489682Y-90479148D01*
X137491674Y-90483135D01*
X137491675Y-90483137D01*
X137606542Y-90713022D01*
X137609981Y-90719905D01*
X137763003Y-90941309D01*
X137766025Y-90944578D01*
X137942679Y-91135682D01*
X137942684Y-91135687D01*
X137945695Y-91138944D01*
X138154411Y-91308866D01*
X138158229Y-91311165D01*
X138158231Y-91311166D01*
X138381170Y-91445386D01*
X138384987Y-91447684D01*
X138389082Y-91449418D01*
X138389084Y-91449419D01*
X138628721Y-91550892D01*
X138628728Y-91550894D01*
X138632822Y-91552628D01*
X138728710Y-91578052D01*
X138888675Y-91620467D01*
X138888680Y-91620468D01*
X138892972Y-91621606D01*
X138897381Y-91622128D01*
X138897387Y-91622129D01*
X139046289Y-91639752D01*
X139160245Y-91653240D01*
X139429310Y-91646899D01*
X139433708Y-91646167D01*
X139690406Y-91603441D01*
X139690410Y-91603440D01*
X139694796Y-91602710D01*
X139699037Y-91601369D01*
X139699040Y-91601368D01*
X139947162Y-91522897D01*
X139947164Y-91522896D01*
X139951408Y-91521554D01*
X139955419Y-91519628D01*
X139955424Y-91519626D01*
X140190006Y-91406981D01*
X140190007Y-91406980D01*
X140194025Y-91405051D01*
X140197731Y-91402575D01*
X140414098Y-91258004D01*
X140414102Y-91258001D01*
X140417806Y-91255526D01*
X140421123Y-91252555D01*
X140421127Y-91252552D01*
X140614970Y-91078931D01*
X140618286Y-91075961D01*
X140631180Y-91060622D01*
X140788601Y-90873348D01*
X140788606Y-90873342D01*
X140791465Y-90869940D01*
X140890910Y-90710484D01*
X140943929Y-90663268D01*
X141014060Y-90652212D01*
X141079035Y-90680826D01*
X141106276Y-90713022D01*
X141107990Y-90715920D01*
X141109981Y-90719905D01*
X141263003Y-90941309D01*
X141266025Y-90944578D01*
X141442679Y-91135682D01*
X141442684Y-91135687D01*
X141445695Y-91138944D01*
X141654411Y-91308866D01*
X141658229Y-91311165D01*
X141658231Y-91311166D01*
X141881170Y-91445386D01*
X141884987Y-91447684D01*
X141889082Y-91449418D01*
X141889084Y-91449419D01*
X142128721Y-91550892D01*
X142128728Y-91550894D01*
X142132822Y-91552628D01*
X142228710Y-91578052D01*
X142388675Y-91620467D01*
X142388680Y-91620468D01*
X142392972Y-91621606D01*
X142397381Y-91622128D01*
X142397387Y-91622129D01*
X142546289Y-91639752D01*
X142660245Y-91653240D01*
X142929310Y-91646899D01*
X142933708Y-91646167D01*
X143190406Y-91603441D01*
X143190410Y-91603440D01*
X143194796Y-91602710D01*
X143199037Y-91601369D01*
X143199040Y-91601368D01*
X143447162Y-91522897D01*
X143447164Y-91522896D01*
X143451408Y-91521554D01*
X143455419Y-91519628D01*
X143455424Y-91519626D01*
X143690006Y-91406981D01*
X143690007Y-91406980D01*
X143694025Y-91405051D01*
X143697731Y-91402575D01*
X143914098Y-91258004D01*
X143914102Y-91258001D01*
X143917806Y-91255526D01*
X143921123Y-91252555D01*
X143921127Y-91252552D01*
X144114970Y-91078931D01*
X144118286Y-91075961D01*
X144131180Y-91060622D01*
X144288601Y-90873348D01*
X144288606Y-90873342D01*
X144291465Y-90869940D01*
X144433887Y-90641572D01*
X144542712Y-90395416D01*
X144615767Y-90136382D01*
X144651595Y-89869638D01*
X144655355Y-89750000D01*
X144636347Y-89481533D01*
X144579700Y-89218423D01*
X144560188Y-89165531D01*
X144488090Y-88970101D01*
X144488089Y-88970099D01*
X144486547Y-88965919D01*
X144455249Y-88907913D01*
X144360857Y-88732976D01*
X144358744Y-88729060D01*
X144198843Y-88512571D01*
X144010034Y-88320772D01*
X143796083Y-88157490D01*
X143743434Y-88128005D01*
X143565147Y-88028159D01*
X143565144Y-88028158D01*
X143561261Y-88025983D01*
X143557122Y-88024382D01*
X143557114Y-88024378D01*
X143371566Y-87952596D01*
X143310251Y-87928875D01*
X143305926Y-87927872D01*
X143305921Y-87927871D01*
X143161864Y-87894481D01*
X143048063Y-87868103D01*
X142779928Y-87844880D01*
X142775493Y-87845124D01*
X142775489Y-87845124D01*
X142666324Y-87851132D01*
X142511196Y-87859669D01*
X142506833Y-87860537D01*
X142506832Y-87860537D01*
X142251596Y-87911307D01*
X142251594Y-87911308D01*
X142247228Y-87912176D01*
X141993292Y-88001352D01*
X141754455Y-88125418D01*
X141750840Y-88128001D01*
X141750834Y-88128005D01*
X141705793Y-88160192D01*
X141535481Y-88281899D01*
X141340740Y-88467672D01*
X141174118Y-88679032D01*
X141171882Y-88682881D01*
X141171881Y-88682883D01*
X141155558Y-88710985D01*
X141145060Y-88729060D01*
X141109633Y-88790052D01*
X141058123Y-88838911D01*
X140988374Y-88852165D01*
X140922532Y-88825606D01*
X140889792Y-88786600D01*
X140860860Y-88732981D01*
X140860857Y-88732976D01*
X140858744Y-88729060D01*
X140698843Y-88512571D01*
X140510034Y-88320772D01*
X140296083Y-88157490D01*
X140243434Y-88128005D01*
X140065147Y-88028159D01*
X140065144Y-88028158D01*
X140061261Y-88025983D01*
X140057122Y-88024382D01*
X140057114Y-88024378D01*
X139871566Y-87952596D01*
X139810251Y-87928875D01*
X139805926Y-87927872D01*
X139805921Y-87927871D01*
X139661864Y-87894481D01*
X139548063Y-87868103D01*
X139279928Y-87844880D01*
X139275493Y-87845124D01*
X139275489Y-87845124D01*
X139166324Y-87851132D01*
X139011196Y-87859669D01*
X139006833Y-87860537D01*
X139006832Y-87860537D01*
X138751596Y-87911307D01*
X138751594Y-87911308D01*
X138747228Y-87912176D01*
X138493292Y-88001352D01*
X138254455Y-88125418D01*
X138250840Y-88128001D01*
X138250834Y-88128005D01*
X138205793Y-88160192D01*
X138035481Y-88281899D01*
X137840740Y-88467672D01*
X137674118Y-88679032D01*
X137642785Y-88732976D01*
X137541173Y-88907913D01*
X137541170Y-88907919D01*
X137538939Y-88911760D01*
X137437900Y-89161213D01*
X137436829Y-89165526D01*
X137436827Y-89165531D01*
X137423689Y-89218423D01*
X137373017Y-89422414D01*
X137345585Y-89690151D01*
X89900000Y-89690151D01*
X89900000Y-59940151D01*
X117095585Y-59940151D01*
X117095760Y-59944602D01*
X117102763Y-60122820D01*
X117106152Y-60209083D01*
X117154505Y-60473843D01*
X117239682Y-60729148D01*
X117359981Y-60969905D01*
X117513003Y-61191309D01*
X117516025Y-61194578D01*
X117692679Y-61385682D01*
X117692684Y-61385687D01*
X117695695Y-61388944D01*
X117904411Y-61558866D01*
X117908229Y-61561165D01*
X117908231Y-61561166D01*
X118131170Y-61695386D01*
X118134987Y-61697684D01*
X118139082Y-61699418D01*
X118139084Y-61699419D01*
X118378721Y-61800892D01*
X118378728Y-61800894D01*
X118382822Y-61802628D01*
X118478710Y-61828052D01*
X118638675Y-61870467D01*
X118638680Y-61870468D01*
X118642972Y-61871606D01*
X118647381Y-61872128D01*
X118647387Y-61872129D01*
X118796289Y-61889752D01*
X118910245Y-61903240D01*
X119179310Y-61896899D01*
X119183708Y-61896167D01*
X119440406Y-61853441D01*
X119440410Y-61853440D01*
X119444796Y-61852710D01*
X119449037Y-61851369D01*
X119449040Y-61851368D01*
X119697162Y-61772897D01*
X119697164Y-61772896D01*
X119701408Y-61771554D01*
X119705419Y-61769628D01*
X119705424Y-61769626D01*
X119940006Y-61656981D01*
X119940007Y-61656980D01*
X119944025Y-61655051D01*
X119947731Y-61652575D01*
X120164098Y-61508004D01*
X120164102Y-61508001D01*
X120167806Y-61505526D01*
X120171123Y-61502555D01*
X120171127Y-61502552D01*
X120364970Y-61328931D01*
X120368286Y-61325961D01*
X120381180Y-61310622D01*
X120538601Y-61123348D01*
X120538606Y-61123342D01*
X120541465Y-61119940D01*
X120683887Y-60891572D01*
X120792712Y-60645416D01*
X120865767Y-60386382D01*
X120901595Y-60119638D01*
X120905355Y-60000000D01*
X120901118Y-59940151D01*
X127595585Y-59940151D01*
X127595760Y-59944602D01*
X127602763Y-60122820D01*
X127606152Y-60209083D01*
X127654505Y-60473843D01*
X127739682Y-60729148D01*
X127859981Y-60969905D01*
X128013003Y-61191309D01*
X128016025Y-61194578D01*
X128192679Y-61385682D01*
X128192684Y-61385687D01*
X128195695Y-61388944D01*
X128404411Y-61558866D01*
X128408229Y-61561165D01*
X128408231Y-61561166D01*
X128631170Y-61695386D01*
X128634987Y-61697684D01*
X128639082Y-61699418D01*
X128639084Y-61699419D01*
X128878721Y-61800892D01*
X128878728Y-61800894D01*
X128882822Y-61802628D01*
X128978710Y-61828052D01*
X129138675Y-61870467D01*
X129138680Y-61870468D01*
X129142972Y-61871606D01*
X129147381Y-61872128D01*
X129147387Y-61872129D01*
X129296289Y-61889752D01*
X129410245Y-61903240D01*
X129679310Y-61896899D01*
X129683708Y-61896167D01*
X129940406Y-61853441D01*
X129940410Y-61853440D01*
X129944796Y-61852710D01*
X129949037Y-61851369D01*
X129949040Y-61851368D01*
X130197162Y-61772897D01*
X130197164Y-61772896D01*
X130201408Y-61771554D01*
X130205419Y-61769628D01*
X130205424Y-61769626D01*
X130440006Y-61656981D01*
X130440007Y-61656980D01*
X130444025Y-61655051D01*
X130447731Y-61652575D01*
X130664098Y-61508004D01*
X130664102Y-61508001D01*
X130667806Y-61505526D01*
X130671123Y-61502555D01*
X130671127Y-61502552D01*
X130864970Y-61328931D01*
X130868286Y-61325961D01*
X130881180Y-61310622D01*
X131038601Y-61123348D01*
X131038606Y-61123342D01*
X131041465Y-61119940D01*
X131183887Y-60891572D01*
X131292712Y-60645416D01*
X131365767Y-60386382D01*
X131401595Y-60119638D01*
X131405355Y-60000000D01*
X131386347Y-59731533D01*
X131329700Y-59468423D01*
X131310188Y-59415531D01*
X131238090Y-59220101D01*
X131238089Y-59220099D01*
X131236547Y-59215919D01*
X131205249Y-59157913D01*
X131110857Y-58982976D01*
X131108744Y-58979060D01*
X130948843Y-58762571D01*
X130760034Y-58570772D01*
X130546083Y-58407490D01*
X130493434Y-58378005D01*
X130315147Y-58278159D01*
X130315144Y-58278158D01*
X130311261Y-58275983D01*
X130307122Y-58274382D01*
X130307114Y-58274378D01*
X130121566Y-58202596D01*
X130060251Y-58178875D01*
X130055926Y-58177872D01*
X130055921Y-58177871D01*
X129911864Y-58144481D01*
X129798063Y-58118103D01*
X129529928Y-58094880D01*
X129525493Y-58095124D01*
X129525489Y-58095124D01*
X129416324Y-58101132D01*
X129261196Y-58109669D01*
X129256833Y-58110537D01*
X129256832Y-58110537D01*
X129001596Y-58161307D01*
X129001594Y-58161308D01*
X128997228Y-58162176D01*
X128743292Y-58251352D01*
X128504455Y-58375418D01*
X128500840Y-58378001D01*
X128500834Y-58378005D01*
X128455793Y-58410192D01*
X128285481Y-58531899D01*
X128090740Y-58717672D01*
X127924118Y-58929032D01*
X127892785Y-58982976D01*
X127791173Y-59157913D01*
X127791170Y-59157919D01*
X127788939Y-59161760D01*
X127687900Y-59411213D01*
X127686829Y-59415526D01*
X127686827Y-59415531D01*
X127673689Y-59468423D01*
X127623017Y-59672414D01*
X127595585Y-59940151D01*
X120901118Y-59940151D01*
X120886347Y-59731533D01*
X120829700Y-59468423D01*
X120810188Y-59415531D01*
X120738090Y-59220101D01*
X120738089Y-59220099D01*
X120736547Y-59215919D01*
X120705249Y-59157913D01*
X120610857Y-58982976D01*
X120608744Y-58979060D01*
X120448843Y-58762571D01*
X120260034Y-58570772D01*
X120046083Y-58407490D01*
X119993434Y-58378005D01*
X119815147Y-58278159D01*
X119815144Y-58278158D01*
X119811261Y-58275983D01*
X119807122Y-58274382D01*
X119807114Y-58274378D01*
X119621566Y-58202596D01*
X119560251Y-58178875D01*
X119555926Y-58177872D01*
X119555921Y-58177871D01*
X119411864Y-58144481D01*
X119298063Y-58118103D01*
X119029928Y-58094880D01*
X119025493Y-58095124D01*
X119025489Y-58095124D01*
X118916324Y-58101132D01*
X118761196Y-58109669D01*
X118756833Y-58110537D01*
X118756832Y-58110537D01*
X118501596Y-58161307D01*
X118501594Y-58161308D01*
X118497228Y-58162176D01*
X118243292Y-58251352D01*
X118004455Y-58375418D01*
X118000840Y-58378001D01*
X118000834Y-58378005D01*
X117955793Y-58410192D01*
X117785481Y-58531899D01*
X117590740Y-58717672D01*
X117424118Y-58929032D01*
X117392785Y-58982976D01*
X117291173Y-59157913D01*
X117291170Y-59157919D01*
X117288939Y-59161760D01*
X117187900Y-59411213D01*
X117186829Y-59415526D01*
X117186827Y-59415531D01*
X117173689Y-59468423D01*
X117123017Y-59672414D01*
X117095585Y-59940151D01*
X89900000Y-59940151D01*
X89900000Y-40745987D01*
X139628721Y-40745987D01*
X139637548Y-40757605D01*
X139860281Y-40919430D01*
X139866961Y-40923670D01*
X140136572Y-41071890D01*
X140143707Y-41075247D01*
X140429770Y-41188508D01*
X140437296Y-41190953D01*
X140735279Y-41267462D01*
X140743050Y-41268945D01*
X141048278Y-41307503D01*
X141056169Y-41308000D01*
X141363831Y-41308000D01*
X141371722Y-41307503D01*
X141676950Y-41268945D01*
X141684721Y-41267462D01*
X141982704Y-41190953D01*
X141990230Y-41188508D01*
X142276293Y-41075247D01*
X142283428Y-41071890D01*
X142553039Y-40923670D01*
X142559719Y-40919430D01*
X142782823Y-40757336D01*
X142791246Y-40746413D01*
X142784342Y-40733552D01*
X141222812Y-39172022D01*
X141208868Y-39164408D01*
X141207035Y-39164539D01*
X141200420Y-39168790D01*
X139635334Y-40733876D01*
X139628721Y-40745987D01*
X89900000Y-40745987D01*
X89900000Y-36000000D01*
X90894559Y-36000000D01*
X90914310Y-36376871D01*
X90973347Y-36749613D01*
X91071022Y-37114143D01*
X91206266Y-37466465D01*
X91207764Y-37469405D01*
X91267186Y-37586026D01*
X91377597Y-37802720D01*
X91583137Y-38119225D01*
X91820635Y-38412511D01*
X92087489Y-38679365D01*
X92380775Y-38916863D01*
X92383550Y-38918665D01*
X92691816Y-39118855D01*
X92697279Y-39122403D01*
X92700213Y-39123898D01*
X92700220Y-39123902D01*
X93030595Y-39292236D01*
X93033535Y-39293734D01*
X93385857Y-39428978D01*
X93750387Y-39526653D01*
X93948353Y-39558008D01*
X94119881Y-39585176D01*
X94119889Y-39585177D01*
X94123129Y-39585690D01*
X94500000Y-39605441D01*
X94876871Y-39585690D01*
X94880111Y-39585177D01*
X94880119Y-39585176D01*
X95051647Y-39558008D01*
X95249613Y-39526653D01*
X95614143Y-39428978D01*
X95966465Y-39293734D01*
X95969405Y-39292236D01*
X96299780Y-39123902D01*
X96299787Y-39123898D01*
X96302721Y-39122403D01*
X96308185Y-39118855D01*
X96616450Y-38918665D01*
X96619225Y-38916863D01*
X96758651Y-38803958D01*
X138697290Y-38803958D01*
X138716607Y-39110994D01*
X138717600Y-39118855D01*
X138775246Y-39421046D01*
X138777217Y-39428723D01*
X138872284Y-39721309D01*
X138875199Y-39728672D01*
X139006189Y-40007041D01*
X139010001Y-40013974D01*
X139174851Y-40273736D01*
X139179495Y-40280129D01*
X139254497Y-40370790D01*
X139267014Y-40379245D01*
X139277752Y-40373038D01*
X140837978Y-38812812D01*
X140844356Y-38801132D01*
X141574408Y-38801132D01*
X141574539Y-38802965D01*
X141578790Y-38809580D01*
X143141145Y-40371935D01*
X143154407Y-40379177D01*
X143164512Y-40371988D01*
X143240505Y-40280129D01*
X143245149Y-40273736D01*
X143409999Y-40013974D01*
X143413811Y-40007041D01*
X143544801Y-39728672D01*
X143547716Y-39721309D01*
X143642783Y-39428723D01*
X143644754Y-39421046D01*
X143702400Y-39118855D01*
X143703393Y-39110994D01*
X143722710Y-38803958D01*
X150737290Y-38803958D01*
X150756607Y-39110994D01*
X150757600Y-39118855D01*
X150815246Y-39421046D01*
X150817217Y-39428723D01*
X150912284Y-39721309D01*
X150915199Y-39728672D01*
X151046189Y-40007041D01*
X151050001Y-40013974D01*
X151214851Y-40273736D01*
X151219495Y-40280129D01*
X151294497Y-40370790D01*
X151307014Y-40379245D01*
X151317752Y-40373038D01*
X152877978Y-38812812D01*
X152884356Y-38801132D01*
X153614408Y-38801132D01*
X153614539Y-38802965D01*
X153618790Y-38809580D01*
X155181145Y-40371935D01*
X155194407Y-40379177D01*
X155204512Y-40371988D01*
X155280505Y-40280129D01*
X155285149Y-40273736D01*
X155449999Y-40013974D01*
X155453811Y-40007041D01*
X155584801Y-39728672D01*
X155587716Y-39721309D01*
X155682783Y-39428723D01*
X155684754Y-39421046D01*
X155742400Y-39118855D01*
X155743393Y-39110994D01*
X155762710Y-38803958D01*
X155762710Y-38796042D01*
X155743393Y-38489006D01*
X155742400Y-38481145D01*
X155684754Y-38178954D01*
X155682783Y-38171277D01*
X155587716Y-37878691D01*
X155584801Y-37871328D01*
X155453811Y-37592959D01*
X155449999Y-37586026D01*
X155285149Y-37326264D01*
X155280505Y-37319871D01*
X155205503Y-37229210D01*
X155192986Y-37220755D01*
X155182248Y-37226962D01*
X153622022Y-38787188D01*
X153614408Y-38801132D01*
X152884356Y-38801132D01*
X152885592Y-38798868D01*
X152885461Y-38797035D01*
X152881210Y-38790420D01*
X151318855Y-37228065D01*
X151305593Y-37220823D01*
X151295488Y-37228012D01*
X151219495Y-37319871D01*
X151214851Y-37326264D01*
X151050001Y-37586026D01*
X151046189Y-37592959D01*
X150915199Y-37871328D01*
X150912284Y-37878691D01*
X150817217Y-38171277D01*
X150815246Y-38178954D01*
X150757600Y-38481145D01*
X150756607Y-38489006D01*
X150737290Y-38796042D01*
X150737290Y-38803958D01*
X143722710Y-38803958D01*
X143722710Y-38796042D01*
X143703393Y-38489006D01*
X143702400Y-38481145D01*
X143644754Y-38178954D01*
X143642783Y-38171277D01*
X143547716Y-37878691D01*
X143544801Y-37871328D01*
X143413811Y-37592959D01*
X143409999Y-37586026D01*
X143245149Y-37326264D01*
X143240505Y-37319871D01*
X143165503Y-37229210D01*
X143152986Y-37220755D01*
X143142248Y-37226962D01*
X141582022Y-38787188D01*
X141574408Y-38801132D01*
X140844356Y-38801132D01*
X140845592Y-38798868D01*
X140845461Y-38797035D01*
X140841210Y-38790420D01*
X139278855Y-37228065D01*
X139265593Y-37220823D01*
X139255488Y-37228012D01*
X139179495Y-37319871D01*
X139174851Y-37326264D01*
X139010001Y-37586026D01*
X139006189Y-37592959D01*
X138875199Y-37871328D01*
X138872284Y-37878691D01*
X138777217Y-38171277D01*
X138775246Y-38178954D01*
X138717600Y-38481145D01*
X138716607Y-38489006D01*
X138697290Y-38796042D01*
X138697290Y-38803958D01*
X96758651Y-38803958D01*
X96912511Y-38679365D01*
X97179365Y-38412511D01*
X97416863Y-38119225D01*
X97622403Y-37802720D01*
X97732815Y-37586026D01*
X97792236Y-37469405D01*
X97793734Y-37466465D01*
X97928978Y-37114143D01*
X97998793Y-36853587D01*
X139628754Y-36853587D01*
X139635658Y-36866448D01*
X141197188Y-38427978D01*
X141211132Y-38435592D01*
X141212965Y-38435461D01*
X141219580Y-38431210D01*
X142784666Y-36866124D01*
X142791279Y-36854013D01*
X142790955Y-36853587D01*
X151668754Y-36853587D01*
X151675658Y-36866448D01*
X153237188Y-38427978D01*
X153251132Y-38435592D01*
X153252965Y-38435461D01*
X153259580Y-38431210D01*
X154824666Y-36866124D01*
X154831279Y-36854013D01*
X154822452Y-36842395D01*
X154599719Y-36680570D01*
X154593039Y-36676330D01*
X154323428Y-36528110D01*
X154316293Y-36524753D01*
X154030230Y-36411492D01*
X154022704Y-36409047D01*
X153724721Y-36332538D01*
X153716950Y-36331055D01*
X153411722Y-36292497D01*
X153403831Y-36292000D01*
X153096169Y-36292000D01*
X153088278Y-36292497D01*
X152783050Y-36331055D01*
X152775279Y-36332538D01*
X152477296Y-36409047D01*
X152469770Y-36411492D01*
X152183707Y-36524753D01*
X152176572Y-36528110D01*
X151906961Y-36676330D01*
X151900281Y-36680570D01*
X151677177Y-36842664D01*
X151668754Y-36853587D01*
X142790955Y-36853587D01*
X142782452Y-36842395D01*
X142559719Y-36680570D01*
X142553039Y-36676330D01*
X142283428Y-36528110D01*
X142276293Y-36524753D01*
X141990230Y-36411492D01*
X141982704Y-36409047D01*
X141684721Y-36332538D01*
X141676950Y-36331055D01*
X141371722Y-36292497D01*
X141363831Y-36292000D01*
X141056169Y-36292000D01*
X141048278Y-36292497D01*
X140743050Y-36331055D01*
X140735279Y-36332538D01*
X140437296Y-36409047D01*
X140429770Y-36411492D01*
X140143707Y-36524753D01*
X140136572Y-36528110D01*
X139866961Y-36676330D01*
X139860281Y-36680570D01*
X139637177Y-36842664D01*
X139628754Y-36853587D01*
X97998793Y-36853587D01*
X98026653Y-36749613D01*
X98085690Y-36376871D01*
X98105441Y-36000000D01*
X98085690Y-35623129D01*
X98026653Y-35250387D01*
X97928978Y-34885857D01*
X97793734Y-34533535D01*
X97622403Y-34197280D01*
X97416863Y-33880775D01*
X97179365Y-33587489D01*
X96912511Y-33320635D01*
X96619225Y-33083137D01*
X96302721Y-32877597D01*
X96299787Y-32876102D01*
X96299780Y-32876098D01*
X95969405Y-32707764D01*
X95966465Y-32706266D01*
X95614143Y-32571022D01*
X95249613Y-32473347D01*
X95051647Y-32441992D01*
X94880119Y-32414824D01*
X94880111Y-32414823D01*
X94876871Y-32414310D01*
X94500000Y-32394559D01*
X94123129Y-32414310D01*
X94119889Y-32414823D01*
X94119881Y-32414824D01*
X93948353Y-32441992D01*
X93750387Y-32473347D01*
X93385857Y-32571022D01*
X93033535Y-32706266D01*
X93030595Y-32707764D01*
X92700221Y-32876098D01*
X92700214Y-32876102D01*
X92697280Y-32877597D01*
X92380775Y-33083137D01*
X92087489Y-33320635D01*
X91820635Y-33587489D01*
X91583137Y-33880775D01*
X91377597Y-34197280D01*
X91206266Y-34533535D01*
X91071022Y-34885857D01*
X90973347Y-35250387D01*
X90914310Y-35623129D01*
X90894559Y-36000000D01*
X89900000Y-36000000D01*
X89900000Y-31526000D01*
X89920002Y-31457879D01*
X89973658Y-31411386D01*
X90026000Y-31400000D01*
X156474000Y-31400000D01*
X156542121Y-31420002D01*
G37*
G04 #@! TD.AperFunction*
M02*
