M48
; DRILL file {KiCad 6.0.2+dfsg-1} date Mon 26 Dec 2022 09:57:58 PM EST
; FORMAT={-:-/ absolute / inch / decimal}
; #@! TF.CreationDate,2022-12-26T21:57:58-05:00
; #@! TF.GenerationSoftware,Kicad,Pcbnew,6.0.2+dfsg-1
; #@! TF.FileFunction,Plated,1,2,PTH
FMAT,2
INCH
; #@! TA.AperFunction,Plated,PTH,ViaDrill
T1C0.0157
; #@! TA.AperFunction,Plated,PTH,ComponentDrill
T2C0.0315
; #@! TA.AperFunction,Plated,PTH,ComponentDrill
T3C0.0362
; #@! TA.AperFunction,Plated,PTH,ComponentDrill
T4C0.0400
; #@! TA.AperFunction,Plated,PTH,ComponentDrill
T5C0.0492
; #@! TA.AperFunction,Plated,PTH,ComponentDrill
T6C0.0600
; #@! TA.AperFunction,Plated,PTH,ComponentDrill
T7C0.0917
; #@! TA.AperFunction,Plated,PTH,ComponentDrill
T8C0.1260
%
G90
G05
T1
X4.7835Y-6.1713
X5.374Y-6.2992
T2
X4.9409Y-6.3647
X4.9409Y-6.4631
X5.0197Y-6.3647
X5.0197Y-6.4631
X5.0984Y-6.3647
X5.0984Y-6.4631
X5.1772Y-6.3647
X5.1772Y-6.4631
X5.2559Y-6.3647
X5.2559Y-6.4631
X5.3346Y-6.3647
X5.3346Y-6.4631
T3
X5.7472Y-1.6343
X5.7472Y-1.713
X5.8457Y-1.6343
X5.8457Y-1.713
T4
X4.2717Y-6.1811
X4.2717Y-6.2811
X4.3717Y-6.1811
X4.3717Y-6.2811
X4.4717Y-6.1811
X4.4717Y-6.2811
T5
X4.878Y-6.3036
X5.3976Y-6.5241
T6
X3.6122Y-4.7539
X4.3406Y-5.4429
X4.3406Y-5.6201
X4.685Y-2.3622
X4.6949Y-4.9114
X4.6949Y-5.0492
X4.7146Y-5.3445
X4.8917Y-4.7736
X4.8917Y-4.9114
X4.8917Y-5.0492
X4.8917Y-5.2657
X5.0886Y-5.7382
X5.0984Y-2.3622
X5.4429Y-5.6398
X5.4823Y-3.5335
X5.6201Y-3.5335
X5.6693Y-5.8366
T7
X5.5594Y-1.5276
X6.0335Y-1.5276
T8
X3.7205Y-1.4173
X3.7205Y-6.378
X5.9843Y-2.0472
X5.9843Y-6.378
T0
M30
