G04 #@! TF.GenerationSoftware,KiCad,Pcbnew,5.1.6+dfsg1-1~bpo10+1*
G04 #@! TF.CreationDate,2021-06-19T16:41:40-04:00*
G04 #@! TF.ProjectId,RUSP_Daughterboard,52555350-5f44-4617-9567-68746572626f,rev?*
G04 #@! TF.SameCoordinates,Original*
G04 #@! TF.FileFunction,Copper,L4,Bot*
G04 #@! TF.FilePolarity,Positive*
%FSLAX46Y46*%
G04 Gerber Fmt 4.6, Leading zero omitted, Abs format (unit mm)*
G04 Created by KiCad (PCBNEW 5.1.6+dfsg1-1~bpo10+1) date 2021-06-19 16:41:40*
%MOMM*%
%LPD*%
G01*
G04 APERTURE LIST*
G04 #@! TA.AperFunction,ComponentPad*
%ADD10C,3.000000*%
G04 #@! TD*
G04 #@! TA.AperFunction,SMDPad,CuDef*
%ADD11C,0.750000*%
G04 #@! TD*
G04 #@! TA.AperFunction,SMDPad,CuDef*
%ADD12R,0.740000X1.675000*%
G04 #@! TD*
G04 #@! TA.AperFunction,SMDPad,CuDef*
%ADD13R,1.200000X0.900000*%
G04 #@! TD*
G04 #@! TA.AperFunction,SMDPad,CuDef*
%ADD14R,3.000000X1.110000*%
G04 #@! TD*
G04 #@! TA.AperFunction,ViaPad*
%ADD15C,0.800000*%
G04 #@! TD*
G04 #@! TA.AperFunction,Conductor*
%ADD16C,0.250000*%
G04 #@! TD*
G04 #@! TA.AperFunction,Conductor*
%ADD17C,0.750000*%
G04 #@! TD*
G04 #@! TA.AperFunction,Conductor*
%ADD18C,1.000000*%
G04 #@! TD*
G04 #@! TA.AperFunction,Conductor*
%ADD19C,0.500000*%
G04 #@! TD*
G04 APERTURE END LIST*
D10*
X154000000Y-128000000D03*
G04 #@! TA.AperFunction,SMDPad,CuDef*
G36*
G01*
X124610000Y-96027500D02*
X124610000Y-96372500D01*
G75*
G02*
X124462500Y-96520000I-147500J0D01*
G01*
X124167500Y-96520000D01*
G75*
G02*
X124020000Y-96372500I0J147500D01*
G01*
X124020000Y-96027500D01*
G75*
G02*
X124167500Y-95880000I147500J0D01*
G01*
X124462500Y-95880000D01*
G75*
G02*
X124610000Y-96027500I0J-147500D01*
G01*
G37*
G04 #@! TD.AperFunction*
G04 #@! TA.AperFunction,SMDPad,CuDef*
G36*
G01*
X125580000Y-96027500D02*
X125580000Y-96372500D01*
G75*
G02*
X125432500Y-96520000I-147500J0D01*
G01*
X125137500Y-96520000D01*
G75*
G02*
X124990000Y-96372500I0J147500D01*
G01*
X124990000Y-96027500D01*
G75*
G02*
X125137500Y-95880000I147500J0D01*
G01*
X125432500Y-95880000D01*
G75*
G02*
X125580000Y-96027500I0J-147500D01*
G01*
G37*
G04 #@! TD.AperFunction*
G04 #@! TA.AperFunction,SMDPad,CuDef*
G36*
G01*
X124835000Y-114177500D02*
X124835000Y-114522500D01*
G75*
G02*
X124687500Y-114670000I-147500J0D01*
G01*
X124392500Y-114670000D01*
G75*
G02*
X124245000Y-114522500I0J147500D01*
G01*
X124245000Y-114177500D01*
G75*
G02*
X124392500Y-114030000I147500J0D01*
G01*
X124687500Y-114030000D01*
G75*
G02*
X124835000Y-114177500I0J-147500D01*
G01*
G37*
G04 #@! TD.AperFunction*
G04 #@! TA.AperFunction,SMDPad,CuDef*
G36*
G01*
X125805000Y-114177500D02*
X125805000Y-114522500D01*
G75*
G02*
X125657500Y-114670000I-147500J0D01*
G01*
X125362500Y-114670000D01*
G75*
G02*
X125215000Y-114522500I0J147500D01*
G01*
X125215000Y-114177500D01*
G75*
G02*
X125362500Y-114030000I147500J0D01*
G01*
X125657500Y-114030000D01*
G75*
G02*
X125805000Y-114177500I0J-147500D01*
G01*
G37*
G04 #@! TD.AperFunction*
G04 #@! TA.AperFunction,SMDPad,CuDef*
G36*
G01*
X125970000Y-107077500D02*
X125970000Y-107422500D01*
G75*
G02*
X125822500Y-107570000I-147500J0D01*
G01*
X125527500Y-107570000D01*
G75*
G02*
X125380000Y-107422500I0J147500D01*
G01*
X125380000Y-107077500D01*
G75*
G02*
X125527500Y-106930000I147500J0D01*
G01*
X125822500Y-106930000D01*
G75*
G02*
X125970000Y-107077500I0J-147500D01*
G01*
G37*
G04 #@! TD.AperFunction*
G04 #@! TA.AperFunction,SMDPad,CuDef*
G36*
G01*
X125000000Y-107077500D02*
X125000000Y-107422500D01*
G75*
G02*
X124852500Y-107570000I-147500J0D01*
G01*
X124557500Y-107570000D01*
G75*
G02*
X124410000Y-107422500I0J147500D01*
G01*
X124410000Y-107077500D01*
G75*
G02*
X124557500Y-106930000I147500J0D01*
G01*
X124852500Y-106930000D01*
G75*
G02*
X125000000Y-107077500I0J-147500D01*
G01*
G37*
G04 #@! TD.AperFunction*
G04 #@! TA.AperFunction,SMDPad,CuDef*
G36*
G01*
X124610000Y-94627500D02*
X124610000Y-94972500D01*
G75*
G02*
X124462500Y-95120000I-147500J0D01*
G01*
X124167500Y-95120000D01*
G75*
G02*
X124020000Y-94972500I0J147500D01*
G01*
X124020000Y-94627500D01*
G75*
G02*
X124167500Y-94480000I147500J0D01*
G01*
X124462500Y-94480000D01*
G75*
G02*
X124610000Y-94627500I0J-147500D01*
G01*
G37*
G04 #@! TD.AperFunction*
G04 #@! TA.AperFunction,SMDPad,CuDef*
G36*
G01*
X125580000Y-94627500D02*
X125580000Y-94972500D01*
G75*
G02*
X125432500Y-95120000I-147500J0D01*
G01*
X125137500Y-95120000D01*
G75*
G02*
X124990000Y-94972500I0J147500D01*
G01*
X124990000Y-94627500D01*
G75*
G02*
X125137500Y-94480000I147500J0D01*
G01*
X125432500Y-94480000D01*
G75*
G02*
X125580000Y-94627500I0J-147500D01*
G01*
G37*
G04 #@! TD.AperFunction*
G04 #@! TA.AperFunction,SMDPad,CuDef*
G36*
G01*
X125795000Y-112852500D02*
X125795000Y-113197500D01*
G75*
G02*
X125647500Y-113345000I-147500J0D01*
G01*
X125352500Y-113345000D01*
G75*
G02*
X125205000Y-113197500I0J147500D01*
G01*
X125205000Y-112852500D01*
G75*
G02*
X125352500Y-112705000I147500J0D01*
G01*
X125647500Y-112705000D01*
G75*
G02*
X125795000Y-112852500I0J-147500D01*
G01*
G37*
G04 #@! TD.AperFunction*
G04 #@! TA.AperFunction,SMDPad,CuDef*
G36*
G01*
X124825000Y-112852500D02*
X124825000Y-113197500D01*
G75*
G02*
X124677500Y-113345000I-147500J0D01*
G01*
X124382500Y-113345000D01*
G75*
G02*
X124235000Y-113197500I0J147500D01*
G01*
X124235000Y-112852500D01*
G75*
G02*
X124382500Y-112705000I147500J0D01*
G01*
X124677500Y-112705000D01*
G75*
G02*
X124825000Y-112852500I0J-147500D01*
G01*
G37*
G04 #@! TD.AperFunction*
G04 #@! TA.AperFunction,SMDPad,CuDef*
G36*
G01*
X124910000Y-108302500D02*
X124910000Y-108647500D01*
G75*
G02*
X124762500Y-108795000I-147500J0D01*
G01*
X124467500Y-108795000D01*
G75*
G02*
X124320000Y-108647500I0J147500D01*
G01*
X124320000Y-108302500D01*
G75*
G02*
X124467500Y-108155000I147500J0D01*
G01*
X124762500Y-108155000D01*
G75*
G02*
X124910000Y-108302500I0J-147500D01*
G01*
G37*
G04 #@! TD.AperFunction*
G04 #@! TA.AperFunction,SMDPad,CuDef*
G36*
G01*
X125880000Y-108302500D02*
X125880000Y-108647500D01*
G75*
G02*
X125732500Y-108795000I-147500J0D01*
G01*
X125437500Y-108795000D01*
G75*
G02*
X125290000Y-108647500I0J147500D01*
G01*
X125290000Y-108302500D01*
G75*
G02*
X125437500Y-108155000I147500J0D01*
G01*
X125732500Y-108155000D01*
G75*
G02*
X125880000Y-108302500I0J-147500D01*
G01*
G37*
G04 #@! TD.AperFunction*
D11*
X126500000Y-86500000D03*
X175000000Y-74500000D03*
X171000000Y-137000000D03*
D12*
X166375000Y-125660000D03*
X166375000Y-129340000D03*
X165105000Y-125660000D03*
X165105000Y-129340000D03*
X163835000Y-125660000D03*
X163835000Y-129340000D03*
X162565000Y-125660000D03*
X162565000Y-129340000D03*
X161295000Y-125660000D03*
X161295000Y-129340000D03*
X160025000Y-129340000D03*
X160025000Y-125660000D03*
X160025000Y-133360000D03*
X160025000Y-137040000D03*
X161295000Y-137040000D03*
X161295000Y-133360000D03*
X162565000Y-137040000D03*
X162565000Y-133360000D03*
X163835000Y-137040000D03*
X163835000Y-133360000D03*
X165105000Y-137040000D03*
X165105000Y-133360000D03*
X166375000Y-137040000D03*
X166375000Y-133360000D03*
D13*
X125000000Y-101450000D03*
X125000000Y-98150000D03*
X141700000Y-110450000D03*
X141700000Y-107150000D03*
D14*
X129630000Y-107530000D03*
X129502000Y-102450000D03*
X129502000Y-99910000D03*
X129502000Y-97370000D03*
X129502000Y-94830000D03*
X137630000Y-94830000D03*
X137630000Y-97370000D03*
X137630000Y-99910000D03*
X137630000Y-102450000D03*
X137630000Y-107530000D03*
D15*
X120300000Y-71300000D03*
X135000000Y-88400000D03*
X124500000Y-112000000D03*
X146800000Y-120600000D03*
X149582053Y-123517947D03*
X124500000Y-73200000D03*
X161000000Y-87500000D03*
X149000000Y-87000000D03*
X149000000Y-79250000D03*
X168599999Y-129400001D03*
X165500000Y-123900000D03*
X157480000Y-130302000D03*
X159004000Y-135636000D03*
X120396006Y-82200000D03*
X146812000Y-110490000D03*
X146050000Y-109728000D03*
X169500000Y-125600000D03*
X157900000Y-79100000D03*
X162600000Y-127500000D03*
X161400000Y-124000000D03*
X155300000Y-77800000D03*
X160200000Y-123600000D03*
X151130000Y-78232000D03*
X161694805Y-127925000D03*
X139700000Y-84836000D03*
X121300000Y-75400000D03*
X137900000Y-71000000D03*
X138000000Y-78500000D03*
X138000000Y-79700000D03*
X159200000Y-133800000D03*
X168000000Y-133750000D03*
X151638000Y-85852000D03*
X135500000Y-77250000D03*
X163600000Y-127200000D03*
X154100000Y-79300000D03*
X163800000Y-124000000D03*
X164400000Y-134974990D03*
X128887660Y-87812340D03*
X126200000Y-96200000D03*
X129600000Y-91400000D03*
X163200000Y-131900000D03*
X129900000Y-113000000D03*
X163900000Y-137025010D03*
X132029325Y-112674990D03*
X147571375Y-119928625D03*
X150500000Y-123100000D03*
X162200000Y-134800000D03*
X135010743Y-112824979D03*
X163800000Y-79800000D03*
X163200000Y-135200000D03*
X124600000Y-71000000D03*
X135400000Y-71000000D03*
X165201292Y-131775010D03*
X131400000Y-94800000D03*
X165201292Y-131001292D03*
X131826000Y-95600000D03*
X167500000Y-126300000D03*
X156700000Y-79100000D03*
X162500000Y-123900000D03*
D16*
X124530000Y-113025000D02*
X124530000Y-112030000D01*
X124530000Y-112030000D02*
X124500000Y-112000000D01*
D17*
X165105000Y-125660000D02*
X165105000Y-124295000D01*
X165105000Y-124295000D02*
X165500000Y-123900000D01*
X160025000Y-129340000D02*
X158442000Y-129340000D01*
X158442000Y-129340000D02*
X157480000Y-130302000D01*
X136400000Y-87000000D02*
X135000000Y-88400000D01*
X149000000Y-87000000D02*
X136400000Y-87000000D01*
X120410000Y-73200000D02*
X120300000Y-73310000D01*
X124500000Y-73200000D02*
X120410000Y-73200000D01*
X120300000Y-71300000D02*
X120300000Y-73310000D01*
X135000000Y-88400000D02*
X135000000Y-90042000D01*
X135000000Y-90042000D02*
X137668000Y-92710000D01*
X137668000Y-92710000D02*
X137668000Y-94742000D01*
X125130001Y-101319999D02*
X133026003Y-101319999D01*
X125000000Y-101450000D02*
X125130001Y-101319999D01*
X133026003Y-101319999D02*
X133175001Y-101171001D01*
D16*
X124315000Y-94800000D02*
X124315000Y-96121000D01*
X124074999Y-96361001D02*
X124074999Y-100452999D01*
X124315000Y-96121000D02*
X124074999Y-96361001D01*
X124074999Y-100452999D02*
X125222000Y-101600000D01*
X124615000Y-108475000D02*
X124615000Y-107287000D01*
X124500000Y-112000000D02*
X124968000Y-111532000D01*
X124968000Y-111532000D02*
X124968000Y-108712000D01*
X124968000Y-108712000D02*
X124714000Y-108458000D01*
D17*
X160025000Y-137040000D02*
X160025000Y-136657000D01*
X160025000Y-136657000D02*
X159004000Y-135636000D01*
X125000000Y-101450000D02*
X124206000Y-102244000D01*
X124206000Y-106869214D02*
X124460000Y-107123214D01*
X124206000Y-102244000D02*
X124206000Y-106869214D01*
X120300000Y-73310000D02*
X120300000Y-82103994D01*
X120300000Y-82103994D02*
X120396006Y-82200000D01*
D18*
X146050000Y-109728000D02*
X145288000Y-109728000D01*
X145288000Y-109728000D02*
X142748000Y-107188000D01*
X142748000Y-107188000D02*
X141732000Y-107188000D01*
D16*
X124540000Y-114350000D02*
X124540000Y-113204000D01*
D17*
X137600000Y-107600000D02*
X138266000Y-106934000D01*
X137600000Y-106866000D02*
X137600000Y-107600000D01*
X138266000Y-106934000D02*
X141478000Y-106934000D01*
X133175001Y-101171001D02*
X133175001Y-102441001D01*
X133175001Y-102441001D02*
X137600000Y-106866000D01*
X134366000Y-95766000D02*
X134366000Y-99980002D01*
X134366000Y-93134000D02*
X134000000Y-93500000D01*
X134000000Y-95400000D02*
X134366000Y-95766000D01*
X134000000Y-93500000D02*
X134000000Y-95400000D01*
X134366000Y-99980002D02*
X133175001Y-101171001D01*
X135000000Y-88400000D02*
X134366000Y-89034000D01*
X134366000Y-89034000D02*
X134366000Y-93134000D01*
D16*
X162565000Y-127535000D02*
X162600000Y-127500000D01*
X162565000Y-129340000D02*
X162565000Y-127535000D01*
X161295000Y-124105000D02*
X161400000Y-124000000D01*
X161295000Y-125660000D02*
X161295000Y-124105000D01*
X160025000Y-123775000D02*
X160200000Y-123600000D01*
X160025000Y-125660000D02*
X160025000Y-123775000D01*
D19*
X151130000Y-78232000D02*
X143256000Y-78232000D01*
D16*
X161295000Y-129340000D02*
X161295000Y-128324805D01*
X161295000Y-128324805D02*
X161694805Y-127925000D01*
D19*
X139573000Y-84709000D02*
X139700000Y-84836000D01*
X136779000Y-84709000D02*
X139573000Y-84709000D01*
X143256000Y-78232000D02*
X136779000Y-84709000D01*
X133174989Y-98219011D02*
X131572000Y-99822000D01*
X131572000Y-99822000D02*
X129286000Y-99822000D01*
X133174989Y-88313011D02*
X133174989Y-98219011D01*
X136779000Y-84709000D02*
X133174989Y-88313011D01*
D16*
X160025000Y-133360000D02*
X159640000Y-133360000D01*
X159640000Y-133360000D02*
X159200000Y-133800000D01*
X163835000Y-127435000D02*
X163600000Y-127200000D01*
X163835000Y-129340000D02*
X163835000Y-127435000D01*
X163835000Y-124035000D02*
X163800000Y-124000000D01*
X163835000Y-125660000D02*
X163835000Y-124035000D01*
X165105000Y-135679990D02*
X164400000Y-134974990D01*
X165105000Y-137040000D02*
X165105000Y-135679990D01*
X128887660Y-88378025D02*
X128887660Y-87812340D01*
X125285000Y-96200000D02*
X126200000Y-96200000D01*
X126200000Y-94800000D02*
X129600000Y-91400000D01*
X125285000Y-96200000D02*
X125285000Y-94800000D01*
X125285000Y-94800000D02*
X126200000Y-94800000D01*
X163835000Y-133360000D02*
X163835000Y-132272500D01*
X163462500Y-131900000D02*
X163200000Y-131900000D01*
X163835000Y-132272500D02*
X163462500Y-131900000D01*
X128500000Y-114400000D02*
X129900000Y-113000000D01*
X125600000Y-114400000D02*
X128500000Y-114400000D01*
X125510000Y-114350000D02*
X125510000Y-113010000D01*
X125700000Y-109700000D02*
X128274991Y-112274991D01*
X131629326Y-112274991D02*
X132029325Y-112674990D01*
X128274991Y-112274991D02*
X131629326Y-112274991D01*
X125700000Y-107300000D02*
X125700000Y-109700000D01*
X162565000Y-133360000D02*
X162565000Y-134435000D01*
X162565000Y-134435000D02*
X162200000Y-134800000D01*
X162565000Y-135835000D02*
X163200000Y-135200000D01*
X162565000Y-137040000D02*
X162565000Y-135835000D01*
D17*
X165105000Y-129340000D02*
X165105000Y-131678718D01*
X165105000Y-131678718D02*
X165201292Y-131775010D01*
D16*
X125000000Y-98150000D02*
X125450000Y-98150000D01*
X125450000Y-98150000D02*
X127200000Y-96400000D01*
X127200000Y-96400000D02*
X127200000Y-95600000D01*
X127200000Y-95600000D02*
X128000000Y-94800000D01*
X128000000Y-94800000D02*
X129400000Y-94800000D01*
D17*
X131370000Y-94830000D02*
X131400000Y-94800000D01*
X129502000Y-94830000D02*
X131370000Y-94830000D01*
X131400000Y-94800000D02*
X131826000Y-95226000D01*
X131826000Y-95226000D02*
X131826000Y-95600000D01*
X161300000Y-132259635D02*
X161300000Y-133200000D01*
X160320896Y-131280531D02*
X161300000Y-132259635D01*
X153695030Y-131280531D02*
X160320896Y-131280531D01*
X151500000Y-129085501D02*
X153695030Y-131280531D01*
X129800000Y-107600000D02*
X133000000Y-110800000D01*
X133000000Y-110800000D02*
X142400000Y-110800000D01*
X144000000Y-114914248D02*
X151500000Y-122414248D01*
X142400000Y-110800000D02*
X144000000Y-112400000D01*
X151500000Y-122414248D02*
X151500000Y-129085501D01*
X144000000Y-112400000D02*
X144000000Y-114914248D01*
X166375000Y-129340000D02*
X166375000Y-129025000D01*
X166375000Y-129025000D02*
X167300000Y-128100000D01*
X167300000Y-128100000D02*
X167300000Y-126300000D01*
X167300000Y-126300000D02*
X166500000Y-125500000D01*
X166999999Y-132735001D02*
X166999999Y-127299999D01*
X166999999Y-128715001D02*
X166999999Y-127299999D01*
X166375000Y-133360000D02*
X166999999Y-132735001D01*
X166999999Y-127299999D02*
X166999999Y-126800001D01*
X166999999Y-126800001D02*
X167500000Y-126300000D01*
X166375000Y-129340000D02*
X166999999Y-128715001D01*
X168400000Y-124100000D02*
X168400000Y-125400000D01*
X166700000Y-122400000D02*
X168400000Y-124100000D01*
X145400000Y-114700000D02*
X153100000Y-122400000D01*
X133052000Y-106000000D02*
X133052000Y-107352000D01*
X129502000Y-102450000D02*
X133052000Y-106000000D01*
X133052000Y-107352000D02*
X134900000Y-109200000D01*
X134900000Y-109200000D02*
X142943517Y-109200000D01*
X153100000Y-122400000D02*
X166700000Y-122400000D01*
X142943517Y-109200000D02*
X145400000Y-111656483D01*
X168400000Y-125400000D02*
X167500000Y-126300000D01*
X145400000Y-111656483D02*
X145400000Y-114700000D01*
D16*
X162565000Y-123965000D02*
X162500000Y-123900000D01*
X162565000Y-125660000D02*
X162565000Y-123965000D01*
M02*
