G04 #@! TF.GenerationSoftware,KiCad,Pcbnew,5.1.6+dfsg1-1~bpo10+1*
G04 #@! TF.CreationDate,2021-06-19T16:41:40-04:00*
G04 #@! TF.ProjectId,RUSP_Daughterboard,52555350-5f44-4617-9567-68746572626f,rev?*
G04 #@! TF.SameCoordinates,Original*
G04 #@! TF.FileFunction,Legend,Top*
G04 #@! TF.FilePolarity,Positive*
%FSLAX46Y46*%
G04 Gerber Fmt 4.6, Leading zero omitted, Abs format (unit mm)*
G04 Created by KiCad (PCBNEW 5.1.6+dfsg1-1~bpo10+1) date 2021-06-19 16:41:40*
%MOMM*%
%LPD*%
G01*
G04 APERTURE LIST*
%ADD10C,0.120000*%
%ADD11C,0.150000*%
%ADD12C,0.127000*%
%ADD13C,0.200000*%
%ADD14C,0.010000*%
%ADD15C,0.130000*%
G04 APERTURE END LIST*
D10*
X156161904Y-134452380D02*
X156161904Y-133452380D01*
X156495238Y-134166666D01*
X156828571Y-133452380D01*
X156828571Y-134452380D01*
X157257142Y-133547619D02*
X157304761Y-133500000D01*
X157400000Y-133452380D01*
X157638095Y-133452380D01*
X157733333Y-133500000D01*
X157780952Y-133547619D01*
X157828571Y-133642857D01*
X157828571Y-133738095D01*
X157780952Y-133880952D01*
X157209523Y-134452380D01*
X157828571Y-134452380D01*
X158161904Y-133452380D02*
X158828571Y-134452380D01*
X158828571Y-133452380D02*
X158161904Y-134452380D01*
X159733333Y-134452380D02*
X159161904Y-134452380D01*
X159447619Y-134452380D02*
X159447619Y-133452380D01*
X159352380Y-133595238D01*
X159257142Y-133690476D01*
X159161904Y-133738095D01*
X160352380Y-133452380D02*
X160447619Y-133452380D01*
X160542857Y-133500000D01*
X160590476Y-133547619D01*
X160638095Y-133642857D01*
X160685714Y-133833333D01*
X160685714Y-134071428D01*
X160638095Y-134261904D01*
X160590476Y-134357142D01*
X160542857Y-134404761D01*
X160447619Y-134452380D01*
X160352380Y-134452380D01*
X160257142Y-134404761D01*
X160209523Y-134357142D01*
X160161904Y-134261904D01*
X160114285Y-134071428D01*
X160114285Y-133833333D01*
X160161904Y-133642857D01*
X160209523Y-133547619D01*
X160257142Y-133500000D01*
X160352380Y-133452380D01*
X143361904Y-114052380D02*
X143361904Y-113052380D01*
X143695238Y-113766666D01*
X144028571Y-113052380D01*
X144028571Y-114052380D01*
X144457142Y-113147619D02*
X144504761Y-113100000D01*
X144600000Y-113052380D01*
X144838095Y-113052380D01*
X144933333Y-113100000D01*
X144980952Y-113147619D01*
X145028571Y-113242857D01*
X145028571Y-113338095D01*
X144980952Y-113480952D01*
X144409523Y-114052380D01*
X145028571Y-114052380D01*
X145361904Y-113052380D02*
X146028571Y-114052380D01*
X146028571Y-113052380D02*
X145361904Y-114052380D01*
X146933333Y-114052380D02*
X146361904Y-114052380D01*
X146647619Y-114052380D02*
X146647619Y-113052380D01*
X146552380Y-113195238D01*
X146457142Y-113290476D01*
X146361904Y-113338095D01*
X147790476Y-113052380D02*
X147600000Y-113052380D01*
X147504761Y-113100000D01*
X147457142Y-113147619D01*
X147361904Y-113290476D01*
X147314285Y-113480952D01*
X147314285Y-113861904D01*
X147361904Y-113957142D01*
X147409523Y-114004761D01*
X147504761Y-114052380D01*
X147695238Y-114052380D01*
X147790476Y-114004761D01*
X147838095Y-113957142D01*
X147885714Y-113861904D01*
X147885714Y-113623809D01*
X147838095Y-113528571D01*
X147790476Y-113480952D01*
X147695238Y-113433333D01*
X147504761Y-113433333D01*
X147409523Y-113480952D01*
X147361904Y-113528571D01*
X147314285Y-113623809D01*
X173861904Y-93152380D02*
X173861904Y-92152380D01*
X174195238Y-92866666D01*
X174528571Y-92152380D01*
X174528571Y-93152380D01*
X174957142Y-92247619D02*
X175004761Y-92200000D01*
X175100000Y-92152380D01*
X175338095Y-92152380D01*
X175433333Y-92200000D01*
X175480952Y-92247619D01*
X175528571Y-92342857D01*
X175528571Y-92438095D01*
X175480952Y-92580952D01*
X174909523Y-93152380D01*
X175528571Y-93152380D01*
X175861904Y-92152380D02*
X176528571Y-93152380D01*
X176528571Y-92152380D02*
X175861904Y-93152380D01*
X177433333Y-93152380D02*
X176861904Y-93152380D01*
X177147619Y-93152380D02*
X177147619Y-92152380D01*
X177052380Y-92295238D01*
X176957142Y-92390476D01*
X176861904Y-92438095D01*
X178290476Y-92152380D02*
X178100000Y-92152380D01*
X178004761Y-92200000D01*
X177957142Y-92247619D01*
X177861904Y-92390476D01*
X177814285Y-92580952D01*
X177814285Y-92961904D01*
X177861904Y-93057142D01*
X177909523Y-93104761D01*
X178004761Y-93152380D01*
X178195238Y-93152380D01*
X178290476Y-93104761D01*
X178338095Y-93057142D01*
X178385714Y-92961904D01*
X178385714Y-92723809D01*
X178338095Y-92628571D01*
X178290476Y-92580952D01*
X178195238Y-92533333D01*
X178004761Y-92533333D01*
X177909523Y-92580952D01*
X177861904Y-92628571D01*
X177814285Y-92723809D01*
X177561904Y-86100000D02*
X178133333Y-86100000D01*
X178247619Y-86138095D01*
X178323809Y-86214285D01*
X178361904Y-86328571D01*
X178361904Y-86404761D01*
X178285714Y-85719047D02*
X178323809Y-85680952D01*
X178361904Y-85719047D01*
X178323809Y-85757142D01*
X178285714Y-85719047D01*
X178361904Y-85719047D01*
X178361904Y-84728571D02*
X177561904Y-84728571D01*
X177942857Y-84728571D02*
X177942857Y-84271428D01*
X178361904Y-84271428D02*
X177561904Y-84271428D01*
X178133333Y-83928571D02*
X178133333Y-83547619D01*
X178361904Y-84004761D02*
X177561904Y-83738095D01*
X178361904Y-83471428D01*
X177561904Y-83204761D02*
X178209523Y-83204761D01*
X178285714Y-83166666D01*
X178323809Y-83128571D01*
X178361904Y-83052380D01*
X178361904Y-82900000D01*
X178323809Y-82823809D01*
X178285714Y-82785714D01*
X178209523Y-82747619D01*
X177561904Y-82747619D01*
X178361904Y-82366666D02*
X177561904Y-82366666D01*
X177561904Y-82061904D01*
X177600000Y-81985714D01*
X177638095Y-81947619D01*
X177714285Y-81909523D01*
X177828571Y-81909523D01*
X177904761Y-81947619D01*
X177942857Y-81985714D01*
X177980952Y-82061904D01*
X177980952Y-82366666D01*
X177561904Y-81680952D02*
X177561904Y-81223809D01*
X178361904Y-81452380D02*
X177561904Y-81452380D01*
X178057142Y-80347619D02*
X178057142Y-79738095D01*
X178361904Y-78290476D02*
X177980952Y-78557142D01*
X178361904Y-78747619D02*
X177561904Y-78747619D01*
X177561904Y-78442857D01*
X177600000Y-78366666D01*
X177638095Y-78328571D01*
X177714285Y-78290476D01*
X177828571Y-78290476D01*
X177904761Y-78328571D01*
X177942857Y-78366666D01*
X177980952Y-78442857D01*
X177980952Y-78747619D01*
X178323809Y-77642857D02*
X178361904Y-77719047D01*
X178361904Y-77871428D01*
X178323809Y-77947619D01*
X178247619Y-77985714D01*
X177942857Y-77985714D01*
X177866666Y-77947619D01*
X177828571Y-77871428D01*
X177828571Y-77719047D01*
X177866666Y-77642857D01*
X177942857Y-77604761D01*
X178019047Y-77604761D01*
X178095238Y-77985714D01*
X177828571Y-77338095D02*
X178361904Y-77147619D01*
X177828571Y-76957142D01*
X177561904Y-76500000D02*
X177561904Y-76423809D01*
X177600000Y-76347619D01*
X177638095Y-76309523D01*
X177714285Y-76271428D01*
X177866666Y-76233333D01*
X178057142Y-76233333D01*
X178209523Y-76271428D01*
X178285714Y-76309523D01*
X178323809Y-76347619D01*
X178361904Y-76423809D01*
X178361904Y-76500000D01*
X178323809Y-76576190D01*
X178285714Y-76614285D01*
X178209523Y-76652380D01*
X178057142Y-76690476D01*
X177866666Y-76690476D01*
X177714285Y-76652380D01*
X177638095Y-76614285D01*
X177600000Y-76576190D01*
X177561904Y-76500000D01*
D11*
X145985714Y-74852380D02*
X145652380Y-74376190D01*
X145414285Y-74852380D02*
X145414285Y-73852380D01*
X145795238Y-73852380D01*
X145890476Y-73900000D01*
X145938095Y-73947619D01*
X145985714Y-74042857D01*
X145985714Y-74185714D01*
X145938095Y-74280952D01*
X145890476Y-74328571D01*
X145795238Y-74376190D01*
X145414285Y-74376190D01*
X146414285Y-73852380D02*
X146414285Y-74661904D01*
X146461904Y-74757142D01*
X146509523Y-74804761D01*
X146604761Y-74852380D01*
X146795238Y-74852380D01*
X146890476Y-74804761D01*
X146938095Y-74757142D01*
X146985714Y-74661904D01*
X146985714Y-73852380D01*
X147414285Y-74804761D02*
X147557142Y-74852380D01*
X147795238Y-74852380D01*
X147890476Y-74804761D01*
X147938095Y-74757142D01*
X147985714Y-74661904D01*
X147985714Y-74566666D01*
X147938095Y-74471428D01*
X147890476Y-74423809D01*
X147795238Y-74376190D01*
X147604761Y-74328571D01*
X147509523Y-74280952D01*
X147461904Y-74233333D01*
X147414285Y-74138095D01*
X147414285Y-74042857D01*
X147461904Y-73947619D01*
X147509523Y-73900000D01*
X147604761Y-73852380D01*
X147842857Y-73852380D01*
X147985714Y-73900000D01*
X148414285Y-74852380D02*
X148414285Y-73852380D01*
X148795238Y-73852380D01*
X148890476Y-73900000D01*
X148938095Y-73947619D01*
X148985714Y-74042857D01*
X148985714Y-74185714D01*
X148938095Y-74280952D01*
X148890476Y-74328571D01*
X148795238Y-74376190D01*
X148414285Y-74376190D01*
X150938095Y-74852380D02*
X150938095Y-73852380D01*
X151176190Y-73852380D01*
X151319047Y-73900000D01*
X151414285Y-73995238D01*
X151461904Y-74090476D01*
X151509523Y-74280952D01*
X151509523Y-74423809D01*
X151461904Y-74614285D01*
X151414285Y-74709523D01*
X151319047Y-74804761D01*
X151176190Y-74852380D01*
X150938095Y-74852380D01*
X151890476Y-74566666D02*
X152366666Y-74566666D01*
X151795238Y-74852380D02*
X152128571Y-73852380D01*
X152461904Y-74852380D01*
X152795238Y-73852380D02*
X152795238Y-74661904D01*
X152842857Y-74757142D01*
X152890476Y-74804761D01*
X152985714Y-74852380D01*
X153176190Y-74852380D01*
X153271428Y-74804761D01*
X153319047Y-74757142D01*
X153366666Y-74661904D01*
X153366666Y-73852380D01*
X154366666Y-73900000D02*
X154271428Y-73852380D01*
X154128571Y-73852380D01*
X153985714Y-73900000D01*
X153890476Y-73995238D01*
X153842857Y-74090476D01*
X153795238Y-74280952D01*
X153795238Y-74423809D01*
X153842857Y-74614285D01*
X153890476Y-74709523D01*
X153985714Y-74804761D01*
X154128571Y-74852380D01*
X154223809Y-74852380D01*
X154366666Y-74804761D01*
X154414285Y-74757142D01*
X154414285Y-74423809D01*
X154223809Y-74423809D01*
X154842857Y-74852380D02*
X154842857Y-73852380D01*
X154842857Y-74328571D02*
X155414285Y-74328571D01*
X155414285Y-74852380D02*
X155414285Y-73852380D01*
X155747619Y-73852380D02*
X156319047Y-73852380D01*
X156033333Y-74852380D02*
X156033333Y-73852380D01*
X156652380Y-74328571D02*
X156985714Y-74328571D01*
X157128571Y-74852380D02*
X156652380Y-74852380D01*
X156652380Y-73852380D01*
X157128571Y-73852380D01*
X158128571Y-74852380D02*
X157795238Y-74376190D01*
X157557142Y-74852380D02*
X157557142Y-73852380D01*
X157938095Y-73852380D01*
X158033333Y-73900000D01*
X158080952Y-73947619D01*
X158128571Y-74042857D01*
X158128571Y-74185714D01*
X158080952Y-74280952D01*
X158033333Y-74328571D01*
X157938095Y-74376190D01*
X157557142Y-74376190D01*
X158890476Y-74328571D02*
X159033333Y-74376190D01*
X159080952Y-74423809D01*
X159128571Y-74519047D01*
X159128571Y-74661904D01*
X159080952Y-74757142D01*
X159033333Y-74804761D01*
X158938095Y-74852380D01*
X158557142Y-74852380D01*
X158557142Y-73852380D01*
X158890476Y-73852380D01*
X158985714Y-73900000D01*
X159033333Y-73947619D01*
X159080952Y-74042857D01*
X159080952Y-74138095D01*
X159033333Y-74233333D01*
X158985714Y-74280952D01*
X158890476Y-74328571D01*
X158557142Y-74328571D01*
X159747619Y-73852380D02*
X159938095Y-73852380D01*
X160033333Y-73900000D01*
X160128571Y-73995238D01*
X160176190Y-74185714D01*
X160176190Y-74519047D01*
X160128571Y-74709523D01*
X160033333Y-74804761D01*
X159938095Y-74852380D01*
X159747619Y-74852380D01*
X159652380Y-74804761D01*
X159557142Y-74709523D01*
X159509523Y-74519047D01*
X159509523Y-74185714D01*
X159557142Y-73995238D01*
X159652380Y-73900000D01*
X159747619Y-73852380D01*
X160557142Y-74566666D02*
X161033333Y-74566666D01*
X160461904Y-74852380D02*
X160795238Y-73852380D01*
X161128571Y-74852380D01*
X162033333Y-74852380D02*
X161700000Y-74376190D01*
X161461904Y-74852380D02*
X161461904Y-73852380D01*
X161842857Y-73852380D01*
X161938095Y-73900000D01*
X161985714Y-73947619D01*
X162033333Y-74042857D01*
X162033333Y-74185714D01*
X161985714Y-74280952D01*
X161938095Y-74328571D01*
X161842857Y-74376190D01*
X161461904Y-74376190D01*
X162461904Y-74852380D02*
X162461904Y-73852380D01*
X162700000Y-73852380D01*
X162842857Y-73900000D01*
X162938095Y-73995238D01*
X162985714Y-74090476D01*
X163033333Y-74280952D01*
X163033333Y-74423809D01*
X162985714Y-74614285D01*
X162938095Y-74709523D01*
X162842857Y-74804761D01*
X162700000Y-74852380D01*
X162461904Y-74852380D01*
D12*
X172100000Y-116350000D02*
X172100000Y-110250000D01*
X175300000Y-110250000D02*
X175300000Y-116350000D01*
D13*
X173800000Y-119200000D02*
G75*
G03*
X173800000Y-119200000I-100000J0D01*
G01*
D10*
X158500000Y-120300000D02*
X159000000Y-120300000D01*
X158500000Y-121700000D02*
X159000000Y-121700000D01*
X158500000Y-121700000D02*
X158500000Y-122300000D01*
X158500000Y-122300000D02*
X158300000Y-122500000D01*
X158300000Y-119500000D02*
X158500000Y-119500000D01*
X158500000Y-119500000D02*
X158500000Y-120300000D01*
X155500000Y-120300000D02*
X155500000Y-119500000D01*
X155500000Y-119500000D02*
X155700000Y-119500000D01*
X155700000Y-122500000D02*
X155500000Y-122500000D01*
X155500000Y-122500000D02*
X155500000Y-121700000D01*
D11*
X124950000Y-86250000D02*
X124950000Y-88550000D01*
X121050000Y-86250000D02*
X124950000Y-86250000D01*
X121050000Y-90550000D02*
X121050000Y-86250000D01*
X134550000Y-86250000D02*
X134550000Y-88550000D01*
X138350000Y-86250000D02*
X134550000Y-86250000D01*
X138350000Y-90550000D02*
X138350000Y-86250000D01*
X121050000Y-115750000D02*
X121050000Y-111250000D01*
X124650000Y-115750000D02*
X121050000Y-115750000D01*
X138350000Y-115750000D02*
X138350000Y-111250000D01*
X138350000Y-115750000D02*
X134850000Y-115750000D01*
D13*
X122950000Y-79750000D02*
G75*
G03*
X122950000Y-79750000I-100000J0D01*
G01*
X133825000Y-78731200D02*
X133825000Y-83750000D01*
X120550000Y-83750000D02*
X133825000Y-83750000D01*
X118375000Y-69750000D02*
X119050000Y-69750000D01*
X133825000Y-72940000D02*
X133825000Y-76292800D01*
X118375000Y-69750000D02*
X118375000Y-82300000D01*
X133825000Y-69750000D02*
X133825000Y-70476200D01*
X121550000Y-69750000D02*
X133825000Y-69750000D01*
D11*
X152225000Y-85425000D02*
X152225000Y-86800000D01*
X161100000Y-85425000D02*
X161100000Y-81275000D01*
X152200000Y-85425000D02*
X152200000Y-81275000D01*
X161100000Y-85425000D02*
X160985000Y-85425000D01*
X161100000Y-81275000D02*
X160985000Y-81275000D01*
X152200000Y-81275000D02*
X152315000Y-81275000D01*
X152200000Y-85425000D02*
X152225000Y-85425000D01*
D14*
G36*
X151582027Y-70082881D02*
G01*
X151627971Y-70104879D01*
X151631396Y-70110729D01*
X151629853Y-70154681D01*
X151612009Y-70242061D01*
X151580389Y-70364388D01*
X151537516Y-70513181D01*
X151485915Y-70679958D01*
X151428111Y-70856239D01*
X151366626Y-71033542D01*
X151314220Y-71176431D01*
X151241465Y-71372567D01*
X151180168Y-71547001D01*
X151126994Y-71711495D01*
X151078607Y-71877813D01*
X151031670Y-72057717D01*
X150982847Y-72262969D01*
X150928804Y-72505334D01*
X150901262Y-72632568D01*
X150832751Y-72940254D01*
X150769406Y-73200019D01*
X150709087Y-73418674D01*
X150649657Y-73603029D01*
X150588976Y-73759895D01*
X150524905Y-73896084D01*
X150477688Y-73981413D01*
X150362788Y-74147587D01*
X150214019Y-74320456D01*
X150047462Y-74483178D01*
X149879196Y-74618914D01*
X149848913Y-74639892D01*
X149732472Y-74707685D01*
X149604642Y-74764947D01*
X149475054Y-74809501D01*
X149353340Y-74839169D01*
X149249131Y-74851777D01*
X149172058Y-74845147D01*
X149131752Y-74817103D01*
X149128161Y-74802772D01*
X149128130Y-74706794D01*
X149137863Y-74622422D01*
X149154825Y-74569717D01*
X149158157Y-74565442D01*
X149194580Y-74549782D01*
X149270402Y-74529723D01*
X149370433Y-74509185D01*
X149388944Y-74505894D01*
X149577709Y-74459372D01*
X149743141Y-74385694D01*
X149899047Y-74276875D01*
X150059234Y-74124929D01*
X150072968Y-74110328D01*
X150219920Y-73933535D01*
X150344922Y-73738776D01*
X150450393Y-73519571D01*
X150538750Y-73269438D01*
X150612413Y-72981898D01*
X150673799Y-72650470D01*
X150708356Y-72407718D01*
X150729592Y-72235882D01*
X150742713Y-72095527D01*
X150745569Y-71976233D01*
X150736013Y-71867583D01*
X150711898Y-71759160D01*
X150671075Y-71640545D01*
X150611399Y-71501322D01*
X150530720Y-71331073D01*
X150454204Y-71174863D01*
X150207625Y-70673815D01*
X150256040Y-70591181D01*
X150308756Y-70519175D01*
X150362991Y-70472798D01*
X150406381Y-70461588D01*
X150416446Y-70467461D01*
X150430254Y-70501844D01*
X150449427Y-70575071D01*
X150469912Y-70671578D01*
X150470706Y-70675725D01*
X150497308Y-70779241D01*
X150541566Y-70913678D01*
X150596923Y-71060328D01*
X150647009Y-71178832D01*
X150725930Y-71352023D01*
X150787629Y-71478316D01*
X150835529Y-71562029D01*
X150873052Y-71607478D01*
X150903621Y-71618977D01*
X150930658Y-71600845D01*
X150953446Y-71565306D01*
X150973550Y-71515404D01*
X151005298Y-71421987D01*
X151045806Y-71294814D01*
X151092193Y-71143642D01*
X151141576Y-70978231D01*
X151191074Y-70808338D01*
X151237802Y-70643721D01*
X151278880Y-70494139D01*
X151311425Y-70369349D01*
X151330510Y-70288750D01*
X151376795Y-70074783D01*
X151497198Y-70074783D01*
X151582027Y-70082881D01*
G37*
X151582027Y-70082881D02*
X151627971Y-70104879D01*
X151631396Y-70110729D01*
X151629853Y-70154681D01*
X151612009Y-70242061D01*
X151580389Y-70364388D01*
X151537516Y-70513181D01*
X151485915Y-70679958D01*
X151428111Y-70856239D01*
X151366626Y-71033542D01*
X151314220Y-71176431D01*
X151241465Y-71372567D01*
X151180168Y-71547001D01*
X151126994Y-71711495D01*
X151078607Y-71877813D01*
X151031670Y-72057717D01*
X150982847Y-72262969D01*
X150928804Y-72505334D01*
X150901262Y-72632568D01*
X150832751Y-72940254D01*
X150769406Y-73200019D01*
X150709087Y-73418674D01*
X150649657Y-73603029D01*
X150588976Y-73759895D01*
X150524905Y-73896084D01*
X150477688Y-73981413D01*
X150362788Y-74147587D01*
X150214019Y-74320456D01*
X150047462Y-74483178D01*
X149879196Y-74618914D01*
X149848913Y-74639892D01*
X149732472Y-74707685D01*
X149604642Y-74764947D01*
X149475054Y-74809501D01*
X149353340Y-74839169D01*
X149249131Y-74851777D01*
X149172058Y-74845147D01*
X149131752Y-74817103D01*
X149128161Y-74802772D01*
X149128130Y-74706794D01*
X149137863Y-74622422D01*
X149154825Y-74569717D01*
X149158157Y-74565442D01*
X149194580Y-74549782D01*
X149270402Y-74529723D01*
X149370433Y-74509185D01*
X149388944Y-74505894D01*
X149577709Y-74459372D01*
X149743141Y-74385694D01*
X149899047Y-74276875D01*
X150059234Y-74124929D01*
X150072968Y-74110328D01*
X150219920Y-73933535D01*
X150344922Y-73738776D01*
X150450393Y-73519571D01*
X150538750Y-73269438D01*
X150612413Y-72981898D01*
X150673799Y-72650470D01*
X150708356Y-72407718D01*
X150729592Y-72235882D01*
X150742713Y-72095527D01*
X150745569Y-71976233D01*
X150736013Y-71867583D01*
X150711898Y-71759160D01*
X150671075Y-71640545D01*
X150611399Y-71501322D01*
X150530720Y-71331073D01*
X150454204Y-71174863D01*
X150207625Y-70673815D01*
X150256040Y-70591181D01*
X150308756Y-70519175D01*
X150362991Y-70472798D01*
X150406381Y-70461588D01*
X150416446Y-70467461D01*
X150430254Y-70501844D01*
X150449427Y-70575071D01*
X150469912Y-70671578D01*
X150470706Y-70675725D01*
X150497308Y-70779241D01*
X150541566Y-70913678D01*
X150596923Y-71060328D01*
X150647009Y-71178832D01*
X150725930Y-71352023D01*
X150787629Y-71478316D01*
X150835529Y-71562029D01*
X150873052Y-71607478D01*
X150903621Y-71618977D01*
X150930658Y-71600845D01*
X150953446Y-71565306D01*
X150973550Y-71515404D01*
X151005298Y-71421987D01*
X151045806Y-71294814D01*
X151092193Y-71143642D01*
X151141576Y-70978231D01*
X151191074Y-70808338D01*
X151237802Y-70643721D01*
X151278880Y-70494139D01*
X151311425Y-70369349D01*
X151330510Y-70288750D01*
X151376795Y-70074783D01*
X151497198Y-70074783D01*
X151582027Y-70082881D01*
G36*
X152441121Y-70469981D02*
G01*
X152627215Y-70521465D01*
X152644293Y-70527649D01*
X152858260Y-70606744D01*
X152858260Y-70725656D01*
X152852786Y-70802177D01*
X152839044Y-70852577D01*
X152832550Y-70860457D01*
X152796195Y-70855895D01*
X152734445Y-70825859D01*
X152704524Y-70806914D01*
X152565603Y-70735533D01*
X152407283Y-70690592D01*
X152246306Y-70674181D01*
X152099415Y-70688389D01*
X152009114Y-70720110D01*
X151913760Y-70797948D01*
X151855616Y-70905278D01*
X151838382Y-71027711D01*
X151865757Y-71150853D01*
X151887551Y-71193091D01*
X151917231Y-71237802D01*
X151955551Y-71286560D01*
X152007855Y-71344818D01*
X152079488Y-71418031D01*
X152175794Y-71511650D01*
X152302117Y-71631131D01*
X152463801Y-71781926D01*
X152472518Y-71790023D01*
X152637837Y-71948430D01*
X152763988Y-72082484D01*
X152856304Y-72200522D01*
X152920121Y-72310880D01*
X152960771Y-72421893D01*
X152983589Y-72541897D01*
X152989176Y-72597451D01*
X152980794Y-72787377D01*
X152925831Y-72952502D01*
X152827874Y-73087785D01*
X152690512Y-73188187D01*
X152526956Y-73246633D01*
X152403271Y-73266333D01*
X152247525Y-73280698D01*
X152079005Y-73288969D01*
X151916997Y-73290381D01*
X151780789Y-73284175D01*
X151729394Y-73278135D01*
X151560916Y-73225221D01*
X151416244Y-73126490D01*
X151300992Y-72988258D01*
X151220773Y-72816842D01*
X151186560Y-72667303D01*
X151178527Y-72588234D01*
X151188773Y-72542112D01*
X151226481Y-72507421D01*
X151264847Y-72483886D01*
X151363011Y-72428613D01*
X151424254Y-72406669D01*
X151458239Y-72421738D01*
X151474628Y-72477505D01*
X151482403Y-72566819D01*
X151510506Y-72729108D01*
X151573626Y-72854435D01*
X151674641Y-72944936D01*
X151816433Y-73002748D01*
X152001884Y-73030008D01*
X152110666Y-73032855D01*
X152317023Y-73019936D01*
X152488893Y-72984493D01*
X152620200Y-72928336D01*
X152702528Y-72856514D01*
X152743648Y-72761197D01*
X152756120Y-72639457D01*
X152739773Y-72512178D01*
X152706082Y-72420883D01*
X152672677Y-72373639D01*
X152606748Y-72294654D01*
X152514824Y-72191222D01*
X152403435Y-72070640D01*
X152279112Y-71940200D01*
X152237428Y-71897328D01*
X152044056Y-71694658D01*
X151890788Y-71522021D01*
X151774965Y-71374521D01*
X151693927Y-71247259D01*
X151645013Y-71135339D01*
X151625565Y-71033863D01*
X151632922Y-70937933D01*
X151664424Y-70842654D01*
X151664505Y-70842471D01*
X151751697Y-70699810D01*
X151873106Y-70573074D01*
X151984614Y-70495940D01*
X152107635Y-70456633D01*
X152263866Y-70448176D01*
X152441121Y-70469981D01*
G37*
X152441121Y-70469981D02*
X152627215Y-70521465D01*
X152644293Y-70527649D01*
X152858260Y-70606744D01*
X152858260Y-70725656D01*
X152852786Y-70802177D01*
X152839044Y-70852577D01*
X152832550Y-70860457D01*
X152796195Y-70855895D01*
X152734445Y-70825859D01*
X152704524Y-70806914D01*
X152565603Y-70735533D01*
X152407283Y-70690592D01*
X152246306Y-70674181D01*
X152099415Y-70688389D01*
X152009114Y-70720110D01*
X151913760Y-70797948D01*
X151855616Y-70905278D01*
X151838382Y-71027711D01*
X151865757Y-71150853D01*
X151887551Y-71193091D01*
X151917231Y-71237802D01*
X151955551Y-71286560D01*
X152007855Y-71344818D01*
X152079488Y-71418031D01*
X152175794Y-71511650D01*
X152302117Y-71631131D01*
X152463801Y-71781926D01*
X152472518Y-71790023D01*
X152637837Y-71948430D01*
X152763988Y-72082484D01*
X152856304Y-72200522D01*
X152920121Y-72310880D01*
X152960771Y-72421893D01*
X152983589Y-72541897D01*
X152989176Y-72597451D01*
X152980794Y-72787377D01*
X152925831Y-72952502D01*
X152827874Y-73087785D01*
X152690512Y-73188187D01*
X152526956Y-73246633D01*
X152403271Y-73266333D01*
X152247525Y-73280698D01*
X152079005Y-73288969D01*
X151916997Y-73290381D01*
X151780789Y-73284175D01*
X151729394Y-73278135D01*
X151560916Y-73225221D01*
X151416244Y-73126490D01*
X151300992Y-72988258D01*
X151220773Y-72816842D01*
X151186560Y-72667303D01*
X151178527Y-72588234D01*
X151188773Y-72542112D01*
X151226481Y-72507421D01*
X151264847Y-72483886D01*
X151363011Y-72428613D01*
X151424254Y-72406669D01*
X151458239Y-72421738D01*
X151474628Y-72477505D01*
X151482403Y-72566819D01*
X151510506Y-72729108D01*
X151573626Y-72854435D01*
X151674641Y-72944936D01*
X151816433Y-73002748D01*
X152001884Y-73030008D01*
X152110666Y-73032855D01*
X152317023Y-73019936D01*
X152488893Y-72984493D01*
X152620200Y-72928336D01*
X152702528Y-72856514D01*
X152743648Y-72761197D01*
X152756120Y-72639457D01*
X152739773Y-72512178D01*
X152706082Y-72420883D01*
X152672677Y-72373639D01*
X152606748Y-72294654D01*
X152514824Y-72191222D01*
X152403435Y-72070640D01*
X152279112Y-71940200D01*
X152237428Y-71897328D01*
X152044056Y-71694658D01*
X151890788Y-71522021D01*
X151774965Y-71374521D01*
X151693927Y-71247259D01*
X151645013Y-71135339D01*
X151625565Y-71033863D01*
X151632922Y-70937933D01*
X151664424Y-70842654D01*
X151664505Y-70842471D01*
X151751697Y-70699810D01*
X151873106Y-70573074D01*
X151984614Y-70495940D01*
X152107635Y-70456633D01*
X152263866Y-70448176D01*
X152441121Y-70469981D01*
G36*
X157861661Y-69859196D02*
G01*
X157943812Y-69873581D01*
X157996827Y-69884819D01*
X158159886Y-69947096D01*
X158298873Y-70057728D01*
X158412596Y-70214816D01*
X158499863Y-70416462D01*
X158559480Y-70660766D01*
X158580176Y-70813842D01*
X158591075Y-70932673D01*
X158597704Y-71029445D01*
X158599371Y-71092082D01*
X158597123Y-71109253D01*
X158565678Y-71117812D01*
X158494473Y-71128935D01*
X158398744Y-71140254D01*
X158396038Y-71140532D01*
X158206848Y-71159915D01*
X158221660Y-71079795D01*
X158234924Y-71008216D01*
X158253491Y-70908235D01*
X158267290Y-70834022D01*
X158283948Y-70641358D01*
X158260887Y-70473813D01*
X158202228Y-70336023D01*
X158112095Y-70232627D01*
X157994610Y-70168263D01*
X157853897Y-70147569D01*
X157694077Y-70175183D01*
X157684425Y-70178326D01*
X157567646Y-70234834D01*
X157468840Y-70322949D01*
X157385579Y-70447300D01*
X157315431Y-70612511D01*
X157255968Y-70823210D01*
X157204758Y-71084024D01*
X157202915Y-71095150D01*
X157181186Y-71289670D01*
X157171904Y-71519895D01*
X157174623Y-71767836D01*
X157188900Y-72015507D01*
X157214291Y-72244921D01*
X157234265Y-72364225D01*
X157296317Y-72600883D01*
X157380724Y-72787362D01*
X157488051Y-72924219D01*
X157618863Y-73012011D01*
X157773726Y-73051295D01*
X157926639Y-73046699D01*
X158102405Y-73002624D01*
X158241552Y-72922285D01*
X158345560Y-72803505D01*
X158415904Y-72644110D01*
X158454064Y-72441924D01*
X158462449Y-72257761D01*
X158458946Y-72094025D01*
X158447225Y-71981838D01*
X158424559Y-71917806D01*
X158388219Y-71898533D01*
X158335478Y-71920625D01*
X158263607Y-71980687D01*
X158250157Y-71993587D01*
X158161945Y-72064809D01*
X158095571Y-72085441D01*
X158050531Y-72055244D01*
X158026324Y-71973979D01*
X158021509Y-71884533D01*
X158024668Y-71789023D01*
X158039780Y-71725503D01*
X158076338Y-71686915D01*
X158143834Y-71666202D01*
X158251759Y-71656305D01*
X158333067Y-71652868D01*
X158455041Y-71648875D01*
X158545744Y-71651617D01*
X158609520Y-71668008D01*
X158650710Y-71704961D01*
X158673657Y-71769386D01*
X158682702Y-71868198D01*
X158682187Y-72008308D01*
X158676456Y-72196628D01*
X158676368Y-72199378D01*
X158668494Y-72394580D01*
X158658171Y-72545975D01*
X158644114Y-72664962D01*
X158625034Y-72762936D01*
X158604435Y-72836552D01*
X158525889Y-73013037D01*
X158416912Y-73148453D01*
X158281148Y-73238351D01*
X158272438Y-73242112D01*
X158175295Y-73268586D01*
X158042550Y-73286192D01*
X157893217Y-73294218D01*
X157746306Y-73291952D01*
X157620828Y-73278682D01*
X157574090Y-73268278D01*
X157402569Y-73197985D01*
X157264448Y-73091508D01*
X157155339Y-72944029D01*
X157070850Y-72750734D01*
X157053934Y-72697609D01*
X157002353Y-72473570D01*
X156967448Y-72210108D01*
X156949097Y-71920402D01*
X156947179Y-71617631D01*
X156961574Y-71314972D01*
X156992159Y-71025604D01*
X157038815Y-70762706D01*
X157072954Y-70628360D01*
X157156092Y-70388473D01*
X157253211Y-70198750D01*
X157367371Y-70055229D01*
X157501633Y-69953948D01*
X157637931Y-69896884D01*
X157732099Y-69870062D01*
X157798883Y-69857761D01*
X157861661Y-69859196D01*
G37*
X157861661Y-69859196D02*
X157943812Y-69873581D01*
X157996827Y-69884819D01*
X158159886Y-69947096D01*
X158298873Y-70057728D01*
X158412596Y-70214816D01*
X158499863Y-70416462D01*
X158559480Y-70660766D01*
X158580176Y-70813842D01*
X158591075Y-70932673D01*
X158597704Y-71029445D01*
X158599371Y-71092082D01*
X158597123Y-71109253D01*
X158565678Y-71117812D01*
X158494473Y-71128935D01*
X158398744Y-71140254D01*
X158396038Y-71140532D01*
X158206848Y-71159915D01*
X158221660Y-71079795D01*
X158234924Y-71008216D01*
X158253491Y-70908235D01*
X158267290Y-70834022D01*
X158283948Y-70641358D01*
X158260887Y-70473813D01*
X158202228Y-70336023D01*
X158112095Y-70232627D01*
X157994610Y-70168263D01*
X157853897Y-70147569D01*
X157694077Y-70175183D01*
X157684425Y-70178326D01*
X157567646Y-70234834D01*
X157468840Y-70322949D01*
X157385579Y-70447300D01*
X157315431Y-70612511D01*
X157255968Y-70823210D01*
X157204758Y-71084024D01*
X157202915Y-71095150D01*
X157181186Y-71289670D01*
X157171904Y-71519895D01*
X157174623Y-71767836D01*
X157188900Y-72015507D01*
X157214291Y-72244921D01*
X157234265Y-72364225D01*
X157296317Y-72600883D01*
X157380724Y-72787362D01*
X157488051Y-72924219D01*
X157618863Y-73012011D01*
X157773726Y-73051295D01*
X157926639Y-73046699D01*
X158102405Y-73002624D01*
X158241552Y-72922285D01*
X158345560Y-72803505D01*
X158415904Y-72644110D01*
X158454064Y-72441924D01*
X158462449Y-72257761D01*
X158458946Y-72094025D01*
X158447225Y-71981838D01*
X158424559Y-71917806D01*
X158388219Y-71898533D01*
X158335478Y-71920625D01*
X158263607Y-71980687D01*
X158250157Y-71993587D01*
X158161945Y-72064809D01*
X158095571Y-72085441D01*
X158050531Y-72055244D01*
X158026324Y-71973979D01*
X158021509Y-71884533D01*
X158024668Y-71789023D01*
X158039780Y-71725503D01*
X158076338Y-71686915D01*
X158143834Y-71666202D01*
X158251759Y-71656305D01*
X158333067Y-71652868D01*
X158455041Y-71648875D01*
X158545744Y-71651617D01*
X158609520Y-71668008D01*
X158650710Y-71704961D01*
X158673657Y-71769386D01*
X158682702Y-71868198D01*
X158682187Y-72008308D01*
X158676456Y-72196628D01*
X158676368Y-72199378D01*
X158668494Y-72394580D01*
X158658171Y-72545975D01*
X158644114Y-72664962D01*
X158625034Y-72762936D01*
X158604435Y-72836552D01*
X158525889Y-73013037D01*
X158416912Y-73148453D01*
X158281148Y-73238351D01*
X158272438Y-73242112D01*
X158175295Y-73268586D01*
X158042550Y-73286192D01*
X157893217Y-73294218D01*
X157746306Y-73291952D01*
X157620828Y-73278682D01*
X157574090Y-73268278D01*
X157402569Y-73197985D01*
X157264448Y-73091508D01*
X157155339Y-72944029D01*
X157070850Y-72750734D01*
X157053934Y-72697609D01*
X157002353Y-72473570D01*
X156967448Y-72210108D01*
X156949097Y-71920402D01*
X156947179Y-71617631D01*
X156961574Y-71314972D01*
X156992159Y-71025604D01*
X157038815Y-70762706D01*
X157072954Y-70628360D01*
X157156092Y-70388473D01*
X157253211Y-70198750D01*
X157367371Y-70055229D01*
X157501633Y-69953948D01*
X157637931Y-69896884D01*
X157732099Y-69870062D01*
X157798883Y-69857761D01*
X157861661Y-69859196D01*
G36*
X155060139Y-70000365D02*
G01*
X155065015Y-70065623D01*
X155068731Y-70147379D01*
X155070363Y-70226276D01*
X155069516Y-70274946D01*
X155057763Y-70304056D01*
X155018071Y-70319158D01*
X154937828Y-70324509D01*
X154922010Y-70324729D01*
X154837079Y-70330220D01*
X154714674Y-70344049D01*
X154571540Y-70364094D01*
X154432240Y-70386848D01*
X154283576Y-70413605D01*
X154176028Y-70439446D01*
X154102705Y-70473231D01*
X154056712Y-70523822D01*
X154031155Y-70600080D01*
X154019141Y-70710865D01*
X154013775Y-70865039D01*
X154012296Y-70926639D01*
X154009709Y-71077829D01*
X154014843Y-71190181D01*
X154034447Y-71268173D01*
X154075271Y-71316281D01*
X154144065Y-71338982D01*
X154247579Y-71340752D01*
X154392564Y-71326069D01*
X154576357Y-71300746D01*
X154669827Y-71296488D01*
X154721078Y-71321121D01*
X154735373Y-71381219D01*
X154719069Y-71478974D01*
X154694239Y-71579457D01*
X154382650Y-71579457D01*
X154239245Y-71581024D01*
X154141899Y-71586465D01*
X154081521Y-71596884D01*
X154049022Y-71613390D01*
X154042511Y-71620870D01*
X154033263Y-71663075D01*
X154027925Y-71750056D01*
X154026208Y-71871531D01*
X154027823Y-72017217D01*
X154032480Y-72176832D01*
X154039889Y-72340096D01*
X154049762Y-72496725D01*
X154061808Y-72636438D01*
X154073925Y-72736868D01*
X154090075Y-72841909D01*
X154108844Y-72915727D01*
X154139182Y-72963329D01*
X154190039Y-72989726D01*
X154270365Y-72999927D01*
X154389111Y-72998940D01*
X154531294Y-72992851D01*
X154680473Y-72984066D01*
X154821868Y-72972110D01*
X154939885Y-72958527D01*
X155018928Y-72944863D01*
X155021077Y-72944332D01*
X155126833Y-72923246D01*
X155190606Y-72930104D01*
X155221552Y-72972023D01*
X155228829Y-73056125D01*
X155227094Y-73104503D01*
X155218804Y-73263587D01*
X154539723Y-73270962D01*
X153860643Y-73278338D01*
X153842867Y-72967107D01*
X153836653Y-72836487D01*
X153830629Y-72669125D01*
X153824889Y-72472040D01*
X153819526Y-72252251D01*
X153814634Y-72016777D01*
X153810309Y-71772638D01*
X153806643Y-71526851D01*
X153803730Y-71286438D01*
X153801666Y-71058416D01*
X153800542Y-70849804D01*
X153800455Y-70667623D01*
X153801497Y-70518890D01*
X153803763Y-70410626D01*
X153807346Y-70349849D01*
X153807775Y-70346692D01*
X153827131Y-70218274D01*
X153984598Y-70189250D01*
X154066132Y-70173325D01*
X154188206Y-70148349D01*
X154337426Y-70117115D01*
X154500400Y-70082413D01*
X154595020Y-70061999D01*
X154745125Y-70029940D01*
X154875062Y-70003125D01*
X154975842Y-69983334D01*
X155038477Y-69972346D01*
X155055025Y-69970962D01*
X155060139Y-70000365D01*
G37*
X155060139Y-70000365D02*
X155065015Y-70065623D01*
X155068731Y-70147379D01*
X155070363Y-70226276D01*
X155069516Y-70274946D01*
X155057763Y-70304056D01*
X155018071Y-70319158D01*
X154937828Y-70324509D01*
X154922010Y-70324729D01*
X154837079Y-70330220D01*
X154714674Y-70344049D01*
X154571540Y-70364094D01*
X154432240Y-70386848D01*
X154283576Y-70413605D01*
X154176028Y-70439446D01*
X154102705Y-70473231D01*
X154056712Y-70523822D01*
X154031155Y-70600080D01*
X154019141Y-70710865D01*
X154013775Y-70865039D01*
X154012296Y-70926639D01*
X154009709Y-71077829D01*
X154014843Y-71190181D01*
X154034447Y-71268173D01*
X154075271Y-71316281D01*
X154144065Y-71338982D01*
X154247579Y-71340752D01*
X154392564Y-71326069D01*
X154576357Y-71300746D01*
X154669827Y-71296488D01*
X154721078Y-71321121D01*
X154735373Y-71381219D01*
X154719069Y-71478974D01*
X154694239Y-71579457D01*
X154382650Y-71579457D01*
X154239245Y-71581024D01*
X154141899Y-71586465D01*
X154081521Y-71596884D01*
X154049022Y-71613390D01*
X154042511Y-71620870D01*
X154033263Y-71663075D01*
X154027925Y-71750056D01*
X154026208Y-71871531D01*
X154027823Y-72017217D01*
X154032480Y-72176832D01*
X154039889Y-72340096D01*
X154049762Y-72496725D01*
X154061808Y-72636438D01*
X154073925Y-72736868D01*
X154090075Y-72841909D01*
X154108844Y-72915727D01*
X154139182Y-72963329D01*
X154190039Y-72989726D01*
X154270365Y-72999927D01*
X154389111Y-72998940D01*
X154531294Y-72992851D01*
X154680473Y-72984066D01*
X154821868Y-72972110D01*
X154939885Y-72958527D01*
X155018928Y-72944863D01*
X155021077Y-72944332D01*
X155126833Y-72923246D01*
X155190606Y-72930104D01*
X155221552Y-72972023D01*
X155228829Y-73056125D01*
X155227094Y-73104503D01*
X155218804Y-73263587D01*
X154539723Y-73270962D01*
X153860643Y-73278338D01*
X153842867Y-72967107D01*
X153836653Y-72836487D01*
X153830629Y-72669125D01*
X153824889Y-72472040D01*
X153819526Y-72252251D01*
X153814634Y-72016777D01*
X153810309Y-71772638D01*
X153806643Y-71526851D01*
X153803730Y-71286438D01*
X153801666Y-71058416D01*
X153800542Y-70849804D01*
X153800455Y-70667623D01*
X153801497Y-70518890D01*
X153803763Y-70410626D01*
X153807346Y-70349849D01*
X153807775Y-70346692D01*
X153827131Y-70218274D01*
X153984598Y-70189250D01*
X154066132Y-70173325D01*
X154188206Y-70148349D01*
X154337426Y-70117115D01*
X154500400Y-70082413D01*
X154595020Y-70061999D01*
X154745125Y-70029940D01*
X154875062Y-70003125D01*
X154975842Y-69983334D01*
X155038477Y-69972346D01*
X155055025Y-69970962D01*
X155060139Y-70000365D01*
G36*
X148788086Y-69956128D02*
G01*
X148747649Y-70161856D01*
X148714412Y-70367336D01*
X148689158Y-70563824D01*
X148672669Y-70742573D01*
X148665730Y-70894839D01*
X148669123Y-71011876D01*
X148683632Y-71084938D01*
X148686475Y-71090938D01*
X148719197Y-71133551D01*
X148762601Y-71151661D01*
X148821396Y-71142947D01*
X148900290Y-71105090D01*
X149003990Y-71035772D01*
X149137204Y-70932672D01*
X149304641Y-70793473D01*
X149324347Y-70776711D01*
X149445197Y-70670732D01*
X149573698Y-70553153D01*
X149689772Y-70442530D01*
X149737680Y-70394803D01*
X149818280Y-70315091D01*
X149885394Y-70253123D01*
X149929199Y-70217761D01*
X149939363Y-70212826D01*
X149961659Y-70236075D01*
X149996769Y-70296629D01*
X150031877Y-70369958D01*
X150101368Y-70527089D01*
X150037260Y-70576436D01*
X149993413Y-70606482D01*
X149911271Y-70659427D01*
X149799802Y-70729619D01*
X149667974Y-70811405D01*
X149543379Y-70887785D01*
X149402071Y-70975282D01*
X149274503Y-71056803D01*
X149169355Y-71126602D01*
X149095307Y-71178931D01*
X149062748Y-71205984D01*
X149036973Y-71242675D01*
X149030385Y-71282604D01*
X149046592Y-71333813D01*
X149089202Y-71404345D01*
X149161824Y-71502241D01*
X149239670Y-71600341D01*
X149504159Y-71889357D01*
X149796852Y-72132264D01*
X150123067Y-72333202D01*
X150278340Y-72409272D01*
X150391437Y-72464936D01*
X150463201Y-72516639D01*
X150498313Y-72576449D01*
X150501451Y-72656432D01*
X150477294Y-72768657D01*
X150451683Y-72856359D01*
X150425202Y-72918274D01*
X150383182Y-72942591D01*
X150329532Y-72946087D01*
X150276420Y-72940306D01*
X150226752Y-72917441D01*
X150168379Y-72869210D01*
X150089155Y-72787331D01*
X150076462Y-72773533D01*
X149996313Y-72687069D01*
X149890800Y-72574606D01*
X149772882Y-72449893D01*
X149655521Y-72326682D01*
X149640593Y-72311087D01*
X149517671Y-72181099D01*
X149386506Y-72039639D01*
X149262545Y-71903521D01*
X149161238Y-71789559D01*
X149158592Y-71786522D01*
X149046828Y-71659728D01*
X148963151Y-71569627D01*
X148900647Y-71510205D01*
X148852403Y-71475447D01*
X148811504Y-71459341D01*
X148778392Y-71455831D01*
X148737608Y-71462867D01*
X148707021Y-71488915D01*
X148685635Y-71540035D01*
X148672452Y-71622287D01*
X148666476Y-71741731D01*
X148666710Y-71904424D01*
X148671760Y-72104022D01*
X148686125Y-72399265D01*
X148708930Y-72657562D01*
X148739407Y-72870455D01*
X148743220Y-72890870D01*
X148766190Y-73013388D01*
X148784639Y-73117250D01*
X148796333Y-73189539D01*
X148799328Y-73215272D01*
X148775402Y-73237717D01*
X148701147Y-73248542D01*
X148647068Y-73249783D01*
X148545611Y-73243479D01*
X148491103Y-73225307D01*
X148483714Y-73215272D01*
X148480741Y-73180240D01*
X148477124Y-73096238D01*
X148472988Y-72969506D01*
X148468455Y-72806286D01*
X148463648Y-72612819D01*
X148458692Y-72395346D01*
X148453708Y-72160108D01*
X148448821Y-71913347D01*
X148444154Y-71661304D01*
X148439830Y-71410219D01*
X148435973Y-71166336D01*
X148432705Y-70935893D01*
X148430151Y-70725134D01*
X148428433Y-70540299D01*
X148427674Y-70387629D01*
X148427661Y-70378478D01*
X148427065Y-69895326D01*
X148615907Y-69887106D01*
X148804748Y-69878886D01*
X148788086Y-69956128D01*
G37*
X148788086Y-69956128D02*
X148747649Y-70161856D01*
X148714412Y-70367336D01*
X148689158Y-70563824D01*
X148672669Y-70742573D01*
X148665730Y-70894839D01*
X148669123Y-71011876D01*
X148683632Y-71084938D01*
X148686475Y-71090938D01*
X148719197Y-71133551D01*
X148762601Y-71151661D01*
X148821396Y-71142947D01*
X148900290Y-71105090D01*
X149003990Y-71035772D01*
X149137204Y-70932672D01*
X149304641Y-70793473D01*
X149324347Y-70776711D01*
X149445197Y-70670732D01*
X149573698Y-70553153D01*
X149689772Y-70442530D01*
X149737680Y-70394803D01*
X149818280Y-70315091D01*
X149885394Y-70253123D01*
X149929199Y-70217761D01*
X149939363Y-70212826D01*
X149961659Y-70236075D01*
X149996769Y-70296629D01*
X150031877Y-70369958D01*
X150101368Y-70527089D01*
X150037260Y-70576436D01*
X149993413Y-70606482D01*
X149911271Y-70659427D01*
X149799802Y-70729619D01*
X149667974Y-70811405D01*
X149543379Y-70887785D01*
X149402071Y-70975282D01*
X149274503Y-71056803D01*
X149169355Y-71126602D01*
X149095307Y-71178931D01*
X149062748Y-71205984D01*
X149036973Y-71242675D01*
X149030385Y-71282604D01*
X149046592Y-71333813D01*
X149089202Y-71404345D01*
X149161824Y-71502241D01*
X149239670Y-71600341D01*
X149504159Y-71889357D01*
X149796852Y-72132264D01*
X150123067Y-72333202D01*
X150278340Y-72409272D01*
X150391437Y-72464936D01*
X150463201Y-72516639D01*
X150498313Y-72576449D01*
X150501451Y-72656432D01*
X150477294Y-72768657D01*
X150451683Y-72856359D01*
X150425202Y-72918274D01*
X150383182Y-72942591D01*
X150329532Y-72946087D01*
X150276420Y-72940306D01*
X150226752Y-72917441D01*
X150168379Y-72869210D01*
X150089155Y-72787331D01*
X150076462Y-72773533D01*
X149996313Y-72687069D01*
X149890800Y-72574606D01*
X149772882Y-72449893D01*
X149655521Y-72326682D01*
X149640593Y-72311087D01*
X149517671Y-72181099D01*
X149386506Y-72039639D01*
X149262545Y-71903521D01*
X149161238Y-71789559D01*
X149158592Y-71786522D01*
X149046828Y-71659728D01*
X148963151Y-71569627D01*
X148900647Y-71510205D01*
X148852403Y-71475447D01*
X148811504Y-71459341D01*
X148778392Y-71455831D01*
X148737608Y-71462867D01*
X148707021Y-71488915D01*
X148685635Y-71540035D01*
X148672452Y-71622287D01*
X148666476Y-71741731D01*
X148666710Y-71904424D01*
X148671760Y-72104022D01*
X148686125Y-72399265D01*
X148708930Y-72657562D01*
X148739407Y-72870455D01*
X148743220Y-72890870D01*
X148766190Y-73013388D01*
X148784639Y-73117250D01*
X148796333Y-73189539D01*
X148799328Y-73215272D01*
X148775402Y-73237717D01*
X148701147Y-73248542D01*
X148647068Y-73249783D01*
X148545611Y-73243479D01*
X148491103Y-73225307D01*
X148483714Y-73215272D01*
X148480741Y-73180240D01*
X148477124Y-73096238D01*
X148472988Y-72969506D01*
X148468455Y-72806286D01*
X148463648Y-72612819D01*
X148458692Y-72395346D01*
X148453708Y-72160108D01*
X148448821Y-71913347D01*
X148444154Y-71661304D01*
X148439830Y-71410219D01*
X148435973Y-71166336D01*
X148432705Y-70935893D01*
X148430151Y-70725134D01*
X148428433Y-70540299D01*
X148427674Y-70387629D01*
X148427661Y-70378478D01*
X148427065Y-69895326D01*
X148615907Y-69887106D01*
X148804748Y-69878886D01*
X148788086Y-69956128D01*
G36*
X155639837Y-69941476D02*
G01*
X155786590Y-69949021D01*
X155894728Y-69961135D01*
X155980832Y-69980850D01*
X156061481Y-70011195D01*
X156088478Y-70023474D01*
X156278764Y-70142854D01*
X156440546Y-70308780D01*
X156573418Y-70520263D01*
X156676973Y-70776313D01*
X156750804Y-71075943D01*
X156794506Y-71418163D01*
X156807752Y-71772718D01*
X156795573Y-72117335D01*
X156758682Y-72413515D01*
X156696570Y-72662451D01*
X156608729Y-72865338D01*
X156494650Y-73023369D01*
X156353824Y-73137737D01*
X156196524Y-73206522D01*
X156107639Y-73225415D01*
X155993005Y-73239250D01*
X155864714Y-73247886D01*
X155734853Y-73251183D01*
X155615515Y-73249002D01*
X155518789Y-73241203D01*
X155456764Y-73227645D01*
X155440642Y-73215272D01*
X155438215Y-73183408D01*
X155434444Y-73102363D01*
X155429517Y-72978148D01*
X155423618Y-72816778D01*
X155416932Y-72624268D01*
X155409646Y-72406630D01*
X155401944Y-72169878D01*
X155394012Y-71920026D01*
X155386036Y-71663089D01*
X155378200Y-71405079D01*
X155370691Y-71152011D01*
X155363693Y-70909898D01*
X155362436Y-70864971D01*
X155592208Y-70864971D01*
X155592235Y-71105302D01*
X155592327Y-71228417D01*
X155594034Y-71607588D01*
X155598460Y-71945313D01*
X155605510Y-72239610D01*
X155615091Y-72488501D01*
X155627109Y-72690005D01*
X155641471Y-72842142D01*
X155658083Y-72942933D01*
X155675573Y-72988977D01*
X155723204Y-73018291D01*
X155793740Y-73036703D01*
X155863637Y-73045733D01*
X155908925Y-73052066D01*
X155909021Y-73052082D01*
X155946467Y-73043124D01*
X156017498Y-73015413D01*
X156102282Y-72977030D01*
X156267127Y-72879006D01*
X156394302Y-72756405D01*
X156496667Y-72595987D01*
X156521124Y-72545761D01*
X156550939Y-72477774D01*
X156572260Y-72415553D01*
X156586839Y-72347290D01*
X156596429Y-72261176D01*
X156602782Y-72145403D01*
X156607651Y-71988164D01*
X156608430Y-71957549D01*
X156604230Y-71620001D01*
X156575126Y-71308722D01*
X156522625Y-71027242D01*
X156448233Y-70779094D01*
X156353455Y-70567807D01*
X156239798Y-70396914D01*
X156108767Y-70269944D01*
X155961869Y-70190429D01*
X155843526Y-70164187D01*
X155750493Y-70162879D01*
X155672558Y-70174715D01*
X155650764Y-70183063D01*
X155635392Y-70192303D01*
X155622943Y-70205511D01*
X155613116Y-70228116D01*
X155605607Y-70265544D01*
X155600112Y-70323222D01*
X155596328Y-70406576D01*
X155593952Y-70521035D01*
X155592680Y-70672024D01*
X155592208Y-70864971D01*
X155362436Y-70864971D01*
X155357393Y-70684754D01*
X155351975Y-70482592D01*
X155347625Y-70309428D01*
X155344529Y-70171274D01*
X155342872Y-70074144D01*
X155342648Y-70037218D01*
X155343043Y-69930631D01*
X155639837Y-69941476D01*
G37*
X155639837Y-69941476D02*
X155786590Y-69949021D01*
X155894728Y-69961135D01*
X155980832Y-69980850D01*
X156061481Y-70011195D01*
X156088478Y-70023474D01*
X156278764Y-70142854D01*
X156440546Y-70308780D01*
X156573418Y-70520263D01*
X156676973Y-70776313D01*
X156750804Y-71075943D01*
X156794506Y-71418163D01*
X156807752Y-71772718D01*
X156795573Y-72117335D01*
X156758682Y-72413515D01*
X156696570Y-72662451D01*
X156608729Y-72865338D01*
X156494650Y-73023369D01*
X156353824Y-73137737D01*
X156196524Y-73206522D01*
X156107639Y-73225415D01*
X155993005Y-73239250D01*
X155864714Y-73247886D01*
X155734853Y-73251183D01*
X155615515Y-73249002D01*
X155518789Y-73241203D01*
X155456764Y-73227645D01*
X155440642Y-73215272D01*
X155438215Y-73183408D01*
X155434444Y-73102363D01*
X155429517Y-72978148D01*
X155423618Y-72816778D01*
X155416932Y-72624268D01*
X155409646Y-72406630D01*
X155401944Y-72169878D01*
X155394012Y-71920026D01*
X155386036Y-71663089D01*
X155378200Y-71405079D01*
X155370691Y-71152011D01*
X155363693Y-70909898D01*
X155362436Y-70864971D01*
X155592208Y-70864971D01*
X155592235Y-71105302D01*
X155592327Y-71228417D01*
X155594034Y-71607588D01*
X155598460Y-71945313D01*
X155605510Y-72239610D01*
X155615091Y-72488501D01*
X155627109Y-72690005D01*
X155641471Y-72842142D01*
X155658083Y-72942933D01*
X155675573Y-72988977D01*
X155723204Y-73018291D01*
X155793740Y-73036703D01*
X155863637Y-73045733D01*
X155908925Y-73052066D01*
X155909021Y-73052082D01*
X155946467Y-73043124D01*
X156017498Y-73015413D01*
X156102282Y-72977030D01*
X156267127Y-72879006D01*
X156394302Y-72756405D01*
X156496667Y-72595987D01*
X156521124Y-72545761D01*
X156550939Y-72477774D01*
X156572260Y-72415553D01*
X156586839Y-72347290D01*
X156596429Y-72261176D01*
X156602782Y-72145403D01*
X156607651Y-71988164D01*
X156608430Y-71957549D01*
X156604230Y-71620001D01*
X156575126Y-71308722D01*
X156522625Y-71027242D01*
X156448233Y-70779094D01*
X156353455Y-70567807D01*
X156239798Y-70396914D01*
X156108767Y-70269944D01*
X155961869Y-70190429D01*
X155843526Y-70164187D01*
X155750493Y-70162879D01*
X155672558Y-70174715D01*
X155650764Y-70183063D01*
X155635392Y-70192303D01*
X155622943Y-70205511D01*
X155613116Y-70228116D01*
X155605607Y-70265544D01*
X155600112Y-70323222D01*
X155596328Y-70406576D01*
X155593952Y-70521035D01*
X155592680Y-70672024D01*
X155592208Y-70864971D01*
X155362436Y-70864971D01*
X155357393Y-70684754D01*
X155351975Y-70482592D01*
X155347625Y-70309428D01*
X155344529Y-70171274D01*
X155342872Y-70074144D01*
X155342648Y-70037218D01*
X155343043Y-69930631D01*
X155639837Y-69941476D01*
G36*
X159712350Y-69870538D02*
G01*
X159795885Y-69873797D01*
X160114306Y-69889479D01*
X160123902Y-69990098D01*
X160128422Y-70097414D01*
X160112070Y-70160217D01*
X160067516Y-70183353D01*
X159987425Y-70171667D01*
X159895047Y-70141306D01*
X159809263Y-70119880D01*
X159694347Y-70104203D01*
X159564335Y-70094622D01*
X159433263Y-70091485D01*
X159315168Y-70095136D01*
X159224086Y-70105923D01*
X159174830Y-70123526D01*
X159148297Y-70172064D01*
X159123836Y-70266661D01*
X159102624Y-70398165D01*
X159085837Y-70557426D01*
X159074651Y-70735292D01*
X159070242Y-70922612D01*
X159070217Y-70937452D01*
X159070299Y-71072889D01*
X159075227Y-71173305D01*
X159092028Y-71242917D01*
X159127726Y-71285943D01*
X159189346Y-71306599D01*
X159283914Y-71309103D01*
X159418455Y-71297672D01*
X159599994Y-71276523D01*
X159629293Y-71273058D01*
X159788043Y-71254354D01*
X159788043Y-71379014D01*
X159780231Y-71463348D01*
X159760330Y-71523069D01*
X159751336Y-71534138D01*
X159706489Y-71548066D01*
X159616094Y-71557953D01*
X159489728Y-71562961D01*
X159417179Y-71563378D01*
X159294200Y-71564474D01*
X159192472Y-71568391D01*
X159124175Y-71574473D01*
X159101875Y-71580365D01*
X159094065Y-71615916D01*
X159089488Y-71696402D01*
X159087917Y-71811648D01*
X159089124Y-71951481D01*
X159092883Y-72105726D01*
X159098965Y-72264210D01*
X159107144Y-72416757D01*
X159117193Y-72553195D01*
X159125455Y-72635726D01*
X159146324Y-72783480D01*
X159169162Y-72880989D01*
X159195216Y-72933219D01*
X159201579Y-72939185D01*
X159256091Y-72957807D01*
X159353499Y-72968810D01*
X159482004Y-72972151D01*
X159629807Y-72967790D01*
X159785109Y-72955684D01*
X159898478Y-72941635D01*
X160012050Y-72926155D01*
X160114931Y-72914147D01*
X160185789Y-72908089D01*
X160188369Y-72907977D01*
X160271195Y-72904674D01*
X160271195Y-73235978D01*
X159603614Y-73243367D01*
X159415722Y-73244464D01*
X159247414Y-73243563D01*
X159106305Y-73240857D01*
X159000011Y-73236535D01*
X158936146Y-73230791D01*
X158920848Y-73226185D01*
X158914918Y-73190272D01*
X158908794Y-73105544D01*
X158902599Y-72978402D01*
X158896454Y-72815247D01*
X158890484Y-72622480D01*
X158884810Y-72406503D01*
X158879555Y-72173717D01*
X158874843Y-71930523D01*
X158870794Y-71683322D01*
X158867533Y-71438515D01*
X158865182Y-71202504D01*
X158863864Y-70981690D01*
X158863701Y-70782473D01*
X158864815Y-70611256D01*
X158867331Y-70474440D01*
X158867804Y-70458313D01*
X158885493Y-69889344D01*
X159181478Y-69873729D01*
X159342826Y-69868496D01*
X159529645Y-69867433D01*
X159712350Y-69870538D01*
G37*
X159712350Y-69870538D02*
X159795885Y-69873797D01*
X160114306Y-69889479D01*
X160123902Y-69990098D01*
X160128422Y-70097414D01*
X160112070Y-70160217D01*
X160067516Y-70183353D01*
X159987425Y-70171667D01*
X159895047Y-70141306D01*
X159809263Y-70119880D01*
X159694347Y-70104203D01*
X159564335Y-70094622D01*
X159433263Y-70091485D01*
X159315168Y-70095136D01*
X159224086Y-70105923D01*
X159174830Y-70123526D01*
X159148297Y-70172064D01*
X159123836Y-70266661D01*
X159102624Y-70398165D01*
X159085837Y-70557426D01*
X159074651Y-70735292D01*
X159070242Y-70922612D01*
X159070217Y-70937452D01*
X159070299Y-71072889D01*
X159075227Y-71173305D01*
X159092028Y-71242917D01*
X159127726Y-71285943D01*
X159189346Y-71306599D01*
X159283914Y-71309103D01*
X159418455Y-71297672D01*
X159599994Y-71276523D01*
X159629293Y-71273058D01*
X159788043Y-71254354D01*
X159788043Y-71379014D01*
X159780231Y-71463348D01*
X159760330Y-71523069D01*
X159751336Y-71534138D01*
X159706489Y-71548066D01*
X159616094Y-71557953D01*
X159489728Y-71562961D01*
X159417179Y-71563378D01*
X159294200Y-71564474D01*
X159192472Y-71568391D01*
X159124175Y-71574473D01*
X159101875Y-71580365D01*
X159094065Y-71615916D01*
X159089488Y-71696402D01*
X159087917Y-71811648D01*
X159089124Y-71951481D01*
X159092883Y-72105726D01*
X159098965Y-72264210D01*
X159107144Y-72416757D01*
X159117193Y-72553195D01*
X159125455Y-72635726D01*
X159146324Y-72783480D01*
X159169162Y-72880989D01*
X159195216Y-72933219D01*
X159201579Y-72939185D01*
X159256091Y-72957807D01*
X159353499Y-72968810D01*
X159482004Y-72972151D01*
X159629807Y-72967790D01*
X159785109Y-72955684D01*
X159898478Y-72941635D01*
X160012050Y-72926155D01*
X160114931Y-72914147D01*
X160185789Y-72908089D01*
X160188369Y-72907977D01*
X160271195Y-72904674D01*
X160271195Y-73235978D01*
X159603614Y-73243367D01*
X159415722Y-73244464D01*
X159247414Y-73243563D01*
X159106305Y-73240857D01*
X159000011Y-73236535D01*
X158936146Y-73230791D01*
X158920848Y-73226185D01*
X158914918Y-73190272D01*
X158908794Y-73105544D01*
X158902599Y-72978402D01*
X158896454Y-72815247D01*
X158890484Y-72622480D01*
X158884810Y-72406503D01*
X158879555Y-72173717D01*
X158874843Y-71930523D01*
X158870794Y-71683322D01*
X158867533Y-71438515D01*
X158865182Y-71202504D01*
X158863864Y-70981690D01*
X158863701Y-70782473D01*
X158864815Y-70611256D01*
X158867331Y-70474440D01*
X158867804Y-70458313D01*
X158885493Y-69889344D01*
X159181478Y-69873729D01*
X159342826Y-69868496D01*
X159529645Y-69867433D01*
X159712350Y-69870538D01*
G36*
X147373295Y-69834675D02*
G01*
X147479766Y-69856966D01*
X147604563Y-69888949D01*
X147733138Y-69926392D01*
X147850948Y-69965067D01*
X147943445Y-70000744D01*
X147995365Y-70028599D01*
X148018438Y-70070900D01*
X148021210Y-70150280D01*
X148016929Y-70194946D01*
X148005236Y-70275916D01*
X147993348Y-70331030D01*
X147987996Y-70343598D01*
X147960261Y-70336788D01*
X147906181Y-70304301D01*
X147883606Y-70288122D01*
X147750832Y-70210447D01*
X147593504Y-70151639D01*
X147426355Y-70114209D01*
X147264116Y-70100669D01*
X147121519Y-70113530D01*
X147033892Y-70143253D01*
X146923175Y-70228813D01*
X146850777Y-70344126D01*
X146821580Y-70476096D01*
X146840467Y-70611630D01*
X146849882Y-70636672D01*
X146910453Y-70739304D01*
X147016906Y-70868436D01*
X147167662Y-71022346D01*
X147361146Y-71199308D01*
X147377934Y-71213984D01*
X147608657Y-71419605D01*
X147797533Y-71599205D01*
X147948235Y-71758022D01*
X148064432Y-71901298D01*
X148149795Y-72034270D01*
X148207995Y-72162177D01*
X148242703Y-72290260D01*
X148257589Y-72423757D01*
X148258787Y-72471247D01*
X148244177Y-72663808D01*
X148195754Y-72823736D01*
X148110736Y-72953049D01*
X147986337Y-73053761D01*
X147819774Y-73127890D01*
X147608263Y-73177451D01*
X147349021Y-73204460D01*
X147239891Y-73209158D01*
X147095171Y-73211548D01*
X146961944Y-73210379D01*
X146854462Y-73205993D01*
X146786975Y-73198735D01*
X146784347Y-73198180D01*
X146595297Y-73128945D01*
X146432315Y-73013998D01*
X146299590Y-72858323D01*
X146201308Y-72666907D01*
X146141658Y-72444733D01*
X146139386Y-72430452D01*
X146121735Y-72315142D01*
X146270043Y-72230288D01*
X146353176Y-72185436D01*
X146419244Y-72154681D01*
X146449502Y-72145435D01*
X146468941Y-72171327D01*
X146479544Y-72242998D01*
X146480921Y-72290381D01*
X146505855Y-72475418D01*
X146576936Y-72634770D01*
X146689677Y-72762713D01*
X146839592Y-72853522D01*
X146950000Y-72888839D01*
X147128503Y-72913439D01*
X147323721Y-72913703D01*
X147518315Y-72891603D01*
X147694941Y-72849112D01*
X147836258Y-72788205D01*
X147836696Y-72787947D01*
X147927679Y-72704152D01*
X147979732Y-72588385D01*
X147991478Y-72449156D01*
X147961537Y-72294976D01*
X147929779Y-72213348D01*
X147892032Y-72155867D01*
X147817037Y-72064840D01*
X147708226Y-71944059D01*
X147569032Y-71797316D01*
X147402886Y-71628401D01*
X147375459Y-71600995D01*
X147169851Y-71393307D01*
X147002152Y-71217047D01*
X146868823Y-71067159D01*
X146766326Y-70938588D01*
X146691122Y-70826277D01*
X146639673Y-70725170D01*
X146608440Y-70630213D01*
X146593885Y-70536348D01*
X146591693Y-70481124D01*
X146607999Y-70330806D01*
X146662824Y-70198050D01*
X146762773Y-70068219D01*
X146791215Y-70038854D01*
X146946542Y-69920789D01*
X147126108Y-69848345D01*
X147299696Y-69826305D01*
X147373295Y-69834675D01*
G37*
X147373295Y-69834675D02*
X147479766Y-69856966D01*
X147604563Y-69888949D01*
X147733138Y-69926392D01*
X147850948Y-69965067D01*
X147943445Y-70000744D01*
X147995365Y-70028599D01*
X148018438Y-70070900D01*
X148021210Y-70150280D01*
X148016929Y-70194946D01*
X148005236Y-70275916D01*
X147993348Y-70331030D01*
X147987996Y-70343598D01*
X147960261Y-70336788D01*
X147906181Y-70304301D01*
X147883606Y-70288122D01*
X147750832Y-70210447D01*
X147593504Y-70151639D01*
X147426355Y-70114209D01*
X147264116Y-70100669D01*
X147121519Y-70113530D01*
X147033892Y-70143253D01*
X146923175Y-70228813D01*
X146850777Y-70344126D01*
X146821580Y-70476096D01*
X146840467Y-70611630D01*
X146849882Y-70636672D01*
X146910453Y-70739304D01*
X147016906Y-70868436D01*
X147167662Y-71022346D01*
X147361146Y-71199308D01*
X147377934Y-71213984D01*
X147608657Y-71419605D01*
X147797533Y-71599205D01*
X147948235Y-71758022D01*
X148064432Y-71901298D01*
X148149795Y-72034270D01*
X148207995Y-72162177D01*
X148242703Y-72290260D01*
X148257589Y-72423757D01*
X148258787Y-72471247D01*
X148244177Y-72663808D01*
X148195754Y-72823736D01*
X148110736Y-72953049D01*
X147986337Y-73053761D01*
X147819774Y-73127890D01*
X147608263Y-73177451D01*
X147349021Y-73204460D01*
X147239891Y-73209158D01*
X147095171Y-73211548D01*
X146961944Y-73210379D01*
X146854462Y-73205993D01*
X146786975Y-73198735D01*
X146784347Y-73198180D01*
X146595297Y-73128945D01*
X146432315Y-73013998D01*
X146299590Y-72858323D01*
X146201308Y-72666907D01*
X146141658Y-72444733D01*
X146139386Y-72430452D01*
X146121735Y-72315142D01*
X146270043Y-72230288D01*
X146353176Y-72185436D01*
X146419244Y-72154681D01*
X146449502Y-72145435D01*
X146468941Y-72171327D01*
X146479544Y-72242998D01*
X146480921Y-72290381D01*
X146505855Y-72475418D01*
X146576936Y-72634770D01*
X146689677Y-72762713D01*
X146839592Y-72853522D01*
X146950000Y-72888839D01*
X147128503Y-72913439D01*
X147323721Y-72913703D01*
X147518315Y-72891603D01*
X147694941Y-72849112D01*
X147836258Y-72788205D01*
X147836696Y-72787947D01*
X147927679Y-72704152D01*
X147979732Y-72588385D01*
X147991478Y-72449156D01*
X147961537Y-72294976D01*
X147929779Y-72213348D01*
X147892032Y-72155867D01*
X147817037Y-72064840D01*
X147708226Y-71944059D01*
X147569032Y-71797316D01*
X147402886Y-71628401D01*
X147375459Y-71600995D01*
X147169851Y-71393307D01*
X147002152Y-71217047D01*
X146868823Y-71067159D01*
X146766326Y-70938588D01*
X146691122Y-70826277D01*
X146639673Y-70725170D01*
X146608440Y-70630213D01*
X146593885Y-70536348D01*
X146591693Y-70481124D01*
X146607999Y-70330806D01*
X146662824Y-70198050D01*
X146762773Y-70068219D01*
X146791215Y-70038854D01*
X146946542Y-69920789D01*
X147126108Y-69848345D01*
X147299696Y-69826305D01*
X147373295Y-69834675D01*
G36*
X152035052Y-69644995D02*
G01*
X152055165Y-69753484D01*
X152084885Y-69817338D01*
X152131990Y-69847110D01*
X152188750Y-69853490D01*
X152241108Y-69862938D01*
X152247211Y-69883341D01*
X152211753Y-69904365D01*
X152161141Y-69914284D01*
X152110534Y-69922018D01*
X152081873Y-69942040D01*
X152066343Y-69988242D01*
X152055128Y-70074516D01*
X152054241Y-70082752D01*
X152040941Y-70178123D01*
X152026475Y-70240236D01*
X152013503Y-70263424D01*
X152004682Y-70242020D01*
X152002391Y-70193270D01*
X151994487Y-70061915D01*
X151968748Y-69976468D01*
X151922138Y-69929641D01*
X151887643Y-69917931D01*
X151822360Y-69897661D01*
X151793404Y-69874888D01*
X151806543Y-69857758D01*
X151842012Y-69853490D01*
X151906350Y-69845245D01*
X151947519Y-69814217D01*
X151973463Y-69749400D01*
X151991199Y-69646848D01*
X152013220Y-69481196D01*
X152035052Y-69644995D01*
G37*
X152035052Y-69644995D02*
X152055165Y-69753484D01*
X152084885Y-69817338D01*
X152131990Y-69847110D01*
X152188750Y-69853490D01*
X152241108Y-69862938D01*
X152247211Y-69883341D01*
X152211753Y-69904365D01*
X152161141Y-69914284D01*
X152110534Y-69922018D01*
X152081873Y-69942040D01*
X152066343Y-69988242D01*
X152055128Y-70074516D01*
X152054241Y-70082752D01*
X152040941Y-70178123D01*
X152026475Y-70240236D01*
X152013503Y-70263424D01*
X152004682Y-70242020D01*
X152002391Y-70193270D01*
X151994487Y-70061915D01*
X151968748Y-69976468D01*
X151922138Y-69929641D01*
X151887643Y-69917931D01*
X151822360Y-69897661D01*
X151793404Y-69874888D01*
X151806543Y-69857758D01*
X151842012Y-69853490D01*
X151906350Y-69845245D01*
X151947519Y-69814217D01*
X151973463Y-69749400D01*
X151991199Y-69646848D01*
X152013220Y-69481196D01*
X152035052Y-69644995D01*
D15*
X171316666Y-114316666D02*
X171316666Y-113983333D01*
X171516666Y-114383333D02*
X170816666Y-114150000D01*
X171516666Y-113916666D01*
X171150000Y-113683333D02*
X171150000Y-113450000D01*
X171516666Y-113350000D02*
X171516666Y-113683333D01*
X170816666Y-113683333D01*
X170816666Y-113350000D01*
X171516666Y-112683333D02*
X171516666Y-113083333D01*
X171516666Y-112883333D02*
X170816666Y-112883333D01*
X170916666Y-112950000D01*
X170983333Y-113016666D01*
X171016666Y-113083333D01*
D10*
X163971428Y-87210714D02*
X163685714Y-87410714D01*
X163971428Y-87553571D02*
X163371428Y-87553571D01*
X163371428Y-87325000D01*
X163400000Y-87267857D01*
X163428571Y-87239285D01*
X163485714Y-87210714D01*
X163571428Y-87210714D01*
X163628571Y-87239285D01*
X163657142Y-87267857D01*
X163685714Y-87325000D01*
X163685714Y-87553571D01*
X163371428Y-87010714D02*
X163371428Y-86639285D01*
X163600000Y-86839285D01*
X163600000Y-86753571D01*
X163628571Y-86696428D01*
X163657142Y-86667857D01*
X163714285Y-86639285D01*
X163857142Y-86639285D01*
X163914285Y-86667857D01*
X163942857Y-86696428D01*
X163971428Y-86753571D01*
X163971428Y-86925000D01*
X163942857Y-86982142D01*
X163914285Y-87010714D01*
X163571428Y-86125000D02*
X163971428Y-86125000D01*
X163342857Y-86267857D02*
X163771428Y-86410714D01*
X163771428Y-86039285D01*
D11*
X163891428Y-80450000D02*
X163605714Y-80650000D01*
X163891428Y-80792857D02*
X163291428Y-80792857D01*
X163291428Y-80564285D01*
X163320000Y-80507142D01*
X163348571Y-80478571D01*
X163405714Y-80450000D01*
X163491428Y-80450000D01*
X163548571Y-80478571D01*
X163577142Y-80507142D01*
X163605714Y-80564285D01*
X163605714Y-80792857D01*
X163891428Y-79878571D02*
X163891428Y-80221428D01*
X163891428Y-80050000D02*
X163291428Y-80050000D01*
X163377142Y-80107142D01*
X163434285Y-80164285D01*
X163462857Y-80221428D01*
X163871428Y-119200000D02*
X163871428Y-119485714D01*
X163271428Y-119485714D01*
X163328571Y-119028571D02*
X163300000Y-119000000D01*
X163271428Y-118942857D01*
X163271428Y-118800000D01*
X163300000Y-118742857D01*
X163328571Y-118714285D01*
X163385714Y-118685714D01*
X163442857Y-118685714D01*
X163528571Y-118714285D01*
X163871428Y-119057142D01*
X163871428Y-118685714D01*
X154671428Y-122700000D02*
X155100000Y-122700000D01*
X155185714Y-122728571D01*
X155242857Y-122785714D01*
X155271428Y-122871428D01*
X155271428Y-122928571D01*
X155271428Y-122100000D02*
X155271428Y-122442857D01*
X155271428Y-122271428D02*
X154671428Y-122271428D01*
X154757142Y-122328571D01*
X154814285Y-122385714D01*
X154842857Y-122442857D01*
X160800000Y-123914285D02*
X160771428Y-123942857D01*
X160685714Y-123971428D01*
X160628571Y-123971428D01*
X160542857Y-123942857D01*
X160485714Y-123885714D01*
X160457142Y-123828571D01*
X160428571Y-123714285D01*
X160428571Y-123628571D01*
X160457142Y-123514285D01*
X160485714Y-123457142D01*
X160542857Y-123400000D01*
X160628571Y-123371428D01*
X160685714Y-123371428D01*
X160771428Y-123400000D01*
X160800000Y-123428571D01*
X161000000Y-123371428D02*
X161400000Y-123371428D01*
X161142857Y-123971428D01*
X163100000Y-123814285D02*
X163071428Y-123842857D01*
X162985714Y-123871428D01*
X162928571Y-123871428D01*
X162842857Y-123842857D01*
X162785714Y-123785714D01*
X162757142Y-123728571D01*
X162728571Y-123614285D01*
X162728571Y-123528571D01*
X162757142Y-123414285D01*
X162785714Y-123357142D01*
X162842857Y-123300000D01*
X162928571Y-123271428D01*
X162985714Y-123271428D01*
X163071428Y-123300000D01*
X163100000Y-123328571D01*
X163614285Y-123271428D02*
X163500000Y-123271428D01*
X163442857Y-123300000D01*
X163414285Y-123328571D01*
X163357142Y-123414285D01*
X163328571Y-123528571D01*
X163328571Y-123757142D01*
X163357142Y-123814285D01*
X163385714Y-123842857D01*
X163442857Y-123871428D01*
X163557142Y-123871428D01*
X163614285Y-123842857D01*
X163642857Y-123814285D01*
X163671428Y-123757142D01*
X163671428Y-123614285D01*
X163642857Y-123557142D01*
X163614285Y-123528571D01*
X163557142Y-123500000D01*
X163442857Y-123500000D01*
X163385714Y-123528571D01*
X163357142Y-123557142D01*
X163328571Y-123614285D01*
D10*
X150730812Y-121602233D02*
X150730812Y-121642639D01*
X150690406Y-121723451D01*
X150649999Y-121763857D01*
X150569187Y-121804264D01*
X150488375Y-121804264D01*
X150427766Y-121784061D01*
X150326751Y-121723451D01*
X150266142Y-121662842D01*
X150205532Y-121561827D01*
X150185329Y-121501218D01*
X150185329Y-121420406D01*
X150225735Y-121339593D01*
X150266142Y-121299187D01*
X150346954Y-121258781D01*
X150387360Y-121258781D01*
X150852030Y-120996142D02*
X151134873Y-121278984D01*
X150589390Y-120935532D02*
X150791421Y-121339593D01*
X151054061Y-121076954D01*
X149090812Y-120092233D02*
X149090812Y-120132639D01*
X149050406Y-120213451D01*
X149009999Y-120253857D01*
X148929187Y-120294264D01*
X148848375Y-120294264D01*
X148787766Y-120274061D01*
X148686751Y-120213451D01*
X148626142Y-120152842D01*
X148565532Y-120051827D01*
X148545329Y-119991218D01*
X148545329Y-119910406D01*
X148585735Y-119829593D01*
X148626142Y-119789187D01*
X148706954Y-119748781D01*
X148747360Y-119748781D01*
X149090812Y-119324517D02*
X148888781Y-119526548D01*
X149070609Y-119748781D01*
X149070609Y-119708375D01*
X149090812Y-119647766D01*
X149191827Y-119546751D01*
X149252436Y-119526548D01*
X149292842Y-119526548D01*
X149353451Y-119546751D01*
X149454467Y-119647766D01*
X149474670Y-119708375D01*
X149474670Y-119748781D01*
X149454467Y-119809390D01*
X149353451Y-119910406D01*
X149292842Y-119930609D01*
X149252436Y-119930609D01*
X149864285Y-78464285D02*
X149835714Y-78492857D01*
X149750000Y-78521428D01*
X149692857Y-78521428D01*
X149607142Y-78492857D01*
X149550000Y-78435714D01*
X149521428Y-78378571D01*
X149492857Y-78264285D01*
X149492857Y-78178571D01*
X149521428Y-78064285D01*
X149550000Y-78007142D01*
X149607142Y-77950000D01*
X149692857Y-77921428D01*
X149750000Y-77921428D01*
X149835714Y-77950000D01*
X149864285Y-77978571D01*
X150378571Y-78121428D02*
X150378571Y-78521428D01*
X150235714Y-77892857D02*
X150092857Y-78321428D01*
X150464285Y-78321428D01*
X150950000Y-78121428D02*
X150950000Y-78521428D01*
X150807142Y-77892857D02*
X150664285Y-78321428D01*
X151035714Y-78321428D01*
X149864285Y-88214285D02*
X149835714Y-88242857D01*
X149750000Y-88271428D01*
X149692857Y-88271428D01*
X149607142Y-88242857D01*
X149550000Y-88185714D01*
X149521428Y-88128571D01*
X149492857Y-88014285D01*
X149492857Y-87928571D01*
X149521428Y-87814285D01*
X149550000Y-87757142D01*
X149607142Y-87700000D01*
X149692857Y-87671428D01*
X149750000Y-87671428D01*
X149835714Y-87700000D01*
X149864285Y-87728571D01*
X150378571Y-87871428D02*
X150378571Y-88271428D01*
X150235714Y-87642857D02*
X150092857Y-88071428D01*
X150464285Y-88071428D01*
X150978571Y-87671428D02*
X150692857Y-87671428D01*
X150664285Y-87957142D01*
X150692857Y-87928571D01*
X150750000Y-87900000D01*
X150892857Y-87900000D01*
X150950000Y-87928571D01*
X150978571Y-87957142D01*
X151007142Y-88014285D01*
X151007142Y-88157142D01*
X150978571Y-88214285D01*
X150950000Y-88242857D01*
X150892857Y-88271428D01*
X150750000Y-88271428D01*
X150692857Y-88242857D01*
X150664285Y-88214285D01*
X149708781Y-121195076D02*
X149284517Y-120770812D01*
X149385532Y-120669796D01*
X149466345Y-120629390D01*
X149547157Y-120629390D01*
X149607766Y-120649593D01*
X149708781Y-120710203D01*
X149769390Y-120770812D01*
X149830000Y-120871827D01*
X149850203Y-120932436D01*
X149850203Y-121013248D01*
X149809796Y-121094061D01*
X149708781Y-121195076D01*
X150032030Y-120306142D02*
X150314873Y-120588984D01*
X149769390Y-120245532D02*
X149971421Y-120649593D01*
X150234061Y-120386954D01*
X125849142Y-85047142D02*
X125649142Y-85047142D01*
X125649142Y-85361428D02*
X125649142Y-84761428D01*
X125934857Y-84761428D01*
X126163428Y-85361428D02*
X126163428Y-84761428D01*
X126449142Y-85361428D02*
X126449142Y-84761428D01*
X126592000Y-84761428D01*
X126677714Y-84790000D01*
X126734857Y-84847142D01*
X126763428Y-84904285D01*
X126792000Y-85018571D01*
X126792000Y-85104285D01*
X126763428Y-85218571D01*
X126734857Y-85275714D01*
X126677714Y-85332857D01*
X126592000Y-85361428D01*
X126449142Y-85361428D01*
X127363428Y-85361428D02*
X127020571Y-85361428D01*
X127192000Y-85361428D02*
X127192000Y-84761428D01*
X127134857Y-84847142D01*
X127077714Y-84904285D01*
X127020571Y-84932857D01*
X174283142Y-75957142D02*
X174083142Y-75957142D01*
X174083142Y-76271428D02*
X174083142Y-75671428D01*
X174368857Y-75671428D01*
X174597428Y-76271428D02*
X174597428Y-75671428D01*
X174883142Y-76271428D02*
X174883142Y-75671428D01*
X175026000Y-75671428D01*
X175111714Y-75700000D01*
X175168857Y-75757142D01*
X175197428Y-75814285D01*
X175226000Y-75928571D01*
X175226000Y-76014285D01*
X175197428Y-76128571D01*
X175168857Y-76185714D01*
X175111714Y-76242857D01*
X175026000Y-76271428D01*
X174883142Y-76271428D01*
X175454571Y-75728571D02*
X175483142Y-75700000D01*
X175540285Y-75671428D01*
X175683142Y-75671428D01*
X175740285Y-75700000D01*
X175768857Y-75728571D01*
X175797428Y-75785714D01*
X175797428Y-75842857D01*
X175768857Y-75928571D01*
X175426000Y-76271428D01*
X175797428Y-76271428D01*
X168357142Y-137157142D02*
X168157142Y-137157142D01*
X168157142Y-137471428D02*
X168157142Y-136871428D01*
X168442857Y-136871428D01*
X168671428Y-137471428D02*
X168671428Y-136871428D01*
X168957142Y-137471428D02*
X168957142Y-136871428D01*
X169100000Y-136871428D01*
X169185714Y-136900000D01*
X169242857Y-136957142D01*
X169271428Y-137014285D01*
X169300000Y-137128571D01*
X169300000Y-137214285D01*
X169271428Y-137328571D01*
X169242857Y-137385714D01*
X169185714Y-137442857D01*
X169100000Y-137471428D01*
X168957142Y-137471428D01*
X169500000Y-136871428D02*
X169871428Y-136871428D01*
X169671428Y-137100000D01*
X169757142Y-137100000D01*
X169814285Y-137128571D01*
X169842857Y-137157142D01*
X169871428Y-137214285D01*
X169871428Y-137357142D01*
X169842857Y-137414285D01*
X169814285Y-137442857D01*
X169757142Y-137471428D01*
X169585714Y-137471428D01*
X169528571Y-137442857D01*
X169500000Y-137414285D01*
X129625000Y-86646428D02*
X129625000Y-87075000D01*
X129596428Y-87160714D01*
X129539285Y-87217857D01*
X129453571Y-87246428D01*
X129396428Y-87246428D01*
X129882142Y-86703571D02*
X129910714Y-86675000D01*
X129967857Y-86646428D01*
X130110714Y-86646428D01*
X130167857Y-86675000D01*
X130196428Y-86703571D01*
X130225000Y-86760714D01*
X130225000Y-86817857D01*
X130196428Y-86903571D01*
X129853571Y-87246428D01*
X130225000Y-87246428D01*
X134671428Y-76300000D02*
X135100000Y-76300000D01*
X135185714Y-76328571D01*
X135242857Y-76385714D01*
X135271428Y-76471428D01*
X135271428Y-76528571D01*
X134671428Y-76071428D02*
X134671428Y-75671428D01*
X135271428Y-75928571D01*
X136214285Y-77871428D02*
X136014285Y-77585714D01*
X135871428Y-77871428D02*
X135871428Y-77271428D01*
X136100000Y-77271428D01*
X136157142Y-77300000D01*
X136185714Y-77328571D01*
X136214285Y-77385714D01*
X136214285Y-77471428D01*
X136185714Y-77528571D01*
X136157142Y-77557142D01*
X136100000Y-77585714D01*
X135871428Y-77585714D01*
X136414285Y-77271428D02*
X136785714Y-77271428D01*
X136585714Y-77500000D01*
X136671428Y-77500000D01*
X136728571Y-77528571D01*
X136757142Y-77557142D01*
X136785714Y-77614285D01*
X136785714Y-77757142D01*
X136757142Y-77814285D01*
X136728571Y-77842857D01*
X136671428Y-77871428D01*
X136500000Y-77871428D01*
X136442857Y-77842857D01*
X136414285Y-77814285D01*
X137357142Y-77871428D02*
X137014285Y-77871428D01*
X137185714Y-77871428D02*
X137185714Y-77271428D01*
X137128571Y-77357142D01*
X137071428Y-77414285D01*
X137014285Y-77442857D01*
X136214285Y-70421428D02*
X136014285Y-70135714D01*
X135871428Y-70421428D02*
X135871428Y-69821428D01*
X136100000Y-69821428D01*
X136157142Y-69850000D01*
X136185714Y-69878571D01*
X136214285Y-69935714D01*
X136214285Y-70021428D01*
X136185714Y-70078571D01*
X136157142Y-70107142D01*
X136100000Y-70135714D01*
X135871428Y-70135714D01*
X136414285Y-69821428D02*
X136785714Y-69821428D01*
X136585714Y-70050000D01*
X136671428Y-70050000D01*
X136728571Y-70078571D01*
X136757142Y-70107142D01*
X136785714Y-70164285D01*
X136785714Y-70307142D01*
X136757142Y-70364285D01*
X136728571Y-70392857D01*
X136671428Y-70421428D01*
X136500000Y-70421428D01*
X136442857Y-70392857D01*
X136414285Y-70364285D01*
X137014285Y-69878571D02*
X137042857Y-69850000D01*
X137100000Y-69821428D01*
X137242857Y-69821428D01*
X137300000Y-69850000D01*
X137328571Y-69878571D01*
X137357142Y-69935714D01*
X137357142Y-69992857D01*
X137328571Y-70078571D01*
X136985714Y-70421428D01*
X137357142Y-70421428D01*
X136214285Y-80921428D02*
X136014285Y-80635714D01*
X135871428Y-80921428D02*
X135871428Y-80321428D01*
X136100000Y-80321428D01*
X136157142Y-80350000D01*
X136185714Y-80378571D01*
X136214285Y-80435714D01*
X136214285Y-80521428D01*
X136185714Y-80578571D01*
X136157142Y-80607142D01*
X136100000Y-80635714D01*
X135871428Y-80635714D01*
X136414285Y-80321428D02*
X136785714Y-80321428D01*
X136585714Y-80550000D01*
X136671428Y-80550000D01*
X136728571Y-80578571D01*
X136757142Y-80607142D01*
X136785714Y-80664285D01*
X136785714Y-80807142D01*
X136757142Y-80864285D01*
X136728571Y-80892857D01*
X136671428Y-80921428D01*
X136500000Y-80921428D01*
X136442857Y-80892857D01*
X136414285Y-80864285D01*
X136985714Y-80321428D02*
X137357142Y-80321428D01*
X137157142Y-80550000D01*
X137242857Y-80550000D01*
X137300000Y-80578571D01*
X137328571Y-80607142D01*
X137357142Y-80664285D01*
X137357142Y-80807142D01*
X137328571Y-80864285D01*
X137300000Y-80892857D01*
X137242857Y-80921428D01*
X137071428Y-80921428D01*
X137014285Y-80892857D01*
X136985714Y-80864285D01*
X150946428Y-84092857D02*
X151432142Y-84092857D01*
X151489285Y-84064285D01*
X151517857Y-84035714D01*
X151546428Y-83978571D01*
X151546428Y-83864285D01*
X151517857Y-83807142D01*
X151489285Y-83778571D01*
X151432142Y-83750000D01*
X150946428Y-83750000D01*
X151546428Y-83150000D02*
X151546428Y-83492857D01*
X151546428Y-83321428D02*
X150946428Y-83321428D01*
X151032142Y-83378571D01*
X151089285Y-83435714D01*
X151117857Y-83492857D01*
X151546428Y-82578571D02*
X151546428Y-82921428D01*
X151546428Y-82750000D02*
X150946428Y-82750000D01*
X151032142Y-82807142D01*
X151089285Y-82864285D01*
X151117857Y-82921428D01*
X161871428Y-119200000D02*
X161871428Y-119485714D01*
X161271428Y-119485714D01*
X161271428Y-119057142D02*
X161271428Y-118685714D01*
X161500000Y-118885714D01*
X161500000Y-118800000D01*
X161528571Y-118742857D01*
X161557142Y-118714285D01*
X161614285Y-118685714D01*
X161757142Y-118685714D01*
X161814285Y-118714285D01*
X161842857Y-118742857D01*
X161871428Y-118800000D01*
X161871428Y-118971428D01*
X161842857Y-119028571D01*
X161814285Y-119057142D01*
X166150000Y-122771428D02*
X165864285Y-122771428D01*
X165864285Y-122171428D01*
X166607142Y-122371428D02*
X166607142Y-122771428D01*
X166464285Y-122142857D02*
X166321428Y-122571428D01*
X166692857Y-122571428D01*
M02*
