G04 #@! TF.GenerationSoftware,KiCad,Pcbnew,5.1.6+dfsg1-1~bpo10+1*
G04 #@! TF.CreationDate,2021-06-19T16:41:40-04:00*
G04 #@! TF.ProjectId,RUSP_Daughterboard,52555350-5f44-4617-9567-68746572626f,rev?*
G04 #@! TF.SameCoordinates,Original*
G04 #@! TF.FileFunction,Other,Fab,Bot*
%FSLAX46Y46*%
G04 Gerber Fmt 4.6, Leading zero omitted, Abs format (unit mm)*
G04 Created by KiCad (PCBNEW 5.1.6+dfsg1-1~bpo10+1) date 2021-06-19 16:41:40*
%MOMM*%
%LPD*%
G01*
G04 APERTURE LIST*
%ADD10C,0.100000*%
%ADD11C,0.150000*%
%ADD12C,0.040000*%
%ADD13C,0.050000*%
G04 APERTURE END LIST*
D10*
X125300000Y-96450000D02*
X125300000Y-95950000D01*
X125300000Y-95950000D02*
X124300000Y-95950000D01*
X124300000Y-95950000D02*
X124300000Y-96450000D01*
X124300000Y-96450000D02*
X125300000Y-96450000D01*
X125525000Y-114600000D02*
X125525000Y-114100000D01*
X125525000Y-114100000D02*
X124525000Y-114100000D01*
X124525000Y-114100000D02*
X124525000Y-114600000D01*
X124525000Y-114600000D02*
X125525000Y-114600000D01*
X124690000Y-107500000D02*
X125690000Y-107500000D01*
X124690000Y-107000000D02*
X124690000Y-107500000D01*
X125690000Y-107000000D02*
X124690000Y-107000000D01*
X125690000Y-107500000D02*
X125690000Y-107000000D01*
X125300000Y-95050000D02*
X125300000Y-94550000D01*
X125300000Y-94550000D02*
X124300000Y-94550000D01*
X124300000Y-94550000D02*
X124300000Y-95050000D01*
X124300000Y-95050000D02*
X125300000Y-95050000D01*
X124515000Y-113275000D02*
X125515000Y-113275000D01*
X124515000Y-112775000D02*
X124515000Y-113275000D01*
X125515000Y-112775000D02*
X124515000Y-112775000D01*
X125515000Y-113275000D02*
X125515000Y-112775000D01*
X125600000Y-108725000D02*
X125600000Y-108225000D01*
X125600000Y-108225000D02*
X124600000Y-108225000D01*
X124600000Y-108225000D02*
X124600000Y-108725000D01*
X124600000Y-108725000D02*
X125600000Y-108725000D01*
X127250000Y-86500000D02*
G75*
G03*
X127250000Y-86500000I-750000J0D01*
G01*
X175750000Y-74500000D02*
G75*
G03*
X175750000Y-74500000I-750000J0D01*
G01*
X171750000Y-137000000D02*
G75*
G03*
X171750000Y-137000000I-750000J0D01*
G01*
D11*
X159450000Y-129000000D02*
X166950000Y-129000000D01*
X166950000Y-129000000D02*
X166950000Y-126000000D01*
X166950000Y-126000000D02*
X159450000Y-126000000D01*
X159450000Y-126000000D02*
X159450000Y-129000000D01*
X159450000Y-133700000D02*
X159450000Y-136700000D01*
X166950000Y-133700000D02*
X159450000Y-133700000D01*
X166950000Y-136700000D02*
X166950000Y-133700000D01*
X159450000Y-136700000D02*
X166950000Y-136700000D01*
D10*
X125000000Y-100050000D02*
X125000000Y-100550000D01*
X125400000Y-100050000D02*
X125000000Y-99450000D01*
X124600000Y-100050000D02*
X125400000Y-100050000D01*
X125000000Y-99450000D02*
X124600000Y-100050000D01*
X125000000Y-99450000D02*
X125550000Y-99450000D01*
X125000000Y-99450000D02*
X124450000Y-99450000D01*
X125000000Y-99050000D02*
X125000000Y-99450000D01*
X125900000Y-98400000D02*
X124100000Y-98400000D01*
X125900000Y-101200000D02*
X125900000Y-98400000D01*
X124100000Y-101200000D02*
X125900000Y-101200000D01*
X124100000Y-98400000D02*
X124100000Y-101200000D01*
X142600000Y-110200000D02*
X142600000Y-107400000D01*
X142600000Y-107400000D02*
X140800000Y-107400000D01*
X140800000Y-107400000D02*
X140800000Y-110200000D01*
X140800000Y-110200000D02*
X142600000Y-110200000D01*
X141700000Y-109550000D02*
X141700000Y-109150000D01*
X141700000Y-109150000D02*
X142250000Y-109150000D01*
X141700000Y-109150000D02*
X141150000Y-109150000D01*
X141700000Y-109150000D02*
X142100000Y-108550000D01*
X142100000Y-108550000D02*
X141300000Y-108550000D01*
X141300000Y-108550000D02*
X141700000Y-109150000D01*
X141700000Y-108550000D02*
X141700000Y-108050000D01*
D11*
X127871428Y-97155714D02*
X127871428Y-97822380D01*
X128109523Y-96774761D02*
X128347619Y-97489047D01*
X127728571Y-97489047D01*
X127442857Y-96822380D02*
X126776190Y-96822380D01*
X127204761Y-97822380D01*
X126395238Y-97155714D02*
X126395238Y-98155714D01*
X126395238Y-97203333D02*
X126300000Y-97155714D01*
X126109523Y-97155714D01*
X126014285Y-97203333D01*
X125966666Y-97250952D01*
X125919047Y-97346190D01*
X125919047Y-97631904D01*
X125966666Y-97727142D01*
X126014285Y-97774761D01*
X126109523Y-97822380D01*
X126300000Y-97822380D01*
X126395238Y-97774761D01*
X125157142Y-97298571D02*
X125490476Y-97298571D01*
X125490476Y-97822380D02*
X125490476Y-96822380D01*
X125014285Y-96822380D01*
X123919047Y-96774761D02*
X124776190Y-98060476D01*
X123109523Y-96822380D02*
X123585714Y-96822380D01*
X123633333Y-97298571D01*
X123585714Y-97250952D01*
X123490476Y-97203333D01*
X123252380Y-97203333D01*
X123157142Y-97250952D01*
X123109523Y-97298571D01*
X123061904Y-97393809D01*
X123061904Y-97631904D01*
X123109523Y-97727142D01*
X123157142Y-97774761D01*
X123252380Y-97822380D01*
X123490476Y-97822380D01*
X123585714Y-97774761D01*
X123633333Y-97727142D01*
X122442857Y-96822380D02*
X122347619Y-96822380D01*
X122252380Y-96870000D01*
X122204761Y-96917619D01*
X122157142Y-97012857D01*
X122109523Y-97203333D01*
X122109523Y-97441428D01*
X122157142Y-97631904D01*
X122204761Y-97727142D01*
X122252380Y-97774761D01*
X122347619Y-97822380D01*
X122442857Y-97822380D01*
X122538095Y-97774761D01*
X122585714Y-97727142D01*
X122633333Y-97631904D01*
X122680952Y-97441428D01*
X122680952Y-97203333D01*
X122633333Y-97012857D01*
X122585714Y-96917619D01*
X122538095Y-96870000D01*
X122442857Y-96822380D01*
X121823809Y-96822380D02*
X121490476Y-97822380D01*
X121157142Y-96822380D01*
D12*
X124841666Y-96289285D02*
X124853571Y-96301190D01*
X124889285Y-96313095D01*
X124913095Y-96313095D01*
X124948809Y-96301190D01*
X124972619Y-96277380D01*
X124984523Y-96253571D01*
X124996428Y-96205952D01*
X124996428Y-96170238D01*
X124984523Y-96122619D01*
X124972619Y-96098809D01*
X124948809Y-96075000D01*
X124913095Y-96063095D01*
X124889285Y-96063095D01*
X124853571Y-96075000D01*
X124841666Y-96086904D01*
X124603571Y-96313095D02*
X124746428Y-96313095D01*
X124675000Y-96313095D02*
X124675000Y-96063095D01*
X124698809Y-96098809D01*
X124722619Y-96122619D01*
X124746428Y-96134523D01*
D11*
X128096428Y-115305714D02*
X128096428Y-115972380D01*
X128334523Y-114924761D02*
X128572619Y-115639047D01*
X127953571Y-115639047D01*
X127667857Y-114972380D02*
X127001190Y-114972380D01*
X127429761Y-115972380D01*
X126620238Y-115305714D02*
X126620238Y-116305714D01*
X126620238Y-115353333D02*
X126525000Y-115305714D01*
X126334523Y-115305714D01*
X126239285Y-115353333D01*
X126191666Y-115400952D01*
X126144047Y-115496190D01*
X126144047Y-115781904D01*
X126191666Y-115877142D01*
X126239285Y-115924761D01*
X126334523Y-115972380D01*
X126525000Y-115972380D01*
X126620238Y-115924761D01*
X125382142Y-115448571D02*
X125715476Y-115448571D01*
X125715476Y-115972380D02*
X125715476Y-114972380D01*
X125239285Y-114972380D01*
X124144047Y-114924761D02*
X125001190Y-116210476D01*
X123334523Y-114972380D02*
X123810714Y-114972380D01*
X123858333Y-115448571D01*
X123810714Y-115400952D01*
X123715476Y-115353333D01*
X123477380Y-115353333D01*
X123382142Y-115400952D01*
X123334523Y-115448571D01*
X123286904Y-115543809D01*
X123286904Y-115781904D01*
X123334523Y-115877142D01*
X123382142Y-115924761D01*
X123477380Y-115972380D01*
X123715476Y-115972380D01*
X123810714Y-115924761D01*
X123858333Y-115877142D01*
X122667857Y-114972380D02*
X122572619Y-114972380D01*
X122477380Y-115020000D01*
X122429761Y-115067619D01*
X122382142Y-115162857D01*
X122334523Y-115353333D01*
X122334523Y-115591428D01*
X122382142Y-115781904D01*
X122429761Y-115877142D01*
X122477380Y-115924761D01*
X122572619Y-115972380D01*
X122667857Y-115972380D01*
X122763095Y-115924761D01*
X122810714Y-115877142D01*
X122858333Y-115781904D01*
X122905952Y-115591428D01*
X122905952Y-115353333D01*
X122858333Y-115162857D01*
X122810714Y-115067619D01*
X122763095Y-115020000D01*
X122667857Y-114972380D01*
X122048809Y-114972380D02*
X121715476Y-115972380D01*
X121382142Y-114972380D01*
D12*
X125066666Y-114439285D02*
X125078571Y-114451190D01*
X125114285Y-114463095D01*
X125138095Y-114463095D01*
X125173809Y-114451190D01*
X125197619Y-114427380D01*
X125209523Y-114403571D01*
X125221428Y-114355952D01*
X125221428Y-114320238D01*
X125209523Y-114272619D01*
X125197619Y-114248809D01*
X125173809Y-114225000D01*
X125138095Y-114213095D01*
X125114285Y-114213095D01*
X125078571Y-114225000D01*
X125066666Y-114236904D01*
X124971428Y-114236904D02*
X124959523Y-114225000D01*
X124935714Y-114213095D01*
X124876190Y-114213095D01*
X124852380Y-114225000D01*
X124840476Y-114236904D01*
X124828571Y-114260714D01*
X124828571Y-114284523D01*
X124840476Y-114320238D01*
X124983333Y-114463095D01*
X124828571Y-114463095D01*
D11*
X128261428Y-108205714D02*
X128261428Y-108872380D01*
X128499523Y-107824761D02*
X128737619Y-108539047D01*
X128118571Y-108539047D01*
X127832857Y-107872380D02*
X127166190Y-107872380D01*
X127594761Y-108872380D01*
X126785238Y-108205714D02*
X126785238Y-109205714D01*
X126785238Y-108253333D02*
X126690000Y-108205714D01*
X126499523Y-108205714D01*
X126404285Y-108253333D01*
X126356666Y-108300952D01*
X126309047Y-108396190D01*
X126309047Y-108681904D01*
X126356666Y-108777142D01*
X126404285Y-108824761D01*
X126499523Y-108872380D01*
X126690000Y-108872380D01*
X126785238Y-108824761D01*
X125547142Y-108348571D02*
X125880476Y-108348571D01*
X125880476Y-108872380D02*
X125880476Y-107872380D01*
X125404285Y-107872380D01*
X124309047Y-107824761D02*
X125166190Y-109110476D01*
X123499523Y-107872380D02*
X123975714Y-107872380D01*
X124023333Y-108348571D01*
X123975714Y-108300952D01*
X123880476Y-108253333D01*
X123642380Y-108253333D01*
X123547142Y-108300952D01*
X123499523Y-108348571D01*
X123451904Y-108443809D01*
X123451904Y-108681904D01*
X123499523Y-108777142D01*
X123547142Y-108824761D01*
X123642380Y-108872380D01*
X123880476Y-108872380D01*
X123975714Y-108824761D01*
X124023333Y-108777142D01*
X122832857Y-107872380D02*
X122737619Y-107872380D01*
X122642380Y-107920000D01*
X122594761Y-107967619D01*
X122547142Y-108062857D01*
X122499523Y-108253333D01*
X122499523Y-108491428D01*
X122547142Y-108681904D01*
X122594761Y-108777142D01*
X122642380Y-108824761D01*
X122737619Y-108872380D01*
X122832857Y-108872380D01*
X122928095Y-108824761D01*
X122975714Y-108777142D01*
X123023333Y-108681904D01*
X123070952Y-108491428D01*
X123070952Y-108253333D01*
X123023333Y-108062857D01*
X122975714Y-107967619D01*
X122928095Y-107920000D01*
X122832857Y-107872380D01*
X122213809Y-107872380D02*
X121880476Y-108872380D01*
X121547142Y-107872380D01*
D12*
X125231666Y-107339285D02*
X125243571Y-107351190D01*
X125279285Y-107363095D01*
X125303095Y-107363095D01*
X125338809Y-107351190D01*
X125362619Y-107327380D01*
X125374523Y-107303571D01*
X125386428Y-107255952D01*
X125386428Y-107220238D01*
X125374523Y-107172619D01*
X125362619Y-107148809D01*
X125338809Y-107125000D01*
X125303095Y-107113095D01*
X125279285Y-107113095D01*
X125243571Y-107125000D01*
X125231666Y-107136904D01*
X125148333Y-107113095D02*
X124993571Y-107113095D01*
X125076904Y-107208333D01*
X125041190Y-107208333D01*
X125017380Y-107220238D01*
X125005476Y-107232142D01*
X124993571Y-107255952D01*
X124993571Y-107315476D01*
X125005476Y-107339285D01*
X125017380Y-107351190D01*
X125041190Y-107363095D01*
X125112619Y-107363095D01*
X125136428Y-107351190D01*
X125148333Y-107339285D01*
D11*
X126728571Y-96422380D02*
X126728571Y-95422380D01*
X126490476Y-95422380D01*
X126347619Y-95470000D01*
X126252380Y-95565238D01*
X126204761Y-95660476D01*
X126157142Y-95850952D01*
X126157142Y-95993809D01*
X126204761Y-96184285D01*
X126252380Y-96279523D01*
X126347619Y-96374761D01*
X126490476Y-96422380D01*
X126728571Y-96422380D01*
X125966666Y-96517619D02*
X125204761Y-96517619D01*
X125109523Y-95422380D02*
X124538095Y-95422380D01*
X124823809Y-96422380D02*
X124823809Y-95422380D01*
X124347619Y-95422380D02*
X124014285Y-96422380D01*
X123680952Y-95422380D01*
X123395238Y-96374761D02*
X123252380Y-96422380D01*
X123014285Y-96422380D01*
X122919047Y-96374761D01*
X122871428Y-96327142D01*
X122823809Y-96231904D01*
X122823809Y-96136666D01*
X122871428Y-96041428D01*
X122919047Y-95993809D01*
X123014285Y-95946190D01*
X123204761Y-95898571D01*
X123300000Y-95850952D01*
X123347619Y-95803333D01*
X123395238Y-95708095D01*
X123395238Y-95612857D01*
X123347619Y-95517619D01*
X123300000Y-95470000D01*
X123204761Y-95422380D01*
X122966666Y-95422380D01*
X122823809Y-95470000D01*
D12*
X124984523Y-94913095D02*
X124984523Y-94663095D01*
X124925000Y-94663095D01*
X124889285Y-94675000D01*
X124865476Y-94698809D01*
X124853571Y-94722619D01*
X124841666Y-94770238D01*
X124841666Y-94805952D01*
X124853571Y-94853571D01*
X124865476Y-94877380D01*
X124889285Y-94901190D01*
X124925000Y-94913095D01*
X124984523Y-94913095D01*
X124603571Y-94913095D02*
X124746428Y-94913095D01*
X124675000Y-94913095D02*
X124675000Y-94663095D01*
X124698809Y-94698809D01*
X124722619Y-94722619D01*
X124746428Y-94734523D01*
D11*
X126943571Y-114647380D02*
X126943571Y-113647380D01*
X126705476Y-113647380D01*
X126562619Y-113695000D01*
X126467380Y-113790238D01*
X126419761Y-113885476D01*
X126372142Y-114075952D01*
X126372142Y-114218809D01*
X126419761Y-114409285D01*
X126467380Y-114504523D01*
X126562619Y-114599761D01*
X126705476Y-114647380D01*
X126943571Y-114647380D01*
X126181666Y-114742619D02*
X125419761Y-114742619D01*
X125324523Y-113647380D02*
X124753095Y-113647380D01*
X125038809Y-114647380D02*
X125038809Y-113647380D01*
X124562619Y-113647380D02*
X124229285Y-114647380D01*
X123895952Y-113647380D01*
X123610238Y-114599761D02*
X123467380Y-114647380D01*
X123229285Y-114647380D01*
X123134047Y-114599761D01*
X123086428Y-114552142D01*
X123038809Y-114456904D01*
X123038809Y-114361666D01*
X123086428Y-114266428D01*
X123134047Y-114218809D01*
X123229285Y-114171190D01*
X123419761Y-114123571D01*
X123515000Y-114075952D01*
X123562619Y-114028333D01*
X123610238Y-113933095D01*
X123610238Y-113837857D01*
X123562619Y-113742619D01*
X123515000Y-113695000D01*
X123419761Y-113647380D01*
X123181666Y-113647380D01*
X123038809Y-113695000D01*
D12*
X125199523Y-113138095D02*
X125199523Y-112888095D01*
X125140000Y-112888095D01*
X125104285Y-112900000D01*
X125080476Y-112923809D01*
X125068571Y-112947619D01*
X125056666Y-112995238D01*
X125056666Y-113030952D01*
X125068571Y-113078571D01*
X125080476Y-113102380D01*
X125104285Y-113126190D01*
X125140000Y-113138095D01*
X125199523Y-113138095D01*
X124961428Y-112911904D02*
X124949523Y-112900000D01*
X124925714Y-112888095D01*
X124866190Y-112888095D01*
X124842380Y-112900000D01*
X124830476Y-112911904D01*
X124818571Y-112935714D01*
X124818571Y-112959523D01*
X124830476Y-112995238D01*
X124973333Y-113138095D01*
X124818571Y-113138095D01*
D11*
X127028571Y-110097380D02*
X127028571Y-109097380D01*
X126790476Y-109097380D01*
X126647619Y-109145000D01*
X126552380Y-109240238D01*
X126504761Y-109335476D01*
X126457142Y-109525952D01*
X126457142Y-109668809D01*
X126504761Y-109859285D01*
X126552380Y-109954523D01*
X126647619Y-110049761D01*
X126790476Y-110097380D01*
X127028571Y-110097380D01*
X126266666Y-110192619D02*
X125504761Y-110192619D01*
X125409523Y-109097380D02*
X124838095Y-109097380D01*
X125123809Y-110097380D02*
X125123809Y-109097380D01*
X124647619Y-109097380D02*
X124314285Y-110097380D01*
X123980952Y-109097380D01*
X123695238Y-110049761D02*
X123552380Y-110097380D01*
X123314285Y-110097380D01*
X123219047Y-110049761D01*
X123171428Y-110002142D01*
X123123809Y-109906904D01*
X123123809Y-109811666D01*
X123171428Y-109716428D01*
X123219047Y-109668809D01*
X123314285Y-109621190D01*
X123504761Y-109573571D01*
X123600000Y-109525952D01*
X123647619Y-109478333D01*
X123695238Y-109383095D01*
X123695238Y-109287857D01*
X123647619Y-109192619D01*
X123600000Y-109145000D01*
X123504761Y-109097380D01*
X123266666Y-109097380D01*
X123123809Y-109145000D01*
D12*
X125284523Y-108588095D02*
X125284523Y-108338095D01*
X125225000Y-108338095D01*
X125189285Y-108350000D01*
X125165476Y-108373809D01*
X125153571Y-108397619D01*
X125141666Y-108445238D01*
X125141666Y-108480952D01*
X125153571Y-108528571D01*
X125165476Y-108552380D01*
X125189285Y-108576190D01*
X125225000Y-108588095D01*
X125284523Y-108588095D01*
X125058333Y-108338095D02*
X124903571Y-108338095D01*
X124986904Y-108433333D01*
X124951190Y-108433333D01*
X124927380Y-108445238D01*
X124915476Y-108457142D01*
X124903571Y-108480952D01*
X124903571Y-108540476D01*
X124915476Y-108564285D01*
X124927380Y-108576190D01*
X124951190Y-108588095D01*
X125022619Y-108588095D01*
X125046428Y-108576190D01*
X125058333Y-108564285D01*
D11*
X128880952Y-84428571D02*
X129214285Y-84428571D01*
X129214285Y-84952380D02*
X129214285Y-83952380D01*
X128738095Y-83952380D01*
X128357142Y-84952380D02*
X128357142Y-84285714D01*
X128357142Y-83952380D02*
X128404761Y-84000000D01*
X128357142Y-84047619D01*
X128309523Y-84000000D01*
X128357142Y-83952380D01*
X128357142Y-84047619D01*
X127452380Y-84952380D02*
X127452380Y-83952380D01*
X127452380Y-84904761D02*
X127547619Y-84952380D01*
X127738095Y-84952380D01*
X127833333Y-84904761D01*
X127880952Y-84857142D01*
X127928571Y-84761904D01*
X127928571Y-84476190D01*
X127880952Y-84380952D01*
X127833333Y-84333333D01*
X127738095Y-84285714D01*
X127547619Y-84285714D01*
X127452380Y-84333333D01*
X126547619Y-84285714D02*
X126547619Y-84952380D01*
X126976190Y-84285714D02*
X126976190Y-84809523D01*
X126928571Y-84904761D01*
X126833333Y-84952380D01*
X126690476Y-84952380D01*
X126595238Y-84904761D01*
X126547619Y-84857142D01*
X125642857Y-84904761D02*
X125738095Y-84952380D01*
X125928571Y-84952380D01*
X126023809Y-84904761D01*
X126071428Y-84857142D01*
X126119047Y-84761904D01*
X126119047Y-84476190D01*
X126071428Y-84380952D01*
X126023809Y-84333333D01*
X125928571Y-84285714D01*
X125738095Y-84285714D01*
X125642857Y-84333333D01*
X125214285Y-84952380D02*
X125214285Y-84285714D01*
X125214285Y-83952380D02*
X125261904Y-84000000D01*
X125214285Y-84047619D01*
X125166666Y-84000000D01*
X125214285Y-83952380D01*
X125214285Y-84047619D01*
X124309523Y-84952380D02*
X124309523Y-84428571D01*
X124357142Y-84333333D01*
X124452380Y-84285714D01*
X124642857Y-84285714D01*
X124738095Y-84333333D01*
X124309523Y-84904761D02*
X124404761Y-84952380D01*
X124642857Y-84952380D01*
X124738095Y-84904761D01*
X124785714Y-84809523D01*
X124785714Y-84714285D01*
X124738095Y-84619047D01*
X124642857Y-84571428D01*
X124404761Y-84571428D01*
X124309523Y-84523809D01*
X123690476Y-84952380D02*
X123785714Y-84904761D01*
X123833333Y-84809523D01*
X123833333Y-83952380D01*
D13*
X126821428Y-86478571D02*
X126921428Y-86478571D01*
X126921428Y-86635714D02*
X126921428Y-86335714D01*
X126778571Y-86335714D01*
X126664285Y-86635714D02*
X126664285Y-86335714D01*
X126521428Y-86635714D02*
X126521428Y-86335714D01*
X126450000Y-86335714D01*
X126407142Y-86350000D01*
X126378571Y-86378571D01*
X126364285Y-86407142D01*
X126350000Y-86464285D01*
X126350000Y-86507142D01*
X126364285Y-86564285D01*
X126378571Y-86592857D01*
X126407142Y-86621428D01*
X126450000Y-86635714D01*
X126521428Y-86635714D01*
X126092857Y-86435714D02*
X126092857Y-86635714D01*
X126164285Y-86321428D02*
X126235714Y-86535714D01*
X126050000Y-86535714D01*
D11*
X177380952Y-72428571D02*
X177714285Y-72428571D01*
X177714285Y-72952380D02*
X177714285Y-71952380D01*
X177238095Y-71952380D01*
X176857142Y-72952380D02*
X176857142Y-72285714D01*
X176857142Y-71952380D02*
X176904761Y-72000000D01*
X176857142Y-72047619D01*
X176809523Y-72000000D01*
X176857142Y-71952380D01*
X176857142Y-72047619D01*
X175952380Y-72952380D02*
X175952380Y-71952380D01*
X175952380Y-72904761D02*
X176047619Y-72952380D01*
X176238095Y-72952380D01*
X176333333Y-72904761D01*
X176380952Y-72857142D01*
X176428571Y-72761904D01*
X176428571Y-72476190D01*
X176380952Y-72380952D01*
X176333333Y-72333333D01*
X176238095Y-72285714D01*
X176047619Y-72285714D01*
X175952380Y-72333333D01*
X175047619Y-72285714D02*
X175047619Y-72952380D01*
X175476190Y-72285714D02*
X175476190Y-72809523D01*
X175428571Y-72904761D01*
X175333333Y-72952380D01*
X175190476Y-72952380D01*
X175095238Y-72904761D01*
X175047619Y-72857142D01*
X174142857Y-72904761D02*
X174238095Y-72952380D01*
X174428571Y-72952380D01*
X174523809Y-72904761D01*
X174571428Y-72857142D01*
X174619047Y-72761904D01*
X174619047Y-72476190D01*
X174571428Y-72380952D01*
X174523809Y-72333333D01*
X174428571Y-72285714D01*
X174238095Y-72285714D01*
X174142857Y-72333333D01*
X173714285Y-72952380D02*
X173714285Y-72285714D01*
X173714285Y-71952380D02*
X173761904Y-72000000D01*
X173714285Y-72047619D01*
X173666666Y-72000000D01*
X173714285Y-71952380D01*
X173714285Y-72047619D01*
X172809523Y-72952380D02*
X172809523Y-72428571D01*
X172857142Y-72333333D01*
X172952380Y-72285714D01*
X173142857Y-72285714D01*
X173238095Y-72333333D01*
X172809523Y-72904761D02*
X172904761Y-72952380D01*
X173142857Y-72952380D01*
X173238095Y-72904761D01*
X173285714Y-72809523D01*
X173285714Y-72714285D01*
X173238095Y-72619047D01*
X173142857Y-72571428D01*
X172904761Y-72571428D01*
X172809523Y-72523809D01*
X172190476Y-72952380D02*
X172285714Y-72904761D01*
X172333333Y-72809523D01*
X172333333Y-71952380D01*
D13*
X175321428Y-74478571D02*
X175421428Y-74478571D01*
X175421428Y-74635714D02*
X175421428Y-74335714D01*
X175278571Y-74335714D01*
X175164285Y-74635714D02*
X175164285Y-74335714D01*
X175021428Y-74635714D02*
X175021428Y-74335714D01*
X174950000Y-74335714D01*
X174907142Y-74350000D01*
X174878571Y-74378571D01*
X174864285Y-74407142D01*
X174850000Y-74464285D01*
X174850000Y-74507142D01*
X174864285Y-74564285D01*
X174878571Y-74592857D01*
X174907142Y-74621428D01*
X174950000Y-74635714D01*
X175021428Y-74635714D01*
X174578571Y-74335714D02*
X174721428Y-74335714D01*
X174735714Y-74478571D01*
X174721428Y-74464285D01*
X174692857Y-74450000D01*
X174621428Y-74450000D01*
X174592857Y-74464285D01*
X174578571Y-74478571D01*
X174564285Y-74507142D01*
X174564285Y-74578571D01*
X174578571Y-74607142D01*
X174592857Y-74621428D01*
X174621428Y-74635714D01*
X174692857Y-74635714D01*
X174721428Y-74621428D01*
X174735714Y-74607142D01*
D11*
X173380952Y-134928571D02*
X173714285Y-134928571D01*
X173714285Y-135452380D02*
X173714285Y-134452380D01*
X173238095Y-134452380D01*
X172857142Y-135452380D02*
X172857142Y-134785714D01*
X172857142Y-134452380D02*
X172904761Y-134500000D01*
X172857142Y-134547619D01*
X172809523Y-134500000D01*
X172857142Y-134452380D01*
X172857142Y-134547619D01*
X171952380Y-135452380D02*
X171952380Y-134452380D01*
X171952380Y-135404761D02*
X172047619Y-135452380D01*
X172238095Y-135452380D01*
X172333333Y-135404761D01*
X172380952Y-135357142D01*
X172428571Y-135261904D01*
X172428571Y-134976190D01*
X172380952Y-134880952D01*
X172333333Y-134833333D01*
X172238095Y-134785714D01*
X172047619Y-134785714D01*
X171952380Y-134833333D01*
X171047619Y-134785714D02*
X171047619Y-135452380D01*
X171476190Y-134785714D02*
X171476190Y-135309523D01*
X171428571Y-135404761D01*
X171333333Y-135452380D01*
X171190476Y-135452380D01*
X171095238Y-135404761D01*
X171047619Y-135357142D01*
X170142857Y-135404761D02*
X170238095Y-135452380D01*
X170428571Y-135452380D01*
X170523809Y-135404761D01*
X170571428Y-135357142D01*
X170619047Y-135261904D01*
X170619047Y-134976190D01*
X170571428Y-134880952D01*
X170523809Y-134833333D01*
X170428571Y-134785714D01*
X170238095Y-134785714D01*
X170142857Y-134833333D01*
X169714285Y-135452380D02*
X169714285Y-134785714D01*
X169714285Y-134452380D02*
X169761904Y-134500000D01*
X169714285Y-134547619D01*
X169666666Y-134500000D01*
X169714285Y-134452380D01*
X169714285Y-134547619D01*
X168809523Y-135452380D02*
X168809523Y-134928571D01*
X168857142Y-134833333D01*
X168952380Y-134785714D01*
X169142857Y-134785714D01*
X169238095Y-134833333D01*
X168809523Y-135404761D02*
X168904761Y-135452380D01*
X169142857Y-135452380D01*
X169238095Y-135404761D01*
X169285714Y-135309523D01*
X169285714Y-135214285D01*
X169238095Y-135119047D01*
X169142857Y-135071428D01*
X168904761Y-135071428D01*
X168809523Y-135023809D01*
X168190476Y-135452380D02*
X168285714Y-135404761D01*
X168333333Y-135309523D01*
X168333333Y-134452380D01*
D13*
X171321428Y-136978571D02*
X171421428Y-136978571D01*
X171421428Y-137135714D02*
X171421428Y-136835714D01*
X171278571Y-136835714D01*
X171164285Y-137135714D02*
X171164285Y-136835714D01*
X171021428Y-137135714D02*
X171021428Y-136835714D01*
X170950000Y-136835714D01*
X170907142Y-136850000D01*
X170878571Y-136878571D01*
X170864285Y-136907142D01*
X170850000Y-136964285D01*
X170850000Y-137007142D01*
X170864285Y-137064285D01*
X170878571Y-137092857D01*
X170907142Y-137121428D01*
X170950000Y-137135714D01*
X171021428Y-137135714D01*
X170592857Y-136835714D02*
X170650000Y-136835714D01*
X170678571Y-136850000D01*
X170692857Y-136864285D01*
X170721428Y-136907142D01*
X170735714Y-136964285D01*
X170735714Y-137078571D01*
X170721428Y-137107142D01*
X170707142Y-137121428D01*
X170678571Y-137135714D01*
X170621428Y-137135714D01*
X170592857Y-137121428D01*
X170578571Y-137107142D01*
X170564285Y-137078571D01*
X170564285Y-137007142D01*
X170578571Y-136978571D01*
X170592857Y-136964285D01*
X170621428Y-136950000D01*
X170678571Y-136950000D01*
X170707142Y-136964285D01*
X170721428Y-136978571D01*
X170735714Y-137007142D01*
D11*
X127552380Y-97657142D02*
X127552380Y-97085714D01*
X127552380Y-97371428D02*
X126552380Y-97371428D01*
X126695238Y-97276190D01*
X126790476Y-97180952D01*
X126838095Y-97085714D01*
X127552380Y-98085714D02*
X126552380Y-98085714D01*
X127552380Y-98657142D01*
X126552380Y-98657142D01*
X126885714Y-99561904D02*
X127552380Y-99561904D01*
X126504761Y-99323809D02*
X127219047Y-99085714D01*
X127219047Y-99704761D01*
X127552380Y-100609523D02*
X127552380Y-100038095D01*
X127552380Y-100323809D02*
X126552380Y-100323809D01*
X126695238Y-100228571D01*
X126790476Y-100133333D01*
X126838095Y-100038095D01*
X126885714Y-101466666D02*
X127552380Y-101466666D01*
X126504761Y-101228571D02*
X127219047Y-100990476D01*
X127219047Y-101609523D01*
X126980952Y-102133333D02*
X126933333Y-102038095D01*
X126885714Y-101990476D01*
X126790476Y-101942857D01*
X126742857Y-101942857D01*
X126647619Y-101990476D01*
X126600000Y-102038095D01*
X126552380Y-102133333D01*
X126552380Y-102323809D01*
X126600000Y-102419047D01*
X126647619Y-102466666D01*
X126742857Y-102514285D01*
X126790476Y-102514285D01*
X126885714Y-102466666D01*
X126933333Y-102419047D01*
X126980952Y-102323809D01*
X126980952Y-102133333D01*
X127028571Y-102038095D01*
X127076190Y-101990476D01*
X127171428Y-101942857D01*
X127361904Y-101942857D01*
X127457142Y-101990476D01*
X127504761Y-102038095D01*
X127552380Y-102133333D01*
X127552380Y-102323809D01*
X127504761Y-102419047D01*
X127457142Y-102466666D01*
X127361904Y-102514285D01*
X127171428Y-102514285D01*
X127076190Y-102466666D01*
X127028571Y-102419047D01*
X126980952Y-102323809D01*
X123452380Y-99061904D02*
X122452380Y-99061904D01*
X122452380Y-99300000D01*
X122500000Y-99442857D01*
X122595238Y-99538095D01*
X122690476Y-99585714D01*
X122880952Y-99633333D01*
X123023809Y-99633333D01*
X123214285Y-99585714D01*
X123309523Y-99538095D01*
X123404761Y-99442857D01*
X123452380Y-99300000D01*
X123452380Y-99061904D01*
X122452380Y-100490476D02*
X122452380Y-100300000D01*
X122500000Y-100204761D01*
X122547619Y-100157142D01*
X122690476Y-100061904D01*
X122880952Y-100014285D01*
X123261904Y-100014285D01*
X123357142Y-100061904D01*
X123404761Y-100109523D01*
X123452380Y-100204761D01*
X123452380Y-100395238D01*
X123404761Y-100490476D01*
X123357142Y-100538095D01*
X123261904Y-100585714D01*
X123023809Y-100585714D01*
X122928571Y-100538095D01*
X122880952Y-100490476D01*
X122833333Y-100395238D01*
X122833333Y-100204761D01*
X122880952Y-100109523D01*
X122928571Y-100061904D01*
X123023809Y-100014285D01*
X140052380Y-106657142D02*
X140052380Y-106085714D01*
X140052380Y-106371428D02*
X139052380Y-106371428D01*
X139195238Y-106276190D01*
X139290476Y-106180952D01*
X139338095Y-106085714D01*
X140052380Y-107085714D02*
X139052380Y-107085714D01*
X140052380Y-107657142D01*
X139052380Y-107657142D01*
X139385714Y-108561904D02*
X140052380Y-108561904D01*
X139004761Y-108323809D02*
X139719047Y-108085714D01*
X139719047Y-108704761D01*
X140052380Y-109609523D02*
X140052380Y-109038095D01*
X140052380Y-109323809D02*
X139052380Y-109323809D01*
X139195238Y-109228571D01*
X139290476Y-109133333D01*
X139338095Y-109038095D01*
X139385714Y-110466666D02*
X140052380Y-110466666D01*
X139004761Y-110228571D02*
X139719047Y-109990476D01*
X139719047Y-110609523D01*
X139480952Y-111133333D02*
X139433333Y-111038095D01*
X139385714Y-110990476D01*
X139290476Y-110942857D01*
X139242857Y-110942857D01*
X139147619Y-110990476D01*
X139100000Y-111038095D01*
X139052380Y-111133333D01*
X139052380Y-111323809D01*
X139100000Y-111419047D01*
X139147619Y-111466666D01*
X139242857Y-111514285D01*
X139290476Y-111514285D01*
X139385714Y-111466666D01*
X139433333Y-111419047D01*
X139480952Y-111323809D01*
X139480952Y-111133333D01*
X139528571Y-111038095D01*
X139576190Y-110990476D01*
X139671428Y-110942857D01*
X139861904Y-110942857D01*
X139957142Y-110990476D01*
X140004761Y-111038095D01*
X140052380Y-111133333D01*
X140052380Y-111323809D01*
X140004761Y-111419047D01*
X139957142Y-111466666D01*
X139861904Y-111514285D01*
X139671428Y-111514285D01*
X139576190Y-111466666D01*
X139528571Y-111419047D01*
X139480952Y-111323809D01*
X144152380Y-108061904D02*
X143152380Y-108061904D01*
X143152380Y-108300000D01*
X143200000Y-108442857D01*
X143295238Y-108538095D01*
X143390476Y-108585714D01*
X143580952Y-108633333D01*
X143723809Y-108633333D01*
X143914285Y-108585714D01*
X144009523Y-108538095D01*
X144104761Y-108442857D01*
X144152380Y-108300000D01*
X144152380Y-108061904D01*
X143152380Y-108966666D02*
X143152380Y-109633333D01*
X144152380Y-109204761D01*
M02*
