M48
; DRILL file {KiCad 6.0.0+dfsg1-2} date Tue 08 Feb 2022 01:12:32 PM EST
; FORMAT={-:-/ absolute / inch / decimal}
; #@! TF.CreationDate,2022-02-08T13:12:32-05:00
; #@! TF.GenerationSoftware,Kicad,Pcbnew,6.0.0+dfsg1-2
; #@! TF.FileFunction,Plated,1,4,PTH
FMAT,2
INCH
; #@! TA.AperFunction,Plated,PTH,ViaDrill
T1C0.0157
; #@! TA.AperFunction,Plated,PTH,ComponentDrill
T2C0.0807
%
G90
G05
T1
X4.7362Y-2.8071
X4.74Y-3.2362
X4.7756Y-2.9685
X4.9104Y-2.8793
X4.9134Y-2.9291
X4.9173Y-2.7953
X4.9173Y-3.0157
X4.9177Y-2.8406
X4.9779Y-3.8204
X5.0512Y-3.3465
X5.0999Y-3.3607
X5.1024Y-3.5984
X5.1142Y-4.4488
X5.1371Y-3.3477
X5.1732Y-3.7323
X5.19Y-3.7638
X5.198Y-4.436
X5.315Y-3.4803
X5.3154Y-4.4419
X5.3307Y-2.7953
X5.3346Y-3.0413
X5.4291Y-2.7953
X5.4331Y-3.1378
X5.5Y-3.34
X5.689Y-4.6969
X5.75Y-4.32
X5.78Y-4.35
X5.875Y-4.9419
X5.8998Y-4.8846
X6.2Y-5.13
X6.2651Y-5.3349
X6.2677Y-5.2677
X6.3071Y-4.8661
X6.3543Y-4.874
X6.3659Y-5.0364
X6.3858Y-5.3071
X6.4055Y-5.1575
X6.4085Y-4.878
X6.4252Y-5.1929
X6.437Y-4.8465
X6.4409Y-5.0079
X6.4528Y-5.3947
X6.4724Y-5.314
X6.504Y-5.1575
X6.504Y-5.188
X6.5197Y-4.8543
X6.5906Y-5.0
X6.6142Y-4.7165
X6.6654Y-5.2008
X6.7165Y-4.6161
X6.7185Y-4.6673
X6.7244Y-4.7146
X6.7244Y-5.1063
X6.8563Y-5.0295
X6.8947Y-4.8268
X6.8976Y-4.9173
X6.9331Y-4.7717
X6.9803Y-4.9528
T2
X6.063Y-5.0394
T0
M30
