G04 #@! TF.GenerationSoftware,KiCad,Pcbnew,5.1.6+dfsg1-1~bpo10+1*
G04 #@! TF.CreationDate,2020-12-17T18:50:31-05:00*
G04 #@! TF.ProjectId,4GRCP_Mainboard,34475243-505f-44d6-9169-6e626f617264,rev?*
G04 #@! TF.SameCoordinates,Original*
G04 #@! TF.FileFunction,Profile,NP*
%FSLAX46Y46*%
G04 Gerber Fmt 4.6, Leading zero omitted, Abs format (unit mm)*
G04 Created by KiCad (PCBNEW 5.1.6+dfsg1-1~bpo10+1) date 2020-12-17 18:50:31*
%MOMM*%
%LPD*%
G01*
G04 APERTURE LIST*
G04 #@! TA.AperFunction,Profile*
%ADD10C,0.150000*%
G04 #@! TD*
G04 #@! TA.AperFunction,Profile*
%ADD11C,0.100000*%
G04 #@! TD*
G04 APERTURE END LIST*
D10*
X120000000Y-110900000D02*
X120000000Y-99900000D01*
X137000000Y-110900000D02*
X120000000Y-110900000D01*
X165990000Y-95493207D02*
X157790000Y-95493207D01*
X165990000Y-95493207D02*
G75*
G02*
X169389999Y-97380001I0J-4006793D01*
G01*
X159651005Y-119510250D02*
G75*
G02*
X149570001Y-111280001I-4971005J4200250D01*
G01*
X169390000Y-97380000D02*
X174735337Y-105942913D01*
X174735337Y-105942913D02*
G75*
G02*
X159651004Y-119510250I-8735337J-5457087D01*
G01*
X149570000Y-111280000D02*
X144305067Y-106968800D01*
X129000000Y-95400000D02*
X137000000Y-95400000D01*
X172150000Y-62350000D02*
X172150000Y-61800000D01*
X173150000Y-61800000D02*
X173150000Y-62350000D01*
X172150000Y-61800000D02*
G75*
G02*
X173150000Y-61800000I500000J0D01*
G01*
X168150000Y-63350000D02*
G75*
G02*
X168150000Y-62350000I0J500000D01*
G01*
X168150000Y-67650000D02*
G75*
G03*
X168150000Y-68650000I0J-500000D01*
G01*
X172150000Y-69200000D02*
G75*
G03*
X173150000Y-69200000I500000J0D01*
G01*
X173150000Y-62350000D02*
X181507727Y-62348463D01*
X168150000Y-62350000D02*
X172150000Y-62350000D01*
X168150000Y-67650000D02*
X168150000Y-63350000D01*
X172150000Y-68650000D02*
X168150000Y-68650000D01*
X172150000Y-69200000D02*
X172150000Y-68650000D01*
X173150000Y-68650000D02*
X173150000Y-69200000D01*
X181700000Y-68650000D02*
X173150000Y-68650000D01*
X137000000Y-110900000D02*
X137000000Y-95400000D01*
X120000000Y-99900000D02*
X129000000Y-99900000D01*
X129000000Y-95400000D02*
X129000000Y-99900000D01*
X181700000Y-71050000D02*
X181700000Y-68650000D01*
X181000000Y-71050000D02*
X181700000Y-71050000D01*
X181000000Y-71050000D02*
G75*
G03*
X181000000Y-72950000I0J-950000D01*
G01*
X181700000Y-72950000D02*
X181000000Y-72950000D01*
X181507727Y-62348463D02*
G75*
G03*
X171700000Y-54300000I-9807727J-1951537D01*
G01*
X170950000Y-54300000D02*
X171700000Y-54300000D01*
X170950000Y-55000000D02*
X170950000Y-54300000D01*
X169050000Y-54300000D02*
X169050000Y-55000000D01*
X170950000Y-55000000D02*
G75*
G02*
X169050000Y-55000000I-950000J0D01*
G01*
X138950000Y-54300000D02*
X169050000Y-54300000D01*
X138950000Y-55000000D02*
X138950000Y-54300000D01*
X138950000Y-55000000D02*
G75*
G02*
X137050000Y-55000000I-950000J0D01*
G01*
X137050000Y-54300000D02*
X137050000Y-55000000D01*
X129700000Y-54300000D02*
X137050000Y-54300000D01*
X129700000Y-54299821D02*
G75*
G03*
X117638000Y-62451000I0J-13000179D01*
G01*
X118089000Y-62595000D02*
X117638000Y-62451000D01*
X118089000Y-62595000D02*
G75*
G02*
X117511000Y-64405000I-289000J-905000D01*
G01*
X117060000Y-64261000D02*
X117511000Y-64405000D01*
X117060192Y-64261046D02*
G75*
G03*
X116700000Y-67300000I12639808J-3038954D01*
G01*
X116700000Y-95483000D02*
X116700000Y-67300000D01*
X116700133Y-95483000D02*
G75*
G02*
X115072000Y-99898000I-6800133J0D01*
G01*
X115072142Y-99898121D02*
G75*
G03*
X112200000Y-107688000I9127858J-7789879D01*
G01*
X112200000Y-116550000D02*
X112200000Y-107688000D01*
X113500000Y-116550000D02*
X112200000Y-116550000D01*
X113500000Y-116550000D02*
G75*
G02*
X113500000Y-118450000I0J-950000D01*
G01*
X112200000Y-118450000D02*
X113500000Y-118450000D01*
X112200000Y-135471000D02*
X112200000Y-118450000D01*
X135235000Y-154800000D02*
X112200000Y-135471000D01*
X141950000Y-154800000D02*
X135235000Y-154800000D01*
X141950000Y-154000000D02*
X141950000Y-154800000D01*
X141950000Y-154000000D02*
G75*
G02*
X143850000Y-154000000I950000J0D01*
G01*
X143850000Y-154800000D02*
X143850000Y-154000000D01*
X163729707Y-154800309D02*
X143850000Y-154800000D01*
X163729707Y-154800309D02*
G75*
G03*
X172215000Y-151285000I-707J12000309D01*
G01*
X173828000Y-149672000D02*
X172215000Y-151285000D01*
X173328000Y-149172000D02*
X173828000Y-149672000D01*
X173328000Y-149172000D02*
G75*
G02*
X174672000Y-147828000I672000J672000D01*
G01*
X175172000Y-148328000D02*
X174672000Y-147828000D01*
X144305108Y-106968751D02*
G75*
G02*
X157790000Y-95493207I5694892J6968751D01*
G01*
X178184781Y-145314781D02*
G75*
G03*
X181700000Y-136829000I-8484781J8485781D01*
G01*
X178185000Y-145315000D02*
X175172000Y-148328000D01*
X181700000Y-72950000D02*
X181700000Y-136829000D01*
D11*
X163550000Y-147555000D02*
X163700000Y-147555000D01*
X163700000Y-147555000D02*
X163700000Y-147055000D01*
X164300000Y-147055000D02*
X164300000Y-147805000D01*
X164000000Y-148055000D02*
X163550000Y-148055000D01*
X154700000Y-147805000D02*
X154700000Y-147055000D01*
X155300000Y-147055000D02*
X155300000Y-147555000D01*
X155300000Y-147555000D02*
X155450000Y-147555000D01*
X155450000Y-148055000D02*
X155000000Y-148055000D01*
X155000000Y-148055000D02*
G75*
G02*
X154700000Y-147805000I-25000J275000D01*
G01*
X155450000Y-147555000D02*
G75*
G02*
X155450000Y-148055000I0J-250000D01*
G01*
X154700000Y-147055000D02*
G75*
G02*
X155300000Y-147055000I300000J0D01*
G01*
X163550000Y-148055000D02*
G75*
G02*
X163550000Y-147555000I0J250000D01*
G01*
X164300000Y-147805000D02*
G75*
G02*
X164000000Y-148055000I-275000J25000D01*
G01*
X163700000Y-147055000D02*
G75*
G02*
X164300000Y-147055000I300000J0D01*
G01*
M02*
