G04 #@! TF.GenerationSoftware,KiCad,Pcbnew,5.1.6+dfsg1-1~bpo10+1*
G04 #@! TF.CreationDate,2021-06-19T16:41:49-04:00*
G04 #@! TF.ProjectId,RUSP_Daughterboard,52555350-5f44-4617-9567-68746572626f,rev?*
G04 #@! TF.SameCoordinates,Original*
G04 #@! TF.FileFunction,Soldermask,Top*
G04 #@! TF.FilePolarity,Negative*
%FSLAX46Y46*%
G04 Gerber Fmt 4.6, Leading zero omitted, Abs format (unit mm)*
G04 Created by KiCad (PCBNEW 5.1.6+dfsg1-1~bpo10+1) date 2021-06-19 16:41:49*
%MOMM*%
%LPD*%
G01*
G04 APERTURE LIST*
%ADD10C,0.100000*%
G04 APERTURE END LIST*
D10*
G36*
X171718766Y-136278821D02*
G01*
X171855257Y-136335358D01*
X171978097Y-136417437D01*
X172082563Y-136521903D01*
X172164642Y-136644743D01*
X172221179Y-136781234D01*
X172250000Y-136926130D01*
X172250000Y-137073870D01*
X172221179Y-137218766D01*
X172164642Y-137355257D01*
X172082563Y-137478097D01*
X171978097Y-137582563D01*
X171855257Y-137664642D01*
X171718766Y-137721179D01*
X171573870Y-137750000D01*
X171426130Y-137750000D01*
X171281234Y-137721179D01*
X171144743Y-137664642D01*
X171021903Y-137582563D01*
X170917437Y-137478097D01*
X170835358Y-137355257D01*
X170778821Y-137218766D01*
X170750000Y-137073870D01*
X170750000Y-136926130D01*
X170778821Y-136781234D01*
X170835358Y-136644743D01*
X170917437Y-136521903D01*
X171021903Y-136417437D01*
X171144743Y-136335358D01*
X171281234Y-136278821D01*
X171426130Y-136250000D01*
X171573870Y-136250000D01*
X171718766Y-136278821D01*
G37*
G36*
X165853153Y-134631145D02*
G01*
X165909180Y-134642289D01*
X166014733Y-134686011D01*
X166109728Y-134749485D01*
X166190515Y-134830272D01*
X166253989Y-134925267D01*
X166297711Y-135030820D01*
X166320000Y-135142875D01*
X166320000Y-135257125D01*
X166297711Y-135369180D01*
X166253989Y-135474733D01*
X166190515Y-135569728D01*
X166109728Y-135650515D01*
X166014733Y-135713989D01*
X165909180Y-135757711D01*
X165853153Y-135768855D01*
X165797126Y-135780000D01*
X165682874Y-135780000D01*
X165626847Y-135768855D01*
X165570820Y-135757711D01*
X165465267Y-135713989D01*
X165370272Y-135650515D01*
X165289485Y-135569728D01*
X165226011Y-135474733D01*
X165182289Y-135369180D01*
X165160000Y-135257125D01*
X165160000Y-135142875D01*
X165182289Y-135030820D01*
X165226011Y-134925267D01*
X165289485Y-134830272D01*
X165370272Y-134749485D01*
X165465267Y-134686011D01*
X165570820Y-134642289D01*
X165626847Y-134631145D01*
X165682874Y-134620000D01*
X165797126Y-134620000D01*
X165853153Y-134631145D01*
G37*
G36*
X160773153Y-134631145D02*
G01*
X160829180Y-134642289D01*
X160934733Y-134686011D01*
X161029728Y-134749485D01*
X161110515Y-134830272D01*
X161173989Y-134925267D01*
X161217711Y-135030820D01*
X161240000Y-135142875D01*
X161240000Y-135257125D01*
X161217711Y-135369180D01*
X161173989Y-135474733D01*
X161110515Y-135569728D01*
X161029728Y-135650515D01*
X160934733Y-135713989D01*
X160829180Y-135757711D01*
X160773153Y-135768855D01*
X160717126Y-135780000D01*
X160602874Y-135780000D01*
X160546847Y-135768855D01*
X160490820Y-135757711D01*
X160385267Y-135713989D01*
X160290272Y-135650515D01*
X160209485Y-135569728D01*
X160146011Y-135474733D01*
X160102289Y-135369180D01*
X160080000Y-135257125D01*
X160080000Y-135142875D01*
X160102289Y-135030820D01*
X160146011Y-134925267D01*
X160209485Y-134830272D01*
X160290272Y-134749485D01*
X160385267Y-134686011D01*
X160490820Y-134642289D01*
X160546847Y-134631145D01*
X160602874Y-134620000D01*
X160717126Y-134620000D01*
X160773153Y-134631145D01*
G37*
G36*
X154253617Y-132724979D02*
G01*
X154379196Y-132749958D01*
X154615781Y-132847955D01*
X154828702Y-132990224D01*
X155009776Y-133171298D01*
X155152045Y-133384219D01*
X155250042Y-133620804D01*
X155300000Y-133871961D01*
X155300000Y-134128039D01*
X155250042Y-134379196D01*
X155152045Y-134615781D01*
X155009776Y-134828702D01*
X154828702Y-135009776D01*
X154615781Y-135152045D01*
X154379196Y-135250042D01*
X154253617Y-135275021D01*
X154128040Y-135300000D01*
X153871960Y-135300000D01*
X153746383Y-135275021D01*
X153620804Y-135250042D01*
X153384219Y-135152045D01*
X153171298Y-135009776D01*
X152990224Y-134828702D01*
X152847955Y-134615781D01*
X152749958Y-134379196D01*
X152700000Y-134128039D01*
X152700000Y-133871961D01*
X152749958Y-133620804D01*
X152847955Y-133384219D01*
X152990224Y-133171298D01*
X153171298Y-132990224D01*
X153384219Y-132847955D01*
X153620804Y-132749958D01*
X153746383Y-132724979D01*
X153871960Y-132700000D01*
X154128040Y-132700000D01*
X154253617Y-132724979D01*
G37*
G36*
X154331653Y-126332665D02*
G01*
X154495872Y-126365330D01*
X154805252Y-126493479D01*
X155083687Y-126679523D01*
X155320477Y-126916313D01*
X155506521Y-127194748D01*
X155634670Y-127504128D01*
X155700000Y-127832565D01*
X155700000Y-128167435D01*
X155634670Y-128495872D01*
X155506521Y-128805252D01*
X155320477Y-129083687D01*
X155083687Y-129320477D01*
X154805252Y-129506521D01*
X154495872Y-129634670D01*
X154331653Y-129667335D01*
X154167437Y-129700000D01*
X153832563Y-129700000D01*
X153668347Y-129667335D01*
X153504128Y-129634670D01*
X153194748Y-129506521D01*
X152916313Y-129320477D01*
X152679523Y-129083687D01*
X152493479Y-128805252D01*
X152365330Y-128495872D01*
X152300000Y-128167435D01*
X152300000Y-127832565D01*
X152365330Y-127504128D01*
X152493479Y-127194748D01*
X152679523Y-126916313D01*
X152916313Y-126679523D01*
X153194748Y-126493479D01*
X153504128Y-126365330D01*
X153668347Y-126332665D01*
X153832563Y-126300000D01*
X154167437Y-126300000D01*
X154331653Y-126332665D01*
G37*
G36*
X165853153Y-126931145D02*
G01*
X165909180Y-126942289D01*
X166014733Y-126986011D01*
X166109728Y-127049485D01*
X166190515Y-127130272D01*
X166253989Y-127225267D01*
X166297711Y-127330820D01*
X166320000Y-127442875D01*
X166320000Y-127557125D01*
X166297711Y-127669180D01*
X166253989Y-127774733D01*
X166190515Y-127869728D01*
X166109728Y-127950515D01*
X166014733Y-128013989D01*
X165909180Y-128057711D01*
X165853152Y-128068856D01*
X165797126Y-128080000D01*
X165682874Y-128080000D01*
X165626848Y-128068856D01*
X165570820Y-128057711D01*
X165465267Y-128013989D01*
X165370272Y-127950515D01*
X165289485Y-127869728D01*
X165226011Y-127774733D01*
X165182289Y-127669180D01*
X165160000Y-127557125D01*
X165160000Y-127442875D01*
X165182289Y-127330820D01*
X165226011Y-127225267D01*
X165289485Y-127130272D01*
X165370272Y-127049485D01*
X165465267Y-126986011D01*
X165570820Y-126942289D01*
X165626847Y-126931145D01*
X165682874Y-126920000D01*
X165797126Y-126920000D01*
X165853153Y-126931145D01*
G37*
G36*
X160773153Y-126931145D02*
G01*
X160829180Y-126942289D01*
X160934733Y-126986011D01*
X161029728Y-127049485D01*
X161110515Y-127130272D01*
X161173989Y-127225267D01*
X161217711Y-127330820D01*
X161240000Y-127442875D01*
X161240000Y-127557125D01*
X161217711Y-127669180D01*
X161173989Y-127774733D01*
X161110515Y-127869728D01*
X161029728Y-127950515D01*
X160934733Y-128013989D01*
X160829180Y-128057711D01*
X160773152Y-128068856D01*
X160717126Y-128080000D01*
X160602874Y-128080000D01*
X160546848Y-128068856D01*
X160490820Y-128057711D01*
X160385267Y-128013989D01*
X160290272Y-127950515D01*
X160209485Y-127869728D01*
X160146011Y-127774733D01*
X160102289Y-127669180D01*
X160080000Y-127557125D01*
X160080000Y-127442875D01*
X160102289Y-127330820D01*
X160146011Y-127225267D01*
X160209485Y-127130272D01*
X160290272Y-127049485D01*
X160385267Y-126986011D01*
X160490820Y-126942289D01*
X160546847Y-126931145D01*
X160602874Y-126920000D01*
X160717126Y-126920000D01*
X160773153Y-126931145D01*
G37*
G36*
X146241243Y-119320117D02*
G01*
X146275836Y-119330611D01*
X146307709Y-119347647D01*
X146340425Y-119374497D01*
X146380267Y-119414339D01*
X146380278Y-119414348D01*
X146765652Y-119799722D01*
X146765661Y-119799733D01*
X146805503Y-119839575D01*
X146832353Y-119872291D01*
X146849389Y-119904164D01*
X146859883Y-119938757D01*
X146863426Y-119974731D01*
X146861766Y-119991584D01*
X146861766Y-120016088D01*
X146866546Y-120040121D01*
X146875923Y-120062760D01*
X146889537Y-120083135D01*
X146906863Y-120100462D01*
X146927238Y-120114076D01*
X146949876Y-120123453D01*
X146973910Y-120128234D01*
X146998416Y-120128234D01*
X147015269Y-120126574D01*
X147051243Y-120130117D01*
X147085836Y-120140611D01*
X147117709Y-120157647D01*
X147150425Y-120184497D01*
X147190267Y-120224339D01*
X147190278Y-120224348D01*
X147575652Y-120609722D01*
X147575661Y-120609733D01*
X147615503Y-120649575D01*
X147642353Y-120682291D01*
X147659389Y-120714164D01*
X147669883Y-120748757D01*
X147673426Y-120784730D01*
X147670967Y-120809692D01*
X147670967Y-120834196D01*
X147675747Y-120858229D01*
X147685124Y-120880868D01*
X147698737Y-120901243D01*
X147716064Y-120918570D01*
X147736438Y-120932184D01*
X147759077Y-120941562D01*
X147783110Y-120946343D01*
X147802925Y-120946343D01*
X147841243Y-120950117D01*
X147875836Y-120960611D01*
X147907709Y-120977647D01*
X147940425Y-121004497D01*
X147980267Y-121044339D01*
X147980278Y-121044348D01*
X148365652Y-121429722D01*
X148365661Y-121429733D01*
X148405503Y-121469575D01*
X148432353Y-121502291D01*
X148449389Y-121534164D01*
X148459883Y-121568757D01*
X148463426Y-121604731D01*
X148459883Y-121640705D01*
X148449389Y-121675298D01*
X148432353Y-121707171D01*
X148405503Y-121739887D01*
X148365661Y-121779729D01*
X148365652Y-121779740D01*
X148015634Y-122129758D01*
X148015623Y-122129767D01*
X147975781Y-122169609D01*
X147943065Y-122196459D01*
X147911192Y-122213495D01*
X147868250Y-122226521D01*
X147861239Y-122227916D01*
X147838601Y-122237295D01*
X147818227Y-122250910D01*
X147800901Y-122268238D01*
X147787289Y-122288613D01*
X147777913Y-122311252D01*
X147776520Y-122318253D01*
X147763495Y-122361192D01*
X147746459Y-122393065D01*
X147719609Y-122425781D01*
X147679767Y-122465623D01*
X147679758Y-122465634D01*
X147329740Y-122815652D01*
X147329729Y-122815661D01*
X147289887Y-122855503D01*
X147257171Y-122882353D01*
X147225298Y-122899389D01*
X147190705Y-122909883D01*
X147154731Y-122913426D01*
X147118757Y-122909883D01*
X147084164Y-122899389D01*
X147052291Y-122882353D01*
X147019575Y-122855503D01*
X146979733Y-122815661D01*
X146979722Y-122815652D01*
X146594348Y-122430278D01*
X146594339Y-122430267D01*
X146554497Y-122390425D01*
X146527647Y-122357709D01*
X146510611Y-122325836D01*
X146500117Y-122291243D01*
X146496574Y-122255269D01*
X146499033Y-122230308D01*
X146499033Y-122205804D01*
X146494253Y-122181771D01*
X146484876Y-122159132D01*
X146471263Y-122138757D01*
X146453936Y-122121430D01*
X146433562Y-122107816D01*
X146410923Y-122098438D01*
X146386890Y-122093657D01*
X146367075Y-122093657D01*
X146328757Y-122089883D01*
X146294164Y-122079389D01*
X146262291Y-122062353D01*
X146229575Y-122035503D01*
X146189733Y-121995661D01*
X146189722Y-121995652D01*
X145804348Y-121610278D01*
X145804339Y-121610267D01*
X145764497Y-121570425D01*
X145737647Y-121537709D01*
X145720611Y-121505836D01*
X145710117Y-121471243D01*
X145706574Y-121435269D01*
X145708234Y-121418416D01*
X145708234Y-121393912D01*
X145703454Y-121369879D01*
X145694077Y-121347240D01*
X145680463Y-121326865D01*
X145663137Y-121309538D01*
X145642762Y-121295924D01*
X145620124Y-121286547D01*
X145596090Y-121281766D01*
X145571584Y-121281766D01*
X145554731Y-121283426D01*
X145518757Y-121279883D01*
X145484164Y-121269389D01*
X145452291Y-121252353D01*
X145419575Y-121225503D01*
X145379733Y-121185661D01*
X145379722Y-121185652D01*
X144994348Y-120800278D01*
X144994339Y-120800267D01*
X144954497Y-120760425D01*
X144927647Y-120727709D01*
X144910611Y-120695836D01*
X144900117Y-120661243D01*
X144896574Y-120625269D01*
X144900117Y-120589295D01*
X144910611Y-120554702D01*
X144927647Y-120522829D01*
X144954497Y-120490113D01*
X144994339Y-120450271D01*
X144994348Y-120450260D01*
X145344366Y-120100242D01*
X145344377Y-120100233D01*
X145384219Y-120060391D01*
X145416935Y-120033541D01*
X145448808Y-120016505D01*
X145491750Y-120003479D01*
X145498761Y-120002084D01*
X145521399Y-119992705D01*
X145541773Y-119979090D01*
X145559099Y-119961762D01*
X145572711Y-119941387D01*
X145582087Y-119918748D01*
X145583480Y-119911747D01*
X145596505Y-119868808D01*
X145613541Y-119836935D01*
X145640391Y-119804219D01*
X145680233Y-119764377D01*
X145680242Y-119764366D01*
X146030260Y-119414348D01*
X146030271Y-119414339D01*
X146070113Y-119374497D01*
X146102829Y-119347647D01*
X146134702Y-119330611D01*
X146169295Y-119320117D01*
X146205269Y-119316574D01*
X146241243Y-119320117D01*
G37*
G36*
X134460000Y-115986500D02*
G01*
X132660000Y-115986500D01*
X132660000Y-113786500D01*
X134460000Y-113786500D01*
X134460000Y-115986500D01*
G37*
G36*
X131983500Y-115986500D02*
G01*
X130183500Y-115986500D01*
X130183500Y-113786500D01*
X131983500Y-113786500D01*
X131983500Y-115986500D01*
G37*
G36*
X129380000Y-115986500D02*
G01*
X127580000Y-115986500D01*
X127580000Y-113786500D01*
X129380000Y-113786500D01*
X129380000Y-115986500D01*
G37*
G36*
X141253617Y-112224979D02*
G01*
X141379196Y-112249958D01*
X141615781Y-112347955D01*
X141828702Y-112490224D01*
X142009776Y-112671298D01*
X142152045Y-112884219D01*
X142250042Y-113120804D01*
X142300000Y-113371961D01*
X142300000Y-113628039D01*
X142250042Y-113879196D01*
X142152045Y-114115781D01*
X142009776Y-114328702D01*
X141828702Y-114509776D01*
X141615781Y-114652045D01*
X141379196Y-114750042D01*
X141128040Y-114800000D01*
X140871960Y-114800000D01*
X140620804Y-114750042D01*
X140384219Y-114652045D01*
X140171298Y-114509776D01*
X139990224Y-114328702D01*
X139847955Y-114115781D01*
X139749958Y-113879196D01*
X139700000Y-113628039D01*
X139700000Y-113371961D01*
X139749958Y-113120804D01*
X139847955Y-112884219D01*
X139990224Y-112671298D01*
X140171298Y-112490224D01*
X140384219Y-112347955D01*
X140620804Y-112249958D01*
X140746383Y-112224979D01*
X140871960Y-112200000D01*
X141128040Y-112200000D01*
X141253617Y-112224979D01*
G37*
G36*
X123903351Y-109610743D02*
G01*
X124048941Y-109671048D01*
X124179970Y-109758599D01*
X124291401Y-109870030D01*
X124378952Y-110001059D01*
X124439257Y-110146649D01*
X124470000Y-110301206D01*
X124470000Y-110458794D01*
X124439257Y-110613351D01*
X124378952Y-110758941D01*
X124291401Y-110889970D01*
X124179970Y-111001401D01*
X124048941Y-111088952D01*
X123903351Y-111149257D01*
X123748794Y-111180000D01*
X123591206Y-111180000D01*
X123436649Y-111149257D01*
X123291059Y-111088952D01*
X123160030Y-111001401D01*
X123048599Y-110889970D01*
X122961048Y-110758941D01*
X122900743Y-110613351D01*
X122870000Y-110458794D01*
X122870000Y-110301206D01*
X122900743Y-110146649D01*
X122961048Y-110001059D01*
X123048599Y-109870030D01*
X123160030Y-109758599D01*
X123291059Y-109671048D01*
X123436649Y-109610743D01*
X123591206Y-109580000D01*
X123748794Y-109580000D01*
X123903351Y-109610743D01*
G37*
G36*
X176879196Y-94249958D02*
G01*
X177115781Y-94347955D01*
X177328702Y-94490224D01*
X177509776Y-94671298D01*
X177652045Y-94884219D01*
X177750042Y-95120804D01*
X177800000Y-95371961D01*
X177800000Y-95628039D01*
X177750042Y-95879196D01*
X177652045Y-96115781D01*
X177509776Y-96328702D01*
X177328702Y-96509776D01*
X177115781Y-96652045D01*
X176879196Y-96750042D01*
X176753617Y-96775021D01*
X176628040Y-96800000D01*
X176371960Y-96800000D01*
X176246383Y-96775021D01*
X176120804Y-96750042D01*
X175884219Y-96652045D01*
X175671298Y-96509776D01*
X175490224Y-96328702D01*
X175347955Y-96115781D01*
X175249958Y-95879196D01*
X175200000Y-95628039D01*
X175200000Y-95371961D01*
X175249958Y-95120804D01*
X175347955Y-94884219D01*
X175490224Y-94671298D01*
X175671298Y-94490224D01*
X175884219Y-94347955D01*
X176120804Y-94249958D01*
X176371960Y-94200000D01*
X176628040Y-94200000D01*
X176879196Y-94249958D01*
G37*
G36*
X135773687Y-93530027D02*
G01*
X135951274Y-93565350D01*
X136142362Y-93644502D01*
X136314336Y-93759411D01*
X136460589Y-93905664D01*
X136575498Y-94077638D01*
X136654650Y-94268726D01*
X136695000Y-94471584D01*
X136695000Y-94678416D01*
X136654650Y-94881274D01*
X136575498Y-95072362D01*
X136460589Y-95244336D01*
X136314336Y-95390589D01*
X136142362Y-95505498D01*
X135951274Y-95584650D01*
X135773687Y-95619973D01*
X135748417Y-95625000D01*
X135541583Y-95625000D01*
X135516313Y-95619973D01*
X135338726Y-95584650D01*
X135147638Y-95505498D01*
X134975664Y-95390589D01*
X134829411Y-95244336D01*
X134714502Y-95072362D01*
X134635350Y-94881274D01*
X134595000Y-94678416D01*
X134595000Y-94471584D01*
X134635350Y-94268726D01*
X134714502Y-94077638D01*
X134829411Y-93905664D01*
X134975664Y-93759411D01*
X135147638Y-93644502D01*
X135338726Y-93565350D01*
X135516313Y-93530027D01*
X135541583Y-93525000D01*
X135748417Y-93525000D01*
X135773687Y-93530027D01*
G37*
G36*
X134460000Y-90713500D02*
G01*
X132660000Y-90713500D01*
X132660000Y-88513500D01*
X134460000Y-88513500D01*
X134460000Y-90713500D01*
G37*
G36*
X131920000Y-90713500D02*
G01*
X130120000Y-90713500D01*
X130120000Y-88513500D01*
X131920000Y-88513500D01*
X131920000Y-90713500D01*
G37*
G36*
X129380000Y-90713500D02*
G01*
X127580000Y-90713500D01*
X127580000Y-88513500D01*
X129380000Y-88513500D01*
X129380000Y-90713500D01*
G37*
G36*
X164500000Y-90000000D02*
G01*
X162400000Y-90000000D01*
X162400000Y-86400000D01*
X164500000Y-86400000D01*
X164500000Y-90000000D01*
G37*
G36*
X173000000Y-90000000D02*
G01*
X170900000Y-90000000D01*
X170900000Y-86400000D01*
X173000000Y-86400000D01*
X173000000Y-90000000D01*
G37*
G36*
X126718766Y-85778821D02*
G01*
X126855257Y-85835358D01*
X126978097Y-85917437D01*
X127082563Y-86021903D01*
X127164642Y-86144743D01*
X127221179Y-86281234D01*
X127250000Y-86426130D01*
X127250000Y-86573870D01*
X127221179Y-86718766D01*
X127164642Y-86855257D01*
X127082563Y-86978097D01*
X126978097Y-87082563D01*
X126855257Y-87164642D01*
X126718766Y-87221179D01*
X126573870Y-87250000D01*
X126426130Y-87250000D01*
X126281234Y-87221179D01*
X126144743Y-87164642D01*
X126021903Y-87082563D01*
X125917437Y-86978097D01*
X125835358Y-86855257D01*
X125778821Y-86718766D01*
X125750000Y-86573870D01*
X125750000Y-86426130D01*
X125778821Y-86281234D01*
X125835358Y-86144743D01*
X125917437Y-86021903D01*
X126021903Y-85917437D01*
X126144743Y-85835358D01*
X126281234Y-85778821D01*
X126426130Y-85750000D01*
X126573870Y-85750000D01*
X126718766Y-85778821D01*
G37*
G36*
X120425000Y-84250000D02*
G01*
X118125000Y-84250000D01*
X118125000Y-82450000D01*
X120425000Y-82450000D01*
X120425000Y-84250000D01*
G37*
G36*
X136560974Y-79184148D02*
G01*
X136595567Y-79194642D01*
X136635127Y-79215787D01*
X136641066Y-79219756D01*
X136663703Y-79229135D01*
X136687736Y-79233918D01*
X136712240Y-79233920D01*
X136736274Y-79229142D01*
X136758914Y-79219767D01*
X136764861Y-79215794D01*
X136804433Y-79194642D01*
X136839026Y-79184148D01*
X136881141Y-79180000D01*
X137488859Y-79180000D01*
X137530974Y-79184148D01*
X137565567Y-79194642D01*
X137597440Y-79211678D01*
X137625386Y-79234614D01*
X137648322Y-79262560D01*
X137665358Y-79294433D01*
X137675852Y-79329026D01*
X137680000Y-79371141D01*
X137680000Y-80028859D01*
X137675852Y-80070974D01*
X137665358Y-80105567D01*
X137648322Y-80137440D01*
X137625386Y-80165386D01*
X137597440Y-80188322D01*
X137565567Y-80205358D01*
X137530974Y-80215852D01*
X137488859Y-80220000D01*
X136881141Y-80220000D01*
X136839026Y-80215852D01*
X136804433Y-80205358D01*
X136764873Y-80184213D01*
X136758934Y-80180244D01*
X136736297Y-80170865D01*
X136712264Y-80166082D01*
X136687760Y-80166080D01*
X136663726Y-80170858D01*
X136641086Y-80180233D01*
X136635139Y-80184206D01*
X136595567Y-80205358D01*
X136560974Y-80215852D01*
X136518859Y-80220000D01*
X135911141Y-80220000D01*
X135869026Y-80215852D01*
X135834433Y-80205358D01*
X135802560Y-80188322D01*
X135774614Y-80165386D01*
X135751678Y-80137440D01*
X135734642Y-80105567D01*
X135724148Y-80070974D01*
X135720000Y-80028859D01*
X135720000Y-79371141D01*
X135724148Y-79329026D01*
X135734642Y-79294433D01*
X135751678Y-79262560D01*
X135774614Y-79234614D01*
X135802560Y-79211678D01*
X135834433Y-79194642D01*
X135869026Y-79184148D01*
X135911141Y-79180000D01*
X136518859Y-79180000D01*
X136560974Y-79184148D01*
G37*
G36*
X177570974Y-74074148D02*
G01*
X177605567Y-74084642D01*
X177637440Y-74101678D01*
X177665386Y-74124614D01*
X177688322Y-74152560D01*
X177705358Y-74184433D01*
X177715852Y-74219026D01*
X177720000Y-74261141D01*
X177720000Y-74868859D01*
X177715852Y-74910974D01*
X177705358Y-74945567D01*
X177684213Y-74985127D01*
X177680244Y-74991066D01*
X177670865Y-75013703D01*
X177666082Y-75037736D01*
X177666080Y-75062240D01*
X177670858Y-75086274D01*
X177680233Y-75108914D01*
X177684206Y-75114861D01*
X177705358Y-75154433D01*
X177715852Y-75189026D01*
X177720000Y-75231141D01*
X177720000Y-75838859D01*
X177715852Y-75880974D01*
X177705358Y-75915567D01*
X177688320Y-75947444D01*
X177669233Y-75970701D01*
X177655619Y-75991076D01*
X177646241Y-76013715D01*
X177641461Y-76037748D01*
X177641461Y-76062252D01*
X177646241Y-76086285D01*
X177655619Y-76108924D01*
X177669233Y-76129299D01*
X177688320Y-76152556D01*
X177705358Y-76184433D01*
X177715852Y-76219026D01*
X177720000Y-76261141D01*
X177720000Y-76868859D01*
X177715852Y-76910974D01*
X177705358Y-76945567D01*
X177684213Y-76985127D01*
X177680244Y-76991066D01*
X177670865Y-77013703D01*
X177666082Y-77037736D01*
X177666080Y-77062240D01*
X177670858Y-77086274D01*
X177680233Y-77108914D01*
X177684206Y-77114861D01*
X177705358Y-77154433D01*
X177715852Y-77189026D01*
X177720000Y-77231141D01*
X177720000Y-77838859D01*
X177715852Y-77880974D01*
X177705358Y-77915567D01*
X177688322Y-77947440D01*
X177665386Y-77975386D01*
X177631283Y-78003375D01*
X177613957Y-78020703D01*
X177600343Y-78041077D01*
X177590966Y-78063716D01*
X177586186Y-78087749D01*
X177586186Y-78112253D01*
X177590967Y-78136287D01*
X177600344Y-78158925D01*
X177613958Y-78179300D01*
X177631283Y-78196625D01*
X177665386Y-78224614D01*
X177688322Y-78252560D01*
X177705358Y-78284433D01*
X177715852Y-78319026D01*
X177720000Y-78361141D01*
X177720000Y-78968859D01*
X177715852Y-79010974D01*
X177705358Y-79045567D01*
X177684213Y-79085127D01*
X177680244Y-79091066D01*
X177670865Y-79113703D01*
X177666082Y-79137736D01*
X177666080Y-79162240D01*
X177670858Y-79186274D01*
X177680233Y-79208914D01*
X177684206Y-79214861D01*
X177705358Y-79254433D01*
X177715852Y-79289026D01*
X177720000Y-79331141D01*
X177720000Y-79938859D01*
X177715852Y-79980974D01*
X177705358Y-80015567D01*
X177688322Y-80047440D01*
X177665386Y-80075386D01*
X177637440Y-80098322D01*
X177605567Y-80115358D01*
X177570974Y-80125852D01*
X177528859Y-80130000D01*
X176871141Y-80130000D01*
X176829026Y-80125852D01*
X176794433Y-80115358D01*
X176762560Y-80098322D01*
X176734614Y-80075386D01*
X176711678Y-80047440D01*
X176694642Y-80015567D01*
X176684148Y-79980974D01*
X176680000Y-79938859D01*
X176680000Y-79331141D01*
X176684148Y-79289026D01*
X176694642Y-79254433D01*
X176715787Y-79214873D01*
X176719756Y-79208934D01*
X176729135Y-79186297D01*
X176733918Y-79162264D01*
X176733920Y-79137760D01*
X176729142Y-79113726D01*
X176719767Y-79091086D01*
X176715794Y-79085139D01*
X176694642Y-79045567D01*
X176684148Y-79010974D01*
X176680000Y-78968859D01*
X176680000Y-78603024D01*
X176677598Y-78578638D01*
X176670485Y-78555189D01*
X176658934Y-78533578D01*
X176643389Y-78514636D01*
X176624447Y-78499091D01*
X176602836Y-78487540D01*
X176579387Y-78480427D01*
X176555001Y-78478025D01*
X176530615Y-78480427D01*
X176507166Y-78487540D01*
X176485555Y-78499091D01*
X176466613Y-78514636D01*
X176451068Y-78533578D01*
X176449922Y-78535491D01*
X176425386Y-78565386D01*
X176397440Y-78588322D01*
X176365567Y-78605358D01*
X176330974Y-78615852D01*
X176288859Y-78620000D01*
X175681141Y-78620000D01*
X175639026Y-78615852D01*
X175604433Y-78605358D01*
X175564873Y-78584213D01*
X175558934Y-78580244D01*
X175536297Y-78570865D01*
X175512264Y-78566082D01*
X175487760Y-78566080D01*
X175463726Y-78570858D01*
X175441086Y-78580233D01*
X175435139Y-78584206D01*
X175395567Y-78605358D01*
X175360974Y-78615852D01*
X175318859Y-78620000D01*
X174711141Y-78620000D01*
X174669026Y-78615852D01*
X174634433Y-78605358D01*
X174602560Y-78588322D01*
X174574614Y-78565386D01*
X174551678Y-78537440D01*
X174534642Y-78505567D01*
X174524148Y-78470974D01*
X174520000Y-78428859D01*
X174520000Y-78013024D01*
X176480000Y-78013024D01*
X176480000Y-78186976D01*
X176482402Y-78211362D01*
X176489515Y-78234811D01*
X176501066Y-78256422D01*
X176516611Y-78275364D01*
X176535553Y-78290909D01*
X176557164Y-78302460D01*
X176580613Y-78309573D01*
X176604999Y-78311975D01*
X176629385Y-78309573D01*
X176652834Y-78302460D01*
X176674445Y-78290909D01*
X176693387Y-78275364D01*
X176708932Y-78256422D01*
X176710078Y-78254509D01*
X176734614Y-78224614D01*
X176768717Y-78196625D01*
X176786043Y-78179297D01*
X176799657Y-78158923D01*
X176809034Y-78136284D01*
X176813814Y-78112251D01*
X176813814Y-78087747D01*
X176809033Y-78063713D01*
X176799656Y-78041075D01*
X176786042Y-78020700D01*
X176768717Y-78003375D01*
X176734614Y-77975386D01*
X176706890Y-77941605D01*
X176701625Y-77933726D01*
X176684298Y-77916399D01*
X176663923Y-77902785D01*
X176641285Y-77893408D01*
X176617251Y-77888627D01*
X176592747Y-77888627D01*
X176568714Y-77893407D01*
X176546075Y-77902785D01*
X176525701Y-77916398D01*
X176508374Y-77933725D01*
X176494760Y-77954100D01*
X176485383Y-77976738D01*
X176480602Y-78000772D01*
X176480000Y-78013024D01*
X174520000Y-78013024D01*
X174520000Y-77771141D01*
X174524148Y-77729026D01*
X174534642Y-77694433D01*
X174551678Y-77662560D01*
X174574614Y-77634614D01*
X174602560Y-77611678D01*
X174634433Y-77594642D01*
X174669026Y-77584148D01*
X174711141Y-77580000D01*
X175318859Y-77580000D01*
X175360974Y-77584148D01*
X175395567Y-77594642D01*
X175435127Y-77615787D01*
X175441066Y-77619756D01*
X175463703Y-77629135D01*
X175487736Y-77633918D01*
X175512240Y-77633920D01*
X175536274Y-77629142D01*
X175558914Y-77619767D01*
X175564861Y-77615794D01*
X175604433Y-77594642D01*
X175639026Y-77584148D01*
X175681141Y-77580000D01*
X176288859Y-77580000D01*
X176330974Y-77584148D01*
X176365567Y-77594642D01*
X176397440Y-77611678D01*
X176425386Y-77634614D01*
X176453110Y-77668395D01*
X176458375Y-77676274D01*
X176475702Y-77693601D01*
X176496077Y-77707215D01*
X176518715Y-77716592D01*
X176542749Y-77721373D01*
X176567253Y-77721373D01*
X176591286Y-77716593D01*
X176613925Y-77707215D01*
X176634299Y-77693602D01*
X176651626Y-77676275D01*
X176665240Y-77655900D01*
X176674617Y-77633262D01*
X176679398Y-77609228D01*
X176680000Y-77596976D01*
X176680000Y-77231141D01*
X176684148Y-77189026D01*
X176694642Y-77154433D01*
X176715787Y-77114873D01*
X176719756Y-77108934D01*
X176729135Y-77086297D01*
X176733918Y-77062264D01*
X176733920Y-77037760D01*
X176729142Y-77013726D01*
X176719767Y-76991086D01*
X176715794Y-76985139D01*
X176694642Y-76945567D01*
X176684148Y-76910974D01*
X176680000Y-76868859D01*
X176680000Y-76603024D01*
X176677598Y-76578638D01*
X176670485Y-76555189D01*
X176658934Y-76533578D01*
X176643389Y-76514636D01*
X176624447Y-76499091D01*
X176602836Y-76487540D01*
X176579387Y-76480427D01*
X176555001Y-76478025D01*
X176530615Y-76480427D01*
X176507166Y-76487540D01*
X176485555Y-76499091D01*
X176466613Y-76514636D01*
X176451068Y-76533578D01*
X176449922Y-76535491D01*
X176425386Y-76565386D01*
X176397440Y-76588322D01*
X176365567Y-76605358D01*
X176330974Y-76615852D01*
X176288859Y-76620000D01*
X175681141Y-76620000D01*
X175639026Y-76615852D01*
X175604433Y-76605358D01*
X175564873Y-76584213D01*
X175558934Y-76580244D01*
X175536297Y-76570865D01*
X175512264Y-76566082D01*
X175487760Y-76566080D01*
X175463726Y-76570858D01*
X175441086Y-76580233D01*
X175435139Y-76584206D01*
X175395567Y-76605358D01*
X175360974Y-76615852D01*
X175318859Y-76620000D01*
X174711141Y-76620000D01*
X174669026Y-76615852D01*
X174634433Y-76605358D01*
X174602560Y-76588322D01*
X174574614Y-76565386D01*
X174551678Y-76537440D01*
X174534642Y-76505567D01*
X174524148Y-76470974D01*
X174520000Y-76428859D01*
X174520000Y-76013024D01*
X176480000Y-76013024D01*
X176480000Y-76086976D01*
X176482402Y-76111362D01*
X176489515Y-76134811D01*
X176501066Y-76156422D01*
X176516611Y-76175364D01*
X176535553Y-76190909D01*
X176557164Y-76202460D01*
X176580613Y-76209573D01*
X176604999Y-76211975D01*
X176629385Y-76209573D01*
X176652834Y-76202460D01*
X176674445Y-76190909D01*
X176693387Y-76175364D01*
X176708932Y-76156422D01*
X176710081Y-76154505D01*
X176730767Y-76129299D01*
X176744381Y-76108924D01*
X176753759Y-76086285D01*
X176758539Y-76062252D01*
X176758539Y-76037748D01*
X176753759Y-76013715D01*
X176744381Y-75991076D01*
X176730767Y-75970701D01*
X176706893Y-75941611D01*
X176701625Y-75933726D01*
X176684298Y-75916399D01*
X176663923Y-75902785D01*
X176641285Y-75893408D01*
X176617251Y-75888627D01*
X176592747Y-75888627D01*
X176568714Y-75893407D01*
X176546075Y-75902785D01*
X176525701Y-75916398D01*
X176508374Y-75933725D01*
X176494760Y-75954100D01*
X176485383Y-75976738D01*
X176480602Y-76000772D01*
X176480000Y-76013024D01*
X174520000Y-76013024D01*
X174520000Y-75771141D01*
X174524148Y-75729026D01*
X174534642Y-75694433D01*
X174551678Y-75662560D01*
X174574614Y-75634614D01*
X174602560Y-75611678D01*
X174634433Y-75594642D01*
X174669026Y-75584148D01*
X174711141Y-75580000D01*
X175318859Y-75580000D01*
X175360974Y-75584148D01*
X175395567Y-75594642D01*
X175435127Y-75615787D01*
X175441066Y-75619756D01*
X175463703Y-75629135D01*
X175487736Y-75633918D01*
X175512240Y-75633920D01*
X175536274Y-75629142D01*
X175558914Y-75619767D01*
X175564861Y-75615794D01*
X175604433Y-75594642D01*
X175639026Y-75584148D01*
X175681141Y-75580000D01*
X176288859Y-75580000D01*
X176330974Y-75584148D01*
X176365567Y-75594642D01*
X176397440Y-75611678D01*
X176425386Y-75634614D01*
X176453110Y-75668395D01*
X176458375Y-75676274D01*
X176475702Y-75693601D01*
X176496077Y-75707215D01*
X176518715Y-75716592D01*
X176542749Y-75721373D01*
X176567253Y-75721373D01*
X176591286Y-75716593D01*
X176613925Y-75707215D01*
X176634299Y-75693602D01*
X176651626Y-75676275D01*
X176665240Y-75655900D01*
X176674617Y-75633262D01*
X176679398Y-75609228D01*
X176680000Y-75596976D01*
X176680000Y-75231141D01*
X176684148Y-75189026D01*
X176694642Y-75154433D01*
X176715787Y-75114873D01*
X176719756Y-75108934D01*
X176729135Y-75086297D01*
X176733918Y-75062264D01*
X176733920Y-75037760D01*
X176729142Y-75013726D01*
X176719767Y-74991086D01*
X176715794Y-74985139D01*
X176694642Y-74945567D01*
X176684148Y-74910974D01*
X176680000Y-74868859D01*
X176680000Y-74261141D01*
X176684148Y-74219026D01*
X176694642Y-74184433D01*
X176711678Y-74152560D01*
X176734614Y-74124614D01*
X176762560Y-74101678D01*
X176794433Y-74084642D01*
X176829026Y-74074148D01*
X176871141Y-74070000D01*
X177528859Y-74070000D01*
X177570974Y-74074148D01*
G37*
G36*
X124075000Y-72690000D02*
G01*
X123999999Y-72690000D01*
X123975613Y-72692402D01*
X123952164Y-72699515D01*
X123930553Y-72711066D01*
X123911611Y-72726611D01*
X123896066Y-72745553D01*
X123884515Y-72767164D01*
X123877402Y-72790613D01*
X123875000Y-72814999D01*
X123875000Y-73565001D01*
X123877402Y-73589387D01*
X123884515Y-73612836D01*
X123896066Y-73634447D01*
X123911611Y-73653389D01*
X123930553Y-73668934D01*
X123952164Y-73680485D01*
X123975613Y-73687598D01*
X123999999Y-73690000D01*
X124075000Y-73690000D01*
X124075000Y-74890000D01*
X123999999Y-74890000D01*
X123975613Y-74892402D01*
X123952164Y-74899515D01*
X123930553Y-74911066D01*
X123911611Y-74926611D01*
X123896066Y-74945553D01*
X123884515Y-74967164D01*
X123877402Y-74990613D01*
X123875000Y-75014999D01*
X123875000Y-75765001D01*
X123877402Y-75789387D01*
X123884515Y-75812836D01*
X123896066Y-75834447D01*
X123911611Y-75853389D01*
X123930553Y-75868934D01*
X123952164Y-75880485D01*
X123975613Y-75887598D01*
X123999999Y-75890000D01*
X124075000Y-75890000D01*
X124075000Y-76865001D01*
X124077402Y-76889387D01*
X124084515Y-76912836D01*
X124096066Y-76934447D01*
X124111611Y-76953389D01*
X124130553Y-76968934D01*
X124152164Y-76980485D01*
X124175613Y-76987598D01*
X124199999Y-76990000D01*
X124475000Y-76990000D01*
X124475000Y-78190000D01*
X124199999Y-78190000D01*
X124175613Y-78192402D01*
X124152164Y-78199515D01*
X124130553Y-78211066D01*
X124111611Y-78226611D01*
X124096066Y-78245553D01*
X124084515Y-78267164D01*
X124077402Y-78290613D01*
X124075000Y-78314999D01*
X124075000Y-79290000D01*
X121675000Y-79290000D01*
X121675000Y-78090000D01*
X121950001Y-78090000D01*
X121974387Y-78087598D01*
X121997836Y-78080485D01*
X122019447Y-78068934D01*
X122038389Y-78053389D01*
X122053934Y-78034447D01*
X122065485Y-78012836D01*
X122072598Y-77989387D01*
X122075000Y-77965001D01*
X122075000Y-77214999D01*
X122072598Y-77190613D01*
X122065485Y-77167164D01*
X122053934Y-77145553D01*
X122038389Y-77126611D01*
X122019447Y-77111066D01*
X121997836Y-77099515D01*
X121974387Y-77092402D01*
X121950001Y-77090000D01*
X121675000Y-77090000D01*
X121675000Y-76114999D01*
X121672598Y-76090613D01*
X121665485Y-76067164D01*
X121653934Y-76045553D01*
X121638389Y-76026611D01*
X121619447Y-76011066D01*
X121597836Y-75999515D01*
X121574387Y-75992402D01*
X121550001Y-75990000D01*
X121475000Y-75990000D01*
X121475000Y-74790000D01*
X121550001Y-74790000D01*
X121574387Y-74787598D01*
X121597836Y-74780485D01*
X121619447Y-74768934D01*
X121638389Y-74753389D01*
X121653934Y-74734447D01*
X121665485Y-74712836D01*
X121672598Y-74689387D01*
X121675000Y-74665001D01*
X121675000Y-73914999D01*
X121672598Y-73890613D01*
X121665485Y-73867164D01*
X121653934Y-73845553D01*
X121638389Y-73826611D01*
X121619447Y-73811066D01*
X121597836Y-73799515D01*
X121574387Y-73792402D01*
X121550001Y-73790000D01*
X121475000Y-73790000D01*
X121475000Y-72590000D01*
X121550001Y-72590000D01*
X121574387Y-72587598D01*
X121597836Y-72580485D01*
X121619447Y-72568934D01*
X121638389Y-72553389D01*
X121653934Y-72534447D01*
X121665485Y-72512836D01*
X121672598Y-72489387D01*
X121675000Y-72465001D01*
X121675000Y-70390000D01*
X124075000Y-70390000D01*
X124075000Y-72690000D01*
G37*
G36*
X134325000Y-78600000D02*
G01*
X132525000Y-78600000D01*
X132525000Y-76400000D01*
X134325000Y-76400000D01*
X134325000Y-78600000D01*
G37*
G36*
X176600000Y-70075001D02*
G01*
X176602402Y-70099387D01*
X176609515Y-70122836D01*
X176621066Y-70144447D01*
X176636611Y-70163389D01*
X176655553Y-70178934D01*
X176677164Y-70190485D01*
X176700613Y-70197598D01*
X176724999Y-70200000D01*
X178100000Y-70200000D01*
X178100000Y-72800000D01*
X176724999Y-72800000D01*
X176700613Y-72802402D01*
X176677164Y-72809515D01*
X176655553Y-72821066D01*
X176636611Y-72836611D01*
X176621066Y-72855553D01*
X176609515Y-72877164D01*
X176602402Y-72900613D01*
X176600000Y-72924999D01*
X176600000Y-73700000D01*
X175200000Y-73700000D01*
X175200000Y-72924999D01*
X175197598Y-72900613D01*
X175190485Y-72877164D01*
X175178934Y-72855553D01*
X175163389Y-72836611D01*
X175144447Y-72821066D01*
X175122836Y-72809515D01*
X175099387Y-72802402D01*
X175075001Y-72800000D01*
X173700000Y-72800000D01*
X173700000Y-70824999D01*
X175150000Y-70824999D01*
X175150000Y-72175001D01*
X175152402Y-72199387D01*
X175159515Y-72222836D01*
X175171066Y-72244447D01*
X175186611Y-72263389D01*
X175205553Y-72278934D01*
X175227164Y-72290485D01*
X175250613Y-72297598D01*
X175274999Y-72300000D01*
X176525001Y-72300000D01*
X176549387Y-72297598D01*
X176572836Y-72290485D01*
X176594447Y-72278934D01*
X176613389Y-72263389D01*
X176628934Y-72244447D01*
X176640485Y-72222836D01*
X176647598Y-72199387D01*
X176650000Y-72175001D01*
X176650000Y-70824999D01*
X176647598Y-70800613D01*
X176640485Y-70777164D01*
X176628934Y-70755553D01*
X176613389Y-70736611D01*
X176594447Y-70721066D01*
X176572836Y-70709515D01*
X176549387Y-70702402D01*
X176525001Y-70700000D01*
X175274999Y-70700000D01*
X175250613Y-70702402D01*
X175227164Y-70709515D01*
X175205553Y-70721066D01*
X175186611Y-70736611D01*
X175171066Y-70755553D01*
X175159515Y-70777164D01*
X175152402Y-70800613D01*
X175150000Y-70824999D01*
X173700000Y-70824999D01*
X173700000Y-70200000D01*
X175075001Y-70200000D01*
X175099387Y-70197598D01*
X175122836Y-70190485D01*
X175144447Y-70178934D01*
X175163389Y-70163389D01*
X175178934Y-70144447D01*
X175190485Y-70122836D01*
X175197598Y-70099387D01*
X175200000Y-70075001D01*
X175200000Y-69300000D01*
X176600000Y-69300000D01*
X176600000Y-70075001D01*
G37*
G36*
X134325000Y-72900000D02*
G01*
X132525000Y-72900000D01*
X132525000Y-70700000D01*
X134325000Y-70700000D01*
X134325000Y-72900000D01*
G37*
G36*
X136475974Y-70484148D02*
G01*
X136510567Y-70494642D01*
X136550127Y-70515787D01*
X136556066Y-70519756D01*
X136578703Y-70529135D01*
X136602736Y-70533918D01*
X136627240Y-70533920D01*
X136651274Y-70529142D01*
X136673914Y-70519767D01*
X136679861Y-70515794D01*
X136719433Y-70494642D01*
X136754026Y-70484148D01*
X136796141Y-70480000D01*
X137403859Y-70480000D01*
X137445974Y-70484148D01*
X137480567Y-70494642D01*
X137512440Y-70511678D01*
X137540386Y-70534614D01*
X137563322Y-70562560D01*
X137580358Y-70594433D01*
X137590852Y-70629026D01*
X137595000Y-70671141D01*
X137595000Y-71328859D01*
X137590852Y-71370974D01*
X137580358Y-71405567D01*
X137563322Y-71437440D01*
X137540386Y-71465386D01*
X137512440Y-71488322D01*
X137480567Y-71505358D01*
X137445974Y-71515852D01*
X137403859Y-71520000D01*
X136796141Y-71520000D01*
X136754026Y-71515852D01*
X136719433Y-71505358D01*
X136679873Y-71484213D01*
X136673934Y-71480244D01*
X136651297Y-71470865D01*
X136627264Y-71466082D01*
X136602760Y-71466080D01*
X136578726Y-71470858D01*
X136556086Y-71480233D01*
X136550139Y-71484206D01*
X136510567Y-71505358D01*
X136475974Y-71515852D01*
X136433859Y-71520000D01*
X135826141Y-71520000D01*
X135784026Y-71515852D01*
X135749433Y-71505358D01*
X135717560Y-71488322D01*
X135689614Y-71465386D01*
X135666678Y-71437440D01*
X135649642Y-71405567D01*
X135639148Y-71370974D01*
X135635000Y-71328859D01*
X135635000Y-70671141D01*
X135639148Y-70629026D01*
X135649642Y-70594433D01*
X135666678Y-70562560D01*
X135689614Y-70534614D01*
X135717560Y-70511678D01*
X135749433Y-70494642D01*
X135784026Y-70484148D01*
X135826141Y-70480000D01*
X136433859Y-70480000D01*
X136475974Y-70484148D01*
G37*
G36*
X171718766Y-69778821D02*
G01*
X171855257Y-69835358D01*
X171978097Y-69917437D01*
X172082563Y-70021903D01*
X172164642Y-70144743D01*
X172221179Y-70281234D01*
X172250000Y-70426130D01*
X172250000Y-70573870D01*
X172221179Y-70718766D01*
X172164642Y-70855257D01*
X172082563Y-70978097D01*
X171978097Y-71082563D01*
X171855257Y-71164642D01*
X171718766Y-71221179D01*
X171573870Y-71250000D01*
X171426130Y-71250000D01*
X171281234Y-71221179D01*
X171144743Y-71164642D01*
X171021903Y-71082563D01*
X170917437Y-70978097D01*
X170835358Y-70855257D01*
X170778821Y-70718766D01*
X170750000Y-70573870D01*
X170750000Y-70426130D01*
X170778821Y-70281234D01*
X170835358Y-70144743D01*
X170917437Y-70021903D01*
X171021903Y-69917437D01*
X171144743Y-69835358D01*
X171281234Y-69778821D01*
X171426130Y-69750000D01*
X171573870Y-69750000D01*
X171718766Y-69778821D01*
G37*
G36*
X121425000Y-71100000D02*
G01*
X119125000Y-71100000D01*
X119125000Y-69300000D01*
X121425000Y-69300000D01*
X121425000Y-71100000D01*
G37*
M02*
