G04 #@! TF.GenerationSoftware,KiCad,Pcbnew,5.1.6+dfsg1-1~bpo10+1*
G04 #@! TF.CreationDate,2021-06-19T16:41:49-04:00*
G04 #@! TF.ProjectId,RUSP_Daughterboard,52555350-5f44-4617-9567-68746572626f,rev?*
G04 #@! TF.SameCoordinates,Original*
G04 #@! TF.FileFunction,Soldermask,Bot*
G04 #@! TF.FilePolarity,Negative*
%FSLAX46Y46*%
G04 Gerber Fmt 4.6, Leading zero omitted, Abs format (unit mm)*
G04 Created by KiCad (PCBNEW 5.1.6+dfsg1-1~bpo10+1) date 2021-06-19 16:41:49*
%MOMM*%
%LPD*%
G01*
G04 APERTURE LIST*
%ADD10C,0.100000*%
G04 APERTURE END LIST*
D10*
G36*
X166945000Y-134397500D02*
G01*
X165946619Y-134397500D01*
X165922233Y-134399902D01*
X165898784Y-134407015D01*
X165877173Y-134418566D01*
X165858231Y-134434111D01*
X165842686Y-134453053D01*
X165831135Y-134474664D01*
X165824022Y-134498113D01*
X165821620Y-134522499D01*
X165824022Y-134546885D01*
X165831135Y-134570334D01*
X165842686Y-134591945D01*
X165858231Y-134610887D01*
X165877173Y-134626432D01*
X165898784Y-134637983D01*
X165909179Y-134642289D01*
X165909180Y-134642289D01*
X166014733Y-134686011D01*
X166109728Y-134749485D01*
X166190515Y-134830272D01*
X166253989Y-134925267D01*
X166297711Y-135030820D01*
X166320000Y-135142875D01*
X166320000Y-135257125D01*
X166297711Y-135369180D01*
X166253989Y-135474733D01*
X166190515Y-135569728D01*
X166109728Y-135650515D01*
X166014733Y-135713989D01*
X166014732Y-135713990D01*
X166014731Y-135713990D01*
X165898784Y-135762017D01*
X165877173Y-135773568D01*
X165858231Y-135789113D01*
X165842686Y-135808055D01*
X165831135Y-135829666D01*
X165824022Y-135853115D01*
X165821620Y-135877501D01*
X165824022Y-135901887D01*
X165831135Y-135925336D01*
X165842686Y-135946947D01*
X165858231Y-135965889D01*
X165877173Y-135981434D01*
X165898784Y-135992985D01*
X165922233Y-136000098D01*
X165946619Y-136002500D01*
X166945000Y-136002500D01*
X166945000Y-138077500D01*
X159455000Y-138077500D01*
X159455000Y-136002500D01*
X160453381Y-136002500D01*
X160477767Y-136000098D01*
X160501216Y-135992985D01*
X160522827Y-135981434D01*
X160541769Y-135965889D01*
X160557314Y-135946947D01*
X160568865Y-135925336D01*
X160575978Y-135901887D01*
X160578380Y-135877501D01*
X160575978Y-135853115D01*
X160568865Y-135829666D01*
X160557314Y-135808055D01*
X160541769Y-135789113D01*
X160522827Y-135773568D01*
X160501216Y-135762017D01*
X160385269Y-135713990D01*
X160385268Y-135713990D01*
X160385267Y-135713989D01*
X160290272Y-135650515D01*
X160209485Y-135569728D01*
X160146011Y-135474733D01*
X160102289Y-135369180D01*
X160080000Y-135257125D01*
X160080000Y-135142875D01*
X160102289Y-135030820D01*
X160146011Y-134925267D01*
X160209485Y-134830272D01*
X160290272Y-134749485D01*
X160385267Y-134686011D01*
X160490820Y-134642289D01*
X160490821Y-134642289D01*
X160501216Y-134637983D01*
X160522827Y-134626432D01*
X160541769Y-134610887D01*
X160557314Y-134591945D01*
X160568865Y-134570334D01*
X160575978Y-134546885D01*
X160578380Y-134522499D01*
X160741620Y-134522499D01*
X160744022Y-134546885D01*
X160751135Y-134570334D01*
X160762686Y-134591945D01*
X160778231Y-134610887D01*
X160797173Y-134626432D01*
X160818784Y-134637983D01*
X160829179Y-134642289D01*
X160829180Y-134642289D01*
X160934733Y-134686011D01*
X161029728Y-134749485D01*
X161110515Y-134830272D01*
X161173989Y-134925267D01*
X161217711Y-135030820D01*
X161240000Y-135142875D01*
X161240000Y-135257125D01*
X161217711Y-135369180D01*
X161173989Y-135474733D01*
X161110515Y-135569728D01*
X161029728Y-135650515D01*
X160934733Y-135713989D01*
X160934732Y-135713990D01*
X160934731Y-135713990D01*
X160818784Y-135762017D01*
X160797173Y-135773568D01*
X160778231Y-135789113D01*
X160762686Y-135808055D01*
X160751135Y-135829666D01*
X160744022Y-135853115D01*
X160741620Y-135877501D01*
X160744022Y-135901887D01*
X160751135Y-135925336D01*
X160762686Y-135946947D01*
X160778231Y-135965889D01*
X160797173Y-135981434D01*
X160818784Y-135992985D01*
X160842233Y-136000098D01*
X160866619Y-136002500D01*
X165533381Y-136002500D01*
X165557767Y-136000098D01*
X165581216Y-135992985D01*
X165602827Y-135981434D01*
X165621769Y-135965889D01*
X165637314Y-135946947D01*
X165648865Y-135925336D01*
X165655978Y-135901887D01*
X165658380Y-135877501D01*
X165655978Y-135853115D01*
X165648865Y-135829666D01*
X165637314Y-135808055D01*
X165621769Y-135789113D01*
X165602827Y-135773568D01*
X165581216Y-135762017D01*
X165465269Y-135713990D01*
X165465268Y-135713990D01*
X165465267Y-135713989D01*
X165370272Y-135650515D01*
X165289485Y-135569728D01*
X165226011Y-135474733D01*
X165182289Y-135369180D01*
X165160000Y-135257125D01*
X165160000Y-135142875D01*
X165182289Y-135030820D01*
X165226011Y-134925267D01*
X165289485Y-134830272D01*
X165370272Y-134749485D01*
X165465267Y-134686011D01*
X165570820Y-134642289D01*
X165570821Y-134642289D01*
X165581216Y-134637983D01*
X165602827Y-134626432D01*
X165621769Y-134610887D01*
X165637314Y-134591945D01*
X165648865Y-134570334D01*
X165655978Y-134546885D01*
X165658380Y-134522499D01*
X165655978Y-134498113D01*
X165648865Y-134474664D01*
X165637314Y-134453053D01*
X165621769Y-134434111D01*
X165602827Y-134418566D01*
X165581216Y-134407015D01*
X165557767Y-134399902D01*
X165533381Y-134397500D01*
X160866619Y-134397500D01*
X160842233Y-134399902D01*
X160818784Y-134407015D01*
X160797173Y-134418566D01*
X160778231Y-134434111D01*
X160762686Y-134453053D01*
X160751135Y-134474664D01*
X160744022Y-134498113D01*
X160741620Y-134522499D01*
X160578380Y-134522499D01*
X160575978Y-134498113D01*
X160568865Y-134474664D01*
X160557314Y-134453053D01*
X160541769Y-134434111D01*
X160522827Y-134418566D01*
X160501216Y-134407015D01*
X160477767Y-134399902D01*
X160453381Y-134397500D01*
X159455000Y-134397500D01*
X159455000Y-132322500D01*
X166945000Y-132322500D01*
X166945000Y-134397500D01*
G37*
G36*
X171718766Y-136278821D02*
G01*
X171855257Y-136335358D01*
X171978097Y-136417437D01*
X172082563Y-136521903D01*
X172164642Y-136644743D01*
X172221179Y-136781234D01*
X172250000Y-136926130D01*
X172250000Y-137073870D01*
X172221179Y-137218766D01*
X172164642Y-137355257D01*
X172082563Y-137478097D01*
X171978097Y-137582563D01*
X171855257Y-137664642D01*
X171718766Y-137721179D01*
X171573870Y-137750000D01*
X171426130Y-137750000D01*
X171281234Y-137721179D01*
X171144743Y-137664642D01*
X171021903Y-137582563D01*
X170917437Y-137478097D01*
X170835358Y-137355257D01*
X170778821Y-137218766D01*
X170750000Y-137073870D01*
X170750000Y-136926130D01*
X170778821Y-136781234D01*
X170835358Y-136644743D01*
X170917437Y-136521903D01*
X171021903Y-136417437D01*
X171144743Y-136335358D01*
X171281234Y-136278821D01*
X171426130Y-136250000D01*
X171573870Y-136250000D01*
X171718766Y-136278821D01*
G37*
G36*
X154253617Y-132724979D02*
G01*
X154379196Y-132749958D01*
X154615781Y-132847955D01*
X154828702Y-132990224D01*
X155009776Y-133171298D01*
X155152045Y-133384219D01*
X155250042Y-133620804D01*
X155300000Y-133871961D01*
X155300000Y-134128039D01*
X155250042Y-134379196D01*
X155152045Y-134615781D01*
X155009776Y-134828702D01*
X154828702Y-135009776D01*
X154615781Y-135152045D01*
X154379196Y-135250042D01*
X154253617Y-135275021D01*
X154128040Y-135300000D01*
X153871960Y-135300000D01*
X153746383Y-135275021D01*
X153620804Y-135250042D01*
X153384219Y-135152045D01*
X153171298Y-135009776D01*
X152990224Y-134828702D01*
X152847955Y-134615781D01*
X152749958Y-134379196D01*
X152700000Y-134128039D01*
X152700000Y-133871961D01*
X152749958Y-133620804D01*
X152847955Y-133384219D01*
X152990224Y-133171298D01*
X153171298Y-132990224D01*
X153384219Y-132847955D01*
X153620804Y-132749958D01*
X153746383Y-132724979D01*
X153871960Y-132700000D01*
X154128040Y-132700000D01*
X154253617Y-132724979D01*
G37*
G36*
X166945000Y-126697500D02*
G01*
X165946619Y-126697500D01*
X165922233Y-126699902D01*
X165898784Y-126707015D01*
X165877173Y-126718566D01*
X165858231Y-126734111D01*
X165842686Y-126753053D01*
X165831135Y-126774664D01*
X165824022Y-126798113D01*
X165821620Y-126822499D01*
X165824022Y-126846885D01*
X165831135Y-126870334D01*
X165842686Y-126891945D01*
X165858231Y-126910887D01*
X165877173Y-126926432D01*
X165898784Y-126937983D01*
X165909179Y-126942289D01*
X165909180Y-126942289D01*
X166014733Y-126986011D01*
X166109728Y-127049485D01*
X166190515Y-127130272D01*
X166253989Y-127225267D01*
X166297711Y-127330820D01*
X166320000Y-127442875D01*
X166320000Y-127557125D01*
X166297711Y-127669180D01*
X166253989Y-127774733D01*
X166190515Y-127869728D01*
X166109728Y-127950515D01*
X166014733Y-128013989D01*
X166014732Y-128013990D01*
X166014731Y-128013990D01*
X165898784Y-128062017D01*
X165877173Y-128073568D01*
X165858231Y-128089113D01*
X165842686Y-128108055D01*
X165831135Y-128129666D01*
X165824022Y-128153115D01*
X165821620Y-128177501D01*
X165824022Y-128201887D01*
X165831135Y-128225336D01*
X165842686Y-128246947D01*
X165858231Y-128265889D01*
X165877173Y-128281434D01*
X165898784Y-128292985D01*
X165922233Y-128300098D01*
X165946619Y-128302500D01*
X166945000Y-128302500D01*
X166945000Y-130377500D01*
X159455000Y-130377500D01*
X159455000Y-128302500D01*
X160453381Y-128302500D01*
X160477767Y-128300098D01*
X160501216Y-128292985D01*
X160522827Y-128281434D01*
X160541769Y-128265889D01*
X160557314Y-128246947D01*
X160568865Y-128225336D01*
X160575978Y-128201887D01*
X160578380Y-128177501D01*
X160575978Y-128153115D01*
X160568865Y-128129666D01*
X160557314Y-128108055D01*
X160541769Y-128089113D01*
X160522827Y-128073568D01*
X160501216Y-128062017D01*
X160385269Y-128013990D01*
X160385268Y-128013990D01*
X160385267Y-128013989D01*
X160290272Y-127950515D01*
X160209485Y-127869728D01*
X160146011Y-127774733D01*
X160102289Y-127669180D01*
X160080000Y-127557125D01*
X160080000Y-127442875D01*
X160102289Y-127330820D01*
X160146011Y-127225267D01*
X160209485Y-127130272D01*
X160290272Y-127049485D01*
X160385267Y-126986011D01*
X160490820Y-126942289D01*
X160490821Y-126942289D01*
X160501216Y-126937983D01*
X160522827Y-126926432D01*
X160541769Y-126910887D01*
X160557314Y-126891945D01*
X160568865Y-126870334D01*
X160575978Y-126846885D01*
X160578380Y-126822499D01*
X160741620Y-126822499D01*
X160744022Y-126846885D01*
X160751135Y-126870334D01*
X160762686Y-126891945D01*
X160778231Y-126910887D01*
X160797173Y-126926432D01*
X160818784Y-126937983D01*
X160829179Y-126942289D01*
X160829180Y-126942289D01*
X160934733Y-126986011D01*
X161029728Y-127049485D01*
X161110515Y-127130272D01*
X161173989Y-127225267D01*
X161217711Y-127330820D01*
X161240000Y-127442875D01*
X161240000Y-127557125D01*
X161217711Y-127669180D01*
X161173989Y-127774733D01*
X161110515Y-127869728D01*
X161029728Y-127950515D01*
X160934733Y-128013989D01*
X160934732Y-128013990D01*
X160934731Y-128013990D01*
X160818784Y-128062017D01*
X160797173Y-128073568D01*
X160778231Y-128089113D01*
X160762686Y-128108055D01*
X160751135Y-128129666D01*
X160744022Y-128153115D01*
X160741620Y-128177501D01*
X160744022Y-128201887D01*
X160751135Y-128225336D01*
X160762686Y-128246947D01*
X160778231Y-128265889D01*
X160797173Y-128281434D01*
X160818784Y-128292985D01*
X160842233Y-128300098D01*
X160866619Y-128302500D01*
X165533381Y-128302500D01*
X165557767Y-128300098D01*
X165581216Y-128292985D01*
X165602827Y-128281434D01*
X165621769Y-128265889D01*
X165637314Y-128246947D01*
X165648865Y-128225336D01*
X165655978Y-128201887D01*
X165658380Y-128177501D01*
X165655978Y-128153115D01*
X165648865Y-128129666D01*
X165637314Y-128108055D01*
X165621769Y-128089113D01*
X165602827Y-128073568D01*
X165581216Y-128062017D01*
X165465269Y-128013990D01*
X165465268Y-128013990D01*
X165465267Y-128013989D01*
X165370272Y-127950515D01*
X165289485Y-127869728D01*
X165226011Y-127774733D01*
X165182289Y-127669180D01*
X165160000Y-127557125D01*
X165160000Y-127442875D01*
X165182289Y-127330820D01*
X165226011Y-127225267D01*
X165289485Y-127130272D01*
X165370272Y-127049485D01*
X165465267Y-126986011D01*
X165570820Y-126942289D01*
X165570821Y-126942289D01*
X165581216Y-126937983D01*
X165602827Y-126926432D01*
X165621769Y-126910887D01*
X165637314Y-126891945D01*
X165648865Y-126870334D01*
X165655978Y-126846885D01*
X165658380Y-126822499D01*
X165655978Y-126798113D01*
X165648865Y-126774664D01*
X165637314Y-126753053D01*
X165621769Y-126734111D01*
X165602827Y-126718566D01*
X165581216Y-126707015D01*
X165557767Y-126699902D01*
X165533381Y-126697500D01*
X160866619Y-126697500D01*
X160842233Y-126699902D01*
X160818784Y-126707015D01*
X160797173Y-126718566D01*
X160778231Y-126734111D01*
X160762686Y-126753053D01*
X160751135Y-126774664D01*
X160744022Y-126798113D01*
X160741620Y-126822499D01*
X160578380Y-126822499D01*
X160575978Y-126798113D01*
X160568865Y-126774664D01*
X160557314Y-126753053D01*
X160541769Y-126734111D01*
X160522827Y-126718566D01*
X160501216Y-126707015D01*
X160477767Y-126699902D01*
X160453381Y-126697500D01*
X159455000Y-126697500D01*
X159455000Y-124622500D01*
X166945000Y-124622500D01*
X166945000Y-126697500D01*
G37*
G36*
X154331653Y-126332665D02*
G01*
X154495872Y-126365330D01*
X154805252Y-126493479D01*
X155083687Y-126679523D01*
X155320477Y-126916313D01*
X155506521Y-127194748D01*
X155634670Y-127504128D01*
X155700000Y-127832565D01*
X155700000Y-128167435D01*
X155634670Y-128495872D01*
X155506521Y-128805252D01*
X155320477Y-129083687D01*
X155083687Y-129320477D01*
X154805252Y-129506521D01*
X154495872Y-129634670D01*
X154331653Y-129667335D01*
X154167437Y-129700000D01*
X153832563Y-129700000D01*
X153668347Y-129667335D01*
X153504128Y-129634670D01*
X153194748Y-129506521D01*
X152916313Y-129320477D01*
X152679523Y-129083687D01*
X152493479Y-128805252D01*
X152365330Y-128495872D01*
X152300000Y-128167435D01*
X152300000Y-127832565D01*
X152365330Y-127504128D01*
X152493479Y-127194748D01*
X152679523Y-126916313D01*
X152916313Y-126679523D01*
X153194748Y-126493479D01*
X153504128Y-126365330D01*
X153668347Y-126332665D01*
X153832563Y-126300000D01*
X154167437Y-126300000D01*
X154331653Y-126332665D01*
G37*
G36*
X172560974Y-124034148D02*
G01*
X172595567Y-124044642D01*
X172635127Y-124065787D01*
X172641066Y-124069756D01*
X172663703Y-124079135D01*
X172687736Y-124083918D01*
X172712240Y-124083920D01*
X172736274Y-124079142D01*
X172758914Y-124069767D01*
X172764861Y-124065794D01*
X172804433Y-124044642D01*
X172839026Y-124034148D01*
X172881141Y-124030000D01*
X173488859Y-124030000D01*
X173530974Y-124034148D01*
X173565567Y-124044642D01*
X173597440Y-124061678D01*
X173625386Y-124084614D01*
X173648322Y-124112560D01*
X173665358Y-124144433D01*
X173675852Y-124179026D01*
X173680000Y-124221141D01*
X173680000Y-124878859D01*
X173675852Y-124920974D01*
X173665358Y-124955567D01*
X173648322Y-124987440D01*
X173625386Y-125015386D01*
X173597440Y-125038322D01*
X173565567Y-125055358D01*
X173530974Y-125065852D01*
X173488859Y-125070000D01*
X172881141Y-125070000D01*
X172839026Y-125065852D01*
X172804433Y-125055358D01*
X172764873Y-125034213D01*
X172758934Y-125030244D01*
X172736297Y-125020865D01*
X172712264Y-125016082D01*
X172687760Y-125016080D01*
X172663726Y-125020858D01*
X172641086Y-125030233D01*
X172635139Y-125034206D01*
X172595567Y-125055358D01*
X172560974Y-125065852D01*
X172518859Y-125070000D01*
X171911141Y-125070000D01*
X171869026Y-125065852D01*
X171834433Y-125055358D01*
X171802560Y-125038322D01*
X171774614Y-125015386D01*
X171751678Y-124987440D01*
X171734642Y-124955567D01*
X171724148Y-124920974D01*
X171720000Y-124878859D01*
X171720000Y-124221141D01*
X171724148Y-124179026D01*
X171734642Y-124144433D01*
X171751678Y-124112560D01*
X171774614Y-124084614D01*
X171802560Y-124061678D01*
X171834433Y-124044642D01*
X171869026Y-124034148D01*
X171911141Y-124030000D01*
X172518859Y-124030000D01*
X172560974Y-124034148D01*
G37*
G36*
X177010974Y-123984148D02*
G01*
X177045567Y-123994642D01*
X177085127Y-124015787D01*
X177091066Y-124019756D01*
X177113703Y-124029135D01*
X177137736Y-124033918D01*
X177162240Y-124033920D01*
X177186274Y-124029142D01*
X177208914Y-124019767D01*
X177214861Y-124015794D01*
X177254433Y-123994642D01*
X177289026Y-123984148D01*
X177331141Y-123980000D01*
X177938859Y-123980000D01*
X177980974Y-123984148D01*
X178015567Y-123994642D01*
X178047440Y-124011678D01*
X178075386Y-124034614D01*
X178098322Y-124062560D01*
X178115358Y-124094433D01*
X178125852Y-124129026D01*
X178130000Y-124171141D01*
X178130000Y-124828859D01*
X178125852Y-124870974D01*
X178115358Y-124905567D01*
X178098322Y-124937440D01*
X178075386Y-124965386D01*
X178047440Y-124988322D01*
X178015567Y-125005358D01*
X177980974Y-125015852D01*
X177938859Y-125020000D01*
X177331141Y-125020000D01*
X177289026Y-125015852D01*
X177254433Y-125005358D01*
X177214873Y-124984213D01*
X177208934Y-124980244D01*
X177186297Y-124970865D01*
X177162264Y-124966082D01*
X177137760Y-124966080D01*
X177113726Y-124970858D01*
X177091086Y-124980233D01*
X177085139Y-124984206D01*
X177045567Y-125005358D01*
X177010974Y-125015852D01*
X176968859Y-125020000D01*
X176361141Y-125020000D01*
X176319026Y-125015852D01*
X176284433Y-125005358D01*
X176252560Y-124988322D01*
X176224614Y-124965386D01*
X176201678Y-124937440D01*
X176184642Y-124905567D01*
X176174148Y-124870974D01*
X176170000Y-124828859D01*
X176170000Y-124171141D01*
X176174148Y-124129026D01*
X176184642Y-124094433D01*
X176201678Y-124062560D01*
X176224614Y-124034614D01*
X176252560Y-124011678D01*
X176284433Y-123994642D01*
X176319026Y-123984148D01*
X176361141Y-123980000D01*
X176968859Y-123980000D01*
X177010974Y-123984148D01*
G37*
G36*
X173100000Y-122910000D02*
G01*
X171200000Y-122910000D01*
X171200000Y-121910000D01*
X173100000Y-121910000D01*
X173100000Y-122910000D01*
G37*
G36*
X178500000Y-122910000D02*
G01*
X176600000Y-122910000D01*
X176600000Y-121910000D01*
X178500000Y-121910000D01*
X178500000Y-122910000D01*
G37*
G36*
X169520974Y-119874148D02*
G01*
X169555567Y-119884642D01*
X169587440Y-119901678D01*
X169615386Y-119924614D01*
X169638322Y-119952560D01*
X169655358Y-119984433D01*
X169665852Y-120019026D01*
X169670000Y-120061141D01*
X169670000Y-120668859D01*
X169665852Y-120710974D01*
X169655358Y-120745567D01*
X169634213Y-120785127D01*
X169630244Y-120791066D01*
X169620865Y-120813703D01*
X169616082Y-120837736D01*
X169616080Y-120862240D01*
X169620858Y-120886274D01*
X169630233Y-120908914D01*
X169634206Y-120914861D01*
X169655358Y-120954433D01*
X169665852Y-120989026D01*
X169670000Y-121031141D01*
X169670000Y-121638859D01*
X169665852Y-121680974D01*
X169655358Y-121715567D01*
X169638322Y-121747440D01*
X169615386Y-121775386D01*
X169587440Y-121798322D01*
X169555567Y-121815358D01*
X169520974Y-121825852D01*
X169478859Y-121830000D01*
X168821141Y-121830000D01*
X168779026Y-121825852D01*
X168744433Y-121815358D01*
X168712560Y-121798322D01*
X168684614Y-121775386D01*
X168661678Y-121747440D01*
X168644642Y-121715567D01*
X168634148Y-121680974D01*
X168630000Y-121638859D01*
X168630000Y-121031141D01*
X168634148Y-120989026D01*
X168644642Y-120954433D01*
X168665787Y-120914873D01*
X168669756Y-120908934D01*
X168679135Y-120886297D01*
X168683918Y-120862264D01*
X168683920Y-120837760D01*
X168679142Y-120813726D01*
X168669767Y-120791086D01*
X168665794Y-120785139D01*
X168644642Y-120745567D01*
X168634148Y-120710974D01*
X168630000Y-120668859D01*
X168630000Y-120061141D01*
X168634148Y-120019026D01*
X168644642Y-119984433D01*
X168661678Y-119952560D01*
X168684614Y-119924614D01*
X168712560Y-119901678D01*
X168744433Y-119884642D01*
X168779026Y-119874148D01*
X168821141Y-119870000D01*
X169478859Y-119870000D01*
X169520974Y-119874148D01*
G37*
G36*
X178500000Y-121640000D02*
G01*
X176600000Y-121640000D01*
X176600000Y-120640000D01*
X178500000Y-120640000D01*
X178500000Y-121640000D01*
G37*
G36*
X173100000Y-121640000D02*
G01*
X171200000Y-121640000D01*
X171200000Y-120640000D01*
X173100000Y-120640000D01*
X173100000Y-121640000D01*
G37*
G36*
X178500000Y-120370000D02*
G01*
X176600000Y-120370000D01*
X176600000Y-119370000D01*
X178500000Y-119370000D01*
X178500000Y-120370000D01*
G37*
G36*
X173100000Y-120370000D02*
G01*
X171200000Y-120370000D01*
X171200000Y-119370000D01*
X173100000Y-119370000D01*
X173100000Y-120370000D01*
G37*
G36*
X178500000Y-119100000D02*
G01*
X176600000Y-119100000D01*
X176600000Y-118100000D01*
X178500000Y-118100000D01*
X178500000Y-119100000D01*
G37*
G36*
X173100000Y-119100000D02*
G01*
X171200000Y-119100000D01*
X171200000Y-118100000D01*
X173100000Y-118100000D01*
X173100000Y-119100000D01*
G37*
G36*
X178500000Y-117830000D02*
G01*
X176600000Y-117830000D01*
X176600000Y-116830000D01*
X178500000Y-116830000D01*
X178500000Y-117830000D01*
G37*
G36*
X173100000Y-117830000D02*
G01*
X171200000Y-117830000D01*
X171200000Y-116830000D01*
X173100000Y-116830000D01*
X173100000Y-117830000D01*
G37*
G36*
X173100000Y-116560000D02*
G01*
X171200000Y-116560000D01*
X171200000Y-115560000D01*
X173100000Y-115560000D01*
X173100000Y-116560000D01*
G37*
G36*
X178500000Y-116560000D02*
G01*
X176600000Y-116560000D01*
X176600000Y-115560000D01*
X178500000Y-115560000D01*
X178500000Y-116560000D01*
G37*
G36*
X178500000Y-115290000D02*
G01*
X176600000Y-115290000D01*
X176600000Y-114290000D01*
X178500000Y-114290000D01*
X178500000Y-115290000D01*
G37*
G36*
X173100000Y-115290000D02*
G01*
X171200000Y-115290000D01*
X171200000Y-114290000D01*
X173100000Y-114290000D01*
X173100000Y-115290000D01*
G37*
G36*
X124885974Y-113834148D02*
G01*
X124920567Y-113844642D01*
X124960127Y-113865787D01*
X124966066Y-113869756D01*
X124988703Y-113879135D01*
X125012736Y-113883918D01*
X125037240Y-113883920D01*
X125061274Y-113879142D01*
X125083914Y-113869767D01*
X125089861Y-113865794D01*
X125129433Y-113844642D01*
X125164026Y-113834148D01*
X125206141Y-113830000D01*
X125813859Y-113830000D01*
X125855974Y-113834148D01*
X125890567Y-113844642D01*
X125922440Y-113861678D01*
X125950386Y-113884614D01*
X125973322Y-113912560D01*
X125990358Y-113944433D01*
X126000852Y-113979026D01*
X126005000Y-114021141D01*
X126005000Y-114678859D01*
X126000852Y-114720974D01*
X125990358Y-114755567D01*
X125973322Y-114787440D01*
X125950386Y-114815386D01*
X125922440Y-114838322D01*
X125890567Y-114855358D01*
X125855974Y-114865852D01*
X125813859Y-114870000D01*
X125206141Y-114870000D01*
X125164026Y-114865852D01*
X125129433Y-114855358D01*
X125089873Y-114834213D01*
X125083934Y-114830244D01*
X125061297Y-114820865D01*
X125037264Y-114816082D01*
X125012760Y-114816080D01*
X124988726Y-114820858D01*
X124966086Y-114830233D01*
X124960139Y-114834206D01*
X124920567Y-114855358D01*
X124885974Y-114865852D01*
X124843859Y-114870000D01*
X124236141Y-114870000D01*
X124194026Y-114865852D01*
X124159433Y-114855358D01*
X124127560Y-114838322D01*
X124099614Y-114815386D01*
X124076678Y-114787440D01*
X124059642Y-114755567D01*
X124049148Y-114720974D01*
X124045000Y-114678859D01*
X124045000Y-114021141D01*
X124049148Y-113979026D01*
X124059642Y-113944433D01*
X124076678Y-113912560D01*
X124099614Y-113884614D01*
X124127560Y-113861678D01*
X124159433Y-113844642D01*
X124194026Y-113834148D01*
X124236141Y-113830000D01*
X124843859Y-113830000D01*
X124885974Y-113834148D01*
G37*
G36*
X141253617Y-112224979D02*
G01*
X141379196Y-112249958D01*
X141615781Y-112347955D01*
X141828702Y-112490224D01*
X142009776Y-112671298D01*
X142152045Y-112884219D01*
X142230034Y-113072500D01*
X142250042Y-113120805D01*
X142296698Y-113355358D01*
X142300000Y-113371961D01*
X142300000Y-113628039D01*
X142250042Y-113879196D01*
X142152045Y-114115781D01*
X142009776Y-114328702D01*
X141828702Y-114509776D01*
X141615781Y-114652045D01*
X141379196Y-114750042D01*
X141329113Y-114760004D01*
X141128040Y-114800000D01*
X140871960Y-114800000D01*
X140670887Y-114760004D01*
X140620804Y-114750042D01*
X140384219Y-114652045D01*
X140171298Y-114509776D01*
X139990224Y-114328702D01*
X139847955Y-114115781D01*
X139749958Y-113879196D01*
X139700000Y-113628039D01*
X139700000Y-113371961D01*
X139703303Y-113355358D01*
X139749958Y-113120805D01*
X139769967Y-113072500D01*
X139847955Y-112884219D01*
X139990224Y-112671298D01*
X140171298Y-112490224D01*
X140384219Y-112347955D01*
X140620804Y-112249958D01*
X140746383Y-112224979D01*
X140871960Y-112200000D01*
X141128040Y-112200000D01*
X141253617Y-112224979D01*
G37*
G36*
X124875974Y-112509148D02*
G01*
X124910567Y-112519642D01*
X124950127Y-112540787D01*
X124956066Y-112544756D01*
X124978703Y-112554135D01*
X125002736Y-112558918D01*
X125027240Y-112558920D01*
X125051274Y-112554142D01*
X125073914Y-112544767D01*
X125079861Y-112540794D01*
X125119433Y-112519642D01*
X125154026Y-112509148D01*
X125196141Y-112505000D01*
X125803859Y-112505000D01*
X125845974Y-112509148D01*
X125880567Y-112519642D01*
X125912440Y-112536678D01*
X125940386Y-112559614D01*
X125963322Y-112587560D01*
X125980358Y-112619433D01*
X125990852Y-112654026D01*
X125995000Y-112696141D01*
X125995000Y-113353859D01*
X125990852Y-113395974D01*
X125980358Y-113430567D01*
X125963322Y-113462440D01*
X125940386Y-113490386D01*
X125912440Y-113513322D01*
X125880567Y-113530358D01*
X125845974Y-113540852D01*
X125803859Y-113545000D01*
X125196141Y-113545000D01*
X125154026Y-113540852D01*
X125119433Y-113530358D01*
X125079873Y-113509213D01*
X125073934Y-113505244D01*
X125051297Y-113495865D01*
X125027264Y-113491082D01*
X125002760Y-113491080D01*
X124978726Y-113495858D01*
X124956086Y-113505233D01*
X124950139Y-113509206D01*
X124910567Y-113530358D01*
X124875974Y-113540852D01*
X124833859Y-113545000D01*
X124226141Y-113545000D01*
X124184026Y-113540852D01*
X124149433Y-113530358D01*
X124117560Y-113513322D01*
X124089614Y-113490386D01*
X124066678Y-113462440D01*
X124049642Y-113430567D01*
X124039148Y-113395974D01*
X124035000Y-113353859D01*
X124035000Y-112696141D01*
X124039148Y-112654026D01*
X124049642Y-112619433D01*
X124066678Y-112587560D01*
X124089614Y-112559614D01*
X124117560Y-112536678D01*
X124149433Y-112519642D01*
X124184026Y-112509148D01*
X124226141Y-112505000D01*
X124833859Y-112505000D01*
X124875974Y-112509148D01*
G37*
G36*
X172260974Y-112334148D02*
G01*
X172295567Y-112344642D01*
X172335127Y-112365787D01*
X172341066Y-112369756D01*
X172363703Y-112379135D01*
X172387736Y-112383918D01*
X172412240Y-112383920D01*
X172436274Y-112379142D01*
X172458914Y-112369767D01*
X172464861Y-112365794D01*
X172504433Y-112344642D01*
X172539026Y-112334148D01*
X172581141Y-112330000D01*
X173188859Y-112330000D01*
X173230974Y-112334148D01*
X173265567Y-112344642D01*
X173297440Y-112361678D01*
X173325386Y-112384614D01*
X173348322Y-112412560D01*
X173365358Y-112444433D01*
X173375852Y-112479026D01*
X173380000Y-112521141D01*
X173380000Y-113178859D01*
X173375852Y-113220974D01*
X173365358Y-113255567D01*
X173348322Y-113287440D01*
X173325386Y-113315386D01*
X173297440Y-113338322D01*
X173265567Y-113355358D01*
X173230974Y-113365852D01*
X173188859Y-113370000D01*
X172581141Y-113370000D01*
X172539026Y-113365852D01*
X172504433Y-113355358D01*
X172464873Y-113334213D01*
X172458934Y-113330244D01*
X172436297Y-113320865D01*
X172412264Y-113316082D01*
X172387760Y-113316080D01*
X172363726Y-113320858D01*
X172341086Y-113330233D01*
X172335139Y-113334206D01*
X172295567Y-113355358D01*
X172260974Y-113365852D01*
X172218859Y-113370000D01*
X171611141Y-113370000D01*
X171569026Y-113365852D01*
X171534433Y-113355358D01*
X171502560Y-113338322D01*
X171474614Y-113315386D01*
X171451678Y-113287440D01*
X171434642Y-113255567D01*
X171424148Y-113220974D01*
X171420000Y-113178859D01*
X171420000Y-112521141D01*
X171424148Y-112479026D01*
X171434642Y-112444433D01*
X171451678Y-112412560D01*
X171474614Y-112384614D01*
X171502560Y-112361678D01*
X171534433Y-112344642D01*
X171569026Y-112334148D01*
X171611141Y-112330000D01*
X172218859Y-112330000D01*
X172260974Y-112334148D01*
G37*
G36*
X177160974Y-112284148D02*
G01*
X177195567Y-112294642D01*
X177235127Y-112315787D01*
X177241066Y-112319756D01*
X177263703Y-112329135D01*
X177287736Y-112333918D01*
X177312240Y-112333920D01*
X177336274Y-112329142D01*
X177358914Y-112319767D01*
X177364861Y-112315794D01*
X177404433Y-112294642D01*
X177439026Y-112284148D01*
X177481141Y-112280000D01*
X178088859Y-112280000D01*
X178130974Y-112284148D01*
X178165567Y-112294642D01*
X178197440Y-112311678D01*
X178225386Y-112334614D01*
X178248322Y-112362560D01*
X178265358Y-112394433D01*
X178275852Y-112429026D01*
X178280000Y-112471141D01*
X178280000Y-113128859D01*
X178275852Y-113170974D01*
X178265358Y-113205567D01*
X178248322Y-113237440D01*
X178225386Y-113265386D01*
X178197440Y-113288322D01*
X178165567Y-113305358D01*
X178130974Y-113315852D01*
X178088859Y-113320000D01*
X177481141Y-113320000D01*
X177439026Y-113315852D01*
X177404433Y-113305358D01*
X177364873Y-113284213D01*
X177358934Y-113280244D01*
X177336297Y-113270865D01*
X177312264Y-113266082D01*
X177287760Y-113266080D01*
X177263726Y-113270858D01*
X177241086Y-113280233D01*
X177235139Y-113284206D01*
X177195567Y-113305358D01*
X177160974Y-113315852D01*
X177118859Y-113320000D01*
X176511141Y-113320000D01*
X176469026Y-113315852D01*
X176434433Y-113305358D01*
X176402560Y-113288322D01*
X176374614Y-113265386D01*
X176351678Y-113237440D01*
X176334642Y-113205567D01*
X176324148Y-113170974D01*
X176320000Y-113128859D01*
X176320000Y-112471141D01*
X176324148Y-112429026D01*
X176334642Y-112394433D01*
X176351678Y-112362560D01*
X176374614Y-112334614D01*
X176402560Y-112311678D01*
X176434433Y-112294642D01*
X176469026Y-112284148D01*
X176511141Y-112280000D01*
X177118859Y-112280000D01*
X177160974Y-112284148D01*
G37*
G36*
X123903351Y-109610743D02*
G01*
X124048941Y-109671048D01*
X124179970Y-109758599D01*
X124291401Y-109870030D01*
X124378952Y-110001059D01*
X124439257Y-110146649D01*
X124470000Y-110301206D01*
X124470000Y-110458794D01*
X124439257Y-110613351D01*
X124378952Y-110758941D01*
X124291401Y-110889970D01*
X124179970Y-111001401D01*
X124048941Y-111088952D01*
X123903351Y-111149257D01*
X123748794Y-111180000D01*
X123591206Y-111180000D01*
X123436649Y-111149257D01*
X123291059Y-111088952D01*
X123160030Y-111001401D01*
X123048599Y-110889970D01*
X122961048Y-110758941D01*
X122900743Y-110613351D01*
X122870000Y-110458794D01*
X122870000Y-110301206D01*
X122900743Y-110146649D01*
X122961048Y-110001059D01*
X123048599Y-109870030D01*
X123160030Y-109758599D01*
X123291059Y-109671048D01*
X123436649Y-109610743D01*
X123591206Y-109580000D01*
X123748794Y-109580000D01*
X123903351Y-109610743D01*
G37*
G36*
X142500000Y-111100000D02*
G01*
X140900000Y-111100000D01*
X140900000Y-109800000D01*
X142500000Y-109800000D01*
X142500000Y-111100000D01*
G37*
G36*
X125050974Y-106734148D02*
G01*
X125085567Y-106744642D01*
X125125127Y-106765787D01*
X125131066Y-106769756D01*
X125153703Y-106779135D01*
X125177736Y-106783918D01*
X125202240Y-106783920D01*
X125226274Y-106779142D01*
X125248914Y-106769767D01*
X125254861Y-106765794D01*
X125294433Y-106744642D01*
X125329026Y-106734148D01*
X125371141Y-106730000D01*
X125978859Y-106730000D01*
X126020974Y-106734148D01*
X126055567Y-106744642D01*
X126087440Y-106761678D01*
X126115386Y-106784614D01*
X126138322Y-106812560D01*
X126155358Y-106844433D01*
X126165852Y-106879026D01*
X126170000Y-106921141D01*
X126170000Y-107578859D01*
X126165852Y-107620974D01*
X126155358Y-107655567D01*
X126138322Y-107687440D01*
X126115386Y-107715386D01*
X126087440Y-107738322D01*
X126055567Y-107755358D01*
X126031120Y-107762774D01*
X126008481Y-107772151D01*
X125988106Y-107785765D01*
X125970779Y-107803092D01*
X125957165Y-107823466D01*
X125947788Y-107846105D01*
X125943007Y-107870138D01*
X125943007Y-107894642D01*
X125947787Y-107918675D01*
X125957164Y-107941314D01*
X125970778Y-107961689D01*
X125988104Y-107979016D01*
X126025386Y-108009614D01*
X126048322Y-108037560D01*
X126065358Y-108069433D01*
X126075852Y-108104026D01*
X126080000Y-108146141D01*
X126080000Y-108803859D01*
X126075852Y-108845974D01*
X126065358Y-108880567D01*
X126048322Y-108912440D01*
X126025386Y-108940386D01*
X125997440Y-108963322D01*
X125965567Y-108980358D01*
X125930974Y-108990852D01*
X125888859Y-108995000D01*
X125281141Y-108995000D01*
X125239026Y-108990852D01*
X125204433Y-108980358D01*
X125164873Y-108959213D01*
X125158934Y-108955244D01*
X125136297Y-108945865D01*
X125112264Y-108941082D01*
X125087760Y-108941080D01*
X125063726Y-108945858D01*
X125041086Y-108955233D01*
X125035139Y-108959206D01*
X124995567Y-108980358D01*
X124960974Y-108990852D01*
X124918859Y-108995000D01*
X124311141Y-108995000D01*
X124269026Y-108990852D01*
X124234433Y-108980358D01*
X124202560Y-108963322D01*
X124174614Y-108940386D01*
X124151678Y-108912440D01*
X124134642Y-108880567D01*
X124124148Y-108845974D01*
X124120000Y-108803859D01*
X124120000Y-108146141D01*
X124124148Y-108104026D01*
X124134642Y-108069433D01*
X124151678Y-108037560D01*
X124174614Y-108009614D01*
X124202560Y-107986678D01*
X124234433Y-107969642D01*
X124258880Y-107962226D01*
X124281519Y-107952849D01*
X124301894Y-107939235D01*
X124319221Y-107921908D01*
X124332835Y-107901534D01*
X124342212Y-107878895D01*
X124343953Y-107870140D01*
X124973007Y-107870140D01*
X124973007Y-107894644D01*
X124977788Y-107918677D01*
X124987165Y-107941316D01*
X125000779Y-107961690D01*
X125018094Y-107979007D01*
X125020690Y-107981138D01*
X125041063Y-107994754D01*
X125063700Y-108004134D01*
X125087733Y-108008918D01*
X125112237Y-108008921D01*
X125136271Y-108004143D01*
X125158911Y-107994768D01*
X125164855Y-107990796D01*
X125168115Y-107989054D01*
X125188489Y-107975440D01*
X125193418Y-107970511D01*
X125217097Y-107965800D01*
X125228882Y-107962225D01*
X125251521Y-107952848D01*
X125271895Y-107939234D01*
X125289222Y-107921907D01*
X125302836Y-107901533D01*
X125312213Y-107878894D01*
X125316993Y-107854860D01*
X125316993Y-107830356D01*
X125312212Y-107806323D01*
X125302835Y-107783684D01*
X125289221Y-107763310D01*
X125271906Y-107745993D01*
X125269310Y-107743862D01*
X125248937Y-107730246D01*
X125226300Y-107720866D01*
X125202267Y-107716082D01*
X125177763Y-107716079D01*
X125153729Y-107720857D01*
X125131089Y-107730232D01*
X125125145Y-107734204D01*
X125121885Y-107735946D01*
X125101511Y-107749560D01*
X125096582Y-107754489D01*
X125072903Y-107759200D01*
X125061118Y-107762775D01*
X125038479Y-107772152D01*
X125018105Y-107785766D01*
X125000778Y-107803093D01*
X124987164Y-107823467D01*
X124977787Y-107846106D01*
X124973007Y-107870140D01*
X124343953Y-107870140D01*
X124346993Y-107854862D01*
X124346993Y-107830358D01*
X124342213Y-107806325D01*
X124332836Y-107783686D01*
X124319222Y-107763311D01*
X124301896Y-107745984D01*
X124264614Y-107715386D01*
X124241678Y-107687440D01*
X124224642Y-107655567D01*
X124214148Y-107620974D01*
X124210000Y-107578859D01*
X124210000Y-106921141D01*
X124214148Y-106879026D01*
X124224642Y-106844433D01*
X124241678Y-106812560D01*
X124264614Y-106784614D01*
X124292560Y-106761678D01*
X124324433Y-106744642D01*
X124359026Y-106734148D01*
X124401141Y-106730000D01*
X125008859Y-106730000D01*
X125050974Y-106734148D01*
G37*
G36*
X139330000Y-108285000D02*
G01*
X135930000Y-108285000D01*
X135930000Y-106775000D01*
X139330000Y-106775000D01*
X139330000Y-108285000D01*
G37*
G36*
X131330000Y-108285000D02*
G01*
X127930000Y-108285000D01*
X127930000Y-106775000D01*
X131330000Y-106775000D01*
X131330000Y-108285000D01*
G37*
G36*
X142500000Y-107800000D02*
G01*
X140900000Y-107800000D01*
X140900000Y-106500000D01*
X142500000Y-106500000D01*
X142500000Y-107800000D01*
G37*
G36*
X131202000Y-103205000D02*
G01*
X127802000Y-103205000D01*
X127802000Y-101695000D01*
X131202000Y-101695000D01*
X131202000Y-103205000D01*
G37*
G36*
X139330000Y-103205000D02*
G01*
X135930000Y-103205000D01*
X135930000Y-101695000D01*
X139330000Y-101695000D01*
X139330000Y-103205000D01*
G37*
G36*
X125800000Y-102100000D02*
G01*
X124200000Y-102100000D01*
X124200000Y-100800000D01*
X125800000Y-100800000D01*
X125800000Y-102100000D01*
G37*
G36*
X131202000Y-100665000D02*
G01*
X127802000Y-100665000D01*
X127802000Y-99155000D01*
X131202000Y-99155000D01*
X131202000Y-100665000D01*
G37*
G36*
X139330000Y-100665000D02*
G01*
X135930000Y-100665000D01*
X135930000Y-99155000D01*
X139330000Y-99155000D01*
X139330000Y-100665000D01*
G37*
G36*
X125800000Y-98800000D02*
G01*
X124200000Y-98800000D01*
X124200000Y-97500000D01*
X125800000Y-97500000D01*
X125800000Y-98800000D01*
G37*
G36*
X139330000Y-98125000D02*
G01*
X135930000Y-98125000D01*
X135930000Y-96615000D01*
X139330000Y-96615000D01*
X139330000Y-98125000D01*
G37*
G36*
X131202000Y-98125000D02*
G01*
X127802000Y-98125000D01*
X127802000Y-96615000D01*
X131202000Y-96615000D01*
X131202000Y-98125000D01*
G37*
G36*
X176879196Y-94249958D02*
G01*
X177115781Y-94347955D01*
X177328702Y-94490224D01*
X177509776Y-94671298D01*
X177652045Y-94884219D01*
X177750042Y-95120804D01*
X177800000Y-95371961D01*
X177800000Y-95628039D01*
X177750042Y-95879196D01*
X177652045Y-96115781D01*
X177509776Y-96328702D01*
X177328702Y-96509776D01*
X177115781Y-96652045D01*
X176879196Y-96750042D01*
X176753617Y-96775021D01*
X176628040Y-96800000D01*
X176371960Y-96800000D01*
X176246383Y-96775021D01*
X176120804Y-96750042D01*
X175884219Y-96652045D01*
X175671298Y-96509776D01*
X175490224Y-96328702D01*
X175347955Y-96115781D01*
X175249958Y-95879196D01*
X175200000Y-95628039D01*
X175200000Y-95371961D01*
X175249958Y-95120804D01*
X175347955Y-94884219D01*
X175490224Y-94671298D01*
X175671298Y-94490224D01*
X175884219Y-94347955D01*
X176120804Y-94249958D01*
X176371960Y-94200000D01*
X176628040Y-94200000D01*
X176879196Y-94249958D01*
G37*
G36*
X124660974Y-95684148D02*
G01*
X124695567Y-95694642D01*
X124735127Y-95715787D01*
X124741066Y-95719756D01*
X124763703Y-95729135D01*
X124787736Y-95733918D01*
X124812240Y-95733920D01*
X124836274Y-95729142D01*
X124858914Y-95719767D01*
X124864861Y-95715794D01*
X124904433Y-95694642D01*
X124939026Y-95684148D01*
X124981141Y-95680000D01*
X125588859Y-95680000D01*
X125630974Y-95684148D01*
X125665567Y-95694642D01*
X125697440Y-95711678D01*
X125725386Y-95734614D01*
X125748322Y-95762560D01*
X125765358Y-95794433D01*
X125775852Y-95829026D01*
X125780000Y-95871141D01*
X125780000Y-96528859D01*
X125775852Y-96570974D01*
X125765358Y-96605567D01*
X125748322Y-96637440D01*
X125725386Y-96665386D01*
X125697440Y-96688322D01*
X125665567Y-96705358D01*
X125630974Y-96715852D01*
X125588859Y-96720000D01*
X124981141Y-96720000D01*
X124939026Y-96715852D01*
X124904433Y-96705358D01*
X124864873Y-96684213D01*
X124858934Y-96680244D01*
X124836297Y-96670865D01*
X124812264Y-96666082D01*
X124787760Y-96666080D01*
X124763726Y-96670858D01*
X124741086Y-96680233D01*
X124735139Y-96684206D01*
X124695567Y-96705358D01*
X124660974Y-96715852D01*
X124618859Y-96720000D01*
X124011141Y-96720000D01*
X123969026Y-96715852D01*
X123934433Y-96705358D01*
X123902560Y-96688322D01*
X123874614Y-96665386D01*
X123851678Y-96637440D01*
X123834642Y-96605567D01*
X123824148Y-96570974D01*
X123820000Y-96528859D01*
X123820000Y-95871141D01*
X123824148Y-95829026D01*
X123834642Y-95794433D01*
X123851678Y-95762560D01*
X123874614Y-95734614D01*
X123902560Y-95711678D01*
X123934433Y-95694642D01*
X123969026Y-95684148D01*
X124011141Y-95680000D01*
X124618859Y-95680000D01*
X124660974Y-95684148D01*
G37*
G36*
X135773687Y-93530027D02*
G01*
X135951274Y-93565350D01*
X136142362Y-93644502D01*
X136314336Y-93759411D01*
X136460589Y-93905664D01*
X136536621Y-94019454D01*
X136552160Y-94038389D01*
X136571102Y-94053934D01*
X136592713Y-94065485D01*
X136616162Y-94072598D01*
X136640548Y-94075000D01*
X139330000Y-94075000D01*
X139330000Y-95585000D01*
X135961818Y-95585000D01*
X135937445Y-95587401D01*
X135773854Y-95619940D01*
X135748417Y-95625000D01*
X135541583Y-95625000D01*
X135516313Y-95619973D01*
X135338726Y-95584650D01*
X135147638Y-95505498D01*
X134975664Y-95390589D01*
X134829411Y-95244336D01*
X134714502Y-95072362D01*
X134635350Y-94881274D01*
X134595000Y-94678416D01*
X134595000Y-94471584D01*
X134635350Y-94268726D01*
X134714502Y-94077638D01*
X134829411Y-93905664D01*
X134975664Y-93759411D01*
X135147638Y-93644502D01*
X135338726Y-93565350D01*
X135516313Y-93530027D01*
X135541583Y-93525000D01*
X135748417Y-93525000D01*
X135773687Y-93530027D01*
G37*
G36*
X131202000Y-95585000D02*
G01*
X127802000Y-95585000D01*
X127802000Y-94075000D01*
X131202000Y-94075000D01*
X131202000Y-95585000D01*
G37*
G36*
X124660974Y-94284148D02*
G01*
X124695567Y-94294642D01*
X124735127Y-94315787D01*
X124741066Y-94319756D01*
X124763703Y-94329135D01*
X124787736Y-94333918D01*
X124812240Y-94333920D01*
X124836274Y-94329142D01*
X124858914Y-94319767D01*
X124864861Y-94315794D01*
X124904433Y-94294642D01*
X124939026Y-94284148D01*
X124981141Y-94280000D01*
X125588859Y-94280000D01*
X125630974Y-94284148D01*
X125665567Y-94294642D01*
X125697440Y-94311678D01*
X125725386Y-94334614D01*
X125748322Y-94362560D01*
X125765358Y-94394433D01*
X125775852Y-94429026D01*
X125780000Y-94471141D01*
X125780000Y-95128859D01*
X125775852Y-95170974D01*
X125765358Y-95205567D01*
X125748322Y-95237440D01*
X125725386Y-95265386D01*
X125697440Y-95288322D01*
X125665567Y-95305358D01*
X125630974Y-95315852D01*
X125588859Y-95320000D01*
X124981141Y-95320000D01*
X124939026Y-95315852D01*
X124904433Y-95305358D01*
X124864873Y-95284213D01*
X124858934Y-95280244D01*
X124836297Y-95270865D01*
X124812264Y-95266082D01*
X124787760Y-95266080D01*
X124763726Y-95270858D01*
X124741086Y-95280233D01*
X124735139Y-95284206D01*
X124695567Y-95305358D01*
X124660974Y-95315852D01*
X124618859Y-95320000D01*
X124011141Y-95320000D01*
X123969026Y-95315852D01*
X123934433Y-95305358D01*
X123902560Y-95288322D01*
X123874614Y-95265386D01*
X123851678Y-95237440D01*
X123834642Y-95205567D01*
X123824148Y-95170974D01*
X123820000Y-95128859D01*
X123820000Y-94471141D01*
X123824148Y-94429026D01*
X123834642Y-94394433D01*
X123851678Y-94362560D01*
X123874614Y-94334614D01*
X123902560Y-94311678D01*
X123934433Y-94294642D01*
X123969026Y-94284148D01*
X124011141Y-94280000D01*
X124618859Y-94280000D01*
X124660974Y-94284148D01*
G37*
G36*
X126718766Y-85778821D02*
G01*
X126855257Y-85835358D01*
X126978097Y-85917437D01*
X127082563Y-86021903D01*
X127164642Y-86144743D01*
X127221179Y-86281234D01*
X127250000Y-86426130D01*
X127250000Y-86573870D01*
X127221179Y-86718766D01*
X127164642Y-86855257D01*
X127082563Y-86978097D01*
X126978097Y-87082563D01*
X126855257Y-87164642D01*
X126718766Y-87221179D01*
X126573870Y-87250000D01*
X126426130Y-87250000D01*
X126281234Y-87221179D01*
X126144743Y-87164642D01*
X126021903Y-87082563D01*
X125917437Y-86978097D01*
X125835358Y-86855257D01*
X125778821Y-86718766D01*
X125750000Y-86573870D01*
X125750000Y-86426130D01*
X125778821Y-86281234D01*
X125835358Y-86144743D01*
X125917437Y-86021903D01*
X126021903Y-85917437D01*
X126144743Y-85835358D01*
X126281234Y-85778821D01*
X126426130Y-85750000D01*
X126573870Y-85750000D01*
X126718766Y-85778821D01*
G37*
G36*
X171718766Y-69778821D02*
G01*
X171855257Y-69835358D01*
X171978097Y-69917437D01*
X172082563Y-70021903D01*
X172164642Y-70144743D01*
X172221179Y-70281234D01*
X172250000Y-70426130D01*
X172250000Y-70573870D01*
X172221179Y-70718766D01*
X172164642Y-70855257D01*
X172082563Y-70978097D01*
X171978097Y-71082563D01*
X171855257Y-71164642D01*
X171718766Y-71221179D01*
X171573870Y-71250000D01*
X171426130Y-71250000D01*
X171281234Y-71221179D01*
X171144743Y-71164642D01*
X171021903Y-71082563D01*
X170917437Y-70978097D01*
X170835358Y-70855257D01*
X170778821Y-70718766D01*
X170750000Y-70573870D01*
X170750000Y-70426130D01*
X170778821Y-70281234D01*
X170835358Y-70144743D01*
X170917437Y-70021903D01*
X171021903Y-69917437D01*
X171144743Y-69835358D01*
X171281234Y-69778821D01*
X171426130Y-69750000D01*
X171573870Y-69750000D01*
X171718766Y-69778821D01*
G37*
M02*
