G04 #@! TF.GenerationSoftware,KiCad,Pcbnew,5.1.6+dfsg1-1~bpo10+1*
G04 #@! TF.CreationDate,2021-06-19T16:41:49-04:00*
G04 #@! TF.ProjectId,RUSP_Daughterboard,52555350-5f44-4617-9567-68746572626f,rev?*
G04 #@! TF.SameCoordinates,Original*
G04 #@! TF.FileFunction,Copper,L2,Inr*
G04 #@! TF.FilePolarity,Positive*
%FSLAX46Y46*%
G04 Gerber Fmt 4.6, Leading zero omitted, Abs format (unit mm)*
G04 Created by KiCad (PCBNEW 5.1.6+dfsg1-1~bpo10+1) date 2021-06-19 16:41:49*
%MOMM*%
%LPD*%
G01*
G04 APERTURE LIST*
G04 #@! TA.AperFunction,ViaPad*
%ADD10C,3.000000*%
G04 #@! TD*
G04 #@! TA.AperFunction,ViaPad*
%ADD11C,0.800000*%
G04 #@! TD*
G04 #@! TA.AperFunction,Conductor*
%ADD12C,0.750000*%
G04 #@! TD*
G04 #@! TA.AperFunction,Conductor*
%ADD13C,0.250000*%
G04 #@! TD*
G04 APERTURE END LIST*
D10*
X154000000Y-128000000D03*
D11*
X120300000Y-71300000D03*
X135000000Y-88400000D03*
X124500000Y-112000000D03*
X124500000Y-73200000D03*
X157480000Y-130302000D03*
X120396006Y-82200000D03*
X146812000Y-110490000D03*
X146050000Y-109728000D03*
X149225010Y-125524888D03*
X159132660Y-135507340D03*
X165600000Y-123300000D03*
X170800000Y-129700000D03*
X174149991Y-127749991D03*
X162700000Y-131000000D03*
X175400000Y-125000000D03*
X161400000Y-123800000D03*
X160200000Y-123600000D03*
X161694805Y-127925000D03*
X139700000Y-84836000D03*
X177100000Y-126600000D03*
X121300000Y-75400000D03*
X137900000Y-71000000D03*
X138000000Y-79700000D03*
X159200000Y-133800000D03*
X169300000Y-132100000D03*
X170650000Y-118550000D03*
X124350000Y-74400000D03*
X129537660Y-85362340D03*
X170600000Y-117250000D03*
X124550000Y-72150000D03*
X130481712Y-85032505D03*
X135500000Y-77250000D03*
X163600000Y-127200000D03*
X170800000Y-119750000D03*
X128300000Y-85000000D03*
X124650000Y-76500000D03*
X168000000Y-119800000D03*
X176100000Y-121200000D03*
X163500000Y-123100000D03*
X164400000Y-134974990D03*
X126200000Y-96200000D03*
X129600000Y-91400000D03*
X163200000Y-131900000D03*
X129900000Y-113000000D03*
X163900000Y-137025010D03*
X132029325Y-112674990D03*
X162200000Y-134800000D03*
X135010743Y-112824979D03*
X144599994Y-119600000D03*
X150213474Y-125676423D03*
X124600000Y-71000000D03*
X135400000Y-71000000D03*
X165201292Y-131775010D03*
X131400000Y-94800000D03*
X165201292Y-131001292D03*
X131826000Y-95600000D03*
X167500000Y-126300000D03*
X162775000Y-123900000D03*
X175125010Y-123900000D03*
D12*
X157480000Y-130302000D02*
X157480000Y-131064000D01*
X149225010Y-126190573D02*
X149225010Y-125524888D01*
X157480000Y-131064000D02*
X154098437Y-131064000D01*
X154098437Y-131064000D02*
X149225010Y-126190573D01*
X157480000Y-131064000D02*
X157480000Y-133854680D01*
X157480000Y-133854680D02*
X159132660Y-135507340D01*
D13*
X129537660Y-74837660D02*
X129537660Y-85362340D01*
X129100000Y-74400000D02*
X129537660Y-74837660D01*
X124350000Y-74400000D02*
X129100000Y-74400000D01*
X124550000Y-72150000D02*
X129050000Y-72150000D01*
X129050000Y-72150000D02*
X130481712Y-73581712D01*
X130481712Y-73581712D02*
X130481712Y-85032505D01*
X133800000Y-78950000D02*
X133800000Y-101547248D01*
X162244988Y-125844988D02*
X163600000Y-127200000D01*
X158097740Y-125844988D02*
X162244988Y-125844988D01*
X135500000Y-77250000D02*
X133800000Y-78950000D01*
X133800000Y-101547248D02*
X158097740Y-125844988D01*
X128300000Y-85000000D02*
X128300000Y-76900000D01*
X128300000Y-76900000D02*
X127900000Y-76500000D01*
X127900000Y-76500000D02*
X124650000Y-76500000D01*
X126472822Y-96200000D02*
X126200000Y-96200000D01*
X159872833Y-129600011D02*
X126472822Y-96200000D01*
X163300011Y-129600011D02*
X159872833Y-129600011D01*
X164400000Y-130700000D02*
X163300011Y-129600011D01*
X164400000Y-134974990D02*
X164400000Y-130700000D01*
X157500000Y-128700000D02*
X157600000Y-128800000D01*
X160787413Y-131900000D02*
X163200000Y-131900000D01*
X157587413Y-128700000D02*
X160787413Y-131900000D01*
X157500000Y-128700000D02*
X157587413Y-128700000D01*
X130499999Y-113599999D02*
X129900000Y-113000000D01*
X144151999Y-120525001D02*
X137226997Y-113599999D01*
X137226997Y-113599999D02*
X130499999Y-113599999D01*
X150161412Y-120525001D02*
X144151999Y-120525001D01*
X157500000Y-128700000D02*
X157500000Y-127863589D01*
X157500000Y-127863589D02*
X150161412Y-120525001D01*
X144149997Y-119600000D02*
X144599994Y-119600000D01*
X135010743Y-112824979D02*
X137374976Y-112824979D01*
X137374976Y-112824979D02*
X144149997Y-119600000D01*
X162200000Y-134800000D02*
X162200000Y-133948998D01*
X162200000Y-133948998D02*
X157574001Y-129322999D01*
X154676423Y-125676423D02*
X150213474Y-125676423D01*
X157305842Y-129322999D02*
X157000000Y-129017157D01*
X157000000Y-128000000D02*
X154676423Y-125676423D01*
X157000000Y-129017157D02*
X157000000Y-128000000D01*
X157574001Y-129322999D02*
X157305842Y-129322999D01*
X124600000Y-71000000D02*
X135400000Y-71000000D01*
D12*
X165201292Y-131775010D02*
X165201292Y-131001292D01*
X160162787Y-128900000D02*
X131826000Y-100563213D01*
X131826000Y-95226000D02*
X131826000Y-95600000D01*
X131826000Y-100563213D02*
X131826000Y-95600000D01*
X165201292Y-131001292D02*
X165201292Y-130435607D01*
X165201292Y-130435607D02*
X163665685Y-128900000D01*
X163665685Y-128900000D02*
X160162787Y-128900000D01*
X131400000Y-94800000D02*
X131826000Y-95226000D01*
M02*
