M48
; DRILL file {KiCad 5.1.6+dfsg1-1~bpo10+1} date Mon Dec 21 12:29:28 2020
; FORMAT={-:-/ absolute / inch / decimal}
; #@! TF.CreationDate,2020-12-21T12:29:28-05:00
; #@! TF.GenerationSoftware,Kicad,Pcbnew,5.1.6+dfsg1-1~bpo10+1
; #@! TF.FileFunction,Plated,1,6,PTH
FMAT,2
INCH
T1C0.0118
T2C0.0157
T3C0.0197
T4C0.0217
T5C0.0236
T6C0.0315
T7C0.0402
T8C0.0472
T9C0.0492
T10C0.0591
T11C0.0984
T12C0.1469
%
G90
G05
T1
X4.4961Y-4.5236
X4.5039Y-4.3543
X4.5118Y-5.126
X4.523Y-4.5629
X4.5492Y-4.813
X4.5572Y-4.3167
X4.5689Y-4.2776
X4.5787Y-4.5394
X4.6083Y-4.9291
X4.6171Y-4.315
X4.625Y-5.2451
X4.6299Y-4.748
X4.6339Y-4.8081
X4.6339Y-5.0315
X4.6535Y-4.9646
X4.6638Y-5.1205
X4.6791Y-4.9204
X4.685Y-5.0787
X4.6858Y-4.9835
X4.6988Y-5.2756
X4.7067Y-4.6093
X4.7087Y-2.6496
X4.7087Y-2.6772
X4.7126Y-5.2244
X4.7146Y-4.5315
X4.7165Y-2.6181
X4.7205Y-2.7047
X4.7323Y-2.5945
X4.7392Y-4.4134
X4.7402Y-2.7283
X4.752Y-2.5748
X4.7587Y-5.2862
X4.7589Y-5.3337
X4.7598Y-2.748
X4.7756Y-2.5591
X4.7785Y-4.7126
X4.7835Y-2.7638
X4.7949Y-4.6179
X4.8031Y-2.5512
X4.8041Y-5.3402
X4.811Y-2.7638
X4.8228Y-5.3081
X4.8266Y-4.9162
X4.8274Y-5.1373
X4.8296Y-5.0875
X4.8337Y-5.3822
X4.8346Y-2.5472
X4.8346Y-4.6063
X4.8346Y-4.7087
X4.8425Y-2.7638
X4.8445Y-5.0443
X4.8465Y-4.7657
X4.8533Y-5.2008
X4.8553Y-4.9647
X4.8625Y-4.8674
X4.8661Y-2.5472
X4.8671Y-4.5994
X4.8701Y-2.3701
X4.8701Y-2.3976
X4.8701Y-2.4252
X4.8701Y-2.7638
X4.8701Y-5.4045
X4.877Y-4.9183
X4.878Y-2.3386
X4.878Y-2.4567
X4.8799Y-4.7264
X4.8819Y-2.3071
X4.8858Y-2.5669
X4.8898Y-2.502
X4.8937Y-2.7795
X4.9016Y-2.2795
X4.9016Y-5.5413
X4.905Y-5.3239
X4.9055Y-2.5906
X4.9134Y-2.7953
X4.9173Y-2.5236
X4.9213Y-2.6772
X4.9252Y-2.6142
X4.9252Y-2.7087
X4.9276Y-4.7085
X4.9288Y-5.3413
X4.9322Y-5.3707
X4.9331Y-2.2736
X4.9331Y-2.6457
X4.9331Y-2.815
X4.9358Y-5.0184
X4.9409Y-5.0945
X4.9448Y-5.2008
X4.9449Y-2.7283
X4.9488Y-2.5236
X4.9488Y-2.5512
X4.9489Y-5.4251
X4.9524Y-4.9733
X4.9528Y-2.5787
X4.9528Y-2.8346
X4.9528Y-4.9438
X4.9529Y-4.7301
X4.9565Y-5.1575
X4.9595Y-5.3216
X4.9606Y-2.6024
X4.9606Y-2.2717
X4.9646Y-2.748
X4.9665Y-4.7648
X4.9722Y-5.3483
X4.9724Y-2.8543
X4.9724Y-4.6102
X4.9744Y-2.624
X4.9778Y-5.2131
X4.9783Y-4.8711
X4.9843Y-2.7677
X4.9862Y-5.0965
X4.992Y-2.2716
X4.9929Y-4.9183
X4.9946Y-5.3687
X4.9961Y-2.6417
X4.9961Y-2.878
X5.0031Y-4.5509
X5.0039Y-2.7835
X5.0079Y-4.4429
X5.0118Y-2.5236
X5.0118Y-2.5512
X5.0118Y-4.7126
X5.0155Y-5.3478
X5.0167Y-5.3182
X5.0177Y-2.8051
X5.0197Y-2.8976
X5.0197Y-2.6535
X5.0201Y-2.2807
X5.0226Y-2.7606
X5.0236Y-2.5748
X5.0344Y-5.2096
X5.0353Y-4.6073
X5.0383Y-5.0793
X5.0408Y-5.363
X5.0433Y-2.5236
X5.0433Y-2.6575
X5.0433Y-4.8169
X5.0472Y-2.5906
X5.0472Y-2.8346
X5.0476Y-2.27
X5.0689Y-4.7077
X5.0709Y-2.2953
X5.0709Y-2.5039
X5.0709Y-2.6575
X5.0709Y-2.8504
X5.0709Y-5.811
X5.0748Y-2.5945
X5.076Y-5.3753
X5.0827Y-2.3445
X5.0827Y-2.4587
X5.0866Y-2.3701
X5.0866Y-2.4016
X5.0866Y-2.4291
X5.0906Y-5.1024
X5.0974Y-5.3346
X5.0984Y-2.6575
X5.0984Y-2.8543
X5.1024Y-2.5945
X5.1172Y-5.0896
X5.1181Y-5.6378
X5.1196Y-4.7456
X5.1208Y-5.3635
X5.1232Y-5.0564
X5.136Y-5.7695
X5.1457Y-5.1909
X5.1467Y-5.0886
X5.1692Y-5.1076
X5.1811Y-3.6388
X5.1834Y-5.3963
X5.1862Y-5.3669
X5.1988Y-3.4183
X5.1988Y-5.3209
X5.2008Y-5.4567
X5.2049Y-4.7305
X5.2125Y-5.1024
X5.2269Y-4.7109
X5.2293Y-4.4439
X5.2303Y-5.1692
X5.2323Y-5.6673
X5.2461Y-4.8986
X5.253Y-5.0403
X5.2589Y-4.6103
X5.2677Y-3.7126
X5.2679Y-5.2213
X5.2736Y-3.0217
X5.2768Y-5.065
X5.2795Y-4.7402
X5.2816Y-5.0217
X5.2855Y-4.9685
X5.2874Y-4.8071
X5.2884Y-4.6093
X5.2953Y-5.4528
X5.3133Y-5.5551
X5.3321Y-4.6176
X5.3386Y-4.6988
X5.3583Y-5.7126
X5.3701Y-5.8976
X5.3762Y-5.236
X5.3799Y-4.5276
X5.3898Y-4.874
X5.4055Y-5.8937
X5.4059Y-5.1692
X5.4114Y-5.0797
X5.4124Y-5.2382
X5.4134Y-4.8228
X5.4173Y-5.5906
X5.4173Y-5.7992
X5.4232Y-2.9035
X5.4252Y-4.874
X5.435Y-3.1339
X5.4409Y-4.7913
X5.4468Y-4.6388
X5.4528Y-3.5728
X5.4528Y-3.6065
X5.4537Y-5.5482
X5.4705Y-5.2127
X5.498Y-5.4006
X5.5098Y-2.372
X5.5098Y-2.5453
X5.5197Y-4.874
X5.5376Y-4.6959
X5.5394Y-4.9606
X5.548Y-5.0213
X5.5502Y-5.1703
X5.5591Y-3.7776
X5.565Y-5.6063
X5.5659Y-5.0807
X5.5775Y-5.0191
X5.5782Y-3.4119
X5.5788Y-4.9665
X5.5866Y-4.81
X5.5906Y-3.2559
X5.6046Y-5.0075
X5.6073Y-3.0069
X5.6378Y-3.1299
X5.6417Y-5.2234
X5.657Y-4.8642
X5.6634Y-4.9872
X5.6644Y-3.0286
X5.694Y-3.2766
X5.6978Y-3.4213
X5.6998Y-3.0167
X5.7073Y-4.8656
X5.7098Y-3.4517
X5.7116Y-3.1311
X5.7146Y-5.8268
X5.7185Y-3.1024
X5.72Y-2.8695
X5.7283Y-5.7559
X5.7323Y-5.2205
X5.7431Y-2.8504
X5.7441Y-3.0384
X5.752Y-3.1073
X5.7569Y-3.0709
X5.7579Y-3.2598
X5.7657Y-4.75
X5.7691Y-2.8643
X5.7796Y-4.811
X5.7894Y-4.6949
X5.8031Y-2.7677
X5.8169Y-3.5138
X5.8189Y-5.1693
X5.8228Y-4.9882
X5.8262Y-2.8733
X5.8268Y-2.4744
X5.8297Y-3.1339
X5.8445Y-4.8353
X5.8504Y-3.2598
X5.8533Y-2.4006
X5.8632Y-3.0344
X5.8634Y-2.7657
X5.8711Y-2.7234
X5.8839Y-5.5551
X5.8937Y-3.0807
X5.8937Y-3.1339
X5.9114Y-2.876
X5.9343Y-2.5938
X5.9398Y-3.0492
X5.9639Y-4.9849
X5.9665Y-2.6713
X5.9799Y-3.0091
X5.9961Y-2.7618
X6.0067Y-3.2459
X6.0138Y-4.9331
X6.0344Y-4.8533
X6.0414Y-2.5904
X6.0423Y-2.9055
X6.0502Y-4.9331
X6.0591Y-2.5098
X6.0695Y-5.5071
X6.0709Y-2.5925
X6.0768Y-2.6929
X6.0881Y-3.1406
X6.1191Y-2.2411
X6.122Y-5.5906
X6.1237Y-3.0923
X6.1262Y-5.73
X6.1496Y-2.4547
X6.1614Y-3.126
X6.187Y-2.6083
X6.1929Y-2.4081
X6.1988Y-2.7267
X6.1988Y-2.439
X6.2028Y-2.6388
X6.2047Y-2.9173
X6.2195Y-5.3376
X6.2333Y-5.1772
X6.248Y-5.748
X6.248Y-6.0197
X6.249Y-3.0541
X6.2638Y-3.3051
X6.2638Y-5.2402
X6.2767Y-2.583
X6.2773Y-5.7522
X6.2835Y-3.1299
X6.2835Y-6.0236
X6.2854Y-2.436
X6.295Y-5.1673
X6.2992Y-4.8701
X6.311Y-2.7579
X6.315Y-3.1102
X6.3248Y-2.5925
X6.3406Y-2.2618
X6.3445Y-3.062
X6.3504Y-4.8642
X6.3504Y-5.7067
X6.3524Y-5.4921
X6.3622Y-5.5886
X6.3627Y-5.3273
X6.3712Y-5.1712
X6.3755Y-5.4724
X6.3917Y-5.3425
X6.4026Y-2.4203
X6.4098Y-5.595
X6.4124Y-3.2421
X6.4173Y-3.0197
X6.4179Y-5.2323
X6.435Y-5.3287
X6.439Y-4.8667
X6.4518Y-5.0197
X6.4528Y-5.4685
X6.4565Y-5.6161
X6.4675Y-2.3455
X6.4877Y-5.5846
X6.4902Y-5.337
X6.498Y-4.8789
X6.498Y-5.1701
X6.5009Y-3.2268
X6.5039Y-3.19
X6.5059Y-3.124
X6.5059Y-3.2559
X6.5079Y-5.8504
X6.5138Y-3.0728
X6.5157Y-5.7067
X6.5236Y-2.689
X6.5293Y-5.1713
X6.5295Y-5.5413
X6.5385Y-3.2559
X6.5453Y-3.2008
X6.5492Y-5.7067
X6.5664Y-5.6063
X6.5689Y-3.3563
X6.5748Y-3.0305
X6.5783Y-4.8616
X6.5787Y-3.1929
X6.5846Y-5.7067
X6.5886Y-3.3839
X6.5925Y-5.3237
X6.6102Y-2.3228
X6.6102Y-5.2264
X6.6142Y-5.7165
X6.6142Y-5.8071
X6.628Y-3.3268
X6.6339Y-3.1202
X6.6397Y-4.8536
X6.6535Y-3.1496
X6.6536Y-3.2086
X6.6576Y-3.2606
X6.6588Y-5.4934
X6.6594Y-3.3042
X6.6633Y-3.501
X6.6671Y-4.8425
X6.6683Y-3.6358
X6.6735Y-3.4731
X6.6866Y-5.3611
X6.6871Y-3.2619
X6.6966Y-3.7168
X6.7028Y-5.7106
X6.7061Y-4.8426
X6.7126Y-3.7402
X6.7326Y-5.2358
X6.7354Y-4.8394
X6.7493Y-3.6873
X6.75Y-3.6122
X6.7559Y-2.81
X6.7638Y-5.4646
X6.7785Y-3.4114
X6.7925Y-3.8128
X6.7956Y-5.4646
X6.8099Y-4.852
X6.8278Y-2.2963
X6.8283Y-5.4646
X6.84Y-5.0406
X6.8402Y-4.8945
X6.841Y-3.3106
X6.8504Y-3.3563
X6.8504Y-3.4469
X6.8532Y-4.848
X6.8542Y-5.0665
X6.8543Y-2.878
X6.8599Y-4.763
X6.8622Y-5.5965
X6.8622Y-5.7559
X6.8629Y-5.7074
X6.8636Y-4.8756
X6.8947Y-3.1654
X6.9237Y-4.6974
X6.9294Y-4.7386
X6.9543Y-5.3724
X6.9843Y-2.9213
X6.9995Y-3.2761
X7.0295Y-3.0512
X7.0354Y-5.5039
X7.0374Y-3.7894
X7.0819Y-3.7874
X7.0825Y-4.2924
X7.0837Y-4.8522
X7.0846Y-3.5601
X7.0851Y-4.0674
X7.0851Y-4.493
X7.0862Y-3.8521
X7.0866Y-3.1594
X7.0866Y-4.0079
X7.0878Y-4.5906
X7.0878Y-4.1752
X7.0878Y-4.3917
X7.0878Y-3.3287
X7.0878Y-4.4311
X7.0878Y-4.6987
X7.0878Y-4.9124
X7.0887Y-3.3645
X7.0904Y-4.2074
X7.0927Y-4.8241
X7.0928Y-3.979
X7.0945Y-4.6269
X7.0945Y-3.7303
X7.1017Y-3.1239
X7.1141Y-3.5577
X7.1144Y-3.3465
X7.1329Y-5.0591
X7.1329Y-5.0887
T2
X4.9803Y-3.0079
X5.3307Y-2.3819
X5.374Y-2.252
X5.3819Y-3.1102
X5.4173Y-2.3819
X5.5098Y-2.9705
X5.7677Y-2.4055
X6.0079Y-2.2441
X6.5492Y-3.4862
X6.5531Y-3.5571
X6.7402Y-2.2992
X7.0236Y-2.3386
X6.1594Y-5.8348
X6.185Y-5.8624
X6.2165Y-5.8624
X6.2323Y-5.8348
X6.248Y-5.8624
X6.2638Y-5.8348
X6.2953Y-5.8348
X6.311Y-5.8624
X6.3268Y-5.8348
X6.3425Y-5.8624
X6.374Y-5.8624
X6.3996Y-5.8348
T3
X6.1201Y-5.8191
X6.439Y-5.8191
T4
X5.8681Y-5.6417
X5.9429Y-5.6417
T5
X6.1024Y-5.7974
X6.4567Y-5.7974
T6
X4.7421Y-2.8937
X4.7421Y-2.9724
X4.7421Y-3.0512
X4.7421Y-3.1299
X4.7421Y-3.2087
X4.7421Y-3.2874
X4.8406Y-2.8937
X4.8406Y-2.9724
X4.8406Y-3.0512
X4.8406Y-3.1299
X4.8406Y-3.2087
X4.8406Y-3.2874
X4.7283Y-3.4843
X4.7283Y-3.563
X4.7283Y-3.6417
X4.7283Y-3.7992
X5.8071Y-5.9193
X5.8071Y-6.0492
X5.9055Y-5.9193
X5.9055Y-6.0492
X6.0039Y-5.9193
X6.0039Y-6.0492
T7
X4.8543Y-3.6142
X4.9528Y-3.6142
X5.0512Y-3.6142
T8
X6.6602Y-5.2795
X6.8602Y-5.2795
X7.0602Y-5.2795
T9
X4.6811Y-2.8307
X4.9016Y-3.3504
T10
X4.7283Y-3.4016
X4.7283Y-3.8819
T11
X6.7327Y-5.1102
X5.7283Y-4.5472
X5.7283Y-4.5472
X6.9886Y-5.1102
X6.1732Y-4.8996
X6.1732Y-4.8996
T12
X6.063Y-5.2756
T5
G00X6.1024Y-6.0061
M15
G01X6.1024Y-6.0415
M16
G05
G00X6.4567Y-6.0061
M15
G01X6.4567Y-6.0415
M16
G05
T0
M30
