M48
; DRILL file {KiCad 5.1.6+dfsg1-1~bpo10+1} date Sun Mar 28 20:24:40 2021
; FORMAT={-:-/ absolute / inch / decimal}
; #@! TF.CreationDate,2021-03-28T20:24:40-04:00
; #@! TF.GenerationSoftware,Kicad,Pcbnew,5.1.6+dfsg1-1~bpo10+1
; #@! TF.FileFunction,Plated,1,6,PTH
FMAT,2
INCH
T1C0.0118
T2C0.0157
T3C0.0197
T4C0.0217
T5C0.0236
T6C0.0315
T7C0.0402
T8C0.0472
T9C0.0492
T10C0.0591
T11C0.0984
T12C0.1469
%
G90
G05
T1
X4.4961Y-4.5236
X4.5Y-4.8276
X4.5039Y-4.3543
X4.5206Y-4.7213
X4.523Y-4.5629
X4.5472Y-4.8394
X4.5571Y-5.126
X4.5572Y-4.3167
X4.5689Y-4.2776
X4.5787Y-4.5394
X4.6083Y-4.9291
X4.6171Y-4.315
X4.6201Y-4.6917
X4.624Y-5.0303
X4.6417Y-2.752
X4.6547Y-4.9634
X4.6575Y-4.9969
X4.6634Y-5.1218
X4.6693Y-4.748
X4.6693Y-5.0559
X4.6707Y-3.7187
X4.6713Y-5.0933
X4.6791Y-4.9204
X4.685Y-4.5717
X4.6858Y-4.9811
X4.689Y-4.4713
X4.6988Y-5.2756
X4.7008Y-5.3957
X4.7047Y-3.7154
X4.7087Y-2.6496
X4.7087Y-2.6772
X4.7126Y-5.2244
X4.7146Y-4.5315
X4.7165Y-2.6181
X4.7205Y-2.7047
X4.7323Y-2.5945
X4.7382Y-5.2677
X4.7402Y-2.7283
X4.752Y-2.5748
X4.7539Y-4.626
X4.7539Y-5.2087
X4.7598Y-2.748
X4.7682Y-5.3559
X4.7695Y-5.4783
X4.7756Y-2.5591
X4.7815Y-4.8012
X4.7835Y-2.7638
X4.7854Y-4.5657
X4.7949Y-4.6179
X4.8012Y-5.3857
X4.8031Y-2.5512
X4.811Y-2.7638
X4.8123Y-5.3092
X4.8346Y-2.5472
X4.8346Y-4.6063
X4.8368Y-5.3257
X4.8386Y-4.7205
X4.8406Y-4.957
X4.8425Y-2.7638
X4.8504Y-5.1083
X4.8524Y-4.5697
X4.8574Y-4.7992
X4.8661Y-2.5472
X4.8701Y-2.3701
X4.8701Y-2.3976
X4.8701Y-2.4252
X4.8701Y-2.7638
X4.8718Y-4.8563
X4.872Y-5.2047
X4.872Y-5.3857
X4.8723Y-4.7299
X4.878Y-2.3386
X4.878Y-2.4567
X4.8799Y-5.1594
X4.8802Y-4.9943
X4.8812Y-5.0239
X4.8819Y-2.3071
X4.8839Y-4.965
X4.8858Y-2.5669
X4.8898Y-2.502
X4.8937Y-2.7795
X4.8967Y-5.5037
X4.8995Y-5.351
X4.9013Y-4.7354
X4.9016Y-2.2795
X4.9047Y-4.5708
X4.9055Y-2.5906
X4.9134Y-2.7953
X4.9134Y-4.7677
X4.9173Y-2.5236
X4.9213Y-2.6772
X4.9224Y-5.6178
X4.9252Y-2.6142
X4.9252Y-2.7087
X4.9331Y-2.2736
X4.9331Y-2.6457
X4.9331Y-2.815
X4.9367Y-5.4361
X4.9449Y-2.7283
X4.9449Y-4.7224
X4.9488Y-2.5236
X4.9488Y-2.5512
X4.9528Y-2.5787
X4.9528Y-2.8346
X4.9606Y-2.6024
X4.9606Y-2.2717
X4.9646Y-2.748
X4.9646Y-5.3661
X4.9646Y-4.8071
X4.9663Y-5.0297
X4.9705Y-5.1614
X4.9724Y-2.8543
X4.9744Y-2.624
X4.9744Y-4.8937
X4.9764Y-4.9311
X4.9769Y-4.9843
X4.9802Y-5.3306
X4.9843Y-2.7677
X4.9872Y-5.2009
X4.992Y-2.2716
X4.9961Y-2.6417
X4.9961Y-2.878
X4.9961Y-5.0394
X4.9969Y-4.958
X5.0039Y-2.7835
X5.0039Y-3.237
X5.0043Y-4.7075
X5.0071Y-5.3498
X5.0074Y-4.5689
X5.0079Y-4.4429
X5.0104Y-5.5231
X5.0118Y-2.5236
X5.0118Y-2.5512
X5.0157Y-4.6122
X5.0177Y-2.8051
X5.0197Y-2.8976
X5.0197Y-2.6535
X5.0201Y-2.2807
X5.0226Y-2.7606
X5.0236Y-2.5748
X5.0236Y-5.1575
X5.0277Y-5.371
X5.0383Y-4.7087
X5.0433Y-2.5236
X5.0433Y-2.6575
X5.0472Y-2.5906
X5.0472Y-2.8346
X5.0476Y-2.27
X5.0532Y-5.3338
X5.0551Y-4.872
X5.0591Y-4.6031
X5.0616Y-3.0966
X5.0678Y-4.7067
X5.0709Y-2.2953
X5.0709Y-2.5039
X5.0709Y-2.6575
X5.0709Y-2.8504
X5.0709Y-5.811
X5.0748Y-2.5945
X5.0827Y-2.3445
X5.0827Y-2.4587
X5.0827Y-5.334
X5.0846Y-5.1799
X5.0866Y-2.3701
X5.0866Y-2.4016
X5.0866Y-2.4291
X5.0984Y-2.6575
X5.0984Y-2.8543
X5.1024Y-2.5945
X5.1032Y-5.3552
X5.1181Y-5.6949
X5.1308Y-5.3658
X5.1324Y-5.7678
X5.1334Y-4.7594
X5.1572Y-5.4291
X5.1594Y-5.0059
X5.1732Y-5.7657
X5.1811Y-3.6388
X5.189Y-5.4311
X5.1988Y-3.4183
X5.2028Y-4.5687
X5.2049Y-4.7305
X5.2126Y-5.1752
X5.2133Y-5.3137
X5.2143Y-5.1336
X5.2205Y-4.437
X5.2227Y-5.0903
X5.2244Y-5.2106
X5.2265Y-4.7096
X5.2354Y-5.1543
X5.244Y-4.6091
X5.2468Y-4.9909
X5.2501Y-5.0202
X5.252Y-4.9567
X5.252Y-5.6949
X5.2618Y-3.6819
X5.2677Y-4.5914
X5.2736Y-3.0217
X5.2795Y-4.7402
X5.283Y-4.8234
X5.2854Y-4.9582
X5.3071Y-4.4555
X5.3327Y-4.6043
X5.3425Y-4.6811
X5.3465Y-5.3917
X5.3701Y-5.8976
X5.374Y-2.2528
X5.3762Y-5.236
X5.3807Y-5.6142
X5.3858Y-4.561
X5.387Y-4.8743
X5.3957Y-5.3642
X5.4055Y-5.8937
X5.4094Y-4.8346
X5.4114Y-5.061
X5.4124Y-5.2382
X5.4166Y-4.878
X5.4232Y-2.9035
X5.4232Y-5.2874
X5.4311Y-4.628
X5.435Y-3.1339
X5.4524Y-5.6417
X5.4528Y-3.5728
X5.4528Y-3.6065
X5.4685Y-5.2795
X5.4705Y-5.2127
X5.4939Y-5.4723
X5.5098Y-2.372
X5.5098Y-2.5453
X5.5133Y-5.5472
X5.5195Y-5.4215
X5.5217Y-4.628
X5.5276Y-3.7717
X5.5276Y-4.748
X5.536Y-5.5661
X5.5376Y-4.6909
X5.5438Y-5.0183
X5.5487Y-5.4168
X5.5502Y-5.1703
X5.5551Y-5.5887
X5.5583Y-4.9475
X5.5593Y-5.061
X5.561Y-5.2205
X5.563Y-3.4024
X5.5682Y-5.5159
X5.5709Y-4.8976
X5.575Y-5.0184
X5.5797Y-4.9721
X5.5807Y-5.4311
X5.5906Y-3.2559
X5.6036Y-5.0112
X5.6048Y-5.4088
X5.6073Y-3.0069
X5.6378Y-3.1299
X5.6417Y-5.2234
X5.6485Y-3.0025
X5.6535Y-4.6339
X5.6663Y-3.0325
X5.6713Y-4.8189
X5.6772Y-3.0854
X5.6916Y-2.7652
X5.694Y-3.2766
X5.7054Y-4.6791
X5.7075Y-4.8602
X5.7087Y-5.1594
X5.7098Y-3.4517
X5.7116Y-3.1311
X5.7146Y-5.8268
X5.7165Y-5.5768
X5.7185Y-2.8827
X5.7193Y-3.0382
X5.7283Y-5.7559
X5.7323Y-5.2205
X5.7351Y-3.0631
X5.7357Y-5.322
X5.7412Y-3.1089
X5.7484Y-2.8802
X5.7539Y-5.4252
X5.7579Y-3.2598
X5.7645Y-5.582
X5.7657Y-4.9469
X5.7756Y-5.4823
X5.7776Y-2.8846
X5.7848Y-4.806
X5.7904Y-5.5453
X5.811Y-5.4803
X5.818Y-3.5148
X5.8268Y-2.4744
X5.8297Y-3.1339
X5.8445Y-4.8602
X5.8504Y-3.2598
X5.8504Y-5.1679
X5.8533Y-2.4006
X5.8543Y-2.8787
X5.8634Y-2.7657
X5.8711Y-2.7234
X5.8829Y-5.6052
X5.8937Y-3.1339
X5.9134Y-2.8858
X5.9343Y-2.5938
X5.9398Y-3.0492
X5.9639Y-4.9849
X5.9665Y-2.6713
X5.9799Y-3.0091
X5.9961Y-2.7618
X5.9987Y-3.2459
X6.0414Y-2.5904
X6.0423Y-2.9055
X6.0591Y-2.5098
X6.0709Y-2.5925
X6.0768Y-2.6929
X6.0881Y-3.1406
X6.1057Y-5.5217
X6.1172Y-5.6323
X6.1191Y-2.2411
X6.1237Y-3.0923
X6.126Y-5.7402
X6.1496Y-2.4547
X6.1614Y-3.126
X6.1811Y-2.5709
X6.185Y-2.6752
X6.19Y-5.1588
X6.1929Y-2.4081
X6.1988Y-2.7267
X6.1988Y-2.439
X6.2041Y-5.6252
X6.2047Y-2.9173
X6.2323Y-5.2323
X6.2323Y-5.6339
X6.2333Y-5.1594
X6.2382Y-5.5217
X6.2441Y-2.4902
X6.248Y-6.0197
X6.249Y-3.0541
X6.2496Y-5.7492
X6.256Y-5.3314
X6.2577Y-5.4724
X6.2619Y-5.1482
X6.2638Y-3.3051
X6.2638Y-5.6535
X6.2657Y-5.6191
X6.2756Y-5.5236
X6.279Y-5.7524
X6.2835Y-3.1299
X6.2835Y-6.0236
X6.2854Y-2.436
X6.2854Y-5.2205
X6.2972Y-5.372
X6.3031Y-5.6555
X6.3051Y-4.8602
X6.3071Y-5.5157
X6.315Y-3.1102
X6.32Y-5.5673
X6.3248Y-2.757
X6.3307Y-4.8386
X6.3386Y-2.591
X6.3404Y-5.4864
X6.3406Y-2.2618
X6.3445Y-3.062
X6.3474Y-5.2923
X6.3541Y-5.0985
X6.3543Y-3.2626
X6.361Y-4.8609
X6.378Y-3.2449
X6.3819Y-5.0118
X6.3858Y-5.6339
X6.3874Y-5.3153
X6.3906Y-4.8541
X6.3994Y-5.7353
X6.4026Y-2.4203
X6.4108Y-5.093
X6.4173Y-3.0197
X6.4176Y-4.9661
X6.4252Y-5.4724
X6.439Y-5.5866
X6.4541Y-5.0542
X6.4665Y-5.7362
X6.4675Y-2.3455
X6.4724Y-5.8899
X6.4875Y-5.3303
X6.4902Y-5.4894
X6.4954Y-5.7553
X6.4981Y-5.1691
X6.5009Y-3.2268
X6.5059Y-3.124
X6.5059Y-3.2559
X6.5096Y-5.3582
X6.5111Y-5.2122
X6.5138Y-3.0728
X6.5236Y-2.689
X6.5276Y-5.6474
X6.5385Y-3.2559
X6.5453Y-3.0382
X6.5453Y-3.2008
X6.5492Y-4.8425
X6.5689Y-3.3563
X6.5787Y-3.1929
X6.5825Y-5.2024
X6.5846Y-5.4823
X6.5861Y-5.3534
X6.5886Y-3.3839
X6.5955Y-5.1592
X6.5965Y-5.25
X6.597Y-5.2928
X6.5984Y-5.7126
X6.6024Y-5.3287
X6.6043Y-2.5402
X6.6102Y-2.3228
X6.622Y-5.5197
X6.6339Y-3.1202
X6.6535Y-3.1496
X6.6536Y-3.2086
X6.6576Y-3.2606
X6.6594Y-3.3042
X6.6633Y-3.501
X6.6634Y-5.7067
X6.6683Y-3.6358
X6.6735Y-3.4731
X6.6871Y-3.2619
X6.6966Y-3.7168
X6.7126Y-3.7402
X6.7326Y-5.2358
X6.7354Y-4.8394
X6.7402Y-3.2213
X6.7493Y-3.6873
X6.75Y-3.6122
X6.7559Y-2.81
X6.7785Y-3.4114
X6.7925Y-3.8128
X6.8098Y-4.852
X6.8278Y-2.2963
X6.8283Y-5.4646
X6.84Y-5.0406
X6.841Y-3.3106
X6.8504Y-3.3563
X6.8504Y-3.4469
X6.8531Y-4.8478
X6.8542Y-5.0665
X6.8599Y-4.763
X6.8622Y-5.7559
X6.8635Y-4.8755
X6.8947Y-3.1654
X6.9237Y-4.6974
X6.9272Y-5.376
X6.9291Y-4.7383
X6.9606Y-5.4004
X6.9862Y-4.9713
X6.9921Y-3.2677
X6.9961Y-2.926
X7.0118Y-2.9929
X7.0256Y-3.9988
X7.0339Y-3.6874
X7.0354Y-5.5039
X7.0512Y-2.3472
X7.0551Y-4.2845
X7.0571Y-3.5522
X7.0575Y-4.0595
X7.059Y-4.0001
X7.0591Y-3.1516
X7.0591Y-4.3973
X7.0602Y-4.8452
X7.0602Y-4.1673
X7.0602Y-3.3209
X7.0602Y-4.4785
X7.0602Y-4.5854
X7.0611Y-3.3566
X7.0621Y-3.7756
X7.0628Y-4.1995
X7.065Y-3.7224
X7.065Y-3.9711
X7.0689Y-4.817
X7.0865Y-3.5498
X7.0866Y-3.3386
X7.1087Y-5.0513
X7.1137Y-3.0445
X7.1191Y-5.0874
T2
X5.3307Y-2.3819
X5.3819Y-3.1102
X5.4173Y-2.3819
X5.5098Y-2.9705
X5.7677Y-2.4055
X6.0079Y-2.2441
X6.5492Y-3.4862
X6.5531Y-3.5571
X6.7402Y-2.2992
X6.1594Y-5.8356
X6.185Y-5.8632
X6.2165Y-5.8632
X6.2323Y-5.8356
X6.248Y-5.8632
X6.2638Y-5.8356
X6.2953Y-5.8356
X6.311Y-5.8632
X6.3268Y-5.8356
X6.3425Y-5.8632
X6.374Y-5.8632
X6.3996Y-5.8356
T3
X6.1201Y-5.8199
X6.439Y-5.8199
T4
X5.8681Y-5.6417
X5.9429Y-5.6417
T5
X6.1024Y-5.7982
X6.4567Y-5.7982
T6
X4.7126Y-3.4843
X4.7126Y-3.563
X4.7126Y-3.6417
X4.7126Y-3.7992
X4.7264Y-2.8937
X4.7264Y-2.9724
X4.7264Y-3.0512
X4.7264Y-3.1299
X4.7264Y-3.2087
X4.7264Y-3.2874
X4.8248Y-2.8937
X4.8248Y-2.9724
X4.8248Y-3.0512
X4.8248Y-3.1299
X4.8248Y-3.2087
X4.8248Y-3.2874
X5.8071Y-5.9665
X5.8071Y-6.0965
X5.9055Y-5.9665
X5.9055Y-6.0965
X6.0039Y-5.9665
X6.0039Y-6.0965
T7
X4.8543Y-3.6142
X4.9528Y-3.6142
X5.0512Y-3.6142
T8
X6.6602Y-5.2795
X6.8602Y-5.2795
X7.0602Y-5.2795
T9
X4.6654Y-2.8307
X4.8858Y-3.3504
T10
X4.7126Y-3.4016
X4.7126Y-3.8819
T11
X6.1732Y-4.8996
X6.1732Y-4.8996
X6.7323Y-5.113
X6.7323Y-5.113
X5.7283Y-4.5472
X5.7283Y-4.5472
X6.9886Y-5.1102
X6.9886Y-5.1102
T12
X6.063Y-5.2756
T5
G00X6.1024Y-6.0069
M15
G01X6.1024Y-6.0423
M16
G05
G00X6.4567Y-6.0069
M15
G01X6.4567Y-6.0423
M16
G05
T0
M30
