G04 #@! TF.GenerationSoftware,KiCad,Pcbnew,8.0.8+dfsg-1*
G04 #@! TF.CreationDate,2025-03-16T16:51:26-04:00*
G04 #@! TF.ProjectId,RUST_Daughterboard,52555354-5f44-4617-9567-68746572626f,rev?*
G04 #@! TF.SameCoordinates,Original*
G04 #@! TF.FileFunction,Legend,Top*
G04 #@! TF.FilePolarity,Positive*
%FSLAX46Y46*%
G04 Gerber Fmt 4.6, Leading zero omitted, Abs format (unit mm)*
G04 Created by KiCad (PCBNEW 8.0.8+dfsg-1) date 2025-03-16 16:51:26*
%MOMM*%
%LPD*%
G01*
G04 APERTURE LIST*
%ADD10C,0.150000*%
%ADD11C,0.120000*%
%ADD12C,0.200000*%
%ADD13C,0.010000*%
G04 APERTURE END LIST*
D10*
X176200000Y-137000000D02*
X152000000Y-137000000D01*
X143035713Y-79454819D02*
X142702380Y-78978628D01*
X142464285Y-79454819D02*
X142464285Y-78454819D01*
X142464285Y-78454819D02*
X142845237Y-78454819D01*
X142845237Y-78454819D02*
X142940475Y-78502438D01*
X142940475Y-78502438D02*
X142988094Y-78550057D01*
X142988094Y-78550057D02*
X143035713Y-78645295D01*
X143035713Y-78645295D02*
X143035713Y-78788152D01*
X143035713Y-78788152D02*
X142988094Y-78883390D01*
X142988094Y-78883390D02*
X142940475Y-78931009D01*
X142940475Y-78931009D02*
X142845237Y-78978628D01*
X142845237Y-78978628D02*
X142464285Y-78978628D01*
X143464285Y-78454819D02*
X143464285Y-79264342D01*
X143464285Y-79264342D02*
X143511904Y-79359580D01*
X143511904Y-79359580D02*
X143559523Y-79407200D01*
X143559523Y-79407200D02*
X143654761Y-79454819D01*
X143654761Y-79454819D02*
X143845237Y-79454819D01*
X143845237Y-79454819D02*
X143940475Y-79407200D01*
X143940475Y-79407200D02*
X143988094Y-79359580D01*
X143988094Y-79359580D02*
X144035713Y-79264342D01*
X144035713Y-79264342D02*
X144035713Y-78454819D01*
X144464285Y-79407200D02*
X144607142Y-79454819D01*
X144607142Y-79454819D02*
X144845237Y-79454819D01*
X144845237Y-79454819D02*
X144940475Y-79407200D01*
X144940475Y-79407200D02*
X144988094Y-79359580D01*
X144988094Y-79359580D02*
X145035713Y-79264342D01*
X145035713Y-79264342D02*
X145035713Y-79169104D01*
X145035713Y-79169104D02*
X144988094Y-79073866D01*
X144988094Y-79073866D02*
X144940475Y-79026247D01*
X144940475Y-79026247D02*
X144845237Y-78978628D01*
X144845237Y-78978628D02*
X144654761Y-78931009D01*
X144654761Y-78931009D02*
X144559523Y-78883390D01*
X144559523Y-78883390D02*
X144511904Y-78835771D01*
X144511904Y-78835771D02*
X144464285Y-78740533D01*
X144464285Y-78740533D02*
X144464285Y-78645295D01*
X144464285Y-78645295D02*
X144511904Y-78550057D01*
X144511904Y-78550057D02*
X144559523Y-78502438D01*
X144559523Y-78502438D02*
X144654761Y-78454819D01*
X144654761Y-78454819D02*
X144892856Y-78454819D01*
X144892856Y-78454819D02*
X145035713Y-78502438D01*
X145464285Y-79454819D02*
X145464285Y-78454819D01*
X145464285Y-78454819D02*
X145845237Y-78454819D01*
X145845237Y-78454819D02*
X145940475Y-78502438D01*
X145940475Y-78502438D02*
X145988094Y-78550057D01*
X145988094Y-78550057D02*
X146035713Y-78645295D01*
X146035713Y-78645295D02*
X146035713Y-78788152D01*
X146035713Y-78788152D02*
X145988094Y-78883390D01*
X145988094Y-78883390D02*
X145940475Y-78931009D01*
X145940475Y-78931009D02*
X145845237Y-78978628D01*
X145845237Y-78978628D02*
X145464285Y-78978628D01*
X147988095Y-79454819D02*
X147988095Y-78454819D01*
X147988095Y-78454819D02*
X148226190Y-78454819D01*
X148226190Y-78454819D02*
X148369047Y-78502438D01*
X148369047Y-78502438D02*
X148464285Y-78597676D01*
X148464285Y-78597676D02*
X148511904Y-78692914D01*
X148511904Y-78692914D02*
X148559523Y-78883390D01*
X148559523Y-78883390D02*
X148559523Y-79026247D01*
X148559523Y-79026247D02*
X148511904Y-79216723D01*
X148511904Y-79216723D02*
X148464285Y-79311961D01*
X148464285Y-79311961D02*
X148369047Y-79407200D01*
X148369047Y-79407200D02*
X148226190Y-79454819D01*
X148226190Y-79454819D02*
X147988095Y-79454819D01*
X148940476Y-79169104D02*
X149416666Y-79169104D01*
X148845238Y-79454819D02*
X149178571Y-78454819D01*
X149178571Y-78454819D02*
X149511904Y-79454819D01*
X149845238Y-78454819D02*
X149845238Y-79264342D01*
X149845238Y-79264342D02*
X149892857Y-79359580D01*
X149892857Y-79359580D02*
X149940476Y-79407200D01*
X149940476Y-79407200D02*
X150035714Y-79454819D01*
X150035714Y-79454819D02*
X150226190Y-79454819D01*
X150226190Y-79454819D02*
X150321428Y-79407200D01*
X150321428Y-79407200D02*
X150369047Y-79359580D01*
X150369047Y-79359580D02*
X150416666Y-79264342D01*
X150416666Y-79264342D02*
X150416666Y-78454819D01*
X151416666Y-78502438D02*
X151321428Y-78454819D01*
X151321428Y-78454819D02*
X151178571Y-78454819D01*
X151178571Y-78454819D02*
X151035714Y-78502438D01*
X151035714Y-78502438D02*
X150940476Y-78597676D01*
X150940476Y-78597676D02*
X150892857Y-78692914D01*
X150892857Y-78692914D02*
X150845238Y-78883390D01*
X150845238Y-78883390D02*
X150845238Y-79026247D01*
X150845238Y-79026247D02*
X150892857Y-79216723D01*
X150892857Y-79216723D02*
X150940476Y-79311961D01*
X150940476Y-79311961D02*
X151035714Y-79407200D01*
X151035714Y-79407200D02*
X151178571Y-79454819D01*
X151178571Y-79454819D02*
X151273809Y-79454819D01*
X151273809Y-79454819D02*
X151416666Y-79407200D01*
X151416666Y-79407200D02*
X151464285Y-79359580D01*
X151464285Y-79359580D02*
X151464285Y-79026247D01*
X151464285Y-79026247D02*
X151273809Y-79026247D01*
X151892857Y-79454819D02*
X151892857Y-78454819D01*
X151892857Y-78931009D02*
X152464285Y-78931009D01*
X152464285Y-79454819D02*
X152464285Y-78454819D01*
X152797619Y-78454819D02*
X153369047Y-78454819D01*
X153083333Y-79454819D02*
X153083333Y-78454819D01*
X153702381Y-78931009D02*
X154035714Y-78931009D01*
X154178571Y-79454819D02*
X153702381Y-79454819D01*
X153702381Y-79454819D02*
X153702381Y-78454819D01*
X153702381Y-78454819D02*
X154178571Y-78454819D01*
X155178571Y-79454819D02*
X154845238Y-78978628D01*
X154607143Y-79454819D02*
X154607143Y-78454819D01*
X154607143Y-78454819D02*
X154988095Y-78454819D01*
X154988095Y-78454819D02*
X155083333Y-78502438D01*
X155083333Y-78502438D02*
X155130952Y-78550057D01*
X155130952Y-78550057D02*
X155178571Y-78645295D01*
X155178571Y-78645295D02*
X155178571Y-78788152D01*
X155178571Y-78788152D02*
X155130952Y-78883390D01*
X155130952Y-78883390D02*
X155083333Y-78931009D01*
X155083333Y-78931009D02*
X154988095Y-78978628D01*
X154988095Y-78978628D02*
X154607143Y-78978628D01*
X155940476Y-78931009D02*
X156083333Y-78978628D01*
X156083333Y-78978628D02*
X156130952Y-79026247D01*
X156130952Y-79026247D02*
X156178571Y-79121485D01*
X156178571Y-79121485D02*
X156178571Y-79264342D01*
X156178571Y-79264342D02*
X156130952Y-79359580D01*
X156130952Y-79359580D02*
X156083333Y-79407200D01*
X156083333Y-79407200D02*
X155988095Y-79454819D01*
X155988095Y-79454819D02*
X155607143Y-79454819D01*
X155607143Y-79454819D02*
X155607143Y-78454819D01*
X155607143Y-78454819D02*
X155940476Y-78454819D01*
X155940476Y-78454819D02*
X156035714Y-78502438D01*
X156035714Y-78502438D02*
X156083333Y-78550057D01*
X156083333Y-78550057D02*
X156130952Y-78645295D01*
X156130952Y-78645295D02*
X156130952Y-78740533D01*
X156130952Y-78740533D02*
X156083333Y-78835771D01*
X156083333Y-78835771D02*
X156035714Y-78883390D01*
X156035714Y-78883390D02*
X155940476Y-78931009D01*
X155940476Y-78931009D02*
X155607143Y-78931009D01*
X156797619Y-78454819D02*
X156988095Y-78454819D01*
X156988095Y-78454819D02*
X157083333Y-78502438D01*
X157083333Y-78502438D02*
X157178571Y-78597676D01*
X157178571Y-78597676D02*
X157226190Y-78788152D01*
X157226190Y-78788152D02*
X157226190Y-79121485D01*
X157226190Y-79121485D02*
X157178571Y-79311961D01*
X157178571Y-79311961D02*
X157083333Y-79407200D01*
X157083333Y-79407200D02*
X156988095Y-79454819D01*
X156988095Y-79454819D02*
X156797619Y-79454819D01*
X156797619Y-79454819D02*
X156702381Y-79407200D01*
X156702381Y-79407200D02*
X156607143Y-79311961D01*
X156607143Y-79311961D02*
X156559524Y-79121485D01*
X156559524Y-79121485D02*
X156559524Y-78788152D01*
X156559524Y-78788152D02*
X156607143Y-78597676D01*
X156607143Y-78597676D02*
X156702381Y-78502438D01*
X156702381Y-78502438D02*
X156797619Y-78454819D01*
X157607143Y-79169104D02*
X158083333Y-79169104D01*
X157511905Y-79454819D02*
X157845238Y-78454819D01*
X157845238Y-78454819D02*
X158178571Y-79454819D01*
X159083333Y-79454819D02*
X158750000Y-78978628D01*
X158511905Y-79454819D02*
X158511905Y-78454819D01*
X158511905Y-78454819D02*
X158892857Y-78454819D01*
X158892857Y-78454819D02*
X158988095Y-78502438D01*
X158988095Y-78502438D02*
X159035714Y-78550057D01*
X159035714Y-78550057D02*
X159083333Y-78645295D01*
X159083333Y-78645295D02*
X159083333Y-78788152D01*
X159083333Y-78788152D02*
X159035714Y-78883390D01*
X159035714Y-78883390D02*
X158988095Y-78931009D01*
X158988095Y-78931009D02*
X158892857Y-78978628D01*
X158892857Y-78978628D02*
X158511905Y-78978628D01*
X159511905Y-79454819D02*
X159511905Y-78454819D01*
X159511905Y-78454819D02*
X159750000Y-78454819D01*
X159750000Y-78454819D02*
X159892857Y-78502438D01*
X159892857Y-78502438D02*
X159988095Y-78597676D01*
X159988095Y-78597676D02*
X160035714Y-78692914D01*
X160035714Y-78692914D02*
X160083333Y-78883390D01*
X160083333Y-78883390D02*
X160083333Y-79026247D01*
X160083333Y-79026247D02*
X160035714Y-79216723D01*
X160035714Y-79216723D02*
X159988095Y-79311961D01*
X159988095Y-79311961D02*
X159892857Y-79407200D01*
X159892857Y-79407200D02*
X159750000Y-79454819D01*
X159750000Y-79454819D02*
X159511905Y-79454819D01*
X178207200Y-137552380D02*
X178254819Y-137457142D01*
X178254819Y-137457142D02*
X178254819Y-137266666D01*
X178254819Y-137266666D02*
X178207200Y-137171428D01*
X178207200Y-137171428D02*
X178111961Y-137123809D01*
X178111961Y-137123809D02*
X178064342Y-137123809D01*
X178064342Y-137123809D02*
X177969104Y-137171428D01*
X177969104Y-137171428D02*
X177921485Y-137266666D01*
X177921485Y-137266666D02*
X177921485Y-137409523D01*
X177921485Y-137409523D02*
X177873866Y-137504761D01*
X177873866Y-137504761D02*
X177778628Y-137552380D01*
X177778628Y-137552380D02*
X177731009Y-137552380D01*
X177731009Y-137552380D02*
X177635771Y-137504761D01*
X177635771Y-137504761D02*
X177588152Y-137409523D01*
X177588152Y-137409523D02*
X177588152Y-137266666D01*
X177588152Y-137266666D02*
X177635771Y-137171428D01*
X178254819Y-136695237D02*
X177254819Y-136695237D01*
X177873866Y-136599999D02*
X178254819Y-136314285D01*
X177588152Y-136314285D02*
X177969104Y-136695237D01*
X177588152Y-135980951D02*
X178254819Y-135742856D01*
X177588152Y-135504761D02*
X178254819Y-135742856D01*
X178254819Y-135742856D02*
X178492914Y-135838094D01*
X178492914Y-135838094D02*
X178540533Y-135885713D01*
X178540533Y-135885713D02*
X178588152Y-135980951D01*
X178207200Y-135171427D02*
X178254819Y-135076189D01*
X178254819Y-135076189D02*
X178254819Y-134885713D01*
X178254819Y-134885713D02*
X178207200Y-134790475D01*
X178207200Y-134790475D02*
X178111961Y-134742856D01*
X178111961Y-134742856D02*
X178064342Y-134742856D01*
X178064342Y-134742856D02*
X177969104Y-134790475D01*
X177969104Y-134790475D02*
X177921485Y-134885713D01*
X177921485Y-134885713D02*
X177921485Y-135028570D01*
X177921485Y-135028570D02*
X177873866Y-135123808D01*
X177873866Y-135123808D02*
X177778628Y-135171427D01*
X177778628Y-135171427D02*
X177731009Y-135171427D01*
X177731009Y-135171427D02*
X177635771Y-135123808D01*
X177635771Y-135123808D02*
X177588152Y-135028570D01*
X177588152Y-135028570D02*
X177588152Y-134885713D01*
X177588152Y-134885713D02*
X177635771Y-134790475D01*
X178207200Y-133933332D02*
X178254819Y-134028570D01*
X178254819Y-134028570D02*
X178254819Y-134219046D01*
X178254819Y-134219046D02*
X178207200Y-134314284D01*
X178207200Y-134314284D02*
X178111961Y-134361903D01*
X178111961Y-134361903D02*
X177731009Y-134361903D01*
X177731009Y-134361903D02*
X177635771Y-134314284D01*
X177635771Y-134314284D02*
X177588152Y-134219046D01*
X177588152Y-134219046D02*
X177588152Y-134028570D01*
X177588152Y-134028570D02*
X177635771Y-133933332D01*
X177635771Y-133933332D02*
X177731009Y-133885713D01*
X177731009Y-133885713D02*
X177826247Y-133885713D01*
X177826247Y-133885713D02*
X177921485Y-134361903D01*
X178254819Y-133028570D02*
X177254819Y-133028570D01*
X178207200Y-133028570D02*
X178254819Y-133123808D01*
X178254819Y-133123808D02*
X178254819Y-133314284D01*
X178254819Y-133314284D02*
X178207200Y-133409522D01*
X178207200Y-133409522D02*
X178159580Y-133457141D01*
X178159580Y-133457141D02*
X178064342Y-133504760D01*
X178064342Y-133504760D02*
X177778628Y-133504760D01*
X177778628Y-133504760D02*
X177683390Y-133457141D01*
X177683390Y-133457141D02*
X177635771Y-133409522D01*
X177635771Y-133409522D02*
X177588152Y-133314284D01*
X177588152Y-133314284D02*
X177588152Y-133123808D01*
X177588152Y-133123808D02*
X177635771Y-133028570D01*
X177588152Y-132123808D02*
X178397676Y-132123808D01*
X178397676Y-132123808D02*
X178492914Y-132171427D01*
X178492914Y-132171427D02*
X178540533Y-132219046D01*
X178540533Y-132219046D02*
X178588152Y-132314284D01*
X178588152Y-132314284D02*
X178588152Y-132457141D01*
X178588152Y-132457141D02*
X178540533Y-132552379D01*
X178207200Y-132123808D02*
X178254819Y-132219046D01*
X178254819Y-132219046D02*
X178254819Y-132409522D01*
X178254819Y-132409522D02*
X178207200Y-132504760D01*
X178207200Y-132504760D02*
X178159580Y-132552379D01*
X178159580Y-132552379D02*
X178064342Y-132599998D01*
X178064342Y-132599998D02*
X177778628Y-132599998D01*
X177778628Y-132599998D02*
X177683390Y-132552379D01*
X177683390Y-132552379D02*
X177635771Y-132504760D01*
X177635771Y-132504760D02*
X177588152Y-132409522D01*
X177588152Y-132409522D02*
X177588152Y-132219046D01*
X177588152Y-132219046D02*
X177635771Y-132123808D01*
X178207200Y-131266665D02*
X178254819Y-131361903D01*
X178254819Y-131361903D02*
X178254819Y-131552379D01*
X178254819Y-131552379D02*
X178207200Y-131647617D01*
X178207200Y-131647617D02*
X178111961Y-131695236D01*
X178111961Y-131695236D02*
X177731009Y-131695236D01*
X177731009Y-131695236D02*
X177635771Y-131647617D01*
X177635771Y-131647617D02*
X177588152Y-131552379D01*
X177588152Y-131552379D02*
X177588152Y-131361903D01*
X177588152Y-131361903D02*
X177635771Y-131266665D01*
X177635771Y-131266665D02*
X177731009Y-131219046D01*
X177731009Y-131219046D02*
X177826247Y-131219046D01*
X177826247Y-131219046D02*
X177921485Y-131695236D01*
X178159580Y-130790474D02*
X178207200Y-130742855D01*
X178207200Y-130742855D02*
X178254819Y-130790474D01*
X178254819Y-130790474D02*
X178207200Y-130838093D01*
X178207200Y-130838093D02*
X178159580Y-130790474D01*
X178159580Y-130790474D02*
X178254819Y-130790474D01*
X178207200Y-129885713D02*
X178254819Y-129980951D01*
X178254819Y-129980951D02*
X178254819Y-130171427D01*
X178254819Y-130171427D02*
X178207200Y-130266665D01*
X178207200Y-130266665D02*
X178159580Y-130314284D01*
X178159580Y-130314284D02*
X178064342Y-130361903D01*
X178064342Y-130361903D02*
X177778628Y-130361903D01*
X177778628Y-130361903D02*
X177683390Y-130314284D01*
X177683390Y-130314284D02*
X177635771Y-130266665D01*
X177635771Y-130266665D02*
X177588152Y-130171427D01*
X177588152Y-130171427D02*
X177588152Y-129980951D01*
X177588152Y-129980951D02*
X177635771Y-129885713D01*
X178254819Y-129314284D02*
X178207200Y-129409522D01*
X178207200Y-129409522D02*
X178159580Y-129457141D01*
X178159580Y-129457141D02*
X178064342Y-129504760D01*
X178064342Y-129504760D02*
X177778628Y-129504760D01*
X177778628Y-129504760D02*
X177683390Y-129457141D01*
X177683390Y-129457141D02*
X177635771Y-129409522D01*
X177635771Y-129409522D02*
X177588152Y-129314284D01*
X177588152Y-129314284D02*
X177588152Y-129171427D01*
X177588152Y-129171427D02*
X177635771Y-129076189D01*
X177635771Y-129076189D02*
X177683390Y-129028570D01*
X177683390Y-129028570D02*
X177778628Y-128980951D01*
X177778628Y-128980951D02*
X178064342Y-128980951D01*
X178064342Y-128980951D02*
X178159580Y-129028570D01*
X178159580Y-129028570D02*
X178207200Y-129076189D01*
X178207200Y-129076189D02*
X178254819Y-129171427D01*
X178254819Y-129171427D02*
X178254819Y-129314284D01*
X178254819Y-128552379D02*
X177588152Y-128552379D01*
X177683390Y-128552379D02*
X177635771Y-128504760D01*
X177635771Y-128504760D02*
X177588152Y-128409522D01*
X177588152Y-128409522D02*
X177588152Y-128266665D01*
X177588152Y-128266665D02*
X177635771Y-128171427D01*
X177635771Y-128171427D02*
X177731009Y-128123808D01*
X177731009Y-128123808D02*
X178254819Y-128123808D01*
X177731009Y-128123808D02*
X177635771Y-128076189D01*
X177635771Y-128076189D02*
X177588152Y-127980951D01*
X177588152Y-127980951D02*
X177588152Y-127838094D01*
X177588152Y-127838094D02*
X177635771Y-127742855D01*
X177635771Y-127742855D02*
X177731009Y-127695236D01*
X177731009Y-127695236D02*
X178254819Y-127695236D01*
D11*
X143261905Y-113956379D02*
X143261905Y-112956379D01*
X143261905Y-112956379D02*
X143595238Y-113670664D01*
X143595238Y-113670664D02*
X143928571Y-112956379D01*
X143928571Y-112956379D02*
X143928571Y-113956379D01*
X144357143Y-113051617D02*
X144404762Y-113003998D01*
X144404762Y-113003998D02*
X144500000Y-112956379D01*
X144500000Y-112956379D02*
X144738095Y-112956379D01*
X144738095Y-112956379D02*
X144833333Y-113003998D01*
X144833333Y-113003998D02*
X144880952Y-113051617D01*
X144880952Y-113051617D02*
X144928571Y-113146855D01*
X144928571Y-113146855D02*
X144928571Y-113242093D01*
X144928571Y-113242093D02*
X144880952Y-113384950D01*
X144880952Y-113384950D02*
X144309524Y-113956379D01*
X144309524Y-113956379D02*
X144928571Y-113956379D01*
X145261905Y-112956379D02*
X145928571Y-113956379D01*
X145928571Y-112956379D02*
X145261905Y-113956379D01*
X146833333Y-113956379D02*
X146261905Y-113956379D01*
X146547619Y-113956379D02*
X146547619Y-112956379D01*
X146547619Y-112956379D02*
X146452381Y-113099236D01*
X146452381Y-113099236D02*
X146357143Y-113194474D01*
X146357143Y-113194474D02*
X146261905Y-113242093D01*
X147690476Y-112956379D02*
X147500000Y-112956379D01*
X147500000Y-112956379D02*
X147404762Y-113003998D01*
X147404762Y-113003998D02*
X147357143Y-113051617D01*
X147357143Y-113051617D02*
X147261905Y-113194474D01*
X147261905Y-113194474D02*
X147214286Y-113384950D01*
X147214286Y-113384950D02*
X147214286Y-113765902D01*
X147214286Y-113765902D02*
X147261905Y-113861140D01*
X147261905Y-113861140D02*
X147309524Y-113908760D01*
X147309524Y-113908760D02*
X147404762Y-113956379D01*
X147404762Y-113956379D02*
X147595238Y-113956379D01*
X147595238Y-113956379D02*
X147690476Y-113908760D01*
X147690476Y-113908760D02*
X147738095Y-113861140D01*
X147738095Y-113861140D02*
X147785714Y-113765902D01*
X147785714Y-113765902D02*
X147785714Y-113527807D01*
X147785714Y-113527807D02*
X147738095Y-113432569D01*
X147738095Y-113432569D02*
X147690476Y-113384950D01*
X147690476Y-113384950D02*
X147595238Y-113337331D01*
X147595238Y-113337331D02*
X147404762Y-113337331D01*
X147404762Y-113337331D02*
X147309524Y-113384950D01*
X147309524Y-113384950D02*
X147261905Y-113432569D01*
X147261905Y-113432569D02*
X147214286Y-113527807D01*
X156161905Y-134456379D02*
X156161905Y-133456379D01*
X156161905Y-133456379D02*
X156495238Y-134170664D01*
X156495238Y-134170664D02*
X156828571Y-133456379D01*
X156828571Y-133456379D02*
X156828571Y-134456379D01*
X157257143Y-133551617D02*
X157304762Y-133503998D01*
X157304762Y-133503998D02*
X157400000Y-133456379D01*
X157400000Y-133456379D02*
X157638095Y-133456379D01*
X157638095Y-133456379D02*
X157733333Y-133503998D01*
X157733333Y-133503998D02*
X157780952Y-133551617D01*
X157780952Y-133551617D02*
X157828571Y-133646855D01*
X157828571Y-133646855D02*
X157828571Y-133742093D01*
X157828571Y-133742093D02*
X157780952Y-133884950D01*
X157780952Y-133884950D02*
X157209524Y-134456379D01*
X157209524Y-134456379D02*
X157828571Y-134456379D01*
X158161905Y-133456379D02*
X158828571Y-134456379D01*
X158828571Y-133456379D02*
X158161905Y-134456379D01*
X159733333Y-134456379D02*
X159161905Y-134456379D01*
X159447619Y-134456379D02*
X159447619Y-133456379D01*
X159447619Y-133456379D02*
X159352381Y-133599236D01*
X159352381Y-133599236D02*
X159257143Y-133694474D01*
X159257143Y-133694474D02*
X159161905Y-133742093D01*
X160352381Y-133456379D02*
X160447619Y-133456379D01*
X160447619Y-133456379D02*
X160542857Y-133503998D01*
X160542857Y-133503998D02*
X160590476Y-133551617D01*
X160590476Y-133551617D02*
X160638095Y-133646855D01*
X160638095Y-133646855D02*
X160685714Y-133837331D01*
X160685714Y-133837331D02*
X160685714Y-134075426D01*
X160685714Y-134075426D02*
X160638095Y-134265902D01*
X160638095Y-134265902D02*
X160590476Y-134361140D01*
X160590476Y-134361140D02*
X160542857Y-134408760D01*
X160542857Y-134408760D02*
X160447619Y-134456379D01*
X160447619Y-134456379D02*
X160352381Y-134456379D01*
X160352381Y-134456379D02*
X160257143Y-134408760D01*
X160257143Y-134408760D02*
X160209524Y-134361140D01*
X160209524Y-134361140D02*
X160161905Y-134265902D01*
X160161905Y-134265902D02*
X160114286Y-134075426D01*
X160114286Y-134075426D02*
X160114286Y-133837331D01*
X160114286Y-133837331D02*
X160161905Y-133646855D01*
X160161905Y-133646855D02*
X160209524Y-133551617D01*
X160209524Y-133551617D02*
X160257143Y-133503998D01*
X160257143Y-133503998D02*
X160352381Y-133456379D01*
X177563855Y-117628571D02*
X178135283Y-117628571D01*
X178135283Y-117628571D02*
X178249569Y-117666666D01*
X178249569Y-117666666D02*
X178325760Y-117742857D01*
X178325760Y-117742857D02*
X178363855Y-117857142D01*
X178363855Y-117857142D02*
X178363855Y-117933333D01*
X178287664Y-117247618D02*
X178325760Y-117209523D01*
X178325760Y-117209523D02*
X178363855Y-117247618D01*
X178363855Y-117247618D02*
X178325760Y-117285714D01*
X178325760Y-117285714D02*
X178287664Y-117247618D01*
X178287664Y-117247618D02*
X178363855Y-117247618D01*
X178363855Y-116257142D02*
X177563855Y-116257142D01*
X177944807Y-116257142D02*
X177944807Y-115799999D01*
X178363855Y-115799999D02*
X177563855Y-115799999D01*
X178135283Y-115457143D02*
X178135283Y-115076190D01*
X178363855Y-115533333D02*
X177563855Y-115266666D01*
X177563855Y-115266666D02*
X178363855Y-115000000D01*
X177563855Y-114733333D02*
X178211474Y-114733333D01*
X178211474Y-114733333D02*
X178287664Y-114695238D01*
X178287664Y-114695238D02*
X178325760Y-114657143D01*
X178325760Y-114657143D02*
X178363855Y-114580952D01*
X178363855Y-114580952D02*
X178363855Y-114428571D01*
X178363855Y-114428571D02*
X178325760Y-114352381D01*
X178325760Y-114352381D02*
X178287664Y-114314286D01*
X178287664Y-114314286D02*
X178211474Y-114276190D01*
X178211474Y-114276190D02*
X177563855Y-114276190D01*
X178363855Y-113895238D02*
X177563855Y-113895238D01*
X177563855Y-113895238D02*
X177563855Y-113590476D01*
X177563855Y-113590476D02*
X177601950Y-113514286D01*
X177601950Y-113514286D02*
X177640045Y-113476191D01*
X177640045Y-113476191D02*
X177716236Y-113438095D01*
X177716236Y-113438095D02*
X177830521Y-113438095D01*
X177830521Y-113438095D02*
X177906712Y-113476191D01*
X177906712Y-113476191D02*
X177944807Y-113514286D01*
X177944807Y-113514286D02*
X177982902Y-113590476D01*
X177982902Y-113590476D02*
X177982902Y-113895238D01*
X177563855Y-113209524D02*
X177563855Y-112752381D01*
X178363855Y-112980953D02*
X177563855Y-112980953D01*
X178059093Y-111876190D02*
X178059093Y-111266667D01*
X177830521Y-110352381D02*
X178363855Y-110161905D01*
X178363855Y-110161905D02*
X177830521Y-109971428D01*
X178363855Y-109247619D02*
X178363855Y-109704762D01*
X178363855Y-109476190D02*
X177563855Y-109476190D01*
X177563855Y-109476190D02*
X177678140Y-109552381D01*
X177678140Y-109552381D02*
X177754331Y-109628571D01*
X177754331Y-109628571D02*
X177792426Y-109704762D01*
X178287664Y-108904761D02*
X178325760Y-108866666D01*
X178325760Y-108866666D02*
X178363855Y-108904761D01*
X178363855Y-108904761D02*
X178325760Y-108942857D01*
X178325760Y-108942857D02*
X178287664Y-108904761D01*
X178287664Y-108904761D02*
X178363855Y-108904761D01*
X177563855Y-108600000D02*
X177563855Y-108104762D01*
X177563855Y-108104762D02*
X177868617Y-108371428D01*
X177868617Y-108371428D02*
X177868617Y-108257143D01*
X177868617Y-108257143D02*
X177906712Y-108180952D01*
X177906712Y-108180952D02*
X177944807Y-108142857D01*
X177944807Y-108142857D02*
X178020998Y-108104762D01*
X178020998Y-108104762D02*
X178211474Y-108104762D01*
X178211474Y-108104762D02*
X178287664Y-108142857D01*
X178287664Y-108142857D02*
X178325760Y-108180952D01*
X178325760Y-108180952D02*
X178363855Y-108257143D01*
X178363855Y-108257143D02*
X178363855Y-108485714D01*
X178363855Y-108485714D02*
X178325760Y-108561905D01*
X178325760Y-108561905D02*
X178287664Y-108600000D01*
X164257142Y-137842760D02*
X164199999Y-137871331D01*
X164199999Y-137871331D02*
X164085714Y-137871331D01*
X164085714Y-137871331D02*
X164028571Y-137842760D01*
X164028571Y-137842760D02*
X163999999Y-137785617D01*
X163999999Y-137785617D02*
X163999999Y-137557045D01*
X163999999Y-137557045D02*
X164028571Y-137499902D01*
X164028571Y-137499902D02*
X164085714Y-137471331D01*
X164085714Y-137471331D02*
X164199999Y-137471331D01*
X164199999Y-137471331D02*
X164257142Y-137499902D01*
X164257142Y-137499902D02*
X164285714Y-137557045D01*
X164285714Y-137557045D02*
X164285714Y-137614188D01*
X164285714Y-137614188D02*
X163999999Y-137671331D01*
X164542857Y-137871331D02*
X164542857Y-137271331D01*
X164542857Y-137271331D02*
X164771428Y-137271331D01*
X164771428Y-137271331D02*
X164828571Y-137299902D01*
X164828571Y-137299902D02*
X164857142Y-137328474D01*
X164857142Y-137328474D02*
X164885714Y-137385617D01*
X164885714Y-137385617D02*
X164885714Y-137471331D01*
X164885714Y-137471331D02*
X164857142Y-137528474D01*
X164857142Y-137528474D02*
X164828571Y-137557045D01*
X164828571Y-137557045D02*
X164771428Y-137585617D01*
X164771428Y-137585617D02*
X164542857Y-137585617D01*
X165400000Y-137871331D02*
X165400000Y-137557045D01*
X165400000Y-137557045D02*
X165371428Y-137499902D01*
X165371428Y-137499902D02*
X165314285Y-137471331D01*
X165314285Y-137471331D02*
X165200000Y-137471331D01*
X165200000Y-137471331D02*
X165142857Y-137499902D01*
X165400000Y-137842760D02*
X165342857Y-137871331D01*
X165342857Y-137871331D02*
X165200000Y-137871331D01*
X165200000Y-137871331D02*
X165142857Y-137842760D01*
X165142857Y-137842760D02*
X165114285Y-137785617D01*
X165114285Y-137785617D02*
X165114285Y-137728474D01*
X165114285Y-137728474D02*
X165142857Y-137671331D01*
X165142857Y-137671331D02*
X165200000Y-137642760D01*
X165200000Y-137642760D02*
X165342857Y-137642760D01*
X165342857Y-137642760D02*
X165400000Y-137614188D01*
X165685714Y-137471331D02*
X165685714Y-138071331D01*
X165685714Y-137499902D02*
X165742857Y-137471331D01*
X165742857Y-137471331D02*
X165857142Y-137471331D01*
X165857142Y-137471331D02*
X165914285Y-137499902D01*
X165914285Y-137499902D02*
X165942857Y-137528474D01*
X165942857Y-137528474D02*
X165971428Y-137585617D01*
X165971428Y-137585617D02*
X165971428Y-137757045D01*
X165971428Y-137757045D02*
X165942857Y-137814188D01*
X165942857Y-137814188D02*
X165914285Y-137842760D01*
X165914285Y-137842760D02*
X165857142Y-137871331D01*
X165857142Y-137871331D02*
X165742857Y-137871331D01*
X165742857Y-137871331D02*
X165685714Y-137842760D01*
X166457142Y-137842760D02*
X166399999Y-137871331D01*
X166399999Y-137871331D02*
X166285714Y-137871331D01*
X166285714Y-137871331D02*
X166228571Y-137842760D01*
X166228571Y-137842760D02*
X166199999Y-137785617D01*
X166199999Y-137785617D02*
X166199999Y-137557045D01*
X166199999Y-137557045D02*
X166228571Y-137499902D01*
X166228571Y-137499902D02*
X166285714Y-137471331D01*
X166285714Y-137471331D02*
X166399999Y-137471331D01*
X166399999Y-137471331D02*
X166457142Y-137499902D01*
X166457142Y-137499902D02*
X166485714Y-137557045D01*
X166485714Y-137557045D02*
X166485714Y-137614188D01*
X166485714Y-137614188D02*
X166199999Y-137671331D01*
X166742857Y-137871331D02*
X166742857Y-137471331D01*
X166742857Y-137585617D02*
X166771428Y-137528474D01*
X166771428Y-137528474D02*
X166800000Y-137499902D01*
X166800000Y-137499902D02*
X166857142Y-137471331D01*
X166857142Y-137471331D02*
X166914285Y-137471331D01*
X167571429Y-137557045D02*
X167771429Y-137557045D01*
X167857143Y-137871331D02*
X167571429Y-137871331D01*
X167571429Y-137871331D02*
X167571429Y-137271331D01*
X167571429Y-137271331D02*
X167857143Y-137271331D01*
X168114286Y-137871331D02*
X168114286Y-137271331D01*
X168114286Y-137271331D02*
X168257143Y-137271331D01*
X168257143Y-137271331D02*
X168342857Y-137299902D01*
X168342857Y-137299902D02*
X168400000Y-137357045D01*
X168400000Y-137357045D02*
X168428571Y-137414188D01*
X168428571Y-137414188D02*
X168457143Y-137528474D01*
X168457143Y-137528474D02*
X168457143Y-137614188D01*
X168457143Y-137614188D02*
X168428571Y-137728474D01*
X168428571Y-137728474D02*
X168400000Y-137785617D01*
X168400000Y-137785617D02*
X168342857Y-137842760D01*
X168342857Y-137842760D02*
X168257143Y-137871331D01*
X168257143Y-137871331D02*
X168114286Y-137871331D01*
X169028571Y-137299902D02*
X168971429Y-137271331D01*
X168971429Y-137271331D02*
X168885714Y-137271331D01*
X168885714Y-137271331D02*
X168800000Y-137299902D01*
X168800000Y-137299902D02*
X168742857Y-137357045D01*
X168742857Y-137357045D02*
X168714286Y-137414188D01*
X168714286Y-137414188D02*
X168685714Y-137528474D01*
X168685714Y-137528474D02*
X168685714Y-137614188D01*
X168685714Y-137614188D02*
X168714286Y-137728474D01*
X168714286Y-137728474D02*
X168742857Y-137785617D01*
X168742857Y-137785617D02*
X168800000Y-137842760D01*
X168800000Y-137842760D02*
X168885714Y-137871331D01*
X168885714Y-137871331D02*
X168942857Y-137871331D01*
X168942857Y-137871331D02*
X169028571Y-137842760D01*
X169028571Y-137842760D02*
X169057143Y-137814188D01*
X169057143Y-137814188D02*
X169057143Y-137614188D01*
X169057143Y-137614188D02*
X168942857Y-137614188D01*
X169314286Y-137557045D02*
X169514286Y-137557045D01*
X169600000Y-137871331D02*
X169314286Y-137871331D01*
X169314286Y-137871331D02*
X169314286Y-137271331D01*
X169314286Y-137271331D02*
X169600000Y-137271331D01*
X145357142Y-88901974D02*
X144857142Y-88901974D01*
X144857142Y-89687688D02*
X144857142Y-88187688D01*
X144857142Y-88187688D02*
X145571428Y-88187688D01*
X146071428Y-89259117D02*
X146785714Y-89259117D01*
X145928571Y-89687688D02*
X146428571Y-88187688D01*
X146428571Y-88187688D02*
X146928571Y-89687688D01*
X147928570Y-88901974D02*
X148142856Y-88973402D01*
X148142856Y-88973402D02*
X148214285Y-89044831D01*
X148214285Y-89044831D02*
X148285713Y-89187688D01*
X148285713Y-89187688D02*
X148285713Y-89401974D01*
X148285713Y-89401974D02*
X148214285Y-89544831D01*
X148214285Y-89544831D02*
X148142856Y-89616260D01*
X148142856Y-89616260D02*
X147999999Y-89687688D01*
X147999999Y-89687688D02*
X147428570Y-89687688D01*
X147428570Y-89687688D02*
X147428570Y-88187688D01*
X147428570Y-88187688D02*
X147928570Y-88187688D01*
X147928570Y-88187688D02*
X148071428Y-88259117D01*
X148071428Y-88259117D02*
X148142856Y-88330545D01*
X148142856Y-88330545D02*
X148214285Y-88473402D01*
X148214285Y-88473402D02*
X148214285Y-88616260D01*
X148214285Y-88616260D02*
X148142856Y-88759117D01*
X148142856Y-88759117D02*
X148071428Y-88830545D01*
X148071428Y-88830545D02*
X147928570Y-88901974D01*
X147928570Y-88901974D02*
X147428570Y-88901974D01*
X148928570Y-89116260D02*
X150071428Y-89116260D01*
X151285713Y-88901974D02*
X150785713Y-88901974D01*
X150785713Y-89687688D02*
X150785713Y-88187688D01*
X150785713Y-88187688D02*
X151499999Y-88187688D01*
X152928570Y-89687688D02*
X152428570Y-88973402D01*
X152071427Y-89687688D02*
X152071427Y-88187688D01*
X152071427Y-88187688D02*
X152642856Y-88187688D01*
X152642856Y-88187688D02*
X152785713Y-88259117D01*
X152785713Y-88259117D02*
X152857142Y-88330545D01*
X152857142Y-88330545D02*
X152928570Y-88473402D01*
X152928570Y-88473402D02*
X152928570Y-88687688D01*
X152928570Y-88687688D02*
X152857142Y-88830545D01*
X152857142Y-88830545D02*
X152785713Y-88901974D01*
X152785713Y-88901974D02*
X152642856Y-88973402D01*
X152642856Y-88973402D02*
X152071427Y-88973402D01*
X153857142Y-88187688D02*
X154142856Y-88187688D01*
X154142856Y-88187688D02*
X154285713Y-88259117D01*
X154285713Y-88259117D02*
X154428570Y-88401974D01*
X154428570Y-88401974D02*
X154499999Y-88687688D01*
X154499999Y-88687688D02*
X154499999Y-89187688D01*
X154499999Y-89187688D02*
X154428570Y-89473402D01*
X154428570Y-89473402D02*
X154285713Y-89616260D01*
X154285713Y-89616260D02*
X154142856Y-89687688D01*
X154142856Y-89687688D02*
X153857142Y-89687688D01*
X153857142Y-89687688D02*
X153714285Y-89616260D01*
X153714285Y-89616260D02*
X153571427Y-89473402D01*
X153571427Y-89473402D02*
X153499999Y-89187688D01*
X153499999Y-89187688D02*
X153499999Y-88687688D01*
X153499999Y-88687688D02*
X153571427Y-88401974D01*
X153571427Y-88401974D02*
X153714285Y-88259117D01*
X153714285Y-88259117D02*
X153857142Y-88187688D01*
X155142856Y-89687688D02*
X155142856Y-88187688D01*
X155142856Y-88187688D02*
X155999999Y-89687688D01*
X155999999Y-89687688D02*
X155999999Y-88187688D01*
X156500000Y-88187688D02*
X157357143Y-88187688D01*
X156928571Y-89687688D02*
X156928571Y-88187688D01*
X176856379Y-102838094D02*
X175856379Y-102838094D01*
X175856379Y-102838094D02*
X176570664Y-102504761D01*
X176570664Y-102504761D02*
X175856379Y-102171428D01*
X175856379Y-102171428D02*
X176856379Y-102171428D01*
X175951617Y-101742856D02*
X175903998Y-101695237D01*
X175903998Y-101695237D02*
X175856379Y-101599999D01*
X175856379Y-101599999D02*
X175856379Y-101361904D01*
X175856379Y-101361904D02*
X175903998Y-101266666D01*
X175903998Y-101266666D02*
X175951617Y-101219047D01*
X175951617Y-101219047D02*
X176046855Y-101171428D01*
X176046855Y-101171428D02*
X176142093Y-101171428D01*
X176142093Y-101171428D02*
X176284950Y-101219047D01*
X176284950Y-101219047D02*
X176856379Y-101790475D01*
X176856379Y-101790475D02*
X176856379Y-101171428D01*
X175856379Y-100838094D02*
X176856379Y-100171428D01*
X175856379Y-100171428D02*
X176856379Y-100838094D01*
X176856379Y-99266666D02*
X176856379Y-99838094D01*
X176856379Y-99552380D02*
X175856379Y-99552380D01*
X175856379Y-99552380D02*
X175999236Y-99647618D01*
X175999236Y-99647618D02*
X176094474Y-99742856D01*
X176094474Y-99742856D02*
X176142093Y-99838094D01*
X175856379Y-98409523D02*
X175856379Y-98599999D01*
X175856379Y-98599999D02*
X175903998Y-98695237D01*
X175903998Y-98695237D02*
X175951617Y-98742856D01*
X175951617Y-98742856D02*
X176094474Y-98838094D01*
X176094474Y-98838094D02*
X176284950Y-98885713D01*
X176284950Y-98885713D02*
X176665902Y-98885713D01*
X176665902Y-98885713D02*
X176761140Y-98838094D01*
X176761140Y-98838094D02*
X176808760Y-98790475D01*
X176808760Y-98790475D02*
X176856379Y-98695237D01*
X176856379Y-98695237D02*
X176856379Y-98504761D01*
X176856379Y-98504761D02*
X176808760Y-98409523D01*
X176808760Y-98409523D02*
X176761140Y-98361904D01*
X176761140Y-98361904D02*
X176665902Y-98314285D01*
X176665902Y-98314285D02*
X176427807Y-98314285D01*
X176427807Y-98314285D02*
X176332569Y-98361904D01*
X176332569Y-98361904D02*
X176284950Y-98409523D01*
X176284950Y-98409523D02*
X176237331Y-98504761D01*
X176237331Y-98504761D02*
X176237331Y-98695237D01*
X176237331Y-98695237D02*
X176284950Y-98790475D01*
X176284950Y-98790475D02*
X176332569Y-98838094D01*
X176332569Y-98838094D02*
X176427807Y-98885713D01*
X150209523Y-124132569D02*
X150352380Y-124180188D01*
X150352380Y-124180188D02*
X150399999Y-124227807D01*
X150399999Y-124227807D02*
X150447618Y-124323045D01*
X150447618Y-124323045D02*
X150447618Y-124465902D01*
X150447618Y-124465902D02*
X150399999Y-124561140D01*
X150399999Y-124561140D02*
X150352380Y-124608760D01*
X150352380Y-124608760D02*
X150257142Y-124656379D01*
X150257142Y-124656379D02*
X149876190Y-124656379D01*
X149876190Y-124656379D02*
X149876190Y-123656379D01*
X149876190Y-123656379D02*
X150209523Y-123656379D01*
X150209523Y-123656379D02*
X150304761Y-123703998D01*
X150304761Y-123703998D02*
X150352380Y-123751617D01*
X150352380Y-123751617D02*
X150399999Y-123846855D01*
X150399999Y-123846855D02*
X150399999Y-123942093D01*
X150399999Y-123942093D02*
X150352380Y-124037331D01*
X150352380Y-124037331D02*
X150304761Y-124084950D01*
X150304761Y-124084950D02*
X150209523Y-124132569D01*
X150209523Y-124132569D02*
X149876190Y-124132569D01*
X150876190Y-124132569D02*
X151209523Y-124132569D01*
X151352380Y-124656379D02*
X150876190Y-124656379D01*
X150876190Y-124656379D02*
X150876190Y-123656379D01*
X150876190Y-123656379D02*
X151352380Y-123656379D01*
X152257142Y-124656379D02*
X151780952Y-124656379D01*
X151780952Y-124656379D02*
X151780952Y-123656379D01*
X153066666Y-124656379D02*
X152590476Y-124656379D01*
X152590476Y-124656379D02*
X152590476Y-123656379D01*
X154638095Y-124656379D02*
X154161905Y-124656379D01*
X154161905Y-124656379D02*
X154161905Y-123656379D01*
X154971429Y-124132569D02*
X155304762Y-124132569D01*
X155447619Y-124656379D02*
X154971429Y-124656379D01*
X154971429Y-124656379D02*
X154971429Y-123656379D01*
X154971429Y-123656379D02*
X155447619Y-123656379D01*
X155733334Y-123656379D02*
X156066667Y-124656379D01*
X156066667Y-124656379D02*
X156400000Y-123656379D01*
X156733334Y-124132569D02*
X157066667Y-124132569D01*
X157209524Y-124656379D02*
X156733334Y-124656379D01*
X156733334Y-124656379D02*
X156733334Y-123656379D01*
X156733334Y-123656379D02*
X157209524Y-123656379D01*
X158209524Y-124656379D02*
X157876191Y-124180188D01*
X157638096Y-124656379D02*
X157638096Y-123656379D01*
X157638096Y-123656379D02*
X158019048Y-123656379D01*
X158019048Y-123656379D02*
X158114286Y-123703998D01*
X158114286Y-123703998D02*
X158161905Y-123751617D01*
X158161905Y-123751617D02*
X158209524Y-123846855D01*
X158209524Y-123846855D02*
X158209524Y-123989712D01*
X158209524Y-123989712D02*
X158161905Y-124084950D01*
X158161905Y-124084950D02*
X158114286Y-124132569D01*
X158114286Y-124132569D02*
X158019048Y-124180188D01*
X158019048Y-124180188D02*
X157638096Y-124180188D01*
X148070292Y-118258853D02*
X148070292Y-118312728D01*
X148070292Y-118312728D02*
X148016417Y-118420477D01*
X148016417Y-118420477D02*
X147962542Y-118474352D01*
X147962542Y-118474352D02*
X147854792Y-118528227D01*
X147854792Y-118528227D02*
X147747043Y-118528227D01*
X147747043Y-118528227D02*
X147666231Y-118501289D01*
X147666231Y-118501289D02*
X147531544Y-118420477D01*
X147531544Y-118420477D02*
X147450731Y-118339665D01*
X147450731Y-118339665D02*
X147369919Y-118204978D01*
X147369919Y-118204978D02*
X147342982Y-118124166D01*
X147342982Y-118124166D02*
X147342982Y-118016416D01*
X147342982Y-118016416D02*
X147396857Y-117908667D01*
X147396857Y-117908667D02*
X147450731Y-117854792D01*
X147450731Y-117854792D02*
X147558481Y-117800917D01*
X147558481Y-117800917D02*
X147612356Y-117800917D01*
X148070292Y-117235232D02*
X147800918Y-117504606D01*
X147800918Y-117504606D02*
X148043354Y-117800917D01*
X148043354Y-117800917D02*
X148043354Y-117747042D01*
X148043354Y-117747042D02*
X148070292Y-117666230D01*
X148070292Y-117666230D02*
X148204979Y-117531543D01*
X148204979Y-117531543D02*
X148285791Y-117504606D01*
X148285791Y-117504606D02*
X148339666Y-117504606D01*
X148339666Y-117504606D02*
X148420478Y-117531543D01*
X148420478Y-117531543D02*
X148555165Y-117666230D01*
X148555165Y-117666230D02*
X148582102Y-117747042D01*
X148582102Y-117747042D02*
X148582102Y-117800917D01*
X148582102Y-117800917D02*
X148555165Y-117881729D01*
X148555165Y-117881729D02*
X148420478Y-118016416D01*
X148420478Y-118016416D02*
X148339666Y-118043354D01*
X148339666Y-118043354D02*
X148285791Y-118043354D01*
X171152857Y-81964807D02*
X170886191Y-81964807D01*
X170886191Y-82383855D02*
X170886191Y-81583855D01*
X170886191Y-81583855D02*
X171267143Y-81583855D01*
X171571905Y-82383855D02*
X171571905Y-81583855D01*
X171952857Y-82383855D02*
X171952857Y-81583855D01*
X171952857Y-81583855D02*
X172143333Y-81583855D01*
X172143333Y-81583855D02*
X172257619Y-81621950D01*
X172257619Y-81621950D02*
X172333809Y-81698140D01*
X172333809Y-81698140D02*
X172371904Y-81774331D01*
X172371904Y-81774331D02*
X172410000Y-81926712D01*
X172410000Y-81926712D02*
X172410000Y-82040998D01*
X172410000Y-82040998D02*
X172371904Y-82193379D01*
X172371904Y-82193379D02*
X172333809Y-82269569D01*
X172333809Y-82269569D02*
X172257619Y-82345760D01*
X172257619Y-82345760D02*
X172143333Y-82383855D01*
X172143333Y-82383855D02*
X171952857Y-82383855D01*
X172714761Y-81660045D02*
X172752857Y-81621950D01*
X172752857Y-81621950D02*
X172829047Y-81583855D01*
X172829047Y-81583855D02*
X173019523Y-81583855D01*
X173019523Y-81583855D02*
X173095714Y-81621950D01*
X173095714Y-81621950D02*
X173133809Y-81660045D01*
X173133809Y-81660045D02*
X173171904Y-81736236D01*
X173171904Y-81736236D02*
X173171904Y-81812426D01*
X173171904Y-81812426D02*
X173133809Y-81926712D01*
X173133809Y-81926712D02*
X172676666Y-82383855D01*
X172676666Y-82383855D02*
X173171904Y-82383855D01*
X146834129Y-117222690D02*
X146834129Y-117276565D01*
X146834129Y-117276565D02*
X146780254Y-117384314D01*
X146780254Y-117384314D02*
X146726379Y-117438189D01*
X146726379Y-117438189D02*
X146618629Y-117492064D01*
X146618629Y-117492064D02*
X146510880Y-117492064D01*
X146510880Y-117492064D02*
X146430068Y-117465126D01*
X146430068Y-117465126D02*
X146295381Y-117384314D01*
X146295381Y-117384314D02*
X146214568Y-117303502D01*
X146214568Y-117303502D02*
X146133756Y-117168815D01*
X146133756Y-117168815D02*
X146106819Y-117088003D01*
X146106819Y-117088003D02*
X146106819Y-116980253D01*
X146106819Y-116980253D02*
X146160694Y-116872504D01*
X146160694Y-116872504D02*
X146214568Y-116818629D01*
X146214568Y-116818629D02*
X146322318Y-116764754D01*
X146322318Y-116764754D02*
X146376193Y-116764754D01*
X147426751Y-116737817D02*
X147103503Y-117061065D01*
X147265127Y-116899441D02*
X146699442Y-116333756D01*
X146699442Y-116333756D02*
X146726379Y-116468443D01*
X146726379Y-116468443D02*
X146726379Y-116576192D01*
X146726379Y-116576192D02*
X146699442Y-116657004D01*
X127334857Y-84934807D02*
X127068191Y-84934807D01*
X127068191Y-85353855D02*
X127068191Y-84553855D01*
X127068191Y-84553855D02*
X127449143Y-84553855D01*
X127753905Y-85353855D02*
X127753905Y-84553855D01*
X128134857Y-85353855D02*
X128134857Y-84553855D01*
X128134857Y-84553855D02*
X128325333Y-84553855D01*
X128325333Y-84553855D02*
X128439619Y-84591950D01*
X128439619Y-84591950D02*
X128515809Y-84668140D01*
X128515809Y-84668140D02*
X128553904Y-84744331D01*
X128553904Y-84744331D02*
X128592000Y-84896712D01*
X128592000Y-84896712D02*
X128592000Y-85010998D01*
X128592000Y-85010998D02*
X128553904Y-85163379D01*
X128553904Y-85163379D02*
X128515809Y-85239569D01*
X128515809Y-85239569D02*
X128439619Y-85315760D01*
X128439619Y-85315760D02*
X128325333Y-85353855D01*
X128325333Y-85353855D02*
X128134857Y-85353855D01*
X129353904Y-85353855D02*
X128896761Y-85353855D01*
X129125333Y-85353855D02*
X129125333Y-84553855D01*
X129125333Y-84553855D02*
X129049142Y-84668140D01*
X129049142Y-84668140D02*
X128972952Y-84744331D01*
X128972952Y-84744331D02*
X128896761Y-84782426D01*
X145339755Y-116349813D02*
X144774069Y-115784128D01*
X144774069Y-115784128D02*
X144908756Y-115649441D01*
X144908756Y-115649441D02*
X145016506Y-115595566D01*
X145016506Y-115595566D02*
X145124255Y-115595566D01*
X145124255Y-115595566D02*
X145205068Y-115622504D01*
X145205068Y-115622504D02*
X145339755Y-115703316D01*
X145339755Y-115703316D02*
X145420567Y-115784128D01*
X145420567Y-115784128D02*
X145501379Y-115918815D01*
X145501379Y-115918815D02*
X145528316Y-115999627D01*
X145528316Y-115999627D02*
X145528316Y-116107377D01*
X145528316Y-116107377D02*
X145474442Y-116215126D01*
X145474442Y-116215126D02*
X145339755Y-116349813D01*
X146201751Y-115487817D02*
X145878503Y-115811065D01*
X146040127Y-115649441D02*
X145474442Y-115083756D01*
X145474442Y-115083756D02*
X145501379Y-115218443D01*
X145501379Y-115218443D02*
X145501379Y-115326192D01*
X145501379Y-115326192D02*
X145474442Y-115407004D01*
X150445293Y-120708853D02*
X150445293Y-120762728D01*
X150445293Y-120762728D02*
X150391418Y-120870477D01*
X150391418Y-120870477D02*
X150337543Y-120924352D01*
X150337543Y-120924352D02*
X150229793Y-120978227D01*
X150229793Y-120978227D02*
X150122044Y-120978227D01*
X150122044Y-120978227D02*
X150041232Y-120951289D01*
X150041232Y-120951289D02*
X149906545Y-120870477D01*
X149906545Y-120870477D02*
X149825732Y-120789665D01*
X149825732Y-120789665D02*
X149744920Y-120654978D01*
X149744920Y-120654978D02*
X149717983Y-120574166D01*
X149717983Y-120574166D02*
X149717983Y-120466416D01*
X149717983Y-120466416D02*
X149771858Y-120358667D01*
X149771858Y-120358667D02*
X149825732Y-120304792D01*
X149825732Y-120304792D02*
X149933482Y-120250917D01*
X149933482Y-120250917D02*
X149987357Y-120250917D01*
X150606917Y-119900731D02*
X150984041Y-120277854D01*
X150256731Y-119819919D02*
X150526105Y-120358667D01*
X150526105Y-120358667D02*
X150876291Y-120008480D01*
X136165714Y-81163855D02*
X135899047Y-80782902D01*
X135708571Y-81163855D02*
X135708571Y-80363855D01*
X135708571Y-80363855D02*
X136013333Y-80363855D01*
X136013333Y-80363855D02*
X136089523Y-80401950D01*
X136089523Y-80401950D02*
X136127618Y-80440045D01*
X136127618Y-80440045D02*
X136165714Y-80516236D01*
X136165714Y-80516236D02*
X136165714Y-80630521D01*
X136165714Y-80630521D02*
X136127618Y-80706712D01*
X136127618Y-80706712D02*
X136089523Y-80744807D01*
X136089523Y-80744807D02*
X136013333Y-80782902D01*
X136013333Y-80782902D02*
X135708571Y-80782902D01*
X136432380Y-80363855D02*
X136927618Y-80363855D01*
X136927618Y-80363855D02*
X136660952Y-80668617D01*
X136660952Y-80668617D02*
X136775237Y-80668617D01*
X136775237Y-80668617D02*
X136851428Y-80706712D01*
X136851428Y-80706712D02*
X136889523Y-80744807D01*
X136889523Y-80744807D02*
X136927618Y-80820998D01*
X136927618Y-80820998D02*
X136927618Y-81011474D01*
X136927618Y-81011474D02*
X136889523Y-81087664D01*
X136889523Y-81087664D02*
X136851428Y-81125760D01*
X136851428Y-81125760D02*
X136775237Y-81163855D01*
X136775237Y-81163855D02*
X136546666Y-81163855D01*
X136546666Y-81163855D02*
X136470475Y-81125760D01*
X136470475Y-81125760D02*
X136432380Y-81087664D01*
X137194285Y-80363855D02*
X137689523Y-80363855D01*
X137689523Y-80363855D02*
X137422857Y-80668617D01*
X137422857Y-80668617D02*
X137537142Y-80668617D01*
X137537142Y-80668617D02*
X137613333Y-80706712D01*
X137613333Y-80706712D02*
X137651428Y-80744807D01*
X137651428Y-80744807D02*
X137689523Y-80820998D01*
X137689523Y-80820998D02*
X137689523Y-81011474D01*
X137689523Y-81011474D02*
X137651428Y-81087664D01*
X137651428Y-81087664D02*
X137613333Y-81125760D01*
X137613333Y-81125760D02*
X137537142Y-81163855D01*
X137537142Y-81163855D02*
X137308571Y-81163855D01*
X137308571Y-81163855D02*
X137232380Y-81125760D01*
X137232380Y-81125760D02*
X137194285Y-81087664D01*
X136075714Y-72533855D02*
X135809047Y-72152902D01*
X135618571Y-72533855D02*
X135618571Y-71733855D01*
X135618571Y-71733855D02*
X135923333Y-71733855D01*
X135923333Y-71733855D02*
X135999523Y-71771950D01*
X135999523Y-71771950D02*
X136037618Y-71810045D01*
X136037618Y-71810045D02*
X136075714Y-71886236D01*
X136075714Y-71886236D02*
X136075714Y-72000521D01*
X136075714Y-72000521D02*
X136037618Y-72076712D01*
X136037618Y-72076712D02*
X135999523Y-72114807D01*
X135999523Y-72114807D02*
X135923333Y-72152902D01*
X135923333Y-72152902D02*
X135618571Y-72152902D01*
X136342380Y-71733855D02*
X136837618Y-71733855D01*
X136837618Y-71733855D02*
X136570952Y-72038617D01*
X136570952Y-72038617D02*
X136685237Y-72038617D01*
X136685237Y-72038617D02*
X136761428Y-72076712D01*
X136761428Y-72076712D02*
X136799523Y-72114807D01*
X136799523Y-72114807D02*
X136837618Y-72190998D01*
X136837618Y-72190998D02*
X136837618Y-72381474D01*
X136837618Y-72381474D02*
X136799523Y-72457664D01*
X136799523Y-72457664D02*
X136761428Y-72495760D01*
X136761428Y-72495760D02*
X136685237Y-72533855D01*
X136685237Y-72533855D02*
X136456666Y-72533855D01*
X136456666Y-72533855D02*
X136380475Y-72495760D01*
X136380475Y-72495760D02*
X136342380Y-72457664D01*
X137142380Y-71810045D02*
X137180476Y-71771950D01*
X137180476Y-71771950D02*
X137256666Y-71733855D01*
X137256666Y-71733855D02*
X137447142Y-71733855D01*
X137447142Y-71733855D02*
X137523333Y-71771950D01*
X137523333Y-71771950D02*
X137561428Y-71810045D01*
X137561428Y-71810045D02*
X137599523Y-71886236D01*
X137599523Y-71886236D02*
X137599523Y-71962426D01*
X137599523Y-71962426D02*
X137561428Y-72076712D01*
X137561428Y-72076712D02*
X137104285Y-72533855D01*
X137104285Y-72533855D02*
X137599523Y-72533855D01*
X135063855Y-76516666D02*
X135635283Y-76516666D01*
X135635283Y-76516666D02*
X135749569Y-76554761D01*
X135749569Y-76554761D02*
X135825760Y-76630952D01*
X135825760Y-76630952D02*
X135863855Y-76745237D01*
X135863855Y-76745237D02*
X135863855Y-76821428D01*
X135063855Y-76211904D02*
X135063855Y-75678570D01*
X135063855Y-75678570D02*
X135863855Y-76021428D01*
X149000918Y-119810976D02*
X148435232Y-119245291D01*
X148435232Y-119245291D02*
X148569919Y-119110604D01*
X148569919Y-119110604D02*
X148677669Y-119056729D01*
X148677669Y-119056729D02*
X148785418Y-119056729D01*
X148785418Y-119056729D02*
X148866231Y-119083667D01*
X148866231Y-119083667D02*
X149000918Y-119164479D01*
X149000918Y-119164479D02*
X149081730Y-119245291D01*
X149081730Y-119245291D02*
X149162542Y-119379978D01*
X149162542Y-119379978D02*
X149189479Y-119460790D01*
X149189479Y-119460790D02*
X149189479Y-119568540D01*
X149189479Y-119568540D02*
X149135605Y-119676289D01*
X149135605Y-119676289D02*
X149000918Y-119810976D01*
X149431916Y-118625731D02*
X149809040Y-119002854D01*
X149081730Y-118544919D02*
X149351104Y-119083667D01*
X149351104Y-119083667D02*
X149701290Y-118733480D01*
X170542857Y-135644807D02*
X170276191Y-135644807D01*
X170276191Y-136063855D02*
X170276191Y-135263855D01*
X170276191Y-135263855D02*
X170657143Y-135263855D01*
X170961905Y-136063855D02*
X170961905Y-135263855D01*
X171342857Y-136063855D02*
X171342857Y-135263855D01*
X171342857Y-135263855D02*
X171533333Y-135263855D01*
X171533333Y-135263855D02*
X171647619Y-135301950D01*
X171647619Y-135301950D02*
X171723809Y-135378140D01*
X171723809Y-135378140D02*
X171761904Y-135454331D01*
X171761904Y-135454331D02*
X171800000Y-135606712D01*
X171800000Y-135606712D02*
X171800000Y-135720998D01*
X171800000Y-135720998D02*
X171761904Y-135873379D01*
X171761904Y-135873379D02*
X171723809Y-135949569D01*
X171723809Y-135949569D02*
X171647619Y-136025760D01*
X171647619Y-136025760D02*
X171533333Y-136063855D01*
X171533333Y-136063855D02*
X171342857Y-136063855D01*
X172066666Y-135263855D02*
X172561904Y-135263855D01*
X172561904Y-135263855D02*
X172295238Y-135568617D01*
X172295238Y-135568617D02*
X172409523Y-135568617D01*
X172409523Y-135568617D02*
X172485714Y-135606712D01*
X172485714Y-135606712D02*
X172523809Y-135644807D01*
X172523809Y-135644807D02*
X172561904Y-135720998D01*
X172561904Y-135720998D02*
X172561904Y-135911474D01*
X172561904Y-135911474D02*
X172523809Y-135987664D01*
X172523809Y-135987664D02*
X172485714Y-136025760D01*
X172485714Y-136025760D02*
X172409523Y-136063855D01*
X172409523Y-136063855D02*
X172180952Y-136063855D01*
X172180952Y-136063855D02*
X172104761Y-136025760D01*
X172104761Y-136025760D02*
X172066666Y-135987664D01*
X144258855Y-102321666D02*
X144830283Y-102321666D01*
X144830283Y-102321666D02*
X144944569Y-102359761D01*
X144944569Y-102359761D02*
X145020760Y-102435952D01*
X145020760Y-102435952D02*
X145058855Y-102550237D01*
X145058855Y-102550237D02*
X145058855Y-102626428D01*
X144335045Y-101978809D02*
X144296950Y-101940713D01*
X144296950Y-101940713D02*
X144258855Y-101864523D01*
X144258855Y-101864523D02*
X144258855Y-101674047D01*
X144258855Y-101674047D02*
X144296950Y-101597856D01*
X144296950Y-101597856D02*
X144335045Y-101559761D01*
X144335045Y-101559761D02*
X144411236Y-101521666D01*
X144411236Y-101521666D02*
X144487426Y-101521666D01*
X144487426Y-101521666D02*
X144601712Y-101559761D01*
X144601712Y-101559761D02*
X145058855Y-102016904D01*
X145058855Y-102016904D02*
X145058855Y-101521666D01*
X175266667Y-85287664D02*
X175228571Y-85325760D01*
X175228571Y-85325760D02*
X175114286Y-85363855D01*
X175114286Y-85363855D02*
X175038095Y-85363855D01*
X175038095Y-85363855D02*
X174923809Y-85325760D01*
X174923809Y-85325760D02*
X174847619Y-85249569D01*
X174847619Y-85249569D02*
X174809524Y-85173379D01*
X174809524Y-85173379D02*
X174771428Y-85020998D01*
X174771428Y-85020998D02*
X174771428Y-84906712D01*
X174771428Y-84906712D02*
X174809524Y-84754331D01*
X174809524Y-84754331D02*
X174847619Y-84678140D01*
X174847619Y-84678140D02*
X174923809Y-84601950D01*
X174923809Y-84601950D02*
X175038095Y-84563855D01*
X175038095Y-84563855D02*
X175114286Y-84563855D01*
X175114286Y-84563855D02*
X175228571Y-84601950D01*
X175228571Y-84601950D02*
X175266667Y-84640045D01*
X175533333Y-84563855D02*
X176066667Y-84563855D01*
X176066667Y-84563855D02*
X175723809Y-85363855D01*
X175866666Y-81863855D02*
X175485714Y-81863855D01*
X175485714Y-81863855D02*
X175485714Y-81063855D01*
X176057142Y-81063855D02*
X176552380Y-81063855D01*
X176552380Y-81063855D02*
X176285714Y-81368617D01*
X176285714Y-81368617D02*
X176399999Y-81368617D01*
X176399999Y-81368617D02*
X176476190Y-81406712D01*
X176476190Y-81406712D02*
X176514285Y-81444807D01*
X176514285Y-81444807D02*
X176552380Y-81520998D01*
X176552380Y-81520998D02*
X176552380Y-81711474D01*
X176552380Y-81711474D02*
X176514285Y-81787664D01*
X176514285Y-81787664D02*
X176476190Y-81825760D01*
X176476190Y-81825760D02*
X176399999Y-81863855D01*
X176399999Y-81863855D02*
X176171428Y-81863855D01*
X176171428Y-81863855D02*
X176095237Y-81825760D01*
X176095237Y-81825760D02*
X176057142Y-81787664D01*
X176266667Y-83987664D02*
X176228571Y-84025760D01*
X176228571Y-84025760D02*
X176114286Y-84063855D01*
X176114286Y-84063855D02*
X176038095Y-84063855D01*
X176038095Y-84063855D02*
X175923809Y-84025760D01*
X175923809Y-84025760D02*
X175847619Y-83949569D01*
X175847619Y-83949569D02*
X175809524Y-83873379D01*
X175809524Y-83873379D02*
X175771428Y-83720998D01*
X175771428Y-83720998D02*
X175771428Y-83606712D01*
X175771428Y-83606712D02*
X175809524Y-83454331D01*
X175809524Y-83454331D02*
X175847619Y-83378140D01*
X175847619Y-83378140D02*
X175923809Y-83301950D01*
X175923809Y-83301950D02*
X176038095Y-83263855D01*
X176038095Y-83263855D02*
X176114286Y-83263855D01*
X176114286Y-83263855D02*
X176228571Y-83301950D01*
X176228571Y-83301950D02*
X176266667Y-83340045D01*
X176952381Y-83263855D02*
X176800000Y-83263855D01*
X176800000Y-83263855D02*
X176723809Y-83301950D01*
X176723809Y-83301950D02*
X176685714Y-83340045D01*
X176685714Y-83340045D02*
X176609524Y-83454331D01*
X176609524Y-83454331D02*
X176571428Y-83606712D01*
X176571428Y-83606712D02*
X176571428Y-83911474D01*
X176571428Y-83911474D02*
X176609524Y-83987664D01*
X176609524Y-83987664D02*
X176647619Y-84025760D01*
X176647619Y-84025760D02*
X176723809Y-84063855D01*
X176723809Y-84063855D02*
X176876190Y-84063855D01*
X176876190Y-84063855D02*
X176952381Y-84025760D01*
X176952381Y-84025760D02*
X176990476Y-83987664D01*
X176990476Y-83987664D02*
X177028571Y-83911474D01*
X177028571Y-83911474D02*
X177028571Y-83720998D01*
X177028571Y-83720998D02*
X176990476Y-83644807D01*
X176990476Y-83644807D02*
X176952381Y-83606712D01*
X176952381Y-83606712D02*
X176876190Y-83568617D01*
X176876190Y-83568617D02*
X176723809Y-83568617D01*
X176723809Y-83568617D02*
X176647619Y-83606712D01*
X176647619Y-83606712D02*
X176609524Y-83644807D01*
X176609524Y-83644807D02*
X176571428Y-83720998D01*
X174466666Y-86663855D02*
X174085714Y-86663855D01*
X174085714Y-86663855D02*
X174085714Y-85863855D01*
X175076190Y-86130521D02*
X175076190Y-86663855D01*
X174885714Y-85825760D02*
X174695237Y-86397188D01*
X174695237Y-86397188D02*
X175190476Y-86397188D01*
X172366666Y-73663855D02*
X171985714Y-73663855D01*
X171985714Y-73663855D02*
X171985714Y-72863855D01*
X172595237Y-72940045D02*
X172633333Y-72901950D01*
X172633333Y-72901950D02*
X172709523Y-72863855D01*
X172709523Y-72863855D02*
X172899999Y-72863855D01*
X172899999Y-72863855D02*
X172976190Y-72901950D01*
X172976190Y-72901950D02*
X173014285Y-72940045D01*
X173014285Y-72940045D02*
X173052380Y-73016236D01*
X173052380Y-73016236D02*
X173052380Y-73092426D01*
X173052380Y-73092426D02*
X173014285Y-73206712D01*
X173014285Y-73206712D02*
X172557142Y-73663855D01*
X172557142Y-73663855D02*
X173052380Y-73663855D01*
X173533333Y-90163855D02*
X173533333Y-90735283D01*
X173533333Y-90735283D02*
X173495238Y-90849569D01*
X173495238Y-90849569D02*
X173419047Y-90925760D01*
X173419047Y-90925760D02*
X173304762Y-90963855D01*
X173304762Y-90963855D02*
X173228571Y-90963855D01*
X174333333Y-90963855D02*
X173876190Y-90963855D01*
X174104762Y-90963855D02*
X174104762Y-90163855D01*
X174104762Y-90163855D02*
X174028571Y-90278140D01*
X174028571Y-90278140D02*
X173952381Y-90354331D01*
X173952381Y-90354331D02*
X173876190Y-90392426D01*
X162316666Y-73385283D02*
X162697619Y-73385283D01*
X162240476Y-73613855D02*
X162507143Y-72813855D01*
X162507143Y-72813855D02*
X162773809Y-73613855D01*
X163040476Y-73194807D02*
X163307142Y-73194807D01*
X163421428Y-73613855D02*
X163040476Y-73613855D01*
X163040476Y-73613855D02*
X163040476Y-72813855D01*
X163040476Y-72813855D02*
X163421428Y-72813855D01*
X164183333Y-73613855D02*
X163726190Y-73613855D01*
X163954762Y-73613855D02*
X163954762Y-72813855D01*
X163954762Y-72813855D02*
X163878571Y-72928140D01*
X163878571Y-72928140D02*
X163802381Y-73004331D01*
X163802381Y-73004331D02*
X163726190Y-73042426D01*
X175266667Y-87887664D02*
X175228571Y-87925760D01*
X175228571Y-87925760D02*
X175114286Y-87963855D01*
X175114286Y-87963855D02*
X175038095Y-87963855D01*
X175038095Y-87963855D02*
X174923809Y-87925760D01*
X174923809Y-87925760D02*
X174847619Y-87849569D01*
X174847619Y-87849569D02*
X174809524Y-87773379D01*
X174809524Y-87773379D02*
X174771428Y-87620998D01*
X174771428Y-87620998D02*
X174771428Y-87506712D01*
X174771428Y-87506712D02*
X174809524Y-87354331D01*
X174809524Y-87354331D02*
X174847619Y-87278140D01*
X174847619Y-87278140D02*
X174923809Y-87201950D01*
X174923809Y-87201950D02*
X175038095Y-87163855D01*
X175038095Y-87163855D02*
X175114286Y-87163855D01*
X175114286Y-87163855D02*
X175228571Y-87201950D01*
X175228571Y-87201950D02*
X175266667Y-87240045D01*
X175647619Y-87963855D02*
X175800000Y-87963855D01*
X175800000Y-87963855D02*
X175876190Y-87925760D01*
X175876190Y-87925760D02*
X175914286Y-87887664D01*
X175914286Y-87887664D02*
X175990476Y-87773379D01*
X175990476Y-87773379D02*
X176028571Y-87620998D01*
X176028571Y-87620998D02*
X176028571Y-87316236D01*
X176028571Y-87316236D02*
X175990476Y-87240045D01*
X175990476Y-87240045D02*
X175952381Y-87201950D01*
X175952381Y-87201950D02*
X175876190Y-87163855D01*
X175876190Y-87163855D02*
X175723809Y-87163855D01*
X175723809Y-87163855D02*
X175647619Y-87201950D01*
X175647619Y-87201950D02*
X175609524Y-87240045D01*
X175609524Y-87240045D02*
X175571428Y-87316236D01*
X175571428Y-87316236D02*
X175571428Y-87506712D01*
X175571428Y-87506712D02*
X175609524Y-87582902D01*
X175609524Y-87582902D02*
X175647619Y-87620998D01*
X175647619Y-87620998D02*
X175723809Y-87659093D01*
X175723809Y-87659093D02*
X175876190Y-87659093D01*
X175876190Y-87659093D02*
X175952381Y-87620998D01*
X175952381Y-87620998D02*
X175990476Y-87582902D01*
X175990476Y-87582902D02*
X176028571Y-87506712D01*
X172966667Y-74987664D02*
X172928571Y-75025760D01*
X172928571Y-75025760D02*
X172814286Y-75063855D01*
X172814286Y-75063855D02*
X172738095Y-75063855D01*
X172738095Y-75063855D02*
X172623809Y-75025760D01*
X172623809Y-75025760D02*
X172547619Y-74949569D01*
X172547619Y-74949569D02*
X172509524Y-74873379D01*
X172509524Y-74873379D02*
X172471428Y-74720998D01*
X172471428Y-74720998D02*
X172471428Y-74606712D01*
X172471428Y-74606712D02*
X172509524Y-74454331D01*
X172509524Y-74454331D02*
X172547619Y-74378140D01*
X172547619Y-74378140D02*
X172623809Y-74301950D01*
X172623809Y-74301950D02*
X172738095Y-74263855D01*
X172738095Y-74263855D02*
X172814286Y-74263855D01*
X172814286Y-74263855D02*
X172928571Y-74301950D01*
X172928571Y-74301950D02*
X172966667Y-74340045D01*
X173423809Y-74606712D02*
X173347619Y-74568617D01*
X173347619Y-74568617D02*
X173309524Y-74530521D01*
X173309524Y-74530521D02*
X173271428Y-74454331D01*
X173271428Y-74454331D02*
X173271428Y-74416236D01*
X173271428Y-74416236D02*
X173309524Y-74340045D01*
X173309524Y-74340045D02*
X173347619Y-74301950D01*
X173347619Y-74301950D02*
X173423809Y-74263855D01*
X173423809Y-74263855D02*
X173576190Y-74263855D01*
X173576190Y-74263855D02*
X173652381Y-74301950D01*
X173652381Y-74301950D02*
X173690476Y-74340045D01*
X173690476Y-74340045D02*
X173728571Y-74416236D01*
X173728571Y-74416236D02*
X173728571Y-74454331D01*
X173728571Y-74454331D02*
X173690476Y-74530521D01*
X173690476Y-74530521D02*
X173652381Y-74568617D01*
X173652381Y-74568617D02*
X173576190Y-74606712D01*
X173576190Y-74606712D02*
X173423809Y-74606712D01*
X173423809Y-74606712D02*
X173347619Y-74644807D01*
X173347619Y-74644807D02*
X173309524Y-74682902D01*
X173309524Y-74682902D02*
X173271428Y-74759093D01*
X173271428Y-74759093D02*
X173271428Y-74911474D01*
X173271428Y-74911474D02*
X173309524Y-74987664D01*
X173309524Y-74987664D02*
X173347619Y-75025760D01*
X173347619Y-75025760D02*
X173423809Y-75063855D01*
X173423809Y-75063855D02*
X173576190Y-75063855D01*
X173576190Y-75063855D02*
X173652381Y-75025760D01*
X173652381Y-75025760D02*
X173690476Y-74987664D01*
X173690476Y-74987664D02*
X173728571Y-74911474D01*
X173728571Y-74911474D02*
X173728571Y-74759093D01*
X173728571Y-74759093D02*
X173690476Y-74682902D01*
X173690476Y-74682902D02*
X173652381Y-74644807D01*
X173652381Y-74644807D02*
X173576190Y-74606712D01*
X178163855Y-78533333D02*
X178163855Y-78914285D01*
X178163855Y-78914285D02*
X177363855Y-78914285D01*
X178163855Y-77847619D02*
X178163855Y-78304762D01*
X178163855Y-78076190D02*
X177363855Y-78076190D01*
X177363855Y-78076190D02*
X177478140Y-78152381D01*
X177478140Y-78152381D02*
X177554331Y-78228571D01*
X177554331Y-78228571D02*
X177592426Y-78304762D01*
X145888781Y-119289970D02*
X145689970Y-119488781D01*
X146610030Y-120011219D02*
X146411219Y-120210030D01*
X144738781Y-118114970D02*
X144539970Y-118313781D01*
X145460030Y-118836219D02*
X145261219Y-119035030D01*
X143754038Y-118485409D02*
X145369777Y-116869670D01*
X144330330Y-115830223D02*
X142714591Y-117445962D01*
X145369777Y-116869670D02*
X144330330Y-115830223D01*
X148263781Y-121639970D02*
X148064970Y-121838781D01*
X148985030Y-122361219D02*
X148786219Y-122560030D01*
X136937258Y-79177500D02*
X136462742Y-79177500D01*
X136937258Y-80222500D02*
X136462742Y-80222500D01*
X136852258Y-70477500D02*
X136377742Y-70477500D01*
X136852258Y-71522500D02*
X136377742Y-71522500D01*
D12*
X118875000Y-69900000D02*
X118875000Y-82450000D01*
X118875000Y-69900000D02*
X119550000Y-69900000D01*
X121050000Y-83900000D02*
X134325000Y-83900000D01*
X122050000Y-69900000D02*
X134325000Y-69900000D01*
X134325000Y-69900000D02*
X134325000Y-70626200D01*
X134325000Y-73090000D02*
X134325000Y-76442800D01*
X134325000Y-78881200D02*
X134325000Y-83900000D01*
X123450000Y-79900000D02*
G75*
G02*
X123250000Y-79900000I-100000J0D01*
G01*
X123250000Y-79900000D02*
G75*
G02*
X123450000Y-79900000I100000J0D01*
G01*
D11*
X147304038Y-122010409D02*
X148919777Y-120394670D01*
X147880330Y-119355223D02*
X146264591Y-120970962D01*
X148919777Y-120394670D02*
X147880330Y-119355223D01*
D13*
X149085052Y-74244995D02*
X149105165Y-74353484D01*
X149134885Y-74417338D01*
X149181990Y-74447110D01*
X149238750Y-74453490D01*
X149291108Y-74462938D01*
X149297211Y-74483341D01*
X149261753Y-74504365D01*
X149211141Y-74514284D01*
X149160534Y-74522018D01*
X149131873Y-74542040D01*
X149116343Y-74588242D01*
X149105128Y-74674516D01*
X149104241Y-74682752D01*
X149090941Y-74778123D01*
X149076475Y-74840236D01*
X149063503Y-74863424D01*
X149054682Y-74842020D01*
X149052391Y-74793270D01*
X149044487Y-74661915D01*
X149018748Y-74576468D01*
X148972138Y-74529641D01*
X148937643Y-74517931D01*
X148872360Y-74497661D01*
X148843404Y-74474888D01*
X148856543Y-74457758D01*
X148892012Y-74453490D01*
X148956350Y-74445245D01*
X148997519Y-74414217D01*
X149023463Y-74349400D01*
X149041199Y-74246848D01*
X149063220Y-74081196D01*
X149085052Y-74244995D01*
G36*
X149085052Y-74244995D02*
G01*
X149105165Y-74353484D01*
X149134885Y-74417338D01*
X149181990Y-74447110D01*
X149238750Y-74453490D01*
X149291108Y-74462938D01*
X149297211Y-74483341D01*
X149261753Y-74504365D01*
X149211141Y-74514284D01*
X149160534Y-74522018D01*
X149131873Y-74542040D01*
X149116343Y-74588242D01*
X149105128Y-74674516D01*
X149104241Y-74682752D01*
X149090941Y-74778123D01*
X149076475Y-74840236D01*
X149063503Y-74863424D01*
X149054682Y-74842020D01*
X149052391Y-74793270D01*
X149044487Y-74661915D01*
X149018748Y-74576468D01*
X148972138Y-74529641D01*
X148937643Y-74517931D01*
X148872360Y-74497661D01*
X148843404Y-74474888D01*
X148856543Y-74457758D01*
X148892012Y-74453490D01*
X148956350Y-74445245D01*
X148997519Y-74414217D01*
X149023463Y-74349400D01*
X149041199Y-74246848D01*
X149063220Y-74081196D01*
X149085052Y-74244995D01*
G37*
X149491121Y-75069981D02*
X149677215Y-75121465D01*
X149694293Y-75127649D01*
X149908260Y-75206744D01*
X149908260Y-75325656D01*
X149902786Y-75402177D01*
X149889044Y-75452577D01*
X149882550Y-75460457D01*
X149846195Y-75455895D01*
X149784445Y-75425859D01*
X149754524Y-75406914D01*
X149615603Y-75335533D01*
X149457283Y-75290592D01*
X149296306Y-75274181D01*
X149149415Y-75288389D01*
X149059114Y-75320110D01*
X148963760Y-75397948D01*
X148905616Y-75505278D01*
X148888382Y-75627711D01*
X148915757Y-75750853D01*
X148937551Y-75793091D01*
X148967231Y-75837802D01*
X149005551Y-75886560D01*
X149057855Y-75944818D01*
X149129488Y-76018031D01*
X149225794Y-76111650D01*
X149352117Y-76231131D01*
X149513801Y-76381926D01*
X149522518Y-76390023D01*
X149687837Y-76548430D01*
X149813988Y-76682484D01*
X149906304Y-76800522D01*
X149970121Y-76910880D01*
X150010771Y-77021893D01*
X150033589Y-77141897D01*
X150039176Y-77197451D01*
X150030794Y-77387377D01*
X149975831Y-77552502D01*
X149877874Y-77687785D01*
X149740512Y-77788187D01*
X149576956Y-77846633D01*
X149453271Y-77866333D01*
X149297525Y-77880698D01*
X149129005Y-77888969D01*
X148966997Y-77890381D01*
X148830789Y-77884175D01*
X148779394Y-77878135D01*
X148610916Y-77825221D01*
X148466244Y-77726490D01*
X148350992Y-77588258D01*
X148270773Y-77416842D01*
X148236560Y-77267303D01*
X148228527Y-77188234D01*
X148238773Y-77142112D01*
X148276481Y-77107421D01*
X148314847Y-77083886D01*
X148413011Y-77028613D01*
X148474254Y-77006669D01*
X148508239Y-77021738D01*
X148524628Y-77077505D01*
X148532403Y-77166819D01*
X148560506Y-77329108D01*
X148623626Y-77454435D01*
X148724641Y-77544936D01*
X148866433Y-77602748D01*
X149051884Y-77630008D01*
X149160666Y-77632855D01*
X149367023Y-77619936D01*
X149538893Y-77584493D01*
X149670200Y-77528336D01*
X149752528Y-77456514D01*
X149793648Y-77361197D01*
X149806120Y-77239457D01*
X149789773Y-77112178D01*
X149756082Y-77020883D01*
X149722677Y-76973639D01*
X149656748Y-76894654D01*
X149564824Y-76791222D01*
X149453435Y-76670640D01*
X149329112Y-76540200D01*
X149287428Y-76497328D01*
X149094056Y-76294658D01*
X148940788Y-76122021D01*
X148824965Y-75974521D01*
X148743927Y-75847259D01*
X148695013Y-75735339D01*
X148675565Y-75633863D01*
X148682922Y-75537933D01*
X148714424Y-75442654D01*
X148714505Y-75442471D01*
X148801697Y-75299810D01*
X148923106Y-75173074D01*
X149034614Y-75095940D01*
X149157635Y-75056633D01*
X149313866Y-75048176D01*
X149491121Y-75069981D01*
G36*
X149491121Y-75069981D02*
G01*
X149677215Y-75121465D01*
X149694293Y-75127649D01*
X149908260Y-75206744D01*
X149908260Y-75325656D01*
X149902786Y-75402177D01*
X149889044Y-75452577D01*
X149882550Y-75460457D01*
X149846195Y-75455895D01*
X149784445Y-75425859D01*
X149754524Y-75406914D01*
X149615603Y-75335533D01*
X149457283Y-75290592D01*
X149296306Y-75274181D01*
X149149415Y-75288389D01*
X149059114Y-75320110D01*
X148963760Y-75397948D01*
X148905616Y-75505278D01*
X148888382Y-75627711D01*
X148915757Y-75750853D01*
X148937551Y-75793091D01*
X148967231Y-75837802D01*
X149005551Y-75886560D01*
X149057855Y-75944818D01*
X149129488Y-76018031D01*
X149225794Y-76111650D01*
X149352117Y-76231131D01*
X149513801Y-76381926D01*
X149522518Y-76390023D01*
X149687837Y-76548430D01*
X149813988Y-76682484D01*
X149906304Y-76800522D01*
X149970121Y-76910880D01*
X150010771Y-77021893D01*
X150033589Y-77141897D01*
X150039176Y-77197451D01*
X150030794Y-77387377D01*
X149975831Y-77552502D01*
X149877874Y-77687785D01*
X149740512Y-77788187D01*
X149576956Y-77846633D01*
X149453271Y-77866333D01*
X149297525Y-77880698D01*
X149129005Y-77888969D01*
X148966997Y-77890381D01*
X148830789Y-77884175D01*
X148779394Y-77878135D01*
X148610916Y-77825221D01*
X148466244Y-77726490D01*
X148350992Y-77588258D01*
X148270773Y-77416842D01*
X148236560Y-77267303D01*
X148228527Y-77188234D01*
X148238773Y-77142112D01*
X148276481Y-77107421D01*
X148314847Y-77083886D01*
X148413011Y-77028613D01*
X148474254Y-77006669D01*
X148508239Y-77021738D01*
X148524628Y-77077505D01*
X148532403Y-77166819D01*
X148560506Y-77329108D01*
X148623626Y-77454435D01*
X148724641Y-77544936D01*
X148866433Y-77602748D01*
X149051884Y-77630008D01*
X149160666Y-77632855D01*
X149367023Y-77619936D01*
X149538893Y-77584493D01*
X149670200Y-77528336D01*
X149752528Y-77456514D01*
X149793648Y-77361197D01*
X149806120Y-77239457D01*
X149789773Y-77112178D01*
X149756082Y-77020883D01*
X149722677Y-76973639D01*
X149656748Y-76894654D01*
X149564824Y-76791222D01*
X149453435Y-76670640D01*
X149329112Y-76540200D01*
X149287428Y-76497328D01*
X149094056Y-76294658D01*
X148940788Y-76122021D01*
X148824965Y-75974521D01*
X148743927Y-75847259D01*
X148695013Y-75735339D01*
X148675565Y-75633863D01*
X148682922Y-75537933D01*
X148714424Y-75442654D01*
X148714505Y-75442471D01*
X148801697Y-75299810D01*
X148923106Y-75173074D01*
X149034614Y-75095940D01*
X149157635Y-75056633D01*
X149313866Y-75048176D01*
X149491121Y-75069981D01*
G37*
X152110139Y-74600365D02*
X152115015Y-74665623D01*
X152118731Y-74747379D01*
X152120363Y-74826276D01*
X152119516Y-74874946D01*
X152107763Y-74904056D01*
X152068071Y-74919158D01*
X151987828Y-74924509D01*
X151972010Y-74924729D01*
X151887079Y-74930220D01*
X151764674Y-74944049D01*
X151621540Y-74964094D01*
X151482240Y-74986848D01*
X151333576Y-75013605D01*
X151226028Y-75039446D01*
X151152705Y-75073231D01*
X151106712Y-75123822D01*
X151081155Y-75200080D01*
X151069141Y-75310865D01*
X151063775Y-75465039D01*
X151062296Y-75526639D01*
X151059709Y-75677829D01*
X151064843Y-75790181D01*
X151084447Y-75868173D01*
X151125271Y-75916281D01*
X151194065Y-75938982D01*
X151297579Y-75940752D01*
X151442564Y-75926069D01*
X151626357Y-75900746D01*
X151719827Y-75896488D01*
X151771078Y-75921121D01*
X151785373Y-75981219D01*
X151769069Y-76078974D01*
X151744239Y-76179457D01*
X151432650Y-76179457D01*
X151289245Y-76181024D01*
X151191899Y-76186465D01*
X151131521Y-76196884D01*
X151099022Y-76213390D01*
X151092511Y-76220870D01*
X151083263Y-76263075D01*
X151077925Y-76350056D01*
X151076208Y-76471531D01*
X151077823Y-76617217D01*
X151082480Y-76776832D01*
X151089889Y-76940096D01*
X151099762Y-77096725D01*
X151111808Y-77236438D01*
X151123925Y-77336868D01*
X151140075Y-77441909D01*
X151158844Y-77515727D01*
X151189182Y-77563329D01*
X151240039Y-77589726D01*
X151320365Y-77599927D01*
X151439111Y-77598940D01*
X151581294Y-77592851D01*
X151730473Y-77584066D01*
X151871868Y-77572110D01*
X151989885Y-77558527D01*
X152068928Y-77544863D01*
X152071077Y-77544332D01*
X152176833Y-77523246D01*
X152240606Y-77530104D01*
X152271552Y-77572023D01*
X152278829Y-77656125D01*
X152277094Y-77704503D01*
X152268804Y-77863587D01*
X151589723Y-77870962D01*
X150910643Y-77878338D01*
X150892867Y-77567107D01*
X150886653Y-77436487D01*
X150880629Y-77269125D01*
X150874889Y-77072040D01*
X150869526Y-76852251D01*
X150864634Y-76616777D01*
X150860309Y-76372638D01*
X150856643Y-76126851D01*
X150853730Y-75886438D01*
X150851666Y-75658416D01*
X150850542Y-75449804D01*
X150850455Y-75267623D01*
X150851497Y-75118890D01*
X150853763Y-75010626D01*
X150857346Y-74949849D01*
X150857775Y-74946692D01*
X150877131Y-74818274D01*
X151034598Y-74789250D01*
X151116132Y-74773325D01*
X151238206Y-74748349D01*
X151387426Y-74717115D01*
X151550400Y-74682413D01*
X151645020Y-74661999D01*
X151795125Y-74629940D01*
X151925062Y-74603125D01*
X152025842Y-74583334D01*
X152088477Y-74572346D01*
X152105025Y-74570962D01*
X152110139Y-74600365D01*
G36*
X152110139Y-74600365D02*
G01*
X152115015Y-74665623D01*
X152118731Y-74747379D01*
X152120363Y-74826276D01*
X152119516Y-74874946D01*
X152107763Y-74904056D01*
X152068071Y-74919158D01*
X151987828Y-74924509D01*
X151972010Y-74924729D01*
X151887079Y-74930220D01*
X151764674Y-74944049D01*
X151621540Y-74964094D01*
X151482240Y-74986848D01*
X151333576Y-75013605D01*
X151226028Y-75039446D01*
X151152705Y-75073231D01*
X151106712Y-75123822D01*
X151081155Y-75200080D01*
X151069141Y-75310865D01*
X151063775Y-75465039D01*
X151062296Y-75526639D01*
X151059709Y-75677829D01*
X151064843Y-75790181D01*
X151084447Y-75868173D01*
X151125271Y-75916281D01*
X151194065Y-75938982D01*
X151297579Y-75940752D01*
X151442564Y-75926069D01*
X151626357Y-75900746D01*
X151719827Y-75896488D01*
X151771078Y-75921121D01*
X151785373Y-75981219D01*
X151769069Y-76078974D01*
X151744239Y-76179457D01*
X151432650Y-76179457D01*
X151289245Y-76181024D01*
X151191899Y-76186465D01*
X151131521Y-76196884D01*
X151099022Y-76213390D01*
X151092511Y-76220870D01*
X151083263Y-76263075D01*
X151077925Y-76350056D01*
X151076208Y-76471531D01*
X151077823Y-76617217D01*
X151082480Y-76776832D01*
X151089889Y-76940096D01*
X151099762Y-77096725D01*
X151111808Y-77236438D01*
X151123925Y-77336868D01*
X151140075Y-77441909D01*
X151158844Y-77515727D01*
X151189182Y-77563329D01*
X151240039Y-77589726D01*
X151320365Y-77599927D01*
X151439111Y-77598940D01*
X151581294Y-77592851D01*
X151730473Y-77584066D01*
X151871868Y-77572110D01*
X151989885Y-77558527D01*
X152068928Y-77544863D01*
X152071077Y-77544332D01*
X152176833Y-77523246D01*
X152240606Y-77530104D01*
X152271552Y-77572023D01*
X152278829Y-77656125D01*
X152277094Y-77704503D01*
X152268804Y-77863587D01*
X151589723Y-77870962D01*
X150910643Y-77878338D01*
X150892867Y-77567107D01*
X150886653Y-77436487D01*
X150880629Y-77269125D01*
X150874889Y-77072040D01*
X150869526Y-76852251D01*
X150864634Y-76616777D01*
X150860309Y-76372638D01*
X150856643Y-76126851D01*
X150853730Y-75886438D01*
X150851666Y-75658416D01*
X150850542Y-75449804D01*
X150850455Y-75267623D01*
X150851497Y-75118890D01*
X150853763Y-75010626D01*
X150857346Y-74949849D01*
X150857775Y-74946692D01*
X150877131Y-74818274D01*
X151034598Y-74789250D01*
X151116132Y-74773325D01*
X151238206Y-74748349D01*
X151387426Y-74717115D01*
X151550400Y-74682413D01*
X151645020Y-74661999D01*
X151795125Y-74629940D01*
X151925062Y-74603125D01*
X152025842Y-74583334D01*
X152088477Y-74572346D01*
X152105025Y-74570962D01*
X152110139Y-74600365D01*
G37*
X156762350Y-74470538D02*
X156845885Y-74473797D01*
X157164306Y-74489479D01*
X157173902Y-74590098D01*
X157178422Y-74697414D01*
X157162070Y-74760217D01*
X157117516Y-74783353D01*
X157037425Y-74771667D01*
X156945047Y-74741306D01*
X156859263Y-74719880D01*
X156744347Y-74704203D01*
X156614335Y-74694622D01*
X156483263Y-74691485D01*
X156365168Y-74695136D01*
X156274086Y-74705923D01*
X156224830Y-74723526D01*
X156198297Y-74772064D01*
X156173836Y-74866661D01*
X156152624Y-74998165D01*
X156135837Y-75157426D01*
X156124651Y-75335292D01*
X156120242Y-75522612D01*
X156120217Y-75537452D01*
X156120299Y-75672889D01*
X156125227Y-75773305D01*
X156142028Y-75842917D01*
X156177726Y-75885943D01*
X156239346Y-75906599D01*
X156333914Y-75909103D01*
X156468455Y-75897672D01*
X156649994Y-75876523D01*
X156679293Y-75873058D01*
X156838043Y-75854354D01*
X156838043Y-75979014D01*
X156830231Y-76063348D01*
X156810330Y-76123069D01*
X156801336Y-76134138D01*
X156756489Y-76148066D01*
X156666094Y-76157953D01*
X156539728Y-76162961D01*
X156467179Y-76163378D01*
X156344200Y-76164474D01*
X156242472Y-76168391D01*
X156174175Y-76174473D01*
X156151875Y-76180365D01*
X156144065Y-76215916D01*
X156139488Y-76296402D01*
X156137917Y-76411648D01*
X156139124Y-76551481D01*
X156142883Y-76705726D01*
X156148965Y-76864210D01*
X156157144Y-77016757D01*
X156167193Y-77153195D01*
X156175455Y-77235726D01*
X156196324Y-77383480D01*
X156219162Y-77480989D01*
X156245216Y-77533219D01*
X156251579Y-77539185D01*
X156306091Y-77557807D01*
X156403499Y-77568810D01*
X156532004Y-77572151D01*
X156679807Y-77567790D01*
X156835109Y-77555684D01*
X156948478Y-77541635D01*
X157062050Y-77526155D01*
X157164931Y-77514147D01*
X157235789Y-77508089D01*
X157238369Y-77507977D01*
X157321195Y-77504674D01*
X157321195Y-77835978D01*
X156653614Y-77843367D01*
X156465722Y-77844464D01*
X156297414Y-77843563D01*
X156156305Y-77840857D01*
X156050011Y-77836535D01*
X155986146Y-77830791D01*
X155970848Y-77826185D01*
X155964918Y-77790272D01*
X155958794Y-77705544D01*
X155952599Y-77578402D01*
X155946454Y-77415247D01*
X155940484Y-77222480D01*
X155934810Y-77006503D01*
X155929555Y-76773717D01*
X155924843Y-76530523D01*
X155920794Y-76283322D01*
X155917533Y-76038515D01*
X155915182Y-75802504D01*
X155913864Y-75581690D01*
X155913701Y-75382473D01*
X155914815Y-75211256D01*
X155917331Y-75074440D01*
X155917804Y-75058313D01*
X155935493Y-74489344D01*
X156231478Y-74473729D01*
X156392826Y-74468496D01*
X156579645Y-74467433D01*
X156762350Y-74470538D01*
G36*
X156762350Y-74470538D02*
G01*
X156845885Y-74473797D01*
X157164306Y-74489479D01*
X157173902Y-74590098D01*
X157178422Y-74697414D01*
X157162070Y-74760217D01*
X157117516Y-74783353D01*
X157037425Y-74771667D01*
X156945047Y-74741306D01*
X156859263Y-74719880D01*
X156744347Y-74704203D01*
X156614335Y-74694622D01*
X156483263Y-74691485D01*
X156365168Y-74695136D01*
X156274086Y-74705923D01*
X156224830Y-74723526D01*
X156198297Y-74772064D01*
X156173836Y-74866661D01*
X156152624Y-74998165D01*
X156135837Y-75157426D01*
X156124651Y-75335292D01*
X156120242Y-75522612D01*
X156120217Y-75537452D01*
X156120299Y-75672889D01*
X156125227Y-75773305D01*
X156142028Y-75842917D01*
X156177726Y-75885943D01*
X156239346Y-75906599D01*
X156333914Y-75909103D01*
X156468455Y-75897672D01*
X156649994Y-75876523D01*
X156679293Y-75873058D01*
X156838043Y-75854354D01*
X156838043Y-75979014D01*
X156830231Y-76063348D01*
X156810330Y-76123069D01*
X156801336Y-76134138D01*
X156756489Y-76148066D01*
X156666094Y-76157953D01*
X156539728Y-76162961D01*
X156467179Y-76163378D01*
X156344200Y-76164474D01*
X156242472Y-76168391D01*
X156174175Y-76174473D01*
X156151875Y-76180365D01*
X156144065Y-76215916D01*
X156139488Y-76296402D01*
X156137917Y-76411648D01*
X156139124Y-76551481D01*
X156142883Y-76705726D01*
X156148965Y-76864210D01*
X156157144Y-77016757D01*
X156167193Y-77153195D01*
X156175455Y-77235726D01*
X156196324Y-77383480D01*
X156219162Y-77480989D01*
X156245216Y-77533219D01*
X156251579Y-77539185D01*
X156306091Y-77557807D01*
X156403499Y-77568810D01*
X156532004Y-77572151D01*
X156679807Y-77567790D01*
X156835109Y-77555684D01*
X156948478Y-77541635D01*
X157062050Y-77526155D01*
X157164931Y-77514147D01*
X157235789Y-77508089D01*
X157238369Y-77507977D01*
X157321195Y-77504674D01*
X157321195Y-77835978D01*
X156653614Y-77843367D01*
X156465722Y-77844464D01*
X156297414Y-77843563D01*
X156156305Y-77840857D01*
X156050011Y-77836535D01*
X155986146Y-77830791D01*
X155970848Y-77826185D01*
X155964918Y-77790272D01*
X155958794Y-77705544D01*
X155952599Y-77578402D01*
X155946454Y-77415247D01*
X155940484Y-77222480D01*
X155934810Y-77006503D01*
X155929555Y-76773717D01*
X155924843Y-76530523D01*
X155920794Y-76283322D01*
X155917533Y-76038515D01*
X155915182Y-75802504D01*
X155913864Y-75581690D01*
X155913701Y-75382473D01*
X155914815Y-75211256D01*
X155917331Y-75074440D01*
X155917804Y-75058313D01*
X155935493Y-74489344D01*
X156231478Y-74473729D01*
X156392826Y-74468496D01*
X156579645Y-74467433D01*
X156762350Y-74470538D01*
G37*
X152689837Y-74541476D02*
X152836590Y-74549021D01*
X152944728Y-74561135D01*
X153030832Y-74580850D01*
X153111481Y-74611195D01*
X153138478Y-74623474D01*
X153328764Y-74742854D01*
X153490546Y-74908780D01*
X153623418Y-75120263D01*
X153726973Y-75376313D01*
X153800804Y-75675943D01*
X153844506Y-76018163D01*
X153857752Y-76372718D01*
X153845573Y-76717335D01*
X153808682Y-77013515D01*
X153746570Y-77262451D01*
X153658729Y-77465338D01*
X153544650Y-77623369D01*
X153403824Y-77737737D01*
X153246524Y-77806522D01*
X153157639Y-77825415D01*
X153043005Y-77839250D01*
X152914714Y-77847886D01*
X152784853Y-77851183D01*
X152665515Y-77849002D01*
X152568789Y-77841203D01*
X152506764Y-77827645D01*
X152490642Y-77815272D01*
X152488215Y-77783408D01*
X152484444Y-77702363D01*
X152479517Y-77578148D01*
X152473618Y-77416778D01*
X152466932Y-77224268D01*
X152459646Y-77006630D01*
X152451944Y-76769878D01*
X152444012Y-76520026D01*
X152436036Y-76263089D01*
X152428200Y-76005079D01*
X152420691Y-75752011D01*
X152413693Y-75509898D01*
X152412436Y-75464971D01*
X152642208Y-75464971D01*
X152642235Y-75705302D01*
X152642327Y-75828417D01*
X152644034Y-76207588D01*
X152648460Y-76545313D01*
X152655510Y-76839610D01*
X152665091Y-77088501D01*
X152677109Y-77290005D01*
X152691471Y-77442142D01*
X152708083Y-77542933D01*
X152725573Y-77588977D01*
X152773204Y-77618291D01*
X152843740Y-77636703D01*
X152913637Y-77645733D01*
X152958925Y-77652066D01*
X152959021Y-77652082D01*
X152996467Y-77643124D01*
X153067498Y-77615413D01*
X153152282Y-77577030D01*
X153317127Y-77479006D01*
X153444302Y-77356405D01*
X153546667Y-77195987D01*
X153571124Y-77145761D01*
X153600939Y-77077774D01*
X153622260Y-77015553D01*
X153636839Y-76947290D01*
X153646429Y-76861176D01*
X153652782Y-76745403D01*
X153657651Y-76588164D01*
X153658430Y-76557549D01*
X153654230Y-76220001D01*
X153625126Y-75908722D01*
X153572625Y-75627242D01*
X153498233Y-75379094D01*
X153403455Y-75167807D01*
X153289798Y-74996914D01*
X153158767Y-74869944D01*
X153011869Y-74790429D01*
X152893526Y-74764187D01*
X152800493Y-74762879D01*
X152722558Y-74774715D01*
X152700764Y-74783063D01*
X152685392Y-74792303D01*
X152672943Y-74805511D01*
X152663116Y-74828116D01*
X152655607Y-74865544D01*
X152650112Y-74923222D01*
X152646328Y-75006576D01*
X152643952Y-75121035D01*
X152642680Y-75272024D01*
X152642208Y-75464971D01*
X152412436Y-75464971D01*
X152407393Y-75284754D01*
X152401975Y-75082592D01*
X152397625Y-74909428D01*
X152394529Y-74771274D01*
X152392872Y-74674144D01*
X152392648Y-74637218D01*
X152393043Y-74530631D01*
X152689837Y-74541476D01*
G36*
X152689837Y-74541476D02*
G01*
X152836590Y-74549021D01*
X152944728Y-74561135D01*
X153030832Y-74580850D01*
X153111481Y-74611195D01*
X153138478Y-74623474D01*
X153328764Y-74742854D01*
X153490546Y-74908780D01*
X153623418Y-75120263D01*
X153726973Y-75376313D01*
X153800804Y-75675943D01*
X153844506Y-76018163D01*
X153857752Y-76372718D01*
X153845573Y-76717335D01*
X153808682Y-77013515D01*
X153746570Y-77262451D01*
X153658729Y-77465338D01*
X153544650Y-77623369D01*
X153403824Y-77737737D01*
X153246524Y-77806522D01*
X153157639Y-77825415D01*
X153043005Y-77839250D01*
X152914714Y-77847886D01*
X152784853Y-77851183D01*
X152665515Y-77849002D01*
X152568789Y-77841203D01*
X152506764Y-77827645D01*
X152490642Y-77815272D01*
X152488215Y-77783408D01*
X152484444Y-77702363D01*
X152479517Y-77578148D01*
X152473618Y-77416778D01*
X152466932Y-77224268D01*
X152459646Y-77006630D01*
X152451944Y-76769878D01*
X152444012Y-76520026D01*
X152436036Y-76263089D01*
X152428200Y-76005079D01*
X152420691Y-75752011D01*
X152413693Y-75509898D01*
X152412436Y-75464971D01*
X152642208Y-75464971D01*
X152642235Y-75705302D01*
X152642327Y-75828417D01*
X152644034Y-76207588D01*
X152648460Y-76545313D01*
X152655510Y-76839610D01*
X152665091Y-77088501D01*
X152677109Y-77290005D01*
X152691471Y-77442142D01*
X152708083Y-77542933D01*
X152725573Y-77588977D01*
X152773204Y-77618291D01*
X152843740Y-77636703D01*
X152913637Y-77645733D01*
X152958925Y-77652066D01*
X152959021Y-77652082D01*
X152996467Y-77643124D01*
X153067498Y-77615413D01*
X153152282Y-77577030D01*
X153317127Y-77479006D01*
X153444302Y-77356405D01*
X153546667Y-77195987D01*
X153571124Y-77145761D01*
X153600939Y-77077774D01*
X153622260Y-77015553D01*
X153636839Y-76947290D01*
X153646429Y-76861176D01*
X153652782Y-76745403D01*
X153657651Y-76588164D01*
X153658430Y-76557549D01*
X153654230Y-76220001D01*
X153625126Y-75908722D01*
X153572625Y-75627242D01*
X153498233Y-75379094D01*
X153403455Y-75167807D01*
X153289798Y-74996914D01*
X153158767Y-74869944D01*
X153011869Y-74790429D01*
X152893526Y-74764187D01*
X152800493Y-74762879D01*
X152722558Y-74774715D01*
X152700764Y-74783063D01*
X152685392Y-74792303D01*
X152672943Y-74805511D01*
X152663116Y-74828116D01*
X152655607Y-74865544D01*
X152650112Y-74923222D01*
X152646328Y-75006576D01*
X152643952Y-75121035D01*
X152642680Y-75272024D01*
X152642208Y-75464971D01*
X152412436Y-75464971D01*
X152407393Y-75284754D01*
X152401975Y-75082592D01*
X152397625Y-74909428D01*
X152394529Y-74771274D01*
X152392872Y-74674144D01*
X152392648Y-74637218D01*
X152393043Y-74530631D01*
X152689837Y-74541476D01*
G37*
X148632027Y-74682881D02*
X148677971Y-74704879D01*
X148681396Y-74710729D01*
X148679853Y-74754681D01*
X148662009Y-74842061D01*
X148630389Y-74964388D01*
X148587516Y-75113181D01*
X148535915Y-75279958D01*
X148478111Y-75456239D01*
X148416626Y-75633542D01*
X148364220Y-75776431D01*
X148291465Y-75972567D01*
X148230168Y-76147001D01*
X148176994Y-76311495D01*
X148128607Y-76477813D01*
X148081670Y-76657717D01*
X148032847Y-76862969D01*
X147978804Y-77105334D01*
X147951262Y-77232568D01*
X147882751Y-77540254D01*
X147819406Y-77800019D01*
X147759087Y-78018674D01*
X147699657Y-78203029D01*
X147638976Y-78359895D01*
X147574905Y-78496084D01*
X147527688Y-78581413D01*
X147412788Y-78747587D01*
X147264019Y-78920456D01*
X147097462Y-79083178D01*
X146929196Y-79218914D01*
X146898913Y-79239892D01*
X146782472Y-79307685D01*
X146654642Y-79364947D01*
X146525054Y-79409501D01*
X146403340Y-79439169D01*
X146299131Y-79451777D01*
X146222058Y-79445147D01*
X146181752Y-79417103D01*
X146178161Y-79402772D01*
X146178130Y-79306794D01*
X146187863Y-79222422D01*
X146204825Y-79169717D01*
X146208157Y-79165442D01*
X146244580Y-79149782D01*
X146320402Y-79129723D01*
X146420433Y-79109185D01*
X146438944Y-79105894D01*
X146627709Y-79059372D01*
X146793141Y-78985694D01*
X146949047Y-78876875D01*
X147109234Y-78724929D01*
X147122968Y-78710328D01*
X147269920Y-78533535D01*
X147394922Y-78338776D01*
X147500393Y-78119571D01*
X147588750Y-77869438D01*
X147662413Y-77581898D01*
X147723799Y-77250470D01*
X147758356Y-77007718D01*
X147779592Y-76835882D01*
X147792713Y-76695527D01*
X147795569Y-76576233D01*
X147786013Y-76467583D01*
X147761898Y-76359160D01*
X147721075Y-76240545D01*
X147661399Y-76101322D01*
X147580720Y-75931073D01*
X147504204Y-75774863D01*
X147257625Y-75273815D01*
X147306040Y-75191181D01*
X147358756Y-75119175D01*
X147412991Y-75072798D01*
X147456381Y-75061588D01*
X147466446Y-75067461D01*
X147480254Y-75101844D01*
X147499427Y-75175071D01*
X147519912Y-75271578D01*
X147520706Y-75275725D01*
X147547308Y-75379241D01*
X147591566Y-75513678D01*
X147646923Y-75660328D01*
X147697009Y-75778832D01*
X147775930Y-75952023D01*
X147837629Y-76078316D01*
X147885529Y-76162029D01*
X147923052Y-76207478D01*
X147953621Y-76218977D01*
X147980658Y-76200845D01*
X148003446Y-76165306D01*
X148023550Y-76115404D01*
X148055298Y-76021987D01*
X148095806Y-75894814D01*
X148142193Y-75743642D01*
X148191576Y-75578231D01*
X148241074Y-75408338D01*
X148287802Y-75243721D01*
X148328880Y-75094139D01*
X148361425Y-74969349D01*
X148380510Y-74888750D01*
X148426795Y-74674783D01*
X148547198Y-74674783D01*
X148632027Y-74682881D01*
G36*
X148632027Y-74682881D02*
G01*
X148677971Y-74704879D01*
X148681396Y-74710729D01*
X148679853Y-74754681D01*
X148662009Y-74842061D01*
X148630389Y-74964388D01*
X148587516Y-75113181D01*
X148535915Y-75279958D01*
X148478111Y-75456239D01*
X148416626Y-75633542D01*
X148364220Y-75776431D01*
X148291465Y-75972567D01*
X148230168Y-76147001D01*
X148176994Y-76311495D01*
X148128607Y-76477813D01*
X148081670Y-76657717D01*
X148032847Y-76862969D01*
X147978804Y-77105334D01*
X147951262Y-77232568D01*
X147882751Y-77540254D01*
X147819406Y-77800019D01*
X147759087Y-78018674D01*
X147699657Y-78203029D01*
X147638976Y-78359895D01*
X147574905Y-78496084D01*
X147527688Y-78581413D01*
X147412788Y-78747587D01*
X147264019Y-78920456D01*
X147097462Y-79083178D01*
X146929196Y-79218914D01*
X146898913Y-79239892D01*
X146782472Y-79307685D01*
X146654642Y-79364947D01*
X146525054Y-79409501D01*
X146403340Y-79439169D01*
X146299131Y-79451777D01*
X146222058Y-79445147D01*
X146181752Y-79417103D01*
X146178161Y-79402772D01*
X146178130Y-79306794D01*
X146187863Y-79222422D01*
X146204825Y-79169717D01*
X146208157Y-79165442D01*
X146244580Y-79149782D01*
X146320402Y-79129723D01*
X146420433Y-79109185D01*
X146438944Y-79105894D01*
X146627709Y-79059372D01*
X146793141Y-78985694D01*
X146949047Y-78876875D01*
X147109234Y-78724929D01*
X147122968Y-78710328D01*
X147269920Y-78533535D01*
X147394922Y-78338776D01*
X147500393Y-78119571D01*
X147588750Y-77869438D01*
X147662413Y-77581898D01*
X147723799Y-77250470D01*
X147758356Y-77007718D01*
X147779592Y-76835882D01*
X147792713Y-76695527D01*
X147795569Y-76576233D01*
X147786013Y-76467583D01*
X147761898Y-76359160D01*
X147721075Y-76240545D01*
X147661399Y-76101322D01*
X147580720Y-75931073D01*
X147504204Y-75774863D01*
X147257625Y-75273815D01*
X147306040Y-75191181D01*
X147358756Y-75119175D01*
X147412991Y-75072798D01*
X147456381Y-75061588D01*
X147466446Y-75067461D01*
X147480254Y-75101844D01*
X147499427Y-75175071D01*
X147519912Y-75271578D01*
X147520706Y-75275725D01*
X147547308Y-75379241D01*
X147591566Y-75513678D01*
X147646923Y-75660328D01*
X147697009Y-75778832D01*
X147775930Y-75952023D01*
X147837629Y-76078316D01*
X147885529Y-76162029D01*
X147923052Y-76207478D01*
X147953621Y-76218977D01*
X147980658Y-76200845D01*
X148003446Y-76165306D01*
X148023550Y-76115404D01*
X148055298Y-76021987D01*
X148095806Y-75894814D01*
X148142193Y-75743642D01*
X148191576Y-75578231D01*
X148241074Y-75408338D01*
X148287802Y-75243721D01*
X148328880Y-75094139D01*
X148361425Y-74969349D01*
X148380510Y-74888750D01*
X148426795Y-74674783D01*
X148547198Y-74674783D01*
X148632027Y-74682881D01*
G37*
X144423295Y-74434675D02*
X144529766Y-74456966D01*
X144654563Y-74488949D01*
X144783138Y-74526392D01*
X144900948Y-74565067D01*
X144993445Y-74600744D01*
X145045365Y-74628599D01*
X145068438Y-74670900D01*
X145071210Y-74750280D01*
X145066929Y-74794946D01*
X145055236Y-74875916D01*
X145043348Y-74931030D01*
X145037996Y-74943598D01*
X145010261Y-74936788D01*
X144956181Y-74904301D01*
X144933606Y-74888122D01*
X144800832Y-74810447D01*
X144643504Y-74751639D01*
X144476355Y-74714209D01*
X144314116Y-74700669D01*
X144171519Y-74713530D01*
X144083892Y-74743253D01*
X143973175Y-74828813D01*
X143900777Y-74944126D01*
X143871580Y-75076096D01*
X143890467Y-75211630D01*
X143899882Y-75236672D01*
X143960453Y-75339304D01*
X144066906Y-75468436D01*
X144217662Y-75622346D01*
X144411146Y-75799308D01*
X144427934Y-75813984D01*
X144658657Y-76019605D01*
X144847533Y-76199205D01*
X144998235Y-76358022D01*
X145114432Y-76501298D01*
X145199795Y-76634270D01*
X145257995Y-76762177D01*
X145292703Y-76890260D01*
X145307589Y-77023757D01*
X145308787Y-77071247D01*
X145294177Y-77263808D01*
X145245754Y-77423736D01*
X145160736Y-77553049D01*
X145036337Y-77653761D01*
X144869774Y-77727890D01*
X144658263Y-77777451D01*
X144399021Y-77804460D01*
X144289891Y-77809158D01*
X144145171Y-77811548D01*
X144011944Y-77810379D01*
X143904462Y-77805993D01*
X143836975Y-77798735D01*
X143834347Y-77798180D01*
X143645297Y-77728945D01*
X143482315Y-77613998D01*
X143349590Y-77458323D01*
X143251308Y-77266907D01*
X143191658Y-77044733D01*
X143189386Y-77030452D01*
X143171735Y-76915142D01*
X143320043Y-76830288D01*
X143403176Y-76785436D01*
X143469244Y-76754681D01*
X143499502Y-76745435D01*
X143518941Y-76771327D01*
X143529544Y-76842998D01*
X143530921Y-76890381D01*
X143555855Y-77075418D01*
X143626936Y-77234770D01*
X143739677Y-77362713D01*
X143889592Y-77453522D01*
X144000000Y-77488839D01*
X144178503Y-77513439D01*
X144373721Y-77513703D01*
X144568315Y-77491603D01*
X144744941Y-77449112D01*
X144886258Y-77388205D01*
X144886696Y-77387947D01*
X144977679Y-77304152D01*
X145029732Y-77188385D01*
X145041478Y-77049156D01*
X145011537Y-76894976D01*
X144979779Y-76813348D01*
X144942032Y-76755867D01*
X144867037Y-76664840D01*
X144758226Y-76544059D01*
X144619032Y-76397316D01*
X144452886Y-76228401D01*
X144425459Y-76200995D01*
X144219851Y-75993307D01*
X144052152Y-75817047D01*
X143918823Y-75667159D01*
X143816326Y-75538588D01*
X143741122Y-75426277D01*
X143689673Y-75325170D01*
X143658440Y-75230213D01*
X143643885Y-75136348D01*
X143641693Y-75081124D01*
X143657999Y-74930806D01*
X143712824Y-74798050D01*
X143812773Y-74668219D01*
X143841215Y-74638854D01*
X143996542Y-74520789D01*
X144176108Y-74448345D01*
X144349696Y-74426305D01*
X144423295Y-74434675D01*
G36*
X144423295Y-74434675D02*
G01*
X144529766Y-74456966D01*
X144654563Y-74488949D01*
X144783138Y-74526392D01*
X144900948Y-74565067D01*
X144993445Y-74600744D01*
X145045365Y-74628599D01*
X145068438Y-74670900D01*
X145071210Y-74750280D01*
X145066929Y-74794946D01*
X145055236Y-74875916D01*
X145043348Y-74931030D01*
X145037996Y-74943598D01*
X145010261Y-74936788D01*
X144956181Y-74904301D01*
X144933606Y-74888122D01*
X144800832Y-74810447D01*
X144643504Y-74751639D01*
X144476355Y-74714209D01*
X144314116Y-74700669D01*
X144171519Y-74713530D01*
X144083892Y-74743253D01*
X143973175Y-74828813D01*
X143900777Y-74944126D01*
X143871580Y-75076096D01*
X143890467Y-75211630D01*
X143899882Y-75236672D01*
X143960453Y-75339304D01*
X144066906Y-75468436D01*
X144217662Y-75622346D01*
X144411146Y-75799308D01*
X144427934Y-75813984D01*
X144658657Y-76019605D01*
X144847533Y-76199205D01*
X144998235Y-76358022D01*
X145114432Y-76501298D01*
X145199795Y-76634270D01*
X145257995Y-76762177D01*
X145292703Y-76890260D01*
X145307589Y-77023757D01*
X145308787Y-77071247D01*
X145294177Y-77263808D01*
X145245754Y-77423736D01*
X145160736Y-77553049D01*
X145036337Y-77653761D01*
X144869774Y-77727890D01*
X144658263Y-77777451D01*
X144399021Y-77804460D01*
X144289891Y-77809158D01*
X144145171Y-77811548D01*
X144011944Y-77810379D01*
X143904462Y-77805993D01*
X143836975Y-77798735D01*
X143834347Y-77798180D01*
X143645297Y-77728945D01*
X143482315Y-77613998D01*
X143349590Y-77458323D01*
X143251308Y-77266907D01*
X143191658Y-77044733D01*
X143189386Y-77030452D01*
X143171735Y-76915142D01*
X143320043Y-76830288D01*
X143403176Y-76785436D01*
X143469244Y-76754681D01*
X143499502Y-76745435D01*
X143518941Y-76771327D01*
X143529544Y-76842998D01*
X143530921Y-76890381D01*
X143555855Y-77075418D01*
X143626936Y-77234770D01*
X143739677Y-77362713D01*
X143889592Y-77453522D01*
X144000000Y-77488839D01*
X144178503Y-77513439D01*
X144373721Y-77513703D01*
X144568315Y-77491603D01*
X144744941Y-77449112D01*
X144886258Y-77388205D01*
X144886696Y-77387947D01*
X144977679Y-77304152D01*
X145029732Y-77188385D01*
X145041478Y-77049156D01*
X145011537Y-76894976D01*
X144979779Y-76813348D01*
X144942032Y-76755867D01*
X144867037Y-76664840D01*
X144758226Y-76544059D01*
X144619032Y-76397316D01*
X144452886Y-76228401D01*
X144425459Y-76200995D01*
X144219851Y-75993307D01*
X144052152Y-75817047D01*
X143918823Y-75667159D01*
X143816326Y-75538588D01*
X143741122Y-75426277D01*
X143689673Y-75325170D01*
X143658440Y-75230213D01*
X143643885Y-75136348D01*
X143641693Y-75081124D01*
X143657999Y-74930806D01*
X143712824Y-74798050D01*
X143812773Y-74668219D01*
X143841215Y-74638854D01*
X143996542Y-74520789D01*
X144176108Y-74448345D01*
X144349696Y-74426305D01*
X144423295Y-74434675D01*
G37*
X154911661Y-74459196D02*
X154993812Y-74473581D01*
X155046827Y-74484819D01*
X155209886Y-74547096D01*
X155348873Y-74657728D01*
X155462596Y-74814816D01*
X155549863Y-75016462D01*
X155609480Y-75260766D01*
X155630176Y-75413842D01*
X155641075Y-75532673D01*
X155647704Y-75629445D01*
X155649371Y-75692082D01*
X155647123Y-75709253D01*
X155615678Y-75717812D01*
X155544473Y-75728935D01*
X155448744Y-75740254D01*
X155446038Y-75740532D01*
X155256848Y-75759915D01*
X155271660Y-75679795D01*
X155284924Y-75608216D01*
X155303491Y-75508235D01*
X155317290Y-75434022D01*
X155333948Y-75241358D01*
X155310887Y-75073813D01*
X155252228Y-74936023D01*
X155162095Y-74832627D01*
X155044610Y-74768263D01*
X154903897Y-74747569D01*
X154744077Y-74775183D01*
X154734425Y-74778326D01*
X154617646Y-74834834D01*
X154518840Y-74922949D01*
X154435579Y-75047300D01*
X154365431Y-75212511D01*
X154305968Y-75423210D01*
X154254758Y-75684024D01*
X154252915Y-75695150D01*
X154231186Y-75889670D01*
X154221904Y-76119895D01*
X154224623Y-76367836D01*
X154238900Y-76615507D01*
X154264291Y-76844921D01*
X154284265Y-76964225D01*
X154346317Y-77200883D01*
X154430724Y-77387362D01*
X154538051Y-77524219D01*
X154668863Y-77612011D01*
X154823726Y-77651295D01*
X154976639Y-77646699D01*
X155152405Y-77602624D01*
X155291552Y-77522285D01*
X155395560Y-77403505D01*
X155465904Y-77244110D01*
X155504064Y-77041924D01*
X155512449Y-76857761D01*
X155508946Y-76694025D01*
X155497225Y-76581838D01*
X155474559Y-76517806D01*
X155438219Y-76498533D01*
X155385478Y-76520625D01*
X155313607Y-76580687D01*
X155300157Y-76593587D01*
X155211945Y-76664809D01*
X155145571Y-76685441D01*
X155100531Y-76655244D01*
X155076324Y-76573979D01*
X155071509Y-76484533D01*
X155074668Y-76389023D01*
X155089780Y-76325503D01*
X155126338Y-76286915D01*
X155193834Y-76266202D01*
X155301759Y-76256305D01*
X155383067Y-76252868D01*
X155505041Y-76248875D01*
X155595744Y-76251617D01*
X155659520Y-76268008D01*
X155700710Y-76304961D01*
X155723657Y-76369386D01*
X155732702Y-76468198D01*
X155732187Y-76608308D01*
X155726456Y-76796628D01*
X155726368Y-76799378D01*
X155718494Y-76994580D01*
X155708171Y-77145975D01*
X155694114Y-77264962D01*
X155675034Y-77362936D01*
X155654435Y-77436552D01*
X155575889Y-77613037D01*
X155466912Y-77748453D01*
X155331148Y-77838351D01*
X155322438Y-77842112D01*
X155225295Y-77868586D01*
X155092550Y-77886192D01*
X154943217Y-77894218D01*
X154796306Y-77891952D01*
X154670828Y-77878682D01*
X154624090Y-77868278D01*
X154452569Y-77797985D01*
X154314448Y-77691508D01*
X154205339Y-77544029D01*
X154120850Y-77350734D01*
X154103934Y-77297609D01*
X154052353Y-77073570D01*
X154017448Y-76810108D01*
X153999097Y-76520402D01*
X153997179Y-76217631D01*
X154011574Y-75914972D01*
X154042159Y-75625604D01*
X154088815Y-75362706D01*
X154122954Y-75228360D01*
X154206092Y-74988473D01*
X154303211Y-74798750D01*
X154417371Y-74655229D01*
X154551633Y-74553948D01*
X154687931Y-74496884D01*
X154782099Y-74470062D01*
X154848883Y-74457761D01*
X154911661Y-74459196D01*
G36*
X154911661Y-74459196D02*
G01*
X154993812Y-74473581D01*
X155046827Y-74484819D01*
X155209886Y-74547096D01*
X155348873Y-74657728D01*
X155462596Y-74814816D01*
X155549863Y-75016462D01*
X155609480Y-75260766D01*
X155630176Y-75413842D01*
X155641075Y-75532673D01*
X155647704Y-75629445D01*
X155649371Y-75692082D01*
X155647123Y-75709253D01*
X155615678Y-75717812D01*
X155544473Y-75728935D01*
X155448744Y-75740254D01*
X155446038Y-75740532D01*
X155256848Y-75759915D01*
X155271660Y-75679795D01*
X155284924Y-75608216D01*
X155303491Y-75508235D01*
X155317290Y-75434022D01*
X155333948Y-75241358D01*
X155310887Y-75073813D01*
X155252228Y-74936023D01*
X155162095Y-74832627D01*
X155044610Y-74768263D01*
X154903897Y-74747569D01*
X154744077Y-74775183D01*
X154734425Y-74778326D01*
X154617646Y-74834834D01*
X154518840Y-74922949D01*
X154435579Y-75047300D01*
X154365431Y-75212511D01*
X154305968Y-75423210D01*
X154254758Y-75684024D01*
X154252915Y-75695150D01*
X154231186Y-75889670D01*
X154221904Y-76119895D01*
X154224623Y-76367836D01*
X154238900Y-76615507D01*
X154264291Y-76844921D01*
X154284265Y-76964225D01*
X154346317Y-77200883D01*
X154430724Y-77387362D01*
X154538051Y-77524219D01*
X154668863Y-77612011D01*
X154823726Y-77651295D01*
X154976639Y-77646699D01*
X155152405Y-77602624D01*
X155291552Y-77522285D01*
X155395560Y-77403505D01*
X155465904Y-77244110D01*
X155504064Y-77041924D01*
X155512449Y-76857761D01*
X155508946Y-76694025D01*
X155497225Y-76581838D01*
X155474559Y-76517806D01*
X155438219Y-76498533D01*
X155385478Y-76520625D01*
X155313607Y-76580687D01*
X155300157Y-76593587D01*
X155211945Y-76664809D01*
X155145571Y-76685441D01*
X155100531Y-76655244D01*
X155076324Y-76573979D01*
X155071509Y-76484533D01*
X155074668Y-76389023D01*
X155089780Y-76325503D01*
X155126338Y-76286915D01*
X155193834Y-76266202D01*
X155301759Y-76256305D01*
X155383067Y-76252868D01*
X155505041Y-76248875D01*
X155595744Y-76251617D01*
X155659520Y-76268008D01*
X155700710Y-76304961D01*
X155723657Y-76369386D01*
X155732702Y-76468198D01*
X155732187Y-76608308D01*
X155726456Y-76796628D01*
X155726368Y-76799378D01*
X155718494Y-76994580D01*
X155708171Y-77145975D01*
X155694114Y-77264962D01*
X155675034Y-77362936D01*
X155654435Y-77436552D01*
X155575889Y-77613037D01*
X155466912Y-77748453D01*
X155331148Y-77838351D01*
X155322438Y-77842112D01*
X155225295Y-77868586D01*
X155092550Y-77886192D01*
X154943217Y-77894218D01*
X154796306Y-77891952D01*
X154670828Y-77878682D01*
X154624090Y-77868278D01*
X154452569Y-77797985D01*
X154314448Y-77691508D01*
X154205339Y-77544029D01*
X154120850Y-77350734D01*
X154103934Y-77297609D01*
X154052353Y-77073570D01*
X154017448Y-76810108D01*
X153999097Y-76520402D01*
X153997179Y-76217631D01*
X154011574Y-75914972D01*
X154042159Y-75625604D01*
X154088815Y-75362706D01*
X154122954Y-75228360D01*
X154206092Y-74988473D01*
X154303211Y-74798750D01*
X154417371Y-74655229D01*
X154551633Y-74553948D01*
X154687931Y-74496884D01*
X154782099Y-74470062D01*
X154848883Y-74457761D01*
X154911661Y-74459196D01*
G37*
X145838086Y-74556128D02*
X145797649Y-74761856D01*
X145764412Y-74967336D01*
X145739158Y-75163824D01*
X145722669Y-75342573D01*
X145715730Y-75494839D01*
X145719123Y-75611876D01*
X145733632Y-75684938D01*
X145736475Y-75690938D01*
X145769197Y-75733551D01*
X145812601Y-75751661D01*
X145871396Y-75742947D01*
X145950290Y-75705090D01*
X146053990Y-75635772D01*
X146187204Y-75532672D01*
X146354641Y-75393473D01*
X146374347Y-75376711D01*
X146495197Y-75270732D01*
X146623698Y-75153153D01*
X146739772Y-75042530D01*
X146787680Y-74994803D01*
X146868280Y-74915091D01*
X146935394Y-74853123D01*
X146979199Y-74817761D01*
X146989363Y-74812826D01*
X147011659Y-74836075D01*
X147046769Y-74896629D01*
X147081877Y-74969958D01*
X147151368Y-75127089D01*
X147087260Y-75176436D01*
X147043413Y-75206482D01*
X146961271Y-75259427D01*
X146849802Y-75329619D01*
X146717974Y-75411405D01*
X146593379Y-75487785D01*
X146452071Y-75575282D01*
X146324503Y-75656803D01*
X146219355Y-75726602D01*
X146145307Y-75778931D01*
X146112748Y-75805984D01*
X146086973Y-75842675D01*
X146080385Y-75882604D01*
X146096592Y-75933813D01*
X146139202Y-76004345D01*
X146211824Y-76102241D01*
X146289670Y-76200341D01*
X146554159Y-76489357D01*
X146846852Y-76732264D01*
X147173067Y-76933202D01*
X147328340Y-77009272D01*
X147441437Y-77064936D01*
X147513201Y-77116639D01*
X147548313Y-77176449D01*
X147551451Y-77256432D01*
X147527294Y-77368657D01*
X147501683Y-77456359D01*
X147475202Y-77518274D01*
X147433182Y-77542591D01*
X147379532Y-77546087D01*
X147326420Y-77540306D01*
X147276752Y-77517441D01*
X147218379Y-77469210D01*
X147139155Y-77387331D01*
X147126462Y-77373533D01*
X147046313Y-77287069D01*
X146940800Y-77174606D01*
X146822882Y-77049893D01*
X146705521Y-76926682D01*
X146690593Y-76911087D01*
X146567671Y-76781099D01*
X146436506Y-76639639D01*
X146312545Y-76503521D01*
X146211238Y-76389559D01*
X146208592Y-76386522D01*
X146096828Y-76259728D01*
X146013151Y-76169627D01*
X145950647Y-76110205D01*
X145902403Y-76075447D01*
X145861504Y-76059341D01*
X145828392Y-76055831D01*
X145787608Y-76062867D01*
X145757021Y-76088915D01*
X145735635Y-76140035D01*
X145722452Y-76222287D01*
X145716476Y-76341731D01*
X145716710Y-76504424D01*
X145721760Y-76704022D01*
X145736125Y-76999265D01*
X145758930Y-77257562D01*
X145789407Y-77470455D01*
X145793220Y-77490870D01*
X145816190Y-77613388D01*
X145834639Y-77717250D01*
X145846333Y-77789539D01*
X145849328Y-77815272D01*
X145825402Y-77837717D01*
X145751147Y-77848542D01*
X145697068Y-77849783D01*
X145595611Y-77843479D01*
X145541103Y-77825307D01*
X145533714Y-77815272D01*
X145530741Y-77780240D01*
X145527124Y-77696238D01*
X145522988Y-77569506D01*
X145518455Y-77406286D01*
X145513648Y-77212819D01*
X145508692Y-76995346D01*
X145503708Y-76760108D01*
X145498821Y-76513347D01*
X145494154Y-76261304D01*
X145489830Y-76010219D01*
X145485973Y-75766336D01*
X145482705Y-75535893D01*
X145480151Y-75325134D01*
X145478433Y-75140299D01*
X145477674Y-74987629D01*
X145477661Y-74978478D01*
X145477065Y-74495326D01*
X145665907Y-74487106D01*
X145854748Y-74478886D01*
X145838086Y-74556128D01*
G36*
X145838086Y-74556128D02*
G01*
X145797649Y-74761856D01*
X145764412Y-74967336D01*
X145739158Y-75163824D01*
X145722669Y-75342573D01*
X145715730Y-75494839D01*
X145719123Y-75611876D01*
X145733632Y-75684938D01*
X145736475Y-75690938D01*
X145769197Y-75733551D01*
X145812601Y-75751661D01*
X145871396Y-75742947D01*
X145950290Y-75705090D01*
X146053990Y-75635772D01*
X146187204Y-75532672D01*
X146354641Y-75393473D01*
X146374347Y-75376711D01*
X146495197Y-75270732D01*
X146623698Y-75153153D01*
X146739772Y-75042530D01*
X146787680Y-74994803D01*
X146868280Y-74915091D01*
X146935394Y-74853123D01*
X146979199Y-74817761D01*
X146989363Y-74812826D01*
X147011659Y-74836075D01*
X147046769Y-74896629D01*
X147081877Y-74969958D01*
X147151368Y-75127089D01*
X147087260Y-75176436D01*
X147043413Y-75206482D01*
X146961271Y-75259427D01*
X146849802Y-75329619D01*
X146717974Y-75411405D01*
X146593379Y-75487785D01*
X146452071Y-75575282D01*
X146324503Y-75656803D01*
X146219355Y-75726602D01*
X146145307Y-75778931D01*
X146112748Y-75805984D01*
X146086973Y-75842675D01*
X146080385Y-75882604D01*
X146096592Y-75933813D01*
X146139202Y-76004345D01*
X146211824Y-76102241D01*
X146289670Y-76200341D01*
X146554159Y-76489357D01*
X146846852Y-76732264D01*
X147173067Y-76933202D01*
X147328340Y-77009272D01*
X147441437Y-77064936D01*
X147513201Y-77116639D01*
X147548313Y-77176449D01*
X147551451Y-77256432D01*
X147527294Y-77368657D01*
X147501683Y-77456359D01*
X147475202Y-77518274D01*
X147433182Y-77542591D01*
X147379532Y-77546087D01*
X147326420Y-77540306D01*
X147276752Y-77517441D01*
X147218379Y-77469210D01*
X147139155Y-77387331D01*
X147126462Y-77373533D01*
X147046313Y-77287069D01*
X146940800Y-77174606D01*
X146822882Y-77049893D01*
X146705521Y-76926682D01*
X146690593Y-76911087D01*
X146567671Y-76781099D01*
X146436506Y-76639639D01*
X146312545Y-76503521D01*
X146211238Y-76389559D01*
X146208592Y-76386522D01*
X146096828Y-76259728D01*
X146013151Y-76169627D01*
X145950647Y-76110205D01*
X145902403Y-76075447D01*
X145861504Y-76059341D01*
X145828392Y-76055831D01*
X145787608Y-76062867D01*
X145757021Y-76088915D01*
X145735635Y-76140035D01*
X145722452Y-76222287D01*
X145716476Y-76341731D01*
X145716710Y-76504424D01*
X145721760Y-76704022D01*
X145736125Y-76999265D01*
X145758930Y-77257562D01*
X145789407Y-77470455D01*
X145793220Y-77490870D01*
X145816190Y-77613388D01*
X145834639Y-77717250D01*
X145846333Y-77789539D01*
X145849328Y-77815272D01*
X145825402Y-77837717D01*
X145751147Y-77848542D01*
X145697068Y-77849783D01*
X145595611Y-77843479D01*
X145541103Y-77825307D01*
X145533714Y-77815272D01*
X145530741Y-77780240D01*
X145527124Y-77696238D01*
X145522988Y-77569506D01*
X145518455Y-77406286D01*
X145513648Y-77212819D01*
X145508692Y-76995346D01*
X145503708Y-76760108D01*
X145498821Y-76513347D01*
X145494154Y-76261304D01*
X145489830Y-76010219D01*
X145485973Y-75766336D01*
X145482705Y-75535893D01*
X145480151Y-75325134D01*
X145478433Y-75140299D01*
X145477674Y-74987629D01*
X145477661Y-74978478D01*
X145477065Y-74495326D01*
X145665907Y-74487106D01*
X145854748Y-74478886D01*
X145838086Y-74556128D01*
G37*
D10*
X121070000Y-86230000D02*
X124970000Y-86230000D01*
X121070000Y-90530000D02*
X121070000Y-86230000D01*
X121070000Y-115730000D02*
X121070000Y-111230000D01*
X124670000Y-115730000D02*
X121070000Y-115730000D01*
X124970000Y-86230000D02*
X124970000Y-88530000D01*
X134570000Y-86230000D02*
X134570000Y-88530000D01*
X138370000Y-86230000D02*
X134570000Y-86230000D01*
X138370000Y-90530000D02*
X138370000Y-86230000D01*
X138370000Y-115730000D02*
X134870000Y-115730000D01*
X138370000Y-115730000D02*
X138370000Y-111230000D01*
D11*
X177192164Y-84640000D02*
X177407836Y-84640000D01*
X177192164Y-85360000D02*
X177407836Y-85360000D01*
X177440000Y-83392164D02*
X177440000Y-83607836D01*
X178160000Y-83392164D02*
X178160000Y-83607836D01*
X176837221Y-85790000D02*
X177162779Y-85790000D01*
X176837221Y-86810000D02*
X177162779Y-86810000D01*
X174837221Y-72790000D02*
X175162779Y-72790000D01*
X174837221Y-73810000D02*
X175162779Y-73810000D01*
X175000000Y-89000000D02*
X175800000Y-89000000D01*
X175000000Y-89200000D02*
X175000000Y-89000000D01*
X175000000Y-92000000D02*
X175000000Y-91800000D01*
X175800000Y-89000000D02*
X175800000Y-88500000D01*
X175800000Y-92000000D02*
X175000000Y-92000000D01*
X177200000Y-89000000D02*
X177200000Y-88500000D01*
X177200000Y-89000000D02*
X177800000Y-89000000D01*
X177800000Y-89000000D02*
X178000000Y-89200000D01*
X178000000Y-91800000D02*
X178000000Y-92000000D01*
X178000000Y-92000000D02*
X177200000Y-92000000D01*
X177192164Y-87140000D02*
X177407836Y-87140000D01*
X177192164Y-87860000D02*
X177407836Y-87860000D01*
X174892164Y-74240000D02*
X175107836Y-74240000D01*
X174892164Y-74960000D02*
X175107836Y-74960000D01*
X177290000Y-80737221D02*
X177290000Y-81062779D01*
X178310000Y-80737221D02*
X178310000Y-81062779D01*
M02*
