G04 #@! TF.GenerationSoftware,KiCad,Pcbnew,8.0.8+dfsg-1*
G04 #@! TF.CreationDate,2025-03-16T16:51:27-04:00*
G04 #@! TF.ProjectId,RUST_Daughterboard,52555354-5f44-4617-9567-68746572626f,rev?*
G04 #@! TF.SameCoordinates,Original*
G04 #@! TF.FileFunction,Profile,NP*
%FSLAX46Y46*%
G04 Gerber Fmt 4.6, Leading zero omitted, Abs format (unit mm)*
G04 Created by KiCad (PCBNEW 8.0.8+dfsg-1) date 2025-03-16 16:51:27*
%MOMM*%
%LPD*%
G01*
G04 APERTURE LIST*
G04 #@! TA.AperFunction,Profile*
%ADD10C,0.150000*%
G04 #@! TD*
G04 APERTURE END LIST*
D10*
X159775000Y-94100000D02*
G75*
G02*
X156745900Y-93948530I-1449400J1378600D01*
G01*
X121500000Y-116000000D02*
X121500000Y-86250000D01*
X126000000Y-84000000D02*
X117700000Y-84000000D01*
X117700000Y-84000000D02*
X117700000Y-69000000D01*
X117700000Y-69000000D02*
X178400000Y-69000000D01*
X121500000Y-116000000D02*
X131000000Y-116000000D01*
X150000000Y-139000000D02*
X150000000Y-135000000D01*
X131000000Y-116000000D02*
G75*
G02*
X150000000Y-135000000I0J-19000000D01*
G01*
X157028000Y-115301000D02*
G75*
G02*
X152328000Y-115301000I-2350000J0D01*
G01*
X152328000Y-115301000D02*
G75*
G02*
X157028000Y-115301000I2350000J0D01*
G01*
X168374000Y-111394000D02*
G75*
G02*
X163674000Y-111394000I-2350000J0D01*
G01*
X163674000Y-111394000D02*
G75*
G02*
X168374000Y-111394000I2350000J0D01*
G01*
X156999999Y-105755654D02*
G75*
G02*
X160091527Y-105758227I1544701J-1278546D01*
G01*
X179000000Y-76000000D02*
X179000000Y-139000000D01*
X179000000Y-139000000D02*
X150000000Y-139000000D01*
X178400000Y-76000000D02*
X178400000Y-69000000D01*
X166000000Y-85750000D02*
G75*
G02*
X162000000Y-85750000I-2000000J0D01*
G01*
X162000000Y-85750000D02*
G75*
G02*
X166000000Y-85750000I2000000J0D01*
G01*
X138125000Y-91300000D02*
X136100000Y-85125000D01*
X159775000Y-94100000D02*
X160250001Y-93675001D01*
X156999999Y-105755654D02*
G75*
G02*
X156745904Y-93948527I-6999999J5755654D01*
G01*
X141900000Y-89975000D02*
G75*
G02*
X138124986Y-91300005I-1900600J-625200D01*
G01*
X136100000Y-85125000D02*
G75*
G02*
X139873829Y-83800437I1900000J625000D01*
G01*
X179000000Y-76000000D02*
X178400000Y-76000000D01*
X160250001Y-93675001D02*
G75*
G02*
X160091574Y-105758188I5976999J-6120999D01*
G01*
X126000000Y-84000001D02*
G75*
G02*
X126000000Y-86249999I-25000J-1124999D01*
G01*
X139875000Y-83800000D02*
X141900000Y-89975000D01*
X121500000Y-86250000D02*
X126000000Y-86250000D01*
M02*
