G04 #@! TF.GenerationSoftware,KiCad,Pcbnew,8.0.8+dfsg-1*
G04 #@! TF.CreationDate,2025-03-16T16:51:26-04:00*
G04 #@! TF.ProjectId,RUST_Daughterboard,52555354-5f44-4617-9567-68746572626f,rev?*
G04 #@! TF.SameCoordinates,Original*
G04 #@! TF.FileFunction,Copper,L3,Inr*
G04 #@! TF.FilePolarity,Positive*
%FSLAX46Y46*%
G04 Gerber Fmt 4.6, Leading zero omitted, Abs format (unit mm)*
G04 Created by KiCad (PCBNEW 8.0.8+dfsg-1) date 2025-03-16 16:51:26*
%MOMM*%
%LPD*%
G01*
G04 APERTURE LIST*
G04 #@! TA.AperFunction,ViaPad*
%ADD10C,0.800000*%
G04 #@! TD*
G04 #@! TA.AperFunction,Conductor*
%ADD11C,0.750000*%
G04 #@! TD*
G04 #@! TA.AperFunction,Conductor*
%ADD12C,0.500000*%
G04 #@! TD*
G04 #@! TA.AperFunction,Conductor*
%ADD13C,0.250000*%
G04 #@! TD*
G04 APERTURE END LIST*
D10*
X159132660Y-135507340D03*
X124723699Y-73134294D03*
X133200000Y-111400000D03*
X120300000Y-71300000D03*
X134512299Y-87737701D03*
X176100000Y-126800000D03*
X132500000Y-103900000D03*
X165600000Y-123300000D03*
X148800000Y-123800000D03*
X160600000Y-130800000D03*
X172700000Y-126800000D03*
X130900000Y-110600000D03*
X127400000Y-112800000D03*
X123600000Y-112600000D03*
X150500000Y-110500000D03*
X151500000Y-110500000D03*
X120396006Y-82200000D03*
X174149991Y-127749991D03*
X162924500Y-130769253D03*
X161400000Y-123800000D03*
X175200000Y-124900000D03*
X163100633Y-127097547D03*
X160200000Y-123600000D03*
X177300000Y-125800000D03*
X136400000Y-92900000D03*
X138000000Y-79700000D03*
X121300000Y-75400000D03*
X169300000Y-132100000D03*
X159200000Y-133800000D03*
X137900000Y-71000000D03*
X170650000Y-118550000D03*
X124800000Y-74400000D03*
X124909034Y-72152125D03*
X170600000Y-117250000D03*
X133000000Y-78750000D03*
X164083366Y-127279866D03*
X124900000Y-76600000D03*
X170800000Y-119750000D03*
X126000000Y-77750000D03*
X168000000Y-119800000D03*
X163500000Y-123100000D03*
X176100000Y-121200000D03*
X164400000Y-134974990D03*
X127275000Y-115050000D03*
X163200000Y-131900000D03*
X163900000Y-137025010D03*
X131200000Y-113200000D03*
X150000000Y-122400000D03*
X162200000Y-134800000D03*
X165201292Y-131775010D03*
X131400000Y-94800000D03*
X131826000Y-95600000D03*
X165201292Y-131001292D03*
X173850000Y-91850000D03*
X162775000Y-123900000D03*
X175124500Y-122600000D03*
X135400000Y-71000000D03*
X124900000Y-71000000D03*
X124500000Y-80250000D03*
X135000000Y-81000000D03*
D11*
X134512299Y-87737701D02*
X134512299Y-87268299D01*
X129444000Y-82200000D02*
X120396006Y-82200000D01*
X134512299Y-87268299D02*
X129444000Y-82200000D01*
D12*
X162911547Y-127097547D02*
X163100633Y-127097547D01*
X138000000Y-94500000D02*
X138000000Y-103610756D01*
X157989244Y-123600000D02*
X160200000Y-123600000D01*
X160200000Y-123600000D02*
X160200000Y-124386000D01*
X136400000Y-92900000D02*
X138000000Y-94500000D01*
X160200000Y-124386000D02*
X162911547Y-127097547D01*
X138000000Y-103610756D02*
X157989244Y-123600000D01*
X135361810Y-98461810D02*
X135361810Y-101961810D01*
X138000000Y-79700000D02*
X138000000Y-71100000D01*
X135050000Y-86639952D02*
X135361810Y-86951762D01*
X167600000Y-133800000D02*
X169300000Y-132100000D01*
X135361810Y-86951762D02*
X135361810Y-90561810D01*
X133700000Y-92700000D02*
X133700000Y-96800000D01*
X135361810Y-90561810D02*
X135600000Y-90800000D01*
X159200000Y-125800000D02*
X159200000Y-133800000D01*
X133700000Y-96800000D02*
X135361810Y-98461810D01*
X135600000Y-90800000D02*
X133700000Y-92700000D01*
X125600000Y-79700000D02*
X138000000Y-79700000D01*
X135050000Y-82650000D02*
X135050000Y-86639952D01*
X121300000Y-75400000D02*
X125600000Y-79700000D01*
X159200000Y-133800000D02*
X167600000Y-133800000D01*
X138000000Y-71100000D02*
X137900000Y-71000000D01*
X138000000Y-79700000D02*
X135050000Y-82650000D01*
X135361810Y-101961810D02*
X159200000Y-125800000D01*
D13*
X158400000Y-126000000D02*
X158400000Y-135800000D01*
X137350000Y-113200000D02*
X139950000Y-115800000D01*
X159625010Y-137025010D02*
X163900000Y-137025010D01*
X148200000Y-115800000D02*
X158400000Y-126000000D01*
X131200000Y-113200000D02*
X137350000Y-113200000D01*
X139950000Y-115800000D02*
X148200000Y-115800000D01*
X158400000Y-135800000D02*
X159625010Y-137025010D01*
X135000000Y-81000000D02*
X134500000Y-80500000D01*
X134500000Y-80500000D02*
X124750000Y-80500000D01*
X124750000Y-80500000D02*
X124500000Y-80250000D01*
G04 #@! TA.AperFunction,Conductor*
G36*
X135125985Y-102650002D02*
G01*
X135146959Y-102666905D01*
X147539459Y-115059405D01*
X147573485Y-115121717D01*
X147568420Y-115192532D01*
X147525873Y-115249368D01*
X147459353Y-115274179D01*
X147450364Y-115274500D01*
X140219859Y-115274500D01*
X140151738Y-115254498D01*
X140130764Y-115237595D01*
X138286882Y-113393713D01*
X139649500Y-113393713D01*
X139649500Y-113606287D01*
X139682754Y-113816243D01*
X139748443Y-114018412D01*
X139844949Y-114207816D01*
X139969896Y-114379792D01*
X139969898Y-114379794D01*
X139969900Y-114379797D01*
X140120202Y-114530099D01*
X140120205Y-114530101D01*
X140120208Y-114530104D01*
X140292184Y-114655051D01*
X140481588Y-114751557D01*
X140683757Y-114817246D01*
X140893713Y-114850500D01*
X140893716Y-114850500D01*
X141106284Y-114850500D01*
X141106287Y-114850500D01*
X141316243Y-114817246D01*
X141518412Y-114751557D01*
X141707816Y-114655051D01*
X141879792Y-114530104D01*
X142030104Y-114379792D01*
X142155051Y-114207816D01*
X142251557Y-114018412D01*
X142317246Y-113816243D01*
X142350500Y-113606287D01*
X142350500Y-113393713D01*
X142317246Y-113183757D01*
X142251557Y-112981588D01*
X142155051Y-112792184D01*
X142030104Y-112620208D01*
X142030101Y-112620205D01*
X142030099Y-112620202D01*
X141879797Y-112469900D01*
X141879794Y-112469898D01*
X141879792Y-112469896D01*
X141707816Y-112344949D01*
X141518412Y-112248443D01*
X141316243Y-112182754D01*
X141106287Y-112149500D01*
X140893713Y-112149500D01*
X140683757Y-112182754D01*
X140683754Y-112182754D01*
X140683753Y-112182755D01*
X140481588Y-112248443D01*
X140481586Y-112248444D01*
X140292180Y-112344951D01*
X140120205Y-112469898D01*
X140120202Y-112469900D01*
X139969900Y-112620202D01*
X139969898Y-112620205D01*
X139844951Y-112792180D01*
X139748444Y-112981586D01*
X139748443Y-112981588D01*
X139723729Y-113057651D01*
X139682754Y-113183757D01*
X139649500Y-113393713D01*
X138286882Y-113393713D01*
X137777693Y-112884524D01*
X137777681Y-112884510D01*
X137672671Y-112779500D01*
X137672661Y-112779492D01*
X137552838Y-112710313D01*
X137552837Y-112710312D01*
X137552836Y-112710312D01*
X137524591Y-112702743D01*
X137524589Y-112702742D01*
X137475669Y-112689634D01*
X137419183Y-112674499D01*
X137280817Y-112674499D01*
X137273099Y-112674499D01*
X137273083Y-112674500D01*
X131858768Y-112674500D01*
X131790647Y-112654498D01*
X131769677Y-112637599D01*
X131702262Y-112570184D01*
X131702261Y-112570183D01*
X131702259Y-112570181D01*
X131549525Y-112474212D01*
X131549522Y-112474211D01*
X131537190Y-112469896D01*
X131379255Y-112414632D01*
X131200000Y-112394435D01*
X131020745Y-112414632D01*
X131020742Y-112414632D01*
X131020742Y-112414633D01*
X130850477Y-112474211D01*
X130850474Y-112474212D01*
X130697739Y-112570182D01*
X130697737Y-112570183D01*
X130570183Y-112697737D01*
X130570182Y-112697739D01*
X130474212Y-112850474D01*
X130474211Y-112850477D01*
X130452071Y-112913751D01*
X130414632Y-113020745D01*
X130394435Y-113200000D01*
X130414632Y-113379255D01*
X130437975Y-113445965D01*
X130474211Y-113549522D01*
X130474212Y-113549525D01*
X130570182Y-113702260D01*
X130570183Y-113702262D01*
X130697737Y-113829816D01*
X130697739Y-113829817D01*
X130850474Y-113925787D01*
X130850475Y-113925787D01*
X130850478Y-113925789D01*
X131020745Y-113985368D01*
X131200000Y-114005565D01*
X131379255Y-113985368D01*
X131549522Y-113925789D01*
X131702262Y-113829816D01*
X131769674Y-113762403D01*
X131831984Y-113728380D01*
X131858768Y-113725500D01*
X137080141Y-113725500D01*
X137148262Y-113745502D01*
X137169236Y-113762405D01*
X139525084Y-116118253D01*
X139525105Y-116118276D01*
X139627328Y-116220499D01*
X139627333Y-116220503D01*
X139627335Y-116220505D01*
X139627336Y-116220506D01*
X139627338Y-116220507D01*
X139747159Y-116289686D01*
X139747161Y-116289686D01*
X139747164Y-116289688D01*
X139813625Y-116307496D01*
X139813627Y-116307497D01*
X139839695Y-116314481D01*
X139880816Y-116325500D01*
X139880817Y-116325500D01*
X147930141Y-116325500D01*
X147998262Y-116345502D01*
X148019236Y-116362405D01*
X157837595Y-126180764D01*
X157871621Y-126243076D01*
X157874500Y-126269859D01*
X157874500Y-135723082D01*
X157874499Y-135723100D01*
X157874499Y-135730817D01*
X157874499Y-135869183D01*
X157902743Y-135974591D01*
X157910312Y-136002836D01*
X157910313Y-136002837D01*
X157910313Y-136002838D01*
X157979492Y-136122661D01*
X157979500Y-136122671D01*
X158084505Y-136227676D01*
X158084518Y-136227687D01*
X159302345Y-137445515D01*
X159422175Y-137514699D01*
X159555827Y-137550511D01*
X159555829Y-137550511D01*
X159701911Y-137550511D01*
X159701927Y-137550510D01*
X163241232Y-137550510D01*
X163309353Y-137570512D01*
X163330322Y-137587410D01*
X163397738Y-137654826D01*
X163397740Y-137654828D01*
X163550474Y-137750797D01*
X163550475Y-137750797D01*
X163550478Y-137750799D01*
X163720745Y-137810378D01*
X163900000Y-137830575D01*
X164079255Y-137810378D01*
X164249522Y-137750799D01*
X164402262Y-137654826D01*
X164529816Y-137527272D01*
X164625789Y-137374532D01*
X164685368Y-137204265D01*
X164705565Y-137025010D01*
X164685368Y-136845755D01*
X164625789Y-136675488D01*
X164625787Y-136675485D01*
X164625787Y-136675484D01*
X164529817Y-136522749D01*
X164529816Y-136522747D01*
X164402262Y-136395193D01*
X164402260Y-136395192D01*
X164249525Y-136299222D01*
X164249522Y-136299221D01*
X164079255Y-136239642D01*
X163900000Y-136219445D01*
X163720745Y-136239642D01*
X163720742Y-136239642D01*
X163720742Y-136239643D01*
X163550477Y-136299221D01*
X163550474Y-136299222D01*
X163397740Y-136395191D01*
X163364034Y-136428898D01*
X163330325Y-136462606D01*
X163268016Y-136496630D01*
X163241232Y-136499510D01*
X159894870Y-136499510D01*
X159826749Y-136479508D01*
X159805775Y-136462605D01*
X158962405Y-135619235D01*
X158928379Y-135556923D01*
X158925500Y-135530140D01*
X158925500Y-134715630D01*
X158945502Y-134647509D01*
X158999158Y-134601016D01*
X159065605Y-134590422D01*
X159200000Y-134605565D01*
X159379255Y-134585368D01*
X159549522Y-134525789D01*
X159613478Y-134485603D01*
X159638608Y-134469813D01*
X159705644Y-134450500D01*
X160231469Y-134450500D01*
X160299590Y-134470502D01*
X160346083Y-134524158D01*
X160356187Y-134594432D01*
X160326693Y-134659012D01*
X160301471Y-134681265D01*
X160258084Y-134710255D01*
X160258077Y-134710260D01*
X160170260Y-134798077D01*
X160170255Y-134798084D01*
X160114958Y-134880843D01*
X160101258Y-134901346D01*
X160066615Y-134984982D01*
X160053730Y-135016088D01*
X160053729Y-135016091D01*
X160029500Y-135137895D01*
X160029500Y-135262104D01*
X160040469Y-135317246D01*
X160053729Y-135383910D01*
X160101258Y-135498654D01*
X160170258Y-135601920D01*
X160258080Y-135689742D01*
X160361346Y-135758742D01*
X160476090Y-135806271D01*
X160580972Y-135827132D01*
X160597895Y-135830499D01*
X160597898Y-135830499D01*
X160597901Y-135830500D01*
X160597902Y-135830500D01*
X160722098Y-135830500D01*
X160722099Y-135830500D01*
X160843910Y-135806271D01*
X160958654Y-135758742D01*
X161061920Y-135689742D01*
X161149742Y-135601920D01*
X161218742Y-135498654D01*
X161266271Y-135383910D01*
X161289900Y-135265114D01*
X161322807Y-135202205D01*
X161384502Y-135167073D01*
X161455397Y-135170873D01*
X161512983Y-135212398D01*
X161520166Y-135222660D01*
X161570182Y-135302260D01*
X161570183Y-135302262D01*
X161697737Y-135429816D01*
X161697739Y-135429817D01*
X161850474Y-135525787D01*
X161850475Y-135525787D01*
X161850478Y-135525789D01*
X162020745Y-135585368D01*
X162200000Y-135605565D01*
X162379255Y-135585368D01*
X162549522Y-135525789D01*
X162702262Y-135429816D01*
X162829816Y-135302262D01*
X162925789Y-135149522D01*
X162985368Y-134979255D01*
X163005565Y-134800000D01*
X162985368Y-134620745D01*
X162984445Y-134618109D01*
X162984353Y-134616300D01*
X162983795Y-134613854D01*
X162984223Y-134613756D01*
X162980829Y-134547207D01*
X163016121Y-134485603D01*
X163079115Y-134452858D01*
X163103377Y-134450500D01*
X163557944Y-134450500D01*
X163626065Y-134470502D01*
X163672558Y-134524158D01*
X163682662Y-134594432D01*
X163675359Y-134618373D01*
X163676548Y-134618789D01*
X163662473Y-134659012D01*
X163614632Y-134795735D01*
X163594435Y-134974990D01*
X163614632Y-135154245D01*
X163653427Y-135265115D01*
X163674211Y-135324512D01*
X163674212Y-135324515D01*
X163770182Y-135477250D01*
X163770183Y-135477252D01*
X163897737Y-135604806D01*
X163897739Y-135604807D01*
X164050474Y-135700777D01*
X164050475Y-135700777D01*
X164050478Y-135700779D01*
X164220745Y-135760358D01*
X164400000Y-135780555D01*
X164579255Y-135760358D01*
X164749522Y-135700779D01*
X164825892Y-135652792D01*
X164902259Y-135604808D01*
X164902259Y-135604807D01*
X164902262Y-135604806D01*
X165003464Y-135503603D01*
X165065774Y-135469580D01*
X165136590Y-135474644D01*
X165193426Y-135517191D01*
X165197323Y-135522698D01*
X165250254Y-135601915D01*
X165250256Y-135601918D01*
X165250258Y-135601920D01*
X165338080Y-135689742D01*
X165441346Y-135758742D01*
X165556090Y-135806271D01*
X165660972Y-135827132D01*
X165677895Y-135830499D01*
X165677898Y-135830499D01*
X165677901Y-135830500D01*
X165677902Y-135830500D01*
X165802098Y-135830500D01*
X165802099Y-135830500D01*
X165923910Y-135806271D01*
X166038654Y-135758742D01*
X166141920Y-135689742D01*
X166229742Y-135601920D01*
X166298742Y-135498654D01*
X166346271Y-135383910D01*
X166370500Y-135262099D01*
X166370500Y-135137901D01*
X166346271Y-135016090D01*
X166298742Y-134901346D01*
X166229742Y-134798080D01*
X166141920Y-134710258D01*
X166098529Y-134681265D01*
X166053001Y-134626788D01*
X166044153Y-134556345D01*
X166074794Y-134492301D01*
X166135196Y-134454990D01*
X166168531Y-134450500D01*
X167664064Y-134450500D01*
X167664069Y-134450500D01*
X167789744Y-134425501D01*
X167908127Y-134376465D01*
X167918838Y-134369308D01*
X168014669Y-134305277D01*
X169397729Y-132922215D01*
X169460038Y-132888193D01*
X169472716Y-132886105D01*
X169476199Y-132885712D01*
X169479255Y-132885368D01*
X169649522Y-132825789D01*
X169802262Y-132729816D01*
X169929816Y-132602262D01*
X170025789Y-132449522D01*
X170085368Y-132279255D01*
X170105565Y-132100000D01*
X170085368Y-131920745D01*
X170025789Y-131750478D01*
X170025787Y-131750475D01*
X170025787Y-131750474D01*
X169929817Y-131597739D01*
X169929816Y-131597737D01*
X169802262Y-131470183D01*
X169802260Y-131470182D01*
X169649525Y-131374212D01*
X169649522Y-131374211D01*
X169570431Y-131346536D01*
X169479255Y-131314632D01*
X169300000Y-131294435D01*
X169120745Y-131314632D01*
X169120742Y-131314632D01*
X169120742Y-131314633D01*
X168950477Y-131374211D01*
X168950474Y-131374212D01*
X168797739Y-131470182D01*
X168797737Y-131470183D01*
X168670183Y-131597737D01*
X168670182Y-131597739D01*
X168574212Y-131750474D01*
X168574211Y-131750477D01*
X168514633Y-131920738D01*
X168514631Y-131920749D01*
X168513894Y-131927291D01*
X168486386Y-131992742D01*
X168477782Y-132002270D01*
X167367457Y-133112596D01*
X167305147Y-133146620D01*
X167278364Y-133149500D01*
X159976500Y-133149500D01*
X159908379Y-133129498D01*
X159861886Y-133075842D01*
X159850500Y-133023500D01*
X159850500Y-130769253D01*
X162118935Y-130769253D01*
X162139132Y-130948508D01*
X162139133Y-130948510D01*
X162198711Y-131118775D01*
X162198712Y-131118778D01*
X162294682Y-131271513D01*
X162294683Y-131271515D01*
X162422235Y-131399067D01*
X162423193Y-131399669D01*
X162423679Y-131400218D01*
X162427770Y-131403481D01*
X162427198Y-131404197D01*
X162470231Y-131452847D01*
X162481052Y-131523014D01*
X162475088Y-131547972D01*
X162474211Y-131550477D01*
X162474211Y-131550478D01*
X162414632Y-131720745D01*
X162394435Y-131900000D01*
X162414632Y-132079255D01*
X162414633Y-132079257D01*
X162474211Y-132249522D01*
X162474212Y-132249525D01*
X162570182Y-132402260D01*
X162570183Y-132402262D01*
X162697737Y-132529816D01*
X162697739Y-132529817D01*
X162850474Y-132625787D01*
X162850475Y-132625787D01*
X162850478Y-132625789D01*
X163020745Y-132685368D01*
X163200000Y-132705565D01*
X163379255Y-132685368D01*
X163549522Y-132625789D01*
X163702262Y-132529816D01*
X163829816Y-132402262D01*
X163925789Y-132249522D01*
X163985368Y-132079255D01*
X164005565Y-131900000D01*
X163985368Y-131720745D01*
X163925789Y-131550478D01*
X163925787Y-131550475D01*
X163925787Y-131550474D01*
X163829817Y-131397739D01*
X163829816Y-131397737D01*
X163702264Y-131270185D01*
X163702259Y-131270181D01*
X163701302Y-131269580D01*
X163700815Y-131269030D01*
X163696730Y-131265772D01*
X163697300Y-131265056D01*
X163654266Y-131216400D01*
X163643448Y-131146233D01*
X163649412Y-131121280D01*
X163650289Y-131118775D01*
X163691398Y-131001292D01*
X164395727Y-131001292D01*
X164415924Y-131180547D01*
X164474006Y-131346537D01*
X164477624Y-131417441D01*
X164474006Y-131429765D01*
X164415924Y-131595754D01*
X164415700Y-131597739D01*
X164395727Y-131775010D01*
X164415924Y-131954265D01*
X164415925Y-131954267D01*
X164475503Y-132124532D01*
X164475504Y-132124535D01*
X164571474Y-132277270D01*
X164571475Y-132277272D01*
X164699029Y-132404826D01*
X164699031Y-132404827D01*
X164851766Y-132500797D01*
X164851767Y-132500797D01*
X164851770Y-132500799D01*
X165022037Y-132560378D01*
X165201292Y-132580575D01*
X165380547Y-132560378D01*
X165550814Y-132500799D01*
X165703554Y-132404826D01*
X165831108Y-132277272D01*
X165927081Y-132124532D01*
X165986660Y-131954265D01*
X166006857Y-131775010D01*
X165986660Y-131595755D01*
X165928578Y-131429765D01*
X165924958Y-131358862D01*
X165928578Y-131346536D01*
X165939741Y-131314633D01*
X165986660Y-131180547D01*
X166006857Y-131001292D01*
X165986660Y-130822037D01*
X165927081Y-130651770D01*
X165927079Y-130651767D01*
X165927079Y-130651766D01*
X165831109Y-130499031D01*
X165831108Y-130499029D01*
X165703554Y-130371475D01*
X165703552Y-130371474D01*
X165550817Y-130275504D01*
X165550814Y-130275503D01*
X165526485Y-130266990D01*
X165380547Y-130215924D01*
X165201292Y-130195727D01*
X165022037Y-130215924D01*
X165022034Y-130215924D01*
X165022034Y-130215925D01*
X164851769Y-130275503D01*
X164851766Y-130275504D01*
X164699031Y-130371474D01*
X164699029Y-130371475D01*
X164571475Y-130499029D01*
X164571474Y-130499031D01*
X164475504Y-130651766D01*
X164475503Y-130651769D01*
X164475503Y-130651770D01*
X164415924Y-130822037D01*
X164401674Y-130948508D01*
X164395727Y-131001292D01*
X163691398Y-131001292D01*
X163709868Y-130948508D01*
X163730065Y-130769253D01*
X163709868Y-130589998D01*
X163650289Y-130419731D01*
X163650287Y-130419728D01*
X163650287Y-130419727D01*
X163554317Y-130266992D01*
X163554316Y-130266990D01*
X163426762Y-130139436D01*
X163426760Y-130139435D01*
X163274025Y-130043465D01*
X163274022Y-130043464D01*
X163103755Y-129983885D01*
X162924500Y-129963688D01*
X162745245Y-129983885D01*
X162745242Y-129983885D01*
X162745242Y-129983886D01*
X162574977Y-130043464D01*
X162574974Y-130043465D01*
X162422239Y-130139435D01*
X162422237Y-130139436D01*
X162294683Y-130266990D01*
X162294682Y-130266992D01*
X162198712Y-130419727D01*
X162198711Y-130419730D01*
X162198711Y-130419731D01*
X162139132Y-130589998D01*
X162118935Y-130769253D01*
X159850500Y-130769253D01*
X159850500Y-127826715D01*
X159870502Y-127758594D01*
X159924158Y-127712101D01*
X159994432Y-127701997D01*
X160059012Y-127731491D01*
X160092909Y-127778498D01*
X160101256Y-127798651D01*
X160101257Y-127798653D01*
X160117749Y-127823335D01*
X160170258Y-127901920D01*
X160258080Y-127989742D01*
X160361346Y-128058742D01*
X160476090Y-128106271D01*
X160580972Y-128127132D01*
X160597895Y-128130499D01*
X160597898Y-128130499D01*
X160597901Y-128130500D01*
X160597902Y-128130500D01*
X160722098Y-128130500D01*
X160722099Y-128130500D01*
X160843910Y-128106271D01*
X160958654Y-128058742D01*
X161061920Y-127989742D01*
X161149742Y-127901920D01*
X161218742Y-127798654D01*
X161266271Y-127683910D01*
X161290500Y-127562099D01*
X161290500Y-127437901D01*
X161266271Y-127316090D01*
X161218742Y-127201346D01*
X161149742Y-127098080D01*
X161061920Y-127010258D01*
X160958654Y-126941258D01*
X160843910Y-126893729D01*
X160809106Y-126886806D01*
X160722104Y-126869500D01*
X160722099Y-126869500D01*
X160597901Y-126869500D01*
X160597895Y-126869500D01*
X160493491Y-126890267D01*
X160476090Y-126893729D01*
X160387695Y-126930344D01*
X160361344Y-126941259D01*
X160258084Y-127010255D01*
X160258077Y-127010260D01*
X160170260Y-127098077D01*
X160170255Y-127098084D01*
X160101257Y-127201346D01*
X160101255Y-127201350D01*
X160092908Y-127221503D01*
X160048360Y-127276784D01*
X159980996Y-127299204D01*
X159912205Y-127281645D01*
X159863827Y-127229683D01*
X159850500Y-127173284D01*
X159850500Y-125735935D01*
X159850500Y-125735931D01*
X159825501Y-125610256D01*
X159778655Y-125497159D01*
X159776466Y-125491874D01*
X159705277Y-125385331D01*
X158785539Y-124465593D01*
X158751516Y-124403283D01*
X158756580Y-124332468D01*
X158799127Y-124275632D01*
X158865647Y-124250821D01*
X158874636Y-124250500D01*
X159423500Y-124250500D01*
X159491621Y-124270502D01*
X159538114Y-124324158D01*
X159549500Y-124376500D01*
X159549500Y-124450069D01*
X159574499Y-124575744D01*
X159578962Y-124586518D01*
X159623535Y-124694127D01*
X159694723Y-124800669D01*
X159694726Y-124800673D01*
X162421814Y-127527760D01*
X162439406Y-127549819D01*
X162470817Y-127599809D01*
X162470820Y-127599813D01*
X162598370Y-127727363D01*
X162598372Y-127727364D01*
X162751107Y-127823334D01*
X162751108Y-127823334D01*
X162751111Y-127823336D01*
X162921378Y-127882915D01*
X163100633Y-127903112D01*
X163279888Y-127882915D01*
X163408468Y-127837923D01*
X163479372Y-127834303D01*
X163539178Y-127867757D01*
X163581103Y-127909682D01*
X163581105Y-127909683D01*
X163733840Y-128005653D01*
X163733841Y-128005653D01*
X163733844Y-128005655D01*
X163904111Y-128065234D01*
X164083366Y-128085431D01*
X164262621Y-128065234D01*
X164432888Y-128005655D01*
X164585628Y-127909682D01*
X164713182Y-127782128D01*
X164809155Y-127629388D01*
X164864571Y-127471015D01*
X164905949Y-127413325D01*
X164945204Y-127397764D01*
X165025964Y-127397764D01*
X165041617Y-127400836D01*
X165092833Y-127450003D01*
X165109500Y-127512632D01*
X165109500Y-127562104D01*
X165122884Y-127629388D01*
X165133729Y-127683910D01*
X165181258Y-127798654D01*
X165250258Y-127901920D01*
X165338080Y-127989742D01*
X165441346Y-128058742D01*
X165556090Y-128106271D01*
X165660972Y-128127132D01*
X165677895Y-128130499D01*
X165677898Y-128130499D01*
X165677901Y-128130500D01*
X165677902Y-128130500D01*
X165802098Y-128130500D01*
X165802099Y-128130500D01*
X165923910Y-128106271D01*
X166038654Y-128058742D01*
X166141920Y-127989742D01*
X166229742Y-127901920D01*
X166298742Y-127798654D01*
X166318899Y-127749991D01*
X173344426Y-127749991D01*
X173364623Y-127929246D01*
X173424202Y-128099513D01*
X173424203Y-128099516D01*
X173520173Y-128252251D01*
X173520174Y-128252253D01*
X173647728Y-128379807D01*
X173647730Y-128379808D01*
X173800465Y-128475778D01*
X173800466Y-128475778D01*
X173800469Y-128475780D01*
X173970736Y-128535359D01*
X174149991Y-128555556D01*
X174329246Y-128535359D01*
X174499513Y-128475780D01*
X174652253Y-128379807D01*
X174779807Y-128252253D01*
X174875780Y-128099513D01*
X174935359Y-127929246D01*
X174955556Y-127749991D01*
X174935359Y-127570736D01*
X174875780Y-127400469D01*
X174875778Y-127400466D01*
X174875778Y-127400465D01*
X174779808Y-127247730D01*
X174779807Y-127247728D01*
X174652253Y-127120174D01*
X174652251Y-127120173D01*
X174499516Y-127024203D01*
X174499513Y-127024202D01*
X174459655Y-127010255D01*
X174329246Y-126964623D01*
X174149991Y-126944426D01*
X173970736Y-126964623D01*
X173970733Y-126964623D01*
X173970733Y-126964624D01*
X173800468Y-127024202D01*
X173800465Y-127024203D01*
X173647730Y-127120173D01*
X173647728Y-127120174D01*
X173520174Y-127247728D01*
X173520173Y-127247730D01*
X173424203Y-127400465D01*
X173424202Y-127400468D01*
X173406869Y-127450003D01*
X173364623Y-127570736D01*
X173344426Y-127749991D01*
X166318899Y-127749991D01*
X166346271Y-127683910D01*
X166370500Y-127562099D01*
X166370500Y-127437901D01*
X166346271Y-127316090D01*
X166298742Y-127201346D01*
X166229742Y-127098080D01*
X166141920Y-127010258D01*
X166038654Y-126941258D01*
X165923910Y-126893729D01*
X165889106Y-126886806D01*
X165802104Y-126869500D01*
X165802099Y-126869500D01*
X165677901Y-126869500D01*
X165677895Y-126869500D01*
X165573491Y-126890267D01*
X165556090Y-126893729D01*
X165467695Y-126930344D01*
X165441344Y-126941259D01*
X165338084Y-127010255D01*
X165338077Y-127010260D01*
X165250260Y-127098077D01*
X165250255Y-127098084D01*
X165235473Y-127120208D01*
X165181258Y-127201346D01*
X165140724Y-127299204D01*
X165131360Y-127321810D01*
X165128739Y-127320724D01*
X165096208Y-127369937D01*
X165031252Y-127398594D01*
X165025964Y-127397764D01*
X164945204Y-127397764D01*
X164968113Y-127388683D01*
X164961115Y-127387585D01*
X164908063Y-127340404D01*
X164892632Y-127286570D01*
X164889723Y-127286898D01*
X164888931Y-127279866D01*
X164868734Y-127100611D01*
X164809155Y-126930344D01*
X164809153Y-126930341D01*
X164809153Y-126930340D01*
X164713183Y-126777605D01*
X164713182Y-126777603D01*
X164585628Y-126650049D01*
X164585626Y-126650048D01*
X164432891Y-126554078D01*
X164432888Y-126554077D01*
X164391201Y-126539490D01*
X164262621Y-126494498D01*
X164083366Y-126474301D01*
X163904111Y-126494498D01*
X163904108Y-126494498D01*
X163904107Y-126494499D01*
X163775530Y-126539490D01*
X163704625Y-126543109D01*
X163644821Y-126509657D01*
X163602895Y-126467731D01*
X163602892Y-126467729D01*
X163602891Y-126467728D01*
X163450158Y-126371759D01*
X163450155Y-126371758D01*
X163279888Y-126312179D01*
X163100633Y-126291982D01*
X163100631Y-126291982D01*
X163100630Y-126291982D01*
X163100629Y-126291982D01*
X163093784Y-126292753D01*
X163023852Y-126280501D01*
X162990586Y-126256640D01*
X162533946Y-125800000D01*
X176494435Y-125800000D01*
X176514632Y-125979255D01*
X176574211Y-126149522D01*
X176574212Y-126149525D01*
X176670182Y-126302260D01*
X176670183Y-126302262D01*
X176797737Y-126429816D01*
X176797739Y-126429817D01*
X176950474Y-126525787D01*
X176950475Y-126525787D01*
X176950478Y-126525789D01*
X177120745Y-126585368D01*
X177300000Y-126605565D01*
X177479255Y-126585368D01*
X177649522Y-126525789D01*
X177802262Y-126429816D01*
X177929816Y-126302262D01*
X178025789Y-126149522D01*
X178085368Y-125979255D01*
X178105565Y-125800000D01*
X178085368Y-125620745D01*
X178025789Y-125450478D01*
X178025787Y-125450475D01*
X178025787Y-125450474D01*
X177929817Y-125297739D01*
X177929816Y-125297737D01*
X177802262Y-125170183D01*
X177802260Y-125170182D01*
X177649525Y-125074212D01*
X177649522Y-125074211D01*
X177479255Y-125014632D01*
X177300000Y-124994435D01*
X177120745Y-125014632D01*
X177120742Y-125014632D01*
X177120742Y-125014633D01*
X176950477Y-125074211D01*
X176950474Y-125074212D01*
X176797739Y-125170182D01*
X176797737Y-125170183D01*
X176670183Y-125297737D01*
X176670182Y-125297739D01*
X176574212Y-125450474D01*
X176574211Y-125450477D01*
X176546449Y-125529816D01*
X176514632Y-125620745D01*
X176494435Y-125800000D01*
X162533946Y-125800000D01*
X161633946Y-124900000D01*
X174394435Y-124900000D01*
X174414632Y-125079255D01*
X174474211Y-125249522D01*
X174474212Y-125249525D01*
X174570182Y-125402260D01*
X174570183Y-125402262D01*
X174697737Y-125529816D01*
X174697739Y-125529817D01*
X174850474Y-125625787D01*
X174850475Y-125625787D01*
X174850478Y-125625789D01*
X175020745Y-125685368D01*
X175200000Y-125705565D01*
X175379255Y-125685368D01*
X175549522Y-125625789D01*
X175702262Y-125529816D01*
X175829816Y-125402262D01*
X175925789Y-125249522D01*
X175985368Y-125079255D01*
X176005565Y-124900000D01*
X175985368Y-124720745D01*
X175925789Y-124550478D01*
X175925787Y-124550475D01*
X175925787Y-124550474D01*
X175829817Y-124397739D01*
X175829816Y-124397737D01*
X175702262Y-124270183D01*
X175702260Y-124270182D01*
X175549525Y-124174212D01*
X175549522Y-124174211D01*
X175434831Y-124134079D01*
X175379255Y-124114632D01*
X175200000Y-124094435D01*
X175020745Y-124114632D01*
X175020742Y-124114632D01*
X175020742Y-124114633D01*
X174850477Y-124174211D01*
X174850474Y-124174212D01*
X174697739Y-124270182D01*
X174697737Y-124270183D01*
X174570183Y-124397737D01*
X174570182Y-124397739D01*
X174474212Y-124550474D01*
X174474211Y-124550477D01*
X174435392Y-124661415D01*
X174414632Y-124720745D01*
X174394435Y-124900000D01*
X161633946Y-124900000D01*
X161528488Y-124794542D01*
X161494462Y-124732230D01*
X161499527Y-124661415D01*
X161542074Y-124604579D01*
X161575968Y-124586518D01*
X161579254Y-124585368D01*
X161579255Y-124585368D01*
X161749522Y-124525789D01*
X161902262Y-124429816D01*
X161950357Y-124381720D01*
X162012667Y-124347697D01*
X162083482Y-124352761D01*
X162140318Y-124395307D01*
X162144545Y-124401461D01*
X162145187Y-124402266D01*
X162272737Y-124529816D01*
X162272739Y-124529817D01*
X162425474Y-124625787D01*
X162425475Y-124625787D01*
X162425478Y-124625789D01*
X162595745Y-124685368D01*
X162775000Y-124705565D01*
X162954255Y-124685368D01*
X163124522Y-124625789D01*
X163277262Y-124529816D01*
X163404816Y-124402262D01*
X163500789Y-124249522D01*
X163560368Y-124079255D01*
X163569715Y-123996289D01*
X163597217Y-123930841D01*
X163655740Y-123890647D01*
X163672368Y-123887030D01*
X163672349Y-123886944D01*
X163679245Y-123885369D01*
X163679255Y-123885368D01*
X163849522Y-123825789D01*
X164002262Y-123729816D01*
X164129816Y-123602262D01*
X164225789Y-123449522D01*
X164285368Y-123279255D01*
X164305565Y-123100000D01*
X164285368Y-122920745D01*
X164225789Y-122750478D01*
X164225787Y-122750475D01*
X164225787Y-122750474D01*
X164131238Y-122600000D01*
X174318935Y-122600000D01*
X174339132Y-122779255D01*
X174391704Y-122929498D01*
X174398711Y-122949522D01*
X174398712Y-122949525D01*
X174494682Y-123102260D01*
X174494683Y-123102262D01*
X174622237Y-123229816D01*
X174622239Y-123229817D01*
X174774974Y-123325787D01*
X174774975Y-123325787D01*
X174774978Y-123325789D01*
X174945245Y-123385368D01*
X175124500Y-123405565D01*
X175303755Y-123385368D01*
X175474022Y-123325789D01*
X175626762Y-123229816D01*
X175754316Y-123102262D01*
X175850289Y-122949522D01*
X175909868Y-122779255D01*
X175930065Y-122600000D01*
X175909868Y-122420745D01*
X175850289Y-122250478D01*
X175842683Y-122238373D01*
X175804851Y-122178163D01*
X175785545Y-122109842D01*
X175806240Y-122041929D01*
X175860367Y-121995985D01*
X175925641Y-121985919D01*
X176100000Y-122005565D01*
X176279255Y-121985368D01*
X176449522Y-121925789D01*
X176602262Y-121829816D01*
X176729816Y-121702262D01*
X176825789Y-121549522D01*
X176885368Y-121379255D01*
X176905565Y-121200000D01*
X176885368Y-121020745D01*
X176825789Y-120850478D01*
X176825787Y-120850475D01*
X176825787Y-120850474D01*
X176729817Y-120697739D01*
X176729816Y-120697737D01*
X176602262Y-120570183D01*
X176602260Y-120570182D01*
X176449525Y-120474212D01*
X176449522Y-120474211D01*
X176322648Y-120429816D01*
X176279255Y-120414632D01*
X176100000Y-120394435D01*
X175920745Y-120414632D01*
X175920742Y-120414632D01*
X175920742Y-120414633D01*
X175750477Y-120474211D01*
X175750474Y-120474212D01*
X175597739Y-120570182D01*
X175597737Y-120570183D01*
X175470183Y-120697737D01*
X175470182Y-120697739D01*
X175374212Y-120850474D01*
X175374211Y-120850477D01*
X175351121Y-120916465D01*
X175314632Y-121020745D01*
X175294435Y-121200000D01*
X175314632Y-121379255D01*
X175314633Y-121379257D01*
X175374211Y-121549522D01*
X175374212Y-121549525D01*
X175419648Y-121621836D01*
X175438954Y-121690158D01*
X175418258Y-121758071D01*
X175364131Y-121804014D01*
X175298854Y-121814079D01*
X175124500Y-121794435D01*
X174945245Y-121814632D01*
X174945242Y-121814632D01*
X174945242Y-121814633D01*
X174774977Y-121874211D01*
X174774974Y-121874212D01*
X174622239Y-121970182D01*
X174622237Y-121970183D01*
X174494683Y-122097737D01*
X174494682Y-122097739D01*
X174398712Y-122250474D01*
X174398711Y-122250477D01*
X174346391Y-122400000D01*
X174339132Y-122420745D01*
X174318935Y-122600000D01*
X164131238Y-122600000D01*
X164129817Y-122597739D01*
X164129816Y-122597737D01*
X164002262Y-122470183D01*
X164002260Y-122470182D01*
X163849525Y-122374212D01*
X163849522Y-122374211D01*
X163679255Y-122314632D01*
X163500000Y-122294435D01*
X163320745Y-122314632D01*
X163320742Y-122314632D01*
X163320742Y-122314633D01*
X163150477Y-122374211D01*
X163150474Y-122374212D01*
X162997739Y-122470182D01*
X162997737Y-122470183D01*
X162870183Y-122597737D01*
X162870182Y-122597739D01*
X162774212Y-122750474D01*
X162774211Y-122750477D01*
X162721100Y-122902260D01*
X162714632Y-122920745D01*
X162705284Y-123003709D01*
X162677781Y-123069161D01*
X162619257Y-123109353D01*
X162602623Y-123112972D01*
X162602643Y-123113058D01*
X162595742Y-123114632D01*
X162425477Y-123174211D01*
X162425474Y-123174212D01*
X162272740Y-123270181D01*
X162224643Y-123318278D01*
X162162330Y-123352303D01*
X162091514Y-123347237D01*
X162034679Y-123304690D01*
X162030455Y-123298538D01*
X162029816Y-123297737D01*
X161902262Y-123170183D01*
X161902260Y-123170182D01*
X161749525Y-123074212D01*
X161749522Y-123074211D01*
X161622648Y-123029816D01*
X161579255Y-123014632D01*
X161400000Y-122994435D01*
X161220745Y-123014632D01*
X161220742Y-123014632D01*
X161220742Y-123014633D01*
X161050479Y-123074210D01*
X160985596Y-123114979D01*
X160917274Y-123134284D01*
X160849361Y-123113588D01*
X160829465Y-123097386D01*
X160702262Y-122970183D01*
X160702260Y-122970182D01*
X160549525Y-122874212D01*
X160549522Y-122874211D01*
X160379255Y-122814632D01*
X160200000Y-122794435D01*
X160020745Y-122814632D01*
X160020742Y-122814632D01*
X160020742Y-122814633D01*
X159850477Y-122874211D01*
X159850475Y-122874212D01*
X159761392Y-122930187D01*
X159694356Y-122949500D01*
X158310880Y-122949500D01*
X158242759Y-122929498D01*
X158221785Y-122912595D01*
X155109190Y-119800000D01*
X167194435Y-119800000D01*
X167214632Y-119979255D01*
X167214633Y-119979257D01*
X167274211Y-120149522D01*
X167274212Y-120149525D01*
X167370182Y-120302260D01*
X167370183Y-120302262D01*
X167497737Y-120429816D01*
X167497739Y-120429817D01*
X167650474Y-120525787D01*
X167650475Y-120525787D01*
X167650478Y-120525789D01*
X167820745Y-120585368D01*
X168000000Y-120605565D01*
X168179255Y-120585368D01*
X168349522Y-120525789D01*
X168502262Y-120429816D01*
X168629816Y-120302262D01*
X168725789Y-120149522D01*
X168785368Y-119979255D01*
X168805565Y-119800000D01*
X168785368Y-119620745D01*
X168725789Y-119450478D01*
X168725787Y-119450475D01*
X168725787Y-119450474D01*
X168629817Y-119297739D01*
X168629816Y-119297737D01*
X168502262Y-119170183D01*
X168502260Y-119170182D01*
X168349525Y-119074212D01*
X168349522Y-119074211D01*
X168286795Y-119052262D01*
X168179255Y-119014632D01*
X168000000Y-118994435D01*
X167820745Y-119014632D01*
X167820742Y-119014632D01*
X167820742Y-119014633D01*
X167650477Y-119074211D01*
X167650474Y-119074212D01*
X167497739Y-119170182D01*
X167497737Y-119170183D01*
X167370183Y-119297737D01*
X167370182Y-119297739D01*
X167274212Y-119450474D01*
X167274211Y-119450477D01*
X167274211Y-119450478D01*
X167214632Y-119620745D01*
X167194435Y-119800000D01*
X155109190Y-119800000D01*
X150610184Y-115300994D01*
X152247704Y-115300994D01*
X152247704Y-115301005D01*
X152266867Y-115605591D01*
X152324055Y-115905387D01*
X152324058Y-115905399D01*
X152379328Y-116075500D01*
X152418368Y-116195652D01*
X152548315Y-116471804D01*
X152548317Y-116471807D01*
X152548320Y-116471813D01*
X152711845Y-116729487D01*
X152711847Y-116729490D01*
X152853297Y-116900474D01*
X152906390Y-116964652D01*
X153128871Y-117173575D01*
X153375782Y-117352967D01*
X153643230Y-117499998D01*
X153833927Y-117575500D01*
X153926991Y-117612347D01*
X153926994Y-117612348D01*
X153926997Y-117612349D01*
X154222608Y-117688249D01*
X154525400Y-117726500D01*
X154525404Y-117726500D01*
X154830596Y-117726500D01*
X154830600Y-117726500D01*
X155133392Y-117688249D01*
X155429003Y-117612349D01*
X155712770Y-117499998D01*
X155980218Y-117352967D01*
X156121939Y-117250000D01*
X169794435Y-117250000D01*
X169814632Y-117429255D01*
X169814633Y-117429257D01*
X169874211Y-117599522D01*
X169874212Y-117599525D01*
X169970182Y-117752260D01*
X169970183Y-117752262D01*
X170053826Y-117835905D01*
X170087852Y-117898217D01*
X170082787Y-117969032D01*
X170053826Y-118014095D01*
X170020183Y-118047737D01*
X170020182Y-118047739D01*
X169924212Y-118200474D01*
X169924211Y-118200477D01*
X169924211Y-118200478D01*
X169864632Y-118370745D01*
X169844435Y-118550000D01*
X169864632Y-118729255D01*
X169864633Y-118729257D01*
X169924211Y-118899522D01*
X169924212Y-118899525D01*
X170020182Y-119052260D01*
X170020183Y-119052262D01*
X170116680Y-119148759D01*
X170150706Y-119211071D01*
X170145641Y-119281886D01*
X170134272Y-119304890D01*
X170074212Y-119400474D01*
X170074211Y-119400477D01*
X170056715Y-119450478D01*
X170014632Y-119570745D01*
X169994435Y-119750000D01*
X170014632Y-119929255D01*
X170074211Y-120099522D01*
X170074212Y-120099525D01*
X170170182Y-120252260D01*
X170170183Y-120252262D01*
X170297737Y-120379816D01*
X170297739Y-120379817D01*
X170450474Y-120475787D01*
X170450475Y-120475787D01*
X170450478Y-120475789D01*
X170620745Y-120535368D01*
X170800000Y-120555565D01*
X170979255Y-120535368D01*
X171149522Y-120475789D01*
X171302262Y-120379816D01*
X171429816Y-120252262D01*
X171525789Y-120099522D01*
X171585368Y-119929255D01*
X171605565Y-119750000D01*
X171585368Y-119570745D01*
X171525789Y-119400478D01*
X171525787Y-119400475D01*
X171525787Y-119400474D01*
X171429817Y-119247739D01*
X171429816Y-119247737D01*
X171333319Y-119151240D01*
X171299293Y-119088928D01*
X171304358Y-119018113D01*
X171315722Y-118995117D01*
X171375789Y-118899522D01*
X171435368Y-118729255D01*
X171455565Y-118550000D01*
X171435368Y-118370745D01*
X171375789Y-118200478D01*
X171375787Y-118200475D01*
X171375787Y-118200474D01*
X171279817Y-118047739D01*
X171279816Y-118047737D01*
X171196173Y-117964094D01*
X171162147Y-117901782D01*
X171167212Y-117830967D01*
X171196171Y-117785906D01*
X171229816Y-117752262D01*
X171246004Y-117726500D01*
X171317730Y-117612348D01*
X171325789Y-117599522D01*
X171385368Y-117429255D01*
X171405565Y-117250000D01*
X171385368Y-117070745D01*
X171325789Y-116900478D01*
X171325787Y-116900475D01*
X171325787Y-116900474D01*
X171229817Y-116747739D01*
X171229816Y-116747737D01*
X171102262Y-116620183D01*
X171102260Y-116620182D01*
X170949525Y-116524212D01*
X170949522Y-116524211D01*
X170874698Y-116498029D01*
X170779255Y-116464632D01*
X170600000Y-116444435D01*
X170420745Y-116464632D01*
X170420742Y-116464632D01*
X170420742Y-116464633D01*
X170250477Y-116524211D01*
X170250474Y-116524212D01*
X170097739Y-116620182D01*
X170097737Y-116620183D01*
X169970183Y-116747737D01*
X169970182Y-116747739D01*
X169874212Y-116900474D01*
X169874211Y-116900477D01*
X169842739Y-116990419D01*
X169814632Y-117070745D01*
X169794435Y-117250000D01*
X156121939Y-117250000D01*
X156227129Y-117173575D01*
X156449610Y-116964652D01*
X156644151Y-116729492D01*
X156807685Y-116471804D01*
X156937632Y-116195652D01*
X157031944Y-115905390D01*
X157089132Y-115605597D01*
X157108296Y-115301000D01*
X157105370Y-115254498D01*
X157089132Y-114996408D01*
X157089132Y-114996403D01*
X157031944Y-114696610D01*
X156937632Y-114406348D01*
X156807685Y-114130196D01*
X156807679Y-114130186D01*
X156644154Y-113872512D01*
X156644152Y-113872509D01*
X156449610Y-113637348D01*
X156449608Y-113637346D01*
X156356088Y-113549525D01*
X156227129Y-113428425D01*
X156227125Y-113428422D01*
X156227124Y-113428421D01*
X156085594Y-113325594D01*
X155980218Y-113249033D01*
X155712770Y-113102002D01*
X155600757Y-113057653D01*
X155429008Y-112989652D01*
X155429005Y-112989651D01*
X155231929Y-112939051D01*
X155133392Y-112913751D01*
X155133386Y-112913750D01*
X155133378Y-112913749D01*
X154830614Y-112875501D01*
X154830603Y-112875500D01*
X154830600Y-112875500D01*
X154525400Y-112875500D01*
X154525397Y-112875500D01*
X154525385Y-112875501D01*
X154222621Y-112913749D01*
X154222608Y-112913751D01*
X153926994Y-112989651D01*
X153926991Y-112989652D01*
X153643230Y-113102002D01*
X153375780Y-113249034D01*
X153128875Y-113428421D01*
X152906391Y-113637346D01*
X152906389Y-113637348D01*
X152711847Y-113872509D01*
X152711845Y-113872512D01*
X152548320Y-114130186D01*
X152548313Y-114130200D01*
X152418371Y-114406341D01*
X152418367Y-114406350D01*
X152324058Y-114696600D01*
X152324055Y-114696612D01*
X152266867Y-114996408D01*
X152247704Y-115300994D01*
X150610184Y-115300994D01*
X146703184Y-111393994D01*
X163593704Y-111393994D01*
X163593704Y-111394005D01*
X163612867Y-111698591D01*
X163670055Y-111998387D01*
X163670058Y-111998399D01*
X163756492Y-112264413D01*
X163764368Y-112288652D01*
X163894315Y-112564804D01*
X163894317Y-112564807D01*
X163894320Y-112564813D01*
X164057845Y-112822487D01*
X164057847Y-112822490D01*
X164206610Y-113002314D01*
X164252390Y-113057652D01*
X164474871Y-113266575D01*
X164721782Y-113445967D01*
X164989230Y-113592998D01*
X165179927Y-113668500D01*
X165272991Y-113705347D01*
X165272994Y-113705348D01*
X165272997Y-113705349D01*
X165568608Y-113781249D01*
X165871400Y-113819500D01*
X165871404Y-113819500D01*
X166176596Y-113819500D01*
X166176600Y-113819500D01*
X166479392Y-113781249D01*
X166775003Y-113705349D01*
X167058770Y-113592998D01*
X167326218Y-113445967D01*
X167573129Y-113266575D01*
X167795610Y-113057652D01*
X167990151Y-112822492D01*
X168153685Y-112564804D01*
X168283632Y-112288652D01*
X168377944Y-111998390D01*
X168435132Y-111698597D01*
X168454296Y-111394000D01*
X168435132Y-111089403D01*
X168377944Y-110789610D01*
X168369253Y-110762863D01*
X168318962Y-110608082D01*
X168283632Y-110499348D01*
X168153685Y-110223196D01*
X168083066Y-110111918D01*
X167990154Y-109965512D01*
X167990152Y-109965509D01*
X167795610Y-109730348D01*
X167795608Y-109730346D01*
X167762425Y-109699185D01*
X167573129Y-109521425D01*
X167573125Y-109521422D01*
X167573124Y-109521421D01*
X167326219Y-109342034D01*
X167326220Y-109342034D01*
X167326218Y-109342033D01*
X167058770Y-109195002D01*
X166926127Y-109142485D01*
X166775008Y-109082652D01*
X166775005Y-109082651D01*
X166577929Y-109032051D01*
X166479392Y-109006751D01*
X166479386Y-109006750D01*
X166479378Y-109006749D01*
X166176614Y-108968501D01*
X166176603Y-108968500D01*
X166176600Y-108968500D01*
X165871400Y-108968500D01*
X165871397Y-108968500D01*
X165871385Y-108968501D01*
X165568621Y-109006749D01*
X165568608Y-109006751D01*
X165272994Y-109082651D01*
X165272991Y-109082652D01*
X164989230Y-109195002D01*
X164721780Y-109342034D01*
X164474875Y-109521421D01*
X164252391Y-109730346D01*
X164252389Y-109730348D01*
X164057847Y-109965509D01*
X164057845Y-109965512D01*
X163894320Y-110223186D01*
X163894313Y-110223200D01*
X163764371Y-110499341D01*
X163764367Y-110499350D01*
X163670058Y-110789600D01*
X163670055Y-110789612D01*
X163612867Y-111089408D01*
X163593704Y-111393994D01*
X146703184Y-111393994D01*
X138687405Y-103378215D01*
X138653379Y-103315903D01*
X138650500Y-103289120D01*
X138650500Y-102756000D01*
X138670502Y-102687879D01*
X138724158Y-102641386D01*
X138776500Y-102630000D01*
X141154916Y-102630000D01*
X141223037Y-102650002D01*
X141269530Y-102703658D01*
X141274781Y-102717161D01*
X141398405Y-103098689D01*
X141474068Y-103289120D01*
X141581416Y-103559298D01*
X141617301Y-103649613D01*
X141617305Y-103649621D01*
X141871427Y-104185165D01*
X141871429Y-104185169D01*
X142159747Y-104703163D01*
X142159754Y-104703175D01*
X142481017Y-105201365D01*
X142481029Y-105201383D01*
X142833900Y-105677703D01*
X142833904Y-105677708D01*
X142833908Y-105677713D01*
X143216920Y-106130183D01*
X143628450Y-106556879D01*
X144066768Y-106956009D01*
X144239914Y-107094255D01*
X144530027Y-107325893D01*
X144530049Y-107325909D01*
X145016273Y-107664971D01*
X145016285Y-107664978D01*
X145016289Y-107664981D01*
X145523501Y-107971842D01*
X146049532Y-108245187D01*
X146592173Y-108483868D01*
X146592171Y-108483868D01*
X146935056Y-108608848D01*
X147149140Y-108686881D01*
X147718093Y-108853373D01*
X148296640Y-108982643D01*
X148882348Y-109074148D01*
X149472755Y-109127504D01*
X150065379Y-109142485D01*
X150265553Y-109134558D01*
X150657714Y-109119031D01*
X150657721Y-109119030D01*
X150657727Y-109119030D01*
X151247311Y-109057236D01*
X151831650Y-108957364D01*
X152408289Y-108819833D01*
X152408299Y-108819830D01*
X152974791Y-108645226D01*
X152974795Y-108645224D01*
X152974803Y-108645222D01*
X153528810Y-108434264D01*
X154067982Y-108187847D01*
X154590050Y-107907006D01*
X155092822Y-107592923D01*
X155574181Y-107246917D01*
X156032106Y-106870444D01*
X156464671Y-106465086D01*
X156870057Y-106032548D01*
X157055331Y-105807235D01*
X157061209Y-105800581D01*
X157232018Y-105620548D01*
X157244529Y-105609033D01*
X157434876Y-105456280D01*
X157448849Y-105446544D01*
X157658064Y-105320894D01*
X157673222Y-105313134D01*
X157897489Y-105216878D01*
X157913558Y-105211235D01*
X158148763Y-105146139D01*
X158165441Y-105142718D01*
X158407281Y-105109971D01*
X158424288Y-105108833D01*
X158668330Y-105109035D01*
X158685315Y-105110202D01*
X158922466Y-105142716D01*
X158927090Y-105143350D01*
X158943785Y-105146803D01*
X159033244Y-105171722D01*
X159178870Y-105212286D01*
X159194936Y-105217958D01*
X159327902Y-105275290D01*
X159419036Y-105314585D01*
X159434187Y-105322373D01*
X159643197Y-105448373D01*
X159657149Y-105458129D01*
X159699634Y-105492340D01*
X159847221Y-105611184D01*
X159859746Y-105622751D01*
X160006581Y-105778032D01*
X160009094Y-105781648D01*
X160031715Y-105804927D01*
X160038549Y-105812557D01*
X160051653Y-105828442D01*
X160065581Y-105839782D01*
X160139876Y-105916252D01*
X160240046Y-106019353D01*
X160363303Y-106130183D01*
X160672463Y-106408175D01*
X160672492Y-106408199D01*
X161017836Y-106679004D01*
X161130091Y-106767030D01*
X161493502Y-107014404D01*
X161610810Y-107094255D01*
X161610812Y-107094257D01*
X161610817Y-107094260D01*
X161610823Y-107094264D01*
X162112488Y-107388400D01*
X162632812Y-107648105D01*
X163169436Y-107872202D01*
X163719925Y-108059675D01*
X164281783Y-108209672D01*
X164281792Y-108209673D01*
X164281793Y-108209674D01*
X164543779Y-108261018D01*
X164852463Y-108321514D01*
X165429376Y-108394694D01*
X166009907Y-108428880D01*
X166009914Y-108428879D01*
X166009916Y-108428880D01*
X166219252Y-108427092D01*
X166591422Y-108423916D01*
X167171284Y-108379826D01*
X167746864Y-108296809D01*
X168154479Y-108209674D01*
X168315524Y-108175248D01*
X168315528Y-108175246D01*
X168315551Y-108175242D01*
X168874768Y-108015676D01*
X169421977Y-107818834D01*
X169954697Y-107585610D01*
X170333471Y-107388408D01*
X170470482Y-107317076D01*
X170470488Y-107317072D01*
X170470512Y-107317060D01*
X170967083Y-107014404D01*
X171049790Y-106956015D01*
X171442135Y-106679030D01*
X171442169Y-106679004D01*
X171893557Y-106312430D01*
X171893570Y-106312418D01*
X171893584Y-106312407D01*
X172319312Y-105916251D01*
X172717412Y-105492340D01*
X173086079Y-105042597D01*
X173423640Y-104569061D01*
X173728566Y-104073879D01*
X173999473Y-103559298D01*
X174235132Y-103027651D01*
X174235135Y-103027644D01*
X174350017Y-102712809D01*
X174392158Y-102655672D01*
X174458500Y-102630388D01*
X174468383Y-102630000D01*
X178798500Y-102630000D01*
X178866621Y-102650002D01*
X178913114Y-102703658D01*
X178924500Y-102756000D01*
X178924500Y-138798500D01*
X178904498Y-138866621D01*
X178850842Y-138913114D01*
X178798500Y-138924500D01*
X150201500Y-138924500D01*
X150133379Y-138904498D01*
X150086886Y-138850842D01*
X150075500Y-138798500D01*
X150075500Y-134571876D01*
X150075499Y-134571847D01*
X150045044Y-133893713D01*
X152649500Y-133893713D01*
X152649500Y-134106287D01*
X152682754Y-134316243D01*
X152748443Y-134518412D01*
X152831421Y-134681265D01*
X152844951Y-134707819D01*
X152850626Y-134715630D01*
X152969896Y-134879792D01*
X152969898Y-134879794D01*
X152969900Y-134879797D01*
X153120202Y-135030099D01*
X153120205Y-135030101D01*
X153120208Y-135030104D01*
X153292184Y-135155051D01*
X153481588Y-135251557D01*
X153683757Y-135317246D01*
X153893713Y-135350500D01*
X153893716Y-135350500D01*
X154106284Y-135350500D01*
X154106287Y-135350500D01*
X154316243Y-135317246D01*
X154518412Y-135251557D01*
X154707816Y-135155051D01*
X154879792Y-135030104D01*
X155030104Y-134879792D01*
X155155051Y-134707816D01*
X155251557Y-134518412D01*
X155317246Y-134316243D01*
X155350500Y-134106287D01*
X155350500Y-133893713D01*
X155317246Y-133683757D01*
X155251557Y-133481588D01*
X155155051Y-133292184D01*
X155030104Y-133120208D01*
X155030101Y-133120205D01*
X155030099Y-133120202D01*
X154879797Y-132969900D01*
X154879794Y-132969898D01*
X154879792Y-132969896D01*
X154750334Y-132875840D01*
X154707819Y-132844951D01*
X154707818Y-132844950D01*
X154707816Y-132844949D01*
X154518412Y-132748443D01*
X154316243Y-132682754D01*
X154106287Y-132649500D01*
X153893713Y-132649500D01*
X153683757Y-132682754D01*
X153683754Y-132682754D01*
X153683753Y-132682755D01*
X153481588Y-132748443D01*
X153481586Y-132748444D01*
X153292180Y-132844951D01*
X153120205Y-132969898D01*
X153120202Y-132969900D01*
X152969900Y-133120202D01*
X152969898Y-133120205D01*
X152844951Y-133292180D01*
X152844949Y-133292184D01*
X152748443Y-133481588D01*
X152682754Y-133683757D01*
X152649500Y-133893713D01*
X150045044Y-133893713D01*
X150037086Y-133716514D01*
X150037085Y-133716487D01*
X149960331Y-132863684D01*
X149845394Y-132015183D01*
X149834339Y-131954267D01*
X149692508Y-131172714D01*
X149692501Y-131172679D01*
X149538745Y-130499029D01*
X149501971Y-130337911D01*
X149274177Y-129512517D01*
X149009581Y-128698175D01*
X148708716Y-127896524D01*
X148707515Y-127893713D01*
X152649500Y-127893713D01*
X152649500Y-128106287D01*
X152682754Y-128316243D01*
X152748443Y-128518412D01*
X152844949Y-128707816D01*
X152969896Y-128879792D01*
X152969898Y-128879794D01*
X152969900Y-128879797D01*
X153120202Y-129030099D01*
X153120205Y-129030101D01*
X153120208Y-129030104D01*
X153292184Y-129155051D01*
X153481588Y-129251557D01*
X153683757Y-129317246D01*
X153893713Y-129350500D01*
X153893716Y-129350500D01*
X154106284Y-129350500D01*
X154106287Y-129350500D01*
X154316243Y-129317246D01*
X154518412Y-129251557D01*
X154707816Y-129155051D01*
X154879792Y-129030104D01*
X155030104Y-128879792D01*
X155155051Y-128707816D01*
X155251557Y-128518412D01*
X155317246Y-128316243D01*
X155350500Y-128106287D01*
X155350500Y-127893713D01*
X155317246Y-127683757D01*
X155251557Y-127481588D01*
X155155051Y-127292184D01*
X155030104Y-127120208D01*
X155030101Y-127120205D01*
X155030099Y-127120202D01*
X154879797Y-126969900D01*
X154879794Y-126969898D01*
X154879792Y-126969896D01*
X154707816Y-126844949D01*
X154518412Y-126748443D01*
X154316243Y-126682754D01*
X154106287Y-126649500D01*
X153893713Y-126649500D01*
X153683757Y-126682754D01*
X153683754Y-126682754D01*
X153683753Y-126682755D01*
X153481588Y-126748443D01*
X153481586Y-126748444D01*
X153292180Y-126844951D01*
X153120205Y-126969898D01*
X153120202Y-126969900D01*
X152969900Y-127120202D01*
X152969898Y-127120205D01*
X152844951Y-127292180D01*
X152748444Y-127481586D01*
X152748443Y-127481588D01*
X152700419Y-127629391D01*
X152682754Y-127683757D01*
X152649500Y-127893713D01*
X148707515Y-127893713D01*
X148372188Y-127109178D01*
X148129660Y-126605564D01*
X148000691Y-126337756D01*
X148000666Y-126337706D01*
X147594925Y-125583713D01*
X147594900Y-125583669D01*
X147155761Y-124848675D01*
X147155757Y-124848670D01*
X147155755Y-124848666D01*
X146684049Y-124134063D01*
X146180758Y-123441342D01*
X145646895Y-122771898D01*
X145646889Y-122771891D01*
X145646873Y-122771872D01*
X145321978Y-122400000D01*
X149194435Y-122400000D01*
X149214632Y-122579255D01*
X149221100Y-122597739D01*
X149274211Y-122749522D01*
X149274212Y-122749525D01*
X149370182Y-122902260D01*
X149370183Y-122902262D01*
X149497737Y-123029816D01*
X149497739Y-123029817D01*
X149650474Y-123125787D01*
X149650475Y-123125787D01*
X149650478Y-123125789D01*
X149820745Y-123185368D01*
X150000000Y-123205565D01*
X150179255Y-123185368D01*
X150349522Y-123125789D01*
X150502262Y-123029816D01*
X150629816Y-122902262D01*
X150725789Y-122749522D01*
X150785368Y-122579255D01*
X150805565Y-122400000D01*
X150785368Y-122220745D01*
X150725789Y-122050478D01*
X150725787Y-122050475D01*
X150725787Y-122050474D01*
X150629817Y-121897739D01*
X150629816Y-121897737D01*
X150502262Y-121770183D01*
X150502260Y-121770182D01*
X150349525Y-121674212D01*
X150349522Y-121674211D01*
X150179255Y-121614632D01*
X150000000Y-121594435D01*
X149820745Y-121614632D01*
X149820742Y-121614632D01*
X149820742Y-121614633D01*
X149650477Y-121674211D01*
X149650474Y-121674212D01*
X149497739Y-121770182D01*
X149497737Y-121770183D01*
X149370183Y-121897737D01*
X149370182Y-121897739D01*
X149274212Y-122050474D01*
X149274211Y-122050477D01*
X149247406Y-122127081D01*
X149214632Y-122220745D01*
X149194435Y-122400000D01*
X145321978Y-122400000D01*
X145083541Y-122127088D01*
X145083535Y-122127081D01*
X144774651Y-121804014D01*
X144491812Y-121508187D01*
X143981984Y-121020742D01*
X143872919Y-120916465D01*
X143517066Y-120605565D01*
X143228127Y-120353126D01*
X143228108Y-120353110D01*
X143228102Y-120353105D01*
X142558658Y-119819242D01*
X142463355Y-119750000D01*
X141865950Y-119315960D01*
X141865942Y-119315955D01*
X141865937Y-119315951D01*
X141151334Y-118844245D01*
X141151331Y-118844243D01*
X141151324Y-118844238D01*
X140416330Y-118405099D01*
X140416286Y-118405074D01*
X139662293Y-117999333D01*
X139662243Y-117999308D01*
X138890827Y-117627814D01*
X138587107Y-117497998D01*
X138103476Y-117291284D01*
X137301825Y-116990419D01*
X137301822Y-116990418D01*
X137301814Y-116990415D01*
X136487491Y-116725825D01*
X135662095Y-116498030D01*
X134827320Y-116307498D01*
X134827285Y-116307491D01*
X133984834Y-116154608D01*
X133660767Y-116110710D01*
X133136316Y-116039669D01*
X132283513Y-115962915D01*
X132283501Y-115962914D01*
X132283485Y-115962913D01*
X131428152Y-115924500D01*
X131428125Y-115924500D01*
X131015018Y-115924500D01*
X127825206Y-115924500D01*
X127757085Y-115904498D01*
X127710592Y-115850842D01*
X127700488Y-115780568D01*
X127729982Y-115715988D01*
X127758171Y-115691812D01*
X127766967Y-115686284D01*
X127777262Y-115679816D01*
X127904816Y-115552262D01*
X128000789Y-115399522D01*
X128060368Y-115229255D01*
X128080565Y-115050000D01*
X128060368Y-114870745D01*
X128000789Y-114700478D01*
X128000787Y-114700475D01*
X128000787Y-114700474D01*
X127904817Y-114547739D01*
X127904816Y-114547737D01*
X127777262Y-114420183D01*
X127777260Y-114420182D01*
X127624525Y-114324212D01*
X127624522Y-114324211D01*
X127454255Y-114264632D01*
X127275000Y-114244435D01*
X127095745Y-114264632D01*
X127095742Y-114264632D01*
X127095742Y-114264633D01*
X126925477Y-114324211D01*
X126925474Y-114324212D01*
X126772739Y-114420182D01*
X126772737Y-114420183D01*
X126645183Y-114547737D01*
X126645182Y-114547739D01*
X126549212Y-114700474D01*
X126549211Y-114700477D01*
X126508353Y-114817244D01*
X126489632Y-114870745D01*
X126469435Y-115050000D01*
X126489632Y-115229255D01*
X126549211Y-115399522D01*
X126549212Y-115399525D01*
X126645182Y-115552260D01*
X126645183Y-115552262D01*
X126772736Y-115679815D01*
X126791829Y-115691812D01*
X126838867Y-115744990D01*
X126849688Y-115815157D01*
X126820856Y-115880036D01*
X126761525Y-115919027D01*
X126724794Y-115924500D01*
X121701500Y-115924500D01*
X121633379Y-115904498D01*
X121586886Y-115850842D01*
X121575500Y-115798500D01*
X121575500Y-110276230D01*
X122839500Y-110276230D01*
X122839500Y-110276233D01*
X122839500Y-110443767D01*
X122872184Y-110608082D01*
X122936297Y-110762863D01*
X122936298Y-110762864D01*
X123029373Y-110902161D01*
X123029378Y-110902167D01*
X123147832Y-111020621D01*
X123147838Y-111020626D01*
X123287137Y-111113703D01*
X123441918Y-111177816D01*
X123606233Y-111210500D01*
X123606234Y-111210500D01*
X123773766Y-111210500D01*
X123773767Y-111210500D01*
X123938082Y-111177816D01*
X124092863Y-111113703D01*
X124232162Y-111020626D01*
X124350626Y-110902162D01*
X124443703Y-110762863D01*
X124507816Y-110608082D01*
X124540500Y-110443767D01*
X124540500Y-110276233D01*
X124507816Y-110111918D01*
X124443703Y-109957137D01*
X124350626Y-109817838D01*
X124350621Y-109817832D01*
X124232167Y-109699378D01*
X124232161Y-109699373D01*
X124092864Y-109606298D01*
X124092865Y-109606298D01*
X124092863Y-109606297D01*
X123983420Y-109560964D01*
X123938085Y-109542185D01*
X123938083Y-109542184D01*
X123938082Y-109542184D01*
X123833719Y-109521425D01*
X123773769Y-109509500D01*
X123773767Y-109509500D01*
X123606233Y-109509500D01*
X123606230Y-109509500D01*
X123483830Y-109533847D01*
X123441918Y-109542184D01*
X123441917Y-109542184D01*
X123441914Y-109542185D01*
X123287135Y-109606298D01*
X123147838Y-109699373D01*
X123147832Y-109699378D01*
X123029378Y-109817832D01*
X123029373Y-109817838D01*
X122936298Y-109957135D01*
X122872185Y-110111914D01*
X122839500Y-110276230D01*
X121575500Y-110276230D01*
X121575500Y-102756000D01*
X121595502Y-102687879D01*
X121649158Y-102641386D01*
X121701500Y-102630000D01*
X135057864Y-102630000D01*
X135125985Y-102650002D01*
G37*
G04 #@! TD.AperFunction*
M02*
