G04 #@! TF.GenerationSoftware,KiCad,Pcbnew,8.0.8+dfsg-1*
G04 #@! TF.CreationDate,2025-03-16T16:51:26-04:00*
G04 #@! TF.ProjectId,RUST_Daughterboard,52555354-5f44-4617-9567-68746572626f,rev?*
G04 #@! TF.SameCoordinates,Original*
G04 #@! TF.FileFunction,Legend,Bot*
G04 #@! TF.FilePolarity,Positive*
%FSLAX46Y46*%
G04 Gerber Fmt 4.6, Leading zero omitted, Abs format (unit mm)*
G04 Created by KiCad (PCBNEW 8.0.8+dfsg-1) date 2025-03-16 16:51:26*
%MOMM*%
%LPD*%
G01*
G04 APERTURE LIST*
%ADD10C,0.120000*%
%ADD11C,0.150000*%
%ADD12C,0.010000*%
G04 APERTURE END LIST*
D10*
X145380953Y-70436144D02*
X145114286Y-70817097D01*
X144923810Y-70436144D02*
X144923810Y-71236144D01*
X144923810Y-71236144D02*
X145228572Y-71236144D01*
X145228572Y-71236144D02*
X145304762Y-71198049D01*
X145304762Y-71198049D02*
X145342857Y-71159954D01*
X145342857Y-71159954D02*
X145380953Y-71083763D01*
X145380953Y-71083763D02*
X145380953Y-70969478D01*
X145380953Y-70969478D02*
X145342857Y-70893287D01*
X145342857Y-70893287D02*
X145304762Y-70855192D01*
X145304762Y-70855192D02*
X145228572Y-70817097D01*
X145228572Y-70817097D02*
X144923810Y-70817097D01*
X145876191Y-71236144D02*
X146028572Y-71236144D01*
X146028572Y-71236144D02*
X146104762Y-71198049D01*
X146104762Y-71198049D02*
X146180953Y-71121859D01*
X146180953Y-71121859D02*
X146219048Y-70969478D01*
X146219048Y-70969478D02*
X146219048Y-70702811D01*
X146219048Y-70702811D02*
X146180953Y-70550430D01*
X146180953Y-70550430D02*
X146104762Y-70474240D01*
X146104762Y-70474240D02*
X146028572Y-70436144D01*
X146028572Y-70436144D02*
X145876191Y-70436144D01*
X145876191Y-70436144D02*
X145800000Y-70474240D01*
X145800000Y-70474240D02*
X145723810Y-70550430D01*
X145723810Y-70550430D02*
X145685714Y-70702811D01*
X145685714Y-70702811D02*
X145685714Y-70969478D01*
X145685714Y-70969478D02*
X145723810Y-71121859D01*
X145723810Y-71121859D02*
X145800000Y-71198049D01*
X145800000Y-71198049D02*
X145876191Y-71236144D01*
X146447619Y-71236144D02*
X146904762Y-71236144D01*
X146676190Y-70436144D02*
X146676190Y-71236144D01*
X147133333Y-70664716D02*
X147514286Y-70664716D01*
X147057143Y-70436144D02*
X147323810Y-71236144D01*
X147323810Y-71236144D02*
X147590476Y-70436144D01*
X148314286Y-70436144D02*
X148047619Y-70817097D01*
X147857143Y-70436144D02*
X147857143Y-71236144D01*
X147857143Y-71236144D02*
X148161905Y-71236144D01*
X148161905Y-71236144D02*
X148238095Y-71198049D01*
X148238095Y-71198049D02*
X148276190Y-71159954D01*
X148276190Y-71159954D02*
X148314286Y-71083763D01*
X148314286Y-71083763D02*
X148314286Y-70969478D01*
X148314286Y-70969478D02*
X148276190Y-70893287D01*
X148276190Y-70893287D02*
X148238095Y-70855192D01*
X148238095Y-70855192D02*
X148161905Y-70817097D01*
X148161905Y-70817097D02*
X147857143Y-70817097D01*
X148809524Y-70817097D02*
X148809524Y-70436144D01*
X148542857Y-71236144D02*
X148809524Y-70817097D01*
X148809524Y-70817097D02*
X149076190Y-71236144D01*
X151171429Y-71236144D02*
X151171429Y-70588525D01*
X151171429Y-70588525D02*
X151209524Y-70512335D01*
X151209524Y-70512335D02*
X151247619Y-70474240D01*
X151247619Y-70474240D02*
X151323810Y-70436144D01*
X151323810Y-70436144D02*
X151476191Y-70436144D01*
X151476191Y-70436144D02*
X151552381Y-70474240D01*
X151552381Y-70474240D02*
X151590476Y-70512335D01*
X151590476Y-70512335D02*
X151628572Y-70588525D01*
X151628572Y-70588525D02*
X151628572Y-71236144D01*
X152009524Y-70436144D02*
X152009524Y-71236144D01*
X152009524Y-71236144D02*
X152466667Y-70436144D01*
X152466667Y-70436144D02*
X152466667Y-71236144D01*
X152809523Y-70474240D02*
X152923809Y-70436144D01*
X152923809Y-70436144D02*
X153114285Y-70436144D01*
X153114285Y-70436144D02*
X153190476Y-70474240D01*
X153190476Y-70474240D02*
X153228571Y-70512335D01*
X153228571Y-70512335D02*
X153266666Y-70588525D01*
X153266666Y-70588525D02*
X153266666Y-70664716D01*
X153266666Y-70664716D02*
X153228571Y-70740906D01*
X153228571Y-70740906D02*
X153190476Y-70779001D01*
X153190476Y-70779001D02*
X153114285Y-70817097D01*
X153114285Y-70817097D02*
X152961904Y-70855192D01*
X152961904Y-70855192D02*
X152885714Y-70893287D01*
X152885714Y-70893287D02*
X152847619Y-70931382D01*
X152847619Y-70931382D02*
X152809523Y-71007573D01*
X152809523Y-71007573D02*
X152809523Y-71083763D01*
X152809523Y-71083763D02*
X152847619Y-71159954D01*
X152847619Y-71159954D02*
X152885714Y-71198049D01*
X152885714Y-71198049D02*
X152961904Y-71236144D01*
X152961904Y-71236144D02*
X153152381Y-71236144D01*
X153152381Y-71236144D02*
X153266666Y-71198049D01*
X153609524Y-70436144D02*
X153609524Y-71236144D01*
X153609524Y-71236144D02*
X153876190Y-70664716D01*
X153876190Y-70664716D02*
X154142857Y-71236144D01*
X154142857Y-71236144D02*
X154142857Y-70436144D01*
X154485714Y-70664716D02*
X154866667Y-70664716D01*
X154409524Y-70436144D02*
X154676191Y-71236144D01*
X154676191Y-71236144D02*
X154942857Y-70436144D01*
X155666667Y-70436144D02*
X155400000Y-70817097D01*
X155209524Y-70436144D02*
X155209524Y-71236144D01*
X155209524Y-71236144D02*
X155514286Y-71236144D01*
X155514286Y-71236144D02*
X155590476Y-71198049D01*
X155590476Y-71198049D02*
X155628571Y-71159954D01*
X155628571Y-71159954D02*
X155666667Y-71083763D01*
X155666667Y-71083763D02*
X155666667Y-70969478D01*
X155666667Y-70969478D02*
X155628571Y-70893287D01*
X155628571Y-70893287D02*
X155590476Y-70855192D01*
X155590476Y-70855192D02*
X155514286Y-70817097D01*
X155514286Y-70817097D02*
X155209524Y-70817097D01*
X155895238Y-71236144D02*
X156352381Y-71236144D01*
X156123809Y-70436144D02*
X156123809Y-71236144D01*
X156619048Y-70436144D02*
X156619048Y-71236144D01*
X156619048Y-71236144D02*
X156923810Y-71236144D01*
X156923810Y-71236144D02*
X157000000Y-71198049D01*
X157000000Y-71198049D02*
X157038095Y-71159954D01*
X157038095Y-71159954D02*
X157076191Y-71083763D01*
X157076191Y-71083763D02*
X157076191Y-70969478D01*
X157076191Y-70969478D02*
X157038095Y-70893287D01*
X157038095Y-70893287D02*
X157000000Y-70855192D01*
X157000000Y-70855192D02*
X156923810Y-70817097D01*
X156923810Y-70817097D02*
X156619048Y-70817097D01*
X157419048Y-70436144D02*
X157419048Y-71236144D01*
X157419048Y-70855192D02*
X157876191Y-70855192D01*
X157876191Y-70436144D02*
X157876191Y-71236144D01*
X158409524Y-71236144D02*
X158561905Y-71236144D01*
X158561905Y-71236144D02*
X158638095Y-71198049D01*
X158638095Y-71198049D02*
X158714286Y-71121859D01*
X158714286Y-71121859D02*
X158752381Y-70969478D01*
X158752381Y-70969478D02*
X158752381Y-70702811D01*
X158752381Y-70702811D02*
X158714286Y-70550430D01*
X158714286Y-70550430D02*
X158638095Y-70474240D01*
X158638095Y-70474240D02*
X158561905Y-70436144D01*
X158561905Y-70436144D02*
X158409524Y-70436144D01*
X158409524Y-70436144D02*
X158333333Y-70474240D01*
X158333333Y-70474240D02*
X158257143Y-70550430D01*
X158257143Y-70550430D02*
X158219047Y-70702811D01*
X158219047Y-70702811D02*
X158219047Y-70969478D01*
X158219047Y-70969478D02*
X158257143Y-71121859D01*
X158257143Y-71121859D02*
X158333333Y-71198049D01*
X158333333Y-71198049D02*
X158409524Y-71236144D01*
X159095238Y-70436144D02*
X159095238Y-71236144D01*
X159095238Y-71236144D02*
X159552381Y-70436144D01*
X159552381Y-70436144D02*
X159552381Y-71236144D01*
X159933333Y-70855192D02*
X160199999Y-70855192D01*
X160314285Y-70436144D02*
X159933333Y-70436144D01*
X159933333Y-70436144D02*
X159933333Y-71236144D01*
X159933333Y-71236144D02*
X160314285Y-71236144D01*
X133401974Y-97000000D02*
X133401974Y-96500000D01*
X134187688Y-96500000D02*
X132687688Y-96500000D01*
X132687688Y-96500000D02*
X132687688Y-97214286D01*
X133759117Y-97714286D02*
X133759117Y-98428572D01*
X134187688Y-97571429D02*
X132687688Y-98071429D01*
X132687688Y-98071429D02*
X134187688Y-98571429D01*
X133401974Y-99571428D02*
X133473402Y-99785714D01*
X133473402Y-99785714D02*
X133544831Y-99857143D01*
X133544831Y-99857143D02*
X133687688Y-99928571D01*
X133687688Y-99928571D02*
X133901974Y-99928571D01*
X133901974Y-99928571D02*
X134044831Y-99857143D01*
X134044831Y-99857143D02*
X134116260Y-99785714D01*
X134116260Y-99785714D02*
X134187688Y-99642857D01*
X134187688Y-99642857D02*
X134187688Y-99071428D01*
X134187688Y-99071428D02*
X132687688Y-99071428D01*
X132687688Y-99071428D02*
X132687688Y-99571428D01*
X132687688Y-99571428D02*
X132759117Y-99714286D01*
X132759117Y-99714286D02*
X132830545Y-99785714D01*
X132830545Y-99785714D02*
X132973402Y-99857143D01*
X132973402Y-99857143D02*
X133116260Y-99857143D01*
X133116260Y-99857143D02*
X133259117Y-99785714D01*
X133259117Y-99785714D02*
X133330545Y-99714286D01*
X133330545Y-99714286D02*
X133401974Y-99571428D01*
X133401974Y-99571428D02*
X133401974Y-99071428D01*
X133616260Y-100571428D02*
X133616260Y-101714286D01*
X133401974Y-102928571D02*
X133473402Y-103142857D01*
X133473402Y-103142857D02*
X133544831Y-103214286D01*
X133544831Y-103214286D02*
X133687688Y-103285714D01*
X133687688Y-103285714D02*
X133901974Y-103285714D01*
X133901974Y-103285714D02*
X134044831Y-103214286D01*
X134044831Y-103214286D02*
X134116260Y-103142857D01*
X134116260Y-103142857D02*
X134187688Y-103000000D01*
X134187688Y-103000000D02*
X134187688Y-102428571D01*
X134187688Y-102428571D02*
X132687688Y-102428571D01*
X132687688Y-102428571D02*
X132687688Y-102928571D01*
X132687688Y-102928571D02*
X132759117Y-103071429D01*
X132759117Y-103071429D02*
X132830545Y-103142857D01*
X132830545Y-103142857D02*
X132973402Y-103214286D01*
X132973402Y-103214286D02*
X133116260Y-103214286D01*
X133116260Y-103214286D02*
X133259117Y-103142857D01*
X133259117Y-103142857D02*
X133330545Y-103071429D01*
X133330545Y-103071429D02*
X133401974Y-102928571D01*
X133401974Y-102928571D02*
X133401974Y-102428571D01*
X133759117Y-103857143D02*
X133759117Y-104571429D01*
X134187688Y-103714286D02*
X132687688Y-104214286D01*
X132687688Y-104214286D02*
X134187688Y-104714286D01*
X134044831Y-106071428D02*
X134116260Y-106000000D01*
X134116260Y-106000000D02*
X134187688Y-105785714D01*
X134187688Y-105785714D02*
X134187688Y-105642857D01*
X134187688Y-105642857D02*
X134116260Y-105428571D01*
X134116260Y-105428571D02*
X133973402Y-105285714D01*
X133973402Y-105285714D02*
X133830545Y-105214285D01*
X133830545Y-105214285D02*
X133544831Y-105142857D01*
X133544831Y-105142857D02*
X133330545Y-105142857D01*
X133330545Y-105142857D02*
X133044831Y-105214285D01*
X133044831Y-105214285D02*
X132901974Y-105285714D01*
X132901974Y-105285714D02*
X132759117Y-105428571D01*
X132759117Y-105428571D02*
X132687688Y-105642857D01*
X132687688Y-105642857D02*
X132687688Y-105785714D01*
X132687688Y-105785714D02*
X132759117Y-106000000D01*
X132759117Y-106000000D02*
X132830545Y-106071428D01*
X134187688Y-106714285D02*
X132687688Y-106714285D01*
X134187688Y-107571428D02*
X133330545Y-106928571D01*
X132687688Y-107571428D02*
X133544831Y-106714285D01*
X129115475Y-115783855D02*
X129115475Y-114983855D01*
X129115475Y-114983855D02*
X128924999Y-114983855D01*
X128924999Y-114983855D02*
X128810713Y-115021950D01*
X128810713Y-115021950D02*
X128734523Y-115098140D01*
X128734523Y-115098140D02*
X128696428Y-115174331D01*
X128696428Y-115174331D02*
X128658332Y-115326712D01*
X128658332Y-115326712D02*
X128658332Y-115440998D01*
X128658332Y-115440998D02*
X128696428Y-115593379D01*
X128696428Y-115593379D02*
X128734523Y-115669569D01*
X128734523Y-115669569D02*
X128810713Y-115745760D01*
X128810713Y-115745760D02*
X128924999Y-115783855D01*
X128924999Y-115783855D02*
X129115475Y-115783855D01*
X128391666Y-114983855D02*
X127896428Y-114983855D01*
X127896428Y-114983855D02*
X128163094Y-115288617D01*
X128163094Y-115288617D02*
X128048809Y-115288617D01*
X128048809Y-115288617D02*
X127972618Y-115326712D01*
X127972618Y-115326712D02*
X127934523Y-115364807D01*
X127934523Y-115364807D02*
X127896428Y-115440998D01*
X127896428Y-115440998D02*
X127896428Y-115631474D01*
X127896428Y-115631474D02*
X127934523Y-115707664D01*
X127934523Y-115707664D02*
X127972618Y-115745760D01*
X127972618Y-115745760D02*
X128048809Y-115783855D01*
X128048809Y-115783855D02*
X128277380Y-115783855D01*
X128277380Y-115783855D02*
X128353571Y-115745760D01*
X128353571Y-115745760D02*
X128391666Y-115707664D01*
X168166666Y-134963855D02*
X168166666Y-135535283D01*
X168166666Y-135535283D02*
X168204761Y-135649569D01*
X168204761Y-135649569D02*
X168280952Y-135725760D01*
X168280952Y-135725760D02*
X168395237Y-135763855D01*
X168395237Y-135763855D02*
X168471428Y-135763855D01*
X167442856Y-134963855D02*
X167595237Y-134963855D01*
X167595237Y-134963855D02*
X167671428Y-135001950D01*
X167671428Y-135001950D02*
X167709523Y-135040045D01*
X167709523Y-135040045D02*
X167785713Y-135154331D01*
X167785713Y-135154331D02*
X167823809Y-135306712D01*
X167823809Y-135306712D02*
X167823809Y-135611474D01*
X167823809Y-135611474D02*
X167785713Y-135687664D01*
X167785713Y-135687664D02*
X167747618Y-135725760D01*
X167747618Y-135725760D02*
X167671428Y-135763855D01*
X167671428Y-135763855D02*
X167519047Y-135763855D01*
X167519047Y-135763855D02*
X167442856Y-135725760D01*
X167442856Y-135725760D02*
X167404761Y-135687664D01*
X167404761Y-135687664D02*
X167366666Y-135611474D01*
X167366666Y-135611474D02*
X167366666Y-135420998D01*
X167366666Y-135420998D02*
X167404761Y-135344807D01*
X167404761Y-135344807D02*
X167442856Y-135306712D01*
X167442856Y-135306712D02*
X167519047Y-135268617D01*
X167519047Y-135268617D02*
X167671428Y-135268617D01*
X167671428Y-135268617D02*
X167747618Y-135306712D01*
X167747618Y-135306712D02*
X167785713Y-135344807D01*
X167785713Y-135344807D02*
X167823809Y-135420998D01*
X137265475Y-114833855D02*
X137265475Y-114033855D01*
X137265475Y-114033855D02*
X137074999Y-114033855D01*
X137074999Y-114033855D02*
X136960713Y-114071950D01*
X136960713Y-114071950D02*
X136884523Y-114148140D01*
X136884523Y-114148140D02*
X136846428Y-114224331D01*
X136846428Y-114224331D02*
X136808332Y-114376712D01*
X136808332Y-114376712D02*
X136808332Y-114490998D01*
X136808332Y-114490998D02*
X136846428Y-114643379D01*
X136846428Y-114643379D02*
X136884523Y-114719569D01*
X136884523Y-114719569D02*
X136960713Y-114795760D01*
X136960713Y-114795760D02*
X137074999Y-114833855D01*
X137074999Y-114833855D02*
X137265475Y-114833855D01*
X136503571Y-114110045D02*
X136465475Y-114071950D01*
X136465475Y-114071950D02*
X136389285Y-114033855D01*
X136389285Y-114033855D02*
X136198809Y-114033855D01*
X136198809Y-114033855D02*
X136122618Y-114071950D01*
X136122618Y-114071950D02*
X136084523Y-114110045D01*
X136084523Y-114110045D02*
X136046428Y-114186236D01*
X136046428Y-114186236D02*
X136046428Y-114262426D01*
X136046428Y-114262426D02*
X136084523Y-114376712D01*
X136084523Y-114376712D02*
X136541666Y-114833855D01*
X136541666Y-114833855D02*
X136046428Y-114833855D01*
X172783142Y-81944807D02*
X173049808Y-81944807D01*
X173049808Y-82363855D02*
X173049808Y-81563855D01*
X173049808Y-81563855D02*
X172668856Y-81563855D01*
X172364094Y-82363855D02*
X172364094Y-81563855D01*
X171983142Y-82363855D02*
X171983142Y-81563855D01*
X171983142Y-81563855D02*
X171792666Y-81563855D01*
X171792666Y-81563855D02*
X171678380Y-81601950D01*
X171678380Y-81601950D02*
X171602190Y-81678140D01*
X171602190Y-81678140D02*
X171564095Y-81754331D01*
X171564095Y-81754331D02*
X171525999Y-81906712D01*
X171525999Y-81906712D02*
X171525999Y-82020998D01*
X171525999Y-82020998D02*
X171564095Y-82173379D01*
X171564095Y-82173379D02*
X171602190Y-82249569D01*
X171602190Y-82249569D02*
X171678380Y-82325760D01*
X171678380Y-82325760D02*
X171792666Y-82363855D01*
X171792666Y-82363855D02*
X171983142Y-82363855D01*
X170802190Y-81563855D02*
X171183142Y-81563855D01*
X171183142Y-81563855D02*
X171221238Y-81944807D01*
X171221238Y-81944807D02*
X171183142Y-81906712D01*
X171183142Y-81906712D02*
X171106952Y-81868617D01*
X171106952Y-81868617D02*
X170916476Y-81868617D01*
X170916476Y-81868617D02*
X170840285Y-81906712D01*
X170840285Y-81906712D02*
X170802190Y-81944807D01*
X170802190Y-81944807D02*
X170764095Y-82020998D01*
X170764095Y-82020998D02*
X170764095Y-82211474D01*
X170764095Y-82211474D02*
X170802190Y-82287664D01*
X170802190Y-82287664D02*
X170840285Y-82325760D01*
X170840285Y-82325760D02*
X170916476Y-82363855D01*
X170916476Y-82363855D02*
X171106952Y-82363855D01*
X171106952Y-82363855D02*
X171183142Y-82325760D01*
X171183142Y-82325760D02*
X171221238Y-82287664D01*
X136733332Y-112907664D02*
X136771428Y-112945760D01*
X136771428Y-112945760D02*
X136885713Y-112983855D01*
X136885713Y-112983855D02*
X136961904Y-112983855D01*
X136961904Y-112983855D02*
X137076190Y-112945760D01*
X137076190Y-112945760D02*
X137152380Y-112869569D01*
X137152380Y-112869569D02*
X137190475Y-112793379D01*
X137190475Y-112793379D02*
X137228571Y-112640998D01*
X137228571Y-112640998D02*
X137228571Y-112526712D01*
X137228571Y-112526712D02*
X137190475Y-112374331D01*
X137190475Y-112374331D02*
X137152380Y-112298140D01*
X137152380Y-112298140D02*
X137076190Y-112221950D01*
X137076190Y-112221950D02*
X136961904Y-112183855D01*
X136961904Y-112183855D02*
X136885713Y-112183855D01*
X136885713Y-112183855D02*
X136771428Y-112221950D01*
X136771428Y-112221950D02*
X136733332Y-112260045D01*
X136428571Y-112260045D02*
X136390475Y-112221950D01*
X136390475Y-112221950D02*
X136314285Y-112183855D01*
X136314285Y-112183855D02*
X136123809Y-112183855D01*
X136123809Y-112183855D02*
X136047618Y-112221950D01*
X136047618Y-112221950D02*
X136009523Y-112260045D01*
X136009523Y-112260045D02*
X135971428Y-112336236D01*
X135971428Y-112336236D02*
X135971428Y-112412426D01*
X135971428Y-112412426D02*
X136009523Y-112526712D01*
X136009523Y-112526712D02*
X136466666Y-112983855D01*
X136466666Y-112983855D02*
X135971428Y-112983855D01*
X129057142Y-87782807D02*
X129323808Y-87782807D01*
X129323808Y-88201855D02*
X129323808Y-87401855D01*
X129323808Y-87401855D02*
X128942856Y-87401855D01*
X128638094Y-88201855D02*
X128638094Y-87401855D01*
X128257142Y-88201855D02*
X128257142Y-87401855D01*
X128257142Y-87401855D02*
X128066666Y-87401855D01*
X128066666Y-87401855D02*
X127952380Y-87439950D01*
X127952380Y-87439950D02*
X127876190Y-87516140D01*
X127876190Y-87516140D02*
X127838095Y-87592331D01*
X127838095Y-87592331D02*
X127799999Y-87744712D01*
X127799999Y-87744712D02*
X127799999Y-87858998D01*
X127799999Y-87858998D02*
X127838095Y-88011379D01*
X127838095Y-88011379D02*
X127876190Y-88087569D01*
X127876190Y-88087569D02*
X127952380Y-88163760D01*
X127952380Y-88163760D02*
X128066666Y-88201855D01*
X128066666Y-88201855D02*
X128257142Y-88201855D01*
X127114285Y-87668521D02*
X127114285Y-88201855D01*
X127304761Y-87363760D02*
X127495238Y-87935188D01*
X127495238Y-87935188D02*
X126999999Y-87935188D01*
X124558332Y-112682664D02*
X124596428Y-112720760D01*
X124596428Y-112720760D02*
X124710713Y-112758855D01*
X124710713Y-112758855D02*
X124786904Y-112758855D01*
X124786904Y-112758855D02*
X124901190Y-112720760D01*
X124901190Y-112720760D02*
X124977380Y-112644569D01*
X124977380Y-112644569D02*
X125015475Y-112568379D01*
X125015475Y-112568379D02*
X125053571Y-112415998D01*
X125053571Y-112415998D02*
X125053571Y-112301712D01*
X125053571Y-112301712D02*
X125015475Y-112149331D01*
X125015475Y-112149331D02*
X124977380Y-112073140D01*
X124977380Y-112073140D02*
X124901190Y-111996950D01*
X124901190Y-111996950D02*
X124786904Y-111958855D01*
X124786904Y-111958855D02*
X124710713Y-111958855D01*
X124710713Y-111958855D02*
X124596428Y-111996950D01*
X124596428Y-111996950D02*
X124558332Y-112035045D01*
X124291666Y-111958855D02*
X123796428Y-111958855D01*
X123796428Y-111958855D02*
X124063094Y-112263617D01*
X124063094Y-112263617D02*
X123948809Y-112263617D01*
X123948809Y-112263617D02*
X123872618Y-112301712D01*
X123872618Y-112301712D02*
X123834523Y-112339807D01*
X123834523Y-112339807D02*
X123796428Y-112415998D01*
X123796428Y-112415998D02*
X123796428Y-112606474D01*
X123796428Y-112606474D02*
X123834523Y-112682664D01*
X123834523Y-112682664D02*
X123872618Y-112720760D01*
X123872618Y-112720760D02*
X123948809Y-112758855D01*
X123948809Y-112758855D02*
X124177380Y-112758855D01*
X124177380Y-112758855D02*
X124253571Y-112720760D01*
X124253571Y-112720760D02*
X124291666Y-112682664D01*
X168166666Y-127263855D02*
X168166666Y-127835283D01*
X168166666Y-127835283D02*
X168204761Y-127949569D01*
X168204761Y-127949569D02*
X168280952Y-128025760D01*
X168280952Y-128025760D02*
X168395237Y-128063855D01*
X168395237Y-128063855D02*
X168471428Y-128063855D01*
X167861904Y-127263855D02*
X167366666Y-127263855D01*
X167366666Y-127263855D02*
X167633332Y-127568617D01*
X167633332Y-127568617D02*
X167519047Y-127568617D01*
X167519047Y-127568617D02*
X167442856Y-127606712D01*
X167442856Y-127606712D02*
X167404761Y-127644807D01*
X167404761Y-127644807D02*
X167366666Y-127720998D01*
X167366666Y-127720998D02*
X167366666Y-127911474D01*
X167366666Y-127911474D02*
X167404761Y-127987664D01*
X167404761Y-127987664D02*
X167442856Y-128025760D01*
X167442856Y-128025760D02*
X167519047Y-128063855D01*
X167519047Y-128063855D02*
X167747618Y-128063855D01*
X167747618Y-128063855D02*
X167823809Y-128025760D01*
X167823809Y-128025760D02*
X167861904Y-127987664D01*
X136932475Y-100057855D02*
X136932475Y-99257855D01*
X136475332Y-100057855D02*
X136818190Y-99600712D01*
X136475332Y-99257855D02*
X136932475Y-99714998D01*
X135713428Y-100057855D02*
X136170571Y-100057855D01*
X135941999Y-100057855D02*
X135941999Y-99257855D01*
X135941999Y-99257855D02*
X136018190Y-99372140D01*
X136018190Y-99372140D02*
X136094380Y-99448331D01*
X136094380Y-99448331D02*
X136170571Y-99486426D01*
X127265475Y-109363855D02*
X127265475Y-108563855D01*
X127265475Y-108563855D02*
X127074999Y-108563855D01*
X127074999Y-108563855D02*
X126960713Y-108601950D01*
X126960713Y-108601950D02*
X126884523Y-108678140D01*
X126884523Y-108678140D02*
X126846428Y-108754331D01*
X126846428Y-108754331D02*
X126808332Y-108906712D01*
X126808332Y-108906712D02*
X126808332Y-109020998D01*
X126808332Y-109020998D02*
X126846428Y-109173379D01*
X126846428Y-109173379D02*
X126884523Y-109249569D01*
X126884523Y-109249569D02*
X126960713Y-109325760D01*
X126960713Y-109325760D02*
X127074999Y-109363855D01*
X127074999Y-109363855D02*
X127265475Y-109363855D01*
X126122618Y-108563855D02*
X126274999Y-108563855D01*
X126274999Y-108563855D02*
X126351190Y-108601950D01*
X126351190Y-108601950D02*
X126389285Y-108640045D01*
X126389285Y-108640045D02*
X126465475Y-108754331D01*
X126465475Y-108754331D02*
X126503571Y-108906712D01*
X126503571Y-108906712D02*
X126503571Y-109211474D01*
X126503571Y-109211474D02*
X126465475Y-109287664D01*
X126465475Y-109287664D02*
X126427380Y-109325760D01*
X126427380Y-109325760D02*
X126351190Y-109363855D01*
X126351190Y-109363855D02*
X126198809Y-109363855D01*
X126198809Y-109363855D02*
X126122618Y-109325760D01*
X126122618Y-109325760D02*
X126084523Y-109287664D01*
X126084523Y-109287664D02*
X126046428Y-109211474D01*
X126046428Y-109211474D02*
X126046428Y-109020998D01*
X126046428Y-109020998D02*
X126084523Y-108944807D01*
X126084523Y-108944807D02*
X126122618Y-108906712D01*
X126122618Y-108906712D02*
X126198809Y-108868617D01*
X126198809Y-108868617D02*
X126351190Y-108868617D01*
X126351190Y-108868617D02*
X126427380Y-108906712D01*
X126427380Y-108906712D02*
X126465475Y-108944807D01*
X126465475Y-108944807D02*
X126503571Y-109020998D01*
X169643855Y-117435714D02*
X169262902Y-117169047D01*
X169643855Y-116978571D02*
X168843855Y-116978571D01*
X168843855Y-116978571D02*
X168843855Y-117283333D01*
X168843855Y-117283333D02*
X168881950Y-117359523D01*
X168881950Y-117359523D02*
X168920045Y-117397618D01*
X168920045Y-117397618D02*
X168996236Y-117435714D01*
X168996236Y-117435714D02*
X169110521Y-117435714D01*
X169110521Y-117435714D02*
X169186712Y-117397618D01*
X169186712Y-117397618D02*
X169224807Y-117359523D01*
X169224807Y-117359523D02*
X169262902Y-117283333D01*
X169262902Y-117283333D02*
X169262902Y-116978571D01*
X168843855Y-117702380D02*
X168843855Y-118197618D01*
X168843855Y-118197618D02*
X169148617Y-117930952D01*
X169148617Y-117930952D02*
X169148617Y-118045237D01*
X169148617Y-118045237D02*
X169186712Y-118121428D01*
X169186712Y-118121428D02*
X169224807Y-118159523D01*
X169224807Y-118159523D02*
X169300998Y-118197618D01*
X169300998Y-118197618D02*
X169491474Y-118197618D01*
X169491474Y-118197618D02*
X169567664Y-118159523D01*
X169567664Y-118159523D02*
X169605760Y-118121428D01*
X169605760Y-118121428D02*
X169643855Y-118045237D01*
X169643855Y-118045237D02*
X169643855Y-117816666D01*
X169643855Y-117816666D02*
X169605760Y-117740475D01*
X169605760Y-117740475D02*
X169567664Y-117702380D01*
X169643855Y-118959523D02*
X169643855Y-118502380D01*
X169643855Y-118730952D02*
X168843855Y-118730952D01*
X168843855Y-118730952D02*
X168958140Y-118654761D01*
X168958140Y-118654761D02*
X169034331Y-118578571D01*
X169034331Y-118578571D02*
X169072426Y-118502380D01*
X143661855Y-108309524D02*
X142861855Y-108309524D01*
X142861855Y-108309524D02*
X142861855Y-108500000D01*
X142861855Y-108500000D02*
X142899950Y-108614286D01*
X142899950Y-108614286D02*
X142976140Y-108690476D01*
X142976140Y-108690476D02*
X143052331Y-108728571D01*
X143052331Y-108728571D02*
X143204712Y-108766667D01*
X143204712Y-108766667D02*
X143318998Y-108766667D01*
X143318998Y-108766667D02*
X143471379Y-108728571D01*
X143471379Y-108728571D02*
X143547569Y-108690476D01*
X143547569Y-108690476D02*
X143623760Y-108614286D01*
X143623760Y-108614286D02*
X143661855Y-108500000D01*
X143661855Y-108500000D02*
X143661855Y-108309524D01*
X142861855Y-109033333D02*
X142861855Y-109566667D01*
X142861855Y-109566667D02*
X143661855Y-109223809D01*
D11*
X155333332Y-125254819D02*
X155333332Y-124254819D01*
X155333332Y-124254819D02*
X154999999Y-124969104D01*
X154999999Y-124969104D02*
X154666666Y-124254819D01*
X154666666Y-124254819D02*
X154666666Y-125254819D01*
X154190475Y-125254819D02*
X154190475Y-124254819D01*
X154190475Y-124731009D02*
X153619047Y-124731009D01*
X153619047Y-125254819D02*
X153619047Y-124254819D01*
X153238094Y-124254819D02*
X152619047Y-124254819D01*
X152619047Y-124254819D02*
X152952380Y-124635771D01*
X152952380Y-124635771D02*
X152809523Y-124635771D01*
X152809523Y-124635771D02*
X152714285Y-124683390D01*
X152714285Y-124683390D02*
X152666666Y-124731009D01*
X152666666Y-124731009D02*
X152619047Y-124826247D01*
X152619047Y-124826247D02*
X152619047Y-125064342D01*
X152619047Y-125064342D02*
X152666666Y-125159580D01*
X152666666Y-125159580D02*
X152714285Y-125207200D01*
X152714285Y-125207200D02*
X152809523Y-125254819D01*
X152809523Y-125254819D02*
X153095237Y-125254819D01*
X153095237Y-125254819D02*
X153190475Y-125207200D01*
X153190475Y-125207200D02*
X153238094Y-125159580D01*
D10*
X172914285Y-111783855D02*
X173180952Y-111402902D01*
X173371428Y-111783855D02*
X173371428Y-110983855D01*
X173371428Y-110983855D02*
X173066666Y-110983855D01*
X173066666Y-110983855D02*
X172990476Y-111021950D01*
X172990476Y-111021950D02*
X172952381Y-111060045D01*
X172952381Y-111060045D02*
X172914285Y-111136236D01*
X172914285Y-111136236D02*
X172914285Y-111250521D01*
X172914285Y-111250521D02*
X172952381Y-111326712D01*
X172952381Y-111326712D02*
X172990476Y-111364807D01*
X172990476Y-111364807D02*
X173066666Y-111402902D01*
X173066666Y-111402902D02*
X173371428Y-111402902D01*
X172647619Y-110983855D02*
X172152381Y-110983855D01*
X172152381Y-110983855D02*
X172419047Y-111288617D01*
X172419047Y-111288617D02*
X172304762Y-111288617D01*
X172304762Y-111288617D02*
X172228571Y-111326712D01*
X172228571Y-111326712D02*
X172190476Y-111364807D01*
X172190476Y-111364807D02*
X172152381Y-111440998D01*
X172152381Y-111440998D02*
X172152381Y-111631474D01*
X172152381Y-111631474D02*
X172190476Y-111707664D01*
X172190476Y-111707664D02*
X172228571Y-111745760D01*
X172228571Y-111745760D02*
X172304762Y-111783855D01*
X172304762Y-111783855D02*
X172533333Y-111783855D01*
X172533333Y-111783855D02*
X172609524Y-111745760D01*
X172609524Y-111745760D02*
X172647619Y-111707664D01*
X171466666Y-111250521D02*
X171466666Y-111783855D01*
X171657142Y-110945760D02*
X171847619Y-111517188D01*
X171847619Y-111517188D02*
X171352380Y-111517188D01*
X177264285Y-126157664D02*
X177302381Y-126195760D01*
X177302381Y-126195760D02*
X177416666Y-126233855D01*
X177416666Y-126233855D02*
X177492857Y-126233855D01*
X177492857Y-126233855D02*
X177607143Y-126195760D01*
X177607143Y-126195760D02*
X177683333Y-126119569D01*
X177683333Y-126119569D02*
X177721428Y-126043379D01*
X177721428Y-126043379D02*
X177759524Y-125890998D01*
X177759524Y-125890998D02*
X177759524Y-125776712D01*
X177759524Y-125776712D02*
X177721428Y-125624331D01*
X177721428Y-125624331D02*
X177683333Y-125548140D01*
X177683333Y-125548140D02*
X177607143Y-125471950D01*
X177607143Y-125471950D02*
X177492857Y-125433855D01*
X177492857Y-125433855D02*
X177416666Y-125433855D01*
X177416666Y-125433855D02*
X177302381Y-125471950D01*
X177302381Y-125471950D02*
X177264285Y-125510045D01*
X176578571Y-125700521D02*
X176578571Y-126233855D01*
X176769047Y-125395760D02*
X176959524Y-125967188D01*
X176959524Y-125967188D02*
X176464285Y-125967188D01*
X175816666Y-125700521D02*
X175816666Y-126233855D01*
X176007142Y-125395760D02*
X176197619Y-125967188D01*
X176197619Y-125967188D02*
X175702380Y-125967188D01*
X173214285Y-126267664D02*
X173252381Y-126305760D01*
X173252381Y-126305760D02*
X173366666Y-126343855D01*
X173366666Y-126343855D02*
X173442857Y-126343855D01*
X173442857Y-126343855D02*
X173557143Y-126305760D01*
X173557143Y-126305760D02*
X173633333Y-126229569D01*
X173633333Y-126229569D02*
X173671428Y-126153379D01*
X173671428Y-126153379D02*
X173709524Y-126000998D01*
X173709524Y-126000998D02*
X173709524Y-125886712D01*
X173709524Y-125886712D02*
X173671428Y-125734331D01*
X173671428Y-125734331D02*
X173633333Y-125658140D01*
X173633333Y-125658140D02*
X173557143Y-125581950D01*
X173557143Y-125581950D02*
X173442857Y-125543855D01*
X173442857Y-125543855D02*
X173366666Y-125543855D01*
X173366666Y-125543855D02*
X173252381Y-125581950D01*
X173252381Y-125581950D02*
X173214285Y-125620045D01*
X172528571Y-125810521D02*
X172528571Y-126343855D01*
X172719047Y-125505760D02*
X172909524Y-126077188D01*
X172909524Y-126077188D02*
X172414285Y-126077188D01*
X171728571Y-125543855D02*
X172109523Y-125543855D01*
X172109523Y-125543855D02*
X172147619Y-125924807D01*
X172147619Y-125924807D02*
X172109523Y-125886712D01*
X172109523Y-125886712D02*
X172033333Y-125848617D01*
X172033333Y-125848617D02*
X171842857Y-125848617D01*
X171842857Y-125848617D02*
X171766666Y-125886712D01*
X171766666Y-125886712D02*
X171728571Y-125924807D01*
X171728571Y-125924807D02*
X171690476Y-126000998D01*
X171690476Y-126000998D02*
X171690476Y-126191474D01*
X171690476Y-126191474D02*
X171728571Y-126267664D01*
X171728571Y-126267664D02*
X171766666Y-126305760D01*
X171766666Y-126305760D02*
X171842857Y-126343855D01*
X171842857Y-126343855D02*
X172033333Y-126343855D01*
X172033333Y-126343855D02*
X172109523Y-126305760D01*
X172109523Y-126305760D02*
X172147619Y-126267664D01*
X172257142Y-135644807D02*
X172523808Y-135644807D01*
X172523808Y-136063855D02*
X172523808Y-135263855D01*
X172523808Y-135263855D02*
X172142856Y-135263855D01*
X171838094Y-136063855D02*
X171838094Y-135263855D01*
X171457142Y-136063855D02*
X171457142Y-135263855D01*
X171457142Y-135263855D02*
X171266666Y-135263855D01*
X171266666Y-135263855D02*
X171152380Y-135301950D01*
X171152380Y-135301950D02*
X171076190Y-135378140D01*
X171076190Y-135378140D02*
X171038095Y-135454331D01*
X171038095Y-135454331D02*
X170999999Y-135606712D01*
X170999999Y-135606712D02*
X170999999Y-135720998D01*
X170999999Y-135720998D02*
X171038095Y-135873379D01*
X171038095Y-135873379D02*
X171076190Y-135949569D01*
X171076190Y-135949569D02*
X171152380Y-136025760D01*
X171152380Y-136025760D02*
X171266666Y-136063855D01*
X171266666Y-136063855D02*
X171457142Y-136063855D01*
X170314285Y-135263855D02*
X170466666Y-135263855D01*
X170466666Y-135263855D02*
X170542857Y-135301950D01*
X170542857Y-135301950D02*
X170580952Y-135340045D01*
X170580952Y-135340045D02*
X170657142Y-135454331D01*
X170657142Y-135454331D02*
X170695238Y-135606712D01*
X170695238Y-135606712D02*
X170695238Y-135911474D01*
X170695238Y-135911474D02*
X170657142Y-135987664D01*
X170657142Y-135987664D02*
X170619047Y-136025760D01*
X170619047Y-136025760D02*
X170542857Y-136063855D01*
X170542857Y-136063855D02*
X170390476Y-136063855D01*
X170390476Y-136063855D02*
X170314285Y-136025760D01*
X170314285Y-136025760D02*
X170276190Y-135987664D01*
X170276190Y-135987664D02*
X170238095Y-135911474D01*
X170238095Y-135911474D02*
X170238095Y-135720998D01*
X170238095Y-135720998D02*
X170276190Y-135644807D01*
X170276190Y-135644807D02*
X170314285Y-135606712D01*
X170314285Y-135606712D02*
X170390476Y-135568617D01*
X170390476Y-135568617D02*
X170542857Y-135568617D01*
X170542857Y-135568617D02*
X170619047Y-135606712D01*
X170619047Y-135606712D02*
X170657142Y-135644807D01*
X170657142Y-135644807D02*
X170695238Y-135720998D01*
X176640475Y-112763855D02*
X176640475Y-113411474D01*
X176640475Y-113411474D02*
X176602380Y-113487664D01*
X176602380Y-113487664D02*
X176564285Y-113525760D01*
X176564285Y-113525760D02*
X176488094Y-113563855D01*
X176488094Y-113563855D02*
X176335713Y-113563855D01*
X176335713Y-113563855D02*
X176259523Y-113525760D01*
X176259523Y-113525760D02*
X176221428Y-113487664D01*
X176221428Y-113487664D02*
X176183332Y-113411474D01*
X176183332Y-113411474D02*
X176183332Y-112763855D01*
X175383333Y-113563855D02*
X175840476Y-113563855D01*
X175611904Y-113563855D02*
X175611904Y-112763855D01*
X175611904Y-112763855D02*
X175688095Y-112878140D01*
X175688095Y-112878140D02*
X175764285Y-112954331D01*
X175764285Y-112954331D02*
X175840476Y-112992426D01*
X174621428Y-113563855D02*
X175078571Y-113563855D01*
X174849999Y-113563855D02*
X174849999Y-112763855D01*
X174849999Y-112763855D02*
X174926190Y-112878140D01*
X174926190Y-112878140D02*
X175002380Y-112954331D01*
X175002380Y-112954331D02*
X175078571Y-112992426D01*
X127125000Y-113115000D02*
X129410000Y-113115000D01*
X129410000Y-113115000D02*
X129410000Y-114585000D01*
X129410000Y-114585000D02*
X127125000Y-114585000D01*
D11*
X159311803Y-137450000D02*
G75*
G02*
X159088197Y-137450000I-111803J0D01*
G01*
X159088197Y-137450000D02*
G75*
G02*
X159311803Y-137450000I111803J0D01*
G01*
D10*
X133275000Y-113665000D02*
X135560000Y-113665000D01*
X135560000Y-113665000D02*
X135560000Y-115135000D01*
X135560000Y-115135000D02*
X133275000Y-115135000D01*
X134240580Y-112040000D02*
X133959420Y-112040000D01*
X134240580Y-113060000D02*
X133959420Y-113060000D01*
X124565580Y-113315000D02*
X124284420Y-113315000D01*
X124565580Y-114335000D02*
X124284420Y-114335000D01*
D11*
X159311803Y-129750000D02*
G75*
G02*
X159088197Y-129750000I-111803J0D01*
G01*
X159088197Y-129750000D02*
G75*
G02*
X159311803Y-129750000I111803J0D01*
G01*
D10*
X125850000Y-109900000D02*
X129750000Y-109900000D01*
X125850000Y-111900000D02*
X125850000Y-109900000D01*
X125850000Y-111900000D02*
X129750000Y-111900000D01*
X168627500Y-121087258D02*
X168627500Y-120612742D01*
X169672500Y-121087258D02*
X169672500Y-120612742D01*
X140700000Y-111050000D02*
X140700000Y-107150000D01*
X142700000Y-111050000D02*
X140700000Y-111050000D01*
X142700000Y-111050000D02*
X142700000Y-107150000D01*
D12*
X152026475Y-74559764D02*
X152040941Y-74621877D01*
X152054241Y-74717248D01*
X152055128Y-74725484D01*
X152066343Y-74811758D01*
X152081873Y-74857960D01*
X152110534Y-74877982D01*
X152161141Y-74885716D01*
X152211753Y-74895635D01*
X152247211Y-74916659D01*
X152241108Y-74937062D01*
X152188750Y-74946510D01*
X152131990Y-74952890D01*
X152084885Y-74982662D01*
X152055165Y-75046516D01*
X152035052Y-75155005D01*
X152013220Y-75318804D01*
X151991199Y-75153152D01*
X151973463Y-75050600D01*
X151947519Y-74985783D01*
X151906350Y-74954755D01*
X151842012Y-74946510D01*
X151806543Y-74942242D01*
X151793404Y-74925112D01*
X151822360Y-74902339D01*
X151887643Y-74882069D01*
X151922138Y-74870359D01*
X151968748Y-74823532D01*
X151994487Y-74738085D01*
X152002391Y-74606730D01*
X152004682Y-74557980D01*
X152013503Y-74536576D01*
X152026475Y-74559764D01*
G36*
X152026475Y-74559764D02*
G01*
X152040941Y-74621877D01*
X152054241Y-74717248D01*
X152055128Y-74725484D01*
X152066343Y-74811758D01*
X152081873Y-74857960D01*
X152110534Y-74877982D01*
X152161141Y-74885716D01*
X152211753Y-74895635D01*
X152247211Y-74916659D01*
X152241108Y-74937062D01*
X152188750Y-74946510D01*
X152131990Y-74952890D01*
X152084885Y-74982662D01*
X152055165Y-75046516D01*
X152035052Y-75155005D01*
X152013220Y-75318804D01*
X151991199Y-75153152D01*
X151973463Y-75050600D01*
X151947519Y-74985783D01*
X151906350Y-74954755D01*
X151842012Y-74946510D01*
X151806543Y-74942242D01*
X151793404Y-74925112D01*
X151822360Y-74902339D01*
X151887643Y-74882069D01*
X151922138Y-74870359D01*
X151968748Y-74823532D01*
X151994487Y-74738085D01*
X152002391Y-74606730D01*
X152004682Y-74557980D01*
X152013503Y-74536576D01*
X152026475Y-74559764D01*
G37*
X152079005Y-71511031D02*
X152247525Y-71519302D01*
X152403271Y-71533667D01*
X152526956Y-71553367D01*
X152690512Y-71611813D01*
X152827874Y-71712215D01*
X152925831Y-71847498D01*
X152980794Y-72012623D01*
X152989176Y-72202549D01*
X152983589Y-72258103D01*
X152960771Y-72378107D01*
X152920121Y-72489120D01*
X152856304Y-72599478D01*
X152763988Y-72717516D01*
X152637837Y-72851570D01*
X152472518Y-73009977D01*
X152463801Y-73018074D01*
X152302117Y-73168869D01*
X152175794Y-73288350D01*
X152079488Y-73381969D01*
X152007855Y-73455182D01*
X151955551Y-73513440D01*
X151917231Y-73562198D01*
X151887551Y-73606909D01*
X151865757Y-73649147D01*
X151838382Y-73772289D01*
X151855616Y-73894722D01*
X151913760Y-74002052D01*
X152009114Y-74079890D01*
X152099415Y-74111611D01*
X152246306Y-74125819D01*
X152407283Y-74109408D01*
X152565603Y-74064467D01*
X152704524Y-73993086D01*
X152734445Y-73974141D01*
X152796195Y-73944105D01*
X152832550Y-73939543D01*
X152839044Y-73947423D01*
X152852786Y-73997823D01*
X152858260Y-74074344D01*
X152858260Y-74193256D01*
X152644293Y-74272351D01*
X152627215Y-74278535D01*
X152441121Y-74330019D01*
X152263866Y-74351824D01*
X152107635Y-74343367D01*
X151984614Y-74304060D01*
X151873106Y-74226926D01*
X151751697Y-74100190D01*
X151664505Y-73957529D01*
X151664424Y-73957346D01*
X151632922Y-73862067D01*
X151625565Y-73766137D01*
X151645013Y-73664661D01*
X151693927Y-73552741D01*
X151774965Y-73425479D01*
X151890788Y-73277979D01*
X152044056Y-73105342D01*
X152237428Y-72902672D01*
X152279112Y-72859800D01*
X152403435Y-72729360D01*
X152514824Y-72608778D01*
X152606748Y-72505346D01*
X152672677Y-72426361D01*
X152706082Y-72379117D01*
X152739773Y-72287822D01*
X152756120Y-72160543D01*
X152743648Y-72038803D01*
X152702528Y-71943486D01*
X152620200Y-71871664D01*
X152488893Y-71815507D01*
X152317023Y-71780064D01*
X152110666Y-71767145D01*
X152001884Y-71769992D01*
X151816433Y-71797252D01*
X151674641Y-71855064D01*
X151573626Y-71945565D01*
X151510506Y-72070892D01*
X151482403Y-72233181D01*
X151474628Y-72322495D01*
X151458239Y-72378262D01*
X151424254Y-72393331D01*
X151363011Y-72371387D01*
X151264847Y-72316114D01*
X151226481Y-72292579D01*
X151188773Y-72257888D01*
X151178527Y-72211766D01*
X151186560Y-72132697D01*
X151220773Y-71983158D01*
X151300992Y-71811742D01*
X151416244Y-71673510D01*
X151560916Y-71574779D01*
X151729394Y-71521865D01*
X151780789Y-71515825D01*
X151916997Y-71509619D01*
X152079005Y-71511031D01*
G36*
X152079005Y-71511031D02*
G01*
X152247525Y-71519302D01*
X152403271Y-71533667D01*
X152526956Y-71553367D01*
X152690512Y-71611813D01*
X152827874Y-71712215D01*
X152925831Y-71847498D01*
X152980794Y-72012623D01*
X152989176Y-72202549D01*
X152983589Y-72258103D01*
X152960771Y-72378107D01*
X152920121Y-72489120D01*
X152856304Y-72599478D01*
X152763988Y-72717516D01*
X152637837Y-72851570D01*
X152472518Y-73009977D01*
X152463801Y-73018074D01*
X152302117Y-73168869D01*
X152175794Y-73288350D01*
X152079488Y-73381969D01*
X152007855Y-73455182D01*
X151955551Y-73513440D01*
X151917231Y-73562198D01*
X151887551Y-73606909D01*
X151865757Y-73649147D01*
X151838382Y-73772289D01*
X151855616Y-73894722D01*
X151913760Y-74002052D01*
X152009114Y-74079890D01*
X152099415Y-74111611D01*
X152246306Y-74125819D01*
X152407283Y-74109408D01*
X152565603Y-74064467D01*
X152704524Y-73993086D01*
X152734445Y-73974141D01*
X152796195Y-73944105D01*
X152832550Y-73939543D01*
X152839044Y-73947423D01*
X152852786Y-73997823D01*
X152858260Y-74074344D01*
X152858260Y-74193256D01*
X152644293Y-74272351D01*
X152627215Y-74278535D01*
X152441121Y-74330019D01*
X152263866Y-74351824D01*
X152107635Y-74343367D01*
X151984614Y-74304060D01*
X151873106Y-74226926D01*
X151751697Y-74100190D01*
X151664505Y-73957529D01*
X151664424Y-73957346D01*
X151632922Y-73862067D01*
X151625565Y-73766137D01*
X151645013Y-73664661D01*
X151693927Y-73552741D01*
X151774965Y-73425479D01*
X151890788Y-73277979D01*
X152044056Y-73105342D01*
X152237428Y-72902672D01*
X152279112Y-72859800D01*
X152403435Y-72729360D01*
X152514824Y-72608778D01*
X152606748Y-72505346D01*
X152672677Y-72426361D01*
X152706082Y-72379117D01*
X152739773Y-72287822D01*
X152756120Y-72160543D01*
X152743648Y-72038803D01*
X152702528Y-71943486D01*
X152620200Y-71871664D01*
X152488893Y-71815507D01*
X152317023Y-71780064D01*
X152110666Y-71767145D01*
X152001884Y-71769992D01*
X151816433Y-71797252D01*
X151674641Y-71855064D01*
X151573626Y-71945565D01*
X151510506Y-72070892D01*
X151482403Y-72233181D01*
X151474628Y-72322495D01*
X151458239Y-72378262D01*
X151424254Y-72393331D01*
X151363011Y-72371387D01*
X151264847Y-72316114D01*
X151226481Y-72292579D01*
X151188773Y-72257888D01*
X151178527Y-72211766D01*
X151186560Y-72132697D01*
X151220773Y-71983158D01*
X151300992Y-71811742D01*
X151416244Y-71673510D01*
X151560916Y-71574779D01*
X151729394Y-71521865D01*
X151780789Y-71515825D01*
X151916997Y-71509619D01*
X152079005Y-71511031D01*
G37*
X154539723Y-71529038D02*
X155218804Y-71536413D01*
X155227094Y-71695497D01*
X155228829Y-71743875D01*
X155221552Y-71827977D01*
X155190606Y-71869896D01*
X155126833Y-71876754D01*
X155021077Y-71855668D01*
X155018928Y-71855137D01*
X154939885Y-71841473D01*
X154821868Y-71827890D01*
X154680473Y-71815934D01*
X154531294Y-71807149D01*
X154389111Y-71801060D01*
X154270365Y-71800073D01*
X154190039Y-71810274D01*
X154139182Y-71836671D01*
X154108844Y-71884273D01*
X154090075Y-71958091D01*
X154073925Y-72063132D01*
X154061808Y-72163562D01*
X154049762Y-72303275D01*
X154039889Y-72459904D01*
X154032480Y-72623168D01*
X154027823Y-72782783D01*
X154026208Y-72928469D01*
X154027925Y-73049944D01*
X154033263Y-73136925D01*
X154042511Y-73179130D01*
X154049022Y-73186610D01*
X154081521Y-73203116D01*
X154141899Y-73213535D01*
X154239245Y-73218976D01*
X154382650Y-73220543D01*
X154694239Y-73220543D01*
X154719069Y-73321026D01*
X154735373Y-73418781D01*
X154721078Y-73478879D01*
X154669827Y-73503512D01*
X154576357Y-73499254D01*
X154392564Y-73473931D01*
X154247579Y-73459248D01*
X154144065Y-73461018D01*
X154075271Y-73483719D01*
X154034447Y-73531827D01*
X154014843Y-73609819D01*
X154009709Y-73722171D01*
X154012296Y-73873361D01*
X154013775Y-73934961D01*
X154019141Y-74089135D01*
X154031155Y-74199920D01*
X154056712Y-74276178D01*
X154102705Y-74326769D01*
X154176028Y-74360554D01*
X154283576Y-74386395D01*
X154432240Y-74413152D01*
X154571540Y-74435906D01*
X154714674Y-74455951D01*
X154837079Y-74469780D01*
X154922010Y-74475271D01*
X154937828Y-74475491D01*
X155018071Y-74480842D01*
X155057763Y-74495944D01*
X155069516Y-74525054D01*
X155070363Y-74573724D01*
X155068731Y-74652621D01*
X155065015Y-74734377D01*
X155060139Y-74799635D01*
X155055025Y-74829038D01*
X155038477Y-74827654D01*
X154975842Y-74816666D01*
X154875062Y-74796875D01*
X154745125Y-74770060D01*
X154595020Y-74738001D01*
X154500400Y-74717587D01*
X154337426Y-74682885D01*
X154188206Y-74651651D01*
X154066132Y-74626675D01*
X153984598Y-74610750D01*
X153827131Y-74581726D01*
X153807775Y-74453308D01*
X153807346Y-74450151D01*
X153803763Y-74389374D01*
X153801497Y-74281110D01*
X153800455Y-74132377D01*
X153800542Y-73950196D01*
X153801666Y-73741584D01*
X153803730Y-73513562D01*
X153806643Y-73273149D01*
X153810309Y-73027362D01*
X153814634Y-72783223D01*
X153819526Y-72547749D01*
X153824889Y-72327960D01*
X153830629Y-72130875D01*
X153836653Y-71963513D01*
X153842867Y-71832893D01*
X153860643Y-71521662D01*
X154539723Y-71529038D01*
G36*
X154539723Y-71529038D02*
G01*
X155218804Y-71536413D01*
X155227094Y-71695497D01*
X155228829Y-71743875D01*
X155221552Y-71827977D01*
X155190606Y-71869896D01*
X155126833Y-71876754D01*
X155021077Y-71855668D01*
X155018928Y-71855137D01*
X154939885Y-71841473D01*
X154821868Y-71827890D01*
X154680473Y-71815934D01*
X154531294Y-71807149D01*
X154389111Y-71801060D01*
X154270365Y-71800073D01*
X154190039Y-71810274D01*
X154139182Y-71836671D01*
X154108844Y-71884273D01*
X154090075Y-71958091D01*
X154073925Y-72063132D01*
X154061808Y-72163562D01*
X154049762Y-72303275D01*
X154039889Y-72459904D01*
X154032480Y-72623168D01*
X154027823Y-72782783D01*
X154026208Y-72928469D01*
X154027925Y-73049944D01*
X154033263Y-73136925D01*
X154042511Y-73179130D01*
X154049022Y-73186610D01*
X154081521Y-73203116D01*
X154141899Y-73213535D01*
X154239245Y-73218976D01*
X154382650Y-73220543D01*
X154694239Y-73220543D01*
X154719069Y-73321026D01*
X154735373Y-73418781D01*
X154721078Y-73478879D01*
X154669827Y-73503512D01*
X154576357Y-73499254D01*
X154392564Y-73473931D01*
X154247579Y-73459248D01*
X154144065Y-73461018D01*
X154075271Y-73483719D01*
X154034447Y-73531827D01*
X154014843Y-73609819D01*
X154009709Y-73722171D01*
X154012296Y-73873361D01*
X154013775Y-73934961D01*
X154019141Y-74089135D01*
X154031155Y-74199920D01*
X154056712Y-74276178D01*
X154102705Y-74326769D01*
X154176028Y-74360554D01*
X154283576Y-74386395D01*
X154432240Y-74413152D01*
X154571540Y-74435906D01*
X154714674Y-74455951D01*
X154837079Y-74469780D01*
X154922010Y-74475271D01*
X154937828Y-74475491D01*
X155018071Y-74480842D01*
X155057763Y-74495944D01*
X155069516Y-74525054D01*
X155070363Y-74573724D01*
X155068731Y-74652621D01*
X155065015Y-74734377D01*
X155060139Y-74799635D01*
X155055025Y-74829038D01*
X155038477Y-74827654D01*
X154975842Y-74816666D01*
X154875062Y-74796875D01*
X154745125Y-74770060D01*
X154595020Y-74738001D01*
X154500400Y-74717587D01*
X154337426Y-74682885D01*
X154188206Y-74651651D01*
X154066132Y-74626675D01*
X153984598Y-74610750D01*
X153827131Y-74581726D01*
X153807775Y-74453308D01*
X153807346Y-74450151D01*
X153803763Y-74389374D01*
X153801497Y-74281110D01*
X153800455Y-74132377D01*
X153800542Y-73950196D01*
X153801666Y-73741584D01*
X153803730Y-73513562D01*
X153806643Y-73273149D01*
X153810309Y-73027362D01*
X153814634Y-72783223D01*
X153819526Y-72547749D01*
X153824889Y-72327960D01*
X153830629Y-72130875D01*
X153836653Y-71963513D01*
X153842867Y-71832893D01*
X153860643Y-71521662D01*
X154539723Y-71529038D01*
G37*
X159603614Y-71556633D02*
X160271195Y-71564022D01*
X160271195Y-71895326D01*
X160188369Y-71892023D01*
X160185789Y-71891911D01*
X160114931Y-71885853D01*
X160012050Y-71873845D01*
X159898478Y-71858365D01*
X159785109Y-71844316D01*
X159629807Y-71832210D01*
X159482004Y-71827849D01*
X159353499Y-71831190D01*
X159256091Y-71842193D01*
X159201579Y-71860815D01*
X159195216Y-71866781D01*
X159169162Y-71919011D01*
X159146324Y-72016520D01*
X159125455Y-72164274D01*
X159117193Y-72246805D01*
X159107144Y-72383243D01*
X159098965Y-72535790D01*
X159092883Y-72694274D01*
X159089124Y-72848519D01*
X159087917Y-72988352D01*
X159089488Y-73103598D01*
X159094065Y-73184084D01*
X159101875Y-73219635D01*
X159124175Y-73225527D01*
X159192472Y-73231609D01*
X159294200Y-73235526D01*
X159417179Y-73236622D01*
X159489728Y-73237039D01*
X159616094Y-73242047D01*
X159706489Y-73251934D01*
X159751336Y-73265862D01*
X159760330Y-73276931D01*
X159780231Y-73336652D01*
X159788043Y-73420986D01*
X159788043Y-73545646D01*
X159629293Y-73526942D01*
X159599994Y-73523477D01*
X159418455Y-73502328D01*
X159283914Y-73490897D01*
X159189346Y-73493401D01*
X159127726Y-73514057D01*
X159092028Y-73557083D01*
X159075227Y-73626695D01*
X159070299Y-73727111D01*
X159070217Y-73862548D01*
X159070242Y-73877388D01*
X159074651Y-74064708D01*
X159085837Y-74242574D01*
X159102624Y-74401835D01*
X159123836Y-74533339D01*
X159148297Y-74627936D01*
X159174830Y-74676474D01*
X159224086Y-74694077D01*
X159315168Y-74704864D01*
X159433263Y-74708515D01*
X159564335Y-74705378D01*
X159694347Y-74695797D01*
X159809263Y-74680120D01*
X159895047Y-74658694D01*
X159987425Y-74628333D01*
X160067516Y-74616647D01*
X160112070Y-74639783D01*
X160128422Y-74702586D01*
X160123902Y-74809902D01*
X160114306Y-74910521D01*
X159795885Y-74926203D01*
X159712350Y-74929462D01*
X159529645Y-74932567D01*
X159342826Y-74931504D01*
X159181478Y-74926271D01*
X158885493Y-74910656D01*
X158867804Y-74341687D01*
X158867331Y-74325560D01*
X158864815Y-74188744D01*
X158863701Y-74017527D01*
X158863864Y-73818310D01*
X158865182Y-73597496D01*
X158867533Y-73361485D01*
X158870794Y-73116678D01*
X158874843Y-72869477D01*
X158879555Y-72626283D01*
X158884810Y-72393497D01*
X158890484Y-72177520D01*
X158896454Y-71984753D01*
X158902599Y-71821598D01*
X158908794Y-71694456D01*
X158914918Y-71609728D01*
X158920848Y-71573815D01*
X158936146Y-71569209D01*
X159000011Y-71563465D01*
X159106305Y-71559143D01*
X159247414Y-71556437D01*
X159415722Y-71555536D01*
X159603614Y-71556633D01*
G36*
X159603614Y-71556633D02*
G01*
X160271195Y-71564022D01*
X160271195Y-71895326D01*
X160188369Y-71892023D01*
X160185789Y-71891911D01*
X160114931Y-71885853D01*
X160012050Y-71873845D01*
X159898478Y-71858365D01*
X159785109Y-71844316D01*
X159629807Y-71832210D01*
X159482004Y-71827849D01*
X159353499Y-71831190D01*
X159256091Y-71842193D01*
X159201579Y-71860815D01*
X159195216Y-71866781D01*
X159169162Y-71919011D01*
X159146324Y-72016520D01*
X159125455Y-72164274D01*
X159117193Y-72246805D01*
X159107144Y-72383243D01*
X159098965Y-72535790D01*
X159092883Y-72694274D01*
X159089124Y-72848519D01*
X159087917Y-72988352D01*
X159089488Y-73103598D01*
X159094065Y-73184084D01*
X159101875Y-73219635D01*
X159124175Y-73225527D01*
X159192472Y-73231609D01*
X159294200Y-73235526D01*
X159417179Y-73236622D01*
X159489728Y-73237039D01*
X159616094Y-73242047D01*
X159706489Y-73251934D01*
X159751336Y-73265862D01*
X159760330Y-73276931D01*
X159780231Y-73336652D01*
X159788043Y-73420986D01*
X159788043Y-73545646D01*
X159629293Y-73526942D01*
X159599994Y-73523477D01*
X159418455Y-73502328D01*
X159283914Y-73490897D01*
X159189346Y-73493401D01*
X159127726Y-73514057D01*
X159092028Y-73557083D01*
X159075227Y-73626695D01*
X159070299Y-73727111D01*
X159070217Y-73862548D01*
X159070242Y-73877388D01*
X159074651Y-74064708D01*
X159085837Y-74242574D01*
X159102624Y-74401835D01*
X159123836Y-74533339D01*
X159148297Y-74627936D01*
X159174830Y-74676474D01*
X159224086Y-74694077D01*
X159315168Y-74704864D01*
X159433263Y-74708515D01*
X159564335Y-74705378D01*
X159694347Y-74695797D01*
X159809263Y-74680120D01*
X159895047Y-74658694D01*
X159987425Y-74628333D01*
X160067516Y-74616647D01*
X160112070Y-74639783D01*
X160128422Y-74702586D01*
X160123902Y-74809902D01*
X160114306Y-74910521D01*
X159795885Y-74926203D01*
X159712350Y-74929462D01*
X159529645Y-74932567D01*
X159342826Y-74931504D01*
X159181478Y-74926271D01*
X158885493Y-74910656D01*
X158867804Y-74341687D01*
X158867331Y-74325560D01*
X158864815Y-74188744D01*
X158863701Y-74017527D01*
X158863864Y-73818310D01*
X158865182Y-73597496D01*
X158867533Y-73361485D01*
X158870794Y-73116678D01*
X158874843Y-72869477D01*
X158879555Y-72626283D01*
X158884810Y-72393497D01*
X158890484Y-72177520D01*
X158896454Y-71984753D01*
X158902599Y-71821598D01*
X158908794Y-71694456D01*
X158914918Y-71609728D01*
X158920848Y-71573815D01*
X158936146Y-71569209D01*
X159000011Y-71563465D01*
X159106305Y-71559143D01*
X159247414Y-71556437D01*
X159415722Y-71555536D01*
X159603614Y-71556633D01*
G37*
X155864714Y-71552114D02*
X155993005Y-71560750D01*
X156107639Y-71574585D01*
X156196524Y-71593478D01*
X156353824Y-71662263D01*
X156494650Y-71776631D01*
X156608729Y-71934662D01*
X156696570Y-72137549D01*
X156758682Y-72386485D01*
X156795573Y-72682665D01*
X156807752Y-73027282D01*
X156794506Y-73381837D01*
X156750804Y-73724057D01*
X156676973Y-74023687D01*
X156573418Y-74279737D01*
X156440546Y-74491220D01*
X156278764Y-74657146D01*
X156088478Y-74776526D01*
X156061481Y-74788805D01*
X155980832Y-74819150D01*
X155894728Y-74838865D01*
X155786590Y-74850979D01*
X155639837Y-74858524D01*
X155343043Y-74869369D01*
X155342648Y-74762782D01*
X155342872Y-74725856D01*
X155344529Y-74628726D01*
X155347625Y-74490572D01*
X155351975Y-74317408D01*
X155357393Y-74115246D01*
X155362436Y-73935029D01*
X155592208Y-73935029D01*
X155592680Y-74127976D01*
X155593952Y-74278965D01*
X155596328Y-74393424D01*
X155600112Y-74476778D01*
X155605607Y-74534456D01*
X155613116Y-74571884D01*
X155622943Y-74594489D01*
X155635392Y-74607697D01*
X155650764Y-74616937D01*
X155672558Y-74625285D01*
X155750493Y-74637121D01*
X155843526Y-74635813D01*
X155961869Y-74609571D01*
X156108767Y-74530056D01*
X156239798Y-74403086D01*
X156353455Y-74232193D01*
X156448233Y-74020906D01*
X156522625Y-73772758D01*
X156575126Y-73491278D01*
X156604230Y-73179999D01*
X156608430Y-72842451D01*
X156607651Y-72811836D01*
X156602782Y-72654597D01*
X156596429Y-72538824D01*
X156586839Y-72452710D01*
X156572260Y-72384447D01*
X156550939Y-72322226D01*
X156521124Y-72254239D01*
X156496667Y-72204013D01*
X156394302Y-72043595D01*
X156267127Y-71920994D01*
X156102282Y-71822970D01*
X156017498Y-71784587D01*
X155946467Y-71756876D01*
X155909021Y-71747918D01*
X155908925Y-71747934D01*
X155863637Y-71754267D01*
X155793740Y-71763297D01*
X155723204Y-71781709D01*
X155675573Y-71811023D01*
X155658083Y-71857067D01*
X155641471Y-71957858D01*
X155627109Y-72109995D01*
X155615091Y-72311499D01*
X155605510Y-72560390D01*
X155598460Y-72854687D01*
X155594034Y-73192412D01*
X155592327Y-73571583D01*
X155592235Y-73694698D01*
X155592208Y-73935029D01*
X155362436Y-73935029D01*
X155363693Y-73890102D01*
X155370691Y-73647989D01*
X155378200Y-73394921D01*
X155386036Y-73136911D01*
X155394012Y-72879974D01*
X155401944Y-72630122D01*
X155409646Y-72393370D01*
X155416932Y-72175732D01*
X155423618Y-71983222D01*
X155429517Y-71821852D01*
X155434444Y-71697637D01*
X155438215Y-71616592D01*
X155440642Y-71584728D01*
X155456764Y-71572355D01*
X155518789Y-71558797D01*
X155615515Y-71550998D01*
X155734853Y-71548817D01*
X155864714Y-71552114D01*
G36*
X155864714Y-71552114D02*
G01*
X155993005Y-71560750D01*
X156107639Y-71574585D01*
X156196524Y-71593478D01*
X156353824Y-71662263D01*
X156494650Y-71776631D01*
X156608729Y-71934662D01*
X156696570Y-72137549D01*
X156758682Y-72386485D01*
X156795573Y-72682665D01*
X156807752Y-73027282D01*
X156794506Y-73381837D01*
X156750804Y-73724057D01*
X156676973Y-74023687D01*
X156573418Y-74279737D01*
X156440546Y-74491220D01*
X156278764Y-74657146D01*
X156088478Y-74776526D01*
X156061481Y-74788805D01*
X155980832Y-74819150D01*
X155894728Y-74838865D01*
X155786590Y-74850979D01*
X155639837Y-74858524D01*
X155343043Y-74869369D01*
X155342648Y-74762782D01*
X155342872Y-74725856D01*
X155344529Y-74628726D01*
X155347625Y-74490572D01*
X155351975Y-74317408D01*
X155357393Y-74115246D01*
X155362436Y-73935029D01*
X155592208Y-73935029D01*
X155592680Y-74127976D01*
X155593952Y-74278965D01*
X155596328Y-74393424D01*
X155600112Y-74476778D01*
X155605607Y-74534456D01*
X155613116Y-74571884D01*
X155622943Y-74594489D01*
X155635392Y-74607697D01*
X155650764Y-74616937D01*
X155672558Y-74625285D01*
X155750493Y-74637121D01*
X155843526Y-74635813D01*
X155961869Y-74609571D01*
X156108767Y-74530056D01*
X156239798Y-74403086D01*
X156353455Y-74232193D01*
X156448233Y-74020906D01*
X156522625Y-73772758D01*
X156575126Y-73491278D01*
X156604230Y-73179999D01*
X156608430Y-72842451D01*
X156607651Y-72811836D01*
X156602782Y-72654597D01*
X156596429Y-72538824D01*
X156586839Y-72452710D01*
X156572260Y-72384447D01*
X156550939Y-72322226D01*
X156521124Y-72254239D01*
X156496667Y-72204013D01*
X156394302Y-72043595D01*
X156267127Y-71920994D01*
X156102282Y-71822970D01*
X156017498Y-71784587D01*
X155946467Y-71756876D01*
X155909021Y-71747918D01*
X155908925Y-71747934D01*
X155863637Y-71754267D01*
X155793740Y-71763297D01*
X155723204Y-71781709D01*
X155675573Y-71811023D01*
X155658083Y-71857067D01*
X155641471Y-71957858D01*
X155627109Y-72109995D01*
X155615091Y-72311499D01*
X155605510Y-72560390D01*
X155598460Y-72854687D01*
X155594034Y-73192412D01*
X155592327Y-73571583D01*
X155592235Y-73694698D01*
X155592208Y-73935029D01*
X155362436Y-73935029D01*
X155363693Y-73890102D01*
X155370691Y-73647989D01*
X155378200Y-73394921D01*
X155386036Y-73136911D01*
X155394012Y-72879974D01*
X155401944Y-72630122D01*
X155409646Y-72393370D01*
X155416932Y-72175732D01*
X155423618Y-71983222D01*
X155429517Y-71821852D01*
X155434444Y-71697637D01*
X155438215Y-71616592D01*
X155440642Y-71584728D01*
X155456764Y-71572355D01*
X155518789Y-71558797D01*
X155615515Y-71550998D01*
X155734853Y-71548817D01*
X155864714Y-71552114D01*
G37*
X149353340Y-69960831D02*
X149475054Y-69990499D01*
X149604642Y-70035053D01*
X149732472Y-70092315D01*
X149848913Y-70160108D01*
X149879196Y-70181086D01*
X150047462Y-70316822D01*
X150214019Y-70479544D01*
X150362788Y-70652413D01*
X150477688Y-70818587D01*
X150524905Y-70903916D01*
X150588976Y-71040105D01*
X150649657Y-71196971D01*
X150709087Y-71381326D01*
X150769406Y-71599981D01*
X150832751Y-71859746D01*
X150901262Y-72167432D01*
X150928804Y-72294666D01*
X150982847Y-72537031D01*
X151031670Y-72742283D01*
X151078607Y-72922187D01*
X151126994Y-73088505D01*
X151180168Y-73252999D01*
X151241465Y-73427433D01*
X151314220Y-73623569D01*
X151366626Y-73766458D01*
X151428111Y-73943761D01*
X151485915Y-74120042D01*
X151537516Y-74286819D01*
X151580389Y-74435612D01*
X151612009Y-74557939D01*
X151629853Y-74645319D01*
X151631396Y-74689271D01*
X151627971Y-74695121D01*
X151582027Y-74717119D01*
X151497198Y-74725217D01*
X151376795Y-74725217D01*
X151330510Y-74511250D01*
X151311425Y-74430651D01*
X151278880Y-74305861D01*
X151237802Y-74156279D01*
X151191074Y-73991662D01*
X151141576Y-73821769D01*
X151092193Y-73656358D01*
X151045806Y-73505186D01*
X151005298Y-73378013D01*
X150973550Y-73284596D01*
X150953446Y-73234694D01*
X150930658Y-73199155D01*
X150903621Y-73181023D01*
X150873052Y-73192522D01*
X150835529Y-73237971D01*
X150787629Y-73321684D01*
X150725930Y-73447977D01*
X150647009Y-73621168D01*
X150596923Y-73739672D01*
X150541566Y-73886322D01*
X150497308Y-74020759D01*
X150470706Y-74124275D01*
X150469912Y-74128422D01*
X150449427Y-74224929D01*
X150430254Y-74298156D01*
X150416446Y-74332539D01*
X150406381Y-74338412D01*
X150362991Y-74327202D01*
X150308756Y-74280825D01*
X150256040Y-74208819D01*
X150207625Y-74126185D01*
X150454204Y-73625137D01*
X150530720Y-73468927D01*
X150611399Y-73298678D01*
X150671075Y-73159455D01*
X150711898Y-73040840D01*
X150736013Y-72932417D01*
X150745569Y-72823767D01*
X150742713Y-72704473D01*
X150729592Y-72564118D01*
X150708356Y-72392282D01*
X150673799Y-72149530D01*
X150612413Y-71818102D01*
X150538750Y-71530562D01*
X150450393Y-71280429D01*
X150344922Y-71061224D01*
X150219920Y-70866465D01*
X150072968Y-70689672D01*
X150059234Y-70675071D01*
X149899047Y-70523125D01*
X149743141Y-70414306D01*
X149577709Y-70340628D01*
X149388944Y-70294106D01*
X149370433Y-70290815D01*
X149270402Y-70270277D01*
X149194580Y-70250218D01*
X149158157Y-70234558D01*
X149154825Y-70230283D01*
X149137863Y-70177578D01*
X149128130Y-70093206D01*
X149128161Y-69997228D01*
X149131752Y-69982897D01*
X149172058Y-69954853D01*
X149249131Y-69948223D01*
X149353340Y-69960831D01*
G36*
X149353340Y-69960831D02*
G01*
X149475054Y-69990499D01*
X149604642Y-70035053D01*
X149732472Y-70092315D01*
X149848913Y-70160108D01*
X149879196Y-70181086D01*
X150047462Y-70316822D01*
X150214019Y-70479544D01*
X150362788Y-70652413D01*
X150477688Y-70818587D01*
X150524905Y-70903916D01*
X150588976Y-71040105D01*
X150649657Y-71196971D01*
X150709087Y-71381326D01*
X150769406Y-71599981D01*
X150832751Y-71859746D01*
X150901262Y-72167432D01*
X150928804Y-72294666D01*
X150982847Y-72537031D01*
X151031670Y-72742283D01*
X151078607Y-72922187D01*
X151126994Y-73088505D01*
X151180168Y-73252999D01*
X151241465Y-73427433D01*
X151314220Y-73623569D01*
X151366626Y-73766458D01*
X151428111Y-73943761D01*
X151485915Y-74120042D01*
X151537516Y-74286819D01*
X151580389Y-74435612D01*
X151612009Y-74557939D01*
X151629853Y-74645319D01*
X151631396Y-74689271D01*
X151627971Y-74695121D01*
X151582027Y-74717119D01*
X151497198Y-74725217D01*
X151376795Y-74725217D01*
X151330510Y-74511250D01*
X151311425Y-74430651D01*
X151278880Y-74305861D01*
X151237802Y-74156279D01*
X151191074Y-73991662D01*
X151141576Y-73821769D01*
X151092193Y-73656358D01*
X151045806Y-73505186D01*
X151005298Y-73378013D01*
X150973550Y-73284596D01*
X150953446Y-73234694D01*
X150930658Y-73199155D01*
X150903621Y-73181023D01*
X150873052Y-73192522D01*
X150835529Y-73237971D01*
X150787629Y-73321684D01*
X150725930Y-73447977D01*
X150647009Y-73621168D01*
X150596923Y-73739672D01*
X150541566Y-73886322D01*
X150497308Y-74020759D01*
X150470706Y-74124275D01*
X150469912Y-74128422D01*
X150449427Y-74224929D01*
X150430254Y-74298156D01*
X150416446Y-74332539D01*
X150406381Y-74338412D01*
X150362991Y-74327202D01*
X150308756Y-74280825D01*
X150256040Y-74208819D01*
X150207625Y-74126185D01*
X150454204Y-73625137D01*
X150530720Y-73468927D01*
X150611399Y-73298678D01*
X150671075Y-73159455D01*
X150711898Y-73040840D01*
X150736013Y-72932417D01*
X150745569Y-72823767D01*
X150742713Y-72704473D01*
X150729592Y-72564118D01*
X150708356Y-72392282D01*
X150673799Y-72149530D01*
X150612413Y-71818102D01*
X150538750Y-71530562D01*
X150450393Y-71280429D01*
X150344922Y-71061224D01*
X150219920Y-70866465D01*
X150072968Y-70689672D01*
X150059234Y-70675071D01*
X149899047Y-70523125D01*
X149743141Y-70414306D01*
X149577709Y-70340628D01*
X149388944Y-70294106D01*
X149370433Y-70290815D01*
X149270402Y-70270277D01*
X149194580Y-70250218D01*
X149158157Y-70234558D01*
X149154825Y-70230283D01*
X149137863Y-70177578D01*
X149128130Y-70093206D01*
X149128161Y-69997228D01*
X149131752Y-69982897D01*
X149172058Y-69954853D01*
X149249131Y-69948223D01*
X149353340Y-69960831D01*
G37*
X147239891Y-71590842D02*
X147349021Y-71595540D01*
X147608263Y-71622549D01*
X147819774Y-71672110D01*
X147986337Y-71746239D01*
X148110736Y-71846951D01*
X148195754Y-71976264D01*
X148244177Y-72136192D01*
X148258787Y-72328753D01*
X148257589Y-72376243D01*
X148242703Y-72509740D01*
X148207995Y-72637823D01*
X148149795Y-72765730D01*
X148064432Y-72898702D01*
X147948235Y-73041978D01*
X147797533Y-73200795D01*
X147608657Y-73380395D01*
X147377934Y-73586016D01*
X147361146Y-73600692D01*
X147167662Y-73777654D01*
X147016906Y-73931564D01*
X146910453Y-74060696D01*
X146849882Y-74163328D01*
X146840467Y-74188370D01*
X146821580Y-74323904D01*
X146850777Y-74455874D01*
X146923175Y-74571187D01*
X147033892Y-74656747D01*
X147121519Y-74686470D01*
X147264116Y-74699331D01*
X147426355Y-74685791D01*
X147593504Y-74648361D01*
X147750832Y-74589553D01*
X147883606Y-74511878D01*
X147906181Y-74495699D01*
X147960261Y-74463212D01*
X147987996Y-74456402D01*
X147993348Y-74468970D01*
X148005236Y-74524084D01*
X148016929Y-74605054D01*
X148021210Y-74649720D01*
X148018438Y-74729100D01*
X147995365Y-74771401D01*
X147943445Y-74799256D01*
X147850948Y-74834933D01*
X147733138Y-74873608D01*
X147604563Y-74911051D01*
X147479766Y-74943034D01*
X147373295Y-74965325D01*
X147299696Y-74973695D01*
X147126108Y-74951655D01*
X146946542Y-74879211D01*
X146791215Y-74761146D01*
X146762773Y-74731781D01*
X146662824Y-74601950D01*
X146607999Y-74469194D01*
X146591693Y-74318876D01*
X146593885Y-74263652D01*
X146608440Y-74169787D01*
X146639673Y-74074830D01*
X146691122Y-73973723D01*
X146766326Y-73861412D01*
X146868823Y-73732841D01*
X147002152Y-73582953D01*
X147169851Y-73406693D01*
X147375459Y-73199005D01*
X147402886Y-73171599D01*
X147569032Y-73002684D01*
X147708226Y-72855941D01*
X147817037Y-72735160D01*
X147892032Y-72644133D01*
X147929779Y-72586652D01*
X147961537Y-72505024D01*
X147991478Y-72350844D01*
X147979732Y-72211615D01*
X147927679Y-72095848D01*
X147836696Y-72012053D01*
X147836258Y-72011795D01*
X147694941Y-71950888D01*
X147518315Y-71908397D01*
X147323721Y-71886297D01*
X147128503Y-71886561D01*
X146950000Y-71911161D01*
X146839592Y-71946478D01*
X146689677Y-72037287D01*
X146576936Y-72165230D01*
X146505855Y-72324582D01*
X146480921Y-72509619D01*
X146479544Y-72557002D01*
X146468941Y-72628673D01*
X146449502Y-72654565D01*
X146419244Y-72645319D01*
X146353176Y-72614564D01*
X146270043Y-72569712D01*
X146121735Y-72484858D01*
X146139386Y-72369548D01*
X146141658Y-72355267D01*
X146201308Y-72133093D01*
X146299590Y-71941677D01*
X146432315Y-71786002D01*
X146595297Y-71671055D01*
X146784347Y-71601820D01*
X146786975Y-71601265D01*
X146854462Y-71594007D01*
X146961944Y-71589621D01*
X147095171Y-71588452D01*
X147239891Y-71590842D01*
G36*
X147239891Y-71590842D02*
G01*
X147349021Y-71595540D01*
X147608263Y-71622549D01*
X147819774Y-71672110D01*
X147986337Y-71746239D01*
X148110736Y-71846951D01*
X148195754Y-71976264D01*
X148244177Y-72136192D01*
X148258787Y-72328753D01*
X148257589Y-72376243D01*
X148242703Y-72509740D01*
X148207995Y-72637823D01*
X148149795Y-72765730D01*
X148064432Y-72898702D01*
X147948235Y-73041978D01*
X147797533Y-73200795D01*
X147608657Y-73380395D01*
X147377934Y-73586016D01*
X147361146Y-73600692D01*
X147167662Y-73777654D01*
X147016906Y-73931564D01*
X146910453Y-74060696D01*
X146849882Y-74163328D01*
X146840467Y-74188370D01*
X146821580Y-74323904D01*
X146850777Y-74455874D01*
X146923175Y-74571187D01*
X147033892Y-74656747D01*
X147121519Y-74686470D01*
X147264116Y-74699331D01*
X147426355Y-74685791D01*
X147593504Y-74648361D01*
X147750832Y-74589553D01*
X147883606Y-74511878D01*
X147906181Y-74495699D01*
X147960261Y-74463212D01*
X147987996Y-74456402D01*
X147993348Y-74468970D01*
X148005236Y-74524084D01*
X148016929Y-74605054D01*
X148021210Y-74649720D01*
X148018438Y-74729100D01*
X147995365Y-74771401D01*
X147943445Y-74799256D01*
X147850948Y-74834933D01*
X147733138Y-74873608D01*
X147604563Y-74911051D01*
X147479766Y-74943034D01*
X147373295Y-74965325D01*
X147299696Y-74973695D01*
X147126108Y-74951655D01*
X146946542Y-74879211D01*
X146791215Y-74761146D01*
X146762773Y-74731781D01*
X146662824Y-74601950D01*
X146607999Y-74469194D01*
X146591693Y-74318876D01*
X146593885Y-74263652D01*
X146608440Y-74169787D01*
X146639673Y-74074830D01*
X146691122Y-73973723D01*
X146766326Y-73861412D01*
X146868823Y-73732841D01*
X147002152Y-73582953D01*
X147169851Y-73406693D01*
X147375459Y-73199005D01*
X147402886Y-73171599D01*
X147569032Y-73002684D01*
X147708226Y-72855941D01*
X147817037Y-72735160D01*
X147892032Y-72644133D01*
X147929779Y-72586652D01*
X147961537Y-72505024D01*
X147991478Y-72350844D01*
X147979732Y-72211615D01*
X147927679Y-72095848D01*
X147836696Y-72012053D01*
X147836258Y-72011795D01*
X147694941Y-71950888D01*
X147518315Y-71908397D01*
X147323721Y-71886297D01*
X147128503Y-71886561D01*
X146950000Y-71911161D01*
X146839592Y-71946478D01*
X146689677Y-72037287D01*
X146576936Y-72165230D01*
X146505855Y-72324582D01*
X146480921Y-72509619D01*
X146479544Y-72557002D01*
X146468941Y-72628673D01*
X146449502Y-72654565D01*
X146419244Y-72645319D01*
X146353176Y-72614564D01*
X146270043Y-72569712D01*
X146121735Y-72484858D01*
X146139386Y-72369548D01*
X146141658Y-72355267D01*
X146201308Y-72133093D01*
X146299590Y-71941677D01*
X146432315Y-71786002D01*
X146595297Y-71671055D01*
X146784347Y-71601820D01*
X146786975Y-71601265D01*
X146854462Y-71594007D01*
X146961944Y-71589621D01*
X147095171Y-71588452D01*
X147239891Y-71590842D01*
G37*
X158042550Y-71513808D02*
X158175295Y-71531414D01*
X158272438Y-71557888D01*
X158281148Y-71561649D01*
X158416912Y-71651547D01*
X158525889Y-71786963D01*
X158604435Y-71963448D01*
X158625034Y-72037064D01*
X158644114Y-72135038D01*
X158658171Y-72254025D01*
X158668494Y-72405420D01*
X158676368Y-72600622D01*
X158676456Y-72603372D01*
X158682187Y-72791692D01*
X158682702Y-72931802D01*
X158673657Y-73030614D01*
X158650710Y-73095039D01*
X158609520Y-73131992D01*
X158545744Y-73148383D01*
X158455041Y-73151125D01*
X158333067Y-73147132D01*
X158251759Y-73143695D01*
X158143834Y-73133798D01*
X158076338Y-73113085D01*
X158039780Y-73074497D01*
X158024668Y-73010977D01*
X158021509Y-72915467D01*
X158026324Y-72826021D01*
X158050531Y-72744756D01*
X158095571Y-72714559D01*
X158161945Y-72735191D01*
X158250157Y-72806413D01*
X158263607Y-72819313D01*
X158335478Y-72879375D01*
X158388219Y-72901467D01*
X158424559Y-72882194D01*
X158447225Y-72818162D01*
X158458946Y-72705975D01*
X158462449Y-72542239D01*
X158454064Y-72358076D01*
X158415904Y-72155890D01*
X158345560Y-71996495D01*
X158241552Y-71877715D01*
X158102405Y-71797376D01*
X157926639Y-71753301D01*
X157773726Y-71748705D01*
X157618863Y-71787989D01*
X157488051Y-71875781D01*
X157380724Y-72012638D01*
X157296317Y-72199117D01*
X157234265Y-72435775D01*
X157214291Y-72555079D01*
X157188900Y-72784493D01*
X157174623Y-73032164D01*
X157171904Y-73280105D01*
X157181186Y-73510330D01*
X157202915Y-73704850D01*
X157204758Y-73715976D01*
X157255968Y-73976790D01*
X157315431Y-74187489D01*
X157385579Y-74352700D01*
X157468840Y-74477051D01*
X157567646Y-74565166D01*
X157684425Y-74621674D01*
X157694077Y-74624817D01*
X157853897Y-74652431D01*
X157994610Y-74631737D01*
X158112095Y-74567373D01*
X158202228Y-74463977D01*
X158260887Y-74326187D01*
X158283948Y-74158642D01*
X158267290Y-73965978D01*
X158253491Y-73891765D01*
X158234924Y-73791784D01*
X158221660Y-73720205D01*
X158206848Y-73640085D01*
X158396038Y-73659468D01*
X158398744Y-73659746D01*
X158494473Y-73671065D01*
X158565678Y-73682188D01*
X158597123Y-73690747D01*
X158599371Y-73707918D01*
X158597704Y-73770555D01*
X158591075Y-73867327D01*
X158580176Y-73986158D01*
X158559480Y-74139234D01*
X158499863Y-74383538D01*
X158412596Y-74585184D01*
X158298873Y-74742272D01*
X158159886Y-74852904D01*
X157996827Y-74915181D01*
X157943812Y-74926419D01*
X157861661Y-74940804D01*
X157798883Y-74942239D01*
X157732099Y-74929938D01*
X157637931Y-74903116D01*
X157501633Y-74846052D01*
X157367371Y-74744771D01*
X157253211Y-74601250D01*
X157156092Y-74411527D01*
X157072954Y-74171640D01*
X157038815Y-74037294D01*
X156992159Y-73774396D01*
X156961574Y-73485028D01*
X156947179Y-73182369D01*
X156949097Y-72879598D01*
X156967448Y-72589892D01*
X157002353Y-72326430D01*
X157053934Y-72102391D01*
X157070850Y-72049266D01*
X157155339Y-71855971D01*
X157264448Y-71708492D01*
X157402569Y-71602015D01*
X157574090Y-71531722D01*
X157620828Y-71521318D01*
X157746306Y-71508048D01*
X157893217Y-71505782D01*
X158042550Y-71513808D01*
G36*
X158042550Y-71513808D02*
G01*
X158175295Y-71531414D01*
X158272438Y-71557888D01*
X158281148Y-71561649D01*
X158416912Y-71651547D01*
X158525889Y-71786963D01*
X158604435Y-71963448D01*
X158625034Y-72037064D01*
X158644114Y-72135038D01*
X158658171Y-72254025D01*
X158668494Y-72405420D01*
X158676368Y-72600622D01*
X158676456Y-72603372D01*
X158682187Y-72791692D01*
X158682702Y-72931802D01*
X158673657Y-73030614D01*
X158650710Y-73095039D01*
X158609520Y-73131992D01*
X158545744Y-73148383D01*
X158455041Y-73151125D01*
X158333067Y-73147132D01*
X158251759Y-73143695D01*
X158143834Y-73133798D01*
X158076338Y-73113085D01*
X158039780Y-73074497D01*
X158024668Y-73010977D01*
X158021509Y-72915467D01*
X158026324Y-72826021D01*
X158050531Y-72744756D01*
X158095571Y-72714559D01*
X158161945Y-72735191D01*
X158250157Y-72806413D01*
X158263607Y-72819313D01*
X158335478Y-72879375D01*
X158388219Y-72901467D01*
X158424559Y-72882194D01*
X158447225Y-72818162D01*
X158458946Y-72705975D01*
X158462449Y-72542239D01*
X158454064Y-72358076D01*
X158415904Y-72155890D01*
X158345560Y-71996495D01*
X158241552Y-71877715D01*
X158102405Y-71797376D01*
X157926639Y-71753301D01*
X157773726Y-71748705D01*
X157618863Y-71787989D01*
X157488051Y-71875781D01*
X157380724Y-72012638D01*
X157296317Y-72199117D01*
X157234265Y-72435775D01*
X157214291Y-72555079D01*
X157188900Y-72784493D01*
X157174623Y-73032164D01*
X157171904Y-73280105D01*
X157181186Y-73510330D01*
X157202915Y-73704850D01*
X157204758Y-73715976D01*
X157255968Y-73976790D01*
X157315431Y-74187489D01*
X157385579Y-74352700D01*
X157468840Y-74477051D01*
X157567646Y-74565166D01*
X157684425Y-74621674D01*
X157694077Y-74624817D01*
X157853897Y-74652431D01*
X157994610Y-74631737D01*
X158112095Y-74567373D01*
X158202228Y-74463977D01*
X158260887Y-74326187D01*
X158283948Y-74158642D01*
X158267290Y-73965978D01*
X158253491Y-73891765D01*
X158234924Y-73791784D01*
X158221660Y-73720205D01*
X158206848Y-73640085D01*
X158396038Y-73659468D01*
X158398744Y-73659746D01*
X158494473Y-73671065D01*
X158565678Y-73682188D01*
X158597123Y-73690747D01*
X158599371Y-73707918D01*
X158597704Y-73770555D01*
X158591075Y-73867327D01*
X158580176Y-73986158D01*
X158559480Y-74139234D01*
X158499863Y-74383538D01*
X158412596Y-74585184D01*
X158298873Y-74742272D01*
X158159886Y-74852904D01*
X157996827Y-74915181D01*
X157943812Y-74926419D01*
X157861661Y-74940804D01*
X157798883Y-74942239D01*
X157732099Y-74929938D01*
X157637931Y-74903116D01*
X157501633Y-74846052D01*
X157367371Y-74744771D01*
X157253211Y-74601250D01*
X157156092Y-74411527D01*
X157072954Y-74171640D01*
X157038815Y-74037294D01*
X156992159Y-73774396D01*
X156961574Y-73485028D01*
X156947179Y-73182369D01*
X156949097Y-72879598D01*
X156967448Y-72589892D01*
X157002353Y-72326430D01*
X157053934Y-72102391D01*
X157070850Y-72049266D01*
X157155339Y-71855971D01*
X157264448Y-71708492D01*
X157402569Y-71602015D01*
X157574090Y-71531722D01*
X157620828Y-71521318D01*
X157746306Y-71508048D01*
X157893217Y-71505782D01*
X158042550Y-71513808D01*
G37*
X148701147Y-71551458D02*
X148775402Y-71562283D01*
X148799328Y-71584728D01*
X148796333Y-71610461D01*
X148784639Y-71682750D01*
X148766190Y-71786612D01*
X148743220Y-71909130D01*
X148739407Y-71929545D01*
X148708930Y-72142438D01*
X148686125Y-72400735D01*
X148671760Y-72695978D01*
X148666710Y-72895576D01*
X148666476Y-73058269D01*
X148672452Y-73177713D01*
X148685635Y-73259965D01*
X148707021Y-73311085D01*
X148737608Y-73337133D01*
X148778392Y-73344169D01*
X148811504Y-73340659D01*
X148852403Y-73324553D01*
X148900647Y-73289795D01*
X148963151Y-73230373D01*
X149046828Y-73140272D01*
X149158592Y-73013478D01*
X149161238Y-73010441D01*
X149262545Y-72896479D01*
X149386506Y-72760361D01*
X149517671Y-72618901D01*
X149640593Y-72488913D01*
X149655521Y-72473318D01*
X149772882Y-72350107D01*
X149890800Y-72225394D01*
X149996313Y-72112931D01*
X150076462Y-72026467D01*
X150089155Y-72012669D01*
X150168379Y-71930790D01*
X150226752Y-71882559D01*
X150276420Y-71859694D01*
X150329532Y-71853913D01*
X150383182Y-71857409D01*
X150425202Y-71881726D01*
X150451683Y-71943641D01*
X150477294Y-72031343D01*
X150501451Y-72143568D01*
X150498313Y-72223551D01*
X150463201Y-72283361D01*
X150391437Y-72335064D01*
X150278340Y-72390728D01*
X150123067Y-72466798D01*
X149796852Y-72667736D01*
X149504159Y-72910643D01*
X149239670Y-73199659D01*
X149161824Y-73297759D01*
X149089202Y-73395655D01*
X149046592Y-73466187D01*
X149030385Y-73517396D01*
X149036973Y-73557325D01*
X149062748Y-73594016D01*
X149095307Y-73621069D01*
X149169355Y-73673398D01*
X149274503Y-73743197D01*
X149402071Y-73824718D01*
X149543379Y-73912215D01*
X149667974Y-73988595D01*
X149799802Y-74070381D01*
X149911271Y-74140573D01*
X149993413Y-74193518D01*
X150037260Y-74223564D01*
X150101368Y-74272911D01*
X150031877Y-74430042D01*
X149996769Y-74503371D01*
X149961659Y-74563925D01*
X149939363Y-74587174D01*
X149929199Y-74582239D01*
X149885394Y-74546877D01*
X149818280Y-74484909D01*
X149737680Y-74405197D01*
X149689772Y-74357470D01*
X149573698Y-74246847D01*
X149445197Y-74129268D01*
X149324347Y-74023289D01*
X149304641Y-74006527D01*
X149137204Y-73867328D01*
X149003990Y-73764228D01*
X148900290Y-73694910D01*
X148821396Y-73657053D01*
X148762601Y-73648339D01*
X148719197Y-73666449D01*
X148686475Y-73709062D01*
X148683632Y-73715062D01*
X148669123Y-73788124D01*
X148665730Y-73905161D01*
X148672669Y-74057427D01*
X148689158Y-74236176D01*
X148714412Y-74432664D01*
X148747649Y-74638144D01*
X148788086Y-74843872D01*
X148804748Y-74921114D01*
X148615907Y-74912894D01*
X148427065Y-74904674D01*
X148427661Y-74421522D01*
X148427674Y-74412371D01*
X148428433Y-74259701D01*
X148430151Y-74074866D01*
X148432705Y-73864107D01*
X148435973Y-73633664D01*
X148439830Y-73389781D01*
X148444154Y-73138696D01*
X148448821Y-72886653D01*
X148453708Y-72639892D01*
X148458692Y-72404654D01*
X148463648Y-72187181D01*
X148468455Y-71993714D01*
X148472988Y-71830494D01*
X148477124Y-71703762D01*
X148480741Y-71619760D01*
X148483714Y-71584728D01*
X148491103Y-71574693D01*
X148545611Y-71556521D01*
X148647068Y-71550217D01*
X148701147Y-71551458D01*
G36*
X148701147Y-71551458D02*
G01*
X148775402Y-71562283D01*
X148799328Y-71584728D01*
X148796333Y-71610461D01*
X148784639Y-71682750D01*
X148766190Y-71786612D01*
X148743220Y-71909130D01*
X148739407Y-71929545D01*
X148708930Y-72142438D01*
X148686125Y-72400735D01*
X148671760Y-72695978D01*
X148666710Y-72895576D01*
X148666476Y-73058269D01*
X148672452Y-73177713D01*
X148685635Y-73259965D01*
X148707021Y-73311085D01*
X148737608Y-73337133D01*
X148778392Y-73344169D01*
X148811504Y-73340659D01*
X148852403Y-73324553D01*
X148900647Y-73289795D01*
X148963151Y-73230373D01*
X149046828Y-73140272D01*
X149158592Y-73013478D01*
X149161238Y-73010441D01*
X149262545Y-72896479D01*
X149386506Y-72760361D01*
X149517671Y-72618901D01*
X149640593Y-72488913D01*
X149655521Y-72473318D01*
X149772882Y-72350107D01*
X149890800Y-72225394D01*
X149996313Y-72112931D01*
X150076462Y-72026467D01*
X150089155Y-72012669D01*
X150168379Y-71930790D01*
X150226752Y-71882559D01*
X150276420Y-71859694D01*
X150329532Y-71853913D01*
X150383182Y-71857409D01*
X150425202Y-71881726D01*
X150451683Y-71943641D01*
X150477294Y-72031343D01*
X150501451Y-72143568D01*
X150498313Y-72223551D01*
X150463201Y-72283361D01*
X150391437Y-72335064D01*
X150278340Y-72390728D01*
X150123067Y-72466798D01*
X149796852Y-72667736D01*
X149504159Y-72910643D01*
X149239670Y-73199659D01*
X149161824Y-73297759D01*
X149089202Y-73395655D01*
X149046592Y-73466187D01*
X149030385Y-73517396D01*
X149036973Y-73557325D01*
X149062748Y-73594016D01*
X149095307Y-73621069D01*
X149169355Y-73673398D01*
X149274503Y-73743197D01*
X149402071Y-73824718D01*
X149543379Y-73912215D01*
X149667974Y-73988595D01*
X149799802Y-74070381D01*
X149911271Y-74140573D01*
X149993413Y-74193518D01*
X150037260Y-74223564D01*
X150101368Y-74272911D01*
X150031877Y-74430042D01*
X149996769Y-74503371D01*
X149961659Y-74563925D01*
X149939363Y-74587174D01*
X149929199Y-74582239D01*
X149885394Y-74546877D01*
X149818280Y-74484909D01*
X149737680Y-74405197D01*
X149689772Y-74357470D01*
X149573698Y-74246847D01*
X149445197Y-74129268D01*
X149324347Y-74023289D01*
X149304641Y-74006527D01*
X149137204Y-73867328D01*
X149003990Y-73764228D01*
X148900290Y-73694910D01*
X148821396Y-73657053D01*
X148762601Y-73648339D01*
X148719197Y-73666449D01*
X148686475Y-73709062D01*
X148683632Y-73715062D01*
X148669123Y-73788124D01*
X148665730Y-73905161D01*
X148672669Y-74057427D01*
X148689158Y-74236176D01*
X148714412Y-74432664D01*
X148747649Y-74638144D01*
X148788086Y-74843872D01*
X148804748Y-74921114D01*
X148615907Y-74912894D01*
X148427065Y-74904674D01*
X148427661Y-74421522D01*
X148427674Y-74412371D01*
X148428433Y-74259701D01*
X148430151Y-74074866D01*
X148432705Y-73864107D01*
X148435973Y-73633664D01*
X148439830Y-73389781D01*
X148444154Y-73138696D01*
X148448821Y-72886653D01*
X148453708Y-72639892D01*
X148458692Y-72404654D01*
X148463648Y-72187181D01*
X148468455Y-71993714D01*
X148472988Y-71830494D01*
X148477124Y-71703762D01*
X148480741Y-71619760D01*
X148483714Y-71584728D01*
X148491103Y-71574693D01*
X148545611Y-71556521D01*
X148647068Y-71550217D01*
X148701147Y-71551458D01*
G37*
D10*
X172637258Y-112327500D02*
X172162742Y-112327500D01*
X172637258Y-113372500D02*
X172162742Y-113372500D01*
X177290580Y-123990000D02*
X177009420Y-123990000D01*
X177290580Y-125010000D02*
X177009420Y-125010000D01*
X172559420Y-124040000D02*
X172840580Y-124040000D01*
X172559420Y-125060000D02*
X172840580Y-125060000D01*
D11*
X172775000Y-114150000D02*
X172775000Y-114265000D01*
X172775000Y-114150000D02*
X176925000Y-114150000D01*
X172775000Y-123025000D02*
X171400000Y-123025000D01*
X172775000Y-123050000D02*
X172775000Y-123025000D01*
X172775000Y-123050000D02*
X176925000Y-123050000D01*
X176925000Y-114150000D02*
X176925000Y-114265000D01*
X176925000Y-123050000D02*
X176925000Y-122935000D01*
M02*
