G04 #@! TF.GenerationSoftware,KiCad,Pcbnew,8.0.8+dfsg-1*
G04 #@! TF.CreationDate,2025-03-16T16:51:26-04:00*
G04 #@! TF.ProjectId,RUST_Daughterboard,52555354-5f44-4617-9567-68746572626f,rev?*
G04 #@! TF.SameCoordinates,Original*
G04 #@! TF.FileFunction,Copper,L1,Top*
G04 #@! TF.FilePolarity,Positive*
%FSLAX46Y46*%
G04 Gerber Fmt 4.6, Leading zero omitted, Abs format (unit mm)*
G04 Created by KiCad (PCBNEW 8.0.8+dfsg-1) date 2025-03-16 16:51:26*
%MOMM*%
%LPD*%
G01*
G04 APERTURE LIST*
G04 Aperture macros list*
%AMRoundRect*
0 Rectangle with rounded corners*
0 $1 Rounding radius*
0 $2 $3 $4 $5 $6 $7 $8 $9 X,Y pos of 4 corners*
0 Add a 4 corners polygon primitive as box body*
4,1,4,$2,$3,$4,$5,$6,$7,$8,$9,$2,$3,0*
0 Add four circle primitives for the rounded corners*
1,1,$1+$1,$2,$3*
1,1,$1+$1,$4,$5*
1,1,$1+$1,$6,$7*
1,1,$1+$1,$8,$9*
0 Add four rect primitives between the rounded corners*
20,1,$1+$1,$2,$3,$4,$5,0*
20,1,$1+$1,$4,$5,$6,$7,0*
20,1,$1+$1,$6,$7,$8,$9,0*
20,1,$1+$1,$8,$9,$2,$3,0*%
G04 Aperture macros list end*
G04 #@! TA.AperFunction,SMDPad,CuDef*
%ADD10RoundRect,0.225000X-0.017678X0.335876X-0.335876X0.017678X0.017678X-0.335876X0.335876X-0.017678X0*%
G04 #@! TD*
G04 #@! TA.AperFunction,SMDPad,CuDef*
%ADD11C,0.750000*%
G04 #@! TD*
G04 #@! TA.AperFunction,SMDPad,CuDef*
%ADD12RoundRect,0.218750X-0.026517X0.335876X-0.335876X0.026517X0.026517X-0.335876X0.335876X-0.026517X0*%
G04 #@! TD*
G04 #@! TA.AperFunction,SMDPad,CuDef*
%ADD13RoundRect,0.200000X0.200000X0.275000X-0.200000X0.275000X-0.200000X-0.275000X0.200000X-0.275000X0*%
G04 #@! TD*
G04 #@! TA.AperFunction,SMDPad,CuDef*
%ADD14R,2.000000X0.800000*%
G04 #@! TD*
G04 #@! TA.AperFunction,SMDPad,CuDef*
%ADD15R,1.400000X1.800000*%
G04 #@! TD*
G04 #@! TA.AperFunction,SMDPad,CuDef*
%ADD16R,1.900000X1.400000*%
G04 #@! TD*
G04 #@! TA.AperFunction,SMDPad,CuDef*
%ADD17RoundRect,0.140000X-0.140000X-0.170000X0.140000X-0.170000X0.140000X0.170000X-0.140000X0.170000X0*%
G04 #@! TD*
G04 #@! TA.AperFunction,SMDPad,CuDef*
%ADD18RoundRect,0.147500X-0.147500X-0.172500X0.147500X-0.172500X0.147500X0.172500X-0.147500X0.172500X0*%
G04 #@! TD*
G04 #@! TA.AperFunction,SMDPad,CuDef*
%ADD19RoundRect,0.140000X-0.170000X0.140000X-0.170000X-0.140000X0.170000X-0.140000X0.170000X0.140000X0*%
G04 #@! TD*
G04 #@! TA.AperFunction,SMDPad,CuDef*
%ADD20RoundRect,0.218750X-0.218750X-0.256250X0.218750X-0.256250X0.218750X0.256250X-0.218750X0.256250X0*%
G04 #@! TD*
G04 #@! TA.AperFunction,SMDPad,CuDef*
%ADD21R,1.000000X1.000000*%
G04 #@! TD*
G04 #@! TA.AperFunction,SMDPad,CuDef*
%ADD22R,1.050000X2.200000*%
G04 #@! TD*
G04 #@! TA.AperFunction,SMDPad,CuDef*
%ADD23R,2.000000X3.000000*%
G04 #@! TD*
G04 #@! TA.AperFunction,SMDPad,CuDef*
%ADD24R,3.000000X3.000000*%
G04 #@! TD*
G04 #@! TA.AperFunction,SMDPad,CuDef*
%ADD25RoundRect,0.218750X-0.256250X0.218750X-0.256250X-0.218750X0.256250X-0.218750X0.256250X0.218750X0*%
G04 #@! TD*
G04 #@! TA.AperFunction,ViaPad*
%ADD26C,0.800000*%
G04 #@! TD*
G04 #@! TA.AperFunction,Conductor*
%ADD27C,0.250000*%
G04 #@! TD*
G04 #@! TA.AperFunction,Conductor*
%ADD28C,1.000000*%
G04 #@! TD*
G04 #@! TA.AperFunction,Conductor*
%ADD29C,0.500000*%
G04 #@! TD*
G04 #@! TA.AperFunction,Conductor*
%ADD30C,0.750000*%
G04 #@! TD*
G04 APERTURE END LIST*
D10*
X146698008Y-119201992D03*
X145601992Y-120298008D03*
D11*
X172000000Y-80500000D03*
D10*
X145548008Y-118026992D03*
X144451992Y-119123008D03*
D11*
X128200000Y-86400000D03*
D12*
X144356847Y-116843153D03*
X143243153Y-117956847D03*
D10*
X149073008Y-121551992D03*
X147976992Y-122648008D03*
D13*
X137525000Y-79700000D03*
X135875000Y-79700000D03*
X137440000Y-71000000D03*
X135790000Y-71000000D03*
D14*
X123375000Y-78840000D03*
X123775000Y-77740000D03*
X123375000Y-76640000D03*
X123175000Y-75540000D03*
X123375000Y-74440000D03*
X123175000Y-73340000D03*
X123375000Y-72240000D03*
X123375000Y-71140000D03*
D15*
X133925000Y-71950000D03*
X133925000Y-77650000D03*
D16*
X120775000Y-70350000D03*
X119775000Y-83500000D03*
D12*
X147906847Y-120368153D03*
X146793153Y-121481847D03*
D11*
X171500000Y-137000000D03*
D15*
X133580000Y-114866500D03*
X131103500Y-114866500D03*
X128500000Y-114866500D03*
X133580000Y-89593500D03*
X131040000Y-89593500D03*
X128500000Y-89593500D03*
D17*
X176820000Y-85000000D03*
X177780000Y-85000000D03*
D18*
X175415000Y-82500000D03*
X176385000Y-82500000D03*
D19*
X177800000Y-83020000D03*
X177800000Y-83980000D03*
D20*
X176212500Y-86300000D03*
X177787500Y-86300000D03*
X174212500Y-73300000D03*
X175787500Y-73300000D03*
D21*
X176500000Y-89000000D03*
D22*
X177975000Y-90500000D03*
X175025000Y-90500000D03*
D21*
X176500000Y-92000000D03*
D23*
X163250000Y-70750000D03*
X152750000Y-70750000D03*
D24*
X149750000Y-70750000D03*
X176750000Y-70750000D03*
D23*
X173750000Y-70750000D03*
D17*
X176820000Y-87500000D03*
X177780000Y-87500000D03*
X174520000Y-74600000D03*
X175480000Y-74600000D03*
D25*
X177800000Y-80112500D03*
X177800000Y-81687500D03*
D26*
X159132660Y-135507340D03*
X124723699Y-73134294D03*
X133200000Y-111400000D03*
X120300000Y-71300000D03*
X134512299Y-87737701D03*
X176100000Y-126800000D03*
X132500000Y-103900000D03*
X165600000Y-123300000D03*
X148800000Y-123800000D03*
X160600000Y-130800000D03*
X172700000Y-126800000D03*
X130900000Y-110600000D03*
X127400000Y-112800000D03*
X123600000Y-112600000D03*
X150500000Y-110500000D03*
X151500000Y-110500000D03*
X120396006Y-82200000D03*
X174149991Y-127749991D03*
X162924500Y-130769253D03*
X161400000Y-123800000D03*
X175200000Y-124900000D03*
X163100633Y-127097547D03*
X160200000Y-123600000D03*
X177300000Y-125800000D03*
X136400000Y-92900000D03*
X138000000Y-79700000D03*
X121300000Y-75400000D03*
X169300000Y-132100000D03*
X159200000Y-133800000D03*
X137900000Y-71000000D03*
X170650000Y-118550000D03*
X124800000Y-74400000D03*
X124909034Y-72152125D03*
X170600000Y-117250000D03*
X133000000Y-78750000D03*
X164083366Y-127279866D03*
X124900000Y-76600000D03*
X170800000Y-119750000D03*
X126000000Y-77750000D03*
X168000000Y-119800000D03*
X163500000Y-123100000D03*
X176100000Y-121200000D03*
X164400000Y-134974990D03*
X127275000Y-115050000D03*
X163200000Y-131900000D03*
X163900000Y-137025010D03*
X131200000Y-113200000D03*
X150000000Y-122400000D03*
X162200000Y-134800000D03*
X165201292Y-131775010D03*
X131400000Y-94800000D03*
X131826000Y-95600000D03*
X165201292Y-131001292D03*
X173850000Y-91850000D03*
X162775000Y-123900000D03*
X175124500Y-122600000D03*
X135400000Y-71000000D03*
X124900000Y-71000000D03*
X124500000Y-80250000D03*
X135000000Y-81000000D03*
D27*
X124667993Y-73190000D02*
X122675000Y-73190000D01*
X120275000Y-70200000D02*
X120275000Y-71275000D01*
X120275000Y-71275000D02*
X120300000Y-71300000D01*
X124723699Y-73134294D02*
X124667993Y-73190000D01*
X147976992Y-122976992D02*
X148800000Y-123800000D01*
X119275000Y-83350000D02*
X120396006Y-82228994D01*
X147976992Y-122648008D02*
X147976992Y-122976992D01*
X145601992Y-120273008D02*
X144451992Y-119123008D01*
X144409314Y-119123008D02*
X143243153Y-117956847D01*
X134512299Y-88661201D02*
X133560000Y-89613500D01*
X147959314Y-122648008D02*
X146793153Y-121481847D01*
X120396006Y-82228994D02*
X120396006Y-82200000D01*
X134512299Y-87737701D02*
X134512299Y-88661201D01*
X146785831Y-121481847D02*
X145601992Y-120298008D01*
X173244971Y-128655011D02*
X164963941Y-128655011D01*
X162924500Y-130694452D02*
X162924500Y-130769253D01*
X164963941Y-128655011D02*
X162924500Y-130694452D01*
X174149991Y-127749991D02*
X173244971Y-128655011D01*
X162600000Y-125000000D02*
X161400000Y-123800000D01*
X175200000Y-124900000D02*
X175100000Y-125000000D01*
X175100000Y-125000000D02*
X162600000Y-125000000D01*
X164198180Y-126000000D02*
X163100633Y-127097547D01*
X177300000Y-125800000D02*
X177100000Y-126000000D01*
X177100000Y-126000000D02*
X164198180Y-126000000D01*
X137185000Y-79700000D02*
X138000000Y-79700000D01*
X137100000Y-71000000D02*
X137900000Y-71000000D01*
X122675000Y-75390000D02*
X121310000Y-75390000D01*
X121310000Y-75390000D02*
X121300000Y-75400000D01*
X124800000Y-74400000D02*
X122800000Y-74400000D01*
X124909034Y-72152125D02*
X123002125Y-72152125D01*
X133000000Y-77925000D02*
X133425000Y-77500000D01*
X133000000Y-78750000D02*
X133000000Y-77925000D01*
X124850000Y-76550000D02*
X122900000Y-76550000D01*
X124900000Y-76600000D02*
X124850000Y-76550000D01*
X123775000Y-77590000D02*
X125840000Y-77590000D01*
X125840000Y-77590000D02*
X126000000Y-77750000D01*
X176100000Y-121200000D02*
X165400000Y-121200000D01*
X165400000Y-121200000D02*
X163500000Y-123100000D01*
X161899897Y-126899897D02*
X161899897Y-132474887D01*
X144356847Y-111756847D02*
X144356847Y-116843153D01*
X128480000Y-95880000D02*
X144356847Y-111756847D01*
X146168628Y-118600000D02*
X146452512Y-118316116D01*
X146121016Y-118600000D02*
X146168628Y-118600000D01*
X146452512Y-118316116D02*
X146908148Y-118316116D01*
X128480000Y-89613500D02*
X128480000Y-95880000D01*
X146908148Y-118316116D02*
X147192032Y-118600000D01*
X161899897Y-132474887D02*
X164400000Y-134974990D01*
X144364169Y-116843153D02*
X145548008Y-118026992D01*
X147192032Y-118600000D02*
X153600000Y-118600000D01*
X153600000Y-118600000D02*
X161899897Y-126899897D01*
X145548008Y-118026992D02*
X146121016Y-118600000D01*
X127275000Y-115050000D02*
X127438500Y-114886500D01*
X127438500Y-114886500D02*
X128480000Y-114886500D01*
X131083500Y-113316500D02*
X131083500Y-114886500D01*
X131200000Y-113200000D02*
X131083500Y-113316500D01*
X145626312Y-119201992D02*
X146698008Y-119201992D01*
X137200000Y-115800000D02*
X138400000Y-115800000D01*
X133560000Y-114886500D02*
X136286500Y-114886500D01*
X149921016Y-122400000D02*
X150000000Y-122400000D01*
X138400000Y-115800000D02*
X139400000Y-116800000D01*
X147906847Y-120385831D02*
X149073008Y-121551992D01*
X143224320Y-116800000D02*
X145626312Y-119201992D01*
X149073008Y-121551992D02*
X149921016Y-122400000D01*
X146740686Y-119201992D02*
X147906847Y-120368153D01*
X136286500Y-114886500D02*
X137200000Y-115800000D01*
X139400000Y-116800000D02*
X143224320Y-116800000D01*
D28*
X175750000Y-71750000D02*
X175750000Y-73262500D01*
D29*
X175787500Y-73462500D02*
X175480000Y-73770000D01*
D28*
X175750000Y-73262500D02*
X175787500Y-73300000D01*
X177750000Y-80062500D02*
X177800000Y-80112500D01*
D29*
X175480000Y-73770000D02*
X175480000Y-74600000D01*
D28*
X177750000Y-71750000D02*
X177750000Y-80062500D01*
D29*
X174250000Y-73262500D02*
X174500000Y-73512500D01*
D28*
X174250000Y-72000000D02*
X174250000Y-73262500D01*
D29*
X174500000Y-73512500D02*
X174500000Y-74580000D01*
D28*
X173750000Y-71500000D02*
X174250000Y-72000000D01*
D27*
X177975000Y-90525000D02*
X176500000Y-92000000D01*
X177975000Y-90500000D02*
X177975000Y-90525000D01*
X175025000Y-90500000D02*
X175025000Y-90525000D01*
X175025000Y-90675000D02*
X173850000Y-91850000D01*
X175025000Y-90500000D02*
X175025000Y-90675000D01*
X175025000Y-90525000D02*
X176500000Y-92000000D01*
X173424501Y-124299999D02*
X163174999Y-124299999D01*
X163174999Y-124299999D02*
X162775000Y-123900000D01*
X175124500Y-122600000D02*
X173424501Y-124299999D01*
D30*
X177750000Y-82500000D02*
X177800000Y-82550000D01*
X176385000Y-82500000D02*
X177750000Y-82500000D01*
X177800000Y-81687500D02*
X177800000Y-82550000D01*
X177800000Y-82550000D02*
X177800000Y-83020000D01*
X177800000Y-84980000D02*
X177780000Y-85000000D01*
X177787500Y-87592500D02*
X177780000Y-87600000D01*
X177000000Y-89000000D02*
X176500000Y-89000000D01*
X177787500Y-86300000D02*
X177787500Y-87592500D01*
X177780000Y-87600000D02*
X177780000Y-88220000D01*
X177780000Y-88220000D02*
X177000000Y-89000000D01*
X177780000Y-85000000D02*
X177780000Y-86292500D01*
X177800000Y-83980000D02*
X177800000Y-84980000D01*
D27*
X124890000Y-70990000D02*
X122875000Y-70990000D01*
X124900000Y-71000000D02*
X124890000Y-70990000D01*
X136130000Y-71000000D02*
X135400000Y-71000000D01*
X124500000Y-79815000D02*
X124500000Y-80250000D01*
X135875000Y-80125000D02*
X135000000Y-81000000D01*
X135875000Y-79700000D02*
X135875000Y-80125000D01*
X123375000Y-78690000D02*
X124500000Y-79815000D01*
G04 #@! TA.AperFunction,Conductor*
G36*
X119613636Y-69095502D02*
G01*
X119660129Y-69149158D01*
X119670233Y-69219432D01*
X119640739Y-69284012D01*
X119602717Y-69313767D01*
X119586660Y-69321948D01*
X119586655Y-69321951D01*
X119496949Y-69411657D01*
X119439355Y-69524694D01*
X119439354Y-69524696D01*
X119424500Y-69618481D01*
X119424500Y-69618484D01*
X119424500Y-71081516D01*
X119439353Y-71175304D01*
X119481653Y-71258322D01*
X119494594Y-71301416D01*
X119500015Y-71349522D01*
X119514632Y-71479255D01*
X119567316Y-71629816D01*
X119574211Y-71649522D01*
X119574212Y-71649525D01*
X119670182Y-71802260D01*
X119670183Y-71802262D01*
X119797737Y-71929816D01*
X119797739Y-71929817D01*
X119950474Y-72025787D01*
X119950475Y-72025787D01*
X119950478Y-72025789D01*
X120120745Y-72085368D01*
X120300000Y-72105565D01*
X120479255Y-72085368D01*
X120649522Y-72025789D01*
X120802262Y-71929816D01*
X120929816Y-71802262D01*
X121025789Y-71649522D01*
X121065903Y-71534884D01*
X121107281Y-71477192D01*
X121173282Y-71451030D01*
X121184832Y-71450499D01*
X121756515Y-71450499D01*
X121756518Y-71450499D01*
X121828794Y-71439052D01*
X121899201Y-71448152D01*
X121953515Y-71493874D01*
X121974487Y-71561702D01*
X121974500Y-71563491D01*
X121974500Y-71571515D01*
X121990143Y-71670291D01*
X121990143Y-71709708D01*
X121974500Y-71808481D01*
X121974500Y-72521917D01*
X121954498Y-72590038D01*
X121937595Y-72611012D01*
X121846951Y-72701655D01*
X121846949Y-72701657D01*
X121804601Y-72784772D01*
X121789354Y-72814696D01*
X121774500Y-72908481D01*
X121774500Y-72908484D01*
X121774500Y-73771516D01*
X121789353Y-73865302D01*
X121846949Y-73978342D01*
X121937595Y-74068988D01*
X121971621Y-74131300D01*
X121974500Y-74158083D01*
X121974500Y-74650427D01*
X121954498Y-74718548D01*
X121900842Y-74765041D01*
X121830568Y-74775145D01*
X121781465Y-74757115D01*
X121649522Y-74674211D01*
X121581551Y-74650427D01*
X121479255Y-74614632D01*
X121300000Y-74594435D01*
X121120745Y-74614632D01*
X121120742Y-74614632D01*
X121120742Y-74614633D01*
X120950477Y-74674211D01*
X120950474Y-74674212D01*
X120797739Y-74770182D01*
X120797737Y-74770183D01*
X120670183Y-74897737D01*
X120670182Y-74897739D01*
X120574212Y-75050474D01*
X120574211Y-75050477D01*
X120537362Y-75155785D01*
X120514632Y-75220745D01*
X120494435Y-75400000D01*
X120514632Y-75579255D01*
X120514633Y-75579257D01*
X120574211Y-75749522D01*
X120574212Y-75749525D01*
X120670182Y-75902260D01*
X120670183Y-75902262D01*
X120797737Y-76029816D01*
X120797739Y-76029817D01*
X120950474Y-76125787D01*
X120950475Y-76125787D01*
X120950478Y-76125789D01*
X121120745Y-76185368D01*
X121300000Y-76205565D01*
X121479255Y-76185368D01*
X121649522Y-76125789D01*
X121662063Y-76117908D01*
X121730379Y-76098599D01*
X121798293Y-76119291D01*
X121841368Y-76167388D01*
X121846949Y-76178341D01*
X121846951Y-76178344D01*
X121937595Y-76268988D01*
X121971621Y-76331300D01*
X121974500Y-76358083D01*
X121974500Y-77071516D01*
X121989353Y-77165302D01*
X122046949Y-77278342D01*
X122136657Y-77368050D01*
X122200293Y-77400474D01*
X122249696Y-77425646D01*
X122268211Y-77428578D01*
X122332362Y-77458987D01*
X122369890Y-77519255D01*
X122374500Y-77553026D01*
X122374500Y-77926972D01*
X122354498Y-77995093D01*
X122300842Y-78041586D01*
X122268213Y-78051420D01*
X122249699Y-78054352D01*
X122249698Y-78054352D01*
X122136657Y-78111949D01*
X122046949Y-78201657D01*
X122011452Y-78271326D01*
X121989354Y-78314696D01*
X121975768Y-78400477D01*
X121974500Y-78408484D01*
X121974500Y-79271516D01*
X121989353Y-79365302D01*
X122046949Y-79478342D01*
X122136657Y-79568050D01*
X122175299Y-79587738D01*
X122249696Y-79625646D01*
X122343481Y-79640500D01*
X123530140Y-79640499D01*
X123598261Y-79660501D01*
X123619235Y-79677404D01*
X123735880Y-79794049D01*
X123769906Y-79856361D01*
X123765714Y-79924759D01*
X123722058Y-80049522D01*
X123714632Y-80070745D01*
X123694435Y-80250000D01*
X123714632Y-80429255D01*
X123739387Y-80500000D01*
X123774211Y-80599522D01*
X123774212Y-80599525D01*
X123870182Y-80752260D01*
X123870183Y-80752262D01*
X123997737Y-80879816D01*
X123997739Y-80879817D01*
X124150474Y-80975787D01*
X124150475Y-80975787D01*
X124150478Y-80975789D01*
X124320745Y-81035368D01*
X124500000Y-81055565D01*
X124679255Y-81035368D01*
X124849522Y-80975789D01*
X125002262Y-80879816D01*
X125129816Y-80752262D01*
X125225789Y-80599522D01*
X125285368Y-80429255D01*
X125305565Y-80250000D01*
X125285368Y-80070745D01*
X125225789Y-79900478D01*
X125225787Y-79900475D01*
X125225787Y-79900474D01*
X125129817Y-79747739D01*
X125129816Y-79747737D01*
X124997259Y-79615180D01*
X124998293Y-79614145D01*
X124975619Y-79587795D01*
X124920509Y-79492341D01*
X124920506Y-79492338D01*
X124920505Y-79492335D01*
X124920502Y-79492332D01*
X124920499Y-79492328D01*
X124818276Y-79390105D01*
X124818253Y-79390084D01*
X124810531Y-79382362D01*
X124776505Y-79320050D01*
X124775260Y-79276464D01*
X124775112Y-79276453D01*
X124775220Y-79275075D01*
X124775177Y-79273556D01*
X124775500Y-79271519D01*
X124775499Y-78750000D01*
X132194435Y-78750000D01*
X132214632Y-78929255D01*
X132238239Y-78996719D01*
X132274211Y-79099522D01*
X132274212Y-79099525D01*
X132370182Y-79252260D01*
X132370183Y-79252262D01*
X132497737Y-79379816D01*
X132497739Y-79379817D01*
X132650474Y-79475787D01*
X132650475Y-79475787D01*
X132650478Y-79475789D01*
X132820745Y-79535368D01*
X133000000Y-79555565D01*
X133179255Y-79535368D01*
X133349522Y-79475789D01*
X133502262Y-79379816D01*
X133629816Y-79252262D01*
X133725789Y-79099522D01*
X133748407Y-79034884D01*
X133789785Y-78977192D01*
X133855786Y-78951030D01*
X133867336Y-78950499D01*
X134656516Y-78950499D01*
X134656518Y-78950499D01*
X134750304Y-78935646D01*
X134863342Y-78878050D01*
X134953050Y-78788342D01*
X135010646Y-78675304D01*
X135025500Y-78581519D01*
X135025499Y-76718482D01*
X135010646Y-76624696D01*
X134981848Y-76568177D01*
X134953050Y-76511657D01*
X134863342Y-76421949D01*
X134787502Y-76383307D01*
X134750304Y-76364354D01*
X134656519Y-76349500D01*
X134656515Y-76349500D01*
X133193483Y-76349500D01*
X133099697Y-76364353D01*
X132986657Y-76421949D01*
X132896949Y-76511657D01*
X132851937Y-76600000D01*
X132839354Y-76624696D01*
X132824500Y-76718481D01*
X132824500Y-76718484D01*
X132824500Y-77305138D01*
X132804498Y-77373259D01*
X132787595Y-77394233D01*
X132670154Y-77511674D01*
X132670149Y-77511680D01*
X132579500Y-77602328D01*
X132579492Y-77602338D01*
X132510312Y-77722162D01*
X132510313Y-77722162D01*
X132510312Y-77722164D01*
X132510312Y-77722165D01*
X132498374Y-77766715D01*
X132474499Y-77855815D01*
X132474499Y-78004333D01*
X132474500Y-78004346D01*
X132474500Y-78091231D01*
X132454498Y-78159352D01*
X132437595Y-78180326D01*
X132370183Y-78247737D01*
X132370182Y-78247739D01*
X132274212Y-78400474D01*
X132274211Y-78400477D01*
X132219944Y-78555564D01*
X132214632Y-78570745D01*
X132194435Y-78750000D01*
X124775499Y-78750000D01*
X124775499Y-78653026D01*
X124795501Y-78584906D01*
X124849157Y-78538413D01*
X124881791Y-78528578D01*
X124885306Y-78528021D01*
X124900304Y-78525646D01*
X125013342Y-78468050D01*
X125103050Y-78378342D01*
X125157578Y-78271324D01*
X125206325Y-78219710D01*
X125275239Y-78202644D01*
X125342441Y-78225544D01*
X125368355Y-78249968D01*
X125370189Y-78252268D01*
X125497737Y-78379816D01*
X125497739Y-78379817D01*
X125650474Y-78475787D01*
X125650475Y-78475787D01*
X125650478Y-78475789D01*
X125820745Y-78535368D01*
X126000000Y-78555565D01*
X126179255Y-78535368D01*
X126349522Y-78475789D01*
X126502262Y-78379816D01*
X126629816Y-78252262D01*
X126725789Y-78099522D01*
X126785368Y-77929255D01*
X126805565Y-77750000D01*
X126785368Y-77570745D01*
X126725789Y-77400478D01*
X126725787Y-77400475D01*
X126725787Y-77400474D01*
X126629817Y-77247739D01*
X126629816Y-77247737D01*
X126502262Y-77120183D01*
X126502260Y-77120182D01*
X126349525Y-77024212D01*
X126349522Y-77024211D01*
X126179255Y-76964632D01*
X126000000Y-76944435D01*
X125820745Y-76964632D01*
X125820741Y-76964633D01*
X125813714Y-76965425D01*
X125813423Y-76962848D01*
X125754479Y-76959216D01*
X125697227Y-76917231D01*
X125671762Y-76850958D01*
X125678417Y-76799119D01*
X125685368Y-76779255D01*
X125705565Y-76600000D01*
X125685368Y-76420745D01*
X125625789Y-76250478D01*
X125625787Y-76250475D01*
X125625787Y-76250474D01*
X125529817Y-76097739D01*
X125529816Y-76097737D01*
X125402262Y-75970183D01*
X125402260Y-75970182D01*
X125249525Y-75874212D01*
X125249522Y-75874211D01*
X125224499Y-75865455D01*
X125079255Y-75814632D01*
X124900000Y-75794435D01*
X124899999Y-75794435D01*
X124715606Y-75815210D01*
X124645674Y-75802960D01*
X124593466Y-75754847D01*
X124575499Y-75690002D01*
X124575499Y-75321263D01*
X124595501Y-75253142D01*
X124649157Y-75206649D01*
X124715602Y-75196055D01*
X124800000Y-75205565D01*
X124979255Y-75185368D01*
X125149522Y-75125789D01*
X125302262Y-75029816D01*
X125429816Y-74902262D01*
X125525789Y-74749522D01*
X125585368Y-74579255D01*
X125605565Y-74400000D01*
X125585368Y-74220745D01*
X125525789Y-74050478D01*
X125525787Y-74050475D01*
X125525787Y-74050474D01*
X125429817Y-73897739D01*
X125429816Y-73897737D01*
X125350170Y-73818091D01*
X125316144Y-73755779D01*
X125321209Y-73684964D01*
X125350173Y-73639897D01*
X125353515Y-73636556D01*
X125449488Y-73483816D01*
X125509067Y-73313549D01*
X125529264Y-73134294D01*
X125509067Y-72955039D01*
X125465001Y-72829108D01*
X125461382Y-72758206D01*
X125494834Y-72698401D01*
X125538850Y-72654387D01*
X125634823Y-72501647D01*
X125694402Y-72331380D01*
X125714599Y-72152125D01*
X125694402Y-71972870D01*
X125634823Y-71802603D01*
X125634821Y-71802600D01*
X125634821Y-71802599D01*
X125538852Y-71649864D01*
X125537668Y-71648380D01*
X125537201Y-71647238D01*
X125535086Y-71643871D01*
X125535675Y-71643500D01*
X125510831Y-71582650D01*
X125523791Y-71512847D01*
X125529489Y-71502780D01*
X125529811Y-71502266D01*
X125529816Y-71502262D01*
X125625789Y-71349522D01*
X125685368Y-71179255D01*
X125705565Y-71000000D01*
X125685368Y-70820745D01*
X125625789Y-70650478D01*
X125625787Y-70650475D01*
X125625787Y-70650474D01*
X125529817Y-70497739D01*
X125529816Y-70497737D01*
X125402262Y-70370183D01*
X125402260Y-70370182D01*
X125249525Y-70274212D01*
X125249522Y-70274211D01*
X125249519Y-70274210D01*
X125079255Y-70214632D01*
X124900000Y-70194435D01*
X124720745Y-70214632D01*
X124720742Y-70214632D01*
X124720742Y-70214633D01*
X124550479Y-70274210D01*
X124477305Y-70320188D01*
X124410270Y-70339500D01*
X122343483Y-70339500D01*
X122271208Y-70350947D01*
X122200797Y-70341846D01*
X122146483Y-70296124D01*
X122125512Y-70228295D01*
X122125499Y-70226498D01*
X122125499Y-69618483D01*
X122110646Y-69524697D01*
X122110646Y-69524696D01*
X122081848Y-69468177D01*
X122053050Y-69411657D01*
X121963344Y-69321951D01*
X121963339Y-69321948D01*
X121947283Y-69313767D01*
X121895667Y-69265019D01*
X121878601Y-69196104D01*
X121901501Y-69128903D01*
X121957099Y-69084750D01*
X122004485Y-69075500D01*
X136874000Y-69075500D01*
X136942121Y-69095502D01*
X136988614Y-69149158D01*
X137000000Y-69201500D01*
X137000000Y-70091436D01*
X136979998Y-70159557D01*
X136943144Y-70194698D01*
X136943711Y-70195437D01*
X136937160Y-70200463D01*
X136937159Y-70200464D01*
X136918695Y-70214632D01*
X136811715Y-70296720D01*
X136714962Y-70422812D01*
X136657624Y-70464679D01*
X136586753Y-70468901D01*
X136524851Y-70434137D01*
X136515038Y-70422812D01*
X136418284Y-70296720D01*
X136418282Y-70296719D01*
X136418282Y-70296718D01*
X136292841Y-70200464D01*
X136146762Y-70139956D01*
X136146760Y-70139955D01*
X136070332Y-70129893D01*
X136029361Y-70124500D01*
X136029358Y-70124500D01*
X135550640Y-70124500D01*
X135550631Y-70124501D01*
X135444978Y-70138410D01*
X135433238Y-70139956D01*
X135281425Y-70202839D01*
X135247318Y-70211637D01*
X135220747Y-70214631D01*
X135220741Y-70214632D01*
X135050477Y-70274211D01*
X135050474Y-70274212D01*
X134897739Y-70370182D01*
X134897737Y-70370183D01*
X134770183Y-70497737D01*
X134770182Y-70497739D01*
X134711874Y-70590536D01*
X134658695Y-70637574D01*
X134605187Y-70649500D01*
X133193483Y-70649500D01*
X133099697Y-70664353D01*
X132986657Y-70721949D01*
X132896949Y-70811657D01*
X132839355Y-70924694D01*
X132839354Y-70924696D01*
X132824500Y-71018481D01*
X132824500Y-71018484D01*
X132824500Y-72881516D01*
X132839353Y-72975302D01*
X132896949Y-73088342D01*
X132986657Y-73178050D01*
X133025299Y-73197738D01*
X133099696Y-73235646D01*
X133193481Y-73250500D01*
X134656518Y-73250499D01*
X134750304Y-73235646D01*
X134863342Y-73178050D01*
X134953050Y-73088342D01*
X135010646Y-72975304D01*
X135025500Y-72881519D01*
X135025499Y-71894627D01*
X135045501Y-71826507D01*
X135099157Y-71780014D01*
X135169431Y-71769910D01*
X135193106Y-71775697D01*
X135220745Y-71785368D01*
X135220750Y-71785368D01*
X135220752Y-71785369D01*
X135235400Y-71787019D01*
X135247313Y-71788361D01*
X135281425Y-71797160D01*
X135287156Y-71799534D01*
X135287159Y-71799536D01*
X135433238Y-71860044D01*
X135550639Y-71875500D01*
X136029360Y-71875499D01*
X136146762Y-71860044D01*
X136292841Y-71799536D01*
X136418282Y-71703282D01*
X136514536Y-71577841D01*
X136514536Y-71577838D01*
X136515037Y-71577187D01*
X136572375Y-71535320D01*
X136643246Y-71531098D01*
X136705149Y-71565862D01*
X136714963Y-71577187D01*
X136715463Y-71577838D01*
X136715464Y-71577841D01*
X136811718Y-71703282D01*
X136937159Y-71799536D01*
X136937160Y-71799536D01*
X136943711Y-71804563D01*
X136942894Y-71805627D01*
X136985991Y-71850822D01*
X137000000Y-71908563D01*
X137000000Y-78855330D01*
X136979998Y-78923451D01*
X136950705Y-78955292D01*
X136896716Y-78996719D01*
X136799962Y-79122812D01*
X136742624Y-79164679D01*
X136671753Y-79168901D01*
X136609851Y-79134137D01*
X136600038Y-79122812D01*
X136503284Y-78996720D01*
X136503282Y-78996719D01*
X136503282Y-78996718D01*
X136377841Y-78900464D01*
X136368250Y-78896491D01*
X136231760Y-78839955D01*
X136155332Y-78829893D01*
X136114361Y-78824500D01*
X136114358Y-78824500D01*
X135635640Y-78824500D01*
X135635631Y-78824501D01*
X135529978Y-78838410D01*
X135518238Y-78839956D01*
X135372160Y-78900463D01*
X135372157Y-78900465D01*
X135246718Y-78996718D01*
X135150465Y-79122157D01*
X135150463Y-79122160D01*
X135089955Y-79268239D01*
X135074500Y-79385636D01*
X135074500Y-80014359D01*
X135074501Y-80014370D01*
X135080015Y-80056252D01*
X135069075Y-80126401D01*
X135021946Y-80179499D01*
X134969201Y-80197905D01*
X134940029Y-80201192D01*
X134820745Y-80214632D01*
X134820742Y-80214632D01*
X134820742Y-80214633D01*
X134650477Y-80274211D01*
X134650474Y-80274212D01*
X134497739Y-80370182D01*
X134497737Y-80370183D01*
X134370183Y-80497737D01*
X134370182Y-80497739D01*
X134274212Y-80650474D01*
X134274211Y-80650477D01*
X134238596Y-80752260D01*
X134214632Y-80820745D01*
X134194435Y-81000000D01*
X134214632Y-81179255D01*
X134246386Y-81270002D01*
X134274211Y-81349522D01*
X134274212Y-81349525D01*
X134370182Y-81502260D01*
X134370183Y-81502262D01*
X134497737Y-81629816D01*
X134497739Y-81629817D01*
X134650474Y-81725787D01*
X134650475Y-81725787D01*
X134650478Y-81725789D01*
X134820745Y-81785368D01*
X135000000Y-81805565D01*
X135179255Y-81785368D01*
X135349522Y-81725789D01*
X135502262Y-81629816D01*
X135629816Y-81502262D01*
X135725789Y-81349522D01*
X135785368Y-81179255D01*
X135805565Y-81000000D01*
X135805565Y-80999997D01*
X135805565Y-80992923D01*
X135808018Y-80992923D01*
X135818291Y-80934282D01*
X135842150Y-80901017D01*
X136145508Y-80597659D01*
X136207818Y-80563635D01*
X136218133Y-80561838D01*
X136231762Y-80560044D01*
X136377841Y-80499536D01*
X136503282Y-80403282D01*
X136599536Y-80277841D01*
X136599536Y-80277838D01*
X136600037Y-80277187D01*
X136657375Y-80235320D01*
X136728246Y-80231098D01*
X136790149Y-80265862D01*
X136799963Y-80277187D01*
X136800463Y-80277838D01*
X136800464Y-80277841D01*
X136896718Y-80403282D01*
X136950704Y-80444707D01*
X136992571Y-80502043D01*
X137000000Y-80544668D01*
X137000000Y-81250000D01*
X171946336Y-81250000D01*
X171960443Y-81250792D01*
X171963158Y-81251097D01*
X172000000Y-81255249D01*
X172036841Y-81251097D01*
X172039557Y-81250792D01*
X172053664Y-81250000D01*
X176800488Y-81250000D01*
X176868609Y-81270002D01*
X176915102Y-81323658D01*
X176926100Y-81385887D01*
X176924500Y-81406215D01*
X176924501Y-81598499D01*
X176904499Y-81666620D01*
X176850844Y-81713113D01*
X176798501Y-81724500D01*
X176308617Y-81724500D01*
X176158794Y-81754302D01*
X176158785Y-81754305D01*
X176053583Y-81797881D01*
X175982994Y-81805470D01*
X175941227Y-81789925D01*
X175824904Y-81721131D01*
X175669000Y-81675836D01*
X175669000Y-82177033D01*
X175659409Y-82225250D01*
X175639305Y-82273785D01*
X175639302Y-82273794D01*
X175609500Y-82423617D01*
X175609500Y-82576382D01*
X175627180Y-82665265D01*
X175639302Y-82726205D01*
X175659409Y-82774748D01*
X175669000Y-82822965D01*
X175669000Y-83324162D01*
X175824902Y-83278868D01*
X175941226Y-83210074D01*
X176010042Y-83192614D01*
X176053583Y-83202117D01*
X176158795Y-83245698D01*
X176308620Y-83275500D01*
X176982246Y-83275500D01*
X177050367Y-83295502D01*
X177096860Y-83349158D01*
X177098650Y-83353271D01*
X177112761Y-83387337D01*
X177112763Y-83387341D01*
X177141266Y-83429999D01*
X177162481Y-83497752D01*
X177143698Y-83566218D01*
X177141266Y-83570001D01*
X177112763Y-83612658D01*
X177112761Y-83612662D01*
X177054304Y-83753789D01*
X177054302Y-83753794D01*
X177024500Y-83903617D01*
X177024500Y-84810662D01*
X177022079Y-84835244D01*
X177009480Y-84898582D01*
X176976572Y-84961491D01*
X176914877Y-84996623D01*
X176885901Y-85000000D01*
X176820000Y-85000000D01*
X176820000Y-85128000D01*
X176799998Y-85196121D01*
X176746342Y-85242614D01*
X176694000Y-85254000D01*
X176033460Y-85254000D01*
X176010672Y-85278651D01*
X175949743Y-85315096D01*
X175930954Y-85318469D01*
X175845791Y-85327168D01*
X175684521Y-85380607D01*
X175539925Y-85469795D01*
X175539919Y-85469800D01*
X175419800Y-85589919D01*
X175419795Y-85589925D01*
X175330607Y-85734520D01*
X175277169Y-85895789D01*
X175277168Y-85895793D01*
X175267000Y-85995318D01*
X175267000Y-86046000D01*
X176086500Y-86046000D01*
X176154621Y-86066002D01*
X176201114Y-86119658D01*
X176212500Y-86172000D01*
X176212500Y-86428000D01*
X176192498Y-86496121D01*
X176138842Y-86542614D01*
X176086500Y-86554000D01*
X175267001Y-86554000D01*
X175267001Y-86604673D01*
X175277168Y-86704208D01*
X175330607Y-86865478D01*
X175419795Y-87010074D01*
X175419800Y-87010080D01*
X175539919Y-87130199D01*
X175539925Y-87130204D01*
X175684521Y-87219392D01*
X175845792Y-87272831D01*
X175900094Y-87278378D01*
X175963833Y-87247676D01*
X175984317Y-87246000D01*
X176694000Y-87246000D01*
X176762121Y-87266002D01*
X176808614Y-87319658D01*
X176820000Y-87372000D01*
X176820000Y-87628000D01*
X176799998Y-87696121D01*
X176746342Y-87742614D01*
X176694000Y-87754000D01*
X176033461Y-87754000D01*
X176034890Y-87772173D01*
X176082781Y-87937010D01*
X176079807Y-87937873D01*
X176086734Y-87994017D01*
X176055953Y-88057993D01*
X175995469Y-88095172D01*
X175972304Y-88099199D01*
X175968493Y-88099499D01*
X175874697Y-88114353D01*
X175761657Y-88171949D01*
X175671949Y-88261657D01*
X175619065Y-88365450D01*
X175614354Y-88374696D01*
X175599500Y-88468481D01*
X175599500Y-88468484D01*
X175599500Y-88766000D01*
X175579498Y-88834121D01*
X175525842Y-88880614D01*
X175473500Y-88892000D01*
X175279000Y-88892000D01*
X175279000Y-90246000D01*
X176058000Y-90246000D01*
X176058000Y-90026499D01*
X176078002Y-89958378D01*
X176131658Y-89911885D01*
X176183996Y-89900499D01*
X176816000Y-89900499D01*
X176884121Y-89920501D01*
X176930614Y-89974157D01*
X176942000Y-90026499D01*
X176942000Y-90246000D01*
X177849000Y-90246000D01*
X177917121Y-90266002D01*
X177963614Y-90319658D01*
X177975000Y-90372000D01*
X177975000Y-90500000D01*
X178103000Y-90500000D01*
X178171121Y-90520002D01*
X178217614Y-90573658D01*
X178229000Y-90626000D01*
X178229000Y-92108000D01*
X178548585Y-92108000D01*
X178548597Y-92107999D01*
X178609093Y-92101494D01*
X178754406Y-92047296D01*
X178755759Y-92050924D01*
X178807262Y-92039623D01*
X178873827Y-92064314D01*
X178916476Y-92121072D01*
X178924500Y-92165318D01*
X178924500Y-138798500D01*
X178904498Y-138866621D01*
X178850842Y-138913114D01*
X178798500Y-138924500D01*
X150201500Y-138924500D01*
X150133379Y-138904498D01*
X150086886Y-138850842D01*
X150075500Y-138798500D01*
X150075500Y-137025010D01*
X163094435Y-137025010D01*
X163114632Y-137204265D01*
X163114633Y-137204267D01*
X163174211Y-137374532D01*
X163174212Y-137374535D01*
X163270182Y-137527270D01*
X163270183Y-137527272D01*
X163397737Y-137654826D01*
X163397739Y-137654827D01*
X163550474Y-137750797D01*
X163550475Y-137750797D01*
X163550478Y-137750799D01*
X163720745Y-137810378D01*
X163900000Y-137830575D01*
X164079255Y-137810378D01*
X164249522Y-137750799D01*
X164402262Y-137654826D01*
X164529816Y-137527272D01*
X164625789Y-137374532D01*
X164685368Y-137204265D01*
X164705565Y-137025010D01*
X164702747Y-137000000D01*
X170744751Y-137000000D01*
X170763687Y-137168059D01*
X170763688Y-137168061D01*
X170819543Y-137327689D01*
X170819544Y-137327690D01*
X170909523Y-137470890D01*
X170909526Y-137470893D01*
X170909526Y-137470894D01*
X171029105Y-137590473D01*
X171029107Y-137590474D01*
X171029110Y-137590477D01*
X171172310Y-137680456D01*
X171331941Y-137736313D01*
X171500000Y-137755249D01*
X171668059Y-137736313D01*
X171827690Y-137680456D01*
X171970890Y-137590477D01*
X172090477Y-137470890D01*
X172180456Y-137327690D01*
X172236313Y-137168059D01*
X172255249Y-137000000D01*
X172236313Y-136831941D01*
X172180456Y-136672310D01*
X172090477Y-136529110D01*
X172090473Y-136529106D01*
X172090473Y-136529105D01*
X171970894Y-136409526D01*
X171970891Y-136409524D01*
X171970890Y-136409523D01*
X171889700Y-136358507D01*
X171827689Y-136319543D01*
X171718485Y-136281331D01*
X171668059Y-136263687D01*
X171500000Y-136244751D01*
X171331941Y-136263687D01*
X171331938Y-136263687D01*
X171331938Y-136263688D01*
X171172310Y-136319543D01*
X171075981Y-136380071D01*
X171029110Y-136409523D01*
X171029108Y-136409524D01*
X171029106Y-136409526D01*
X171029105Y-136409526D01*
X170909526Y-136529105D01*
X170909526Y-136529106D01*
X170819543Y-136672310D01*
X170763688Y-136831938D01*
X170763687Y-136831941D01*
X170744751Y-137000000D01*
X164702747Y-137000000D01*
X164685368Y-136845755D01*
X164625789Y-136675488D01*
X164625787Y-136675485D01*
X164625787Y-136675484D01*
X164529817Y-136522749D01*
X164529816Y-136522747D01*
X164402262Y-136395193D01*
X164402260Y-136395192D01*
X164249525Y-136299222D01*
X164249522Y-136299221D01*
X164230903Y-136292706D01*
X164079255Y-136239642D01*
X163900000Y-136219445D01*
X163720745Y-136239642D01*
X163720742Y-136239642D01*
X163720742Y-136239643D01*
X163550477Y-136299221D01*
X163550474Y-136299222D01*
X163397739Y-136395192D01*
X163397737Y-136395193D01*
X163270183Y-136522747D01*
X163270182Y-136522749D01*
X163174212Y-136675484D01*
X163174211Y-136675487D01*
X163174211Y-136675488D01*
X163114632Y-136845755D01*
X163094435Y-137025010D01*
X150075500Y-137025010D01*
X150075500Y-134571876D01*
X150075499Y-134571847D01*
X150050475Y-134014633D01*
X150045044Y-133893713D01*
X152649500Y-133893713D01*
X152649500Y-134106287D01*
X152682754Y-134316243D01*
X152748443Y-134518412D01*
X152811037Y-134641259D01*
X152844951Y-134707819D01*
X152848041Y-134712072D01*
X152969896Y-134879792D01*
X152969898Y-134879794D01*
X152969900Y-134879797D01*
X153120202Y-135030099D01*
X153120205Y-135030101D01*
X153120208Y-135030104D01*
X153292184Y-135155051D01*
X153481588Y-135251557D01*
X153683757Y-135317246D01*
X153893713Y-135350500D01*
X153893716Y-135350500D01*
X154106284Y-135350500D01*
X154106287Y-135350500D01*
X154316243Y-135317246D01*
X154518412Y-135251557D01*
X154707816Y-135155051D01*
X154879792Y-135030104D01*
X155030104Y-134879792D01*
X155155051Y-134707816D01*
X155251557Y-134518412D01*
X155317246Y-134316243D01*
X155350500Y-134106287D01*
X155350500Y-133893713D01*
X155317246Y-133683757D01*
X155251557Y-133481588D01*
X155155051Y-133292184D01*
X155030104Y-133120208D01*
X155030101Y-133120205D01*
X155030099Y-133120202D01*
X154879797Y-132969900D01*
X154879794Y-132969898D01*
X154879792Y-132969896D01*
X154750334Y-132875840D01*
X154707819Y-132844951D01*
X154707818Y-132844950D01*
X154707816Y-132844949D01*
X154518412Y-132748443D01*
X154316243Y-132682754D01*
X154106287Y-132649500D01*
X153893713Y-132649500D01*
X153683757Y-132682754D01*
X153683754Y-132682754D01*
X153683753Y-132682755D01*
X153481588Y-132748443D01*
X153481586Y-132748444D01*
X153292180Y-132844951D01*
X153120205Y-132969898D01*
X153120202Y-132969900D01*
X152969900Y-133120202D01*
X152969898Y-133120205D01*
X152844951Y-133292180D01*
X152844949Y-133292184D01*
X152748443Y-133481588D01*
X152682754Y-133683757D01*
X152649500Y-133893713D01*
X150045044Y-133893713D01*
X150037085Y-133716487D01*
X149960331Y-132863684D01*
X149845394Y-132015183D01*
X149834339Y-131954267D01*
X149692508Y-131172714D01*
X149692501Y-131172679D01*
X149562485Y-130603040D01*
X149501971Y-130337911D01*
X149274177Y-129512517D01*
X149009581Y-128698175D01*
X148708716Y-127896524D01*
X148707515Y-127893713D01*
X152649500Y-127893713D01*
X152649500Y-128106287D01*
X152682754Y-128316243D01*
X152748443Y-128518412D01*
X152844949Y-128707816D01*
X152969896Y-128879792D01*
X152969898Y-128879794D01*
X152969900Y-128879797D01*
X153120202Y-129030099D01*
X153120205Y-129030101D01*
X153120208Y-129030104D01*
X153292184Y-129155051D01*
X153481588Y-129251557D01*
X153683757Y-129317246D01*
X153893713Y-129350500D01*
X153893716Y-129350500D01*
X154106284Y-129350500D01*
X154106287Y-129350500D01*
X154316243Y-129317246D01*
X154518412Y-129251557D01*
X154707816Y-129155051D01*
X154879792Y-129030104D01*
X155030104Y-128879792D01*
X155155051Y-128707816D01*
X155251557Y-128518412D01*
X155317246Y-128316243D01*
X155350500Y-128106287D01*
X155350500Y-127893713D01*
X155317246Y-127683757D01*
X155251557Y-127481588D01*
X155155051Y-127292184D01*
X155030104Y-127120208D01*
X155030101Y-127120205D01*
X155030099Y-127120202D01*
X154879797Y-126969900D01*
X154879794Y-126969898D01*
X154879792Y-126969896D01*
X154707816Y-126844949D01*
X154518412Y-126748443D01*
X154316243Y-126682754D01*
X154106287Y-126649500D01*
X153893713Y-126649500D01*
X153683757Y-126682754D01*
X153683754Y-126682754D01*
X153683753Y-126682755D01*
X153481588Y-126748443D01*
X153481586Y-126748444D01*
X153292180Y-126844951D01*
X153120205Y-126969898D01*
X153120202Y-126969900D01*
X152969900Y-127120202D01*
X152969898Y-127120205D01*
X152844951Y-127292180D01*
X152748444Y-127481586D01*
X152748443Y-127481588D01*
X152700419Y-127629391D01*
X152682754Y-127683757D01*
X152649500Y-127893713D01*
X148707515Y-127893713D01*
X148372188Y-127109178D01*
X148124710Y-126595285D01*
X148000691Y-126337756D01*
X148000666Y-126337706D01*
X147594925Y-125583713D01*
X147594900Y-125583669D01*
X147155761Y-124848675D01*
X147155757Y-124848670D01*
X147155755Y-124848666D01*
X146684049Y-124134063D01*
X146571574Y-123979255D01*
X146397305Y-123739394D01*
X146180758Y-123441342D01*
X145646895Y-122771898D01*
X145646889Y-122771891D01*
X145646873Y-122771872D01*
X145083541Y-122127088D01*
X145083535Y-122127081D01*
X144770008Y-121799158D01*
X144491812Y-121508187D01*
X144110844Y-121143945D01*
X143872919Y-120916465D01*
X143716150Y-120779500D01*
X143228127Y-120353126D01*
X143228108Y-120353110D01*
X143228102Y-120353105D01*
X142558658Y-119819242D01*
X142463355Y-119750000D01*
X141865950Y-119315960D01*
X141865942Y-119315955D01*
X141865937Y-119315951D01*
X141151334Y-118844245D01*
X141151331Y-118844243D01*
X141151324Y-118844238D01*
X140416330Y-118405099D01*
X140416286Y-118405074D01*
X139662293Y-117999333D01*
X139662243Y-117999308D01*
X138890827Y-117627814D01*
X138587107Y-117497998D01*
X138103476Y-117291284D01*
X137301825Y-116990419D01*
X137301822Y-116990418D01*
X137301814Y-116990415D01*
X136487491Y-116725825D01*
X135662095Y-116498030D01*
X134827320Y-116307498D01*
X134827285Y-116307491D01*
X134622272Y-116270287D01*
X134558817Y-116238443D01*
X134522652Y-116177348D01*
X134525259Y-116106399D01*
X134555673Y-116057218D01*
X134608050Y-116004842D01*
X134665646Y-115891804D01*
X134680500Y-115798019D01*
X134680500Y-115538000D01*
X134700502Y-115469879D01*
X134754158Y-115423386D01*
X134806500Y-115412000D01*
X136016641Y-115412000D01*
X136084762Y-115432002D01*
X136105736Y-115448905D01*
X136775084Y-116118253D01*
X136775105Y-116118276D01*
X136877328Y-116220499D01*
X136877333Y-116220503D01*
X136877335Y-116220505D01*
X136877336Y-116220506D01*
X136877338Y-116220507D01*
X136997159Y-116289686D01*
X136997161Y-116289686D01*
X136997164Y-116289688D01*
X137130817Y-116325500D01*
X137269183Y-116325500D01*
X138130140Y-116325500D01*
X138198261Y-116345502D01*
X138219235Y-116362404D01*
X139077335Y-117220505D01*
X139197165Y-117289689D01*
X139330817Y-117325501D01*
X139330819Y-117325501D01*
X139476902Y-117325501D01*
X139476918Y-117325500D01*
X142332330Y-117325500D01*
X142400451Y-117345502D01*
X142446944Y-117399158D01*
X142457048Y-117469432D01*
X142427554Y-117534012D01*
X142425399Y-117536420D01*
X142402311Y-117563451D01*
X142326935Y-117700559D01*
X142288028Y-117852092D01*
X142288027Y-117852102D01*
X142288027Y-118008558D01*
X142288028Y-118008568D01*
X142326935Y-118160101D01*
X142402310Y-118297207D01*
X142402313Y-118297211D01*
X142425169Y-118323972D01*
X142425181Y-118323986D01*
X142876014Y-118774818D01*
X142876020Y-118774823D01*
X142902790Y-118797688D01*
X142971344Y-118835376D01*
X143039897Y-118873064D01*
X143191439Y-118911973D01*
X143191442Y-118911973D01*
X143347899Y-118911973D01*
X143347900Y-118911973D01*
X143347900Y-118911972D01*
X143348817Y-118911857D01*
X143349536Y-118911973D01*
X143355827Y-118911973D01*
X143355827Y-118912987D01*
X143418908Y-118923159D01*
X143471762Y-118970561D01*
X143490617Y-119036862D01*
X143490617Y-119184350D01*
X143529919Y-119337423D01*
X143529920Y-119337426D01*
X143606051Y-119475906D01*
X143606056Y-119475914D01*
X143629146Y-119502949D01*
X143629158Y-119502963D01*
X144072037Y-119945841D01*
X144072043Y-119945846D01*
X144099087Y-119968945D01*
X144099091Y-119968947D01*
X144237573Y-120045079D01*
X144237577Y-120045081D01*
X144390650Y-120084383D01*
X144390652Y-120084383D01*
X144514617Y-120084383D01*
X144582738Y-120104385D01*
X144629231Y-120158041D01*
X144640617Y-120210383D01*
X144640617Y-120359350D01*
X144679919Y-120512423D01*
X144679920Y-120512426D01*
X144756051Y-120650906D01*
X144756056Y-120650914D01*
X144776200Y-120674500D01*
X144779158Y-120677963D01*
X145222037Y-121120841D01*
X145222043Y-121120846D01*
X145249087Y-121143945D01*
X145249091Y-121143947D01*
X145349391Y-121199088D01*
X145387577Y-121220081D01*
X145540650Y-121259383D01*
X145540652Y-121259383D01*
X145706616Y-121259383D01*
X145706616Y-121261369D01*
X145766317Y-121270995D01*
X145819171Y-121318396D01*
X145838027Y-121384699D01*
X145838027Y-121533558D01*
X145838028Y-121533568D01*
X145876935Y-121685101D01*
X145952310Y-121822207D01*
X145952313Y-121822211D01*
X145975169Y-121848972D01*
X145975181Y-121848986D01*
X146426014Y-122299818D01*
X146426020Y-122299823D01*
X146452790Y-122322688D01*
X146521344Y-122360376D01*
X146589897Y-122398064D01*
X146741439Y-122436973D01*
X146741442Y-122436973D01*
X146889617Y-122436973D01*
X146957738Y-122456975D01*
X147004231Y-122510631D01*
X147015617Y-122562973D01*
X147015617Y-122709350D01*
X147042649Y-122814632D01*
X147054920Y-122862426D01*
X147131051Y-123000906D01*
X147131056Y-123000914D01*
X147154146Y-123027949D01*
X147154158Y-123027963D01*
X147597037Y-123470841D01*
X147597043Y-123470846D01*
X147624087Y-123493945D01*
X147624091Y-123493947D01*
X147762573Y-123570079D01*
X147762577Y-123570081D01*
X147815752Y-123583733D01*
X147873511Y-123616680D01*
X147957847Y-123701016D01*
X147991873Y-123763328D01*
X147993384Y-123792925D01*
X147994435Y-123792925D01*
X147994435Y-123799997D01*
X147994435Y-123800000D01*
X148014632Y-123979255D01*
X148062003Y-124114633D01*
X148074211Y-124149522D01*
X148074212Y-124149525D01*
X148170182Y-124302260D01*
X148170183Y-124302262D01*
X148297737Y-124429816D01*
X148297739Y-124429817D01*
X148450474Y-124525787D01*
X148450475Y-124525787D01*
X148450478Y-124525789D01*
X148620745Y-124585368D01*
X148800000Y-124605565D01*
X148979255Y-124585368D01*
X149149522Y-124525789D01*
X149302262Y-124429816D01*
X149429816Y-124302262D01*
X149525789Y-124149522D01*
X149585368Y-123979255D01*
X149605565Y-123800000D01*
X149585368Y-123620745D01*
X149525789Y-123450478D01*
X149525787Y-123450475D01*
X149525787Y-123450474D01*
X149429817Y-123297739D01*
X149429816Y-123297737D01*
X149384848Y-123252769D01*
X149350822Y-123190457D01*
X149353345Y-123155178D01*
X149335045Y-123162004D01*
X149265671Y-123146913D01*
X149259020Y-123143012D01*
X149149525Y-123074212D01*
X149149522Y-123074211D01*
X149135090Y-123069161D01*
X148987341Y-123017461D01*
X148929650Y-122976084D01*
X148903488Y-122910084D01*
X148906915Y-122867200D01*
X148936886Y-122750474D01*
X148938367Y-122744706D01*
X148938367Y-122639367D01*
X148958369Y-122571246D01*
X149012025Y-122524753D01*
X149064367Y-122513367D01*
X149102175Y-122513367D01*
X149170296Y-122533369D01*
X149216789Y-122587025D01*
X149221104Y-122597752D01*
X149274211Y-122749522D01*
X149274212Y-122749525D01*
X149370182Y-122902260D01*
X149370183Y-122902262D01*
X149415151Y-122947230D01*
X149449177Y-123009542D01*
X149446653Y-123044820D01*
X149464954Y-123037995D01*
X149534328Y-123053086D01*
X149540979Y-123056987D01*
X149650474Y-123125787D01*
X149650475Y-123125787D01*
X149650478Y-123125789D01*
X149820745Y-123185368D01*
X150000000Y-123205565D01*
X150179255Y-123185368D01*
X150349522Y-123125789D01*
X150502262Y-123029816D01*
X150629816Y-122902262D01*
X150725789Y-122749522D01*
X150785368Y-122579255D01*
X150805565Y-122400000D01*
X150785368Y-122220745D01*
X150725789Y-122050478D01*
X150725787Y-122050475D01*
X150725787Y-122050474D01*
X150629817Y-121897739D01*
X150629816Y-121897737D01*
X150502262Y-121770183D01*
X150502260Y-121770182D01*
X150349525Y-121674212D01*
X150349522Y-121674211D01*
X150179260Y-121614633D01*
X150179246Y-121614630D01*
X150146273Y-121610915D01*
X150080821Y-121583411D01*
X150040629Y-121524886D01*
X150036404Y-121498385D01*
X150035377Y-121498515D01*
X150034384Y-121490658D01*
X150034383Y-121490654D01*
X150034383Y-121490650D01*
X149995081Y-121337577D01*
X149987221Y-121323279D01*
X149918948Y-121199093D01*
X149918943Y-121199085D01*
X149895853Y-121172050D01*
X149895842Y-121172037D01*
X149452963Y-120729159D01*
X149452956Y-120729153D01*
X149425912Y-120706054D01*
X149425908Y-120706052D01*
X149287426Y-120629920D01*
X149287423Y-120629919D01*
X149134350Y-120590617D01*
X148987973Y-120590617D01*
X148919852Y-120570615D01*
X148873359Y-120516959D01*
X148861973Y-120464617D01*
X148861973Y-120316441D01*
X148861971Y-120316431D01*
X148832413Y-120201311D01*
X148823064Y-120164897D01*
X148778800Y-120084383D01*
X148747689Y-120027792D01*
X148747686Y-120027788D01*
X148724830Y-120001027D01*
X148724819Y-120001014D01*
X148273986Y-119550182D01*
X148273979Y-119550176D01*
X148247209Y-119527311D01*
X148110101Y-119451935D01*
X147958568Y-119413028D01*
X147958562Y-119413027D01*
X147958561Y-119413027D01*
X147802100Y-119413027D01*
X147802096Y-119413027D01*
X147801169Y-119413144D01*
X147800444Y-119413027D01*
X147794173Y-119413027D01*
X147794173Y-119412015D01*
X147731079Y-119401834D01*
X147678230Y-119354426D01*
X147659383Y-119288137D01*
X147659383Y-119251500D01*
X147679385Y-119183379D01*
X147733041Y-119136886D01*
X147785383Y-119125500D01*
X153330141Y-119125500D01*
X153398262Y-119145502D01*
X153419236Y-119162405D01*
X160932994Y-126676163D01*
X160967020Y-126738475D01*
X160961955Y-126809290D01*
X160919408Y-126866126D01*
X160852888Y-126890937D01*
X160819318Y-126888837D01*
X160722104Y-126869500D01*
X160722099Y-126869500D01*
X160597901Y-126869500D01*
X160597895Y-126869500D01*
X160500684Y-126888837D01*
X160476090Y-126893729D01*
X160387695Y-126930344D01*
X160361344Y-126941259D01*
X160258084Y-127010255D01*
X160258077Y-127010260D01*
X160170260Y-127098077D01*
X160170255Y-127098084D01*
X160135884Y-127149525D01*
X160101258Y-127201346D01*
X160082046Y-127247729D01*
X160053730Y-127316088D01*
X160053729Y-127316091D01*
X160029500Y-127437895D01*
X160029500Y-127562104D01*
X160042884Y-127629388D01*
X160053729Y-127683910D01*
X160101258Y-127798654D01*
X160170258Y-127901920D01*
X160258080Y-127989742D01*
X160361346Y-128058742D01*
X160476090Y-128106271D01*
X160578450Y-128126631D01*
X160597895Y-128130499D01*
X160597898Y-128130499D01*
X160597901Y-128130500D01*
X160597902Y-128130500D01*
X160722098Y-128130500D01*
X160722099Y-128130500D01*
X160843910Y-128106271D01*
X160958654Y-128058742D01*
X161061920Y-127989742D01*
X161149742Y-127901920D01*
X161149746Y-127901913D01*
X161151001Y-127900386D01*
X161151863Y-127899798D01*
X161154119Y-127897543D01*
X161154546Y-127897970D01*
X161209680Y-127860419D01*
X161280651Y-127858521D01*
X161341382Y-127895294D01*
X161372591Y-127959064D01*
X161374397Y-127980323D01*
X161374397Y-130138128D01*
X161354395Y-130206249D01*
X161300739Y-130252742D01*
X161230465Y-130262846D01*
X161165885Y-130233352D01*
X161159302Y-130227223D01*
X161102262Y-130170183D01*
X161102260Y-130170182D01*
X160949525Y-130074212D01*
X160949522Y-130074211D01*
X160861652Y-130043464D01*
X160779255Y-130014632D01*
X160600000Y-129994435D01*
X160420745Y-130014632D01*
X160420742Y-130014632D01*
X160420742Y-130014633D01*
X160250477Y-130074211D01*
X160250474Y-130074212D01*
X160097739Y-130170182D01*
X160097737Y-130170183D01*
X159970183Y-130297737D01*
X159970182Y-130297739D01*
X159874212Y-130450474D01*
X159874211Y-130450477D01*
X159825603Y-130589391D01*
X159814632Y-130620745D01*
X159794435Y-130800000D01*
X159814632Y-130979255D01*
X159814633Y-130979257D01*
X159874211Y-131149522D01*
X159874212Y-131149525D01*
X159970182Y-131302260D01*
X159970183Y-131302262D01*
X160097737Y-131429816D01*
X160097739Y-131429817D01*
X160250474Y-131525787D01*
X160250475Y-131525787D01*
X160250478Y-131525789D01*
X160420745Y-131585368D01*
X160600000Y-131605565D01*
X160779255Y-131585368D01*
X160949522Y-131525789D01*
X161102262Y-131429816D01*
X161114637Y-131417441D01*
X161159302Y-131372777D01*
X161221614Y-131338751D01*
X161292429Y-131343816D01*
X161349265Y-131386363D01*
X161374076Y-131452883D01*
X161374397Y-131461872D01*
X161374397Y-132397969D01*
X161374396Y-132397987D01*
X161374396Y-132405704D01*
X161374396Y-132544070D01*
X161396293Y-132625789D01*
X161410209Y-132677723D01*
X161479389Y-132797548D01*
X161479397Y-132797558D01*
X161584402Y-132902563D01*
X161584415Y-132902574D01*
X162132315Y-133450474D01*
X162482134Y-133800293D01*
X162516159Y-133862605D01*
X162511094Y-133933421D01*
X162468547Y-133990256D01*
X162402027Y-134015067D01*
X162378936Y-134014596D01*
X162200000Y-133994435D01*
X162020745Y-134014632D01*
X162020742Y-134014632D01*
X162020742Y-134014633D01*
X161850477Y-134074211D01*
X161850474Y-134074212D01*
X161697739Y-134170182D01*
X161697737Y-134170183D01*
X161570183Y-134297737D01*
X161570182Y-134297739D01*
X161474212Y-134450474D01*
X161474211Y-134450477D01*
X161419944Y-134605565D01*
X161414632Y-134620745D01*
X161404159Y-134713697D01*
X161397885Y-134769379D01*
X161370381Y-134834832D01*
X161311857Y-134875025D01*
X161240894Y-134877196D01*
X161180021Y-134840658D01*
X161167912Y-134825273D01*
X161162933Y-134817822D01*
X161149742Y-134798080D01*
X161061920Y-134710258D01*
X160958654Y-134641258D01*
X160843910Y-134593729D01*
X160809106Y-134586806D01*
X160722104Y-134569500D01*
X160722099Y-134569500D01*
X160597901Y-134569500D01*
X160597895Y-134569500D01*
X160493491Y-134590267D01*
X160476090Y-134593729D01*
X160399469Y-134625467D01*
X160361344Y-134641259D01*
X160258084Y-134710255D01*
X160258077Y-134710260D01*
X160170260Y-134798077D01*
X160170255Y-134798084D01*
X160114958Y-134880843D01*
X160101258Y-134901346D01*
X160053729Y-135016090D01*
X160050942Y-135030104D01*
X160047143Y-135049202D01*
X160014235Y-135112111D01*
X159952539Y-135147242D01*
X159881644Y-135143441D01*
X159824059Y-135101915D01*
X159816877Y-135091655D01*
X159762477Y-135005079D01*
X159762476Y-135005077D01*
X159634922Y-134877523D01*
X159634920Y-134877522D01*
X159482187Y-134781554D01*
X159482186Y-134781553D01*
X159482182Y-134781551D01*
X159482177Y-134781549D01*
X159476994Y-134779053D01*
X159424296Y-134731476D01*
X159405686Y-134662962D01*
X159427072Y-134595263D01*
X159481664Y-134549873D01*
X159490007Y-134546613D01*
X159549522Y-134525789D01*
X159702262Y-134429816D01*
X159829816Y-134302262D01*
X159925789Y-134149522D01*
X159985368Y-133979255D01*
X160005565Y-133800000D01*
X159985368Y-133620745D01*
X159925789Y-133450478D01*
X159925787Y-133450475D01*
X159925787Y-133450474D01*
X159829817Y-133297739D01*
X159829816Y-133297737D01*
X159702262Y-133170183D01*
X159702260Y-133170182D01*
X159549525Y-133074212D01*
X159549522Y-133074211D01*
X159379255Y-133014632D01*
X159200000Y-132994435D01*
X159020745Y-133014632D01*
X159020742Y-133014632D01*
X159020742Y-133014633D01*
X158850477Y-133074211D01*
X158850474Y-133074212D01*
X158697739Y-133170182D01*
X158697737Y-133170183D01*
X158570183Y-133297737D01*
X158570182Y-133297739D01*
X158474212Y-133450474D01*
X158474211Y-133450477D01*
X158474211Y-133450478D01*
X158414632Y-133620745D01*
X158394435Y-133800000D01*
X158414632Y-133979255D01*
X158427163Y-134015067D01*
X158474211Y-134149522D01*
X158474212Y-134149525D01*
X158570182Y-134302260D01*
X158570183Y-134302262D01*
X158697737Y-134429816D01*
X158697739Y-134429817D01*
X158850476Y-134525788D01*
X158855661Y-134528285D01*
X158908360Y-134575859D01*
X158926973Y-134644372D01*
X158905590Y-134712072D01*
X158851000Y-134757464D01*
X158842615Y-134760739D01*
X158783134Y-134781552D01*
X158630399Y-134877522D01*
X158630397Y-134877523D01*
X158502843Y-135005077D01*
X158502842Y-135005079D01*
X158406872Y-135157814D01*
X158406871Y-135157817D01*
X158356328Y-135302262D01*
X158347292Y-135328085D01*
X158327095Y-135507340D01*
X158347292Y-135686595D01*
X158397646Y-135830499D01*
X158406871Y-135856862D01*
X158406872Y-135856865D01*
X158502842Y-136009600D01*
X158502843Y-136009602D01*
X158630397Y-136137156D01*
X158630399Y-136137157D01*
X158783134Y-136233127D01*
X158783135Y-136233127D01*
X158783138Y-136233129D01*
X158953405Y-136292708D01*
X159132660Y-136312905D01*
X159311915Y-136292708D01*
X159482182Y-136233129D01*
X159634922Y-136137156D01*
X159762476Y-136009602D01*
X159858449Y-135856862D01*
X159918028Y-135686595D01*
X159924014Y-135633459D01*
X159951516Y-135568011D01*
X160010039Y-135527817D01*
X160081002Y-135525644D01*
X160141875Y-135562181D01*
X160153985Y-135577565D01*
X160170258Y-135601920D01*
X160258080Y-135689742D01*
X160361346Y-135758742D01*
X160476090Y-135806271D01*
X160580972Y-135827132D01*
X160597895Y-135830499D01*
X160597898Y-135830499D01*
X160597901Y-135830500D01*
X160597902Y-135830500D01*
X160722098Y-135830500D01*
X160722099Y-135830500D01*
X160843910Y-135806271D01*
X160958654Y-135758742D01*
X161061920Y-135689742D01*
X161149742Y-135601920D01*
X161218742Y-135498654D01*
X161266271Y-135383910D01*
X161289900Y-135265114D01*
X161322807Y-135202205D01*
X161384502Y-135167073D01*
X161455397Y-135170873D01*
X161512983Y-135212398D01*
X161520166Y-135222660D01*
X161570182Y-135302260D01*
X161570183Y-135302262D01*
X161697737Y-135429816D01*
X161697739Y-135429817D01*
X161850474Y-135525787D01*
X161850475Y-135525787D01*
X161850478Y-135525789D01*
X162020745Y-135585368D01*
X162200000Y-135605565D01*
X162379255Y-135585368D01*
X162549522Y-135525789D01*
X162702262Y-135429816D01*
X162829816Y-135302262D01*
X162925789Y-135149522D01*
X162985368Y-134979255D01*
X163005565Y-134800000D01*
X162985403Y-134621063D01*
X162997652Y-134551137D01*
X163045765Y-134498929D01*
X163114465Y-134481020D01*
X163181942Y-134503096D01*
X163199706Y-134517866D01*
X163557846Y-134876006D01*
X163591872Y-134938318D01*
X163593388Y-134967915D01*
X163594435Y-134967915D01*
X163594435Y-134974987D01*
X163594435Y-134974990D01*
X163614632Y-135154245D01*
X163653427Y-135265115D01*
X163674211Y-135324512D01*
X163674212Y-135324515D01*
X163770182Y-135477250D01*
X163770183Y-135477252D01*
X163897737Y-135604806D01*
X163897739Y-135604807D01*
X164050474Y-135700777D01*
X164050475Y-135700777D01*
X164050478Y-135700779D01*
X164220745Y-135760358D01*
X164400000Y-135780555D01*
X164579255Y-135760358D01*
X164749522Y-135700779D01*
X164902262Y-135604806D01*
X165003464Y-135503603D01*
X165065774Y-135469580D01*
X165136590Y-135474644D01*
X165193426Y-135517191D01*
X165197323Y-135522698D01*
X165250254Y-135601915D01*
X165250256Y-135601918D01*
X165250258Y-135601920D01*
X165338080Y-135689742D01*
X165441346Y-135758742D01*
X165556090Y-135806271D01*
X165660972Y-135827132D01*
X165677895Y-135830499D01*
X165677898Y-135830499D01*
X165677901Y-135830500D01*
X165677902Y-135830500D01*
X165802098Y-135830500D01*
X165802099Y-135830500D01*
X165923910Y-135806271D01*
X166038654Y-135758742D01*
X166141920Y-135689742D01*
X166229742Y-135601920D01*
X166298742Y-135498654D01*
X166346271Y-135383910D01*
X166370500Y-135262099D01*
X166370500Y-135137901D01*
X166346271Y-135016090D01*
X166298742Y-134901346D01*
X166229742Y-134798080D01*
X166141920Y-134710258D01*
X166038654Y-134641258D01*
X165923910Y-134593729D01*
X165889106Y-134586806D01*
X165802104Y-134569500D01*
X165802099Y-134569500D01*
X165677901Y-134569500D01*
X165677895Y-134569500D01*
X165573491Y-134590267D01*
X165556090Y-134593729D01*
X165479469Y-134625467D01*
X165441344Y-134641259D01*
X165338081Y-134710256D01*
X165335531Y-134712350D01*
X165333933Y-134713028D01*
X165332933Y-134713697D01*
X165332806Y-134713507D01*
X165270183Y-134740102D01*
X165200205Y-134728119D01*
X165147814Y-134680206D01*
X165136670Y-134656564D01*
X165132404Y-134644372D01*
X165125789Y-134625468D01*
X165125787Y-134625465D01*
X165125787Y-134625464D01*
X165029817Y-134472729D01*
X165029816Y-134472727D01*
X164902262Y-134345173D01*
X164902260Y-134345172D01*
X164749525Y-134249202D01*
X164749522Y-134249201D01*
X164579255Y-134189622D01*
X164400000Y-134169425D01*
X164399998Y-134169425D01*
X164399997Y-134169425D01*
X164392925Y-134169425D01*
X164392925Y-134166979D01*
X164334245Y-134156679D01*
X164301016Y-134132836D01*
X163788922Y-133620742D01*
X163086934Y-132918755D01*
X163052910Y-132856444D01*
X163057974Y-132785629D01*
X163100521Y-132728793D01*
X163167041Y-132703982D01*
X163190139Y-132704453D01*
X163200000Y-132705565D01*
X163379255Y-132685368D01*
X163549522Y-132625789D01*
X163702262Y-132529816D01*
X163829816Y-132402262D01*
X163925789Y-132249522D01*
X163985368Y-132079255D01*
X164005565Y-131900000D01*
X163985368Y-131720745D01*
X163925789Y-131550478D01*
X163925787Y-131550475D01*
X163925787Y-131550474D01*
X163829817Y-131397739D01*
X163829816Y-131397737D01*
X163702264Y-131270185D01*
X163702259Y-131270181D01*
X163701302Y-131269580D01*
X163700815Y-131269030D01*
X163696730Y-131265772D01*
X163697300Y-131265056D01*
X163654266Y-131216400D01*
X163643448Y-131146233D01*
X163649412Y-131121280D01*
X163650289Y-131118775D01*
X163691398Y-131001292D01*
X164395727Y-131001292D01*
X164415924Y-131180547D01*
X164474006Y-131346537D01*
X164477624Y-131417441D01*
X164474006Y-131429765D01*
X164415924Y-131595754D01*
X164415700Y-131597739D01*
X164395727Y-131775010D01*
X164415924Y-131954265D01*
X164415925Y-131954267D01*
X164475503Y-132124532D01*
X164475504Y-132124535D01*
X164571474Y-132277270D01*
X164571475Y-132277272D01*
X164699029Y-132404826D01*
X164699031Y-132404827D01*
X164851766Y-132500797D01*
X164851767Y-132500797D01*
X164851770Y-132500799D01*
X165022037Y-132560378D01*
X165201292Y-132580575D01*
X165380547Y-132560378D01*
X165550814Y-132500799D01*
X165703554Y-132404826D01*
X165831108Y-132277272D01*
X165927081Y-132124532D01*
X165935665Y-132100000D01*
X168494435Y-132100000D01*
X168514632Y-132279255D01*
X168514633Y-132279257D01*
X168574211Y-132449522D01*
X168574212Y-132449525D01*
X168670182Y-132602260D01*
X168670183Y-132602262D01*
X168797737Y-132729816D01*
X168797739Y-132729817D01*
X168950474Y-132825787D01*
X168950475Y-132825787D01*
X168950478Y-132825789D01*
X169120745Y-132885368D01*
X169300000Y-132905565D01*
X169479255Y-132885368D01*
X169649522Y-132825789D01*
X169802262Y-132729816D01*
X169929816Y-132602262D01*
X170025789Y-132449522D01*
X170085368Y-132279255D01*
X170105565Y-132100000D01*
X170085368Y-131920745D01*
X170025789Y-131750478D01*
X170025787Y-131750475D01*
X170025787Y-131750474D01*
X169929817Y-131597739D01*
X169929816Y-131597737D01*
X169802262Y-131470183D01*
X169802260Y-131470182D01*
X169649525Y-131374212D01*
X169649522Y-131374211D01*
X169548183Y-131338751D01*
X169479255Y-131314632D01*
X169300000Y-131294435D01*
X169120745Y-131314632D01*
X169120742Y-131314632D01*
X169120742Y-131314633D01*
X168950477Y-131374211D01*
X168950474Y-131374212D01*
X168797739Y-131470182D01*
X168797737Y-131470183D01*
X168670183Y-131597737D01*
X168670182Y-131597739D01*
X168574212Y-131750474D01*
X168574211Y-131750477D01*
X168574211Y-131750478D01*
X168514632Y-131920745D01*
X168494435Y-132100000D01*
X165935665Y-132100000D01*
X165986660Y-131954265D01*
X166006857Y-131775010D01*
X165986660Y-131595755D01*
X165928578Y-131429765D01*
X165924958Y-131358862D01*
X165928578Y-131346536D01*
X165939741Y-131314633D01*
X165986660Y-131180547D01*
X166006857Y-131001292D01*
X165986660Y-130822037D01*
X165927081Y-130651770D01*
X165927079Y-130651767D01*
X165927079Y-130651766D01*
X165831109Y-130499031D01*
X165831108Y-130499029D01*
X165703554Y-130371475D01*
X165703552Y-130371474D01*
X165550817Y-130275504D01*
X165550814Y-130275503D01*
X165514642Y-130262846D01*
X165380547Y-130215924D01*
X165201292Y-130195727D01*
X165022037Y-130215924D01*
X165022034Y-130215924D01*
X165022034Y-130215925D01*
X164851769Y-130275503D01*
X164851766Y-130275504D01*
X164699031Y-130371474D01*
X164699029Y-130371475D01*
X164571475Y-130499029D01*
X164571474Y-130499031D01*
X164475504Y-130651766D01*
X164475503Y-130651769D01*
X164434394Y-130769253D01*
X164415924Y-130822037D01*
X164401674Y-130948508D01*
X164395727Y-131001292D01*
X163691398Y-131001292D01*
X163709868Y-130948508D01*
X163730065Y-130769253D01*
X163722965Y-130706241D01*
X163735214Y-130636312D01*
X163759072Y-130603047D01*
X165144707Y-129217413D01*
X165207017Y-129183390D01*
X165233800Y-129180511D01*
X173168054Y-129180511D01*
X173168070Y-129180512D01*
X173175788Y-129180512D01*
X173314154Y-129180512D01*
X173420529Y-129152008D01*
X173420530Y-129152008D01*
X173430514Y-129149332D01*
X173447807Y-129144699D01*
X173567636Y-129075516D01*
X173665476Y-128977676D01*
X173675843Y-128967309D01*
X173675850Y-128967299D01*
X174051007Y-128592142D01*
X174113317Y-128558118D01*
X174142914Y-128556607D01*
X174142914Y-128555556D01*
X174149988Y-128555556D01*
X174149989Y-128555555D01*
X174149991Y-128555556D01*
X174329246Y-128535359D01*
X174499513Y-128475780D01*
X174652253Y-128379807D01*
X174779807Y-128252253D01*
X174875780Y-128099513D01*
X174935359Y-127929246D01*
X174955556Y-127749991D01*
X174935359Y-127570736D01*
X174875780Y-127400469D01*
X174875778Y-127400466D01*
X174875778Y-127400465D01*
X174779808Y-127247730D01*
X174779807Y-127247728D01*
X174652253Y-127120174D01*
X174652251Y-127120173D01*
X174499516Y-127024203D01*
X174499513Y-127024202D01*
X174459655Y-127010255D01*
X174329246Y-126964623D01*
X174149991Y-126944426D01*
X173970736Y-126964623D01*
X173970733Y-126964623D01*
X173970733Y-126964624D01*
X173800468Y-127024202D01*
X173677446Y-127101501D01*
X173609125Y-127120806D01*
X173541212Y-127100110D01*
X173495269Y-127045983D01*
X173485203Y-126980705D01*
X173485365Y-126979261D01*
X173485368Y-126979255D01*
X173505565Y-126800000D01*
X173490422Y-126665605D01*
X173502671Y-126595676D01*
X173550784Y-126543468D01*
X173615630Y-126525500D01*
X175184370Y-126525500D01*
X175252491Y-126545502D01*
X175298984Y-126599158D01*
X175309577Y-126665605D01*
X175294435Y-126800000D01*
X175314632Y-126979255D01*
X175363953Y-127120205D01*
X175374211Y-127149522D01*
X175374212Y-127149525D01*
X175470182Y-127302260D01*
X175470183Y-127302262D01*
X175597737Y-127429816D01*
X175597739Y-127429817D01*
X175750474Y-127525787D01*
X175750475Y-127525787D01*
X175750478Y-127525789D01*
X175920745Y-127585368D01*
X176100000Y-127605565D01*
X176279255Y-127585368D01*
X176449522Y-127525789D01*
X176602262Y-127429816D01*
X176729816Y-127302262D01*
X176825789Y-127149522D01*
X176885368Y-126979255D01*
X176905565Y-126800000D01*
X176894008Y-126697435D01*
X176906257Y-126627509D01*
X176954369Y-126575300D01*
X177023070Y-126557391D01*
X177060829Y-126564402D01*
X177120745Y-126585368D01*
X177300000Y-126605565D01*
X177479255Y-126585368D01*
X177649522Y-126525789D01*
X177802262Y-126429816D01*
X177929816Y-126302262D01*
X178025789Y-126149522D01*
X178085368Y-125979255D01*
X178105565Y-125800000D01*
X178085368Y-125620745D01*
X178025789Y-125450478D01*
X178025787Y-125450475D01*
X178025787Y-125450474D01*
X177929817Y-125297739D01*
X177929816Y-125297737D01*
X177802262Y-125170183D01*
X177802260Y-125170182D01*
X177649525Y-125074212D01*
X177649522Y-125074211D01*
X177479255Y-125014632D01*
X177300000Y-124994435D01*
X177120745Y-125014632D01*
X177120742Y-125014632D01*
X177120742Y-125014633D01*
X176950477Y-125074211D01*
X176950474Y-125074212D01*
X176797739Y-125170182D01*
X176797737Y-125170183D01*
X176670183Y-125297737D01*
X176670182Y-125297739D01*
X176596166Y-125415536D01*
X176542988Y-125462574D01*
X176489479Y-125474500D01*
X176012406Y-125474500D01*
X175944285Y-125454498D01*
X175897792Y-125400842D01*
X175887688Y-125330568D01*
X175905719Y-125281464D01*
X175913876Y-125268479D01*
X175925789Y-125249522D01*
X175985368Y-125079255D01*
X176005565Y-124900000D01*
X175985368Y-124720745D01*
X175925789Y-124550478D01*
X175925787Y-124550475D01*
X175925787Y-124550474D01*
X175829817Y-124397739D01*
X175829816Y-124397737D01*
X175702262Y-124270183D01*
X175702260Y-124270182D01*
X175549525Y-124174212D01*
X175549522Y-124174211D01*
X175434831Y-124134079D01*
X175379255Y-124114632D01*
X175200000Y-124094435D01*
X175020745Y-124114632D01*
X175020742Y-124114632D01*
X175020742Y-124114633D01*
X174850477Y-124174211D01*
X174850474Y-124174212D01*
X174697739Y-124270182D01*
X174697737Y-124270183D01*
X174570187Y-124397733D01*
X174570186Y-124397735D01*
X174570184Y-124397737D01*
X174570184Y-124397738D01*
X174559000Y-124415536D01*
X174505823Y-124462573D01*
X174452314Y-124474500D01*
X174297359Y-124474500D01*
X174229238Y-124454498D01*
X174182745Y-124400842D01*
X174172641Y-124330568D01*
X174202135Y-124265988D01*
X174208249Y-124259419D01*
X175025518Y-123442150D01*
X175087827Y-123408128D01*
X175117423Y-123406617D01*
X175117423Y-123405565D01*
X175124497Y-123405565D01*
X175124498Y-123405564D01*
X175124500Y-123405565D01*
X175303755Y-123385368D01*
X175474022Y-123325789D01*
X175626762Y-123229816D01*
X175754316Y-123102262D01*
X175850289Y-122949522D01*
X175909868Y-122779255D01*
X175930065Y-122600000D01*
X175909868Y-122420745D01*
X175850289Y-122250478D01*
X175842683Y-122238373D01*
X175804851Y-122178163D01*
X175785545Y-122109842D01*
X175806240Y-122041929D01*
X175860367Y-121995985D01*
X175925641Y-121985919D01*
X176100000Y-122005565D01*
X176279255Y-121985368D01*
X176449522Y-121925789D01*
X176602262Y-121829816D01*
X176729816Y-121702262D01*
X176825789Y-121549522D01*
X176885368Y-121379255D01*
X176905565Y-121200000D01*
X176885368Y-121020745D01*
X176825789Y-120850478D01*
X176825787Y-120850475D01*
X176825787Y-120850474D01*
X176729817Y-120697739D01*
X176729816Y-120697737D01*
X176602262Y-120570183D01*
X176602260Y-120570182D01*
X176449525Y-120474212D01*
X176449522Y-120474211D01*
X176422104Y-120464617D01*
X176279255Y-120414632D01*
X176100000Y-120394435D01*
X175920745Y-120414632D01*
X175920742Y-120414632D01*
X175920742Y-120414633D01*
X175750477Y-120474211D01*
X175750474Y-120474212D01*
X175597740Y-120570181D01*
X175577305Y-120590617D01*
X175530325Y-120637596D01*
X175468016Y-120671620D01*
X175441232Y-120674500D01*
X171270632Y-120674500D01*
X171202511Y-120654498D01*
X171156018Y-120600842D01*
X171145914Y-120530568D01*
X171175408Y-120465988D01*
X171203596Y-120441813D01*
X171302260Y-120379817D01*
X171302262Y-120379816D01*
X171429816Y-120252262D01*
X171429817Y-120252260D01*
X171439616Y-120236666D01*
X171525789Y-120099522D01*
X171585368Y-119929255D01*
X171605565Y-119750000D01*
X171585368Y-119570745D01*
X171525789Y-119400478D01*
X171525787Y-119400475D01*
X171525787Y-119400474D01*
X171429817Y-119247739D01*
X171429816Y-119247737D01*
X171333319Y-119151240D01*
X171299293Y-119088928D01*
X171304358Y-119018113D01*
X171315722Y-118995117D01*
X171375789Y-118899522D01*
X171435368Y-118729255D01*
X171455565Y-118550000D01*
X171435368Y-118370745D01*
X171375789Y-118200478D01*
X171375787Y-118200475D01*
X171375787Y-118200474D01*
X171279817Y-118047739D01*
X171279816Y-118047737D01*
X171196173Y-117964094D01*
X171162147Y-117901782D01*
X171167212Y-117830967D01*
X171196171Y-117785906D01*
X171229816Y-117752262D01*
X171246004Y-117726500D01*
X171317730Y-117612348D01*
X171325789Y-117599522D01*
X171385368Y-117429255D01*
X171405565Y-117250000D01*
X171385368Y-117070745D01*
X171325789Y-116900478D01*
X171325787Y-116900475D01*
X171325787Y-116900474D01*
X171229817Y-116747739D01*
X171229816Y-116747737D01*
X171102262Y-116620183D01*
X171102260Y-116620182D01*
X170949525Y-116524212D01*
X170949522Y-116524211D01*
X170888307Y-116502791D01*
X170779255Y-116464632D01*
X170600000Y-116444435D01*
X170420745Y-116464632D01*
X170420742Y-116464632D01*
X170420742Y-116464633D01*
X170250477Y-116524211D01*
X170250474Y-116524212D01*
X170097739Y-116620182D01*
X170097737Y-116620183D01*
X169970183Y-116747737D01*
X169970182Y-116747739D01*
X169874212Y-116900474D01*
X169874211Y-116900477D01*
X169842739Y-116990419D01*
X169814632Y-117070745D01*
X169794435Y-117250000D01*
X169814632Y-117429255D01*
X169814633Y-117429257D01*
X169874211Y-117599522D01*
X169874212Y-117599525D01*
X169970182Y-117752260D01*
X169970183Y-117752262D01*
X170053826Y-117835905D01*
X170087852Y-117898217D01*
X170082787Y-117969032D01*
X170053826Y-118014095D01*
X170020183Y-118047737D01*
X170020182Y-118047739D01*
X169924212Y-118200474D01*
X169924211Y-118200477D01*
X169880994Y-118323986D01*
X169864632Y-118370745D01*
X169844435Y-118550000D01*
X169864632Y-118729255D01*
X169864633Y-118729257D01*
X169924211Y-118899522D01*
X169924212Y-118899525D01*
X170020182Y-119052260D01*
X170020183Y-119052262D01*
X170116680Y-119148759D01*
X170150706Y-119211071D01*
X170145641Y-119281886D01*
X170134272Y-119304890D01*
X170074212Y-119400474D01*
X170074211Y-119400477D01*
X170047815Y-119475914D01*
X170014632Y-119570745D01*
X169994435Y-119750000D01*
X170014632Y-119929255D01*
X170039742Y-120001014D01*
X170074211Y-120099522D01*
X170074212Y-120099525D01*
X170170182Y-120252260D01*
X170170183Y-120252262D01*
X170297737Y-120379816D01*
X170297739Y-120379817D01*
X170396404Y-120441813D01*
X170443442Y-120494991D01*
X170454262Y-120565159D01*
X170425429Y-120630037D01*
X170366098Y-120669028D01*
X170329368Y-120674500D01*
X168550206Y-120674500D01*
X168482085Y-120654498D01*
X168435592Y-120600842D01*
X168425488Y-120530568D01*
X168454982Y-120465988D01*
X168483171Y-120441812D01*
X168491967Y-120436284D01*
X168502262Y-120429816D01*
X168629816Y-120302262D01*
X168725789Y-120149522D01*
X168785368Y-119979255D01*
X168805565Y-119800000D01*
X168785368Y-119620745D01*
X168725789Y-119450478D01*
X168725787Y-119450475D01*
X168725787Y-119450474D01*
X168629817Y-119297739D01*
X168629816Y-119297737D01*
X168502262Y-119170183D01*
X168502260Y-119170182D01*
X168349525Y-119074212D01*
X168349522Y-119074211D01*
X168286795Y-119052262D01*
X168179255Y-119014632D01*
X168000000Y-118994435D01*
X167820745Y-119014632D01*
X167820742Y-119014632D01*
X167820742Y-119014633D01*
X167650477Y-119074211D01*
X167650474Y-119074212D01*
X167497739Y-119170182D01*
X167497737Y-119170183D01*
X167370183Y-119297737D01*
X167370182Y-119297739D01*
X167274212Y-119450474D01*
X167274211Y-119450477D01*
X167239325Y-119550176D01*
X167214632Y-119620745D01*
X167194435Y-119800000D01*
X167214632Y-119979255D01*
X167231616Y-120027792D01*
X167274211Y-120149522D01*
X167274212Y-120149525D01*
X167370182Y-120302260D01*
X167370183Y-120302262D01*
X167497736Y-120429815D01*
X167516829Y-120441812D01*
X167563867Y-120494990D01*
X167574688Y-120565157D01*
X167545856Y-120630036D01*
X167486525Y-120669027D01*
X167449794Y-120674500D01*
X165476917Y-120674500D01*
X165476901Y-120674499D01*
X165469183Y-120674499D01*
X165330817Y-120674499D01*
X165259195Y-120693690D01*
X165197167Y-120710310D01*
X165197160Y-120710313D01*
X165077338Y-120779492D01*
X165077328Y-120779500D01*
X163598983Y-122257846D01*
X163536671Y-122291872D01*
X163507075Y-122293386D01*
X163507075Y-122294435D01*
X163500003Y-122294435D01*
X163500001Y-122294435D01*
X163500000Y-122294435D01*
X163320745Y-122314632D01*
X163320742Y-122314632D01*
X163320742Y-122314633D01*
X163150477Y-122374211D01*
X163150474Y-122374212D01*
X162997739Y-122470182D01*
X162997737Y-122470183D01*
X162870183Y-122597737D01*
X162870182Y-122597739D01*
X162774212Y-122750474D01*
X162774211Y-122750477D01*
X162721100Y-122902260D01*
X162714632Y-122920745D01*
X162705284Y-123003709D01*
X162677781Y-123069161D01*
X162619257Y-123109353D01*
X162602623Y-123112972D01*
X162602643Y-123113058D01*
X162595742Y-123114632D01*
X162425477Y-123174211D01*
X162425474Y-123174212D01*
X162272740Y-123270181D01*
X162224643Y-123318278D01*
X162162330Y-123352303D01*
X162091514Y-123347237D01*
X162034679Y-123304690D01*
X162030455Y-123298538D01*
X162029816Y-123297737D01*
X161902262Y-123170183D01*
X161902260Y-123170182D01*
X161749525Y-123074212D01*
X161749522Y-123074211D01*
X161735090Y-123069161D01*
X161579255Y-123014632D01*
X161400000Y-122994435D01*
X161220745Y-123014632D01*
X161220742Y-123014632D01*
X161220742Y-123014633D01*
X161050479Y-123074210D01*
X160985596Y-123114979D01*
X160917274Y-123134284D01*
X160849361Y-123113588D01*
X160829465Y-123097386D01*
X160702262Y-122970183D01*
X160702260Y-122970182D01*
X160549525Y-122874212D01*
X160549522Y-122874211D01*
X160515834Y-122862423D01*
X160379255Y-122814632D01*
X160200000Y-122794435D01*
X160020745Y-122814632D01*
X160020742Y-122814632D01*
X160020742Y-122814633D01*
X159850477Y-122874211D01*
X159850474Y-122874212D01*
X159697739Y-122970182D01*
X159697737Y-122970183D01*
X159570183Y-123097737D01*
X159570182Y-123097739D01*
X159474212Y-123250474D01*
X159415872Y-123417200D01*
X159374493Y-123474891D01*
X159308493Y-123501054D01*
X159238826Y-123487380D01*
X159207848Y-123464679D01*
X154027693Y-118284524D01*
X154027681Y-118284510D01*
X153922671Y-118179500D01*
X153922661Y-118179492D01*
X153802838Y-118110313D01*
X153802837Y-118110312D01*
X153802836Y-118110312D01*
X153774591Y-118102743D01*
X153774589Y-118102742D01*
X153725669Y-118089634D01*
X153669183Y-118074499D01*
X153530817Y-118074499D01*
X153523099Y-118074499D01*
X153523083Y-118074500D01*
X147461892Y-118074500D01*
X147393771Y-118054498D01*
X147372796Y-118037594D01*
X147328659Y-117993456D01*
X147328655Y-117993453D01*
X147328654Y-117993452D01*
X147328653Y-117993451D01*
X147230813Y-117895611D01*
X147230812Y-117895610D01*
X147230809Y-117895608D01*
X147110986Y-117826429D01*
X147110985Y-117826428D01*
X147110984Y-117826428D01*
X147082739Y-117818859D01*
X147082737Y-117818858D01*
X147033817Y-117805750D01*
X146977331Y-117790615D01*
X146838965Y-117790615D01*
X146831247Y-117790615D01*
X146831231Y-117790616D01*
X146532523Y-117790616D01*
X146464402Y-117770614D01*
X146422109Y-117725318D01*
X146393945Y-117674088D01*
X146393943Y-117674085D01*
X146370853Y-117647050D01*
X146370842Y-117647037D01*
X145927963Y-117204159D01*
X145927956Y-117204153D01*
X145900912Y-117181054D01*
X145900908Y-117181052D01*
X145762426Y-117104920D01*
X145762423Y-117104919D01*
X145609350Y-117065617D01*
X145451311Y-117065617D01*
X145443384Y-117065617D01*
X145443384Y-117063634D01*
X145383663Y-117053994D01*
X145330817Y-117006583D01*
X145311973Y-116940300D01*
X145311973Y-116791441D01*
X145311971Y-116791431D01*
X145295126Y-116725823D01*
X145273064Y-116639897D01*
X145197688Y-116502791D01*
X145197686Y-116502788D01*
X145174825Y-116476021D01*
X145174816Y-116476011D01*
X144919252Y-116220447D01*
X144885226Y-116158135D01*
X144882347Y-116131352D01*
X144882347Y-115300994D01*
X152247704Y-115300994D01*
X152247704Y-115300999D01*
X152266867Y-115605591D01*
X152324055Y-115905387D01*
X152324058Y-115905399D01*
X152402378Y-116146440D01*
X152418368Y-116195652D01*
X152548315Y-116471804D01*
X152548317Y-116471807D01*
X152548320Y-116471813D01*
X152711845Y-116729487D01*
X152711847Y-116729490D01*
X152906389Y-116964651D01*
X152906390Y-116964652D01*
X153128871Y-117173575D01*
X153375782Y-117352967D01*
X153643230Y-117499998D01*
X153833927Y-117575500D01*
X153926991Y-117612347D01*
X153926994Y-117612348D01*
X153926997Y-117612349D01*
X154222608Y-117688249D01*
X154525400Y-117726500D01*
X154525404Y-117726500D01*
X154830596Y-117726500D01*
X154830600Y-117726500D01*
X155133392Y-117688249D01*
X155429003Y-117612349D01*
X155712770Y-117499998D01*
X155980218Y-117352967D01*
X156227129Y-117173575D01*
X156449610Y-116964652D01*
X156644151Y-116729492D01*
X156807685Y-116471804D01*
X156937632Y-116195652D01*
X157031944Y-115905390D01*
X157089132Y-115605597D01*
X157108296Y-115301000D01*
X157105370Y-115254498D01*
X157089132Y-114996408D01*
X157089132Y-114996403D01*
X157031944Y-114696610D01*
X156937632Y-114406348D01*
X156807685Y-114130196D01*
X156807679Y-114130186D01*
X156644154Y-113872512D01*
X156644152Y-113872509D01*
X156449610Y-113637348D01*
X156449608Y-113637346D01*
X156389449Y-113580853D01*
X156227129Y-113428425D01*
X156227125Y-113428422D01*
X156227124Y-113428421D01*
X156053477Y-113302259D01*
X155980218Y-113249033D01*
X155712770Y-113102002D01*
X155600757Y-113057653D01*
X155429008Y-112989652D01*
X155429005Y-112989651D01*
X155231929Y-112939051D01*
X155133392Y-112913751D01*
X155133386Y-112913750D01*
X155133378Y-112913749D01*
X154830614Y-112875501D01*
X154830603Y-112875500D01*
X154830600Y-112875500D01*
X154525400Y-112875500D01*
X154525397Y-112875500D01*
X154525385Y-112875501D01*
X154222621Y-112913749D01*
X154222608Y-112913751D01*
X153926994Y-112989651D01*
X153926991Y-112989652D01*
X153643230Y-113102002D01*
X153375780Y-113249034D01*
X153128875Y-113428421D01*
X152906391Y-113637346D01*
X152906389Y-113637348D01*
X152711847Y-113872509D01*
X152711845Y-113872512D01*
X152548320Y-114130186D01*
X152548313Y-114130200D01*
X152418371Y-114406341D01*
X152418367Y-114406350D01*
X152324058Y-114696600D01*
X152324055Y-114696612D01*
X152266867Y-114996408D01*
X152247704Y-115300994D01*
X144882347Y-115300994D01*
X144882347Y-111687665D01*
X144882347Y-111687664D01*
X144846535Y-111554011D01*
X144846533Y-111554008D01*
X144846533Y-111554006D01*
X144777354Y-111434185D01*
X144777346Y-111434175D01*
X144737165Y-111393994D01*
X163593704Y-111393994D01*
X163593704Y-111394005D01*
X163612867Y-111698591D01*
X163670055Y-111998387D01*
X163670058Y-111998399D01*
X163751963Y-112250474D01*
X163764368Y-112288652D01*
X163894315Y-112564804D01*
X163894317Y-112564807D01*
X163894320Y-112564813D01*
X164057845Y-112822487D01*
X164057847Y-112822490D01*
X164206610Y-113002314D01*
X164252390Y-113057652D01*
X164474871Y-113266575D01*
X164721782Y-113445967D01*
X164989230Y-113592998D01*
X165179927Y-113668500D01*
X165272991Y-113705347D01*
X165272994Y-113705348D01*
X165272997Y-113705349D01*
X165568608Y-113781249D01*
X165871400Y-113819500D01*
X165871404Y-113819500D01*
X166176596Y-113819500D01*
X166176600Y-113819500D01*
X166479392Y-113781249D01*
X166775003Y-113705349D01*
X167058770Y-113592998D01*
X167326218Y-113445967D01*
X167573129Y-113266575D01*
X167795610Y-113057652D01*
X167990151Y-112822492D01*
X168153685Y-112564804D01*
X168283632Y-112288652D01*
X168377944Y-111998390D01*
X168435132Y-111698597D01*
X168451768Y-111434182D01*
X168454296Y-111394005D01*
X168454296Y-111393994D01*
X168443713Y-111225786D01*
X168435132Y-111089403D01*
X168377944Y-110789610D01*
X168374579Y-110779255D01*
X168340449Y-110674212D01*
X168283632Y-110499348D01*
X168153685Y-110223196D01*
X168107536Y-110150477D01*
X167990154Y-109965512D01*
X167990152Y-109965509D01*
X167795610Y-109730348D01*
X167795608Y-109730346D01*
X167757366Y-109694435D01*
X167573129Y-109521425D01*
X167573125Y-109521422D01*
X167573124Y-109521421D01*
X167326219Y-109342034D01*
X167326220Y-109342034D01*
X167326218Y-109342033D01*
X167058770Y-109195002D01*
X166926127Y-109142485D01*
X166775008Y-109082652D01*
X166775005Y-109082651D01*
X166577929Y-109032051D01*
X166479392Y-109006751D01*
X166479386Y-109006750D01*
X166479378Y-109006749D01*
X166176614Y-108968501D01*
X166176603Y-108968500D01*
X166176600Y-108968500D01*
X165871400Y-108968500D01*
X165871397Y-108968500D01*
X165871385Y-108968501D01*
X165568621Y-109006749D01*
X165568608Y-109006751D01*
X165272994Y-109082651D01*
X165272991Y-109082652D01*
X164989230Y-109195002D01*
X164721780Y-109342034D01*
X164474875Y-109521421D01*
X164252391Y-109730346D01*
X164252389Y-109730348D01*
X164057847Y-109965509D01*
X164057845Y-109965512D01*
X163894320Y-110223186D01*
X163894313Y-110223200D01*
X163764371Y-110499341D01*
X163764367Y-110499350D01*
X163670058Y-110789600D01*
X163670055Y-110789612D01*
X163612867Y-111089408D01*
X163593704Y-111393994D01*
X144737165Y-111393994D01*
X144675123Y-111331952D01*
X144675100Y-111331931D01*
X143843169Y-110500000D01*
X149694435Y-110500000D01*
X149714632Y-110679255D01*
X149749624Y-110779255D01*
X149774211Y-110849522D01*
X149774212Y-110849525D01*
X149870182Y-111002260D01*
X149870183Y-111002262D01*
X149997737Y-111129816D01*
X149997739Y-111129817D01*
X150150474Y-111225787D01*
X150150475Y-111225787D01*
X150150478Y-111225789D01*
X150320745Y-111285368D01*
X150500000Y-111305565D01*
X150679255Y-111285368D01*
X150849522Y-111225789D01*
X150932963Y-111173358D01*
X151001284Y-111154052D01*
X151067036Y-111173358D01*
X151074127Y-111177814D01*
X151142450Y-111220745D01*
X151150478Y-111225789D01*
X151320745Y-111285368D01*
X151500000Y-111305565D01*
X151679255Y-111285368D01*
X151849522Y-111225789D01*
X152002262Y-111129816D01*
X152129816Y-111002262D01*
X152225789Y-110849522D01*
X152285368Y-110679255D01*
X152305565Y-110500000D01*
X152285368Y-110320745D01*
X152225789Y-110150478D01*
X152225787Y-110150475D01*
X152225787Y-110150474D01*
X152129817Y-109997739D01*
X152129816Y-109997737D01*
X152002262Y-109870183D01*
X152002260Y-109870182D01*
X151849525Y-109774212D01*
X151849522Y-109774211D01*
X151849519Y-109774210D01*
X151679255Y-109714632D01*
X151500000Y-109694435D01*
X151320745Y-109714632D01*
X151320742Y-109714632D01*
X151320742Y-109714633D01*
X151150479Y-109774210D01*
X151067035Y-109826641D01*
X150998714Y-109845946D01*
X150932965Y-109826641D01*
X150883030Y-109795265D01*
X150849522Y-109774211D01*
X150849521Y-109774210D01*
X150849520Y-109774210D01*
X150764388Y-109744421D01*
X150679255Y-109714632D01*
X150500000Y-109694435D01*
X150320745Y-109714632D01*
X150320742Y-109714632D01*
X150320742Y-109714633D01*
X150150477Y-109774211D01*
X150150474Y-109774212D01*
X149997739Y-109870182D01*
X149997737Y-109870183D01*
X149870183Y-109997737D01*
X149870182Y-109997739D01*
X149774212Y-110150474D01*
X149774211Y-110150477D01*
X149774211Y-110150478D01*
X149714632Y-110320745D01*
X149694435Y-110500000D01*
X143843169Y-110500000D01*
X133539881Y-100196712D01*
X140859397Y-100196712D01*
X140891359Y-100788654D01*
X140891359Y-100788657D01*
X140961616Y-101377295D01*
X141062948Y-101922858D01*
X141069873Y-101960140D01*
X141215674Y-102534744D01*
X141398406Y-103098691D01*
X141609785Y-103630697D01*
X141617301Y-103649613D01*
X141617305Y-103649621D01*
X141871427Y-104185165D01*
X141871429Y-104185169D01*
X141871435Y-104185180D01*
X141871438Y-104185186D01*
X142116680Y-104625789D01*
X142159747Y-104703163D01*
X142159754Y-104703175D01*
X142481017Y-105201365D01*
X142481029Y-105201383D01*
X142833900Y-105677703D01*
X142833904Y-105677708D01*
X142833908Y-105677713D01*
X143216920Y-106130183D01*
X143628450Y-106556879D01*
X144066768Y-106956009D01*
X144239914Y-107094255D01*
X144530027Y-107325893D01*
X144530049Y-107325909D01*
X145016273Y-107664971D01*
X145016285Y-107664978D01*
X145016289Y-107664981D01*
X145523501Y-107971842D01*
X146049532Y-108245187D01*
X146592173Y-108483868D01*
X146592171Y-108483868D01*
X146935056Y-108608848D01*
X147149140Y-108686881D01*
X147718093Y-108853373D01*
X148296640Y-108982643D01*
X148882348Y-109074148D01*
X149472755Y-109127504D01*
X150065379Y-109142485D01*
X150265553Y-109134558D01*
X150657714Y-109119031D01*
X150657721Y-109119030D01*
X150657727Y-109119030D01*
X151247311Y-109057236D01*
X151831650Y-108957364D01*
X152408289Y-108819833D01*
X152408299Y-108819830D01*
X152974791Y-108645226D01*
X152974795Y-108645224D01*
X152974803Y-108645222D01*
X153528810Y-108434264D01*
X154067982Y-108187847D01*
X154590050Y-107907006D01*
X155092822Y-107592923D01*
X155574181Y-107246917D01*
X156032106Y-106870444D01*
X156464671Y-106465086D01*
X156870057Y-106032548D01*
X157055331Y-105807235D01*
X157061209Y-105800581D01*
X157232018Y-105620548D01*
X157244529Y-105609033D01*
X157434876Y-105456280D01*
X157448849Y-105446544D01*
X157658064Y-105320894D01*
X157673222Y-105313134D01*
X157897489Y-105216878D01*
X157913558Y-105211235D01*
X158148763Y-105146139D01*
X158165441Y-105142718D01*
X158407281Y-105109971D01*
X158424288Y-105108833D01*
X158668330Y-105109035D01*
X158685315Y-105110202D01*
X158922466Y-105142716D01*
X158927090Y-105143350D01*
X158943785Y-105146803D01*
X159033244Y-105171722D01*
X159178870Y-105212286D01*
X159194936Y-105217958D01*
X159327902Y-105275290D01*
X159419036Y-105314585D01*
X159434187Y-105322373D01*
X159643197Y-105448373D01*
X159657149Y-105458129D01*
X159699634Y-105492340D01*
X159847221Y-105611184D01*
X159859746Y-105622751D01*
X160006581Y-105778032D01*
X160009094Y-105781648D01*
X160031715Y-105804927D01*
X160038549Y-105812557D01*
X160051653Y-105828442D01*
X160065581Y-105839782D01*
X160139876Y-105916252D01*
X160240046Y-106019353D01*
X160363303Y-106130183D01*
X160672463Y-106408175D01*
X160672492Y-106408199D01*
X161017836Y-106679004D01*
X161130091Y-106767030D01*
X161493502Y-107014404D01*
X161610810Y-107094255D01*
X161610812Y-107094257D01*
X161610817Y-107094260D01*
X161610823Y-107094264D01*
X162112488Y-107388400D01*
X162632812Y-107648105D01*
X163169436Y-107872202D01*
X163719925Y-108059675D01*
X164281783Y-108209672D01*
X164281792Y-108209673D01*
X164281793Y-108209674D01*
X164543779Y-108261018D01*
X164852463Y-108321514D01*
X165429376Y-108394694D01*
X166009907Y-108428880D01*
X166009914Y-108428879D01*
X166009916Y-108428880D01*
X166219252Y-108427092D01*
X166591422Y-108423916D01*
X167171284Y-108379826D01*
X167746864Y-108296809D01*
X168154479Y-108209674D01*
X168315524Y-108175248D01*
X168315528Y-108175246D01*
X168315551Y-108175242D01*
X168874768Y-108015676D01*
X169421977Y-107818834D01*
X169954697Y-107585610D01*
X170333471Y-107388408D01*
X170470482Y-107317076D01*
X170470488Y-107317072D01*
X170470512Y-107317060D01*
X170967083Y-107014404D01*
X171049790Y-106956015D01*
X171442135Y-106679030D01*
X171442169Y-106679004D01*
X171893557Y-106312430D01*
X171893570Y-106312418D01*
X171893584Y-106312407D01*
X172319312Y-105916251D01*
X172717412Y-105492340D01*
X173086079Y-105042597D01*
X173423640Y-104569061D01*
X173728566Y-104073879D01*
X173999473Y-103559298D01*
X174235132Y-103027651D01*
X174434475Y-102481348D01*
X174596598Y-101922868D01*
X174720766Y-101354743D01*
X174806416Y-100779548D01*
X174853159Y-100199894D01*
X174860783Y-99618408D01*
X174829253Y-99037727D01*
X174758714Y-98460485D01*
X174649484Y-97889300D01*
X174502059Y-97326761D01*
X174317107Y-96775419D01*
X174095468Y-96237776D01*
X173838146Y-95716269D01*
X173651003Y-95393713D01*
X175149500Y-95393713D01*
X175149500Y-95606287D01*
X175182754Y-95816243D01*
X175248443Y-96018412D01*
X175344949Y-96207816D01*
X175344951Y-96207819D01*
X175375840Y-96250334D01*
X175469896Y-96379792D01*
X175469898Y-96379794D01*
X175469900Y-96379797D01*
X175620202Y-96530099D01*
X175620205Y-96530101D01*
X175620208Y-96530104D01*
X175792184Y-96655051D01*
X175981588Y-96751557D01*
X176183757Y-96817246D01*
X176393713Y-96850500D01*
X176393716Y-96850500D01*
X176606284Y-96850500D01*
X176606287Y-96850500D01*
X176816243Y-96817246D01*
X177018412Y-96751557D01*
X177207816Y-96655051D01*
X177379792Y-96530104D01*
X177530104Y-96379792D01*
X177655051Y-96207816D01*
X177751557Y-96018412D01*
X177817246Y-95816243D01*
X177850500Y-95606287D01*
X177850500Y-95393713D01*
X177817246Y-95183757D01*
X177751557Y-94981588D01*
X177655051Y-94792184D01*
X177530104Y-94620208D01*
X177530101Y-94620205D01*
X177530099Y-94620202D01*
X177379797Y-94469900D01*
X177379794Y-94469898D01*
X177379792Y-94469896D01*
X177207816Y-94344949D01*
X177018412Y-94248443D01*
X176816243Y-94182754D01*
X176606287Y-94149500D01*
X176393713Y-94149500D01*
X176183757Y-94182754D01*
X176183754Y-94182754D01*
X176183753Y-94182755D01*
X175981588Y-94248443D01*
X175981586Y-94248444D01*
X175792180Y-94344951D01*
X175620205Y-94469898D01*
X175620202Y-94469900D01*
X175469900Y-94620202D01*
X175469898Y-94620205D01*
X175344951Y-94792180D01*
X175248444Y-94981586D01*
X175248443Y-94981588D01*
X175193877Y-95149525D01*
X175182754Y-95183757D01*
X175149500Y-95393713D01*
X173651003Y-95393713D01*
X173546308Y-95213263D01*
X173221278Y-94731040D01*
X172864529Y-94271785D01*
X172477680Y-93837583D01*
X172446879Y-93807376D01*
X172062494Y-93430409D01*
X172062480Y-93430397D01*
X172047796Y-93417819D01*
X171620827Y-93052086D01*
X171550038Y-92999276D01*
X171154718Y-92704361D01*
X171154712Y-92704357D01*
X171154708Y-92704354D01*
X170666242Y-92388783D01*
X170666239Y-92388781D01*
X170420279Y-92252414D01*
X170157645Y-92106802D01*
X169631223Y-91859691D01*
X169631221Y-91859690D01*
X169631210Y-91859685D01*
X169089435Y-91648597D01*
X173992000Y-91648597D01*
X173998505Y-91709093D01*
X174049555Y-91845964D01*
X174049555Y-91845965D01*
X174137095Y-91962904D01*
X174254034Y-92050444D01*
X174390906Y-92101494D01*
X174451402Y-92107999D01*
X174451415Y-92108000D01*
X174771000Y-92108000D01*
X175279000Y-92108000D01*
X175366000Y-92108000D01*
X175434121Y-92128002D01*
X175480614Y-92181658D01*
X175492000Y-92234000D01*
X175492000Y-92548597D01*
X175498505Y-92609093D01*
X175549555Y-92745964D01*
X175549555Y-92745965D01*
X175637095Y-92862904D01*
X175754034Y-92950444D01*
X175890906Y-93001494D01*
X175951402Y-93007999D01*
X175951415Y-93008000D01*
X176246000Y-93008000D01*
X176246000Y-90992000D01*
X176754000Y-90992000D01*
X176754000Y-93008000D01*
X177048585Y-93008000D01*
X177048597Y-93007999D01*
X177109093Y-93001494D01*
X177245964Y-92950444D01*
X177245965Y-92950444D01*
X177362904Y-92862904D01*
X177450444Y-92745965D01*
X177450444Y-92745964D01*
X177501494Y-92609093D01*
X177507999Y-92548597D01*
X177508000Y-92548585D01*
X177508000Y-92234000D01*
X177528002Y-92165879D01*
X177581658Y-92119386D01*
X177634000Y-92108000D01*
X177721000Y-92108000D01*
X177721000Y-90754000D01*
X176942000Y-90754000D01*
X176942000Y-90866000D01*
X176921998Y-90934121D01*
X176868342Y-90980614D01*
X176816000Y-90992000D01*
X176754000Y-90992000D01*
X176246000Y-90992000D01*
X176184000Y-90992000D01*
X176115879Y-90971998D01*
X176069386Y-90918342D01*
X176058000Y-90866000D01*
X176058000Y-90754000D01*
X175279000Y-90754000D01*
X175279000Y-92108000D01*
X174771000Y-92108000D01*
X174771000Y-90754000D01*
X173992000Y-90754000D01*
X173992000Y-91648597D01*
X169089435Y-91648597D01*
X169089399Y-91648583D01*
X169089377Y-91648575D01*
X169089363Y-91648570D01*
X168534523Y-91474397D01*
X168440379Y-91451675D01*
X167969234Y-91337964D01*
X167969220Y-91337961D01*
X167969218Y-91337961D01*
X167532112Y-91263169D01*
X167396024Y-91239884D01*
X167396023Y-91239883D01*
X167396012Y-91239882D01*
X166817505Y-91180604D01*
X166801251Y-91180038D01*
X166236326Y-91160395D01*
X166236325Y-91160395D01*
X165655106Y-91179349D01*
X165655074Y-91179351D01*
X165076460Y-91237379D01*
X164503042Y-91334220D01*
X163937437Y-91469437D01*
X163382235Y-91642408D01*
X162876661Y-91838135D01*
X162839916Y-91852361D01*
X162312962Y-92098335D01*
X162312957Y-92098337D01*
X162312950Y-92098341D01*
X161803756Y-92379217D01*
X161803750Y-92379221D01*
X161491608Y-92579926D01*
X161341647Y-92676351D01*
X161314600Y-92693742D01*
X160847743Y-93040458D01*
X160405273Y-93417815D01*
X160200398Y-93617910D01*
X160196376Y-93621669D01*
X159754783Y-94016778D01*
X159740203Y-94027034D01*
X159725872Y-94042099D01*
X159718613Y-94049140D01*
X159707398Y-94059177D01*
X159703787Y-94063165D01*
X159539155Y-94214776D01*
X159526175Y-94225231D01*
X159331438Y-94361881D01*
X159317192Y-94370531D01*
X159106125Y-94480283D01*
X159090862Y-94486977D01*
X158867158Y-94567911D01*
X158851146Y-94572532D01*
X158618712Y-94623234D01*
X158602230Y-94625701D01*
X158365148Y-94645283D01*
X158348483Y-94645554D01*
X158110874Y-94633671D01*
X158094321Y-94631739D01*
X157860376Y-94588605D01*
X157844222Y-94584506D01*
X157618010Y-94510871D01*
X157602537Y-94504675D01*
X157388015Y-94401823D01*
X157373497Y-94393640D01*
X157174432Y-94263380D01*
X157161120Y-94253352D01*
X157155430Y-94248443D01*
X156980988Y-94097957D01*
X156969125Y-94086269D01*
X156831923Y-93931911D01*
X156830653Y-93929937D01*
X156806868Y-93903422D01*
X156801166Y-93896595D01*
X156790479Y-93882838D01*
X156790477Y-93882837D01*
X156786979Y-93878334D01*
X156774883Y-93867769D01*
X156604169Y-93677480D01*
X156404074Y-93481598D01*
X156180548Y-93262778D01*
X155730971Y-92876428D01*
X155730957Y-92876416D01*
X155730948Y-92876409D01*
X155730938Y-92876401D01*
X155730925Y-92876391D01*
X155257265Y-92519995D01*
X155156447Y-92453913D01*
X154761451Y-92195008D01*
X154761448Y-92195006D01*
X154245632Y-91902844D01*
X153711974Y-91644729D01*
X153711968Y-91644726D01*
X153711965Y-91644725D01*
X153162692Y-91421732D01*
X153162686Y-91421730D01*
X153162676Y-91421726D01*
X152600126Y-91234804D01*
X152600099Y-91234796D01*
X152026652Y-91084733D01*
X152026613Y-91084724D01*
X151444617Y-90972133D01*
X151444574Y-90972126D01*
X150986594Y-90914000D01*
X150856504Y-90897489D01*
X150264808Y-90861117D01*
X150264803Y-90861117D01*
X149672012Y-90863166D01*
X149671970Y-90863168D01*
X149080578Y-90903628D01*
X148658326Y-90960190D01*
X148493003Y-90982336D01*
X148492999Y-90982336D01*
X148492990Y-90982338D01*
X147911771Y-91098954D01*
X147339312Y-91252997D01*
X146778085Y-91443799D01*
X146778044Y-91443814D01*
X146230344Y-91670594D01*
X145698486Y-91932392D01*
X145184692Y-92228120D01*
X145184675Y-92228131D01*
X144861368Y-92443256D01*
X144691147Y-92556520D01*
X144691143Y-92556522D01*
X144691140Y-92556525D01*
X144691129Y-92556533D01*
X144219933Y-92916204D01*
X144219930Y-92916206D01*
X143773008Y-93305682D01*
X143352263Y-93723303D01*
X142959470Y-94167311D01*
X142780478Y-94398216D01*
X142604138Y-94625701D01*
X142596268Y-94635853D01*
X142264223Y-95126903D01*
X142264217Y-95126911D01*
X142264215Y-95126916D01*
X142213658Y-95213259D01*
X141964669Y-95638489D01*
X141964668Y-95638492D01*
X141698917Y-96168376D01*
X141468050Y-96714400D01*
X141273062Y-97274220D01*
X141114757Y-97845519D01*
X140993813Y-98425859D01*
X140993813Y-98425861D01*
X140910733Y-99012801D01*
X140910733Y-99012809D01*
X140910732Y-99012817D01*
X140910732Y-99012820D01*
X140908841Y-99037734D01*
X140865864Y-99603931D01*
X140859397Y-100196712D01*
X133539881Y-100196712D01*
X129042405Y-95699236D01*
X129008379Y-95636924D01*
X129005500Y-95610141D01*
X129005500Y-94800000D01*
X130594435Y-94800000D01*
X130614632Y-94979255D01*
X130641684Y-95056565D01*
X130674211Y-95149522D01*
X130674212Y-95149525D01*
X130770182Y-95302260D01*
X130770183Y-95302262D01*
X130897733Y-95429812D01*
X130897737Y-95429815D01*
X130897738Y-95429816D01*
X130963193Y-95470944D01*
X131010231Y-95524122D01*
X131021366Y-95591729D01*
X131020435Y-95599997D01*
X131020435Y-95600000D01*
X131040632Y-95779255D01*
X131048976Y-95803100D01*
X131100211Y-95949522D01*
X131100212Y-95949525D01*
X131196182Y-96102260D01*
X131196183Y-96102262D01*
X131323737Y-96229816D01*
X131323739Y-96229817D01*
X131476474Y-96325787D01*
X131476475Y-96325787D01*
X131476478Y-96325789D01*
X131646745Y-96385368D01*
X131826000Y-96405565D01*
X132005255Y-96385368D01*
X132175522Y-96325789D01*
X132328262Y-96229816D01*
X132455816Y-96102262D01*
X132551789Y-95949522D01*
X132611368Y-95779255D01*
X132631565Y-95600000D01*
X132611368Y-95420745D01*
X132551789Y-95250478D01*
X132551787Y-95250475D01*
X132551787Y-95250474D01*
X132455817Y-95097739D01*
X132455816Y-95097737D01*
X132328266Y-94970187D01*
X132328259Y-94970181D01*
X132262805Y-94929053D01*
X132215768Y-94875874D01*
X132204634Y-94808259D01*
X132205565Y-94800000D01*
X132185368Y-94620745D01*
X132132056Y-94468389D01*
X134564500Y-94468389D01*
X134564500Y-94641611D01*
X134591598Y-94812701D01*
X134645127Y-94977445D01*
X134645128Y-94977448D01*
X134645130Y-94977452D01*
X134723768Y-95131788D01*
X134825587Y-95271930D01*
X134948069Y-95394412D01*
X135003630Y-95434779D01*
X135088212Y-95496232D01*
X135242555Y-95574873D01*
X135407299Y-95628402D01*
X135578389Y-95655500D01*
X135578392Y-95655500D01*
X135751608Y-95655500D01*
X135751611Y-95655500D01*
X135922701Y-95628402D01*
X136087445Y-95574873D01*
X136241788Y-95496232D01*
X136381928Y-95394414D01*
X136504414Y-95271928D01*
X136606232Y-95131788D01*
X136684873Y-94977445D01*
X136738402Y-94812701D01*
X136765500Y-94641611D01*
X136765500Y-94468389D01*
X136738402Y-94297299D01*
X136684873Y-94132555D01*
X136670100Y-94103562D01*
X136606233Y-93978214D01*
X136606231Y-93978211D01*
X136530691Y-93874239D01*
X136506835Y-93807376D01*
X136522915Y-93738225D01*
X136573828Y-93688744D01*
X136591009Y-93681254D01*
X136749522Y-93625789D01*
X136902262Y-93529816D01*
X137029816Y-93402262D01*
X137125789Y-93249522D01*
X137185368Y-93079255D01*
X137205565Y-92900000D01*
X137185368Y-92720745D01*
X137125789Y-92550478D01*
X137125787Y-92550475D01*
X137125787Y-92550474D01*
X137029817Y-92397739D01*
X137029816Y-92397737D01*
X136902262Y-92270183D01*
X136902260Y-92270182D01*
X136749525Y-92174212D01*
X136749522Y-92174211D01*
X136579255Y-92114632D01*
X136400000Y-92094435D01*
X136220745Y-92114632D01*
X136220742Y-92114632D01*
X136220742Y-92114633D01*
X136050477Y-92174211D01*
X136050474Y-92174212D01*
X135897739Y-92270182D01*
X135897737Y-92270183D01*
X135770183Y-92397737D01*
X135770182Y-92397739D01*
X135674212Y-92550474D01*
X135674211Y-92550477D01*
X135624081Y-92693742D01*
X135614632Y-92720745D01*
X135594435Y-92900000D01*
X135614632Y-93079255D01*
X135614633Y-93079257D01*
X135674211Y-93249522D01*
X135674212Y-93249525D01*
X135681714Y-93261464D01*
X135701020Y-93329785D01*
X135680324Y-93397699D01*
X135626197Y-93443642D01*
X135583220Y-93452761D01*
X135583327Y-93454111D01*
X135578398Y-93454498D01*
X135494258Y-93467825D01*
X135407299Y-93481598D01*
X135407296Y-93481598D01*
X135407295Y-93481599D01*
X135328253Y-93507281D01*
X135242555Y-93535127D01*
X135242553Y-93535127D01*
X135242547Y-93535130D01*
X135088211Y-93613768D01*
X134948069Y-93715587D01*
X134825587Y-93838069D01*
X134723768Y-93978211D01*
X134645130Y-94132547D01*
X134645127Y-94132553D01*
X134645127Y-94132555D01*
X134628816Y-94182754D01*
X134606384Y-94251794D01*
X134591598Y-94297299D01*
X134564500Y-94468389D01*
X132132056Y-94468389D01*
X132125789Y-94450478D01*
X132125787Y-94450475D01*
X132125787Y-94450474D01*
X132029817Y-94297739D01*
X132029816Y-94297737D01*
X131902262Y-94170183D01*
X131902260Y-94170182D01*
X131749525Y-94074212D01*
X131749522Y-94074211D01*
X131657751Y-94042099D01*
X131579255Y-94014632D01*
X131400000Y-93994435D01*
X131220745Y-94014632D01*
X131220742Y-94014632D01*
X131220742Y-94014633D01*
X131050477Y-94074211D01*
X131050474Y-94074212D01*
X130897739Y-94170182D01*
X130897737Y-94170183D01*
X130770183Y-94297737D01*
X130770182Y-94297739D01*
X130674212Y-94450474D01*
X130674211Y-94450477D01*
X130626408Y-94587091D01*
X130614632Y-94620745D01*
X130594435Y-94800000D01*
X129005500Y-94800000D01*
X129005500Y-91019999D01*
X129025502Y-90951878D01*
X129079158Y-90905385D01*
X129131500Y-90893999D01*
X129231516Y-90893999D01*
X129231518Y-90893999D01*
X129325304Y-90879146D01*
X129438342Y-90821550D01*
X129528050Y-90731842D01*
X129585646Y-90618804D01*
X129600500Y-90525019D01*
X129600499Y-88661982D01*
X129600499Y-88661981D01*
X129939500Y-88661981D01*
X129939500Y-88661984D01*
X129939500Y-90525016D01*
X129954353Y-90618802D01*
X130011949Y-90731842D01*
X130101657Y-90821550D01*
X130140299Y-90841238D01*
X130214696Y-90879146D01*
X130308481Y-90894000D01*
X131771518Y-90893999D01*
X131865304Y-90879146D01*
X131978342Y-90821550D01*
X132068050Y-90731842D01*
X132125646Y-90618804D01*
X132140500Y-90525019D01*
X132140499Y-88661982D01*
X132140499Y-88661981D01*
X132479500Y-88661981D01*
X132479500Y-88661984D01*
X132479500Y-90525016D01*
X132494353Y-90618802D01*
X132551949Y-90731842D01*
X132641657Y-90821550D01*
X132680299Y-90841238D01*
X132754696Y-90879146D01*
X132848481Y-90894000D01*
X134311518Y-90893999D01*
X134405304Y-90879146D01*
X134518342Y-90821550D01*
X134608050Y-90731842D01*
X134665646Y-90618804D01*
X134680500Y-90525019D01*
X134680499Y-89288357D01*
X134700501Y-89220237D01*
X134717399Y-89199268D01*
X134824587Y-89092080D01*
X134824597Y-89092073D01*
X134932798Y-88983872D01*
X134932804Y-88983866D01*
X134985843Y-88892000D01*
X135001985Y-88864041D01*
X135001985Y-88864040D01*
X135001987Y-88864037D01*
X135037799Y-88730384D01*
X135037799Y-88396469D01*
X135057801Y-88328348D01*
X135074699Y-88307378D01*
X135142115Y-88239963D01*
X135238088Y-88087223D01*
X135297667Y-87916956D01*
X135317864Y-87737701D01*
X135297667Y-87558446D01*
X135238088Y-87388179D01*
X135238086Y-87388176D01*
X135238086Y-87388175D01*
X135142116Y-87235440D01*
X135142115Y-87235438D01*
X135014561Y-87107884D01*
X135014559Y-87107883D01*
X134861824Y-87011913D01*
X134861821Y-87011912D01*
X134800552Y-86990473D01*
X134691554Y-86952333D01*
X134512299Y-86932136D01*
X134333044Y-86952333D01*
X134333041Y-86952333D01*
X134333041Y-86952334D01*
X134162776Y-87011912D01*
X134162773Y-87011913D01*
X134010038Y-87107883D01*
X134010036Y-87107884D01*
X133882482Y-87235438D01*
X133882481Y-87235440D01*
X133786511Y-87388175D01*
X133786510Y-87388178D01*
X133786510Y-87388179D01*
X133726931Y-87558446D01*
X133706734Y-87737701D01*
X133726931Y-87916956D01*
X133726932Y-87916958D01*
X133786510Y-88087223D01*
X133786511Y-88087226D01*
X133794515Y-88099964D01*
X133813821Y-88168286D01*
X133793125Y-88236199D01*
X133738998Y-88282142D01*
X133687828Y-88293000D01*
X132848483Y-88293000D01*
X132754697Y-88307853D01*
X132641657Y-88365449D01*
X132551949Y-88455157D01*
X132494355Y-88568194D01*
X132494354Y-88568196D01*
X132479500Y-88661981D01*
X132140499Y-88661981D01*
X132125646Y-88568196D01*
X132074840Y-88468484D01*
X132068050Y-88455157D01*
X131978342Y-88365449D01*
X131902502Y-88326807D01*
X131865304Y-88307854D01*
X131771519Y-88293000D01*
X131771515Y-88293000D01*
X130308483Y-88293000D01*
X130214697Y-88307853D01*
X130101657Y-88365449D01*
X130011949Y-88455157D01*
X129954355Y-88568194D01*
X129954354Y-88568196D01*
X129939500Y-88661981D01*
X129600499Y-88661981D01*
X129585646Y-88568196D01*
X129534840Y-88468484D01*
X129528050Y-88455157D01*
X129438342Y-88365449D01*
X129362502Y-88326807D01*
X129325304Y-88307854D01*
X129231519Y-88293000D01*
X129231515Y-88293000D01*
X127768483Y-88293000D01*
X127674697Y-88307853D01*
X127561657Y-88365449D01*
X127471949Y-88455157D01*
X127414355Y-88568194D01*
X127414354Y-88568196D01*
X127399500Y-88661981D01*
X127399500Y-88661984D01*
X127399500Y-90525016D01*
X127414353Y-90618802D01*
X127471949Y-90731842D01*
X127561657Y-90821550D01*
X127600299Y-90841238D01*
X127674696Y-90879146D01*
X127768481Y-90894000D01*
X127828500Y-90893999D01*
X127896619Y-90914000D01*
X127943113Y-90967655D01*
X127954500Y-91019999D01*
X127954500Y-95803082D01*
X127954499Y-95803100D01*
X127954499Y-95949184D01*
X127965096Y-95988732D01*
X127975694Y-96028282D01*
X127990312Y-96082836D01*
X128059492Y-96202661D01*
X128059500Y-96202671D01*
X128164510Y-96307681D01*
X128164524Y-96307693D01*
X143794442Y-111937611D01*
X143828468Y-111999923D01*
X143831347Y-112026706D01*
X143831347Y-116078319D01*
X143811345Y-116146440D01*
X143794446Y-116167409D01*
X143715085Y-116246771D01*
X143637777Y-116324079D01*
X143575465Y-116358104D01*
X143504649Y-116353039D01*
X143485682Y-116344102D01*
X143427158Y-116310313D01*
X143427157Y-116310312D01*
X143427156Y-116310312D01*
X143398911Y-116302743D01*
X143398909Y-116302742D01*
X143349989Y-116289634D01*
X143293503Y-116274499D01*
X143155137Y-116274499D01*
X143147419Y-116274499D01*
X143147403Y-116274500D01*
X139669861Y-116274500D01*
X139601740Y-116254498D01*
X139580766Y-116237596D01*
X138827690Y-115484521D01*
X138827680Y-115484509D01*
X138722671Y-115379500D01*
X138722661Y-115379492D01*
X138602837Y-115310312D01*
X138602839Y-115310312D01*
X138568081Y-115300999D01*
X138469186Y-115274499D01*
X138469183Y-115274499D01*
X138330817Y-115274499D01*
X138323099Y-115274499D01*
X138323083Y-115274500D01*
X137469859Y-115274500D01*
X137401738Y-115254498D01*
X137380764Y-115237595D01*
X136714193Y-114571024D01*
X136714181Y-114571010D01*
X136609171Y-114466000D01*
X136609161Y-114465992D01*
X136489338Y-114396813D01*
X136489337Y-114396812D01*
X136489336Y-114396812D01*
X136461091Y-114389243D01*
X136461089Y-114389242D01*
X136412169Y-114376134D01*
X136355683Y-114360999D01*
X136217317Y-114360999D01*
X136209599Y-114360999D01*
X136209583Y-114361000D01*
X134806499Y-114361000D01*
X134738378Y-114340998D01*
X134691885Y-114287342D01*
X134680499Y-114235000D01*
X134680499Y-113934983D01*
X134670606Y-113872512D01*
X134665646Y-113841196D01*
X134622499Y-113756515D01*
X134608050Y-113728157D01*
X134518342Y-113638449D01*
X134441946Y-113599524D01*
X134405304Y-113580854D01*
X134311519Y-113566000D01*
X134311515Y-113566000D01*
X132848483Y-113566000D01*
X132754697Y-113580853D01*
X132641657Y-113638449D01*
X132551949Y-113728157D01*
X132494355Y-113841194D01*
X132494354Y-113841196D01*
X132479500Y-113934981D01*
X132479500Y-113934984D01*
X132479500Y-115798018D01*
X132483536Y-115823499D01*
X132474435Y-115893909D01*
X132428712Y-115948222D01*
X132360883Y-115969193D01*
X132347796Y-115968699D01*
X132313609Y-115965623D01*
X132247554Y-115939597D01*
X132206057Y-115881991D01*
X132200452Y-115820418D01*
X132204000Y-115798019D01*
X132203999Y-113934982D01*
X132189146Y-113841196D01*
X132145999Y-113756515D01*
X132131550Y-113728157D01*
X132041844Y-113638451D01*
X132041839Y-113638447D01*
X132015023Y-113624784D01*
X131963408Y-113576036D01*
X131946343Y-113507121D01*
X131953296Y-113470910D01*
X131980309Y-113393713D01*
X139649500Y-113393713D01*
X139649500Y-113606287D01*
X139682754Y-113816243D01*
X139748443Y-114018412D01*
X139844949Y-114207816D01*
X139969896Y-114379792D01*
X139969898Y-114379794D01*
X139969900Y-114379797D01*
X140120202Y-114530099D01*
X140120205Y-114530101D01*
X140120208Y-114530104D01*
X140292184Y-114655051D01*
X140481588Y-114751557D01*
X140683757Y-114817246D01*
X140893713Y-114850500D01*
X140893716Y-114850500D01*
X141106284Y-114850500D01*
X141106287Y-114850500D01*
X141316243Y-114817246D01*
X141518412Y-114751557D01*
X141707816Y-114655051D01*
X141879792Y-114530104D01*
X142030104Y-114379792D01*
X142155051Y-114207816D01*
X142251557Y-114018412D01*
X142317246Y-113816243D01*
X142350500Y-113606287D01*
X142350500Y-113393713D01*
X142317246Y-113183757D01*
X142251557Y-112981588D01*
X142155051Y-112792184D01*
X142030104Y-112620208D01*
X142030101Y-112620205D01*
X142030099Y-112620202D01*
X141879797Y-112469900D01*
X141879794Y-112469898D01*
X141879792Y-112469896D01*
X141707816Y-112344949D01*
X141518412Y-112248443D01*
X141316243Y-112182754D01*
X141106287Y-112149500D01*
X140893713Y-112149500D01*
X140683757Y-112182754D01*
X140683754Y-112182754D01*
X140683753Y-112182755D01*
X140481588Y-112248443D01*
X140481586Y-112248444D01*
X140292180Y-112344951D01*
X140120205Y-112469898D01*
X140120202Y-112469900D01*
X139969900Y-112620202D01*
X139969898Y-112620205D01*
X139844951Y-112792180D01*
X139748444Y-112981586D01*
X139748443Y-112981588D01*
X139693877Y-113149525D01*
X139682754Y-113183757D01*
X139649500Y-113393713D01*
X131980309Y-113393713D01*
X131985368Y-113379255D01*
X132005565Y-113200000D01*
X131985368Y-113020745D01*
X131925789Y-112850478D01*
X131925787Y-112850475D01*
X131925787Y-112850474D01*
X131829817Y-112697739D01*
X131829816Y-112697737D01*
X131702262Y-112570183D01*
X131702260Y-112570182D01*
X131549525Y-112474212D01*
X131549522Y-112474211D01*
X131481694Y-112450477D01*
X131379255Y-112414632D01*
X131200000Y-112394435D01*
X131020745Y-112414632D01*
X131020742Y-112414632D01*
X131020742Y-112414633D01*
X130850477Y-112474211D01*
X130850474Y-112474212D01*
X130697739Y-112570182D01*
X130697737Y-112570183D01*
X130570183Y-112697737D01*
X130570182Y-112697739D01*
X130474212Y-112850474D01*
X130474211Y-112850477D01*
X130452071Y-112913751D01*
X130414632Y-113020745D01*
X130394435Y-113200000D01*
X130414632Y-113379255D01*
X130414632Y-113379257D01*
X130414633Y-113379258D01*
X130424459Y-113407339D01*
X130428078Y-113478243D01*
X130392789Y-113539849D01*
X130329796Y-113572595D01*
X130325240Y-113573403D01*
X130278196Y-113580853D01*
X130165157Y-113638449D01*
X130075449Y-113728157D01*
X130017855Y-113841194D01*
X130017854Y-113841196D01*
X130003000Y-113934981D01*
X130003000Y-113934984D01*
X130003001Y-115798500D01*
X129982999Y-115866621D01*
X129929343Y-115913114D01*
X129877001Y-115924500D01*
X129726500Y-115924500D01*
X129658379Y-115904498D01*
X129611886Y-115850842D01*
X129600500Y-115798500D01*
X129600499Y-113934983D01*
X129590606Y-113872512D01*
X129585646Y-113841196D01*
X129542499Y-113756515D01*
X129528050Y-113728157D01*
X129438342Y-113638449D01*
X129361946Y-113599524D01*
X129325304Y-113580854D01*
X129231519Y-113566000D01*
X129231516Y-113566000D01*
X128070268Y-113566000D01*
X128002147Y-113545998D01*
X127955654Y-113492342D01*
X127945550Y-113422068D01*
X127975044Y-113357488D01*
X127981159Y-113350918D01*
X128029816Y-113302262D01*
X128125789Y-113149522D01*
X128185368Y-112979255D01*
X128205565Y-112800000D01*
X128185368Y-112620745D01*
X128125789Y-112450478D01*
X128125787Y-112450475D01*
X128125787Y-112450474D01*
X128029817Y-112297739D01*
X128029816Y-112297737D01*
X127902262Y-112170183D01*
X127902260Y-112170182D01*
X127749525Y-112074212D01*
X127749522Y-112074211D01*
X127622648Y-112029816D01*
X127579255Y-112014632D01*
X127400000Y-111994435D01*
X127220745Y-112014632D01*
X127220742Y-112014632D01*
X127220742Y-112014633D01*
X127050477Y-112074211D01*
X127050474Y-112074212D01*
X126897739Y-112170182D01*
X126897737Y-112170183D01*
X126770183Y-112297737D01*
X126770182Y-112297739D01*
X126674212Y-112450474D01*
X126674211Y-112450477D01*
X126634203Y-112564813D01*
X126614632Y-112620745D01*
X126594435Y-112800000D01*
X126614632Y-112979255D01*
X126618270Y-112989651D01*
X126674211Y-113149522D01*
X126674212Y-113149525D01*
X126770182Y-113302260D01*
X126770183Y-113302262D01*
X126897737Y-113429816D01*
X126897739Y-113429817D01*
X127050474Y-113525787D01*
X127050475Y-113525787D01*
X127050478Y-113525789D01*
X127220745Y-113585368D01*
X127346392Y-113599524D01*
X127411842Y-113627028D01*
X127452035Y-113685551D01*
X127454208Y-113756515D01*
X127444548Y-113781935D01*
X127414354Y-113841196D01*
X127399500Y-113934981D01*
X127399500Y-113934984D01*
X127399500Y-114118435D01*
X127379498Y-114186556D01*
X127325842Y-114233049D01*
X127281914Y-114242604D01*
X127282032Y-114243643D01*
X127275001Y-114244435D01*
X127275000Y-114244435D01*
X127095745Y-114264632D01*
X127095742Y-114264632D01*
X127095742Y-114264633D01*
X126925477Y-114324211D01*
X126925474Y-114324212D01*
X126772739Y-114420182D01*
X126772737Y-114420183D01*
X126645183Y-114547737D01*
X126645182Y-114547739D01*
X126549212Y-114700474D01*
X126549211Y-114700477D01*
X126508353Y-114817244D01*
X126489632Y-114870745D01*
X126469435Y-115050000D01*
X126489632Y-115229255D01*
X126498465Y-115254498D01*
X126549211Y-115399522D01*
X126549212Y-115399525D01*
X126645182Y-115552260D01*
X126645183Y-115552262D01*
X126772736Y-115679815D01*
X126791829Y-115691812D01*
X126838867Y-115744990D01*
X126849688Y-115815157D01*
X126820856Y-115880036D01*
X126761525Y-115919027D01*
X126724794Y-115924500D01*
X121701500Y-115924500D01*
X121633379Y-115904498D01*
X121586886Y-115850842D01*
X121575500Y-115798500D01*
X121575500Y-112600000D01*
X122794435Y-112600000D01*
X122814632Y-112779255D01*
X122861694Y-112913751D01*
X122874211Y-112949522D01*
X122874212Y-112949525D01*
X122970182Y-113102260D01*
X122970183Y-113102262D01*
X123097737Y-113229816D01*
X123097739Y-113229817D01*
X123250474Y-113325787D01*
X123250475Y-113325787D01*
X123250478Y-113325789D01*
X123420745Y-113385368D01*
X123600000Y-113405565D01*
X123779255Y-113385368D01*
X123949522Y-113325789D01*
X124102262Y-113229816D01*
X124229816Y-113102262D01*
X124325789Y-112949522D01*
X124385368Y-112779255D01*
X124405565Y-112600000D01*
X124385368Y-112420745D01*
X124325789Y-112250478D01*
X124325787Y-112250475D01*
X124325787Y-112250474D01*
X124229817Y-112097739D01*
X124229816Y-112097737D01*
X124102262Y-111970183D01*
X124102260Y-111970182D01*
X123949525Y-111874212D01*
X123949522Y-111874211D01*
X123779255Y-111814632D01*
X123600000Y-111794435D01*
X123420745Y-111814632D01*
X123420742Y-111814632D01*
X123420742Y-111814633D01*
X123250477Y-111874211D01*
X123250474Y-111874212D01*
X123097739Y-111970182D01*
X123097737Y-111970183D01*
X122970183Y-112097737D01*
X122970182Y-112097739D01*
X122874212Y-112250474D01*
X122874211Y-112250477D01*
X122841154Y-112344949D01*
X122814632Y-112420745D01*
X122794435Y-112600000D01*
X121575500Y-112600000D01*
X121575500Y-110276230D01*
X122839500Y-110276230D01*
X122839500Y-110276233D01*
X122839500Y-110443767D01*
X122870576Y-110600000D01*
X122872185Y-110608085D01*
X122890964Y-110653420D01*
X122936297Y-110762863D01*
X122941188Y-110770183D01*
X123029373Y-110902161D01*
X123029378Y-110902167D01*
X123147832Y-111020621D01*
X123147838Y-111020626D01*
X123287137Y-111113703D01*
X123441918Y-111177816D01*
X123606233Y-111210500D01*
X123606234Y-111210500D01*
X123773766Y-111210500D01*
X123773767Y-111210500D01*
X123938082Y-111177816D01*
X124092863Y-111113703D01*
X124232162Y-111020626D01*
X124350626Y-110902162D01*
X124443703Y-110762863D01*
X124507816Y-110608082D01*
X124509424Y-110600000D01*
X130094435Y-110600000D01*
X130114632Y-110779255D01*
X130139221Y-110849525D01*
X130174211Y-110949522D01*
X130174212Y-110949525D01*
X130270182Y-111102260D01*
X130270183Y-111102262D01*
X130397737Y-111229816D01*
X130397739Y-111229817D01*
X130550474Y-111325787D01*
X130550475Y-111325787D01*
X130550478Y-111325789D01*
X130720745Y-111385368D01*
X130900000Y-111405565D01*
X130949391Y-111400000D01*
X132394435Y-111400000D01*
X132414632Y-111579255D01*
X132456392Y-111698597D01*
X132474211Y-111749522D01*
X132474212Y-111749525D01*
X132570182Y-111902260D01*
X132570183Y-111902262D01*
X132697737Y-112029816D01*
X132697739Y-112029817D01*
X132850474Y-112125787D01*
X132850475Y-112125787D01*
X132850478Y-112125789D01*
X133020745Y-112185368D01*
X133200000Y-112205565D01*
X133379255Y-112185368D01*
X133549522Y-112125789D01*
X133702262Y-112029816D01*
X133829816Y-111902262D01*
X133925789Y-111749522D01*
X133985368Y-111579255D01*
X134005565Y-111400000D01*
X133985368Y-111220745D01*
X133925789Y-111050478D01*
X133925787Y-111050475D01*
X133925787Y-111050474D01*
X133829817Y-110897739D01*
X133829816Y-110897737D01*
X133702262Y-110770183D01*
X133702260Y-110770182D01*
X133549525Y-110674212D01*
X133549522Y-110674211D01*
X133379255Y-110614632D01*
X133200000Y-110594435D01*
X133020745Y-110614632D01*
X133020742Y-110614632D01*
X133020742Y-110614633D01*
X132850477Y-110674211D01*
X132850474Y-110674212D01*
X132697739Y-110770182D01*
X132697737Y-110770183D01*
X132570183Y-110897737D01*
X132570182Y-110897739D01*
X132474212Y-111050474D01*
X132474211Y-111050477D01*
X132418217Y-111210499D01*
X132414632Y-111220745D01*
X132394435Y-111400000D01*
X130949391Y-111400000D01*
X131079255Y-111385368D01*
X131249522Y-111325789D01*
X131402262Y-111229816D01*
X131529816Y-111102262D01*
X131625789Y-110949522D01*
X131685368Y-110779255D01*
X131705565Y-110600000D01*
X131685368Y-110420745D01*
X131625789Y-110250478D01*
X131625787Y-110250475D01*
X131625787Y-110250474D01*
X131529817Y-110097739D01*
X131529816Y-110097737D01*
X131402262Y-109970183D01*
X131402260Y-109970182D01*
X131249525Y-109874212D01*
X131249522Y-109874211D01*
X131168745Y-109845946D01*
X131079255Y-109814632D01*
X130900000Y-109794435D01*
X130720745Y-109814632D01*
X130720742Y-109814632D01*
X130720742Y-109814633D01*
X130550477Y-109874211D01*
X130550474Y-109874212D01*
X130397739Y-109970182D01*
X130397737Y-109970183D01*
X130270183Y-110097737D01*
X130270182Y-110097739D01*
X130174212Y-110250474D01*
X130174211Y-110250477D01*
X130114633Y-110420742D01*
X130114632Y-110420745D01*
X130094435Y-110600000D01*
X124509424Y-110600000D01*
X124540500Y-110443767D01*
X124540500Y-110276233D01*
X124507816Y-110111918D01*
X124443703Y-109957137D01*
X124350626Y-109817838D01*
X124350621Y-109817832D01*
X124232167Y-109699378D01*
X124232161Y-109699373D01*
X124092864Y-109606298D01*
X124092865Y-109606298D01*
X124092863Y-109606297D01*
X123983420Y-109560964D01*
X123938085Y-109542185D01*
X123938083Y-109542184D01*
X123938082Y-109542184D01*
X123833719Y-109521425D01*
X123773769Y-109509500D01*
X123773767Y-109509500D01*
X123606233Y-109509500D01*
X123606230Y-109509500D01*
X123483830Y-109533847D01*
X123441918Y-109542184D01*
X123441917Y-109542184D01*
X123441914Y-109542185D01*
X123287135Y-109606298D01*
X123147838Y-109699373D01*
X123147832Y-109699378D01*
X123029378Y-109817832D01*
X123029373Y-109817838D01*
X122936298Y-109957135D01*
X122872185Y-110111914D01*
X122839500Y-110276230D01*
X121575500Y-110276230D01*
X121575500Y-103900000D01*
X131694435Y-103900000D01*
X131714632Y-104079255D01*
X131714633Y-104079257D01*
X131774211Y-104249522D01*
X131774212Y-104249525D01*
X131870182Y-104402260D01*
X131870183Y-104402262D01*
X131997737Y-104529816D01*
X131997739Y-104529817D01*
X132150474Y-104625787D01*
X132150475Y-104625787D01*
X132150478Y-104625789D01*
X132320745Y-104685368D01*
X132500000Y-104705565D01*
X132679255Y-104685368D01*
X132849522Y-104625789D01*
X133002262Y-104529816D01*
X133129816Y-104402262D01*
X133225789Y-104249522D01*
X133285368Y-104079255D01*
X133305565Y-103900000D01*
X133285368Y-103720745D01*
X133225789Y-103550478D01*
X133225787Y-103550475D01*
X133225787Y-103550474D01*
X133129817Y-103397739D01*
X133129816Y-103397737D01*
X133002262Y-103270183D01*
X133002260Y-103270182D01*
X132849525Y-103174212D01*
X132849522Y-103174211D01*
X132679255Y-103114632D01*
X132500000Y-103094435D01*
X132320745Y-103114632D01*
X132320742Y-103114632D01*
X132320742Y-103114633D01*
X132150477Y-103174211D01*
X132150474Y-103174212D01*
X131997739Y-103270182D01*
X131997737Y-103270183D01*
X131870183Y-103397737D01*
X131870182Y-103397739D01*
X131774212Y-103550474D01*
X131774211Y-103550477D01*
X131746141Y-103630697D01*
X131714632Y-103720745D01*
X131694435Y-103900000D01*
X121575500Y-103900000D01*
X121575500Y-86451500D01*
X121590622Y-86400000D01*
X127444751Y-86400000D01*
X127463687Y-86568059D01*
X127476499Y-86604673D01*
X127519543Y-86727689D01*
X127519544Y-86727690D01*
X127609523Y-86870890D01*
X127609526Y-86870893D01*
X127609526Y-86870894D01*
X127729105Y-86990473D01*
X127729107Y-86990474D01*
X127729110Y-86990477D01*
X127872310Y-87080456D01*
X128031941Y-87136313D01*
X128200000Y-87155249D01*
X128368059Y-87136313D01*
X128527690Y-87080456D01*
X128670890Y-86990477D01*
X128790477Y-86870890D01*
X128880456Y-86727690D01*
X128936313Y-86568059D01*
X128955249Y-86400000D01*
X128936313Y-86231941D01*
X128880456Y-86072310D01*
X128790477Y-85929110D01*
X128790473Y-85929106D01*
X128790473Y-85929105D01*
X128670894Y-85809526D01*
X128670891Y-85809524D01*
X128670890Y-85809523D01*
X128589700Y-85758507D01*
X128527689Y-85719543D01*
X128418485Y-85681331D01*
X128368059Y-85663687D01*
X128200000Y-85644751D01*
X128031941Y-85663687D01*
X128031938Y-85663687D01*
X128031938Y-85663688D01*
X127872310Y-85719543D01*
X127775981Y-85780071D01*
X127729110Y-85809523D01*
X127729108Y-85809524D01*
X127729106Y-85809526D01*
X127729105Y-85809526D01*
X127609526Y-85929105D01*
X127609526Y-85929106D01*
X127609524Y-85929108D01*
X127609523Y-85929110D01*
X127585322Y-85967626D01*
X127519543Y-86072310D01*
X127471752Y-86208892D01*
X127463687Y-86231941D01*
X127444751Y-86400000D01*
X121590622Y-86400000D01*
X121595502Y-86383379D01*
X121649158Y-86336886D01*
X121701500Y-86325500D01*
X125956875Y-86325500D01*
X125962634Y-86326347D01*
X125977151Y-86326024D01*
X125977152Y-86326025D01*
X125999382Y-86325531D01*
X126002180Y-86325500D01*
X126022136Y-86325500D01*
X126027849Y-86324868D01*
X126105200Y-86323063D01*
X126308406Y-86283079D01*
X126501765Y-86208894D01*
X126679566Y-86102698D01*
X126836560Y-85967627D01*
X126968110Y-85807671D01*
X127070329Y-85627554D01*
X127140201Y-85432594D01*
X127149236Y-85380607D01*
X127163840Y-85296565D01*
X127175660Y-85228551D01*
X127175660Y-85021449D01*
X127171346Y-84996623D01*
X127140203Y-84817415D01*
X127140202Y-84817412D01*
X127140201Y-84817406D01*
X127070329Y-84622446D01*
X126977952Y-84459671D01*
X135920088Y-84459671D01*
X135923377Y-84528050D01*
X135933556Y-84739717D01*
X135933557Y-84739721D01*
X135933557Y-84739724D01*
X135984556Y-85015406D01*
X136027607Y-85146540D01*
X136027613Y-85146581D01*
X136027620Y-85146579D01*
X138040136Y-91283511D01*
X138041927Y-91293351D01*
X138052847Y-91322602D01*
X138054519Y-91327372D01*
X138056766Y-91334220D01*
X138059235Y-91341749D01*
X138063081Y-91350012D01*
X138103376Y-91457746D01*
X138235909Y-91704914D01*
X138400465Y-91932003D01*
X138559176Y-92098341D01*
X138594067Y-92134908D01*
X138813193Y-92309938D01*
X139053864Y-92453913D01*
X139311709Y-92564219D01*
X139582044Y-92638853D01*
X139859960Y-92676458D01*
X139859961Y-92676457D01*
X139859962Y-92676458D01*
X139860174Y-92676457D01*
X140140409Y-92676352D01*
X140401286Y-92640851D01*
X140418289Y-92638538D01*
X140418289Y-92638537D01*
X140418296Y-92638537D01*
X140688575Y-92563699D01*
X140946337Y-92453198D01*
X141186899Y-92309041D01*
X141405892Y-92133846D01*
X141599340Y-91930795D01*
X141763727Y-91703577D01*
X141896069Y-91456318D01*
X141993961Y-91193509D01*
X142055626Y-90919924D01*
X142056142Y-90914000D01*
X142079944Y-90640535D01*
X142076728Y-90573658D01*
X142066473Y-90360406D01*
X142015457Y-90084637D01*
X141972381Y-89953426D01*
X141774956Y-89351402D01*
X173992000Y-89351402D01*
X173992000Y-90246000D01*
X174771000Y-90246000D01*
X174771000Y-88892000D01*
X174451402Y-88892000D01*
X174390906Y-88898505D01*
X174254035Y-88949555D01*
X174254034Y-88949555D01*
X174137095Y-89037095D01*
X174049555Y-89154034D01*
X174049555Y-89154035D01*
X173998505Y-89290906D01*
X173992000Y-89351402D01*
X141774956Y-89351402D01*
X140593928Y-85749995D01*
X161919650Y-85749995D01*
X161919650Y-85750004D01*
X161939024Y-86033260D01*
X161939025Y-86033266D01*
X161939026Y-86033274D01*
X161953453Y-86102698D01*
X161996793Y-86311265D01*
X161996795Y-86311273D01*
X162091881Y-86578820D01*
X162222505Y-86830909D01*
X162222514Y-86830924D01*
X162350269Y-87011912D01*
X162386249Y-87062884D01*
X162580051Y-87270395D01*
X162800303Y-87449583D01*
X163042904Y-87597112D01*
X163303333Y-87710233D01*
X163576740Y-87786838D01*
X163663517Y-87798765D01*
X163858018Y-87825499D01*
X163858032Y-87825500D01*
X164141968Y-87825500D01*
X164141981Y-87825499D01*
X164307556Y-87802740D01*
X164423260Y-87786838D01*
X164696667Y-87710233D01*
X164957096Y-87597112D01*
X165199697Y-87449583D01*
X165419949Y-87270395D01*
X165613751Y-87062884D01*
X165777491Y-86830916D01*
X165908121Y-86578814D01*
X166003205Y-86311272D01*
X166060974Y-86033274D01*
X166070378Y-85895789D01*
X166080350Y-85750004D01*
X166080350Y-85749995D01*
X166060975Y-85466739D01*
X166060974Y-85466733D01*
X166060974Y-85466726D01*
X166003205Y-85188728D01*
X165908121Y-84921186D01*
X165908119Y-84921182D01*
X165908118Y-84921179D01*
X165817346Y-84745999D01*
X176033460Y-84745999D01*
X176033461Y-84746000D01*
X176566000Y-84746000D01*
X176566000Y-84188326D01*
X176420598Y-84230570D01*
X176279681Y-84313908D01*
X176279674Y-84313914D01*
X176163914Y-84429674D01*
X176163908Y-84429681D01*
X176080570Y-84570599D01*
X176034890Y-84727826D01*
X176033460Y-84745999D01*
X165817346Y-84745999D01*
X165777494Y-84669090D01*
X165777491Y-84669084D01*
X165773355Y-84663225D01*
X165613753Y-84437119D01*
X165613751Y-84437116D01*
X165419949Y-84229605D01*
X165199697Y-84050417D01*
X164973912Y-83913114D01*
X164957093Y-83902886D01*
X164696667Y-83789767D01*
X164568281Y-83753795D01*
X164423260Y-83713162D01*
X164423259Y-83713161D01*
X164423256Y-83713161D01*
X164141981Y-83674500D01*
X164141968Y-83674500D01*
X163858032Y-83674500D01*
X163858018Y-83674500D01*
X163576743Y-83713161D01*
X163303332Y-83789767D01*
X163042906Y-83902886D01*
X162800300Y-84050419D01*
X162580056Y-84229601D01*
X162580048Y-84229608D01*
X162386246Y-84437119D01*
X162222514Y-84669075D01*
X162222505Y-84669090D01*
X162091881Y-84921179D01*
X161996795Y-85188726D01*
X161996793Y-85188734D01*
X161939025Y-85466733D01*
X161939024Y-85466739D01*
X161919650Y-85749995D01*
X140593928Y-85749995D01*
X139942061Y-83762203D01*
X139942056Y-83762198D01*
X139941155Y-83760597D01*
X139932907Y-83742872D01*
X139921795Y-83713162D01*
X139895454Y-83642731D01*
X139854428Y-83566218D01*
X139762970Y-83395648D01*
X139598461Y-83168617D01*
X139476370Y-83040657D01*
X139404920Y-82965772D01*
X139404919Y-82965771D01*
X139404918Y-82965770D01*
X139404915Y-82965767D01*
X139185869Y-82790798D01*
X139185852Y-82790786D01*
X139124361Y-82754000D01*
X174613204Y-82754000D01*
X174614923Y-82775855D01*
X174614923Y-82775856D01*
X174661130Y-82934901D01*
X174745436Y-83077453D01*
X174745439Y-83077457D01*
X174862542Y-83194560D01*
X174862546Y-83194563D01*
X175005097Y-83278868D01*
X175161000Y-83324162D01*
X175161000Y-82754000D01*
X174613204Y-82754000D01*
X139124361Y-82754000D01*
X138945268Y-82646860D01*
X138945253Y-82646853D01*
X138687508Y-82536588D01*
X138687502Y-82536586D01*
X138687498Y-82536584D01*
X138687495Y-82536583D01*
X138687492Y-82536582D01*
X138417246Y-82461971D01*
X138417242Y-82461970D01*
X138139410Y-82424374D01*
X137859046Y-82424479D01*
X137581252Y-82462279D01*
X137581239Y-82462282D01*
X137311052Y-82537092D01*
X137311036Y-82537097D01*
X137053363Y-82647558D01*
X136875738Y-82754000D01*
X136814352Y-82790786D01*
X136812868Y-82791675D01*
X136593945Y-82966811D01*
X136400549Y-83169806D01*
X136400548Y-83169807D01*
X136236217Y-83396945D01*
X136236212Y-83396953D01*
X136103914Y-83644128D01*
X136006044Y-83906872D01*
X135944401Y-84180359D01*
X135944398Y-84180376D01*
X135920088Y-84459671D01*
X126977952Y-84459671D01*
X126968110Y-84442329D01*
X126836560Y-84282373D01*
X126679566Y-84147302D01*
X126679563Y-84147299D01*
X126501767Y-84041107D01*
X126501763Y-84041105D01*
X126308409Y-83966921D01*
X126105203Y-83926937D01*
X126105206Y-83926937D01*
X126027818Y-83925130D01*
X126022103Y-83924500D01*
X126015018Y-83924500D01*
X126002180Y-83924500D01*
X125999382Y-83924469D01*
X125962634Y-83923652D01*
X125956875Y-83924500D01*
X121251500Y-83924500D01*
X121183379Y-83904498D01*
X121136886Y-83850842D01*
X121125500Y-83798500D01*
X121125499Y-82768483D01*
X121110646Y-82674695D01*
X121107582Y-82665265D01*
X121110129Y-82664437D01*
X121099771Y-82609309D01*
X121118457Y-82554833D01*
X121121795Y-82549522D01*
X121181374Y-82379255D01*
X121196388Y-82246000D01*
X174613204Y-82246000D01*
X175161000Y-82246000D01*
X175161000Y-81675836D01*
X175005097Y-81721131D01*
X174862546Y-81805436D01*
X174862542Y-81805439D01*
X174745439Y-81922542D01*
X174745436Y-81922546D01*
X174661130Y-82065098D01*
X174614923Y-82224143D01*
X174614923Y-82224144D01*
X174613204Y-82246000D01*
X121196388Y-82246000D01*
X121201571Y-82200000D01*
X121181374Y-82020745D01*
X121121795Y-81850478D01*
X121121793Y-81850475D01*
X121121793Y-81850474D01*
X121025823Y-81697739D01*
X121025822Y-81697737D01*
X120898268Y-81570183D01*
X120898266Y-81570182D01*
X120745531Y-81474212D01*
X120745528Y-81474211D01*
X120575261Y-81414632D01*
X120396006Y-81394435D01*
X120216751Y-81414632D01*
X120216748Y-81414632D01*
X120216748Y-81414633D01*
X120046483Y-81474211D01*
X120046480Y-81474212D01*
X119893745Y-81570182D01*
X119893743Y-81570183D01*
X119766189Y-81697737D01*
X119766188Y-81697739D01*
X119670218Y-81850474D01*
X119670217Y-81850477D01*
X119617210Y-82001962D01*
X119610638Y-82020745D01*
X119593029Y-82177033D01*
X119590441Y-82200002D01*
X119590441Y-82200003D01*
X119592901Y-82221842D01*
X119580650Y-82291774D01*
X119556788Y-82325041D01*
X119519234Y-82362595D01*
X119456922Y-82396621D01*
X119430139Y-82399500D01*
X118793483Y-82399500D01*
X118699697Y-82414353D01*
X118586657Y-82471949D01*
X118496949Y-82561657D01*
X118444581Y-82664437D01*
X118439354Y-82674696D01*
X118424500Y-82768481D01*
X118424500Y-83324162D01*
X118424501Y-83798500D01*
X118404499Y-83866621D01*
X118350843Y-83913114D01*
X118298501Y-83924500D01*
X117901500Y-83924500D01*
X117833379Y-83904498D01*
X117786886Y-83850842D01*
X117775500Y-83798500D01*
X117775500Y-69201500D01*
X117795502Y-69133379D01*
X117849158Y-69086886D01*
X117901500Y-69075500D01*
X119545515Y-69075500D01*
X119613636Y-69095502D01*
G37*
G04 #@! TD.AperFunction*
M02*
