G04 #@! TF.GenerationSoftware,KiCad,Pcbnew,5.1.6+dfsg1-1~bpo10+1*
G04 #@! TF.CreationDate,2020-12-17T18:50:31-05:00*
G04 #@! TF.ProjectId,4GRCP_Mainboard,34475243-505f-44d6-9169-6e626f617264,rev?*
G04 #@! TF.SameCoordinates,Original*
G04 #@! TF.FileFunction,Paste,Bot*
G04 #@! TF.FilePolarity,Positive*
%FSLAX46Y46*%
G04 Gerber Fmt 4.6, Leading zero omitted, Abs format (unit mm)*
G04 Created by KiCad (PCBNEW 5.1.6+dfsg1-1~bpo10+1) date 2020-12-17 18:50:31*
%MOMM*%
%LPD*%
G01*
G04 APERTURE LIST*
%ADD10C,0.010000*%
%ADD11R,1.000000X1.500000*%
%ADD12R,0.800000X0.500000*%
%ADD13R,3.200000X1.100000*%
%ADD14R,1.200000X0.900000*%
%ADD15R,1.500000X0.300000*%
%ADD16R,0.300000X1.500000*%
%ADD17R,1.600000X3.500000*%
%ADD18R,1.500000X3.000000*%
%ADD19R,0.450000X0.300000*%
%ADD20R,0.800000X0.900000*%
%ADD21R,0.280000X0.850000*%
%ADD22R,0.280000X0.750000*%
%ADD23R,0.650000X1.060000*%
%ADD24R,0.200000X1.000000*%
%ADD25R,0.200000X1.100000*%
%ADD26C,0.100000*%
%ADD27R,1.100000X1.100000*%
%ADD28R,0.900000X1.200000*%
%ADD29R,0.180000X0.350000*%
%ADD30R,0.940000X0.300000*%
%ADD31R,1.600000X1.600000*%
%ADD32R,1.800000X1.600000*%
%ADD33R,0.900000X0.800000*%
%ADD34R,1.020000X2.290000*%
%ADD35R,2.290000X1.020000*%
G04 APERTURE END LIST*
D10*
G36*
X167205000Y-83495000D02*
G01*
X167805000Y-83495000D01*
X167807617Y-83494931D01*
X167810226Y-83494726D01*
X167812822Y-83494384D01*
X167815396Y-83493907D01*
X167817941Y-83493296D01*
X167820451Y-83492553D01*
X167822918Y-83491679D01*
X167825337Y-83490677D01*
X167827700Y-83489550D01*
X167830000Y-83488301D01*
X167832232Y-83486934D01*
X167834389Y-83485451D01*
X167836466Y-83483857D01*
X167838457Y-83482157D01*
X167840355Y-83480355D01*
X167842157Y-83478457D01*
X167843857Y-83476466D01*
X167845451Y-83474389D01*
X167846934Y-83472232D01*
X167848301Y-83470000D01*
X167849550Y-83467700D01*
X167850677Y-83465337D01*
X167851679Y-83462918D01*
X167852553Y-83460451D01*
X167853296Y-83457941D01*
X167853907Y-83455396D01*
X167854384Y-83452822D01*
X167854726Y-83450226D01*
X167854931Y-83447617D01*
X167855000Y-83445000D01*
X167855000Y-83255000D01*
X167854931Y-83252383D01*
X167854726Y-83249774D01*
X167854384Y-83247178D01*
X167853907Y-83244604D01*
X167853296Y-83242059D01*
X167852553Y-83239549D01*
X167851679Y-83237082D01*
X167850677Y-83234663D01*
X167849550Y-83232300D01*
X167848301Y-83230000D01*
X167846934Y-83227768D01*
X167845451Y-83225611D01*
X167843857Y-83223534D01*
X167842157Y-83221543D01*
X167840355Y-83219645D01*
X167838457Y-83217843D01*
X167836466Y-83216143D01*
X167834389Y-83214549D01*
X167832232Y-83213066D01*
X167830000Y-83211699D01*
X167827700Y-83210450D01*
X167825337Y-83209323D01*
X167822918Y-83208321D01*
X167820451Y-83207447D01*
X167817941Y-83206704D01*
X167815396Y-83206093D01*
X167812822Y-83205616D01*
X167810226Y-83205274D01*
X167807617Y-83205069D01*
X167805000Y-83205000D01*
X167205000Y-83205000D01*
X167202383Y-83205069D01*
X167199774Y-83205274D01*
X167197178Y-83205616D01*
X167194604Y-83206093D01*
X167192059Y-83206704D01*
X167189549Y-83207447D01*
X167187082Y-83208321D01*
X167184663Y-83209323D01*
X167182300Y-83210450D01*
X167180000Y-83211699D01*
X167177768Y-83213066D01*
X167175611Y-83214549D01*
X167173534Y-83216143D01*
X167171543Y-83217843D01*
X167169645Y-83219645D01*
X167167843Y-83221543D01*
X167166143Y-83223534D01*
X167164549Y-83225611D01*
X167163066Y-83227768D01*
X167161699Y-83230000D01*
X167160450Y-83232300D01*
X167159323Y-83234663D01*
X167158321Y-83237082D01*
X167157447Y-83239549D01*
X167156704Y-83242059D01*
X167156093Y-83244604D01*
X167155616Y-83247178D01*
X167155274Y-83249774D01*
X167155069Y-83252383D01*
X167155000Y-83255000D01*
X167155000Y-83445000D01*
X167155069Y-83447617D01*
X167155274Y-83450226D01*
X167155616Y-83452822D01*
X167156093Y-83455396D01*
X167156704Y-83457941D01*
X167157447Y-83460451D01*
X167158321Y-83462918D01*
X167159323Y-83465337D01*
X167160450Y-83467700D01*
X167161699Y-83470000D01*
X167163066Y-83472232D01*
X167164549Y-83474389D01*
X167166143Y-83476466D01*
X167167843Y-83478457D01*
X167169645Y-83480355D01*
X167171543Y-83482157D01*
X167173534Y-83483857D01*
X167175611Y-83485451D01*
X167177768Y-83486934D01*
X167180000Y-83488301D01*
X167182300Y-83489550D01*
X167184663Y-83490677D01*
X167187082Y-83491679D01*
X167189549Y-83492553D01*
X167192059Y-83493296D01*
X167194604Y-83493907D01*
X167197178Y-83494384D01*
X167199774Y-83494726D01*
X167202383Y-83494931D01*
X167205000Y-83495000D01*
G37*
X167205000Y-83495000D02*
X167805000Y-83495000D01*
X167807617Y-83494931D01*
X167810226Y-83494726D01*
X167812822Y-83494384D01*
X167815396Y-83493907D01*
X167817941Y-83493296D01*
X167820451Y-83492553D01*
X167822918Y-83491679D01*
X167825337Y-83490677D01*
X167827700Y-83489550D01*
X167830000Y-83488301D01*
X167832232Y-83486934D01*
X167834389Y-83485451D01*
X167836466Y-83483857D01*
X167838457Y-83482157D01*
X167840355Y-83480355D01*
X167842157Y-83478457D01*
X167843857Y-83476466D01*
X167845451Y-83474389D01*
X167846934Y-83472232D01*
X167848301Y-83470000D01*
X167849550Y-83467700D01*
X167850677Y-83465337D01*
X167851679Y-83462918D01*
X167852553Y-83460451D01*
X167853296Y-83457941D01*
X167853907Y-83455396D01*
X167854384Y-83452822D01*
X167854726Y-83450226D01*
X167854931Y-83447617D01*
X167855000Y-83445000D01*
X167855000Y-83255000D01*
X167854931Y-83252383D01*
X167854726Y-83249774D01*
X167854384Y-83247178D01*
X167853907Y-83244604D01*
X167853296Y-83242059D01*
X167852553Y-83239549D01*
X167851679Y-83237082D01*
X167850677Y-83234663D01*
X167849550Y-83232300D01*
X167848301Y-83230000D01*
X167846934Y-83227768D01*
X167845451Y-83225611D01*
X167843857Y-83223534D01*
X167842157Y-83221543D01*
X167840355Y-83219645D01*
X167838457Y-83217843D01*
X167836466Y-83216143D01*
X167834389Y-83214549D01*
X167832232Y-83213066D01*
X167830000Y-83211699D01*
X167827700Y-83210450D01*
X167825337Y-83209323D01*
X167822918Y-83208321D01*
X167820451Y-83207447D01*
X167817941Y-83206704D01*
X167815396Y-83206093D01*
X167812822Y-83205616D01*
X167810226Y-83205274D01*
X167807617Y-83205069D01*
X167805000Y-83205000D01*
X167205000Y-83205000D01*
X167202383Y-83205069D01*
X167199774Y-83205274D01*
X167197178Y-83205616D01*
X167194604Y-83206093D01*
X167192059Y-83206704D01*
X167189549Y-83207447D01*
X167187082Y-83208321D01*
X167184663Y-83209323D01*
X167182300Y-83210450D01*
X167180000Y-83211699D01*
X167177768Y-83213066D01*
X167175611Y-83214549D01*
X167173534Y-83216143D01*
X167171543Y-83217843D01*
X167169645Y-83219645D01*
X167167843Y-83221543D01*
X167166143Y-83223534D01*
X167164549Y-83225611D01*
X167163066Y-83227768D01*
X167161699Y-83230000D01*
X167160450Y-83232300D01*
X167159323Y-83234663D01*
X167158321Y-83237082D01*
X167157447Y-83239549D01*
X167156704Y-83242059D01*
X167156093Y-83244604D01*
X167155616Y-83247178D01*
X167155274Y-83249774D01*
X167155069Y-83252383D01*
X167155000Y-83255000D01*
X167155000Y-83445000D01*
X167155069Y-83447617D01*
X167155274Y-83450226D01*
X167155616Y-83452822D01*
X167156093Y-83455396D01*
X167156704Y-83457941D01*
X167157447Y-83460451D01*
X167158321Y-83462918D01*
X167159323Y-83465337D01*
X167160450Y-83467700D01*
X167161699Y-83470000D01*
X167163066Y-83472232D01*
X167164549Y-83474389D01*
X167166143Y-83476466D01*
X167167843Y-83478457D01*
X167169645Y-83480355D01*
X167171543Y-83482157D01*
X167173534Y-83483857D01*
X167175611Y-83485451D01*
X167177768Y-83486934D01*
X167180000Y-83488301D01*
X167182300Y-83489550D01*
X167184663Y-83490677D01*
X167187082Y-83491679D01*
X167189549Y-83492553D01*
X167192059Y-83493296D01*
X167194604Y-83493907D01*
X167197178Y-83494384D01*
X167199774Y-83494726D01*
X167202383Y-83494931D01*
X167205000Y-83495000D01*
G36*
X168000000Y-81945000D02*
G01*
X167200000Y-81945000D01*
X167197383Y-81945069D01*
X167194774Y-81945274D01*
X167192178Y-81945616D01*
X167189604Y-81946093D01*
X167187059Y-81946704D01*
X167184549Y-81947447D01*
X167182082Y-81948321D01*
X167179663Y-81949323D01*
X167177300Y-81950450D01*
X167175000Y-81951699D01*
X167172768Y-81953066D01*
X167170611Y-81954549D01*
X167168534Y-81956143D01*
X167166543Y-81957843D01*
X167164645Y-81959645D01*
X167162843Y-81961543D01*
X167161143Y-81963534D01*
X167159549Y-81965611D01*
X167158066Y-81967768D01*
X167156699Y-81970000D01*
X167155450Y-81972300D01*
X167154323Y-81974663D01*
X167153321Y-81977082D01*
X167152447Y-81979549D01*
X167151704Y-81982059D01*
X167151093Y-81984604D01*
X167150616Y-81987178D01*
X167150274Y-81989774D01*
X167150069Y-81992383D01*
X167150000Y-81995000D01*
X167150000Y-82755000D01*
X167150069Y-82757617D01*
X167150274Y-82760226D01*
X167150616Y-82762822D01*
X167151093Y-82765396D01*
X167151704Y-82767941D01*
X167152447Y-82770451D01*
X167153321Y-82772918D01*
X167154323Y-82775337D01*
X167155450Y-82777700D01*
X167156699Y-82780000D01*
X167158066Y-82782232D01*
X167159549Y-82784389D01*
X167161143Y-82786466D01*
X167162843Y-82788457D01*
X167164645Y-82790355D01*
X167166543Y-82792157D01*
X167168534Y-82793857D01*
X167170611Y-82795451D01*
X167172768Y-82796934D01*
X167175000Y-82798301D01*
X167177300Y-82799550D01*
X167179663Y-82800677D01*
X167182082Y-82801679D01*
X167184549Y-82802553D01*
X167187059Y-82803296D01*
X167189604Y-82803907D01*
X167192178Y-82804384D01*
X167194774Y-82804726D01*
X167197383Y-82804931D01*
X167200000Y-82805000D01*
X168000000Y-82805000D01*
X168002617Y-82804931D01*
X168005226Y-82804726D01*
X168007822Y-82804384D01*
X168010396Y-82803907D01*
X168012941Y-82803296D01*
X168015451Y-82802553D01*
X168017918Y-82801679D01*
X168020337Y-82800677D01*
X168022700Y-82799550D01*
X168025000Y-82798301D01*
X168027232Y-82796934D01*
X168029389Y-82795451D01*
X168031466Y-82793857D01*
X168033457Y-82792157D01*
X168035355Y-82790355D01*
X168037157Y-82788457D01*
X168038857Y-82786466D01*
X168040451Y-82784389D01*
X168041934Y-82782232D01*
X168043301Y-82780000D01*
X168044550Y-82777700D01*
X168045677Y-82775337D01*
X168046679Y-82772918D01*
X168047553Y-82770451D01*
X168048296Y-82767941D01*
X168048907Y-82765396D01*
X168049384Y-82762822D01*
X168049726Y-82760226D01*
X168049931Y-82757617D01*
X168050000Y-82755000D01*
X168050000Y-81995000D01*
X168049931Y-81992383D01*
X168049726Y-81989774D01*
X168049384Y-81987178D01*
X168048907Y-81984604D01*
X168048296Y-81982059D01*
X168047553Y-81979549D01*
X168046679Y-81977082D01*
X168045677Y-81974663D01*
X168044550Y-81972300D01*
X168043301Y-81970000D01*
X168041934Y-81967768D01*
X168040451Y-81965611D01*
X168038857Y-81963534D01*
X168037157Y-81961543D01*
X168035355Y-81959645D01*
X168033457Y-81957843D01*
X168031466Y-81956143D01*
X168029389Y-81954549D01*
X168027232Y-81953066D01*
X168025000Y-81951699D01*
X168022700Y-81950450D01*
X168020337Y-81949323D01*
X168017918Y-81948321D01*
X168015451Y-81947447D01*
X168012941Y-81946704D01*
X168010396Y-81946093D01*
X168007822Y-81945616D01*
X168005226Y-81945274D01*
X168002617Y-81945069D01*
X168000000Y-81945000D01*
G37*
X168000000Y-81945000D02*
X167200000Y-81945000D01*
X167197383Y-81945069D01*
X167194774Y-81945274D01*
X167192178Y-81945616D01*
X167189604Y-81946093D01*
X167187059Y-81946704D01*
X167184549Y-81947447D01*
X167182082Y-81948321D01*
X167179663Y-81949323D01*
X167177300Y-81950450D01*
X167175000Y-81951699D01*
X167172768Y-81953066D01*
X167170611Y-81954549D01*
X167168534Y-81956143D01*
X167166543Y-81957843D01*
X167164645Y-81959645D01*
X167162843Y-81961543D01*
X167161143Y-81963534D01*
X167159549Y-81965611D01*
X167158066Y-81967768D01*
X167156699Y-81970000D01*
X167155450Y-81972300D01*
X167154323Y-81974663D01*
X167153321Y-81977082D01*
X167152447Y-81979549D01*
X167151704Y-81982059D01*
X167151093Y-81984604D01*
X167150616Y-81987178D01*
X167150274Y-81989774D01*
X167150069Y-81992383D01*
X167150000Y-81995000D01*
X167150000Y-82755000D01*
X167150069Y-82757617D01*
X167150274Y-82760226D01*
X167150616Y-82762822D01*
X167151093Y-82765396D01*
X167151704Y-82767941D01*
X167152447Y-82770451D01*
X167153321Y-82772918D01*
X167154323Y-82775337D01*
X167155450Y-82777700D01*
X167156699Y-82780000D01*
X167158066Y-82782232D01*
X167159549Y-82784389D01*
X167161143Y-82786466D01*
X167162843Y-82788457D01*
X167164645Y-82790355D01*
X167166543Y-82792157D01*
X167168534Y-82793857D01*
X167170611Y-82795451D01*
X167172768Y-82796934D01*
X167175000Y-82798301D01*
X167177300Y-82799550D01*
X167179663Y-82800677D01*
X167182082Y-82801679D01*
X167184549Y-82802553D01*
X167187059Y-82803296D01*
X167189604Y-82803907D01*
X167192178Y-82804384D01*
X167194774Y-82804726D01*
X167197383Y-82804931D01*
X167200000Y-82805000D01*
X168000000Y-82805000D01*
X168002617Y-82804931D01*
X168005226Y-82804726D01*
X168007822Y-82804384D01*
X168010396Y-82803907D01*
X168012941Y-82803296D01*
X168015451Y-82802553D01*
X168017918Y-82801679D01*
X168020337Y-82800677D01*
X168022700Y-82799550D01*
X168025000Y-82798301D01*
X168027232Y-82796934D01*
X168029389Y-82795451D01*
X168031466Y-82793857D01*
X168033457Y-82792157D01*
X168035355Y-82790355D01*
X168037157Y-82788457D01*
X168038857Y-82786466D01*
X168040451Y-82784389D01*
X168041934Y-82782232D01*
X168043301Y-82780000D01*
X168044550Y-82777700D01*
X168045677Y-82775337D01*
X168046679Y-82772918D01*
X168047553Y-82770451D01*
X168048296Y-82767941D01*
X168048907Y-82765396D01*
X168049384Y-82762822D01*
X168049726Y-82760226D01*
X168049931Y-82757617D01*
X168050000Y-82755000D01*
X168050000Y-81995000D01*
X168049931Y-81992383D01*
X168049726Y-81989774D01*
X168049384Y-81987178D01*
X168048907Y-81984604D01*
X168048296Y-81982059D01*
X168047553Y-81979549D01*
X168046679Y-81977082D01*
X168045677Y-81974663D01*
X168044550Y-81972300D01*
X168043301Y-81970000D01*
X168041934Y-81967768D01*
X168040451Y-81965611D01*
X168038857Y-81963534D01*
X168037157Y-81961543D01*
X168035355Y-81959645D01*
X168033457Y-81957843D01*
X168031466Y-81956143D01*
X168029389Y-81954549D01*
X168027232Y-81953066D01*
X168025000Y-81951699D01*
X168022700Y-81950450D01*
X168020337Y-81949323D01*
X168017918Y-81948321D01*
X168015451Y-81947447D01*
X168012941Y-81946704D01*
X168010396Y-81946093D01*
X168007822Y-81945616D01*
X168005226Y-81945274D01*
X168002617Y-81945069D01*
X168000000Y-81945000D01*
D11*
X180980000Y-127550000D03*
X180980000Y-124050000D03*
D12*
X180750000Y-126200000D03*
X180750000Y-125400000D03*
D13*
X126600000Y-59000000D03*
X133400000Y-59000000D03*
X133400000Y-63000000D03*
X126600000Y-63000000D03*
X160600000Y-59000000D03*
X167400000Y-59000000D03*
X167400000Y-63000000D03*
X160600000Y-63000000D03*
X176400000Y-144000000D03*
X169600000Y-144000000D03*
X169600000Y-140000000D03*
X176400000Y-140000000D03*
X163400000Y-144000000D03*
X156600000Y-144000000D03*
X156600000Y-140000000D03*
X163400000Y-140000000D03*
X143227000Y-147886000D03*
X136427000Y-147886000D03*
X136427000Y-143886000D03*
X143227000Y-143886000D03*
X129546000Y-142497000D03*
X122746000Y-142497000D03*
X122746000Y-138497000D03*
X129546000Y-138497000D03*
D14*
X166550000Y-146200000D03*
X166550000Y-149500000D03*
G36*
G01*
X169400001Y-147850000D02*
X168499999Y-147850000D01*
G75*
G02*
X168250000Y-147600001I0J249999D01*
G01*
X168250000Y-146949999D01*
G75*
G02*
X168499999Y-146700000I249999J0D01*
G01*
X169400001Y-146700000D01*
G75*
G02*
X169650000Y-146949999I0J-249999D01*
G01*
X169650000Y-147600001D01*
G75*
G02*
X169400001Y-147850000I-249999J0D01*
G01*
G37*
G36*
G01*
X169400001Y-149900000D02*
X168499999Y-149900000D01*
G75*
G02*
X168250000Y-149650001I0J249999D01*
G01*
X168250000Y-148999999D01*
G75*
G02*
X168499999Y-148750000I249999J0D01*
G01*
X169400001Y-148750000D01*
G75*
G02*
X169650000Y-148999999I0J-249999D01*
G01*
X169650000Y-149650001D01*
G75*
G02*
X169400001Y-149900000I-249999J0D01*
G01*
G37*
D15*
X135450000Y-132000000D03*
X135450000Y-131500000D03*
X135450000Y-131000000D03*
X135450000Y-130500000D03*
X135450000Y-130000000D03*
X135450000Y-129500000D03*
X135450000Y-129000000D03*
X135450000Y-128500000D03*
X135450000Y-128000000D03*
X135450000Y-127500000D03*
X135450000Y-127000000D03*
X135450000Y-126500000D03*
X135450000Y-126000000D03*
X135450000Y-125500000D03*
X135450000Y-125000000D03*
X135450000Y-124500000D03*
X135450000Y-124000000D03*
X135450000Y-123500000D03*
X135450000Y-123000000D03*
X135450000Y-122500000D03*
X135450000Y-122000000D03*
X135450000Y-121500000D03*
X135450000Y-121000000D03*
X135450000Y-120500000D03*
X135450000Y-120000000D03*
D16*
X133800000Y-118350000D03*
X133300000Y-118350000D03*
X132800000Y-118350000D03*
X132300000Y-118350000D03*
X131800000Y-118350000D03*
X131300000Y-118350000D03*
X130800000Y-118350000D03*
X130300000Y-118350000D03*
X129800000Y-118350000D03*
X129300000Y-118350000D03*
X128800000Y-118350000D03*
X128300000Y-118350000D03*
X127800000Y-118350000D03*
X127300000Y-118350000D03*
X126800000Y-118350000D03*
X126300000Y-118350000D03*
X125800000Y-118350000D03*
X125300000Y-118350000D03*
X124800000Y-118350000D03*
X124300000Y-118350000D03*
X123800000Y-118350000D03*
X123300000Y-118350000D03*
X122800000Y-118350000D03*
X122300000Y-118350000D03*
X121800000Y-118350000D03*
D15*
X120150000Y-120000000D03*
X120150000Y-120500000D03*
X120150000Y-121000000D03*
X120150000Y-121500000D03*
X120150000Y-122000000D03*
X120150000Y-122500000D03*
X120150000Y-123000000D03*
X120150000Y-123500000D03*
X120150000Y-124000000D03*
X120150000Y-124500000D03*
X120150000Y-125000000D03*
X120150000Y-125500000D03*
X120150000Y-126000000D03*
X120150000Y-126500000D03*
X120150000Y-127000000D03*
X120150000Y-127500000D03*
X120150000Y-128000000D03*
X120150000Y-128500000D03*
X120150000Y-129000000D03*
X120150000Y-129500000D03*
X120150000Y-130000000D03*
X120150000Y-130500000D03*
X120150000Y-131000000D03*
X120150000Y-131500000D03*
X120150000Y-132000000D03*
D16*
X121800000Y-133650000D03*
X122300000Y-133650000D03*
X122800000Y-133650000D03*
X123300000Y-133650000D03*
X123800000Y-133650000D03*
X124300000Y-133650000D03*
X124800000Y-133650000D03*
X125300000Y-133650000D03*
X125800000Y-133650000D03*
X126300000Y-133650000D03*
X126800000Y-133650000D03*
X127300000Y-133650000D03*
X127800000Y-133650000D03*
X128300000Y-133650000D03*
X128800000Y-133650000D03*
X129300000Y-133650000D03*
X129800000Y-133650000D03*
X130300000Y-133650000D03*
X130800000Y-133650000D03*
X131300000Y-133650000D03*
X131800000Y-133650000D03*
X132300000Y-133650000D03*
X132800000Y-133650000D03*
X133300000Y-133650000D03*
X133800000Y-133650000D03*
G36*
G01*
X134660000Y-93152500D02*
X134660000Y-93497500D01*
G75*
G02*
X134512500Y-93645000I-147500J0D01*
G01*
X134217500Y-93645000D01*
G75*
G02*
X134070000Y-93497500I0J147500D01*
G01*
X134070000Y-93152500D01*
G75*
G02*
X134217500Y-93005000I147500J0D01*
G01*
X134512500Y-93005000D01*
G75*
G02*
X134660000Y-93152500I0J-147500D01*
G01*
G37*
G36*
G01*
X135630000Y-93152500D02*
X135630000Y-93497500D01*
G75*
G02*
X135482500Y-93645000I-147500J0D01*
G01*
X135187500Y-93645000D01*
G75*
G02*
X135040000Y-93497500I0J147500D01*
G01*
X135040000Y-93152500D01*
G75*
G02*
X135187500Y-93005000I147500J0D01*
G01*
X135482500Y-93005000D01*
G75*
G02*
X135630000Y-93152500I0J-147500D01*
G01*
G37*
G36*
G01*
X132110000Y-93177500D02*
X132110000Y-93522500D01*
G75*
G02*
X131962500Y-93670000I-147500J0D01*
G01*
X131667500Y-93670000D01*
G75*
G02*
X131520000Y-93522500I0J147500D01*
G01*
X131520000Y-93177500D01*
G75*
G02*
X131667500Y-93030000I147500J0D01*
G01*
X131962500Y-93030000D01*
G75*
G02*
X132110000Y-93177500I0J-147500D01*
G01*
G37*
G36*
G01*
X133080000Y-93177500D02*
X133080000Y-93522500D01*
G75*
G02*
X132932500Y-93670000I-147500J0D01*
G01*
X132637500Y-93670000D01*
G75*
G02*
X132490000Y-93522500I0J147500D01*
G01*
X132490000Y-93177500D01*
G75*
G02*
X132637500Y-93030000I147500J0D01*
G01*
X132932500Y-93030000D01*
G75*
G02*
X133080000Y-93177500I0J-147500D01*
G01*
G37*
G36*
G01*
X116772500Y-129910000D02*
X116427500Y-129910000D01*
G75*
G02*
X116280000Y-129762500I0J147500D01*
G01*
X116280000Y-129467500D01*
G75*
G02*
X116427500Y-129320000I147500J0D01*
G01*
X116772500Y-129320000D01*
G75*
G02*
X116920000Y-129467500I0J-147500D01*
G01*
X116920000Y-129762500D01*
G75*
G02*
X116772500Y-129910000I-147500J0D01*
G01*
G37*
G36*
G01*
X116772500Y-130880000D02*
X116427500Y-130880000D01*
G75*
G02*
X116280000Y-130732500I0J147500D01*
G01*
X116280000Y-130437500D01*
G75*
G02*
X116427500Y-130290000I147500J0D01*
G01*
X116772500Y-130290000D01*
G75*
G02*
X116920000Y-130437500I0J-147500D01*
G01*
X116920000Y-130732500D01*
G75*
G02*
X116772500Y-130880000I-147500J0D01*
G01*
G37*
G36*
G01*
X138597500Y-140505000D02*
X138252500Y-140505000D01*
G75*
G02*
X138105000Y-140357500I0J147500D01*
G01*
X138105000Y-140062500D01*
G75*
G02*
X138252500Y-139915000I147500J0D01*
G01*
X138597500Y-139915000D01*
G75*
G02*
X138745000Y-140062500I0J-147500D01*
G01*
X138745000Y-140357500D01*
G75*
G02*
X138597500Y-140505000I-147500J0D01*
G01*
G37*
G36*
G01*
X138597500Y-139535000D02*
X138252500Y-139535000D01*
G75*
G02*
X138105000Y-139387500I0J147500D01*
G01*
X138105000Y-139092500D01*
G75*
G02*
X138252500Y-138945000I147500J0D01*
G01*
X138597500Y-138945000D01*
G75*
G02*
X138745000Y-139092500I0J-147500D01*
G01*
X138745000Y-139387500D01*
G75*
G02*
X138597500Y-139535000I-147500J0D01*
G01*
G37*
G36*
G01*
X137890000Y-114672500D02*
X137890000Y-114327500D01*
G75*
G02*
X138037500Y-114180000I147500J0D01*
G01*
X138332500Y-114180000D01*
G75*
G02*
X138480000Y-114327500I0J-147500D01*
G01*
X138480000Y-114672500D01*
G75*
G02*
X138332500Y-114820000I-147500J0D01*
G01*
X138037500Y-114820000D01*
G75*
G02*
X137890000Y-114672500I0J147500D01*
G01*
G37*
G36*
G01*
X136920000Y-114672500D02*
X136920000Y-114327500D01*
G75*
G02*
X137067500Y-114180000I147500J0D01*
G01*
X137362500Y-114180000D01*
G75*
G02*
X137510000Y-114327500I0J-147500D01*
G01*
X137510000Y-114672500D01*
G75*
G02*
X137362500Y-114820000I-147500J0D01*
G01*
X137067500Y-114820000D01*
G75*
G02*
X136920000Y-114672500I0J147500D01*
G01*
G37*
G36*
G01*
X119747500Y-116630000D02*
X119402500Y-116630000D01*
G75*
G02*
X119255000Y-116482500I0J147500D01*
G01*
X119255000Y-116187500D01*
G75*
G02*
X119402500Y-116040000I147500J0D01*
G01*
X119747500Y-116040000D01*
G75*
G02*
X119895000Y-116187500I0J-147500D01*
G01*
X119895000Y-116482500D01*
G75*
G02*
X119747500Y-116630000I-147500J0D01*
G01*
G37*
G36*
G01*
X119747500Y-115660000D02*
X119402500Y-115660000D01*
G75*
G02*
X119255000Y-115512500I0J147500D01*
G01*
X119255000Y-115217500D01*
G75*
G02*
X119402500Y-115070000I147500J0D01*
G01*
X119747500Y-115070000D01*
G75*
G02*
X119895000Y-115217500I0J-147500D01*
G01*
X119895000Y-115512500D01*
G75*
G02*
X119747500Y-115660000I-147500J0D01*
G01*
G37*
G36*
G01*
X139810000Y-130877500D02*
X139810000Y-131222500D01*
G75*
G02*
X139662500Y-131370000I-147500J0D01*
G01*
X139367500Y-131370000D01*
G75*
G02*
X139220000Y-131222500I0J147500D01*
G01*
X139220000Y-130877500D01*
G75*
G02*
X139367500Y-130730000I147500J0D01*
G01*
X139662500Y-130730000D01*
G75*
G02*
X139810000Y-130877500I0J-147500D01*
G01*
G37*
G36*
G01*
X140780000Y-130877500D02*
X140780000Y-131222500D01*
G75*
G02*
X140632500Y-131370000I-147500J0D01*
G01*
X140337500Y-131370000D01*
G75*
G02*
X140190000Y-131222500I0J147500D01*
G01*
X140190000Y-130877500D01*
G75*
G02*
X140337500Y-130730000I147500J0D01*
G01*
X140632500Y-130730000D01*
G75*
G02*
X140780000Y-130877500I0J-147500D01*
G01*
G37*
G36*
G01*
X167680000Y-151327500D02*
X167680000Y-151672500D01*
G75*
G02*
X167532500Y-151820000I-147500J0D01*
G01*
X167237500Y-151820000D01*
G75*
G02*
X167090000Y-151672500I0J147500D01*
G01*
X167090000Y-151327500D01*
G75*
G02*
X167237500Y-151180000I147500J0D01*
G01*
X167532500Y-151180000D01*
G75*
G02*
X167680000Y-151327500I0J-147500D01*
G01*
G37*
G36*
G01*
X166710000Y-151327500D02*
X166710000Y-151672500D01*
G75*
G02*
X166562500Y-151820000I-147500J0D01*
G01*
X166267500Y-151820000D01*
G75*
G02*
X166120000Y-151672500I0J147500D01*
G01*
X166120000Y-151327500D01*
G75*
G02*
X166267500Y-151180000I147500J0D01*
G01*
X166562500Y-151180000D01*
G75*
G02*
X166710000Y-151327500I0J-147500D01*
G01*
G37*
G36*
G01*
X157527500Y-150770000D02*
X157872500Y-150770000D01*
G75*
G02*
X158020000Y-150917500I0J-147500D01*
G01*
X158020000Y-151212500D01*
G75*
G02*
X157872500Y-151360000I-147500J0D01*
G01*
X157527500Y-151360000D01*
G75*
G02*
X157380000Y-151212500I0J147500D01*
G01*
X157380000Y-150917500D01*
G75*
G02*
X157527500Y-150770000I147500J0D01*
G01*
G37*
G36*
G01*
X157527500Y-151740000D02*
X157872500Y-151740000D01*
G75*
G02*
X158020000Y-151887500I0J-147500D01*
G01*
X158020000Y-152182500D01*
G75*
G02*
X157872500Y-152330000I-147500J0D01*
G01*
X157527500Y-152330000D01*
G75*
G02*
X157380000Y-152182500I0J147500D01*
G01*
X157380000Y-151887500D01*
G75*
G02*
X157527500Y-151740000I147500J0D01*
G01*
G37*
G36*
G01*
X160657500Y-150780000D02*
X161002500Y-150780000D01*
G75*
G02*
X161150000Y-150927500I0J-147500D01*
G01*
X161150000Y-151222500D01*
G75*
G02*
X161002500Y-151370000I-147500J0D01*
G01*
X160657500Y-151370000D01*
G75*
G02*
X160510000Y-151222500I0J147500D01*
G01*
X160510000Y-150927500D01*
G75*
G02*
X160657500Y-150780000I147500J0D01*
G01*
G37*
G36*
G01*
X160657500Y-151750000D02*
X161002500Y-151750000D01*
G75*
G02*
X161150000Y-151897500I0J-147500D01*
G01*
X161150000Y-152192500D01*
G75*
G02*
X161002500Y-152340000I-147500J0D01*
G01*
X160657500Y-152340000D01*
G75*
G02*
X160510000Y-152192500I0J147500D01*
G01*
X160510000Y-151897500D01*
G75*
G02*
X160657500Y-151750000I147500J0D01*
G01*
G37*
G36*
G01*
X119827500Y-137090000D02*
X120172500Y-137090000D01*
G75*
G02*
X120320000Y-137237500I0J-147500D01*
G01*
X120320000Y-137532500D01*
G75*
G02*
X120172500Y-137680000I-147500J0D01*
G01*
X119827500Y-137680000D01*
G75*
G02*
X119680000Y-137532500I0J147500D01*
G01*
X119680000Y-137237500D01*
G75*
G02*
X119827500Y-137090000I147500J0D01*
G01*
G37*
G36*
G01*
X119827500Y-136120000D02*
X120172500Y-136120000D01*
G75*
G02*
X120320000Y-136267500I0J-147500D01*
G01*
X120320000Y-136562500D01*
G75*
G02*
X120172500Y-136710000I-147500J0D01*
G01*
X119827500Y-136710000D01*
G75*
G02*
X119680000Y-136562500I0J147500D01*
G01*
X119680000Y-136267500D01*
G75*
G02*
X119827500Y-136120000I147500J0D01*
G01*
G37*
G36*
G01*
X173480000Y-83877500D02*
X173480000Y-84222500D01*
G75*
G02*
X173332500Y-84370000I-147500J0D01*
G01*
X173037500Y-84370000D01*
G75*
G02*
X172890000Y-84222500I0J147500D01*
G01*
X172890000Y-83877500D01*
G75*
G02*
X173037500Y-83730000I147500J0D01*
G01*
X173332500Y-83730000D01*
G75*
G02*
X173480000Y-83877500I0J-147500D01*
G01*
G37*
G36*
G01*
X172510000Y-83877500D02*
X172510000Y-84222500D01*
G75*
G02*
X172362500Y-84370000I-147500J0D01*
G01*
X172067500Y-84370000D01*
G75*
G02*
X171920000Y-84222500I0J147500D01*
G01*
X171920000Y-83877500D01*
G75*
G02*
X172067500Y-83730000I147500J0D01*
G01*
X172362500Y-83730000D01*
G75*
G02*
X172510000Y-83877500I0J-147500D01*
G01*
G37*
D17*
X128750000Y-75200000D03*
X128750000Y-69800000D03*
G36*
G01*
X142427500Y-135890000D02*
X142772500Y-135890000D01*
G75*
G02*
X142920000Y-136037500I0J-147500D01*
G01*
X142920000Y-136332500D01*
G75*
G02*
X142772500Y-136480000I-147500J0D01*
G01*
X142427500Y-136480000D01*
G75*
G02*
X142280000Y-136332500I0J147500D01*
G01*
X142280000Y-136037500D01*
G75*
G02*
X142427500Y-135890000I147500J0D01*
G01*
G37*
G36*
G01*
X142427500Y-134920000D02*
X142772500Y-134920000D01*
G75*
G02*
X142920000Y-135067500I0J-147500D01*
G01*
X142920000Y-135362500D01*
G75*
G02*
X142772500Y-135510000I-147500J0D01*
G01*
X142427500Y-135510000D01*
G75*
G02*
X142280000Y-135362500I0J147500D01*
G01*
X142280000Y-135067500D01*
G75*
G02*
X142427500Y-134920000I147500J0D01*
G01*
G37*
X136000000Y-69700000D03*
X136000000Y-75300000D03*
G36*
G01*
X143877500Y-73240000D02*
X144222500Y-73240000D01*
G75*
G02*
X144370000Y-73387500I0J-147500D01*
G01*
X144370000Y-73682500D01*
G75*
G02*
X144222500Y-73830000I-147500J0D01*
G01*
X143877500Y-73830000D01*
G75*
G02*
X143730000Y-73682500I0J147500D01*
G01*
X143730000Y-73387500D01*
G75*
G02*
X143877500Y-73240000I147500J0D01*
G01*
G37*
G36*
G01*
X143877500Y-72270000D02*
X144222500Y-72270000D01*
G75*
G02*
X144370000Y-72417500I0J-147500D01*
G01*
X144370000Y-72712500D01*
G75*
G02*
X144222500Y-72860000I-147500J0D01*
G01*
X143877500Y-72860000D01*
G75*
G02*
X143730000Y-72712500I0J147500D01*
G01*
X143730000Y-72417500D01*
G75*
G02*
X143877500Y-72270000I147500J0D01*
G01*
G37*
G36*
G01*
X144222500Y-75560000D02*
X143877500Y-75560000D01*
G75*
G02*
X143730000Y-75412500I0J147500D01*
G01*
X143730000Y-75117500D01*
G75*
G02*
X143877500Y-74970000I147500J0D01*
G01*
X144222500Y-74970000D01*
G75*
G02*
X144370000Y-75117500I0J-147500D01*
G01*
X144370000Y-75412500D01*
G75*
G02*
X144222500Y-75560000I-147500J0D01*
G01*
G37*
G36*
G01*
X144222500Y-76530000D02*
X143877500Y-76530000D01*
G75*
G02*
X143730000Y-76382500I0J147500D01*
G01*
X143730000Y-76087500D01*
G75*
G02*
X143877500Y-75940000I147500J0D01*
G01*
X144222500Y-75940000D01*
G75*
G02*
X144370000Y-76087500I0J-147500D01*
G01*
X144370000Y-76382500D01*
G75*
G02*
X144222500Y-76530000I-147500J0D01*
G01*
G37*
G36*
G01*
X143525000Y-88377500D02*
X143525000Y-88722500D01*
G75*
G02*
X143377500Y-88870000I-147500J0D01*
G01*
X143082500Y-88870000D01*
G75*
G02*
X142935000Y-88722500I0J147500D01*
G01*
X142935000Y-88377500D01*
G75*
G02*
X143082500Y-88230000I147500J0D01*
G01*
X143377500Y-88230000D01*
G75*
G02*
X143525000Y-88377500I0J-147500D01*
G01*
G37*
G36*
G01*
X144495000Y-88377500D02*
X144495000Y-88722500D01*
G75*
G02*
X144347500Y-88870000I-147500J0D01*
G01*
X144052500Y-88870000D01*
G75*
G02*
X143905000Y-88722500I0J147500D01*
G01*
X143905000Y-88377500D01*
G75*
G02*
X144052500Y-88230000I147500J0D01*
G01*
X144347500Y-88230000D01*
G75*
G02*
X144495000Y-88377500I0J-147500D01*
G01*
G37*
G36*
G01*
X153330000Y-77517500D02*
X153330000Y-77862500D01*
G75*
G02*
X153182500Y-78010000I-147500J0D01*
G01*
X152887500Y-78010000D01*
G75*
G02*
X152740000Y-77862500I0J147500D01*
G01*
X152740000Y-77517500D01*
G75*
G02*
X152887500Y-77370000I147500J0D01*
G01*
X153182500Y-77370000D01*
G75*
G02*
X153330000Y-77517500I0J-147500D01*
G01*
G37*
G36*
G01*
X152360000Y-77517500D02*
X152360000Y-77862500D01*
G75*
G02*
X152212500Y-78010000I-147500J0D01*
G01*
X151917500Y-78010000D01*
G75*
G02*
X151770000Y-77862500I0J147500D01*
G01*
X151770000Y-77517500D01*
G75*
G02*
X151917500Y-77370000I147500J0D01*
G01*
X152212500Y-77370000D01*
G75*
G02*
X152360000Y-77517500I0J-147500D01*
G01*
G37*
G36*
G01*
X157245000Y-76997500D02*
X157245000Y-76652500D01*
G75*
G02*
X157392500Y-76505000I147500J0D01*
G01*
X157687500Y-76505000D01*
G75*
G02*
X157835000Y-76652500I0J-147500D01*
G01*
X157835000Y-76997500D01*
G75*
G02*
X157687500Y-77145000I-147500J0D01*
G01*
X157392500Y-77145000D01*
G75*
G02*
X157245000Y-76997500I0J147500D01*
G01*
G37*
G36*
G01*
X158215000Y-76997500D02*
X158215000Y-76652500D01*
G75*
G02*
X158362500Y-76505000I147500J0D01*
G01*
X158657500Y-76505000D01*
G75*
G02*
X158805000Y-76652500I0J-147500D01*
G01*
X158805000Y-76997500D01*
G75*
G02*
X158657500Y-77145000I-147500J0D01*
G01*
X158362500Y-77145000D01*
G75*
G02*
X158215000Y-76997500I0J147500D01*
G01*
G37*
G36*
G01*
X150077500Y-77390000D02*
X150422500Y-77390000D01*
G75*
G02*
X150570000Y-77537500I0J-147500D01*
G01*
X150570000Y-77832500D01*
G75*
G02*
X150422500Y-77980000I-147500J0D01*
G01*
X150077500Y-77980000D01*
G75*
G02*
X149930000Y-77832500I0J147500D01*
G01*
X149930000Y-77537500D01*
G75*
G02*
X150077500Y-77390000I147500J0D01*
G01*
G37*
G36*
G01*
X150077500Y-76420000D02*
X150422500Y-76420000D01*
G75*
G02*
X150570000Y-76567500I0J-147500D01*
G01*
X150570000Y-76862500D01*
G75*
G02*
X150422500Y-77010000I-147500J0D01*
G01*
X150077500Y-77010000D01*
G75*
G02*
X149930000Y-76862500I0J147500D01*
G01*
X149930000Y-76567500D01*
G75*
G02*
X150077500Y-76420000I147500J0D01*
G01*
G37*
G36*
G01*
X151027500Y-74420000D02*
X151372500Y-74420000D01*
G75*
G02*
X151520000Y-74567500I0J-147500D01*
G01*
X151520000Y-74862500D01*
G75*
G02*
X151372500Y-75010000I-147500J0D01*
G01*
X151027500Y-75010000D01*
G75*
G02*
X150880000Y-74862500I0J147500D01*
G01*
X150880000Y-74567500D01*
G75*
G02*
X151027500Y-74420000I147500J0D01*
G01*
G37*
G36*
G01*
X151027500Y-75390000D02*
X151372500Y-75390000D01*
G75*
G02*
X151520000Y-75537500I0J-147500D01*
G01*
X151520000Y-75832500D01*
G75*
G02*
X151372500Y-75980000I-147500J0D01*
G01*
X151027500Y-75980000D01*
G75*
G02*
X150880000Y-75832500I0J147500D01*
G01*
X150880000Y-75537500D01*
G75*
G02*
X151027500Y-75390000I147500J0D01*
G01*
G37*
G36*
G01*
X155377500Y-75390000D02*
X155722500Y-75390000D01*
G75*
G02*
X155870000Y-75537500I0J-147500D01*
G01*
X155870000Y-75832500D01*
G75*
G02*
X155722500Y-75980000I-147500J0D01*
G01*
X155377500Y-75980000D01*
G75*
G02*
X155230000Y-75832500I0J147500D01*
G01*
X155230000Y-75537500D01*
G75*
G02*
X155377500Y-75390000I147500J0D01*
G01*
G37*
G36*
G01*
X155377500Y-74420000D02*
X155722500Y-74420000D01*
G75*
G02*
X155870000Y-74567500I0J-147500D01*
G01*
X155870000Y-74862500D01*
G75*
G02*
X155722500Y-75010000I-147500J0D01*
G01*
X155377500Y-75010000D01*
G75*
G02*
X155230000Y-74862500I0J147500D01*
G01*
X155230000Y-74567500D01*
G75*
G02*
X155377500Y-74420000I147500J0D01*
G01*
G37*
G36*
G01*
X154427500Y-74420000D02*
X154772500Y-74420000D01*
G75*
G02*
X154920000Y-74567500I0J-147500D01*
G01*
X154920000Y-74862500D01*
G75*
G02*
X154772500Y-75010000I-147500J0D01*
G01*
X154427500Y-75010000D01*
G75*
G02*
X154280000Y-74862500I0J147500D01*
G01*
X154280000Y-74567500D01*
G75*
G02*
X154427500Y-74420000I147500J0D01*
G01*
G37*
G36*
G01*
X154427500Y-75390000D02*
X154772500Y-75390000D01*
G75*
G02*
X154920000Y-75537500I0J-147500D01*
G01*
X154920000Y-75832500D01*
G75*
G02*
X154772500Y-75980000I-147500J0D01*
G01*
X154427500Y-75980000D01*
G75*
G02*
X154280000Y-75832500I0J147500D01*
G01*
X154280000Y-75537500D01*
G75*
G02*
X154427500Y-75390000I147500J0D01*
G01*
G37*
G36*
G01*
X150460000Y-71177500D02*
X150460000Y-71522500D01*
G75*
G02*
X150312500Y-71670000I-147500J0D01*
G01*
X150017500Y-71670000D01*
G75*
G02*
X149870000Y-71522500I0J147500D01*
G01*
X149870000Y-71177500D01*
G75*
G02*
X150017500Y-71030000I147500J0D01*
G01*
X150312500Y-71030000D01*
G75*
G02*
X150460000Y-71177500I0J-147500D01*
G01*
G37*
G36*
G01*
X151430000Y-71177500D02*
X151430000Y-71522500D01*
G75*
G02*
X151282500Y-71670000I-147500J0D01*
G01*
X150987500Y-71670000D01*
G75*
G02*
X150840000Y-71522500I0J147500D01*
G01*
X150840000Y-71177500D01*
G75*
G02*
X150987500Y-71030000I147500J0D01*
G01*
X151282500Y-71030000D01*
G75*
G02*
X151430000Y-71177500I0J-147500D01*
G01*
G37*
G36*
G01*
X150510000Y-70227500D02*
X150510000Y-70572500D01*
G75*
G02*
X150362500Y-70720000I-147500J0D01*
G01*
X150067500Y-70720000D01*
G75*
G02*
X149920000Y-70572500I0J147500D01*
G01*
X149920000Y-70227500D01*
G75*
G02*
X150067500Y-70080000I147500J0D01*
G01*
X150362500Y-70080000D01*
G75*
G02*
X150510000Y-70227500I0J-147500D01*
G01*
G37*
G36*
G01*
X151480000Y-70227500D02*
X151480000Y-70572500D01*
G75*
G02*
X151332500Y-70720000I-147500J0D01*
G01*
X151037500Y-70720000D01*
G75*
G02*
X150890000Y-70572500I0J147500D01*
G01*
X150890000Y-70227500D01*
G75*
G02*
X151037500Y-70080000I147500J0D01*
G01*
X151332500Y-70080000D01*
G75*
G02*
X151480000Y-70227500I0J-147500D01*
G01*
G37*
G36*
G01*
X151430000Y-72127500D02*
X151430000Y-72472500D01*
G75*
G02*
X151282500Y-72620000I-147500J0D01*
G01*
X150987500Y-72620000D01*
G75*
G02*
X150840000Y-72472500I0J147500D01*
G01*
X150840000Y-72127500D01*
G75*
G02*
X150987500Y-71980000I147500J0D01*
G01*
X151282500Y-71980000D01*
G75*
G02*
X151430000Y-72127500I0J-147500D01*
G01*
G37*
G36*
G01*
X150460000Y-72127500D02*
X150460000Y-72472500D01*
G75*
G02*
X150312500Y-72620000I-147500J0D01*
G01*
X150017500Y-72620000D01*
G75*
G02*
X149870000Y-72472500I0J147500D01*
G01*
X149870000Y-72127500D01*
G75*
G02*
X150017500Y-71980000I147500J0D01*
G01*
X150312500Y-71980000D01*
G75*
G02*
X150460000Y-72127500I0J-147500D01*
G01*
G37*
G36*
G01*
X150472500Y-68580000D02*
X150127500Y-68580000D01*
G75*
G02*
X149980000Y-68432500I0J147500D01*
G01*
X149980000Y-68137500D01*
G75*
G02*
X150127500Y-67990000I147500J0D01*
G01*
X150472500Y-67990000D01*
G75*
G02*
X150620000Y-68137500I0J-147500D01*
G01*
X150620000Y-68432500D01*
G75*
G02*
X150472500Y-68580000I-147500J0D01*
G01*
G37*
G36*
G01*
X150472500Y-67610000D02*
X150127500Y-67610000D01*
G75*
G02*
X149980000Y-67462500I0J147500D01*
G01*
X149980000Y-67167500D01*
G75*
G02*
X150127500Y-67020000I147500J0D01*
G01*
X150472500Y-67020000D01*
G75*
G02*
X150620000Y-67167500I0J-147500D01*
G01*
X150620000Y-67462500D01*
G75*
G02*
X150472500Y-67610000I-147500J0D01*
G01*
G37*
G36*
G01*
X156656250Y-66000000D02*
X156143750Y-66000000D01*
G75*
G02*
X155925000Y-65781250I0J218750D01*
G01*
X155925000Y-65343750D01*
G75*
G02*
X156143750Y-65125000I218750J0D01*
G01*
X156656250Y-65125000D01*
G75*
G02*
X156875000Y-65343750I0J-218750D01*
G01*
X156875000Y-65781250D01*
G75*
G02*
X156656250Y-66000000I-218750J0D01*
G01*
G37*
G36*
G01*
X156656250Y-67575000D02*
X156143750Y-67575000D01*
G75*
G02*
X155925000Y-67356250I0J218750D01*
G01*
X155925000Y-66918750D01*
G75*
G02*
X156143750Y-66700000I218750J0D01*
G01*
X156656250Y-66700000D01*
G75*
G02*
X156875000Y-66918750I0J-218750D01*
G01*
X156875000Y-67356250D01*
G75*
G02*
X156656250Y-67575000I-218750J0D01*
G01*
G37*
G36*
G01*
X160872500Y-67930000D02*
X160527500Y-67930000D01*
G75*
G02*
X160380000Y-67782500I0J147500D01*
G01*
X160380000Y-67487500D01*
G75*
G02*
X160527500Y-67340000I147500J0D01*
G01*
X160872500Y-67340000D01*
G75*
G02*
X161020000Y-67487500I0J-147500D01*
G01*
X161020000Y-67782500D01*
G75*
G02*
X160872500Y-67930000I-147500J0D01*
G01*
G37*
G36*
G01*
X160872500Y-66960000D02*
X160527500Y-66960000D01*
G75*
G02*
X160380000Y-66812500I0J147500D01*
G01*
X160380000Y-66517500D01*
G75*
G02*
X160527500Y-66370000I147500J0D01*
G01*
X160872500Y-66370000D01*
G75*
G02*
X161020000Y-66517500I0J-147500D01*
G01*
X161020000Y-66812500D01*
G75*
G02*
X160872500Y-66960000I-147500J0D01*
G01*
G37*
G36*
G01*
X161872500Y-66960000D02*
X161527500Y-66960000D01*
G75*
G02*
X161380000Y-66812500I0J147500D01*
G01*
X161380000Y-66517500D01*
G75*
G02*
X161527500Y-66370000I147500J0D01*
G01*
X161872500Y-66370000D01*
G75*
G02*
X162020000Y-66517500I0J-147500D01*
G01*
X162020000Y-66812500D01*
G75*
G02*
X161872500Y-66960000I-147500J0D01*
G01*
G37*
G36*
G01*
X161872500Y-67930000D02*
X161527500Y-67930000D01*
G75*
G02*
X161380000Y-67782500I0J147500D01*
G01*
X161380000Y-67487500D01*
G75*
G02*
X161527500Y-67340000I147500J0D01*
G01*
X161872500Y-67340000D01*
G75*
G02*
X162020000Y-67487500I0J-147500D01*
G01*
X162020000Y-67782500D01*
G75*
G02*
X161872500Y-67930000I-147500J0D01*
G01*
G37*
G36*
G01*
X173705000Y-71077500D02*
X173705000Y-71422500D01*
G75*
G02*
X173557500Y-71570000I-147500J0D01*
G01*
X173262500Y-71570000D01*
G75*
G02*
X173115000Y-71422500I0J147500D01*
G01*
X173115000Y-71077500D01*
G75*
G02*
X173262500Y-70930000I147500J0D01*
G01*
X173557500Y-70930000D01*
G75*
G02*
X173705000Y-71077500I0J-147500D01*
G01*
G37*
G36*
G01*
X172735000Y-71077500D02*
X172735000Y-71422500D01*
G75*
G02*
X172587500Y-71570000I-147500J0D01*
G01*
X172292500Y-71570000D01*
G75*
G02*
X172145000Y-71422500I0J147500D01*
G01*
X172145000Y-71077500D01*
G75*
G02*
X172292500Y-70930000I147500J0D01*
G01*
X172587500Y-70930000D01*
G75*
G02*
X172735000Y-71077500I0J-147500D01*
G01*
G37*
G36*
G01*
X140172500Y-61060000D02*
X139827500Y-61060000D01*
G75*
G02*
X139680000Y-60912500I0J147500D01*
G01*
X139680000Y-60617500D01*
G75*
G02*
X139827500Y-60470000I147500J0D01*
G01*
X140172500Y-60470000D01*
G75*
G02*
X140320000Y-60617500I0J-147500D01*
G01*
X140320000Y-60912500D01*
G75*
G02*
X140172500Y-61060000I-147500J0D01*
G01*
G37*
G36*
G01*
X140172500Y-62030000D02*
X139827500Y-62030000D01*
G75*
G02*
X139680000Y-61882500I0J147500D01*
G01*
X139680000Y-61587500D01*
G75*
G02*
X139827500Y-61440000I147500J0D01*
G01*
X140172500Y-61440000D01*
G75*
G02*
X140320000Y-61587500I0J-147500D01*
G01*
X140320000Y-61882500D01*
G75*
G02*
X140172500Y-62030000I-147500J0D01*
G01*
G37*
G36*
G01*
X174727500Y-71395000D02*
X175072500Y-71395000D01*
G75*
G02*
X175220000Y-71542500I0J-147500D01*
G01*
X175220000Y-71837500D01*
G75*
G02*
X175072500Y-71985000I-147500J0D01*
G01*
X174727500Y-71985000D01*
G75*
G02*
X174580000Y-71837500I0J147500D01*
G01*
X174580000Y-71542500D01*
G75*
G02*
X174727500Y-71395000I147500J0D01*
G01*
G37*
G36*
G01*
X174727500Y-72365000D02*
X175072500Y-72365000D01*
G75*
G02*
X175220000Y-72512500I0J-147500D01*
G01*
X175220000Y-72807500D01*
G75*
G02*
X175072500Y-72955000I-147500J0D01*
G01*
X174727500Y-72955000D01*
G75*
G02*
X174580000Y-72807500I0J147500D01*
G01*
X174580000Y-72512500D01*
G75*
G02*
X174727500Y-72365000I147500J0D01*
G01*
G37*
G36*
G01*
X139827500Y-63690000D02*
X140172500Y-63690000D01*
G75*
G02*
X140320000Y-63837500I0J-147500D01*
G01*
X140320000Y-64132500D01*
G75*
G02*
X140172500Y-64280000I-147500J0D01*
G01*
X139827500Y-64280000D01*
G75*
G02*
X139680000Y-64132500I0J147500D01*
G01*
X139680000Y-63837500D01*
G75*
G02*
X139827500Y-63690000I147500J0D01*
G01*
G37*
G36*
G01*
X139827500Y-62720000D02*
X140172500Y-62720000D01*
G75*
G02*
X140320000Y-62867500I0J-147500D01*
G01*
X140320000Y-63162500D01*
G75*
G02*
X140172500Y-63310000I-147500J0D01*
G01*
X139827500Y-63310000D01*
G75*
G02*
X139680000Y-63162500I0J147500D01*
G01*
X139680000Y-62867500D01*
G75*
G02*
X139827500Y-62720000I147500J0D01*
G01*
G37*
G36*
G01*
X157300000Y-78437500D02*
X157300000Y-77962500D01*
G75*
G02*
X157537500Y-77725000I237500J0D01*
G01*
X158112500Y-77725000D01*
G75*
G02*
X158350000Y-77962500I0J-237500D01*
G01*
X158350000Y-78437500D01*
G75*
G02*
X158112500Y-78675000I-237500J0D01*
G01*
X157537500Y-78675000D01*
G75*
G02*
X157300000Y-78437500I0J237500D01*
G01*
G37*
G36*
G01*
X159050000Y-78437500D02*
X159050000Y-77962500D01*
G75*
G02*
X159287500Y-77725000I237500J0D01*
G01*
X159862500Y-77725000D01*
G75*
G02*
X160100000Y-77962500I0J-237500D01*
G01*
X160100000Y-78437500D01*
G75*
G02*
X159862500Y-78675000I-237500J0D01*
G01*
X159287500Y-78675000D01*
G75*
G02*
X159050000Y-78437500I0J237500D01*
G01*
G37*
G36*
G01*
X152000000Y-78887500D02*
X152000000Y-79362500D01*
G75*
G02*
X151762500Y-79600000I-237500J0D01*
G01*
X151187500Y-79600000D01*
G75*
G02*
X150950000Y-79362500I0J237500D01*
G01*
X150950000Y-78887500D01*
G75*
G02*
X151187500Y-78650000I237500J0D01*
G01*
X151762500Y-78650000D01*
G75*
G02*
X152000000Y-78887500I0J-237500D01*
G01*
G37*
G36*
G01*
X153750000Y-78887500D02*
X153750000Y-79362500D01*
G75*
G02*
X153512500Y-79600000I-237500J0D01*
G01*
X152937500Y-79600000D01*
G75*
G02*
X152700000Y-79362500I0J237500D01*
G01*
X152700000Y-78887500D01*
G75*
G02*
X152937500Y-78650000I237500J0D01*
G01*
X153512500Y-78650000D01*
G75*
G02*
X153750000Y-78887500I0J-237500D01*
G01*
G37*
G36*
G01*
X176062500Y-70825000D02*
X176537500Y-70825000D01*
G75*
G02*
X176775000Y-71062500I0J-237500D01*
G01*
X176775000Y-71637500D01*
G75*
G02*
X176537500Y-71875000I-237500J0D01*
G01*
X176062500Y-71875000D01*
G75*
G02*
X175825000Y-71637500I0J237500D01*
G01*
X175825000Y-71062500D01*
G75*
G02*
X176062500Y-70825000I237500J0D01*
G01*
G37*
G36*
G01*
X176062500Y-72575000D02*
X176537500Y-72575000D01*
G75*
G02*
X176775000Y-72812500I0J-237500D01*
G01*
X176775000Y-73387500D01*
G75*
G02*
X176537500Y-73625000I-237500J0D01*
G01*
X176062500Y-73625000D01*
G75*
G02*
X175825000Y-73387500I0J237500D01*
G01*
X175825000Y-72812500D01*
G75*
G02*
X176062500Y-72575000I237500J0D01*
G01*
G37*
G36*
G01*
X177787500Y-72625000D02*
X178262500Y-72625000D01*
G75*
G02*
X178500000Y-72862500I0J-237500D01*
G01*
X178500000Y-73437500D01*
G75*
G02*
X178262500Y-73675000I-237500J0D01*
G01*
X177787500Y-73675000D01*
G75*
G02*
X177550000Y-73437500I0J237500D01*
G01*
X177550000Y-72862500D01*
G75*
G02*
X177787500Y-72625000I237500J0D01*
G01*
G37*
G36*
G01*
X177787500Y-70875000D02*
X178262500Y-70875000D01*
G75*
G02*
X178500000Y-71112500I0J-237500D01*
G01*
X178500000Y-71687500D01*
G75*
G02*
X178262500Y-71925000I-237500J0D01*
G01*
X177787500Y-71925000D01*
G75*
G02*
X177550000Y-71687500I0J237500D01*
G01*
X177550000Y-71112500D01*
G75*
G02*
X177787500Y-70875000I237500J0D01*
G01*
G37*
G36*
G01*
X168070281Y-75231862D02*
X167838808Y-75588297D01*
G75*
G02*
X167544855Y-75650778I-178217J115736D01*
G01*
X166873919Y-75215067D01*
G75*
G02*
X166811438Y-74921114I115736J178217D01*
G01*
X167042910Y-74564679D01*
G75*
G02*
X167336863Y-74502198I178217J-115736D01*
G01*
X168007799Y-74937909D01*
G75*
G02*
X168070280Y-75231862I-115736J-178217D01*
G01*
G37*
G36*
G01*
X166707441Y-74346824D02*
X166475968Y-74703259D01*
G75*
G02*
X166182015Y-74765740I-178217J115736D01*
G01*
X165511079Y-74330029D01*
G75*
G02*
X165448598Y-74036076I115736J178217D01*
G01*
X165680070Y-73679641D01*
G75*
G02*
X165974023Y-73617160I178217J-115736D01*
G01*
X166644959Y-74052871D01*
G75*
G02*
X166707440Y-74346824I-115736J-178217D01*
G01*
G37*
G36*
G01*
X173536430Y-80516791D02*
X173220593Y-80801171D01*
G75*
G02*
X172920485Y-80785443I-142190J157918D01*
G01*
X172385180Y-80190927D01*
G75*
G02*
X172400908Y-79890819I157918J142190D01*
G01*
X172716745Y-79606439D01*
G75*
G02*
X173016853Y-79622167I142190J-157918D01*
G01*
X173552158Y-80216683D01*
G75*
G02*
X173536430Y-80516791I-157918J-142190D01*
G01*
G37*
G36*
G01*
X172449092Y-79309181D02*
X172133255Y-79593561D01*
G75*
G02*
X171833147Y-79577833I-142190J157918D01*
G01*
X171297842Y-78983317D01*
G75*
G02*
X171313570Y-78683209I157918J142190D01*
G01*
X171629407Y-78398829D01*
G75*
G02*
X171929515Y-78414557I142190J-157918D01*
G01*
X172464820Y-79009073D01*
G75*
G02*
X172449092Y-79309181I-157918J-142190D01*
G01*
G37*
G36*
G01*
X155377500Y-77440000D02*
X155722500Y-77440000D01*
G75*
G02*
X155870000Y-77587500I0J-147500D01*
G01*
X155870000Y-77882500D01*
G75*
G02*
X155722500Y-78030000I-147500J0D01*
G01*
X155377500Y-78030000D01*
G75*
G02*
X155230000Y-77882500I0J147500D01*
G01*
X155230000Y-77587500D01*
G75*
G02*
X155377500Y-77440000I147500J0D01*
G01*
G37*
G36*
G01*
X155377500Y-76470000D02*
X155722500Y-76470000D01*
G75*
G02*
X155870000Y-76617500I0J-147500D01*
G01*
X155870000Y-76912500D01*
G75*
G02*
X155722500Y-77060000I-147500J0D01*
G01*
X155377500Y-77060000D01*
G75*
G02*
X155230000Y-76912500I0J147500D01*
G01*
X155230000Y-76617500D01*
G75*
G02*
X155377500Y-76470000I147500J0D01*
G01*
G37*
G36*
G01*
X154427500Y-76470000D02*
X154772500Y-76470000D01*
G75*
G02*
X154920000Y-76617500I0J-147500D01*
G01*
X154920000Y-76912500D01*
G75*
G02*
X154772500Y-77060000I-147500J0D01*
G01*
X154427500Y-77060000D01*
G75*
G02*
X154280000Y-76912500I0J147500D01*
G01*
X154280000Y-76617500D01*
G75*
G02*
X154427500Y-76470000I147500J0D01*
G01*
G37*
G36*
G01*
X154427500Y-77440000D02*
X154772500Y-77440000D01*
G75*
G02*
X154920000Y-77587500I0J-147500D01*
G01*
X154920000Y-77882500D01*
G75*
G02*
X154772500Y-78030000I-147500J0D01*
G01*
X154427500Y-78030000D01*
G75*
G02*
X154280000Y-77882500I0J147500D01*
G01*
X154280000Y-77587500D01*
G75*
G02*
X154427500Y-77440000I147500J0D01*
G01*
G37*
G36*
G01*
X166970000Y-67302500D02*
X166970000Y-67647500D01*
G75*
G02*
X166822500Y-67795000I-147500J0D01*
G01*
X166527500Y-67795000D01*
G75*
G02*
X166380000Y-67647500I0J147500D01*
G01*
X166380000Y-67302500D01*
G75*
G02*
X166527500Y-67155000I147500J0D01*
G01*
X166822500Y-67155000D01*
G75*
G02*
X166970000Y-67302500I0J-147500D01*
G01*
G37*
G36*
G01*
X166000000Y-67302500D02*
X166000000Y-67647500D01*
G75*
G02*
X165852500Y-67795000I-147500J0D01*
G01*
X165557500Y-67795000D01*
G75*
G02*
X165410000Y-67647500I0J147500D01*
G01*
X165410000Y-67302500D01*
G75*
G02*
X165557500Y-67155000I147500J0D01*
G01*
X165852500Y-67155000D01*
G75*
G02*
X166000000Y-67302500I0J-147500D01*
G01*
G37*
G36*
G01*
X153090000Y-67572500D02*
X153090000Y-67227500D01*
G75*
G02*
X153237500Y-67080000I147500J0D01*
G01*
X153532500Y-67080000D01*
G75*
G02*
X153680000Y-67227500I0J-147500D01*
G01*
X153680000Y-67572500D01*
G75*
G02*
X153532500Y-67720000I-147500J0D01*
G01*
X153237500Y-67720000D01*
G75*
G02*
X153090000Y-67572500I0J147500D01*
G01*
G37*
G36*
G01*
X152120000Y-67572500D02*
X152120000Y-67227500D01*
G75*
G02*
X152267500Y-67080000I147500J0D01*
G01*
X152562500Y-67080000D01*
G75*
G02*
X152710000Y-67227500I0J-147500D01*
G01*
X152710000Y-67572500D01*
G75*
G02*
X152562500Y-67720000I-147500J0D01*
G01*
X152267500Y-67720000D01*
G75*
G02*
X152120000Y-67572500I0J147500D01*
G01*
G37*
D18*
X152375000Y-62750000D03*
X141625000Y-62750000D03*
D19*
X168575000Y-82050000D03*
X168575000Y-82700000D03*
X168575000Y-83350000D03*
X166625000Y-83350000D03*
X166625000Y-82700000D03*
X166625000Y-82050000D03*
D20*
X134525000Y-91600000D03*
X132625000Y-91600000D03*
X133575000Y-89600000D03*
G36*
G01*
X117872500Y-129910000D02*
X117527500Y-129910000D01*
G75*
G02*
X117380000Y-129762500I0J147500D01*
G01*
X117380000Y-129467500D01*
G75*
G02*
X117527500Y-129320000I147500J0D01*
G01*
X117872500Y-129320000D01*
G75*
G02*
X118020000Y-129467500I0J-147500D01*
G01*
X118020000Y-129762500D01*
G75*
G02*
X117872500Y-129910000I-147500J0D01*
G01*
G37*
G36*
G01*
X117872500Y-130880000D02*
X117527500Y-130880000D01*
G75*
G02*
X117380000Y-130732500I0J147500D01*
G01*
X117380000Y-130437500D01*
G75*
G02*
X117527500Y-130290000I147500J0D01*
G01*
X117872500Y-130290000D01*
G75*
G02*
X118020000Y-130437500I0J-147500D01*
G01*
X118020000Y-130732500D01*
G75*
G02*
X117872500Y-130880000I-147500J0D01*
G01*
G37*
G36*
G01*
X161697500Y-150780000D02*
X162042500Y-150780000D01*
G75*
G02*
X162190000Y-150927500I0J-147500D01*
G01*
X162190000Y-151222500D01*
G75*
G02*
X162042500Y-151370000I-147500J0D01*
G01*
X161697500Y-151370000D01*
G75*
G02*
X161550000Y-151222500I0J147500D01*
G01*
X161550000Y-150927500D01*
G75*
G02*
X161697500Y-150780000I147500J0D01*
G01*
G37*
G36*
G01*
X161697500Y-151750000D02*
X162042500Y-151750000D01*
G75*
G02*
X162190000Y-151897500I0J-147500D01*
G01*
X162190000Y-152192500D01*
G75*
G02*
X162042500Y-152340000I-147500J0D01*
G01*
X161697500Y-152340000D01*
G75*
G02*
X161550000Y-152192500I0J147500D01*
G01*
X161550000Y-151897500D01*
G75*
G02*
X161697500Y-151750000I147500J0D01*
G01*
G37*
G36*
G01*
X157660000Y-146727500D02*
X157660000Y-147072500D01*
G75*
G02*
X157512500Y-147220000I-147500J0D01*
G01*
X157217500Y-147220000D01*
G75*
G02*
X157070000Y-147072500I0J147500D01*
G01*
X157070000Y-146727500D01*
G75*
G02*
X157217500Y-146580000I147500J0D01*
G01*
X157512500Y-146580000D01*
G75*
G02*
X157660000Y-146727500I0J-147500D01*
G01*
G37*
G36*
G01*
X158630000Y-146727500D02*
X158630000Y-147072500D01*
G75*
G02*
X158482500Y-147220000I-147500J0D01*
G01*
X158187500Y-147220000D01*
G75*
G02*
X158040000Y-147072500I0J147500D01*
G01*
X158040000Y-146727500D01*
G75*
G02*
X158187500Y-146580000I147500J0D01*
G01*
X158482500Y-146580000D01*
G75*
G02*
X158630000Y-146727500I0J-147500D01*
G01*
G37*
G36*
G01*
X159972500Y-151345000D02*
X159627500Y-151345000D01*
G75*
G02*
X159480000Y-151197500I0J147500D01*
G01*
X159480000Y-150902500D01*
G75*
G02*
X159627500Y-150755000I147500J0D01*
G01*
X159972500Y-150755000D01*
G75*
G02*
X160120000Y-150902500I0J-147500D01*
G01*
X160120000Y-151197500D01*
G75*
G02*
X159972500Y-151345000I-147500J0D01*
G01*
G37*
G36*
G01*
X159972500Y-152315000D02*
X159627500Y-152315000D01*
G75*
G02*
X159480000Y-152167500I0J147500D01*
G01*
X159480000Y-151872500D01*
G75*
G02*
X159627500Y-151725000I147500J0D01*
G01*
X159972500Y-151725000D01*
G75*
G02*
X160120000Y-151872500I0J-147500D01*
G01*
X160120000Y-152167500D01*
G75*
G02*
X159972500Y-152315000I-147500J0D01*
G01*
G37*
G36*
G01*
X158922500Y-152330000D02*
X158577500Y-152330000D01*
G75*
G02*
X158430000Y-152182500I0J147500D01*
G01*
X158430000Y-151887500D01*
G75*
G02*
X158577500Y-151740000I147500J0D01*
G01*
X158922500Y-151740000D01*
G75*
G02*
X159070000Y-151887500I0J-147500D01*
G01*
X159070000Y-152182500D01*
G75*
G02*
X158922500Y-152330000I-147500J0D01*
G01*
G37*
G36*
G01*
X158922500Y-151360000D02*
X158577500Y-151360000D01*
G75*
G02*
X158430000Y-151212500I0J147500D01*
G01*
X158430000Y-150917500D01*
G75*
G02*
X158577500Y-150770000I147500J0D01*
G01*
X158922500Y-150770000D01*
G75*
G02*
X159070000Y-150917500I0J-147500D01*
G01*
X159070000Y-151212500D01*
G75*
G02*
X158922500Y-151360000I-147500J0D01*
G01*
G37*
G36*
G01*
X133992500Y-137380000D02*
X133647500Y-137380000D01*
G75*
G02*
X133500000Y-137232500I0J147500D01*
G01*
X133500000Y-136937500D01*
G75*
G02*
X133647500Y-136790000I147500J0D01*
G01*
X133992500Y-136790000D01*
G75*
G02*
X134140000Y-136937500I0J-147500D01*
G01*
X134140000Y-137232500D01*
G75*
G02*
X133992500Y-137380000I-147500J0D01*
G01*
G37*
G36*
G01*
X133992500Y-136410000D02*
X133647500Y-136410000D01*
G75*
G02*
X133500000Y-136262500I0J147500D01*
G01*
X133500000Y-135967500D01*
G75*
G02*
X133647500Y-135820000I147500J0D01*
G01*
X133992500Y-135820000D01*
G75*
G02*
X134140000Y-135967500I0J-147500D01*
G01*
X134140000Y-136262500D01*
G75*
G02*
X133992500Y-136410000I-147500J0D01*
G01*
G37*
G36*
G01*
X132557500Y-135820000D02*
X132902500Y-135820000D01*
G75*
G02*
X133050000Y-135967500I0J-147500D01*
G01*
X133050000Y-136262500D01*
G75*
G02*
X132902500Y-136410000I-147500J0D01*
G01*
X132557500Y-136410000D01*
G75*
G02*
X132410000Y-136262500I0J147500D01*
G01*
X132410000Y-135967500D01*
G75*
G02*
X132557500Y-135820000I147500J0D01*
G01*
G37*
G36*
G01*
X132557500Y-136790000D02*
X132902500Y-136790000D01*
G75*
G02*
X133050000Y-136937500I0J-147500D01*
G01*
X133050000Y-137232500D01*
G75*
G02*
X132902500Y-137380000I-147500J0D01*
G01*
X132557500Y-137380000D01*
G75*
G02*
X132410000Y-137232500I0J147500D01*
G01*
X132410000Y-136937500D01*
G75*
G02*
X132557500Y-136790000I147500J0D01*
G01*
G37*
G36*
G01*
X168772500Y-88910000D02*
X168427500Y-88910000D01*
G75*
G02*
X168280000Y-88762500I0J147500D01*
G01*
X168280000Y-88467500D01*
G75*
G02*
X168427500Y-88320000I147500J0D01*
G01*
X168772500Y-88320000D01*
G75*
G02*
X168920000Y-88467500I0J-147500D01*
G01*
X168920000Y-88762500D01*
G75*
G02*
X168772500Y-88910000I-147500J0D01*
G01*
G37*
G36*
G01*
X168772500Y-89880000D02*
X168427500Y-89880000D01*
G75*
G02*
X168280000Y-89732500I0J147500D01*
G01*
X168280000Y-89437500D01*
G75*
G02*
X168427500Y-89290000I147500J0D01*
G01*
X168772500Y-89290000D01*
G75*
G02*
X168920000Y-89437500I0J-147500D01*
G01*
X168920000Y-89732500D01*
G75*
G02*
X168772500Y-89880000I-147500J0D01*
G01*
G37*
G36*
G01*
X173480000Y-85077500D02*
X173480000Y-85422500D01*
G75*
G02*
X173332500Y-85570000I-147500J0D01*
G01*
X173037500Y-85570000D01*
G75*
G02*
X172890000Y-85422500I0J147500D01*
G01*
X172890000Y-85077500D01*
G75*
G02*
X173037500Y-84930000I147500J0D01*
G01*
X173332500Y-84930000D01*
G75*
G02*
X173480000Y-85077500I0J-147500D01*
G01*
G37*
G36*
G01*
X172510000Y-85077500D02*
X172510000Y-85422500D01*
G75*
G02*
X172362500Y-85570000I-147500J0D01*
G01*
X172067500Y-85570000D01*
G75*
G02*
X171920000Y-85422500I0J147500D01*
G01*
X171920000Y-85077500D01*
G75*
G02*
X172067500Y-84930000I147500J0D01*
G01*
X172362500Y-84930000D01*
G75*
G02*
X172510000Y-85077500I0J-147500D01*
G01*
G37*
G36*
G01*
X173630000Y-87877500D02*
X173630000Y-88222500D01*
G75*
G02*
X173482500Y-88370000I-147500J0D01*
G01*
X173187500Y-88370000D01*
G75*
G02*
X173040000Y-88222500I0J147500D01*
G01*
X173040000Y-87877500D01*
G75*
G02*
X173187500Y-87730000I147500J0D01*
G01*
X173482500Y-87730000D01*
G75*
G02*
X173630000Y-87877500I0J-147500D01*
G01*
G37*
G36*
G01*
X172660000Y-87877500D02*
X172660000Y-88222500D01*
G75*
G02*
X172512500Y-88370000I-147500J0D01*
G01*
X172217500Y-88370000D01*
G75*
G02*
X172070000Y-88222500I0J147500D01*
G01*
X172070000Y-87877500D01*
G75*
G02*
X172217500Y-87730000I147500J0D01*
G01*
X172512500Y-87730000D01*
G75*
G02*
X172660000Y-87877500I0J-147500D01*
G01*
G37*
G36*
G01*
X172947500Y-96380000D02*
X172602500Y-96380000D01*
G75*
G02*
X172455000Y-96232500I0J147500D01*
G01*
X172455000Y-95937500D01*
G75*
G02*
X172602500Y-95790000I147500J0D01*
G01*
X172947500Y-95790000D01*
G75*
G02*
X173095000Y-95937500I0J-147500D01*
G01*
X173095000Y-96232500D01*
G75*
G02*
X172947500Y-96380000I-147500J0D01*
G01*
G37*
G36*
G01*
X172947500Y-95410000D02*
X172602500Y-95410000D01*
G75*
G02*
X172455000Y-95262500I0J147500D01*
G01*
X172455000Y-94967500D01*
G75*
G02*
X172602500Y-94820000I147500J0D01*
G01*
X172947500Y-94820000D01*
G75*
G02*
X173095000Y-94967500I0J-147500D01*
G01*
X173095000Y-95262500D01*
G75*
G02*
X172947500Y-95410000I-147500J0D01*
G01*
G37*
G36*
G01*
X144995000Y-135327500D02*
X144995000Y-135672500D01*
G75*
G02*
X144847500Y-135820000I-147500J0D01*
G01*
X144552500Y-135820000D01*
G75*
G02*
X144405000Y-135672500I0J147500D01*
G01*
X144405000Y-135327500D01*
G75*
G02*
X144552500Y-135180000I147500J0D01*
G01*
X144847500Y-135180000D01*
G75*
G02*
X144995000Y-135327500I0J-147500D01*
G01*
G37*
G36*
G01*
X144025000Y-135327500D02*
X144025000Y-135672500D01*
G75*
G02*
X143877500Y-135820000I-147500J0D01*
G01*
X143582500Y-135820000D01*
G75*
G02*
X143435000Y-135672500I0J147500D01*
G01*
X143435000Y-135327500D01*
G75*
G02*
X143582500Y-135180000I147500J0D01*
G01*
X143877500Y-135180000D01*
G75*
G02*
X144025000Y-135327500I0J-147500D01*
G01*
G37*
G36*
G01*
X125827500Y-73220000D02*
X126172500Y-73220000D01*
G75*
G02*
X126320000Y-73367500I0J-147500D01*
G01*
X126320000Y-73662500D01*
G75*
G02*
X126172500Y-73810000I-147500J0D01*
G01*
X125827500Y-73810000D01*
G75*
G02*
X125680000Y-73662500I0J147500D01*
G01*
X125680000Y-73367500D01*
G75*
G02*
X125827500Y-73220000I147500J0D01*
G01*
G37*
G36*
G01*
X125827500Y-74190000D02*
X126172500Y-74190000D01*
G75*
G02*
X126320000Y-74337500I0J-147500D01*
G01*
X126320000Y-74632500D01*
G75*
G02*
X126172500Y-74780000I-147500J0D01*
G01*
X125827500Y-74780000D01*
G75*
G02*
X125680000Y-74632500I0J147500D01*
G01*
X125680000Y-74337500D01*
G75*
G02*
X125827500Y-74190000I147500J0D01*
G01*
G37*
G36*
G01*
X147522500Y-72130000D02*
X147177500Y-72130000D01*
G75*
G02*
X147030000Y-71982500I0J147500D01*
G01*
X147030000Y-71687500D01*
G75*
G02*
X147177500Y-71540000I147500J0D01*
G01*
X147522500Y-71540000D01*
G75*
G02*
X147670000Y-71687500I0J-147500D01*
G01*
X147670000Y-71982500D01*
G75*
G02*
X147522500Y-72130000I-147500J0D01*
G01*
G37*
G36*
G01*
X147522500Y-71160000D02*
X147177500Y-71160000D01*
G75*
G02*
X147030000Y-71012500I0J147500D01*
G01*
X147030000Y-70717500D01*
G75*
G02*
X147177500Y-70570000I147500J0D01*
G01*
X147522500Y-70570000D01*
G75*
G02*
X147670000Y-70717500I0J-147500D01*
G01*
X147670000Y-71012500D01*
G75*
G02*
X147522500Y-71160000I-147500J0D01*
G01*
G37*
G36*
G01*
X157772500Y-75980000D02*
X157427500Y-75980000D01*
G75*
G02*
X157280000Y-75832500I0J147500D01*
G01*
X157280000Y-75537500D01*
G75*
G02*
X157427500Y-75390000I147500J0D01*
G01*
X157772500Y-75390000D01*
G75*
G02*
X157920000Y-75537500I0J-147500D01*
G01*
X157920000Y-75832500D01*
G75*
G02*
X157772500Y-75980000I-147500J0D01*
G01*
G37*
G36*
G01*
X157772500Y-75010000D02*
X157427500Y-75010000D01*
G75*
G02*
X157280000Y-74862500I0J147500D01*
G01*
X157280000Y-74567500D01*
G75*
G02*
X157427500Y-74420000I147500J0D01*
G01*
X157772500Y-74420000D01*
G75*
G02*
X157920000Y-74567500I0J-147500D01*
G01*
X157920000Y-74862500D01*
G75*
G02*
X157772500Y-75010000I-147500J0D01*
G01*
G37*
G36*
G01*
X153090000Y-66572500D02*
X153090000Y-66227500D01*
G75*
G02*
X153237500Y-66080000I147500J0D01*
G01*
X153532500Y-66080000D01*
G75*
G02*
X153680000Y-66227500I0J-147500D01*
G01*
X153680000Y-66572500D01*
G75*
G02*
X153532500Y-66720000I-147500J0D01*
G01*
X153237500Y-66720000D01*
G75*
G02*
X153090000Y-66572500I0J147500D01*
G01*
G37*
G36*
G01*
X152120000Y-66572500D02*
X152120000Y-66227500D01*
G75*
G02*
X152267500Y-66080000I147500J0D01*
G01*
X152562500Y-66080000D01*
G75*
G02*
X152710000Y-66227500I0J-147500D01*
G01*
X152710000Y-66572500D01*
G75*
G02*
X152562500Y-66720000I-147500J0D01*
G01*
X152267500Y-66720000D01*
G75*
G02*
X152120000Y-66572500I0J147500D01*
G01*
G37*
G36*
G01*
X155072500Y-66705000D02*
X154727500Y-66705000D01*
G75*
G02*
X154580000Y-66557500I0J147500D01*
G01*
X154580000Y-66262500D01*
G75*
G02*
X154727500Y-66115000I147500J0D01*
G01*
X155072500Y-66115000D01*
G75*
G02*
X155220000Y-66262500I0J-147500D01*
G01*
X155220000Y-66557500D01*
G75*
G02*
X155072500Y-66705000I-147500J0D01*
G01*
G37*
G36*
G01*
X155072500Y-65735000D02*
X154727500Y-65735000D01*
G75*
G02*
X154580000Y-65587500I0J147500D01*
G01*
X154580000Y-65292500D01*
G75*
G02*
X154727500Y-65145000I147500J0D01*
G01*
X155072500Y-65145000D01*
G75*
G02*
X155220000Y-65292500I0J-147500D01*
G01*
X155220000Y-65587500D01*
G75*
G02*
X155072500Y-65735000I-147500J0D01*
G01*
G37*
G36*
G01*
X152772500Y-75980000D02*
X152427500Y-75980000D01*
G75*
G02*
X152280000Y-75832500I0J147500D01*
G01*
X152280000Y-75537500D01*
G75*
G02*
X152427500Y-75390000I147500J0D01*
G01*
X152772500Y-75390000D01*
G75*
G02*
X152920000Y-75537500I0J-147500D01*
G01*
X152920000Y-75832500D01*
G75*
G02*
X152772500Y-75980000I-147500J0D01*
G01*
G37*
G36*
G01*
X152772500Y-75010000D02*
X152427500Y-75010000D01*
G75*
G02*
X152280000Y-74862500I0J147500D01*
G01*
X152280000Y-74567500D01*
G75*
G02*
X152427500Y-74420000I147500J0D01*
G01*
X152772500Y-74420000D01*
G75*
G02*
X152920000Y-74567500I0J-147500D01*
G01*
X152920000Y-74862500D01*
G75*
G02*
X152772500Y-75010000I-147500J0D01*
G01*
G37*
G36*
G01*
X159110000Y-72977500D02*
X159110000Y-73322500D01*
G75*
G02*
X158962500Y-73470000I-147500J0D01*
G01*
X158667500Y-73470000D01*
G75*
G02*
X158520000Y-73322500I0J147500D01*
G01*
X158520000Y-72977500D01*
G75*
G02*
X158667500Y-72830000I147500J0D01*
G01*
X158962500Y-72830000D01*
G75*
G02*
X159110000Y-72977500I0J-147500D01*
G01*
G37*
G36*
G01*
X160080000Y-72977500D02*
X160080000Y-73322500D01*
G75*
G02*
X159932500Y-73470000I-147500J0D01*
G01*
X159637500Y-73470000D01*
G75*
G02*
X159490000Y-73322500I0J147500D01*
G01*
X159490000Y-72977500D01*
G75*
G02*
X159637500Y-72830000I147500J0D01*
G01*
X159932500Y-72830000D01*
G75*
G02*
X160080000Y-72977500I0J-147500D01*
G01*
G37*
G36*
G01*
X164830000Y-75852500D02*
X164830000Y-76197500D01*
G75*
G02*
X164682500Y-76345000I-147500J0D01*
G01*
X164387500Y-76345000D01*
G75*
G02*
X164240000Y-76197500I0J147500D01*
G01*
X164240000Y-75852500D01*
G75*
G02*
X164387500Y-75705000I147500J0D01*
G01*
X164682500Y-75705000D01*
G75*
G02*
X164830000Y-75852500I0J-147500D01*
G01*
G37*
G36*
G01*
X163860000Y-75852500D02*
X163860000Y-76197500D01*
G75*
G02*
X163712500Y-76345000I-147500J0D01*
G01*
X163417500Y-76345000D01*
G75*
G02*
X163270000Y-76197500I0J147500D01*
G01*
X163270000Y-75852500D01*
G75*
G02*
X163417500Y-75705000I147500J0D01*
G01*
X163712500Y-75705000D01*
G75*
G02*
X163860000Y-75852500I0J-147500D01*
G01*
G37*
G36*
G01*
X169310000Y-80602500D02*
X169310000Y-80947500D01*
G75*
G02*
X169162500Y-81095000I-147500J0D01*
G01*
X168867500Y-81095000D01*
G75*
G02*
X168720000Y-80947500I0J147500D01*
G01*
X168720000Y-80602500D01*
G75*
G02*
X168867500Y-80455000I147500J0D01*
G01*
X169162500Y-80455000D01*
G75*
G02*
X169310000Y-80602500I0J-147500D01*
G01*
G37*
G36*
G01*
X170280000Y-80602500D02*
X170280000Y-80947500D01*
G75*
G02*
X170132500Y-81095000I-147500J0D01*
G01*
X169837500Y-81095000D01*
G75*
G02*
X169690000Y-80947500I0J147500D01*
G01*
X169690000Y-80602500D01*
G75*
G02*
X169837500Y-80455000I147500J0D01*
G01*
X170132500Y-80455000D01*
G75*
G02*
X170280000Y-80602500I0J-147500D01*
G01*
G37*
G36*
G01*
X179327500Y-110840000D02*
X179672500Y-110840000D01*
G75*
G02*
X179820000Y-110987500I0J-147500D01*
G01*
X179820000Y-111282500D01*
G75*
G02*
X179672500Y-111430000I-147500J0D01*
G01*
X179327500Y-111430000D01*
G75*
G02*
X179180000Y-111282500I0J147500D01*
G01*
X179180000Y-110987500D01*
G75*
G02*
X179327500Y-110840000I147500J0D01*
G01*
G37*
G36*
G01*
X179327500Y-109870000D02*
X179672500Y-109870000D01*
G75*
G02*
X179820000Y-110017500I0J-147500D01*
G01*
X179820000Y-110312500D01*
G75*
G02*
X179672500Y-110460000I-147500J0D01*
G01*
X179327500Y-110460000D01*
G75*
G02*
X179180000Y-110312500I0J147500D01*
G01*
X179180000Y-110017500D01*
G75*
G02*
X179327500Y-109870000I147500J0D01*
G01*
G37*
G36*
G01*
X179327500Y-108390000D02*
X179672500Y-108390000D01*
G75*
G02*
X179820000Y-108537500I0J-147500D01*
G01*
X179820000Y-108832500D01*
G75*
G02*
X179672500Y-108980000I-147500J0D01*
G01*
X179327500Y-108980000D01*
G75*
G02*
X179180000Y-108832500I0J147500D01*
G01*
X179180000Y-108537500D01*
G75*
G02*
X179327500Y-108390000I147500J0D01*
G01*
G37*
G36*
G01*
X179327500Y-107420000D02*
X179672500Y-107420000D01*
G75*
G02*
X179820000Y-107567500I0J-147500D01*
G01*
X179820000Y-107862500D01*
G75*
G02*
X179672500Y-108010000I-147500J0D01*
G01*
X179327500Y-108010000D01*
G75*
G02*
X179180000Y-107862500I0J147500D01*
G01*
X179180000Y-107567500D01*
G75*
G02*
X179327500Y-107420000I147500J0D01*
G01*
G37*
G36*
G01*
X179227500Y-78490000D02*
X179572500Y-78490000D01*
G75*
G02*
X179720000Y-78637500I0J-147500D01*
G01*
X179720000Y-78932500D01*
G75*
G02*
X179572500Y-79080000I-147500J0D01*
G01*
X179227500Y-79080000D01*
G75*
G02*
X179080000Y-78932500I0J147500D01*
G01*
X179080000Y-78637500D01*
G75*
G02*
X179227500Y-78490000I147500J0D01*
G01*
G37*
G36*
G01*
X179227500Y-77520000D02*
X179572500Y-77520000D01*
G75*
G02*
X179720000Y-77667500I0J-147500D01*
G01*
X179720000Y-77962500D01*
G75*
G02*
X179572500Y-78110000I-147500J0D01*
G01*
X179227500Y-78110000D01*
G75*
G02*
X179080000Y-77962500I0J147500D01*
G01*
X179080000Y-77667500D01*
G75*
G02*
X179227500Y-77520000I147500J0D01*
G01*
G37*
G36*
G01*
X179227500Y-75270000D02*
X179572500Y-75270000D01*
G75*
G02*
X179720000Y-75417500I0J-147500D01*
G01*
X179720000Y-75712500D01*
G75*
G02*
X179572500Y-75860000I-147500J0D01*
G01*
X179227500Y-75860000D01*
G75*
G02*
X179080000Y-75712500I0J147500D01*
G01*
X179080000Y-75417500D01*
G75*
G02*
X179227500Y-75270000I147500J0D01*
G01*
G37*
G36*
G01*
X179227500Y-76240000D02*
X179572500Y-76240000D01*
G75*
G02*
X179720000Y-76387500I0J-147500D01*
G01*
X179720000Y-76682500D01*
G75*
G02*
X179572500Y-76830000I-147500J0D01*
G01*
X179227500Y-76830000D01*
G75*
G02*
X179080000Y-76682500I0J147500D01*
G01*
X179080000Y-76387500D01*
G75*
G02*
X179227500Y-76240000I147500J0D01*
G01*
G37*
G36*
G01*
X179277500Y-126840000D02*
X179622500Y-126840000D01*
G75*
G02*
X179770000Y-126987500I0J-147500D01*
G01*
X179770000Y-127282500D01*
G75*
G02*
X179622500Y-127430000I-147500J0D01*
G01*
X179277500Y-127430000D01*
G75*
G02*
X179130000Y-127282500I0J147500D01*
G01*
X179130000Y-126987500D01*
G75*
G02*
X179277500Y-126840000I147500J0D01*
G01*
G37*
G36*
G01*
X179277500Y-125870000D02*
X179622500Y-125870000D01*
G75*
G02*
X179770000Y-126017500I0J-147500D01*
G01*
X179770000Y-126312500D01*
G75*
G02*
X179622500Y-126460000I-147500J0D01*
G01*
X179277500Y-126460000D01*
G75*
G02*
X179130000Y-126312500I0J147500D01*
G01*
X179130000Y-126017500D01*
G75*
G02*
X179277500Y-125870000I147500J0D01*
G01*
G37*
G36*
G01*
X179277500Y-123770000D02*
X179622500Y-123770000D01*
G75*
G02*
X179770000Y-123917500I0J-147500D01*
G01*
X179770000Y-124212500D01*
G75*
G02*
X179622500Y-124360000I-147500J0D01*
G01*
X179277500Y-124360000D01*
G75*
G02*
X179130000Y-124212500I0J147500D01*
G01*
X179130000Y-123917500D01*
G75*
G02*
X179277500Y-123770000I147500J0D01*
G01*
G37*
G36*
G01*
X179277500Y-124740000D02*
X179622500Y-124740000D01*
G75*
G02*
X179770000Y-124887500I0J-147500D01*
G01*
X179770000Y-125182500D01*
G75*
G02*
X179622500Y-125330000I-147500J0D01*
G01*
X179277500Y-125330000D01*
G75*
G02*
X179130000Y-125182500I0J147500D01*
G01*
X179130000Y-124887500D01*
G75*
G02*
X179277500Y-124740000I147500J0D01*
G01*
G37*
G36*
G01*
X179327500Y-120520000D02*
X179672500Y-120520000D01*
G75*
G02*
X179820000Y-120667500I0J-147500D01*
G01*
X179820000Y-120962500D01*
G75*
G02*
X179672500Y-121110000I-147500J0D01*
G01*
X179327500Y-121110000D01*
G75*
G02*
X179180000Y-120962500I0J147500D01*
G01*
X179180000Y-120667500D01*
G75*
G02*
X179327500Y-120520000I147500J0D01*
G01*
G37*
G36*
G01*
X179327500Y-121490000D02*
X179672500Y-121490000D01*
G75*
G02*
X179820000Y-121637500I0J-147500D01*
G01*
X179820000Y-121932500D01*
G75*
G02*
X179672500Y-122080000I-147500J0D01*
G01*
X179327500Y-122080000D01*
G75*
G02*
X179180000Y-121932500I0J147500D01*
G01*
X179180000Y-121637500D01*
G75*
G02*
X179327500Y-121490000I147500J0D01*
G01*
G37*
G36*
G01*
X179327500Y-119340000D02*
X179672500Y-119340000D01*
G75*
G02*
X179820000Y-119487500I0J-147500D01*
G01*
X179820000Y-119782500D01*
G75*
G02*
X179672500Y-119930000I-147500J0D01*
G01*
X179327500Y-119930000D01*
G75*
G02*
X179180000Y-119782500I0J147500D01*
G01*
X179180000Y-119487500D01*
G75*
G02*
X179327500Y-119340000I147500J0D01*
G01*
G37*
G36*
G01*
X179327500Y-118370000D02*
X179672500Y-118370000D01*
G75*
G02*
X179820000Y-118517500I0J-147500D01*
G01*
X179820000Y-118812500D01*
G75*
G02*
X179672500Y-118960000I-147500J0D01*
G01*
X179327500Y-118960000D01*
G75*
G02*
X179180000Y-118812500I0J147500D01*
G01*
X179180000Y-118517500D01*
G75*
G02*
X179327500Y-118370000I147500J0D01*
G01*
G37*
G36*
G01*
X179327500Y-115070000D02*
X179672500Y-115070000D01*
G75*
G02*
X179820000Y-115217500I0J-147500D01*
G01*
X179820000Y-115512500D01*
G75*
G02*
X179672500Y-115660000I-147500J0D01*
G01*
X179327500Y-115660000D01*
G75*
G02*
X179180000Y-115512500I0J147500D01*
G01*
X179180000Y-115217500D01*
G75*
G02*
X179327500Y-115070000I147500J0D01*
G01*
G37*
G36*
G01*
X179327500Y-116040000D02*
X179672500Y-116040000D01*
G75*
G02*
X179820000Y-116187500I0J-147500D01*
G01*
X179820000Y-116482500D01*
G75*
G02*
X179672500Y-116630000I-147500J0D01*
G01*
X179327500Y-116630000D01*
G75*
G02*
X179180000Y-116482500I0J147500D01*
G01*
X179180000Y-116187500D01*
G75*
G02*
X179327500Y-116040000I147500J0D01*
G01*
G37*
G36*
G01*
X179327500Y-113940000D02*
X179672500Y-113940000D01*
G75*
G02*
X179820000Y-114087500I0J-147500D01*
G01*
X179820000Y-114382500D01*
G75*
G02*
X179672500Y-114530000I-147500J0D01*
G01*
X179327500Y-114530000D01*
G75*
G02*
X179180000Y-114382500I0J147500D01*
G01*
X179180000Y-114087500D01*
G75*
G02*
X179327500Y-113940000I147500J0D01*
G01*
G37*
G36*
G01*
X179327500Y-112970000D02*
X179672500Y-112970000D01*
G75*
G02*
X179820000Y-113117500I0J-147500D01*
G01*
X179820000Y-113412500D01*
G75*
G02*
X179672500Y-113560000I-147500J0D01*
G01*
X179327500Y-113560000D01*
G75*
G02*
X179180000Y-113412500I0J147500D01*
G01*
X179180000Y-113117500D01*
G75*
G02*
X179327500Y-112970000I147500J0D01*
G01*
G37*
G36*
G01*
X179077500Y-83740000D02*
X179422500Y-83740000D01*
G75*
G02*
X179570000Y-83887500I0J-147500D01*
G01*
X179570000Y-84182500D01*
G75*
G02*
X179422500Y-84330000I-147500J0D01*
G01*
X179077500Y-84330000D01*
G75*
G02*
X178930000Y-84182500I0J147500D01*
G01*
X178930000Y-83887500D01*
G75*
G02*
X179077500Y-83740000I147500J0D01*
G01*
G37*
G36*
G01*
X179077500Y-82770000D02*
X179422500Y-82770000D01*
G75*
G02*
X179570000Y-82917500I0J-147500D01*
G01*
X179570000Y-83212500D01*
G75*
G02*
X179422500Y-83360000I-147500J0D01*
G01*
X179077500Y-83360000D01*
G75*
G02*
X178930000Y-83212500I0J147500D01*
G01*
X178930000Y-82917500D01*
G75*
G02*
X179077500Y-82770000I147500J0D01*
G01*
G37*
G36*
G01*
X179077500Y-80670000D02*
X179422500Y-80670000D01*
G75*
G02*
X179570000Y-80817500I0J-147500D01*
G01*
X179570000Y-81112500D01*
G75*
G02*
X179422500Y-81260000I-147500J0D01*
G01*
X179077500Y-81260000D01*
G75*
G02*
X178930000Y-81112500I0J147500D01*
G01*
X178930000Y-80817500D01*
G75*
G02*
X179077500Y-80670000I147500J0D01*
G01*
G37*
G36*
G01*
X179077500Y-81640000D02*
X179422500Y-81640000D01*
G75*
G02*
X179570000Y-81787500I0J-147500D01*
G01*
X179570000Y-82082500D01*
G75*
G02*
X179422500Y-82230000I-147500J0D01*
G01*
X179077500Y-82230000D01*
G75*
G02*
X178930000Y-82082500I0J147500D01*
G01*
X178930000Y-81787500D01*
G75*
G02*
X179077500Y-81640000I147500J0D01*
G01*
G37*
G36*
G01*
X179227500Y-88220000D02*
X179572500Y-88220000D01*
G75*
G02*
X179720000Y-88367500I0J-147500D01*
G01*
X179720000Y-88662500D01*
G75*
G02*
X179572500Y-88810000I-147500J0D01*
G01*
X179227500Y-88810000D01*
G75*
G02*
X179080000Y-88662500I0J147500D01*
G01*
X179080000Y-88367500D01*
G75*
G02*
X179227500Y-88220000I147500J0D01*
G01*
G37*
G36*
G01*
X179227500Y-89190000D02*
X179572500Y-89190000D01*
G75*
G02*
X179720000Y-89337500I0J-147500D01*
G01*
X179720000Y-89632500D01*
G75*
G02*
X179572500Y-89780000I-147500J0D01*
G01*
X179227500Y-89780000D01*
G75*
G02*
X179080000Y-89632500I0J147500D01*
G01*
X179080000Y-89337500D01*
G75*
G02*
X179227500Y-89190000I147500J0D01*
G01*
G37*
G36*
G01*
X179227500Y-86020000D02*
X179572500Y-86020000D01*
G75*
G02*
X179720000Y-86167500I0J-147500D01*
G01*
X179720000Y-86462500D01*
G75*
G02*
X179572500Y-86610000I-147500J0D01*
G01*
X179227500Y-86610000D01*
G75*
G02*
X179080000Y-86462500I0J147500D01*
G01*
X179080000Y-86167500D01*
G75*
G02*
X179227500Y-86020000I147500J0D01*
G01*
G37*
G36*
G01*
X179227500Y-86990000D02*
X179572500Y-86990000D01*
G75*
G02*
X179720000Y-87137500I0J-147500D01*
G01*
X179720000Y-87432500D01*
G75*
G02*
X179572500Y-87580000I-147500J0D01*
G01*
X179227500Y-87580000D01*
G75*
G02*
X179080000Y-87432500I0J147500D01*
G01*
X179080000Y-87137500D01*
G75*
G02*
X179227500Y-86990000I147500J0D01*
G01*
G37*
G36*
G01*
X179227500Y-94590000D02*
X179572500Y-94590000D01*
G75*
G02*
X179720000Y-94737500I0J-147500D01*
G01*
X179720000Y-95032500D01*
G75*
G02*
X179572500Y-95180000I-147500J0D01*
G01*
X179227500Y-95180000D01*
G75*
G02*
X179080000Y-95032500I0J147500D01*
G01*
X179080000Y-94737500D01*
G75*
G02*
X179227500Y-94590000I147500J0D01*
G01*
G37*
G36*
G01*
X179227500Y-93620000D02*
X179572500Y-93620000D01*
G75*
G02*
X179720000Y-93767500I0J-147500D01*
G01*
X179720000Y-94062500D01*
G75*
G02*
X179572500Y-94210000I-147500J0D01*
G01*
X179227500Y-94210000D01*
G75*
G02*
X179080000Y-94062500I0J147500D01*
G01*
X179080000Y-93767500D01*
G75*
G02*
X179227500Y-93620000I147500J0D01*
G01*
G37*
G36*
G01*
X179227500Y-91570000D02*
X179572500Y-91570000D01*
G75*
G02*
X179720000Y-91717500I0J-147500D01*
G01*
X179720000Y-92012500D01*
G75*
G02*
X179572500Y-92160000I-147500J0D01*
G01*
X179227500Y-92160000D01*
G75*
G02*
X179080000Y-92012500I0J147500D01*
G01*
X179080000Y-91717500D01*
G75*
G02*
X179227500Y-91570000I147500J0D01*
G01*
G37*
G36*
G01*
X179227500Y-92540000D02*
X179572500Y-92540000D01*
G75*
G02*
X179720000Y-92687500I0J-147500D01*
G01*
X179720000Y-92982500D01*
G75*
G02*
X179572500Y-93130000I-147500J0D01*
G01*
X179227500Y-93130000D01*
G75*
G02*
X179080000Y-92982500I0J147500D01*
G01*
X179080000Y-92687500D01*
G75*
G02*
X179227500Y-92540000I147500J0D01*
G01*
G37*
G36*
G01*
X179227500Y-99020000D02*
X179572500Y-99020000D01*
G75*
G02*
X179720000Y-99167500I0J-147500D01*
G01*
X179720000Y-99462500D01*
G75*
G02*
X179572500Y-99610000I-147500J0D01*
G01*
X179227500Y-99610000D01*
G75*
G02*
X179080000Y-99462500I0J147500D01*
G01*
X179080000Y-99167500D01*
G75*
G02*
X179227500Y-99020000I147500J0D01*
G01*
G37*
G36*
G01*
X179227500Y-99990000D02*
X179572500Y-99990000D01*
G75*
G02*
X179720000Y-100137500I0J-147500D01*
G01*
X179720000Y-100432500D01*
G75*
G02*
X179572500Y-100580000I-147500J0D01*
G01*
X179227500Y-100580000D01*
G75*
G02*
X179080000Y-100432500I0J147500D01*
G01*
X179080000Y-100137500D01*
G75*
G02*
X179227500Y-99990000I147500J0D01*
G01*
G37*
G36*
G01*
X179227500Y-96870000D02*
X179572500Y-96870000D01*
G75*
G02*
X179720000Y-97017500I0J-147500D01*
G01*
X179720000Y-97312500D01*
G75*
G02*
X179572500Y-97460000I-147500J0D01*
G01*
X179227500Y-97460000D01*
G75*
G02*
X179080000Y-97312500I0J147500D01*
G01*
X179080000Y-97017500D01*
G75*
G02*
X179227500Y-96870000I147500J0D01*
G01*
G37*
G36*
G01*
X179227500Y-97840000D02*
X179572500Y-97840000D01*
G75*
G02*
X179720000Y-97987500I0J-147500D01*
G01*
X179720000Y-98282500D01*
G75*
G02*
X179572500Y-98430000I-147500J0D01*
G01*
X179227500Y-98430000D01*
G75*
G02*
X179080000Y-98282500I0J147500D01*
G01*
X179080000Y-97987500D01*
G75*
G02*
X179227500Y-97840000I147500J0D01*
G01*
G37*
G36*
G01*
X179227500Y-104320000D02*
X179572500Y-104320000D01*
G75*
G02*
X179720000Y-104467500I0J-147500D01*
G01*
X179720000Y-104762500D01*
G75*
G02*
X179572500Y-104910000I-147500J0D01*
G01*
X179227500Y-104910000D01*
G75*
G02*
X179080000Y-104762500I0J147500D01*
G01*
X179080000Y-104467500D01*
G75*
G02*
X179227500Y-104320000I147500J0D01*
G01*
G37*
G36*
G01*
X179227500Y-105290000D02*
X179572500Y-105290000D01*
G75*
G02*
X179720000Y-105437500I0J-147500D01*
G01*
X179720000Y-105732500D01*
G75*
G02*
X179572500Y-105880000I-147500J0D01*
G01*
X179227500Y-105880000D01*
G75*
G02*
X179080000Y-105732500I0J147500D01*
G01*
X179080000Y-105437500D01*
G75*
G02*
X179227500Y-105290000I147500J0D01*
G01*
G37*
G36*
G01*
X179227500Y-103190000D02*
X179572500Y-103190000D01*
G75*
G02*
X179720000Y-103337500I0J-147500D01*
G01*
X179720000Y-103632500D01*
G75*
G02*
X179572500Y-103780000I-147500J0D01*
G01*
X179227500Y-103780000D01*
G75*
G02*
X179080000Y-103632500I0J147500D01*
G01*
X179080000Y-103337500D01*
G75*
G02*
X179227500Y-103190000I147500J0D01*
G01*
G37*
G36*
G01*
X179227500Y-102220000D02*
X179572500Y-102220000D01*
G75*
G02*
X179720000Y-102367500I0J-147500D01*
G01*
X179720000Y-102662500D01*
G75*
G02*
X179572500Y-102810000I-147500J0D01*
G01*
X179227500Y-102810000D01*
G75*
G02*
X179080000Y-102662500I0J147500D01*
G01*
X179080000Y-102367500D01*
G75*
G02*
X179227500Y-102220000I147500J0D01*
G01*
G37*
D21*
X170800000Y-86475000D03*
D22*
X170300000Y-86525000D03*
X169800000Y-86525000D03*
X169800000Y-85375000D03*
X170300000Y-85375000D03*
X170800000Y-85375000D03*
D23*
X172050000Y-92700000D03*
X171100000Y-92700000D03*
X170150000Y-92700000D03*
X170150000Y-90500000D03*
X172050000Y-90500000D03*
D24*
X145350000Y-76050000D03*
X145750000Y-76050000D03*
X146150000Y-76050000D03*
X146550000Y-76050000D03*
X146950000Y-76050000D03*
X147350000Y-76050000D03*
X147750000Y-76050000D03*
X148150000Y-76050000D03*
X148550000Y-76050000D03*
X148950000Y-76050000D03*
X148950000Y-74250000D03*
X148550000Y-74250000D03*
X148150000Y-74250000D03*
X147750000Y-74250000D03*
X147350000Y-74250000D03*
X146950000Y-74250000D03*
X146550000Y-74250000D03*
X146150000Y-74250000D03*
X145750000Y-74250000D03*
D25*
X145350000Y-74300000D03*
D26*
G36*
X154210000Y-72840000D02*
G01*
X154210169Y-72840000D01*
X154210169Y-72833131D01*
X154211515Y-72819458D01*
X154214196Y-72805983D01*
X154218184Y-72792835D01*
X154223441Y-72780142D01*
X154229918Y-72768026D01*
X154237551Y-72756602D01*
X154246267Y-72745982D01*
X154255982Y-72736267D01*
X154266602Y-72727551D01*
X154278026Y-72719918D01*
X154290142Y-72713441D01*
X154302835Y-72708184D01*
X154315983Y-72704196D01*
X154329458Y-72701515D01*
X154343131Y-72700169D01*
X154356869Y-72700169D01*
X154370542Y-72701515D01*
X154384017Y-72704196D01*
X154397165Y-72708184D01*
X154409858Y-72713441D01*
X154421974Y-72719918D01*
X154433398Y-72727551D01*
X154444018Y-72736267D01*
X154453733Y-72745982D01*
X154462449Y-72756602D01*
X154470082Y-72768026D01*
X154476559Y-72780142D01*
X154481816Y-72792835D01*
X154485804Y-72805983D01*
X154488485Y-72819458D01*
X154489831Y-72833131D01*
X154489831Y-72840000D01*
X154490000Y-72840000D01*
X154490000Y-73550000D01*
X154210000Y-73550000D01*
X154210000Y-72840000D01*
G37*
G36*
X154710000Y-72840000D02*
G01*
X154710169Y-72840000D01*
X154710169Y-72833131D01*
X154711515Y-72819458D01*
X154714196Y-72805983D01*
X154718184Y-72792835D01*
X154723441Y-72780142D01*
X154729918Y-72768026D01*
X154737551Y-72756602D01*
X154746267Y-72745982D01*
X154755982Y-72736267D01*
X154766602Y-72727551D01*
X154778026Y-72719918D01*
X154790142Y-72713441D01*
X154802835Y-72708184D01*
X154815983Y-72704196D01*
X154829458Y-72701515D01*
X154843131Y-72700169D01*
X154856869Y-72700169D01*
X154870542Y-72701515D01*
X154884017Y-72704196D01*
X154897165Y-72708184D01*
X154909858Y-72713441D01*
X154921974Y-72719918D01*
X154933398Y-72727551D01*
X154944018Y-72736267D01*
X154953733Y-72745982D01*
X154962449Y-72756602D01*
X154970082Y-72768026D01*
X154976559Y-72780142D01*
X154981816Y-72792835D01*
X154985804Y-72805983D01*
X154988485Y-72819458D01*
X154989831Y-72833131D01*
X154989831Y-72840000D01*
X154990000Y-72840000D01*
X154990000Y-73550000D01*
X154710000Y-73550000D01*
X154710000Y-72840000D01*
G37*
G36*
X155210000Y-72840000D02*
G01*
X155210169Y-72840000D01*
X155210169Y-72833131D01*
X155211515Y-72819458D01*
X155214196Y-72805983D01*
X155218184Y-72792835D01*
X155223441Y-72780142D01*
X155229918Y-72768026D01*
X155237551Y-72756602D01*
X155246267Y-72745982D01*
X155255982Y-72736267D01*
X155266602Y-72727551D01*
X155278026Y-72719918D01*
X155290142Y-72713441D01*
X155302835Y-72708184D01*
X155315983Y-72704196D01*
X155329458Y-72701515D01*
X155343131Y-72700169D01*
X155356869Y-72700169D01*
X155370542Y-72701515D01*
X155384017Y-72704196D01*
X155397165Y-72708184D01*
X155409858Y-72713441D01*
X155421974Y-72719918D01*
X155433398Y-72727551D01*
X155444018Y-72736267D01*
X155453733Y-72745982D01*
X155462449Y-72756602D01*
X155470082Y-72768026D01*
X155476559Y-72780142D01*
X155481816Y-72792835D01*
X155485804Y-72805983D01*
X155488485Y-72819458D01*
X155489831Y-72833131D01*
X155489831Y-72840000D01*
X155490000Y-72840000D01*
X155490000Y-73550000D01*
X155210000Y-73550000D01*
X155210000Y-72840000D01*
G37*
G36*
X155710000Y-72840000D02*
G01*
X155710169Y-72840000D01*
X155710169Y-72833131D01*
X155711515Y-72819458D01*
X155714196Y-72805983D01*
X155718184Y-72792835D01*
X155723441Y-72780142D01*
X155729918Y-72768026D01*
X155737551Y-72756602D01*
X155746267Y-72745982D01*
X155755982Y-72736267D01*
X155766602Y-72727551D01*
X155778026Y-72719918D01*
X155790142Y-72713441D01*
X155802835Y-72708184D01*
X155815983Y-72704196D01*
X155829458Y-72701515D01*
X155843131Y-72700169D01*
X155856869Y-72700169D01*
X155870542Y-72701515D01*
X155884017Y-72704196D01*
X155897165Y-72708184D01*
X155909858Y-72713441D01*
X155921974Y-72719918D01*
X155933398Y-72727551D01*
X155944018Y-72736267D01*
X155953733Y-72745982D01*
X155962449Y-72756602D01*
X155970082Y-72768026D01*
X155976559Y-72780142D01*
X155981816Y-72792835D01*
X155985804Y-72805983D01*
X155988485Y-72819458D01*
X155989831Y-72833131D01*
X155989831Y-72840000D01*
X155990000Y-72840000D01*
X155990000Y-73550000D01*
X155710000Y-73550000D01*
X155710000Y-72840000D01*
G37*
G36*
X156210000Y-72840000D02*
G01*
X156210169Y-72840000D01*
X156210169Y-72833131D01*
X156211515Y-72819458D01*
X156214196Y-72805983D01*
X156218184Y-72792835D01*
X156223441Y-72780142D01*
X156229918Y-72768026D01*
X156237551Y-72756602D01*
X156246267Y-72745982D01*
X156255982Y-72736267D01*
X156266602Y-72727551D01*
X156278026Y-72719918D01*
X156290142Y-72713441D01*
X156302835Y-72708184D01*
X156315983Y-72704196D01*
X156329458Y-72701515D01*
X156343131Y-72700169D01*
X156356869Y-72700169D01*
X156370542Y-72701515D01*
X156384017Y-72704196D01*
X156397165Y-72708184D01*
X156409858Y-72713441D01*
X156421974Y-72719918D01*
X156433398Y-72727551D01*
X156444018Y-72736267D01*
X156453733Y-72745982D01*
X156462449Y-72756602D01*
X156470082Y-72768026D01*
X156476559Y-72780142D01*
X156481816Y-72792835D01*
X156485804Y-72805983D01*
X156488485Y-72819458D01*
X156489831Y-72833131D01*
X156489831Y-72840000D01*
X156490000Y-72840000D01*
X156490000Y-73550000D01*
X156210000Y-73550000D01*
X156210000Y-72840000D01*
G37*
G36*
X156710000Y-72840000D02*
G01*
X156710169Y-72840000D01*
X156710169Y-72833131D01*
X156711515Y-72819458D01*
X156714196Y-72805983D01*
X156718184Y-72792835D01*
X156723441Y-72780142D01*
X156729918Y-72768026D01*
X156737551Y-72756602D01*
X156746267Y-72745982D01*
X156755982Y-72736267D01*
X156766602Y-72727551D01*
X156778026Y-72719918D01*
X156790142Y-72713441D01*
X156802835Y-72708184D01*
X156815983Y-72704196D01*
X156829458Y-72701515D01*
X156843131Y-72700169D01*
X156856869Y-72700169D01*
X156870542Y-72701515D01*
X156884017Y-72704196D01*
X156897165Y-72708184D01*
X156909858Y-72713441D01*
X156921974Y-72719918D01*
X156933398Y-72727551D01*
X156944018Y-72736267D01*
X156953733Y-72745982D01*
X156962449Y-72756602D01*
X156970082Y-72768026D01*
X156976559Y-72780142D01*
X156981816Y-72792835D01*
X156985804Y-72805983D01*
X156988485Y-72819458D01*
X156989831Y-72833131D01*
X156989831Y-72840000D01*
X156990000Y-72840000D01*
X156990000Y-73550000D01*
X156710000Y-73550000D01*
X156710000Y-72840000D01*
G37*
G36*
X157290000Y-72540000D02*
G01*
X157290000Y-72539831D01*
X157283131Y-72539831D01*
X157269458Y-72538485D01*
X157255983Y-72535804D01*
X157242835Y-72531816D01*
X157230142Y-72526559D01*
X157218026Y-72520082D01*
X157206602Y-72512449D01*
X157195982Y-72503733D01*
X157186267Y-72494018D01*
X157177551Y-72483398D01*
X157169918Y-72471974D01*
X157163441Y-72459858D01*
X157158184Y-72447165D01*
X157154196Y-72434017D01*
X157151515Y-72420542D01*
X157150169Y-72406869D01*
X157150169Y-72393131D01*
X157151515Y-72379458D01*
X157154196Y-72365983D01*
X157158184Y-72352835D01*
X157163441Y-72340142D01*
X157169918Y-72328026D01*
X157177551Y-72316602D01*
X157186267Y-72305982D01*
X157195982Y-72296267D01*
X157206602Y-72287551D01*
X157218026Y-72279918D01*
X157230142Y-72273441D01*
X157242835Y-72268184D01*
X157255983Y-72264196D01*
X157269458Y-72261515D01*
X157283131Y-72260169D01*
X157290000Y-72260169D01*
X157290000Y-72260000D01*
X158000000Y-72260000D01*
X158000000Y-72540000D01*
X157290000Y-72540000D01*
G37*
G36*
X157290000Y-72040000D02*
G01*
X157290000Y-72039831D01*
X157283131Y-72039831D01*
X157269458Y-72038485D01*
X157255983Y-72035804D01*
X157242835Y-72031816D01*
X157230142Y-72026559D01*
X157218026Y-72020082D01*
X157206602Y-72012449D01*
X157195982Y-72003733D01*
X157186267Y-71994018D01*
X157177551Y-71983398D01*
X157169918Y-71971974D01*
X157163441Y-71959858D01*
X157158184Y-71947165D01*
X157154196Y-71934017D01*
X157151515Y-71920542D01*
X157150169Y-71906869D01*
X157150169Y-71893131D01*
X157151515Y-71879458D01*
X157154196Y-71865983D01*
X157158184Y-71852835D01*
X157163441Y-71840142D01*
X157169918Y-71828026D01*
X157177551Y-71816602D01*
X157186267Y-71805982D01*
X157195982Y-71796267D01*
X157206602Y-71787551D01*
X157218026Y-71779918D01*
X157230142Y-71773441D01*
X157242835Y-71768184D01*
X157255983Y-71764196D01*
X157269458Y-71761515D01*
X157283131Y-71760169D01*
X157290000Y-71760169D01*
X157290000Y-71760000D01*
X158000000Y-71760000D01*
X158000000Y-72040000D01*
X157290000Y-72040000D01*
G37*
G36*
X157290000Y-71540000D02*
G01*
X157290000Y-71539831D01*
X157283131Y-71539831D01*
X157269458Y-71538485D01*
X157255983Y-71535804D01*
X157242835Y-71531816D01*
X157230142Y-71526559D01*
X157218026Y-71520082D01*
X157206602Y-71512449D01*
X157195982Y-71503733D01*
X157186267Y-71494018D01*
X157177551Y-71483398D01*
X157169918Y-71471974D01*
X157163441Y-71459858D01*
X157158184Y-71447165D01*
X157154196Y-71434017D01*
X157151515Y-71420542D01*
X157150169Y-71406869D01*
X157150169Y-71393131D01*
X157151515Y-71379458D01*
X157154196Y-71365983D01*
X157158184Y-71352835D01*
X157163441Y-71340142D01*
X157169918Y-71328026D01*
X157177551Y-71316602D01*
X157186267Y-71305982D01*
X157195982Y-71296267D01*
X157206602Y-71287551D01*
X157218026Y-71279918D01*
X157230142Y-71273441D01*
X157242835Y-71268184D01*
X157255983Y-71264196D01*
X157269458Y-71261515D01*
X157283131Y-71260169D01*
X157290000Y-71260169D01*
X157290000Y-71260000D01*
X158000000Y-71260000D01*
X158000000Y-71540000D01*
X157290000Y-71540000D01*
G37*
G36*
X157290000Y-71040000D02*
G01*
X157290000Y-71039831D01*
X157283131Y-71039831D01*
X157269458Y-71038485D01*
X157255983Y-71035804D01*
X157242835Y-71031816D01*
X157230142Y-71026559D01*
X157218026Y-71020082D01*
X157206602Y-71012449D01*
X157195982Y-71003733D01*
X157186267Y-70994018D01*
X157177551Y-70983398D01*
X157169918Y-70971974D01*
X157163441Y-70959858D01*
X157158184Y-70947165D01*
X157154196Y-70934017D01*
X157151515Y-70920542D01*
X157150169Y-70906869D01*
X157150169Y-70893131D01*
X157151515Y-70879458D01*
X157154196Y-70865983D01*
X157158184Y-70852835D01*
X157163441Y-70840142D01*
X157169918Y-70828026D01*
X157177551Y-70816602D01*
X157186267Y-70805982D01*
X157195982Y-70796267D01*
X157206602Y-70787551D01*
X157218026Y-70779918D01*
X157230142Y-70773441D01*
X157242835Y-70768184D01*
X157255983Y-70764196D01*
X157269458Y-70761515D01*
X157283131Y-70760169D01*
X157290000Y-70760169D01*
X157290000Y-70760000D01*
X158000000Y-70760000D01*
X158000000Y-71040000D01*
X157290000Y-71040000D01*
G37*
G36*
X157290000Y-70540000D02*
G01*
X157290000Y-70539831D01*
X157283131Y-70539831D01*
X157269458Y-70538485D01*
X157255983Y-70535804D01*
X157242835Y-70531816D01*
X157230142Y-70526559D01*
X157218026Y-70520082D01*
X157206602Y-70512449D01*
X157195982Y-70503733D01*
X157186267Y-70494018D01*
X157177551Y-70483398D01*
X157169918Y-70471974D01*
X157163441Y-70459858D01*
X157158184Y-70447165D01*
X157154196Y-70434017D01*
X157151515Y-70420542D01*
X157150169Y-70406869D01*
X157150169Y-70393131D01*
X157151515Y-70379458D01*
X157154196Y-70365983D01*
X157158184Y-70352835D01*
X157163441Y-70340142D01*
X157169918Y-70328026D01*
X157177551Y-70316602D01*
X157186267Y-70305982D01*
X157195982Y-70296267D01*
X157206602Y-70287551D01*
X157218026Y-70279918D01*
X157230142Y-70273441D01*
X157242835Y-70268184D01*
X157255983Y-70264196D01*
X157269458Y-70261515D01*
X157283131Y-70260169D01*
X157290000Y-70260169D01*
X157290000Y-70260000D01*
X158000000Y-70260000D01*
X158000000Y-70540000D01*
X157290000Y-70540000D01*
G37*
G36*
X157290000Y-70040000D02*
G01*
X157290000Y-70039831D01*
X157283131Y-70039831D01*
X157269458Y-70038485D01*
X157255983Y-70035804D01*
X157242835Y-70031816D01*
X157230142Y-70026559D01*
X157218026Y-70020082D01*
X157206602Y-70012449D01*
X157195982Y-70003733D01*
X157186267Y-69994018D01*
X157177551Y-69983398D01*
X157169918Y-69971974D01*
X157163441Y-69959858D01*
X157158184Y-69947165D01*
X157154196Y-69934017D01*
X157151515Y-69920542D01*
X157150169Y-69906869D01*
X157150169Y-69893131D01*
X157151515Y-69879458D01*
X157154196Y-69865983D01*
X157158184Y-69852835D01*
X157163441Y-69840142D01*
X157169918Y-69828026D01*
X157177551Y-69816602D01*
X157186267Y-69805982D01*
X157195982Y-69796267D01*
X157206602Y-69787551D01*
X157218026Y-69779918D01*
X157230142Y-69773441D01*
X157242835Y-69768184D01*
X157255983Y-69764196D01*
X157269458Y-69761515D01*
X157283131Y-69760169D01*
X157290000Y-69760169D01*
X157290000Y-69760000D01*
X158000000Y-69760000D01*
X158000000Y-70040000D01*
X157290000Y-70040000D01*
G37*
G36*
X156990000Y-69460000D02*
G01*
X156989831Y-69460000D01*
X156989831Y-69466869D01*
X156988485Y-69480542D01*
X156985804Y-69494017D01*
X156981816Y-69507165D01*
X156976559Y-69519858D01*
X156970082Y-69531974D01*
X156962449Y-69543398D01*
X156953733Y-69554018D01*
X156944018Y-69563733D01*
X156933398Y-69572449D01*
X156921974Y-69580082D01*
X156909858Y-69586559D01*
X156897165Y-69591816D01*
X156884017Y-69595804D01*
X156870542Y-69598485D01*
X156856869Y-69599831D01*
X156843131Y-69599831D01*
X156829458Y-69598485D01*
X156815983Y-69595804D01*
X156802835Y-69591816D01*
X156790142Y-69586559D01*
X156778026Y-69580082D01*
X156766602Y-69572449D01*
X156755982Y-69563733D01*
X156746267Y-69554018D01*
X156737551Y-69543398D01*
X156729918Y-69531974D01*
X156723441Y-69519858D01*
X156718184Y-69507165D01*
X156714196Y-69494017D01*
X156711515Y-69480542D01*
X156710169Y-69466869D01*
X156710169Y-69460000D01*
X156710000Y-69460000D01*
X156710000Y-68750000D01*
X156990000Y-68750000D01*
X156990000Y-69460000D01*
G37*
G36*
X156490000Y-69460000D02*
G01*
X156489831Y-69460000D01*
X156489831Y-69466869D01*
X156488485Y-69480542D01*
X156485804Y-69494017D01*
X156481816Y-69507165D01*
X156476559Y-69519858D01*
X156470082Y-69531974D01*
X156462449Y-69543398D01*
X156453733Y-69554018D01*
X156444018Y-69563733D01*
X156433398Y-69572449D01*
X156421974Y-69580082D01*
X156409858Y-69586559D01*
X156397165Y-69591816D01*
X156384017Y-69595804D01*
X156370542Y-69598485D01*
X156356869Y-69599831D01*
X156343131Y-69599831D01*
X156329458Y-69598485D01*
X156315983Y-69595804D01*
X156302835Y-69591816D01*
X156290142Y-69586559D01*
X156278026Y-69580082D01*
X156266602Y-69572449D01*
X156255982Y-69563733D01*
X156246267Y-69554018D01*
X156237551Y-69543398D01*
X156229918Y-69531974D01*
X156223441Y-69519858D01*
X156218184Y-69507165D01*
X156214196Y-69494017D01*
X156211515Y-69480542D01*
X156210169Y-69466869D01*
X156210169Y-69460000D01*
X156210000Y-69460000D01*
X156210000Y-68750000D01*
X156490000Y-68750000D01*
X156490000Y-69460000D01*
G37*
G36*
X155990000Y-69460000D02*
G01*
X155989831Y-69460000D01*
X155989831Y-69466869D01*
X155988485Y-69480542D01*
X155985804Y-69494017D01*
X155981816Y-69507165D01*
X155976559Y-69519858D01*
X155970082Y-69531974D01*
X155962449Y-69543398D01*
X155953733Y-69554018D01*
X155944018Y-69563733D01*
X155933398Y-69572449D01*
X155921974Y-69580082D01*
X155909858Y-69586559D01*
X155897165Y-69591816D01*
X155884017Y-69595804D01*
X155870542Y-69598485D01*
X155856869Y-69599831D01*
X155843131Y-69599831D01*
X155829458Y-69598485D01*
X155815983Y-69595804D01*
X155802835Y-69591816D01*
X155790142Y-69586559D01*
X155778026Y-69580082D01*
X155766602Y-69572449D01*
X155755982Y-69563733D01*
X155746267Y-69554018D01*
X155737551Y-69543398D01*
X155729918Y-69531974D01*
X155723441Y-69519858D01*
X155718184Y-69507165D01*
X155714196Y-69494017D01*
X155711515Y-69480542D01*
X155710169Y-69466869D01*
X155710169Y-69460000D01*
X155710000Y-69460000D01*
X155710000Y-68750000D01*
X155990000Y-68750000D01*
X155990000Y-69460000D01*
G37*
G36*
X155490000Y-69460000D02*
G01*
X155489831Y-69460000D01*
X155489831Y-69466869D01*
X155488485Y-69480542D01*
X155485804Y-69494017D01*
X155481816Y-69507165D01*
X155476559Y-69519858D01*
X155470082Y-69531974D01*
X155462449Y-69543398D01*
X155453733Y-69554018D01*
X155444018Y-69563733D01*
X155433398Y-69572449D01*
X155421974Y-69580082D01*
X155409858Y-69586559D01*
X155397165Y-69591816D01*
X155384017Y-69595804D01*
X155370542Y-69598485D01*
X155356869Y-69599831D01*
X155343131Y-69599831D01*
X155329458Y-69598485D01*
X155315983Y-69595804D01*
X155302835Y-69591816D01*
X155290142Y-69586559D01*
X155278026Y-69580082D01*
X155266602Y-69572449D01*
X155255982Y-69563733D01*
X155246267Y-69554018D01*
X155237551Y-69543398D01*
X155229918Y-69531974D01*
X155223441Y-69519858D01*
X155218184Y-69507165D01*
X155214196Y-69494017D01*
X155211515Y-69480542D01*
X155210169Y-69466869D01*
X155210169Y-69460000D01*
X155210000Y-69460000D01*
X155210000Y-68750000D01*
X155490000Y-68750000D01*
X155490000Y-69460000D01*
G37*
G36*
X154990000Y-69460000D02*
G01*
X154989831Y-69460000D01*
X154989831Y-69466869D01*
X154988485Y-69480542D01*
X154985804Y-69494017D01*
X154981816Y-69507165D01*
X154976559Y-69519858D01*
X154970082Y-69531974D01*
X154962449Y-69543398D01*
X154953733Y-69554018D01*
X154944018Y-69563733D01*
X154933398Y-69572449D01*
X154921974Y-69580082D01*
X154909858Y-69586559D01*
X154897165Y-69591816D01*
X154884017Y-69595804D01*
X154870542Y-69598485D01*
X154856869Y-69599831D01*
X154843131Y-69599831D01*
X154829458Y-69598485D01*
X154815983Y-69595804D01*
X154802835Y-69591816D01*
X154790142Y-69586559D01*
X154778026Y-69580082D01*
X154766602Y-69572449D01*
X154755982Y-69563733D01*
X154746267Y-69554018D01*
X154737551Y-69543398D01*
X154729918Y-69531974D01*
X154723441Y-69519858D01*
X154718184Y-69507165D01*
X154714196Y-69494017D01*
X154711515Y-69480542D01*
X154710169Y-69466869D01*
X154710169Y-69460000D01*
X154710000Y-69460000D01*
X154710000Y-68750000D01*
X154990000Y-68750000D01*
X154990000Y-69460000D01*
G37*
G36*
X154490000Y-69460000D02*
G01*
X154489831Y-69460000D01*
X154489831Y-69466869D01*
X154488485Y-69480542D01*
X154485804Y-69494017D01*
X154481816Y-69507165D01*
X154476559Y-69519858D01*
X154470082Y-69531974D01*
X154462449Y-69543398D01*
X154453733Y-69554018D01*
X154444018Y-69563733D01*
X154433398Y-69572449D01*
X154421974Y-69580082D01*
X154409858Y-69586559D01*
X154397165Y-69591816D01*
X154384017Y-69595804D01*
X154370542Y-69598485D01*
X154356869Y-69599831D01*
X154343131Y-69599831D01*
X154329458Y-69598485D01*
X154315983Y-69595804D01*
X154302835Y-69591816D01*
X154290142Y-69586559D01*
X154278026Y-69580082D01*
X154266602Y-69572449D01*
X154255982Y-69563733D01*
X154246267Y-69554018D01*
X154237551Y-69543398D01*
X154229918Y-69531974D01*
X154223441Y-69519858D01*
X154218184Y-69507165D01*
X154214196Y-69494017D01*
X154211515Y-69480542D01*
X154210169Y-69466869D01*
X154210169Y-69460000D01*
X154210000Y-69460000D01*
X154210000Y-68750000D01*
X154490000Y-68750000D01*
X154490000Y-69460000D01*
G37*
G36*
X153910000Y-69760000D02*
G01*
X153910000Y-69760169D01*
X153916869Y-69760169D01*
X153930542Y-69761515D01*
X153944017Y-69764196D01*
X153957165Y-69768184D01*
X153969858Y-69773441D01*
X153981974Y-69779918D01*
X153993398Y-69787551D01*
X154004018Y-69796267D01*
X154013733Y-69805982D01*
X154022449Y-69816602D01*
X154030082Y-69828026D01*
X154036559Y-69840142D01*
X154041816Y-69852835D01*
X154045804Y-69865983D01*
X154048485Y-69879458D01*
X154049831Y-69893131D01*
X154049831Y-69906869D01*
X154048485Y-69920542D01*
X154045804Y-69934017D01*
X154041816Y-69947165D01*
X154036559Y-69959858D01*
X154030082Y-69971974D01*
X154022449Y-69983398D01*
X154013733Y-69994018D01*
X154004018Y-70003733D01*
X153993398Y-70012449D01*
X153981974Y-70020082D01*
X153969858Y-70026559D01*
X153957165Y-70031816D01*
X153944017Y-70035804D01*
X153930542Y-70038485D01*
X153916869Y-70039831D01*
X153910000Y-70039831D01*
X153910000Y-70040000D01*
X153200000Y-70040000D01*
X153200000Y-69760000D01*
X153910000Y-69760000D01*
G37*
G36*
X153910000Y-70260000D02*
G01*
X153910000Y-70260169D01*
X153916869Y-70260169D01*
X153930542Y-70261515D01*
X153944017Y-70264196D01*
X153957165Y-70268184D01*
X153969858Y-70273441D01*
X153981974Y-70279918D01*
X153993398Y-70287551D01*
X154004018Y-70296267D01*
X154013733Y-70305982D01*
X154022449Y-70316602D01*
X154030082Y-70328026D01*
X154036559Y-70340142D01*
X154041816Y-70352835D01*
X154045804Y-70365983D01*
X154048485Y-70379458D01*
X154049831Y-70393131D01*
X154049831Y-70406869D01*
X154048485Y-70420542D01*
X154045804Y-70434017D01*
X154041816Y-70447165D01*
X154036559Y-70459858D01*
X154030082Y-70471974D01*
X154022449Y-70483398D01*
X154013733Y-70494018D01*
X154004018Y-70503733D01*
X153993398Y-70512449D01*
X153981974Y-70520082D01*
X153969858Y-70526559D01*
X153957165Y-70531816D01*
X153944017Y-70535804D01*
X153930542Y-70538485D01*
X153916869Y-70539831D01*
X153910000Y-70539831D01*
X153910000Y-70540000D01*
X153200000Y-70540000D01*
X153200000Y-70260000D01*
X153910000Y-70260000D01*
G37*
G36*
X153910000Y-70760000D02*
G01*
X153910000Y-70760169D01*
X153916869Y-70760169D01*
X153930542Y-70761515D01*
X153944017Y-70764196D01*
X153957165Y-70768184D01*
X153969858Y-70773441D01*
X153981974Y-70779918D01*
X153993398Y-70787551D01*
X154004018Y-70796267D01*
X154013733Y-70805982D01*
X154022449Y-70816602D01*
X154030082Y-70828026D01*
X154036559Y-70840142D01*
X154041816Y-70852835D01*
X154045804Y-70865983D01*
X154048485Y-70879458D01*
X154049831Y-70893131D01*
X154049831Y-70906869D01*
X154048485Y-70920542D01*
X154045804Y-70934017D01*
X154041816Y-70947165D01*
X154036559Y-70959858D01*
X154030082Y-70971974D01*
X154022449Y-70983398D01*
X154013733Y-70994018D01*
X154004018Y-71003733D01*
X153993398Y-71012449D01*
X153981974Y-71020082D01*
X153969858Y-71026559D01*
X153957165Y-71031816D01*
X153944017Y-71035804D01*
X153930542Y-71038485D01*
X153916869Y-71039831D01*
X153910000Y-71039831D01*
X153910000Y-71040000D01*
X153200000Y-71040000D01*
X153200000Y-70760000D01*
X153910000Y-70760000D01*
G37*
G36*
X153910000Y-71260000D02*
G01*
X153910000Y-71260169D01*
X153916869Y-71260169D01*
X153930542Y-71261515D01*
X153944017Y-71264196D01*
X153957165Y-71268184D01*
X153969858Y-71273441D01*
X153981974Y-71279918D01*
X153993398Y-71287551D01*
X154004018Y-71296267D01*
X154013733Y-71305982D01*
X154022449Y-71316602D01*
X154030082Y-71328026D01*
X154036559Y-71340142D01*
X154041816Y-71352835D01*
X154045804Y-71365983D01*
X154048485Y-71379458D01*
X154049831Y-71393131D01*
X154049831Y-71406869D01*
X154048485Y-71420542D01*
X154045804Y-71434017D01*
X154041816Y-71447165D01*
X154036559Y-71459858D01*
X154030082Y-71471974D01*
X154022449Y-71483398D01*
X154013733Y-71494018D01*
X154004018Y-71503733D01*
X153993398Y-71512449D01*
X153981974Y-71520082D01*
X153969858Y-71526559D01*
X153957165Y-71531816D01*
X153944017Y-71535804D01*
X153930542Y-71538485D01*
X153916869Y-71539831D01*
X153910000Y-71539831D01*
X153910000Y-71540000D01*
X153200000Y-71540000D01*
X153200000Y-71260000D01*
X153910000Y-71260000D01*
G37*
G36*
X153910000Y-71760000D02*
G01*
X153910000Y-71760169D01*
X153916869Y-71760169D01*
X153930542Y-71761515D01*
X153944017Y-71764196D01*
X153957165Y-71768184D01*
X153969858Y-71773441D01*
X153981974Y-71779918D01*
X153993398Y-71787551D01*
X154004018Y-71796267D01*
X154013733Y-71805982D01*
X154022449Y-71816602D01*
X154030082Y-71828026D01*
X154036559Y-71840142D01*
X154041816Y-71852835D01*
X154045804Y-71865983D01*
X154048485Y-71879458D01*
X154049831Y-71893131D01*
X154049831Y-71906869D01*
X154048485Y-71920542D01*
X154045804Y-71934017D01*
X154041816Y-71947165D01*
X154036559Y-71959858D01*
X154030082Y-71971974D01*
X154022449Y-71983398D01*
X154013733Y-71994018D01*
X154004018Y-72003733D01*
X153993398Y-72012449D01*
X153981974Y-72020082D01*
X153969858Y-72026559D01*
X153957165Y-72031816D01*
X153944017Y-72035804D01*
X153930542Y-72038485D01*
X153916869Y-72039831D01*
X153910000Y-72039831D01*
X153910000Y-72040000D01*
X153200000Y-72040000D01*
X153200000Y-71760000D01*
X153910000Y-71760000D01*
G37*
G36*
X153910000Y-72260000D02*
G01*
X153910000Y-72260169D01*
X153916869Y-72260169D01*
X153930542Y-72261515D01*
X153944017Y-72264196D01*
X153957165Y-72268184D01*
X153969858Y-72273441D01*
X153981974Y-72279918D01*
X153993398Y-72287551D01*
X154004018Y-72296267D01*
X154013733Y-72305982D01*
X154022449Y-72316602D01*
X154030082Y-72328026D01*
X154036559Y-72340142D01*
X154041816Y-72352835D01*
X154045804Y-72365983D01*
X154048485Y-72379458D01*
X154049831Y-72393131D01*
X154049831Y-72406869D01*
X154048485Y-72420542D01*
X154045804Y-72434017D01*
X154041816Y-72447165D01*
X154036559Y-72459858D01*
X154030082Y-72471974D01*
X154022449Y-72483398D01*
X154013733Y-72494018D01*
X154004018Y-72503733D01*
X153993398Y-72512449D01*
X153981974Y-72520082D01*
X153969858Y-72526559D01*
X153957165Y-72531816D01*
X153944017Y-72535804D01*
X153930542Y-72538485D01*
X153916869Y-72539831D01*
X153910000Y-72539831D01*
X153910000Y-72540000D01*
X153200000Y-72540000D01*
X153200000Y-72260000D01*
X153910000Y-72260000D01*
G37*
D27*
X154900000Y-71850000D03*
X156300000Y-71850000D03*
X156300000Y-70450000D03*
X154900000Y-70450000D03*
G36*
G01*
X142772500Y-134380000D02*
X142427500Y-134380000D01*
G75*
G02*
X142280000Y-134232500I0J147500D01*
G01*
X142280000Y-133937500D01*
G75*
G02*
X142427500Y-133790000I147500J0D01*
G01*
X142772500Y-133790000D01*
G75*
G02*
X142920000Y-133937500I0J-147500D01*
G01*
X142920000Y-134232500D01*
G75*
G02*
X142772500Y-134380000I-147500J0D01*
G01*
G37*
G36*
G01*
X142772500Y-133410000D02*
X142427500Y-133410000D01*
G75*
G02*
X142280000Y-133262500I0J147500D01*
G01*
X142280000Y-132967500D01*
G75*
G02*
X142427500Y-132820000I147500J0D01*
G01*
X142772500Y-132820000D01*
G75*
G02*
X142920000Y-132967500I0J-147500D01*
G01*
X142920000Y-133262500D01*
G75*
G02*
X142772500Y-133410000I-147500J0D01*
G01*
G37*
D28*
X123625000Y-89000000D03*
X126925000Y-89000000D03*
D12*
X180750000Y-109200000D03*
X180750000Y-110000000D03*
D11*
X180980000Y-107850000D03*
X180980000Y-111350000D03*
X180980000Y-78950000D03*
X180980000Y-75450000D03*
D12*
X180750000Y-77600000D03*
X180750000Y-76800000D03*
D11*
X180980000Y-122150000D03*
X180980000Y-118650000D03*
D12*
X180750000Y-120800000D03*
X180750000Y-120000000D03*
D11*
X180980000Y-116750000D03*
X180980000Y-113250000D03*
D12*
X180750000Y-115400000D03*
X180750000Y-114600000D03*
X180750000Y-82200000D03*
X180750000Y-83000000D03*
D11*
X180980000Y-80850000D03*
X180980000Y-84350000D03*
X181000000Y-89750000D03*
X181000000Y-86250000D03*
D12*
X180770000Y-88400000D03*
X180770000Y-87600000D03*
D11*
X181000000Y-95150000D03*
X181000000Y-91650000D03*
D12*
X180770000Y-93800000D03*
X180770000Y-93000000D03*
D11*
X180980000Y-100550000D03*
X180980000Y-97050000D03*
D12*
X180750000Y-99200000D03*
X180750000Y-98400000D03*
X180750000Y-103800000D03*
X180750000Y-104600000D03*
D11*
X180980000Y-102450000D03*
X180980000Y-105950000D03*
G36*
G01*
X145527500Y-132920000D02*
X145872500Y-132920000D01*
G75*
G02*
X146020000Y-133067500I0J-147500D01*
G01*
X146020000Y-133362500D01*
G75*
G02*
X145872500Y-133510000I-147500J0D01*
G01*
X145527500Y-133510000D01*
G75*
G02*
X145380000Y-133362500I0J147500D01*
G01*
X145380000Y-133067500D01*
G75*
G02*
X145527500Y-132920000I147500J0D01*
G01*
G37*
G36*
G01*
X145527500Y-133890000D02*
X145872500Y-133890000D01*
G75*
G02*
X146020000Y-134037500I0J-147500D01*
G01*
X146020000Y-134332500D01*
G75*
G02*
X145872500Y-134480000I-147500J0D01*
G01*
X145527500Y-134480000D01*
G75*
G02*
X145380000Y-134332500I0J147500D01*
G01*
X145380000Y-134037500D01*
G75*
G02*
X145527500Y-133890000I147500J0D01*
G01*
G37*
D29*
X143800000Y-133175000D03*
X144200000Y-133175000D03*
X144600000Y-133175000D03*
X144600000Y-134225000D03*
X144200000Y-134225000D03*
X143800000Y-134225000D03*
D30*
X144200000Y-133700000D03*
G36*
G01*
X172420000Y-122972500D02*
X172420000Y-122627500D01*
G75*
G02*
X172567500Y-122480000I147500J0D01*
G01*
X172862500Y-122480000D01*
G75*
G02*
X173010000Y-122627500I0J-147500D01*
G01*
X173010000Y-122972500D01*
G75*
G02*
X172862500Y-123120000I-147500J0D01*
G01*
X172567500Y-123120000D01*
G75*
G02*
X172420000Y-122972500I0J147500D01*
G01*
G37*
G36*
G01*
X173390000Y-122972500D02*
X173390000Y-122627500D01*
G75*
G02*
X173537500Y-122480000I147500J0D01*
G01*
X173832500Y-122480000D01*
G75*
G02*
X173980000Y-122627500I0J-147500D01*
G01*
X173980000Y-122972500D01*
G75*
G02*
X173832500Y-123120000I-147500J0D01*
G01*
X173537500Y-123120000D01*
G75*
G02*
X173390000Y-122972500I0J147500D01*
G01*
G37*
G36*
G01*
X166172500Y-124410000D02*
X165827500Y-124410000D01*
G75*
G02*
X165680000Y-124262500I0J147500D01*
G01*
X165680000Y-123967500D01*
G75*
G02*
X165827500Y-123820000I147500J0D01*
G01*
X166172500Y-123820000D01*
G75*
G02*
X166320000Y-123967500I0J-147500D01*
G01*
X166320000Y-124262500D01*
G75*
G02*
X166172500Y-124410000I-147500J0D01*
G01*
G37*
G36*
G01*
X166172500Y-125380000D02*
X165827500Y-125380000D01*
G75*
G02*
X165680000Y-125232500I0J147500D01*
G01*
X165680000Y-124937500D01*
G75*
G02*
X165827500Y-124790000I147500J0D01*
G01*
X166172500Y-124790000D01*
G75*
G02*
X166320000Y-124937500I0J-147500D01*
G01*
X166320000Y-125232500D01*
G75*
G02*
X166172500Y-125380000I-147500J0D01*
G01*
G37*
G36*
G01*
X170450000Y-138156250D02*
X170450000Y-137243750D01*
G75*
G02*
X170693750Y-137000000I243750J0D01*
G01*
X171181250Y-137000000D01*
G75*
G02*
X171425000Y-137243750I0J-243750D01*
G01*
X171425000Y-138156250D01*
G75*
G02*
X171181250Y-138400000I-243750J0D01*
G01*
X170693750Y-138400000D01*
G75*
G02*
X170450000Y-138156250I0J243750D01*
G01*
G37*
G36*
G01*
X168575000Y-138156250D02*
X168575000Y-137243750D01*
G75*
G02*
X168818750Y-137000000I243750J0D01*
G01*
X169306250Y-137000000D01*
G75*
G02*
X169550000Y-137243750I0J-243750D01*
G01*
X169550000Y-138156250D01*
G75*
G02*
X169306250Y-138400000I-243750J0D01*
G01*
X168818750Y-138400000D01*
G75*
G02*
X168575000Y-138156250I0J243750D01*
G01*
G37*
G36*
G01*
X170593750Y-146125000D02*
X171506250Y-146125000D01*
G75*
G02*
X171750000Y-146368750I0J-243750D01*
G01*
X171750000Y-146856250D01*
G75*
G02*
X171506250Y-147100000I-243750J0D01*
G01*
X170593750Y-147100000D01*
G75*
G02*
X170350000Y-146856250I0J243750D01*
G01*
X170350000Y-146368750D01*
G75*
G02*
X170593750Y-146125000I243750J0D01*
G01*
G37*
G36*
G01*
X170593750Y-148000000D02*
X171506250Y-148000000D01*
G75*
G02*
X171750000Y-148243750I0J-243750D01*
G01*
X171750000Y-148731250D01*
G75*
G02*
X171506250Y-148975000I-243750J0D01*
G01*
X170593750Y-148975000D01*
G75*
G02*
X170350000Y-148731250I0J243750D01*
G01*
X170350000Y-148243750D01*
G75*
G02*
X170593750Y-148000000I243750J0D01*
G01*
G37*
G36*
G01*
X174575000Y-138156250D02*
X174575000Y-137243750D01*
G75*
G02*
X174818750Y-137000000I243750J0D01*
G01*
X175306250Y-137000000D01*
G75*
G02*
X175550000Y-137243750I0J-243750D01*
G01*
X175550000Y-138156250D01*
G75*
G02*
X175306250Y-138400000I-243750J0D01*
G01*
X174818750Y-138400000D01*
G75*
G02*
X174575000Y-138156250I0J243750D01*
G01*
G37*
G36*
G01*
X176450000Y-138156250D02*
X176450000Y-137243750D01*
G75*
G02*
X176693750Y-137000000I243750J0D01*
G01*
X177181250Y-137000000D01*
G75*
G02*
X177425000Y-137243750I0J-243750D01*
G01*
X177425000Y-138156250D01*
G75*
G02*
X177181250Y-138400000I-243750J0D01*
G01*
X176693750Y-138400000D01*
G75*
G02*
X176450000Y-138156250I0J243750D01*
G01*
G37*
G36*
G01*
X176322500Y-123210000D02*
X175977500Y-123210000D01*
G75*
G02*
X175830000Y-123062500I0J147500D01*
G01*
X175830000Y-122767500D01*
G75*
G02*
X175977500Y-122620000I147500J0D01*
G01*
X176322500Y-122620000D01*
G75*
G02*
X176470000Y-122767500I0J-147500D01*
G01*
X176470000Y-123062500D01*
G75*
G02*
X176322500Y-123210000I-147500J0D01*
G01*
G37*
G36*
G01*
X176322500Y-124180000D02*
X175977500Y-124180000D01*
G75*
G02*
X175830000Y-124032500I0J147500D01*
G01*
X175830000Y-123737500D01*
G75*
G02*
X175977500Y-123590000I147500J0D01*
G01*
X176322500Y-123590000D01*
G75*
G02*
X176470000Y-123737500I0J-147500D01*
G01*
X176470000Y-124032500D01*
G75*
G02*
X176322500Y-124180000I-147500J0D01*
G01*
G37*
G36*
G01*
X175072500Y-124080000D02*
X174727500Y-124080000D01*
G75*
G02*
X174580000Y-123932500I0J147500D01*
G01*
X174580000Y-123637500D01*
G75*
G02*
X174727500Y-123490000I147500J0D01*
G01*
X175072500Y-123490000D01*
G75*
G02*
X175220000Y-123637500I0J-147500D01*
G01*
X175220000Y-123932500D01*
G75*
G02*
X175072500Y-124080000I-147500J0D01*
G01*
G37*
G36*
G01*
X175072500Y-123110000D02*
X174727500Y-123110000D01*
G75*
G02*
X174580000Y-122962500I0J147500D01*
G01*
X174580000Y-122667500D01*
G75*
G02*
X174727500Y-122520000I147500J0D01*
G01*
X175072500Y-122520000D01*
G75*
G02*
X175220000Y-122667500I0J-147500D01*
G01*
X175220000Y-122962500D01*
G75*
G02*
X175072500Y-123110000I-147500J0D01*
G01*
G37*
G36*
G01*
X172427500Y-124790000D02*
X172772500Y-124790000D01*
G75*
G02*
X172920000Y-124937500I0J-147500D01*
G01*
X172920000Y-125232500D01*
G75*
G02*
X172772500Y-125380000I-147500J0D01*
G01*
X172427500Y-125380000D01*
G75*
G02*
X172280000Y-125232500I0J147500D01*
G01*
X172280000Y-124937500D01*
G75*
G02*
X172427500Y-124790000I147500J0D01*
G01*
G37*
G36*
G01*
X172427500Y-123820000D02*
X172772500Y-123820000D01*
G75*
G02*
X172920000Y-123967500I0J-147500D01*
G01*
X172920000Y-124262500D01*
G75*
G02*
X172772500Y-124410000I-147500J0D01*
G01*
X172427500Y-124410000D01*
G75*
G02*
X172280000Y-124262500I0J147500D01*
G01*
X172280000Y-123967500D01*
G75*
G02*
X172427500Y-123820000I147500J0D01*
G01*
G37*
G36*
G01*
X172205000Y-126572500D02*
X172205000Y-126227500D01*
G75*
G02*
X172352500Y-126080000I147500J0D01*
G01*
X172647500Y-126080000D01*
G75*
G02*
X172795000Y-126227500I0J-147500D01*
G01*
X172795000Y-126572500D01*
G75*
G02*
X172647500Y-126720000I-147500J0D01*
G01*
X172352500Y-126720000D01*
G75*
G02*
X172205000Y-126572500I0J147500D01*
G01*
G37*
G36*
G01*
X173175000Y-126572500D02*
X173175000Y-126227500D01*
G75*
G02*
X173322500Y-126080000I147500J0D01*
G01*
X173617500Y-126080000D01*
G75*
G02*
X173765000Y-126227500I0J-147500D01*
G01*
X173765000Y-126572500D01*
G75*
G02*
X173617500Y-126720000I-147500J0D01*
G01*
X173322500Y-126720000D01*
G75*
G02*
X173175000Y-126572500I0J147500D01*
G01*
G37*
D25*
X167450000Y-124400000D03*
D24*
X167850000Y-124350000D03*
X168250000Y-124350000D03*
X168650000Y-124350000D03*
X169050000Y-124350000D03*
X169450000Y-124350000D03*
X169850000Y-124350000D03*
X170250000Y-124350000D03*
X170650000Y-124350000D03*
X171050000Y-124350000D03*
X171050000Y-126150000D03*
X170650000Y-126150000D03*
X170250000Y-126150000D03*
X169850000Y-126150000D03*
X169450000Y-126150000D03*
X169050000Y-126150000D03*
X168650000Y-126150000D03*
X168250000Y-126150000D03*
X167850000Y-126150000D03*
X167450000Y-126150000D03*
D31*
X179950000Y-61500000D03*
D32*
X170550000Y-69500000D03*
X174750000Y-69500000D03*
X177750000Y-69500000D03*
X170550000Y-61500000D03*
X174750000Y-61500000D03*
X177600000Y-61500000D03*
G36*
G01*
X174577500Y-126090000D02*
X174922500Y-126090000D01*
G75*
G02*
X175070000Y-126237500I0J-147500D01*
G01*
X175070000Y-126532500D01*
G75*
G02*
X174922500Y-126680000I-147500J0D01*
G01*
X174577500Y-126680000D01*
G75*
G02*
X174430000Y-126532500I0J147500D01*
G01*
X174430000Y-126237500D01*
G75*
G02*
X174577500Y-126090000I147500J0D01*
G01*
G37*
G36*
G01*
X174577500Y-125120000D02*
X174922500Y-125120000D01*
G75*
G02*
X175070000Y-125267500I0J-147500D01*
G01*
X175070000Y-125562500D01*
G75*
G02*
X174922500Y-125710000I-147500J0D01*
G01*
X174577500Y-125710000D01*
G75*
G02*
X174430000Y-125562500I0J147500D01*
G01*
X174430000Y-125267500D01*
G75*
G02*
X174577500Y-125120000I147500J0D01*
G01*
G37*
D33*
X133825000Y-114550000D03*
X133825000Y-112650000D03*
X135825000Y-113600000D03*
X128450000Y-113600000D03*
X126450000Y-112650000D03*
X126450000Y-114550000D03*
G36*
G01*
X161543750Y-74575000D02*
X162056250Y-74575000D01*
G75*
G02*
X162275000Y-74793750I0J-218750D01*
G01*
X162275000Y-75231250D01*
G75*
G02*
X162056250Y-75450000I-218750J0D01*
G01*
X161543750Y-75450000D01*
G75*
G02*
X161325000Y-75231250I0J218750D01*
G01*
X161325000Y-74793750D01*
G75*
G02*
X161543750Y-74575000I218750J0D01*
G01*
G37*
G36*
G01*
X161543750Y-76150000D02*
X162056250Y-76150000D01*
G75*
G02*
X162275000Y-76368750I0J-218750D01*
G01*
X162275000Y-76806250D01*
G75*
G02*
X162056250Y-77025000I-218750J0D01*
G01*
X161543750Y-77025000D01*
G75*
G02*
X161325000Y-76806250I0J218750D01*
G01*
X161325000Y-76368750D01*
G75*
G02*
X161543750Y-76150000I218750J0D01*
G01*
G37*
G36*
G01*
X130795000Y-113447500D02*
X130795000Y-113102500D01*
G75*
G02*
X130942500Y-112955000I147500J0D01*
G01*
X131237500Y-112955000D01*
G75*
G02*
X131385000Y-113102500I0J-147500D01*
G01*
X131385000Y-113447500D01*
G75*
G02*
X131237500Y-113595000I-147500J0D01*
G01*
X130942500Y-113595000D01*
G75*
G02*
X130795000Y-113447500I0J147500D01*
G01*
G37*
G36*
G01*
X131765000Y-113447500D02*
X131765000Y-113102500D01*
G75*
G02*
X131912500Y-112955000I147500J0D01*
G01*
X132207500Y-112955000D01*
G75*
G02*
X132355000Y-113102500I0J-147500D01*
G01*
X132355000Y-113447500D01*
G75*
G02*
X132207500Y-113595000I-147500J0D01*
G01*
X131912500Y-113595000D01*
G75*
G02*
X131765000Y-113447500I0J147500D01*
G01*
G37*
G36*
G01*
X131385000Y-114402500D02*
X131385000Y-114747500D01*
G75*
G02*
X131237500Y-114895000I-147500J0D01*
G01*
X130942500Y-114895000D01*
G75*
G02*
X130795000Y-114747500I0J147500D01*
G01*
X130795000Y-114402500D01*
G75*
G02*
X130942500Y-114255000I147500J0D01*
G01*
X131237500Y-114255000D01*
G75*
G02*
X131385000Y-114402500I0J-147500D01*
G01*
G37*
G36*
G01*
X132355000Y-114402500D02*
X132355000Y-114747500D01*
G75*
G02*
X132207500Y-114895000I-147500J0D01*
G01*
X131912500Y-114895000D01*
G75*
G02*
X131765000Y-114747500I0J147500D01*
G01*
X131765000Y-114402500D01*
G75*
G02*
X131912500Y-114255000I147500J0D01*
G01*
X132207500Y-114255000D01*
G75*
G02*
X132355000Y-114402500I0J-147500D01*
G01*
G37*
G36*
G01*
X122860000Y-112227500D02*
X122860000Y-112572500D01*
G75*
G02*
X122712500Y-112720000I-147500J0D01*
G01*
X122417500Y-112720000D01*
G75*
G02*
X122270000Y-112572500I0J147500D01*
G01*
X122270000Y-112227500D01*
G75*
G02*
X122417500Y-112080000I147500J0D01*
G01*
X122712500Y-112080000D01*
G75*
G02*
X122860000Y-112227500I0J-147500D01*
G01*
G37*
G36*
G01*
X123830000Y-112227500D02*
X123830000Y-112572500D01*
G75*
G02*
X123682500Y-112720000I-147500J0D01*
G01*
X123387500Y-112720000D01*
G75*
G02*
X123240000Y-112572500I0J147500D01*
G01*
X123240000Y-112227500D01*
G75*
G02*
X123387500Y-112080000I147500J0D01*
G01*
X123682500Y-112080000D01*
G75*
G02*
X123830000Y-112227500I0J-147500D01*
G01*
G37*
G36*
G01*
X124872500Y-114330000D02*
X124527500Y-114330000D01*
G75*
G02*
X124380000Y-114182500I0J147500D01*
G01*
X124380000Y-113887500D01*
G75*
G02*
X124527500Y-113740000I147500J0D01*
G01*
X124872500Y-113740000D01*
G75*
G02*
X125020000Y-113887500I0J-147500D01*
G01*
X125020000Y-114182500D01*
G75*
G02*
X124872500Y-114330000I-147500J0D01*
G01*
G37*
G36*
G01*
X124872500Y-113360000D02*
X124527500Y-113360000D01*
G75*
G02*
X124380000Y-113212500I0J147500D01*
G01*
X124380000Y-112917500D01*
G75*
G02*
X124527500Y-112770000I147500J0D01*
G01*
X124872500Y-112770000D01*
G75*
G02*
X125020000Y-112917500I0J-147500D01*
G01*
X125020000Y-113212500D01*
G75*
G02*
X124872500Y-113360000I-147500J0D01*
G01*
G37*
D34*
X164250000Y-70150000D03*
D35*
X177200000Y-81225000D03*
G36*
G01*
X167743750Y-92100000D02*
X168256250Y-92100000D01*
G75*
G02*
X168475000Y-92318750I0J-218750D01*
G01*
X168475000Y-92756250D01*
G75*
G02*
X168256250Y-92975000I-218750J0D01*
G01*
X167743750Y-92975000D01*
G75*
G02*
X167525000Y-92756250I0J218750D01*
G01*
X167525000Y-92318750D01*
G75*
G02*
X167743750Y-92100000I218750J0D01*
G01*
G37*
G36*
G01*
X167743750Y-90525000D02*
X168256250Y-90525000D01*
G75*
G02*
X168475000Y-90743750I0J-218750D01*
G01*
X168475000Y-91181250D01*
G75*
G02*
X168256250Y-91400000I-218750J0D01*
G01*
X167743750Y-91400000D01*
G75*
G02*
X167525000Y-91181250I0J218750D01*
G01*
X167525000Y-90743750D01*
G75*
G02*
X167743750Y-90525000I218750J0D01*
G01*
G37*
G36*
G01*
X165106250Y-92975000D02*
X164593750Y-92975000D01*
G75*
G02*
X164375000Y-92756250I0J218750D01*
G01*
X164375000Y-92318750D01*
G75*
G02*
X164593750Y-92100000I218750J0D01*
G01*
X165106250Y-92100000D01*
G75*
G02*
X165325000Y-92318750I0J-218750D01*
G01*
X165325000Y-92756250D01*
G75*
G02*
X165106250Y-92975000I-218750J0D01*
G01*
G37*
G36*
G01*
X165106250Y-91400000D02*
X164593750Y-91400000D01*
G75*
G02*
X164375000Y-91181250I0J218750D01*
G01*
X164375000Y-90743750D01*
G75*
G02*
X164593750Y-90525000I218750J0D01*
G01*
X165106250Y-90525000D01*
G75*
G02*
X165325000Y-90743750I0J-218750D01*
G01*
X165325000Y-91181250D01*
G75*
G02*
X165106250Y-91400000I-218750J0D01*
G01*
G37*
M02*
