G04 #@! TF.GenerationSoftware,KiCad,Pcbnew,6.0.0+dfsg1-2*
G04 #@! TF.CreationDate,2022-02-08T13:12:28-05:00*
G04 #@! TF.ProjectId,RUSP_Daughterboard,52555350-5f44-4617-9567-68746572626f,rev?*
G04 #@! TF.SameCoordinates,Original*
G04 #@! TF.FileFunction,Soldermask,Top*
G04 #@! TF.FilePolarity,Negative*
%FSLAX46Y46*%
G04 Gerber Fmt 4.6, Leading zero omitted, Abs format (unit mm)*
G04 Created by KiCad (PCBNEW 6.0.0+dfsg1-2) date 2022-02-08 13:12:28*
%MOMM*%
%LPD*%
G01*
G04 APERTURE LIST*
G04 Aperture macros list*
%AMRoundRect*
0 Rectangle with rounded corners*
0 $1 Rounding radius*
0 $2 $3 $4 $5 $6 $7 $8 $9 X,Y pos of 4 corners*
0 Add a 4 corners polygon primitive as box body*
4,1,4,$2,$3,$4,$5,$6,$7,$8,$9,$2,$3,0*
0 Add four circle primitives for the rounded corners*
1,1,$1+$1,$2,$3*
1,1,$1+$1,$4,$5*
1,1,$1+$1,$6,$7*
1,1,$1+$1,$8,$9*
0 Add four rect primitives between the rounded corners*
20,1,$1+$1,$2,$3,$4,$5,0*
20,1,$1+$1,$4,$5,$6,$7,0*
20,1,$1+$1,$6,$7,$8,$9,0*
20,1,$1+$1,$8,$9,$2,$3,0*%
G04 Aperture macros list end*
%ADD10RoundRect,0.400000X0.200000X0.275000X-0.200000X0.275000X-0.200000X-0.275000X0.200000X-0.275000X0*%
%ADD11RoundRect,0.418750X-0.026517X0.335876X-0.335876X0.026517X0.026517X-0.335876X0.335876X-0.026517X0*%
%ADD12RoundRect,0.425000X-0.017678X0.335876X-0.335876X0.017678X0.017678X-0.335876X0.335876X-0.017678X0*%
%ADD13C,2.600000*%
%ADD14C,1.500000*%
%ADD15RoundRect,0.200000X-1.000000X0.400000X-1.000000X-0.400000X1.000000X-0.400000X1.000000X0.400000X0*%
%ADD16RoundRect,0.200000X-0.700000X0.900000X-0.700000X-0.900000X0.700000X-0.900000X0.700000X0.900000X0*%
%ADD17RoundRect,0.200000X-0.950000X0.700000X-0.950000X-0.700000X0.950000X-0.700000X0.950000X0.700000X0*%
%ADD18C,3.400000*%
%ADD19RoundRect,0.200000X0.700000X0.900000X-0.700000X0.900000X-0.700000X-0.900000X0.700000X-0.900000X0*%
%ADD20C,1.600000*%
%ADD21C,2.100000*%
%ADD22RoundRect,0.340000X0.170000X-0.140000X0.170000X0.140000X-0.170000X0.140000X-0.170000X-0.140000X0*%
%ADD23RoundRect,0.418750X0.218750X0.256250X-0.218750X0.256250X-0.218750X-0.256250X0.218750X-0.256250X0*%
%ADD24RoundRect,0.418750X0.256250X-0.218750X0.256250X0.218750X-0.256250X0.218750X-0.256250X-0.218750X0*%
%ADD25RoundRect,0.200000X-0.500000X-0.500000X0.500000X-0.500000X0.500000X0.500000X-0.500000X0.500000X0*%
%ADD26RoundRect,0.200000X-0.525000X-1.100000X0.525000X-1.100000X0.525000X1.100000X-0.525000X1.100000X0*%
%ADD27RoundRect,0.200000X0.850000X1.600000X-0.850000X1.600000X-0.850000X-1.600000X0.850000X-1.600000X0*%
%ADD28C,1.160000*%
G04 APERTURE END LIST*
D10*
X137525000Y-79700000D03*
X135875000Y-79700000D03*
X137440000Y-71000000D03*
X135790000Y-71000000D03*
D11*
X147246847Y-120653153D03*
X146133153Y-121766847D03*
D12*
X146028008Y-119451992D03*
X144931992Y-120548008D03*
X148428008Y-121881992D03*
X147331992Y-122978008D03*
D13*
X141000000Y-113500000D03*
D14*
X171500000Y-70500000D03*
X126500000Y-86500000D03*
D15*
X123375000Y-78690000D03*
X123775000Y-77590000D03*
X123375000Y-76490000D03*
X123175000Y-75390000D03*
X123375000Y-74290000D03*
X123175000Y-73190000D03*
X123375000Y-72090000D03*
X123375000Y-70990000D03*
D16*
X133925000Y-71800000D03*
X133925000Y-77500000D03*
D17*
X120775000Y-70200000D03*
X119775000Y-83350000D03*
D13*
X176500000Y-95500000D03*
D18*
X154000000Y-128000000D03*
D13*
X154000000Y-134000000D03*
D14*
X171500000Y-137000000D03*
D19*
X128480000Y-89613500D03*
X131020000Y-89613500D03*
X133560000Y-89613500D03*
X128480000Y-114886500D03*
X131083500Y-114886500D03*
X133560000Y-114886500D03*
D20*
X123670000Y-110380000D03*
D21*
X135645000Y-94575000D03*
D22*
X177530000Y-75530000D03*
X177530000Y-74570000D03*
D23*
X176047500Y-76100000D03*
X174472500Y-76100000D03*
D22*
X177520000Y-77555000D03*
X177520000Y-76595000D03*
D24*
X177580000Y-80447500D03*
X177580000Y-78872500D03*
D23*
X176037500Y-77800000D03*
X174462500Y-77800000D03*
D25*
X175900000Y-73000000D03*
X175900000Y-70000000D03*
D26*
X177375000Y-71500000D03*
X174425000Y-71500000D03*
D27*
X171950000Y-88200000D03*
X163450000Y-88200000D03*
D28*
X165740000Y-135200000D03*
X160660000Y-135200000D03*
X160660000Y-127500000D03*
X165740000Y-127500000D03*
G36*
X177863069Y-77982643D02*
G01*
X177863914Y-77984455D01*
X177863110Y-77985890D01*
X177849628Y-77995848D01*
X177849103Y-77996126D01*
X177840242Y-77999237D01*
X177783765Y-78039839D01*
X177758316Y-78104252D01*
X177771729Y-78172198D01*
X177819813Y-78222172D01*
X177866146Y-78237515D01*
X177935171Y-78245868D01*
X177935667Y-78245994D01*
X177947351Y-78250620D01*
X177948594Y-78252188D01*
X177947857Y-78254047D01*
X177946302Y-78254455D01*
X177836095Y-78237000D01*
X177323905Y-78237000D01*
X177213700Y-78254455D01*
X177211833Y-78253739D01*
X177211520Y-78251763D01*
X177212651Y-78250620D01*
X177236519Y-78241170D01*
X177291360Y-78198381D01*
X177314261Y-78133020D01*
X177298189Y-78065653D01*
X177251120Y-78020429D01*
X177250564Y-78018508D01*
X177251950Y-78017066D01*
X177253351Y-78017174D01*
X177262569Y-78021472D01*
X177350132Y-78033000D01*
X177689868Y-78033000D01*
X177777431Y-78021472D01*
X177861077Y-77982468D01*
X177863069Y-77982643D01*
G37*
G36*
X177946383Y-76953559D02*
G01*
X177946060Y-76955265D01*
X177931033Y-76975610D01*
X177930955Y-76975689D01*
X177888759Y-77031307D01*
X177883376Y-77100357D01*
X177916280Y-77161547D01*
X177930691Y-77174035D01*
X177930685Y-77174042D01*
X177931033Y-77174390D01*
X177946060Y-77194735D01*
X177946284Y-77196722D01*
X177944676Y-77197910D01*
X177943037Y-77197337D01*
X177883852Y-77138152D01*
X177777431Y-77088528D01*
X177689739Y-77076983D01*
X177688152Y-77075765D01*
X177688413Y-77073782D01*
X177689739Y-77073017D01*
X177777431Y-77061472D01*
X177883852Y-77011848D01*
X177943037Y-76952663D01*
X177944969Y-76952145D01*
X177946383Y-76953559D01*
G37*
G36*
X177096963Y-76952663D02*
G01*
X177156148Y-77011848D01*
X177262569Y-77061472D01*
X177350261Y-77073017D01*
X177351848Y-77074235D01*
X177351587Y-77076218D01*
X177350261Y-77076983D01*
X177262569Y-77088528D01*
X177156148Y-77138152D01*
X177096963Y-77197337D01*
X177095031Y-77197855D01*
X177093617Y-77196441D01*
X177093940Y-77194735D01*
X177108967Y-77174390D01*
X177109045Y-77174311D01*
X177151241Y-77118693D01*
X177156624Y-77049643D01*
X177123720Y-76988453D01*
X177109309Y-76975965D01*
X177109315Y-76975958D01*
X177108967Y-76975610D01*
X177093940Y-76955265D01*
X177093716Y-76953278D01*
X177095324Y-76952090D01*
X177096963Y-76952663D01*
G37*
G36*
X177188484Y-75957263D02*
G01*
X177272569Y-75996472D01*
X177360132Y-76008000D01*
X177699868Y-76008000D01*
X177787431Y-75996472D01*
X177871074Y-75957469D01*
X177873066Y-75957644D01*
X177873911Y-75959456D01*
X177873107Y-75960891D01*
X177864721Y-75967085D01*
X177822679Y-76022499D01*
X177817295Y-76091549D01*
X177850198Y-76152738D01*
X177863671Y-76164412D01*
X177864325Y-76166302D01*
X177863015Y-76167814D01*
X177861516Y-76167737D01*
X177777431Y-76128528D01*
X177689868Y-76117000D01*
X177350132Y-76117000D01*
X177262569Y-76128528D01*
X177178926Y-76167531D01*
X177176934Y-76167356D01*
X177176089Y-76165544D01*
X177176893Y-76164109D01*
X177185279Y-76157915D01*
X177227321Y-76102501D01*
X177232705Y-76033451D01*
X177199802Y-75972262D01*
X177186329Y-75960588D01*
X177185675Y-75958698D01*
X177186985Y-75957186D01*
X177188484Y-75957263D01*
G37*
G36*
X177956383Y-74928559D02*
G01*
X177956060Y-74930265D01*
X177941033Y-74950610D01*
X177940955Y-74950689D01*
X177898759Y-75006307D01*
X177893376Y-75075357D01*
X177926280Y-75136547D01*
X177940691Y-75149035D01*
X177940685Y-75149042D01*
X177941033Y-75149390D01*
X177956060Y-75169735D01*
X177956284Y-75171722D01*
X177954676Y-75172910D01*
X177953037Y-75172337D01*
X177893852Y-75113152D01*
X177787431Y-75063528D01*
X177699739Y-75051983D01*
X177698152Y-75050765D01*
X177698413Y-75048782D01*
X177699739Y-75048017D01*
X177787431Y-75036472D01*
X177893852Y-74986848D01*
X177953037Y-74927663D01*
X177954969Y-74927145D01*
X177956383Y-74928559D01*
G37*
G36*
X177106963Y-74927663D02*
G01*
X177166148Y-74986848D01*
X177272569Y-75036472D01*
X177360261Y-75048017D01*
X177361848Y-75049235D01*
X177361587Y-75051218D01*
X177360261Y-75051983D01*
X177272569Y-75063528D01*
X177166148Y-75113152D01*
X177106963Y-75172337D01*
X177105031Y-75172855D01*
X177103617Y-75171441D01*
X177103940Y-75169735D01*
X177118967Y-75149390D01*
X177119045Y-75149311D01*
X177161241Y-75093693D01*
X177166624Y-75024643D01*
X177133720Y-74963453D01*
X177119309Y-74950965D01*
X177119315Y-74950958D01*
X177118967Y-74950610D01*
X177103940Y-74930265D01*
X177103716Y-74928278D01*
X177105324Y-74927090D01*
X177106963Y-74927663D01*
G37*
G36*
X176651243Y-72203580D02*
G01*
X176652000Y-72205147D01*
X176652000Y-72599801D01*
X176667109Y-72675758D01*
X176710021Y-72739979D01*
X176767086Y-72778109D01*
X176767971Y-72779903D01*
X176766860Y-72781566D01*
X176765675Y-72781749D01*
X176708471Y-72773061D01*
X176645245Y-72801332D01*
X176607260Y-72859421D01*
X176601979Y-72895145D01*
X176600736Y-72896713D01*
X176598757Y-72896420D01*
X176598000Y-72894853D01*
X176598000Y-72500199D01*
X176582891Y-72424242D01*
X176539979Y-72360021D01*
X176482914Y-72321891D01*
X176482029Y-72320097D01*
X176483140Y-72318434D01*
X176484325Y-72318251D01*
X176541529Y-72326939D01*
X176604755Y-72298668D01*
X176642740Y-72240579D01*
X176648021Y-72204855D01*
X176649264Y-72203287D01*
X176651243Y-72203580D01*
G37*
G36*
X175151919Y-72204577D02*
G01*
X175171596Y-72271592D01*
X175223939Y-72316947D01*
X175292638Y-72326824D01*
X175310728Y-72321435D01*
X175312673Y-72321899D01*
X175313244Y-72323816D01*
X175312410Y-72325015D01*
X175260021Y-72360021D01*
X175217109Y-72424242D01*
X175202000Y-72500199D01*
X175202000Y-72894860D01*
X175201000Y-72896592D01*
X175199000Y-72896592D01*
X175198081Y-72895423D01*
X175178404Y-72828408D01*
X175126061Y-72783053D01*
X175057362Y-72773176D01*
X175039272Y-72778565D01*
X175037327Y-72778101D01*
X175036756Y-72776184D01*
X175037590Y-72774985D01*
X175089979Y-72739979D01*
X175132891Y-72675758D01*
X175148000Y-72599801D01*
X175148000Y-72205140D01*
X175149000Y-72203408D01*
X175151000Y-72203408D01*
X175151919Y-72204577D01*
G37*
G36*
X175201243Y-70103580D02*
G01*
X175202000Y-70105147D01*
X175202000Y-70499801D01*
X175217109Y-70575758D01*
X175260021Y-70639979D01*
X175317086Y-70678109D01*
X175317971Y-70679903D01*
X175316860Y-70681566D01*
X175315675Y-70681749D01*
X175258471Y-70673061D01*
X175195245Y-70701332D01*
X175157260Y-70759421D01*
X175151979Y-70795145D01*
X175150736Y-70796713D01*
X175148757Y-70796420D01*
X175148000Y-70794853D01*
X175148000Y-70400199D01*
X175132891Y-70324242D01*
X175089979Y-70260021D01*
X175032914Y-70221891D01*
X175032029Y-70220097D01*
X175033140Y-70218434D01*
X175034325Y-70218251D01*
X175091529Y-70226939D01*
X175154755Y-70198668D01*
X175192740Y-70140579D01*
X175198021Y-70104855D01*
X175199264Y-70103287D01*
X175201243Y-70103580D01*
G37*
G36*
X176601919Y-70104577D02*
G01*
X176621596Y-70171592D01*
X176673939Y-70216947D01*
X176742638Y-70226824D01*
X176760728Y-70221435D01*
X176762673Y-70221899D01*
X176763244Y-70223816D01*
X176762410Y-70225015D01*
X176710021Y-70260021D01*
X176667109Y-70324242D01*
X176652000Y-70400199D01*
X176652000Y-70794860D01*
X176651000Y-70796592D01*
X176649000Y-70796592D01*
X176648081Y-70795423D01*
X176628404Y-70728408D01*
X176576061Y-70683053D01*
X176507362Y-70673176D01*
X176489272Y-70678565D01*
X176487327Y-70678101D01*
X176486756Y-70676184D01*
X176487590Y-70674985D01*
X176539979Y-70639979D01*
X176582891Y-70575758D01*
X176598000Y-70499801D01*
X176598000Y-70105140D01*
X176599000Y-70103408D01*
X176601000Y-70103408D01*
X176601919Y-70104577D01*
G37*
M02*
