G04 #@! TF.GenerationSoftware,KiCad,Pcbnew,6.0.0+dfsg1-2*
G04 #@! TF.CreationDate,2022-02-08T13:12:28-05:00*
G04 #@! TF.ProjectId,RUSP_Daughterboard,52555350-5f44-4617-9567-68746572626f,rev?*
G04 #@! TF.SameCoordinates,Original*
G04 #@! TF.FileFunction,Paste,Bot*
G04 #@! TF.FilePolarity,Positive*
%FSLAX46Y46*%
G04 Gerber Fmt 4.6, Leading zero omitted, Abs format (unit mm)*
G04 Created by KiCad (PCBNEW 6.0.0+dfsg1-2) date 2022-02-08 13:12:28*
%MOMM*%
%LPD*%
G01*
G04 APERTURE LIST*
G04 Aperture macros list*
%AMRoundRect*
0 Rectangle with rounded corners*
0 $1 Rounding radius*
0 $2 $3 $4 $5 $6 $7 $8 $9 X,Y pos of 4 corners*
0 Add a 4 corners polygon primitive as box body*
4,1,4,$2,$3,$4,$5,$6,$7,$8,$9,$2,$3,0*
0 Add four circle primitives for the rounded corners*
1,1,$1+$1,$2,$3*
1,1,$1+$1,$4,$5*
1,1,$1+$1,$6,$7*
1,1,$1+$1,$8,$9*
0 Add four rect primitives between the rounded corners*
20,1,$1+$1,$2,$3,$4,$5,0*
20,1,$1+$1,$4,$5,$6,$7,0*
20,1,$1+$1,$6,$7,$8,$9,0*
20,1,$1+$1,$8,$9,$2,$3,0*%
G04 Aperture macros list end*
%ADD10RoundRect,0.200000X0.200000X0.275000X-0.200000X0.275000X-0.200000X-0.275000X0.200000X-0.275000X0*%
%ADD11RoundRect,0.200000X0.275000X-0.200000X0.275000X0.200000X-0.275000X0.200000X-0.275000X-0.200000X0*%
%ADD12RoundRect,0.218750X0.218750X0.256250X-0.218750X0.256250X-0.218750X-0.256250X0.218750X-0.256250X0*%
%ADD13RoundRect,0.225000X-0.225000X-0.250000X0.225000X-0.250000X0.225000X0.250000X-0.225000X0.250000X0*%
%ADD14RoundRect,0.225000X0.225000X0.250000X-0.225000X0.250000X-0.225000X-0.250000X0.225000X-0.250000X0*%
%ADD15R,0.740000X1.675000*%
%ADD16R,3.000000X1.110000*%
%ADD17R,1.200000X0.900000*%
%ADD18R,1.500000X0.600000*%
G04 APERTURE END LIST*
D10*
X173225000Y-112850000D03*
X171575000Y-112850000D03*
D11*
X169150000Y-121675000D03*
X169150000Y-120025000D03*
D12*
X125887500Y-108475000D03*
X124312500Y-108475000D03*
X125802500Y-112725000D03*
X124227500Y-112725000D03*
X125687500Y-94300000D03*
X124112500Y-94300000D03*
D13*
X171925000Y-124550000D03*
X173475000Y-124550000D03*
D14*
X177925000Y-124500000D03*
X176375000Y-124500000D03*
X125865000Y-106850000D03*
X124315000Y-106850000D03*
X125800000Y-114350000D03*
X124250000Y-114350000D03*
X125575000Y-96200000D03*
X124025000Y-96200000D03*
D15*
X160025000Y-137040000D03*
X160025000Y-133360000D03*
X161295000Y-137040000D03*
X161295000Y-133360000D03*
X162565000Y-137040000D03*
X162565000Y-133360000D03*
X163835000Y-137040000D03*
X163835000Y-133360000D03*
X165105000Y-137040000D03*
X165105000Y-133360000D03*
X166375000Y-137040000D03*
X166375000Y-133360000D03*
X160025000Y-129340000D03*
X160025000Y-125660000D03*
X161295000Y-129340000D03*
X161295000Y-125660000D03*
X162565000Y-129340000D03*
X162565000Y-125660000D03*
X163835000Y-129340000D03*
X163835000Y-125660000D03*
X165105000Y-129340000D03*
X165105000Y-125660000D03*
X166375000Y-129340000D03*
X166375000Y-125660000D03*
D16*
X129630000Y-107530000D03*
X129502000Y-102450000D03*
X129502000Y-99910000D03*
X129502000Y-97370000D03*
X129502000Y-94830000D03*
X137630000Y-94830000D03*
X137630000Y-97370000D03*
X137630000Y-99910000D03*
X137630000Y-102450000D03*
X137630000Y-107530000D03*
D17*
X125000000Y-101450000D03*
X125000000Y-98150000D03*
X141700000Y-110450000D03*
X141700000Y-107150000D03*
D18*
X172150000Y-122410000D03*
X172150000Y-121140000D03*
X172150000Y-119870000D03*
X172150000Y-118600000D03*
X172150000Y-117330000D03*
X172150000Y-116060000D03*
X172150000Y-114790000D03*
X177550000Y-114790000D03*
X177550000Y-116060000D03*
X177550000Y-117330000D03*
X177550000Y-118600000D03*
X177550000Y-119870000D03*
X177550000Y-121140000D03*
X177550000Y-122410000D03*
M02*
