G04 #@! TF.GenerationSoftware,KiCad,Pcbnew,6.0.0+dfsg1-2*
G04 #@! TF.CreationDate,2022-02-08T13:12:27-05:00*
G04 #@! TF.ProjectId,RUSP_Daughterboard,52555350-5f44-4617-9567-68746572626f,rev?*
G04 #@! TF.SameCoordinates,Original*
G04 #@! TF.FileFunction,Copper,L4,Bot*
G04 #@! TF.FilePolarity,Positive*
%FSLAX46Y46*%
G04 Gerber Fmt 4.6, Leading zero omitted, Abs format (unit mm)*
G04 Created by KiCad (PCBNEW 6.0.0+dfsg1-2) date 2022-02-08 13:12:27*
%MOMM*%
%LPD*%
G01*
G04 APERTURE LIST*
G04 Aperture macros list*
%AMRoundRect*
0 Rectangle with rounded corners*
0 $1 Rounding radius*
0 $2 $3 $4 $5 $6 $7 $8 $9 X,Y pos of 4 corners*
0 Add a 4 corners polygon primitive as box body*
4,1,4,$2,$3,$4,$5,$6,$7,$8,$9,$2,$3,0*
0 Add four circle primitives for the rounded corners*
1,1,$1+$1,$2,$3*
1,1,$1+$1,$4,$5*
1,1,$1+$1,$6,$7*
1,1,$1+$1,$8,$9*
0 Add four rect primitives between the rounded corners*
20,1,$1+$1,$2,$3,$4,$5,0*
20,1,$1+$1,$4,$5,$6,$7,0*
20,1,$1+$1,$6,$7,$8,$9,0*
20,1,$1+$1,$8,$9,$2,$3,0*%
G04 Aperture macros list end*
G04 #@! TA.AperFunction,SMDPad,CuDef*
%ADD10RoundRect,0.200000X0.200000X0.275000X-0.200000X0.275000X-0.200000X-0.275000X0.200000X-0.275000X0*%
G04 #@! TD*
G04 #@! TA.AperFunction,SMDPad,CuDef*
%ADD11RoundRect,0.200000X0.275000X-0.200000X0.275000X0.200000X-0.275000X0.200000X-0.275000X-0.200000X0*%
G04 #@! TD*
G04 #@! TA.AperFunction,SMDPad,CuDef*
%ADD12RoundRect,0.218750X0.218750X0.256250X-0.218750X0.256250X-0.218750X-0.256250X0.218750X-0.256250X0*%
G04 #@! TD*
G04 #@! TA.AperFunction,SMDPad,CuDef*
%ADD13RoundRect,0.225000X-0.225000X-0.250000X0.225000X-0.250000X0.225000X0.250000X-0.225000X0.250000X0*%
G04 #@! TD*
G04 #@! TA.AperFunction,SMDPad,CuDef*
%ADD14RoundRect,0.225000X0.225000X0.250000X-0.225000X0.250000X-0.225000X-0.250000X0.225000X-0.250000X0*%
G04 #@! TD*
G04 #@! TA.AperFunction,ComponentPad*
%ADD15C,3.000000*%
G04 #@! TD*
G04 #@! TA.AperFunction,SMDPad,CuDef*
%ADD16R,0.740000X1.675000*%
G04 #@! TD*
G04 #@! TA.AperFunction,SMDPad,CuDef*
%ADD17C,0.750000*%
G04 #@! TD*
G04 #@! TA.AperFunction,SMDPad,CuDef*
%ADD18R,3.000000X1.110000*%
G04 #@! TD*
G04 #@! TA.AperFunction,SMDPad,CuDef*
%ADD19R,1.200000X0.900000*%
G04 #@! TD*
G04 #@! TA.AperFunction,SMDPad,CuDef*
%ADD20R,1.500000X0.600000*%
G04 #@! TD*
G04 #@! TA.AperFunction,ViaPad*
%ADD21C,0.800000*%
G04 #@! TD*
G04 #@! TA.AperFunction,Conductor*
%ADD22C,0.250000*%
G04 #@! TD*
G04 #@! TA.AperFunction,Conductor*
%ADD23C,0.750000*%
G04 #@! TD*
G04 #@! TA.AperFunction,Conductor*
%ADD24C,0.500000*%
G04 #@! TD*
G04 #@! TA.AperFunction,Conductor*
%ADD25C,1.000000*%
G04 #@! TD*
G04 APERTURE END LIST*
D10*
X173225000Y-112850000D03*
X171575000Y-112850000D03*
D11*
X169150000Y-121675000D03*
X169150000Y-120025000D03*
D12*
X125887500Y-108475000D03*
X124312500Y-108475000D03*
X125802500Y-112725000D03*
X124227500Y-112725000D03*
X125687500Y-94300000D03*
X124112500Y-94300000D03*
D13*
X171925000Y-124550000D03*
X173475000Y-124550000D03*
D14*
X177925000Y-124500000D03*
X176375000Y-124500000D03*
X125865000Y-106850000D03*
X124315000Y-106850000D03*
X125800000Y-114350000D03*
X124250000Y-114350000D03*
X125575000Y-96200000D03*
X124025000Y-96200000D03*
D15*
X154000000Y-128000000D03*
D16*
X160025000Y-137040000D03*
X160025000Y-133360000D03*
X161295000Y-137040000D03*
X161295000Y-133360000D03*
X162565000Y-137040000D03*
X162565000Y-133360000D03*
X163835000Y-137040000D03*
X163835000Y-133360000D03*
X165105000Y-137040000D03*
X165105000Y-133360000D03*
X166375000Y-137040000D03*
X166375000Y-133360000D03*
D17*
X171500000Y-70500000D03*
X126500000Y-86500000D03*
D16*
X160025000Y-129340000D03*
X160025000Y-125660000D03*
X161295000Y-129340000D03*
X161295000Y-125660000D03*
X162565000Y-129340000D03*
X162565000Y-125660000D03*
X163835000Y-129340000D03*
X163835000Y-125660000D03*
X165105000Y-129340000D03*
X165105000Y-125660000D03*
X166375000Y-129340000D03*
X166375000Y-125660000D03*
D18*
X129630000Y-107530000D03*
X129502000Y-102450000D03*
X129502000Y-99910000D03*
X129502000Y-97370000D03*
X129502000Y-94830000D03*
X137630000Y-94830000D03*
X137630000Y-97370000D03*
X137630000Y-99910000D03*
X137630000Y-102450000D03*
X137630000Y-107530000D03*
D19*
X125000000Y-101450000D03*
X125000000Y-98150000D03*
X141700000Y-110450000D03*
X141700000Y-107150000D03*
D17*
X171500000Y-137000000D03*
D20*
X172150000Y-122410000D03*
X172150000Y-121140000D03*
X172150000Y-119870000D03*
X172150000Y-118600000D03*
X172150000Y-117330000D03*
X172150000Y-116060000D03*
X172150000Y-114790000D03*
X177550000Y-114790000D03*
X177550000Y-116060000D03*
X177550000Y-117330000D03*
X177550000Y-118600000D03*
X177550000Y-119870000D03*
X177550000Y-121140000D03*
X177550000Y-122410000D03*
D21*
X159132660Y-135507340D03*
X124723699Y-73134294D03*
X120300000Y-71300000D03*
X135000000Y-88400000D03*
X165600000Y-123300000D03*
X149225010Y-125524888D03*
X157480000Y-130302000D03*
X170800000Y-129700000D03*
X146050000Y-109728000D03*
X146812000Y-110490000D03*
X120396006Y-82200000D03*
X174149991Y-127749991D03*
X162700000Y-131000000D03*
X161400000Y-123800000D03*
X175200000Y-124900000D03*
X161694805Y-127925000D03*
X160200000Y-123600000D03*
X177300000Y-125800000D03*
X139700000Y-84836000D03*
X138000000Y-79700000D03*
X121300000Y-75400000D03*
X169300000Y-132100000D03*
X159200000Y-133800000D03*
X137900000Y-71000000D03*
X129537660Y-85362340D03*
X170650000Y-118550000D03*
X124800000Y-74400000D03*
X124909034Y-72152125D03*
X130481712Y-85032505D03*
X170600000Y-117250000D03*
X135500000Y-77250000D03*
X163600000Y-127200000D03*
X124900000Y-76600000D03*
X170800000Y-119750000D03*
X128300000Y-85000000D03*
X168000000Y-119800000D03*
X163500000Y-123100000D03*
X176100000Y-121200000D03*
X129600000Y-91400000D03*
X164400000Y-134974990D03*
X126437701Y-97037701D03*
X129900000Y-113000000D03*
X163200000Y-131900000D03*
X163900000Y-137025010D03*
X132029325Y-112674990D03*
X144500000Y-119300000D03*
X135010743Y-112824979D03*
X149855726Y-124068501D03*
X162200000Y-134800000D03*
X135400000Y-71000000D03*
X124900000Y-71000000D03*
X165201292Y-131775010D03*
X131400000Y-94800000D03*
X131826000Y-95600000D03*
X165201292Y-131001292D03*
X167400000Y-127000000D03*
X162775000Y-123900000D03*
X175124500Y-122600000D03*
D22*
X124714000Y-108458000D02*
X124968000Y-108712000D01*
X124968000Y-108712000D02*
X124968000Y-111232000D01*
X124968000Y-111232000D02*
X124530000Y-111670000D01*
X124530000Y-111670000D02*
X124530000Y-113025000D01*
X177635000Y-125465000D02*
X177635000Y-122485000D01*
X177300000Y-125800000D02*
X177635000Y-125465000D01*
X177635000Y-122485000D02*
X177620000Y-122500000D01*
X177620000Y-122500000D02*
X177550000Y-122500000D01*
D23*
X167400000Y-127000000D02*
X167300000Y-127100000D01*
X167300000Y-127100000D02*
X167300000Y-128415000D01*
X167300000Y-128415000D02*
X166375000Y-129340000D01*
X166375000Y-133360000D02*
X166999999Y-132735001D01*
X166999999Y-132735001D02*
X166999999Y-128300001D01*
X166999999Y-128300001D02*
X167400000Y-127900000D01*
X167400000Y-127000000D02*
X167500000Y-126900000D01*
X167500000Y-126900000D02*
X167500000Y-123200000D01*
X167500000Y-123200000D02*
X155956483Y-111656483D01*
X145400000Y-111656483D02*
X142943517Y-109200000D01*
X155956483Y-111656483D02*
X145400000Y-111656483D01*
X142943517Y-109200000D02*
X136252000Y-109200000D01*
X136252000Y-109200000D02*
X129502000Y-102450000D01*
D22*
X126437701Y-97037701D02*
X125410000Y-96010000D01*
X125410000Y-96010000D02*
X125410000Y-94300000D01*
X125410000Y-94300000D02*
X126700000Y-94300000D01*
X126700000Y-94300000D02*
X129600000Y-91400000D01*
X124390000Y-94300000D02*
X124074999Y-94615001D01*
X124074999Y-94615001D02*
X124074999Y-100452999D01*
X124074999Y-100452999D02*
X125222000Y-101600000D01*
D23*
X124723699Y-73134294D02*
X124657993Y-73200000D01*
X124657993Y-73200000D02*
X120410000Y-73200000D01*
X120410000Y-73200000D02*
X120300000Y-73310000D01*
X137600000Y-107600000D02*
X138266000Y-106934000D01*
X125350000Y-101100000D02*
X133104000Y-101100000D01*
X135000000Y-88400000D02*
X134366000Y-89034000D01*
X135000000Y-88400000D02*
X135000000Y-90042000D01*
D24*
X171400000Y-129241980D02*
X173300000Y-127341980D01*
D22*
X171915000Y-114515000D02*
X172200000Y-114800000D01*
D24*
X173457984Y-129700000D02*
X171400000Y-129700000D01*
D23*
X158442000Y-129340000D02*
X157480000Y-130302000D01*
D22*
X171915000Y-112850000D02*
X171915000Y-114515000D01*
D24*
X173824990Y-123910010D02*
X173824990Y-115324990D01*
D23*
X160025000Y-129340000D02*
X158442000Y-129340000D01*
D25*
X146050000Y-109728000D02*
X145288000Y-109728000D01*
D23*
X134366000Y-89034000D02*
X134366000Y-93134000D01*
X160025000Y-136399680D02*
X159132660Y-135507340D01*
X138266000Y-106934000D02*
X141478000Y-106934000D01*
D24*
X173185000Y-124550000D02*
X173824990Y-123910010D01*
X176665000Y-124993002D02*
X174999992Y-126658010D01*
D25*
X146050000Y-109728000D02*
X146812000Y-110490000D01*
D22*
X176665000Y-124500000D02*
X176370000Y-124500000D01*
D23*
X137600000Y-106866000D02*
X137600000Y-107600000D01*
X134366000Y-99980002D02*
X133175001Y-101171001D01*
X124206000Y-102244000D02*
X124206000Y-106869214D01*
X120300000Y-73310000D02*
X120300000Y-82103994D01*
D24*
X173300000Y-114800000D02*
X172100000Y-114800000D01*
X174999992Y-126658010D02*
X174999992Y-128157992D01*
D25*
X142748000Y-107188000D02*
X141732000Y-107188000D01*
D24*
X171400000Y-129700000D02*
X171400000Y-129241980D01*
D23*
X125000000Y-101450000D02*
X125350000Y-101100000D01*
X134000000Y-95400000D02*
X134366000Y-95766000D01*
X134000000Y-93500000D02*
X134000000Y-95400000D01*
X160025000Y-137040000D02*
X160025000Y-136399680D01*
D24*
X171400000Y-129700000D02*
X170800000Y-129700000D01*
D23*
X137668000Y-92710000D02*
X137668000Y-94742000D01*
X165105000Y-125660000D02*
X165105000Y-123795000D01*
X120300000Y-82103994D02*
X120396006Y-82200000D01*
D22*
X124540000Y-114350000D02*
X124540000Y-113204000D01*
D24*
X174999992Y-128157992D02*
X173457984Y-129700000D01*
D23*
X134366000Y-95766000D02*
X134366000Y-99980002D01*
X165105000Y-123795000D02*
X165600000Y-123300000D01*
X120300000Y-71300000D02*
X120300000Y-73310000D01*
X133104000Y-101100000D02*
X133175001Y-101171001D01*
D25*
X145288000Y-109728000D02*
X142748000Y-107188000D01*
D22*
X124615000Y-108475000D02*
X124615000Y-107287000D01*
D23*
X133175001Y-102441001D02*
X137600000Y-106866000D01*
X124206000Y-106869214D02*
X124460000Y-107123214D01*
X135000000Y-90042000D02*
X137668000Y-92710000D01*
X133175001Y-101171001D02*
X133175001Y-102441001D01*
D24*
X176665000Y-124500000D02*
X176665000Y-124993002D01*
D23*
X125000000Y-101450000D02*
X124206000Y-102244000D01*
D24*
X173300000Y-127341980D02*
X173300000Y-124600000D01*
D23*
X134366000Y-93134000D02*
X134000000Y-93500000D01*
D24*
X173824990Y-115324990D02*
X173300000Y-114800000D01*
D22*
X174400000Y-119480000D02*
X174400000Y-127499982D01*
X176550000Y-117330000D02*
X174400000Y-119480000D01*
X174400000Y-127499982D02*
X174149991Y-127749991D01*
X177550000Y-117330000D02*
X176550000Y-117330000D01*
X162700000Y-131000000D02*
X162700000Y-129300000D01*
X176000000Y-122749114D02*
X175200000Y-123549114D01*
X175200000Y-123549114D02*
X175200000Y-124900000D01*
X176356998Y-119870000D02*
X175375489Y-120851509D01*
X175375489Y-121675489D02*
X176000000Y-122300000D01*
X177550000Y-119870000D02*
X176356998Y-119870000D01*
X161400000Y-123800000D02*
X161400000Y-125400000D01*
X176000000Y-122300000D02*
X176000000Y-122749114D01*
X175375489Y-120851509D02*
X175375489Y-121675489D01*
D24*
X131572000Y-99822000D02*
X129286000Y-99822000D01*
X133174989Y-88313011D02*
X133174989Y-98219011D01*
X139573000Y-84709000D02*
X139700000Y-84836000D01*
D22*
X160025000Y-123775000D02*
X160200000Y-123600000D01*
X161295000Y-128324805D02*
X161694805Y-127925000D01*
D24*
X136779000Y-84709000D02*
X133174989Y-88313011D01*
D22*
X160025000Y-125660000D02*
X160025000Y-123775000D01*
X161295000Y-129340000D02*
X161295000Y-128324805D01*
D24*
X136779000Y-84709000D02*
X139573000Y-84709000D01*
X133174989Y-98219011D02*
X131572000Y-99822000D01*
D22*
X170260000Y-122410000D02*
X169200000Y-121350000D01*
X172150000Y-122410000D02*
X170260000Y-122410000D01*
X159640000Y-133360000D02*
X159200000Y-133800000D01*
D24*
X170900000Y-124600000D02*
X172200000Y-124600000D01*
D22*
X172215000Y-124550000D02*
X172215000Y-122565000D01*
D24*
X169300000Y-132100000D02*
X169300000Y-126200000D01*
X169300000Y-126200000D02*
X170900000Y-124600000D01*
D22*
X160025000Y-133360000D02*
X159640000Y-133360000D01*
X172150000Y-118600000D02*
X170700000Y-118600000D01*
X170700000Y-118600000D02*
X170650000Y-118550000D01*
X172150000Y-117330000D02*
X170680000Y-117330000D01*
X170680000Y-117330000D02*
X170600000Y-117250000D01*
X163835000Y-129340000D02*
X163835000Y-127435000D01*
X163835000Y-127435000D02*
X163600000Y-127200000D01*
X172150000Y-119870000D02*
X170920000Y-119870000D01*
X170920000Y-119870000D02*
X170800000Y-119750000D01*
X168550000Y-120350000D02*
X168000000Y-119800000D01*
X170500000Y-121150000D02*
X172200000Y-121150000D01*
X169150000Y-120365000D02*
X169715000Y-120365000D01*
X169715000Y-120365000D02*
X170500000Y-121150000D01*
X169150000Y-120350000D02*
X168550000Y-120350000D01*
X163500000Y-125400000D02*
X163500000Y-123100000D01*
X177550000Y-121140000D02*
X176160000Y-121140000D01*
X176160000Y-121140000D02*
X176100000Y-121200000D01*
X163800000Y-125700000D02*
X163500000Y-125400000D01*
X165105000Y-137040000D02*
X165105000Y-135679990D01*
X165105000Y-135679990D02*
X164400000Y-134974990D01*
X163835000Y-133360000D02*
X163835000Y-132272500D01*
X125510000Y-114350000D02*
X125510000Y-113010000D01*
X163835000Y-132272500D02*
X163462500Y-131900000D01*
X125600000Y-114400000D02*
X128500000Y-114400000D01*
X163462500Y-131900000D02*
X163200000Y-131900000D01*
X128500000Y-114400000D02*
X129900000Y-113000000D01*
X131629326Y-112274991D02*
X132029325Y-112674990D01*
X125925000Y-109925000D02*
X128274991Y-112274991D01*
X128274991Y-112274991D02*
X131629326Y-112274991D01*
X125925000Y-106860000D02*
X125915000Y-106850000D01*
X125925000Y-108475000D02*
X125925000Y-109925000D01*
X125925000Y-108475000D02*
X125925000Y-106860000D01*
X162565000Y-134435000D02*
X162200000Y-134800000D01*
X162565000Y-133360000D02*
X162565000Y-134435000D01*
X176600000Y-111600000D02*
X177800000Y-112800000D01*
X172885000Y-112850000D02*
X172885000Y-112815000D01*
X177785000Y-112800000D02*
X177785000Y-114415000D01*
X174770000Y-114700000D02*
X177550000Y-114700000D01*
X170500000Y-112300000D02*
X171200000Y-111600000D01*
X162565000Y-138127500D02*
X162640001Y-138202501D01*
X168400000Y-136807502D02*
X168400000Y-122500000D01*
X177785000Y-114415000D02*
X177400000Y-114800000D01*
X162640001Y-138202501D02*
X167005001Y-138202501D01*
X172885000Y-112815000D02*
X174770000Y-114700000D01*
X167100000Y-121200000D02*
X167100000Y-119200000D01*
X170500000Y-115800000D02*
X170500000Y-112300000D01*
X167005001Y-138202501D02*
X168400000Y-136807502D01*
X171200000Y-111600000D02*
X176600000Y-111600000D01*
X167100000Y-119200000D02*
X170500000Y-115800000D01*
X162565000Y-137040000D02*
X162565000Y-138127500D01*
X168400000Y-122500000D02*
X167100000Y-121200000D01*
D23*
X129502000Y-94830000D02*
X131370000Y-94830000D01*
X165105000Y-131678718D02*
X165201292Y-131775010D01*
D22*
X125000000Y-98150000D02*
X126350000Y-98150000D01*
X126350000Y-98150000D02*
X127200000Y-97300000D01*
X127200000Y-97300000D02*
X127200000Y-95600000D01*
D23*
X131370000Y-94830000D02*
X131400000Y-94800000D01*
X131400000Y-94800000D02*
X131826000Y-95226000D01*
X131826000Y-95226000D02*
X131826000Y-95600000D01*
D22*
X127200000Y-95600000D02*
X128000000Y-94800000D01*
D23*
X165105000Y-129340000D02*
X165105000Y-131678718D01*
D22*
X128000000Y-94800000D02*
X129400000Y-94800000D01*
D23*
X129800000Y-107600000D02*
X133000000Y-110800000D01*
X144000000Y-114914248D02*
X151500000Y-122414248D01*
X161300000Y-132259635D02*
X161300000Y-133200000D01*
X151500000Y-122414248D02*
X151500000Y-129085501D01*
X160320896Y-131280531D02*
X161300000Y-132259635D01*
X144000000Y-112400000D02*
X144000000Y-114914248D01*
X153695030Y-131280531D02*
X160320896Y-131280531D01*
X142400000Y-110800000D02*
X144000000Y-112400000D01*
X133000000Y-110800000D02*
X142400000Y-110800000D01*
X151500000Y-129085501D02*
X153695030Y-131280531D01*
X166375000Y-129340000D02*
X166375000Y-129025000D01*
X167300000Y-126300000D02*
X166500000Y-125500000D01*
X167300000Y-128100000D02*
X167300000Y-126300000D01*
X166375000Y-129025000D02*
X167300000Y-128100000D01*
D22*
X162565000Y-124110000D02*
X162775000Y-123900000D01*
X176550000Y-118600000D02*
X177550000Y-118600000D01*
X174850011Y-120299989D02*
X176550000Y-118600000D01*
X174850011Y-122325511D02*
X174850011Y-120299989D01*
X162565000Y-125660000D02*
X162565000Y-124110000D01*
X175124500Y-122600000D02*
X174850011Y-122325511D01*
M02*
