G04 #@! TF.GenerationSoftware,KiCad,Pcbnew,6.0.0+dfsg1-2*
G04 #@! TF.CreationDate,2022-02-08T13:12:27-05:00*
G04 #@! TF.ProjectId,RUSP_Daughterboard,52555350-5f44-4617-9567-68746572626f,rev?*
G04 #@! TF.SameCoordinates,Original*
G04 #@! TF.FileFunction,Copper,L1,Top*
G04 #@! TF.FilePolarity,Positive*
%FSLAX46Y46*%
G04 Gerber Fmt 4.6, Leading zero omitted, Abs format (unit mm)*
G04 Created by KiCad (PCBNEW 6.0.0+dfsg1-2) date 2022-02-08 13:12:27*
%MOMM*%
%LPD*%
G01*
G04 APERTURE LIST*
G04 Aperture macros list*
%AMRoundRect*
0 Rectangle with rounded corners*
0 $1 Rounding radius*
0 $2 $3 $4 $5 $6 $7 $8 $9 X,Y pos of 4 corners*
0 Add a 4 corners polygon primitive as box body*
4,1,4,$2,$3,$4,$5,$6,$7,$8,$9,$2,$3,0*
0 Add four circle primitives for the rounded corners*
1,1,$1+$1,$2,$3*
1,1,$1+$1,$4,$5*
1,1,$1+$1,$6,$7*
1,1,$1+$1,$8,$9*
0 Add four rect primitives between the rounded corners*
20,1,$1+$1,$2,$3,$4,$5,0*
20,1,$1+$1,$4,$5,$6,$7,0*
20,1,$1+$1,$6,$7,$8,$9,0*
20,1,$1+$1,$8,$9,$2,$3,0*%
G04 Aperture macros list end*
G04 #@! TA.AperFunction,SMDPad,CuDef*
%ADD10RoundRect,0.200000X0.200000X0.275000X-0.200000X0.275000X-0.200000X-0.275000X0.200000X-0.275000X0*%
G04 #@! TD*
G04 #@! TA.AperFunction,SMDPad,CuDef*
%ADD11RoundRect,0.218750X-0.026517X0.335876X-0.335876X0.026517X0.026517X-0.335876X0.335876X-0.026517X0*%
G04 #@! TD*
G04 #@! TA.AperFunction,SMDPad,CuDef*
%ADD12RoundRect,0.225000X-0.017678X0.335876X-0.335876X0.017678X0.017678X-0.335876X0.335876X-0.017678X0*%
G04 #@! TD*
G04 #@! TA.AperFunction,SMDPad,CuDef*
%ADD13C,0.750000*%
G04 #@! TD*
G04 #@! TA.AperFunction,SMDPad,CuDef*
%ADD14R,2.000000X0.800000*%
G04 #@! TD*
G04 #@! TA.AperFunction,SMDPad,CuDef*
%ADD15R,1.400000X1.800000*%
G04 #@! TD*
G04 #@! TA.AperFunction,SMDPad,CuDef*
%ADD16R,1.900000X1.400000*%
G04 #@! TD*
G04 #@! TA.AperFunction,ComponentPad*
%ADD17C,3.000000*%
G04 #@! TD*
G04 #@! TA.AperFunction,SMDPad,CuDef*
%ADD18RoundRect,0.140000X0.170000X-0.140000X0.170000X0.140000X-0.170000X0.140000X-0.170000X-0.140000X0*%
G04 #@! TD*
G04 #@! TA.AperFunction,SMDPad,CuDef*
%ADD19RoundRect,0.218750X0.218750X0.256250X-0.218750X0.256250X-0.218750X-0.256250X0.218750X-0.256250X0*%
G04 #@! TD*
G04 #@! TA.AperFunction,SMDPad,CuDef*
%ADD20RoundRect,0.218750X0.256250X-0.218750X0.256250X0.218750X-0.256250X0.218750X-0.256250X-0.218750X0*%
G04 #@! TD*
G04 #@! TA.AperFunction,SMDPad,CuDef*
%ADD21R,1.000000X1.000000*%
G04 #@! TD*
G04 #@! TA.AperFunction,SMDPad,CuDef*
%ADD22R,1.050000X2.200000*%
G04 #@! TD*
G04 #@! TA.AperFunction,SMDPad,CuDef*
%ADD23R,1.700000X3.200000*%
G04 #@! TD*
G04 #@! TA.AperFunction,ViaPad*
%ADD24C,0.800000*%
G04 #@! TD*
G04 #@! TA.AperFunction,Conductor*
%ADD25C,0.250000*%
G04 #@! TD*
G04 #@! TA.AperFunction,Conductor*
%ADD26C,0.500000*%
G04 #@! TD*
G04 #@! TA.AperFunction,Conductor*
%ADD27C,0.750000*%
G04 #@! TD*
G04 APERTURE END LIST*
D10*
X137525000Y-79700000D03*
X135875000Y-79700000D03*
X137440000Y-71000000D03*
X135790000Y-71000000D03*
D11*
X147246847Y-120653153D03*
X146133153Y-121766847D03*
D12*
X146028008Y-119451992D03*
X144931992Y-120548008D03*
X148428008Y-121881992D03*
X147331992Y-122978008D03*
D13*
X171500000Y-70500000D03*
X126500000Y-86500000D03*
D14*
X123375000Y-78690000D03*
X123775000Y-77590000D03*
X123375000Y-76490000D03*
X123175000Y-75390000D03*
X123375000Y-74290000D03*
X123175000Y-73190000D03*
X123375000Y-72090000D03*
X123375000Y-70990000D03*
D15*
X133925000Y-71800000D03*
X133925000Y-77500000D03*
D16*
X120775000Y-70200000D03*
X119775000Y-83350000D03*
D17*
X154000000Y-128000000D03*
D13*
X171500000Y-137000000D03*
D15*
X128480000Y-89613500D03*
X131020000Y-89613500D03*
X133560000Y-89613500D03*
X128480000Y-114886500D03*
X131083500Y-114886500D03*
X133560000Y-114886500D03*
D18*
X177530000Y-75530000D03*
X177530000Y-74570000D03*
D19*
X176047500Y-76100000D03*
X174472500Y-76100000D03*
D18*
X177520000Y-77555000D03*
X177520000Y-76595000D03*
D20*
X177580000Y-80447500D03*
X177580000Y-78872500D03*
D19*
X176037500Y-77800000D03*
X174462500Y-77800000D03*
D21*
X175900000Y-73000000D03*
X175900000Y-70000000D03*
D22*
X177375000Y-71500000D03*
X174425000Y-71500000D03*
D23*
X171950000Y-88200000D03*
X163450000Y-88200000D03*
D24*
X159132660Y-135507340D03*
X124723699Y-73134294D03*
X120300000Y-71300000D03*
X135000000Y-88400000D03*
X165600000Y-123300000D03*
X149225010Y-125524888D03*
X157480000Y-130302000D03*
X170800000Y-129700000D03*
X146050000Y-109728000D03*
X146812000Y-110490000D03*
X120396006Y-82200000D03*
X174149991Y-127749991D03*
X162700000Y-131000000D03*
X161400000Y-123800000D03*
X175200000Y-124900000D03*
X161694805Y-127925000D03*
X160200000Y-123600000D03*
X177300000Y-125800000D03*
X139700000Y-84836000D03*
X138000000Y-79700000D03*
X121300000Y-75400000D03*
X169300000Y-132100000D03*
X159200000Y-133800000D03*
X137900000Y-71000000D03*
X129537660Y-85362340D03*
X170650000Y-118550000D03*
X124800000Y-74400000D03*
X124909034Y-72152125D03*
X130481712Y-85032505D03*
X170600000Y-117250000D03*
X135500000Y-77250000D03*
X163600000Y-127200000D03*
X124900000Y-76600000D03*
X170800000Y-119750000D03*
X128300000Y-85000000D03*
X168000000Y-119800000D03*
X163500000Y-123100000D03*
X176100000Y-121200000D03*
X129600000Y-91400000D03*
X164400000Y-134974990D03*
X126437701Y-97037701D03*
X129900000Y-113000000D03*
X163200000Y-131900000D03*
X163900000Y-137025010D03*
X132029325Y-112674990D03*
X144500000Y-119300000D03*
X135010743Y-112824979D03*
X149855726Y-124068501D03*
X162200000Y-134800000D03*
X135400000Y-71000000D03*
X124900000Y-71000000D03*
X165201292Y-131775010D03*
X131400000Y-94800000D03*
X131826000Y-95600000D03*
X165201292Y-131001292D03*
X167400000Y-127000000D03*
X162775000Y-123900000D03*
X175124500Y-122600000D03*
D25*
X149855726Y-124068501D02*
X149855726Y-123684478D01*
X149855726Y-123684478D02*
X148040624Y-121869376D01*
X148040624Y-121869376D02*
X148040624Y-121839376D01*
X148040624Y-121839376D02*
X145861837Y-119660589D01*
X145861837Y-119660589D02*
X145819411Y-119660589D01*
X145535894Y-119377072D02*
X145535894Y-119300000D01*
X145535894Y-119300000D02*
X144500000Y-119300000D01*
X145819411Y-119660589D02*
X145535894Y-119377072D01*
X177100000Y-126000000D02*
X163619805Y-126000000D01*
X177300000Y-125800000D02*
X177100000Y-126000000D01*
X163619805Y-126000000D02*
X161694805Y-127925000D01*
X146229376Y-121470624D02*
X146229376Y-121428198D01*
X146229376Y-121428198D02*
X145140589Y-120339411D01*
X147319376Y-122590624D02*
X147319376Y-122560624D01*
X147319376Y-122560624D02*
X146229376Y-121470624D01*
X149225010Y-124425010D02*
X149153762Y-124425010D01*
X149153762Y-124425010D02*
X147319376Y-122590624D01*
X124900000Y-71000000D02*
X124890000Y-70990000D01*
X124890000Y-70990000D02*
X122875000Y-70990000D01*
X124909034Y-72152125D02*
X123002125Y-72152125D01*
X123002125Y-72152125D02*
X122950000Y-72100000D01*
X124723699Y-73134294D02*
X124667993Y-73190000D01*
X124667993Y-73190000D02*
X122675000Y-73190000D01*
X124800000Y-74400000D02*
X122800000Y-74400000D01*
X122800000Y-74400000D02*
X122700000Y-74300000D01*
X124900000Y-76600000D02*
X124850000Y-76550000D01*
X124850000Y-76550000D02*
X122900000Y-76550000D01*
X133560000Y-89613500D02*
X133786500Y-89613500D01*
X120275000Y-70200000D02*
X120275000Y-71275000D01*
X120275000Y-71275000D02*
X120300000Y-71300000D01*
X149225010Y-124425010D02*
X149225010Y-125524888D01*
X119275000Y-83350000D02*
X120396006Y-82228994D01*
X133786500Y-89613500D02*
X135000000Y-88400000D01*
X120396006Y-82228994D02*
X120396006Y-82200000D01*
X165044989Y-128655011D02*
X162700000Y-131000000D01*
X173244971Y-128655011D02*
X165044989Y-128655011D01*
X174149991Y-127749991D02*
X173244971Y-128655011D01*
X162600000Y-125000000D02*
X161400000Y-123800000D01*
X175200000Y-124900000D02*
X175100000Y-125000000D01*
X175100000Y-125000000D02*
X162600000Y-125000000D01*
X137185000Y-79700000D02*
X138000000Y-79700000D01*
X137100000Y-71000000D02*
X137900000Y-71000000D01*
X122675000Y-75390000D02*
X121310000Y-75390000D01*
X121310000Y-75390000D02*
X121300000Y-75400000D01*
X139300000Y-105536410D02*
X139300000Y-89200000D01*
X129937659Y-85762339D02*
X129537660Y-85362340D01*
X139300000Y-89200000D02*
X135862339Y-85762339D01*
X135862339Y-85762339D02*
X129937659Y-85762339D01*
X170650000Y-118550000D02*
X152313590Y-118550000D01*
X152313590Y-118550000D02*
X139300000Y-105536410D01*
X135932505Y-85032505D02*
X130481712Y-85032505D01*
X170600000Y-117250000D02*
X169895216Y-117954784D01*
X139750000Y-105350000D02*
X139750000Y-88850000D01*
X139750000Y-88850000D02*
X135932505Y-85032505D01*
X169895216Y-117954784D02*
X152354784Y-117954784D01*
X152354784Y-117954784D02*
X139750000Y-105350000D01*
X135250000Y-77500000D02*
X135500000Y-77250000D01*
X133425000Y-77500000D02*
X135250000Y-77500000D01*
X138849991Y-105722811D02*
X138849991Y-89399990D01*
X129509316Y-86775001D02*
X128300000Y-85565685D01*
X170124998Y-119074998D02*
X152202178Y-119074998D01*
X170800000Y-119750000D02*
X170124998Y-119074998D01*
X136225001Y-86775001D02*
X129509316Y-86775001D01*
X128300000Y-85565685D02*
X128300000Y-85000000D01*
X152202178Y-119074998D02*
X138849991Y-105722811D01*
X138849991Y-89399990D02*
X136225001Y-86775001D01*
X138399980Y-89586390D02*
X138399980Y-108790978D01*
X138399980Y-108790978D02*
X149409002Y-119800000D01*
X136063590Y-87250000D02*
X138399980Y-89586390D01*
X129050000Y-87250000D02*
X136063590Y-87250000D01*
X123275000Y-77590000D02*
X121989998Y-77590000D01*
X121549999Y-79749999D02*
X129050000Y-87250000D01*
X121549999Y-78029999D02*
X121549999Y-79749999D01*
X149409002Y-119800000D02*
X168000000Y-119800000D01*
X121989998Y-77590000D02*
X121549999Y-78029999D01*
X176100000Y-121200000D02*
X165400000Y-121200000D01*
X165400000Y-121200000D02*
X163500000Y-123100000D01*
X129600000Y-90733500D02*
X129600000Y-91400000D01*
X128480000Y-89613500D02*
X129600000Y-90733500D01*
X128480000Y-114420000D02*
X129900000Y-113000000D01*
X128480000Y-114886500D02*
X128480000Y-114420000D01*
X131083500Y-113620815D02*
X132029325Y-112674990D01*
X131083500Y-114886500D02*
X131083500Y-113620815D01*
D26*
X133560000Y-92160000D02*
X131200000Y-89800000D01*
X133560000Y-114886500D02*
X133560000Y-92160000D01*
D25*
X135010743Y-113435757D02*
X135010743Y-112824979D01*
X133560000Y-114886500D02*
X135010743Y-113435757D01*
X122875000Y-79225000D02*
X123300000Y-79650000D01*
X123300000Y-79650000D02*
X136150000Y-79650000D01*
X122875000Y-78690000D02*
X122875000Y-79225000D01*
X136130000Y-71000000D02*
X135400000Y-71000000D01*
X173424501Y-124299999D02*
X163174999Y-124299999D01*
X163174999Y-124299999D02*
X162775000Y-123900000D01*
X175124500Y-122600000D02*
X173424501Y-124299999D01*
D27*
X175965000Y-74565000D02*
X175900000Y-74500000D01*
X177200000Y-74565000D02*
X175965000Y-74565000D01*
X175900000Y-74500000D02*
X175900000Y-72900000D01*
G04 #@! TA.AperFunction,Conductor*
G36*
X178159191Y-75418907D02*
G01*
X178195155Y-75468407D01*
X178200000Y-75499000D01*
X178200000Y-75994123D01*
X178199955Y-76045449D01*
X178204781Y-76055498D01*
X178204781Y-76055500D01*
X178205185Y-76056341D01*
X178212463Y-76077183D01*
X178212670Y-76078093D01*
X178212672Y-76078096D01*
X178215150Y-76088962D01*
X178222097Y-76097680D01*
X178222520Y-76098211D01*
X178234334Y-76117046D01*
X178234625Y-76117653D01*
X178234628Y-76117657D01*
X178239453Y-76127705D01*
X178248893Y-76135254D01*
X178264484Y-76150872D01*
X178272015Y-76160323D01*
X178282058Y-76165167D01*
X178282663Y-76165459D01*
X178301478Y-76177308D01*
X178302005Y-76177730D01*
X178302010Y-76177732D01*
X178310715Y-76184694D01*
X178322405Y-76187382D01*
X178322492Y-76187402D01*
X178343318Y-76194715D01*
X178354202Y-76199965D01*
X178365347Y-76199975D01*
X178365348Y-76199975D01*
X178377213Y-76199985D01*
X178377211Y-76201730D01*
X178377277Y-76201724D01*
X178377277Y-76200000D01*
X178394123Y-76200000D01*
X178445160Y-76200045D01*
X178445449Y-76200045D01*
X178445537Y-76200003D01*
X178445561Y-76200000D01*
X178701000Y-76200000D01*
X178759191Y-76218907D01*
X178795155Y-76268407D01*
X178800000Y-76299000D01*
X178800000Y-76801000D01*
X178781093Y-76859191D01*
X178731593Y-76895155D01*
X178701000Y-76900000D01*
X175752963Y-76900000D01*
X175694772Y-76881093D01*
X175658808Y-76831593D01*
X175653963Y-76801000D01*
X175653963Y-75499000D01*
X175672870Y-75440809D01*
X175722370Y-75404845D01*
X175752963Y-75400000D01*
X178101000Y-75400000D01*
X178159191Y-75418907D01*
G37*
G04 #@! TD.AperFunction*
G04 #@! TA.AperFunction,Conductor*
G36*
X178759191Y-77318907D02*
G01*
X178795155Y-77368407D01*
X178800000Y-77399000D01*
X178800000Y-79141000D01*
X178781093Y-79199191D01*
X178731593Y-79235155D01*
X178701000Y-79240000D01*
X175705719Y-79240000D01*
X175647528Y-79221093D01*
X175611564Y-79171593D01*
X175606720Y-79141361D01*
X175600363Y-77399361D01*
X175619057Y-77341102D01*
X175668426Y-77304958D01*
X175699362Y-77300000D01*
X178701000Y-77300000D01*
X178759191Y-77318907D01*
G37*
G04 #@! TD.AperFunction*
G04 #@! TA.AperFunction,Conductor*
G36*
X178542121Y-79960002D02*
G01*
X178588614Y-80013658D01*
X178600000Y-80066000D01*
X178600000Y-89647214D01*
X178579998Y-89715335D01*
X178526342Y-89761828D01*
X178474000Y-89773214D01*
X171426000Y-89773214D01*
X171357879Y-89753212D01*
X171311386Y-89699556D01*
X171300000Y-89647214D01*
X171300000Y-87599214D01*
X171320002Y-87531093D01*
X171373658Y-87484600D01*
X171426000Y-87473214D01*
X175900000Y-87473214D01*
X175880335Y-80066334D01*
X175900157Y-79998161D01*
X175953689Y-79951526D01*
X176006335Y-79940000D01*
X178474000Y-79940000D01*
X178542121Y-79960002D01*
G37*
G04 #@! TD.AperFunction*
G04 #@! TA.AperFunction,Conductor*
G36*
X177942121Y-69420002D02*
G01*
X177988614Y-69473658D01*
X178000000Y-69526000D01*
X178000000Y-73674000D01*
X177979998Y-73742121D01*
X177926342Y-73788614D01*
X177874000Y-73800000D01*
X177340176Y-73800000D01*
X177324384Y-73799006D01*
X177249137Y-73789500D01*
X176904089Y-73789500D01*
X176835968Y-73769498D01*
X176789475Y-73715842D01*
X176779371Y-73645568D01*
X176782772Y-73630944D01*
X176785646Y-73625304D01*
X176800500Y-73531519D01*
X176800499Y-72468482D01*
X176785646Y-72374696D01*
X176728050Y-72261658D01*
X176638342Y-72171950D01*
X176525304Y-72114354D01*
X176515515Y-72112804D01*
X176515513Y-72112803D01*
X176488151Y-72108470D01*
X176431519Y-72099500D01*
X175900108Y-72099500D01*
X175368482Y-72099501D01*
X175363589Y-72100276D01*
X175363588Y-72100276D01*
X175284494Y-72112802D01*
X175284492Y-72112803D01*
X175274696Y-72114354D01*
X175161658Y-72171950D01*
X175071950Y-72261658D01*
X175014354Y-72374696D01*
X174999500Y-72468481D01*
X174999501Y-73531518D01*
X175014354Y-73625304D01*
X175018855Y-73634137D01*
X175019215Y-73635246D01*
X175021242Y-73706213D01*
X174984579Y-73767011D01*
X174934881Y-73795077D01*
X174918116Y-73800000D01*
X174900000Y-73800000D01*
X174900000Y-78774000D01*
X174879998Y-78842121D01*
X174826342Y-78888614D01*
X174774000Y-78900000D01*
X138059615Y-78900000D01*
X138044698Y-78899114D01*
X138033702Y-78897803D01*
X138000401Y-78889098D01*
X137889391Y-78843116D01*
X137881762Y-78839956D01*
X137778353Y-78826342D01*
X137768448Y-78825038D01*
X137768447Y-78825038D01*
X137764361Y-78824500D01*
X137525030Y-78824500D01*
X137285640Y-78824501D01*
X137281556Y-78825039D01*
X137281550Y-78825039D01*
X137176425Y-78838878D01*
X137176423Y-78838878D01*
X137168238Y-78839956D01*
X137049599Y-78889098D01*
X137046434Y-78890409D01*
X136998216Y-78900000D01*
X136401784Y-78900000D01*
X136353566Y-78890409D01*
X136239391Y-78843116D01*
X136231762Y-78839956D01*
X136128353Y-78826342D01*
X136118448Y-78825038D01*
X136118447Y-78825038D01*
X136114361Y-78824500D01*
X135875030Y-78824500D01*
X135635640Y-78824501D01*
X135631556Y-78825039D01*
X135631550Y-78825039D01*
X135526425Y-78838878D01*
X135526423Y-78838878D01*
X135518238Y-78839956D01*
X135399599Y-78889098D01*
X135396434Y-78890409D01*
X135348216Y-78900000D01*
X134995582Y-78900000D01*
X134927461Y-78879998D01*
X134880968Y-78826342D01*
X134870864Y-78756068D01*
X134900358Y-78691488D01*
X134906487Y-78684905D01*
X134953050Y-78638342D01*
X135010646Y-78525304D01*
X135025500Y-78431519D01*
X135025500Y-78151500D01*
X135045502Y-78083379D01*
X135099158Y-78036886D01*
X135151500Y-78025500D01*
X135235564Y-78025500D01*
X135240796Y-78025609D01*
X135280179Y-78027260D01*
X135301679Y-78030358D01*
X135305116Y-78031636D01*
X135387769Y-78042664D01*
X135476149Y-78054457D01*
X135476153Y-78054457D01*
X135483130Y-78055388D01*
X135490142Y-78054750D01*
X135490146Y-78054750D01*
X135654960Y-78039751D01*
X135654961Y-78039751D01*
X135661981Y-78039112D01*
X135832782Y-77983615D01*
X135871721Y-77960403D01*
X135980992Y-77895265D01*
X135980994Y-77895264D01*
X135987044Y-77891657D01*
X136117099Y-77767807D01*
X136137571Y-77736995D01*
X136171408Y-77686065D01*
X136216483Y-77618222D01*
X136268528Y-77481213D01*
X136277757Y-77456919D01*
X136277758Y-77456914D01*
X136280257Y-77450336D01*
X136281237Y-77443364D01*
X136304700Y-77276416D01*
X136304700Y-77276411D01*
X136305251Y-77272493D01*
X136305565Y-77250000D01*
X136285546Y-77071528D01*
X136280260Y-77056347D01*
X136228803Y-76908584D01*
X136226485Y-76901927D01*
X136131316Y-76749625D01*
X136036522Y-76654167D01*
X136009733Y-76627190D01*
X136009729Y-76627187D01*
X136004770Y-76622193D01*
X135976322Y-76604139D01*
X135920135Y-76568482D01*
X135853136Y-76525963D01*
X135776132Y-76498543D01*
X135690586Y-76468081D01*
X135690581Y-76468080D01*
X135683951Y-76465719D01*
X135676965Y-76464886D01*
X135676961Y-76464885D01*
X135549177Y-76449648D01*
X135505624Y-76444455D01*
X135498621Y-76445191D01*
X135498620Y-76445191D01*
X135334025Y-76462490D01*
X135334021Y-76462491D01*
X135327017Y-76463227D01*
X135157007Y-76521103D01*
X135156080Y-76518380D01*
X135098706Y-76527298D01*
X135033793Y-76498543D01*
X135002949Y-76459589D01*
X134953050Y-76361658D01*
X134863342Y-76271950D01*
X134750304Y-76214354D01*
X134740515Y-76212804D01*
X134740513Y-76212803D01*
X134713151Y-76208470D01*
X134656519Y-76199500D01*
X133925148Y-76199500D01*
X133193482Y-76199501D01*
X133188589Y-76200276D01*
X133188588Y-76200276D01*
X133109494Y-76212802D01*
X133109492Y-76212803D01*
X133099696Y-76214354D01*
X132986658Y-76271950D01*
X132896950Y-76361658D01*
X132839354Y-76474696D01*
X132824500Y-76568481D01*
X132824501Y-78431518D01*
X132839354Y-78525304D01*
X132896950Y-78638342D01*
X132943513Y-78684905D01*
X132977539Y-78747217D01*
X132972474Y-78818032D01*
X132929927Y-78874868D01*
X132863407Y-78899679D01*
X132854418Y-78900000D01*
X124901500Y-78900000D01*
X124833379Y-78879998D01*
X124786886Y-78826342D01*
X124775500Y-78774000D01*
X124775499Y-78503027D01*
X124795501Y-78434907D01*
X124849156Y-78388414D01*
X124881789Y-78378578D01*
X124883196Y-78378355D01*
X124890507Y-78377198D01*
X124890510Y-78377197D01*
X124900304Y-78375646D01*
X125013342Y-78318050D01*
X125103050Y-78228342D01*
X125160646Y-78115304D01*
X125175500Y-78021519D01*
X125175499Y-77439340D01*
X125195501Y-77371219D01*
X125236981Y-77331112D01*
X125335316Y-77272493D01*
X125380992Y-77245265D01*
X125380994Y-77245264D01*
X125387044Y-77241657D01*
X125517099Y-77117807D01*
X125532392Y-77094790D01*
X125612582Y-76974093D01*
X125616483Y-76968222D01*
X125634224Y-76921518D01*
X125677757Y-76806919D01*
X125677758Y-76806914D01*
X125680257Y-76800336D01*
X125681237Y-76793364D01*
X125704700Y-76626416D01*
X125704700Y-76626411D01*
X125705251Y-76622493D01*
X125705403Y-76611576D01*
X125705510Y-76603963D01*
X125705510Y-76603958D01*
X125705565Y-76600000D01*
X125685546Y-76421528D01*
X125679786Y-76404986D01*
X125633458Y-76271950D01*
X125626485Y-76251927D01*
X125597006Y-76204750D01*
X125535049Y-76105599D01*
X125531316Y-76099625D01*
X125432384Y-76000000D01*
X125409733Y-75977190D01*
X125409729Y-75977187D01*
X125404770Y-75972193D01*
X125253136Y-75875963D01*
X125223352Y-75865357D01*
X125090586Y-75818081D01*
X125090581Y-75818080D01*
X125083951Y-75815719D01*
X125076965Y-75814886D01*
X125076961Y-75814885D01*
X124949177Y-75799648D01*
X124905624Y-75794455D01*
X124730321Y-75812880D01*
X124660484Y-75800108D01*
X124628057Y-75776665D01*
X124613342Y-75761950D01*
X124616005Y-75759287D01*
X124584078Y-75717869D01*
X124575500Y-75672174D01*
X124575500Y-75560476D01*
X124575499Y-75321612D01*
X124595501Y-75253493D01*
X124649156Y-75207000D01*
X124718162Y-75196720D01*
X124756404Y-75201822D01*
X124783130Y-75205388D01*
X124790142Y-75204750D01*
X124790146Y-75204750D01*
X124954960Y-75189751D01*
X124954961Y-75189751D01*
X124961981Y-75189112D01*
X125132782Y-75133615D01*
X125138833Y-75130008D01*
X125280992Y-75045265D01*
X125280994Y-75045264D01*
X125287044Y-75041657D01*
X125417099Y-74917807D01*
X125431066Y-74896786D01*
X125470652Y-74837203D01*
X125516483Y-74768222D01*
X125551973Y-74674794D01*
X125577757Y-74606919D01*
X125577758Y-74606914D01*
X125580257Y-74600336D01*
X125605251Y-74422493D01*
X125605565Y-74400000D01*
X125585546Y-74221528D01*
X125526485Y-74051927D01*
X125431316Y-73899625D01*
X125350195Y-73817936D01*
X125316388Y-73755506D01*
X125321700Y-73684708D01*
X125340743Y-73652153D01*
X125340798Y-73652101D01*
X125344693Y-73646239D01*
X125344696Y-73646235D01*
X125405868Y-73554162D01*
X125440182Y-73502516D01*
X125454867Y-73463858D01*
X125501456Y-73341213D01*
X125501457Y-73341208D01*
X125503956Y-73334630D01*
X125528950Y-73156787D01*
X125529264Y-73134294D01*
X125509245Y-72955822D01*
X125465391Y-72829890D01*
X125461877Y-72758980D01*
X125497490Y-72697208D01*
X125526133Y-72669932D01*
X125625517Y-72520347D01*
X125640202Y-72481689D01*
X125686791Y-72359044D01*
X125686792Y-72359039D01*
X125689291Y-72352461D01*
X125700811Y-72270491D01*
X125713734Y-72178541D01*
X125713734Y-72178536D01*
X125714285Y-72174618D01*
X125714599Y-72152125D01*
X125694580Y-71973653D01*
X125635519Y-71804052D01*
X125630848Y-71796576D01*
X125544083Y-71657724D01*
X125540350Y-71651750D01*
X125535642Y-71647009D01*
X125509059Y-71581331D01*
X125522230Y-71511567D01*
X125529494Y-71499151D01*
X125574267Y-71431762D01*
X125616483Y-71368222D01*
X125646557Y-71289053D01*
X125677757Y-71206919D01*
X125677758Y-71206914D01*
X125680257Y-71200336D01*
X125693630Y-71105182D01*
X125704700Y-71026416D01*
X125704700Y-71026411D01*
X125705251Y-71022493D01*
X125705565Y-71000000D01*
X125690813Y-70868481D01*
X132824500Y-70868481D01*
X132824501Y-72731518D01*
X132825276Y-72736409D01*
X132825276Y-72736412D01*
X132829556Y-72763434D01*
X132839354Y-72825304D01*
X132896950Y-72938342D01*
X132986658Y-73028050D01*
X133099696Y-73085646D01*
X133109485Y-73087196D01*
X133109487Y-73087197D01*
X133136849Y-73091530D01*
X133193481Y-73100500D01*
X133924852Y-73100500D01*
X134656518Y-73100499D01*
X134661412Y-73099724D01*
X134740506Y-73087198D01*
X134740508Y-73087197D01*
X134750304Y-73085646D01*
X134863342Y-73028050D01*
X134953050Y-72938342D01*
X135010646Y-72825304D01*
X135025500Y-72731519D01*
X135025499Y-71896127D01*
X135045501Y-71828007D01*
X135099157Y-71781514D01*
X135169431Y-71771410D01*
X135195416Y-71778029D01*
X135198513Y-71779181D01*
X135198518Y-71779182D01*
X135205116Y-71781636D01*
X135212096Y-71782567D01*
X135212099Y-71782568D01*
X135249568Y-71787567D01*
X135286858Y-71800262D01*
X135287159Y-71799536D01*
X135433238Y-71860044D01*
X135441426Y-71861122D01*
X135546545Y-71874961D01*
X135550639Y-71875500D01*
X135789970Y-71875500D01*
X136029360Y-71875499D01*
X136033444Y-71874961D01*
X136033450Y-71874961D01*
X136138575Y-71861122D01*
X136138577Y-71861122D01*
X136146762Y-71860044D01*
X136292841Y-71799536D01*
X136418282Y-71703282D01*
X136440680Y-71674093D01*
X136514536Y-71577841D01*
X136517201Y-71579886D01*
X136557250Y-71541691D01*
X136626962Y-71528246D01*
X136692876Y-71554625D01*
X136713980Y-71578980D01*
X136715464Y-71577841D01*
X136789321Y-71674093D01*
X136811718Y-71703282D01*
X136937159Y-71799536D01*
X137083238Y-71860044D01*
X137091426Y-71861122D01*
X137196545Y-71874961D01*
X137200639Y-71875500D01*
X137439970Y-71875500D01*
X137679360Y-71875499D01*
X137683444Y-71874961D01*
X137683450Y-71874961D01*
X137788575Y-71861122D01*
X137788577Y-71861122D01*
X137796762Y-71860044D01*
X137874106Y-71828007D01*
X137923840Y-71807407D01*
X137960638Y-71798335D01*
X138054961Y-71789751D01*
X138054962Y-71789751D01*
X138061981Y-71789112D01*
X138232782Y-71733615D01*
X138275240Y-71708305D01*
X138380992Y-71645265D01*
X138380994Y-71645264D01*
X138387044Y-71641657D01*
X138517099Y-71517807D01*
X138616483Y-71368222D01*
X138646557Y-71289053D01*
X138677757Y-71206919D01*
X138677758Y-71206914D01*
X138680257Y-71200336D01*
X138693630Y-71105182D01*
X138704700Y-71026416D01*
X138704700Y-71026411D01*
X138705251Y-71022493D01*
X138705565Y-71000000D01*
X138685546Y-70821528D01*
X138669238Y-70774696D01*
X138636556Y-70680848D01*
X138626485Y-70651927D01*
X138531316Y-70499625D01*
X138521217Y-70489455D01*
X170744825Y-70489455D01*
X170745512Y-70496462D01*
X170745512Y-70496465D01*
X170753601Y-70578961D01*
X170761255Y-70657025D01*
X170814402Y-70816791D01*
X170818049Y-70822813D01*
X170818050Y-70822815D01*
X170821510Y-70828527D01*
X170901624Y-70960812D01*
X170906513Y-70965875D01*
X170906514Y-70965876D01*
X170943295Y-71003963D01*
X171018586Y-71081929D01*
X171024483Y-71085788D01*
X171153577Y-71170266D01*
X171153581Y-71170268D01*
X171159475Y-71174125D01*
X171317289Y-71232815D01*
X171324270Y-71233746D01*
X171324272Y-71233747D01*
X171369812Y-71239823D01*
X171484183Y-71255083D01*
X171491194Y-71254445D01*
X171491198Y-71254445D01*
X171644843Y-71240462D01*
X171651864Y-71239823D01*
X171658566Y-71237645D01*
X171658568Y-71237645D01*
X171805298Y-71189970D01*
X171805301Y-71189969D01*
X171811997Y-71187793D01*
X171956623Y-71101578D01*
X171961717Y-71096727D01*
X171961721Y-71096724D01*
X172073454Y-70990322D01*
X172073455Y-70990320D01*
X172078554Y-70985465D01*
X172094934Y-70960812D01*
X172125659Y-70914567D01*
X172171731Y-70845223D01*
X172231521Y-70687823D01*
X172254955Y-70521088D01*
X172255249Y-70500000D01*
X172241474Y-70377190D01*
X172237266Y-70339672D01*
X172237265Y-70339669D01*
X172236481Y-70332676D01*
X172181108Y-70173668D01*
X172091884Y-70030879D01*
X172083723Y-70022661D01*
X171978205Y-69916403D01*
X171978201Y-69916400D01*
X171973242Y-69911406D01*
X171831079Y-69821187D01*
X171672462Y-69764706D01*
X171665474Y-69763873D01*
X171665471Y-69763872D01*
X171572300Y-69752762D01*
X171505273Y-69744769D01*
X171498270Y-69745505D01*
X171498269Y-69745505D01*
X171452712Y-69750293D01*
X171337821Y-69762369D01*
X171331155Y-69764638D01*
X171331152Y-69764639D01*
X171185098Y-69814360D01*
X171185095Y-69814361D01*
X171178431Y-69816630D01*
X171172436Y-69820318D01*
X171172432Y-69820320D01*
X171041021Y-69901165D01*
X171041019Y-69901167D01*
X171035022Y-69904856D01*
X170914724Y-70022661D01*
X170823515Y-70164190D01*
X170821105Y-70170810D01*
X170821104Y-70170813D01*
X170805667Y-70213227D01*
X170765927Y-70322409D01*
X170744825Y-70489455D01*
X138521217Y-70489455D01*
X138452358Y-70420114D01*
X138409733Y-70377190D01*
X138409729Y-70377187D01*
X138404770Y-70372193D01*
X138393761Y-70365206D01*
X138337339Y-70329400D01*
X138253136Y-70275963D01*
X138083951Y-70215719D01*
X137954765Y-70200315D01*
X137921466Y-70191610D01*
X137804391Y-70143116D01*
X137796762Y-70139956D01*
X137788578Y-70138879D01*
X137788576Y-70138878D01*
X137683448Y-70125038D01*
X137683447Y-70125038D01*
X137679361Y-70124500D01*
X137440030Y-70124500D01*
X137200640Y-70124501D01*
X137196556Y-70125039D01*
X137196550Y-70125039D01*
X137091425Y-70138878D01*
X137091423Y-70138878D01*
X137083238Y-70139956D01*
X136937159Y-70200464D01*
X136914200Y-70218081D01*
X136838767Y-70275963D01*
X136811718Y-70296718D01*
X136806695Y-70303264D01*
X136778758Y-70339672D01*
X136715464Y-70422159D01*
X136712799Y-70420114D01*
X136672750Y-70458309D01*
X136603038Y-70471754D01*
X136537124Y-70445375D01*
X136516020Y-70421020D01*
X136514536Y-70422159D01*
X136423305Y-70303264D01*
X136418282Y-70296718D01*
X136391234Y-70275963D01*
X136315800Y-70218081D01*
X136292841Y-70200464D01*
X136146762Y-70139956D01*
X136138574Y-70138878D01*
X136033448Y-70125038D01*
X136033447Y-70125038D01*
X136029361Y-70124500D01*
X135790030Y-70124500D01*
X135550640Y-70124501D01*
X135546556Y-70125039D01*
X135546550Y-70125039D01*
X135441425Y-70138878D01*
X135441423Y-70138878D01*
X135433238Y-70139956D01*
X135287159Y-70200464D01*
X135286489Y-70198847D01*
X135249520Y-70210862D01*
X135242785Y-70211570D01*
X135234017Y-70212491D01*
X135234015Y-70212491D01*
X135227017Y-70213227D01*
X135172527Y-70231777D01*
X135063677Y-70268832D01*
X135063674Y-70268833D01*
X135057007Y-70271103D01*
X135051009Y-70274793D01*
X135051007Y-70274794D01*
X135023535Y-70291695D01*
X134904045Y-70365206D01*
X134899014Y-70370132D01*
X134899011Y-70370135D01*
X134796817Y-70470211D01*
X134734152Y-70503581D01*
X134688951Y-70504636D01*
X134661414Y-70500275D01*
X134661410Y-70500275D01*
X134656519Y-70499500D01*
X133925148Y-70499500D01*
X133193482Y-70499501D01*
X133188589Y-70500276D01*
X133188588Y-70500276D01*
X133109494Y-70512802D01*
X133109492Y-70512803D01*
X133099696Y-70514354D01*
X133090859Y-70518857D01*
X133090858Y-70518857D01*
X133068105Y-70530451D01*
X132986658Y-70571950D01*
X132896950Y-70661658D01*
X132839354Y-70774696D01*
X132837804Y-70784485D01*
X132837803Y-70784487D01*
X132833745Y-70810108D01*
X132824500Y-70868481D01*
X125690813Y-70868481D01*
X125685546Y-70821528D01*
X125669238Y-70774696D01*
X125636556Y-70680848D01*
X125626485Y-70651927D01*
X125531316Y-70499625D01*
X125452358Y-70420114D01*
X125409733Y-70377190D01*
X125409729Y-70377187D01*
X125404770Y-70372193D01*
X125393761Y-70365206D01*
X125337339Y-70329400D01*
X125253136Y-70275963D01*
X125196905Y-70255940D01*
X125090586Y-70218081D01*
X125090581Y-70218080D01*
X125083951Y-70215719D01*
X125076965Y-70214886D01*
X125076961Y-70214885D01*
X124937517Y-70198258D01*
X124905624Y-70194455D01*
X124898621Y-70195191D01*
X124898620Y-70195191D01*
X124734025Y-70212490D01*
X124734021Y-70212491D01*
X124727017Y-70213227D01*
X124651931Y-70238788D01*
X124581000Y-70241806D01*
X124554126Y-70231778D01*
X124500304Y-70204354D01*
X124490515Y-70202804D01*
X124490513Y-70202803D01*
X124461815Y-70198258D01*
X124406519Y-70189500D01*
X123375209Y-70189500D01*
X122343482Y-70189501D01*
X122338589Y-70190276D01*
X122338588Y-70190276D01*
X122312201Y-70194455D01*
X122271209Y-70200947D01*
X122200798Y-70191847D01*
X122146485Y-70146124D01*
X122125500Y-70076498D01*
X122125499Y-69526000D01*
X122145501Y-69457879D01*
X122199157Y-69411386D01*
X122251499Y-69400000D01*
X177874000Y-69400000D01*
X177942121Y-69420002D01*
G37*
G04 #@! TD.AperFunction*
M02*
