G04 #@! TF.GenerationSoftware,KiCad,Pcbnew,6.0.2+dfsg-1*
G04 #@! TF.CreationDate,2022-08-23T15:38:09-04:00*
G04 #@! TF.ProjectId,RUSP_Mainboard,52555350-5f4d-4616-996e-626f6172642e,rev?*
G04 #@! TF.SameCoordinates,Original*
G04 #@! TF.FileFunction,Paste,Top*
G04 #@! TF.FilePolarity,Positive*
%FSLAX46Y46*%
G04 Gerber Fmt 4.6, Leading zero omitted, Abs format (unit mm)*
G04 Created by KiCad (PCBNEW 6.0.2+dfsg-1) date 2022-08-23 15:38:09*
%MOMM*%
%LPD*%
G01*
G04 APERTURE LIST*
G04 Aperture macros list*
%AMRoundRect*
0 Rectangle with rounded corners*
0 $1 Rounding radius*
0 $2 $3 $4 $5 $6 $7 $8 $9 X,Y pos of 4 corners*
0 Add a 4 corners polygon primitive as box body*
4,1,4,$2,$3,$4,$5,$6,$7,$8,$9,$2,$3,0*
0 Add four circle primitives for the rounded corners*
1,1,$1+$1,$2,$3*
1,1,$1+$1,$4,$5*
1,1,$1+$1,$6,$7*
1,1,$1+$1,$8,$9*
0 Add four rect primitives between the rounded corners*
20,1,$1+$1,$2,$3,$4,$5,0*
20,1,$1+$1,$4,$5,$6,$7,0*
20,1,$1+$1,$6,$7,$8,$9,0*
20,1,$1+$1,$8,$9,$2,$3,0*%
%AMRotRect*
0 Rectangle, with rotation*
0 The origin of the aperture is its center*
0 $1 length*
0 $2 width*
0 $3 Rotation angle, in degrees counterclockwise*
0 Add horizontal line*
21,1,$1,$2,0,0,$3*%
G04 Aperture macros list end*
%ADD10C,0.100000*%
%ADD11C,0.010000*%
%ADD12RoundRect,0.147500X0.172500X-0.147500X0.172500X0.147500X-0.172500X0.147500X-0.172500X-0.147500X0*%
%ADD13RoundRect,0.225000X-0.225000X-0.250000X0.225000X-0.250000X0.225000X0.250000X-0.225000X0.250000X0*%
%ADD14RoundRect,0.218750X-0.218750X-0.256250X0.218750X-0.256250X0.218750X0.256250X-0.218750X0.256250X0*%
%ADD15R,0.740000X2.790000*%
%ADD16R,0.800000X1.600000*%
%ADD17R,0.600000X1.600000*%
%ADD18R,1.200000X0.900000*%
%ADD19RoundRect,0.243750X-0.243750X-0.456250X0.243750X-0.456250X0.243750X0.456250X-0.243750X0.456250X0*%
%ADD20RoundRect,0.243750X0.456250X-0.243750X0.456250X0.243750X-0.456250X0.243750X-0.456250X-0.243750X0*%
%ADD21RoundRect,0.243750X0.243750X0.456250X-0.243750X0.456250X-0.243750X-0.456250X0.243750X-0.456250X0*%
%ADD22RoundRect,0.225000X0.225000X0.250000X-0.225000X0.250000X-0.225000X-0.250000X0.225000X-0.250000X0*%
%ADD23RoundRect,0.212500X-0.449585X-0.055039X0.297279X-0.341733X0.449585X0.055039X-0.297279X0.341733X0*%
%ADD24RoundRect,0.218750X-0.256250X0.218750X-0.256250X-0.218750X0.256250X-0.218750X0.256250X0.218750X0*%
%ADD25R,1.360000X1.460000*%
%ADD26R,0.750000X0.280000*%
%ADD27R,0.280000X0.890000*%
%ADD28C,0.600000*%
%ADD29O,1.000000X2.000000*%
%ADD30O,1.500000X2.500000*%
%ADD31C,1.100000*%
%ADD32R,0.800000X1.500000*%
%ADD33R,0.750000X1.750000*%
%ADD34RoundRect,0.025000X-0.400000X-0.750000X0.400000X-0.750000X0.400000X0.750000X-0.400000X0.750000X0*%
%ADD35RoundRect,0.025000X-0.550000X-0.550000X0.550000X-0.550000X0.550000X0.550000X-0.550000X0.550000X0*%
%ADD36R,1.750000X0.750000*%
%ADD37RoundRect,0.025000X0.400000X0.750000X-0.400000X0.750000X-0.400000X-0.750000X0.400000X-0.750000X0*%
%ADD38RoundRect,0.025000X0.550000X0.550000X-0.550000X0.550000X-0.550000X-0.550000X0.550000X-0.550000X0*%
%ADD39RoundRect,0.025000X-0.750000X0.400000X-0.750000X-0.400000X0.750000X-0.400000X0.750000X0.400000X0*%
%ADD40R,1.050000X1.050000*%
%ADD41RoundRect,0.025000X0.750000X-0.400000X0.750000X0.400000X-0.750000X0.400000X-0.750000X-0.400000X0*%
%ADD42RoundRect,0.218750X0.256250X-0.218750X0.256250X0.218750X-0.256250X0.218750X-0.256250X-0.218750X0*%
%ADD43RoundRect,0.218750X0.218750X0.256250X-0.218750X0.256250X-0.218750X-0.256250X0.218750X-0.256250X0*%
%ADD44R,0.450000X0.300000*%
%ADD45R,1.000000X1.000000*%
%ADD46R,1.050000X2.200000*%
%ADD47RotRect,1.000000X1.000000X45.000000*%
%ADD48RotRect,1.050000X2.200000X45.000000*%
%ADD49RoundRect,0.212500X-0.452942X0.000162X0.253416X-0.375415X0.452942X-0.000162X-0.253416X0.375415X0*%
%ADD50R,5.000000X0.700000*%
%ADD51R,5.000000X1.000000*%
%ADD52RoundRect,0.243750X-0.456250X0.243750X-0.456250X-0.243750X0.456250X-0.243750X0.456250X0.243750X0*%
%ADD53R,0.700000X0.450000*%
%ADD54R,2.200000X6.300000*%
%ADD55R,2.200000X1.050000*%
%ADD56RoundRect,0.218750X0.101392X-0.321302X0.333232X0.049719X-0.101392X0.321302X-0.333232X-0.049719X0*%
%ADD57RotRect,2.400000X1.750000X53.000000*%
%ADD58RotRect,0.800000X0.500000X53.000000*%
%ADD59RotRect,2.150000X0.600000X53.000000*%
%ADD60R,0.900000X0.800000*%
%ADD61R,0.950000X0.400000*%
%ADD62R,0.800000X0.300000*%
%ADD63R,0.650000X0.300000*%
%ADD64RoundRect,0.250000X-0.375000X-0.625000X0.375000X-0.625000X0.375000X0.625000X-0.375000X0.625000X0*%
%ADD65R,3.500000X2.610000*%
%ADD66RoundRect,0.147500X-0.172500X0.147500X-0.172500X-0.147500X0.172500X-0.147500X0.172500X0.147500X0*%
%ADD67RoundRect,0.225000X-0.250000X0.225000X-0.250000X-0.225000X0.250000X-0.225000X0.250000X0.225000X0*%
%ADD68R,0.700000X5.000000*%
%ADD69R,1.000000X5.000000*%
%ADD70RotRect,1.600000X2.300000X330.000000*%
%ADD71RoundRect,0.245000X0.245000X0.245000X-0.245000X0.245000X-0.245000X-0.245000X0.245000X-0.245000X0*%
%ADD72RoundRect,0.062500X0.312500X0.062500X-0.312500X0.062500X-0.312500X-0.062500X0.312500X-0.062500X0*%
%ADD73RoundRect,0.062500X0.062500X0.312500X-0.062500X0.312500X-0.062500X-0.312500X0.062500X-0.312500X0*%
%ADD74R,0.900000X1.200000*%
%ADD75R,1.100000X0.180000*%
%ADD76R,1.000000X0.180000*%
G04 APERTURE END LIST*
D10*
X150900000Y-133125000D02*
X151025000Y-132775000D01*
X151025000Y-132775000D02*
X151175000Y-132450000D01*
X151175000Y-132450000D02*
X151350000Y-132175000D01*
X151350000Y-132175000D02*
X151550000Y-131925000D01*
X151550000Y-131925000D02*
X151725000Y-131725000D01*
X151725000Y-131725000D02*
X151900000Y-131575000D01*
X151900000Y-131575000D02*
X152150000Y-131375000D01*
X152150000Y-131375000D02*
X152425000Y-131200000D01*
X152425000Y-131200000D02*
X152700000Y-131075000D01*
X152700000Y-131075000D02*
X153075000Y-130925000D01*
X153075000Y-130925000D02*
X153425000Y-130850000D01*
X153425000Y-130850000D02*
X153425000Y-132175000D01*
X153425000Y-132175000D02*
X153175000Y-132250000D01*
X153175000Y-132250000D02*
X152925000Y-132400000D01*
X152925000Y-132400000D02*
X152625000Y-132625000D01*
X152625000Y-132625000D02*
X152350000Y-132975000D01*
X152350000Y-132975000D02*
X152125000Y-133475000D01*
X152125000Y-133475000D02*
X150825000Y-133475000D01*
X150825000Y-133475000D02*
X150900000Y-133125000D01*
G36*
X153425000Y-132175000D02*
G01*
X153175000Y-132250000D01*
X152925000Y-132400000D01*
X152625000Y-132625000D01*
X152350000Y-132975000D01*
X152125000Y-133475000D01*
X150825000Y-133475000D01*
X150900000Y-133125000D01*
X151025000Y-132775000D01*
X151175000Y-132450000D01*
X151350000Y-132175000D01*
X151550000Y-131925000D01*
X151725000Y-131725000D01*
X151900000Y-131575000D01*
X152150000Y-131375000D01*
X152425000Y-131200000D01*
X152700000Y-131075000D01*
X153075000Y-130925000D01*
X153425000Y-130850000D01*
X153425000Y-132175000D01*
G37*
X153425000Y-132175000D02*
X153175000Y-132250000D01*
X152925000Y-132400000D01*
X152625000Y-132625000D01*
X152350000Y-132975000D01*
X152125000Y-133475000D01*
X150825000Y-133475000D01*
X150900000Y-133125000D01*
X151025000Y-132775000D01*
X151175000Y-132450000D01*
X151350000Y-132175000D01*
X151550000Y-131925000D01*
X151725000Y-131725000D01*
X151900000Y-131575000D01*
X152150000Y-131375000D01*
X152425000Y-131200000D01*
X152700000Y-131075000D01*
X153075000Y-130925000D01*
X153425000Y-130850000D01*
X153425000Y-132175000D01*
X153125000Y-137075000D02*
X152775000Y-136950000D01*
X152775000Y-136950000D02*
X152450000Y-136800000D01*
X152450000Y-136800000D02*
X152175000Y-136625000D01*
X152175000Y-136625000D02*
X151925000Y-136425000D01*
X151925000Y-136425000D02*
X151725000Y-136250000D01*
X151725000Y-136250000D02*
X151575000Y-136075000D01*
X151575000Y-136075000D02*
X151375000Y-135825000D01*
X151375000Y-135825000D02*
X151200000Y-135550000D01*
X151200000Y-135550000D02*
X151075000Y-135275000D01*
X151075000Y-135275000D02*
X150925000Y-134900000D01*
X150925000Y-134900000D02*
X150850000Y-134550000D01*
X150850000Y-134550000D02*
X152175000Y-134550000D01*
X152175000Y-134550000D02*
X152250000Y-134800000D01*
X152250000Y-134800000D02*
X152400000Y-135050000D01*
X152400000Y-135050000D02*
X152625000Y-135350000D01*
X152625000Y-135350000D02*
X152975000Y-135625000D01*
X152975000Y-135625000D02*
X153475000Y-135850000D01*
X153475000Y-135850000D02*
X153475000Y-137150000D01*
X153475000Y-137150000D02*
X153125000Y-137075000D01*
G36*
X152250000Y-134800000D02*
G01*
X152400000Y-135050000D01*
X152625000Y-135350000D01*
X152975000Y-135625000D01*
X153475000Y-135850000D01*
X153475000Y-137150000D01*
X153125000Y-137075000D01*
X152775000Y-136950000D01*
X152450000Y-136800000D01*
X152175000Y-136625000D01*
X151925000Y-136425000D01*
X151725000Y-136250000D01*
X151575000Y-136075000D01*
X151375000Y-135825000D01*
X151200000Y-135550000D01*
X151075000Y-135275000D01*
X150925000Y-134900000D01*
X150850000Y-134550000D01*
X152175000Y-134550000D01*
X152250000Y-134800000D01*
G37*
X152250000Y-134800000D02*
X152400000Y-135050000D01*
X152625000Y-135350000D01*
X152975000Y-135625000D01*
X153475000Y-135850000D01*
X153475000Y-137150000D01*
X153125000Y-137075000D01*
X152775000Y-136950000D01*
X152450000Y-136800000D01*
X152175000Y-136625000D01*
X151925000Y-136425000D01*
X151725000Y-136250000D01*
X151575000Y-136075000D01*
X151375000Y-135825000D01*
X151200000Y-135550000D01*
X151075000Y-135275000D01*
X150925000Y-134900000D01*
X150850000Y-134550000D01*
X152175000Y-134550000D01*
X152250000Y-134800000D01*
X157075000Y-134875000D02*
X156950000Y-135225000D01*
X156950000Y-135225000D02*
X156800000Y-135550000D01*
X156800000Y-135550000D02*
X156625000Y-135825000D01*
X156625000Y-135825000D02*
X156425000Y-136075000D01*
X156425000Y-136075000D02*
X156250000Y-136275000D01*
X156250000Y-136275000D02*
X156075000Y-136425000D01*
X156075000Y-136425000D02*
X155825000Y-136625000D01*
X155825000Y-136625000D02*
X155550000Y-136800000D01*
X155550000Y-136800000D02*
X155275000Y-136925000D01*
X155275000Y-136925000D02*
X154900000Y-137075000D01*
X154900000Y-137075000D02*
X154550000Y-137150000D01*
X154550000Y-137150000D02*
X154550000Y-135825000D01*
X154550000Y-135825000D02*
X154800000Y-135750000D01*
X154800000Y-135750000D02*
X155050000Y-135600000D01*
X155050000Y-135600000D02*
X155350000Y-135375000D01*
X155350000Y-135375000D02*
X155625000Y-135025000D01*
X155625000Y-135025000D02*
X155850000Y-134525000D01*
X155850000Y-134525000D02*
X157150000Y-134525000D01*
X157150000Y-134525000D02*
X157075000Y-134875000D01*
G36*
X157075000Y-134875000D02*
G01*
X156950000Y-135225000D01*
X156800000Y-135550000D01*
X156625000Y-135825000D01*
X156425000Y-136075000D01*
X156250000Y-136275000D01*
X156075000Y-136425000D01*
X155825000Y-136625000D01*
X155550000Y-136800000D01*
X155275000Y-136925000D01*
X154900000Y-137075000D01*
X154550000Y-137150000D01*
X154550000Y-135825000D01*
X154800000Y-135750000D01*
X155050000Y-135600000D01*
X155350000Y-135375000D01*
X155625000Y-135025000D01*
X155850000Y-134525000D01*
X157150000Y-134525000D01*
X157075000Y-134875000D01*
G37*
X157075000Y-134875000D02*
X156950000Y-135225000D01*
X156800000Y-135550000D01*
X156625000Y-135825000D01*
X156425000Y-136075000D01*
X156250000Y-136275000D01*
X156075000Y-136425000D01*
X155825000Y-136625000D01*
X155550000Y-136800000D01*
X155275000Y-136925000D01*
X154900000Y-137075000D01*
X154550000Y-137150000D01*
X154550000Y-135825000D01*
X154800000Y-135750000D01*
X155050000Y-135600000D01*
X155350000Y-135375000D01*
X155625000Y-135025000D01*
X155850000Y-134525000D01*
X157150000Y-134525000D01*
X157075000Y-134875000D01*
X154875000Y-130925000D02*
X155225000Y-131050000D01*
X155225000Y-131050000D02*
X155550000Y-131200000D01*
X155550000Y-131200000D02*
X155825000Y-131375000D01*
X155825000Y-131375000D02*
X156075000Y-131575000D01*
X156075000Y-131575000D02*
X156275000Y-131750000D01*
X156275000Y-131750000D02*
X156425000Y-131925000D01*
X156425000Y-131925000D02*
X156625000Y-132175000D01*
X156625000Y-132175000D02*
X156800000Y-132450000D01*
X156800000Y-132450000D02*
X156925000Y-132725000D01*
X156925000Y-132725000D02*
X157075000Y-133100000D01*
X157075000Y-133100000D02*
X157150000Y-133450000D01*
X157150000Y-133450000D02*
X155825000Y-133450000D01*
X155825000Y-133450000D02*
X155750000Y-133200000D01*
X155750000Y-133200000D02*
X155600000Y-132950000D01*
X155600000Y-132950000D02*
X155375000Y-132650000D01*
X155375000Y-132650000D02*
X155025000Y-132375000D01*
X155025000Y-132375000D02*
X154525000Y-132150000D01*
X154525000Y-132150000D02*
X154525000Y-130850000D01*
X154525000Y-130850000D02*
X154875000Y-130925000D01*
G36*
X154875000Y-130925000D02*
G01*
X155225000Y-131050000D01*
X155550000Y-131200000D01*
X155825000Y-131375000D01*
X156075000Y-131575000D01*
X156275000Y-131750000D01*
X156425000Y-131925000D01*
X156625000Y-132175000D01*
X156800000Y-132450000D01*
X156925000Y-132725000D01*
X157075000Y-133100000D01*
X157150000Y-133450000D01*
X155825000Y-133450000D01*
X155750000Y-133200000D01*
X155600000Y-132950000D01*
X155375000Y-132650000D01*
X155025000Y-132375000D01*
X154525000Y-132150000D01*
X154525000Y-130850000D01*
X154875000Y-130925000D01*
G37*
X154875000Y-130925000D02*
X155225000Y-131050000D01*
X155550000Y-131200000D01*
X155825000Y-131375000D01*
X156075000Y-131575000D01*
X156275000Y-131750000D01*
X156425000Y-131925000D01*
X156625000Y-132175000D01*
X156800000Y-132450000D01*
X156925000Y-132725000D01*
X157075000Y-133100000D01*
X157150000Y-133450000D01*
X155825000Y-133450000D01*
X155750000Y-133200000D01*
X155600000Y-132950000D01*
X155375000Y-132650000D01*
X155025000Y-132375000D01*
X154525000Y-132150000D01*
X154525000Y-130850000D01*
X154875000Y-130925000D01*
D11*
X167205000Y-81905000D02*
X167805000Y-81905000D01*
X167805000Y-81905000D02*
X167807617Y-81905069D01*
X167807617Y-81905069D02*
X167810226Y-81905274D01*
X167810226Y-81905274D02*
X167812822Y-81905616D01*
X167812822Y-81905616D02*
X167815396Y-81906093D01*
X167815396Y-81906093D02*
X167817941Y-81906704D01*
X167817941Y-81906704D02*
X167820451Y-81907447D01*
X167820451Y-81907447D02*
X167822918Y-81908321D01*
X167822918Y-81908321D02*
X167825337Y-81909323D01*
X167825337Y-81909323D02*
X167827700Y-81910450D01*
X167827700Y-81910450D02*
X167830000Y-81911699D01*
X167830000Y-81911699D02*
X167832232Y-81913066D01*
X167832232Y-81913066D02*
X167834389Y-81914549D01*
X167834389Y-81914549D02*
X167836466Y-81916143D01*
X167836466Y-81916143D02*
X167838457Y-81917843D01*
X167838457Y-81917843D02*
X167840355Y-81919645D01*
X167840355Y-81919645D02*
X167842157Y-81921543D01*
X167842157Y-81921543D02*
X167843857Y-81923534D01*
X167843857Y-81923534D02*
X167845451Y-81925611D01*
X167845451Y-81925611D02*
X167846934Y-81927768D01*
X167846934Y-81927768D02*
X167848301Y-81930000D01*
X167848301Y-81930000D02*
X167849550Y-81932300D01*
X167849550Y-81932300D02*
X167850677Y-81934663D01*
X167850677Y-81934663D02*
X167851679Y-81937082D01*
X167851679Y-81937082D02*
X167852553Y-81939549D01*
X167852553Y-81939549D02*
X167853296Y-81942059D01*
X167853296Y-81942059D02*
X167853907Y-81944604D01*
X167853907Y-81944604D02*
X167854384Y-81947178D01*
X167854384Y-81947178D02*
X167854726Y-81949774D01*
X167854726Y-81949774D02*
X167854931Y-81952383D01*
X167854931Y-81952383D02*
X167855000Y-81955000D01*
X167855000Y-81955000D02*
X167855000Y-82145000D01*
X167855000Y-82145000D02*
X167854931Y-82147617D01*
X167854931Y-82147617D02*
X167854726Y-82150226D01*
X167854726Y-82150226D02*
X167854384Y-82152822D01*
X167854384Y-82152822D02*
X167853907Y-82155396D01*
X167853907Y-82155396D02*
X167853296Y-82157941D01*
X167853296Y-82157941D02*
X167852553Y-82160451D01*
X167852553Y-82160451D02*
X167851679Y-82162918D01*
X167851679Y-82162918D02*
X167850677Y-82165337D01*
X167850677Y-82165337D02*
X167849550Y-82167700D01*
X167849550Y-82167700D02*
X167848301Y-82170000D01*
X167848301Y-82170000D02*
X167846934Y-82172232D01*
X167846934Y-82172232D02*
X167845451Y-82174389D01*
X167845451Y-82174389D02*
X167843857Y-82176466D01*
X167843857Y-82176466D02*
X167842157Y-82178457D01*
X167842157Y-82178457D02*
X167840355Y-82180355D01*
X167840355Y-82180355D02*
X167838457Y-82182157D01*
X167838457Y-82182157D02*
X167836466Y-82183857D01*
X167836466Y-82183857D02*
X167834389Y-82185451D01*
X167834389Y-82185451D02*
X167832232Y-82186934D01*
X167832232Y-82186934D02*
X167830000Y-82188301D01*
X167830000Y-82188301D02*
X167827700Y-82189550D01*
X167827700Y-82189550D02*
X167825337Y-82190677D01*
X167825337Y-82190677D02*
X167822918Y-82191679D01*
X167822918Y-82191679D02*
X167820451Y-82192553D01*
X167820451Y-82192553D02*
X167817941Y-82193296D01*
X167817941Y-82193296D02*
X167815396Y-82193907D01*
X167815396Y-82193907D02*
X167812822Y-82194384D01*
X167812822Y-82194384D02*
X167810226Y-82194726D01*
X167810226Y-82194726D02*
X167807617Y-82194931D01*
X167807617Y-82194931D02*
X167805000Y-82195000D01*
X167805000Y-82195000D02*
X167205000Y-82195000D01*
X167205000Y-82195000D02*
X167202383Y-82194931D01*
X167202383Y-82194931D02*
X167199774Y-82194726D01*
X167199774Y-82194726D02*
X167197178Y-82194384D01*
X167197178Y-82194384D02*
X167194604Y-82193907D01*
X167194604Y-82193907D02*
X167192059Y-82193296D01*
X167192059Y-82193296D02*
X167189549Y-82192553D01*
X167189549Y-82192553D02*
X167187082Y-82191679D01*
X167187082Y-82191679D02*
X167184663Y-82190677D01*
X167184663Y-82190677D02*
X167182300Y-82189550D01*
X167182300Y-82189550D02*
X167180000Y-82188301D01*
X167180000Y-82188301D02*
X167177768Y-82186934D01*
X167177768Y-82186934D02*
X167175611Y-82185451D01*
X167175611Y-82185451D02*
X167173534Y-82183857D01*
X167173534Y-82183857D02*
X167171543Y-82182157D01*
X167171543Y-82182157D02*
X167169645Y-82180355D01*
X167169645Y-82180355D02*
X167167843Y-82178457D01*
X167167843Y-82178457D02*
X167166143Y-82176466D01*
X167166143Y-82176466D02*
X167164549Y-82174389D01*
X167164549Y-82174389D02*
X167163066Y-82172232D01*
X167163066Y-82172232D02*
X167161699Y-82170000D01*
X167161699Y-82170000D02*
X167160450Y-82167700D01*
X167160450Y-82167700D02*
X167159323Y-82165337D01*
X167159323Y-82165337D02*
X167158321Y-82162918D01*
X167158321Y-82162918D02*
X167157447Y-82160451D01*
X167157447Y-82160451D02*
X167156704Y-82157941D01*
X167156704Y-82157941D02*
X167156093Y-82155396D01*
X167156093Y-82155396D02*
X167155616Y-82152822D01*
X167155616Y-82152822D02*
X167155274Y-82150226D01*
X167155274Y-82150226D02*
X167155069Y-82147617D01*
X167155069Y-82147617D02*
X167155000Y-82145000D01*
X167155000Y-82145000D02*
X167155000Y-81955000D01*
X167155000Y-81955000D02*
X167155069Y-81952383D01*
X167155069Y-81952383D02*
X167155274Y-81949774D01*
X167155274Y-81949774D02*
X167155616Y-81947178D01*
X167155616Y-81947178D02*
X167156093Y-81944604D01*
X167156093Y-81944604D02*
X167156704Y-81942059D01*
X167156704Y-81942059D02*
X167157447Y-81939549D01*
X167157447Y-81939549D02*
X167158321Y-81937082D01*
X167158321Y-81937082D02*
X167159323Y-81934663D01*
X167159323Y-81934663D02*
X167160450Y-81932300D01*
X167160450Y-81932300D02*
X167161699Y-81930000D01*
X167161699Y-81930000D02*
X167163066Y-81927768D01*
X167163066Y-81927768D02*
X167164549Y-81925611D01*
X167164549Y-81925611D02*
X167166143Y-81923534D01*
X167166143Y-81923534D02*
X167167843Y-81921543D01*
X167167843Y-81921543D02*
X167169645Y-81919645D01*
X167169645Y-81919645D02*
X167171543Y-81917843D01*
X167171543Y-81917843D02*
X167173534Y-81916143D01*
X167173534Y-81916143D02*
X167175611Y-81914549D01*
X167175611Y-81914549D02*
X167177768Y-81913066D01*
X167177768Y-81913066D02*
X167180000Y-81911699D01*
X167180000Y-81911699D02*
X167182300Y-81910450D01*
X167182300Y-81910450D02*
X167184663Y-81909323D01*
X167184663Y-81909323D02*
X167187082Y-81908321D01*
X167187082Y-81908321D02*
X167189549Y-81907447D01*
X167189549Y-81907447D02*
X167192059Y-81906704D01*
X167192059Y-81906704D02*
X167194604Y-81906093D01*
X167194604Y-81906093D02*
X167197178Y-81905616D01*
X167197178Y-81905616D02*
X167199774Y-81905274D01*
X167199774Y-81905274D02*
X167202383Y-81905069D01*
X167202383Y-81905069D02*
X167205000Y-81905000D01*
X167205000Y-81905000D02*
X167205000Y-81905000D01*
G36*
X167807617Y-81905069D02*
G01*
X167810226Y-81905274D01*
X167812822Y-81905616D01*
X167815396Y-81906093D01*
X167817941Y-81906704D01*
X167820451Y-81907447D01*
X167822918Y-81908321D01*
X167825337Y-81909323D01*
X167827700Y-81910450D01*
X167830000Y-81911699D01*
X167832232Y-81913066D01*
X167834389Y-81914549D01*
X167836466Y-81916143D01*
X167838457Y-81917843D01*
X167840355Y-81919645D01*
X167842157Y-81921543D01*
X167843857Y-81923534D01*
X167845451Y-81925611D01*
X167846934Y-81927768D01*
X167848301Y-81930000D01*
X167849550Y-81932300D01*
X167850677Y-81934663D01*
X167851679Y-81937082D01*
X167852553Y-81939549D01*
X167853296Y-81942059D01*
X167853907Y-81944604D01*
X167854384Y-81947178D01*
X167854726Y-81949774D01*
X167854931Y-81952383D01*
X167855000Y-81955000D01*
X167855000Y-82145000D01*
X167854931Y-82147617D01*
X167854726Y-82150226D01*
X167854384Y-82152822D01*
X167853907Y-82155396D01*
X167853296Y-82157941D01*
X167852553Y-82160451D01*
X167851679Y-82162918D01*
X167850677Y-82165337D01*
X167849550Y-82167700D01*
X167848301Y-82170000D01*
X167846934Y-82172232D01*
X167845451Y-82174389D01*
X167843857Y-82176466D01*
X167842157Y-82178457D01*
X167840355Y-82180355D01*
X167838457Y-82182157D01*
X167836466Y-82183857D01*
X167834389Y-82185451D01*
X167832232Y-82186934D01*
X167830000Y-82188301D01*
X167827700Y-82189550D01*
X167825337Y-82190677D01*
X167822918Y-82191679D01*
X167820451Y-82192553D01*
X167817941Y-82193296D01*
X167815396Y-82193907D01*
X167812822Y-82194384D01*
X167810226Y-82194726D01*
X167807617Y-82194931D01*
X167805000Y-82195000D01*
X167205000Y-82195000D01*
X167202383Y-82194931D01*
X167199774Y-82194726D01*
X167197178Y-82194384D01*
X167194604Y-82193907D01*
X167192059Y-82193296D01*
X167189549Y-82192553D01*
X167187082Y-82191679D01*
X167184663Y-82190677D01*
X167182300Y-82189550D01*
X167180000Y-82188301D01*
X167177768Y-82186934D01*
X167175611Y-82185451D01*
X167173534Y-82183857D01*
X167171543Y-82182157D01*
X167169645Y-82180355D01*
X167167843Y-82178457D01*
X167166143Y-82176466D01*
X167164549Y-82174389D01*
X167163066Y-82172232D01*
X167161699Y-82170000D01*
X167160450Y-82167700D01*
X167159323Y-82165337D01*
X167158321Y-82162918D01*
X167157447Y-82160451D01*
X167156704Y-82157941D01*
X167156093Y-82155396D01*
X167155616Y-82152822D01*
X167155274Y-82150226D01*
X167155069Y-82147617D01*
X167155000Y-82145000D01*
X167155000Y-81955000D01*
X167155069Y-81952383D01*
X167155274Y-81949774D01*
X167155616Y-81947178D01*
X167156093Y-81944604D01*
X167156704Y-81942059D01*
X167157447Y-81939549D01*
X167158321Y-81937082D01*
X167159323Y-81934663D01*
X167160450Y-81932300D01*
X167161699Y-81930000D01*
X167163066Y-81927768D01*
X167164549Y-81925611D01*
X167166143Y-81923534D01*
X167167843Y-81921543D01*
X167169645Y-81919645D01*
X167171543Y-81917843D01*
X167173534Y-81916143D01*
X167175611Y-81914549D01*
X167177768Y-81913066D01*
X167180000Y-81911699D01*
X167182300Y-81910450D01*
X167184663Y-81909323D01*
X167187082Y-81908321D01*
X167189549Y-81907447D01*
X167192059Y-81906704D01*
X167194604Y-81906093D01*
X167197178Y-81905616D01*
X167199774Y-81905274D01*
X167202383Y-81905069D01*
X167205000Y-81905000D01*
X167805000Y-81905000D01*
X167807617Y-81905069D01*
G37*
X167807617Y-81905069D02*
X167810226Y-81905274D01*
X167812822Y-81905616D01*
X167815396Y-81906093D01*
X167817941Y-81906704D01*
X167820451Y-81907447D01*
X167822918Y-81908321D01*
X167825337Y-81909323D01*
X167827700Y-81910450D01*
X167830000Y-81911699D01*
X167832232Y-81913066D01*
X167834389Y-81914549D01*
X167836466Y-81916143D01*
X167838457Y-81917843D01*
X167840355Y-81919645D01*
X167842157Y-81921543D01*
X167843857Y-81923534D01*
X167845451Y-81925611D01*
X167846934Y-81927768D01*
X167848301Y-81930000D01*
X167849550Y-81932300D01*
X167850677Y-81934663D01*
X167851679Y-81937082D01*
X167852553Y-81939549D01*
X167853296Y-81942059D01*
X167853907Y-81944604D01*
X167854384Y-81947178D01*
X167854726Y-81949774D01*
X167854931Y-81952383D01*
X167855000Y-81955000D01*
X167855000Y-82145000D01*
X167854931Y-82147617D01*
X167854726Y-82150226D01*
X167854384Y-82152822D01*
X167853907Y-82155396D01*
X167853296Y-82157941D01*
X167852553Y-82160451D01*
X167851679Y-82162918D01*
X167850677Y-82165337D01*
X167849550Y-82167700D01*
X167848301Y-82170000D01*
X167846934Y-82172232D01*
X167845451Y-82174389D01*
X167843857Y-82176466D01*
X167842157Y-82178457D01*
X167840355Y-82180355D01*
X167838457Y-82182157D01*
X167836466Y-82183857D01*
X167834389Y-82185451D01*
X167832232Y-82186934D01*
X167830000Y-82188301D01*
X167827700Y-82189550D01*
X167825337Y-82190677D01*
X167822918Y-82191679D01*
X167820451Y-82192553D01*
X167817941Y-82193296D01*
X167815396Y-82193907D01*
X167812822Y-82194384D01*
X167810226Y-82194726D01*
X167807617Y-82194931D01*
X167805000Y-82195000D01*
X167205000Y-82195000D01*
X167202383Y-82194931D01*
X167199774Y-82194726D01*
X167197178Y-82194384D01*
X167194604Y-82193907D01*
X167192059Y-82193296D01*
X167189549Y-82192553D01*
X167187082Y-82191679D01*
X167184663Y-82190677D01*
X167182300Y-82189550D01*
X167180000Y-82188301D01*
X167177768Y-82186934D01*
X167175611Y-82185451D01*
X167173534Y-82183857D01*
X167171543Y-82182157D01*
X167169645Y-82180355D01*
X167167843Y-82178457D01*
X167166143Y-82176466D01*
X167164549Y-82174389D01*
X167163066Y-82172232D01*
X167161699Y-82170000D01*
X167160450Y-82167700D01*
X167159323Y-82165337D01*
X167158321Y-82162918D01*
X167157447Y-82160451D01*
X167156704Y-82157941D01*
X167156093Y-82155396D01*
X167155616Y-82152822D01*
X167155274Y-82150226D01*
X167155069Y-82147617D01*
X167155000Y-82145000D01*
X167155000Y-81955000D01*
X167155069Y-81952383D01*
X167155274Y-81949774D01*
X167155616Y-81947178D01*
X167156093Y-81944604D01*
X167156704Y-81942059D01*
X167157447Y-81939549D01*
X167158321Y-81937082D01*
X167159323Y-81934663D01*
X167160450Y-81932300D01*
X167161699Y-81930000D01*
X167163066Y-81927768D01*
X167164549Y-81925611D01*
X167166143Y-81923534D01*
X167167843Y-81921543D01*
X167169645Y-81919645D01*
X167171543Y-81917843D01*
X167173534Y-81916143D01*
X167175611Y-81914549D01*
X167177768Y-81913066D01*
X167180000Y-81911699D01*
X167182300Y-81910450D01*
X167184663Y-81909323D01*
X167187082Y-81908321D01*
X167189549Y-81907447D01*
X167192059Y-81906704D01*
X167194604Y-81906093D01*
X167197178Y-81905616D01*
X167199774Y-81905274D01*
X167202383Y-81905069D01*
X167205000Y-81905000D01*
X167805000Y-81905000D01*
X167807617Y-81905069D01*
X168000000Y-83455000D02*
X167200000Y-83455000D01*
X167200000Y-83455000D02*
X167197383Y-83454931D01*
X167197383Y-83454931D02*
X167194774Y-83454726D01*
X167194774Y-83454726D02*
X167192178Y-83454384D01*
X167192178Y-83454384D02*
X167189604Y-83453907D01*
X167189604Y-83453907D02*
X167187059Y-83453296D01*
X167187059Y-83453296D02*
X167184549Y-83452553D01*
X167184549Y-83452553D02*
X167182082Y-83451679D01*
X167182082Y-83451679D02*
X167179663Y-83450677D01*
X167179663Y-83450677D02*
X167177300Y-83449550D01*
X167177300Y-83449550D02*
X167175000Y-83448301D01*
X167175000Y-83448301D02*
X167172768Y-83446934D01*
X167172768Y-83446934D02*
X167170611Y-83445451D01*
X167170611Y-83445451D02*
X167168534Y-83443857D01*
X167168534Y-83443857D02*
X167166543Y-83442157D01*
X167166543Y-83442157D02*
X167164645Y-83440355D01*
X167164645Y-83440355D02*
X167162843Y-83438457D01*
X167162843Y-83438457D02*
X167161143Y-83436466D01*
X167161143Y-83436466D02*
X167159549Y-83434389D01*
X167159549Y-83434389D02*
X167158066Y-83432232D01*
X167158066Y-83432232D02*
X167156699Y-83430000D01*
X167156699Y-83430000D02*
X167155450Y-83427700D01*
X167155450Y-83427700D02*
X167154323Y-83425337D01*
X167154323Y-83425337D02*
X167153321Y-83422918D01*
X167153321Y-83422918D02*
X167152447Y-83420451D01*
X167152447Y-83420451D02*
X167151704Y-83417941D01*
X167151704Y-83417941D02*
X167151093Y-83415396D01*
X167151093Y-83415396D02*
X167150616Y-83412822D01*
X167150616Y-83412822D02*
X167150274Y-83410226D01*
X167150274Y-83410226D02*
X167150069Y-83407617D01*
X167150069Y-83407617D02*
X167150000Y-83405000D01*
X167150000Y-83405000D02*
X167150000Y-82645000D01*
X167150000Y-82645000D02*
X167150069Y-82642383D01*
X167150069Y-82642383D02*
X167150274Y-82639774D01*
X167150274Y-82639774D02*
X167150616Y-82637178D01*
X167150616Y-82637178D02*
X167151093Y-82634604D01*
X167151093Y-82634604D02*
X167151704Y-82632059D01*
X167151704Y-82632059D02*
X167152447Y-82629549D01*
X167152447Y-82629549D02*
X167153321Y-82627082D01*
X167153321Y-82627082D02*
X167154323Y-82624663D01*
X167154323Y-82624663D02*
X167155450Y-82622300D01*
X167155450Y-82622300D02*
X167156699Y-82620000D01*
X167156699Y-82620000D02*
X167158066Y-82617768D01*
X167158066Y-82617768D02*
X167159549Y-82615611D01*
X167159549Y-82615611D02*
X167161143Y-82613534D01*
X167161143Y-82613534D02*
X167162843Y-82611543D01*
X167162843Y-82611543D02*
X167164645Y-82609645D01*
X167164645Y-82609645D02*
X167166543Y-82607843D01*
X167166543Y-82607843D02*
X167168534Y-82606143D01*
X167168534Y-82606143D02*
X167170611Y-82604549D01*
X167170611Y-82604549D02*
X167172768Y-82603066D01*
X167172768Y-82603066D02*
X167175000Y-82601699D01*
X167175000Y-82601699D02*
X167177300Y-82600450D01*
X167177300Y-82600450D02*
X167179663Y-82599323D01*
X167179663Y-82599323D02*
X167182082Y-82598321D01*
X167182082Y-82598321D02*
X167184549Y-82597447D01*
X167184549Y-82597447D02*
X167187059Y-82596704D01*
X167187059Y-82596704D02*
X167189604Y-82596093D01*
X167189604Y-82596093D02*
X167192178Y-82595616D01*
X167192178Y-82595616D02*
X167194774Y-82595274D01*
X167194774Y-82595274D02*
X167197383Y-82595069D01*
X167197383Y-82595069D02*
X167200000Y-82595000D01*
X167200000Y-82595000D02*
X168000000Y-82595000D01*
X168000000Y-82595000D02*
X168002617Y-82595069D01*
X168002617Y-82595069D02*
X168005226Y-82595274D01*
X168005226Y-82595274D02*
X168007822Y-82595616D01*
X168007822Y-82595616D02*
X168010396Y-82596093D01*
X168010396Y-82596093D02*
X168012941Y-82596704D01*
X168012941Y-82596704D02*
X168015451Y-82597447D01*
X168015451Y-82597447D02*
X168017918Y-82598321D01*
X168017918Y-82598321D02*
X168020337Y-82599323D01*
X168020337Y-82599323D02*
X168022700Y-82600450D01*
X168022700Y-82600450D02*
X168025000Y-82601699D01*
X168025000Y-82601699D02*
X168027232Y-82603066D01*
X168027232Y-82603066D02*
X168029389Y-82604549D01*
X168029389Y-82604549D02*
X168031466Y-82606143D01*
X168031466Y-82606143D02*
X168033457Y-82607843D01*
X168033457Y-82607843D02*
X168035355Y-82609645D01*
X168035355Y-82609645D02*
X168037157Y-82611543D01*
X168037157Y-82611543D02*
X168038857Y-82613534D01*
X168038857Y-82613534D02*
X168040451Y-82615611D01*
X168040451Y-82615611D02*
X168041934Y-82617768D01*
X168041934Y-82617768D02*
X168043301Y-82620000D01*
X168043301Y-82620000D02*
X168044550Y-82622300D01*
X168044550Y-82622300D02*
X168045677Y-82624663D01*
X168045677Y-82624663D02*
X168046679Y-82627082D01*
X168046679Y-82627082D02*
X168047553Y-82629549D01*
X168047553Y-82629549D02*
X168048296Y-82632059D01*
X168048296Y-82632059D02*
X168048907Y-82634604D01*
X168048907Y-82634604D02*
X168049384Y-82637178D01*
X168049384Y-82637178D02*
X168049726Y-82639774D01*
X168049726Y-82639774D02*
X168049931Y-82642383D01*
X168049931Y-82642383D02*
X168050000Y-82645000D01*
X168050000Y-82645000D02*
X168050000Y-83405000D01*
X168050000Y-83405000D02*
X168049931Y-83407617D01*
X168049931Y-83407617D02*
X168049726Y-83410226D01*
X168049726Y-83410226D02*
X168049384Y-83412822D01*
X168049384Y-83412822D02*
X168048907Y-83415396D01*
X168048907Y-83415396D02*
X168048296Y-83417941D01*
X168048296Y-83417941D02*
X168047553Y-83420451D01*
X168047553Y-83420451D02*
X168046679Y-83422918D01*
X168046679Y-83422918D02*
X168045677Y-83425337D01*
X168045677Y-83425337D02*
X168044550Y-83427700D01*
X168044550Y-83427700D02*
X168043301Y-83430000D01*
X168043301Y-83430000D02*
X168041934Y-83432232D01*
X168041934Y-83432232D02*
X168040451Y-83434389D01*
X168040451Y-83434389D02*
X168038857Y-83436466D01*
X168038857Y-83436466D02*
X168037157Y-83438457D01*
X168037157Y-83438457D02*
X168035355Y-83440355D01*
X168035355Y-83440355D02*
X168033457Y-83442157D01*
X168033457Y-83442157D02*
X168031466Y-83443857D01*
X168031466Y-83443857D02*
X168029389Y-83445451D01*
X168029389Y-83445451D02*
X168027232Y-83446934D01*
X168027232Y-83446934D02*
X168025000Y-83448301D01*
X168025000Y-83448301D02*
X168022700Y-83449550D01*
X168022700Y-83449550D02*
X168020337Y-83450677D01*
X168020337Y-83450677D02*
X168017918Y-83451679D01*
X168017918Y-83451679D02*
X168015451Y-83452553D01*
X168015451Y-83452553D02*
X168012941Y-83453296D01*
X168012941Y-83453296D02*
X168010396Y-83453907D01*
X168010396Y-83453907D02*
X168007822Y-83454384D01*
X168007822Y-83454384D02*
X168005226Y-83454726D01*
X168005226Y-83454726D02*
X168002617Y-83454931D01*
X168002617Y-83454931D02*
X168000000Y-83455000D01*
X168000000Y-83455000D02*
X168000000Y-83455000D01*
G36*
X168002617Y-82595069D02*
G01*
X168005226Y-82595274D01*
X168007822Y-82595616D01*
X168010396Y-82596093D01*
X168012941Y-82596704D01*
X168015451Y-82597447D01*
X168017918Y-82598321D01*
X168020337Y-82599323D01*
X168022700Y-82600450D01*
X168025000Y-82601699D01*
X168027232Y-82603066D01*
X168029389Y-82604549D01*
X168031466Y-82606143D01*
X168033457Y-82607843D01*
X168035355Y-82609645D01*
X168037157Y-82611543D01*
X168038857Y-82613534D01*
X168040451Y-82615611D01*
X168041934Y-82617768D01*
X168043301Y-82620000D01*
X168044550Y-82622300D01*
X168045677Y-82624663D01*
X168046679Y-82627082D01*
X168047553Y-82629549D01*
X168048296Y-82632059D01*
X168048907Y-82634604D01*
X168049384Y-82637178D01*
X168049726Y-82639774D01*
X168049931Y-82642383D01*
X168050000Y-82645000D01*
X168050000Y-83405000D01*
X168049931Y-83407617D01*
X168049726Y-83410226D01*
X168049384Y-83412822D01*
X168048907Y-83415396D01*
X168048296Y-83417941D01*
X168047553Y-83420451D01*
X168046679Y-83422918D01*
X168045677Y-83425337D01*
X168044550Y-83427700D01*
X168043301Y-83430000D01*
X168041934Y-83432232D01*
X168040451Y-83434389D01*
X168038857Y-83436466D01*
X168037157Y-83438457D01*
X168035355Y-83440355D01*
X168033457Y-83442157D01*
X168031466Y-83443857D01*
X168029389Y-83445451D01*
X168027232Y-83446934D01*
X168025000Y-83448301D01*
X168022700Y-83449550D01*
X168020337Y-83450677D01*
X168017918Y-83451679D01*
X168015451Y-83452553D01*
X168012941Y-83453296D01*
X168010396Y-83453907D01*
X168007822Y-83454384D01*
X168005226Y-83454726D01*
X168002617Y-83454931D01*
X168000000Y-83455000D01*
X167200000Y-83455000D01*
X167197383Y-83454931D01*
X167194774Y-83454726D01*
X167192178Y-83454384D01*
X167189604Y-83453907D01*
X167187059Y-83453296D01*
X167184549Y-83452553D01*
X167182082Y-83451679D01*
X167179663Y-83450677D01*
X167177300Y-83449550D01*
X167175000Y-83448301D01*
X167172768Y-83446934D01*
X167170611Y-83445451D01*
X167168534Y-83443857D01*
X167166543Y-83442157D01*
X167164645Y-83440355D01*
X167162843Y-83438457D01*
X167161143Y-83436466D01*
X167159549Y-83434389D01*
X167158066Y-83432232D01*
X167156699Y-83430000D01*
X167155450Y-83427700D01*
X167154323Y-83425337D01*
X167153321Y-83422918D01*
X167152447Y-83420451D01*
X167151704Y-83417941D01*
X167151093Y-83415396D01*
X167150616Y-83412822D01*
X167150274Y-83410226D01*
X167150069Y-83407617D01*
X167150000Y-83405000D01*
X167150000Y-82645000D01*
X167150069Y-82642383D01*
X167150274Y-82639774D01*
X167150616Y-82637178D01*
X167151093Y-82634604D01*
X167151704Y-82632059D01*
X167152447Y-82629549D01*
X167153321Y-82627082D01*
X167154323Y-82624663D01*
X167155450Y-82622300D01*
X167156699Y-82620000D01*
X167158066Y-82617768D01*
X167159549Y-82615611D01*
X167161143Y-82613534D01*
X167162843Y-82611543D01*
X167164645Y-82609645D01*
X167166543Y-82607843D01*
X167168534Y-82606143D01*
X167170611Y-82604549D01*
X167172768Y-82603066D01*
X167175000Y-82601699D01*
X167177300Y-82600450D01*
X167179663Y-82599323D01*
X167182082Y-82598321D01*
X167184549Y-82597447D01*
X167187059Y-82596704D01*
X167189604Y-82596093D01*
X167192178Y-82595616D01*
X167194774Y-82595274D01*
X167197383Y-82595069D01*
X167200000Y-82595000D01*
X168000000Y-82595000D01*
X168002617Y-82595069D01*
G37*
X168002617Y-82595069D02*
X168005226Y-82595274D01*
X168007822Y-82595616D01*
X168010396Y-82596093D01*
X168012941Y-82596704D01*
X168015451Y-82597447D01*
X168017918Y-82598321D01*
X168020337Y-82599323D01*
X168022700Y-82600450D01*
X168025000Y-82601699D01*
X168027232Y-82603066D01*
X168029389Y-82604549D01*
X168031466Y-82606143D01*
X168033457Y-82607843D01*
X168035355Y-82609645D01*
X168037157Y-82611543D01*
X168038857Y-82613534D01*
X168040451Y-82615611D01*
X168041934Y-82617768D01*
X168043301Y-82620000D01*
X168044550Y-82622300D01*
X168045677Y-82624663D01*
X168046679Y-82627082D01*
X168047553Y-82629549D01*
X168048296Y-82632059D01*
X168048907Y-82634604D01*
X168049384Y-82637178D01*
X168049726Y-82639774D01*
X168049931Y-82642383D01*
X168050000Y-82645000D01*
X168050000Y-83405000D01*
X168049931Y-83407617D01*
X168049726Y-83410226D01*
X168049384Y-83412822D01*
X168048907Y-83415396D01*
X168048296Y-83417941D01*
X168047553Y-83420451D01*
X168046679Y-83422918D01*
X168045677Y-83425337D01*
X168044550Y-83427700D01*
X168043301Y-83430000D01*
X168041934Y-83432232D01*
X168040451Y-83434389D01*
X168038857Y-83436466D01*
X168037157Y-83438457D01*
X168035355Y-83440355D01*
X168033457Y-83442157D01*
X168031466Y-83443857D01*
X168029389Y-83445451D01*
X168027232Y-83446934D01*
X168025000Y-83448301D01*
X168022700Y-83449550D01*
X168020337Y-83450677D01*
X168017918Y-83451679D01*
X168015451Y-83452553D01*
X168012941Y-83453296D01*
X168010396Y-83453907D01*
X168007822Y-83454384D01*
X168005226Y-83454726D01*
X168002617Y-83454931D01*
X168000000Y-83455000D01*
X167200000Y-83455000D01*
X167197383Y-83454931D01*
X167194774Y-83454726D01*
X167192178Y-83454384D01*
X167189604Y-83453907D01*
X167187059Y-83453296D01*
X167184549Y-83452553D01*
X167182082Y-83451679D01*
X167179663Y-83450677D01*
X167177300Y-83449550D01*
X167175000Y-83448301D01*
X167172768Y-83446934D01*
X167170611Y-83445451D01*
X167168534Y-83443857D01*
X167166543Y-83442157D01*
X167164645Y-83440355D01*
X167162843Y-83438457D01*
X167161143Y-83436466D01*
X167159549Y-83434389D01*
X167158066Y-83432232D01*
X167156699Y-83430000D01*
X167155450Y-83427700D01*
X167154323Y-83425337D01*
X167153321Y-83422918D01*
X167152447Y-83420451D01*
X167151704Y-83417941D01*
X167151093Y-83415396D01*
X167150616Y-83412822D01*
X167150274Y-83410226D01*
X167150069Y-83407617D01*
X167150000Y-83405000D01*
X167150000Y-82645000D01*
X167150069Y-82642383D01*
X167150274Y-82639774D01*
X167150616Y-82637178D01*
X167151093Y-82634604D01*
X167151704Y-82632059D01*
X167152447Y-82629549D01*
X167153321Y-82627082D01*
X167154323Y-82624663D01*
X167155450Y-82622300D01*
X167156699Y-82620000D01*
X167158066Y-82617768D01*
X167159549Y-82615611D01*
X167161143Y-82613534D01*
X167162843Y-82611543D01*
X167164645Y-82609645D01*
X167166543Y-82607843D01*
X167168534Y-82606143D01*
X167170611Y-82604549D01*
X167172768Y-82603066D01*
X167175000Y-82601699D01*
X167177300Y-82600450D01*
X167179663Y-82599323D01*
X167182082Y-82598321D01*
X167184549Y-82597447D01*
X167187059Y-82596704D01*
X167189604Y-82596093D01*
X167192178Y-82595616D01*
X167194774Y-82595274D01*
X167197383Y-82595069D01*
X167200000Y-82595000D01*
X168000000Y-82595000D01*
X168002617Y-82595069D01*
D12*
X151800000Y-140185000D03*
X151800000Y-139215000D03*
D13*
X159350000Y-84000000D03*
X160900000Y-84000000D03*
D14*
X166462500Y-79900000D03*
X168037500Y-79900000D03*
D13*
X171740000Y-58400000D03*
X173290000Y-58400000D03*
D14*
X151812500Y-55600000D03*
X153387500Y-55600000D03*
D15*
X160025000Y-137235000D03*
X160025000Y-133165000D03*
X161295000Y-137235000D03*
X161295000Y-133165000D03*
X162565000Y-137235000D03*
X162565000Y-133165000D03*
X163835000Y-137235000D03*
X163835000Y-133165000D03*
X165105000Y-137235000D03*
X165105000Y-133165000D03*
X166375000Y-137235000D03*
X166375000Y-133165000D03*
D16*
X167100000Y-141550000D03*
X153600000Y-144450000D03*
X167100000Y-144450000D03*
X153600000Y-141550000D03*
D17*
X154600000Y-144450000D03*
X155100000Y-141550000D03*
X155600000Y-144450000D03*
X156100000Y-141550000D03*
X156600000Y-144450000D03*
X157100000Y-141550000D03*
X157600000Y-144450000D03*
X158100000Y-141550000D03*
X158600000Y-144450000D03*
X159100000Y-141550000D03*
X159600000Y-144450000D03*
X160100000Y-141550000D03*
X160600000Y-144450000D03*
X161100000Y-141550000D03*
X161600000Y-144450000D03*
X162100000Y-141550000D03*
X162600000Y-144450000D03*
X163100000Y-141550000D03*
X163600000Y-144450000D03*
X164100000Y-141550000D03*
X164600000Y-144450000D03*
X165100000Y-141550000D03*
X165600000Y-144450000D03*
X166100000Y-141550000D03*
D18*
X168000000Y-149670000D03*
X168000000Y-146370000D03*
D19*
X169062500Y-137700000D03*
X170937500Y-137700000D03*
D20*
X158000000Y-138237500D03*
X158000000Y-136362500D03*
D21*
X155337500Y-139020000D03*
X153462500Y-139020000D03*
D20*
X144600000Y-148837500D03*
X144600000Y-146962500D03*
X128400000Y-139937500D03*
X128400000Y-138062500D03*
D22*
X134390000Y-56000000D03*
X132840000Y-56000000D03*
D23*
X138241466Y-152108826D03*
X139758534Y-152691174D03*
D24*
X138100000Y-130612500D03*
X138100000Y-132187500D03*
D25*
X138100000Y-119400000D03*
D26*
X136600000Y-118650000D03*
X136600000Y-119150000D03*
X136600000Y-119650000D03*
X136600000Y-120150000D03*
X139600000Y-120150000D03*
X139600000Y-119650000D03*
X139600000Y-119150000D03*
X139600000Y-118650000D03*
D18*
X142450000Y-122350000D03*
X142450000Y-119050000D03*
D27*
X156750000Y-147025000D03*
X157250000Y-147025000D03*
X157750000Y-147025000D03*
X158250000Y-147025000D03*
X158750000Y-147025000D03*
X159250000Y-147025000D03*
X159750000Y-147025000D03*
X160250000Y-147025000D03*
X160750000Y-147025000D03*
X161250000Y-147025000D03*
X161750000Y-147025000D03*
X162250000Y-147025000D03*
D28*
X162550000Y-148230000D03*
X161900000Y-148930000D03*
X161100000Y-148930000D03*
X160700000Y-148230000D03*
X160300000Y-148930000D03*
X159900000Y-148230000D03*
X159100000Y-148230000D03*
X158700000Y-148930000D03*
X158300000Y-148230000D03*
X157900000Y-148930000D03*
X157100000Y-148930000D03*
X156450000Y-148230000D03*
D29*
X164000000Y-147280000D03*
D30*
X164000000Y-153030000D03*
D29*
X155000000Y-147280000D03*
D30*
X155000000Y-153030000D03*
D31*
X163550000Y-147830000D03*
X155450000Y-147830000D03*
D32*
X132100000Y-80950000D03*
D33*
X133200000Y-81100000D03*
X134300000Y-81100000D03*
X135400000Y-81100000D03*
X136500000Y-81100000D03*
X137600000Y-81100000D03*
X138700000Y-81100000D03*
X139800000Y-81100000D03*
X140900000Y-81100000D03*
X142000000Y-81100000D03*
X143100000Y-81100000D03*
X144200000Y-81100000D03*
X145300000Y-81100000D03*
X146400000Y-81100000D03*
X147500000Y-81100000D03*
X148600000Y-81100000D03*
X149700000Y-81100000D03*
X150800000Y-81100000D03*
X151900000Y-81100000D03*
X153000000Y-81100000D03*
X154100000Y-81100000D03*
X155200000Y-81100000D03*
X156300000Y-81100000D03*
X157400000Y-81100000D03*
X158500000Y-81100000D03*
X159600000Y-81100000D03*
X160700000Y-81100000D03*
X161800000Y-81100000D03*
D32*
X162900000Y-80950000D03*
D34*
X164200000Y-80150000D03*
D35*
X164050000Y-78550000D03*
D34*
X164200000Y-76950000D03*
D36*
X164000000Y-75500000D03*
X164000000Y-74400000D03*
X164000000Y-73300000D03*
X164000000Y-72200000D03*
X164000000Y-71100000D03*
X164000000Y-70000000D03*
X164000000Y-68900000D03*
X164000000Y-67800000D03*
X164000000Y-66700000D03*
X164000000Y-65600000D03*
X164000000Y-64500000D03*
D34*
X164200000Y-63050000D03*
D35*
X164050000Y-61450000D03*
D34*
X164200000Y-59850000D03*
D32*
X162900000Y-59050000D03*
D33*
X161800000Y-58900000D03*
X160700000Y-58900000D03*
X159600000Y-58900000D03*
X158500000Y-58900000D03*
X157400000Y-58900000D03*
X156300000Y-58900000D03*
X155200000Y-58900000D03*
X154100000Y-58900000D03*
X153000000Y-58900000D03*
X151900000Y-58900000D03*
X150800000Y-58900000D03*
X149700000Y-58900000D03*
X148600000Y-58900000D03*
X147500000Y-58900000D03*
X146400000Y-58900000D03*
X145300000Y-58900000D03*
X144200000Y-58900000D03*
X143100000Y-58900000D03*
X142000000Y-58900000D03*
X140900000Y-58900000D03*
X139800000Y-58900000D03*
X138700000Y-58900000D03*
X137600000Y-58900000D03*
X136500000Y-58900000D03*
X135400000Y-58900000D03*
X134300000Y-58900000D03*
X133200000Y-58900000D03*
D32*
X132100000Y-59050000D03*
D37*
X130800000Y-59850000D03*
D38*
X130950000Y-61450000D03*
D37*
X130800000Y-63050000D03*
D36*
X131000000Y-64500000D03*
X131000000Y-65600000D03*
X131000000Y-66700000D03*
X131000000Y-67800000D03*
X131000000Y-68900000D03*
X131000000Y-70000000D03*
X131000000Y-71100000D03*
X131000000Y-72200000D03*
X131000000Y-73300000D03*
X131000000Y-74400000D03*
X131000000Y-75500000D03*
D37*
X130800000Y-76950000D03*
D38*
X130950000Y-78550000D03*
D37*
X130800000Y-80150000D03*
D39*
X132550000Y-78550000D03*
D40*
X132850000Y-75250000D03*
X132850000Y-73150000D03*
X132850000Y-71050000D03*
X132850000Y-68950000D03*
X132850000Y-66850000D03*
X132850000Y-64750000D03*
D39*
X132550000Y-61450000D03*
D40*
X134650000Y-75250000D03*
X134650000Y-73150000D03*
X134650000Y-71050000D03*
X134650000Y-68950000D03*
X134650000Y-66850000D03*
X134650000Y-64750000D03*
X136450000Y-75250000D03*
X136450000Y-64750000D03*
X141650000Y-75250000D03*
X141650000Y-73150000D03*
X141650000Y-71050000D03*
X141650000Y-68950000D03*
X141650000Y-66850000D03*
X141650000Y-64750000D03*
X143450000Y-75250000D03*
X143450000Y-73150000D03*
X143450000Y-71050000D03*
X143450000Y-68950000D03*
X143450000Y-66850000D03*
X143450000Y-64750000D03*
X145250000Y-75250000D03*
X145250000Y-64750000D03*
X149750000Y-75250000D03*
X149750000Y-64750000D03*
X151550000Y-75250000D03*
X151550000Y-73150000D03*
X151550000Y-71050000D03*
X151550000Y-68950000D03*
X151550000Y-66850000D03*
X151550000Y-64750000D03*
X153350000Y-75250000D03*
X153350000Y-73150000D03*
X153350000Y-71050000D03*
X153350000Y-68950000D03*
X153350000Y-66850000D03*
X153350000Y-64750000D03*
X158550000Y-75250000D03*
X158550000Y-64750000D03*
X160350000Y-75250000D03*
X160350000Y-73150000D03*
X160350000Y-71050000D03*
X160350000Y-68950000D03*
X160350000Y-66850000D03*
X160350000Y-64750000D03*
D41*
X162450000Y-78550000D03*
D40*
X162150000Y-75250000D03*
X162150000Y-73150000D03*
X162150000Y-71050000D03*
X162150000Y-68950000D03*
X162150000Y-66850000D03*
X162150000Y-64750000D03*
D41*
X162450000Y-61450000D03*
D42*
X178900000Y-75087500D03*
X178900000Y-73512500D03*
D14*
X150287500Y-83925000D03*
X151862500Y-83925000D03*
X136687500Y-117200000D03*
X138262500Y-117200000D03*
X133577500Y-118120000D03*
X135152500Y-118120000D03*
D43*
X137887500Y-149250000D03*
X136312500Y-149250000D03*
X142487500Y-151200000D03*
X140912500Y-151200000D03*
D24*
X136500000Y-110812500D03*
X136500000Y-112387500D03*
D44*
X168575000Y-83350000D03*
X168575000Y-82700000D03*
X168575000Y-82050000D03*
X166625000Y-82050000D03*
X166625000Y-82700000D03*
X166625000Y-83350000D03*
D45*
X126500000Y-62500000D03*
D46*
X125025000Y-61000000D03*
X127975000Y-61000000D03*
D45*
X126500000Y-59500000D03*
D47*
X123560660Y-68560660D03*
X121439340Y-66439340D03*
D48*
X121457017Y-68542983D03*
X123542983Y-66457017D03*
D49*
X133178959Y-149718554D03*
X134613749Y-150481446D03*
D50*
X132500000Y-112800000D03*
D51*
X132500000Y-111300000D03*
D50*
X132500000Y-109800000D03*
D20*
X152900000Y-148357500D03*
X152900000Y-146482500D03*
D43*
X170187500Y-78220000D03*
X168612500Y-78220000D03*
D52*
X170550000Y-146782500D03*
X170550000Y-148657500D03*
D53*
X150500000Y-141200000D03*
X150500000Y-139900000D03*
X148500000Y-140550000D03*
D54*
X130100000Y-131500000D03*
X134200000Y-131500000D03*
D45*
X167900000Y-73200000D03*
D55*
X169400000Y-74675000D03*
X169400000Y-71725000D03*
D45*
X170900000Y-73200000D03*
X173500000Y-73200000D03*
D55*
X175000000Y-74675000D03*
D45*
X176500000Y-73200000D03*
D55*
X175000000Y-71725000D03*
D45*
X177200000Y-77100000D03*
X177200000Y-80100000D03*
D46*
X178675000Y-78600000D03*
X175725000Y-78600000D03*
D21*
X128337500Y-80300000D03*
X126462500Y-80300000D03*
D56*
X129956618Y-147038913D03*
X130791240Y-145703237D03*
D45*
X176500000Y-87400000D03*
D55*
X178000000Y-85925000D03*
X178000000Y-88875000D03*
D45*
X179500000Y-87400000D03*
D57*
X127822183Y-142837095D03*
D58*
X126923718Y-142160054D03*
X129539250Y-144130998D03*
D59*
X129100000Y-143800000D03*
D60*
X171300000Y-80150000D03*
X171300000Y-82050000D03*
X173300000Y-81100000D03*
D52*
X126900000Y-127062500D03*
X126900000Y-128937500D03*
X126400000Y-131000000D03*
X126400000Y-132875000D03*
D19*
X125162500Y-134850000D03*
X127037500Y-134850000D03*
D61*
X121775000Y-121000000D03*
X121775000Y-131400000D03*
D62*
X121500000Y-130700000D03*
D63*
X124375000Y-130400000D03*
D62*
X121500000Y-130100000D03*
D63*
X124375000Y-129800000D03*
D62*
X121500000Y-129500000D03*
D63*
X124375000Y-129200000D03*
D62*
X121500000Y-128900000D03*
D63*
X124375000Y-128600000D03*
D62*
X121500000Y-128300000D03*
D63*
X124375000Y-128000000D03*
D62*
X121500000Y-127700000D03*
D63*
X124375000Y-127400000D03*
D62*
X121500000Y-127100000D03*
D63*
X124375000Y-126800000D03*
D62*
X121500000Y-126500000D03*
D63*
X124375000Y-126200000D03*
D62*
X121500000Y-125900000D03*
D63*
X124375000Y-125600000D03*
D62*
X121500000Y-125300000D03*
D63*
X124375000Y-125000000D03*
D62*
X121500000Y-124700000D03*
D63*
X124375000Y-124400000D03*
D62*
X121500000Y-124100000D03*
D63*
X124375000Y-123800000D03*
D62*
X121500000Y-123500000D03*
D63*
X124375000Y-123200000D03*
D62*
X121500000Y-122900000D03*
D63*
X124375000Y-122600000D03*
D62*
X121500000Y-122300000D03*
D63*
X124375000Y-122000000D03*
D62*
X121500000Y-121700000D03*
D14*
X121762500Y-134550000D03*
X123337500Y-134550000D03*
D64*
X145100000Y-120200000D03*
X147900000Y-120200000D03*
D15*
X160025000Y-129535000D03*
X160025000Y-125465000D03*
X161295000Y-129535000D03*
X161295000Y-125465000D03*
X162565000Y-129535000D03*
X162565000Y-125465000D03*
X163835000Y-129535000D03*
X163835000Y-125465000D03*
X165105000Y-129535000D03*
X165105000Y-125465000D03*
X166375000Y-129535000D03*
X166375000Y-125465000D03*
D32*
X130645000Y-89540000D03*
X131915000Y-89540000D03*
X133185000Y-89540000D03*
X134455000Y-89540000D03*
X134455000Y-84460000D03*
X133185000Y-84460000D03*
X131915000Y-84460000D03*
X130645000Y-84460000D03*
D65*
X132550000Y-87000000D03*
D19*
X126462500Y-78050000D03*
X128337500Y-78050000D03*
D66*
X134000000Y-146515000D03*
X134000000Y-147485000D03*
D67*
X136350000Y-146125000D03*
X136350000Y-147675000D03*
D13*
X138825000Y-139400000D03*
X140375000Y-139400000D03*
X138825000Y-141100000D03*
X140375000Y-141100000D03*
D14*
X142712500Y-142100000D03*
X144287500Y-142100000D03*
D68*
X138700000Y-145700000D03*
D69*
X140200000Y-145700000D03*
D68*
X141700000Y-145700000D03*
D70*
X170649038Y-93222243D03*
X172349038Y-90277757D03*
X168050962Y-91722243D03*
X169750962Y-88777757D03*
D71*
X135520000Y-142000000D03*
X134300000Y-143220000D03*
X135520000Y-140780000D03*
X133080000Y-142000000D03*
X133080000Y-140780000D03*
X134300000Y-140780000D03*
X134300000Y-142000000D03*
X135520000Y-143220000D03*
X133080000Y-143220000D03*
D72*
X136775000Y-143750000D03*
X136775000Y-143250000D03*
X136775000Y-142750000D03*
X136775000Y-142250000D03*
X136775000Y-141750000D03*
X136775000Y-141250000D03*
X136775000Y-140750000D03*
X136775000Y-140250000D03*
D73*
X136050000Y-139525000D03*
X135550000Y-139525000D03*
X135050000Y-139525000D03*
X134550000Y-139525000D03*
X134050000Y-139525000D03*
X133550000Y-139525000D03*
X133050000Y-139525000D03*
X132550000Y-139525000D03*
D72*
X131825000Y-140250000D03*
X131825000Y-140750000D03*
X131825000Y-141250000D03*
X131825000Y-141750000D03*
X131825000Y-142250000D03*
X131825000Y-142750000D03*
X131825000Y-143250000D03*
X131825000Y-143750000D03*
D73*
X132550000Y-144475000D03*
X133050000Y-144475000D03*
X133550000Y-144475000D03*
X134050000Y-144475000D03*
X134550000Y-144475000D03*
X135050000Y-144475000D03*
X135550000Y-144475000D03*
X136050000Y-144475000D03*
D14*
X129062500Y-119450000D03*
X130637500Y-119450000D03*
D74*
X147135000Y-147180000D03*
X150435000Y-147180000D03*
X143820000Y-144180000D03*
X147120000Y-144180000D03*
D13*
X133225000Y-123710000D03*
X134775000Y-123710000D03*
D22*
X126975000Y-121900000D03*
X125425000Y-121900000D03*
D75*
X130830000Y-124580000D03*
D76*
X130880000Y-124180000D03*
X130880000Y-123780000D03*
X130880000Y-123380000D03*
X130880000Y-122980000D03*
X130880000Y-122580000D03*
X130880000Y-122180000D03*
X130880000Y-121780000D03*
X130880000Y-121380000D03*
X130880000Y-120980000D03*
X129080000Y-120980000D03*
X129080000Y-121380000D03*
X129080000Y-121780000D03*
X129080000Y-122180000D03*
X129080000Y-122580000D03*
X129080000Y-122980000D03*
X129080000Y-123380000D03*
X129080000Y-123780000D03*
X129080000Y-124180000D03*
X129080000Y-124580000D03*
M02*
