%TF.GenerationSoftware,KiCad,Pcbnew,5.1.6+dfsg1-1~bpo10+1*%
%TF.CreationDate,2021-03-29T13:25:19-04:00*%
%TF.ProjectId,RUSP_Antenna,52555350-5f41-46e7-9465-6e6e612e6b69,rev?*%
%TF.SameCoordinates,Original*%
%TF.FileFunction,Copper,L2,Bot*%
%TF.FilePolarity,Positive*%
%FSLAX46Y46*%
G04 Gerber Fmt 4.6, Leading zero omitted, Abs format (unit mm)*
G04 Created by KiCad (PCBNEW 5.1.6+dfsg1-1~bpo10+1) date 2021-03-29 13:25:19*
%MOMM*%
%LPD*%
G01*
G04 APERTURE LIST*
%TA.AperFunction,NonConductor*%
%ADD10C,0.120000*%
%TD*%
G04 APERTURE END LIST*
D10*
X164642857Y-104642857D02*
X164557142Y-104671428D01*
X164414285Y-104671428D01*
X164357142Y-104642857D01*
X164328571Y-104614285D01*
X164300000Y-104557142D01*
X164300000Y-104500000D01*
X164328571Y-104442857D01*
X164357142Y-104414285D01*
X164414285Y-104385714D01*
X164528571Y-104357142D01*
X164585714Y-104328571D01*
X164614285Y-104300000D01*
X164642857Y-104242857D01*
X164642857Y-104185714D01*
X164614285Y-104128571D01*
X164585714Y-104100000D01*
X164528571Y-104071428D01*
X164385714Y-104071428D01*
X164300000Y-104100000D01*
X164042857Y-104671428D02*
X164042857Y-104071428D01*
X163985714Y-104442857D02*
X163814285Y-104671428D01*
X163814285Y-104271428D02*
X164042857Y-104500000D01*
X163614285Y-104271428D02*
X163471428Y-104671428D01*
X163328571Y-104271428D02*
X163471428Y-104671428D01*
X163528571Y-104814285D01*
X163557142Y-104842857D01*
X163614285Y-104871428D01*
X163071428Y-104071428D02*
X163128571Y-104185714D01*
X162842857Y-104642857D02*
X162785714Y-104671428D01*
X162671428Y-104671428D01*
X162614285Y-104642857D01*
X162585714Y-104585714D01*
X162585714Y-104557142D01*
X162614285Y-104500000D01*
X162671428Y-104471428D01*
X162757142Y-104471428D01*
X162814285Y-104442857D01*
X162842857Y-104385714D01*
X162842857Y-104357142D01*
X162814285Y-104300000D01*
X162757142Y-104271428D01*
X162671428Y-104271428D01*
X162614285Y-104300000D01*
X161871428Y-104357142D02*
X161671428Y-104357142D01*
X161585714Y-104671428D02*
X161871428Y-104671428D01*
X161871428Y-104071428D01*
X161585714Y-104071428D01*
X161071428Y-104671428D02*
X161071428Y-104071428D01*
X161071428Y-104642857D02*
X161128571Y-104671428D01*
X161242857Y-104671428D01*
X161300000Y-104642857D01*
X161328571Y-104614285D01*
X161357142Y-104557142D01*
X161357142Y-104385714D01*
X161328571Y-104328571D01*
X161300000Y-104300000D01*
X161242857Y-104271428D01*
X161128571Y-104271428D01*
X161071428Y-104300000D01*
X160528571Y-104271428D02*
X160528571Y-104757142D01*
X160557142Y-104814285D01*
X160585714Y-104842857D01*
X160642857Y-104871428D01*
X160728571Y-104871428D01*
X160785714Y-104842857D01*
X160528571Y-104642857D02*
X160585714Y-104671428D01*
X160700000Y-104671428D01*
X160757142Y-104642857D01*
X160785714Y-104614285D01*
X160814285Y-104557142D01*
X160814285Y-104385714D01*
X160785714Y-104328571D01*
X160757142Y-104300000D01*
X160700000Y-104271428D01*
X160585714Y-104271428D01*
X160528571Y-104300000D01*
X160014285Y-104642857D02*
X160071428Y-104671428D01*
X160185714Y-104671428D01*
X160242857Y-104642857D01*
X160271428Y-104585714D01*
X160271428Y-104357142D01*
X160242857Y-104300000D01*
X160185714Y-104271428D01*
X160071428Y-104271428D01*
X160014285Y-104300000D01*
X159985714Y-104357142D01*
X159985714Y-104414285D01*
X160271428Y-104471428D01*
X158928571Y-104671428D02*
X159128571Y-104385714D01*
X159271428Y-104671428D02*
X159271428Y-104071428D01*
X159042857Y-104071428D01*
X158985714Y-104100000D01*
X158957142Y-104128571D01*
X158928571Y-104185714D01*
X158928571Y-104271428D01*
X158957142Y-104328571D01*
X158985714Y-104357142D01*
X159042857Y-104385714D01*
X159271428Y-104385714D01*
X158671428Y-104071428D02*
X158671428Y-104557142D01*
X158642857Y-104614285D01*
X158614285Y-104642857D01*
X158557142Y-104671428D01*
X158442857Y-104671428D01*
X158385714Y-104642857D01*
X158357142Y-104614285D01*
X158328571Y-104557142D01*
X158328571Y-104071428D01*
X158071428Y-104642857D02*
X157985714Y-104671428D01*
X157842857Y-104671428D01*
X157785714Y-104642857D01*
X157757142Y-104614285D01*
X157728571Y-104557142D01*
X157728571Y-104500000D01*
X157757142Y-104442857D01*
X157785714Y-104414285D01*
X157842857Y-104385714D01*
X157957142Y-104357142D01*
X158014285Y-104328571D01*
X158042857Y-104300000D01*
X158071428Y-104242857D01*
X158071428Y-104185714D01*
X158042857Y-104128571D01*
X158014285Y-104100000D01*
X157957142Y-104071428D01*
X157814285Y-104071428D01*
X157728571Y-104100000D01*
X157471428Y-104671428D02*
X157471428Y-104071428D01*
X157242857Y-104071428D01*
X157185714Y-104100000D01*
X157157142Y-104128571D01*
X157128571Y-104185714D01*
X157128571Y-104271428D01*
X157157142Y-104328571D01*
X157185714Y-104357142D01*
X157242857Y-104385714D01*
X157471428Y-104385714D01*
X156442857Y-104500000D02*
X156157142Y-104500000D01*
X156500000Y-104671428D02*
X156300000Y-104071428D01*
X156100000Y-104671428D01*
X155900000Y-104271428D02*
X155900000Y-104671428D01*
X155900000Y-104328571D02*
X155871428Y-104300000D01*
X155814285Y-104271428D01*
X155728571Y-104271428D01*
X155671428Y-104300000D01*
X155642857Y-104357142D01*
X155642857Y-104671428D01*
X155442857Y-104271428D02*
X155214285Y-104271428D01*
X155357142Y-104071428D02*
X155357142Y-104585714D01*
X155328571Y-104642857D01*
X155271428Y-104671428D01*
X155214285Y-104671428D01*
X154785714Y-104642857D02*
X154842857Y-104671428D01*
X154957142Y-104671428D01*
X155014285Y-104642857D01*
X155042857Y-104585714D01*
X155042857Y-104357142D01*
X155014285Y-104300000D01*
X154957142Y-104271428D01*
X154842857Y-104271428D01*
X154785714Y-104300000D01*
X154757142Y-104357142D01*
X154757142Y-104414285D01*
X155042857Y-104471428D01*
X154500000Y-104271428D02*
X154500000Y-104671428D01*
X154500000Y-104328571D02*
X154471428Y-104300000D01*
X154414285Y-104271428D01*
X154328571Y-104271428D01*
X154271428Y-104300000D01*
X154242857Y-104357142D01*
X154242857Y-104671428D01*
X153957142Y-104271428D02*
X153957142Y-104671428D01*
X153957142Y-104328571D02*
X153928571Y-104300000D01*
X153871428Y-104271428D01*
X153785714Y-104271428D01*
X153728571Y-104300000D01*
X153700000Y-104357142D01*
X153700000Y-104671428D01*
X153157142Y-104671428D02*
X153157142Y-104357142D01*
X153185714Y-104300000D01*
X153242857Y-104271428D01*
X153357142Y-104271428D01*
X153414285Y-104300000D01*
X153157142Y-104642857D02*
X153214285Y-104671428D01*
X153357142Y-104671428D01*
X153414285Y-104642857D01*
X153442857Y-104585714D01*
X153442857Y-104528571D01*
X153414285Y-104471428D01*
X153357142Y-104442857D01*
X153214285Y-104442857D01*
X153157142Y-104414285D01*
X152214285Y-104357142D02*
X152128571Y-104385714D01*
X152100000Y-104414285D01*
X152071428Y-104471428D01*
X152071428Y-104557142D01*
X152100000Y-104614285D01*
X152128571Y-104642857D01*
X152185714Y-104671428D01*
X152414285Y-104671428D01*
X152414285Y-104071428D01*
X152214285Y-104071428D01*
X152157142Y-104100000D01*
X152128571Y-104128571D01*
X152100000Y-104185714D01*
X152100000Y-104242857D01*
X152128571Y-104300000D01*
X152157142Y-104328571D01*
X152214285Y-104357142D01*
X152414285Y-104357142D01*
X151728571Y-104671428D02*
X151785714Y-104642857D01*
X151814285Y-104614285D01*
X151842857Y-104557142D01*
X151842857Y-104385714D01*
X151814285Y-104328571D01*
X151785714Y-104300000D01*
X151728571Y-104271428D01*
X151642857Y-104271428D01*
X151585714Y-104300000D01*
X151557142Y-104328571D01*
X151528571Y-104385714D01*
X151528571Y-104557142D01*
X151557142Y-104614285D01*
X151585714Y-104642857D01*
X151642857Y-104671428D01*
X151728571Y-104671428D01*
X151014285Y-104671428D02*
X151014285Y-104357142D01*
X151042857Y-104300000D01*
X151100000Y-104271428D01*
X151214285Y-104271428D01*
X151271428Y-104300000D01*
X151014285Y-104642857D02*
X151071428Y-104671428D01*
X151214285Y-104671428D01*
X151271428Y-104642857D01*
X151300000Y-104585714D01*
X151300000Y-104528571D01*
X151271428Y-104471428D01*
X151214285Y-104442857D01*
X151071428Y-104442857D01*
X151014285Y-104414285D01*
X150728571Y-104671428D02*
X150728571Y-104271428D01*
X150728571Y-104385714D02*
X150700000Y-104328571D01*
X150671428Y-104300000D01*
X150614285Y-104271428D01*
X150557142Y-104271428D01*
X150100000Y-104671428D02*
X150100000Y-104071428D01*
X150100000Y-104642857D02*
X150157142Y-104671428D01*
X150271428Y-104671428D01*
X150328571Y-104642857D01*
X150357142Y-104614285D01*
X150385714Y-104557142D01*
X150385714Y-104385714D01*
X150357142Y-104328571D01*
X150328571Y-104300000D01*
X150271428Y-104271428D01*
X150157142Y-104271428D01*
X150100000Y-104300000D01*
X149357142Y-104442857D02*
X148900000Y-104442857D01*
X148614285Y-104442857D02*
X148157142Y-104442857D01*
X147414285Y-104671428D02*
X147414285Y-104071428D01*
X147214285Y-104500000D01*
X147014285Y-104071428D01*
X147014285Y-104671428D01*
X146642857Y-104671428D02*
X146700000Y-104642857D01*
X146728571Y-104614285D01*
X146757142Y-104557142D01*
X146757142Y-104385714D01*
X146728571Y-104328571D01*
X146700000Y-104300000D01*
X146642857Y-104271428D01*
X146557142Y-104271428D01*
X146500000Y-104300000D01*
X146471428Y-104328571D01*
X146442857Y-104385714D01*
X146442857Y-104557142D01*
X146471428Y-104614285D01*
X146500000Y-104642857D01*
X146557142Y-104671428D01*
X146642857Y-104671428D01*
X146100000Y-104671428D02*
X146157142Y-104642857D01*
X146185714Y-104585714D01*
X146185714Y-104071428D01*
X145642857Y-104642857D02*
X145700000Y-104671428D01*
X145814285Y-104671428D01*
X145871428Y-104642857D01*
X145900000Y-104585714D01*
X145900000Y-104357142D01*
X145871428Y-104300000D01*
X145814285Y-104271428D01*
X145700000Y-104271428D01*
X145642857Y-104300000D01*
X145614285Y-104357142D01*
X145614285Y-104414285D01*
X145900000Y-104471428D01*
X145414285Y-104671428D02*
X145100000Y-104271428D01*
X145414285Y-104271428D02*
X145100000Y-104671428D01*
X144100000Y-104671428D02*
X144442857Y-104671428D01*
X144271428Y-104671428D02*
X144271428Y-104071428D01*
X144328571Y-104157142D01*
X144385714Y-104214285D01*
X144442857Y-104242857D01*
X143585714Y-104271428D02*
X143585714Y-104671428D01*
X143728571Y-104042857D02*
X143871428Y-104471428D01*
X143500000Y-104471428D01*
X142985714Y-104071428D02*
X143271428Y-104071428D01*
X143300000Y-104357142D01*
X143271428Y-104328571D01*
X143214285Y-104300000D01*
X143071428Y-104300000D01*
X143014285Y-104328571D01*
X142985714Y-104357142D01*
X142957142Y-104414285D01*
X142957142Y-104557142D01*
X142985714Y-104614285D01*
X143014285Y-104642857D01*
X143071428Y-104671428D01*
X143214285Y-104671428D01*
X143271428Y-104642857D01*
X143300000Y-104614285D01*
X142728571Y-104128571D02*
X142700000Y-104100000D01*
X142642857Y-104071428D01*
X142500000Y-104071428D01*
X142442857Y-104100000D01*
X142414285Y-104128571D01*
X142385714Y-104185714D01*
X142385714Y-104242857D01*
X142414285Y-104328571D01*
X142757142Y-104671428D01*
X142385714Y-104671428D01*
X142014285Y-104071428D02*
X141957142Y-104071428D01*
X141900000Y-104100000D01*
X141871428Y-104128571D01*
X141842857Y-104185714D01*
X141814285Y-104300000D01*
X141814285Y-104442857D01*
X141842857Y-104557142D01*
X141871428Y-104614285D01*
X141900000Y-104642857D01*
X141957142Y-104671428D01*
X142014285Y-104671428D01*
X142071428Y-104642857D01*
X142100000Y-104614285D01*
X142128571Y-104557142D01*
X142157142Y-104442857D01*
X142157142Y-104300000D01*
X142128571Y-104185714D01*
X142100000Y-104128571D01*
X142071428Y-104100000D01*
X142014285Y-104071428D01*
X141442857Y-104071428D02*
X141385714Y-104071428D01*
X141328571Y-104100000D01*
X141300000Y-104128571D01*
X141271428Y-104185714D01*
X141242857Y-104300000D01*
X141242857Y-104442857D01*
X141271428Y-104557142D01*
X141300000Y-104614285D01*
X141328571Y-104642857D01*
X141385714Y-104671428D01*
X141442857Y-104671428D01*
X141500000Y-104642857D01*
X141528571Y-104614285D01*
X141557142Y-104557142D01*
X141585714Y-104442857D01*
X141585714Y-104300000D01*
X141557142Y-104185714D01*
X141528571Y-104128571D01*
X141500000Y-104100000D01*
X141442857Y-104071428D01*
X140871428Y-104071428D02*
X140814285Y-104071428D01*
X140757142Y-104100000D01*
X140728571Y-104128571D01*
X140700000Y-104185714D01*
X140671428Y-104300000D01*
X140671428Y-104442857D01*
X140700000Y-104557142D01*
X140728571Y-104614285D01*
X140757142Y-104642857D01*
X140814285Y-104671428D01*
X140871428Y-104671428D01*
X140928571Y-104642857D01*
X140957142Y-104614285D01*
X140985714Y-104557142D01*
X141014285Y-104442857D01*
X141014285Y-104300000D01*
X140985714Y-104185714D01*
X140957142Y-104128571D01*
X140928571Y-104100000D01*
X140871428Y-104071428D01*
X140300000Y-104071428D02*
X140242857Y-104071428D01*
X140185714Y-104100000D01*
X140157142Y-104128571D01*
X140128571Y-104185714D01*
X140100000Y-104300000D01*
X140100000Y-104442857D01*
X140128571Y-104557142D01*
X140157142Y-104614285D01*
X140185714Y-104642857D01*
X140242857Y-104671428D01*
X140300000Y-104671428D01*
X140357142Y-104642857D01*
X140385714Y-104614285D01*
X140414285Y-104557142D01*
X140442857Y-104442857D01*
X140442857Y-104300000D01*
X140414285Y-104185714D01*
X140385714Y-104128571D01*
X140357142Y-104100000D01*
X140300000Y-104071428D01*
X139528571Y-104671428D02*
X139871428Y-104671428D01*
X139700000Y-104671428D02*
X139700000Y-104071428D01*
X139757142Y-104157142D01*
X139814285Y-104214285D01*
X139871428Y-104242857D01*
X138957142Y-104671428D02*
X139300000Y-104671428D01*
X139128571Y-104671428D02*
X139128571Y-104071428D01*
X139185714Y-104157142D01*
X139242857Y-104214285D01*
X139300000Y-104242857D01*
M02*
