%TF.GenerationSoftware,KiCad,Pcbnew,5.1.6+dfsg1-1~bpo10+1*%
%TF.CreationDate,2021-03-29T13:25:19-04:00*%
%TF.ProjectId,RUSP_Antenna,52555350-5f41-46e7-9465-6e6e612e6b69,rev?*%
%TF.SameCoordinates,Original*%
%TF.FileFunction,Copper,L1,Top*%
%TF.FilePolarity,Positive*%
%FSLAX46Y46*%
G04 Gerber Fmt 4.6, Leading zero omitted, Abs format (unit mm)*
G04 Created by KiCad (PCBNEW 5.1.6+dfsg1-1~bpo10+1) date 2021-03-29 13:25:19*
%MOMM*%
%LPD*%
G01*
G04 APERTURE LIST*
%TA.AperFunction,SMDPad,CuDef*%
%ADD10C,0.750000*%
%TD*%
%TA.AperFunction,SMDPad,CuDef*%
%ADD11R,1.050000X2.200000*%
%TD*%
%TA.AperFunction,SMDPad,CuDef*%
%ADD12R,1.000000X1.000000*%
%TD*%
%TA.AperFunction,SMDPad,CuDef*%
%ADD13R,2.600000X5.600000*%
%TD*%
%TA.AperFunction,SMDPad,CuDef*%
%ADD14R,1.400000X3.700000*%
%TD*%
%TA.AperFunction,Conductor*%
%ADD15C,0.250000*%
%TD*%
%TA.AperFunction,Conductor*%
%ADD16C,0.254000*%
%TD*%
G04 APERTURE END LIST*
%TO.P,C2,2*%
%TO.N,GNDA*%
%TA.AperFunction,SMDPad,CuDef*%
G36*
G01*
X133490000Y-98372500D02*
X133490000Y-98027500D01*
G75*
G02*
X133637500Y-97880000I147500J0D01*
G01*
X133932500Y-97880000D01*
G75*
G02*
X134080000Y-98027500I0J-147500D01*
G01*
X134080000Y-98372500D01*
G75*
G02*
X133932500Y-98520000I-147500J0D01*
G01*
X133637500Y-98520000D01*
G75*
G02*
X133490000Y-98372500I0J147500D01*
G01*
G37*
%TD.AperFunction*%
%TO.P,C2,1*%
%TO.N,Net-(AE1-Pad1)*%
%TA.AperFunction,SMDPad,CuDef*%
G36*
G01*
X132520000Y-98372500D02*
X132520000Y-98027500D01*
G75*
G02*
X132667500Y-97880000I147500J0D01*
G01*
X132962500Y-97880000D01*
G75*
G02*
X133110000Y-98027500I0J-147500D01*
G01*
X133110000Y-98372500D01*
G75*
G02*
X132962500Y-98520000I-147500J0D01*
G01*
X132667500Y-98520000D01*
G75*
G02*
X132520000Y-98372500I0J147500D01*
G01*
G37*
%TD.AperFunction*%
%TD*%
%TO.P,C1,1*%
%TO.N,Net-(AE1-Pad1)*%
%TA.AperFunction,SMDPad,CuDef*%
G36*
G01*
X132677500Y-98920000D02*
X133022500Y-98920000D01*
G75*
G02*
X133170000Y-99067500I0J-147500D01*
G01*
X133170000Y-99362500D01*
G75*
G02*
X133022500Y-99510000I-147500J0D01*
G01*
X132677500Y-99510000D01*
G75*
G02*
X132530000Y-99362500I0J147500D01*
G01*
X132530000Y-99067500D01*
G75*
G02*
X132677500Y-98920000I147500J0D01*
G01*
G37*
%TD.AperFunction*%
%TO.P,C1,2*%
%TO.N,Net-(C1-Pad2)*%
%TA.AperFunction,SMDPad,CuDef*%
G36*
G01*
X132677500Y-99890000D02*
X133022500Y-99890000D01*
G75*
G02*
X133170000Y-100037500I0J-147500D01*
G01*
X133170000Y-100332500D01*
G75*
G02*
X133022500Y-100480000I-147500J0D01*
G01*
X132677500Y-100480000D01*
G75*
G02*
X132530000Y-100332500I0J147500D01*
G01*
X132530000Y-100037500D01*
G75*
G02*
X132677500Y-99890000I147500J0D01*
G01*
G37*
%TD.AperFunction*%
%TD*%
D10*
%TO.P,FID1,*%
%TO.N,*%
X125750000Y-103750000D03*
%TD*%
%TO.P,FID2,*%
%TO.N,*%
X163750000Y-103750000D03*
%TD*%
D11*
%TO.P,J1,2*%
%TO.N,GNDA*%
X134325000Y-102950000D03*
X131375000Y-102950000D03*
D12*
X132850000Y-104450000D03*
%TO.P,J1,1*%
%TO.N,Net-(C1-Pad2)*%
X132850000Y-101450000D03*
%TD*%
%TO.P,L1,1*%
%TO.N,Net-(AE1-Pad1)*%
%TA.AperFunction,SMDPad,CuDef*%
G36*
G01*
X132520000Y-97222500D02*
X132520000Y-96877500D01*
G75*
G02*
X132667500Y-96730000I147500J0D01*
G01*
X132962500Y-96730000D01*
G75*
G02*
X133110000Y-96877500I0J-147500D01*
G01*
X133110000Y-97222500D01*
G75*
G02*
X132962500Y-97370000I-147500J0D01*
G01*
X132667500Y-97370000D01*
G75*
G02*
X132520000Y-97222500I0J147500D01*
G01*
G37*
%TD.AperFunction*%
%TO.P,L1,2*%
%TO.N,GNDA*%
%TA.AperFunction,SMDPad,CuDef*%
G36*
G01*
X133490000Y-97222500D02*
X133490000Y-96877500D01*
G75*
G02*
X133637500Y-96730000I147500J0D01*
G01*
X133932500Y-96730000D01*
G75*
G02*
X134080000Y-96877500I0J-147500D01*
G01*
X134080000Y-97222500D01*
G75*
G02*
X133932500Y-97370000I-147500J0D01*
G01*
X133637500Y-97370000D01*
G75*
G02*
X133490000Y-97222500I0J147500D01*
G01*
G37*
%TD.AperFunction*%
%TD*%
D13*
%TO.P,AE1,*%
%TO.N,*%
X163800000Y-92250000D03*
D14*
%TO.P,AE1,1*%
%TO.N,Net-(AE1-Pad1)*%
X132300000Y-93250000D03*
D13*
%TO.P,AE1,*%
%TO.N,*%
X125800000Y-92250000D03*
D14*
%TO.P,AE1,2*%
%TO.N,GNDA*%
X134300000Y-93250000D03*
%TD*%
D15*
%TO.N,Net-(AE1-Pad1)*%
X132300000Y-93250000D02*
X132300000Y-94350000D01*
X132300000Y-94350000D02*
X132850000Y-94900000D01*
X132850000Y-94900000D02*
X132850000Y-97000000D01*
X132850000Y-97000000D02*
X132850000Y-98250000D01*
X132850000Y-98250000D02*
X132850000Y-99200000D01*
%TO.N,GNDA*%
X134300000Y-93250000D02*
X134300000Y-94300000D01*
X134300000Y-94300000D02*
X133700000Y-94900000D01*
X133700000Y-94900000D02*
X133700000Y-97050000D01*
X133700000Y-97050000D02*
X133700000Y-98250000D01*
X133785000Y-98200000D02*
X133785000Y-99985000D01*
X134250000Y-104500000D02*
X134250000Y-104899990D01*
X133100010Y-104899990D02*
X131250000Y-104899990D01*
X134250000Y-104899990D02*
X133100010Y-104899990D01*
X132850000Y-104899990D02*
X133100010Y-104899990D01*
X132850000Y-104450000D02*
X132850000Y-104899990D01*
%TO.N,Net-(C1-Pad2)*%
X132850000Y-101450000D02*
X132850000Y-100200000D01*
%TD*%
D16*
%TO.N,GNDA*%
G36*
X132201418Y-99362500D02*
G01*
X132210566Y-99455379D01*
X132237658Y-99544689D01*
X132281652Y-99626997D01*
X132340859Y-99699141D01*
X132341906Y-99700000D01*
X132340859Y-99700859D01*
X132281652Y-99773003D01*
X132237658Y-99855311D01*
X132210566Y-99944621D01*
X132201418Y-100037500D01*
X132201418Y-100332500D01*
X132210566Y-100425379D01*
X132237658Y-100514689D01*
X132281652Y-100596997D01*
X132305307Y-100625820D01*
X132285897Y-100627732D01*
X132224257Y-100646430D01*
X132167450Y-100676794D01*
X132117657Y-100717657D01*
X132076794Y-100767450D01*
X132046430Y-100824257D01*
X132027732Y-100885897D01*
X132021418Y-100950000D01*
X132021418Y-101223886D01*
X131900000Y-101211928D01*
X131660750Y-101215000D01*
X131502000Y-101373750D01*
X131502000Y-102823000D01*
X132376250Y-102823000D01*
X132535000Y-102664250D01*
X132536455Y-102278582D01*
X133163545Y-102278582D01*
X133165000Y-102664250D01*
X133323750Y-102823000D01*
X134198000Y-102823000D01*
X134198000Y-101373750D01*
X134452000Y-101373750D01*
X134452000Y-102823000D01*
X135326250Y-102823000D01*
X135485000Y-102664250D01*
X135488072Y-101850000D01*
X135475812Y-101725518D01*
X135439502Y-101605820D01*
X135380537Y-101495506D01*
X135301185Y-101398815D01*
X135204494Y-101319463D01*
X135094180Y-101260498D01*
X134974482Y-101224188D01*
X134850000Y-101211928D01*
X134610750Y-101215000D01*
X134452000Y-101373750D01*
X134198000Y-101373750D01*
X134039250Y-101215000D01*
X133800000Y-101211928D01*
X133678582Y-101223886D01*
X133678582Y-100950000D01*
X133672268Y-100885897D01*
X133653570Y-100824257D01*
X133623206Y-100767450D01*
X133582343Y-100717657D01*
X133532550Y-100676794D01*
X133475743Y-100646430D01*
X133414103Y-100627732D01*
X133394693Y-100625820D01*
X133418348Y-100596997D01*
X133462342Y-100514689D01*
X133489434Y-100425379D01*
X133498582Y-100332500D01*
X133498582Y-100037500D01*
X133489434Y-99944621D01*
X133462342Y-99855311D01*
X133418348Y-99773003D01*
X133359141Y-99700859D01*
X133358094Y-99700000D01*
X133359141Y-99699141D01*
X133418348Y-99626997D01*
X133462342Y-99544689D01*
X133489434Y-99455379D01*
X133498582Y-99362500D01*
X133498582Y-99155222D01*
X133499250Y-99155000D01*
X133527250Y-99127000D01*
X134042750Y-99127000D01*
X134070750Y-99155000D01*
X134080000Y-99158072D01*
X134204482Y-99145812D01*
X134266497Y-99127000D01*
X164998000Y-99127000D01*
X164998000Y-104998000D01*
X133983345Y-104998000D01*
X133988072Y-104950000D01*
X133985000Y-104735750D01*
X133935581Y-104686331D01*
X134039250Y-104685000D01*
X134198000Y-104526250D01*
X134198000Y-103077000D01*
X134452000Y-103077000D01*
X134452000Y-104526250D01*
X134610750Y-104685000D01*
X134850000Y-104688072D01*
X134974482Y-104675812D01*
X135094180Y-104639502D01*
X135204494Y-104580537D01*
X135301185Y-104501185D01*
X135380537Y-104404494D01*
X135439502Y-104294180D01*
X135475812Y-104174482D01*
X135488072Y-104050000D01*
X135486615Y-103663623D01*
X162873000Y-103663623D01*
X162873000Y-103836377D01*
X162906703Y-104005811D01*
X162972813Y-104165415D01*
X163068790Y-104309055D01*
X163190945Y-104431210D01*
X163334585Y-104527187D01*
X163494189Y-104593297D01*
X163663623Y-104627000D01*
X163836377Y-104627000D01*
X164005811Y-104593297D01*
X164165415Y-104527187D01*
X164309055Y-104431210D01*
X164431210Y-104309055D01*
X164527187Y-104165415D01*
X164593297Y-104005811D01*
X164627000Y-103836377D01*
X164627000Y-103663623D01*
X164593297Y-103494189D01*
X164527187Y-103334585D01*
X164431210Y-103190945D01*
X164309055Y-103068790D01*
X164165415Y-102972813D01*
X164005811Y-102906703D01*
X163836377Y-102873000D01*
X163663623Y-102873000D01*
X163494189Y-102906703D01*
X163334585Y-102972813D01*
X163190945Y-103068790D01*
X163068790Y-103190945D01*
X162972813Y-103334585D01*
X162906703Y-103494189D01*
X162873000Y-103663623D01*
X135486615Y-103663623D01*
X135485000Y-103235750D01*
X135326250Y-103077000D01*
X134452000Y-103077000D01*
X134198000Y-103077000D01*
X133323750Y-103077000D01*
X133165000Y-103235750D01*
X133164703Y-103314585D01*
X133135750Y-103315000D01*
X132977000Y-103473750D01*
X132977000Y-104323000D01*
X132997000Y-104323000D01*
X132997000Y-104577000D01*
X132977000Y-104577000D01*
X132977000Y-104998000D01*
X132723000Y-104998000D01*
X132723000Y-104577000D01*
X132703000Y-104577000D01*
X132703000Y-104323000D01*
X132723000Y-104323000D01*
X132723000Y-103473750D01*
X132564250Y-103315000D01*
X132535297Y-103314585D01*
X132535000Y-103235750D01*
X132376250Y-103077000D01*
X131502000Y-103077000D01*
X131502000Y-104526250D01*
X131660750Y-104685000D01*
X131764419Y-104686331D01*
X131715000Y-104735750D01*
X131711928Y-104950000D01*
X131716655Y-104998000D01*
X124502000Y-104998000D01*
X124502000Y-103663623D01*
X124873000Y-103663623D01*
X124873000Y-103836377D01*
X124906703Y-104005811D01*
X124972813Y-104165415D01*
X125068790Y-104309055D01*
X125190945Y-104431210D01*
X125334585Y-104527187D01*
X125494189Y-104593297D01*
X125663623Y-104627000D01*
X125836377Y-104627000D01*
X126005811Y-104593297D01*
X126165415Y-104527187D01*
X126309055Y-104431210D01*
X126431210Y-104309055D01*
X126527187Y-104165415D01*
X126574993Y-104050000D01*
X130211928Y-104050000D01*
X130224188Y-104174482D01*
X130260498Y-104294180D01*
X130319463Y-104404494D01*
X130398815Y-104501185D01*
X130495506Y-104580537D01*
X130605820Y-104639502D01*
X130725518Y-104675812D01*
X130850000Y-104688072D01*
X131089250Y-104685000D01*
X131248000Y-104526250D01*
X131248000Y-103077000D01*
X130373750Y-103077000D01*
X130215000Y-103235750D01*
X130211928Y-104050000D01*
X126574993Y-104050000D01*
X126593297Y-104005811D01*
X126627000Y-103836377D01*
X126627000Y-103663623D01*
X126593297Y-103494189D01*
X126527187Y-103334585D01*
X126431210Y-103190945D01*
X126309055Y-103068790D01*
X126165415Y-102972813D01*
X126005811Y-102906703D01*
X125836377Y-102873000D01*
X125663623Y-102873000D01*
X125494189Y-102906703D01*
X125334585Y-102972813D01*
X125190945Y-103068790D01*
X125068790Y-103190945D01*
X124972813Y-103334585D01*
X124906703Y-103494189D01*
X124873000Y-103663623D01*
X124502000Y-103663623D01*
X124502000Y-101850000D01*
X130211928Y-101850000D01*
X130215000Y-102664250D01*
X130373750Y-102823000D01*
X131248000Y-102823000D01*
X131248000Y-101373750D01*
X131089250Y-101215000D01*
X130850000Y-101211928D01*
X130725518Y-101224188D01*
X130605820Y-101260498D01*
X130495506Y-101319463D01*
X130398815Y-101398815D01*
X130319463Y-101495506D01*
X130260498Y-101605820D01*
X130224188Y-101725518D01*
X130211928Y-101850000D01*
X124502000Y-101850000D01*
X124502000Y-99127000D01*
X132201418Y-99127000D01*
X132201418Y-99362500D01*
G37*
X132201418Y-99362500D02*
X132210566Y-99455379D01*
X132237658Y-99544689D01*
X132281652Y-99626997D01*
X132340859Y-99699141D01*
X132341906Y-99700000D01*
X132340859Y-99700859D01*
X132281652Y-99773003D01*
X132237658Y-99855311D01*
X132210566Y-99944621D01*
X132201418Y-100037500D01*
X132201418Y-100332500D01*
X132210566Y-100425379D01*
X132237658Y-100514689D01*
X132281652Y-100596997D01*
X132305307Y-100625820D01*
X132285897Y-100627732D01*
X132224257Y-100646430D01*
X132167450Y-100676794D01*
X132117657Y-100717657D01*
X132076794Y-100767450D01*
X132046430Y-100824257D01*
X132027732Y-100885897D01*
X132021418Y-100950000D01*
X132021418Y-101223886D01*
X131900000Y-101211928D01*
X131660750Y-101215000D01*
X131502000Y-101373750D01*
X131502000Y-102823000D01*
X132376250Y-102823000D01*
X132535000Y-102664250D01*
X132536455Y-102278582D01*
X133163545Y-102278582D01*
X133165000Y-102664250D01*
X133323750Y-102823000D01*
X134198000Y-102823000D01*
X134198000Y-101373750D01*
X134452000Y-101373750D01*
X134452000Y-102823000D01*
X135326250Y-102823000D01*
X135485000Y-102664250D01*
X135488072Y-101850000D01*
X135475812Y-101725518D01*
X135439502Y-101605820D01*
X135380537Y-101495506D01*
X135301185Y-101398815D01*
X135204494Y-101319463D01*
X135094180Y-101260498D01*
X134974482Y-101224188D01*
X134850000Y-101211928D01*
X134610750Y-101215000D01*
X134452000Y-101373750D01*
X134198000Y-101373750D01*
X134039250Y-101215000D01*
X133800000Y-101211928D01*
X133678582Y-101223886D01*
X133678582Y-100950000D01*
X133672268Y-100885897D01*
X133653570Y-100824257D01*
X133623206Y-100767450D01*
X133582343Y-100717657D01*
X133532550Y-100676794D01*
X133475743Y-100646430D01*
X133414103Y-100627732D01*
X133394693Y-100625820D01*
X133418348Y-100596997D01*
X133462342Y-100514689D01*
X133489434Y-100425379D01*
X133498582Y-100332500D01*
X133498582Y-100037500D01*
X133489434Y-99944621D01*
X133462342Y-99855311D01*
X133418348Y-99773003D01*
X133359141Y-99700859D01*
X133358094Y-99700000D01*
X133359141Y-99699141D01*
X133418348Y-99626997D01*
X133462342Y-99544689D01*
X133489434Y-99455379D01*
X133498582Y-99362500D01*
X133498582Y-99155222D01*
X133499250Y-99155000D01*
X133527250Y-99127000D01*
X134042750Y-99127000D01*
X134070750Y-99155000D01*
X134080000Y-99158072D01*
X134204482Y-99145812D01*
X134266497Y-99127000D01*
X164998000Y-99127000D01*
X164998000Y-104998000D01*
X133983345Y-104998000D01*
X133988072Y-104950000D01*
X133985000Y-104735750D01*
X133935581Y-104686331D01*
X134039250Y-104685000D01*
X134198000Y-104526250D01*
X134198000Y-103077000D01*
X134452000Y-103077000D01*
X134452000Y-104526250D01*
X134610750Y-104685000D01*
X134850000Y-104688072D01*
X134974482Y-104675812D01*
X135094180Y-104639502D01*
X135204494Y-104580537D01*
X135301185Y-104501185D01*
X135380537Y-104404494D01*
X135439502Y-104294180D01*
X135475812Y-104174482D01*
X135488072Y-104050000D01*
X135486615Y-103663623D01*
X162873000Y-103663623D01*
X162873000Y-103836377D01*
X162906703Y-104005811D01*
X162972813Y-104165415D01*
X163068790Y-104309055D01*
X163190945Y-104431210D01*
X163334585Y-104527187D01*
X163494189Y-104593297D01*
X163663623Y-104627000D01*
X163836377Y-104627000D01*
X164005811Y-104593297D01*
X164165415Y-104527187D01*
X164309055Y-104431210D01*
X164431210Y-104309055D01*
X164527187Y-104165415D01*
X164593297Y-104005811D01*
X164627000Y-103836377D01*
X164627000Y-103663623D01*
X164593297Y-103494189D01*
X164527187Y-103334585D01*
X164431210Y-103190945D01*
X164309055Y-103068790D01*
X164165415Y-102972813D01*
X164005811Y-102906703D01*
X163836377Y-102873000D01*
X163663623Y-102873000D01*
X163494189Y-102906703D01*
X163334585Y-102972813D01*
X163190945Y-103068790D01*
X163068790Y-103190945D01*
X162972813Y-103334585D01*
X162906703Y-103494189D01*
X162873000Y-103663623D01*
X135486615Y-103663623D01*
X135485000Y-103235750D01*
X135326250Y-103077000D01*
X134452000Y-103077000D01*
X134198000Y-103077000D01*
X133323750Y-103077000D01*
X133165000Y-103235750D01*
X133164703Y-103314585D01*
X133135750Y-103315000D01*
X132977000Y-103473750D01*
X132977000Y-104323000D01*
X132997000Y-104323000D01*
X132997000Y-104577000D01*
X132977000Y-104577000D01*
X132977000Y-104998000D01*
X132723000Y-104998000D01*
X132723000Y-104577000D01*
X132703000Y-104577000D01*
X132703000Y-104323000D01*
X132723000Y-104323000D01*
X132723000Y-103473750D01*
X132564250Y-103315000D01*
X132535297Y-103314585D01*
X132535000Y-103235750D01*
X132376250Y-103077000D01*
X131502000Y-103077000D01*
X131502000Y-104526250D01*
X131660750Y-104685000D01*
X131764419Y-104686331D01*
X131715000Y-104735750D01*
X131711928Y-104950000D01*
X131716655Y-104998000D01*
X124502000Y-104998000D01*
X124502000Y-103663623D01*
X124873000Y-103663623D01*
X124873000Y-103836377D01*
X124906703Y-104005811D01*
X124972813Y-104165415D01*
X125068790Y-104309055D01*
X125190945Y-104431210D01*
X125334585Y-104527187D01*
X125494189Y-104593297D01*
X125663623Y-104627000D01*
X125836377Y-104627000D01*
X126005811Y-104593297D01*
X126165415Y-104527187D01*
X126309055Y-104431210D01*
X126431210Y-104309055D01*
X126527187Y-104165415D01*
X126574993Y-104050000D01*
X130211928Y-104050000D01*
X130224188Y-104174482D01*
X130260498Y-104294180D01*
X130319463Y-104404494D01*
X130398815Y-104501185D01*
X130495506Y-104580537D01*
X130605820Y-104639502D01*
X130725518Y-104675812D01*
X130850000Y-104688072D01*
X131089250Y-104685000D01*
X131248000Y-104526250D01*
X131248000Y-103077000D01*
X130373750Y-103077000D01*
X130215000Y-103235750D01*
X130211928Y-104050000D01*
X126574993Y-104050000D01*
X126593297Y-104005811D01*
X126627000Y-103836377D01*
X126627000Y-103663623D01*
X126593297Y-103494189D01*
X126527187Y-103334585D01*
X126431210Y-103190945D01*
X126309055Y-103068790D01*
X126165415Y-102972813D01*
X126005811Y-102906703D01*
X125836377Y-102873000D01*
X125663623Y-102873000D01*
X125494189Y-102906703D01*
X125334585Y-102972813D01*
X125190945Y-103068790D01*
X125068790Y-103190945D01*
X124972813Y-103334585D01*
X124906703Y-103494189D01*
X124873000Y-103663623D01*
X124502000Y-103663623D01*
X124502000Y-101850000D01*
X130211928Y-101850000D01*
X130215000Y-102664250D01*
X130373750Y-102823000D01*
X131248000Y-102823000D01*
X131248000Y-101373750D01*
X131089250Y-101215000D01*
X130850000Y-101211928D01*
X130725518Y-101224188D01*
X130605820Y-101260498D01*
X130495506Y-101319463D01*
X130398815Y-101398815D01*
X130319463Y-101495506D01*
X130260498Y-101605820D01*
X130224188Y-101725518D01*
X130211928Y-101850000D01*
X124502000Y-101850000D01*
X124502000Y-99127000D01*
X132201418Y-99127000D01*
X132201418Y-99362500D01*
%TD*%
M02*
