%TF.GenerationSoftware,KiCad,Pcbnew,5.1.6+dfsg1-1~bpo10+1*%
%TF.CreationDate,2021-03-29T13:25:19-04:00*%
%TF.ProjectId,RUSP_Antenna,52555350-5f41-46e7-9465-6e6e612e6b69,rev?*%
%TF.SameCoordinates,Original*%
%TF.FileFunction,Legend,Top*%
%TF.FilePolarity,Positive*%
%FSLAX46Y46*%
G04 Gerber Fmt 4.6, Leading zero omitted, Abs format (unit mm)*
G04 Created by KiCad (PCBNEW 5.1.6+dfsg1-1~bpo10+1) date 2021-03-29 13:25:19*
%MOMM*%
%LPD*%
G01*
G04 APERTURE LIST*
%ADD10C,0.150000*%
%ADD11C,0.010000*%
%ADD12C,0.120000*%
G04 APERTURE END LIST*
D10*
X145183333Y-104616666D02*
X144950000Y-104283333D01*
X144783333Y-104616666D02*
X144783333Y-103916666D01*
X145050000Y-103916666D01*
X145116666Y-103950000D01*
X145150000Y-103983333D01*
X145183333Y-104050000D01*
X145183333Y-104150000D01*
X145150000Y-104216666D01*
X145116666Y-104250000D01*
X145050000Y-104283333D01*
X144783333Y-104283333D01*
X145483333Y-103916666D02*
X145483333Y-104483333D01*
X145516666Y-104550000D01*
X145550000Y-104583333D01*
X145616666Y-104616666D01*
X145750000Y-104616666D01*
X145816666Y-104583333D01*
X145850000Y-104550000D01*
X145883333Y-104483333D01*
X145883333Y-103916666D01*
X146183333Y-104583333D02*
X146283333Y-104616666D01*
X146450000Y-104616666D01*
X146516666Y-104583333D01*
X146550000Y-104550000D01*
X146583333Y-104483333D01*
X146583333Y-104416666D01*
X146550000Y-104350000D01*
X146516666Y-104316666D01*
X146450000Y-104283333D01*
X146316666Y-104250000D01*
X146250000Y-104216666D01*
X146216666Y-104183333D01*
X146183333Y-104116666D01*
X146183333Y-104050000D01*
X146216666Y-103983333D01*
X146250000Y-103950000D01*
X146316666Y-103916666D01*
X146483333Y-103916666D01*
X146583333Y-103950000D01*
X146883333Y-104616666D02*
X146883333Y-103916666D01*
X147150000Y-103916666D01*
X147216666Y-103950000D01*
X147250000Y-103983333D01*
X147283333Y-104050000D01*
X147283333Y-104150000D01*
X147250000Y-104216666D01*
X147216666Y-104250000D01*
X147150000Y-104283333D01*
X146883333Y-104283333D01*
X149150000Y-104416666D02*
X149483333Y-104416666D01*
X149083333Y-104616666D02*
X149316666Y-103916666D01*
X149550000Y-104616666D01*
X149783333Y-104616666D02*
X149783333Y-103916666D01*
X150183333Y-104616666D01*
X150183333Y-103916666D01*
X150416666Y-103916666D02*
X150816666Y-103916666D01*
X150616666Y-104616666D02*
X150616666Y-103916666D01*
X151050000Y-104250000D02*
X151283333Y-104250000D01*
X151383333Y-104616666D02*
X151050000Y-104616666D01*
X151050000Y-103916666D01*
X151383333Y-103916666D01*
X151683333Y-104616666D02*
X151683333Y-103916666D01*
X152083333Y-104616666D01*
X152083333Y-103916666D01*
X152416666Y-104616666D02*
X152416666Y-103916666D01*
X152816666Y-104616666D01*
X152816666Y-103916666D01*
X153116666Y-104416666D02*
X153450000Y-104416666D01*
X153050000Y-104616666D02*
X153283333Y-103916666D01*
X153516666Y-104616666D01*
X154650000Y-104616666D02*
X154250000Y-104616666D01*
X154450000Y-104616666D02*
X154450000Y-103916666D01*
X154383333Y-104016666D01*
X154316666Y-104083333D01*
X154250000Y-104116666D01*
X155250000Y-104150000D02*
X155250000Y-104616666D01*
X155083333Y-103883333D02*
X154916666Y-104383333D01*
X155350000Y-104383333D01*
X155916666Y-103916666D02*
X155783333Y-103916666D01*
X155716666Y-103950000D01*
X155683333Y-103983333D01*
X155616666Y-104083333D01*
X155583333Y-104216666D01*
X155583333Y-104483333D01*
X155616666Y-104550000D01*
X155650000Y-104583333D01*
X155716666Y-104616666D01*
X155850000Y-104616666D01*
X155916666Y-104583333D01*
X155950000Y-104550000D01*
X155983333Y-104483333D01*
X155983333Y-104316666D01*
X155950000Y-104250000D01*
X155916666Y-104216666D01*
X155850000Y-104183333D01*
X155716666Y-104183333D01*
X155650000Y-104216666D01*
X155616666Y-104250000D01*
X155583333Y-104316666D01*
X156250000Y-103983333D02*
X156283333Y-103950000D01*
X156350000Y-103916666D01*
X156516666Y-103916666D01*
X156583333Y-103950000D01*
X156616666Y-103983333D01*
X156650000Y-104050000D01*
X156650000Y-104116666D01*
X156616666Y-104216666D01*
X156216666Y-104616666D01*
X156650000Y-104616666D01*
X157083333Y-103916666D02*
X157150000Y-103916666D01*
X157216666Y-103950000D01*
X157250000Y-103983333D01*
X157283333Y-104050000D01*
X157316666Y-104183333D01*
X157316666Y-104350000D01*
X157283333Y-104483333D01*
X157250000Y-104550000D01*
X157216666Y-104583333D01*
X157150000Y-104616666D01*
X157083333Y-104616666D01*
X157016666Y-104583333D01*
X156983333Y-104550000D01*
X156950000Y-104483333D01*
X156916666Y-104350000D01*
X156916666Y-104183333D01*
X156950000Y-104050000D01*
X156983333Y-103983333D01*
X157016666Y-103950000D01*
X157083333Y-103916666D01*
X157750000Y-103916666D02*
X157816666Y-103916666D01*
X157883333Y-103950000D01*
X157916666Y-103983333D01*
X157950000Y-104050000D01*
X157983333Y-104183333D01*
X157983333Y-104350000D01*
X157950000Y-104483333D01*
X157916666Y-104550000D01*
X157883333Y-104583333D01*
X157816666Y-104616666D01*
X157750000Y-104616666D01*
X157683333Y-104583333D01*
X157650000Y-104550000D01*
X157616666Y-104483333D01*
X157583333Y-104350000D01*
X157583333Y-104183333D01*
X157616666Y-104050000D01*
X157650000Y-103983333D01*
X157683333Y-103950000D01*
X157750000Y-103916666D01*
X158416666Y-103916666D02*
X158483333Y-103916666D01*
X158550000Y-103950000D01*
X158583333Y-103983333D01*
X158616666Y-104050000D01*
X158650000Y-104183333D01*
X158650000Y-104350000D01*
X158616666Y-104483333D01*
X158583333Y-104550000D01*
X158550000Y-104583333D01*
X158483333Y-104616666D01*
X158416666Y-104616666D01*
X158350000Y-104583333D01*
X158316666Y-104550000D01*
X158283333Y-104483333D01*
X158250000Y-104350000D01*
X158250000Y-104183333D01*
X158283333Y-104050000D01*
X158316666Y-103983333D01*
X158350000Y-103950000D01*
X158416666Y-103916666D01*
X159083333Y-103916666D02*
X159149999Y-103916666D01*
X159216666Y-103950000D01*
X159249999Y-103983333D01*
X159283333Y-104050000D01*
X159316666Y-104183333D01*
X159316666Y-104350000D01*
X159283333Y-104483333D01*
X159249999Y-104550000D01*
X159216666Y-104583333D01*
X159149999Y-104616666D01*
X159083333Y-104616666D01*
X159016666Y-104583333D01*
X158983333Y-104550000D01*
X158949999Y-104483333D01*
X158916666Y-104350000D01*
X158916666Y-104183333D01*
X158949999Y-104050000D01*
X158983333Y-103983333D01*
X159016666Y-103950000D01*
X159083333Y-103916666D01*
X159983333Y-104616666D02*
X159583333Y-104616666D01*
X159783333Y-104616666D02*
X159783333Y-103916666D01*
X159716666Y-104016666D01*
X159649999Y-104083333D01*
X159583333Y-104116666D01*
X160649999Y-104616666D02*
X160249999Y-104616666D01*
X160449999Y-104616666D02*
X160449999Y-103916666D01*
X160383333Y-104016666D01*
X160316666Y-104083333D01*
X160249999Y-104116666D01*
D11*
%TO.C,G\u002A\u002A\u002A*%
G36*
X150335052Y-99844995D02*
G01*
X150355165Y-99953484D01*
X150384885Y-100017338D01*
X150431990Y-100047110D01*
X150488750Y-100053490D01*
X150541108Y-100062938D01*
X150547211Y-100083341D01*
X150511753Y-100104365D01*
X150461141Y-100114284D01*
X150410534Y-100122018D01*
X150381873Y-100142040D01*
X150366343Y-100188242D01*
X150355128Y-100274516D01*
X150354241Y-100282752D01*
X150340941Y-100378123D01*
X150326475Y-100440236D01*
X150313503Y-100463424D01*
X150304682Y-100442020D01*
X150302391Y-100393270D01*
X150294487Y-100261915D01*
X150268748Y-100176468D01*
X150222138Y-100129641D01*
X150187643Y-100117931D01*
X150122360Y-100097661D01*
X150093404Y-100074888D01*
X150106543Y-100057758D01*
X150142012Y-100053490D01*
X150206350Y-100045245D01*
X150247519Y-100014217D01*
X150273463Y-99949400D01*
X150291199Y-99846848D01*
X150313220Y-99681196D01*
X150335052Y-99844995D01*
G37*
X150335052Y-99844995D02*
X150355165Y-99953484D01*
X150384885Y-100017338D01*
X150431990Y-100047110D01*
X150488750Y-100053490D01*
X150541108Y-100062938D01*
X150547211Y-100083341D01*
X150511753Y-100104365D01*
X150461141Y-100114284D01*
X150410534Y-100122018D01*
X150381873Y-100142040D01*
X150366343Y-100188242D01*
X150355128Y-100274516D01*
X150354241Y-100282752D01*
X150340941Y-100378123D01*
X150326475Y-100440236D01*
X150313503Y-100463424D01*
X150304682Y-100442020D01*
X150302391Y-100393270D01*
X150294487Y-100261915D01*
X150268748Y-100176468D01*
X150222138Y-100129641D01*
X150187643Y-100117931D01*
X150122360Y-100097661D01*
X150093404Y-100074888D01*
X150106543Y-100057758D01*
X150142012Y-100053490D01*
X150206350Y-100045245D01*
X150247519Y-100014217D01*
X150273463Y-99949400D01*
X150291199Y-99846848D01*
X150313220Y-99681196D01*
X150335052Y-99844995D01*
G36*
X145673295Y-100034675D02*
G01*
X145779766Y-100056966D01*
X145904563Y-100088949D01*
X146033138Y-100126392D01*
X146150948Y-100165067D01*
X146243445Y-100200744D01*
X146295365Y-100228599D01*
X146318438Y-100270900D01*
X146321210Y-100350280D01*
X146316929Y-100394946D01*
X146305236Y-100475916D01*
X146293348Y-100531030D01*
X146287996Y-100543598D01*
X146260261Y-100536788D01*
X146206181Y-100504301D01*
X146183606Y-100488122D01*
X146050832Y-100410447D01*
X145893504Y-100351639D01*
X145726355Y-100314209D01*
X145564116Y-100300669D01*
X145421519Y-100313530D01*
X145333892Y-100343253D01*
X145223175Y-100428813D01*
X145150777Y-100544126D01*
X145121580Y-100676096D01*
X145140467Y-100811630D01*
X145149882Y-100836672D01*
X145210453Y-100939304D01*
X145316906Y-101068436D01*
X145467662Y-101222346D01*
X145661146Y-101399308D01*
X145677934Y-101413984D01*
X145908657Y-101619605D01*
X146097533Y-101799205D01*
X146248235Y-101958022D01*
X146364432Y-102101298D01*
X146449795Y-102234270D01*
X146507995Y-102362177D01*
X146542703Y-102490260D01*
X146557589Y-102623757D01*
X146558787Y-102671247D01*
X146544177Y-102863808D01*
X146495754Y-103023736D01*
X146410736Y-103153049D01*
X146286337Y-103253761D01*
X146119774Y-103327890D01*
X145908263Y-103377451D01*
X145649021Y-103404460D01*
X145539891Y-103409158D01*
X145395171Y-103411548D01*
X145261944Y-103410379D01*
X145154462Y-103405993D01*
X145086975Y-103398735D01*
X145084347Y-103398180D01*
X144895297Y-103328945D01*
X144732315Y-103213998D01*
X144599590Y-103058323D01*
X144501308Y-102866907D01*
X144441658Y-102644733D01*
X144439386Y-102630452D01*
X144421735Y-102515142D01*
X144570043Y-102430288D01*
X144653176Y-102385436D01*
X144719244Y-102354681D01*
X144749502Y-102345435D01*
X144768941Y-102371327D01*
X144779544Y-102442998D01*
X144780921Y-102490381D01*
X144805855Y-102675418D01*
X144876936Y-102834770D01*
X144989677Y-102962713D01*
X145139592Y-103053522D01*
X145250000Y-103088839D01*
X145428503Y-103113439D01*
X145623721Y-103113703D01*
X145818315Y-103091603D01*
X145994941Y-103049112D01*
X146136258Y-102988205D01*
X146136696Y-102987947D01*
X146227679Y-102904152D01*
X146279732Y-102788385D01*
X146291478Y-102649156D01*
X146261537Y-102494976D01*
X146229779Y-102413348D01*
X146192032Y-102355867D01*
X146117037Y-102264840D01*
X146008226Y-102144059D01*
X145869032Y-101997316D01*
X145702886Y-101828401D01*
X145675459Y-101800995D01*
X145469851Y-101593307D01*
X145302152Y-101417047D01*
X145168823Y-101267159D01*
X145066326Y-101138588D01*
X144991122Y-101026277D01*
X144939673Y-100925170D01*
X144908440Y-100830213D01*
X144893885Y-100736348D01*
X144891693Y-100681124D01*
X144907999Y-100530806D01*
X144962824Y-100398050D01*
X145062773Y-100268219D01*
X145091215Y-100238854D01*
X145246542Y-100120789D01*
X145426108Y-100048345D01*
X145599696Y-100026305D01*
X145673295Y-100034675D01*
G37*
X145673295Y-100034675D02*
X145779766Y-100056966D01*
X145904563Y-100088949D01*
X146033138Y-100126392D01*
X146150948Y-100165067D01*
X146243445Y-100200744D01*
X146295365Y-100228599D01*
X146318438Y-100270900D01*
X146321210Y-100350280D01*
X146316929Y-100394946D01*
X146305236Y-100475916D01*
X146293348Y-100531030D01*
X146287996Y-100543598D01*
X146260261Y-100536788D01*
X146206181Y-100504301D01*
X146183606Y-100488122D01*
X146050832Y-100410447D01*
X145893504Y-100351639D01*
X145726355Y-100314209D01*
X145564116Y-100300669D01*
X145421519Y-100313530D01*
X145333892Y-100343253D01*
X145223175Y-100428813D01*
X145150777Y-100544126D01*
X145121580Y-100676096D01*
X145140467Y-100811630D01*
X145149882Y-100836672D01*
X145210453Y-100939304D01*
X145316906Y-101068436D01*
X145467662Y-101222346D01*
X145661146Y-101399308D01*
X145677934Y-101413984D01*
X145908657Y-101619605D01*
X146097533Y-101799205D01*
X146248235Y-101958022D01*
X146364432Y-102101298D01*
X146449795Y-102234270D01*
X146507995Y-102362177D01*
X146542703Y-102490260D01*
X146557589Y-102623757D01*
X146558787Y-102671247D01*
X146544177Y-102863808D01*
X146495754Y-103023736D01*
X146410736Y-103153049D01*
X146286337Y-103253761D01*
X146119774Y-103327890D01*
X145908263Y-103377451D01*
X145649021Y-103404460D01*
X145539891Y-103409158D01*
X145395171Y-103411548D01*
X145261944Y-103410379D01*
X145154462Y-103405993D01*
X145086975Y-103398735D01*
X145084347Y-103398180D01*
X144895297Y-103328945D01*
X144732315Y-103213998D01*
X144599590Y-103058323D01*
X144501308Y-102866907D01*
X144441658Y-102644733D01*
X144439386Y-102630452D01*
X144421735Y-102515142D01*
X144570043Y-102430288D01*
X144653176Y-102385436D01*
X144719244Y-102354681D01*
X144749502Y-102345435D01*
X144768941Y-102371327D01*
X144779544Y-102442998D01*
X144780921Y-102490381D01*
X144805855Y-102675418D01*
X144876936Y-102834770D01*
X144989677Y-102962713D01*
X145139592Y-103053522D01*
X145250000Y-103088839D01*
X145428503Y-103113439D01*
X145623721Y-103113703D01*
X145818315Y-103091603D01*
X145994941Y-103049112D01*
X146136258Y-102988205D01*
X146136696Y-102987947D01*
X146227679Y-102904152D01*
X146279732Y-102788385D01*
X146291478Y-102649156D01*
X146261537Y-102494976D01*
X146229779Y-102413348D01*
X146192032Y-102355867D01*
X146117037Y-102264840D01*
X146008226Y-102144059D01*
X145869032Y-101997316D01*
X145702886Y-101828401D01*
X145675459Y-101800995D01*
X145469851Y-101593307D01*
X145302152Y-101417047D01*
X145168823Y-101267159D01*
X145066326Y-101138588D01*
X144991122Y-101026277D01*
X144939673Y-100925170D01*
X144908440Y-100830213D01*
X144893885Y-100736348D01*
X144891693Y-100681124D01*
X144907999Y-100530806D01*
X144962824Y-100398050D01*
X145062773Y-100268219D01*
X145091215Y-100238854D01*
X145246542Y-100120789D01*
X145426108Y-100048345D01*
X145599696Y-100026305D01*
X145673295Y-100034675D01*
G36*
X158012350Y-100070538D02*
G01*
X158095885Y-100073797D01*
X158414306Y-100089479D01*
X158423902Y-100190098D01*
X158428422Y-100297414D01*
X158412070Y-100360217D01*
X158367516Y-100383353D01*
X158287425Y-100371667D01*
X158195047Y-100341306D01*
X158109263Y-100319880D01*
X157994347Y-100304203D01*
X157864335Y-100294622D01*
X157733263Y-100291485D01*
X157615168Y-100295136D01*
X157524086Y-100305923D01*
X157474830Y-100323526D01*
X157448297Y-100372064D01*
X157423836Y-100466661D01*
X157402624Y-100598165D01*
X157385837Y-100757426D01*
X157374651Y-100935292D01*
X157370242Y-101122612D01*
X157370217Y-101137452D01*
X157370299Y-101272889D01*
X157375227Y-101373305D01*
X157392028Y-101442917D01*
X157427726Y-101485943D01*
X157489346Y-101506599D01*
X157583914Y-101509103D01*
X157718455Y-101497672D01*
X157899994Y-101476523D01*
X157929293Y-101473058D01*
X158088043Y-101454354D01*
X158088043Y-101579014D01*
X158080231Y-101663348D01*
X158060330Y-101723069D01*
X158051336Y-101734138D01*
X158006489Y-101748066D01*
X157916094Y-101757953D01*
X157789728Y-101762961D01*
X157717179Y-101763378D01*
X157594200Y-101764474D01*
X157492472Y-101768391D01*
X157424175Y-101774473D01*
X157401875Y-101780365D01*
X157394065Y-101815916D01*
X157389488Y-101896402D01*
X157387917Y-102011648D01*
X157389124Y-102151481D01*
X157392883Y-102305726D01*
X157398965Y-102464210D01*
X157407144Y-102616757D01*
X157417193Y-102753195D01*
X157425455Y-102835726D01*
X157446324Y-102983480D01*
X157469162Y-103080989D01*
X157495216Y-103133219D01*
X157501579Y-103139185D01*
X157556091Y-103157807D01*
X157653499Y-103168810D01*
X157782004Y-103172151D01*
X157929807Y-103167790D01*
X158085109Y-103155684D01*
X158198478Y-103141635D01*
X158312050Y-103126155D01*
X158414931Y-103114147D01*
X158485789Y-103108089D01*
X158488369Y-103107977D01*
X158571195Y-103104674D01*
X158571195Y-103435978D01*
X157903614Y-103443367D01*
X157715722Y-103444464D01*
X157547414Y-103443563D01*
X157406305Y-103440857D01*
X157300011Y-103436535D01*
X157236146Y-103430791D01*
X157220848Y-103426185D01*
X157214918Y-103390272D01*
X157208794Y-103305544D01*
X157202599Y-103178402D01*
X157196454Y-103015247D01*
X157190484Y-102822480D01*
X157184810Y-102606503D01*
X157179555Y-102373717D01*
X157174843Y-102130523D01*
X157170794Y-101883322D01*
X157167533Y-101638515D01*
X157165182Y-101402504D01*
X157163864Y-101181690D01*
X157163701Y-100982473D01*
X157164815Y-100811256D01*
X157167331Y-100674440D01*
X157167804Y-100658313D01*
X157185493Y-100089344D01*
X157481478Y-100073729D01*
X157642826Y-100068496D01*
X157829645Y-100067433D01*
X158012350Y-100070538D01*
G37*
X158012350Y-100070538D02*
X158095885Y-100073797D01*
X158414306Y-100089479D01*
X158423902Y-100190098D01*
X158428422Y-100297414D01*
X158412070Y-100360217D01*
X158367516Y-100383353D01*
X158287425Y-100371667D01*
X158195047Y-100341306D01*
X158109263Y-100319880D01*
X157994347Y-100304203D01*
X157864335Y-100294622D01*
X157733263Y-100291485D01*
X157615168Y-100295136D01*
X157524086Y-100305923D01*
X157474830Y-100323526D01*
X157448297Y-100372064D01*
X157423836Y-100466661D01*
X157402624Y-100598165D01*
X157385837Y-100757426D01*
X157374651Y-100935292D01*
X157370242Y-101122612D01*
X157370217Y-101137452D01*
X157370299Y-101272889D01*
X157375227Y-101373305D01*
X157392028Y-101442917D01*
X157427726Y-101485943D01*
X157489346Y-101506599D01*
X157583914Y-101509103D01*
X157718455Y-101497672D01*
X157899994Y-101476523D01*
X157929293Y-101473058D01*
X158088043Y-101454354D01*
X158088043Y-101579014D01*
X158080231Y-101663348D01*
X158060330Y-101723069D01*
X158051336Y-101734138D01*
X158006489Y-101748066D01*
X157916094Y-101757953D01*
X157789728Y-101762961D01*
X157717179Y-101763378D01*
X157594200Y-101764474D01*
X157492472Y-101768391D01*
X157424175Y-101774473D01*
X157401875Y-101780365D01*
X157394065Y-101815916D01*
X157389488Y-101896402D01*
X157387917Y-102011648D01*
X157389124Y-102151481D01*
X157392883Y-102305726D01*
X157398965Y-102464210D01*
X157407144Y-102616757D01*
X157417193Y-102753195D01*
X157425455Y-102835726D01*
X157446324Y-102983480D01*
X157469162Y-103080989D01*
X157495216Y-103133219D01*
X157501579Y-103139185D01*
X157556091Y-103157807D01*
X157653499Y-103168810D01*
X157782004Y-103172151D01*
X157929807Y-103167790D01*
X158085109Y-103155684D01*
X158198478Y-103141635D01*
X158312050Y-103126155D01*
X158414931Y-103114147D01*
X158485789Y-103108089D01*
X158488369Y-103107977D01*
X158571195Y-103104674D01*
X158571195Y-103435978D01*
X157903614Y-103443367D01*
X157715722Y-103444464D01*
X157547414Y-103443563D01*
X157406305Y-103440857D01*
X157300011Y-103436535D01*
X157236146Y-103430791D01*
X157220848Y-103426185D01*
X157214918Y-103390272D01*
X157208794Y-103305544D01*
X157202599Y-103178402D01*
X157196454Y-103015247D01*
X157190484Y-102822480D01*
X157184810Y-102606503D01*
X157179555Y-102373717D01*
X157174843Y-102130523D01*
X157170794Y-101883322D01*
X157167533Y-101638515D01*
X157165182Y-101402504D01*
X157163864Y-101181690D01*
X157163701Y-100982473D01*
X157164815Y-100811256D01*
X157167331Y-100674440D01*
X157167804Y-100658313D01*
X157185493Y-100089344D01*
X157481478Y-100073729D01*
X157642826Y-100068496D01*
X157829645Y-100067433D01*
X158012350Y-100070538D01*
G36*
X153939837Y-100141476D02*
G01*
X154086590Y-100149021D01*
X154194728Y-100161135D01*
X154280832Y-100180850D01*
X154361481Y-100211195D01*
X154388478Y-100223474D01*
X154578764Y-100342854D01*
X154740546Y-100508780D01*
X154873418Y-100720263D01*
X154976973Y-100976313D01*
X155050804Y-101275943D01*
X155094506Y-101618163D01*
X155107752Y-101972718D01*
X155095573Y-102317335D01*
X155058682Y-102613515D01*
X154996570Y-102862451D01*
X154908729Y-103065338D01*
X154794650Y-103223369D01*
X154653824Y-103337737D01*
X154496524Y-103406522D01*
X154407639Y-103425415D01*
X154293005Y-103439250D01*
X154164714Y-103447886D01*
X154034853Y-103451183D01*
X153915515Y-103449002D01*
X153818789Y-103441203D01*
X153756764Y-103427645D01*
X153740642Y-103415272D01*
X153738215Y-103383408D01*
X153734444Y-103302363D01*
X153729517Y-103178148D01*
X153723618Y-103016778D01*
X153716932Y-102824268D01*
X153709646Y-102606630D01*
X153701944Y-102369878D01*
X153694012Y-102120026D01*
X153686036Y-101863089D01*
X153678200Y-101605079D01*
X153670691Y-101352011D01*
X153663693Y-101109898D01*
X153662436Y-101064971D01*
X153892208Y-101064971D01*
X153892235Y-101305302D01*
X153892327Y-101428417D01*
X153894034Y-101807588D01*
X153898460Y-102145313D01*
X153905510Y-102439610D01*
X153915091Y-102688501D01*
X153927109Y-102890005D01*
X153941471Y-103042142D01*
X153958083Y-103142933D01*
X153975573Y-103188977D01*
X154023204Y-103218291D01*
X154093740Y-103236703D01*
X154163637Y-103245733D01*
X154208925Y-103252066D01*
X154209021Y-103252082D01*
X154246467Y-103243124D01*
X154317498Y-103215413D01*
X154402282Y-103177030D01*
X154567127Y-103079006D01*
X154694302Y-102956405D01*
X154796667Y-102795987D01*
X154821124Y-102745761D01*
X154850939Y-102677774D01*
X154872260Y-102615553D01*
X154886839Y-102547290D01*
X154896429Y-102461176D01*
X154902782Y-102345403D01*
X154907651Y-102188164D01*
X154908430Y-102157549D01*
X154904230Y-101820001D01*
X154875126Y-101508722D01*
X154822625Y-101227242D01*
X154748233Y-100979094D01*
X154653455Y-100767807D01*
X154539798Y-100596914D01*
X154408767Y-100469944D01*
X154261869Y-100390429D01*
X154143526Y-100364187D01*
X154050493Y-100362879D01*
X153972558Y-100374715D01*
X153950764Y-100383063D01*
X153935392Y-100392303D01*
X153922943Y-100405511D01*
X153913116Y-100428116D01*
X153905607Y-100465544D01*
X153900112Y-100523222D01*
X153896328Y-100606576D01*
X153893952Y-100721035D01*
X153892680Y-100872024D01*
X153892208Y-101064971D01*
X153662436Y-101064971D01*
X153657393Y-100884754D01*
X153651975Y-100682592D01*
X153647625Y-100509428D01*
X153644529Y-100371274D01*
X153642872Y-100274144D01*
X153642648Y-100237218D01*
X153643043Y-100130631D01*
X153939837Y-100141476D01*
G37*
X153939837Y-100141476D02*
X154086590Y-100149021D01*
X154194728Y-100161135D01*
X154280832Y-100180850D01*
X154361481Y-100211195D01*
X154388478Y-100223474D01*
X154578764Y-100342854D01*
X154740546Y-100508780D01*
X154873418Y-100720263D01*
X154976973Y-100976313D01*
X155050804Y-101275943D01*
X155094506Y-101618163D01*
X155107752Y-101972718D01*
X155095573Y-102317335D01*
X155058682Y-102613515D01*
X154996570Y-102862451D01*
X154908729Y-103065338D01*
X154794650Y-103223369D01*
X154653824Y-103337737D01*
X154496524Y-103406522D01*
X154407639Y-103425415D01*
X154293005Y-103439250D01*
X154164714Y-103447886D01*
X154034853Y-103451183D01*
X153915515Y-103449002D01*
X153818789Y-103441203D01*
X153756764Y-103427645D01*
X153740642Y-103415272D01*
X153738215Y-103383408D01*
X153734444Y-103302363D01*
X153729517Y-103178148D01*
X153723618Y-103016778D01*
X153716932Y-102824268D01*
X153709646Y-102606630D01*
X153701944Y-102369878D01*
X153694012Y-102120026D01*
X153686036Y-101863089D01*
X153678200Y-101605079D01*
X153670691Y-101352011D01*
X153663693Y-101109898D01*
X153662436Y-101064971D01*
X153892208Y-101064971D01*
X153892235Y-101305302D01*
X153892327Y-101428417D01*
X153894034Y-101807588D01*
X153898460Y-102145313D01*
X153905510Y-102439610D01*
X153915091Y-102688501D01*
X153927109Y-102890005D01*
X153941471Y-103042142D01*
X153958083Y-103142933D01*
X153975573Y-103188977D01*
X154023204Y-103218291D01*
X154093740Y-103236703D01*
X154163637Y-103245733D01*
X154208925Y-103252066D01*
X154209021Y-103252082D01*
X154246467Y-103243124D01*
X154317498Y-103215413D01*
X154402282Y-103177030D01*
X154567127Y-103079006D01*
X154694302Y-102956405D01*
X154796667Y-102795987D01*
X154821124Y-102745761D01*
X154850939Y-102677774D01*
X154872260Y-102615553D01*
X154886839Y-102547290D01*
X154896429Y-102461176D01*
X154902782Y-102345403D01*
X154907651Y-102188164D01*
X154908430Y-102157549D01*
X154904230Y-101820001D01*
X154875126Y-101508722D01*
X154822625Y-101227242D01*
X154748233Y-100979094D01*
X154653455Y-100767807D01*
X154539798Y-100596914D01*
X154408767Y-100469944D01*
X154261869Y-100390429D01*
X154143526Y-100364187D01*
X154050493Y-100362879D01*
X153972558Y-100374715D01*
X153950764Y-100383063D01*
X153935392Y-100392303D01*
X153922943Y-100405511D01*
X153913116Y-100428116D01*
X153905607Y-100465544D01*
X153900112Y-100523222D01*
X153896328Y-100606576D01*
X153893952Y-100721035D01*
X153892680Y-100872024D01*
X153892208Y-101064971D01*
X153662436Y-101064971D01*
X153657393Y-100884754D01*
X153651975Y-100682592D01*
X153647625Y-100509428D01*
X153644529Y-100371274D01*
X153642872Y-100274144D01*
X153642648Y-100237218D01*
X153643043Y-100130631D01*
X153939837Y-100141476D01*
G36*
X147088086Y-100156128D02*
G01*
X147047649Y-100361856D01*
X147014412Y-100567336D01*
X146989158Y-100763824D01*
X146972669Y-100942573D01*
X146965730Y-101094839D01*
X146969123Y-101211876D01*
X146983632Y-101284938D01*
X146986475Y-101290938D01*
X147019197Y-101333551D01*
X147062601Y-101351661D01*
X147121396Y-101342947D01*
X147200290Y-101305090D01*
X147303990Y-101235772D01*
X147437204Y-101132672D01*
X147604641Y-100993473D01*
X147624347Y-100976711D01*
X147745197Y-100870732D01*
X147873698Y-100753153D01*
X147989772Y-100642530D01*
X148037680Y-100594803D01*
X148118280Y-100515091D01*
X148185394Y-100453123D01*
X148229199Y-100417761D01*
X148239363Y-100412826D01*
X148261659Y-100436075D01*
X148296769Y-100496629D01*
X148331877Y-100569958D01*
X148401368Y-100727089D01*
X148337260Y-100776436D01*
X148293413Y-100806482D01*
X148211271Y-100859427D01*
X148099802Y-100929619D01*
X147967974Y-101011405D01*
X147843379Y-101087785D01*
X147702071Y-101175282D01*
X147574503Y-101256803D01*
X147469355Y-101326602D01*
X147395307Y-101378931D01*
X147362748Y-101405984D01*
X147336973Y-101442675D01*
X147330385Y-101482604D01*
X147346592Y-101533813D01*
X147389202Y-101604345D01*
X147461824Y-101702241D01*
X147539670Y-101800341D01*
X147804159Y-102089357D01*
X148096852Y-102332264D01*
X148423067Y-102533202D01*
X148578340Y-102609272D01*
X148691437Y-102664936D01*
X148763201Y-102716639D01*
X148798313Y-102776449D01*
X148801451Y-102856432D01*
X148777294Y-102968657D01*
X148751683Y-103056359D01*
X148725202Y-103118274D01*
X148683182Y-103142591D01*
X148629532Y-103146087D01*
X148576420Y-103140306D01*
X148526752Y-103117441D01*
X148468379Y-103069210D01*
X148389155Y-102987331D01*
X148376462Y-102973533D01*
X148296313Y-102887069D01*
X148190800Y-102774606D01*
X148072882Y-102649893D01*
X147955521Y-102526682D01*
X147940593Y-102511087D01*
X147817671Y-102381099D01*
X147686506Y-102239639D01*
X147562545Y-102103521D01*
X147461238Y-101989559D01*
X147458592Y-101986522D01*
X147346828Y-101859728D01*
X147263151Y-101769627D01*
X147200647Y-101710205D01*
X147152403Y-101675447D01*
X147111504Y-101659341D01*
X147078392Y-101655831D01*
X147037608Y-101662867D01*
X147007021Y-101688915D01*
X146985635Y-101740035D01*
X146972452Y-101822287D01*
X146966476Y-101941731D01*
X146966710Y-102104424D01*
X146971760Y-102304022D01*
X146986125Y-102599265D01*
X147008930Y-102857562D01*
X147039407Y-103070455D01*
X147043220Y-103090870D01*
X147066190Y-103213388D01*
X147084639Y-103317250D01*
X147096333Y-103389539D01*
X147099328Y-103415272D01*
X147075402Y-103437717D01*
X147001147Y-103448542D01*
X146947068Y-103449783D01*
X146845611Y-103443479D01*
X146791103Y-103425307D01*
X146783714Y-103415272D01*
X146780741Y-103380240D01*
X146777124Y-103296238D01*
X146772988Y-103169506D01*
X146768455Y-103006286D01*
X146763648Y-102812819D01*
X146758692Y-102595346D01*
X146753708Y-102360108D01*
X146748821Y-102113347D01*
X146744154Y-101861304D01*
X146739830Y-101610219D01*
X146735973Y-101366336D01*
X146732705Y-101135893D01*
X146730151Y-100925134D01*
X146728433Y-100740299D01*
X146727674Y-100587629D01*
X146727661Y-100578478D01*
X146727065Y-100095326D01*
X146915907Y-100087106D01*
X147104748Y-100078886D01*
X147088086Y-100156128D01*
G37*
X147088086Y-100156128D02*
X147047649Y-100361856D01*
X147014412Y-100567336D01*
X146989158Y-100763824D01*
X146972669Y-100942573D01*
X146965730Y-101094839D01*
X146969123Y-101211876D01*
X146983632Y-101284938D01*
X146986475Y-101290938D01*
X147019197Y-101333551D01*
X147062601Y-101351661D01*
X147121396Y-101342947D01*
X147200290Y-101305090D01*
X147303990Y-101235772D01*
X147437204Y-101132672D01*
X147604641Y-100993473D01*
X147624347Y-100976711D01*
X147745197Y-100870732D01*
X147873698Y-100753153D01*
X147989772Y-100642530D01*
X148037680Y-100594803D01*
X148118280Y-100515091D01*
X148185394Y-100453123D01*
X148229199Y-100417761D01*
X148239363Y-100412826D01*
X148261659Y-100436075D01*
X148296769Y-100496629D01*
X148331877Y-100569958D01*
X148401368Y-100727089D01*
X148337260Y-100776436D01*
X148293413Y-100806482D01*
X148211271Y-100859427D01*
X148099802Y-100929619D01*
X147967974Y-101011405D01*
X147843379Y-101087785D01*
X147702071Y-101175282D01*
X147574503Y-101256803D01*
X147469355Y-101326602D01*
X147395307Y-101378931D01*
X147362748Y-101405984D01*
X147336973Y-101442675D01*
X147330385Y-101482604D01*
X147346592Y-101533813D01*
X147389202Y-101604345D01*
X147461824Y-101702241D01*
X147539670Y-101800341D01*
X147804159Y-102089357D01*
X148096852Y-102332264D01*
X148423067Y-102533202D01*
X148578340Y-102609272D01*
X148691437Y-102664936D01*
X148763201Y-102716639D01*
X148798313Y-102776449D01*
X148801451Y-102856432D01*
X148777294Y-102968657D01*
X148751683Y-103056359D01*
X148725202Y-103118274D01*
X148683182Y-103142591D01*
X148629532Y-103146087D01*
X148576420Y-103140306D01*
X148526752Y-103117441D01*
X148468379Y-103069210D01*
X148389155Y-102987331D01*
X148376462Y-102973533D01*
X148296313Y-102887069D01*
X148190800Y-102774606D01*
X148072882Y-102649893D01*
X147955521Y-102526682D01*
X147940593Y-102511087D01*
X147817671Y-102381099D01*
X147686506Y-102239639D01*
X147562545Y-102103521D01*
X147461238Y-101989559D01*
X147458592Y-101986522D01*
X147346828Y-101859728D01*
X147263151Y-101769627D01*
X147200647Y-101710205D01*
X147152403Y-101675447D01*
X147111504Y-101659341D01*
X147078392Y-101655831D01*
X147037608Y-101662867D01*
X147007021Y-101688915D01*
X146985635Y-101740035D01*
X146972452Y-101822287D01*
X146966476Y-101941731D01*
X146966710Y-102104424D01*
X146971760Y-102304022D01*
X146986125Y-102599265D01*
X147008930Y-102857562D01*
X147039407Y-103070455D01*
X147043220Y-103090870D01*
X147066190Y-103213388D01*
X147084639Y-103317250D01*
X147096333Y-103389539D01*
X147099328Y-103415272D01*
X147075402Y-103437717D01*
X147001147Y-103448542D01*
X146947068Y-103449783D01*
X146845611Y-103443479D01*
X146791103Y-103425307D01*
X146783714Y-103415272D01*
X146780741Y-103380240D01*
X146777124Y-103296238D01*
X146772988Y-103169506D01*
X146768455Y-103006286D01*
X146763648Y-102812819D01*
X146758692Y-102595346D01*
X146753708Y-102360108D01*
X146748821Y-102113347D01*
X146744154Y-101861304D01*
X146739830Y-101610219D01*
X146735973Y-101366336D01*
X146732705Y-101135893D01*
X146730151Y-100925134D01*
X146728433Y-100740299D01*
X146727674Y-100587629D01*
X146727661Y-100578478D01*
X146727065Y-100095326D01*
X146915907Y-100087106D01*
X147104748Y-100078886D01*
X147088086Y-100156128D01*
G36*
X153360139Y-100200365D02*
G01*
X153365015Y-100265623D01*
X153368731Y-100347379D01*
X153370363Y-100426276D01*
X153369516Y-100474946D01*
X153357763Y-100504056D01*
X153318071Y-100519158D01*
X153237828Y-100524509D01*
X153222010Y-100524729D01*
X153137079Y-100530220D01*
X153014674Y-100544049D01*
X152871540Y-100564094D01*
X152732240Y-100586848D01*
X152583576Y-100613605D01*
X152476028Y-100639446D01*
X152402705Y-100673231D01*
X152356712Y-100723822D01*
X152331155Y-100800080D01*
X152319141Y-100910865D01*
X152313775Y-101065039D01*
X152312296Y-101126639D01*
X152309709Y-101277829D01*
X152314843Y-101390181D01*
X152334447Y-101468173D01*
X152375271Y-101516281D01*
X152444065Y-101538982D01*
X152547579Y-101540752D01*
X152692564Y-101526069D01*
X152876357Y-101500746D01*
X152969827Y-101496488D01*
X153021078Y-101521121D01*
X153035373Y-101581219D01*
X153019069Y-101678974D01*
X152994239Y-101779457D01*
X152682650Y-101779457D01*
X152539245Y-101781024D01*
X152441899Y-101786465D01*
X152381521Y-101796884D01*
X152349022Y-101813390D01*
X152342511Y-101820870D01*
X152333263Y-101863075D01*
X152327925Y-101950056D01*
X152326208Y-102071531D01*
X152327823Y-102217217D01*
X152332480Y-102376832D01*
X152339889Y-102540096D01*
X152349762Y-102696725D01*
X152361808Y-102836438D01*
X152373925Y-102936868D01*
X152390075Y-103041909D01*
X152408844Y-103115727D01*
X152439182Y-103163329D01*
X152490039Y-103189726D01*
X152570365Y-103199927D01*
X152689111Y-103198940D01*
X152831294Y-103192851D01*
X152980473Y-103184066D01*
X153121868Y-103172110D01*
X153239885Y-103158527D01*
X153318928Y-103144863D01*
X153321077Y-103144332D01*
X153426833Y-103123246D01*
X153490606Y-103130104D01*
X153521552Y-103172023D01*
X153528829Y-103256125D01*
X153527094Y-103304503D01*
X153518804Y-103463587D01*
X152839723Y-103470962D01*
X152160643Y-103478338D01*
X152142867Y-103167107D01*
X152136653Y-103036487D01*
X152130629Y-102869125D01*
X152124889Y-102672040D01*
X152119526Y-102452251D01*
X152114634Y-102216777D01*
X152110309Y-101972638D01*
X152106643Y-101726851D01*
X152103730Y-101486438D01*
X152101666Y-101258416D01*
X152100542Y-101049804D01*
X152100455Y-100867623D01*
X152101497Y-100718890D01*
X152103763Y-100610626D01*
X152107346Y-100549849D01*
X152107775Y-100546692D01*
X152127131Y-100418274D01*
X152284598Y-100389250D01*
X152366132Y-100373325D01*
X152488206Y-100348349D01*
X152637426Y-100317115D01*
X152800400Y-100282413D01*
X152895020Y-100261999D01*
X153045125Y-100229940D01*
X153175062Y-100203125D01*
X153275842Y-100183334D01*
X153338477Y-100172346D01*
X153355025Y-100170962D01*
X153360139Y-100200365D01*
G37*
X153360139Y-100200365D02*
X153365015Y-100265623D01*
X153368731Y-100347379D01*
X153370363Y-100426276D01*
X153369516Y-100474946D01*
X153357763Y-100504056D01*
X153318071Y-100519158D01*
X153237828Y-100524509D01*
X153222010Y-100524729D01*
X153137079Y-100530220D01*
X153014674Y-100544049D01*
X152871540Y-100564094D01*
X152732240Y-100586848D01*
X152583576Y-100613605D01*
X152476028Y-100639446D01*
X152402705Y-100673231D01*
X152356712Y-100723822D01*
X152331155Y-100800080D01*
X152319141Y-100910865D01*
X152313775Y-101065039D01*
X152312296Y-101126639D01*
X152309709Y-101277829D01*
X152314843Y-101390181D01*
X152334447Y-101468173D01*
X152375271Y-101516281D01*
X152444065Y-101538982D01*
X152547579Y-101540752D01*
X152692564Y-101526069D01*
X152876357Y-101500746D01*
X152969827Y-101496488D01*
X153021078Y-101521121D01*
X153035373Y-101581219D01*
X153019069Y-101678974D01*
X152994239Y-101779457D01*
X152682650Y-101779457D01*
X152539245Y-101781024D01*
X152441899Y-101786465D01*
X152381521Y-101796884D01*
X152349022Y-101813390D01*
X152342511Y-101820870D01*
X152333263Y-101863075D01*
X152327925Y-101950056D01*
X152326208Y-102071531D01*
X152327823Y-102217217D01*
X152332480Y-102376832D01*
X152339889Y-102540096D01*
X152349762Y-102696725D01*
X152361808Y-102836438D01*
X152373925Y-102936868D01*
X152390075Y-103041909D01*
X152408844Y-103115727D01*
X152439182Y-103163329D01*
X152490039Y-103189726D01*
X152570365Y-103199927D01*
X152689111Y-103198940D01*
X152831294Y-103192851D01*
X152980473Y-103184066D01*
X153121868Y-103172110D01*
X153239885Y-103158527D01*
X153318928Y-103144863D01*
X153321077Y-103144332D01*
X153426833Y-103123246D01*
X153490606Y-103130104D01*
X153521552Y-103172023D01*
X153528829Y-103256125D01*
X153527094Y-103304503D01*
X153518804Y-103463587D01*
X152839723Y-103470962D01*
X152160643Y-103478338D01*
X152142867Y-103167107D01*
X152136653Y-103036487D01*
X152130629Y-102869125D01*
X152124889Y-102672040D01*
X152119526Y-102452251D01*
X152114634Y-102216777D01*
X152110309Y-101972638D01*
X152106643Y-101726851D01*
X152103730Y-101486438D01*
X152101666Y-101258416D01*
X152100542Y-101049804D01*
X152100455Y-100867623D01*
X152101497Y-100718890D01*
X152103763Y-100610626D01*
X152107346Y-100549849D01*
X152107775Y-100546692D01*
X152127131Y-100418274D01*
X152284598Y-100389250D01*
X152366132Y-100373325D01*
X152488206Y-100348349D01*
X152637426Y-100317115D01*
X152800400Y-100282413D01*
X152895020Y-100261999D01*
X153045125Y-100229940D01*
X153175062Y-100203125D01*
X153275842Y-100183334D01*
X153338477Y-100172346D01*
X153355025Y-100170962D01*
X153360139Y-100200365D01*
G36*
X156161661Y-100059196D02*
G01*
X156243812Y-100073581D01*
X156296827Y-100084819D01*
X156459886Y-100147096D01*
X156598873Y-100257728D01*
X156712596Y-100414816D01*
X156799863Y-100616462D01*
X156859480Y-100860766D01*
X156880176Y-101013842D01*
X156891075Y-101132673D01*
X156897704Y-101229445D01*
X156899371Y-101292082D01*
X156897123Y-101309253D01*
X156865678Y-101317812D01*
X156794473Y-101328935D01*
X156698744Y-101340254D01*
X156696038Y-101340532D01*
X156506848Y-101359915D01*
X156521660Y-101279795D01*
X156534924Y-101208216D01*
X156553491Y-101108235D01*
X156567290Y-101034022D01*
X156583948Y-100841358D01*
X156560887Y-100673813D01*
X156502228Y-100536023D01*
X156412095Y-100432627D01*
X156294610Y-100368263D01*
X156153897Y-100347569D01*
X155994077Y-100375183D01*
X155984425Y-100378326D01*
X155867646Y-100434834D01*
X155768840Y-100522949D01*
X155685579Y-100647300D01*
X155615431Y-100812511D01*
X155555968Y-101023210D01*
X155504758Y-101284024D01*
X155502915Y-101295150D01*
X155481186Y-101489670D01*
X155471904Y-101719895D01*
X155474623Y-101967836D01*
X155488900Y-102215507D01*
X155514291Y-102444921D01*
X155534265Y-102564225D01*
X155596317Y-102800883D01*
X155680724Y-102987362D01*
X155788051Y-103124219D01*
X155918863Y-103212011D01*
X156073726Y-103251295D01*
X156226639Y-103246699D01*
X156402405Y-103202624D01*
X156541552Y-103122285D01*
X156645560Y-103003505D01*
X156715904Y-102844110D01*
X156754064Y-102641924D01*
X156762449Y-102457761D01*
X156758946Y-102294025D01*
X156747225Y-102181838D01*
X156724559Y-102117806D01*
X156688219Y-102098533D01*
X156635478Y-102120625D01*
X156563607Y-102180687D01*
X156550157Y-102193587D01*
X156461945Y-102264809D01*
X156395571Y-102285441D01*
X156350531Y-102255244D01*
X156326324Y-102173979D01*
X156321509Y-102084533D01*
X156324668Y-101989023D01*
X156339780Y-101925503D01*
X156376338Y-101886915D01*
X156443834Y-101866202D01*
X156551759Y-101856305D01*
X156633067Y-101852868D01*
X156755041Y-101848875D01*
X156845744Y-101851617D01*
X156909520Y-101868008D01*
X156950710Y-101904961D01*
X156973657Y-101969386D01*
X156982702Y-102068198D01*
X156982187Y-102208308D01*
X156976456Y-102396628D01*
X156976368Y-102399378D01*
X156968494Y-102594580D01*
X156958171Y-102745975D01*
X156944114Y-102864962D01*
X156925034Y-102962936D01*
X156904435Y-103036552D01*
X156825889Y-103213037D01*
X156716912Y-103348453D01*
X156581148Y-103438351D01*
X156572438Y-103442112D01*
X156475295Y-103468586D01*
X156342550Y-103486192D01*
X156193217Y-103494218D01*
X156046306Y-103491952D01*
X155920828Y-103478682D01*
X155874090Y-103468278D01*
X155702569Y-103397985D01*
X155564448Y-103291508D01*
X155455339Y-103144029D01*
X155370850Y-102950734D01*
X155353934Y-102897609D01*
X155302353Y-102673570D01*
X155267448Y-102410108D01*
X155249097Y-102120402D01*
X155247179Y-101817631D01*
X155261574Y-101514972D01*
X155292159Y-101225604D01*
X155338815Y-100962706D01*
X155372954Y-100828360D01*
X155456092Y-100588473D01*
X155553211Y-100398750D01*
X155667371Y-100255229D01*
X155801633Y-100153948D01*
X155937931Y-100096884D01*
X156032099Y-100070062D01*
X156098883Y-100057761D01*
X156161661Y-100059196D01*
G37*
X156161661Y-100059196D02*
X156243812Y-100073581D01*
X156296827Y-100084819D01*
X156459886Y-100147096D01*
X156598873Y-100257728D01*
X156712596Y-100414816D01*
X156799863Y-100616462D01*
X156859480Y-100860766D01*
X156880176Y-101013842D01*
X156891075Y-101132673D01*
X156897704Y-101229445D01*
X156899371Y-101292082D01*
X156897123Y-101309253D01*
X156865678Y-101317812D01*
X156794473Y-101328935D01*
X156698744Y-101340254D01*
X156696038Y-101340532D01*
X156506848Y-101359915D01*
X156521660Y-101279795D01*
X156534924Y-101208216D01*
X156553491Y-101108235D01*
X156567290Y-101034022D01*
X156583948Y-100841358D01*
X156560887Y-100673813D01*
X156502228Y-100536023D01*
X156412095Y-100432627D01*
X156294610Y-100368263D01*
X156153897Y-100347569D01*
X155994077Y-100375183D01*
X155984425Y-100378326D01*
X155867646Y-100434834D01*
X155768840Y-100522949D01*
X155685579Y-100647300D01*
X155615431Y-100812511D01*
X155555968Y-101023210D01*
X155504758Y-101284024D01*
X155502915Y-101295150D01*
X155481186Y-101489670D01*
X155471904Y-101719895D01*
X155474623Y-101967836D01*
X155488900Y-102215507D01*
X155514291Y-102444921D01*
X155534265Y-102564225D01*
X155596317Y-102800883D01*
X155680724Y-102987362D01*
X155788051Y-103124219D01*
X155918863Y-103212011D01*
X156073726Y-103251295D01*
X156226639Y-103246699D01*
X156402405Y-103202624D01*
X156541552Y-103122285D01*
X156645560Y-103003505D01*
X156715904Y-102844110D01*
X156754064Y-102641924D01*
X156762449Y-102457761D01*
X156758946Y-102294025D01*
X156747225Y-102181838D01*
X156724559Y-102117806D01*
X156688219Y-102098533D01*
X156635478Y-102120625D01*
X156563607Y-102180687D01*
X156550157Y-102193587D01*
X156461945Y-102264809D01*
X156395571Y-102285441D01*
X156350531Y-102255244D01*
X156326324Y-102173979D01*
X156321509Y-102084533D01*
X156324668Y-101989023D01*
X156339780Y-101925503D01*
X156376338Y-101886915D01*
X156443834Y-101866202D01*
X156551759Y-101856305D01*
X156633067Y-101852868D01*
X156755041Y-101848875D01*
X156845744Y-101851617D01*
X156909520Y-101868008D01*
X156950710Y-101904961D01*
X156973657Y-101969386D01*
X156982702Y-102068198D01*
X156982187Y-102208308D01*
X156976456Y-102396628D01*
X156976368Y-102399378D01*
X156968494Y-102594580D01*
X156958171Y-102745975D01*
X156944114Y-102864962D01*
X156925034Y-102962936D01*
X156904435Y-103036552D01*
X156825889Y-103213037D01*
X156716912Y-103348453D01*
X156581148Y-103438351D01*
X156572438Y-103442112D01*
X156475295Y-103468586D01*
X156342550Y-103486192D01*
X156193217Y-103494218D01*
X156046306Y-103491952D01*
X155920828Y-103478682D01*
X155874090Y-103468278D01*
X155702569Y-103397985D01*
X155564448Y-103291508D01*
X155455339Y-103144029D01*
X155370850Y-102950734D01*
X155353934Y-102897609D01*
X155302353Y-102673570D01*
X155267448Y-102410108D01*
X155249097Y-102120402D01*
X155247179Y-101817631D01*
X155261574Y-101514972D01*
X155292159Y-101225604D01*
X155338815Y-100962706D01*
X155372954Y-100828360D01*
X155456092Y-100588473D01*
X155553211Y-100398750D01*
X155667371Y-100255229D01*
X155801633Y-100153948D01*
X155937931Y-100096884D01*
X156032099Y-100070062D01*
X156098883Y-100057761D01*
X156161661Y-100059196D01*
G36*
X150741121Y-100669981D02*
G01*
X150927215Y-100721465D01*
X150944293Y-100727649D01*
X151158260Y-100806744D01*
X151158260Y-100925656D01*
X151152786Y-101002177D01*
X151139044Y-101052577D01*
X151132550Y-101060457D01*
X151096195Y-101055895D01*
X151034445Y-101025859D01*
X151004524Y-101006914D01*
X150865603Y-100935533D01*
X150707283Y-100890592D01*
X150546306Y-100874181D01*
X150399415Y-100888389D01*
X150309114Y-100920110D01*
X150213760Y-100997948D01*
X150155616Y-101105278D01*
X150138382Y-101227711D01*
X150165757Y-101350853D01*
X150187551Y-101393091D01*
X150217231Y-101437802D01*
X150255551Y-101486560D01*
X150307855Y-101544818D01*
X150379488Y-101618031D01*
X150475794Y-101711650D01*
X150602117Y-101831131D01*
X150763801Y-101981926D01*
X150772518Y-101990023D01*
X150937837Y-102148430D01*
X151063988Y-102282484D01*
X151156304Y-102400522D01*
X151220121Y-102510880D01*
X151260771Y-102621893D01*
X151283589Y-102741897D01*
X151289176Y-102797451D01*
X151280794Y-102987377D01*
X151225831Y-103152502D01*
X151127874Y-103287785D01*
X150990512Y-103388187D01*
X150826956Y-103446633D01*
X150703271Y-103466333D01*
X150547525Y-103480698D01*
X150379005Y-103488969D01*
X150216997Y-103490381D01*
X150080789Y-103484175D01*
X150029394Y-103478135D01*
X149860916Y-103425221D01*
X149716244Y-103326490D01*
X149600992Y-103188258D01*
X149520773Y-103016842D01*
X149486560Y-102867303D01*
X149478527Y-102788234D01*
X149488773Y-102742112D01*
X149526481Y-102707421D01*
X149564847Y-102683886D01*
X149663011Y-102628613D01*
X149724254Y-102606669D01*
X149758239Y-102621738D01*
X149774628Y-102677505D01*
X149782403Y-102766819D01*
X149810506Y-102929108D01*
X149873626Y-103054435D01*
X149974641Y-103144936D01*
X150116433Y-103202748D01*
X150301884Y-103230008D01*
X150410666Y-103232855D01*
X150617023Y-103219936D01*
X150788893Y-103184493D01*
X150920200Y-103128336D01*
X151002528Y-103056514D01*
X151043648Y-102961197D01*
X151056120Y-102839457D01*
X151039773Y-102712178D01*
X151006082Y-102620883D01*
X150972677Y-102573639D01*
X150906748Y-102494654D01*
X150814824Y-102391222D01*
X150703435Y-102270640D01*
X150579112Y-102140200D01*
X150537428Y-102097328D01*
X150344056Y-101894658D01*
X150190788Y-101722021D01*
X150074965Y-101574521D01*
X149993927Y-101447259D01*
X149945013Y-101335339D01*
X149925565Y-101233863D01*
X149932922Y-101137933D01*
X149964424Y-101042654D01*
X149964505Y-101042471D01*
X150051697Y-100899810D01*
X150173106Y-100773074D01*
X150284614Y-100695940D01*
X150407635Y-100656633D01*
X150563866Y-100648176D01*
X150741121Y-100669981D01*
G37*
X150741121Y-100669981D02*
X150927215Y-100721465D01*
X150944293Y-100727649D01*
X151158260Y-100806744D01*
X151158260Y-100925656D01*
X151152786Y-101002177D01*
X151139044Y-101052577D01*
X151132550Y-101060457D01*
X151096195Y-101055895D01*
X151034445Y-101025859D01*
X151004524Y-101006914D01*
X150865603Y-100935533D01*
X150707283Y-100890592D01*
X150546306Y-100874181D01*
X150399415Y-100888389D01*
X150309114Y-100920110D01*
X150213760Y-100997948D01*
X150155616Y-101105278D01*
X150138382Y-101227711D01*
X150165757Y-101350853D01*
X150187551Y-101393091D01*
X150217231Y-101437802D01*
X150255551Y-101486560D01*
X150307855Y-101544818D01*
X150379488Y-101618031D01*
X150475794Y-101711650D01*
X150602117Y-101831131D01*
X150763801Y-101981926D01*
X150772518Y-101990023D01*
X150937837Y-102148430D01*
X151063988Y-102282484D01*
X151156304Y-102400522D01*
X151220121Y-102510880D01*
X151260771Y-102621893D01*
X151283589Y-102741897D01*
X151289176Y-102797451D01*
X151280794Y-102987377D01*
X151225831Y-103152502D01*
X151127874Y-103287785D01*
X150990512Y-103388187D01*
X150826956Y-103446633D01*
X150703271Y-103466333D01*
X150547525Y-103480698D01*
X150379005Y-103488969D01*
X150216997Y-103490381D01*
X150080789Y-103484175D01*
X150029394Y-103478135D01*
X149860916Y-103425221D01*
X149716244Y-103326490D01*
X149600992Y-103188258D01*
X149520773Y-103016842D01*
X149486560Y-102867303D01*
X149478527Y-102788234D01*
X149488773Y-102742112D01*
X149526481Y-102707421D01*
X149564847Y-102683886D01*
X149663011Y-102628613D01*
X149724254Y-102606669D01*
X149758239Y-102621738D01*
X149774628Y-102677505D01*
X149782403Y-102766819D01*
X149810506Y-102929108D01*
X149873626Y-103054435D01*
X149974641Y-103144936D01*
X150116433Y-103202748D01*
X150301884Y-103230008D01*
X150410666Y-103232855D01*
X150617023Y-103219936D01*
X150788893Y-103184493D01*
X150920200Y-103128336D01*
X151002528Y-103056514D01*
X151043648Y-102961197D01*
X151056120Y-102839457D01*
X151039773Y-102712178D01*
X151006082Y-102620883D01*
X150972677Y-102573639D01*
X150906748Y-102494654D01*
X150814824Y-102391222D01*
X150703435Y-102270640D01*
X150579112Y-102140200D01*
X150537428Y-102097328D01*
X150344056Y-101894658D01*
X150190788Y-101722021D01*
X150074965Y-101574521D01*
X149993927Y-101447259D01*
X149945013Y-101335339D01*
X149925565Y-101233863D01*
X149932922Y-101137933D01*
X149964424Y-101042654D01*
X149964505Y-101042471D01*
X150051697Y-100899810D01*
X150173106Y-100773074D01*
X150284614Y-100695940D01*
X150407635Y-100656633D01*
X150563866Y-100648176D01*
X150741121Y-100669981D01*
G36*
X149882027Y-100282881D02*
G01*
X149927971Y-100304879D01*
X149931396Y-100310729D01*
X149929853Y-100354681D01*
X149912009Y-100442061D01*
X149880389Y-100564388D01*
X149837516Y-100713181D01*
X149785915Y-100879958D01*
X149728111Y-101056239D01*
X149666626Y-101233542D01*
X149614220Y-101376431D01*
X149541465Y-101572567D01*
X149480168Y-101747001D01*
X149426994Y-101911495D01*
X149378607Y-102077813D01*
X149331670Y-102257717D01*
X149282847Y-102462969D01*
X149228804Y-102705334D01*
X149201262Y-102832568D01*
X149132751Y-103140254D01*
X149069406Y-103400019D01*
X149009087Y-103618674D01*
X148949657Y-103803029D01*
X148888976Y-103959895D01*
X148824905Y-104096084D01*
X148777688Y-104181413D01*
X148662788Y-104347587D01*
X148514019Y-104520456D01*
X148347462Y-104683178D01*
X148179196Y-104818914D01*
X148148913Y-104839892D01*
X148032472Y-104907685D01*
X147904642Y-104964947D01*
X147775054Y-105009501D01*
X147653340Y-105039169D01*
X147549131Y-105051777D01*
X147472058Y-105045147D01*
X147431752Y-105017103D01*
X147428161Y-105002772D01*
X147428130Y-104906794D01*
X147437863Y-104822422D01*
X147454825Y-104769717D01*
X147458157Y-104765442D01*
X147494580Y-104749782D01*
X147570402Y-104729723D01*
X147670433Y-104709185D01*
X147688944Y-104705894D01*
X147877709Y-104659372D01*
X148043141Y-104585694D01*
X148199047Y-104476875D01*
X148359234Y-104324929D01*
X148372968Y-104310328D01*
X148519920Y-104133535D01*
X148644922Y-103938776D01*
X148750393Y-103719571D01*
X148838750Y-103469438D01*
X148912413Y-103181898D01*
X148973799Y-102850470D01*
X149008356Y-102607718D01*
X149029592Y-102435882D01*
X149042713Y-102295527D01*
X149045569Y-102176233D01*
X149036013Y-102067583D01*
X149011898Y-101959160D01*
X148971075Y-101840545D01*
X148911399Y-101701322D01*
X148830720Y-101531073D01*
X148754204Y-101374863D01*
X148507625Y-100873815D01*
X148556040Y-100791181D01*
X148608756Y-100719175D01*
X148662991Y-100672798D01*
X148706381Y-100661588D01*
X148716446Y-100667461D01*
X148730254Y-100701844D01*
X148749427Y-100775071D01*
X148769912Y-100871578D01*
X148770706Y-100875725D01*
X148797308Y-100979241D01*
X148841566Y-101113678D01*
X148896923Y-101260328D01*
X148947009Y-101378832D01*
X149025930Y-101552023D01*
X149087629Y-101678316D01*
X149135529Y-101762029D01*
X149173052Y-101807478D01*
X149203621Y-101818977D01*
X149230658Y-101800845D01*
X149253446Y-101765306D01*
X149273550Y-101715404D01*
X149305298Y-101621987D01*
X149345806Y-101494814D01*
X149392193Y-101343642D01*
X149441576Y-101178231D01*
X149491074Y-101008338D01*
X149537802Y-100843721D01*
X149578880Y-100694139D01*
X149611425Y-100569349D01*
X149630510Y-100488750D01*
X149676795Y-100274783D01*
X149797198Y-100274783D01*
X149882027Y-100282881D01*
G37*
X149882027Y-100282881D02*
X149927971Y-100304879D01*
X149931396Y-100310729D01*
X149929853Y-100354681D01*
X149912009Y-100442061D01*
X149880389Y-100564388D01*
X149837516Y-100713181D01*
X149785915Y-100879958D01*
X149728111Y-101056239D01*
X149666626Y-101233542D01*
X149614220Y-101376431D01*
X149541465Y-101572567D01*
X149480168Y-101747001D01*
X149426994Y-101911495D01*
X149378607Y-102077813D01*
X149331670Y-102257717D01*
X149282847Y-102462969D01*
X149228804Y-102705334D01*
X149201262Y-102832568D01*
X149132751Y-103140254D01*
X149069406Y-103400019D01*
X149009087Y-103618674D01*
X148949657Y-103803029D01*
X148888976Y-103959895D01*
X148824905Y-104096084D01*
X148777688Y-104181413D01*
X148662788Y-104347587D01*
X148514019Y-104520456D01*
X148347462Y-104683178D01*
X148179196Y-104818914D01*
X148148913Y-104839892D01*
X148032472Y-104907685D01*
X147904642Y-104964947D01*
X147775054Y-105009501D01*
X147653340Y-105039169D01*
X147549131Y-105051777D01*
X147472058Y-105045147D01*
X147431752Y-105017103D01*
X147428161Y-105002772D01*
X147428130Y-104906794D01*
X147437863Y-104822422D01*
X147454825Y-104769717D01*
X147458157Y-104765442D01*
X147494580Y-104749782D01*
X147570402Y-104729723D01*
X147670433Y-104709185D01*
X147688944Y-104705894D01*
X147877709Y-104659372D01*
X148043141Y-104585694D01*
X148199047Y-104476875D01*
X148359234Y-104324929D01*
X148372968Y-104310328D01*
X148519920Y-104133535D01*
X148644922Y-103938776D01*
X148750393Y-103719571D01*
X148838750Y-103469438D01*
X148912413Y-103181898D01*
X148973799Y-102850470D01*
X149008356Y-102607718D01*
X149029592Y-102435882D01*
X149042713Y-102295527D01*
X149045569Y-102176233D01*
X149036013Y-102067583D01*
X149011898Y-101959160D01*
X148971075Y-101840545D01*
X148911399Y-101701322D01*
X148830720Y-101531073D01*
X148754204Y-101374863D01*
X148507625Y-100873815D01*
X148556040Y-100791181D01*
X148608756Y-100719175D01*
X148662991Y-100672798D01*
X148706381Y-100661588D01*
X148716446Y-100667461D01*
X148730254Y-100701844D01*
X148749427Y-100775071D01*
X148769912Y-100871578D01*
X148770706Y-100875725D01*
X148797308Y-100979241D01*
X148841566Y-101113678D01*
X148896923Y-101260328D01*
X148947009Y-101378832D01*
X149025930Y-101552023D01*
X149087629Y-101678316D01*
X149135529Y-101762029D01*
X149173052Y-101807478D01*
X149203621Y-101818977D01*
X149230658Y-101800845D01*
X149253446Y-101765306D01*
X149273550Y-101715404D01*
X149305298Y-101621987D01*
X149345806Y-101494814D01*
X149392193Y-101343642D01*
X149441576Y-101178231D01*
X149491074Y-101008338D01*
X149537802Y-100843721D01*
X149578880Y-100694139D01*
X149611425Y-100569349D01*
X149630510Y-100488750D01*
X149676795Y-100274783D01*
X149797198Y-100274783D01*
X149882027Y-100282881D01*
D12*
%TO.C,J1*%
X134350000Y-104450000D02*
X133550000Y-104450000D01*
X134350000Y-104250000D02*
X134350000Y-104450000D01*
X131350000Y-104450000D02*
X131350000Y-104250000D01*
X132150000Y-104450000D02*
X131350000Y-104450000D01*
X131350000Y-101450000D02*
X132150000Y-101450000D01*
X131350000Y-101650000D02*
X131350000Y-101450000D01*
X134150000Y-101450000D02*
X134350000Y-101650000D01*
X133550000Y-101450000D02*
X134150000Y-101450000D01*
X133550000Y-101450000D02*
X133550000Y-100950000D01*
X132150000Y-101450000D02*
X132150000Y-100950000D01*
D10*
%TO.C,AE1*%
X127200000Y-89550000D02*
X162400000Y-89550000D01*
X135200000Y-94950000D02*
X162400000Y-94950000D01*
X127200000Y-94950000D02*
X131400000Y-94950000D01*
%TO.C,C2*%
X131433333Y-98450000D02*
X131400000Y-98483333D01*
X131300000Y-98516666D01*
X131233333Y-98516666D01*
X131133333Y-98483333D01*
X131066666Y-98416666D01*
X131033333Y-98350000D01*
X131000000Y-98216666D01*
X131000000Y-98116666D01*
X131033333Y-97983333D01*
X131066666Y-97916666D01*
X131133333Y-97850000D01*
X131233333Y-97816666D01*
X131300000Y-97816666D01*
X131400000Y-97850000D01*
X131433333Y-97883333D01*
X131700000Y-97883333D02*
X131733333Y-97850000D01*
X131800000Y-97816666D01*
X131966666Y-97816666D01*
X132033333Y-97850000D01*
X132066666Y-97883333D01*
X132100000Y-97950000D01*
X132100000Y-98016666D01*
X132066666Y-98116666D01*
X131666666Y-98516666D01*
X132100000Y-98516666D01*
%TO.C,C1*%
X134270000Y-99816666D02*
X134303333Y-99850000D01*
X134336666Y-99950000D01*
X134336666Y-100016666D01*
X134303333Y-100116666D01*
X134236666Y-100183333D01*
X134170000Y-100216666D01*
X134036666Y-100250000D01*
X133936666Y-100250000D01*
X133803333Y-100216666D01*
X133736666Y-100183333D01*
X133670000Y-100116666D01*
X133636666Y-100016666D01*
X133636666Y-99950000D01*
X133670000Y-99850000D01*
X133703333Y-99816666D01*
X134336666Y-99150000D02*
X134336666Y-99550000D01*
X134336666Y-99350000D02*
X133636666Y-99350000D01*
X133736666Y-99416666D01*
X133803333Y-99483333D01*
X133836666Y-99550000D01*
%TO.C,FID1*%
X125000000Y-101700000D02*
X124766666Y-101700000D01*
X124766666Y-102066666D02*
X124766666Y-101366666D01*
X125100000Y-101366666D01*
X125366666Y-102066666D02*
X125366666Y-101366666D01*
X125700000Y-102066666D02*
X125700000Y-101366666D01*
X125866666Y-101366666D01*
X125966666Y-101400000D01*
X126033333Y-101466666D01*
X126066666Y-101533333D01*
X126100000Y-101666666D01*
X126100000Y-101766666D01*
X126066666Y-101900000D01*
X126033333Y-101966666D01*
X125966666Y-102033333D01*
X125866666Y-102066666D01*
X125700000Y-102066666D01*
X126766666Y-102066666D02*
X126366666Y-102066666D01*
X126566666Y-102066666D02*
X126566666Y-101366666D01*
X126500000Y-101466666D01*
X126433333Y-101533333D01*
X126366666Y-101566666D01*
%TO.C,FID2*%
X163000000Y-101700000D02*
X162766666Y-101700000D01*
X162766666Y-102066666D02*
X162766666Y-101366666D01*
X163100000Y-101366666D01*
X163366666Y-102066666D02*
X163366666Y-101366666D01*
X163700000Y-102066666D02*
X163700000Y-101366666D01*
X163866666Y-101366666D01*
X163966666Y-101400000D01*
X164033333Y-101466666D01*
X164066666Y-101533333D01*
X164100000Y-101666666D01*
X164100000Y-101766666D01*
X164066666Y-101900000D01*
X164033333Y-101966666D01*
X163966666Y-102033333D01*
X163866666Y-102066666D01*
X163700000Y-102066666D01*
X164366666Y-101433333D02*
X164400000Y-101400000D01*
X164466666Y-101366666D01*
X164633333Y-101366666D01*
X164700000Y-101400000D01*
X164733333Y-101433333D01*
X164766666Y-101500000D01*
X164766666Y-101566666D01*
X164733333Y-101666666D01*
X164333333Y-102066666D01*
X164766666Y-102066666D01*
%TO.C,J1*%
X134516666Y-100566666D02*
X134516666Y-101066666D01*
X134483333Y-101166666D01*
X134416666Y-101233333D01*
X134316666Y-101266666D01*
X134250000Y-101266666D01*
X135216666Y-101266666D02*
X134816666Y-101266666D01*
X135016666Y-101266666D02*
X135016666Y-100566666D01*
X134950000Y-100666666D01*
X134883333Y-100733333D01*
X134816666Y-100766666D01*
%TO.C,L1*%
X131433333Y-97366666D02*
X131100000Y-97366666D01*
X131100000Y-96666666D01*
X132033333Y-97366666D02*
X131633333Y-97366666D01*
X131833333Y-97366666D02*
X131833333Y-96666666D01*
X131766666Y-96766666D01*
X131700000Y-96833333D01*
X131633333Y-96866666D01*
%TO.C,AE1*%
X159233333Y-95966666D02*
X159709523Y-95966666D01*
X159138095Y-96252380D02*
X159471428Y-95252380D01*
X159804761Y-96252380D01*
X160138095Y-95728571D02*
X160471428Y-95728571D01*
X160614285Y-96252380D02*
X160138095Y-96252380D01*
X160138095Y-95252380D01*
X160614285Y-95252380D01*
X161566666Y-96252380D02*
X160995238Y-96252380D01*
X161280952Y-96252380D02*
X161280952Y-95252380D01*
X161185714Y-95395238D01*
X161090476Y-95490476D01*
X160995238Y-95538095D01*
%TD*%
M02*
