G04 #@! TF.GenerationSoftware,KiCad,Pcbnew,6.0.2+dfsg-1*
G04 #@! TF.CreationDate,2022-08-23T15:38:10-04:00*
G04 #@! TF.ProjectId,RUSP_Mainboard,52555350-5f4d-4616-996e-626f6172642e,rev?*
G04 #@! TF.SameCoordinates,Original*
G04 #@! TF.FileFunction,Profile,NP*
%FSLAX46Y46*%
G04 Gerber Fmt 4.6, Leading zero omitted, Abs format (unit mm)*
G04 Created by KiCad (PCBNEW 6.0.2+dfsg-1) date 2022-08-23 15:38:10*
%MOMM*%
%LPD*%
G01*
G04 APERTURE LIST*
G04 #@! TA.AperFunction,Profile*
%ADD10C,0.150000*%
G04 #@! TD*
G04 #@! TA.AperFunction,Profile*
%ADD11C,0.100000*%
G04 #@! TD*
G04 APERTURE END LIST*
D10*
X174150000Y-61800000D02*
X174150000Y-62350000D01*
X174150000Y-61800000D02*
G75*
G03*
X173150000Y-61800000I-500000J0D01*
G01*
X173150000Y-62350000D02*
X173150000Y-61800000D01*
X169150000Y-62350000D02*
G75*
G03*
X169150000Y-63350000I0J-500000D01*
G01*
X174150000Y-62350000D02*
X181810000Y-62345000D01*
X181700000Y-72950000D02*
X181700000Y-136829000D01*
X178184781Y-145314781D02*
X175172000Y-148328000D01*
X178184781Y-145314781D02*
G75*
G03*
X181700000Y-136829000I-8484778J8485780D01*
G01*
X156700000Y-94000000D02*
G75*
G03*
X144308811Y-106964221I-6700000J-6000000D01*
G01*
X175172000Y-148328000D02*
X174672000Y-147828000D01*
X174672000Y-147828000D02*
G75*
G03*
X173328000Y-149172000I-672000J-672000D01*
G01*
X173328000Y-149172000D02*
X173828000Y-149672000D01*
X173828000Y-149672000D02*
X172215000Y-151285000D01*
X163729707Y-154800309D02*
G75*
G03*
X172215000Y-151285000I-708J12000312D01*
G01*
X143850000Y-154800000D02*
X143850000Y-154000000D01*
X143850000Y-154000000D02*
G75*
G03*
X141950000Y-154000000I-950000J0D01*
G01*
X141950000Y-154000000D02*
X141950000Y-154800000D01*
X141950000Y-154800000D02*
X141047017Y-154796974D01*
X111700000Y-118450000D02*
X113500000Y-118450000D01*
X113500000Y-118450000D02*
G75*
G03*
X113500000Y-116550000I0J950000D01*
G01*
X113500000Y-116550000D02*
X111700000Y-116550000D01*
X111700000Y-116550000D02*
X111700000Y-107688000D01*
X114869642Y-99369681D02*
G75*
G03*
X111700000Y-107688000I9330364J-8318321D01*
G01*
X115080000Y-99100000D02*
G75*
G03*
X116697313Y-94620000I-5230012J4420004D01*
G01*
X116697313Y-94620000D02*
X116700000Y-67300000D01*
X117060192Y-64261046D02*
G75*
G03*
X116700000Y-67300000I12639779J-3038953D01*
G01*
X117060000Y-64261000D02*
X117511000Y-64405000D01*
X117511000Y-64405000D02*
G75*
G03*
X118089000Y-62595000I289000J905000D01*
G01*
X118089000Y-62595000D02*
X117638000Y-62451000D01*
X129700000Y-54299821D02*
G75*
G03*
X117638000Y-62451000I2J-13000181D01*
G01*
X129700000Y-54300000D02*
X137050000Y-54300000D01*
X137050000Y-54300000D02*
X137050000Y-55000000D01*
X137050000Y-55000000D02*
G75*
G03*
X138950000Y-55000000I950000J0D01*
G01*
X138950000Y-55000000D02*
X138950000Y-54300000D01*
X138950000Y-54300000D02*
X169050000Y-54300000D01*
X169050000Y-55000000D02*
G75*
G03*
X170950000Y-55000000I950000J0D01*
G01*
X169050000Y-54300000D02*
X169050000Y-55000000D01*
X170950000Y-55000000D02*
X170950000Y-54300000D01*
X170950000Y-54300000D02*
X172260000Y-54300000D01*
X181811715Y-61339469D02*
G75*
G03*
X172260000Y-54300000I-9551714J-2960530D01*
G01*
X181700000Y-72950000D02*
X181000000Y-72950000D01*
X181000000Y-71050000D02*
G75*
G03*
X181000000Y-72950000I0J-950000D01*
G01*
X181000000Y-71050000D02*
X181700000Y-71050000D01*
X181700000Y-71050000D02*
X181700000Y-68650000D01*
X128700000Y-93400000D02*
X121500000Y-93400000D01*
X137000000Y-108900000D02*
X137000000Y-93400000D01*
X181700000Y-68650000D02*
X174150000Y-68650000D01*
X174150000Y-68650000D02*
X174150000Y-69200000D01*
X173150000Y-69200000D02*
X173150000Y-68650000D01*
X173150000Y-68650000D02*
X169150000Y-68650000D01*
X169150000Y-67650000D02*
X169150000Y-63350000D01*
X169150000Y-62350000D02*
X173150000Y-62350000D01*
X173150000Y-69200000D02*
G75*
G03*
X174150000Y-69200000I500000J0D01*
G01*
X169150000Y-67650000D02*
G75*
G03*
X169150000Y-68650000I0J-500000D01*
G01*
X128700000Y-93400000D02*
X137000000Y-93400000D01*
X149570000Y-111280000D02*
X144308811Y-106964221D01*
X171525000Y-97475000D02*
X175564847Y-107579056D01*
X146000000Y-155600000D02*
X146000000Y-154800000D01*
X111700000Y-129420000D02*
X111700000Y-118450000D01*
X121500000Y-107875000D02*
X121500000Y-93400000D01*
X121500000Y-107875000D02*
X128700000Y-107875000D01*
X128700000Y-108900000D02*
X128700000Y-107875000D01*
X159651004Y-119510251D02*
G75*
G03*
X175564847Y-107579056I6348996J8110251D01*
G01*
X149570001Y-111280001D02*
G75*
G03*
X159651004Y-119510250I5109999J-4029999D01*
G01*
X146000000Y-155600000D02*
X154200000Y-155600000D01*
X166499722Y-93990344D02*
X156700000Y-94000000D01*
X154200000Y-155600000D02*
X154200000Y-154800000D01*
X143850000Y-154800000D02*
X146000000Y-154800000D01*
X163729707Y-154800309D02*
X154200000Y-154800000D01*
X115080000Y-99100000D02*
X114869642Y-99369681D01*
X171525000Y-97475000D02*
G75*
G03*
X166499722Y-93990344I-5124999J-2024998D01*
G01*
X181811715Y-61339469D02*
X181810000Y-62345000D01*
X111700000Y-129420000D02*
G75*
G03*
X141047017Y-154796974I44090004J21330005D01*
G01*
X137000000Y-108900000D02*
X128700000Y-108900000D01*
D11*
X155450000Y-148080000D02*
X155000000Y-148080000D01*
X154700000Y-147830000D02*
X154700000Y-147080000D01*
X163700000Y-147580000D02*
X163700000Y-147080000D01*
X155300000Y-147580000D02*
X155450000Y-147580000D01*
X155300000Y-147080000D02*
X155300000Y-147580000D01*
X163550000Y-147580000D02*
X163700000Y-147580000D01*
X164000000Y-148080000D02*
X163550000Y-148080000D01*
X164300000Y-147080000D02*
X164300000Y-147830000D01*
X154700000Y-147830000D02*
G75*
G03*
X155000000Y-148080000I275000J25000D01*
G01*
X155450000Y-148080000D02*
G75*
G03*
X155450000Y-147580000I0J250000D01*
G01*
X155300000Y-147080000D02*
G75*
G03*
X154700000Y-147080000I-300000J0D01*
G01*
X164300000Y-147080000D02*
G75*
G03*
X163700000Y-147080000I-300000J0D01*
G01*
X163550000Y-147580000D02*
G75*
G03*
X163550000Y-148080000I0J-250000D01*
G01*
X164000000Y-148080000D02*
G75*
G03*
X164300000Y-147830000I25000J275000D01*
G01*
M02*
